<svg width="22" height="22" viewBox="0 0 22 22" fill="none" xmlns="http://www.w3.org/2000/svg">
<path d="M21.2531 9.63183H18.8801C18.7453 9.63183 18.6164 9.69043 18.5256 9.79297L12.1125 17.1846V0.6875C12.1125 0.558594 12.007 0.453125 11.8781 0.453125H10.1203C9.99142 0.453125 9.88595 0.558594 9.88595 0.6875V17.1846L3.47287 9.79297C3.38498 9.69043 3.25607 9.63183 3.11837 9.63183H0.745328C0.54611 9.63183 0.437711 9.86914 0.569547 10.0186L10.2932 21.2246C10.3811 21.326 10.4897 21.4073 10.6118 21.4631C10.7339 21.5188 10.8665 21.5476 11.0007 21.5476C11.1349 21.5476 11.2675 21.5188 11.3896 21.4631C11.5117 21.4073 11.6203 21.326 11.7082 21.2246L21.4289 10.0186C21.5608 9.86621 21.4524 9.63183 21.2531 9.63183Z" fill="#FFBB00"/>
</svg>
