<svg width="61" height="64" viewBox="0 0 61 64" fill="none" xmlns="http://www.w3.org/2000/svg">
<path d="M57.8567 52.0187C56.3461 48.4406 54.1539 45.1905 51.4024 42.4494C48.6591 39.7004 45.4095 37.5086 41.833 35.9951C41.801 35.9791 41.769 35.9711 41.7369 35.9551C46.7258 32.3516 49.969 26.4818 49.969 19.8594C49.969 8.88867 41.0803 0 30.1096 0C19.1389 0 10.2502 8.88867 10.2502 19.8594C10.2502 26.4818 13.4934 32.3516 18.4822 35.9631C18.4502 35.9791 18.4182 35.9871 18.3861 36.0031C14.7986 37.5166 11.5795 39.6867 8.8168 42.4574C6.0678 45.2006 3.87602 48.4502 2.36251 52.0268C0.875632 55.5282 0.0737274 59.2822 0.000200243 63.0855C-0.00193708 63.171 0.0130538 63.256 0.0442899 63.3356C0.075526 63.4152 0.122375 63.4877 0.182077 63.5489C0.241779 63.6101 0.313125 63.6587 0.391912 63.6919C0.470699 63.7251 0.555332 63.7422 0.640825 63.7422H5.44551C5.79786 63.7422 6.07813 63.4619 6.08614 63.1176C6.24629 56.9355 8.72872 51.1459 13.117 46.7576C17.6574 42.2172 23.6873 39.7188 30.1096 39.7188C36.5318 39.7188 42.5617 42.2172 47.1022 46.7576C51.4904 51.1459 53.9729 56.9355 54.133 63.1176C54.141 63.4699 54.4213 63.7422 54.7736 63.7422H59.5783C59.6638 63.7422 59.7485 63.7251 59.8272 63.6919C59.906 63.6587 59.9774 63.6101 60.0371 63.5489C60.0968 63.4877 60.1436 63.4152 60.1749 63.3356C60.2061 63.256 60.2211 63.171 60.219 63.0855C60.1389 59.2578 59.3461 55.5342 57.8567 52.0187V52.0187ZM30.1096 33.6328C26.434 33.6328 22.9746 32.1994 20.3721 29.5969C17.7695 26.9943 16.3361 23.535 16.3361 19.8594C16.3361 16.1838 17.7695 12.7244 20.3721 10.1219C22.9746 7.51934 26.434 6.08594 30.1096 6.08594C33.7852 6.08594 37.2445 7.51934 39.8471 10.1219C42.4496 12.7244 43.883 16.1838 43.883 19.8594C43.883 23.535 42.4496 26.9943 39.8471 29.5969C37.2445 32.1994 33.7852 33.6328 30.1096 33.6328Z" fill="white"/>
</svg>
