<svg width="40" height="40" viewBox="0 0 40 40" fill="none" xmlns="http://www.w3.org/2000/svg">
<circle cx="20" cy="20" r="20" fill="#7A8459"/>
<g clip-path="url(#clip0_13_491)">
<path d="M15.5653 12.7145C15.9975 12.7145 16.3479 12.3627 16.3479 11.9288C16.3479 11.4948 15.9975 11.1431 15.5653 11.1431C15.1331 11.1431 14.7827 11.4948 14.7827 11.9288C14.7827 12.3627 15.1331 12.7145 15.5653 12.7145Z" fill="white"/>
<path d="M24.6959 12.7145C25.1281 12.7145 25.4785 12.3627 25.4785 11.9288C25.4785 11.4948 25.1281 11.1431 24.6959 11.1431C24.2637 11.1431 23.9133 11.4948 23.9133 11.9288C23.9133 12.3627 24.2637 12.7145 24.6959 12.7145Z" fill="white"/>
<path d="M20.0002 9.57144C20.4324 9.57144 20.7828 9.21966 20.7828 8.78572C20.7828 8.35178 20.4324 8 20.0002 8C19.568 8 19.2176 8.35178 19.2176 8.78572C19.2176 9.21966 19.568 9.57144 20.0002 9.57144Z" fill="white"/>
<path d="M20.5152 12.123C20.2206 11.8636 19.7794 11.8636 19.4849 12.123C19.3432 12.2473 16.0125 15.2155 16.0125 19C16.0125 22.7846 19.3432 25.7528 19.4849 25.8771C19.6321 26.0068 19.8161 26.0715 20 26.0715C20.1839 26.0715 20.3679 26.0068 20.5151 25.8771C20.6568 25.7528 23.9875 22.7846 23.9875 19C23.9875 15.2155 20.6568 12.2473 20.5152 12.123Z" fill="white"/>
<path d="M29.8525 16.346C29.8296 15.9462 29.5111 15.6275 29.1132 15.6058C29.0047 15.6012 27.1159 15.5146 25.0576 16.1537C25.3565 17.029 25.5527 17.9827 25.5527 19.0001C25.5527 21.9813 23.9149 24.4425 22.7233 25.8407C24.2048 25.5604 25.996 24.9491 27.3514 23.6197C30.0783 20.9462 29.8627 16.5327 29.8525 16.346ZM10.3519 23.2488C9.09941 23.9221 8.30043 24.6627 8.24797 24.7119C7.91736 25.0219 7.91736 25.5496 8.24797 25.8598C8.35958 25.9646 11.0233 28.4287 14.3912 28.4287C15.7485 28.4287 16.9871 28.027 17.9947 27.5424C14.8654 27.1778 12.0615 25.9048 10.3519 23.2488ZM31.752 24.7119C31.6996 24.6627 30.9006 23.9222 29.6482 23.2489C27.9385 25.9054 25.1344 27.1778 22.0053 27.5424C23.0128 28.027 24.2515 28.4287 25.6087 28.4287C28.9767 28.4287 31.6404 25.9646 31.752 25.8597C32.0827 25.5497 32.0827 25.0219 31.752 24.7119ZM20.0009 28.223C19.4622 28.5673 18.8074 28.9272 18.0589 29.2352C18.7983 29.6296 19.5127 29.8808 19.7559 29.961C19.9145 30.0132 20.0855 30.0132 20.244 29.961C20.4873 29.8808 21.2017 29.6296 21.9411 29.2352C21.1947 28.928 20.5395 28.566 20.0009 28.223ZM14.4473 19.0001C14.4473 17.9825 14.6436 17.0289 14.9425 16.1534C12.8843 15.5141 10.9956 15.6005 10.8868 15.6058C10.4888 15.6276 10.1704 15.9463 10.1474 16.3461C10.1373 16.5327 9.92174 20.9462 12.6486 23.6198C14.0041 24.9489 15.7952 25.5602 17.2764 25.8406C16.0855 24.443 14.4473 21.9816 14.4473 19.0001Z" fill="white"/>
</g>
<defs>
<clipPath id="clip0_13_491">
<rect width="24" height="22" fill="white" transform="translate(8 8)"/>
</clipPath>
</defs>
</svg>
