<svg width="40" height="40" viewBox="0 0 40 40" fill="none" xmlns="http://www.w3.org/2000/svg">
<circle cx="20" cy="20" r="20" fill="#7A8459"/>
<path d="M20.8932 26C14.06 26 10.1624 21.4955 10 14H13.4229C13.5353 19.5015 16.0587 21.8318 18.0575 22.3123V14H21.2805V18.7447C23.2542 18.5405 25.3279 16.3784 26.0275 14H29.2505C28.9869 15.2335 28.4614 16.4014 27.7069 17.4307C26.9524 18.46 25.9852 19.3285 24.8657 19.982C26.1153 20.579 27.2191 21.4241 28.1041 22.4615C28.9891 23.4988 29.6353 24.7049 30 26H26.4522C26.1248 24.8751 25.4594 23.8681 24.5394 23.1053C23.6194 22.3424 22.4858 21.8577 21.2805 21.7117V26H20.8932Z" fill="white"/>
</svg>
