<svg width="40" height="40" viewBox="0 0 40 40" fill="none" xmlns="http://www.w3.org/2000/svg">
<circle cx="20" cy="20" r="20" fill="#7A8459"/>
<path d="M27.2195 12.7708C25.4321 10.9896 23.0488 10 20.5331 10C15.3031 10 11.0662 14.2222 11.0662 19.434C11.0662 21.0833 11.5296 22.7326 12.324 24.1181L11 29L16.0314 27.6806C17.4216 28.4062 18.9442 28.8021 20.5331 28.8021C25.7631 28.8021 30 24.5799 30 19.3681C29.9338 16.9271 29.007 14.5521 27.2195 12.7708ZM25.101 22.7986C24.9024 23.3264 23.9756 23.8542 23.5122 23.9201C23.115 23.9861 22.5854 23.9861 22.0557 23.8542C21.7247 23.7222 21.2613 23.5903 20.7317 23.3264C18.3484 22.3368 16.8258 19.9618 16.6934 19.7639C16.561 19.6319 15.7003 18.5104 15.7003 17.3229C15.7003 16.1354 16.2962 15.6076 16.4948 15.3437C16.6934 15.0799 16.9582 15.0799 17.1568 15.0799C17.2892 15.0799 17.4878 15.0799 17.6202 15.0799C17.7526 15.0799 17.9512 15.0139 18.1498 15.4757C18.3484 15.9375 18.8118 17.125 18.878 17.191C18.9442 17.3229 18.9442 17.4549 18.878 17.5868C18.8118 17.7188 18.7456 17.8507 18.6132 17.9826C18.4808 18.1146 18.3484 18.3125 18.2822 18.3785C18.1498 18.5104 18.0174 18.6424 18.1498 18.8403C18.2822 19.1042 18.7456 19.8299 19.4739 20.4896C20.4007 21.2812 21.1289 21.5451 21.3937 21.6771C21.6585 21.809 21.7909 21.7431 21.9233 21.6111C22.0557 21.4792 22.5192 20.9514 22.6516 20.6875C22.784 20.4236 22.9826 20.4896 23.1812 20.5556C23.3798 20.6215 24.5714 21.2153 24.77 21.3472C25.0348 21.4792 25.1672 21.5451 25.2334 21.6111C25.2996 21.809 25.2997 22.2708 25.101 22.7986Z" fill="white"/>
</svg>
