<svg width="18" height="20" viewBox="0 0 18 20" fill="none" xmlns="http://www.w3.org/2000/svg">
<path d="M7.29311 0.891069C2.59021 1.20812 -0.242225 2.98913 0.29311 4.89107C0.937786 7.19549 7.0592 8.78113 12.2931 7.89107C14.5223 7.51312 16.5514 6.83786 17.2931 5.89107C17.6049 5.48876 17.289 4.36246 17.2931 3.89107C17.2931 3.5213 17.449 4.19594 17.2931 3.89107C16.623 2.57833 14.538 1.25284 11.2931 0.891069C10.7325 0.830166 7.82826 0.854527 7.29311 0.891069Z" fill="#5898FF"/>
<path d="M0.229512 6.87252C0.149319 7.089 0.233666 7.51476 0.229512 7.87252C0.229512 8.30084 0.0734612 8.51939 0.229512 8.87252C0.904289 10.3931 2.95605 11.4394 6.22951 11.8725C6.71464 11.9338 7.14113 11.8725 8.22951 11.8725C9.7017 11.8725 11.1115 12.0844 12.2295 11.8725C13.8157 11.5714 15.2972 10.5693 16.2295 9.87252C16.7273 9.49581 17.0312 9.31958 17.2295 8.87252C17.3856 8.51939 17.2295 8.30104 17.2295 7.87252C17.2254 7.51476 17.3097 7.0892 17.2295 6.87252C17.1789 6.72196 17.2465 6.86325 17.2295 6.87252C17.2084 6.882 17.3307 6.73123 17.2295 6.87252C16.2087 8.28002 13.3722 9.6371 10.2295 9.87252C6.23883 10.169 1.51621 8.69906 0.229512 6.87252C0.246309 6.882 0.132522 6.73607 0.229512 6.87252C0.280084 6.72196 0.20838 6.86325 0.229512 6.87252Z" fill="#5898FF"/>
<path d="M0.160342 9.87248C0.0130755 10.2258 0.0592204 10.4911 0.160342 10.8725C0.648648 12.7413 4.1863 14.6818 8.16034 14.8725C12.2566 15.0723 16.0741 13.7365 17.1603 11.8725C17.4972 11.2915 17.3876 10.4256 17.1603 9.87248C16.3773 10.9557 14.2821 12.4029 12.1603 12.8725C10.9184 13.1468 10.6002 12.8725 9.16034 12.8725C7.72048 12.8725 6.40229 13.1466 5.16034 12.8725C3.03011 12.4029 0.943363 10.9603 0.160342 9.87248Z" fill="#5898FF"/>
<path d="M0.0655274 13.8725C-0.0145973 14.0875 0.069678 14.517 0.0655274 14.8725C0.0655274 15.2934 -0.0819093 15.5402 0.0655274 15.8725C1.15696 18.3232 7.15536 19.7844 12.0655 18.8725C14.1941 18.4796 15.151 17.892 16.0655 16.8725C16.5587 16.3252 17.1119 15.4712 17.0655 14.8725C17.0444 14.5779 17.1287 13.8725 17.0655 13.8725C17.0444 13.8725 17.1457 13.7463 17.0655 13.8725C16.3489 14.9529 14.4216 16.4281 12.0655 16.8725C11.0497 17.0643 9.35961 16.8725 8.06553 16.8725C6.72939 16.8725 6.19088 17.0875 5.06553 16.8725C2.815 16.4469 0.820035 14.9483 0.0655274 13.8725C0.0824908 13.8725 -0.0355308 13.7321 0.0655274 13.8725C0.116057 13.7275 0.0528951 13.8725 0.0655274 13.8725Z" fill="#5898FF"/>
</svg>
