<svg width="30" height="30" viewBox="0 0 30 30" fill="none" xmlns="http://www.w3.org/2000/svg">
<g clip-path="url(#clip0_1545_4410)">
<path d="M11.25 22.5C11.25 23.4946 11.6451 24.4484 12.3483 25.1516C13.0516 25.8549 14.0054 26.25 15 26.25C15.9946 26.25 16.9484 25.8549 17.6516 25.1516C18.3549 24.4484 18.75 23.4946 18.75 22.5" stroke="#EFF5FF" stroke-width="2" stroke-linecap="round" stroke-linejoin="round"/>
<path d="M21.5625 2.8125C23.3729 3.96764 24.8412 5.5861 25.8152 7.5" stroke="#EFF5FF" stroke-width="2" stroke-linecap="round" stroke-linejoin="round"/>
<path d="M4.18555 7.5C5.15957 5.5861 6.62792 3.96764 8.43828 2.8125" stroke="#EFF5FF" stroke-width="2" stroke-linecap="round" stroke-linejoin="round"/>
<path d="M6.56272 13.125C6.56272 10.8872 7.45167 8.74112 9.03401 7.15879C10.6163 5.57645 12.7625 4.6875 15.0002 4.6875C17.238 4.6875 19.3841 5.57645 20.9664 7.15879C22.5488 8.74112 23.4377 10.8872 23.4377 13.125C23.4377 17.3227 24.4104 19.7578 25.1838 21.0938C25.266 21.236 25.3093 21.3974 25.3094 21.5617C25.3096 21.726 25.2665 21.8874 25.1846 22.0298C25.1027 22.1722 24.9849 22.2906 24.8428 22.3732C24.7008 22.4557 24.5395 22.4994 24.3752 22.5H5.62522C5.46113 22.499 5.30018 22.455 5.15845 22.3723C5.01671 22.2896 4.89916 22.1712 4.81755 22.0288C4.73593 21.8865 4.69311 21.7252 4.69336 21.5611C4.69361 21.397 4.73692 21.2359 4.81897 21.0938C5.59124 19.7578 6.56272 17.3215 6.56272 13.125Z" stroke="#EFF5FF" stroke-width="2" stroke-linecap="round" stroke-linejoin="round"/>
</g>
<defs>
<clipPath id="clip0_1545_4410">
<rect width="30" height="30" fill="white"/>
</clipPath>
</defs>
</svg>
