<svg width="30" height="30" viewBox="0 0 30 30" fill="none" xmlns="http://www.w3.org/2000/svg">
<g clip-path="url(#clip0_1545_4426)">
<path d="M5.29102 26.966C5.15447 27.0809 4.98797 27.1544 4.81109 27.1779C4.63421 27.2015 4.45428 27.174 4.29246 27.0988C4.13064 27.0236 3.99363 26.9038 3.89754 26.7535C3.80145 26.6031 3.75026 26.4284 3.75 26.25V7.5C3.75 7.25136 3.84877 7.0129 4.02459 6.83709C4.2004 6.66127 4.43886 6.5625 4.6875 6.5625H25.3125C25.5611 6.5625 25.7996 6.66127 25.9754 6.83709C26.1512 7.0129 26.25 7.25136 26.25 7.5V22.5C26.25 22.7486 26.1512 22.9871 25.9754 23.1629C25.7996 23.3387 25.5611 23.4375 25.3125 23.4375H9.66797C9.44713 23.4376 9.2334 23.5156 9.06445 23.6578L5.29102 26.966Z" stroke="#EFF5FF" stroke-width="2" stroke-linecap="round" stroke-linejoin="round"/>
<path d="M15 16.4062C15.7767 16.4062 16.4062 15.7767 16.4062 15C16.4062 14.2233 15.7767 13.5938 15 13.5938C14.2233 13.5938 13.5938 14.2233 13.5938 15C13.5938 15.7767 14.2233 16.4062 15 16.4062Z" fill="#EFF5FF"/>
<path d="M9.84375 16.4062C10.6204 16.4062 11.25 15.7767 11.25 15C11.25 14.2233 10.6204 13.5938 9.84375 13.5938C9.0671 13.5938 8.4375 14.2233 8.4375 15C8.4375 15.7767 9.0671 16.4062 9.84375 16.4062Z" fill="#EFF5FF"/>
<path d="M20.1562 16.4062C20.9329 16.4062 21.5625 15.7767 21.5625 15C21.5625 14.2233 20.9329 13.5938 20.1562 13.5938C19.3796 13.5938 18.75 14.2233 18.75 15C18.75 15.7767 19.3796 16.4062 20.1562 16.4062Z" fill="#EFF5FF"/>
</g>
<defs>
<clipPath id="clip0_1545_4426">
<rect width="30" height="30" fill="white"/>
</clipPath>
</defs>
</svg>
