<svg width="19" height="19" viewBox="0 0 19 19" fill="none" xmlns="http://www.w3.org/2000/svg">
<path d="M18.0602 6.74719L8.52978 16.2769C8.41951 16.3872 8.28859 16.4747 8.1445 16.5344C8.0004 16.5941 7.84596 16.6248 7.69 16.6248C7.53403 16.6248 7.37959 16.5941 7.2355 16.5344C7.09141 16.4747 6.96048 16.3872 6.85021 16.2769L1.53466 10.9331C1.31236 10.7105 1.1875 10.4087 1.1875 10.0941C1.1875 9.77945 1.31236 9.47769 1.53466 9.25504L3.31591 7.47379C3.53785 7.2518 3.83865 7.12671 4.15255 7.12588C4.46646 7.12504 4.76792 7.24853 4.99103 7.46934L7.71041 10.087L7.71857 10.0952L14.6009 3.31383C14.8234 3.0922 15.1247 2.96777 15.4388 2.96777C15.7529 2.96777 16.0542 3.0922 16.2767 3.31383L18.058 5.06242C18.1692 5.17264 18.2575 5.30377 18.3179 5.44826C18.3782 5.59276 18.4094 5.74775 18.4096 5.90434C18.4098 6.06093 18.3791 6.21601 18.3191 6.36066C18.2591 6.50531 18.1711 6.63667 18.0602 6.74719Z" fill="#5898FF"/>
</svg>
