<svg width="30" height="30" viewBox="0 0 30 30" fill="none" xmlns="http://www.w3.org/2000/svg">
<g clip-path="url(#clip0_1545_4419)">
<path d="M15 19.6875C17.5888 19.6875 19.6875 17.5888 19.6875 15C19.6875 12.4112 17.5888 10.3125 15 10.3125C12.4112 10.3125 10.3125 12.4112 10.3125 15C10.3125 17.5888 12.4112 19.6875 15 19.6875Z" stroke="#EFF5FF" stroke-width="2" stroke-linecap="round" stroke-linejoin="round"/>
<path d="M15.2402 24.1535C15.0831 24.1535 14.9249 24.1535 14.7714 24.1535L11.0155 26.25C9.55343 25.7582 8.19727 24.9948 7.01828 24L7.00422 19.7813C6.92102 19.65 6.8425 19.5176 6.76985 19.3816L3.03508 17.2547C2.74091 15.7667 2.74091 14.2356 3.03508 12.7477L6.76633 10.6266C6.8425 10.4918 6.92102 10.3582 7.00071 10.227L7.01946 6.0082C8.19738 5.01052 9.55319 4.24435 11.0155 3.75L14.7655 5.84648C14.9226 5.84648 15.0808 5.84648 15.2343 5.84648L18.9843 3.75C20.4464 4.24182 21.8026 5.00518 22.9816 6L22.9956 10.2187C23.0788 10.35 23.1573 10.4824 23.23 10.6184L26.9624 12.7441C27.2566 14.2321 27.2566 15.7632 26.9624 17.2512L23.2312 19.3723C23.155 19.507 23.0765 19.6406 22.9968 19.7719L22.9781 23.9906C21.8009 24.9885 20.4459 25.755 18.9843 26.25L15.2402 24.1535Z" stroke="#EFF5FF" stroke-width="2" stroke-linecap="round" stroke-linejoin="round"/>
</g>
<defs>
<clipPath id="clip0_1545_4419">
<rect width="30" height="30" fill="white"/>
</clipPath>
</defs>
</svg>
