<svg width="30" height="22" viewBox="0 0 30 22" fill="none" xmlns="http://www.w3.org/2000/svg">
<path d="M6 7.5C8.01449 7.5 9 6.51133 9 4.5C9 2.48867 8.01449 0.5 6 0.5C3.98551 0.5 2 2.48867 2 4.5C2 6.51133 3.98551 7.5 6 7.5ZM15 11.5C17.339 11.5 19 9.79866 19 7.5C19 5.20134 17.339 2.5 15 2.5C12.6824 2.47837 11 5.17971 11 7.5C10.9969 9.8172 12.6794 11.5 15 11.5ZM24 7.5C26.0145 7.5 28 6.51133 28 4.5C28 2.48867 26.0145 0.5 24 0.5C21.9855 0.5 21 2.48867 21 4.5C21.0184 6.51133 22.0069 7.5 24 7.5ZM25 9.5H24C21.661 9.5 19.7746 10.4053 19 12.5C20.5859 13.2786 21.2469 14.8996 22 16.5H29C29.5082 16.5 30 16.0129 30 15.5V14.5C30.0031 11.4815 28.0126 9.5 25 9.5ZM11 12.5C10.2071 10.467 8.29615 9.5 6 9.5H5C1.98745 9.5 0 11.4815 0 14.5V15.5C0 16.0129 0.491785 16.5 1 16.5H7C7.75314 14.8378 9.33146 13.26 11 12.5ZM16 13.5H14C10.6231 13.5 8 16.0922 8 19.5V20.5C8 21.1148 8.38769 21.5 9 21.5H21C21.6092 21.5 22 21.1179 22 20.5V19.5C21.9602 16.0922 19.3769 13.5 16 13.5Z" fill="#5898FF"/>
</svg>
