<svg width="32" height="32" viewBox="0 0 32 32" fill="none" xmlns="http://www.w3.org/2000/svg">
<path d="M16 28C22.6274 28 28 22.6274 28 16C28 9.37258 22.6274 4 16 4C9.37258 4 4 9.37258 4 16C4 22.6274 9.37258 28 16 28Z" stroke="#5898FF" stroke-width="2" stroke-linecap="round" stroke-linejoin="round"/>
<path d="M15 15C15.2652 15 15.5196 15.1054 15.7071 15.2929C15.8946 15.4804 16 15.7348 16 16V21C16 21.2652 16.1054 21.5196 16.2929 21.7071C16.4804 21.8946 16.7348 22 17 22" stroke="#5898FF" stroke-width="2" stroke-linecap="round" stroke-linejoin="round"/>
<path d="M16.9375 10.5C16.9375 11.2939 16.2939 11.9375 15.5 11.9375C14.7061 11.9375 14.0625 11.2939 14.0625 10.5C14.0625 9.70609 14.7061 9.0625 15.5 9.0625C16.2939 9.0625 16.9375 9.70609 16.9375 10.5Z" fill="#5898FF" stroke="#5898FF" stroke-width="0.125"/>
</svg>
