<svg width="188" height="47" viewBox="0 0 188 47" fill="none" xmlns="http://www.w3.org/2000/svg">
<path d="M43.8283 23.5C43.8283 35.8298 34.017 45.825 21.9141 45.825C9.8113 45.825 0 35.8298 0 23.5C0 11.1702 9.8113 1.175 21.9141 1.175C34.017 1.175 43.8283 11.1702 43.8283 23.5Z" fill="white"/>
<path d="M62.3661 4.96105V12.4693C62.3661 13.3369 62.3398 14.1908 62.2937 15.0243C62.2541 15.8578 62.208 16.5068 62.1685 16.9713H62.3661C62.9457 16.0148 63.7492 15.2019 64.7832 14.5393C65.8238 13.8834 67.1477 13.5487 68.7679 13.5487C71.3037 13.5487 73.3454 14.512 74.8866 16.4455C76.4277 18.372 77.205 21.2208 77.205 24.9989C77.205 27.5061 76.8492 29.6172 76.138 31.3251C75.4332 33.0331 74.4386 34.3243 73.161 35.1988C71.8767 36.0733 70.3749 36.5105 68.6558 36.5105C67.0357 36.5105 65.725 36.1963 64.7303 35.5745C63.7292 34.9597 62.952 34.2355 62.3857 33.402H62.0563L61.2265 36.1074H57.8279V4.96105H62.3661ZM67.5759 17.3744C66.285 17.3744 65.2706 17.6409 64.5132 18.1738C63.7624 18.7067 63.2223 19.506 62.8864 20.565C62.5505 21.6239 62.3792 22.9697 62.3661 24.5958V25.0192C62.3661 27.4855 62.7414 29.378 63.4923 30.6829C64.2431 31.9878 65.6197 32.6436 67.6154 32.6436C69.1961 32.6436 70.4081 31.9808 71.2575 30.6556C72.1072 29.3234 72.5354 27.4242 72.5354 24.9373C72.5354 22.4302 72.1139 20.5445 71.2708 19.2738C70.4277 18.01 69.1961 17.3744 67.5759 17.3744Z" fill="white"/>
<path d="M90.9371 13.5283C92.8405 13.5283 94.474 13.9382 95.8373 14.7511C97.2008 15.5642 98.2544 16.7187 98.9855 18.215C99.7167 19.7112 100.085 21.4943 100.085 23.5779V26.0988H85.826C85.8787 28.251 86.432 29.9042 87.4924 31.0656C88.5527 32.2269 90.0411 32.8077 91.9579 32.8077C93.3213 32.8077 94.5529 32.6711 95.6397 32.3977C96.7263 32.1244 97.8459 31.7146 99.0053 31.1817V35.0074C97.9382 35.5267 96.8514 35.9092 95.7451 36.1484C94.6385 36.3874 93.3147 36.5105 91.7669 36.5105C89.6725 36.5105 87.8283 36.087 86.2409 35.2398C84.6537 34.3926 83.4088 33.122 82.5131 31.4413C81.6239 29.7607 81.1761 27.6769 81.1761 25.1766C81.1761 22.6966 81.5778 20.5924 82.388 18.8571C83.1981 17.1218 84.3376 15.7965 85.8063 14.8947C87.2751 13.9861 88.9811 13.5283 90.9371 13.5283ZM90.9371 17.074C89.5078 17.074 88.3552 17.5522 87.4727 18.5156C86.5967 19.4721 86.0762 20.8793 85.9183 22.7376H95.6464C95.6331 21.6308 95.4554 20.647 95.1129 19.7931C94.777 18.9392 94.2632 18.2765 93.5717 17.7914C92.8867 17.3132 92.004 17.074 90.9371 17.074Z" fill="white"/>
<path d="M116.025 13.5283C116.381 13.5283 116.776 13.5489 117.197 13.5898C117.625 13.6308 117.994 13.6855 118.297 13.7538L117.876 18.1534C117.605 18.0714 117.276 18.0168 116.881 17.9757C116.493 17.9349 116.137 17.9143 115.827 17.9143C115.017 17.9143 114.247 18.0509 113.515 18.3242C112.784 18.5975 112.132 19.0141 111.566 19.5675C111 20.1208 110.558 20.811 110.235 21.6376C109.913 22.4643 109.755 23.4275 109.755 24.5207V36.1074H105.197V13.9518H108.747L109.366 17.8526H109.577C110.005 17.067 110.532 16.3428 111.158 15.6939C111.79 15.0381 112.514 14.512 113.331 14.1225C114.148 13.7264 115.043 13.5283 116.025 13.5283Z" fill="white"/>
<path d="M136.614 29.7811C136.614 31.2364 136.271 32.466 135.593 33.4635C134.908 34.4678 133.913 35.2262 132.609 35.7385C131.305 36.251 129.705 36.5105 127.814 36.5105C126.319 36.5105 125.041 36.3944 123.961 36.1759C122.888 35.9572 121.88 35.6225 120.925 35.1647V31.1066C121.939 31.5985 123.085 32.022 124.35 32.3841C125.614 32.7463 126.82 32.924 127.946 32.924C129.441 32.924 130.515 32.6847 131.173 32.193C131.825 31.7079 132.154 31.0589 132.154 30.246C132.154 29.7608 132.023 29.3304 131.759 28.9547C131.496 28.5722 131.008 28.176 130.291 27.7729C129.579 27.3628 128.532 26.8711 127.156 26.2972C125.805 25.737 124.666 25.1769 123.744 24.6166C122.815 24.0564 122.117 23.38 121.636 22.5877C121.162 21.7952 120.925 20.7771 120.925 19.5338C120.925 17.5731 121.676 16.0837 123.171 15.0591C124.672 14.041 126.655 13.5287 129.125 13.5287C130.436 13.5287 131.674 13.6653 132.839 13.9386C134.005 14.212 135.145 14.6151 136.264 15.1343L134.835 18.6732C133.874 18.236 132.905 17.8738 131.931 17.587C130.962 17.3 129.975 17.1566 128.973 17.1566C127.801 17.1566 126.912 17.341 126.299 17.7168C125.687 18.0858 125.384 18.6185 125.384 19.3153C125.384 19.8346 125.529 20.2786 125.825 20.634C126.121 20.9961 126.635 21.358 127.36 21.7202C128.084 22.0755 129.099 22.5264 130.403 23.0592C131.674 23.5647 132.774 24.0976 133.709 24.6509C134.644 25.2043 135.356 25.8807 135.863 26.6799C136.363 27.4793 136.614 28.5172 136.614 29.7811Z" fill="white"/>
<path d="M140.842 33.6275C140.842 32.5343 141.112 31.7624 141.659 31.3114C142.205 30.8673 142.871 30.6418 143.655 30.6418C144.438 30.6418 145.117 30.8673 145.67 31.3114C146.23 31.7624 146.513 32.5343 146.513 33.6275C146.513 34.6932 146.23 35.4653 145.67 35.9365C145.117 36.4079 144.438 36.6471 143.655 36.6471C142.871 36.6471 142.205 36.4081 141.659 35.9365C141.112 35.4653 140.842 34.6932 140.842 33.6275Z" fill="#0065FF"/>
<path d="M163.15 13.5283C163.506 13.5283 163.901 13.5489 164.322 13.5898C164.75 13.6308 165.119 13.6855 165.422 13.7538L165.001 18.1534C164.731 18.0714 164.401 18.0168 164.006 17.9757C163.618 17.9349 163.262 17.9143 162.952 17.9143C162.142 17.9143 161.372 18.0509 160.641 18.3242C159.909 18.5975 159.257 19.0141 158.691 19.5675C158.125 20.1208 157.683 20.811 157.36 21.6376C157.038 22.4643 156.88 23.4275 156.88 24.5207V36.1074H152.322V13.9518H155.872L156.491 17.8526H156.702C157.13 17.067 157.657 16.3428 158.283 15.6939C158.915 15.0381 159.639 14.512 160.456 14.1225C161.273 13.7264 162.168 13.5283 163.15 13.5283Z" fill="#0065FF"/>
<path d="M188 13.9518V36.1074H184.43L183.818 33.122H183.567C183.113 33.8871 182.54 34.5157 181.848 35.0145C181.15 35.52 180.38 35.8889 179.53 36.1348C178.68 36.3875 177.791 36.5105 176.849 36.5105C175.242 36.5105 173.866 36.2237 172.726 35.6566C171.593 35.0896 170.717 34.2151 170.118 33.0263C169.512 31.8376 169.209 30.3005 169.209 28.4217V13.952H173.76V27.5403C173.76 29.2621 174.096 30.5532 174.775 31.4072C175.453 32.2611 176.5 32.6847 177.93 32.6847C179.306 32.6847 180.399 32.391 181.21 31.8033C182.02 31.2159 182.599 30.3482 182.935 29.2005C183.278 28.0528 183.449 26.6455 183.449 24.9785V13.952L188 13.9518Z" fill="#0065FF"/>
<path d="M53.3255 24.7748C53.3255 26.6194 53.0949 28.2522 52.6338 29.6799C52.1662 31.1078 51.4945 32.3103 50.6052 33.294C49.716 34.271 48.6492 35.0224 47.4042 35.5348C46.1529 36.0473 44.7499 36.3068 43.1758 36.3068C42.6736 36.3068 42.1853 36.2762 41.7112 36.2152C30.5645 34.075 30.5645 28.7875 43.6079 32.4522C44.7076 32.4004 45.6228 32.1022 46.344 31.5518C47.1408 30.9438 47.7271 30.0694 48.0959 28.9216C48.4713 27.7738 48.6558 26.387 48.6558 24.7747C48.6558 23.1624 48.4713 21.789 48.0959 20.6619C47.7271 19.5346 47.1408 18.6739 46.344 18.0793C45.833 17.6983 45.222 17.4408 44.5141 17.305C28.2577 26.4375 33.4479 13.5125 43.0839 13.3264C43.1603 13.3251 43.237 13.3245 43.314 13.3245C45.2834 13.3245 47.0156 13.7754 48.5238 14.6703C50.0255 15.5584 51.2045 16.8633 52.0542 18.5713C52.9038 20.2794 53.3255 22.3495 53.3255 24.7748Z" fill="white"/>
<path fill-rule="evenodd" clip-rule="evenodd" d="M22.6557 0C31.6545 0 39.4277 5.442 43.0839 13.3264C41.0811 13.3583 39.3529 13.8085 37.8935 14.6705C36.3721 15.5587 35.2064 16.8567 34.3895 18.5578C33.5728 20.259 33.1645 22.3358 33.1645 24.7748C33.1645 26.6194 33.4082 28.2522 33.8956 29.6799C34.383 31.1078 35.0745 32.3103 35.9703 33.294C36.8661 34.2709 37.9199 35.0223 39.1451 35.5348C39.9493 35.8714 40.8046 36.0988 41.7112 36.2152C37.6788 42.7035 30.6513 47 22.6557 47C10.1433 47 0 36.4787 0 23.5C0 10.5213 10.1433 0 22.6557 0ZM44.5141 17.305C45.033 19.2787 45.3114 21.3555 45.3114 23.5C45.3114 26.6701 44.7052 29.6929 43.6079 32.4522C43.4923 32.4577 43.3747 32.4607 43.2548 32.4607C41.9968 32.4607 40.9626 32.1601 40.1658 31.5519C39.3688 30.9439 38.7826 30.0695 38.4006 28.9217C38.0252 27.7739 37.8342 26.3871 37.8342 24.7748C37.8342 22.3358 38.2623 20.4571 39.1251 19.1522C39.9878 17.8405 41.3579 17.1914 43.235 17.1914C43.6913 17.1914 44.1179 17.2291 44.5141 17.305ZM16.5042 42.3922C16.5042 42.3922 21.0405 44.3426 24.3037 42.2129C27.567 40.0833 28.3472 37.8359 28.3472 35.0521V6.71947C28.3472 6.71947 28.1935 6.41682 27.7924 6.3034C27.3913 6.18998 19.1692 6.18998 19.1692 6.18998L18.6951 6.51143V10.9555L19.0781 11.3148H23.0888V35.243C23.0888 35.243 22.9868 37.5934 20.8691 37.985C18.7514 38.3765 16.8854 37.6587 16.8854 37.6587L16.4784 38.1L16.5042 42.3922Z" fill="#0065FF"/>
</svg>
