<?xml version="1.0" encoding="utf-8"?>
<!-- Generator: Adobe Illustrator 22.1.0, SVG Export Plug-In . SVG Version: 6.00 Build 0)  -->
<svg version="1.1" id="Слой_1" xmlns="http://www.w3.org/2000/svg" xmlns:xlink="http://www.w3.org/1999/xlink" x="0px" y="0px"
	 viewBox="0 0 18 15" style="enable-background:new 0 0 18 15;" xml:space="preserve">
<style type="text/css">
	.st0{fill:#5898FF;}
</style>
<path class="st0" d="M1.5,0h15C17.3,0,18,0.7,18,1.5S17.3,3,16.5,3h-15C0.7,3,0,2.3,0,1.5S0.7,0,1.5,0z"/>
<path class="st0" d="M1.5,6h15C17.3,6,18,6.7,18,7.5S17.3,9,16.5,9h-15C0.7,9,0,8.3,0,7.5S0.7,6,1.5,6z"/>
<path class="st0" d="M1.5,12h15c0.8,0,1.5,0.7,1.5,1.5S17.3,15,16.5,15h-15C0.7,15,0,14.3,0,13.5S0.7,12,1.5,12z"/>
</svg>
