<svg width="23" height="23" viewBox="0 0 23 23" fill="none" xmlns="http://www.w3.org/2000/svg">
<path d="M11.5 2.15625C9.65198 2.15625 7.84547 2.70425 6.30889 3.73096C4.77232 4.75766 3.57471 6.21695 2.8675 7.9243C2.1603 9.63165 1.97526 11.5104 2.33579 13.3229C2.69632 15.1354 3.58623 16.8003 4.89298 18.107C6.19972 19.4138 7.86462 20.3037 9.67713 20.6642C11.4896 21.0247 13.3684 20.8397 15.0757 20.1325C16.783 19.4253 18.2423 18.2277 19.269 16.6911C20.2958 15.1545 20.8438 13.348 20.8438 11.5C20.8407 9.02283 19.8552 6.64801 18.1036 4.89638C16.352 3.14476 13.9772 2.15934 11.5 2.15625ZM15.0938 12.2188H12.2188V15.0938C12.2188 15.2844 12.143 15.4672 12.0082 15.602C11.8734 15.7368 11.6906 15.8125 11.5 15.8125C11.3094 15.8125 11.1266 15.7368 10.9918 15.602C10.857 15.4672 10.7813 15.2844 10.7813 15.0938V12.2188H7.90625C7.71563 12.2188 7.53281 12.143 7.39802 12.0082C7.26323 11.8734 7.1875 11.6906 7.1875 11.5C7.1875 11.3094 7.26323 11.1266 7.39802 10.9918C7.53281 10.857 7.71563 10.7812 7.90625 10.7812H10.7813V7.90625C10.7813 7.71563 10.857 7.53281 10.9918 7.39802C11.1266 7.26323 11.3094 7.1875 11.5 7.1875C11.6906 7.1875 11.8734 7.26323 12.0082 7.39802C12.143 7.53281 12.2188 7.71563 12.2188 7.90625V10.7812H15.0938C15.2844 10.7812 15.4672 10.857 15.602 10.9918C15.7368 11.1266 15.8125 11.3094 15.8125 11.5C15.8125 11.6906 15.7368 11.8734 15.602 12.0082C15.4672 12.143 15.2844 12.2188 15.0938 12.2188Z" fill="#5898FF"/>
</svg>
