<svg width="40" height="40" viewBox="0 0 40 40" fill="none" xmlns="http://www.w3.org/2000/svg">
<path d="M20.0006 39C34.2699 37.25 33.0006 31 33.0006 31C33.0006 29.3498 32.2494 28.1669 31.0006 27C29.7518 25.8331 27.7667 25 26.0006 25C21.4497 25 15.0006 25 15.0006 25C13.2345 25 11.2494 25.8331 10.0006 27C8.75177 28.1669 8.00058 29.3498 8.00058 31C8.00058 31 7.51496 39 20.0006 39Z" fill="#5898FF"/>
<path d="M20.0006 39C34.2699 37.25 33.0006 31 33.0006 31C33.0006 29.3498 32.2494 28.1669 31.0006 27C29.7518 25.8331 27.7667 25 26.0006 25C21.4497 25 15.0006 25 15.0006 25C13.2345 25 11.2494 25.8331 10.0006 27C8.75177 28.1669 8.00058 29.3498 8.00058 31C8.00058 31 7.51496 39 20.0006 39Z" stroke="#5898FF" stroke-width="2" stroke-linecap="round" stroke-linejoin="round"/>
<path d="M21 19C24.5899 19 27 16.5899 27 13C27 9.41015 24.5899 6 21 6C17.4101 6 14 9.41015 14 13C14 16.5899 17.4101 19 21 19Z" fill="#5898FF" stroke="#5898FF" stroke-width="2" stroke-linecap="round" stroke-linejoin="round"/>
<path d="M39 20C39 30.4934 30.4934 39 20 39C9.50659 39 1 30.4934 1 20C1 9.50659 9.50659 1 20 1C30.4934 1 39 9.50659 39 20Z" stroke="#5898FF" stroke-width="2"/>
</svg>
