<svg width="40" height="40" viewBox="0 0 40 40" fill="none" xmlns="http://www.w3.org/2000/svg">
<path d="M20 0C8.97217 0 0 8.97217 0 20C0 31.0278 8.97217 40 20 40C31.0278 40 40 31.0278 40 20C40 8.97217 31.0278 0 20 0ZM29 20C29 25.0545 25.0545 29 20 29C14.9455 29 11 25.0545 11 20C11 14.9455 14.9455 11 20 11C25.0545 11 29 14.9455 29 20ZM20 2C22.5641 2 24.7818 2.04517 27 3L24 10C22.7369 9.48291 21.4471 9 20 9C18.5529 9 17.2631 9.48291 16 10L13 3C15.2182 2.04508 17.4358 2 20 2ZM2 20C2 17.4359 2.04525 15.2182 3 13L10 16C9.48291 17.2631 9 18.553 9 20C9 21.447 9.48291 22.7369 10 24L3 27C2.04517 24.7818 2 22.5642 2 20ZM20 38C17.4358 38 15.2182 37.9548 13 37L16 30C17.2631 30.5171 18.553 31 20 31C21.447 31 22.7369 30.5171 24 30L27 37C24.7818 37.9548 22.5641 38 20 38ZM30 24C30.5171 22.7369 31 21.4471 31 20C31 18.5529 30.5171 17.2631 30 16L37 13C37.9548 15.2182 38 17.4359 38 20C38 22.5642 37.9548 24.7818 37 27L30 24Z" fill="#5898FF"/>
</svg>
