<svg width="22" height="22" viewBox="0 0 22 22" fill="none" xmlns="http://www.w3.org/2000/svg">
<path d="M18 14C17.8669 14.3016 17.9412 14.6756 18 15C18.0588 15.3244 18.7695 15.7643 19 16C19.186 16.1857 18.8994 16.7572 19 17C19 16.7372 19.1006 17.2428 19 17C19 17.2628 19.1006 17.7572 19 18C18.8994 18.2428 19.186 18.8143 19 19C18.8143 19.186 18.2428 18.8994 18 19C17.7572 19.1006 17.2628 19 17 19C16.7372 19 17.2428 19.1006 17 19C16.7572 18.8994 16.1857 19.186 16 19C15.7643 18.7695 15.3244 18.0588 15 18C14.6756 17.9412 14.3016 17.8669 14 18C13.7042 18.1268 13.1777 18.7317 13 19C12.8223 19.2683 13.0013 19.6782 13 20C13 20.5304 12.3751 20.6249 12 21C11.6249 21.3751 11.5304 22 11 22C10.4696 22 10.3751 21.3751 10 21C9.62493 20.6249 9 20.5304 9 20C8.99226 19.669 9.19261 19.2693 9 19C8.80739 18.7307 8.31074 18.1143 8 18C7.69838 17.8669 7.3244 17.9412 7 18C6.6756 18.0588 6.23568 18.7695 6 19C5.81425 19.186 5.2428 18.8994 5 19C4.7572 19.1006 5.26283 19 5 19C4.73717 19 4.2428 19.1006 4 19C3.7572 18.8994 3.18575 19.186 3 19C2.81405 18.8143 3.10065 18.2428 3 18C2.89935 17.7572 3 17.2628 3 17C2.89935 17.2428 3 16.7372 3 17C3.10065 16.7572 2.81405 16.1857 3 16C3.23054 15.7643 3.94118 15.3244 4 15C4.05882 14.6756 4.13312 14.3016 4 14C3.87324 13.7042 3.26829 13.1777 3 13C2.73171 12.8223 2.32179 13.0013 2 13C1.46957 13 1.37507 12.3751 1 12C0.624927 11.6249 0 11.5304 0 11C0 10.4696 0.624927 10.3751 1 10C1.37507 9.62493 1.46957 9 2 9C2.33099 8.99226 2.73071 9.19261 3 9C3.26929 8.80739 3.88572 8.31074 4 8C4.13312 7.69838 4.05882 7.3244 4 7C3.94118 6.6756 3.23054 6.23568 3 6C2.81405 5.81425 3.10065 5.2428 3 5C2.89935 4.7572 3 5.26283 3 5C3 4.73717 2.89935 4.2428 3 4C3.10065 3.7572 2.81405 3.18575 3 3C3.18575 2.81405 3.7572 3.10065 4 3C4.2428 2.89935 4.73717 3 5 3C4.7572 2.89935 5.26283 3 5 3C5.2428 3.10065 5.81425 2.81405 6 3C6.23568 3.23054 6.6756 3.94118 7 4C7.3244 4.05882 7.69838 4.13312 8 4C8.29577 3.87324 8.82232 3.26829 9 3C9.17768 2.73171 8.99872 2.32179 9 2C9 1.46957 9.62493 1.37507 10 1C10.3751 0.624927 10.4696 0 11 0C11.5304 0 11.6249 0.624927 12 1C12.3751 1.37507 13 1.46957 13 2C13.0013 2.32179 12.8223 2.73171 13 3C13.1777 3.26829 13.7042 3.87324 14 4C14.3016 4.13312 14.6756 4.05882 15 4C15.3244 3.94118 15.7643 3.23054 16 3C16.1857 2.81405 16.7572 3.10065 17 3C16.7372 3 17.2428 2.89935 17 3C17.2628 3 17.7572 2.89935 18 3C18.2428 3.10065 18.8143 2.81405 19 3C19.186 3.18575 18.8994 3.7572 19 4C19.1006 4.2428 19 4.73717 19 5C19 5.26283 19.1006 4.7572 19 5C18.8994 5.2428 19.186 5.81425 19 6C18.7695 6.23568 18.0588 6.6756 18 7C17.9412 7.3244 17.8669 7.69838 18 8C18.1268 8.29577 18.7317 8.82232 19 9C19.2683 9.17768 19.6782 8.99872 20 9C20.5304 9 20.6249 9.62493 21 10C21.3751 10.3751 22 10.4696 22 11C22 11.5304 21.3751 11.6249 21 12C20.6249 12.3751 20.5304 13 20 13C19.6782 13.0013 19.2683 12.8223 19 13C18.7317 13.1777 18.1268 13.7042 18 14Z" fill="#5898FF"/>
<path d="M11 14C12.6569 14 14 12.6569 14 11C14 9.34315 12.6569 8 11 8C9.34315 8 8 9.34315 8 11C8 12.6569 9.34315 14 11 14Z" fill="white" stroke="white" stroke-width="2" stroke-linecap="round" stroke-linejoin="round"/>
</svg>
