<svg width="30" height="30" viewBox="0 0 30 30" fill="none" xmlns="http://www.w3.org/2000/svg">
<g clip-path="url(#clip0_1545_4373)">
<path d="M9.84375 18.75C13.2092 18.75 15.9375 16.0217 15.9375 12.6562C15.9375 9.29076 13.2092 6.5625 9.84375 6.5625C6.47826 6.5625 3.75 9.29076 3.75 12.6562C3.75 16.0217 6.47826 18.75 9.84375 18.75Z" stroke="#EFF5FF" stroke-width="2" stroke-linecap="round" stroke-linejoin="round"/>
<path d="M1.19922 23.4375C2.13565 21.9977 3.41687 20.8146 4.92656 19.9956C6.43625 19.1765 8.1266 18.7476 9.84414 18.7476C11.5617 18.7476 13.252 19.1765 14.7617 19.9956C16.2714 20.8146 17.5526 21.9977 18.4891 23.4375" stroke="#EFF5FF" stroke-width="2" stroke-linecap="round" stroke-linejoin="round"/>
<path d="M20.1562 18.75C21.8737 18.749 23.5642 19.1773 25.074 19.9959C26.5838 20.8146 27.865 21.9976 28.8012 23.4375" stroke="#EFF5FF" stroke-width="2" stroke-linecap="round" stroke-linejoin="round"/>
<path d="M17.8926 6.99609C18.7262 6.66363 19.6229 6.51938 20.5187 6.57366C21.4144 6.62793 22.2872 6.8794 23.0745 7.31008C23.8618 7.74076 24.5443 8.34002 25.0732 9.06505C25.6021 9.79008 25.9643 10.623 26.134 11.5042C26.3036 12.3855 26.2765 13.2933 26.0547 14.1629C25.8328 15.0324 25.4216 15.8423 24.8504 16.5345C24.2793 17.2267 23.5623 17.7842 22.7507 18.1672C21.9391 18.5502 21.0529 18.7492 20.1555 18.75" stroke="#EFF5FF" stroke-width="2" stroke-linecap="round" stroke-linejoin="round"/>
</g>
<defs>
<clipPath id="clip0_1545_4373">
<rect width="30" height="30" fill="white"/>
</clipPath>
</defs>
</svg>
