<svg width="150" height="45" viewBox="0 0 150 45" fill="none" xmlns="http://www.w3.org/2000/svg">
<path d="M6.33209 3.29736L5.36816 7.87529H11.104L8.10725 21.9568H13.8336L16.8494 7.87529H22.843L23.7878 3.29736H6.33209Z" fill="black"/>
<path d="M26.5078 3.29736L22.5566 21.9568H28.3307L32.2914 3.29736H26.5078Z" fill="black"/>
<path d="M34.9925 3.29736L34.0381 7.87529H39.7739L36.7772 21.9568H42.5035L45.5194 7.87529H51.5129L52.4577 3.29736H34.9925Z" fill="black"/>
<path d="M60.8277 8.14571H60.8754L61.4385 14.945H57.6496L60.8277 8.14571ZM58.6326 3.29736L48.2012 21.9568H54.3474L55.779 18.9048H61.8012L62.0493 21.9568H67.642L64.7025 3.29736H58.6135H58.6326Z" fill="black"/>
<path d="M85.9377 3.29736L83.628 14.1627H83.5708L79.0279 3.29736H73.6834L69.7227 21.9568H75.0863L77.3768 11.1107H77.4245L81.9961 21.9568H87.3406L91.3109 3.29736H85.9377Z" fill="black"/>
<path d="M38.2467 28.7173L34.3624 36.7238H34.3242L33.8661 28.7173H29.2469L26.6318 41.35H29.7813L31.5469 31.7016H31.5756L32.1005 41.35H34.8968L39.4302 31.7016H39.4779L37.216 41.35H40.3655L43.0091 28.7173H38.2467Z" fill="black"/>
<path d="M50.243 32.001H50.2716L50.6439 36.6079H48.1243L50.2335 32.001H50.243ZM48.7924 28.7173L41.873 41.35H45.9483L46.9027 39.2832H50.892L51.0542 41.35H54.7668L52.8199 28.7173H48.7828H48.7924Z" fill="black"/>
<path d="M68.8349 32.8606L65.361 33.2662V33.1986C65.361 32.5805 65.1796 32.1265 64.8265 31.8271C64.4734 31.5277 64.0725 31.3829 63.6526 31.3829C63.0991 31.3829 62.5551 31.5954 62.0206 32.0203C61.4957 32.4453 61.0662 33.0924 60.7513 33.9519C60.4268 34.8212 60.2741 35.6614 60.2741 36.4823C60.2741 37.1101 60.4363 37.6316 60.7704 38.0566C61.0949 38.4816 61.5816 38.694 62.2115 38.694C62.7937 38.694 63.2804 38.5009 63.6812 38.1242C64.0821 37.7475 64.4257 37.1584 64.7311 36.3761L68.2718 36.9459C67.8996 38.2498 67.1934 39.3508 66.134 40.2393C65.0746 41.1279 63.7003 41.5721 62.0111 41.5721C60.3218 41.5721 58.8998 41.0892 57.9645 40.1138C57.0292 39.1383 56.5615 37.8538 56.5615 36.2312C56.5615 34.995 56.8383 33.7588 57.3918 32.5032C57.9454 31.2573 58.7566 30.2819 59.816 29.5672C60.8754 28.8525 62.1542 28.4951 63.6431 28.4951C65.1319 28.4951 66.4012 28.8911 67.2984 29.6927C68.1955 30.4943 68.7109 31.5471 68.8445 32.8509" fill="black"/>
<path d="M83.8093 28.7173L81.1847 41.35H77.3862L78.4456 36.2119H74.3418L73.2919 41.35H69.4648L72.0894 28.7173H75.8974L74.9716 33.1793H79.0564L80.0204 28.7173H83.8093Z" fill="black"/>
<path d="M90.7669 28.7173L88.1423 41.35H84.3057L86.9302 28.7173H90.7669Z" fill="black"/>
<path d="M105.531 28.7173L102.897 41.35H99.3565L96.3216 34.0099H96.2929L94.7659 41.35H91.2061L93.8402 28.7173H97.3809L100.397 36.0767H100.435L101.972 28.7173H105.531Z" fill="black"/>
<path d="M118.511 28.7173L117.947 31.4312H111.734L111.324 33.4401H117.318L116.764 35.9995H110.78L110.265 38.4719H117.003L116.401 41.35H105.894L108.499 28.7173H118.511Z" fill="black"/>
<path d="M121.288 28.7173H128.255C129.458 28.7173 130.336 29.0457 130.899 29.6927C131.452 30.3398 131.739 31.1221 131.739 32.0397C131.739 33.0248 131.443 33.894 130.851 34.628C130.26 35.362 129.315 35.8353 128.017 36.0478C128.78 36.6948 129.706 38.4623 130.775 41.3597H126.776C126.442 40.4422 126.051 39.4474 125.593 38.3657C125.134 37.284 124.8 36.6562 124.571 36.4824C124.342 36.3085 124.066 36.2216 123.741 36.2216H123.541L122.491 41.3597H118.692L121.288 28.7269V28.7173ZM124.027 33.8554H124.743C125.946 33.8554 126.728 33.7974 127.081 33.6815C127.435 33.5656 127.702 33.3725 127.874 33.102C128.045 32.8316 128.131 32.5709 128.131 32.3101C128.131 31.9914 128.026 31.7403 127.826 31.5471C127.616 31.3636 127.167 31.267 126.48 31.267H124.562L124.037 33.8457L124.027 33.8554Z" fill="black"/>
<path d="M145.864 28.7173L139.965 36.5886L138.992 41.35H135.174L136.186 36.4824L132.512 28.7173H136.482L138.353 33.3918L141.521 28.7173H145.864Z" fill="black"/>
<path d="M148.65 23.647L147.028 26.8245H1.34082L3.38321 23.7532" fill="black"/>
</svg>
