<svg width="190" height="72" viewBox="0 0 190 72" fill="none" xmlns="http://www.w3.org/2000/svg">
<path d="M-5.42773 0H189.572L169.429 72H-25.5711L-5.42773 0Z" fill="#C00000"/>
<path d="M36.5167 22.3521L35.8291 25.6176H39.9207L37.783 35.6624H41.8678L44.0191 25.6176H48.2945L48.9685 22.3521H36.5167Z" fill="white"/>
<path d="M50.9088 22.3521L48.0903 35.6624H52.2091L55.0345 22.3521H50.9088Z" fill="white"/>
<path d="M56.9611 22.3521L56.2803 25.6176H60.3719L58.2342 35.6624H62.3189L64.4702 25.6176H68.7456L69.4196 22.3521H56.9611Z" fill="white"/>
<path d="M75.3902 25.8105H75.4243L75.8259 30.6607H73.1232L75.3902 25.8105ZM73.8244 22.3521L66.3833 35.6624H70.7676L71.7888 33.4854H76.0846L76.2616 35.6624H80.2511L78.1543 22.3521H73.8108H73.8244Z" fill="white"/>
<path d="M93.3021 22.3521L91.6545 30.1027H91.6137L88.3731 22.3521H84.5607L81.7354 35.6624H85.5614L87.1953 27.9256H87.2294L90.4904 35.6624H94.3028L97.1349 22.3521H93.3021Z" fill="white"/>
<path d="M59.2824 40.485L56.5115 46.1964H56.4843L56.1575 40.485H52.8625L50.9971 49.4964H53.2437L54.5032 42.6138H54.5236L54.898 49.4964H56.8928L60.1265 42.6138H60.1606L58.5471 49.4964H60.7937L62.6795 40.485H59.2824Z" fill="white"/>
<path d="M67.8402 42.8274H67.8606L68.1261 46.1137H66.3288L67.8334 42.8274H67.8402ZM66.8054 40.485L61.8696 49.4964H64.7766L65.4574 48.022H68.3032L68.4189 49.4964H71.0672L69.6784 40.485H66.7986H66.8054Z" fill="white"/>
<path d="M81.1017 43.4406L78.6236 43.7299V43.6817C78.6236 43.2408 78.4943 42.917 78.2424 42.7034C77.9905 42.4898 77.7045 42.3865 77.405 42.3865C77.0101 42.3865 76.6221 42.5381 76.2408 42.8412C75.8664 43.1443 75.56 43.6059 75.3354 44.2191C75.1039 44.8391 74.995 45.4385 74.995 46.0241C74.995 46.4719 75.1107 46.844 75.349 47.1471C75.5805 47.4502 75.9277 47.6018 76.377 47.6018C76.7923 47.6018 77.1395 47.464 77.4254 47.1953C77.7113 46.9266 77.9564 46.5064 78.1743 45.9483L80.7 46.3548C80.4345 47.2849 79.9307 48.0703 79.1751 48.7041C78.4194 49.3379 77.439 49.6548 76.234 49.6548C75.029 49.6548 74.0146 49.3104 73.3475 48.6145C72.6803 47.9187 72.3467 47.0024 72.3467 45.845C72.3467 44.9631 72.5441 44.0813 72.939 43.1857C73.3338 42.2969 73.9125 41.6011 74.6682 41.0913C75.4239 40.5815 76.3361 40.3266 77.3982 40.3266C78.4602 40.3266 79.3657 40.609 80.0056 41.1809C80.6456 41.7527 81.0132 42.5036 81.1085 43.4337" fill="white"/>
<path d="M91.7836 40.485L89.9114 49.4964H87.2019L87.9576 45.8312H85.0301L84.2813 49.4964H81.5513L83.4235 40.485H86.1398L85.4795 43.6679H88.3933L89.0809 40.485H91.7836Z" fill="white"/>
<path d="M96.7467 40.485L94.8745 49.4964H92.1377L94.0099 40.485H96.7467Z" fill="white"/>
<path d="M107.278 40.485L105.399 49.4964H102.874L100.709 44.2604H100.688L99.5989 49.4964H97.0596L98.9386 40.485H101.464L103.616 45.7348H103.643L104.739 40.485H107.278Z" fill="white"/>
<path d="M116.537 40.485L116.136 42.4209H111.704L111.411 43.8539H115.686L115.291 45.6796H111.023L110.655 47.4433H115.462L115.033 49.4964H107.537L109.396 40.485H116.537Z" fill="white"/>
<path d="M118.518 40.485H123.488C124.346 40.485 124.972 40.7193 125.374 41.1808C125.769 41.6424 125.973 42.2005 125.973 42.855C125.973 43.5577 125.762 44.1777 125.34 44.7013C124.918 45.2249 124.244 45.5625 123.318 45.7141C123.862 46.1757 124.523 47.4364 125.285 49.5033H122.433C122.195 48.8488 121.915 48.1392 121.589 47.3675C121.262 46.5959 121.024 46.1481 120.86 46.0241C120.697 45.9001 120.499 45.8381 120.268 45.8381H120.125L119.376 49.5033H116.667L118.518 40.4919V40.485ZM120.472 44.1502H120.983C121.841 44.1502 122.399 44.1089 122.651 44.0262C122.903 43.9435 123.093 43.8057 123.216 43.6128C123.338 43.4199 123.4 43.2339 123.4 43.0479C123.4 42.8205 123.325 42.6414 123.182 42.5036C123.032 42.3727 122.712 42.3038 122.222 42.3038H120.853L120.479 44.1433L120.472 44.1502Z" fill="white"/>
<path d="M136.049 40.485L131.841 46.0999L131.147 49.4964H128.424L129.145 46.0241L126.524 40.485H129.357L130.691 43.8195L132.951 40.485H136.049Z" fill="white"/>
<path d="M138.037 36.8681L136.88 39.1347H32.9561L34.413 36.9439" fill="white"/>
</svg>
