<svg width="67" height="40" viewBox="0 0 67 40" fill="none" xmlns="http://www.w3.org/2000/svg">
<path d="M23.5359 31.2623C22.9999 24.7382 18.1761 19.6104 12.2804 19.6104C6.31766 19.6104 1.42687 24.8652 1.00256 31.5415" stroke="#003F80" stroke-width="2" stroke-miterlimit="10" stroke-linecap="round" stroke-linejoin="round"/>
<path d="M66.0007 31.2623C65.4854 24.7382 60.8471 19.6104 55.1781 19.6104C49.4447 19.6104 44.7421 24.8652 44.3341 31.5415" stroke="#003F80" stroke-width="2" stroke-miterlimit="10" stroke-linecap="round" stroke-linejoin="round"/>
<path d="M34.369 17.775C29.8218 17.775 26.1356 14.0768 26.1356 9.51493C26.1356 4.95303 29.8218 1.25488 34.369 1.25488C38.9161 1.25488 42.6023 4.95303 42.6023 9.51493C42.6023 14.0768 38.9161 17.775 34.369 17.775Z" fill="#003F80" stroke="#003F80" stroke-width="2" stroke-miterlimit="10" stroke-linecap="round"/>
<path d="M18.3325 38.8837H50.3992C50.3992 29.2451 43.2056 21.4459 34.3658 21.4459C25.5035 21.4213 18.3325 29.2451 18.3325 38.8837Z" fill="#003F80" stroke="#003F80" stroke-width="2" stroke-miterlimit="10" stroke-linecap="round" stroke-linejoin="round"/>
<path d="M12.6994 17.7744C9.58822 17.7744 7.0661 15.1036 7.0661 11.8089C7.0661 8.51415 9.58822 5.84326 12.6994 5.84326C15.8106 5.84326 18.3328 8.51415 18.3328 11.8089C18.3328 15.1036 15.8106 17.7744 12.6994 17.7744Z" stroke="#003F80" stroke-width="2" stroke-miterlimit="10" stroke-linecap="round"/>
<path d="M55.602 17.7744C52.2515 17.7744 49.5354 15.1036 49.5354 11.8089C49.5354 8.51415 52.2515 5.84326 55.602 5.84326C58.9526 5.84326 61.6687 8.51415 61.6687 11.8089C61.6687 15.1036 58.9526 17.7744 55.602 17.7744Z" stroke="#003F80" stroke-width="2" stroke-miterlimit="10" stroke-linecap="round"/>
</svg>
