<svg width="52" height="53" viewBox="0 0 52 53" fill="none" xmlns="http://www.w3.org/2000/svg">
<path d="M48.0545 23.3684H48.5134V49.3085C48.5134 50.7935 47.3772 52 45.9788 52H6.07982C4.68139 52 3.54517 50.7935 3.54517 49.3085V23.3684H3.82922" stroke="#003F80" stroke-width="2" stroke-miterlimit="10" stroke-linecap="round"/>
<path d="M25.6052 12.6316V40.3684" stroke="#003F80" stroke-width="2" stroke-miterlimit="10" stroke-linecap="round"/>
<path d="M25.6384 23.3685H3.25189C1.99348 23.3685 1 22.3676 1 21.1522V15.7426C1 14.5034 2.01556 13.5264 3.25189 13.5264H25.6605H47.9366C49.195 13.5264 50.2105 14.5273 50.2105 15.7426V21.1522C50.2105 22.3676 49.195 23.3685 47.9366 23.3685C39.9445 23.3208 35.9485 23.297 35.9485 23.297C35.9485 23.297 39.9225 23.3208 47.8703 23.3685" stroke="#003F80" stroke-width="2" stroke-miterlimit="10" stroke-linecap="round" stroke-linejoin="round"/>
<path d="M27.1333 12.3153C27.8208 11.4554 26.2683 8.72843 24.9819 6.46821C23.6956 4.18342 22.9637 2.95507 21.766 2.80766C20.1026 2.58655 18.0621 4.42911 17.9734 6.19797C17.7516 9.83398 25.9134 13.7894 27.1333 12.3153Z" stroke="#003F80" stroke-width="2" stroke-miterlimit="10" stroke-linecap="round"/>
<path d="M28.625 12.6316C29.053 12.5864 33.3102 11.9992 34.9995 8.43113C35.2022 8.02463 36.7564 4.6146 34.8418 2.44664C33.5129 0.956162 31.0352 0.617418 29.5486 1.4304C27.206 2.71763 26.3726 7.32458 28.625 12.6316Z" stroke="#003F80" stroke-width="2" stroke-miterlimit="10" stroke-linecap="round"/>
<path d="M44.3622 49.3157H6.84799C6.42473 49.3157 6.09058 48.9048 6.09058 48.3844V44.8785C6.09058 44.3581 6.42473 43.9473 6.84799 43.9473H44.3622C44.7855 43.9473 45.1196 44.3581 45.1196 44.8785V48.3844C45.1196 48.9048 44.7855 49.3157 44.3622 49.3157Z" fill="#003F80" stroke="#003F80" stroke-width="2" stroke-miterlimit="10" stroke-linecap="round"/>
</svg>
