<svg width="36" height="39" viewBox="0 0 36 39" fill="none" xmlns="http://www.w3.org/2000/svg">
<path d="M1.55176 1.54785H34.4483L32.2759 37.4526H4.03452L1.55176 1.54785Z" stroke="#003F80" stroke-width="2" stroke-miterlimit="10" stroke-linecap="round" stroke-linejoin="round"/>
<path d="M2.48438 6.50391H34.1395" stroke="#003F80" stroke-width="2" stroke-miterlimit="10" stroke-linecap="round" stroke-linejoin="round"/>
<path d="M4.34595 32.4998H32.277" stroke="#003F80" stroke-width="2" stroke-miterlimit="10" stroke-linecap="round" stroke-linejoin="round"/>
<path d="M32.277 32.4998H4.34595V37.1426H32.277V32.4998Z" fill="#003F80" stroke="#003F80" stroke-width="2" stroke-miterlimit="10" stroke-linecap="round" stroke-linejoin="round"/>
<path d="M2.45459 11.8618C1.90231 11.8618 1.45459 12.3095 1.45459 12.8618C1.45459 13.4141 1.90231 13.8618 2.45459 13.8618V11.8618ZM13.091 13.8618C13.6432 13.8618 14.091 13.4141 14.091 12.8618C14.091 12.3095 13.6432 11.8618 13.091 11.8618V13.8618ZM15.9546 11.8618C15.4023 11.8618 14.9546 12.3095 14.9546 12.8618C14.9546 13.4141 15.4023 13.8618 15.9546 13.8618V11.8618ZM19.2273 13.8618C19.7796 13.8618 20.2273 13.4141 20.2273 12.8618C20.2273 12.3095 19.7796 11.8618 19.2273 11.8618V13.8618ZM2.45459 13.8618H13.091V11.8618H2.45459V13.8618ZM15.9546 13.8618H19.2273V11.8618H15.9546V13.8618Z" fill="#003F80"/>
<path d="M4.90918 19.9148L12.2728 23.6488L7.92158 29.8722" stroke="#003F80" stroke-width="2" stroke-miterlimit="10" stroke-linecap="round" stroke-linejoin="round"/>
<path d="M13.909 21.2999L21.3335 17.6039L25.1301 21.1177" stroke="#003F80" stroke-width="2" stroke-miterlimit="10" stroke-linecap="round" stroke-linejoin="round"/>
<path d="M18 29.3671L24.7625 24.0637L30.2727 29.8722" stroke="#003F80" stroke-width="2" stroke-miterlimit="10" stroke-linecap="round" stroke-linejoin="round"/>
</svg>
