<svg width="58" height="31" viewBox="0 0 58 31" fill="none" xmlns="http://www.w3.org/2000/svg">
<path d="M56.5041 29.3775C40.9924 29.3775 25.4987 29.3775 9.98696 29.3775C8.85459 19.9123 7.72222 10.4471 6.58984 1C21.0231 1 35.4564 1 49.8896 1C52.1005 10.4471 54.3113 19.9123 56.5041 29.3775Z" stroke="#003F80" stroke-width="2" stroke-miterlimit="10" stroke-linecap="round" stroke-linejoin="round"/>
<path d="M17.896 15.1887L43.9046 15.2611" stroke="#003F80" stroke-width="2" stroke-miterlimit="10" stroke-linecap="round" stroke-linejoin="round"/>
<path d="M9.46584 24.9978C6.64389 24.9978 3.82195 24.9978 1 24.9978L6.58997 1C7.56058 8.99926 8.51321 16.9985 9.46584 24.9978Z" fill="#003F80" stroke="#003F80" stroke-width="2" stroke-miterlimit="10" stroke-linecap="round" stroke-linejoin="round"/>
<path d="M21.311 20.3286H40.0941" stroke="#003F80" stroke-width="2" stroke-miterlimit="10" stroke-linecap="round" stroke-linejoin="round"/>
<path d="M35.5466 9.99463C36.3375 9.99463 37.1284 9.99463 37.9192 9.99463" stroke="#003F80" stroke-width="2" stroke-miterlimit="10" stroke-linecap="round" stroke-linejoin="round"/>
<path d="M19.136 9.99463C22.2096 10.0127 25.2652 10.0127 28.3208 9.99463" stroke="#003F80" stroke-width="2" stroke-miterlimit="10" stroke-linecap="round" stroke-linejoin="round"/>
</svg>
