<svg width="69" height="49" viewBox="0 0 69 49" fill="none" xmlns="http://www.w3.org/2000/svg">
<path d="M26.0244 19.5662H13.916" stroke="#003F80" stroke-width="2" stroke-miterlimit="10" stroke-linecap="round" stroke-linejoin="round"/>
<path d="M13.9154 14.7229H10.6865" stroke="#003F80" stroke-width="2" stroke-miterlimit="10" stroke-linecap="round" stroke-linejoin="round"/>
<path d="M10.6866 19.5662H8.26489" stroke="#003F80" stroke-width="2" stroke-miterlimit="10" stroke-linecap="round" stroke-linejoin="round"/>
<path d="M22.7954 25.2168H13.1086" stroke="#003F80" stroke-width="2" stroke-miterlimit="10" stroke-linecap="round" stroke-linejoin="round"/>
<path d="M20.3732 30.8674H9.07202" stroke="#003F80" stroke-width="2" stroke-miterlimit="10" stroke-linecap="round" stroke-linejoin="round"/>
<path d="M10.6866 25.2168H8.26489" stroke="#003F80" stroke-width="2" stroke-miterlimit="10" stroke-linecap="round" stroke-linejoin="round"/>
<path d="M4.22891 24.4097H1" stroke="#003F80" stroke-width="2" stroke-miterlimit="10" stroke-linecap="round" stroke-linejoin="round"/>
<path d="M26.0241 30.0603C24.9478 30.0603 23.8715 30.0603 22.7952 30.0603" stroke="#003F80" stroke-width="2" stroke-miterlimit="10" stroke-linecap="round" stroke-linejoin="round"/>
<path d="M17.9519 14.7229H47.8193V34.0964" stroke="#003F80" stroke-width="2" stroke-miterlimit="10" stroke-linecap="round" stroke-linejoin="round"/>
<path d="M48.8879 20.5225C51.3453 20.2208 53.2883 20.4338 54.5265 20.6645C55.4028 20.8242 56.1076 20.9662 56.9648 21.3745C58.7936 22.2619 59.746 23.6995 60.1651 24.3563C61.5176 26.4861 60.8128 27.2671 62.1462 28.758C63.2702 30.0004 63.8797 29.5744 64.8893 30.7458C65.8037 31.8108 65.9752 33.2662 66.2609 36.1415C66.5847 39.4605 66.2037 39.922 65.9561 40.1172C64.756 41.1289 62.2605 40.0817 61.9939 39.9752C47.3069 40.064 32.6199 40.1705 17.9519 40.2592C18.0281 38.2891 18.0852 36.319 18.1614 34.3489" stroke="#003F80" stroke-width="2" stroke-miterlimit="10" stroke-linecap="round" stroke-linejoin="round"/>
<path d="M42.1687 8.56893C42.7881 7.40359 44.4023 4.77276 47.7247 2.91882C48.7945 2.31849 52.8677 0.146726 57.9356 1.36503C62.553 2.4774 64.9368 5.67323 65.5938 6.59138C67.8462 9.71659 67.9776 12.8241 67.9964 13.9365C68.0902 17.9622 66.3446 20.8756 65.5938 21.9879" fill="white"/>
<path d="M42.1687 8.56893C42.7881 7.40359 44.4023 4.77276 47.7247 2.91882C48.7945 2.31849 52.8677 0.146726 57.9356 1.36503C62.553 2.4774 64.9368 5.67323 65.5938 6.59138C67.8462 9.71659 67.9776 12.8241 67.9964 13.9365C68.0902 17.9622 66.3446 20.8756 65.5938 21.9879" stroke="#003F80" stroke-width="2" stroke-miterlimit="10" stroke-linecap="round" stroke-linejoin="round"/>
<path d="M28.4459 47.8194C32.0124 47.8194 34.9037 45.1088 34.9037 41.7651C34.9037 38.4215 32.0124 35.7109 28.4459 35.7109C24.8793 35.7109 21.988 38.4215 21.988 41.7651C21.988 45.1088 24.8793 47.8194 28.4459 47.8194Z" stroke="#003F80" stroke-width="2" stroke-miterlimit="10"/>
<path d="M66.6179 40.5543H16.1055C15.3375 40.5543 14.7231 39.8466 14.7231 38.962V37.3033C14.7231 36.4186 15.3375 35.7109 16.1055 35.7109H66.6179C67.3858 35.7109 68.0002 36.4186 68.0002 37.3033V38.962C68.0002 39.8245 67.3858 40.5543 66.6179 40.5543Z" fill="#003F80" stroke="#003F80" stroke-width="2" stroke-miterlimit="10"/>
<path d="M28.4456 43.7831C29.7831 43.7831 30.8673 42.6988 30.8673 41.3614C30.8673 40.0239 29.7831 38.9397 28.4456 38.9397C27.1081 38.9397 26.0239 40.0239 26.0239 41.3614C26.0239 42.6988 27.1081 43.7831 28.4456 43.7831Z" fill="#003F80" stroke="#003F80" stroke-width="2" stroke-miterlimit="10"/>
<path d="M55.8914 5.03613V13.1084C57.2417 12.1377 58.5772 11.15 59.9275 10.1792" stroke="#003F80" stroke-width="2" stroke-miterlimit="10" stroke-linecap="round" stroke-linejoin="round"/>
<path d="M61.7764 8.69888L62.3493 8.26499" stroke="#003F80" stroke-width="2" stroke-miterlimit="10" stroke-linecap="round" stroke-linejoin="round"/>
<path d="M55.8915 13.9157C56.3373 13.9157 56.6987 13.5543 56.6987 13.1085C56.6987 12.6627 56.3373 12.3013 55.8915 12.3013C55.4456 12.3013 55.0842 12.6627 55.0842 13.1085C55.0842 13.5543 55.4456 13.9157 55.8915 13.9157Z" fill="#003F80" stroke="#003F80" stroke-width="2" stroke-miterlimit="10" stroke-linecap="round" stroke-linejoin="round"/>
<path d="M56.6988 47.8192C60.2653 47.8192 63.1566 44.9279 63.1566 41.3614C63.1566 37.7948 60.2653 34.9036 56.6988 34.9036C53.1322 34.9036 50.241 37.7948 50.241 41.3614C50.241 44.9279 53.1322 47.8192 56.6988 47.8192Z" stroke="#003F80" stroke-width="2" stroke-miterlimit="10"/>
<path d="M56.6985 43.7831C58.036 43.7831 59.1202 42.6988 59.1202 41.3614C59.1202 40.0239 58.036 38.9397 56.6985 38.9397C55.3611 38.9397 54.2769 40.0239 54.2769 41.3614C54.2769 42.6988 55.3611 43.7831 56.6985 43.7831Z" fill="#003F80" stroke="#003F80" stroke-width="2" stroke-miterlimit="10"/>
</svg>
