<svg width="59" height="46" viewBox="0 0 59 46" fill="none" xmlns="http://www.w3.org/2000/svg">
<path d="M29.0717 14.528C30.0421 14.3879 31.7622 14.2244 33.7691 14.6915C36.658 15.3221 38.3782 16.8167 39.0398 17.4239" stroke="#003F80" stroke-width="2" stroke-miterlimit="10" stroke-linecap="round"/>
<path d="M28.7864 1.4502V5.39702" stroke="#003F80" stroke-width="2" stroke-miterlimit="10" stroke-linecap="round"/>
<path d="M43.099 20.9502C43.518 21.3472 44.0252 21.8844 44.5104 22.6317C44.9073 23.2389 45.172 23.8227 45.3484 24.3132" stroke="#003F80" stroke-width="2" stroke-miterlimit="10" stroke-linecap="round"/>
<path d="M7.66089 7.52148C6.55822 8.15204 4.81601 9.3431 3.25023 11.3983C2.05935 12.963 1.3757 14.5043 1.00079 15.602" stroke="#003F80" stroke-width="2" stroke-miterlimit="10" stroke-linecap="round"/>
<path d="M56.6179 16.116C56.1769 14.8783 55.0301 12.1926 52.4278 9.95057C49.9578 7.82536 47.4438 7.14809 46.2088 6.91455" stroke="#003F80" stroke-width="2" stroke-miterlimit="10" stroke-linecap="round"/>
<path d="M4.57172 34.4723C4.57172 34.8226 4.57172 35.1496 4.59377 35.4999H52.9787C53.0007 35.1496 53.0007 34.8226 53.0007 34.4723C53.0007 20.3198 42.1505 8.82959 28.7862 8.82959C15.4219 8.82959 4.57172 20.3198 4.57172 34.4723Z" stroke="#003F80" stroke-width="2" stroke-miterlimit="10" stroke-linecap="round"/>
<path d="M57.9851 39.4951H1.39638" stroke="#003F80" stroke-width="2" stroke-miterlimit="10" stroke-linecap="round"/>
<path d="M53.8601 40.9658C53.6175 41.8066 53.1544 42.7874 52.3164 43.4413C51.2578 44.2587 49.7361 44.2354 49.7361 44.2354L29.0943 44.1887" fill="#003F80"/>
<path d="M53.8601 40.9658C53.6175 41.8066 53.1544 42.7874 52.3164 43.4413C51.2578 44.2587 49.7361 44.2354 49.7361 44.2354L29.0943 44.1887" stroke="#003F80" stroke-width="2" stroke-miterlimit="10" stroke-linecap="round"/>
<path d="M29.3367 44.1887L8.69479 44.2354C8.69479 44.2354 7.17312 44.2587 6.11456 43.4413C5.27654 42.7874 4.81342 41.8066 4.57083 40.9658" fill="#003F80"/>
<path d="M29.3367 44.1887L8.69479 44.2354C8.69479 44.2354 7.17312 44.2587 6.11456 43.4413C5.27654 42.7874 4.81342 41.8066 4.57083 40.9658" stroke="#003F80" stroke-width="2" stroke-miterlimit="10" stroke-linecap="round"/>
<path d="M52.6912 41.1045C47.641 42.0854 42.5246 42.1788 37.4524 41.4081C37.5406 41.0345 37.6508 40.6608 37.7391 40.2871C41.1132 40.8243 44.5094 41.0111 47.9277 40.8943C47.8836 41.268 47.8395 41.665 47.7733 42.0387C47.3543 41.8519 46.9794 41.7818 46.5163 41.8518C45.8326 41.9686 45.5239 40.8476 46.2296 40.7309C46.8912 40.6141 47.4425 40.6608 48.082 40.9177C48.6334 41.1512 48.5893 42.0387 47.9277 42.062C44.4212 42.1788 40.9368 41.9686 37.4524 41.4081C36.7467 41.2914 37.0554 40.1704 37.7391 40.2871C42.6128 41.0345 47.5528 40.9177 52.4045 39.9835C53.1102 39.8434 53.3969 40.9644 52.6912 41.1045Z" fill="#003F80"/>
<path d="M46.6511 41.854C43.1447 41.854 39.6382 41.7606 36.1317 41.6204C35.426 41.5971 35.426 40.4294 36.1317 40.4527C39.6382 40.5929 43.1447 40.6863 46.6511 40.6863C47.3568 40.6863 47.3568 41.854 46.6511 41.854Z" fill="#003F80"/>
<path d="M47.2017 43.9092C40.299 44.7733 33.3522 44.5865 26.4275 44.4463C22.9651 44.3763 19.4807 44.3296 16.0183 44.4463C12.6883 44.5631 9.27 45.217 5.96201 44.4463C3.1833 43.7924 4.37417 39.2851 7.13083 39.939C8.63046 40.2893 10.1962 40.1492 11.7179 40.0324C13.3719 39.9157 15.0039 39.8222 16.6579 39.7755C20.0541 39.6821 23.4503 39.7288 26.8465 39.7989C33.6389 39.9157 40.4313 40.0791 47.2017 39.2384C48.3925 39.0983 49.407 40.4061 49.407 41.5738C49.407 42.9517 48.3925 43.7457 47.2017 43.9092Z" fill="#003F80"/>
</svg>
