<svg width="30" height="45" viewBox="0 0 30 45" fill="none" xmlns="http://www.w3.org/2000/svg">
<path d="M14.2026 30.5117V42.9377" stroke="#003F80" stroke-width="2" stroke-miterlimit="10" stroke-linecap="round"/>
<path d="M23.522 43.7144H6.43626" stroke="#003F80" stroke-width="2" stroke-miterlimit="10" stroke-linecap="round"/>
<path d="M27.3678 1C28.0168 6.82947 29.3933 21.5448 25.8537 25.8764C25.6374 26.1396 25.4211 26.3825 25.4211 26.3825C22.3534 29.7223 18.0863 30.4307 14.9793 30.5117" stroke="#003F80" stroke-width="2" stroke-miterlimit="10" stroke-linecap="round"/>
<path d="M27.4053 1H1.7767" stroke="#003F80" stroke-width="2" stroke-miterlimit="10" stroke-linecap="round"/>
<path d="M17.3092 7.9895H27.4053" stroke="#003F80" stroke-width="2" stroke-miterlimit="10" stroke-linecap="round"/>
<path d="M1.81408 1C1.16515 6.82947 -0.211352 21.5448 3.32824 25.8764C3.54454 26.1396 3.76085 26.3825 3.76085 26.3825C6.82849 29.7223 11.0957 30.4307 14.2026 30.5117" stroke="#003F80" stroke-width="2" stroke-miterlimit="10" stroke-linecap="round"/>
<path d="M14.2026 7.9895H11.0961" stroke="#003F80" stroke-width="2" stroke-miterlimit="10" stroke-linecap="round"/>
<path d="M1.19659 11.0962H28.151C28.2312 12.8322 28.1911 15.3864 27.5894 18.3595C26.8674 22.0511 26.3059 24.8646 23.9995 27.1793C20.891 30.2922 16.579 30.4319 14.6537 30.4917C13.0293 30.5516 6.81209 30.7312 3.54307 26.5807C2.03892 24.6451 1.75814 22.5499 1.25676 18.8385C0.85565 15.6458 0.996038 12.9519 1.19659 11.0962Z" fill="#003F80" stroke="#003F80" stroke-width="2" stroke-miterlimit="10" stroke-linecap="round" stroke-linejoin="round"/>
</svg>
