<svg width="429.000000" height="130.000000" viewBox="0 0 429 130" fill="none" xmlns="http://www.w3.org/2000/svg" xmlns:xlink="http://www.w3.org/1999/xlink">
	<desc>
			Created with Pixso.
	</desc>
	<defs>
		<clipPath id="clip77_32">
			<rect id="Frame" rx="-1.530391" width="71.928352" height="71.928352" transform="translate(24.485468 31.016718)" fill="white" fill-opacity="0"/>
		</clipPath>
	</defs>
	<path id="Line 1" d="M122.43 66.21L425.44 66.21" stroke="#FFFFFF" stroke-opacity="1.000000" stroke-width="3.060781" stroke-linecap="square"/>
	<path id="Первый" d="M339.82 7.66Q341.09 8.09 342.51 8.09Q343.93 8.09 345.2 7.66Q345.98 7.4 346.71 6.97Q347.71 6.39 348.49 5.6Q349.21 4.86 349.75 3.95Q350.19 3.18 350.46 2.36Q350.86 1.11 350.86 -0.26L345.68 -0.26Q345.68 0.34 345.49 0.86Q345.39 1.12 345.25 1.35Q345.04 1.71 344.75 1.99Q344.47 2.28 344.11 2.49Q343.94 2.59 343.76 2.67Q343.18 2.91 342.51 2.91Q341.93 2.91 341.42 2.73Q341.15 2.63 340.91 2.49Q340.55 2.28 340.27 1.99Q339.98 1.71 339.76 1.35Q339.65 1.14 339.56 0.92Q339.35 0.37 339.35 -0.26L334.17 -0.26Q334.17 1.11 334.57 2.36Q334.84 3.18 335.29 3.95Q335.84 4.9 336.6 5.66Q337.36 6.41 338.31 6.97Q339.04 7.4 339.82 7.66ZM141.59 11.45L141.59 51.12L148.25 51.12L148.25 17.68L165.99 17.68L165.99 51.12L172.66 51.12L172.66 11.45L141.59 11.45ZM179.27 11.45L179.27 51.12L204.94 51.12L204.94 44.89L185.93 44.89L185.93 33.68L201.64 33.68L201.64 27.46L185.93 27.46L185.93 17.68L204.94 17.68L204.94 11.45L179.27 11.45ZM210.46 11.45L210.46 51.12L217.14 51.12L217.14 37.26L226.13 37.26Q229.63 37.26 232.25 36.39Q234.88 35.5 236.65 33.85Q237.07 33.45 237.45 33Q238.62 31.61 239.3 29.8Q240.18 27.4 240.18 24.36Q240.18 21.34 239.3 18.94Q238.61 17.1 237.42 15.69Q237.06 15.27 236.66 14.88Q234.91 13.21 232.27 12.34Q229.65 11.45 226.13 11.45L210.46 11.45ZM244.59 51.12L259.87 51.12Q262.76 51.12 265.32 50.48Q267.89 49.85 269.79 48.51Q270.74 47.84 271.49 46.99Q272.26 46.12 272.82 45.06Q273.92 42.97 273.92 40.07Q273.92 37.87 273.28 36.19Q272.63 34.51 271.61 33.31Q270.59 32.11 269.35 31.43Q268.11 30.73 266.93 30.51Q267.89 30.21 268.91 29.56Q269.93 28.88 270.75 27.82Q271.58 26.74 272.11 25.26Q272.63 23.79 272.63 21.86Q272.63 19.24 271.61 17.29Q271.09 16.28 270.36 15.46Q269.68 14.67 268.81 14.05Q267.04 12.74 264.62 12.1Q262.21 11.45 259.47 11.45L244.59 11.45L244.59 51.12ZM294 25.3L285.02 25.3L285.02 11.45L278.36 11.45L278.36 51.12L294 51.12Q297.53 51.12 300.15 50.24Q302.79 49.35 304.54 47.69Q304.97 47.28 305.34 46.82Q306.5 45.43 307.16 43.62Q308.05 41.23 308.05 38.19Q308.05 35.16 307.16 32.77Q306.49 30.93 305.3 29.53Q304.94 29.11 304.54 28.72Q302.79 27.07 300.15 26.19Q297.53 25.3 294 25.3ZM313.32 11.45L313.32 51.12L320 51.12L320 11.45L313.32 11.45ZM351.8 22.91L351.8 51.12L358.46 51.12L358.46 11.45L351.8 11.45L333.31 39.66L333.31 11.45L326.62 11.45L326.62 51.12L333.31 51.12L351.8 22.91ZM226.07 31.06L217.14 31.06L217.14 17.68L226.07 17.68Q229.68 17.68 231.58 19.4Q231.91 19.7 232.18 20.04Q233.49 21.68 233.49 24.36Q233.49 27.07 232.16 28.72Q231.9 29.05 231.58 29.34Q229.68 31.06 226.07 31.06ZM251.25 17.68L259.6 17.68Q260.94 17.68 262.1 17.92Q263.26 18.15 264.09 18.73Q264.37 18.92 264.61 19.15Q265.1 19.62 265.42 20.26Q265.91 21.2 265.91 22.6Q265.91 24.01 265.44 24.98Q265.1 25.67 264.58 26.16Q264.38 26.36 264.15 26.53Q263.34 27.12 262.24 27.38Q261.15 27.62 259.87 27.62L251.25 27.62L251.25 17.68ZM299.45 43.17Q297.55 44.89 293.95 44.89L285.02 44.89L285.02 31.51L293.95 31.51Q297.55 31.51 299.45 33.23Q299.78 33.53 300.06 33.87Q301.36 35.51 301.36 38.19Q301.36 40.9 300.04 42.55Q299.77 42.88 299.45 43.17ZM262.65 44.67Q261.33 44.89 259.87 44.89L251.25 44.89L251.25 33.74L260.1 33.74Q261.44 33.74 262.73 33.98Q264.04 34.21 265.03 34.83Q265.37 35.03 265.66 35.29Q266.24 35.81 266.65 36.52Q267.25 37.59 267.25 39.29Q267.25 41.03 266.65 42.12Q266.27 42.79 265.73 43.29Q265.4 43.59 265.01 43.83Q263.98 44.45 262.65 44.67Z" fill="#FFFFFF" fill-opacity="1.000000" fill-rule="evenodd"/>
	<path id="кредит" d="M224.79 81.85L218.11 81.85L218.11 121.52L224.79 121.52L224.79 102.98L241.53 121.52L249.95 121.52L231.74 101.3L248.79 81.85L240.64 81.85L224.79 100.3L224.79 81.85ZM252.71 81.85L252.71 121.52L259.39 121.52L259.39 107.66L268.38 107.66Q271.88 107.66 274.5 106.79Q277.14 105.9 278.9 104.24Q279.32 103.85 279.7 103.4Q280.87 102.01 281.55 100.2Q282.43 97.8 282.43 94.76Q282.43 91.73 281.55 89.34Q280.87 87.5 279.67 86.09Q279.32 85.66 278.91 85.28Q277.16 83.61 274.53 82.74Q271.9 81.85 268.38 81.85L252.71 81.85ZM286.84 81.85L286.84 121.52L312.5 121.52L312.5 115.29L293.5 115.29L293.5 104.08L309.21 104.08L309.21 97.86L293.5 97.86L293.5 88.08L312.5 88.08L312.5 81.85L286.84 81.85ZM319.23 115.29L315.9 115.29L315.9 129.14L322.54 129.14L322.54 121.52L348.1 121.52L348.1 129.14L354.77 129.14L354.77 115.29L350.3 115.29L350.3 81.85L322.18 81.85L322.18 94.94Q322.18 98.26 322.08 101.46Q321.99 104.66 321.68 107.38Q321.39 110.08 320.79 112.15Q320.2 114.21 319.23 115.29ZM391.57 81.85L391.57 121.52L384.91 121.52L384.91 93.31L366.41 121.52L359.73 121.52L359.73 81.85L366.41 81.85L366.41 110.06L384.91 81.85L391.57 81.85ZM407.22 88.08L407.22 121.52L413.91 121.52L413.91 88.08L425.68 88.08L425.68 81.85L395.4 81.85L395.4 88.08L407.22 88.08ZM268.32 101.46L259.39 101.46L259.39 88.08L268.32 88.08Q271.93 88.08 273.83 89.8Q274.16 90.1 274.43 90.44Q275.74 92.08 275.74 94.76Q275.74 97.47 274.41 99.12Q274.15 99.45 273.83 99.74Q271.93 101.46 268.32 101.46ZM343.63 88.08L343.63 115.29L326.23 115.29Q326.7 114.39 327.07 112.8Q327.47 111.21 327.75 109.03Q328.04 106.85 328.21 104.12Q328.38 101.38 328.38 98.18L328.38 88.08L343.63 88.08Z" fill="#FFFFFF" fill-opacity="1.000000" fill-rule="evenodd"/>
	<rect id="Frame" rx="-1.530391" width="71.928352" height="71.928352" transform="translate(24.485468 31.016718)" fill="#FFFFFF" fill-opacity="0"/>
	<g clip-path="url(#clip77_32)">
		<path id="Vector" d="M81.01 68.78L89.8 68.78L89.8 89.82L81.01 89.82L81.01 68.78ZM64.37 68.78L73.16 68.78L73.16 89.82L64.37 89.82L64.37 68.78ZM47.73 68.78L56.52 68.78L56.52 89.82L47.73 89.82L47.73 68.78ZM31.09 68.78L39.88 68.78L39.88 89.82L31.09 89.82L31.09 68.78ZM92.73 62.19L92.73 60L28.16 60L28.16 62.19C28.16 63.41 29.15 64.39 30.36 64.39L90.53 64.39C91.75 64.39 92.73 63.41 92.73 62.19ZM25.15 55.6L95.74 55.6C96.22 55.6 96.69 55.45 97.07 55.16C97.45 54.87 97.73 54.46 97.86 54C97.99 53.54 97.96 53.05 97.79 52.61C97.62 52.16 97.3 51.79 96.89 51.53L61.6 29.81C61.25 29.59 60.85 29.48 60.45 29.48C60.04 29.48 59.64 29.59 59.29 29.81L24 51.53C23.59 51.79 23.27 52.16 23.1 52.61C22.93 53.05 22.9 53.54 23.03 54C23.16 54.46 23.44 54.87 23.82 55.16C24.2 55.45 24.67 55.6 25.15 55.6ZM58.95 42.4L61.94 42.4C63.15 42.4 64.14 43.39 64.14 44.6C64.14 45.81 63.15 46.8 61.94 46.8L58.95 46.8C57.74 46.8 56.75 45.81 56.75 44.6C56.75 43.39 57.74 42.4 58.95 42.4Z" fill="#FFFFFF" fill-opacity="1.000000" fill-rule="nonzero"/>
	</g>
	<ellipse id="Ellipse 8" rx="52.033279" ry="52.033276" transform="matrix(-4.37114e-08 1 -1 -4.37114e-08 61.2158 66.2156)" stroke="#FFFFFF" stroke-opacity="1.000000" stroke-width="18.364685" stroke-dasharray="15.3039 15.3039"/>
</svg>
