<svg width="24.000000" height="24.000000" viewBox="0 0 24 24" fill="none" xmlns="http://www.w3.org/2000/svg" xmlns:xlink="http://www.w3.org/1999/xlink">
	<desc>
			Created with Pixso.
	</desc>
	<defs>
		<clipPath id="clip39_1903">
			<rect id="gg:link" rx="-0.500000" width="23.000000" height="23.000000" transform="translate(0.500000 0.500000)" fill="white" fill-opacity="0"/>
		</clipPath>
	</defs>
	<rect id="gg:link" rx="-0.500000" width="23.000000" height="23.000000" transform="translate(0.500000 0.500000)" fill="#FFFFFF" fill-opacity="0"/>
	<g clip-path="url(#clip39_1903)">
		<circle id="Ellipse 18" cx="12.000000" cy="12.000000" r="12.000000" fill="#333435" fill-opacity="1.000000"/>
		<path id="Vector" d="M13.89 11.62L15.02 12.75L17.3 10.48C17.9 9.88 18.24 9.06 18.24 8.21C18.24 7.36 17.9 6.54 17.3 5.94C17 5.64 16.64 5.4 16.25 5.24C15.86 5.08 15.45 5 15.02 5C14.17 5 13.35 5.33 12.75 5.94L10.48 8.21L11.62 9.34L13.89 7.07C14.19 6.77 14.6 6.6 15.02 6.6C15.45 6.6 15.86 6.77 16.16 7.07C16.46 7.37 16.63 7.78 16.63 8.21C16.63 8.63 16.46 9.04 16.16 9.34L13.89 11.62ZM11.62 13.89L12.75 15.02L10.48 17.3C9.88 17.9 9.06 18.24 8.21 18.24C7.36 18.24 6.54 17.9 5.94 17.3C5.33 16.69 5 15.88 5 15.02C5 14.17 5.33 13.35 5.94 12.75L8.21 10.48L9.34 11.62L7.07 13.89C6.77 14.19 6.6 14.6 6.6 15.03C6.6 15.45 6.77 15.86 7.07 16.16C7.37 16.46 7.78 16.63 8.21 16.63C8.63 16.63 9.04 16.46 9.34 16.16L11.62 13.89Z" fill="#FFFFFF" fill-opacity="1.000000" fill-rule="nonzero"/>
		<path id="Vector" d="M13.89 10.48C14.04 10.33 14.12 10.13 14.12 9.91C14.12 9.7 14.04 9.49 13.89 9.34C13.74 9.19 13.53 9.11 13.32 9.11C13.11 9.11 12.9 9.19 12.75 9.34L9.34 12.75C9.27 12.83 9.21 12.92 9.16 13.01C9.12 13.11 9.1 13.22 9.1 13.32C9.1 13.43 9.12 13.54 9.16 13.63C9.2 13.73 9.26 13.82 9.33 13.9C9.41 13.97 9.5 14.03 9.6 14.07C9.7 14.11 9.8 14.13 9.91 14.13C10.02 14.13 10.12 14.11 10.22 14.07C10.32 14.03 10.41 13.96 10.48 13.89L13.89 10.48Z" fill="#FFFFFF" fill-opacity="1.000000" fill-rule="nonzero"/>
	</g>
</svg>
