<svg width="40.000000" height="40.000000" viewBox="0 0 40 40" fill="none" xmlns="http://www.w3.org/2000/svg" xmlns:xlink="http://www.w3.org/1999/xlink">
	<desc>
			Created with Pixso.
	</desc>
	<defs>
		<clipPath id="clip85_34">
			<rect id="f7:phone-fill" width="24.000000" height="24.000000" transform="translate(8.000000 8.000000)" fill="white" fill-opacity="0"/>
		</clipPath>
	</defs>
	<rect id="Frame 335774" rx="19.500000" width="39.000000" height="39.000000" transform="translate(0.500000 0.500000)" fill="#2463CA" fill-opacity="1.000000"/>
	<rect id="f7:phone-fill" width="24.000000" height="24.000000" transform="translate(8.000000 8.000000)" fill="#FFFFFF" fill-opacity="0"/>
	<g clip-path="url(#clip85_34)">
		<path id="Vector" d="M15.78 24.18C18.68 27.08 22.21 29.32 25.1 29.32C26.39 29.32 27.53 28.87 28.44 27.86C28.97 27.27 29.31 26.58 29.31 25.9C29.31 25.39 29.11 24.91 28.63 24.57L25.56 22.38C25.09 22.06 24.7 21.9 24.33 21.9C23.87 21.9 23.47 22.16 23.01 22.61L22.29 23.31C22.19 23.42 22.06 23.47 21.91 23.48C21.75 23.48 21.61 23.42 21.5 23.36C20.89 23.03 19.82 22.12 18.83 21.14C17.84 20.15 16.93 19.09 16.61 18.46C16.54 18.34 16.5 18.2 16.5 18.06C16.5 17.93 16.54 17.8 16.65 17.69L17.35 16.96C17.8 16.49 18.07 16.09 18.07 15.63C18.07 15.27 17.9 14.88 17.57 14.41L15.41 11.36C15.06 10.88 14.57 10.67 14.03 10.67C13.36 10.67 12.67 10.97 12.09 11.54C11.11 12.48 10.68 13.63 10.68 14.91C10.68 17.79 12.88 21.29 15.78 24.18Z" fill="#FFFFFF" fill-opacity="1.000000" fill-rule="nonzero"/>
	</g>
</svg>
