<svg width="141.000000" height="45.000000" viewBox="0 0 141 45" fill="none" xmlns="http://www.w3.org/2000/svg" xmlns:xlink="http://www.w3.org/1999/xlink">
	<desc>
			Created with Pixso.
	</desc>
	<defs>
		<clipPath id="clip29_27">
			<rect id="Frame" rx="-0.500000" width="23.499998" height="23.499998" transform="translate(8.000000 9.500000)" fill="white" fill-opacity="0"/>
		</clipPath>
	</defs>
	<path id="Line 1" d="M40 21L139 21" stroke="#2463CA" stroke-opacity="1.000000" stroke-width="1.000000" stroke-linecap="square"/>
	<path id="Первый" d="M111.02 1.8Q111.44 1.94 111.9 1.94Q112.36 1.94 112.78 1.8Q113.03 1.71 113.27 1.57Q113.6 1.38 113.85 1.12Q114.09 0.88 114.26 0.58Q114.41 0.33 114.5 0.07Q114.63 -0.34 114.63 -0.79L112.94 -0.79Q112.94 -0.6 112.87 -0.42Q112.84 -0.34 112.8 -0.26Q112.73 -0.15 112.63 -0.05Q112.54 0.04 112.42 0.11Q112.37 0.14 112.31 0.17Q112.12 0.25 111.9 0.25Q111.71 0.25 111.54 0.19Q111.46 0.15 111.38 0.11Q111.26 0.04 111.17 -0.05Q111.07 -0.15 111 -0.26Q110.96 -0.33 110.94 -0.4Q110.87 -0.58 110.87 -0.79L109.18 -0.79Q109.18 -0.34 109.31 0.07Q109.39 0.33 109.54 0.58Q109.72 0.9 109.97 1.14Q110.22 1.39 110.53 1.57Q110.77 1.71 111.02 1.8ZM46.26 3.04L46.26 16L48.43 16L48.43 5.07L54.23 5.07L54.23 16L56.41 16L56.41 3.04L46.26 3.04ZM58.57 3.04L58.57 16L66.95 16L66.95 13.96L60.74 13.96L60.74 10.3L65.88 10.3L65.88 8.27L60.74 8.27L60.74 5.07L66.95 5.07L66.95 3.04L58.57 3.04ZM68.76 3.04L68.76 16L70.94 16L70.94 11.47L73.88 11.47Q75.02 11.47 75.88 11.18Q76.74 10.89 77.31 10.35Q77.45 10.22 77.57 10.08Q77.96 9.62 78.18 9.03Q78.47 8.25 78.47 7.25Q78.47 6.27 78.18 5.48Q77.96 4.88 77.57 4.42Q77.45 4.28 77.32 4.16Q76.75 3.61 75.88 3.33Q75.03 3.04 73.88 3.04L68.76 3.04ZM79.91 16L84.9 16Q85.84 16 86.68 15.79Q87.52 15.58 88.14 15.14Q88.45 14.92 88.7 14.65Q88.95 14.36 89.13 14.02Q89.49 13.33 89.49 12.39Q89.49 11.67 89.28 11.12Q89.07 10.57 88.74 10.18Q88.4 9.79 88 9.56Q87.59 9.33 87.21 9.26Q87.52 9.17 87.85 8.95Q88.19 8.73 88.45 8.38Q88.73 8.03 88.9 7.55Q89.07 7.07 89.07 6.44Q89.07 5.58 88.74 4.94Q88.56 4.61 88.33 4.34Q88.1 4.09 87.82 3.88Q87.24 3.46 86.45 3.25Q85.66 3.04 84.77 3.04L79.91 3.04L79.91 16ZM96.05 7.56L93.12 7.56L93.12 3.04L90.94 3.04L90.94 16L96.05 16Q97.2 16 98.06 15.71Q98.92 15.42 99.49 14.87Q99.63 14.74 99.76 14.59Q100.13 14.14 100.35 13.55Q100.64 12.77 100.64 11.77Q100.64 10.78 100.35 10Q100.13 9.4 99.74 8.94Q99.63 8.8 99.49 8.68Q98.92 8.14 98.06 7.85Q97.2 7.56 96.05 7.56ZM102.36 3.04L102.36 16L104.55 16L104.55 3.04L102.36 3.04ZM114.94 6.78L114.94 16L117.11 16L117.11 3.04L114.94 3.04L108.89 12.25L108.89 3.04L106.71 3.04L106.71 16L108.89 16L114.94 6.78ZM73.86 9.44L70.94 9.44L70.94 5.07L73.86 5.07Q75.04 5.07 75.66 5.63Q75.76 5.73 75.85 5.84Q76.28 6.38 76.28 7.25Q76.28 8.14 75.85 8.68Q75.76 8.79 75.66 8.88Q75.04 9.44 73.86 9.44ZM82.08 5.07L84.81 5.07Q85.25 5.07 85.63 5.15Q86.01 5.22 86.28 5.41Q86.37 5.48 86.45 5.55Q86.61 5.7 86.71 5.91Q86.87 6.22 86.87 6.68Q86.87 7.14 86.72 7.46Q86.61 7.68 86.44 7.84Q86.37 7.91 86.3 7.96Q86.03 8.16 85.67 8.24Q85.32 8.32 84.9 8.32L82.08 8.32L82.08 5.07ZM97.83 13.4Q97.21 13.96 96.03 13.96L93.12 13.96L93.12 9.59L96.03 9.59Q97.21 9.59 97.83 10.15Q97.94 10.25 98.03 10.36Q98.46 10.9 98.46 11.77Q98.46 12.66 98.02 13.19Q97.94 13.3 97.83 13.4ZM85.81 13.89Q85.38 13.96 84.9 13.96L82.08 13.96L82.08 10.32L84.97 10.32Q85.41 10.32 85.84 10.4Q86.26 10.47 86.59 10.67Q86.7 10.74 86.79 10.82Q86.98 10.99 87.11 11.23Q87.31 11.57 87.31 12.13Q87.31 12.7 87.11 13.06Q86.99 13.28 86.81 13.44Q86.71 13.54 86.58 13.61Q86.24 13.82 85.81 13.89Z" fill="#2463CA" fill-opacity="1.000000" fill-rule="evenodd"/>
	<path id="кредит" d="M73.44 26.04L71.26 26.04L71.26 39L73.44 39L73.44 32.94L78.91 39L81.66 39L75.71 32.39L81.28 26.04L78.62 26.04L73.44 32.06L73.44 26.04ZM82.56 26.04L82.56 39L84.74 39L84.74 34.47L87.68 34.47Q88.82 34.47 89.68 34.18Q90.54 33.89 91.12 33.35Q91.26 33.22 91.38 33.08Q91.76 32.62 91.98 32.03Q92.27 31.25 92.27 30.25Q92.27 29.27 91.98 28.48Q91.76 27.88 91.37 27.42Q91.25 27.28 91.12 27.16Q90.55 26.61 89.69 26.33Q88.83 26.04 87.68 26.04L82.56 26.04ZM93.71 26.04L93.71 39L102.1 39L102.1 36.96L95.89 36.96L95.89 33.3L101.02 33.3L101.02 31.27L95.89 31.27L95.89 28.07L102.1 28.07L102.1 26.04L93.71 26.04ZM104.3 36.96L103.21 36.96L103.21 41.49L105.38 41.49L105.38 39L113.73 39L113.73 41.49L115.91 41.49L115.91 36.96L114.45 36.96L114.45 26.04L105.26 26.04L105.26 30.31Q105.26 31.4 105.23 32.44Q105.2 33.49 105.1 34.38Q105 35.26 104.81 35.94Q104.61 36.61 104.3 36.96ZM127.93 26.04L127.93 39L125.75 39L125.75 29.78L119.71 39L117.53 39L117.53 26.04L119.71 26.04L119.71 35.25L125.75 26.04L127.93 26.04ZM133.04 28.07L133.04 39L135.23 39L135.23 28.07L139.07 28.07L139.07 26.04L129.18 26.04L129.18 28.07L133.04 28.07ZM87.66 32.44L84.74 32.44L84.74 28.07L87.66 28.07Q88.84 28.07 89.46 28.63Q89.57 28.73 89.66 28.84Q90.08 29.38 90.08 30.25Q90.08 31.14 89.65 31.68Q89.56 31.79 89.46 31.88Q88.84 32.44 87.66 32.44ZM112.27 28.07L112.27 36.96L106.58 36.96Q106.73 36.67 106.86 36.15Q106.98 35.63 107.08 34.92Q107.17 34.21 107.23 33.31Q107.28 32.42 107.28 31.37L107.28 28.07L112.27 28.07Z" fill="#2463CA" fill-opacity="1.000000" fill-rule="evenodd"/>
	<rect id="Frame" rx="-0.500000" width="23.499998" height="23.499998" transform="translate(8.000000 9.500000)" fill="#FFFFFF" fill-opacity="0"/>
	<g clip-path="url(#clip29_27)">
		<path id="Vector" d="M26.46 21.84L29.34 21.84L29.34 28.71L26.46 28.71L26.46 21.84ZM21.03 21.84L23.9 21.84L23.9 28.71L21.03 28.71L21.03 21.84ZM15.59 21.84L18.46 21.84L18.46 28.71L15.59 28.71L15.59 21.84ZM10.15 21.84L13.03 21.84L13.03 28.71L10.15 28.71L10.15 21.84ZM30.29 19.68L30.29 18.96L9.2 18.96L9.2 19.68C9.2 20.08 9.52 20.4 9.92 20.4L29.57 20.4C29.97 20.4 30.29 20.08 30.29 19.68ZM8.21 17.53L31.28 17.53C31.43 17.53 31.59 17.48 31.71 17.38C31.83 17.29 31.93 17.16 31.97 17.01C32.01 16.86 32 16.7 31.95 16.55C31.89 16.41 31.79 16.28 31.65 16.2L20.12 9.1C20.01 9.03 19.88 9 19.74 9C19.61 9 19.48 9.03 19.37 9.1L7.84 16.2C7.7 16.28 7.6 16.41 7.54 16.55C7.49 16.7 7.48 16.86 7.52 17.01C7.56 17.16 7.66 17.29 7.78 17.38C7.9 17.48 8.06 17.53 8.21 17.53ZM19.26 13.22L20.23 13.22C20.63 13.22 20.95 13.54 20.95 13.93C20.95 14.33 20.63 14.65 20.23 14.65L19.26 14.65C18.86 14.65 18.54 14.33 18.54 13.93C18.54 13.54 18.86 13.22 19.26 13.22Z" fill="#2463CA" fill-opacity="1.000000" fill-rule="nonzero"/>
	</g>
	<ellipse id="Ellipse 8" rx="17.000000" ry="16.999998" transform="matrix(-4.37114e-08 1 -1 -4.37114e-08 20 21)" stroke="#2463CA" stroke-opacity="1.000000" stroke-width="6.000000" stroke-dasharray="5 5"/>
</svg>
