<svg width="147.000000" height="26.000000" viewBox="0 0 147 26" fill="none" xmlns="http://www.w3.org/2000/svg" xmlns:xlink="http://www.w3.org/1999/xlink">
	<desc>
			Created with Pixso.
	</desc>
	<defs/>
	<path id="Vector" d="M-0.71 -0.03L24.79 -0.03L24.79 12.62C24.79 15.86 23.05 18.85 20.2 20.47L12.05 25.11L3.91 20.47C1.06 18.86 -0.69 15.86 -0.69 12.62L-0.69 -0.03L-0.71 -0.03Z" fill="#FFDD2D" fill-opacity="1.000000" fill-rule="nonzero"/>
	<path id="Vector" d="M6.29 6.63L6.29 10.56C6.84 9.95 7.83 9.54 8.96 9.54L10.19 9.54L10.19 14.11C10.19 15.33 9.86 16.39 9.36 16.98L14.72 16.98C14.22 16.39 13.89 15.33 13.89 14.11L13.89 9.54L15.12 9.54C16.26 9.54 17.25 9.95 17.79 10.56L17.79 6.63L6.29 6.63Z" fill="#333333" fill-opacity="1.000000" fill-rule="evenodd"/>
	<path id="Vector" d="M140.12 6.04L140.12 7.08C144.16 7.17 146.57 8.84 146.57 11.8C146.57 14.75 144.16 16.29 140.12 16.39L140.12 17.44L136.93 17.44L136.93 16.39C132.92 16.3 130.51 14.76 130.51 11.8C130.51 8.84 132.92 7.17 136.93 7.08L136.93 6.04L140.12 6.04ZM136.93 14.17L136.93 9.33C134.73 9.41 133.75 10.41 133.75 11.81C133.75 13.19 134.73 14.09 136.93 14.17ZM140.12 9.33L140.12 14.17C142.35 14.09 143.3 13.19 143.3 11.8C143.3 10.41 142.36 9.41 140.12 9.33Z" fill="#333333" fill-opacity="1.000000" fill-rule="nonzero"/>
	<path id="Vector" d="M123.05 6.04L123.05 7.08C127.09 7.17 129.49 8.84 129.49 11.8C129.49 14.75 127.09 16.29 123.05 16.39L123.05 17.44L119.86 17.44L119.86 16.39C115.85 16.3 113.44 14.76 113.44 11.8C113.44 8.84 115.85 7.17 119.86 7.08L119.86 6.04L123.05 6.04ZM119.85 14.17L119.85 9.33C117.64 9.41 116.67 10.41 116.67 11.81C116.68 13.19 117.64 14.09 119.85 14.17ZM123.05 9.33L123.05 14.17C125.28 14.09 126.23 13.19 126.23 11.8C126.23 10.41 125.28 9.41 123.05 9.33Z" fill="#333333" fill-opacity="1.000000" fill-rule="nonzero"/>
	<path id="Vector" d="M105.54 6.35C109.82 6.35 112.4 8.74 112.4 11.82C112.4 14.91 109.82 17.29 105.54 17.29C101.23 17.29 98.65 14.91 98.65 11.82C98.66 8.74 101.24 6.35 105.54 6.35ZM105.54 14.77C107.65 14.77 109.05 13.51 109.05 11.82C109.05 10.12 107.65 8.89 105.54 8.89C103.4 8.89 102.03 10.13 102.03 11.82C102.03 13.52 103.4 14.77 105.54 14.77Z" fill="#333333" fill-opacity="1.000000" fill-rule="nonzero"/>
	<path id="Vector" d="M90.88 13.06L90 13.06L90 16.98L86.81 16.98L86.81 6.64L90 6.64L90 10.53L90.88 10.53L94.75 6.64L98.76 6.64L93.65 11.58L98.97 16.97L94.71 16.97L90.88 13.06Z" fill="#333333" fill-opacity="1.000000" fill-rule="nonzero"/>
	<path id="Vector" d="M80.42 16.98L73.93 16.98L73.93 6.64L77.14 6.64L77.14 9.41L80.43 9.41C81.22 9.41 82.05 9.43 82.76 9.69C84.24 10.23 85.17 11.42 85.17 13.15C85.17 14.95 84.1 16.28 82.43 16.74C81.8 16.91 81.14 16.98 80.42 16.98ZM79.85 11.84L77.11 11.84L77.11 14.47L79.85 14.47C80.4 14.47 80.76 14.47 81.11 14.31C81.61 14.1 81.93 13.64 81.93 13.1C81.93 12.58 81.63 12.15 81.09 11.96C80.72 11.84 80.29 11.84 79.85 11.84Z" fill="#333333" fill-opacity="1.000000" fill-rule="nonzero"/>
	<path id="Vector" d="M68.31 13.12L63.17 13.12L63.17 16.97L59.98 16.97L59.98 6.63L63.17 6.63L63.17 10.41L68.31 10.41L68.31 6.63L71.5 6.63L71.5 16.97L68.31 16.97L68.31 13.12Z" fill="#333333" fill-opacity="1.000000" fill-rule="nonzero"/>
	<path id="Vector" d="M49.21 12.65L54.72 6.63L57.55 6.63L57.55 16.97L54.35 16.97L54.35 10.94L48.84 16.97L46.01 16.97L46.01 6.63L49.21 6.63L49.21 12.65Z" fill="#333333" fill-opacity="1.000000" fill-rule="nonzero"/>
	<path id="Vector" d="M40.14 16.98L36.83 16.98L36.83 9.4L32.28 9.4L32.28 6.64L44.68 6.64L44.68 9.4L40.14 9.4L40.14 16.98Z" fill="#333333" fill-opacity="1.000000" fill-rule="nonzero"/>
</svg>
