<svg width="150.000000" height="31.000000" viewBox="0 0 150 31" fill="none" xmlns="http://www.w3.org/2000/svg" xmlns:xlink="http://www.w3.org/1999/xlink">
	<desc>
			Created with Pixso.
	</desc>
	<defs>
		<clipPath id="clip29_325">
			<rect id="Frame" rx="-0.030966" width="149.938065" height="30.780350" transform="translate(0.030966 0.030966)" fill="white" fill-opacity="0"/>
		</clipPath>
	</defs>
	<rect id="Frame" rx="-0.030966" width="149.938065" height="30.780350" transform="translate(0.030966 0.030966)" fill="#FFFFFF" fill-opacity="0"/>
	<g clip-path="url(#clip29_325)">
		<path id="Vector" d="M19.93 30.84L19.93 26.63L-0.01 26.63L-0.01 30.84L19.93 30.84ZM55.89 5.51C53.04 5.91 51.1 7.08 50.06 9.03C48.77 11.32 48.46 13.55 49.14 15.74C50.32 19.27 52.57 21.08 55.89 21.2L55.89 26.65L59.58 26.65L59.58 21.2C62.88 21.07 65.13 19.25 66.31 15.74C66.99 13.55 66.68 11.32 65.39 9.03C64.35 7.08 62.41 5.91 59.58 5.51L59.58 0.1L55.89 0.1L55.89 5.51ZM55.89 9.18L55.89 17.62C54.5 17.31 53.53 16.33 52.97 14.69C52.6 13.47 52.77 12.23 53.49 10.96C53.95 10.08 54.75 9.48 55.89 9.18ZM59.58 9.18C60.72 9.48 61.52 10.08 61.99 10.96C62.72 12.23 62.89 13.47 62.52 14.69C61.95 16.33 60.97 17.31 59.58 17.62L59.58 9.18ZM39.33 6.08L35.58 6.08L35.58 20.78L43.47 20.78C45.46 20.51 46.71 19.5 47.22 17.74L47.27 13.87C46.86 11.78 45.58 10.62 43.41 10.4L39.33 10.4L39.33 6.08ZM39.29 13.74L42.45 13.74C44.01 14.85 44.01 16.01 42.45 17.22L39.29 17.22L39.29 13.74ZM25.54 9.39L28.99 9.39L28.99 20.8L32.93 20.8L32.93 5.85L21.95 5.85L21.95 16.02C21.61 16.92 20.94 17.25 19.95 17.01L19.95 20.75L22.33 20.48C23.74 20.13 24.62 19.34 24.95 18.12C25.27 16.9 25.38 16.18 25.29 15.95L25.54 9.39ZM11.85 0.48C10.71 -0.12 9.52 -0.16 8.27 0.38C6.92 2.19 4.29 8.9 0.39 20.52L4.39 20.52L5.93 16.69L13.62 16.69L14.99 20.78L19.16 20.78C17.34 13.94 14.9 7.18 11.85 0.48ZM9.77 4.82L12.33 12.71L7.08 12.71L9.77 4.82ZM139.75 6.12L136.04 6.12L136.04 20.63L139.66 20.63L139.66 14.75L145.06 20.52L150 20.52L143.31 12.84L149.33 6.14L144.62 6.14L139.75 11.6L139.75 6.12ZM124.37 6.12L120.66 6.12L120.66 20.63L124.29 20.63L124.29 14.96L129.66 14.96L129.66 20.63L133.29 20.63L133.29 6.12L129.58 6.12L129.58 11.39L129.52 11.39L124.43 11.39L124.37 6.12ZM107.66 11.53C106.02 12.16 105.17 13.24 105.1 14.75C104.7 17.93 105.72 19.83 108.18 20.48C110.38 21.39 112.36 20.96 114.14 19.2C115.25 20.67 116.75 21.14 118.64 20.61L118.64 17.43L117.45 16.54L117.45 9.51C117.13 7.7 115.87 6.45 113.66 5.74C112.09 5.25 110.6 5.25 109.18 5.74C106.89 6.68 105.63 8.14 105.39 10.12L109.22 10.12C109.34 9.51 109.67 9.18 110.22 9.13L112.62 9.13C113.36 9.53 113.66 10.16 113.52 11.05C111.22 10.84 109.27 11 107.66 11.53ZM109.7 14.48L113.72 14.48L113.72 16.08C113.36 16.73 112.95 17.15 112.5 17.36C111.48 17.94 110.55 17.94 109.7 17.36C108.58 16.3 108.58 15.34 109.7 14.48ZM92.6 4.08L102.27 4.08L102.27 0.1L88.29 0.1L88.29 20.61L98.6 20.61C101.21 20.1 102.75 18.74 103.2 16.52L103.16 11.98C102.86 10.12 101.41 8.92 98.81 8.38C96.88 8.11 94.81 7.98 92.6 8L92.6 4.08ZM92.41 11.74L97.29 11.72C100.19 13.49 100.19 15.2 97.29 16.86L92.41 16.86L92.41 11.74ZM80.45 9.51C80.13 7.7 78.87 6.45 76.66 5.74C75.09 5.25 73.6 5.25 72.18 5.74C69.89 6.68 68.63 8.14 68.39 10.12L72.22 10.12C72.34 9.51 72.67 9.18 73.22 9.13L75.62 9.13C76.36 9.53 76.65 10.16 76.52 11.05C74.22 10.84 72.27 11 70.66 11.53C69.02 12.16 68.17 13.24 68.1 14.75C67.7 17.93 68.72 19.83 71.18 20.48C73.38 21.39 75.36 20.96 77.14 19.2C78.25 20.67 79.75 21.14 81.64 20.61L81.64 17.43L80.45 16.54L80.45 9.51ZM76.72 16.08C76.36 16.73 75.95 17.15 75.49 17.36C74.48 17.94 73.55 17.94 72.7 17.36C71.58 16.3 71.58 15.34 72.7 14.48L76.72 14.48L76.72 16.08Z" fill="#F03024" fill-opacity="1.000000" fill-rule="nonzero"/>
		<path id="Vector" d="M72.22 10.12C72.34 9.51 72.67 9.18 73.22 9.13L75.62 9.13C76.36 9.53 76.65 10.16 76.52 11.05C74.22 10.84 72.27 11 70.66 11.53C69.02 12.16 68.17 13.24 68.1 14.75C67.7 17.93 68.72 19.83 71.18 20.48C73.38 21.39 75.36 20.96 77.14 19.2C78.25 20.67 79.75 21.14 81.64 20.61L81.64 17.43L80.45 16.54L80.45 9.51C80.13 7.7 78.87 6.45 76.66 5.74C75.09 5.25 73.6 5.25 72.18 5.74C69.89 6.68 68.63 8.14 68.39 10.12L72.22 10.12ZM88.29 0.1L102.27 0.1L102.27 4.08L92.6 4.08L92.6 8C94.81 7.98 96.88 8.11 98.81 8.38C101.41 8.92 102.86 10.12 103.16 11.98L103.2 16.52C102.75 18.74 101.21 20.1 98.6 20.61L88.29 20.61L88.29 0.1ZM92.41 16.86L97.29 16.86C100.19 15.2 100.19 13.49 97.29 11.72L92.41 11.74L92.41 16.86ZM109.22 10.12C109.34 9.51 109.67 9.18 110.22 9.13L112.62 9.13C113.36 9.53 113.66 10.16 113.52 11.05C111.22 10.84 109.27 11 107.66 11.53C106.02 12.16 105.17 13.24 105.1 14.75C104.7 17.93 105.72 19.83 108.18 20.48C110.38 21.39 112.36 20.96 114.14 19.2C115.25 20.67 116.75 21.14 118.64 20.61L118.64 17.43L117.45 16.54L117.45 9.51C117.13 7.7 115.87 6.45 113.66 5.74C112.09 5.25 110.6 5.25 109.18 5.74C106.89 6.68 105.63 8.14 105.39 10.12L109.22 10.12ZM109.7 14.48C108.58 15.34 108.58 16.3 109.7 17.36C110.55 17.94 111.48 17.94 112.5 17.36C112.95 17.15 113.36 16.73 113.72 16.08L113.72 14.48L109.7 14.48ZM129.58 6.12L129.58 11.39L129.52 11.39L124.43 11.39L124.37 6.12L120.66 6.12L120.66 20.63L124.29 20.63L124.29 14.96L129.66 14.96L129.66 20.63L133.29 20.63L133.29 6.12L129.58 6.12L129.52 6.12L129.52 11.39M139.66 20.63L136.04 20.63L136.04 6.12L139.75 6.12L139.75 11.6L144.62 6.14L149.33 6.14L143.31 12.84L150 20.52L145.06 20.52L139.66 14.75L139.66 20.63ZM72.7 14.48C71.58 15.34 71.58 16.3 72.7 17.36C73.55 17.94 74.48 17.94 75.5 17.36C75.95 17.15 76.36 16.73 76.72 16.08L76.72 14.48L72.7 14.48ZM8.27 0.38C9.52 -0.16 10.71 -0.12 11.85 0.48C14.9 7.18 17.34 13.94 19.16 20.78L14.99 20.78L13.62 16.69L5.93 16.69L4.39 20.52L0.39 20.52C4.29 8.9 6.92 2.19 8.27 0.38ZM9.77 4.82L12.33 12.71L7.08 12.71L9.77 4.82ZM19.95 20.75L22.33 20.48C23.74 20.13 24.62 19.34 24.95 18.12C25.27 16.9 25.38 16.18 25.29 15.95L25.54 9.39L28.99 9.39L28.99 20.8L32.93 20.8L32.93 5.85L21.95 5.85L21.95 16.02C21.61 16.92 20.94 17.25 19.95 17.01L19.95 20.75ZM39.33 6.08L39.33 10.4L43.41 10.4C45.58 10.62 46.86 11.78 47.27 13.87L47.22 17.74C46.71 19.5 45.46 20.51 43.47 20.78L35.58 20.78L35.58 6.08L39.33 6.08ZM55.89 5.51C53.04 5.91 51.1 7.08 50.06 9.03C48.77 11.32 48.46 13.55 49.14 15.74C50.32 19.27 52.57 21.08 55.89 21.2M59.58 21.2C62.88 21.07 65.13 19.25 66.31 15.74C66.99 13.55 66.68 11.32 65.39 9.03C64.35 7.08 62.41 5.91 59.58 5.51M56.72 9.01C56.43 9.05 56.15 9.11 55.89 9.18C54.75 9.48 53.95 10.08 53.5 10.96C52.77 12.23 52.6 13.47 52.97 14.69C53.53 16.33 54.5 17.31 55.89 17.62C56.15 17.67 56.43 17.71 56.72 17.72M58.77 9.01C59.06 9.05 59.33 9.11 59.58 9.18C60.72 9.48 61.52 10.08 62 10.96C62.72 12.23 62.89 13.47 62.52 14.69C61.95 16.33 60.97 17.31 59.58 17.62C59.33 17.67 59.06 17.71 58.77 17.72M39.29 17.22L42.45 17.22C44.01 16.01 44.01 14.85 42.45 13.74L39.29 13.74L39.29 17.22Z" stroke="#F03024" stroke-opacity="1.000000" stroke-width="0.418855" stroke-linejoin="round"/>
	</g>
</svg>
