<svg width="150.000000" height="29.000000" viewBox="0 0 150 29" fill="none" xmlns="http://www.w3.org/2000/svg" xmlns:xlink="http://www.w3.org/1999/xlink">
	<desc>
			Created with Pixso.
	</desc>
	<defs>
		<clipPath id="clip29_353">
			<rect id="Слой_1" rx="-0.500000" width="149.000000" height="28.000000" transform="translate(0.500000 0.500000)" fill="white" fill-opacity="0"/>
		</clipPath>
	</defs>
	<rect id="Слой_1" rx="-0.500000" width="149.000000" height="28.000000" transform="translate(0.500000 0.500000)" fill="#FFFFFF" fill-opacity="0"/>
	<g clip-path="url(#clip29_353)">
		<path id="Vector" d="M14.55 0C6.5 0 0 6.48 0 14.5C0 22.51 6.5 29 14.55 29C22.6 29 29.11 22.51 29.11 14.5C29.11 6.48 22.54 0 14.55 0ZM12.47 20.64L11.4 23.78C7.37 22.45 4.69 18.64 4.69 14.36C4.69 10.08 7.37 6.34 11.47 4.94L12.54 8.08C9.86 8.95 8.11 11.49 8.11 14.29C8.05 17.23 9.79 19.77 12.47 20.64ZM17.5 23.85L16.5 20.71C19.25 19.84 21.06 17.3 21.06 14.43C21.06 11.55 19.25 9.08 16.56 8.21L17.64 5.01C21.73 6.34 24.48 10.15 24.48 14.43C24.41 18.77 21.6 22.58 17.5 23.85Z" fill="#00BEF0" fill-opacity="1.000000" fill-rule="nonzero"/>
		<path id="Vector" d="M147.78 17.03L149.39 18.97C147.71 20.71 145.64 21.18 143.96 21.18C142.35 21.18 141.21 20.91 140.2 20.44C138.05 19.37 136.98 17.23 136.98 14.63C136.98 10.69 139.66 7.75 143.62 7.75C148.05 7.75 150.2 11.02 149.86 15.3L139.8 15.3C139.87 16.37 140.47 17.37 141.34 17.9C142.08 18.37 142.95 18.57 144.09 18.57C145.37 18.64 146.64 18.17 147.78 17.03ZM139.93 13.03L147.04 13.03C146.84 11.49 145.57 10.15 143.56 10.15C141.41 10.15 140.13 11.62 139.93 13.03ZM72.31 20.84L75.93 20.84L70.23 14.23L75.87 8.01L72.31 8.01L68.02 12.96L66.74 12.96L66.74 8.01L63.99 8.01L63.99 20.78L66.74 20.78L66.74 15.7L68.02 15.7L72.31 20.84ZM84.19 10.35C81.84 10.35 80.29 12.16 80.29 14.43C80.29 16.7 81.84 18.5 84.19 18.5C86.53 18.5 88.01 16.77 88.01 14.43C88.01 12.22 86.6 10.35 84.19 10.35ZM84.66 7.75C88.28 7.75 90.96 10.55 90.96 14.43C90.96 18.24 88.34 21.18 84.66 21.18C82.91 21.18 81.5 20.58 80.5 19.51L80.5 26.19L77.68 26.19L77.68 8.08L80.43 8.08L80.43 9.62C81.5 8.35 82.84 7.75 84.66 7.75ZM121.15 8.08L109.68 8.08L109.68 10.62L114.04 10.62L114.04 20.84L116.86 20.84L116.86 10.62L121.22 10.62L121.22 8.08L121.15 8.08ZM62.05 8.08L50.58 8.08L50.58 10.62L54.94 10.62L54.94 20.84L57.69 20.84L57.69 10.62L62.05 10.62L62.05 8.08ZM47.16 14.5C47.16 12.09 45.48 10.35 43.13 10.35C40.85 10.35 39.11 12.09 39.11 14.5C39.11 16.9 40.78 18.64 43.13 18.64C45.41 18.64 47.16 16.9 47.16 14.5ZM36.29 14.5C36.29 10.69 39.24 7.81 43.2 7.81C47.16 7.81 50.11 10.69 50.11 14.5C50.11 18.3 47.16 21.24 43.2 21.24C39.24 21.24 36.29 18.3 36.29 14.5ZM134.77 8.08L134.77 20.84L132.02 20.84L132.02 12.62L125.31 20.84L123.09 20.84L123.09 8.08L125.85 8.08L125.85 16.3L132.55 8.08L134.77 8.08ZM107.8 20.84L105.05 20.84L105.05 8.08L107.8 8.08L107.8 20.84ZM100.62 16.5C100.62 15.36 99.82 14.56 98.74 14.56L95.93 14.56L95.93 18.5L98.74 18.5C99.82 18.5 100.62 17.64 100.62 16.5ZM103.44 16.5C103.44 19.04 101.56 20.84 98.88 20.84L93.24 20.84L93.24 8.08L95.99 8.08L95.99 12.22L99.15 12.22C101.76 12.22 103.44 13.89 103.44 16.5Z" fill="#181716" fill-opacity="1.000000" fill-rule="nonzero"/>
	</g>
</svg>
