<svg width="150.000000" height="38.000000" viewBox="0 0 150 38" fill="none" xmlns="http://www.w3.org/2000/svg" xmlns:xlink="http://www.w3.org/1999/xlink">
	<desc>
			Created with Pixso.
	</desc>
	<defs>
		<clipPath id="clip29_360">
			<rect id="Frame" rx="-0.500000" width="149.000000" height="37.000000" transform="translate(0.500000 0.500000)" fill="white" fill-opacity="0"/>
		</clipPath>
	</defs>
	<rect id="Frame" rx="-0.500000" width="149.000000" height="37.000000" transform="translate(0.500000 0.500000)" fill="#FFFFFF" fill-opacity="0"/>
	<g clip-path="url(#clip29_360)">
		<mask id="mask29_362" mask-type="alpha" maskUnits="userSpaceOnUse" x="0.000000" y="0.000000" width="150.000000" height="38.000000">
			<path id="Vector" d="M0 0L150 0L150 38L0 38L0 0Z" fill="#000000" fill-opacity="1.000000" fill-rule="evenodd"/>
		</mask>
		<g mask="url(#mask29_362)">
			<path id="Vector" d="M63.13 14.2C61.16 14.2 59.69 14.9 58.96 16.04L58.8 16.04L58.8 14.56L55.2 14.56L55.2 30.3L58.8 30.3L58.8 25.31L58.96 25.31C59.69 26.45 61.16 27.15 63.13 27.15C66.83 27.15 69.76 24.28 69.76 20.67C69.76 17.07 66.83 14.2 63.13 14.2ZM62.4 24.03C60.39 24.03 58.8 22.55 58.8 20.67C58.8 18.78 60.39 17.31 62.4 17.31C64.47 17.31 66.05 18.78 66.05 20.67C66.05 22.56 64.45 24.03 62.4 24.03Z" fill="#3B175C" fill-opacity="1.000000" fill-rule="nonzero"/>
			<path id="Vector" d="M143.69 15.13C141.63 15.13 140.02 15.87 139.04 17.16L138.88 17.16C139.14 14.83 140.53 13.7 143.52 13.29L148.75 12.57L148.75 9.43L143.17 10.18C138.02 10.86 135.55 13.45 135.55 18.12C135.55 21.5 135.78 22.56 136.41 23.84C137.41 25.89 139.88 27.15 142.87 27.15C146.89 27.15 150 24.44 150 20.89C149.99 17.47 147.43 15.13 143.69 15.13ZM142.83 24.02C140.78 24.02 139.27 22.69 139.27 20.89C139.27 19.07 140.76 17.74 142.83 17.74C144.86 17.74 146.35 19.07 146.35 20.89C146.35 22.69 144.84 24.02 142.83 24.02Z" fill="#3B175C" fill-opacity="1.000000" fill-rule="nonzero"/>
			<path id="Vector" d="M51.43 10.86L47.37 18.62L41.85 10.86L37.54 10.86L45.56 22.1L45.34 22.52C44.99 23.21 44.53 23.57 43.48 23.57L40.64 23.57L40.64 26.81L43.88 26.81C46.35 26.81 47.35 26.21 48.38 24.25L55.47 10.85L51.43 10.85L51.43 10.86Z" fill="#3B175C" fill-opacity="1.000000" fill-rule="nonzero"/>
			<path id="Vector" d="M90.57 14.57L89.95 22.18C89.86 23.37 89.44 23.8 88.44 23.8L87.56 23.8L87.56 26.9L89.7 26.9C92.12 26.9 93.19 25.85 93.37 23.66L93.84 17.75L98.27 17.75L98.27 26.79L101.91 26.79L101.91 14.57L90.57 14.57Z" fill="#3B175C" fill-opacity="1.000000" fill-rule="nonzero"/>
			<path id="Vector" d="M111.3 17.35C112.77 17.35 113.94 18.14 114.5 19.19L117.71 18.04C116.82 15.71 114.27 14.21 111.22 14.21C107.14 14.21 104.06 17 104.06 20.68C104.06 24.35 107.14 27.15 111.22 27.15C114.27 27.15 116.82 25.65 117.71 23.32L114.5 22.17C113.94 23.22 112.77 24.01 111.3 24.01C109.25 24.01 107.77 22.63 107.77 20.68C107.77 18.73 109.25 17.35 111.3 17.35Z" fill="#3B175C" fill-opacity="1.000000" fill-rule="nonzero"/>
			<path id="Vector" d="M129.09 14.55L123.5 22.32L123.5 14.55L119.89 14.55L119.89 26.79L123.88 26.79L129.43 19.08L129.43 26.79L133.04 26.79L133.04 14.55L129.09 14.55Z" fill="#3B175C" fill-opacity="1.000000" fill-rule="nonzero"/>
			<path id="Vector" d="M82.13 16.04L81.97 16.04C81.25 14.89 79.77 14.2 77.8 14.2C74.11 14.2 71.17 17.07 71.17 20.67C71.17 24.27 74.11 27.15 77.8 27.15C79.77 27.15 81.25 26.45 81.97 25.31L82.13 25.31L82.13 26.79L85.73 26.79L85.73 14.55L82.13 14.55L82.13 16.04ZM78.53 24.03C76.49 24.03 74.89 22.56 74.89 20.67C74.89 18.78 76.47 17.31 78.53 17.31C80.54 17.31 82.14 18.78 82.14 20.67C82.13 22.54 80.54 24.03 78.53 24.03Z" fill="#3B175C" fill-opacity="1.000000" fill-rule="nonzero"/>
			<path id="Vector" d="M27.39 19.19C27.39 14.76 24.85 10.86 21.03 8.64L21.08 11.65C23.35 13.5 24.79 16.2 24.79 19.19C24.79 20.56 24.48 21.86 23.94 23.05C22.3 21.57 21.13 19.82 20.4 17.76C19.52 15.27 19.31 12.54 19.28 9.2L19.29 7.77C18.5 7.45 17.67 7.19 16.83 7.01L16.83 9.2C16.92 20.72 19.02 25.46 22.14 29.03C25.34 26.74 27.39 23.18 27.39 19.19Z" fill="#3B175C" fill-opacity="1.000000" fill-rule="nonzero"/>
			<path id="Vector" d="M10.55 9.2L10.56 7.02C9.71 7.2 8.89 7.45 8.1 7.77L8.1 9.21C8.07 12.54 7.87 15.27 6.99 17.76C6.26 19.82 5.09 21.56 3.45 23.05C2.91 21.86 2.6 20.56 2.6 19.19C2.6 16.2 4.03 13.5 6.31 11.65L6.36 8.64C2.54 10.86 0 14.75 0 19.19L0 19.19C0 23.19 2.05 26.74 5.24 29.03C8.37 25.47 10.47 20.72 10.55 9.2Z" fill="#3B175C" fill-opacity="1.000000" fill-rule="nonzero"/>
			<path id="Vector" d="M14.92 4.79C14.48 4.76 14.07 4.75 13.7 4.75C13.32 4.75 12.91 4.76 12.47 4.79L12.47 7.38C12.47 18.72 12 23.64 10.22 31.3C12.48 31.84 14.89 31.84 17.15 31.3C15.38 23.7 14.92 18.78 14.92 7.38L14.92 4.79Z" fill="#3B175C" fill-opacity="1.000000" fill-rule="nonzero"/>
		</g>
	</g>
</svg>
