<svg width="50.000000" height="50.000000" viewBox="0 0 50 50" fill="none" xmlns="http://www.w3.org/2000/svg" xmlns:xlink="http://www.w3.org/1999/xlink">
	<desc>
			Created with Pixso.
	</desc>
	<defs>
		<clipPath id="clip29_164">
			<rect id="Frame" rx="-0.500000" width="49.000000" height="49.000000" transform="translate(0.500000 0.500000)" fill="white" fill-opacity="0"/>
		</clipPath>
	</defs>
	<rect id="Frame" rx="-0.500000" width="49.000000" height="49.000000" transform="translate(0.500000 0.500000)" fill="#FFFFFF" fill-opacity="0"/>
	<g clip-path="url(#clip29_164)">
		<path id="Vector" d="M26.56 25.78C26.76 25.78 26.96 25.69 27.11 25.55C27.26 25.4 27.34 25.2 27.34 25L27.34 22.62C27.69 22.57 28.02 22.42 28.29 22.18C28.55 21.94 28.75 21.63 28.84 21.29C28.93 20.94 28.92 20.58 28.81 20.24C28.7 19.9 28.49 19.6 28.21 19.38L22.02 14.42C21.09 13.68 19.93 13.28 18.75 13.28C17.56 13.28 16.4 13.68 15.47 14.42L9.28 19.38C9 19.6 8.79 19.9 8.68 20.24C8.57 20.58 8.56 20.94 8.65 21.29C8.74 21.63 8.94 21.94 9.2 22.18C9.47 22.42 9.8 22.57 10.15 22.62L10.15 25C10.15 25.2 10.23 25.4 10.38 25.55C10.53 25.69 10.73 25.78 10.93 25.78L11.71 25.78L11.71 30.46L10.93 30.46C10.73 30.46 10.53 30.55 10.38 30.69C10.23 30.84 10.15 31.04 10.15 31.25L10.15 34.37C10.15 34.58 10.23 34.78 10.38 34.92C10.53 35.07 10.73 35.15 10.93 35.15L26.56 35.15C26.76 35.15 26.96 35.07 27.11 34.92C27.26 34.78 27.34 34.58 27.34 34.37L27.34 31.25C27.34 31.04 27.26 30.84 27.11 30.69C26.96 30.55 26.76 30.46 26.56 30.46L25.78 30.46L25.78 25.78L26.56 25.78ZM11.71 24.21L11.71 22.65L25.78 22.65L25.78 24.21L11.71 24.21ZM16.4 30.46L16.4 25.78L21.09 25.78L21.09 30.46L16.4 30.46ZM10.25 20.6L16.45 15.64C17.11 15.14 17.92 14.86 18.75 14.86C19.57 14.86 20.38 15.14 21.04 15.64L27.24 20.6C27.28 20.64 27.31 20.68 27.33 20.74C27.34 20.79 27.34 20.85 27.32 20.91C27.3 20.96 27.27 21.01 27.22 21.04C27.18 21.07 27.12 21.09 27.06 21.09L10.42 21.09C10.37 21.09 10.31 21.07 10.27 21.04C10.22 21.01 10.18 20.96 10.17 20.91C10.15 20.85 10.14 20.79 10.16 20.74C10.18 20.68 10.21 20.64 10.25 20.6L10.25 20.6ZM13.28 25.78L14.84 25.78L14.84 30.46L13.28 30.46L13.28 25.78ZM25.78 33.59L11.71 33.59L11.71 32.03L25.78 32.03L25.78 33.59ZM24.21 30.46L22.65 30.46L22.65 25.78L24.21 25.78L24.21 30.46Z" fill="#FFFFFF" fill-opacity="1.000000" fill-rule="nonzero"/>
		<path id="Vector" d="M20.31 17.96C20.31 18.83 19.61 19.53 18.75 19.53C17.88 19.53 17.18 18.83 17.18 17.96C17.18 17.1 17.88 16.4 18.75 16.4C19.61 16.4 20.31 17.1 20.31 17.96Z" fill="#FFFFFF" fill-opacity="1.000000" fill-rule="evenodd"/>
		<path id="Vector" d="M32.03 36.71L5.46 36.71C5.26 36.71 5.06 36.8 4.91 36.94C4.76 37.09 4.68 37.29 4.68 37.5L4.68 40.62C4.68 40.83 4.76 41.03 4.91 41.17C5.06 41.32 5.26 41.4 5.46 41.4L32.03 41.4C32.23 41.4 32.43 41.32 32.58 41.17C32.73 41.03 32.81 40.83 32.81 40.62L32.81 37.5C32.81 37.29 32.73 37.09 32.58 36.94C32.43 36.8 32.23 36.71 32.03 36.71ZM31.25 39.84L6.25 39.84L6.25 38.28L31.25 38.28L31.25 39.84Z" fill="#FFFFFF" fill-opacity="1.000000" fill-rule="nonzero"/>
		<path id="Vector" d="M48.43 17.96C48.43 15.75 47.64 13.61 46.21 11.92C44.78 10.23 42.8 9.1 40.62 8.73L40.62 3.12C40.62 2.5 40.37 1.9 39.93 1.46C39.49 1.02 38.9 0.78 38.28 0.78L8.59 0.78C7.97 0.78 7.37 1.02 6.93 1.46C6.49 1.9 6.25 2.5 6.25 3.12L6.25 3.9L3.9 3.9C3.28 3.9 2.68 4.15 2.24 4.59C1.8 5.03 1.56 5.62 1.56 6.25L1.56 46.87C1.56 47.49 1.8 48.09 2.24 48.53C2.68 48.97 3.28 49.21 3.9 49.21L33.59 49.21C34.21 49.21 34.81 48.97 35.25 48.53C35.69 48.09 35.93 47.49 35.93 46.87L35.93 46.09L38.28 46.09C38.9 46.09 39.49 45.84 39.93 45.4C40.37 44.96 40.62 44.37 40.62 43.75L40.62 27.2C42.8 26.83 44.78 25.7 46.21 24.01C47.64 22.32 48.43 20.18 48.43 17.96ZM7.81 3.12C7.81 2.91 7.89 2.71 8.04 2.57C8.18 2.42 8.38 2.34 8.59 2.34L38.28 2.34C38.48 2.34 38.68 2.42 38.83 2.57C38.98 2.71 39.06 2.91 39.06 3.12L39.06 8.59C37.99 8.59 36.94 8.78 35.93 9.14L35.93 6.25C35.93 5.62 35.69 5.03 35.25 4.59C34.81 4.15 34.21 3.9 33.59 3.9L7.81 3.9L7.81 3.12ZM33.59 47.65L3.9 47.65C3.69 47.65 3.5 47.57 3.35 47.42C3.2 47.28 3.12 47.08 3.12 46.87L3.12 6.25C3.12 6.04 3.2 5.84 3.35 5.69C3.5 5.55 3.69 5.46 3.9 5.46L33.59 5.46C33.8 5.46 33.99 5.55 34.14 5.69C34.29 5.84 34.37 6.04 34.37 6.25L34.37 9.86C32.95 10.68 31.76 11.86 30.94 13.28C30.12 14.71 29.68 16.32 29.68 17.96C29.68 19.61 30.12 21.22 30.94 22.65C31.76 24.07 32.95 25.25 34.37 26.07L34.37 46.87C34.37 47.08 34.29 47.28 34.14 47.42C33.99 47.57 33.8 47.65 33.59 47.65ZM39.06 43.75C39.06 43.95 38.98 44.15 38.83 44.3C38.68 44.44 38.48 44.53 38.28 44.53L35.93 44.53L35.93 26.79C36.94 27.15 37.99 27.34 39.06 27.34L39.06 43.75ZM39.06 25.78C37.51 25.78 36 25.32 34.72 24.46C33.43 23.6 32.43 22.38 31.84 20.95C31.25 19.53 31.09 17.95 31.4 16.44C31.7 14.92 32.44 13.53 33.53 12.44C34.63 11.35 36.02 10.6 37.53 10.3C39.05 10 40.62 10.15 42.05 10.75C43.47 11.34 44.69 12.34 45.55 13.62C46.41 14.91 46.87 16.42 46.87 17.96C46.87 20.04 46.04 22.02 44.58 23.49C43.11 24.95 41.13 25.77 39.06 25.78Z" fill="#FFFFFF" fill-opacity="1.000000" fill-rule="nonzero"/>
		<path id="Vector" d="M45.08 14.29L43.52 12.72C43.37 12.58 43.17 12.5 42.96 12.5C42.76 12.5 42.56 12.58 42.41 12.72L36.71 18.42L35.7 17.41C35.56 17.27 35.36 17.18 35.15 17.18C34.94 17.18 34.75 17.27 34.6 17.41L33.04 18.97C32.89 19.12 32.81 19.32 32.81 19.53C32.81 19.73 32.89 19.93 33.04 20.08L36.16 23.2C36.31 23.35 36.51 23.43 36.71 23.43C36.92 23.43 37.12 23.35 37.27 23.2L45.08 15.39C45.23 15.24 45.31 15.05 45.31 14.84C45.31 14.63 45.23 14.43 45.08 14.29ZM36.71 21.55L34.69 19.53L35.15 19.07L36.16 20.08C36.31 20.23 36.51 20.31 36.71 20.31C36.92 20.31 37.12 20.23 37.27 20.08L42.96 14.38L43.42 14.84L36.71 21.55ZM6.25 10.15L31.25 10.15L31.25 11.71L6.25 11.71L6.25 10.15ZM9.37 7.03L28.12 7.03L28.12 8.59L9.37 8.59L9.37 7.03Z" fill="#FFFFFF" fill-opacity="1.000000" fill-rule="nonzero"/>
	</g>
</svg>
