<svg width="50.000000" height="50.000000" viewBox="0 0 50 50" fill="none" xmlns="http://www.w3.org/2000/svg" xmlns:xlink="http://www.w3.org/1999/xlink">
	<desc>
			Created with Pixso.
	</desc>
	<defs/>
	<path id="Vector" d="M10.71 34.28L4.72 34.28C4.4 34.28 4.14 34.54 4.14 34.86C4.14 35.18 4.4 35.44 4.72 35.44L10.71 35.44C11.03 35.44 11.29 35.18 11.29 34.86C11.29 34.54 11.03 34.28 10.71 34.28ZM10.71 30.29L4.72 30.29C4.4 30.29 4.14 30.55 4.14 30.87C4.14 31.19 4.4 31.45 4.72 31.45L10.71 31.45C11.03 31.45 11.29 31.19 11.29 30.87C11.29 30.56 11.03 30.29 10.71 30.29ZM14.38 26.3L4.72 26.3C4.4 26.3 4.14 26.56 4.14 26.88C4.14 27.2 4.4 27.46 4.72 27.46L14.38 27.46C14.7 27.46 14.95 27.2 14.95 26.88C14.95 26.56 14.7 26.3 14.38 26.3ZM14.38 22.32L4.72 22.32C4.4 22.32 4.14 22.58 4.14 22.9C4.14 23.22 4.4 23.47 4.72 23.47L14.38 23.47C14.7 23.47 14.95 23.22 14.95 22.9C14.95 22.58 14.7 22.32 14.38 22.32ZM14.38 18.32L4.72 18.32C4.4 18.32 4.14 18.58 4.14 18.9C4.14 19.22 4.4 19.48 4.72 19.48L14.38 19.48C14.7 19.48 14.95 19.22 14.95 18.9C14.95 18.58 14.7 18.32 14.38 18.32ZM12.09 10.18C12.77 9.59 13.21 8.73 13.21 7.76C13.21 6.92 12.88 6.11 12.29 5.52C11.7 4.92 10.89 4.59 10.05 4.59C9.22 4.59 8.41 4.92 7.82 5.52C7.23 6.11 6.9 6.92 6.9 7.76C6.9 8.73 7.34 9.59 8.03 10.18C6.05 10.99 4.64 12.95 4.64 15.23C4.64 15.55 4.9 15.81 5.22 15.81C5.54 15.81 5.79 15.55 5.79 15.23C5.79 12.87 7.7 10.95 10.05 10.95C12.4 10.95 14.31 12.87 14.31 15.23C14.31 15.55 14.56 15.81 14.88 15.81C15.2 15.81 15.46 15.55 15.46 15.23C15.47 12.95 14.07 10.99 12.09 10.18ZM10.06 5.76C10.59 5.76 11.1 5.97 11.47 6.34C11.84 6.72 12.05 7.23 12.05 7.76C12.05 8.3 11.84 8.81 11.47 9.18C11.1 9.56 10.59 9.77 10.06 9.77C8.95 9.77 8.05 8.87 8.05 7.76C8.05 6.65 8.95 5.76 10.06 5.76ZM32.98 48.84L16.01 48.84C15.69 48.84 15.43 49.1 15.43 49.42C15.43 49.74 15.69 50 16.01 50L32.99 50C33.14 49.99 33.29 49.93 33.39 49.82C33.5 49.71 33.56 49.57 33.56 49.41C33.56 49.26 33.5 49.11 33.39 49.01C33.28 48.9 33.13 48.84 32.98 48.84Z" fill="#FFFFFF" fill-opacity="1.000000" fill-rule="nonzero"/>
	<path id="Vector" d="M48.42 42.62L47.18 42.62C47.43 42.23 47.58 41.77 47.58 41.27L47.58 23.36C47.58 21.97 46.46 20.84 45.08 20.84L37.93 20.84L37.93 19.16C37.93 18.36 37.29 17.71 36.49 17.71L30.91 17.71L30.91 9.77C30.91 9.61 30.84 9.46 30.73 9.35L21.6 0.17C21.5 0.06 21.35 0 21.19 0L2.5 0C1.29 0 0.3 0.99 0.3 2.21L0.3 37.63C0.3 38.85 1.28 39.85 2.5 39.85L16.23 39.85L16.23 41.28C16.23 41.78 16.38 42.24 16.62 42.63L9.83 42.63C8.66 42.63 7.71 43.59 7.71 44.77C7.71 45.95 8.66 46.9 9.83 46.9L37.61 46.9C37.69 46.9 37.76 46.88 37.82 46.85L37.83 46.85C37.88 46.83 37.93 46.8 37.97 46.76C37.98 46.74 38 46.74 38.02 46.73C38.05 46.7 38.06 46.66 38.09 46.63C38.1 46.59 38.12 46.57 38.14 46.54C38.17 46.47 38.19 46.39 38.19 46.31C38.19 46.24 38.17 46.16 38.14 46.09C38.11 46.02 38.07 45.95 38.02 45.9C37.97 45.86 37.92 45.82 37.87 45.8C37.83 45.77 37.79 45.77 37.74 45.76C37.7 45.75 37.65 45.73 37.6 45.73L9.83 45.73C9.3 45.73 8.87 45.29 8.87 44.76C8.87 44.23 9.3 43.79 9.83 43.79L48.42 43.79C48.74 43.79 49 43.53 49 43.21C49 42.89 48.74 42.62 48.42 42.62ZM46.42 23.36L46.42 27.66C43.85 29.72 39.68 31.14 35.02 31.59L35.02 29.77C35.02 29.45 34.77 29.19 34.45 29.19L29.37 29.19C29.05 29.19 28.79 29.45 28.79 29.77L28.79 31.59C24.11 31.15 20 29.76 17.39 27.66L17.39 23.36C17.39 22.61 18 22.01 18.74 22.01L45.09 22.01C45.82 22.01 46.42 22.61 46.42 23.36ZM33.87 30.35L33.87 34.29L29.94 34.29L29.94 30.35L33.87 30.35ZM36.77 19.16L36.77 20.84L27.04 20.84L27.04 19.16C27.04 19 27.16 18.88 27.32 18.88L36.49 18.88C36.65 18.88 36.77 19 36.77 19.16ZM21.78 1.99L28.93 9.19L22.82 9.19C22.25 9.19 21.78 8.72 21.78 8.13L21.78 1.99ZM2.5 38.68C1.93 38.68 1.46 38.2 1.46 37.62L1.46 2.21C1.46 1.64 1.92 1.16 2.5 1.16L20.62 1.16L20.62 8.12C20.62 9.34 21.6 10.34 22.82 10.34L29.75 10.34L29.75 17.71L27.32 17.71C26.52 17.71 25.88 18.36 25.88 19.16L25.88 20.84L18.73 20.84C17.35 20.84 16.23 21.97 16.23 23.36L16.23 38.68L2.5 38.68ZM17.39 41.28L17.39 29.1C20.18 31.06 24.24 32.35 28.78 32.75L28.78 34.88C28.78 35.2 29.04 35.46 29.36 35.46L34.44 35.46C34.76 35.46 35.02 35.2 35.02 34.88L35.02 32.75C39.56 32.35 43.61 31.06 46.42 29.1L46.42 41.28C46.42 42.02 45.82 42.62 45.08 42.63L18.72 42.63C17.98 42.62 17.39 42.02 17.39 41.28Z" fill="#FFFFFF" fill-opacity="1.000000" fill-rule="nonzero"/>
	<path id="Vector" d="M5.2 42.62L0.57 42.62C0.25 42.62 0 42.88 0 43.2C0 43.52 0.25 43.78 0.57 43.78L5.2 43.78C5.52 43.78 5.78 43.52 5.78 43.2C5.78 42.89 5.52 42.62 5.2 42.62ZM41.11 45.9C41.06 45.84 40.99 45.8 40.92 45.77C40.82 45.73 40.7 45.72 40.59 45.74C40.48 45.76 40.37 45.82 40.29 45.9C40.24 45.95 40.19 46.02 40.16 46.09C40.14 46.17 40.12 46.24 40.12 46.31C40.12 46.39 40.14 46.47 40.16 46.54C40.19 46.61 40.24 46.67 40.29 46.73C40.35 46.78 40.41 46.83 40.48 46.85C40.55 46.88 40.63 46.9 40.7 46.9C40.86 46.9 41 46.84 41.12 46.73C41.22 46.62 41.28 46.47 41.29 46.31C41.29 46.24 41.27 46.17 41.24 46.09C41.2 46.02 41.16 45.95 41.11 45.9Z" fill="#FFFFFF" fill-opacity="1.000000" fill-rule="nonzero"/>
</svg>
