<svg width="50.000000" height="50.000000" viewBox="0 0 50 50" fill="none" xmlns="http://www.w3.org/2000/svg" xmlns:xlink="http://www.w3.org/1999/xlink">
	<desc>
			Created with Pixso.
	</desc>
	<defs>
		<clipPath id="clip29_171">
			<rect id="Frame" rx="-0.500000" width="49.000000" height="49.000000" transform="translate(0.500000 0.500000)" fill="white" fill-opacity="0"/>
		</clipPath>
	</defs>
	<rect id="Frame" rx="-0.500000" width="49.000000" height="49.000000" transform="translate(0.500000 0.500000)" fill="#FFFFFF" fill-opacity="0"/>
	<g clip-path="url(#clip29_171)">
		<path id="Vector" d="M24.35 19.17L31.85 10.83C32.3 10.34 32.53 9.69 32.49 9.03C32.46 8.37 32.16 7.75 31.67 7.3C31.17 6.86 30.53 6.63 29.86 6.66C29.2 6.7 28.58 7 28.14 7.49L22.4 13.86L21.76 13.23C21.29 12.77 20.65 12.52 20 12.52C19.34 12.52 18.7 12.77 18.23 13.23C18 13.46 17.81 13.74 17.69 14.04C17.56 14.34 17.5 14.67 17.5 15C17.5 15.32 17.56 15.65 17.69 15.95C17.81 16.26 18 16.53 18.23 16.76L20.73 19.26C20.97 19.5 21.25 19.69 21.57 19.82C21.88 19.94 22.22 20 22.56 19.99C22.9 19.99 23.23 19.91 23.54 19.77C23.85 19.62 24.13 19.42 24.35 19.17ZM21.91 18.08L19.41 15.58C19.33 15.51 19.26 15.42 19.22 15.31C19.18 15.21 19.15 15.1 19.15 14.99C19.15 14.88 19.17 14.77 19.21 14.67C19.26 14.57 19.32 14.47 19.4 14.4C19.47 14.32 19.57 14.26 19.67 14.21C19.77 14.17 19.88 14.15 19.99 14.15C20.1 14.15 20.21 14.18 20.31 14.22C20.42 14.26 20.51 14.33 20.58 14.41L21.84 15.66C21.92 15.74 22.02 15.81 22.12 15.85C22.23 15.89 22.34 15.91 22.45 15.91C22.57 15.9 22.68 15.88 22.78 15.83C22.88 15.78 22.98 15.72 23.05 15.63L29.38 8.6C29.45 8.52 29.54 8.46 29.64 8.41C29.73 8.36 29.84 8.34 29.95 8.33C30.06 8.32 30.17 8.34 30.27 8.38C30.38 8.41 30.47 8.47 30.55 8.54C30.63 8.62 30.7 8.7 30.75 8.8C30.79 8.9 30.82 9.01 30.83 9.12C30.83 9.23 30.82 9.34 30.78 9.44C30.74 9.54 30.69 9.64 30.62 9.72L23.12 18.05C23.04 18.14 22.95 18.2 22.84 18.25C22.74 18.3 22.63 18.33 22.52 18.33C22.4 18.33 22.29 18.31 22.19 18.27C22.08 18.23 21.99 18.16 21.91 18.08Z" fill="#FFFFFF" fill-opacity="1.000000" fill-rule="nonzero"/>
		<path id="Vector" d="M47.5 19.16L40.54 19.16C39.53 19.16 38.65 19.84 38.38 20.81L36.01 20.81C39.95 15.03 38.76 7.19 33.27 2.84C27.79 -1.5 19.88 -0.86 15.16 4.31C10.44 9.47 10.51 17.4 15.33 22.48L11.61 22.47C11.48 22 11.2 21.58 10.81 21.29C10.42 20.99 9.94 20.83 9.45 20.83L2.5 20.83C1.83 20.83 1.2 21.09 0.73 21.56C0.26 22.03 0 22.67 0 23.33L0 38.33C0 38.99 0.26 39.63 0.73 40.1C1.2 40.56 1.83 40.83 2.5 40.83L6.63 40.83C7.12 40.83 7.6 40.66 7.99 40.36C8.38 40.06 8.65 39.64 8.78 39.16L10.22 39.16L9.27 41.66C9.14 42.02 9.08 42.4 9.09 42.78C9.1 43.16 9.19 43.54 9.35 43.89C9.5 44.24 9.73 44.55 10.01 44.81C10.29 45.07 10.62 45.28 10.97 45.41C11.34 45.55 11.72 45.61 12.11 45.59C12.5 45.57 12.88 45.48 13.23 45.32C13.23 45.33 13.24 45.34 13.24 45.35C13.4 45.7 13.63 46.01 13.91 46.28C14.19 46.54 14.52 46.74 14.88 46.88C15.25 47.01 15.63 47.07 16.02 47.06C16.4 47.04 16.78 46.95 17.13 46.78C17.28 47.14 17.51 47.46 17.79 47.73C18.07 48 18.41 48.2 18.77 48.34C19.13 48.48 19.52 48.54 19.91 48.52C20.3 48.51 20.68 48.42 21.03 48.25C21.03 48.26 21.03 48.27 21.04 48.28C21.27 48.81 21.66 49.25 22.15 49.56C22.64 49.86 23.21 50.01 23.79 50C24.37 49.98 24.92 49.79 25.39 49.45C25.86 49.12 26.22 48.65 26.43 48.11L26.48 47.98L29.31 49.36C29.65 49.53 30.03 49.62 30.41 49.65C30.79 49.67 31.18 49.61 31.54 49.48C31.9 49.36 32.23 49.16 32.51 48.9C32.8 48.64 33.03 48.33 33.19 47.99C33.53 47.28 33.56 46.47 33.29 45.73L33.32 45.72C33.69 45.59 34.02 45.39 34.31 45.13C34.59 44.88 34.82 44.56 34.99 44.21C35.15 43.87 35.24 43.49 35.26 43.1C35.28 42.72 35.22 42.33 35.09 41.97L35.11 41.96C35.48 41.83 35.81 41.63 36.1 41.37C36.38 41.12 36.61 40.8 36.78 40.45C36.94 40.11 37.04 39.73 37.05 39.34C37.07 38.96 37.01 38.57 36.88 38.21C37.3 38.06 37.68 37.82 38 37.5L41.21 37.5C41.34 37.97 41.61 38.39 42 38.7C42.39 39 42.87 39.16 43.36 39.16L47.5 39.16C48.16 39.16 48.79 38.9 49.26 38.43C49.73 37.96 50 37.32 50 36.66L50 21.66C50 21 49.73 20.36 49.26 19.89C48.79 19.42 48.16 19.16 47.5 19.16ZM13.33 13.33C13.33 11.45 13.78 9.6 14.64 7.94C15.51 6.27 16.76 4.84 18.29 3.76C19.83 2.68 21.61 1.99 23.47 1.75C25.33 1.5 27.22 1.71 28.98 2.35C30.75 2.99 32.33 4.05 33.6 5.43C34.86 6.81 35.78 8.48 36.27 10.3C36.75 12.11 36.79 14.01 36.38 15.84C35.98 17.67 35.13 19.38 33.93 20.82L26.12 20.83C25.65 20.83 25.18 20.93 24.75 21.12C24.32 21.31 23.94 21.59 23.62 21.93L23.11 22.5L17.79 22.49C16.39 21.4 15.27 20.01 14.5 18.43C13.72 16.84 13.32 15.09 13.33 13.33ZM6.63 39.16L2.5 39.16C2.27 39.16 2.06 39.07 1.91 38.92C1.75 38.76 1.66 38.55 1.66 38.33L1.66 23.33C1.66 23.11 1.75 22.9 1.91 22.74C2.06 22.58 2.27 22.5 2.5 22.5L9.45 22.5C9.53 22.5 9.62 22.51 9.69 22.55C9.77 22.58 9.83 22.63 9.89 22.7C9.94 22.76 9.98 22.84 10 22.92C10.02 23 10.02 23.08 10.01 23.16L7.18 38.7C7.16 38.83 7.09 38.95 6.99 39.03C6.89 39.12 6.76 39.16 6.63 39.16ZM11.56 43.85C11.4 43.79 11.26 43.71 11.14 43.6C11.02 43.48 10.93 43.35 10.86 43.2C10.79 43.05 10.76 42.89 10.75 42.73C10.75 42.56 10.77 42.4 10.83 42.25L12.01 39.13C12.13 38.83 12.37 38.59 12.66 38.46C12.96 38.34 13.29 38.33 13.59 38.44C13.89 38.55 14.14 38.77 14.28 39.06C14.43 39.35 14.45 39.68 14.35 39.99L13.16 43.13C13.04 43.43 12.81 43.68 12.51 43.82C12.21 43.96 11.87 43.97 11.56 43.85ZM15.46 45.32C15.3 45.26 15.16 45.17 15.04 45.06C14.92 44.95 14.83 44.81 14.76 44.66C14.69 44.52 14.65 44.35 14.65 44.19C14.64 44.03 14.67 43.86 14.73 43.71C14.83 43.45 16.23 39.74 16.2 39.82C16.32 39.52 16.56 39.29 16.86 39.16C17.15 39.03 17.49 39.02 17.79 39.14C18.09 39.25 18.34 39.48 18.48 39.77C18.62 40.06 18.64 40.39 18.54 40.7L17.07 44.59C16.95 44.9 16.71 45.15 16.41 45.28C16.11 45.42 15.77 45.43 15.46 45.32ZM19.36 46.78C19.2 46.72 19.06 46.64 18.94 46.53C18.82 46.41 18.73 46.28 18.66 46.13C18.59 45.98 18.55 45.82 18.55 45.66C18.54 45.49 18.57 45.33 18.63 45.18L20.1 41.29C20.22 40.99 20.46 40.75 20.75 40.62C21.05 40.49 21.39 40.49 21.69 40.6C21.99 40.71 22.24 40.94 22.38 41.23C22.52 41.52 22.54 41.86 22.44 42.17L20.97 46.06C20.91 46.21 20.82 46.35 20.71 46.47C20.6 46.59 20.46 46.68 20.31 46.75C20.16 46.82 20 46.86 19.84 46.86C19.67 46.87 19.51 46.84 19.36 46.78ZM23.25 48.25C23.1 48.19 22.96 48.1 22.84 47.99C22.72 47.88 22.62 47.74 22.56 47.59C22.49 47.45 22.45 47.28 22.45 47.12C22.44 46.96 22.47 46.79 22.53 46.64L23.41 44.31C23.54 44.01 23.77 43.78 24.07 43.66C24.36 43.53 24.69 43.53 24.99 43.64C25.29 43.75 25.54 43.98 25.68 44.26C25.82 44.55 25.84 44.88 25.75 45.19L24.86 47.52C24.75 47.83 24.51 48.08 24.21 48.22C23.91 48.35 23.56 48.36 23.25 48.25ZM37.06 36C36.91 36.29 36.66 36.51 36.35 36.62C36.04 36.73 35.7 36.72 35.4 36.58L33.15 35.5C32.95 35.42 32.74 35.42 32.54 35.5C32.34 35.58 32.18 35.73 32.09 35.92C32 36.11 31.98 36.33 32.05 36.53C32.11 36.73 32.25 36.9 32.43 37L34.68 38.08L34.69 38.08C34.98 38.23 35.2 38.48 35.3 38.79C35.41 39.1 35.39 39.44 35.25 39.73C35.11 40.02 34.86 40.25 34.56 40.37C34.25 40.48 33.92 40.47 33.62 40.34L31.2 39.18C31 39.1 30.78 39.1 30.59 39.17C30.39 39.25 30.23 39.4 30.13 39.59C30.04 39.78 30.03 40 30.09 40.21C30.16 40.41 30.29 40.58 30.48 40.68L32.9 41.84C33.19 41.99 33.4 42.24 33.51 42.55C33.61 42.86 33.59 43.19 33.45 43.49C33.31 43.78 33.07 44.01 32.76 44.12C32.46 44.23 32.12 44.23 31.83 44.1L31.81 44.1L29.53 43C29.33 42.92 29.11 42.91 28.91 42.99C28.71 43.06 28.55 43.21 28.46 43.41C28.36 43.6 28.35 43.82 28.41 44.02C28.48 44.23 28.62 44.4 28.81 44.5L31.1 45.6C31.4 45.75 31.63 46 31.74 46.32C31.85 46.63 31.83 46.97 31.68 47.27C31.61 47.42 31.52 47.55 31.4 47.66C31.28 47.77 31.13 47.85 30.98 47.91C30.83 47.96 30.67 47.98 30.5 47.97C30.34 47.97 30.18 47.93 30.04 47.85L27.07 46.41L27.31 45.78C27.49 45.3 27.54 44.79 27.46 44.29C27.39 43.79 27.18 43.32 26.86 42.92C26.54 42.53 26.13 42.23 25.65 42.04C25.18 41.86 24.67 41.8 24.17 41.88C24.2 41.38 24.09 40.88 23.87 40.43C23.65 39.98 23.31 39.59 22.89 39.31C22.48 39.03 22 38.86 21.49 38.82C20.99 38.79 20.49 38.88 20.04 39.09C20.04 39.08 20.03 39.07 20.03 39.06C19.85 38.66 19.58 38.31 19.24 38.03C18.9 37.74 18.51 37.54 18.08 37.44C17.65 37.33 17.21 37.32 16.78 37.41C16.35 37.5 15.95 37.69 15.6 37.96C15.21 37.38 14.64 36.96 13.97 36.77C13.31 36.58 12.6 36.64 11.97 36.92C11.66 37.06 11.38 37.26 11.14 37.49L9.1 37.49L11.52 24.15L21.6 24.16L17.64 28.52C17.07 29.15 16.76 29.97 16.78 30.82C16.8 31.67 17.14 32.48 17.74 33.09C18.34 33.69 19.14 34.04 19.99 34.07C20.84 34.09 21.67 33.79 22.31 33.23L26.66 29.29L36.47 34.32C36.77 34.47 37 34.72 37.11 35.04C37.22 35.35 37.2 35.7 37.06 36ZM27.98 28.1L28.89 27.28C29.05 27.13 29.15 26.93 29.16 26.7C29.17 26.48 29.09 26.27 28.95 26.1C28.8 25.94 28.59 25.84 28.37 25.83C28.15 25.82 27.93 25.9 27.77 26.04L21.19 31.98C20.88 32.26 20.46 32.41 20.04 32.4C19.62 32.39 19.21 32.21 18.92 31.91C18.62 31.61 18.45 31.21 18.44 30.78C18.43 30.36 18.59 29.95 18.87 29.64L24.86 23.05C25.02 22.88 25.21 22.74 25.43 22.64C25.65 22.54 25.88 22.5 26.12 22.5C34.54 22.49 35.45 22.48 38.47 22.48L40.89 35.83L38.81 35.83C38.89 35.22 38.78 34.61 38.5 34.07C38.21 33.53 37.76 33.1 37.21 32.83L27.98 28.1ZM48.33 36.66C48.33 36.88 48.24 37.09 48.08 37.25C47.93 37.41 47.72 37.5 47.5 37.5L43.36 37.5C43.23 37.5 43.1 37.45 43 37.36C42.9 37.28 42.83 37.16 42.81 37.03L39.98 21.5C39.97 21.41 39.97 21.33 39.99 21.25C40.01 21.17 40.05 21.1 40.1 21.03C40.16 20.97 40.22 20.92 40.3 20.88C40.37 20.85 40.46 20.83 40.54 20.83L47.5 20.83C47.72 20.83 47.93 20.92 48.08 21.07C48.24 21.23 48.33 21.44 48.33 21.66L48.33 36.66Z" fill="#FFFFFF" fill-opacity="1.000000" fill-rule="nonzero"/>
	</g>
</svg>
