<svg width="30.000000" height="30.000000" viewBox="0 0 30 30" fill="none" xmlns="http://www.w3.org/2000/svg" xmlns:xlink="http://www.w3.org/1999/xlink">
	<desc>
			Created with Pixso.
	</desc>
	<defs>
		<clipPath id="clip39_1765">
			<rect id="Frame" rx="-0.500000" width="29.000000" height="29.000000" transform="translate(0.500000 0.500000)" fill="white" fill-opacity="0"/>
		</clipPath>
	</defs>
	<rect id="Frame" rx="-0.500000" width="29.000000" height="29.000000" transform="translate(0.500000 0.500000)" fill="#FFFFFF" fill-opacity="0"/>
	<g clip-path="url(#clip39_1765)">
		<path id="Vector" d="M27.13 25.36L20.38 18.62C21.75 16.87 22.5 14.71 22.5 12.5C22.5 6.98 18.01 2.5 12.5 2.5C6.98 2.5 2.5 6.98 2.5 12.5C2.5 18.01 6.98 22.5 12.5 22.5C14.71 22.5 16.87 21.75 18.62 20.38L25.36 27.13C25.6 27.36 25.91 27.5 26.25 27.5C26.58 27.5 26.9 27.36 27.13 27.13C27.36 26.89 27.5 26.58 27.5 26.25C27.5 25.91 27.36 25.6 27.13 25.36ZM5 12.5C5 8.36 8.36 5 12.5 5C16.63 5 20 8.36 20 12.5C20 16.63 16.63 20 12.5 20C8.36 20 5 16.63 5 12.5Z" fill="#9E9E9E" fill-opacity="1.000000" fill-rule="nonzero"/>
	</g>
</svg>
