<svg width="36.000000" height="36.000000" viewBox="0 0 36 36" fill="none" xmlns="http://www.w3.org/2000/svg" xmlns:xlink="http://www.w3.org/1999/xlink">
	<desc>
			Created with Pixso.
	</desc>
	<defs>
		<clipPath id="clip29_285">
			<rect id="Frame" rx="-0.500000" width="35.000000" height="35.000000" transform="translate(0.500000 0.500000)" fill="white" fill-opacity="0"/>
		</clipPath>
	</defs>
	<rect id="Frame" rx="-0.500000" width="35.000000" height="35.000000" transform="translate(0.500000 0.500000)" fill="#FFFFFF" fill-opacity="0"/>
	<g clip-path="url(#clip29_285)">
		<path id="Vector" d="M3.37 5.62L4.5 5.62L4.5 6.75L3.37 6.75L3.37 5.62ZM5.62 5.62L6.75 5.62L6.75 6.75L5.62 6.75L5.62 5.62ZM7.87 5.62L9 5.62L9 6.75L7.87 6.75L7.87 5.62Z" fill="#2463CA" fill-opacity="1.000000" fill-rule="nonzero"/>
		<path id="Vector" d="M3.37 30.37L13.29 30.37L12.98 33.75L11.25 33.75L11.25 34.87L23.62 34.87L23.62 33.75L21.88 33.75L21.58 30.37L31.5 30.37C32.09 30.37 32.66 30.13 33.09 29.71C33.51 29.29 33.74 28.72 33.75 28.12L33.75 15.75L32.62 15.75L32.62 24.75L2.25 24.75L2.25 9L16.87 9L16.87 7.87L2.25 7.87L2.25 5.62C2.25 5.32 2.36 5.04 2.57 4.82C2.79 4.61 3.07 4.5 3.37 4.5L20.81 4.5L20.81 3.37L3.37 3.37C2.77 3.37 2.2 3.61 1.78 4.03C1.36 4.45 1.12 5.02 1.12 5.62L1.12 28.12C1.12 28.72 1.36 29.29 1.78 29.71C2.2 30.13 2.77 30.37 3.37 30.37ZM20.75 33.75L14.11 33.75L14.42 30.37L20.45 30.37L20.75 33.75ZM32.62 25.87L32.62 28.12C32.62 28.42 32.5 28.7 32.29 28.92C32.08 29.13 31.79 29.24 31.5 29.25L3.37 29.25C3.07 29.24 2.79 29.13 2.57 28.92C2.36 28.7 2.25 28.42 2.25 28.12L2.25 25.87L32.62 25.87Z" fill="#2463CA" fill-opacity="1.000000" fill-rule="nonzero"/>
		<path id="Vector" d="M16.87 27L18 27L18 28.12L16.87 28.12L16.87 27ZM26.43 13.5C27.1 13.5 27.75 13.3 28.31 12.93C28.86 12.56 29.3 12.03 29.55 11.41C29.81 10.79 29.87 10.12 29.74 9.46C29.61 8.81 29.29 8.21 28.82 7.73C28.35 7.26 27.75 6.94 27.09 6.81C26.44 6.68 25.76 6.75 25.14 7C24.52 7.26 24 7.69 23.63 8.25C23.26 8.8 23.06 9.45 23.06 10.12C23.06 11.01 23.41 11.87 24.05 12.51C24.68 13.14 25.54 13.49 26.43 13.5ZM26.43 7.87C26.88 7.87 27.31 8 27.68 8.25C28.05 8.5 28.34 8.85 28.51 9.26C28.68 9.67 28.73 10.12 28.64 10.56C28.55 11 28.34 11.4 28.02 11.71C27.71 12.03 27.31 12.24 26.87 12.33C26.44 12.41 25.98 12.37 25.57 12.2C25.16 12.03 24.81 11.74 24.56 11.37C24.31 11 24.18 10.57 24.18 10.12C24.18 9.52 24.42 8.95 24.84 8.53C25.26 8.11 25.84 7.87 26.43 7.87Z" fill="#2463CA" fill-opacity="1.000000" fill-rule="nonzero"/>
		<path id="Vector" d="M19.34 5.54C19.23 5.53 19.11 5.56 19.01 5.63C18.91 5.69 18.84 5.78 18.79 5.89L18.04 7.71C17.99 7.82 17.98 7.94 18.01 8.05C18.03 8.16 18.09 8.27 18.18 8.34L19.56 9.59L19.56 10.65L18.18 11.9C18.09 11.97 18.03 12.08 18.01 12.19C17.98 12.3 17.99 12.42 18.04 12.53L18.79 14.35C18.84 14.46 18.91 14.55 19.01 14.61C19.11 14.68 19.23 14.71 19.34 14.7L21.2 14.6L21.95 15.35L21.85 17.21C21.85 17.33 21.88 17.44 21.94 17.54C22 17.64 22.09 17.71 22.2 17.76L24.02 18.51C24.13 18.56 24.25 18.57 24.36 18.54C24.48 18.52 24.58 18.46 24.66 18.37L25.9 16.99L26.96 16.99L28.21 18.37C28.29 18.46 28.39 18.52 28.5 18.54C28.62 18.57 28.73 18.56 28.84 18.51L30.67 17.76C30.77 17.71 30.86 17.64 30.93 17.54C30.99 17.44 31.02 17.33 31.01 17.21L30.92 15.35L31.66 14.6L33.52 14.7C33.64 14.71 33.75 14.68 33.85 14.61C33.95 14.55 34.03 14.46 34.07 14.35L34.83 12.53C34.87 12.42 34.88 12.3 34.86 12.19C34.83 12.08 34.77 11.97 34.68 11.9L33.3 10.65L33.3 9.59L34.68 8.34C34.77 8.27 34.83 8.16 34.86 8.05C34.88 7.94 34.87 7.82 34.83 7.71L34.07 5.89C34.03 5.78 33.95 5.69 33.85 5.63C33.75 5.56 33.64 5.53 33.52 5.54L31.66 5.64L30.92 4.89L31.01 3.03C31.02 2.91 30.99 2.8 30.93 2.7C30.86 2.6 30.77 2.53 30.67 2.48L28.84 1.73C28.73 1.68 28.62 1.67 28.5 1.7C28.39 1.72 28.29 1.78 28.21 1.87L26.96 3.25L25.9 3.25L24.66 1.87C24.58 1.78 24.48 1.72 24.36 1.7C24.25 1.67 24.13 1.68 24.02 1.73L22.2 2.48C22.09 2.53 22 2.6 21.94 2.7C21.88 2.8 21.85 2.91 21.85 3.03L21.95 4.89L21.2 5.64L19.34 5.54ZM21.82 6.61L22.92 5.51C22.98 5.45 23.02 5.39 23.05 5.31C23.08 5.24 23.09 5.16 23.08 5.08L23 3.37L24.09 2.92L25.24 4.19C25.29 4.25 25.35 4.29 25.43 4.33C25.5 4.36 25.58 4.37 25.65 4.37L27.21 4.37C27.29 4.37 27.37 4.36 27.44 4.33C27.51 4.29 27.58 4.25 27.63 4.19L28.78 2.92L29.87 3.37L29.78 5.08C29.78 5.16 29.79 5.24 29.82 5.31C29.85 5.38 29.89 5.45 29.94 5.51L31.05 6.61C31.1 6.66 31.17 6.71 31.24 6.73C31.31 6.76 31.39 6.78 31.47 6.77L33.18 6.68L33.64 7.78L32.36 8.92C32.3 8.98 32.26 9.04 32.23 9.11C32.19 9.19 32.18 9.26 32.18 9.34L32.18 10.9C32.18 10.98 32.19 11.05 32.23 11.13C32.26 11.2 32.31 11.26 32.36 11.32L33.64 12.46L33.18 13.56L31.47 13.47C31.39 13.46 31.31 13.48 31.24 13.5C31.17 13.53 31.1 13.58 31.05 13.63L29.94 14.73C29.89 14.79 29.85 14.85 29.82 14.93C29.79 15 29.78 15.08 29.78 15.16L29.87 16.87L28.78 17.32L27.63 16.05C27.58 15.99 27.51 15.95 27.44 15.91C27.37 15.88 27.29 15.87 27.21 15.87L25.65 15.87C25.58 15.87 25.5 15.88 25.43 15.91C25.35 15.95 25.29 15.99 25.24 16.05L24.09 17.32L23 16.87L23.08 15.16C23.09 15.08 23.08 15 23.05 14.93C23.02 14.86 22.98 14.79 22.92 14.73L21.82 13.63C21.76 13.58 21.7 13.53 21.62 13.51C21.55 13.48 21.47 13.46 21.39 13.47L19.68 13.56L19.23 12.46L20.5 11.32C20.56 11.26 20.61 11.2 20.64 11.13C20.67 11.05 20.69 10.98 20.69 10.9L20.69 9.34C20.69 9.26 20.67 9.19 20.64 9.11C20.61 9.04 20.56 8.98 20.5 8.92L19.23 7.78L19.68 6.68L21.39 6.77C21.47 6.78 21.55 6.76 21.62 6.73C21.7 6.71 21.76 6.66 21.82 6.61ZM7.31 11.25C7.31 11.1 7.25 10.95 7.14 10.85C7.04 10.74 6.89 10.68 6.75 10.68L4.5 10.68C4.35 10.68 4.2 10.74 4.1 10.85C3.99 10.95 3.93 11.1 3.93 11.25L3.93 13.5C3.93 13.64 3.99 13.79 4.1 13.89C4.2 14 4.35 14.06 4.5 14.06L6.75 14.06C6.89 14.06 7.04 14 7.14 13.89C7.25 13.79 7.31 13.64 7.31 13.5L7.31 11.25ZM6.18 12.93L5.06 12.93L5.06 11.81L6.18 11.81L6.18 12.93ZM11.81 11.25C11.81 11.1 11.75 10.95 11.64 10.85C11.54 10.74 11.39 10.68 11.25 10.68L9 10.68C8.85 10.68 8.7 10.74 8.6 10.85C8.49 10.95 8.43 11.1 8.43 11.25L8.43 13.5C8.43 13.64 8.49 13.79 8.6 13.89C8.7 14 8.85 14.06 9 14.06L11.25 14.06C11.39 14.06 11.54 14 11.64 13.89C11.75 13.79 11.81 13.64 11.81 13.5L11.81 11.25ZM10.68 12.93L9.56 12.93L9.56 11.81L10.68 11.81L10.68 12.93ZM16.31 11.25C16.31 11.1 16.25 10.95 16.14 10.85C16.04 10.74 15.89 10.68 15.75 10.68L13.5 10.68C13.35 10.68 13.2 10.74 13.1 10.85C12.99 10.95 12.93 11.1 12.93 11.25L12.93 13.5C12.93 13.64 12.99 13.79 13.1 13.89C13.2 14 13.35 14.06 13.5 14.06L15.75 14.06C15.89 14.06 16.04 14 16.14 13.89C16.25 13.79 16.31 13.64 16.31 13.5L16.31 11.25ZM15.18 12.93L14.06 12.93L14.06 11.81L15.18 11.81L15.18 12.93ZM7.31 15.75C7.31 15.6 7.25 15.45 7.14 15.35C7.04 15.24 6.89 15.18 6.75 15.18L4.5 15.18C4.35 15.18 4.2 15.24 4.1 15.35C3.99 15.45 3.93 15.6 3.93 15.75L3.93 18C3.93 18.14 3.99 18.29 4.1 18.39C4.2 18.5 4.35 18.56 4.5 18.56L6.75 18.56C6.89 18.56 7.04 18.5 7.14 18.39C7.25 18.29 7.31 18.14 7.31 18L7.31 15.75ZM6.18 17.43L5.06 17.43L5.06 16.31L6.18 16.31L6.18 17.43ZM11.81 15.75C11.81 15.6 11.75 15.45 11.64 15.35C11.54 15.24 11.39 15.18 11.25 15.18L9 15.18C8.85 15.18 8.7 15.24 8.6 15.35C8.49 15.45 8.43 15.6 8.43 15.75L8.43 18C8.43 18.14 8.49 18.29 8.6 18.39C8.7 18.5 8.85 18.56 9 18.56L11.25 18.56C11.39 18.56 11.54 18.5 11.64 18.39C11.75 18.29 11.81 18.14 11.81 18L11.81 15.75ZM10.68 17.43L9.56 17.43L9.56 16.31L10.68 16.31L10.68 17.43ZM16.31 15.75C16.31 15.6 16.25 15.45 16.14 15.35C16.04 15.24 15.89 15.18 15.75 15.18L13.5 15.18C13.35 15.18 13.2 15.24 13.1 15.35C12.99 15.45 12.93 15.6 12.93 15.75L12.93 18C12.93 18.14 12.99 18.29 13.1 18.39C13.2 18.5 13.35 18.56 13.5 18.56L15.75 18.56C15.89 18.56 16.04 18.5 16.14 18.39C16.25 18.29 16.31 18.14 16.31 18L16.31 15.75ZM15.18 17.43L14.06 17.43L14.06 16.31L15.18 16.31L15.18 17.43ZM6.75 19.68L4.5 19.68C4.35 19.68 4.2 19.74 4.1 19.85C3.99 19.95 3.93 20.1 3.93 20.25L3.93 22.5C3.93 22.64 3.99 22.79 4.1 22.89C4.2 23 4.35 23.06 4.5 23.06L6.75 23.06C6.89 23.06 7.04 23 7.14 22.89C7.25 22.79 7.31 22.64 7.31 22.5L7.31 20.25C7.31 20.1 7.25 19.95 7.14 19.85C7.04 19.74 6.89 19.68 6.75 19.68ZM6.18 21.93L5.06 21.93L5.06 20.81L6.18 20.81L6.18 21.93ZM11.25 19.68L9 19.68C8.85 19.68 8.7 19.74 8.6 19.85C8.49 19.95 8.43 20.1 8.43 20.25L8.43 22.5C8.43 22.64 8.49 22.79 8.6 22.89C8.7 23 8.85 23.06 9 23.06L11.25 23.06C11.39 23.06 11.54 23 11.64 22.89C11.75 22.79 11.81 22.64 11.81 22.5L11.81 20.25C11.81 20.1 11.75 19.95 11.64 19.85C11.54 19.74 11.39 19.68 11.25 19.68ZM10.68 21.93L9.56 21.93L9.56 20.81L10.68 20.81L10.68 21.93ZM15.75 19.68L13.5 19.68C13.35 19.68 13.2 19.74 13.1 19.85C12.99 19.95 12.93 20.1 12.93 20.25L12.93 22.5C12.93 22.64 12.99 22.79 13.1 22.89C13.2 23 13.35 23.06 13.5 23.06L15.75 23.06C15.89 23.06 16.04 23 16.14 22.89C16.25 22.79 16.31 22.64 16.31 22.5L16.31 20.25C16.31 20.1 16.25 19.95 16.14 19.85C16.04 19.74 15.89 19.68 15.75 19.68ZM15.18 21.93L14.06 21.93L14.06 20.81L15.18 20.81L15.18 21.93ZM19.12 19.68L20.25 19.68L20.25 20.81L19.12 20.81L19.12 19.68ZM21.37 19.68L30.93 19.68L30.93 20.81L21.37 20.81L21.37 19.68ZM18 21.93L28.68 21.93L28.68 23.06L18 23.06L18 21.93Z" fill="#2463CA" fill-opacity="1.000000" fill-rule="nonzero"/>
	</g>
</svg>
