<svg width="36.000000" height="36.000000" viewBox="0 0 36 36" fill="none" xmlns="http://www.w3.org/2000/svg" xmlns:xlink="http://www.w3.org/1999/xlink">
	<desc>
			Created with Pixso.
	</desc>
	<defs>
		<clipPath id="clip29_276">
			<rect id="Frame" rx="-0.500000" width="35.000000" height="35.000000" transform="translate(0.500000 0.500000)" fill="white" fill-opacity="0"/>
		</clipPath>
	</defs>
	<rect id="Frame" rx="-0.500000" width="35.000000" height="35.000000" transform="translate(0.500000 0.500000)" fill="#FFFFFF" fill-opacity="0"/>
	<g clip-path="url(#clip29_276)">
		<path id="Vector" d="M33.75 25.31C34.19 25.31 34.62 25.13 34.94 24.81C35.25 24.5 35.43 24.07 35.43 23.62L35.43 2.25C35.43 1.8 35.25 1.37 34.94 1.05C34.62 0.74 34.19 0.56 33.75 0.56L2.25 0.56C1.8 0.56 1.37 0.74 1.05 1.05C0.74 1.37 0.56 1.8 0.56 2.25L0.56 23.62C0.56 24.07 0.74 24.5 1.05 24.81C1.37 25.13 1.8 25.31 2.25 25.31L12.15 25.31C13.23 27.04 14.84 28.38 16.74 29.14L14.95 30.93L12.93 30.93L12.93 29.25C12.93 28.8 12.75 28.37 12.44 28.05C12.12 27.74 11.69 27.56 11.25 27.56L4.5 27.56C4.05 27.56 3.62 27.74 3.3 28.05C2.99 28.37 2.81 28.8 2.81 29.25L2.81 33.75C2.81 34.19 2.99 34.62 3.3 34.94C3.62 35.25 4.05 35.43 4.5 35.43L11.25 35.43C11.69 35.43 12.12 35.25 12.44 34.94C12.75 34.62 12.93 34.19 12.93 33.75L12.93 32.06L15.18 32.06C15.33 32.06 15.47 32 15.58 31.89L17.95 29.52C19.19 29.83 20.49 29.89 21.75 29.69C23.01 29.49 24.22 29.03 25.3 28.35L26.76 29.81L26.6 29.97C26.49 30.08 26.43 30.22 26.43 30.37C26.43 30.52 26.49 30.66 26.6 30.77L30.4 34.57C30.67 34.84 31 35.06 31.36 35.21C31.71 35.36 32.1 35.43 32.49 35.43C32.87 35.43 33.26 35.36 33.61 35.21C33.97 35.06 34.3 34.84 34.57 34.57C34.84 34.29 35.06 33.97 35.21 33.61C35.36 33.25 35.43 32.87 35.43 32.48C35.43 32.1 35.36 31.71 35.21 31.35C35.06 31 34.84 30.67 34.57 30.4L30.77 26.6C30.66 26.49 30.52 26.43 30.37 26.43C30.22 26.43 30.08 26.49 29.97 26.6L29.81 26.76L28.35 25.31L33.75 25.31ZM11.81 33.75C11.81 33.89 11.75 34.04 11.64 34.14C11.54 34.25 11.39 34.31 11.25 34.31L4.5 34.31C4.35 34.31 4.2 34.25 4.1 34.14C3.99 34.04 3.93 33.89 3.93 33.75L3.93 29.25C3.93 29.1 3.99 28.95 4.1 28.85C4.2 28.74 4.35 28.68 4.5 28.68L11.25 28.68C11.39 28.68 11.54 28.74 11.64 28.85C11.75 28.95 11.81 29.1 11.81 29.25L11.81 33.75ZM2.25 24.18C2.1 24.18 1.95 24.12 1.85 24.02C1.74 23.91 1.68 23.77 1.68 23.62L1.68 2.25C1.68 2.1 1.74 1.95 1.85 1.85C1.95 1.74 2.1 1.68 2.25 1.68L33.75 1.68C33.89 1.68 34.04 1.74 34.14 1.85C34.25 1.95 34.31 2.1 34.31 2.25L34.31 23.62C34.31 23.77 34.25 23.91 34.14 24.02C34.04 24.12 33.89 24.18 33.75 24.18L28.95 24.18C29.47 23.04 29.76 21.8 29.8 20.54C29.84 19.28 29.63 18.03 29.19 16.85C28.74 15.67 28.06 14.59 27.2 13.68C26.33 12.76 25.29 12.03 24.14 11.52L27 8.67L27 10.12L28.12 10.12L28.12 7.31C28.12 7.16 28.06 7.02 27.96 6.91C27.85 6.8 27.71 6.75 27.56 6.75L24.75 6.75L24.75 7.87L26.2 7.87L22.98 11.09C22.2 10.85 21.39 10.72 20.57 10.7L17.91 6.45C17.86 6.37 17.79 6.3 17.71 6.25C17.62 6.21 17.53 6.18 17.43 6.18L15.18 6.18L15.18 4.5C15.18 4.05 15 3.62 14.69 3.3C14.37 2.99 13.94 2.81 13.5 2.81L6.75 2.81C6.3 2.81 5.87 2.99 5.55 3.3C5.24 3.62 5.06 4.05 5.06 4.5L5.06 9C5.06 9.44 5.24 9.87 5.55 10.19C5.87 10.5 6.3 10.68 6.75 10.68L13.5 10.68C13.94 10.68 14.37 10.5 14.69 10.19C15 9.87 15.18 9.44 15.18 9L15.18 7.31L17.12 7.31L19.26 10.73C16.84 10.99 14.6 12.16 13.01 14.01L12.23 13.12C12.17 13.06 12.11 13.02 12.04 12.98C11.97 12.95 11.89 12.93 11.81 12.93L11.81 12.93C11.73 12.93 11.65 12.95 11.58 12.98C11.51 13.01 11.45 13.06 11.39 13.11L5.21 19.86L6.03 20.63L11.8 14.33L12.31 14.91C10.92 16.97 10.39 19.49 10.84 21.93L3.93 21.93L3.93 6.75L2.81 6.75L2.81 22.5C2.81 22.64 2.87 22.79 2.97 22.89C3.08 23 3.22 23.06 3.37 23.06L11.11 23.06C11.23 23.44 11.37 23.82 11.54 24.18L2.25 24.18ZM14.06 4.5L14.06 9C14.06 9.14 14 9.29 13.89 9.39C13.79 9.5 13.64 9.56 13.5 9.56L6.75 9.56C6.6 9.56 6.45 9.5 6.35 9.39C6.24 9.29 6.18 9.14 6.18 9L6.18 4.5C6.18 4.35 6.24 4.2 6.35 4.1C6.45 3.99 6.6 3.93 6.75 3.93L13.5 3.93C13.64 3.93 13.79 3.99 13.89 4.1C14 4.2 14.06 4.35 14.06 4.5ZM11.81 20.25C11.81 18.58 12.3 16.95 13.23 15.56C14.16 14.17 15.47 13.09 17.02 12.45C18.56 11.81 20.25 11.64 21.89 11.97C23.53 12.3 25.03 13.1 26.21 14.28C27.39 15.46 28.19 16.96 28.52 18.6C28.85 20.24 28.68 21.93 28.04 23.47C27.4 25.02 26.32 26.33 24.93 27.26C23.55 28.19 21.91 28.68 20.25 28.68C18.01 28.68 15.86 27.79 14.28 26.21C12.7 24.63 11.81 22.48 11.81 20.25ZM33.77 31.19C33.95 31.36 34.08 31.56 34.18 31.79C34.27 32.01 34.32 32.25 34.32 32.49C34.32 32.73 34.28 32.97 34.19 33.19C34.09 33.41 33.96 33.62 33.79 33.79C33.62 33.96 33.41 34.09 33.19 34.19C32.97 34.28 32.73 34.32 32.49 34.32C32.25 34.32 32.01 34.27 31.79 34.18C31.56 34.08 31.36 33.95 31.19 33.77L27.79 30.37L30.37 27.79L33.77 31.19ZM27.56 29.01L26.23 27.69C26.77 27.26 27.26 26.77 27.69 26.23L29.01 27.56L27.56 29.01Z" fill="#2463CA" fill-opacity="1.000000" fill-rule="nonzero"/>
		<path id="Vector" d="M20.25 12.93C18.8 12.93 17.38 13.36 16.18 14.16C14.98 14.97 14.04 16.11 13.49 17.45C12.94 18.78 12.79 20.25 13.07 21.67C13.36 23.09 14.05 24.39 15.07 25.42C16.1 26.44 17.4 27.13 18.82 27.42C20.24 27.7 21.71 27.55 23.04 27C24.38 26.45 25.52 25.51 26.33 24.31C27.13 23.11 27.56 21.69 27.56 20.25C27.56 18.31 26.78 16.45 25.41 15.08C24.04 13.71 22.18 12.93 20.25 12.93ZM20 14.07L16.33 17.74L15.29 16.56C15.84 15.82 16.54 15.21 17.36 14.78C18.18 14.35 19.08 14.11 20 14.07ZM20.25 26.43C19.11 26.43 17.99 26.12 17.02 25.52C16.05 24.92 15.26 24.07 14.74 23.06L21.37 23.06L21.37 21.93L14.3 21.93C13.88 20.48 14.01 18.93 14.68 17.57L15.89 18.93C15.94 18.99 16 19.04 16.07 19.07C16.14 19.1 16.21 19.12 16.29 19.12L16.31 19.12C16.46 19.12 16.6 19.06 16.71 18.96L21.48 14.18C22.98 14.49 24.32 15.34 25.23 16.58C26.14 17.81 26.55 19.34 26.4 20.86C26.25 22.39 25.53 23.81 24.4 24.83C23.26 25.86 21.78 26.43 20.25 26.43ZM7.31 5.06L12.93 5.06L12.93 6.18L7.31 6.18L7.31 5.06ZM7.31 7.31L12.93 7.31L12.93 8.43L7.31 8.43L7.31 7.31ZM5.06 29.81L10.68 29.81L10.68 30.93L5.06 30.93L5.06 29.81ZM5.06 32.06L10.68 32.06L10.68 33.18L5.06 33.18L5.06 32.06Z" fill="#2463CA" fill-opacity="1.000000" fill-rule="nonzero"/>
	</g>
</svg>
