<svg width="36.000000" height="36.000000" viewBox="0 0 36 36" fill="none" xmlns="http://www.w3.org/2000/svg" xmlns:xlink="http://www.w3.org/1999/xlink">
	<desc>
			Created with Pixso.
	</desc>
	<defs>
		<clipPath id="clip39_2252">
			<rect id="Frame" rx="-0.500000" width="35.000000" height="35.000000" transform="translate(0.500000 0.500000)" fill="white" fill-opacity="0"/>
		</clipPath>
	</defs>
	<rect id="Frame" rx="-0.500000" width="35.000000" height="35.000000" transform="translate(0.500000 0.500000)" fill="#FFFFFF" fill-opacity="0"/>
	<g clip-path="url(#clip39_2252)">
		<path id="Vector" d="M17.53 13.8L22.93 7.8C23.25 7.44 23.42 6.98 23.39 6.5C23.37 6.02 23.15 5.58 22.8 5.26C22.44 4.94 21.98 4.77 21.5 4.8C21.02 4.82 20.58 5.04 20.26 5.39L16.13 9.98L15.67 9.52C15.33 9.2 14.87 9.01 14.39 9.01C13.92 9.01 13.46 9.2 13.12 9.52C12.96 9.69 12.82 9.89 12.73 10.11C12.64 10.32 12.59 10.56 12.59 10.8C12.59 11.03 12.64 11.27 12.73 11.48C12.82 11.7 12.96 11.9 13.12 12.07L14.92 13.87C15.09 14.04 15.3 14.18 15.53 14.27C15.75 14.36 16 14.4 16.24 14.39C16.49 14.39 16.73 14.33 16.95 14.23C17.17 14.13 17.37 13.98 17.53 13.8ZM15.77 13.02L13.97 11.22C13.91 11.16 13.87 11.1 13.84 11.02C13.8 10.95 13.79 10.87 13.79 10.79C13.79 10.71 13.8 10.63 13.83 10.56C13.86 10.49 13.91 10.42 13.96 10.36C14.02 10.31 14.09 10.26 14.16 10.23C14.23 10.2 14.31 10.19 14.39 10.19C14.47 10.19 14.55 10.2 14.62 10.24C14.7 10.27 14.76 10.31 14.82 10.37L15.72 11.28C15.78 11.33 15.85 11.38 15.93 11.41C16 11.44 16.08 11.45 16.16 11.45C16.25 11.45 16.33 11.43 16.4 11.4C16.47 11.36 16.54 11.31 16.59 11.25L21.15 6.19C21.2 6.14 21.26 6.09 21.34 6.05C21.41 6.02 21.48 6 21.56 6C21.64 5.99 21.72 6 21.79 6.03C21.87 6.06 21.94 6.1 22 6.15C22.05 6.2 22.1 6.27 22.14 6.34C22.17 6.41 22.19 6.48 22.19 6.56C22.2 6.64 22.19 6.72 22.16 6.8C22.13 6.87 22.09 6.94 22.04 7L16.64 13C16.59 13.06 16.52 13.11 16.45 13.14C16.37 13.17 16.29 13.19 16.21 13.2C16.13 13.2 16.05 13.18 15.97 13.15C15.9 13.12 15.83 13.08 15.77 13.02Z" fill="#2463CA" fill-opacity="1.000000" fill-rule="nonzero"/>
		<path id="Vector" d="M34.2 13.79L29.19 13.79C28.46 13.79 27.82 14.28 27.63 14.98L25.93 14.98C28.77 10.82 27.9 5.17 23.95 2.05C20 -1.08 14.31 -0.62 10.91 3.1C7.51 6.82 7.57 12.53 11.03 16.18L8.36 16.18C8.26 15.84 8.06 15.54 7.78 15.32C7.5 15.11 7.16 14.99 6.8 14.99L1.79 14.99C1.32 14.99 0.86 15.18 0.52 15.52C0.18 15.86 0 16.32 0 16.79L0 27.59C0 28.07 0.18 28.53 0.52 28.87C0.86 29.21 1.32 29.39 1.79 29.39L4.77 29.39C5.12 29.39 5.47 29.28 5.75 29.06C6.03 28.84 6.23 28.54 6.32 28.2L7.35 28.2L6.68 29.99C6.58 30.25 6.53 30.53 6.54 30.8C6.55 31.08 6.61 31.35 6.73 31.6C6.84 31.85 7 32.08 7.2 32.26C7.41 32.45 7.64 32.6 7.9 32.7C8.16 32.79 8.44 32.84 8.72 32.82C9 32.81 9.27 32.75 9.52 32.63C9.53 32.63 9.53 32.64 9.53 32.65C9.65 32.9 9.81 33.13 10.01 33.32C10.22 33.51 10.46 33.65 10.72 33.75C10.98 33.85 11.25 33.89 11.53 33.88C11.81 33.87 12.08 33.8 12.33 33.68C12.44 33.94 12.61 34.17 12.81 34.36C13.01 34.56 13.25 34.71 13.51 34.8C13.77 34.9 14.05 34.95 14.33 34.94C14.61 34.92 14.89 34.86 15.14 34.74C15.14 34.75 15.14 34.75 15.15 34.76C15.32 35.14 15.6 35.46 15.95 35.68C16.3 35.9 16.71 36.01 17.13 36C17.54 35.98 17.94 35.85 18.28 35.6C18.62 35.36 18.88 35.03 19.02 34.64L19.06 34.54L21.1 35.54C21.35 35.66 21.62 35.73 21.89 35.74C22.17 35.76 22.45 35.72 22.71 35.63C22.96 35.54 23.2 35.39 23.41 35.21C23.61 35.02 23.78 34.8 23.9 34.55C24.14 34.04 24.16 33.46 23.97 32.93L23.99 32.92C24.25 32.83 24.49 32.68 24.7 32.5C24.9 32.31 25.07 32.08 25.19 31.83C25.31 31.58 25.37 31.31 25.39 31.03C25.4 30.76 25.36 30.48 25.26 30.22L25.28 30.21C25.54 30.12 25.78 29.97 25.99 29.79C26.19 29.6 26.36 29.38 26.48 29.13C26.6 28.87 26.66 28.6 26.68 28.33C26.69 28.05 26.65 27.77 26.55 27.51C26.86 27.4 27.13 27.23 27.36 26.99L29.67 26.99C29.76 27.34 29.96 27.64 30.24 27.86C30.52 28.08 30.87 28.19 31.22 28.2L34.2 28.2C34.67 28.2 35.13 28.01 35.47 27.67C35.81 27.33 36 26.87 36 26.39L36 15.59C36 15.12 35.81 14.66 35.47 14.32C35.13 13.98 34.67 13.79 34.2 13.79ZM9.59 9.59C9.59 8.24 9.92 6.91 10.54 5.71C11.16 4.51 12.07 3.48 13.17 2.71C14.28 1.93 15.55 1.43 16.89 1.26C18.23 1.08 19.6 1.23 20.87 1.69C22.14 2.15 23.28 2.91 24.19 3.91C25.1 4.9 25.76 6.11 26.11 7.41C26.46 8.72 26.49 10.09 26.2 11.41C25.9 12.72 25.29 13.95 24.43 14.99L18.8 14.99C18.47 15 18.13 15.07 17.82 15.2C17.51 15.34 17.23 15.54 17 15.79L16.64 16.2L12.81 16.19C11.8 15.41 10.99 14.41 10.44 13.26C9.88 12.12 9.59 10.87 9.59 9.59ZM4.77 28.2L1.79 28.2C1.64 28.2 1.48 28.13 1.37 28.02C1.26 27.91 1.2 27.75 1.2 27.59L1.2 16.79C1.2 16.64 1.26 16.48 1.37 16.37C1.48 16.26 1.64 16.2 1.79 16.2L6.8 16.2C6.86 16.2 6.92 16.21 6.98 16.23C7.03 16.26 7.08 16.3 7.12 16.34C7.15 16.39 7.18 16.44 7.2 16.5C7.21 16.56 7.22 16.62 7.2 16.67L5.17 27.86C5.15 27.95 5.1 28.04 5.03 28.1C4.96 28.16 4.87 28.2 4.77 28.2ZM8.32 31.57C8.21 31.53 8.11 31.47 8.02 31.39C7.94 31.31 7.87 31.21 7.82 31.1C7.77 31 7.74 30.88 7.74 30.76C7.74 30.64 7.76 30.53 7.8 30.42L8.65 28.17C8.73 27.96 8.9 27.79 9.12 27.69C9.33 27.6 9.57 27.59 9.79 27.67C10 27.75 10.18 27.91 10.28 28.12C10.39 28.33 10.4 28.57 10.33 28.79L9.48 31.05C9.39 31.27 9.22 31.45 9 31.55C8.79 31.65 8.54 31.65 8.32 31.57ZM11.13 32.63C11.02 32.58 10.92 32.52 10.83 32.44C10.74 32.36 10.67 32.26 10.63 32.16C10.58 32.05 10.55 31.93 10.55 31.82C10.54 31.7 10.56 31.58 10.6 31.47C10.67 31.28 11.68 28.61 11.66 28.67C11.75 28.46 11.92 28.29 12.13 28.19C12.35 28.1 12.59 28.1 12.81 28.18C13.02 28.26 13.2 28.42 13.3 28.63C13.4 28.84 13.42 29.08 13.35 29.3L12.29 32.1C12.2 32.33 12.03 32.5 11.82 32.6C11.6 32.7 11.35 32.71 11.13 32.63ZM13.93 33.68C13.82 33.64 13.72 33.58 13.64 33.5C13.55 33.42 13.48 33.32 13.43 33.21C13.38 33.11 13.36 32.99 13.35 32.87C13.35 32.75 13.37 32.64 13.41 32.53L14.47 29.73C14.56 29.51 14.73 29.34 14.94 29.25C15.16 29.15 15.4 29.15 15.62 29.23C15.83 29.31 16.01 29.48 16.11 29.69C16.21 29.9 16.23 30.14 16.15 30.36L15.1 33.16C15.05 33.27 14.99 33.37 14.91 33.46C14.83 33.54 14.73 33.61 14.62 33.66C14.52 33.71 14.4 33.74 14.28 33.74C14.16 33.74 14.05 33.72 13.93 33.68ZM16.74 34.73C16.63 34.69 16.53 34.63 16.44 34.55C16.36 34.47 16.29 34.37 16.24 34.27C16.19 34.16 16.16 34.04 16.16 33.93C16.16 33.81 16.18 33.69 16.22 33.58L16.85 31.9C16.95 31.69 17.12 31.52 17.33 31.43C17.54 31.34 17.78 31.34 17.99 31.42C18.21 31.5 18.39 31.66 18.49 31.87C18.59 32.08 18.6 32.31 18.54 32.53L17.9 34.21C17.82 34.44 17.65 34.62 17.43 34.71C17.21 34.81 16.96 34.82 16.74 34.73ZM26.68 25.91C26.57 26.13 26.39 26.29 26.17 26.37C25.95 26.45 25.7 26.43 25.49 26.33L23.87 25.56C23.73 25.5 23.57 25.5 23.43 25.56C23.28 25.61 23.17 25.72 23.1 25.86C23.04 26 23.03 26.15 23.07 26.3C23.12 26.44 23.22 26.57 23.35 26.64L24.97 27.41L24.97 27.42C25.18 27.52 25.34 27.71 25.42 27.93C25.49 28.15 25.48 28.39 25.38 28.6C25.28 28.82 25.1 28.98 24.88 29.06C24.66 29.14 24.42 29.14 24.2 29.04L22.46 28.21C22.32 28.15 22.16 28.15 22.02 28.2C21.88 28.26 21.76 28.37 21.69 28.5C21.63 28.64 21.62 28.8 21.66 28.95C21.71 29.09 21.81 29.22 21.95 29.29L23.68 30.12C23.89 30.23 24.05 30.41 24.12 30.63C24.2 30.86 24.18 31.1 24.08 31.31C23.98 31.52 23.81 31.68 23.59 31.76C23.37 31.85 23.13 31.84 22.91 31.75L22.9 31.75L21.26 30.96C21.12 30.9 20.96 30.9 20.82 30.95C20.67 31.01 20.55 31.11 20.49 31.25C20.42 31.39 20.41 31.55 20.46 31.7C20.5 31.84 20.61 31.97 20.74 32.04L22.39 32.83C22.61 32.94 22.77 33.12 22.85 33.35C22.93 33.57 22.91 33.82 22.81 34.03C22.76 34.14 22.69 34.23 22.6 34.31C22.52 34.39 22.41 34.45 22.3 34.49C22.19 34.53 22.08 34.55 21.96 34.54C21.84 34.53 21.73 34.5 21.62 34.45L19.49 33.41L19.66 32.96C19.79 32.62 19.83 32.25 19.77 31.89C19.72 31.53 19.57 31.19 19.34 30.9C19.11 30.62 18.81 30.4 18.47 30.27C18.13 30.14 17.76 30.1 17.4 30.15C17.42 29.79 17.35 29.43 17.19 29.11C17.02 28.78 16.78 28.51 16.48 28.3C16.18 28.1 15.83 27.98 15.47 27.95C15.11 27.92 14.75 27.99 14.42 28.14C14.42 28.14 14.42 28.13 14.42 28.12C14.29 27.83 14.09 27.58 13.85 27.38C13.61 27.17 13.32 27.03 13.02 26.95C12.71 26.88 12.39 26.87 12.08 26.93C11.77 27 11.48 27.13 11.23 27.33C10.95 26.91 10.54 26.61 10.06 26.48C9.58 26.34 9.07 26.38 8.61 26.58C8.39 26.68 8.19 26.82 8.02 26.99L6.55 26.99L8.3 17.38L15.55 17.39L12.7 20.53C12.29 20.98 12.07 21.58 12.08 22.19C12.09 22.8 12.34 23.39 12.77 23.82C13.2 24.25 13.78 24.51 14.39 24.53C15.01 24.55 15.6 24.33 16.06 23.92L19.2 21.09L26.26 24.71C26.47 24.81 26.64 25 26.72 25.23C26.8 25.45 26.78 25.7 26.68 25.91ZM20.15 20.23L20.8 19.64C20.91 19.53 20.99 19.38 20.99 19.23C21 19.07 20.95 18.91 20.84 18.79C20.73 18.67 20.58 18.6 20.42 18.6C20.27 18.59 20.11 18.64 19.99 18.75L15.26 23.03C15.03 23.23 14.73 23.34 14.43 23.33C14.12 23.32 13.83 23.19 13.62 22.98C13.4 22.76 13.28 22.47 13.28 22.16C13.27 21.86 13.38 21.56 13.59 21.34L17.89 16.6C18.01 16.47 18.15 16.37 18.31 16.3C18.46 16.23 18.63 16.19 18.81 16.2C24.87 16.19 25.52 16.19 27.69 16.18L29.44 25.79L27.94 25.79C28 25.36 27.92 24.92 27.71 24.53C27.51 24.14 27.18 23.83 26.79 23.63L20.15 20.23ZM34.79 26.39C34.79 26.55 34.73 26.71 34.62 26.82C34.51 26.93 34.35 26.99 34.2 26.99L31.22 26.99C31.12 27 31.03 26.96 30.96 26.9C30.89 26.84 30.84 26.75 30.82 26.66L28.79 15.47C28.77 15.42 28.78 15.36 28.79 15.3C28.81 15.24 28.84 15.19 28.87 15.14C28.91 15.1 28.96 15.06 29.01 15.03C29.07 15.01 29.13 14.99 29.19 14.99L34.2 14.99C34.35 14.99 34.51 15.06 34.62 15.17C34.73 15.28 34.79 15.44 34.79 15.59L34.79 26.39Z" fill="#2463CA" fill-opacity="1.000000" fill-rule="nonzero"/>
	</g>
</svg>
