<svg width="36.000000" height="36.000000" viewBox="0 0 36 36" fill="none" xmlns="http://www.w3.org/2000/svg" xmlns:xlink="http://www.w3.org/1999/xlink">
	<desc>
			Created with Pixso.
	</desc>
	<defs>
		<clipPath id="clip29_259">
			<rect id="Frame" rx="-0.500000" width="35.000000" height="35.000000" transform="translate(0.500000 0.500000)" fill="white" fill-opacity="0"/>
		</clipPath>
	</defs>
	<rect id="Frame" rx="-0.500000" width="35.000000" height="35.000000" transform="translate(0.500000 0.500000)" fill="#FFFFFF" fill-opacity="0"/>
	<g clip-path="url(#clip29_259)">
		<path id="Vector" d="M28.45 22.3C27.71 21.53 26.82 21.12 25.88 21.12C24.94 21.12 24.05 21.52 23.28 22.29L20.88 24.68C20.68 24.58 20.48 24.48 20.29 24.38C20.02 24.24 19.76 24.11 19.54 23.97C17.29 22.55 15.25 20.68 13.29 18.28C12.34 17.08 11.7 16.07 11.24 15.04C11.86 14.47 12.44 13.88 13 13.31C13.21 13.09 13.43 12.87 13.64 12.66C15.23 11.07 15.23 9 13.64 7.4L11.56 5.33C11.33 5.09 11.08 4.85 10.86 4.61C10.4 4.14 9.92 3.65 9.43 3.19C8.69 2.46 7.81 2.08 6.88 2.08C5.96 2.08 5.06 2.46 4.3 3.19L4.28 3.21L1.7 5.82C0.73 6.79 0.17 7.97 0.05 9.35C-0.13 11.57 0.52 13.63 1.03 14.99C2.26 18.31 4.09 21.38 6.84 24.68C10.17 28.66 14.17 31.79 18.74 34C20.49 34.83 22.82 35.81 25.43 35.98C25.59 35.99 25.76 36 25.91 36C27.66 36 29.14 35.36 30.29 34.11C30.3 34.1 30.32 34.09 30.32 34.07C30.72 33.59 31.17 33.16 31.65 32.7C31.98 32.39 32.31 32.06 32.64 31.72C33.39 30.93 33.79 30.02 33.79 29.09C33.79 28.15 33.39 27.24 32.62 26.48L28.45 22.3ZM31.17 30.3C30.87 30.62 30.57 30.9 30.24 31.22C29.75 31.69 29.24 32.19 28.77 32.74C28.01 33.56 27.1 33.95 25.92 33.95C25.8 33.95 25.68 33.95 25.57 33.94C23.31 33.8 21.21 32.92 19.64 32.17C15.34 30.08 11.56 27.13 8.43 23.38C5.83 20.26 4.1 17.37 2.95 14.27C2.25 12.38 1.99 10.91 2.1 9.52C2.18 8.63 2.52 7.89 3.15 7.26L5.74 4.67C6.12 4.32 6.51 4.13 6.9 4.13C7.38 4.13 7.76 4.42 8.01 4.66L8.03 4.68C8.49 5.12 8.93 5.56 9.4 6.04C9.63 6.29 9.88 6.53 10.12 6.78L12.19 8.85C13 9.66 13 10.4 12.19 11.21C11.97 11.43 11.76 11.65 11.54 11.86C10.9 12.52 10.29 13.12 9.63 13.72C9.62 13.73 9.6 13.74 9.6 13.76C8.94 14.41 9.06 15.05 9.2 15.48L9.22 15.55C9.76 16.86 10.52 18.09 11.68 19.55L11.69 19.56C13.78 22.14 15.99 24.16 18.43 25.7C18.74 25.9 19.06 26.06 19.37 26.21C19.64 26.35 19.9 26.47 20.12 26.61C20.15 26.63 20.18 26.65 20.21 26.66C20.47 26.79 20.71 26.85 20.96 26.85C21.59 26.85 21.99 26.46 22.12 26.33L24.72 23.73C24.97 23.47 25.38 23.16 25.86 23.16C26.33 23.16 26.72 23.46 26.96 23.72L26.97 23.73L31.16 27.92C31.94 28.69 31.94 29.49 31.17 30.3ZM19.45 8.56C21.44 8.89 23.25 9.83 24.69 11.28C26.14 12.72 27.07 14.53 27.41 16.52C27.5 17.02 27.93 17.37 28.42 17.37C28.48 17.37 28.54 17.36 28.6 17.36C29.16 17.27 29.53 16.73 29.44 16.17C29.03 13.76 27.89 11.57 26.15 9.83C24.41 8.09 22.22 6.95 19.81 6.54C19.25 6.45 18.72 6.82 18.62 7.37C18.52 7.93 18.89 8.47 19.45 8.56ZM35.95 15.88C35.28 11.91 33.41 8.3 30.54 5.43C27.66 2.56 24.05 0.69 20.09 0.01C19.53 -0.09 19.01 0.29 18.91 0.85C18.82 1.41 19.19 1.93 19.75 2.03C23.29 2.63 26.52 4.31 29.09 6.87C31.66 9.44 33.33 12.67 33.93 16.21C34.02 16.71 34.45 17.06 34.94 17.06C35 17.06 35.06 17.05 35.12 17.05C35.67 16.96 36.05 16.43 35.95 15.88Z" fill="#2463CA" fill-opacity="1.000000" fill-rule="nonzero"/>
	</g>
</svg>
