<svg width="36.000000" height="36.000000" viewBox="0 0 36 36" fill="none" xmlns="http://www.w3.org/2000/svg" xmlns:xlink="http://www.w3.org/1999/xlink">
	<desc>
			Created with Pixso.
	</desc>
	<defs>
		<clipPath id="clip29_267">
			<rect id="Frame" rx="-0.500000" width="35.000000" height="35.000000" transform="translate(0.500000 0.500000)" fill="white" fill-opacity="0"/>
		</clipPath>
	</defs>
	<rect id="Frame" rx="-0.500000" width="35.000000" height="35.000000" transform="translate(0.500000 0.500000)" fill="#FFFFFF" fill-opacity="0"/>
	<g clip-path="url(#clip29_267)">
		<path id="Vector" d="M23.29 24.99L20.49 27.03C20.39 26.66 20.18 26.33 19.9 26.08C19.61 25.83 19.26 25.67 18.89 25.61L9.34 24.05C8.88 23.97 8.4 23.98 7.94 24.09C7.48 24.2 7.04 24.41 6.67 24.69L5.68 25.44C5.36 25.67 4.98 25.79 4.6 25.8L1.2 25.8C0.88 25.8 0.57 25.92 0.35 26.15C0.12 26.37 0 26.68 0 27L0 31.8C0 32.11 0.12 32.42 0.35 32.64C0.57 32.87 0.88 33 1.2 33L4.98 33C5.19 33 5.39 33.03 5.58 33.1L13.04 35.76C13.47 35.92 13.92 36 14.38 36C15.3 35.99 16.2 35.67 16.91 35.08L25.7 28.03C25.92 27.85 26.09 27.62 26.21 27.36C26.33 27.1 26.4 26.82 26.4 26.54C26.4 26.18 26.3 25.82 26.11 25.52C25.92 25.21 25.64 24.96 25.32 24.8C25 24.64 24.64 24.57 24.28 24.6C23.92 24.64 23.58 24.77 23.29 24.99ZM24.94 27.1L16.15 34.15C15.78 34.46 15.33 34.66 14.86 34.75C14.39 34.83 13.9 34.79 13.45 34.63L5.99 31.97C5.66 31.85 5.32 31.8 4.98 31.8L1.2 31.8L1.2 27L4.6 27C5.24 26.99 5.88 26.78 6.4 26.4L7.39 25.65C7.76 25.37 8.21 25.21 8.67 25.2C8.83 25.19 8.98 25.2 9.13 25.23L18.7 26.79C18.87 26.82 19.02 26.89 19.14 27.02C19.26 27.14 19.33 27.3 19.35 27.47C19.35 27.57 19.34 27.66 19.3 27.75C19.26 27.84 19.21 27.92 19.14 27.99C19.07 28.06 19 28.11 18.91 28.14C18.83 28.18 18.74 28.2 18.65 28.2L10.2 28.2C10.04 28.2 9.88 28.26 9.77 28.37C9.66 28.48 9.59 28.64 9.59 28.8C9.59 28.95 9.66 29.11 9.77 29.22C9.88 29.33 10.04 29.4 10.2 29.4L12.37 29.4L14.91 31.54C15.1 31.69 15.33 31.79 15.58 31.79C15.83 31.8 16.07 31.73 16.27 31.58L24.01 25.95C24.15 25.84 24.33 25.78 24.51 25.8C24.69 25.81 24.86 25.89 24.98 26.02C25.12 26.16 25.2 26.34 25.2 26.54C25.2 26.65 25.17 26.75 25.13 26.85C25.08 26.94 25.02 27.03 24.94 27.1ZM17.24 29.4L15.62 30.57L14.23 29.4L17.24 29.4ZM27.6 0C25.58 0 23.63 0.73 22.1 2.05C20.58 3.37 19.58 5.2 19.29 7.2L7.79 7.2C7.16 7.2 6.55 7.45 6.1 7.9C5.65 8.35 5.4 8.96 5.4 9.59L5.4 20.4C5.4 21.03 5.65 21.64 6.1 22.09C6.55 22.54 7.16 22.8 7.79 22.8L25.8 22.8C26.43 22.8 27.04 22.54 27.49 22.09C27.94 21.64 28.2 21.03 28.2 20.4L28.2 16.76C30.37 16.61 32.39 15.62 33.85 14C35.3 12.38 36.07 10.26 35.99 8.09C35.91 5.92 34.99 3.86 33.43 2.35C31.86 0.84 29.77 -0.01 27.6 0ZM6.59 11.4L19.76 11.4C20 12.03 20.32 12.64 20.71 13.2L6.59 13.2L6.59 11.4ZM7.79 8.4L19.2 8.4C19.2 9 19.26 9.6 19.39 10.2L6.59 10.2L6.59 9.59C6.59 9.28 6.72 8.97 6.95 8.75C7.17 8.52 7.48 8.4 7.79 8.4ZM25.8 21.6L7.79 21.6C7.48 21.6 7.17 21.47 6.95 21.24C6.72 21.02 6.59 20.71 6.59 20.4L6.59 14.4L21.73 14.4C23.15 15.79 25.01 16.63 27 16.76L27 20.4C27 20.71 26.87 21.02 26.64 21.24C26.42 21.47 26.11 21.6 25.8 21.6ZM27.6 15.6C26.17 15.6 24.78 15.17 23.59 14.38C22.41 13.59 21.49 12.47 20.94 11.15C20.4 9.83 20.26 8.39 20.53 6.99C20.81 5.59 21.5 4.31 22.5 3.3C23.51 2.3 24.79 1.61 26.19 1.33C27.59 1.06 29.03 1.2 30.35 1.74C31.67 2.29 32.79 3.21 33.58 4.39C34.37 5.58 34.8 6.97 34.8 8.4C34.79 10.3 34.03 12.13 32.68 13.48C31.33 14.83 29.5 15.59 27.6 15.6Z" fill="#2463CA" fill-opacity="1.000000" fill-rule="nonzero"/>
		<path id="Vector" d="M18 17.39L16.79 17.39C16.64 17.39 16.48 17.46 16.37 17.57C16.26 17.68 16.2 17.84 16.2 17.99C16.2 18.15 16.26 18.31 16.37 18.42C16.48 18.53 16.64 18.59 16.79 18.59L18 18.59C18.15 18.59 18.31 18.53 18.42 18.42C18.53 18.31 18.6 18.15 18.6 17.99C18.6 17.84 18.53 17.68 18.42 17.57C18.31 17.46 18.15 17.39 18 17.39ZM21.6 17.39L20.4 17.39C20.24 17.39 20.08 17.46 19.97 17.57C19.86 17.68 19.79 17.84 19.79 17.99C19.79 18.15 19.86 18.31 19.97 18.42C20.08 18.53 20.24 18.59 20.4 18.59L21.6 18.59C21.75 18.59 21.91 18.53 22.02 18.42C22.13 18.31 22.2 18.15 22.2 17.99C22.2 17.84 22.13 17.68 22.02 17.57C21.91 17.46 21.75 17.39 21.6 17.39ZM25.2 17.39L24 17.39C23.84 17.39 23.68 17.46 23.57 17.57C23.46 17.68 23.4 17.84 23.4 17.99C23.4 18.15 23.46 18.31 23.57 18.42C23.68 18.53 23.84 18.59 24 18.59L25.2 18.59C25.35 18.59 25.51 18.53 25.62 18.42C25.73 18.31 25.8 18.15 25.8 17.99C25.8 17.84 25.73 17.68 25.62 17.57C25.51 17.46 25.35 17.39 25.2 17.39ZM30.9 4.28C30.83 4.24 30.75 4.21 30.67 4.2C30.6 4.19 30.52 4.19 30.44 4.21C30.36 4.23 30.29 4.27 30.23 4.32C30.17 4.36 30.11 4.42 30.07 4.49L26.27 11.02L25.02 9.77C24.91 9.66 24.75 9.6 24.6 9.6C24.44 9.6 24.29 9.67 24.18 9.78C24.07 9.89 24 10.04 24 10.2C24 10.35 24.06 10.51 24.17 10.62L25.97 12.42C26.08 12.53 26.24 12.59 26.4 12.59C26.42 12.59 26.45 12.59 26.47 12.59C26.56 12.58 26.65 12.55 26.73 12.5C26.8 12.44 26.87 12.38 26.91 12.3L31.11 5.1C31.15 5.03 31.18 4.95 31.19 4.88C31.2 4.8 31.19 4.72 31.17 4.64C31.15 4.57 31.12 4.49 31.07 4.43C31.02 4.37 30.96 4.32 30.9 4.28ZM12 16.19L8.39 16.19C8.24 16.19 8.08 16.26 7.97 16.37C7.86 16.48 7.79 16.64 7.79 16.79C7.79 16.95 7.86 17.11 7.97 17.22C8.08 17.33 8.24 17.39 8.39 17.39L12 17.39C12.15 17.39 12.31 17.33 12.42 17.22C12.53 17.11 12.6 16.95 12.6 16.79C12.6 16.64 12.53 16.48 12.42 16.37C12.31 16.26 12.15 16.19 12 16.19ZM10.2 18.59L8.39 18.59C8.24 18.59 8.08 18.66 7.97 18.77C7.86 18.88 7.79 19.04 7.79 19.19C7.79 19.35 7.86 19.51 7.97 19.62C8.08 19.73 8.24 19.79 8.39 19.79L10.2 19.79C10.35 19.79 10.51 19.73 10.62 19.62C10.73 19.51 10.8 19.35 10.8 19.19C10.8 19.04 10.73 18.88 10.62 18.77C10.51 18.66 10.35 18.59 10.2 18.59Z" fill="#2463CA" fill-opacity="1.000000" fill-rule="nonzero"/>
	</g>
</svg>
