<svg width="36.000000" height="36.000000" viewBox="0 0 36 36" fill="none" xmlns="http://www.w3.org/2000/svg" xmlns:xlink="http://www.w3.org/1999/xlink">
	<desc>
			Created with Pixso.
	</desc>
	<defs>
		<clipPath id="clip39_2241">
			<rect id="Frame" rx="-0.500000" width="35.000000" height="35.000000" transform="translate(0.500000 0.500000)" fill="white" fill-opacity="0"/>
		</clipPath>
	</defs>
	<rect id="Frame" rx="-0.500000" width="35.000000" height="35.000000" transform="translate(0.500000 0.500000)" fill="#FFFFFF" fill-opacity="0"/>
	<g clip-path="url(#clip39_2241)">
		<path id="Vector" d="M29.23 36L6.28 36C6.16 36 6.05 35.95 5.97 35.87C5.89 35.79 5.85 35.68 5.85 35.56C5.85 35.45 5.89 35.34 5.97 35.26C6.05 35.18 6.16 35.13 6.28 35.13L28.8 35.13L28.8 18.34C28.8 18.22 28.84 18.11 28.92 18.03C29 17.95 29.11 17.91 29.23 17.91C29.34 17.91 29.45 17.95 29.53 18.03C29.61 18.11 29.66 18.22 29.66 18.34L29.66 35.56C29.66 35.68 29.61 35.79 29.53 35.87C29.45 35.95 29.34 36 29.23 36ZM0.54 30.26C0.43 30.26 0.32 30.21 0.24 30.13C0.16 30.05 0.11 29.94 0.11 29.83L0.11 0.43C0.11 0.31 0.16 0.2 0.24 0.12C0.32 0.04 0.43 0 0.54 0L29.23 0C29.34 0 29.45 0.04 29.53 0.12C29.61 0.2 29.66 0.31 29.66 0.43L29.66 11.62C29.66 11.73 29.61 11.84 29.53 11.92C29.45 12.01 29.34 12.05 29.23 12.05C29.11 12.05 29 12.01 28.92 11.92C28.84 11.84 28.8 11.73 28.8 11.62L28.8 0.86L0.97 0.86L0.97 29.83C0.97 29.88 0.96 29.94 0.94 29.99C0.92 30.04 0.89 30.09 0.85 30.13C0.81 30.17 0.76 30.2 0.71 30.23C0.65 30.25 0.6 30.26 0.54 30.26Z" fill="#2463CA" fill-opacity="1.000000" fill-rule="nonzero"/>
		<path id="Vector" d="M6.28 36C6.22 36 6.17 35.98 6.11 35.96C6.06 35.94 6.01 35.91 5.97 35.87L0.24 30.13C0.18 30.07 0.14 30 0.12 29.91C0.1 29.83 0.11 29.74 0.14 29.66C0.18 29.58 0.23 29.52 0.3 29.47C0.37 29.42 0.46 29.4 0.54 29.4L6.28 29.4C6.39 29.4 6.5 29.44 6.58 29.52C6.66 29.6 6.71 29.71 6.71 29.83L6.71 35.56C6.71 35.68 6.66 35.79 6.58 35.87C6.5 35.95 6.39 36 6.28 36ZM1.58 30.26L5.85 34.53L5.85 30.26L1.58 30.26ZM22.54 29.4L25.28 29.4L25.28 30.26L22.54 30.26L22.54 29.4ZM17.91 28.27C17.49 28.27 17.08 28.07 16.83 27.75C16.68 27.56 16.58 27.34 16.5 27.12C16.41 27.19 16.32 27.25 16.22 27.3C15.62 27.59 14.96 27.52 14.52 27.44C14.04 27.35 13.6 27.21 13.21 27.03C13.06 27.09 12.92 27.15 12.77 27.19C11.88 27.46 11 27.28 10.4 26.72C10.32 26.64 10.28 26.54 10.27 26.42C10.27 26.31 10.31 26.2 10.39 26.12C10.47 26.04 10.58 25.99 10.69 25.98C10.8 25.98 10.91 26.02 10.99 26.1C11.31 26.4 11.79 26.51 12.29 26.42C12.17 26.31 12.05 26.19 11.95 26.07C11.19 25.18 10.95 23.91 11.35 22.92C11.7 22.07 12.52 21.46 13.4 21.41C14.22 21.36 15.05 21.77 15.62 22.5C15.91 22.87 16.07 23.26 16.11 23.65C16.22 24.75 15.36 25.55 14.71 26.05C14.53 26.2 14.34 26.34 14.16 26.47C14.33 26.52 14.5 26.56 14.68 26.59C15.19 26.69 15.55 26.67 15.83 26.53C16.07 26.41 16.29 26.14 16.33 25.85C16.33 25.78 16.32 25.71 16.32 25.64C16.32 25.53 16.36 25.42 16.44 25.34C16.51 25.26 16.61 25.21 16.72 25.2C16.83 25.2 16.94 25.23 17.03 25.3C17.11 25.37 17.17 25.47 17.18 25.58C17.19 25.67 17.2 25.77 17.19 25.87C17.2 26.4 17.26 26.9 17.51 27.22C17.63 27.38 17.84 27.43 17.99 27.4C18.14 27.37 18.16 27.27 18.17 27.24C18.18 27.21 18.18 27.18 18.19 27.16C18.22 27 18.27 26.77 18.47 26.61C18.73 26.41 19.03 26.47 19.14 26.5C19.41 26.55 19.68 26.62 19.94 26.68C21.16 26.98 22.32 27.27 23.25 26.67C23.35 26.61 23.46 26.59 23.57 26.62C23.68 26.64 23.78 26.71 23.84 26.81C23.9 26.9 23.92 27.02 23.9 27.13C23.87 27.24 23.81 27.33 23.71 27.4C22.47 28.19 21.02 27.83 19.74 27.52C19.49 27.46 19.26 27.4 19.03 27.35C19.02 27.39 19.01 27.43 19 27.47C18.89 27.87 18.58 28.16 18.16 28.24C18.07 28.26 17.99 28.27 17.91 28.27ZM13.53 22.27C13.5 22.27 13.47 22.27 13.45 22.27C12.89 22.3 12.37 22.69 12.15 23.24C11.87 23.93 12.06 24.87 12.6 25.51C12.78 25.72 12.99 25.9 13.22 26.05C13.55 25.86 13.86 25.62 14.18 25.37C14.96 24.77 15.31 24.25 15.26 23.74C15.23 23.51 15.13 23.27 14.94 23.03C14.57 22.55 14.04 22.27 13.53 22.27ZM27.23 23.65C27.17 23.65 27.12 23.64 27.06 23.62L24.8 22.71C24.7 22.67 24.61 22.58 24.57 22.48C24.52 22.37 24.52 22.26 24.56 22.15L30.76 6.76C30.8 6.65 30.88 6.57 30.99 6.52C31.09 6.48 31.21 6.48 31.32 6.52L33.58 7.43C33.63 7.45 33.68 7.48 33.72 7.52C33.76 7.56 33.79 7.61 33.82 7.66C33.84 7.71 33.85 7.77 33.85 7.83C33.85 7.88 33.84 7.94 33.82 7.99L27.62 23.38C27.59 23.46 27.54 23.53 27.47 23.58C27.4 23.63 27.31 23.65 27.23 23.65ZM25.52 22.07L26.99 22.66L32.86 8.07L31.39 7.48L25.52 22.07Z" fill="#2463CA" fill-opacity="1.000000" fill-rule="nonzero"/>
		<path id="Vector" d="M33.42 8.26C33.37 8.26 33.31 8.25 33.26 8.23L31 7.32C30.94 7.3 30.9 7.27 30.85 7.23C30.81 7.19 30.78 7.14 30.76 7.09C30.74 7.04 30.73 6.98 30.73 6.92C30.73 6.87 30.74 6.81 30.76 6.76L32.19 3.2C32.27 3.01 32.47 2.88 32.71 2.94L34.95 3.84C35.2 3.94 35.33 4.24 35.23 4.5L33.82 7.99C33.79 8.07 33.73 8.14 33.66 8.19C33.59 8.23 33.51 8.26 33.42 8.26ZM31.72 6.68L33.18 7.27L34.29 4.51L32.83 3.92L31.72 6.68ZM24.21 27.88C24.14 27.88 24.08 27.87 24.03 27.85C23.97 27.82 23.92 27.78 23.88 27.74C23.84 27.69 23.81 27.63 23.79 27.57C23.78 27.52 23.77 27.45 23.78 27.39L24.54 22.25C24.54 22.18 24.57 22.12 24.61 22.07C24.64 22.01 24.69 21.97 24.75 21.94C24.8 21.9 24.87 21.89 24.93 21.88C25 21.88 25.06 21.89 25.12 21.91L27.39 22.82C27.45 22.85 27.5 22.88 27.54 22.93C27.59 22.98 27.62 23.04 27.64 23.1C27.66 23.16 27.66 23.23 27.65 23.29C27.64 23.36 27.61 23.42 27.58 23.47L24.56 27.7C24.52 27.76 24.46 27.81 24.4 27.84C24.34 27.87 24.28 27.88 24.21 27.88ZM25.31 22.91L24.89 25.75L26.56 23.42L25.31 22.91Z" fill="#2463CA" fill-opacity="1.000000" fill-rule="nonzero"/>
		<path id="Vector" d="M32.04 15.97C31.97 15.97 31.9 15.96 31.84 15.92C31.77 15.89 31.72 15.84 31.68 15.78C31.64 15.73 31.62 15.66 31.61 15.59C31.6 15.52 31.61 15.45 31.64 15.38L35.01 7.02C35.04 6.93 34.99 6.82 34.96 6.76C34.88 6.63 34.73 6.51 34.56 6.44C34.5 6.42 34.45 6.39 34.41 6.35C34.37 6.31 34.34 6.27 34.32 6.21C34.29 6.16 34.28 6.11 34.28 6.05C34.28 5.99 34.29 5.93 34.31 5.88C34.33 5.83 34.36 5.78 34.4 5.74C34.44 5.7 34.49 5.67 34.54 5.64C34.6 5.62 34.65 5.61 34.71 5.61C34.77 5.61 34.83 5.62 34.88 5.65C35.23 5.79 35.52 6.02 35.7 6.32C35.89 6.65 35.93 7.02 35.81 7.34L32.44 15.7C32.41 15.78 32.35 15.85 32.28 15.9C32.21 15.95 32.12 15.97 32.04 15.97ZM4.23 4.35L10.34 4.35L10.34 5.21L4.23 5.21L4.23 4.35ZM4.23 8.63L24.95 8.63L24.95 9.49L4.23 9.49L4.23 8.63ZM4.23 11.48L24.95 11.48L24.95 12.34L4.23 12.34L4.23 11.48ZM4.23 14.33L24.95 14.33L24.95 15.19L4.23 15.19L4.23 14.33Z" fill="#2463CA" fill-opacity="1.000000" fill-rule="nonzero"/>
	</g>
</svg>
