<svg width="40.000000" height="40.000000" viewBox="0 0 40 40" fill="none" xmlns="http://www.w3.org/2000/svg" xmlns:xlink="http://www.w3.org/1999/xlink">
	<desc>
			Created with Pixso.
	</desc>
	<defs>
		<clipPath id="clip29_53">
			<rect id="ic:baseline-telegram" rx="-0.500000" width="39.000000" height="39.000000" transform="translate(0.500000 0.500000)" fill="white" fill-opacity="0"/>
		</clipPath>
	</defs>
	<rect id="ic:baseline-telegram" rx="-0.500000" width="39.000000" height="39.000000" transform="translate(0.500000 0.500000)" fill="#FFFFFF" fill-opacity="0"/>
	<g clip-path="url(#clip29_53)">
		<path id="Vector" d="M20 3.33C10.8 3.33 3.33 10.8 3.33 20C3.33 29.2 10.8 36.66 20 36.66C29.2 36.66 36.66 29.2 36.66 20C36.66 10.8 29.2 3.33 20 3.33ZM27.73 14.66C27.48 17.3 26.4 23.7 25.85 26.65C25.61 27.9 25.15 28.31 24.71 28.36C23.75 28.45 23.01 27.73 22.08 27.11C20.61 26.15 19.78 25.55 18.36 24.61C16.71 23.53 17.78 22.93 18.73 21.96C18.98 21.71 23.25 17.83 23.33 17.48C23.34 17.43 23.34 17.37 23.32 17.32C23.31 17.27 23.28 17.22 23.25 17.18C23.15 17.1 23.01 17.13 22.9 17.15C22.75 17.18 20.41 18.73 15.86 21.8C15.2 22.25 14.6 22.48 14.06 22.46C13.46 22.45 12.33 22.13 11.48 21.85C10.43 21.51 9.61 21.33 9.68 20.75C9.71 20.45 10.13 20.15 10.91 19.83C15.78 17.71 19.01 16.31 20.63 15.65C25.26 13.71 26.21 13.38 26.85 13.38C26.98 13.38 27.3 13.41 27.5 13.58C27.66 13.71 27.71 13.9 27.73 14.03C27.71 14.13 27.75 14.43 27.73 14.66Z" fill="#2463CA" fill-opacity="1.000000" fill-rule="nonzero"/>
	</g>
</svg>
