<svg width="29.000000" height="33.000000" viewBox="0 0 29 33" fill="none" xmlns="http://www.w3.org/2000/svg" xmlns:xlink="http://www.w3.org/1999/xlink">
	<desc>
			Created with Pixso.
	</desc>
	<defs/>
	<path id="Vector" d="M14 -0.13C9.65 -0.13 6.12 3.4 6.12 7.75C6.12 12.09 9.65 15.62 14 15.62C18.34 15.62 21.87 12.09 21.87 7.75C21.87 3.4 18.34 -0.13 14 -0.13ZM14 2.12C17.1 2.12 19.62 4.64 19.62 7.75C19.62 10.85 17.1 13.37 14 13.37C10.89 13.37 8.37 10.85 8.37 7.75C8.37 4.64 10.89 2.12 14 2.12ZM1.62 31C1.62 24.17 7.17 18.62 14 18.62C20.82 18.62 26.37 24.17 26.37 31L26.37 32.12L28.62 32.12L28.62 31C28.62 22.92 22.07 16.37 14 16.37C5.92 16.37 -0.63 22.92 -0.63 31L-0.63 32.12L1.62 32.12L1.62 31Z" fill="#2463CA" fill-opacity="1.000000" fill-rule="evenodd"/>
</svg>
