<svg width="24.000000" height="24.000000" viewBox="0 0 24 24" fill="none" xmlns="http://www.w3.org/2000/svg" xmlns:xlink="http://www.w3.org/1999/xlink">
	<desc>
			Created with Pixso.
	</desc>
	<defs>
		<clipPath id="clip39_1901">
			<rect id="entypo-social:vk-with-circle" rx="-0.500000" width="23.000000" height="23.000000" transform="translate(0.500000 0.500000)" fill="white" fill-opacity="0"/>
		</clipPath>
	</defs>
	<rect id="entypo-social:vk-with-circle" rx="-0.500000" width="23.000000" height="23.000000" transform="translate(0.500000 0.500000)" fill="#FFFFFF" fill-opacity="0"/>
	<g clip-path="url(#clip39_1901)">
		<path id="Vector" d="M12 0.47C5.63 0.47 0.48 5.63 0.48 12C0.48 18.36 5.63 23.52 12 23.52C18.36 23.52 23.52 18.36 23.52 12C23.52 5.63 18.36 0.47 12 0.47ZM16.43 13.47C16.43 13.47 17.44 14.48 17.7 14.94C17.7 14.95 17.71 14.96 17.71 14.97C17.81 15.14 17.83 15.27 17.78 15.37C17.7 15.54 17.41 15.62 17.31 15.63L15.51 15.63C15.39 15.63 15.13 15.6 14.81 15.38C14.57 15.21 14.33 14.93 14.09 14.65C13.74 14.25 13.44 13.9 13.14 13.9C13.1 13.9 13.06 13.9 13.02 13.92C12.79 13.99 12.5 14.32 12.5 15.2C12.5 15.47 12.28 15.63 12.13 15.63L11.3 15.63C11.02 15.63 9.56 15.53 8.26 14.16C6.68 12.49 5.25 9.13 5.24 9.1C5.15 8.88 5.33 8.76 5.54 8.76L7.36 8.76C7.6 8.76 7.68 8.91 7.73 9.04C7.8 9.2 8.03 9.8 8.42 10.48C9.06 11.59 9.44 12.05 9.75 12.05C9.81 12.04 9.87 12.03 9.92 12C10.33 11.78 10.25 10.33 10.23 10.03C10.23 9.97 10.23 9.38 10.03 9.1C9.88 8.9 9.62 8.82 9.47 8.79C9.53 8.7 9.61 8.63 9.71 8.59C9.99 8.45 10.49 8.43 10.99 8.43L11.26 8.43C11.8 8.43 11.94 8.47 12.14 8.52C12.53 8.61 12.54 8.87 12.51 9.74C12.5 9.99 12.49 10.27 12.49 10.6C12.49 10.68 12.48 10.75 12.48 10.83C12.47 11.28 12.46 11.78 12.77 11.99C12.81 12.02 12.86 12.03 12.91 12.03C13.02 12.03 13.35 12.03 14.24 10.5C14.51 10.01 14.75 9.5 14.95 8.97C14.97 8.94 15.02 8.85 15.08 8.81C15.13 8.79 15.18 8.77 15.23 8.78L17.37 8.78C17.6 8.78 17.76 8.81 17.79 8.9C17.84 9.04 17.78 9.48 16.81 10.8L16.37 11.37C15.49 12.53 15.49 12.59 16.43 13.47Z" fill="#333435" fill-opacity="1.000000" fill-rule="nonzero"/>
	</g>
</svg>
