<svg width="36.000000" height="35.000000" viewBox="0 0 36 35" fill="none" xmlns="http://www.w3.org/2000/svg" xmlns:xlink="http://www.w3.org/1999/xlink">
	<desc>
			Created with Pixso.
	</desc>
	<defs/>
	<path id="Vector" d="M16.96 25.64C16.69 25.44 16.3 25.5 16.11 25.77L16.03 25.87C15.93 26 15.89 26.16 15.92 26.32C15.94 26.48 16.03 26.62 16.16 26.72C16.26 26.8 16.39 26.84 16.52 26.84C16.62 26.84 16.71 26.82 16.79 26.77C16.88 26.73 16.95 26.67 17.01 26.59L17.09 26.49C17.18 26.36 17.22 26.19 17.2 26.03C17.17 25.87 17.09 25.73 16.96 25.64Z" fill="#FFFFFF" fill-opacity="1.000000" fill-rule="nonzero"/>
	<path id="Vector" d="M17.12 31.43L15.55 28.58L17.01 26.59C17.06 26.52 17.09 26.45 17.11 26.37C17.13 26.3 17.13 26.22 17.12 26.14C17.11 26.06 17.08 25.98 17.04 25.91C17 25.84 16.95 25.79 16.88 25.74C16.82 25.69 16.74 25.66 16.67 25.64C16.59 25.62 16.51 25.61 16.43 25.63C16.35 25.64 16.27 25.67 16.2 25.71C16.14 25.75 16.08 25.8 16.03 25.87L14.34 28.17C14.27 28.27 14.23 28.38 14.22 28.49C14.21 28.61 14.24 28.72 14.3 28.83L16.05 32.01L16.05 32.01C16.13 32.15 16.26 32.26 16.41 32.3C16.57 32.35 16.73 32.33 16.87 32.25C16.95 32.21 17.01 32.16 17.06 32.1C17.11 32.04 17.14 31.97 17.17 31.89C17.19 31.81 17.2 31.73 17.19 31.65C17.18 31.57 17.15 31.5 17.12 31.43ZM21.65 28.17L19.97 25.88C19.87 25.75 19.73 25.66 19.57 25.64C19.41 25.62 19.25 25.66 19.12 25.75C18.99 25.85 18.9 25.99 18.88 26.15C18.85 26.31 18.89 26.47 18.99 26.6L20.44 28.58L18.89 31.41C18.81 31.55 18.79 31.71 18.83 31.87C18.88 32.02 18.98 32.16 19.12 32.23C19.27 32.31 19.43 32.33 19.59 32.28C19.74 32.24 19.87 32.14 19.95 31.99L21.69 28.83C21.75 28.72 21.78 28.61 21.77 28.49C21.76 28.38 21.72 28.27 21.65 28.17ZM22.62 18.61C22.52 18.56 22.41 18.53 22.3 18.54C22.19 18.55 22.08 18.58 21.99 18.64C21.63 18.89 21.29 19.16 20.99 19.43C19.35 20.91 17.79 20.71 17.73 20.7C17.7 20.7 17.66 20.69 17.62 20.69C16.98 20.71 15.81 20.12 14.57 19.15C14.39 19 14.2 18.86 14 18.73C13.91 18.67 13.8 18.63 13.69 18.63C13.58 18.62 13.47 18.64 13.37 18.7C13.27 18.75 13.19 18.83 13.14 18.92C13.08 19.02 13.05 19.12 13.05 19.23L13.05 21.32C13.05 21.42 13.07 21.53 13.12 21.61C13.17 21.7 13.24 21.78 13.33 21.84L17.65 24.72C17.65 24.72 17.65 24.72 17.65 24.72L17.66 24.73C17.76 24.79 17.88 24.83 18 24.83C18.12 24.83 18.24 24.79 18.34 24.72L18.34 24.72C18.35 24.72 18.35 24.72 18.35 24.71L22.66 21.84C22.74 21.78 22.82 21.71 22.87 21.62C22.92 21.53 22.94 21.43 22.94 21.32L22.94 19.15C22.94 19.04 22.91 18.93 22.85 18.83C22.8 18.74 22.71 18.66 22.62 18.61ZM21.72 21L18 23.49L14.27 21L14.27 20.44C15.17 21.1 16.51 21.91 17.6 21.91L17.61 21.91C17.97 21.95 19.84 22.06 21.72 20.41L21.72 21L21.72 21Z" fill="#FFFFFF" fill-opacity="1.000000" fill-rule="nonzero"/>
	<path id="Vector" d="M18.6 24.12C18.58 24 18.52 23.89 18.44 23.81C18.36 23.72 18.25 23.66 18.14 23.63C18.02 23.6 17.9 23.61 17.79 23.65C17.67 23.69 17.58 23.76 17.5 23.86L16.11 25.77C16.06 25.83 16.02 25.9 16 25.98C15.99 26.06 15.98 26.14 15.99 26.22C16.01 26.3 16.03 26.37 16.08 26.44C16.12 26.51 16.17 26.57 16.24 26.62C16.34 26.69 16.47 26.74 16.6 26.74C16.69 26.74 16.79 26.71 16.87 26.67C16.96 26.63 17.03 26.56 17.09 26.49L18.48 24.59C18.53 24.52 18.57 24.45 18.59 24.37C18.61 24.29 18.61 24.2 18.6 24.12ZM27.27 4.5C27.26 4.4 26.97 2.35 25.03 1.53C25.09 1.17 25.08 0.71 24.85 0.26C24.55 -0.35 23.94 -0.75 23.05 -0.92C23.01 -0.93 22.97 -0.93 22.93 -0.93L14.76 -0.93C11.44 -0.93 8.74 1.77 8.74 5.08L8.74 8.29C8.74 9.13 9.03 9.94 9.55 10.58C9.8 10.9 10.12 11.46 10.16 12.3C10.17 12.46 10.24 12.61 10.36 12.72C10.48 12.82 10.63 12.88 10.79 12.88C10.95 12.87 11.1 12.81 11.21 12.69C11.32 12.58 11.38 12.43 11.38 12.27L11.38 8.09C11.79 6.38 13.21 6.05 13.45 6L16.09 6C16.4 6 16.71 5.95 17 5.86C17.5 5.7 18.3 5.4 18.88 5.18C19.27 5.03 19.7 5.03 20.09 5.17L22.92 6.16C24.33 6.68 24.58 7.92 24.62 8.12L24.62 13.13C24.62 13.21 24.63 13.29 24.66 13.37C24.69 13.44 24.74 13.51 24.79 13.56C24.85 13.62 24.92 13.67 24.99 13.7C25.07 13.73 25.15 13.74 25.23 13.74C25.37 13.74 25.51 13.69 25.62 13.59C25.73 13.5 25.8 13.37 25.83 13.22C25.83 13.21 26.07 11.64 26.86 10.38C27.13 9.94 27.27 9.44 27.27 8.94L27.27 4.58C27.27 4.55 27.27 4.52 27.27 4.5ZM26.06 8.94C26.06 9.21 25.98 9.48 25.83 9.72L25.83 8.08C25.83 8.05 25.83 8.03 25.83 8.01C25.82 7.92 25.57 5.84 23.33 5.02L23.33 5.01L20.49 4.02C20.17 3.91 19.84 3.85 19.5 3.85C19.15 3.85 18.79 3.91 18.45 4.04C17.63 4.35 17 4.58 16.63 4.7C16.45 4.76 16.27 4.78 16.09 4.78L13.4 4.78C13.37 4.78 13.35 4.79 13.32 4.79C13.22 4.8 10.79 5.15 10.18 7.89C10.17 7.93 10.16 7.97 10.16 8.02L10.16 9.27C10.03 8.96 9.96 8.63 9.96 8.29L9.96 5.08C9.96 2.44 12.11 0.29 14.76 0.29L22.87 0.29C23.2 0.36 23.61 0.5 23.77 0.8C23.96 1.17 23.74 1.67 23.74 1.67C23.7 1.75 23.68 1.84 23.68 1.93C23.68 2.02 23.7 2.11 23.74 2.19C23.78 2.28 23.84 2.35 23.91 2.4C23.98 2.46 24.06 2.5 24.15 2.52C25.7 2.89 26.01 4.38 26.05 4.62L26.06 8.94Z" fill="#FFFFFF" fill-opacity="1.000000" fill-rule="nonzero"/>
	<path id="Vector" d="M25.83 8.01C25.82 7.92 25.57 5.84 23.33 5.02L23.33 5.01L20.49 4.02C19.83 3.79 19.1 3.79 18.45 4.04C17.63 4.35 17 4.58 16.63 4.7C16.45 4.76 16.27 4.78 16.09 4.78L13.4 4.78C13.37 4.78 13.35 4.79 13.32 4.79C13.22 4.8 10.79 5.15 10.18 7.89C10.17 7.93 10.16 7.97 10.16 8.02L10.16 13.25L10.16 13.26C10.17 13.45 10.3 17.74 13.26 19.7L13.28 19.71C13.29 19.72 13.3 19.73 13.32 19.74C13.49 19.86 13.66 19.98 13.82 20.11C14.69 20.79 16.31 21.91 17.6 21.91L17.61 21.91C17.67 21.92 17.8 21.93 17.97 21.93C18.7 21.93 20.25 21.74 21.81 20.33C22.07 20.1 22.36 19.87 22.68 19.65L22.72 19.62C22.74 19.61 22.75 19.59 22.77 19.58C23.76 18.92 25.47 17.21 25.83 13.19C25.83 13.17 25.83 13.15 25.83 13.13L25.83 8.08C25.83 8.05 25.83 8.03 25.83 8.01ZM24.62 13.11C24.28 16.73 22.74 18.14 22.09 18.57C22.07 18.59 22.04 18.61 22.02 18.62L21.99 18.64C21.62 18.89 21.29 19.16 20.99 19.43C19.36 20.91 17.81 20.71 17.73 20.7C17.69 20.7 17.66 20.69 17.62 20.69C16.98 20.71 15.81 20.12 14.57 19.15C14.38 19 14.19 18.86 14 18.73L13.98 18.72C13.97 18.71 13.95 18.7 13.94 18.69C11.54 17.1 11.39 13.4 11.38 13.24L11.38 8.09C11.8 6.37 13.22 6.04 13.45 6L16.09 6C16.4 6 16.71 5.95 17 5.86C17.5 5.7 18.3 5.4 18.88 5.18C19.27 5.03 19.7 5.03 20.09 5.17L22.92 6.16C24.33 6.68 24.58 7.92 24.62 8.12L24.62 13.11L24.62 13.11ZM18.54 23.95C18.49 23.86 18.42 23.78 18.34 23.72C18.25 23.66 18.15 23.62 18.05 23.61C17.94 23.61 17.84 23.62 17.74 23.67C17.65 23.71 17.57 23.78 17.5 23.86L16.05 25.85C15.95 25.98 15.91 26.14 15.94 26.3C15.96 26.46 16.05 26.6 16.18 26.7C16.28 26.77 16.41 26.82 16.54 26.82C16.63 26.82 16.73 26.79 16.81 26.75C16.9 26.71 16.97 26.64 17.03 26.57L18.48 24.59C18.56 24.48 18.6 24.35 18.6 24.22C18.6 24.13 18.58 24.03 18.54 23.95ZM18.58 33.75C18.47 33.63 18.32 33.57 18.16 33.56C18 33.56 17.84 33.61 17.73 33.72L17.59 33.85C17.49 33.94 17.42 34.06 17.4 34.2C17.38 34.33 17.4 34.47 17.47 34.59L17.47 34.6C17.52 34.68 17.58 34.75 17.66 34.81C17.74 34.86 17.83 34.89 17.92 34.91C18.01 34.92 18.11 34.91 18.2 34.88C18.29 34.85 18.37 34.8 18.43 34.73L18.57 34.6C18.68 34.49 18.75 34.34 18.75 34.18C18.75 34.02 18.69 33.86 18.58 33.75Z" fill="#FFFFFF" fill-opacity="1.000000" fill-rule="nonzero"/>
	<path id="Vector" d="M18.4 33.85L18.26 33.72C18.14 33.61 17.99 33.56 17.83 33.56C17.67 33.57 17.52 33.63 17.41 33.75C17.3 33.86 17.24 34.02 17.24 34.18C17.25 34.34 17.31 34.49 17.42 34.6L17.56 34.74C17.62 34.8 17.7 34.85 17.79 34.88C17.88 34.91 17.98 34.92 18.07 34.91C18.17 34.89 18.25 34.86 18.33 34.81C18.41 34.75 18.47 34.68 18.52 34.6L18.52 34.59C18.59 34.47 18.61 34.33 18.59 34.2C18.57 34.06 18.5 33.94 18.4 33.85Z" fill="#FFFFFF" fill-opacity="1.000000" fill-rule="nonzero"/>
	<path id="Vector" d="M18.41 33.86L18.41 33.86C18.3 33.75 18.15 33.69 18 33.69C17.84 33.69 17.69 33.75 17.58 33.86L17.58 33.86C17.52 33.91 17.47 33.98 17.43 34.05C17.4 34.13 17.38 34.21 17.38 34.29C17.38 34.38 17.39 34.46 17.42 34.53C17.45 34.61 17.5 34.68 17.56 34.74L17.57 34.74C17.68 34.86 17.83 34.92 18 34.92C18.08 34.92 18.15 34.91 18.23 34.88C18.3 34.84 18.37 34.8 18.42 34.74L18.43 34.74C18.49 34.68 18.54 34.61 18.57 34.53C18.6 34.46 18.61 34.38 18.61 34.29C18.61 34.21 18.59 34.13 18.56 34.05C18.52 33.98 18.47 33.91 18.41 33.86ZM18.19 23.63C17.94 23.55 17.66 23.64 17.51 23.86C17.34 24.1 17.37 24.43 17.58 24.64C17.63 24.7 17.7 24.74 17.77 24.77C17.85 24.8 17.93 24.82 18.01 24.82C18.13 24.82 18.25 24.78 18.36 24.71C18.44 24.65 18.5 24.58 18.55 24.49C18.59 24.41 18.62 24.31 18.62 24.21L18.62 24.21C18.62 23.95 18.45 23.71 18.19 23.63Z" fill="#FFFFFF" fill-opacity="1.000000" fill-rule="nonzero"/>
	<path id="Vector" d="M18.49 23.86L18.48 23.85C18.41 23.75 18.3 23.67 18.18 23.63C18.06 23.59 17.93 23.59 17.8 23.63C17.68 23.67 17.58 23.75 17.5 23.85C17.43 23.96 17.39 24.08 17.39 24.21L17.39 24.22C17.39 24.44 17.51 24.65 17.71 24.76C17.8 24.8 17.9 24.83 18 24.83C18.12 24.83 18.23 24.79 18.34 24.72C18.41 24.68 18.46 24.62 18.51 24.55C18.55 24.48 18.59 24.4 18.6 24.32C18.61 24.24 18.61 24.16 18.59 24.08C18.57 24 18.54 23.92 18.49 23.86Z" fill="#FFFFFF" fill-opacity="1.000000" fill-rule="nonzero"/>
	<path id="Vector" d="M25.24 21.94C25.21 21.86 25.16 21.79 25.09 21.73C25.03 21.66 24.96 21.62 24.87 21.59L22.54 20.75C22.45 20.72 22.35 20.71 22.26 20.72C22.16 20.73 22.07 20.76 22 20.82L17.67 23.71L17.67 23.71L18.01 24.21L17.66 23.71C17.56 23.78 17.48 23.87 17.44 23.98C17.39 24.09 17.38 24.21 17.4 24.32C17.41 24.42 17.45 24.5 17.5 24.58L20.67 28.89C20.73 28.98 20.81 29.04 20.9 29.08C21 29.13 21.1 29.15 21.2 29.14C21.3 29.13 21.4 29.1 21.49 29.05C21.57 28.99 21.65 28.92 21.69 28.83L25.2 22.45C25.24 22.38 25.27 22.29 25.27 22.2C25.28 22.11 25.27 22.03 25.24 21.94ZM21.09 27.4L18.86 24.37L22.42 22L23.79 22.49L21.09 27.4Z" fill="#FFFFFF" fill-opacity="1.000000" fill-rule="nonzero"/>
	<path id="Vector" d="M18.59 24.12C18.58 24.04 18.55 23.96 18.51 23.89C18.46 23.82 18.4 23.76 18.33 23.72L14 20.82C13.92 20.76 13.83 20.73 13.73 20.72C13.64 20.71 13.54 20.72 13.45 20.75L11.12 21.59C11.04 21.62 10.96 21.66 10.9 21.72C10.83 21.79 10.79 21.86 10.75 21.94C10.72 22.03 10.71 22.11 10.72 22.2C10.72 22.29 10.75 22.38 10.79 22.45L14.3 28.83C14.35 28.92 14.43 29 14.52 29.06C14.61 29.11 14.72 29.14 14.83 29.14C14.92 29.14 15.02 29.12 15.1 29.08C15.19 29.03 15.26 28.97 15.32 28.89L17.01 26.59L17.02 26.58L18.49 24.58C18.53 24.51 18.57 24.44 18.59 24.36C18.61 24.28 18.61 24.2 18.59 24.12ZM16.03 25.87L16.03 25.87L14.9 27.4L12.2 22.49L13.57 22L17.13 24.37L16.03 25.87ZM35.96 32.33L35.18 27.59C34.93 26.1 33.89 24.85 32.47 24.33L24.87 21.59C24.76 21.55 24.63 21.54 24.52 21.57C24.4 21.6 24.29 21.66 24.21 21.75C24.13 21.85 24.08 21.96 24.06 22.08C24.05 22.2 24.07 22.32 24.12 22.43L25.71 25.61L24.15 25.64C24.05 25.64 23.95 25.66 23.86 25.72C23.77 25.77 23.69 25.84 23.64 25.93C23.58 26.02 23.55 26.12 23.55 26.23C23.55 26.33 23.57 26.43 23.62 26.53L24.26 27.75L17.73 33.72C17.72 33.73 17.71 33.73 17.71 33.74L17.57 33.87C17.48 33.97 17.42 34.09 17.4 34.22C17.38 34.35 17.41 34.48 17.47 34.6L17.47 34.61C17.53 34.7 17.6 34.78 17.7 34.84C17.79 34.89 17.9 34.92 18.01 34.92L33.77 34.92C34.09 34.92 34.41 34.85 34.71 34.72C35 34.58 35.26 34.38 35.47 34.14C35.68 33.89 35.83 33.6 35.91 33.29C36 32.98 36.02 32.65 35.96 32.33ZM34.54 33.35C34.44 33.46 34.33 33.55 34.19 33.61C34.06 33.67 33.92 33.7 33.77 33.7L19.55 33.7L25.43 28.33C25.53 28.24 25.59 28.12 25.62 27.98C25.64 27.85 25.62 27.71 25.56 27.6L25.16 26.84L26.69 26.81C26.8 26.81 26.9 26.78 26.99 26.73C27.08 26.68 27.15 26.61 27.2 26.52C27.26 26.43 27.29 26.33 27.29 26.23C27.3 26.13 27.27 26.03 27.23 25.93L25.89 23.25L32.06 25.48C33.07 25.85 33.8 26.73 33.98 27.79L34.76 32.53L34.76 32.53C34.79 32.68 34.78 32.82 34.74 32.97C34.7 33.11 34.63 33.24 34.54 33.35Z" fill="#FFFFFF" fill-opacity="1.000000" fill-rule="nonzero"/>
	<path id="Vector" d="M18.42 33.86L18.41 33.86C18.29 33.75 18.14 33.69 17.99 33.7C17.83 33.7 17.68 33.77 17.57 33.88L17.56 33.88C17.48 33.97 17.42 34.08 17.4 34.2C17.37 34.31 17.39 34.44 17.43 34.55C17.48 34.66 17.56 34.75 17.66 34.82C17.76 34.89 17.87 34.92 18 34.92L18.01 34.92C18.13 34.92 18.25 34.88 18.35 34.82C18.45 34.75 18.53 34.65 18.58 34.53C18.62 34.42 18.63 34.29 18.6 34.17C18.57 34.05 18.51 33.94 18.42 33.86Z" fill="#FFFFFF" fill-opacity="1.000000" fill-rule="nonzero"/>
	<path id="Vector" d="M18.4 33.84C18.33 33.78 18.25 33.74 18.16 33.71C18.07 33.69 17.98 33.68 17.89 33.7C17.8 33.71 17.71 33.75 17.64 33.8C17.56 33.85 17.5 33.92 17.46 34L17.45 34.01C17.39 34.13 17.37 34.26 17.38 34.39C17.4 34.51 17.46 34.63 17.55 34.73L17.55 34.73C17.61 34.79 17.68 34.84 17.75 34.87C17.83 34.9 17.91 34.92 17.99 34.92C18.14 34.92 18.28 34.86 18.4 34.76L18.41 34.75C18.46 34.7 18.51 34.64 18.54 34.57C18.66 34.33 18.6 34.03 18.4 33.84Z" fill="#FFFFFF" fill-opacity="1.000000" fill-rule="nonzero"/>
	<path id="Vector" d="M18.42 33.88L18.42 33.88L18.42 33.87L18.28 33.74C18.28 33.73 18.27 33.73 18.26 33.72L11.73 27.74L12.37 26.53C12.42 26.43 12.44 26.33 12.44 26.23C12.43 26.12 12.41 26.02 12.35 25.93C12.3 25.84 12.22 25.77 12.13 25.72C12.04 25.66 11.94 25.64 11.84 25.64L10.28 25.61L11.87 22.43C11.98 22.21 11.94 21.94 11.78 21.75C11.61 21.57 11.35 21.5 11.12 21.59L3.52 24.33C2.1 24.85 1.06 26.1 0.81 27.59L0.03 32.33C-0.03 32.65 -0.01 32.98 0.08 33.29C0.16 33.6 0.31 33.89 0.52 34.14C0.73 34.38 0.99 34.58 1.29 34.72C1.58 34.85 1.9 34.92 2.22 34.92L18 34.92C18.12 34.92 18.23 34.89 18.33 34.82C18.43 34.75 18.51 34.66 18.56 34.55C18.6 34.43 18.62 34.31 18.59 34.19C18.57 34.07 18.51 33.97 18.42 33.88ZM2.22 33.7C2.07 33.7 1.93 33.67 1.8 33.61C1.66 33.55 1.55 33.46 1.45 33.35C1.36 33.24 1.29 33.11 1.25 32.97C1.21 32.82 1.2 32.68 1.23 32.53L2.01 27.79C2.1 27.27 2.32 26.78 2.66 26.37C3 25.97 3.44 25.66 3.93 25.48L10.1 23.25L8.76 25.93C8.72 26.03 8.69 26.13 8.7 26.23C8.7 26.33 8.73 26.43 8.79 26.52C8.84 26.61 8.91 26.68 9 26.73C9.09 26.78 9.19 26.81 9.3 26.81L10.83 26.84L10.43 27.6C10.37 27.71 10.35 27.85 10.37 27.98C10.4 28.11 10.46 28.24 10.56 28.33L16.44 33.7L2.22 33.7Z" fill="#FFFFFF" fill-opacity="1.000000" fill-rule="nonzero"/>
	<path id="Vector" d="M20.07 26.39C20.09 26.3 20.09 26.21 20.07 26.12C20.06 26.03 20.02 25.95 19.97 25.88L18.49 23.86C18.33 23.65 18.06 23.56 17.81 23.65C17.67 23.69 17.56 23.78 17.49 23.89L16.03 25.87C15.96 25.97 15.91 26.09 15.91 26.22C15.91 26.35 15.95 26.47 16.02 26.58L16.64 27.47L15.98 31.62C15.96 31.76 15.98 31.89 16.05 32.01L17.46 34.58C17.51 34.68 17.59 34.76 17.69 34.81C17.78 34.87 17.89 34.9 18 34.9C18.1 34.9 18.21 34.87 18.3 34.81C18.4 34.76 18.48 34.68 18.53 34.58L19.95 31.99C20 31.9 20.03 31.8 20.03 31.7L20.03 31.7C20.03 31.67 20.02 31.64 20.02 31.6L19.36 27.47L19.98 26.59C20.02 26.53 20.05 26.46 20.07 26.39ZM18 33.03L17.22 31.61L17.88 27.41C17.91 27.26 17.87 27.1 17.78 26.97L17.27 26.24L18 25.25L18.73 26.25L18.22 26.97C18.13 27.1 18.1 27.26 18.12 27.41L18.79 31.59L18 33.03Z" fill="#FFFFFF" fill-opacity="1.000000" fill-rule="nonzero"/>
</svg>
