<svg width="36.000000" height="36.000000" viewBox="0 0 36 36" fill="none" xmlns="http://www.w3.org/2000/svg" xmlns:xlink="http://www.w3.org/1999/xlink">
	<desc>
			Created with Pixso.
	</desc>
	<defs>
		<clipPath id="clip39_2196">
			<rect id="Frame" rx="-0.500000" width="35.000000" height="35.000000" transform="translate(0.500000 0.500000)" fill="white" fill-opacity="0"/>
		</clipPath>
	</defs>
	<rect id="Frame" rx="-0.500000" width="35.000000" height="35.000000" transform="translate(0.500000 0.500000)" fill="#FFFFFF" fill-opacity="0"/>
	<g clip-path="url(#clip39_2196)">
		<path id="Vector" d="M16.96 26.64C16.69 26.44 16.3 26.5 16.11 26.77L16.03 26.87C15.93 27 15.89 27.16 15.92 27.32C15.94 27.48 16.03 27.62 16.16 27.72C16.26 27.8 16.39 27.84 16.52 27.84C16.62 27.84 16.71 27.82 16.79 27.77C16.88 27.73 16.95 27.67 17.01 27.59L17.09 27.49C17.18 27.36 17.22 27.19 17.2 27.03C17.17 26.87 17.09 26.73 16.96 26.64Z" fill="#FFFFFF" fill-opacity="1.000000" fill-rule="nonzero"/>
		<path id="Vector" d="M17.12 32.43L15.55 29.58L17.01 27.59C17.06 27.52 17.09 27.45 17.11 27.37C17.13 27.3 17.13 27.22 17.12 27.14C17.11 27.06 17.08 26.98 17.04 26.91C17 26.84 16.95 26.79 16.88 26.74C16.82 26.69 16.74 26.66 16.67 26.64C16.59 26.62 16.51 26.61 16.43 26.63C16.35 26.64 16.27 26.67 16.2 26.71C16.14 26.75 16.08 26.8 16.03 26.87L14.34 29.17C14.27 29.27 14.23 29.38 14.22 29.49C14.21 29.61 14.24 29.72 14.3 29.83L16.05 33.01L16.05 33.01C16.13 33.15 16.26 33.26 16.41 33.3C16.57 33.35 16.73 33.33 16.87 33.25C16.95 33.21 17.01 33.16 17.06 33.1C17.11 33.04 17.14 32.97 17.17 32.89C17.19 32.81 17.2 32.73 17.19 32.65C17.18 32.57 17.15 32.5 17.12 32.43ZM21.65 29.17L19.97 26.88C19.87 26.75 19.73 26.66 19.57 26.64C19.41 26.62 19.25 26.66 19.12 26.75C18.99 26.85 18.9 26.99 18.88 27.15C18.85 27.31 18.89 27.47 18.99 27.6L20.44 29.58L18.89 32.41C18.81 32.55 18.79 32.71 18.83 32.87C18.88 33.02 18.98 33.16 19.12 33.23C19.27 33.31 19.43 33.33 19.59 33.28C19.74 33.24 19.87 33.14 19.95 32.99L21.69 29.83C21.75 29.72 21.78 29.61 21.77 29.49C21.76 29.38 21.72 29.27 21.65 29.17ZM22.62 19.61C22.52 19.56 22.41 19.53 22.3 19.54C22.19 19.55 22.08 19.58 21.99 19.64C21.63 19.89 21.29 20.16 20.99 20.43C19.35 21.91 17.79 21.71 17.73 21.7C17.7 21.7 17.66 21.69 17.62 21.69C16.98 21.71 15.81 21.12 14.57 20.15C14.39 20 14.2 19.86 14 19.73C13.91 19.67 13.8 19.63 13.69 19.63C13.58 19.62 13.47 19.64 13.37 19.7C13.27 19.75 13.19 19.83 13.14 19.92C13.08 20.02 13.05 20.12 13.05 20.23L13.05 22.32C13.05 22.42 13.07 22.53 13.12 22.61C13.17 22.7 13.24 22.78 13.33 22.84L17.65 25.72C17.65 25.72 17.65 25.72 17.65 25.72L17.66 25.73C17.76 25.79 17.88 25.83 18 25.83C18.12 25.83 18.24 25.79 18.34 25.72L18.34 25.72C18.35 25.72 18.35 25.72 18.35 25.71L22.66 22.84C22.74 22.78 22.82 22.71 22.87 22.62C22.92 22.53 22.94 22.43 22.94 22.32L22.94 20.15C22.94 20.04 22.91 19.93 22.85 19.83C22.8 19.74 22.71 19.66 22.62 19.61ZM21.72 22L18 24.49L14.27 22L14.27 21.44C15.17 22.1 16.51 22.91 17.6 22.91L17.61 22.91C17.97 22.95 19.84 23.06 21.72 21.41L21.72 22L21.72 22Z" fill="#FFFFFF" fill-opacity="1.000000" fill-rule="nonzero"/>
		<path id="Vector" d="M18.6 25.12C18.58 25 18.52 24.89 18.44 24.81C18.36 24.72 18.25 24.66 18.14 24.63C18.02 24.6 17.9 24.61 17.79 24.65C17.67 24.69 17.58 24.76 17.5 24.86L16.11 26.77C16.06 26.83 16.02 26.9 16 26.98C15.99 27.06 15.98 27.14 15.99 27.22C16.01 27.3 16.03 27.37 16.08 27.44C16.12 27.51 16.17 27.57 16.24 27.62C16.34 27.69 16.47 27.74 16.6 27.74C16.69 27.74 16.79 27.71 16.87 27.67C16.96 27.63 17.03 27.56 17.09 27.49L18.48 25.59C18.53 25.52 18.57 25.45 18.59 25.37C18.61 25.29 18.61 25.2 18.6 25.12ZM27.27 5.5C27.26 5.4 26.97 3.35 25.03 2.53C25.09 2.17 25.08 1.71 24.85 1.26C24.55 0.65 23.94 0.25 23.05 0.08C23.01 0.07 22.97 0.07 22.93 0.07L14.76 0.07C11.44 0.07 8.74 2.77 8.74 6.08L8.74 9.29C8.74 10.13 9.03 10.94 9.55 11.58C9.8 11.9 10.12 12.46 10.16 13.3C10.17 13.46 10.24 13.61 10.36 13.72C10.48 13.82 10.63 13.88 10.79 13.88C10.95 13.87 11.1 13.81 11.21 13.69C11.32 13.58 11.38 13.43 11.38 13.27L11.38 9.09C11.79 7.38 13.21 7.05 13.45 7L16.09 7C16.4 7 16.71 6.95 17 6.86C17.5 6.7 18.3 6.4 18.88 6.18C19.27 6.03 19.7 6.03 20.09 6.17L22.92 7.16C24.33 7.68 24.58 8.92 24.62 9.12L24.62 14.13C24.62 14.21 24.63 14.29 24.66 14.37C24.69 14.44 24.74 14.51 24.79 14.56C24.85 14.62 24.92 14.67 24.99 14.7C25.07 14.73 25.15 14.74 25.23 14.74C25.37 14.74 25.51 14.69 25.62 14.59C25.73 14.5 25.8 14.37 25.83 14.22C25.83 14.21 26.07 12.64 26.86 11.38C27.13 10.94 27.27 10.45 27.27 9.94L27.27 5.58C27.27 5.55 27.27 5.52 27.27 5.5ZM26.06 9.94C26.06 10.21 25.98 10.48 25.83 10.72L25.83 9.08C25.83 9.05 25.83 9.03 25.83 9.01C25.82 8.92 25.57 6.84 23.33 6.02L23.33 6.01L20.49 5.02C20.17 4.91 19.84 4.85 19.5 4.85C19.15 4.85 18.79 4.91 18.45 5.04C17.63 5.35 17 5.58 16.63 5.7C16.45 5.76 16.27 5.78 16.09 5.78L13.4 5.78C13.37 5.78 13.35 5.79 13.32 5.79C13.22 5.8 10.79 6.15 10.18 8.89C10.17 8.93 10.16 8.97 10.16 9.02L10.16 10.27C10.03 9.96 9.96 9.63 9.96 9.29L9.96 6.08C9.96 3.44 12.11 1.29 14.76 1.29L22.87 1.29C23.2 1.36 23.61 1.5 23.77 1.8C23.96 2.17 23.74 2.67 23.74 2.67C23.7 2.75 23.68 2.84 23.68 2.93C23.68 3.02 23.7 3.11 23.74 3.19C23.78 3.28 23.84 3.35 23.91 3.4C23.98 3.46 24.06 3.5 24.15 3.52C25.7 3.89 26.01 5.38 26.05 5.62L26.06 9.94Z" fill="#FFFFFF" fill-opacity="1.000000" fill-rule="nonzero"/>
		<path id="Vector" d="M25.83 9.01C25.82 8.92 25.57 6.84 23.33 6.02L23.33 6.01L20.49 5.02C19.83 4.79 19.1 4.79 18.45 5.04C17.63 5.35 17 5.58 16.63 5.7C16.45 5.76 16.27 5.78 16.09 5.78L13.4 5.78C13.37 5.78 13.35 5.79 13.32 5.79C13.22 5.8 10.79 6.15 10.18 8.89C10.17 8.93 10.16 8.97 10.16 9.02L10.16 14.25L10.16 14.26C10.17 14.45 10.3 18.74 13.26 20.7L13.28 20.71C13.29 20.72 13.3 20.73 13.32 20.74C13.49 20.86 13.66 20.98 13.82 21.11C14.69 21.79 16.31 22.91 17.6 22.91L17.61 22.91C17.67 22.92 17.8 22.93 17.97 22.93C18.7 22.93 20.25 22.74 21.81 21.33C22.07 21.1 22.36 20.87 22.68 20.65L22.72 20.62C22.74 20.61 22.75 20.59 22.77 20.58C23.76 19.92 25.47 18.21 25.83 14.19C25.83 14.17 25.83 14.15 25.83 14.13L25.83 9.08C25.83 9.05 25.83 9.03 25.83 9.01ZM24.62 14.11C24.28 17.73 22.74 19.14 22.09 19.57C22.07 19.59 22.04 19.61 22.02 19.62L21.99 19.64C21.62 19.89 21.29 20.16 20.99 20.43C19.36 21.91 17.81 21.71 17.73 21.7C17.69 21.7 17.66 21.69 17.62 21.69C16.98 21.71 15.81 21.12 14.57 20.15C14.38 20 14.19 19.86 14 19.73L13.98 19.72C13.97 19.71 13.95 19.7 13.94 19.69C11.54 18.1 11.39 14.4 11.38 14.24L11.38 9.09C11.8 7.37 13.22 7.04 13.45 7L16.09 7C16.4 7 16.71 6.95 17 6.86C17.5 6.7 18.3 6.4 18.88 6.18C19.27 6.03 19.7 6.03 20.09 6.17L22.92 7.16C24.33 7.68 24.58 8.92 24.62 9.12L24.62 14.11L24.62 14.11ZM18.54 24.95C18.49 24.86 18.42 24.78 18.34 24.72C18.25 24.66 18.15 24.62 18.05 24.61C17.94 24.61 17.84 24.62 17.74 24.67C17.65 24.71 17.57 24.78 17.5 24.86L16.05 26.85C15.95 26.98 15.91 27.14 15.94 27.3C15.96 27.46 16.05 27.6 16.18 27.7C16.28 27.77 16.41 27.82 16.54 27.82C16.63 27.82 16.73 27.79 16.81 27.75C16.9 27.71 16.97 27.64 17.03 27.57L18.48 25.59C18.56 25.48 18.6 25.35 18.6 25.22C18.6 25.13 18.58 25.03 18.54 24.95ZM18.58 34.75C18.47 34.63 18.32 34.57 18.16 34.56C18 34.56 17.84 34.61 17.73 34.72L17.59 34.85C17.49 34.94 17.42 35.06 17.4 35.2C17.38 35.33 17.4 35.47 17.47 35.59L17.47 35.6C17.52 35.68 17.58 35.75 17.66 35.81C17.74 35.86 17.83 35.89 17.92 35.91C18.01 35.92 18.11 35.91 18.2 35.88C18.29 35.85 18.37 35.8 18.43 35.73L18.57 35.6C18.68 35.49 18.75 35.34 18.75 35.18C18.75 35.02 18.69 34.86 18.58 34.75Z" fill="#FFFFFF" fill-opacity="1.000000" fill-rule="nonzero"/>
		<path id="Vector" d="M18.4 34.85L18.26 34.72C18.14 34.61 17.99 34.56 17.83 34.56C17.67 34.57 17.52 34.63 17.41 34.75C17.3 34.86 17.24 35.02 17.24 35.18C17.25 35.34 17.31 35.49 17.42 35.6L17.56 35.74C17.62 35.8 17.7 35.85 17.79 35.88C17.88 35.91 17.98 35.92 18.07 35.91C18.17 35.89 18.25 35.86 18.33 35.81C18.41 35.75 18.47 35.68 18.52 35.6L18.52 35.59C18.59 35.47 18.61 35.33 18.59 35.2C18.57 35.06 18.5 34.94 18.4 34.85Z" fill="#FFFFFF" fill-opacity="1.000000" fill-rule="nonzero"/>
		<path id="Vector" d="M18.41 34.86L18.41 34.86C18.3 34.75 18.15 34.69 18 34.69C17.84 34.69 17.69 34.75 17.58 34.86L17.58 34.86C17.52 34.91 17.47 34.98 17.43 35.05C17.4 35.13 17.38 35.21 17.38 35.29C17.38 35.38 17.39 35.46 17.42 35.53C17.45 35.61 17.5 35.68 17.56 35.74L17.57 35.74C17.68 35.86 17.83 35.92 18 35.92C18.08 35.92 18.15 35.91 18.23 35.88C18.3 35.84 18.37 35.8 18.42 35.74L18.43 35.74C18.49 35.68 18.54 35.61 18.57 35.53C18.6 35.46 18.61 35.38 18.61 35.29C18.61 35.21 18.59 35.13 18.56 35.05C18.52 34.98 18.47 34.91 18.41 34.86ZM18.19 24.63C17.94 24.55 17.66 24.64 17.51 24.86C17.34 25.1 17.37 25.43 17.58 25.64C17.63 25.7 17.7 25.74 17.77 25.77C17.85 25.8 17.93 25.82 18.01 25.82C18.13 25.82 18.25 25.78 18.36 25.71C18.44 25.65 18.5 25.58 18.55 25.49C18.59 25.41 18.62 25.31 18.62 25.21L18.62 25.21C18.62 24.95 18.45 24.71 18.19 24.63Z" fill="#FFFFFF" fill-opacity="1.000000" fill-rule="nonzero"/>
		<path id="Vector" d="M18.49 24.86L18.48 24.85C18.41 24.75 18.3 24.67 18.18 24.63C18.06 24.59 17.93 24.59 17.8 24.63C17.68 24.67 17.58 24.75 17.5 24.85C17.43 24.96 17.39 25.08 17.39 25.21L17.39 25.22C17.39 25.44 17.51 25.65 17.71 25.76C17.8 25.8 17.9 25.83 18 25.83C18.12 25.83 18.23 25.79 18.34 25.72C18.41 25.68 18.46 25.62 18.51 25.55C18.55 25.48 18.59 25.4 18.6 25.32C18.61 25.24 18.61 25.16 18.59 25.08C18.57 25 18.54 24.92 18.49 24.86Z" fill="#FFFFFF" fill-opacity="1.000000" fill-rule="nonzero"/>
		<path id="Vector" d="M25.24 22.94C25.21 22.86 25.16 22.79 25.09 22.73C25.03 22.66 24.96 22.62 24.87 22.59L22.54 21.75C22.45 21.72 22.35 21.71 22.26 21.72C22.16 21.73 22.07 21.76 22 21.82L17.67 24.71L17.67 24.71L18.01 25.21L17.66 24.71C17.56 24.78 17.48 24.87 17.44 24.98C17.39 25.09 17.38 25.21 17.4 25.32C17.41 25.42 17.45 25.5 17.5 25.58L20.67 29.89C20.73 29.98 20.81 30.04 20.9 30.08C21 30.13 21.1 30.15 21.2 30.14C21.3 30.13 21.4 30.1 21.49 30.05C21.57 29.99 21.65 29.92 21.69 29.83L25.2 23.45C25.24 23.38 25.27 23.29 25.27 23.2C25.28 23.11 25.27 23.03 25.24 22.94ZM21.09 28.4L18.86 25.37L22.42 23L23.79 23.49L21.09 28.4Z" fill="#FFFFFF" fill-opacity="1.000000" fill-rule="nonzero"/>
		<path id="Vector" d="M18.59 25.12C18.58 25.04 18.55 24.96 18.51 24.89C18.46 24.82 18.4 24.76 18.33 24.72L14 21.82C13.92 21.76 13.83 21.73 13.73 21.72C13.64 21.71 13.54 21.72 13.45 21.75L11.12 22.59C11.04 22.62 10.96 22.66 10.9 22.72C10.83 22.79 10.79 22.86 10.75 22.94C10.72 23.03 10.71 23.11 10.72 23.2C10.72 23.29 10.75 23.38 10.79 23.45L14.3 29.83C14.35 29.92 14.43 30 14.52 30.06C14.61 30.11 14.72 30.14 14.83 30.14C14.92 30.14 15.02 30.12 15.1 30.08C15.19 30.03 15.26 29.97 15.32 29.89L17.01 27.59L17.02 27.58L18.49 25.58C18.53 25.51 18.57 25.44 18.59 25.36C18.61 25.28 18.61 25.2 18.59 25.12ZM16.03 26.87L16.03 26.87L14.9 28.4L12.2 23.49L13.57 23L17.13 25.37L16.03 26.87ZM35.96 33.33L35.18 28.59C34.93 27.1 33.89 25.85 32.47 25.33L24.87 22.59C24.76 22.55 24.63 22.54 24.52 22.57C24.4 22.6 24.29 22.66 24.21 22.75C24.13 22.85 24.08 22.96 24.06 23.08C24.05 23.2 24.07 23.32 24.12 23.43L25.71 26.61L24.15 26.64C24.05 26.64 23.95 26.66 23.86 26.72C23.77 26.77 23.69 26.84 23.64 26.93C23.58 27.02 23.55 27.12 23.55 27.23C23.55 27.33 23.57 27.43 23.62 27.53L24.26 28.75L17.73 34.72C17.72 34.73 17.71 34.73 17.71 34.74L17.57 34.87C17.48 34.97 17.42 35.09 17.4 35.22C17.38 35.35 17.41 35.48 17.47 35.6L17.47 35.61C17.53 35.7 17.6 35.78 17.7 35.84C17.79 35.89 17.9 35.92 18.01 35.92L33.77 35.92C34.09 35.92 34.41 35.85 34.71 35.72C35 35.58 35.26 35.38 35.47 35.14C35.68 34.89 35.83 34.6 35.91 34.29C36 33.98 36.02 33.65 35.96 33.33ZM34.54 34.35C34.44 34.46 34.33 34.55 34.19 34.61C34.06 34.67 33.92 34.7 33.77 34.7L19.55 34.7L25.43 29.33C25.53 29.24 25.59 29.12 25.62 28.98C25.64 28.85 25.62 28.71 25.56 28.6L25.16 27.84L26.69 27.81C26.8 27.81 26.9 27.78 26.99 27.73C27.08 27.68 27.15 27.61 27.2 27.52C27.26 27.43 27.29 27.33 27.29 27.23C27.3 27.13 27.27 27.03 27.23 26.93L25.89 24.25L32.06 26.48C33.07 26.85 33.8 27.73 33.98 28.79L34.76 33.53L34.76 33.53C34.79 33.68 34.78 33.82 34.74 33.97C34.7 34.11 34.63 34.24 34.54 34.35Z" fill="#FFFFFF" fill-opacity="1.000000" fill-rule="nonzero"/>
		<path id="Vector" d="M18.42 34.86L18.41 34.86C18.29 34.75 18.14 34.69 17.99 34.7C17.83 34.7 17.68 34.77 17.57 34.88L17.56 34.88C17.48 34.97 17.42 35.08 17.4 35.2C17.37 35.31 17.39 35.44 17.43 35.55C17.48 35.66 17.56 35.75 17.66 35.82C17.76 35.89 17.87 35.92 18 35.92L18.01 35.92C18.13 35.92 18.25 35.88 18.35 35.82C18.45 35.75 18.53 35.65 18.58 35.53C18.62 35.42 18.63 35.29 18.6 35.17C18.57 35.05 18.51 34.94 18.42 34.86Z" fill="#FFFFFF" fill-opacity="1.000000" fill-rule="nonzero"/>
		<path id="Vector" d="M18.4 34.84C18.33 34.78 18.25 34.74 18.16 34.71C18.07 34.69 17.98 34.68 17.89 34.7C17.8 34.71 17.71 34.75 17.64 34.8C17.56 34.85 17.5 34.92 17.46 35L17.45 35.01C17.39 35.13 17.37 35.26 17.38 35.39C17.4 35.51 17.46 35.63 17.55 35.73L17.55 35.73C17.61 35.79 17.68 35.84 17.75 35.87C17.83 35.9 17.91 35.92 17.99 35.92C18.14 35.92 18.28 35.86 18.4 35.76L18.41 35.75C18.46 35.7 18.51 35.64 18.54 35.57C18.66 35.33 18.6 35.03 18.4 34.84Z" fill="#FFFFFF" fill-opacity="1.000000" fill-rule="nonzero"/>
		<path id="Vector" d="M18.42 34.88L18.42 34.88L18.42 34.87L18.28 34.74C18.28 34.73 18.27 34.73 18.26 34.72L11.73 28.74L12.37 27.53C12.42 27.43 12.44 27.33 12.44 27.23C12.43 27.12 12.41 27.02 12.35 26.93C12.3 26.84 12.22 26.77 12.13 26.72C12.04 26.66 11.94 26.64 11.84 26.64L10.28 26.61L11.87 23.43C11.98 23.21 11.94 22.94 11.78 22.75C11.61 22.57 11.35 22.5 11.12 22.59L3.52 25.33C2.1 25.85 1.06 27.1 0.81 28.59L0.03 33.33C-0.03 33.65 -0.01 33.98 0.08 34.29C0.16 34.6 0.31 34.89 0.52 35.14C0.73 35.38 0.99 35.58 1.29 35.72C1.58 35.85 1.9 35.92 2.22 35.92L18 35.92C18.12 35.92 18.23 35.89 18.33 35.82C18.43 35.75 18.51 35.66 18.56 35.55C18.6 35.43 18.62 35.31 18.59 35.19C18.57 35.07 18.51 34.97 18.42 34.88ZM2.22 34.7C2.07 34.7 1.93 34.67 1.8 34.61C1.66 34.55 1.55 34.46 1.45 34.35C1.36 34.24 1.29 34.11 1.25 33.97C1.21 33.82 1.2 33.68 1.23 33.53L2.01 28.79C2.1 28.27 2.32 27.78 2.66 27.37C3 26.97 3.44 26.66 3.93 26.48L10.1 24.25L8.76 26.93C8.72 27.03 8.69 27.13 8.7 27.23C8.7 27.33 8.73 27.43 8.79 27.52C8.84 27.61 8.91 27.68 9 27.73C9.09 27.78 9.19 27.81 9.3 27.81L10.83 27.84L10.43 28.6C10.37 28.71 10.35 28.85 10.37 28.98C10.4 29.11 10.46 29.24 10.56 29.33L16.44 34.7L2.22 34.7Z" fill="#FFFFFF" fill-opacity="1.000000" fill-rule="nonzero"/>
		<path id="Vector" d="M20.07 27.39C20.09 27.3 20.09 27.21 20.07 27.12C20.06 27.03 20.02 26.95 19.97 26.88L18.49 24.86C18.33 24.65 18.06 24.56 17.81 24.65C17.67 24.69 17.56 24.78 17.49 24.89L16.03 26.87C15.96 26.97 15.91 27.09 15.91 27.22C15.91 27.35 15.95 27.47 16.02 27.58L16.64 28.47L15.98 32.62C15.96 32.76 15.98 32.89 16.05 33.01L17.46 35.58C17.51 35.68 17.59 35.76 17.69 35.81C17.78 35.87 17.89 35.9 18 35.9C18.1 35.9 18.21 35.87 18.3 35.81C18.4 35.76 18.48 35.68 18.53 35.58L19.95 32.99C20 32.9 20.03 32.8 20.03 32.7L20.03 32.7C20.03 32.67 20.02 32.64 20.02 32.6L19.36 28.47L19.98 27.59C20.02 27.53 20.05 27.46 20.07 27.39ZM18 34.03L17.22 32.61L17.88 28.41C17.91 28.26 17.87 28.1 17.78 27.97L17.27 27.24L18 26.25L18.73 27.25L18.22 27.97C18.13 28.1 18.1 28.26 18.12 28.41L18.79 32.59L18 34.03Z" fill="#FFFFFF" fill-opacity="1.000000" fill-rule="nonzero"/>
	</g>
</svg>
