<svg width="40.000000" height="40.000000" viewBox="0 0 40 40" fill="none" xmlns="http://www.w3.org/2000/svg" xmlns:xlink="http://www.w3.org/1999/xlink">
	<desc>
			Created with Pixso.
	</desc>
	<defs>
		<clipPath id="clip39_2223">
			<rect id="Frame" rx="-0.500000" width="39.000000" height="39.000000" transform="translate(0.500000 0.500000)" fill="white" fill-opacity="0"/>
		</clipPath>
	</defs>
	<rect id="Frame" rx="-0.500000" width="39.000000" height="39.000000" transform="translate(0.500000 0.500000)" fill="#FFFFFF" fill-opacity="0"/>
	<g clip-path="url(#clip39_2223)">
		<path id="Vector" d="M35.12 23.8L35.12 20.46C35.12 20.33 35.08 20.22 34.99 20.13C34.9 20.04 34.78 19.99 34.66 19.99C34.54 19.99 34.42 20.04 34.34 20.13C34.25 20.22 34.2 20.33 34.2 20.46L34.2 23.8C34.2 23.92 34.25 24.04 34.34 24.12C34.42 24.21 34.54 24.26 34.66 24.26C34.78 24.26 34.9 24.21 34.99 24.12C35.08 24.04 35.12 23.92 35.12 23.8ZM33.05 12.52L24.23 12.52C24.03 10.36 22.2 8.67 20 8.67C17.78 8.67 15.97 10.36 15.76 12.52L6.94 12.52C5.8 12.52 4.87 13.45 4.87 14.6L4.87 23.8C4.87 24.05 5.08 24.26 5.33 24.26C5.58 24.26 5.79 24.05 5.79 23.8L5.79 14.6C5.79 13.96 6.31 13.44 6.94 13.44L15.85 13.44C16.34 14.57 18.3 14.89 19.53 14.95L19.53 23.8C19.53 24.05 19.74 24.26 20 24.26C20.25 24.26 20.46 24.05 20.46 23.8L20.46 14.95C22.05 14.88 23.72 14.45 24.15 13.44L33.05 13.44C33.68 13.44 34.2 13.96 34.2 14.6L34.2 16.33C34.2 16.58 34.41 16.79 34.66 16.79C34.92 16.79 35.12 16.58 35.12 16.33L35.12 14.6C35.12 13.45 34.19 12.52 33.05 12.52ZM20 14.04C18 14.04 16.67 13.46 16.67 12.92C16.67 11.09 18.16 9.59 20 9.59C21.83 9.59 23.33 11.09 23.33 12.92C23.33 13.46 21.99 14.04 20 14.04ZM34.66 25.03C33.43 25.03 32.42 26.04 32.42 27.27C32.42 28.43 33.35 30.57 34.66 30.57C36.03 30.57 36.9 28.4 36.9 27.27C36.9 26.04 35.89 25.03 34.66 25.03ZM34.66 29.65C34.08 29.65 33.35 28.17 33.35 27.27C33.35 26.55 33.93 25.95 34.66 25.95C35.38 25.95 35.98 26.55 35.98 27.27C35.98 28.17 35.24 29.65 34.66 29.65ZM38.91 35.52C38.91 37.02 36.62 37.55 34.66 37.55C33.04 37.55 30.41 37.13 30.41 35.52C30.41 33.17 32.31 31.26 34.66 31.26C37.01 31.26 38.91 33.17 38.91 35.52ZM20 25.03C18.76 25.03 17.76 26.04 17.76 27.27C17.76 28.43 18.68 30.57 20 30.57C21.36 30.57 22.23 28.4 22.23 27.27C22.23 26.04 21.23 25.03 20 25.03ZM20 29.65C19.42 29.65 18.68 28.17 18.68 27.27C18.68 26.55 19.27 25.95 20 25.95C20.72 25.95 21.31 26.55 21.31 27.27C21.31 28.17 20.58 29.65 20 29.65ZM20 31.26C17.65 31.26 15.74 33.17 15.74 35.52C15.74 37.13 18.37 37.55 20 37.55C21.96 37.55 24.25 37.02 24.25 35.52C24.25 33.17 22.34 31.26 20 31.26ZM20 36.63C18 36.63 16.67 36.05 16.67 35.52C16.67 33.68 18.16 32.19 20 32.19C21.83 32.19 23.33 33.68 23.33 35.52C23.33 36.05 21.99 36.63 20 36.63ZM20 2.44C18.76 2.44 17.76 3.44 17.76 4.68C17.76 5.84 18.68 7.98 20 7.98C21.36 7.98 22.23 5.81 22.23 4.68C22.23 3.44 21.23 2.44 20 2.44ZM20 7.06C19.42 7.06 18.68 5.58 18.68 4.68C18.68 3.95 19.27 3.36 20 3.36C20.72 3.36 21.31 3.95 21.31 4.68C21.31 5.58 20.58 7.06 20 7.06ZM5.33 25.03C4.1 25.03 3.1 26.04 3.1 27.27C3.1 28.43 4.02 30.57 5.33 30.57C6.7 30.57 7.57 28.4 7.57 27.27C7.57 26.04 6.56 25.03 5.33 25.03ZM5.33 29.65C4.75 29.65 4.02 28.17 4.02 27.27C4.02 26.55 4.61 25.95 5.33 25.95C6.06 25.95 6.64 26.55 6.64 27.27C6.64 28.17 5.91 29.65 5.33 29.65ZM9.59 35.52C9.59 37.02 7.29 37.55 5.33 37.55C3.71 37.55 1.08 37.13 1.08 35.52C1.08 33.17 2.99 31.26 5.33 31.26C7.68 31.26 9.59 33.17 9.59 35.52Z" fill="#FFFFFF" fill-opacity="1.000000" fill-rule="nonzero"/>
	</g>
</svg>
