<svg width="40.000000" height="40.000000" viewBox="0 0 40 40" fill="none" xmlns="http://www.w3.org/2000/svg" xmlns:xlink="http://www.w3.org/1999/xlink">
	<desc>
			Created with Pixso.
	</desc>
	<defs>
		<clipPath id="clip29_55">
			<rect id="dashicons:whatsapp" rx="-0.500000" width="39.000000" height="39.000000" transform="translate(0.500000 0.500000)" fill="white" fill-opacity="0"/>
		</clipPath>
	</defs>
	<rect id="dashicons:whatsapp" rx="-0.500000" width="39.000000" height="39.000000" transform="translate(0.500000 0.500000)" fill="#FFFFFF" fill-opacity="0"/>
	<g clip-path="url(#clip29_55)">
		<path id="Vector" d="M33.59 11.39C28.8 3.99 19 1.79 11.4 6.39C3.99 11 1.59 21 6.39 28.39L6.79 29L5.19 35L11.2 33.39L11.8 33.79C14.4 35.19 17.2 36 20 36C23 36 26 35.19 28.6 33.59C36 28.79 38.2 19 33.59 11.39ZM29.4 26.79C28.6 28 27.6 28.79 26.2 29C25.4 29 24.4 29.39 20.4 27.79C17 26.19 14.2 23.59 12.2 20.59C11 19.19 10.4 17.39 10.2 15.59C10.2 14 10.8 12.59 11.8 11.59C12.2 11.19 12.6 11 13 11L14 11C14.4 11 14.8 11 15 11.79C15.4 12.79 16.4 15.19 16.4 15.39C16.6 15.59 16.6 16 16.4 16.19C16.6 16.59 16.4 17 16.2 17.19C16 17.39 15.8 17.79 15.6 18C15.2 18.19 15 18.59 15.2 19C16 20.19 17 21.39 18 22.39C19.2 23.39 20.4 24.19 21.8 24.79C22.2 25 22.6 25 22.8 24.59C23 24.19 24 23.19 24.4 22.79C24.8 22.39 25 22.39 25.4 22.59L28.6 24.19C29 24.39 29.4 24.59 29.6 24.79C29.8 25.39 29.8 26.19 29.4 26.79Z" fill="#2463CA" fill-opacity="1.000000" fill-rule="nonzero"/>
	</g>
</svg>
