<?xml version="1.0" standalone="no"?>
<!DOCTYPE svg PUBLIC "-//W3C//DTD SVG 20010904//EN"
 "http://www.w3.org/TR/2001/REC-SVG-20010904/DTD/svg10.dtd">
<svg version="1.0" xmlns="http://www.w3.org/2000/svg"
 width="149.000000pt" height="149.000000pt" viewBox="0 0 149.000000 149.000000"
 preserveAspectRatio="xMidYMid meet">
<metadata>
Created by potrace 1.11, written by Peter Selinger 2001-2013
</metadata>
<g transform="translate(0.000000,149.000000) scale(0.100000,-0.100000)"
fill="#000000" stroke="none">
<path d="M5 903 c0 -106 2 -193 4 -193 2 0 9 7 15 15 8 12 10 4 8 -35 -3 -37
0 -50 10 -51 7 0 4 -4 -7 -9 -16 -7 -16 -9 -4 -9 9 -1 20 -8 23 -17 3 -8 2
-12 -3 -9 -5 3 -13 0 -17 -6 -4 -7 -3 -9 3 -6 6 4 19 -4 30 -16 25 -28 40 -52
26 -44 -5 3 -10 0 -10 -7 0 -8 6 -12 14 -9 8 3 13 -2 13 -12 0 -15 2 -16 17
-4 11 10 14 10 9 2 -5 -9 0 -13 16 -14 13 0 17 -3 11 -6 -7 -2 -13 -9 -13 -14
0 -4 7 -6 16 -2 9 3 20 0 25 -8 7 -11 9 -11 9 -1 0 10 4 9 16 -3 12 -11 20
-13 29 -5 10 8 15 8 21 -1 5 -8 3 -9 -6 -4 -9 5 -11 4 -6 -4 6 -9 11 -9 22 0
8 7 27 9 45 5 16 -3 28 -2 25 3 -7 10 46 7 64 -4 8 -5 11 -4 7 2 -4 6 5 15 18
21 15 7 26 8 30 2 4 -6 12 -10 18 -10 7 0 6 4 -3 11 -12 9 -11 10 6 6 17 -3
20 0 17 13 -3 12 7 24 31 39 34 21 51 40 24 26 -7 -4 -5 0 4 8 10 8 15 17 11
20 -3 4 -1 7 5 7 7 0 12 -5 12 -12 0 -6 3 -8 6 -5 4 4 1 14 -7 24 -9 11 -10
14 -1 9 15 -9 34 2 26 16 -12 19 -7 97 7 115 13 15 12 16 -6 10 -20 -7 -20 -7
-1 8 12 9 15 15 7 15 -11 0 -11 3 0 17 10 11 10 14 1 9 -7 -4 -12 -1 -12 9 0
9 5 13 10 10 17 -10 11 7 -7 22 -10 8 -13 12 -7 9 7 -3 15 1 18 10 5 12 2 15
-11 10 -15 -5 -15 -4 1 9 12 9 15 15 7 15 -11 0 -11 3 0 17 10 11 10 14 2 9
-8 -4 -13 -1 -13 9 0 9 5 13 10 10 17 -10 11 7 -7 22 -10 8 -13 12 -7 9 7 -3
15 1 18 10 5 12 2 15 -11 10 -15 -5 -15 -4 1 9 12 9 15 15 7 15 -11 0 -11 3 0
17 10 11 10 14 2 9 -8 -4 -13 -1 -13 9 0 9 5 13 10 10 17 -10 11 7 -7 22 -10
8 -12 11 -4 7 9 -4 12 -2 9 7 -3 10 -24 14 -79 14 -67 0 -74 -2 -74 -20 0 -11
-4 -26 -9 -34 -6 -9 -5 -12 2 -7 12 7 11 -32 -3 -53 -5 -9 -4 -12 3 -7 7 4 10
-1 9 -14 -1 -11 -4 -20 -7 -20 -3 0 -6 -9 -6 -20 0 -14 5 -19 15 -15 11 4 12
3 1 -10 -7 -8 -9 -15 -5 -15 4 0 1 -8 -6 -17 -8 -10 -9 -14 -2 -10 8 5 11 0
10 -13 -1 -11 -4 -20 -7 -20 -3 0 -6 -9 -6 -20 0 -14 5 -19 15 -15 11 4 12 3
1 -10 -7 -8 -9 -15 -5 -15 4 0 1 -8 -6 -17 -8 -10 -9 -14 -2 -10 8 5 11 0 10
-13 -1 -11 -5 -20 -10 -20 -4 0 -5 -6 0 -12 14 -24 11 -39 -10 -47 -12 -5 -26
-6 -31 -3 -5 3 -6 0 -2 -7 4 -6 12 -8 18 -5 6 4 9 1 6 -7 -3 -8 -12 -13 -21
-13 -9 1 -14 -2 -11 -7 3 -5 0 -9 -6 -9 -6 0 -8 -6 -4 -12 4 -7 -2 -4 -14 6
-12 11 -25 16 -29 13 -3 -4 -1 -7 5 -7 7 0 12 -5 12 -11 0 -5 -4 -7 -10 -4 -5
3 -10 0 -10 -7 -1 -8 -6 -6 -15 6 -8 11 -15 14 -15 8 0 -7 -5 -12 -11 -12 -5
0 -7 5 -3 12 4 7 3 8 -4 4 -6 -4 -8 -14 -5 -23 5 -13 3 -13 -14 3 -11 10 -18
24 -15 29 3 6 2 7 -3 3 -4 -4 -15 -2 -24 4 -13 10 -14 10 -3 -2 15 -17 16 -30
1 -30 -5 0 -7 5 -4 10 3 6 -1 13 -9 16 -9 3 -14 10 -11 14 3 5 1 11 -5 15 -6
4 -8 11 -5 16 4 5 -2 6 -12 2 -16 -6 -17 -5 -3 12 8 10 10 16 4 12 -7 -4 -14
0 -17 8 -4 10 -1 12 11 8 14 -6 15 -4 4 9 -10 13 -10 17 0 21 8 4 7 6 -4 6
-10 1 -18 6 -18 12 0 5 6 7 13 3 9 -6 9 -5 0 8 -7 8 -10 18 -6 22 10 10 12 56
2 56 -9 0 -6 57 4 66 4 4 -1 13 -11 21 -14 10 -14 12 -1 8 10 -4 16 0 16 10 0
8 -4 15 -9 15 -9 0 -6 29 5 48 5 7 3 12 -4 12 -8 0 -7 5 2 17 8 9 9 14 3 10
-6 -3 -11 0 -11 8 0 8 4 12 8 9 4 -2 10 0 14 6 3 5 1 10 -4 10 -6 0 -11 9 -11
21 0 19 -5 20 -88 18 l-88 -3 1 -193z m18 172 c-3 -9 -8 -14 -10 -11 -3 3 -2
9 2 15 9 16 15 13 8 -4z m8 -32 c-12 -20 -14 -14 -5 12 4 9 9 14 11 11 3 -2 0
-13 -6 -23z m-8 -38 c4 -8 3 -16 -1 -19 -4 -3 -9 4 -9 15 -2 23 3 25 10 4z
m12 -53 c-3 -3 -11 0 -18 7 -9 10 -8 11 6 5 10 -3 15 -9 12 -12z m-8 -24 c-2
-7 0 -23 4 -35 5 -13 4 -25 -2 -28 -5 -4 -7 -10 -5 -14 3 -4 0 -13 -5 -21 -7
-12 -8 -11 -6 5 1 11 6 26 10 33 5 6 4 12 -1 12 -4 0 -8 14 -8 30 0 17 4 30 9
30 5 0 7 -6 4 -12z m4 -125 c-12 -20 -14 -14 -5 12 4 9 9 14 11 11 3 -2 0 -13
-6 -23z m-8 -38 c4 -8 3 -16 -1 -19 -4 -3 -9 4 -9 15 -2 23 3 25 10 4z m307
-209 c0 -3 -4 -8 -10 -11 -5 -3 -10 -1 -10 4 0 6 5 11 10 11 6 0 10 -2 10 -4z"/>
<path d="M693 1087 c-4 -6 -1 -7 7 -2 10 6 12 1 7 -24 -4 -19 -3 -30 3 -26 5
3 7 -4 5 -15 -2 -11 0 -20 6 -20 5 0 4 -9 -3 -20 -11 -17 -10 -22 2 -31 12 -9
10 -10 -8 -6 l-22 5 20 -28 c13 -18 16 -31 10 -35 -10 -6 -11 -5 -14 14 0 5
-4 12 -8 15 -5 3 -6 3 -3 -1 3 -3 0 -12 -7 -20 -9 -11 -8 -13 3 -11 8 2 14 -5
15 -17 2 -41 4 -46 17 -39 7 4 9 3 4 -2 -5 -5 -13 -10 -18 -10 -23 -3 -23 -6
1 -20 14 -8 17 -13 8 -10 -10 3 -20 0 -24 -6 -4 -6 -3 -8 3 -5 6 4 13 -2 16
-13 8 -30 8 -30 0 -30 -5 0 -8 4 -8 9 0 5 -3 12 -8 15 -4 3 -5 3 -2 -1 3 -3
-1 -13 -8 -21 -8 -11 -8 -14 0 -9 17 10 27 -11 13 -28 -8 -9 -8 -15 0 -20 6
-4 8 -16 4 -27 -5 -15 -3 -19 7 -13 8 5 11 5 7 0 -4 -4 -2 -15 5 -24 10 -14
10 -14 -4 -3 -14 10 -18 10 -23 -3 -4 -11 -2 -14 6 -9 7 5 9 2 5 -8 -3 -9 0
-21 6 -28 9 -10 9 -11 -2 -5 -10 6 -11 2 -6 -16 4 -13 12 -27 17 -30 5 -3 2
-9 -7 -12 -10 -5 -14 -3 -9 5 4 7 3 8 -4 4 -21 -13 -13 -28 10 -20 21 6 21 6
5 -10 -22 -23 -21 -25 5 -18 16 4 19 2 13 -9 -7 -11 -5 -11 10 1 17 14 18 13
12 -2 -3 -10 -2 -18 3 -18 6 0 10 4 10 9 0 5 14 8 30 6 22 -3 29 -1 23 8 -4 7
0 7 10 -2 14 -11 17 -11 18 0 2 29 7 55 14 73 5 12 5 17 -2 13 -5 -3 -10 0
-10 8 0 18 9 19 27 3 12 -11 12 -10 2 4 -7 9 -9 18 -5 20 4 3 3 4 -3 2 -6 -1
-11 5 -10 14 0 10 -5 16 -13 14 -12 -3 -12 -1 -1 13 13 16 15 16 26 0 12 -16
13 -16 11 3 0 11 -5 18 -9 16 -13 -8 -9 10 5 26 6 8 2 6 -11 -4 -12 -11 -25
-16 -29 -13 -3 4 -1 7 6 7 7 0 10 10 7 25 -3 14 0 25 6 25 6 0 7 -8 3 -17 -5
-14 -4 -15 6 -6 9 9 9 16 1 26 -14 16 -6 28 13 21 7 -3 16 -1 19 5 5 7 -3 10
-22 7 -19 -2 -29 2 -29 11 0 9 7 11 21 7 12 -3 28 -8 38 -10 9 -3 19 -11 22
-19 3 -10 0 -12 -12 -9 -16 5 -16 4 0 -9 10 -8 14 -18 10 -22 -4 -5 1 -5 10
-2 13 4 15 2 11 -10 -4 -11 -2 -14 5 -9 8 5 12 0 12 -14 0 -12 4 -18 10 -15 6
4 7 -1 3 -11 -5 -13 -3 -15 8 -9 8 5 5 -2 -6 -15 -11 -13 -15 -21 -9 -17 14 8
47 -26 37 -38 -5 -5 1 -3 11 5 13 10 17 10 12 3 -4 -8 -2 -13 5 -13 6 0 9 -8
6 -20 -3 -11 -1 -17 4 -14 6 3 18 0 27 -7 15 -12 15 -12 0 7 -10 11 -18 25
-18 30 0 5 5 2 10 -6 9 -13 11 -13 20 0 10 13 11 13 8 0 -5 -26 7 -26 40 2 20
17 27 28 19 32 -8 3 -6 9 7 20 18 15 15 21 -8 17 -5 -1 -4 5 3 13 7 9 17 14
21 11 4 -3 14 3 21 12 12 14 12 16 -1 9 -8 -4 -6 0 4 8 11 9 16 16 11 16 -5 0
-1 6 10 13 14 11 15 16 5 22 -9 6 -11 4 -5 -5 5 -9 4 -11 -4 -6 -6 4 -9 12 -5
17 3 5 9 7 13 5 9 -6 36 11 37 24 1 5 2 19 3 30 0 11 6 20 11 20 17 0 29 -43
18 -64 -7 -13 -7 -16 1 -12 14 9 14 4 1 -29 -9 -24 -8 -26 7 -21 14 6 14 4 -3
-15 -10 -12 -13 -19 -6 -15 15 9 15 5 2 -29 -9 -24 -8 -26 7 -21 14 6 14 4 -3
-15 -10 -12 -13 -19 -6 -15 13 8 17 -6 5 -18 -11 -10 -12 -37 -2 -30 13 8 11
-10 -3 -25 -10 -11 -10 -13 0 -7 8 5 12 0 12 -16 0 -18 2 -20 10 -8 7 12 10
12 10 1 0 -7 6 -11 14 -8 7 3 19 0 26 -6 10 -9 11 -9 6 0 -5 9 1 11 24 7 20
-5 30 -3 30 6 0 10 3 10 15 0 13 -11 14 -10 9 3 -4 12 -1 15 15 12 12 -2 21 0
21 6 0 5 -6 9 -12 9 -9 0 -9 3 -2 8 6 4 10 21 10 39 -1 17 -3 30 -5 27 -9 -9
-29 19 -24 33 5 12 3 14 -8 8 -8 -5 -5 2 6 15 15 17 16 22 5 18 -12 -4 -16 1
-16 17 0 16 4 21 16 17 13 -5 13 -3 2 10 -16 19 -25 61 -11 53 13 -9 11 9 -3
23 -9 9 -9 12 0 12 8 0 9 7 1 27 -7 18 -7 29 0 31 6 2 6 14 1 33 -7 24 -6 29
8 30 14 0 13 2 -3 9 -11 5 -14 9 -7 9 10 1 10 6 2 21 -7 14 -7 20 0 20 5 0 10
5 10 11 0 5 -3 8 -7 6 -5 -3 -8 17 -8 43 0 27 3 46 7 44 13 -8 9 11 -4 24 -9
9 -9 12 1 12 7 0 9 5 6 10 -8 14 -145 13 -145 -1 0 -5 -4 -8 -8 -5 -5 3 -9 -1
-9 -9 0 -8 5 -11 11 -8 6 4 2 -4 -8 -16 -20 -22 -20 -22 0 -16 17 6 17 6 1 -5
-9 -6 -22 -8 -29 -4 -6 4 -8 3 -4 -4 3 -6 2 -14 -4 -17 -8 -5 -7 -11 1 -21 10
-12 9 -13 -6 -8 -12 5 -16 4 -12 -3 4 -6 2 -13 -3 -15 -6 -2 -12 -13 -13 -25
-1 -17 -4 -19 -14 -11 -8 6 -16 8 -20 4 -3 -3 -2 -6 4 -6 12 0 11 -46 -1 -57
-5 -5 -6 -2 -1 6 5 9 4 12 -4 10 -7 -3 -12 -8 -11 -13 1 -4 -7 -14 -17 -23
-10 -8 -12 -12 -5 -8 6 3 12 2 12 -4 0 -5 -5 -11 -10 -13 -6 -2 -12 -13 -13
-25 0 -12 -5 -19 -9 -17 -4 3 -16 0 -25 -6 -17 -11 -17 -11 1 -6 15 5 17 4 7
-8 -9 -11 -9 -15 1 -19 8 -3 6 -6 -5 -6 -11 -1 -16 -6 -12 -13 4 -7 0 -5 -8 5
-16 19 -32 24 -21 5 4 -7 3 -8 -5 -4 -9 6 -9 11 0 22 10 12 10 15 -2 12 -8 -2
-13 3 -11 10 1 8 -2 11 -7 7 -6 -3 -8 -13 -5 -23 4 -9 -3 -3 -14 13 -12 19
-16 34 -10 41 8 11 -17 29 -35 25 -5 -1 -5 4 -1 10 4 7 -1 18 -12 27 -18 13
-18 14 6 7 23 -7 23 -7 7 9 -9 10 -17 22 -17 27 0 5 -5 9 -11 9 -8 0 -7 -6 2
-17 13 -16 12 -17 -3 -4 -10 7 -15 17 -12 22 3 5 0 9 -6 9 -6 0 -8 5 -5 10 4
6 -4 20 -17 31 -13 11 -18 18 -12 15 7 -3 14 0 17 8 4 10 0 12 -14 9 -14 -4
-19 0 -19 16 0 11 -4 21 -9 21 -6 0 -8 9 -6 21 4 17 2 19 -10 9 -17 -14 -20 1
-4 17 8 8 -11 11 -75 11 -49 0 -89 -5 -93 -11z m30 -232 c-3 -9 -8 -14 -10
-11 -3 3 -2 9 2 15 9 16 15 13 8 -4z m187 -85 c0 -5 -5 -10 -11 -10 -5 0 -7 5
-4 10 3 6 8 10 11 10 2 0 4 -4 4 -10z m-190 -75 c-10 -12 -10 -15 0 -15 8 0
11 -3 7 -6 -3 -3 -11 -3 -17 1 -8 5 -8 11 1 21 6 8 14 14 16 14 3 0 0 -7 -7
-15z m294 -111 c5 -14 4 -15 -9 -4 -17 14 -19 20 -6 20 5 0 12 -7 15 -16z
m136 -28 c0 -3 -4 -8 -10 -11 -5 -3 -10 -1 -10 4 0 6 5 11 10 11 6 0 10 -2 10
-4z m315 -6 c11 -19 14 -50 4 -55 -5 -4 -7 -11 -4 -16 4 -5 4 -9 1 -9 -3 0
-10 10 -17 21 -8 15 -8 19 0 15 12 -8 11 21 -2 42 -5 6 -4 12 2 12 5 0 13 -4
16 -10z m-354 -33 c-10 -9 -11 -8 -5 6 3 10 9 15 12 12 3 -3 0 -11 -7 -18z"/>
<path d="M699 1018 c-6 -21 -5 -38 1 -38 5 0 8 9 7 20 -1 17 -5 26 -8 18z"/>
<path d="M186 963 c-6 -14 -5 -15 5 -6 7 7 10 15 7 18 -3 3 -9 -2 -12 -12z"/>
<path d="M183 845 c0 -8 4 -12 9 -9 5 3 6 10 3 15 -9 13 -12 11 -12 -6z"/>
<path d="M1002 848 c2 -6 10 -13 16 -14 7 -1 8 0 2 3 -5 2 -8 9 -4 14 3 5 0 9
-6 9 -7 0 -10 -5 -8 -12z"/>
<path d="M1025 790 c3 -5 8 -10 11 -10 2 0 4 5 4 10 0 6 -5 10 -11 10 -5 0 -7
-4 -4 -10z"/>
<path d="M614 708 c-4 -7 -4 -10 1 -6 4 4 14 0 22 -10 13 -15 13 -15 3 6 -12
25 -16 27 -26 10z"/>
<path d="M6 692 c-2 -4 -1 -14 4 -22 7 -11 9 -9 7 8 -1 24 -3 26 -11 14z"/>
<path d="M50 561 c0 -5 7 -12 16 -15 14 -5 15 -4 4 9 -14 17 -20 19 -20 6z"/>
<path d="M520 500 c-8 -5 -12 -12 -9 -15 4 -3 12 1 19 10 14 17 11 19 -10 5z"/>
<path d="M867 503 c-11 -11 -8 -21 9 -27 14 -5 15 -4 5 8 -9 11 -9 15 1 19 7
3 8 6 2 6 -6 1 -14 -2 -17 -6z"/>
<path d="M442 451 c-11 -7 -11 -9 0 -14 9 -3 15 1 15 9 0 8 -1 14 -1 14 -1 0
-7 -4 -14 -9z"/>
</g>
</svg>
