<svg width="56.000000" height="56.000000" viewBox="0 0 56 56" fill="none" xmlns="http://www.w3.org/2000/svg" xmlns:xlink="http://www.w3.org/1999/xlink">
	<desc>
			Created with Pixso.
	</desc>
	<defs/>
	<path id="Vector 58" d="M17.99 27.94C17.99 27.96 18 27.98 18 28C18 28.01 17.99 28.03 17.99 28.05L22.89 32.94C23.29 33.34 23.29 33.96 22.89 34.36C22.49 34.75 21.87 34.75 21.48 34.36L15.82 28.7C15.42 28.31 15.42 27.68 15.82 27.29L21.48 21.63C21.87 21.24 22.49 21.24 22.89 21.63C23.29 22.03 23.29 22.65 22.89 23.05L17.99 27.94Z" fill="#F3F3F3" fill-opacity="1.000000" fill-rule="evenodd"/>
	<path id="S1" d="M40 28L17 28" stroke="#F3F3F3" stroke-opacity="1.000000" stroke-width="2.000000"/>
	<rect id="Rectangle 356" x="55.000000" y="55.000000" rx="27.000000" width="54.000000" height="54.000000" transform="rotate(-180 55.000000 55.000000)" stroke="#F3F3F3" stroke-opacity="1.000000" stroke-width="2.000000" stroke-linejoin="round"/>
</svg>
