<svg width="156.000000" height="47.000000" viewBox="0 0 156 47" fill="none" xmlns="http://www.w3.org/2000/svg" xmlns:xlink="http://www.w3.org/1999/xlink">
	<desc>
			Created with Pixso.
	</desc>
	<defs/>
	<path id="Vector" d="M105 26L109.76 26L109.76 29.59L105 29.59L105 26ZM110.95 26L119.28 26L119.28 29.59L110.95 29.59L110.95 26ZM120.47 26L130 26L130 29.59L120.47 29.59L120.47 26ZM105 30.79L112.14 30.79L112.14 34.4L105 34.4L105 30.79ZM113.33 30.79L121.66 30.79L121.66 34.4L113.33 34.4L113.33 30.79ZM122.85 30.79L127.02 30.79L127.02 34.4L122.85 34.4L122.85 30.79ZM105 35.59L109.76 35.59L109.76 39.2L105 39.2L105 35.59ZM110.95 35.59L119.28 35.59L119.28 39.2L110.95 39.2L110.95 35.59ZM120.47 35.59L130 35.59L130 39.2L120.47 39.2L120.47 35.59ZM105 40.4L112.14 40.4L112.14 44L105 44L105 40.4ZM113.33 40.4L121.66 40.4L121.66 44L113.33 44L113.33 40.4ZM122.85 40.83L130 40.4L127.5 44L122.85 44L122.85 40.83Z" fill="#F3F3F3" fill-opacity="1.000000" fill-rule="evenodd"/>
	<circle id="Ellipse 73" cx="138.928711" cy="30.357422" r="6.547619" fill="#0D68E0" fill-opacity="1.000000"/>
	<path id="Vector 125" d="M140.71 25.75C141.5 25.36 143.01 24.4 143.69 24.4C144.52 24.4 145.47 25.59 145.47 26.19C145.47 26.78 144.88 27.97 144.28 27.97C143.81 27.97 143.88 28.37 143.69 28.57" stroke="#0D68E0" stroke-opacity="1.000000" stroke-width="1.000000"/>
	<path id="Vector 126" d="M144.88 25C146.27 24.6 149.25 23.29 152.02 18.45C154.4 14.28 155 11.3 155 5.35C155 4.4 155 1.78 155 0" stroke="#0D68E0" stroke-opacity="1.000000" stroke-width="1.000000"/>
	<path id="Vector" d="M118.66 34.39C118.67 34.38 119.5 34.39 120.52 34.4C121.53 34.41 122.99 34.42 123.76 34.43C126.28 34.45 126.5 34.45 126.53 34.48C126.56 34.51 126.6 34.48 125.31 35.56C124.7 36.08 124.2 36.51 124.19 36.52C124.19 36.53 124.2 36.54 124.22 36.53C124.26 36.52 127.08 36.02 127.17 36C127.21 36 127.25 36.01 127.26 36.02C127.27 36.04 126.55 36.91 125.67 37.97C124.79 39.03 123.41 40.68 122.61 41.65C121.8 42.61 121.12 43.43 121.09 43.46C121.06 43.5 121.04 43.53 121.05 43.53C121.05 43.54 122.92 42.63 125.19 41.51C127.46 40.4 129.33 39.48 129.35 39.48C129.36 39.47 129.38 39.49 129.38 39.51C129.38 39.53 128.94 40.55 128.39 41.77C127.85 42.99 127.4 44.01 127.4 44.02C127.4 44.03 127.45 44 127.51 43.95C127.57 43.89 128.61 42.98 129.83 41.91C131.05 40.84 132.05 39.96 132.07 39.95C132.09 39.95 132.1 39.95 132.11 39.96C132.11 39.97 131.89 40.91 131.62 42.06C131.34 43.2 131.12 44.14 131.13 44.15C131.14 44.16 135.03 38.53 135.06 38.47C135.08 38.43 135.05 38.33 134.85 37.72C134.72 37.33 134.6 37.01 134.59 37.01C134.58 37 133.87 37.4 133.01 37.9C132.15 38.4 131.44 38.81 131.43 38.81C131.38 38.83 131.45 38.6 131.87 37.45C132.13 36.75 132.33 36.16 132.32 36.16C132.3 36.16 131.53 36.38 130.28 36.75C129.04 37.13 128.68 37.22 128.68 37.18C128.68 37.16 128.94 36.82 129.25 36.42C129.57 36.02 130.07 35.37 130.39 34.98C130.69 34.58 130.94 34.26 130.93 34.26C130.91 34.26 130.48 34.28 129.97 34.3C129.45 34.33 129.02 34.35 129.01 34.34C129 34.33 129 34.31 129.01 34.3C129.02 34.28 129.25 34.06 129.54 33.82C129.83 33.57 130.07 33.35 130.09 33.33C130.11 33.31 130.07 33.29 129.94 33.27C129.84 33.25 129.34 33.18 128.83 33.09C128.32 33.01 127.89 32.93 127.88 32.92C127.87 32.91 127.86 32.9 127.86 32.89C127.87 32.86 128.18 32.76 129.47 32.31C130.07 32.1 130.59 31.92 130.63 31.9L130.7 31.86L129.38 30.58C128.66 29.88 128.07 29.3 128.06 29.28C128.06 29.27 128.07 29.26 128.1 29.25C128.12 29.25 128.91 29.37 129.86 29.52C130.81 29.68 131.59 29.8 131.6 29.8C131.61 29.79 131.4 29.37 131.14 28.86C130.87 28.35 130.65 27.92 130.64 27.9C130.64 27.88 130.64 27.87 130.65 27.86C130.67 27.86 130.94 28.06 131.26 28.3C131.58 28.55 131.84 28.74 131.84 28.74C131.85 28.73 131.82 28.54 131.78 28.32C131.44 26.07 131.32 25.25 131.31 25.23C131.3 25.22 131.18 25.59 131.05 26.05C130.91 26.51 130.78 26.92 130.77 26.95C130.74 27.01 130.74 27.01 130.41 26.76C130.22 26.62 129.66 26.2 129.16 25.83C128.66 25.45 128.25 25.15 128.25 25.16C128.25 25.17 128.64 25.83 129.13 26.62C129.61 27.41 130.01 28.08 130.01 28.1C130.02 28.13 130.01 28.14 129.98 28.14C129.94 28.14 121.84 26.28 120.94 26.07C120.92 26.06 120.92 26.07 120.93 26.08C120.94 26.1 122.27 27.06 123.87 28.21C125.48 29.37 126.8 30.33 126.8 30.35C126.81 30.37 126.8 30.39 126.79 30.39C126.77 30.4 126.07 30.47 124.64 30.62C124.36 30.65 124.14 30.68 124.14 30.69C124.14 30.69 124.7 31 125.39 31.36C126.08 31.73 126.65 32.03 126.65 32.05C126.66 32.09 126.55 32.13 125.49 32.42C124.51 32.7 124.13 32.8 122.04 33.4C121.61 33.52 120.8 33.75 120.25 33.91C119.38 34.15 118.61 34.38 118.66 34.39Z" fill="#0D68E0" fill-opacity="1.000000" fill-rule="nonzero"/>
	<path id="Vector" d="M121.85 34.91L120.51 34.9L120.51 34.9L118.65 34.89Q118.61 34.88 118.56 34.88Q118.54 34.87 118.51 34.86Q118.47 34.85 118.42 34.83Q118.38 34.81 118.35 34.78Q118.27 34.72 118.22 34.64Q118.18 34.56 118.16 34.46Q118.15 34.38 118.16 34.3Q118.18 34.23 118.21 34.15Q118.23 34.12 118.25 34.09Q118.28 34.06 118.3 34.03Q118.32 34.02 118.33 34.01Q118.36 33.98 118.39 33.96Q118.44 33.93 118.49 33.91Q118.53 33.89 118.61 33.87Q118.73 33.83 118.96 33.76Q119.47 33.61 120.11 33.43L120.87 33.21L121.91 32.92L124.67 32.13L125.35 31.94Q125.37 31.94 125.4 31.93Q125.28 31.87 125.16 31.8Q124.63 31.53 124.27 31.33Q124.09 31.24 123.99 31.18Q123.94 31.15 123.91 31.14Q123.7 31.01 123.64 30.84Q123.6 30.69 123.67 30.5Q123.72 30.39 123.8 30.31Q123.9 30.23 124.04 30.2Q124.07 30.19 124.1 30.19Q124.15 30.18 124.22 30.17Q124.38 30.15 124.58 30.13L125.53 30.02Q124.69 29.41 123.58 28.62L120.59 26.45L120.55 26.41Q120.5 26.35 120.47 26.29Q120.46 26.27 120.46 26.25Q120.44 26.2 120.43 26.15Q120.42 26.1 120.43 26.06Q120.43 25.98 120.45 25.91Q120.47 25.84 120.52 25.78Q120.58 25.69 120.67 25.64Q120.76 25.58 120.87 25.57Q120.88 25.57 120.89 25.57Q120.96 25.56 121.04 25.58L121.05 25.58L125.53 26.61L129.02 27.41Q128.87 27.16 128.7 26.88Q128.34 26.3 128.08 25.86Q127.95 25.65 127.89 25.54Q127.85 25.48 127.83 25.44Q127.75 25.31 127.75 25.19L127.74 25.15L127.75 25.11Q127.76 25.02 127.8 24.94Q127.84 24.86 127.91 24.79Q127.96 24.74 128.03 24.71Q128.09 24.68 128.17 24.67Q128.22 24.66 128.27 24.66Q128.32 24.66 128.38 24.68Q128.43 24.69 128.48 24.72Q128.5 24.73 128.53 24.75Q128.56 24.77 128.6 24.8Q128.68 24.85 128.81 24.94Q129.08 25.14 129.46 25.42L129.67 25.58L130.48 26.19Q130.52 26.06 130.57 25.91Q130.67 25.55 130.75 25.31Q130.79 25.19 130.81 25.12Q130.83 25.07 130.84 25.04Q130.87 24.99 130.89 24.95Q130.93 24.9 130.98 24.86Q131.02 24.82 131.06 24.8Q131.16 24.75 131.25 24.73Q131.35 24.72 131.45 24.75Q131.55 24.78 131.63 24.85Q131.7 24.91 131.75 25L131.79 25.08L132.28 28.24Q132.31 28.43 132.32 28.54Q132.33 28.61 132.34 28.65Q132.36 28.81 132.31 28.93Q132.27 29.02 132.21 29.08Q132.15 29.15 132.07 29.19Q132.02 29.21 131.96 29.23Q131.93 29.24 131.89 29.24Q131.9 29.27 131.92 29.3Q131.99 29.43 132.02 29.51Q132.04 29.55 132.06 29.58Q132.07 29.61 132.08 29.64Q132.09 29.69 132.1 29.73Q132.1 29.78 132.1 29.82Q132.1 29.86 132.09 29.9Q132.08 29.95 132.06 30Q132.04 30.05 132.01 30.09Q131.95 30.16 131.88 30.21Q131.81 30.26 131.72 30.28L131.62 30.31L129.78 30.02Q129.62 29.99 129.47 29.97Q129.6 30.09 129.73 30.22L131.54 31.98L130.87 32.33Q130.78 32.39 129.77 32.74L130.02 32.78Q130.17 32.8 130.25 32.83Q130.36 32.88 130.44 32.96Q130.49 33 130.52 33.06Q130.57 33.14 130.58 33.23Q130.6 33.32 130.58 33.41Q130.57 33.47 130.55 33.52Q130.53 33.58 130.48 33.64L130.48 33.64L130.48 33.65Q130.45 33.68 130.33 33.79L130.98 33.75L131.05 33.77Q131.12 33.79 131.18 33.83Q131.24 33.86 131.29 33.92Q131.34 33.96 131.36 34.02Q131.39 34.07 131.41 34.13Q131.42 34.18 131.43 34.24Q131.43 34.3 131.42 34.35Q131.41 34.37 131.41 34.38Q131.4 34.43 131.38 34.47Q131.36 34.5 131.34 34.54Q131.33 34.56 131.3 34.6Q131.25 34.67 131.17 34.77Q131.01 34.99 130.78 35.29L130.21 36.01L129.96 36.33Q130.04 36.3 130.13 36.28Q131.03 36.01 131.62 35.84Q131.88 35.76 132.03 35.72Q132.11 35.7 132.16 35.69Q132.28 35.65 132.38 35.66L132.39 35.67L132.41 35.67Q132.5 35.69 132.57 35.73Q132.64 35.77 132.7 35.83Q132.73 35.87 132.76 35.91Q132.78 35.96 132.8 36.01Q132.81 36.04 132.81 36.07Q132.82 36.12 132.82 36.16Q132.82 36.21 132.81 36.25Q132.81 36.28 132.8 36.32Q132.79 36.36 132.77 36.42Q132.74 36.52 132.67 36.71Q132.53 37.11 132.34 37.63Q132.32 37.68 132.3 37.73L132.76 37.47Q133.4 37.1 133.88 36.83Q134.1 36.7 134.23 36.63Q134.29 36.59 134.33 36.57Q134.36 36.56 134.39 36.55Q134.42 36.54 134.44 36.53Q134.48 36.52 134.52 36.51Q134.53 36.51 134.54 36.51Q134.57 36.5 134.61 36.51Q134.64 36.51 134.67 36.51Q134.75 36.53 134.83 36.56Q134.9 36.6 134.96 36.67L134.96 36.67Q135.02 36.73 135.06 36.83Q135.07 36.85 135.09 36.89Q135.11 36.95 135.14 37.06Q135.21 37.25 135.32 37.56Q135.48 38.03 135.52 38.17Q135.55 38.28 135.56 38.35Q135.58 38.49 135.54 38.61Q135.53 38.64 135.52 38.67L135.5 38.71L133.51 41.6L131.54 44.43Q131.53 44.44 131.53 44.44Q131.53 44.45 131.52 44.45Q131.4 44.62 131.19 44.64Q130.99 44.67 130.82 44.55L130.82 44.54L130.81 44.53Q130.7 44.45 130.66 44.33Q130.61 44.21 130.64 44.05Q130.64 44.03 130.65 44Q130.66 43.96 130.67 43.87Q130.71 43.71 130.78 43.42Q130.92 42.79 131.13 41.95L131.28 41.3Q130.8 41.71 130.16 42.28L127.84 44.33Q127.76 44.39 127.69 44.44Q127.62 44.48 127.54 44.5Q127.46 44.53 127.38 44.52Q127.31 44.52 127.24 44.5Q127.16 44.46 127.09 44.41Q127.02 44.36 126.97 44.28Q126.93 44.21 126.92 44.15Q126.9 44.07 126.9 44L126.9 44Q126.9 43.91 126.94 43.82Q126.95 43.8 126.96 43.77Q126.98 43.72 127.02 43.63Q127.1 43.45 127.23 43.15Q127.55 42.44 127.94 41.57Q128.2 40.96 128.41 40.49L125.41 41.96L120.98 44.12L120.73 43.92Q120.65 43.85 120.61 43.77Q120.56 43.69 120.55 43.58Q120.55 43.54 120.55 43.51Q120.55 43.45 120.57 43.39Q120.58 43.33 120.62 43.26Q120.65 43.21 120.71 43.14L122.22 41.33L123.85 39.38L125.29 37.65Q125.73 37.12 126.07 36.71L125.79 36.76L124.32 37.02Q124.23 37.04 124.15 37.03Q124.11 37.03 124.07 37.01Q123.96 36.99 123.88 36.92Q123.8 36.86 123.75 36.76Q123.72 36.7 123.71 36.64Q123.69 36.58 123.69 36.51Q123.69 36.47 123.7 36.43Q123.71 36.4 123.72 36.37Q123.73 36.34 123.74 36.31Q123.78 36.23 123.85 36.16Q123.87 36.14 123.88 36.13Q123.91 36.11 123.95 36.07Q124.04 35.99 124.2 35.86Q124.42 35.66 124.99 35.18L124.99 35.18L124.99 35.18L124.99 35.18L125 35.17L125 35.17L125 35.17L125 35.17L125.01 35.17L125.02 35.16Q125.16 35.04 125.27 34.94Q124.7 34.94 123.76 34.93L121.85 34.91ZM126.04 34.95C126.09 34.91 126.13 34.87 126.18 34.83C126.5 34.55 126.55 34.51 126.54 34.49C126.53 34.48 126.53 34.48 126.53 34.48C126.51 34.46 126.45 34.46 126.04 34.45C125.98 34.45 125.92 34.45 125.85 34.45C125.45 34.44 124.8 34.44 123.76 34.43C122.99 34.42 121.53 34.41 120.52 34.4C120.46 34.4 120.4 34.4 120.34 34.4C119.88 34.4 119.46 34.39 119.16 34.39C118.85 34.39 118.66 34.38 118.66 34.39C118.63 34.38 118.82 34.32 119.13 34.23C119.43 34.14 119.83 34.03 120.25 33.91C120.26 33.91 120.27 33.9 120.28 33.9C120.83 33.74 121.61 33.52 122.04 33.4C124.13 32.8 124.51 32.7 125.49 32.42C125.71 32.36 125.89 32.31 126.03 32.27C126.09 32.25 126.14 32.24 126.19 32.23C126.6 32.1 126.66 32.08 126.65 32.05C126.65 32.04 126.49 31.95 126.22 31.81C126.18 31.78 126.14 31.76 126.09 31.73C125.89 31.63 125.65 31.5 125.39 31.36C125.22 31.27 125.05 31.18 124.89 31.1C124.78 31.04 124.67 30.98 124.58 30.93C124.31 30.79 124.14 30.69 124.14 30.69C124.14 30.68 124.36 30.65 124.63 30.62L124.64 30.62C124.76 30.61 124.88 30.6 125 30.59C125.47 30.54 125.84 30.5 126.13 30.46C126.19 30.46 126.26 30.45 126.31 30.44C126.62 30.41 126.78 30.39 126.79 30.39C126.8 30.39 126.81 30.37 126.8 30.35C126.8 30.35 126.8 30.34 126.78 30.33C126.78 30.33 126.78 30.33 126.77 30.32C126.72 30.28 126.6 30.19 126.42 30.06C126.37 30.02 126.32 29.99 126.26 29.94C125.73 29.55 124.86 28.92 123.87 28.21C123.13 27.68 122.44 27.18 121.92 26.81C121.69 26.63 121.48 26.49 121.32 26.37C121.11 26.22 120.97 26.12 120.94 26.09L120.94 26.09C120.94 26.09 120.93 26.08 120.93 26.08C120.92 26.07 120.92 26.06 120.94 26.07L120.95 26.07C120.95 26.07 120.95 26.07 120.95 26.07C121.04 26.09 121.2 26.13 121.41 26.18C121.62 26.22 121.86 26.28 122.15 26.35C124.14 26.81 127.92 27.67 129.38 28.01C129.43 28.02 129.48 28.03 129.52 28.04C129.81 28.1 129.97 28.14 129.98 28.14C130.01 28.14 130.02 28.13 130.01 28.1C130.01 28.1 130.01 28.08 129.99 28.06C129.99 28.05 129.98 28.04 129.98 28.03C129.94 27.96 129.87 27.85 129.78 27.69C129.75 27.65 129.73 27.61 129.7 27.57C129.54 27.31 129.34 26.98 129.13 26.62C129.05 26.5 128.97 26.37 128.9 26.26C128.75 26 128.61 25.77 128.5 25.59C128.34 25.33 128.25 25.17 128.25 25.16L128.25 25.16L128.25 25.16C128.27 25.17 128.43 25.28 128.66 25.45C128.8 25.56 128.97 25.69 129.16 25.83C129.2 25.86 129.24 25.89 129.28 25.92C129.69 26.22 130.11 26.54 130.33 26.7C130.33 26.7 130.33 26.7 130.33 26.7C130.36 26.72 130.39 26.74 130.41 26.76C130.74 27.01 130.74 27.01 130.77 26.95C130.78 26.93 130.83 26.76 130.91 26.51C130.91 26.51 130.91 26.51 130.91 26.51C130.93 26.45 130.95 26.38 130.97 26.31C130.99 26.22 131.02 26.14 131.05 26.05C131.08 25.93 131.12 25.81 131.15 25.71C131.23 25.44 131.29 25.26 131.31 25.24L131.31 25.23C131.31 25.23 131.31 25.23 131.31 25.23C131.31 25.24 131.34 25.39 131.39 25.73C131.41 25.89 131.45 26.09 131.48 26.33C131.55 26.76 131.63 27.32 131.74 28.04C131.75 28.11 131.76 28.18 131.77 28.25C131.78 28.27 131.78 28.29 131.78 28.32C131.82 28.54 131.85 28.73 131.84 28.74C131.84 28.74 131.7 28.64 131.51 28.49C131.49 28.48 131.46 28.46 131.44 28.44C131.39 28.4 131.34 28.36 131.28 28.32C131.27 28.31 131.27 28.31 131.26 28.3C131.19 28.25 131.12 28.2 131.06 28.15C130.83 27.98 130.66 27.86 130.65 27.86C130.64 27.87 130.64 27.88 130.64 27.9C130.64 27.91 130.73 28.08 130.85 28.32C130.93 28.47 131.02 28.64 131.11 28.82C131.12 28.84 131.13 28.85 131.14 28.86C131.21 29 131.27 29.13 131.33 29.25C131.35 29.28 131.37 29.31 131.38 29.35C131.5 29.58 131.58 29.74 131.6 29.79C131.6 29.79 131.6 29.79 131.6 29.79L131.6 29.8C131.6 29.8 131.41 29.77 131.11 29.72C131.07 29.72 131.04 29.71 131 29.71C130.7 29.66 130.3 29.59 129.86 29.52C129.49 29.46 129.14 29.41 128.85 29.36C128.75 29.35 128.65 29.33 128.56 29.32C128.37 29.29 128.23 29.27 128.15 29.26C128.14 29.26 128.13 29.26 128.13 29.26C128.11 29.25 128.1 29.25 128.1 29.25C128.07 29.26 128.06 29.27 128.06 29.28C128.07 29.29 128.2 29.42 128.41 29.63C128.47 29.69 128.54 29.76 128.62 29.83C128.83 30.05 129.1 30.3 129.38 30.58L130.31 31.49L130.7 31.86L130.63 31.9C130.61 31.91 130.44 31.97 130.19 32.06C129.99 32.13 129.73 32.22 129.47 32.31C129.17 32.41 128.92 32.5 128.73 32.57C128.57 32.62 128.43 32.67 128.33 32.71C127.98 32.83 127.87 32.87 127.86 32.89C127.86 32.9 127.87 32.91 127.88 32.92C127.89 32.93 128.08 32.96 128.35 33.01C128.47 33.03 128.62 33.06 128.77 33.08C128.79 33.09 128.81 33.09 128.83 33.09C129.07 33.13 129.3 33.17 129.49 33.2C129.53 33.21 129.57 33.21 129.6 33.22C129.77 33.25 129.89 33.26 129.94 33.27C129.98 33.28 130.01 33.29 130.03 33.29C130.03 33.29 130.03 33.29 130.04 33.29C130.09 33.3 130.1 33.32 130.09 33.33C130.08 33.35 129.92 33.48 129.72 33.66C129.7 33.68 129.67 33.71 129.64 33.73C129.61 33.76 129.58 33.79 129.54 33.82C129.54 33.82 129.54 33.82 129.53 33.82C129.34 33.99 129.17 34.14 129.08 34.22C129.04 34.26 129.01 34.29 129.01 34.3C129 34.31 129 34.33 129.01 34.34C129.02 34.34 129.22 34.34 129.5 34.33C129.57 34.32 129.65 34.32 129.73 34.32C129.81 34.31 129.89 34.31 129.97 34.3C130.08 34.3 130.19 34.29 130.29 34.29C130.34 34.28 130.38 34.28 130.43 34.28C130.72 34.27 130.92 34.26 130.93 34.26L130.93 34.26C130.93 34.26 130.92 34.26 130.92 34.26C130.91 34.29 130.79 34.45 130.63 34.66C130.6 34.7 130.57 34.74 130.54 34.78C130.49 34.84 130.44 34.91 130.39 34.98C130.07 35.37 129.57 36.02 129.25 36.42C129.21 36.47 129.17 36.52 129.13 36.57C129.08 36.65 129.02 36.71 128.97 36.78C128.8 37 128.68 37.17 128.68 37.18C128.68 37.21 128.81 37.18 129.17 37.08C129.25 37.06 129.33 37.04 129.43 37.01C129.65 36.94 129.93 36.86 130.28 36.75C130.89 36.57 131.4 36.42 131.75 36.32C131.78 36.31 131.81 36.3 131.84 36.29C132.14 36.21 132.31 36.16 132.32 36.16C132.32 36.16 132.32 36.17 132.32 36.18C132.32 36.18 132.32 36.19 132.32 36.19C132.3 36.26 132.25 36.42 132.17 36.64C132.16 36.67 132.15 36.7 132.14 36.73C132.06 36.94 131.97 37.19 131.87 37.45C131.77 37.72 131.69 37.94 131.63 38.12C131.6 38.2 131.58 38.27 131.56 38.33C131.47 38.58 131.43 38.71 131.42 38.77C131.42 38.78 131.42 38.78 131.42 38.79C131.42 38.81 131.42 38.81 131.43 38.81C131.44 38.81 131.6 38.72 131.86 38.57C131.91 38.53 131.97 38.5 132.04 38.46C132.31 38.31 132.65 38.11 133.01 37.9C133.46 37.64 133.86 37.41 134.15 37.24L134.15 37.24C134.42 37.09 134.59 37 134.59 37.01C134.6 37.01 134.67 37.21 134.76 37.48L134.76 37.48C134.79 37.55 134.82 37.64 134.85 37.72C135.05 38.33 135.08 38.43 135.06 38.47C135.04 38.51 133.03 41.42 131.89 43.06C131.51 43.61 131.23 44.01 131.15 44.12L131.15 44.12C131.14 44.13 131.14 44.14 131.13 44.14C131.13 44.15 131.13 44.15 131.13 44.15C131.12 44.15 131.25 43.6 131.43 42.84C131.49 42.6 131.55 42.34 131.62 42.06C131.73 41.56 131.84 41.1 131.93 40.73C131.95 40.63 131.98 40.53 132 40.44C132.07 40.15 132.11 39.97 132.11 39.96C132.1 39.95 132.09 39.95 132.07 39.95L132.07 39.95C132.07 39.96 132.06 39.96 132.04 39.98C131.99 40.02 131.87 40.12 131.71 40.26C131.64 40.32 131.56 40.39 131.48 40.46C131.06 40.82 130.48 41.34 129.83 41.91C129.24 42.43 128.68 42.91 128.27 43.28C128.08 43.45 127.91 43.59 127.79 43.7C127.63 43.85 127.53 43.93 127.51 43.95C127.45 44 127.4 44.03 127.4 44.02C127.4 44.01 127.47 43.84 127.6 43.56C127.67 43.4 127.75 43.2 127.85 42.98C128.01 42.63 128.19 42.21 128.39 41.77C128.67 41.14 128.93 40.56 129.11 40.15C129.14 40.08 129.17 40.01 129.2 39.95C129.28 39.75 129.34 39.61 129.37 39.55C129.37 39.54 129.37 39.53 129.37 39.53C129.38 39.51 129.38 39.51 129.38 39.51C129.38 39.49 129.36 39.47 129.35 39.48C129.34 39.48 129.19 39.55 128.92 39.69C128.86 39.71 128.79 39.75 128.72 39.78C127.99 40.14 126.67 40.78 125.19 41.51C123.97 42.11 122.87 42.65 122.11 43.02C121.87 43.14 121.67 43.24 121.5 43.32C121.21 43.46 121.05 43.54 121.05 43.53C121.05 43.53 121.05 43.53 121.05 43.53C121.05 43.52 121.06 43.49 121.09 43.46C121.11 43.44 121.39 43.1 121.8 42.61C122.04 42.33 122.31 42 122.61 41.65C123.41 40.68 124.79 39.03 125.67 37.97C126.12 37.43 126.54 36.93 126.82 36.57C126.87 36.52 126.91 36.46 126.95 36.41C127.05 36.29 127.13 36.19 127.19 36.12C127.19 36.12 127.19 36.12 127.19 36.11C127.24 36.06 127.26 36.02 127.26 36.02C127.25 36.01 127.21 36 127.17 36C127.15 36.01 126.99 36.03 126.76 36.08C126.7 36.09 126.63 36.1 126.55 36.11C126.15 36.18 125.6 36.28 125.14 36.36C124.98 36.39 124.82 36.42 124.69 36.45C124.42 36.5 124.23 36.53 124.22 36.53C124.2 36.54 124.19 36.53 124.19 36.52C124.19 36.52 124.34 36.39 124.57 36.2C124.67 36.11 124.79 36.01 124.92 35.9C125.04 35.79 125.18 35.68 125.31 35.56L125.34 35.54C125.64 35.29 125.87 35.1 126.04 34.95ZM121.48 43.78L121.48 43.78L121.48 43.78L121.47 43.78L121.48 43.78Z" fill="#131313" fill-opacity="1.000000" fill-rule="evenodd"/>
	<path id="демонтаж сервис" d="M62.53 0C67.58 0 70.75 3.45 70.75 9C70.75 14.55 67.58 18 62.53 18C57.47 18 54.29 14.55 54.29 9C54.29 3.45 57.48 0 62.53 0ZM3.81 17.69L3.81 21.13L0 21.13L0 14.12L1.13 14.12C2.26 13.21 2.54 11.94 2.69 9.54L3.23 0.3L15.84 0.3L15.84 14.12L17.92 14.12L17.92 21.13L14.12 21.13L14.12 17.69L3.81 17.69ZM31.07 14.12L31.07 17.69L19.64 17.69L19.64 0.3L31.07 0.3L31.07 3.87L23.88 3.87L23.88 7.33L30.64 7.33L30.64 10.58L23.88 10.58L23.88 14.12L31.07 14.12ZM52.01 17.69L48.28 17.69L48.28 6.83L48.2 6.83L44.07 17.51L41.65 17.51L37.53 6.83L37.44 6.83L37.44 17.69L33.71 17.69L33.71 0.3L38.61 0.3L42.81 11.47L42.91 11.47L47.11 0.3L52.01 0.3L52.01 17.69ZM88.16 17.69L83.93 17.69L83.93 10.69L77.29 10.69L77.29 17.69L73.05 17.69L73.05 0.3L77.29 0.3L77.29 7.12L83.93 7.12L83.93 0.3L88.16 0.3L88.16 17.69ZM99.03 17.69L94.8 17.69L94.8 3.87L90.2 3.87L90.2 0.3L103.63 0.3L103.63 3.87L99.03 3.87L99.03 17.69ZM114.88 17.69L113.83 13.87L108.37 13.87L107.31 17.69L102.99 17.69L108.59 0.3L113.78 0.3L119.38 17.69L114.88 17.69ZM137.64 8.52L144 17.69L138.95 17.69L134.07 10.47L133.98 10.47L133.98 17.69L129.89 17.69L129.89 10.47L129.8 10.47L124.91 17.69L119.94 17.69L126.23 8.58L120.2 0.3L124.83 0.3L129.8 7.33L129.89 7.33L129.89 0.3L133.98 0.3L133.98 7.33L134.07 7.33L139.04 0.3L143.63 0.3L137.64 8.52ZM62.53 3.59C60.16 3.59 58.61 5.69 58.61 9C58.61 12.3 60.15 14.4 62.53 14.4C64.9 14.4 66.45 12.3 66.45 9C66.45 5.69 64.9 3.59 62.53 3.59ZM6.56 9.93C6.44 11.85 6.19 13.18 5.48 14.03L5.48 14.12L11.61 14.12L11.61 3.84L6.94 3.84L6.56 9.93ZM111.05 3.99L109.19 10.69L112.99 10.69L111.15 3.99L111.05 3.99ZM8.75 44C3.76 44 0.65 40.55 0.65 34.86C0.65 29.18 3.78 25.73 8.75 25.73C12.82 25.73 15.92 28.48 16.27 32.37L12.16 32.37C11.8 30.56 10.47 29.41 8.75 29.41C6.44 29.41 4.97 31.47 4.97 34.84C4.97 38.26 6.43 40.32 8.76 40.32C10.51 40.32 11.79 39.22 12.17 37.42L16.29 37.42C15.9 41.37 12.91 44 8.75 44ZM89.49 44C84.5 44 81.39 40.55 81.39 34.86C81.39 29.18 84.52 25.73 89.49 25.73C93.55 25.73 96.66 28.48 97.01 32.37L92.9 32.37C92.54 30.56 91.21 29.41 89.49 29.41C87.18 29.41 85.71 31.47 85.71 34.84C85.71 38.26 87.17 40.32 89.5 40.32C91.24 40.32 92.53 39.22 92.91 37.42L97.03 37.42C96.64 41.37 93.65 44 89.49 44ZM29.93 39.99L29.93 43.56L18.51 43.56L18.51 26.16L29.93 26.16L29.93 29.73L22.75 29.73L22.75 33.19L29.51 33.19L29.51 36.45L22.75 36.45L22.75 39.99L29.93 39.99ZM32.58 26.16L39.8 26.16C43.38 26.16 45.8 28.59 45.8 32.32C45.8 36.04 43.25 38.46 39.54 38.46L36.82 38.46L36.82 43.56L32.58 43.56L32.58 26.16ZM56.06 43.56L48.1 43.56L48.1 26.16L55.85 26.16C59.13 26.16 61.11 27.82 61.11 30.5C61.11 32.46 59.7 34.01 57.85 34.28L57.85 34.37C60.1 34.48 61.88 36.23 61.88 38.55C61.88 41.6 59.63 43.56 56.06 43.56ZM74.88 43.56L74.88 32.9L74.76 32.9L67.96 43.56L63.9 43.56L63.9 26.16L68.13 26.16L68.13 36.83L68.25 36.83L75.05 26.16L79.1 26.16L79.1 43.56L74.88 43.56ZM52.34 29.3L52.34 33.25L54.52 33.25C56.06 33.25 56.99 32.49 56.99 31.24C56.99 30.02 56.15 29.3 54.73 29.3L52.34 29.3ZM36.82 29.55L36.82 35.13L38.65 35.13C40.46 35.13 41.52 34.16 41.52 32.34C41.52 30.53 40.46 29.55 38.68 29.55L36.82 29.55ZM52.34 40.43L54.86 40.43C56.6 40.43 57.57 39.63 57.57 38.16C57.57 36.74 56.58 35.94 54.84 35.94L52.34 35.94L52.34 40.43Z" fill="#F3F3F3" fill-opacity="1.000000" fill-rule="evenodd"/>
</svg>
