<svg width="24.000000" height="24.000000" viewBox="0 0 24 24" fill="none" xmlns="http://www.w3.org/2000/svg" xmlns:xlink="http://www.w3.org/1999/xlink">
	<desc>
			Created with Pixso.
	</desc>
	<defs/>
	<path id="Vector" d="M19.98 24L4.01 24C1.8 24 0 22.19 0 19.98L0 4.01C0 1.8 1.8 0 4.01 0L19.98 0C22.19 0 24 1.8 24 4.01L24 19.98C24 22.2 22.2 24 19.98 24Z" fill="#131313" fill-opacity="1.000000" fill-rule="nonzero"/>
	<path id="Vector" d="M12 18.16C10.35 18.16 8.8 17.52 7.64 16.36C6.48 15.2 5.84 13.65 5.84 12C5.84 10.36 6.48 8.81 7.64 7.65C8.8 6.48 10.35 5.84 12 5.84C13.64 5.84 15.19 6.48 16.35 7.65C17.52 8.81 18.16 10.36 18.16 12C18.16 13.65 17.52 15.2 16.35 16.36C15.18 17.52 13.64 18.16 12 18.16ZM12 7.15C9.33 7.15 7.15 9.32 7.15 12C7.15 14.67 9.32 16.85 12 16.85C14.67 16.85 16.85 14.68 16.85 12C16.84 9.33 14.67 7.15 12 7.15Z" fill="#F4F4F4" fill-opacity="1.000000" fill-rule="nonzero"/>
	<path id="Vector" d="M20.54 4.45C20.54 5.11 20.01 5.64 19.36 5.64C18.71 5.64 18.18 5.11 18.18 4.45C18.18 3.8 18.71 3.27 19.36 3.27C20.01 3.27 20.54 3.8 20.54 4.45Z" fill="#F4F4F4" fill-opacity="1.000000" fill-rule="evenodd"/>
</svg>
