<svg width="30.000000" height="30.000000" viewBox="0 0 30 30" fill="none" xmlns="http://www.w3.org/2000/svg" xmlns:xlink="http://www.w3.org/1999/xlink">
	<desc>
			Created with Pixso.
	</desc>
	<defs/>
	<path id="Vector" d="M24.98 30L5.01 30C2.25 30 0 27.74 0 24.98L0 5.01C0 2.25 2.25 0 5.01 0L24.98 0C27.74 0 30 2.25 30 5.01L30 24.98C30 27.75 27.75 30 24.98 30Z" fill="#F4F4F4" fill-opacity="1.000000" fill-rule="nonzero"/>
	<path id="Vector" d="M15 22.7C12.94 22.7 11.01 21.9 9.56 20.45C8.1 18.99 7.3 17.06 7.3 15C7.3 12.94 8.1 11.01 9.56 9.56C11.01 8.1 12.94 7.3 15 7.3C17.06 7.3 18.99 8.1 20.45 9.56C21.9 11.01 22.7 12.94 22.7 15C22.7 17.06 21.9 18.99 20.45 20.45C18.98 21.9 17.06 22.7 15 22.7ZM15 8.94C11.66 8.94 8.94 11.65 8.94 15C8.94 18.34 11.65 21.06 15 21.06C18.34 21.06 21.06 18.35 21.06 15C21.05 11.66 18.34 8.94 15 8.94Z" fill="#131313" fill-opacity="1.000000" fill-rule="nonzero"/>
	<path id="Vector" d="M25.68 5.57C25.68 6.39 25.02 7.05 24.2 7.05C23.39 7.05 22.72 6.39 22.72 5.57C22.72 4.75 23.39 4.09 24.2 4.09C25.02 4.09 25.68 4.75 25.68 5.57Z" fill="#131313" fill-opacity="1.000000" fill-rule="evenodd"/>
</svg>
