<svg width="510.000000" height="152.000000" viewBox="0 0 510 152" fill="none" xmlns="http://www.w3.org/2000/svg" xmlns:xlink="http://www.w3.org/1999/xlink">
	<desc>
			Created with Pixso.
	</desc>
	<defs/>
	<path id="Vector" d="M344.25 84.41L359.88 84.41L359.88 96.22L344.25 96.22L344.25 84.41ZM363.79 84.41L391.14 84.41L391.14 96.22L363.79 96.22L363.79 84.41ZM395.05 84.41L426.3 84.41L426.3 96.22L395.05 96.22L395.05 84.41ZM344.25 100.16L367.7 100.16L367.7 111.97L344.25 111.97L344.25 100.16ZM371.6 100.16L398.95 100.16L398.95 111.97L371.6 111.97L371.6 100.16ZM402.86 100.16L416.54 100.16L416.54 111.97L402.86 111.97L402.86 100.16ZM344.25 115.91L359.88 115.91L359.88 127.73L344.25 127.73L344.25 115.91ZM363.79 115.91L391.14 115.91L391.14 127.73L363.79 127.73L363.79 115.91ZM395.05 115.91L426.3 115.91L426.3 127.73L395.05 127.73L395.05 115.91ZM344.25 131.67L367.7 131.67L367.7 143.48L344.25 143.48L344.25 131.67ZM371.6 131.67L398.95 131.67L398.95 143.48L371.6 143.48L371.6 131.67ZM402.86 133.08L426.3 131.67L418.1 143.48L402.86 143.48L402.86 133.08Z" fill="#131313" fill-opacity="1.000000" fill-rule="evenodd"/>
	<circle id="Ellipse 73" cx="455.611816" cy="98.710815" r="21.489620" fill="#0D68E0" fill-opacity="1.000000"/>
	<path id="Vector 125" d="M461.47 83.61C464.07 82.31 469.03 79.17 471.24 79.17C473.99 79.17 477.1 83.08 477.1 85.03C477.1 86.98 475.14 90.89 473.19 90.89C471.63 90.89 471.89 92.19 471.24 92.84" stroke="#0D68E0" stroke-opacity="1.000000" stroke-width="3.282051"/>
	<path id="Vector 126" d="M475.14 81.12C479.7 79.82 489.51 75.52 498.59 59.63C506.4 45.96 508.35 36.19 508.35 16.65C508.35 13.53 508.35 4.93 508.35 -0.93" stroke="#0D68E0" stroke-opacity="1.000000" stroke-width="3.282051"/>
	<path id="Vector" d="M389.1 111.94C389.13 111.94 391.87 111.96 395.2 112C398.52 112.02 403.31 112.06 405.84 112.09C414.12 112.16 414.82 112.17 414.91 112.24C415.04 112.35 415.14 112.25 410.93 115.81C408.92 117.52 407.27 118.93 407.26 118.96C407.25 118.99 407.28 119 407.35 118.99C407.49 118.95 416.73 117.3 417.04 117.25C417.17 117.24 417.29 117.26 417.32 117.31C417.35 117.36 415 120.24 412.11 123.72C409.21 127.18 404.68 132.61 402.05 135.77C399.42 138.93 397.18 141.61 397.07 141.73C396.98 141.85 396.91 141.95 396.94 141.97C396.96 141.98 403.07 139 410.52 135.34C417.98 131.67 424.12 128.67 424.18 128.65C424.23 128.64 424.28 128.68 424.29 128.75C424.29 128.82 422.83 132.16 421.04 136.18C419.25 140.19 417.78 143.52 417.78 143.56C417.78 143.6 417.95 143.51 418.15 143.33C418.34 143.15 421.77 140.14 425.75 136.63C429.75 133.12 433.05 130.24 433.11 130.22C433.17 130.21 433.22 130.22 433.23 130.25C433.24 130.27 432.51 133.37 431.62 137.13C430.72 140.89 430 143.97 430.02 143.99C430.05 144.02 442.83 125.55 442.92 125.34C442.98 125.21 442.89 124.89 442.22 122.89C441.79 121.62 441.42 120.57 441.39 120.55C441.36 120.51 439.03 121.83 436.2 123.47C433.38 125.11 431.05 126.45 431.02 126.47C430.84 126.52 431.08 125.77 432.46 122.01C433.32 119.69 433.98 117.78 433.94 117.77C433.86 117.76 431.33 118.49 427.23 119.72C423.15 120.95 421.99 121.26 421.99 121.12C421.99 121.05 422.83 119.93 423.86 118.61C424.89 117.3 426.56 115.18 427.58 113.89C428.6 112.6 429.39 111.53 429.36 111.52C429.32 111.52 427.9 111.58 426.21 111.67C424.51 111.76 423.1 111.81 423.07 111.79C423.04 111.76 423.04 111.7 423.06 111.65C423.09 111.6 423.87 110.89 424.81 110.07C425.75 109.26 426.55 108.55 426.6 108.49C426.67 108.41 426.54 108.36 426.11 108.29C425.79 108.23 424.16 107.98 422.49 107.7C420.81 107.43 419.41 107.18 419.36 107.14C419.32 107.11 419.29 107.05 419.31 107.02C419.34 106.95 420.33 106.6 424.56 105.14C426.54 104.46 428.25 103.85 428.38 103.78L428.61 103.66L424.29 99.46C421.92 97.16 419.98 95.24 419.96 95.2C419.95 95.16 419.99 95.12 420.07 95.1C420.13 95.09 422.74 95.48 425.85 95.98C428.97 96.49 431.54 96.89 431.57 96.88C431.61 96.87 430.91 95.5 430.04 93.82C429.17 92.14 428.44 90.72 428.43 90.66C428.41 90.61 428.43 90.54 428.46 90.54C428.5 90.53 429.4 91.18 430.45 91.98C431.5 92.79 432.36 93.43 432.36 93.42C432.37 93.4 432.29 92.77 432.18 92.02C431.06 84.64 430.64 81.97 430.61 81.91C430.58 81.86 430.2 83.06 429.75 84.58C429.3 86.1 428.89 87.43 428.84 87.54C428.75 87.73 428.73 87.72 427.65 86.91C427.05 86.46 425.2 85.08 423.56 83.85C421.91 82.61 420.56 81.63 420.56 81.67C420.56 81.71 421.86 83.86 423.45 86.46C425.03 89.05 426.35 91.24 426.36 91.32C426.39 91.41 426.35 91.45 426.24 91.45C426.13 91.44 399.55 85.34 396.6 84.64C396.53 84.63 396.52 84.65 396.56 84.7C396.6 84.75 400.94 87.89 406.21 91.68C411.48 95.48 415.81 98.63 415.82 98.7C415.84 98.76 415.82 98.82 415.78 98.83C415.71 98.85 413.41 99.1 408.72 99.6C407.82 99.69 407.09 99.79 407.08 99.81C407.07 99.83 408.92 100.82 411.19 102.02C413.46 103.22 415.33 104.23 415.34 104.27C415.37 104.41 414.98 104.53 411.5 105.5C408.29 106.4 407.05 106.75 400.2 108.71C398.77 109.11 396.12 109.86 394.32 110.37C391.45 111.18 388.92 111.94 389.1 111.94Z" fill="#0D68E0" fill-opacity="1.000000" fill-rule="nonzero"/>
	<path id="Vector" d="M399.56 113.67L395.18 113.64L395.18 113.64L389.06 113.58Q388.37 113.57 387.97 113.22Q387.58 112.88 387.47 112.2Q387.38 111.67 387.57 111.26Q387.76 110.84 388.23 110.54Q388.37 110.45 388.55 110.38Q388.68 110.33 388.92 110.25Q389.33 110.12 390.09 109.89Q391.74 109.39 393.87 108.8L396.36 108.09L399.75 107.13L408.83 104.55L411.06 103.92Q411.13 103.91 411.2 103.88Q410.83 103.69 410.43 103.47Q405.18 100.71 405.52 99.29Q405.54 99.24 405.56 99.19Q405.95 98.23 408.54 97.97L411.63 97.63Q408.88 95.63 405.25 93.01L395.43 85.91L395.3 85.76Q394.87 85.24 394.85 84.71Q394.84 84.22 395.19 83.71Q395.49 83.29 395.89 83.11Q396.33 82.92 396.9 83.03L396.93 83.03L411.65 86.43L423.1 89.05Q422.61 88.23 422.05 87.32Q418.95 82.26 418.92 81.77L418.91 81.63L418.93 81.5Q419 80.87 419.34 80.51Q419.68 80.15 420.3 80.05Q420.47 80.02 420.64 80.03Q420.82 80.04 421 80.09Q421.16 80.13 421.32 80.21Q421.4 80.25 421.5 80.31Q421.59 80.37 421.73 80.47Q421.98 80.64 422.41 80.95Q423.29 81.59 424.54 82.53L425.24 83.05L427.9 85.05Q428.02 84.63 428.17 84.12Q428.52 82.94 428.78 82.15Q428.9 81.75 428.98 81.53Q429.04 81.37 429.09 81.27Q429.16 81.12 429.25 80.99Q429.36 80.81 429.52 80.68Q429.65 80.56 429.8 80.47Q430.11 80.3 430.43 80.27Q430.75 80.23 431.08 80.33Q431.41 80.43 431.66 80.63Q431.9 80.84 432.06 81.14L432.19 81.38L433.8 91.78Q434.07 93.59 433.88 94.04Q433.6 94.73 433.1 94.97Q432.85 95.09 432.54 95.09Q432.58 95.17 432.62 95.24Q432.84 95.69 432.95 95.94Q433.03 96.09 433.07 96.18Q433.11 96.28 433.14 96.37Q433.18 96.52 433.2 96.67Q433.3 97.4 432.99 97.85Q432.68 98.3 431.97 98.48L431.65 98.56L425.59 97.6Q425.06 97.52 424.57 97.44Q424.99 97.85 425.44 98.28L431.36 104.04L429.18 105.21Q428.88 105.38 425.55 106.54L426.38 106.67Q426.88 106.76 427.13 106.86Q427.5 107 427.76 107.25Q427.91 107.4 428.02 107.6Q428.31 108.08 428.28 108.54Q428.26 109.02 427.91 109.49L427.89 109.5L427.88 109.52Q427.8 109.62 427.41 109.97L429.53 109.87L429.77 109.94Q430.52 110.13 430.82 110.61Q431.12 111.08 430.97 111.84Q430.96 111.88 430.95 111.93Q430.91 112.09 430.84 112.24Q430.79 112.34 430.73 112.44Q430.67 112.53 430.58 112.66Q430.44 112.86 430.18 113.21Q429.64 113.92 428.87 114.9L427 117.28L426.18 118.32Q426.46 118.24 426.76 118.15Q433.62 116.08 434.12 116.14L434.18 116.15L434.23 116.16Q435.03 116.3 435.36 116.77Q435.7 117.25 435.55 118.08Q435.54 118.17 435.51 118.29Q435.47 118.41 435.41 118.61Q435.3 118.96 435.09 119.56Q434.64 120.87 434 122.58Q433.94 122.75 433.88 122.92L435.38 122.06Q440.73 118.94 442.2 119.23L442.25 119.15Q442.33 119.2 442.42 119.3Q442.52 119.35 442.6 119.43L442.55 119.47Q443.04 120.2 443.78 122.37Q444.75 125.29 444.42 126.02L444.36 126.15L437.85 135.62L431.37 144.92Q431.34 144.95 431.32 144.98Q431.3 145.01 431.28 145.04Q430.85 145.56 430.17 145.62Q429.49 145.68 428.97 145.25Q428.59 144.94 428.78 143.13L428.67 143.05L428.82 142.84Q429.07 140.72 430.02 136.75L430.52 134.64Q428.96 136 426.84 137.86L419.22 144.57Q418.97 144.79 418.75 144.93Q418.5 145.08 418.26 145.14Q417.99 145.22 417.72 145.21Q417.49 145.2 417.27 145.12Q416.68 144.92 416.4 144.52Q416.12 144.11 416.14 143.49L416.17 143.49Q416.46 142.41 419.54 135.51Q420.42 133.54 421.11 131.98L411.24 136.81L396.71 143.91L395.89 143.23Q395.35 142.78 395.25 142.24Q395.13 141.53 395.82 140.67L400.79 134.72L406.12 128.32L410.84 122.67Q412.29 120.92 413.41 119.56L412.49 119.73L407.67 120.59Q407.38 120.66 407.1 120.62Q406.97 120.61 406.84 120.57Q406.49 120.48 406.22 120.26Q405.97 120.06 405.81 119.74Q405.63 119.41 405.61 119.06Q405.59 118.7 405.74 118.34L405.79 118.36Q406.43 117.49 409.87 114.56L409.98 114.47Q410.42 114.1 410.8 113.77Q408.91 113.75 405.83 113.73L399.56 113.67ZM413.31 113.8C413.47 113.66 413.62 113.53 413.76 113.42C414.84 112.49 414.98 112.34 414.95 112.28C414.94 112.26 414.93 112.26 414.91 112.24C414.87 112.2 414.65 112.18 413.25 112.16C413.08 112.16 412.91 112.15 412.71 112.15C411.38 112.13 409.26 112.11 405.84 112.09C403.31 112.06 398.52 112.02 395.2 112C395.01 112 394.81 111.99 394.63 111.99C393.1 111.98 391.73 111.96 390.73 111.95C389.73 111.94 389.11 111.94 389.1 111.94C389.01 111.94 389.63 111.74 390.65 111.43C391.62 111.14 392.93 110.76 394.32 110.37C394.35 110.37 394.38 110.36 394.4 110.35C396.21 109.83 398.79 109.1 400.2 108.71C407.05 106.75 408.29 106.4 411.5 105.5C412.22 105.3 412.81 105.14 413.29 105C413.48 104.95 413.65 104.9 413.8 104.86C415.17 104.46 415.36 104.37 415.34 104.27C415.33 104.25 414.76 103.93 413.88 103.45C413.75 103.38 413.62 103.31 413.48 103.24C412.82 102.89 412.03 102.47 411.19 102.02C410.61 101.71 410.06 101.42 409.56 101.16C409.18 100.95 408.83 100.77 408.52 100.6C407.63 100.13 407.07 99.82 407.08 99.81C407.09 99.79 407.82 99.69 408.72 99.6C408.73 99.6 408.74 99.6 408.75 99.59C409.15 99.55 409.53 99.51 409.89 99.47C411.44 99.31 412.67 99.18 413.6 99.08C413.82 99.05 414.03 99.03 414.21 99.01C415.23 98.9 415.75 98.84 415.78 98.83C415.82 98.82 415.84 98.76 415.82 98.7C415.82 98.69 415.8 98.67 415.76 98.64C415.75 98.63 415.74 98.62 415.73 98.61C415.55 98.48 415.14 98.17 414.55 97.74C414.4 97.62 414.23 97.5 414.05 97.37C412.31 96.09 409.44 94 406.21 91.68C403.77 89.92 401.52 88.3 399.81 87.07C399.03 86.51 398.37 86.02 397.84 85.64C397.14 85.13 396.69 84.81 396.58 84.72C396.58 84.72 396.58 84.72 396.58 84.72C396.57 84.71 396.56 84.7 396.56 84.7C396.52 84.65 396.53 84.63 396.6 84.64L396.6 84.64C396.6 84.64 396.61 84.65 396.62 84.65C396.92 84.72 397.45 84.84 398.17 85.01C398.82 85.16 399.62 85.34 400.54 85.56C407.1 87.07 419.5 89.92 424.29 91.01C424.44 91.05 424.6 91.08 424.74 91.11C425.67 91.33 426.22 91.45 426.24 91.45C426.35 91.45 426.39 91.41 426.36 91.32C426.36 91.31 426.34 91.26 426.3 91.19C426.28 91.16 426.26 91.13 426.24 91.09C426.11 90.86 425.88 90.48 425.58 89.97C425.5 89.84 425.42 89.7 425.33 89.56C424.82 88.71 424.16 87.63 423.45 86.46C423.2 86.05 422.95 85.65 422.72 85.27C421.48 83.24 420.56 81.7 420.56 81.67C420.56 81.67 420.56 81.67 420.57 81.67C420.57 81.67 420.57 81.67 420.57 81.67C420.64 81.7 421.17 82.08 421.93 82.64C422.4 82.98 422.96 83.4 423.56 83.85C423.69 83.95 423.82 84.05 423.96 84.15C425.3 85.15 426.69 86.19 427.39 86.72C427.4 86.72 427.4 86.73 427.41 86.73C427.5 86.8 427.58 86.86 427.65 86.91C428.73 87.72 428.75 87.73 428.84 87.54C428.87 87.47 429.05 86.9 429.29 86.11C429.29 86.1 429.29 86.1 429.29 86.09C429.36 85.88 429.43 85.66 429.5 85.43C429.58 85.16 429.66 84.87 429.75 84.58C429.87 84.18 429.98 83.8 430.09 83.46C430.35 82.59 430.55 81.98 430.6 81.91C430.6 81.91 430.6 81.91 430.6 81.91C430.61 81.9 430.61 81.9 430.61 81.91C430.62 81.93 430.7 82.42 430.88 83.53C430.96 84.05 431.06 84.7 431.18 85.51C431.4 86.9 431.68 88.75 432.04 91.13C432.07 91.33 432.1 91.54 432.13 91.74C432.15 91.84 432.16 91.93 432.18 92.02C432.29 92.77 432.37 93.4 432.36 93.42C432.36 93.43 431.91 93.09 431.26 92.6C431.19 92.54 431.11 92.49 431.03 92.43C430.87 92.3 430.7 92.17 430.52 92.03C430.49 92.01 430.47 92 430.45 91.98C430.22 91.81 430 91.64 429.8 91.49C429.05 90.93 428.5 90.53 428.46 90.54C428.43 90.54 428.41 90.61 428.43 90.66C428.44 90.7 428.71 91.24 429.12 92.04C429.37 92.52 429.66 93.08 429.97 93.68C430 93.73 430.02 93.77 430.04 93.82C430.28 94.27 430.5 94.7 430.7 95.08C430.75 95.19 430.8 95.29 430.85 95.39C431.24 96.16 431.51 96.7 431.56 96.85C431.57 96.86 431.57 96.87 431.57 96.88C431.58 96.88 431.57 96.88 431.57 96.88C431.56 96.89 430.93 96.79 429.93 96.64C429.83 96.62 429.72 96.6 429.62 96.59C428.61 96.43 427.29 96.22 425.85 95.98C424.63 95.79 423.49 95.61 422.55 95.46C422.2 95.41 421.89 95.36 421.61 95.32C420.97 95.22 420.5 95.15 420.26 95.12C420.22 95.12 420.19 95.11 420.17 95.11C420.11 95.1 420.07 95.1 420.07 95.1C419.99 95.12 419.95 95.16 419.96 95.2C419.97 95.22 420.4 95.65 421.1 96.34C421.31 96.54 421.53 96.76 421.77 97C422.49 97.7 423.36 98.55 424.29 99.46L427.35 102.43L428.61 103.66L428.38 103.78C428.31 103.82 427.75 104.02 426.93 104.31C426.27 104.55 425.44 104.84 424.56 105.14C423.59 105.47 422.79 105.75 422.13 105.98C421.63 106.15 421.2 106.3 420.85 106.43C419.68 106.84 419.33 106.98 419.31 107.02C419.29 107.05 419.32 107.11 419.36 107.14C419.39 107.17 420.01 107.28 420.9 107.43C421.31 107.51 421.78 107.58 422.28 107.67C422.35 107.68 422.42 107.69 422.49 107.7C423.26 107.83 424.02 107.95 424.64 108.05C424.76 108.07 424.88 108.09 424.99 108.11C425.55 108.2 425.97 108.26 426.11 108.29C426.24 108.31 426.34 108.33 426.42 108.35C426.43 108.35 426.43 108.35 426.43 108.35C426.6 108.39 426.64 108.43 426.6 108.49C426.57 108.53 426.07 108.98 425.41 109.55C425.32 109.63 425.23 109.71 425.14 109.79C425.03 109.89 424.92 109.98 424.81 110.07C424.8 110.08 424.79 110.09 424.78 110.1C424.16 110.64 423.61 111.13 423.31 111.41C423.16 111.55 423.07 111.63 423.06 111.65C423.04 111.7 423.04 111.76 423.07 111.79C423.09 111.81 423.75 111.79 424.71 111.75C424.93 111.74 425.18 111.73 425.43 111.71C425.68 111.7 425.94 111.69 426.21 111.67C426.58 111.65 426.93 111.64 427.26 111.62C427.41 111.61 427.56 111.61 427.7 111.6C428.66 111.55 429.33 111.52 429.36 111.52C429.36 111.52 429.36 111.53 429.36 111.53C429.36 111.53 429.35 111.54 429.35 111.54C429.3 111.64 428.91 112.17 428.36 112.88C428.28 112.99 428.19 113.11 428.1 113.23C427.93 113.44 427.76 113.66 427.58 113.89C426.56 115.18 424.89 117.3 423.86 118.61C423.73 118.79 423.6 118.96 423.47 119.12C423.3 119.34 423.14 119.54 422.99 119.74C422.4 120.51 421.99 121.07 421.99 121.12C421.99 121.2 422.41 121.12 423.62 120.79C423.86 120.72 424.13 120.64 424.44 120.55C425.16 120.34 426.08 120.07 427.23 119.72C429.26 119.11 430.9 118.62 432.06 118.29C432.14 118.27 432.22 118.24 432.3 118.22C433.32 117.92 433.9 117.77 433.94 117.77C433.94 117.77 433.94 117.79 433.93 117.82C433.93 117.84 433.92 117.85 433.92 117.87C433.86 118.08 433.68 118.61 433.43 119.34C433.4 119.43 433.36 119.53 433.33 119.63C433.09 120.31 432.79 121.13 432.46 122.01C432.14 122.9 431.88 123.62 431.67 124.2C431.59 124.42 431.51 124.63 431.45 124.81C431.14 125.68 431 126.13 430.97 126.33C430.97 126.35 430.97 126.37 430.97 126.39C430.96 126.46 430.98 126.48 431.02 126.47C431.03 126.46 431.56 126.15 432.42 125.66C432.61 125.55 432.8 125.44 433.01 125.32C433.89 124.81 435 124.17 436.2 123.47C437.66 122.62 438.99 121.86 439.94 121.33C439.94 121.33 439.94 121.32 439.95 121.32C440.83 120.83 441.38 120.53 441.39 120.55C441.42 120.56 441.65 121.2 441.95 122.09C441.95 122.09 441.95 122.09 441.95 122.09C442.04 122.34 442.13 122.61 442.22 122.89C442.89 124.89 442.98 125.21 442.92 125.34C442.86 125.49 436.26 135.05 432.52 140.42C431.17 142.36 430.2 143.75 430.04 143.96C430.03 143.98 430.02 143.99 430.02 143.99L430.02 143.99C430 143.98 430.42 142.2 431.01 139.7C431.19 138.9 431.4 138.03 431.62 137.13C432.01 135.49 432.37 133.97 432.65 132.78C432.73 132.43 432.8 132.11 432.87 131.83C433.1 130.85 433.23 130.26 433.23 130.25C433.22 130.22 433.17 130.21 433.11 130.22L433.11 130.22C433.11 130.22 433.07 130.25 433.01 130.3C432.83 130.45 432.45 130.78 431.91 131.25C431.69 131.44 431.43 131.66 431.16 131.9C429.81 133.07 427.88 134.76 425.75 136.63C423.81 138.34 422 139.93 420.63 141.14C420.02 141.68 419.49 142.14 419.09 142.5C418.54 142.98 418.2 143.28 418.15 143.33C417.95 143.51 417.78 143.6 417.78 143.56C417.78 143.54 418.02 142.98 418.43 142.06C418.66 141.53 418.95 140.88 419.27 140.15C419.78 139 420.39 137.64 421.04 136.18C421.96 134.11 422.8 132.22 423.39 130.87C423.49 130.63 423.59 130.41 423.67 130.21C423.95 129.56 424.15 129.1 424.24 128.89C424.25 128.86 424.26 128.84 424.26 128.82C424.28 128.78 424.29 128.75 424.29 128.75C424.28 128.68 424.23 128.64 424.18 128.65C424.16 128.66 423.65 128.9 422.76 129.34C422.57 129.43 422.36 129.53 422.13 129.64C419.71 130.83 415.4 132.94 410.52 135.34C406.52 137.31 402.9 139.08 400.41 140.29C399.66 140.66 399.01 140.98 398.48 141.23C397.5 141.71 396.95 141.97 396.94 141.97C396.94 141.97 396.94 141.96 396.93 141.96C396.93 141.92 396.99 141.83 397.07 141.73C397.14 141.66 398.07 140.55 399.41 138.94C400.18 138.01 401.09 136.92 402.05 135.77C404.68 132.61 409.21 127.18 412.11 123.72C413.6 121.92 414.94 120.29 415.9 119.12C416.04 118.94 416.17 118.78 416.3 118.63C416.64 118.21 416.9 117.87 417.08 117.65C417.09 117.63 417.1 117.62 417.1 117.61C417.25 117.43 417.32 117.32 417.32 117.31C417.29 117.26 417.17 117.24 417.04 117.25C416.97 117.26 416.44 117.35 415.67 117.49C415.47 117.53 415.24 117.57 415.01 117.61C413.67 117.85 411.89 118.17 410.38 118.44C409.83 118.53 409.32 118.63 408.88 118.71C407.99 118.87 407.38 118.98 407.35 118.99C407.28 119 407.25 118.99 407.26 118.96C407.26 118.94 407.74 118.53 408.49 117.89C408.83 117.6 409.22 117.27 409.65 116.9C410.05 116.56 410.48 116.19 410.93 115.81L411.04 115.72C412.01 114.9 412.75 114.27 413.31 113.8ZM419.42 143.46Q419.43 143.48 419.43 143.51L419.42 143.45L419.42 143.46Z" fill="#F3F3F3" fill-opacity="1.000000" fill-rule="evenodd"/>
	<path id="демонтаж сервис" d="M204.88 2.35C221.44 2.35 231.87 13.71 231.87 31.91C231.87 50.11 221.44 61.43 204.88 61.43C188.27 61.43 177.85 50.11 177.85 31.91C177.85 13.71 188.31 2.35 204.88 2.35ZM12.15 60.44L12.15 71.72L-0.36 71.72L-0.36 48.73L3.35 48.73C7.07 45.72 7.98 41.57 8.47 33.69L10.25 3.34L51.65 3.34L51.65 48.73L58.47 48.73L58.47 71.72L46 71.72L46 60.44L12.15 60.44ZM101.61 48.73L101.61 60.44L64.12 60.44L64.12 3.34L101.61 3.34L101.61 15.06L78.03 15.06L78.03 26.41L100.21 26.41L100.21 37.1L78.03 37.1L78.03 48.73L101.61 48.73ZM170.34 60.44L158.1 60.44L158.1 24.79L157.83 24.79L144.3 59.85L136.34 59.85L122.84 24.79L122.54 24.79L122.54 60.44L110.29 60.44L110.29 3.34L126.37 3.34L140.17 40.02L140.47 40.02L154.27 3.34L170.34 3.34L170.34 60.44ZM289 60.44L275.12 60.44L275.12 37.45L253.33 37.45L253.33 60.44L239.41 60.44L239.41 3.34L253.33 3.34L253.33 25.74L275.12 25.74L275.12 3.34L289 3.34L289 60.44ZM324.67 60.44L310.8 60.44L310.8 15.06L295.71 15.06L295.71 3.34L339.76 3.34L339.76 15.06L324.67 15.06L324.67 60.44ZM376.68 60.44L373.23 47.9L355.34 47.9L351.85 60.44L337.67 60.44L356.06 3.34L373.08 3.34L391.47 60.44L376.68 60.44ZM451.4 30.33L472.25 60.44L455.69 60.44L439.69 36.74L439.38 36.74L439.38 60.44L425.96 60.44L425.96 36.74L425.66 36.74L409.63 60.44L393.29 60.44L413.95 30.53L394.16 3.34L409.36 3.34L425.66 26.41L425.96 26.41L425.96 3.34L439.38 3.34L439.38 26.41L439.69 26.41L455.99 3.34L471.04 3.34L451.4 30.33ZM204.88 14.15C197.11 14.15 192.03 21.03 192.03 31.91C192.03 42.75 197.07 49.64 204.88 49.64C212.65 49.64 217.73 42.75 217.73 31.91C217.73 21.03 212.65 14.15 204.88 14.15ZM21.17 34.96C20.79 41.25 19.96 45.64 17.64 48.41L17.64 48.73L37.77 48.73L37.77 14.98L22.42 14.98L21.17 34.96ZM364.13 15.45L358.03 37.45L370.5 37.45L364.44 15.45L364.13 15.45ZM28.37 146.76C11.99 146.76 1.8 135.45 1.8 116.77C1.8 98.13 12.07 86.82 28.37 86.82C41.72 86.82 51.91 95.84 53.05 108.62L39.55 108.62C38.38 102.68 34.02 98.89 28.37 98.89C20.79 98.89 15.98 105.65 15.98 116.73C15.98 127.93 20.75 134.7 28.41 134.7C34.13 134.7 38.34 131.1 39.59 125.2L53.13 125.2C51.84 138.14 42.02 146.76 28.37 146.76ZM293.36 146.76C276.98 146.76 266.78 135.45 266.78 116.77C266.78 98.13 277.06 86.82 293.36 86.82C306.7 86.82 316.9 95.84 318.04 108.62L304.54 108.62C303.37 102.68 299.01 98.89 293.36 98.89C285.78 98.89 280.96 105.65 280.96 116.73C280.96 127.93 285.74 134.7 293.4 134.7C299.12 134.7 303.33 131.1 304.58 125.2L318.11 125.2C316.82 138.14 307.01 146.76 293.36 146.76ZM97.9 133.63L97.9 145.34L60.4 145.34L60.4 88.24L97.9 88.24L97.9 99.95L74.32 99.95L74.32 111.31L96.49 111.31L96.49 121.99L74.32 121.99L74.32 133.63L97.9 133.63ZM106.58 88.24L130.27 88.24C142.02 88.24 149.98 96.19 149.98 108.46C149.98 120.65 141.61 128.6 129.44 128.6L120.49 128.6L120.49 145.34L106.58 145.34L106.58 88.24ZM183.65 145.34L157.53 145.34L157.53 88.24L182.97 88.24C193.73 88.24 200.21 93.66 200.21 102.49C200.21 108.9 195.59 114 189.52 114.87L189.52 115.19C196.92 115.54 202.75 121.28 202.75 128.88C202.75 138.89 195.36 145.34 183.65 145.34ZM245.4 145.34L245.4 110.36L245.02 110.36L222.7 145.34L209.39 145.34L209.39 88.24L223.26 88.24L223.26 123.26L223.64 123.26L245.97 88.24L259.28 88.24L259.28 145.34L245.4 145.34ZM171.44 98.53L171.44 111.51L178.61 111.51C183.65 111.51 186.68 109.02 186.68 104.9C186.68 100.9 183.95 98.53 179.29 98.53L171.44 98.53ZM120.49 99.36L120.49 117.68L126.52 117.68C132.43 117.68 135.92 114.48 135.92 108.5C135.92 102.57 132.43 99.36 126.6 99.36L120.49 99.36ZM171.44 135.05L179.71 135.05C185.43 135.05 188.61 132.44 188.61 127.61C188.61 122.94 185.35 120.33 179.63 120.33L171.44 120.33L171.44 135.05Z" fill="#131313" fill-opacity="1.000000" fill-rule="evenodd"/>
</svg>
