<svg width="115.000000" height="115.000000" viewBox="0 0 115 115" fill="none" xmlns="http://www.w3.org/2000/svg" xmlns:xlink="http://www.w3.org/1999/xlink">
	<desc>
			Created with Pixso.
	</desc>
	<defs>
		<clipPath id="clip52_21">
			<rect id="guarantee-svgrepo-com 1" width="115.000000" height="115.000000" fill="white" fill-opacity="0"/>
		</clipPath>
	</defs>
	<g clip-path="url(#clip52_21)">
		<path id="Vector" d="M112.47 52.01C111.69 50.97 110.88 49.9 110.75 49.06C110.61 48.17 111.06 46.86 111.49 45.6C112.12 43.77 112.84 41.7 112.2 39.72C111.54 37.71 109.73 36.44 108.12 35.32C107.04 34.57 105.93 33.79 105.54 33.02C105.13 32.23 105.16 30.86 105.18 29.53C105.21 27.59 105.25 25.39 104.02 23.69C102.78 21.99 100.67 21.35 98.8 20.78C97.54 20.4 96.23 20 95.62 19.38C95 18.76 94.6 17.45 94.21 16.19C93.65 14.33 93 12.21 91.3 10.98C89.61 9.75 87.41 9.78 85.46 9.81C84.14 9.84 82.76 9.86 81.98 9.46C81.21 9.07 80.43 7.95 79.68 6.87C78.56 5.27 77.29 3.45 75.27 2.8C73.29 2.16 71.22 2.87 69.39 3.5C68.13 3.93 66.82 4.38 65.93 4.24C65.09 4.11 64.02 3.3 62.98 2.52C61.41 1.34 59.63 0 57.5 0C55.36 0 53.58 1.34 52.01 2.52C50.97 3.3 49.9 4.11 49.06 4.24C48.17 4.39 46.87 3.93 45.6 3.5C43.77 2.87 41.7 2.15 39.72 2.79C37.71 3.45 36.44 5.27 35.32 6.87C34.57 7.95 33.79 9.06 33.02 9.45C32.23 9.85 30.86 9.83 29.53 9.81C27.59 9.77 25.39 9.74 23.69 10.97C21.99 12.21 21.35 14.32 20.78 16.18C20.4 17.45 20 18.76 19.38 19.37C18.76 19.99 17.45 20.39 16.19 20.78C14.33 21.35 12.21 21.99 10.98 23.69C9.75 25.38 9.78 27.58 9.81 29.53C9.83 30.86 9.86 32.23 9.46 33.02C9.06 33.78 7.95 34.56 6.87 35.31C5.27 36.44 3.45 37.71 2.8 39.72C2.15 41.7 2.87 43.77 3.5 45.6C3.94 46.87 4.39 48.17 4.25 49.06C4.12 49.9 3.31 50.97 2.52 52.01C1.34 53.58 0 55.36 0 57.5C0 59.63 1.34 61.41 2.52 62.98C3.3 64.02 4.11 65.1 4.24 65.93L7.8 65.37C7.53 63.65 6.44 62.21 5.39 60.81C4.5 59.64 3.59 58.43 3.59 57.5C3.59 56.56 4.5 55.35 5.39 54.18C6.44 52.78 7.52 51.34 7.8 49.62C8.07 47.85 7.48 46.11 6.9 44.43C6.43 43.07 5.94 41.66 6.21 40.83C6.5 39.96 7.73 39.1 8.93 38.26C10.37 37.26 11.86 36.22 12.66 34.65C13.46 33.07 13.44 31.24 13.41 29.47C13.38 28.02 13.36 26.53 13.88 25.81C14.41 25.08 15.85 24.64 17.24 24.22C18.92 23.7 20.67 23.17 21.92 21.92C23.17 20.66 23.71 18.92 24.22 17.24C24.64 15.85 25.08 14.41 25.81 13.88C26.53 13.35 28.03 13.38 29.47 13.4C31.24 13.43 33.07 13.46 34.65 12.65C36.22 11.85 37.26 10.37 38.27 8.93C39.1 7.73 39.97 6.5 40.83 6.21C41.66 5.94 43.07 6.43 44.43 6.9C46.11 7.48 47.85 8.07 49.62 7.8C51.34 7.53 52.78 6.44 54.18 5.39C55.35 4.5 56.56 3.59 57.5 3.59C58.43 3.59 59.64 4.5 60.81 5.39C62.21 6.44 63.65 7.52 65.37 7.8C67.14 8.07 68.88 7.48 70.56 6.9C71.92 6.43 73.33 5.94 74.16 6.21C75.03 6.5 75.89 7.73 76.73 8.93C77.74 10.37 78.78 11.85 80.34 12.65C81.93 13.46 83.76 13.44 85.52 13.4C86.97 13.38 88.47 13.35 89.19 13.88C89.91 14.41 90.35 15.85 90.78 17.24C91.29 18.92 91.82 20.67 93.08 21.92C94.33 23.17 96.07 23.7 97.76 24.22C99.14 24.64 100.58 25.08 101.11 25.81C101.64 26.53 101.61 28.02 101.59 29.47C101.56 31.24 101.53 33.07 102.34 34.65C103.14 36.22 104.62 37.26 106.06 38.26C107.26 39.1 108.49 39.96 108.78 40.83C109.05 41.66 108.56 43.07 108.1 44.43C107.52 46.11 106.92 47.85 107.2 49.62C107.47 51.34 108.56 52.78 109.6 54.17C110.49 55.35 111.4 56.56 111.4 57.5C111.4 58.43 110.49 59.64 109.6 60.82C108.55 62.21 107.47 63.65 107.2 65.37L110.75 65.93C110.88 65.1 111.69 64.02 112.47 62.98C113.66 61.41 115 59.63 115 57.5C115 55.36 113.66 53.58 112.47 52.01ZM97.75 90.78C96.07 91.29 94.32 91.82 93.07 93.07C91.82 94.32 91.29 96.07 90.77 97.75C90.35 99.14 89.91 100.58 89.18 101.11C88.46 101.63 86.96 101.61 85.52 101.59C83.75 101.56 81.93 101.53 80.34 102.34C78.77 103.14 77.73 104.62 76.73 106.06C75.89 107.26 75.03 108.49 74.16 108.78C73.32 109.05 71.92 108.56 70.56 108.09C68.88 107.52 67.14 106.93 65.37 107.2C63.65 107.47 62.21 108.55 60.81 109.6C59.64 110.49 58.43 111.4 57.5 111.4C56.56 111.4 55.35 110.49 54.17 109.6C52.78 108.55 51.34 107.47 49.62 107.2C47.85 106.93 46.11 107.52 44.43 108.09C43.07 108.56 41.67 109.05 40.83 108.78C39.96 108.49 39.1 107.26 38.26 106.06C37.25 104.62 36.22 103.13 34.65 102.33C33.07 101.53 31.24 101.55 29.47 101.59C28.02 101.6 26.53 101.63 25.81 101.11C25.08 100.58 24.64 99.14 24.22 97.75C23.7 96.07 23.17 94.32 21.92 93.07C20.66 91.82 18.92 91.29 17.23 90.77C15.85 90.35 14.41 89.91 13.88 89.18L10.97 91.3C12.21 93 14.32 93.64 16.18 94.21C17.45 94.6 18.76 94.99 19.38 95.61C19.99 96.23 20.39 97.54 20.78 98.8C21.35 100.67 21.99 102.78 23.69 104.01C25.38 105.25 27.59 105.21 29.53 105.18C30.86 105.16 32.23 105.13 33.02 105.53C33.79 105.92 34.56 107.04 35.32 108.12C36.44 109.72 37.71 111.54 39.72 112.19C41.7 112.83 43.77 112.12 45.6 111.49C46.87 111.06 48.17 110.59 49.06 110.75C49.9 110.88 50.97 111.69 52.01 112.47C53.58 113.65 55.36 115 57.5 115C59.63 115 61.41 113.65 62.98 112.47C64.02 111.69 65.1 110.88 65.93 110.75C66.81 110.59 68.13 111.06 69.39 111.49C71.22 112.12 73.3 112.84 75.27 112.2C77.28 111.54 78.55 109.72 79.67 108.12C80.43 107.04 81.21 105.93 81.97 105.54C82.76 105.13 84.13 105.15 85.46 105.18C87.39 105.21 89.6 105.25 91.3 104.02C92.99 102.78 93.64 100.67 94.21 98.81C94.59 97.54 94.99 96.23 95.61 95.62C96.23 95 97.53 94.6 98.8 94.21C100.66 93.65 102.77 93 104.01 91.3L101.11 89.19C100.58 89.91 99.14 90.35 97.75 90.78Z" fill="#0D68E0" fill-opacity="1.000000" fill-rule="nonzero"/>
		<path id="Vector" d="M14.37 82.65L14.37 79.06C14.37 78.06 13.56 77.26 12.57 77.26L8.98 77.26L8.98 80.85L10.78 80.85L10.78 82.65C10.78 83.64 9.97 84.45 8.98 84.45C7.99 84.45 7.18 83.64 7.18 82.65L7.18 71.87C7.18 70.88 7.99 70.07 8.98 70.07C9.97 70.07 10.78 70.88 10.78 71.87L10.78 73.67L14.37 73.67L14.37 71.87C14.37 68.9 11.95 66.48 8.98 66.48C6.01 66.48 3.59 68.9 3.59 71.87L3.59 82.65C3.59 85.62 6.01 88.04 8.98 88.04C11.95 88.04 14.37 85.62 14.37 82.65ZM16.17 66.48L16.17 82.65C16.17 85.62 18.59 88.04 21.56 88.04C24.53 88.04 26.95 85.62 26.95 82.65L26.95 66.48L23.35 66.48L23.35 82.65C23.35 83.64 22.55 84.45 21.56 84.45C20.57 84.45 19.76 83.64 19.76 82.65L19.76 66.48L16.17 66.48ZM28.75 71.87L28.75 88.04L32.34 88.04L32.34 84.45L35.93 84.45L35.93 88.04L39.53 88.04L39.53 71.87C39.53 68.9 37.11 66.48 34.14 66.48C31.16 66.48 28.75 68.9 28.75 71.87ZM35.93 71.87L35.93 80.85L32.34 80.85L32.34 71.87C32.34 70.88 33.15 70.07 34.14 70.07C35.13 70.07 35.93 70.88 35.93 71.87ZM53.9 71.87L53.9 88.04L57.5 88.04L57.5 84.45L61.09 84.45L61.09 88.04L64.68 88.04L64.68 71.87C64.68 68.9 62.26 66.48 59.29 66.48C56.32 66.48 53.9 68.9 53.9 71.87ZM59.29 70.07C60.28 70.07 61.09 70.88 61.09 71.87L61.09 80.85L57.5 80.85L57.5 71.87C57.5 70.88 58.3 70.07 59.29 70.07ZM41.32 68.28L41.32 77.25C41.32 77.26 41.32 77.26 41.32 77.27L41.32 88.04L44.92 88.04L44.92 82.38L48.9 87.37C49.25 87.79 49.76 88.04 50.31 88.04L52.1 88.04L52.1 84.45L51.17 84.45L46.8 78.98C49.8 78.51 52.1 75.9 52.1 72.77C52.1 69.3 49.28 66.48 45.82 66.48L43.12 66.48C42.13 66.48 41.32 67.28 41.32 68.28ZM44.92 70.07L45.82 70.07C47.3 70.07 48.51 71.28 48.51 72.77C48.51 74.25 47.3 75.46 45.82 75.46L44.92 75.46L44.92 70.07ZM73.67 76.92L69.95 67.61C69.62 66.81 68.77 66.36 67.94 66.51C67.09 66.67 66.48 67.42 66.48 68.28L66.48 88.04L70.07 88.04L70.07 77.61L73.79 86.91C74.07 87.61 74.74 88.04 75.46 88.04C75.58 88.04 75.69 88.03 75.8 88.01C76.65 87.85 77.26 87.11 77.26 86.25L77.26 66.48L73.67 66.48L73.67 76.92ZM86.25 70.07L89.84 70.07L89.84 66.48L79.06 66.48L79.06 70.07L82.65 70.07L82.65 88.04L86.25 88.04L86.25 70.07ZM100.62 70.07L100.62 66.48L93.43 66.48C92.44 66.48 91.64 67.28 91.64 68.28L91.64 86.25C91.64 87.24 92.44 88.04 93.43 88.04L100.62 88.04L100.62 84.45L95.23 84.45L95.23 79.06L100.62 79.06L100.62 75.46L95.23 75.46L95.23 70.07L100.62 70.07ZM102.42 68.28L102.42 86.25C102.42 87.24 103.22 88.04 104.21 88.04L111.4 88.04L111.4 84.45L106.01 84.45L106.01 79.06L111.4 79.06L111.4 75.46L106.01 75.46L106.01 70.07L111.4 70.07L111.4 66.48L104.21 66.48C103.22 66.48 102.42 67.28 102.42 68.28Z" fill="#0D68E0" fill-opacity="1.000000" fill-rule="nonzero"/>
		<path id="Vector" d="M102.42 57.5C102.42 32.73 82.27 12.57 57.5 12.57C32.73 12.57 12.57 32.73 12.57 57.5C12.57 59.3 12.7 61.19 12.93 63.11L16.5 62.66C16.28 60.89 16.17 59.16 16.17 57.5C16.17 34.71 34.71 16.17 57.5 16.17C80.28 16.17 98.82 34.71 98.82 57.5C98.82 59.16 98.71 60.89 98.49 62.66L102.05 63.11C102.3 61.19 102.42 59.3 102.42 57.5ZM84.93 93.06L82.73 90.21C75.44 95.85 66.71 98.82 57.5 98.82C48.28 98.82 39.55 95.85 32.26 90.21L30.06 93.06C37.99 99.18 47.48 102.42 57.5 102.42C67.51 102.42 77 99.18 84.93 93.06Z" fill="#0D68E0" fill-opacity="1.000000" fill-rule="nonzero"/>
		<path id="Vector" d="M39.53 37.73L35.93 37.73L35.93 41.32L37.73 41.32L37.73 59.29L41.32 59.29L41.32 39.53C41.32 38.53 40.52 37.73 39.53 37.73ZM49.41 37.73C45.94 37.73 43.12 40.55 43.12 44.02L43.12 53C43.12 56.47 45.94 59.29 49.41 59.29C52.88 59.29 55.7 56.47 55.7 53L55.7 44.02C55.7 40.55 52.88 37.73 49.41 37.73ZM52.1 53C52.1 54.49 50.89 55.7 49.41 55.7C47.92 55.7 46.71 54.49 46.71 53L46.71 44.02C46.71 42.53 47.92 41.32 49.41 41.32C50.89 41.32 52.1 42.53 52.1 44.02L52.1 53ZM63.78 37.73C60.32 37.73 57.5 40.55 57.5 44.02L57.5 53C57.5 56.47 60.32 59.29 63.78 59.29C67.25 59.29 70.07 56.47 70.07 53L70.07 44.02C70.07 40.55 67.25 37.73 63.78 37.73ZM66.48 53C66.48 54.49 65.27 55.7 63.78 55.7C62.3 55.7 61.09 54.49 61.09 53L61.09 44.02C61.09 42.53 62.3 41.32 63.78 41.32C65.27 41.32 66.48 42.53 66.48 44.02L66.48 53Z" fill="#0D68E0" fill-opacity="1.000000" fill-rule="nonzero"/>
		<path id="Vector" d="M75.65 56.69L82.84 42.32L86.05 43.92L78.87 58.3L75.65 56.69Z" fill="#0D68E0" fill-opacity="1.000000" fill-rule="nonzero"/>
		<path id="Vector" d="M73.67 44.92L77.26 44.92L77.26 48.51L73.67 48.51L73.67 44.92Z" fill="#0D68E0" fill-opacity="1.000000" fill-rule="evenodd"/>
		<path id="Vector" d="M84.45 52.1L88.04 52.1L88.04 55.7L84.45 55.7L84.45 52.1Z" fill="#0D68E0" fill-opacity="1.000000" fill-rule="evenodd"/>
	</g>
</svg>
