<svg width="30.000000" height="30.000000" viewBox="0 0 30 30" fill="none" xmlns="http://www.w3.org/2000/svg" xmlns:xlink="http://www.w3.org/1999/xlink">
	<desc>
			Created with Pixso.
	</desc>
	<defs/>
	<path id="Telegram" d="M30 15C30 23.28 23.28 30 15 30C6.71 30 0 23.28 0 15C0 6.71 6.71 0 15 0C23.28 0 30 6.71 30 15ZM15.53 11.07C14.07 11.68 11.16 12.93 6.79 14.84C6.07 15.12 5.7 15.4 5.67 15.66C5.61 16.12 6.18 16.3 6.96 16.55C7.07 16.58 7.18 16.61 7.29 16.65C8.06 16.9 9.09 17.19 9.62 17.2C10.11 17.21 10.65 17.01 11.25 16.6C15.33 13.84 17.44 12.45 17.58 12.42C17.67 12.4 17.8 12.37 17.89 12.45C17.97 12.53 17.97 12.68 17.96 12.71C17.9 12.96 15.66 15.04 14.49 16.12C14.13 16.46 13.87 16.7 13.82 16.75C13.71 16.87 13.59 16.99 13.47 17.1C12.76 17.79 12.23 18.3 13.5 19.14C14.11 19.54 14.6 19.88 15.09 20.21C15.63 20.58 16.16 20.94 16.85 21.39C17.02 21.5 17.19 21.62 17.35 21.74C17.98 22.18 18.53 22.58 19.22 22.52C19.62 22.48 20.04 22.1 20.25 20.98C20.75 18.32 21.72 12.57 21.95 10.2C21.97 9.99 21.94 9.72 21.92 9.61C21.9 9.49 21.86 9.32 21.71 9.2C21.53 9.05 21.25 9.02 21.13 9.03C20.56 9.04 19.7 9.34 15.53 11.07Z" fill="#F4F4F4" fill-opacity="1.000000" fill-rule="evenodd"/>
</svg>
