<svg width="24.000000" height="24.000000" viewBox="0 0 24 24" fill="none" xmlns="http://www.w3.org/2000/svg" xmlns:xlink="http://www.w3.org/1999/xlink">
	<desc>
			Created with Pixso.
	</desc>
	<defs/>
	<path id="VK" d="M1.68 1.68C0 3.37 0 6.08 0 11.52L0 12.48C0 17.91 0 20.62 1.68 22.31C3.37 24 6.08 24 11.52 24L12.48 24C17.91 24 20.62 24 22.31 22.31C24 20.62 24 17.91 24 12.48L24 11.52C24 6.08 24 3.37 22.31 1.68C20.62 0 17.91 0 12.48 0L11.52 0C6.08 0 3.37 0 1.68 1.68ZM4.05 7.3C4.18 13.54 7.3 17.29 12.77 17.29L13.08 17.29L13.08 13.72C15.09 13.92 16.6 15.39 17.22 17.29L20.06 17.29C19.28 14.45 17.23 12.88 15.94 12.28C17.23 11.54 19.02 9.73 19.45 7.3L16.87 7.3C16.31 9.28 14.66 11.08 13.08 11.25L13.08 7.3L10.5 7.3L10.5 14.22C8.89 13.82 6.87 11.88 6.79 7.3L4.05 7.3Z" fill="#131313" fill-opacity="1.000000" fill-rule="evenodd"/>
</svg>
