<svg width="30.000000" height="30.000000" viewBox="0 0 30 30" fill="none" xmlns="http://www.w3.org/2000/svg" xmlns:xlink="http://www.w3.org/1999/xlink">
	<desc>
			Created with Pixso.
	</desc>
	<defs/>
	<path id="VK" d="M2.1 2.1C0 4.21 0 7.61 0 14.4L0 15.59C0 22.38 0 25.78 2.1 27.89C4.21 30 7.61 30 14.39 30L15.6 30C22.38 30 25.78 30 27.89 27.89C30 25.78 30 22.38 30 15.59L30 14.4C30 7.61 30 4.21 27.89 2.1C25.78 0 22.38 0 15.6 0L14.39 0C7.61 0 4.21 0 2.1 2.1ZM5.06 9.12C5.22 16.92 9.12 21.61 15.96 21.61L16.35 21.61L16.35 17.15C18.86 17.4 20.76 19.23 21.52 21.61L25.07 21.61C24.1 18.06 21.53 16.09 19.93 15.34C21.53 14.42 23.78 12.17 24.32 9.12L21.1 9.12C20.39 11.59 18.32 13.84 16.35 14.06L16.35 9.12L13.12 9.12L13.12 17.77C11.12 17.27 8.6 14.84 8.48 9.12L5.06 9.12Z" fill="#F4F4F4" fill-opacity="1.000000" fill-rule="evenodd"/>
</svg>
