<svg width="30.000000" height="30.000000" viewBox="0 0 30 30" fill="none" xmlns="http://www.w3.org/2000/svg" xmlns:xlink="http://www.w3.org/1999/xlink">
	<desc>
			Created with Pixso.
	</desc>
	<defs/>
	<path id="Vector" d="M28.82 8.63C28.06 6.94 26.97 5.43 25.59 4.13C24.21 2.83 22.61 1.81 20.82 1.1C18.98 0.36 17.02 0 15 0C12.98 0 11.03 0.36 9.18 1.1C7.39 1.81 5.79 2.82 4.41 4.13C3.03 5.43 1.94 6.94 1.18 8.63C0.4 10.37 0 12.24 0 14.16C0 17.52 1.24 20.74 3.53 23.29L2.31 30L8.81 27.08C10.76 27.92 12.82 28.33 14.99 28.33C17.01 28.33 18.96 27.97 20.81 27.23C22.6 26.52 24.2 25.51 25.58 24.2C26.96 22.9 28.05 21.39 28.81 19.7C29.59 17.96 29.99 16.09 29.99 14.17C30.01 12.24 29.6 10.38 28.82 8.63Z" fill="#F4F4F4" fill-opacity="1.000000" fill-rule="nonzero"/>
	<path id="Vector" d="M21.2 16.99C20.56 16.67 20.1 16.47 19.77 16.35C19.56 16.27 19.06 16.05 18.89 16.19C18.35 16.63 17.77 17.88 17.16 18.12C15.63 17.82 14.22 16.78 13.11 15.71C12.62 15.24 11.71 13.91 11.52 13.56C11.48 13.19 12.14 12.7 12.29 12.41C13.05 11.55 12.47 11.01 12.38 10.65C12.2 10.29 11.91 9.62 11.65 9.08C11.43 8.72 11.38 8.2 10.99 8C9.31 7.14 8.36 8.86 7.96 9.76C5.59 15.47 19.85 26.36 22.75 18.86C22.9 18.2 22.84 17.96 22.62 17.66C22.18 17.36 21.66 17.22 21.2 16.99Z" fill="#131313" fill-opacity="1.000000" fill-rule="nonzero"/>
</svg>
