<svg width="24.000000" height="24.000000" viewBox="0 0 24 24" fill="none" xmlns="http://www.w3.org/2000/svg" xmlns:xlink="http://www.w3.org/1999/xlink">
	<desc>
			Created with Pixso.
	</desc>
	<defs/>
	<path id="Vector" d="M23.06 6.9C22.45 5.55 21.58 4.34 20.47 3.3C19.37 2.27 18.09 1.45 16.66 0.88C15.18 0.29 13.61 0 12 0C10.39 0 8.82 0.29 7.34 0.88C5.91 1.45 4.63 2.26 3.53 3.3C2.42 4.34 1.55 5.55 0.94 6.9C0.32 8.3 0 9.79 0 11.33C0 14.01 0.99 16.59 2.82 18.63L1.84 24L7.05 21.66C8.6 22.33 10.26 22.67 11.99 22.67C13.6 22.67 15.17 22.37 16.65 21.78C18.08 21.21 19.36 20.4 20.46 19.36C21.57 18.32 22.44 17.11 23.05 15.76C23.67 14.37 24 12.87 24 11.34C24 9.79 23.68 8.31 23.06 6.9Z" fill="#131313" fill-opacity="1.000000" fill-rule="nonzero"/>
	<path id="Vector" d="M16.96 13.59C16.45 13.33 16.07 13.18 15.81 13.08C15.64 13.02 15.25 12.84 15.11 12.95C14.68 13.3 14.22 14.31 13.72 14.49C12.5 14.26 11.37 13.42 10.49 12.57C10.09 12.19 9.37 11.13 9.21 10.85C9.18 10.55 9.71 10.16 9.83 9.93C10.44 9.24 9.98 8.81 9.9 8.52C9.76 8.23 9.52 7.7 9.32 7.26C9.14 6.98 9.1 6.56 8.79 6.4C7.45 5.71 6.68 7.09 6.37 7.81C4.47 12.38 15.88 21.08 18.2 15.08C18.32 14.56 18.27 14.37 18.09 14.13C17.74 13.88 17.32 13.78 16.96 13.59Z" fill="#F4F4F4" fill-opacity="1.000000" fill-rule="nonzero"/>
</svg>
