<svg width="68.000000" height="68.000000" viewBox="0 0 68 68" fill="none" xmlns="http://www.w3.org/2000/svg" xmlns:xlink="http://www.w3.org/1999/xlink">
	<desc>
			Created with Pixso.
	</desc>
	<defs/>
	<circle id="Ellipse 75" cx="34.000000" cy="34.000000" r="32.000000" fill="#0D68E0" fill-opacity="1.000000"/>
	<circle id="Ellipse 75" cx="34.000000" cy="34.000000" r="33.000000" stroke="#FFFFFF" stroke-opacity="1.000000" stroke-width="2.000000"/>
	<path id="Vector" d="M43.41 37.87C42.4 37.35 41.66 37.04 41.13 36.84C40.8 36.72 40.02 36.36 39.75 36.58C38.89 37.29 37.97 39.32 37 39.69C34.58 39.22 32.34 37.53 30.58 35.81C29.8 35.05 28.36 32.91 28.05 32.34C27.99 31.74 29.04 30.95 29.28 30.49C30.49 29.1 29.57 28.23 29.41 27.66C29.14 27.06 28.67 25.99 28.26 25.12C27.91 24.54 27.83 23.69 27.21 23.37C24.56 21.98 23.04 24.76 22.42 26.21C18.65 35.43 41.27 52.98 45.87 40.88C46.1 39.83 46 39.44 45.65 38.96C44.95 38.46 44.13 38.25 43.41 37.87Z" fill="#F4F4F4" fill-opacity="1.000000" fill-rule="nonzero"/>
</svg>
