<svg width="164.000000" height="36.757812" viewBox="0 0 164 36.7578" fill="none" xmlns="http://www.w3.org/2000/svg" xmlns:xlink="http://www.w3.org/1999/xlink">
	<desc>
			Created with Pixso.
	</desc>
	<defs/>
	<path id="Vector 1" d="M0 29.5L102.08 29.5L103.84 22.33L106.5 36.66L109.15 0.04L111.81 29.5L164 29.5" stroke="#000000" stroke-opacity="1.000000" stroke-width="1.000000"/>
	<path id="Item → Link → ABOUT" d="M3.91 14.66L5.08 14.66L9.84 7.68L13.46 7.68L13.46 8.19L8.03 15.68L15.19 25L15.19 25.51L11.24 25.51L5.23 17.62L3.91 17.62L3.91 25.51L0.49 25.51L0.49 7.68L3.91 7.68L3.91 14.66Z" fill="#000000" fill-opacity="1.000000" fill-rule="nonzero"/>
	<path id="Item → Link → ABOUT" d="M22.71 7.55L25.23 7.55L32.44 25.51L28.82 25.51L27.32 21.57L20.47 21.57L18.96 25.51L15.57 25.51L22.71 7.55ZM21.51 18.81L26.25 18.81L23.88 12.6L21.51 18.81Z" fill="#000000" fill-opacity="1.000000" fill-rule="nonzero"/>
	<path id="Item → Link → ABOUT" d="M40.1 7.68C41.07 7.68 41.94 7.81 42.72 8.06C43.52 8.32 44.19 8.69 44.74 9.18C45.3 9.66 45.72 10.24 46.01 10.92C46.32 11.6 46.47 12.37 46.47 13.24C46.47 14.1 46.32 14.89 46.01 15.6C45.72 16.32 45.3 16.93 44.74 17.44C44.18 17.93 43.49 18.32 42.67 18.61C41.87 18.88 40.97 19.02 39.95 19.02L38.14 19.02L38.14 25.51L34.72 25.51L34.72 7.68L40.1 7.68ZM39.77 16.06C40.87 16.06 41.69 15.8 42.21 15.27C42.74 14.75 43 14.1 43 13.34C43 12.96 42.94 12.62 42.8 12.29C42.68 11.95 42.49 11.66 42.21 11.43C41.96 11.17 41.62 10.98 41.2 10.84C40.79 10.69 40.3 10.61 39.72 10.61L38.14 10.61L38.14 16.06L39.77 16.06Z" fill="#000000" fill-opacity="1.000000" fill-rule="nonzero"/>
	<path id="Item → Link → ABOUT" d="M46.92 22.58L48.66 22.58C49.27 21.09 49.73 19.38 50.06 17.46C50.38 15.53 50.54 13.29 50.54 10.76L50.54 7.68L61.8 7.68L61.8 22.58L64.02 22.58L64.02 29.11L60.91 29.11L60.91 25.51L50.03 25.51L50.03 29.11L46.92 29.11L46.92 22.58ZM53.8 10.71C53.8 13.11 53.66 15.27 53.37 17.21C53.1 19.15 52.64 20.94 51.99 22.58L58.39 22.58L58.39 10.61L53.8 10.61L53.8 10.71Z" fill="#000000" fill-opacity="1.000000" fill-rule="nonzero"/>
	<path id="Item → Link → ABOUT" d="M66.84 7.68L70.26 7.68L70.26 19.32L79.58 7.68L81.75 7.68L81.75 25.51L78.31 25.51L78.31 13.92L69.01 25.51L66.84 25.51L66.84 7.68Z" fill="#000000" fill-opacity="1.000000" fill-rule="nonzero"/>
	<path id="Item → Link → ABOUT" d="M94.18 22.79C95.01 22.79 95.78 22.64 96.5 22.36C97.23 22.07 97.86 21.66 98.38 21.13C98.91 20.59 99.32 19.94 99.61 19.17C99.91 18.39 100.06 17.52 100.06 16.57C100.06 15.64 99.91 14.79 99.61 14.03C99.32 13.24 98.91 12.59 98.38 12.06C97.87 11.52 97.25 11.1 96.52 10.82C95.81 10.51 95.03 10.36 94.18 10.36C93.33 10.36 92.55 10.5 91.84 10.79C91.12 11.08 90.5 11.49 89.98 12.04C89.45 12.58 89.04 13.24 88.75 14C88.46 14.76 88.32 15.62 88.32 16.57C88.32 17.52 88.46 18.38 88.75 19.15C89.04 19.91 89.44 20.56 89.95 21.11C90.48 21.65 91.1 22.07 91.81 22.36C92.54 22.64 93.33 22.79 94.18 22.79ZM94.18 25.74C92.75 25.74 91.46 25.52 90.31 25.08C89.15 24.62 88.17 23.99 87.35 23.17C86.54 22.36 85.91 21.39 85.47 20.27C85.02 19.15 84.8 17.91 84.8 16.57C84.8 15.28 85.02 14.08 85.47 12.98C85.91 11.86 86.54 10.89 87.35 10.08C88.17 9.24 89.15 8.6 90.31 8.14C91.46 7.66 92.75 7.43 94.18 7.43C95.57 7.43 96.85 7.66 98 8.11C99.16 8.56 100.15 9.18 100.98 10C101.81 10.82 102.45 11.78 102.89 12.9C103.35 14.03 103.58 15.26 103.58 16.6C103.58 17.89 103.36 19.09 102.92 20.22C102.48 21.32 101.84 22.29 101.01 23.12C100.19 23.93 99.21 24.58 98.05 25.06C96.9 25.51 95.61 25.74 94.18 25.74Z" fill="#000000" fill-opacity="1.000000" fill-rule="nonzero"/>
	<path id="Item → Link → ABOUT" d="M113.27 7.68L127.3 7.68L127.3 25.51L123.89 25.51L123.89 10.61L116.68 10.61L116.68 25.51L113.27 25.51L113.27 7.68Z" fill="#D91010" fill-opacity="1.000000" fill-rule="nonzero"/>
	<path id="Item → Link → ABOUT" d="M136.83 7.68C137.8 7.68 138.67 7.81 139.45 8.06C140.25 8.32 140.92 8.69 141.47 9.18C142.03 9.66 142.45 10.24 142.74 10.92C143.04 11.6 143.2 12.37 143.2 13.24C143.2 14.1 143.04 14.89 142.74 15.6C142.45 16.32 142.03 16.93 141.47 17.44C140.9 17.93 140.22 18.32 139.4 18.61C138.6 18.88 137.69 19.02 136.67 19.02L134.87 19.02L134.87 25.51L131.45 25.51L131.45 7.68L136.83 7.68ZM136.5 16.06C137.6 16.06 138.42 15.8 138.94 15.27C139.47 14.75 139.73 14.1 139.73 13.34C139.73 12.96 139.67 12.62 139.53 12.29C139.41 11.95 139.21 11.66 138.94 11.43C138.69 11.17 138.35 10.98 137.92 10.84C137.52 10.69 137.02 10.61 136.45 10.61L134.87 10.61L134.87 16.06L136.5 16.06Z" fill="#D91010" fill-opacity="1.000000" fill-rule="nonzero"/>
	<path id="Item → Link → ABOUT" d="M154.34 22.79C155.17 22.79 155.94 22.64 156.65 22.36C157.38 22.07 158.01 21.66 158.54 21.13C159.07 20.59 159.47 19.94 159.76 19.17C160.07 18.39 160.22 17.52 160.22 16.57C160.22 15.64 160.07 14.79 159.76 14.03C159.47 13.24 159.07 12.59 158.54 12.06C158.03 11.52 157.41 11.1 156.68 10.82C155.97 10.51 155.19 10.36 154.34 10.36C153.49 10.36 152.71 10.5 151.99 10.79C151.28 11.08 150.66 11.49 150.13 12.04C149.61 12.58 149.2 13.24 148.91 14C148.62 14.76 148.48 15.62 148.48 16.57C148.48 17.52 148.62 18.38 148.91 19.15C149.2 19.91 149.6 20.56 150.11 21.11C150.63 21.65 151.25 22.07 151.97 22.36C152.7 22.64 153.49 22.79 154.34 22.79ZM154.34 25.74C152.91 25.74 151.62 25.52 150.46 25.08C149.31 24.62 148.32 23.99 147.51 23.17C146.69 22.36 146.07 21.39 145.62 20.27C145.18 19.15 144.96 17.91 144.96 16.57C144.96 15.28 145.18 14.08 145.62 12.98C146.07 11.86 146.69 10.89 147.51 10.08C148.32 9.24 149.31 8.6 150.46 8.14C151.62 7.66 152.91 7.43 154.34 7.43C155.73 7.43 157 7.66 158.16 8.11C159.31 8.56 160.31 9.18 161.14 10C161.97 10.82 162.61 11.78 163.05 12.9C163.51 14.03 163.74 15.26 163.74 16.6C163.74 17.89 163.52 19.09 163.07 20.22C162.63 21.32 162 22.29 161.16 23.12C160.35 23.93 159.36 24.58 158.21 25.06C157.05 25.51 155.76 25.74 154.34 25.74Z" fill="#D91010" fill-opacity="1.000000" fill-rule="nonzero"/>
</svg>
