<svg width="39" height="34" viewBox="0 0 39 34" fill="none" xmlns="http://www.w3.org/2000/svg">
<mask id="path-1-inside-1_23_628" fill="white">
<path fill-rule="evenodd" clip-rule="evenodd" d="M19.0336 33.9052C18.8851 33.8426 18.7507 33.7509 18.6382 33.6356L3.10745 17.8977C-3.39917 11.3069 1.26021 0 10.443 0C14.9621 0 17.4735 2.69968 18.7858 4.11041C19.0832 4.43012 19.319 4.68363 19.5027 4.82452C19.6849 4.68469 19.9195 4.43277 20.2158 4.11477C21.5283 2.70588 24.0491 0 28.5624 0C30.5891 0 32.3926 0.548672 33.9042 1.47447C33.8642 1.50951 33.8248 1.54545 33.7862 1.58229L20.3344 15.029C20.1538 15.2087 19.9094 15.3095 19.6546 15.3095C19.3998 15.3095 19.1554 15.2087 18.9748 15.029L14.0069 10.0637C13.6535 9.71042 13.2341 9.43021 12.7724 9.23902C12.3108 9.04783 11.816 8.94941 11.3163 8.94938C10.8166 8.94935 10.3217 9.0477 9.86006 9.23883C9.39838 9.42995 8.97888 9.71011 8.62551 10.0633C8.27214 10.4165 7.99183 10.8358 7.80057 11.2973C7.60931 11.7588 7.51085 12.2534 7.51082 12.7529C7.51079 13.2524 7.60918 13.7471 7.80037 14.2086C7.99157 14.6701 8.27183 15.0894 8.62515 15.4426L16.9634 23.7778C17.6772 24.491 18.6451 24.8916 19.6543 24.8916C20.6635 24.8916 21.6313 24.491 22.3451 23.7778L38.5069 7.62201C39.4836 11.0368 38.8102 14.9492 35.8996 17.8977L20.3672 33.6356C20.2547 33.7509 20.1203 33.8426 19.9718 33.9052C19.8233 33.9678 19.6638 34 19.5027 34C19.3416 34 19.1821 33.9678 19.0336 33.9052Z"/>
</mask>
<path fill-rule="evenodd" clip-rule="evenodd" d="M19.0336 33.9052C18.8851 33.8426 18.7507 33.7509 18.6382 33.6356L3.10745 17.8977C-3.39917 11.3069 1.26021 0 10.443 0C14.9621 0 17.4735 2.69968 18.7858 4.11041C19.0832 4.43012 19.319 4.68363 19.5027 4.82452C19.6849 4.68469 19.9195 4.43277 20.2158 4.11477C21.5283 2.70588 24.0491 0 28.5624 0C30.5891 0 32.3926 0.548672 33.9042 1.47447C33.8642 1.50951 33.8248 1.54545 33.7862 1.58229L20.3344 15.029C20.1538 15.2087 19.9094 15.3095 19.6546 15.3095C19.3998 15.3095 19.1554 15.2087 18.9748 15.029L14.0069 10.0637C13.6535 9.71042 13.2341 9.43021 12.7724 9.23902C12.3108 9.04783 11.816 8.94941 11.3163 8.94938C10.8166 8.94935 10.3217 9.0477 9.86006 9.23883C9.39838 9.42995 8.97888 9.71011 8.62551 10.0633C8.27214 10.4165 7.99183 10.8358 7.80057 11.2973C7.60931 11.7588 7.51085 12.2534 7.51082 12.7529C7.51079 13.2524 7.60918 13.7471 7.80037 14.2086C7.99157 14.6701 8.27183 15.0894 8.62515 15.4426L16.9634 23.7778C17.6772 24.491 18.6451 24.8916 19.6543 24.8916C20.6635 24.8916 21.6313 24.491 22.3451 23.7778L38.5069 7.62201C39.4836 11.0368 38.8102 14.9492 35.8996 17.8977L20.3672 33.6356C20.2547 33.7509 20.1203 33.8426 19.9718 33.9052C19.8233 33.9678 19.6638 34 19.5027 34C19.3416 34 19.1821 33.9678 19.0336 33.9052Z" fill="#F62A54"/>
<path d="M18.6382 33.6356L19.0868 33.198L19.0842 33.1954L18.6382 33.6356ZM3.10745 17.8977L3.55349 17.4575L3.5534 17.4574L3.10745 17.8977ZM18.7858 4.11041L19.2446 3.68359L19.2446 3.68359L18.7858 4.11041ZM19.5027 4.82452L19.1213 5.32173L19.5028 5.61441L19.8843 5.32161L19.5027 4.82452ZM20.2158 4.11477L20.6743 4.54193L20.6743 4.54193L20.2158 4.11477ZM33.9042 1.47447L34.3171 1.94584L34.9576 1.38479L34.2315 0.940077L33.9042 1.47447ZM33.7862 1.58229L33.3538 1.12865L33.3484 1.13381L33.3431 1.13909L33.7862 1.58229ZM20.3344 15.029L20.7763 15.4733L20.7774 15.4722L20.3344 15.029ZM18.9748 15.029L18.5318 15.4723L18.5329 15.4733L18.9748 15.029ZM14.0069 10.0637L13.5638 10.5068L13.5639 10.5069L14.0069 10.0637ZM12.7724 9.23902L12.5327 9.81799L12.5327 9.81799L12.7724 9.23902ZM11.3163 8.94938L11.3162 9.57604L11.3162 9.57604L11.3163 8.94938ZM7.80057 11.2973L8.37948 11.5372L8.37948 11.5372L7.80057 11.2973ZM7.80037 14.2086L8.37932 13.9687L8.37932 13.9687L7.80037 14.2086ZM8.62515 15.4426L8.18209 15.8858L8.18212 15.8858L8.62515 15.4426ZM16.9634 23.7778L16.5204 24.221L16.5205 24.2211L16.9634 23.7778ZM22.3451 23.7778L22.788 24.2211L22.7881 24.221L22.3451 23.7778ZM38.5069 7.62201L39.1094 7.44968L38.8167 6.42627L38.0639 7.17881L38.5069 7.62201ZM35.8996 17.8977L35.4536 17.4574L35.4536 17.4575L35.8996 17.8977ZM20.3672 33.6356L19.9212 33.1954L19.9187 33.198L20.3672 33.6356ZM18.1896 34.0732C18.3605 34.2484 18.5647 34.3876 18.7902 34.4826L19.277 33.3277C19.2056 33.2976 19.1409 33.2535 19.0868 33.198L18.1896 34.0732ZM2.66141 18.3378L18.1921 34.0758L19.0842 33.1954L3.55349 17.4575L2.66141 18.3378ZM10.443 -0.626659C0.690443 -0.626659 -4.22654 11.3608 2.66149 18.3379L3.5534 17.4574C-2.5718 11.2529 1.82997 0.626659 10.443 0.626659V-0.626659ZM19.2446 3.68359C17.9222 2.26196 15.2486 -0.626659 10.443 -0.626659V0.626659C14.6756 0.626659 17.0248 3.13741 18.327 4.53723L19.2446 3.68359ZM19.8841 4.3273C19.7528 4.22656 19.5602 4.02277 19.2446 3.68359L18.327 4.53723C18.6063 4.83748 18.8853 5.1407 19.1213 5.32173L19.8841 4.3273ZM19.7573 3.68761C19.443 4.02501 19.2513 4.22752 19.1211 4.32742L19.8843 5.32161C20.1184 5.14187 20.3961 4.84053 20.6743 4.54193L19.7573 3.68761ZM28.5624 -0.626659C23.7625 -0.626659 21.0794 2.2684 19.7573 3.68761L20.6743 4.54193C21.9772 3.14336 24.3357 0.626659 28.5624 0.626659V-0.626659ZM34.2315 0.940077C32.6223 -0.0455337 30.7056 -0.626659 28.5624 -0.626659V0.626659C30.4725 0.626659 32.163 1.14288 33.5769 2.00886L34.2315 0.940077ZM34.2185 2.03593C34.2508 2.00516 34.2837 1.97513 34.3171 1.94584L33.4912 1.0031C33.4447 1.04389 33.3989 1.08575 33.3538 1.12865L34.2185 2.03593ZM20.7774 15.4722L34.2292 2.02549L33.3431 1.13909L19.8914 14.5858L20.7774 15.4722ZM19.6546 15.9362C20.075 15.9362 20.4783 15.7698 20.7763 15.4733L19.8925 14.5848C19.8293 14.6476 19.7438 14.6829 19.6546 14.6829V15.9362ZM18.5329 15.4733C18.8309 15.7698 19.2342 15.9362 19.6546 15.9362V14.6829C19.5654 14.6829 19.4799 14.6476 19.4168 14.5848L18.5329 15.4733ZM13.5639 10.5069L18.5318 15.4723L19.4178 14.5858L14.4499 9.62043L13.5639 10.5069ZM12.5327 9.81799C12.9183 9.9777 13.2687 10.2118 13.5638 10.5068L14.4499 9.62049C14.0384 9.20907 13.5499 8.88272 13.0122 8.66005L12.5327 9.81799ZM11.3162 9.57604C11.7337 9.57607 12.147 9.65828 12.5327 9.81799L13.0122 8.66005C12.4745 8.43738 11.8983 8.32276 11.3163 8.32272L11.3162 9.57604ZM10.0998 9.81783C10.4854 9.65817 10.8988 9.57601 11.3162 9.57604L11.3163 8.32272C10.7343 8.32268 10.1581 8.43723 9.62036 8.65982L10.0998 9.81783ZM9.06852 10.5065C9.36368 10.2115 9.71409 9.97749 10.0998 9.81783L9.62036 8.65982C9.08267 8.88242 8.59408 9.20871 8.18251 9.62007L9.06852 10.5065ZM8.37948 11.5372C8.53922 11.1518 8.77335 10.8015 9.06852 10.5065L8.18251 9.62007C7.77094 10.0314 7.44443 10.5198 7.22166 11.0574L8.37948 11.5372ZM8.13748 12.7529C8.13751 12.3357 8.21974 11.9226 8.37948 11.5372L7.22166 11.0573C6.99888 11.5949 6.8842 12.171 6.88416 12.7529L8.13748 12.7529ZM8.37932 13.9687C8.21962 13.5833 8.13745 13.1701 8.13748 12.7529L6.88416 12.7529C6.88412 13.3347 6.99873 13.9109 7.22143 14.4484L8.37932 13.9687ZM9.06822 14.9995C8.77309 14.7044 8.53901 14.3542 8.37932 13.9687L7.22143 14.4484C7.44414 14.986 7.77057 15.4744 8.18209 15.8858L9.06822 14.9995ZM17.4064 23.3346L9.06819 14.9994L8.18212 15.8858L16.5204 24.221L17.4064 23.3346ZM19.6543 24.2649C18.8111 24.2649 18.0026 23.9302 17.4063 23.3345L16.5205 24.2211C17.3518 25.0517 18.479 25.5183 19.6543 25.5183V24.2649ZM21.9022 23.3345C21.3059 23.9302 20.4974 24.2649 19.6543 24.2649V25.5183C20.8295 25.5183 21.9567 25.0517 22.788 24.2211L21.9022 23.3345ZM38.0639 7.17881L21.9021 23.3346L22.7881 24.221L38.9499 8.0652L38.0639 7.17881ZM36.3455 18.3379C39.4304 15.213 40.1421 11.0602 39.1094 7.44968L37.9044 7.79433C38.8251 11.0134 38.19 14.6854 35.4536 17.4574L36.3455 18.3379ZM20.8132 34.0758L36.3456 18.3378L35.4536 17.4575L19.9212 33.1954L20.8132 34.0758ZM20.2152 34.4826C20.4407 34.3876 20.6449 34.2484 20.8158 34.0732L19.9187 33.198C19.8645 33.2535 19.7998 33.2976 19.7284 33.3277L20.2152 34.4826ZM19.5027 34.6267C19.7474 34.6267 19.9897 34.5777 20.2152 34.4826L19.7284 33.3277C19.657 33.3578 19.5802 33.3733 19.5027 33.3733V34.6267ZM18.7902 34.4826C19.0157 34.5777 19.258 34.6267 19.5027 34.6267V33.3733C19.4252 33.3733 19.3484 33.3578 19.277 33.3277L18.7902 34.4826Z" fill="#C04963" mask="url(#path-1-inside-1_23_628)"/>
</svg>
