<svg width="45.000000" height="45.000000" viewBox="0 0 45 45" fill="none" xmlns="http://www.w3.org/2000/svg" xmlns:xlink="http://www.w3.org/1999/xlink">
	<desc>
			Created with Pixso.
	</desc>
	<defs>
		<clipPath id="clip3_309">
			<rect id="Tilda_Icons_47dlvr_speed.svg" rx="-0.225000" width="44.549999" height="44.549999" transform="translate(0.225000 0.225000)" fill="white" fill-opacity="0"/>
		</clipPath>
		<clipPath id="clip3_308">
			<rect id="Tilda_Icons_47dlvr_speed.svg fill" rx="-0.500000" width="44.000000" height="44.000000" transform="translate(0.500000 0.500000)" fill="white" fill-opacity="0"/>
		</clipPath>
		<clipPath id="clip3_307">
			<rect id="Tilda_Icons_47dlvr_speed.svg" rx="-0.500000" width="44.000000" height="44.000000" transform="translate(0.500000 0.500000)" fill="white" fill-opacity="0"/>
		</clipPath>
	</defs>
	<g clip-path="url(#clip3_307)">
		<g clip-path="url(#clip3_308)">
			<g clip-path="url(#clip3_309)">
				<path id="Vector" d="M29.7 10.15L29.7 7.64L33.07 7.64C33.25 7.64 33.42 7.57 33.55 7.45C33.67 7.32 33.75 7.15 33.75 6.97C33.75 6.79 33.67 6.62 33.55 6.49C33.42 6.37 33.25 6.29 33.07 6.29L24.97 6.29C24.79 6.29 24.62 6.37 24.49 6.49C24.37 6.62 24.29 6.79 24.29 6.97C24.29 7.15 24.37 7.32 24.49 7.45C24.62 7.57 24.79 7.64 24.97 7.64L28.35 7.64L28.35 10.15C24.61 10.32 21.09 11.95 18.55 14.69C16 17.42 14.62 21.05 14.71 24.78C14.8 28.52 16.34 32.07 19.02 34.69C21.69 37.3 25.28 38.76 29.02 38.76C32.76 38.76 36.35 37.3 39.02 34.69C41.7 32.07 43.24 28.52 43.33 24.78C43.42 21.05 42.04 17.42 39.49 14.69C36.95 11.95 33.43 10.32 29.7 10.15L29.7 10.15ZM28.95 37.44C26.38 37.44 23.87 36.68 21.74 35.26C19.6 33.83 17.94 31.8 16.96 29.43C15.98 27.06 15.72 24.45 16.22 21.93C16.72 19.41 17.96 17.1 19.77 15.28C21.59 13.47 23.9 12.23 26.42 11.73C28.94 11.23 31.55 11.48 33.92 12.47C36.29 13.45 38.32 15.11 39.75 17.25C41.17 19.38 41.93 21.89 41.93 24.46C41.93 27.9 40.56 31.2 38.13 33.64C35.69 36.07 32.39 37.44 28.95 37.44Z" fill="#000000" fill-opacity="1.000000" fill-rule="evenodd"/>
				<path id="Vector" d="M25.71 33.27C23.91 32.6 22.36 31.4 21.26 29.82C20.16 28.25 19.57 26.38 19.57 24.46C19.57 24.28 19.5 24.11 19.37 23.98C19.25 23.86 19.07 23.79 18.9 23.79C18.72 23.79 18.54 23.86 18.42 23.98C18.29 24.11 18.22 24.28 18.22 24.46C18.23 26.66 18.9 28.79 20.16 30.59C21.41 32.39 23.18 33.77 25.24 34.53C25.31 34.56 25.39 34.57 25.47 34.57C25.63 34.57 25.78 34.51 25.9 34.41C26.02 34.31 26.1 34.17 26.13 34.02C26.16 33.86 26.13 33.7 26.05 33.57C25.98 33.43 25.85 33.32 25.71 33.27ZM34.72 31.86C33.42 32.88 31.86 33.53 30.22 33.76C30.13 33.76 30.05 33.79 29.97 33.83C29.89 33.87 29.82 33.92 29.76 33.99C29.64 34.12 29.58 34.3 29.59 34.48C29.6 34.66 29.68 34.82 29.82 34.94C29.95 35.06 30.13 35.12 30.31 35.11L30.4 35.11C32.28 34.85 34.05 34.09 35.55 32.92C35.62 32.87 35.68 32.8 35.73 32.72C35.77 32.64 35.8 32.56 35.81 32.47C35.83 32.38 35.82 32.29 35.8 32.2C35.77 32.11 35.73 32.03 35.68 31.96C35.62 31.89 35.55 31.83 35.47 31.79C35.39 31.74 35.31 31.72 35.22 31.71C35.13 31.7 35.04 31.71 34.95 31.73C34.86 31.76 34.78 31.8 34.71 31.86L34.72 31.86ZM31.19 24.46C31.19 24.04 31.07 23.63 30.85 23.28L35.5 18.51C35.61 18.38 35.68 18.21 35.67 18.04C35.67 17.86 35.59 17.7 35.47 17.57C35.34 17.45 35.17 17.38 35 17.38C34.82 17.38 34.65 17.45 34.53 17.57L29.83 22.4C29.38 22.2 28.89 22.16 28.42 22.27C27.94 22.38 27.52 22.64 27.21 23.01C26.89 23.38 26.71 23.84 26.68 24.32C26.65 24.8 26.78 25.28 27.04 25.69C27.31 26.09 27.7 26.4 28.15 26.57C28.61 26.74 29.1 26.75 29.57 26.61C30.03 26.48 30.44 26.19 30.73 25.81C31.02 25.42 31.17 24.95 31.18 24.46L31.19 24.46ZM28.94 25.36C28.77 25.36 28.59 25.31 28.44 25.21C28.3 25.11 28.18 24.97 28.11 24.81C28.04 24.64 28.03 24.46 28.06 24.29C28.1 24.11 28.18 23.95 28.31 23.83C28.43 23.7 28.59 23.61 28.77 23.58C28.94 23.54 29.12 23.56 29.29 23.63C29.45 23.7 29.59 23.81 29.69 23.96C29.79 24.11 29.84 24.28 29.84 24.46C29.84 24.7 29.75 24.92 29.58 25.09C29.41 25.26 29.19 25.35 28.95 25.36L28.94 25.36ZM11.25 24.97C11.25 24.79 11.17 24.62 11.05 24.49C10.92 24.37 10.75 24.29 10.57 24.29L2.47 24.29C2.29 24.29 2.12 24.37 1.99 24.49C1.87 24.62 1.8 24.79 1.8 24.97C1.8 25.15 1.87 25.32 1.99 25.45C2.12 25.57 2.29 25.64 2.47 25.64L10.57 25.64C10.75 25.64 10.92 25.57 11.05 25.45C11.17 25.32 11.25 25.15 11.25 24.97ZM11.92 30.59L3.82 30.59C3.64 30.59 3.47 30.67 3.34 30.79C3.22 30.92 3.15 31.09 3.15 31.27C3.15 31.45 3.22 31.62 3.34 31.75C3.47 31.87 3.64 31.94 3.82 31.94L11.92 31.94C12.1 31.94 12.27 31.87 12.4 31.75C12.52 31.62 12.6 31.45 12.6 31.27C12.6 31.09 12.52 30.92 12.4 30.79C12.27 30.67 12.1 30.59 11.92 30.59ZM11.92 17.54L3.82 17.54C3.64 17.54 3.47 17.62 3.34 17.74C3.22 17.87 3.15 18.04 3.15 18.22C3.15 18.4 3.22 18.57 3.34 18.7C3.47 18.82 3.64 18.89 3.82 18.89L11.92 18.89C12.1 18.89 12.27 18.82 12.4 18.7C12.52 18.57 12.6 18.4 12.6 18.22C12.6 18.04 12.52 17.87 12.4 17.74C12.27 17.62 12.1 17.54 11.92 17.54Z" fill="#000000" fill-opacity="1.000000" fill-rule="evenodd"/>
			</g>
		</g>
	</g>
</svg>
