<svg width="45.000000" height="45.000000" viewBox="0 0 45 45" fill="none" xmlns="http://www.w3.org/2000/svg" xmlns:xlink="http://www.w3.org/1999/xlink">
	<desc>
			Created with Pixso.
	</desc>
	<defs>
		<clipPath id="clip3_319">
			<rect id="3st_man.svg" rx="-0.225000" width="44.549999" height="44.549999" transform="translate(0.225000 0.225000)" fill="white" fill-opacity="0"/>
		</clipPath>
		<clipPath id="clip3_318">
			<rect id="3st_man.svg fill" rx="-0.500000" width="44.000000" height="44.000000" transform="translate(0.500000 0.500000)" fill="white" fill-opacity="0"/>
		</clipPath>
		<clipPath id="clip3_317">
			<rect id="3st_man.svg" rx="-0.500000" width="44.000000" height="44.000000" transform="translate(0.500000 0.500000)" fill="white" fill-opacity="0"/>
		</clipPath>
	</defs>
	<g clip-path="url(#clip3_317)">
		<g clip-path="url(#clip3_318)">
			<g clip-path="url(#clip3_319)">
				<path id="Vector" d="M22.5 24.34C13.09 24.34 5.44 31.99 5.44 41.39C5.44 41.75 5.76 42.07 6.12 42.07L38.83 42.07C39.19 42.07 39.5 41.75 39.5 41.39C39.55 31.99 31.9 24.34 22.5 24.34ZM22.5 25.69C24.57 25.69 26.59 26.1 28.39 26.86L22.72 31.04L16.65 26.86C18.45 26.1 20.43 25.69 22.5 25.69ZM6.84 40.72C7.06 35 10.44 30.06 15.21 27.49L22.36 32.39C22.5 32.48 22.63 32.53 22.72 32.53C22.86 32.53 22.99 32.48 23.13 32.39L29.79 27.49C34.6 30.01 37.93 34.96 38.16 40.72L6.84 40.72ZM22.23 22.5C27.63 22.5 32.04 18.08 32.04 12.68C32.04 7.29 27.63 2.87 22.23 2.87C16.83 2.87 12.42 7.29 12.42 12.68C12.42 18.13 16.83 22.5 22.23 22.5ZM22.23 4.27C25.83 4.27 28.89 6.52 30.1 9.67C29.7 9.44 29.2 9.17 28.75 8.9C26.86 7.78 25.56 7.06 24.7 7.15C22.99 7.29 22 7.96 20.92 8.63C20.34 9 19.7 9.4 18.94 9.71L18.71 9.81C17.05 10.48 16.02 10.93 13.99 11.15C14.67 7.24 18.09 4.27 22.23 4.27ZM13.77 12.5C16.2 12.28 17.41 11.79 19.17 11.02L19.39 10.93C20.29 10.57 20.97 10.12 21.6 9.71C22.59 9.08 23.44 8.54 24.79 8.45C25.29 8.41 27 9.44 28.03 10.03C29.07 10.66 29.92 11.15 30.55 11.33C30.64 11.79 30.69 12.23 30.69 12.68C30.69 17.32 26.91 21.14 22.23 21.14C17.54 21.14 13.77 17.37 13.77 12.68L13.77 12.5Z" fill="#000000" fill-opacity="1.000000" fill-rule="evenodd"/>
			</g>
		</g>
	</g>
</svg>
