<svg width="45.000000" height="45.000000" viewBox="0 0 45 45" fill="none" xmlns="http://www.w3.org/2000/svg" xmlns:xlink="http://www.w3.org/1999/xlink">
	<desc>
			Created with Pixso.
	</desc>
	<defs>
		<clipPath id="clip3_328">
			<rect id="1ed_cup.svg" rx="-0.225000" width="44.549999" height="44.549999" transform="translate(0.225000 0.225000)" fill="white" fill-opacity="0"/>
		</clipPath>
		<clipPath id="clip3_327">
			<rect id="1ed_cup.svg fill" rx="-0.500000" width="44.000000" height="44.000000" transform="translate(0.500000 0.500000)" fill="white" fill-opacity="0"/>
		</clipPath>
		<clipPath id="clip3_326">
			<rect id="1ed_cup.svg" rx="-0.500000" width="44.000000" height="44.000000" transform="translate(0.500000 0.500000)" fill="white" fill-opacity="0"/>
		</clipPath>
	</defs>
	<g clip-path="url(#clip3_326)">
		<g clip-path="url(#clip3_327)">
			<g clip-path="url(#clip3_328)">
				<path id="Vector" d="M39.82 6.88C39.68 6.75 39.5 6.66 39.33 6.66L32.49 6.66L32.49 3.5C32.49 3.14 32.17 2.83 31.81 2.83L12.6 2.83C12.24 2.83 11.92 3.14 11.92 3.5L11.92 6.66L4.9 6.66C4.72 6.66 4.54 6.75 4.41 6.88C4.27 7.02 4.22 7.2 4.22 7.37C4.22 7.51 4.36 10.39 5.4 13.72C6.83 18.18 9.27 21.33 12.51 22.77C13.59 26.37 16.06 29.2 19.16 30.33L19.16 30.46C19.16 34.2 16.33 37.16 12.68 37.16C12.33 37.16 12.01 37.48 12.01 37.84L12.01 41.66C12.01 42.02 12.33 42.34 12.68 42.34L31.81 42.34C32.17 42.34 32.49 42.02 32.49 41.66L32.49 37.84C32.49 37.48 32.17 37.16 31.81 37.16C28.12 37.16 25.11 34.15 25.11 30.46L25.11 30.37C28.35 29.25 30.87 26.37 31.95 22.68C35.05 21.19 37.43 18.08 38.83 13.72C39.91 10.39 40 7.46 40 7.37C40.04 7.2 39.96 7.02 39.82 6.88ZM5.62 8L11.92 8L11.92 18.81C11.92 19.57 11.97 20.29 12.1 21.01C6.97 17.95 5.84 10.35 5.62 8ZM31.14 38.47L31.14 40.95L13.36 40.95L13.36 38.47C17.32 38.16 20.38 34.87 20.47 30.68C21.01 30.77 21.6 30.87 22.18 30.87C22.72 30.87 23.26 30.82 23.76 30.73C23.93 34.83 27.13 38.16 31.14 38.47ZM23.98 29.33C23.4 29.47 22.81 29.56 22.23 29.56C21.55 29.56 20.88 29.47 20.25 29.29C20.11 29.25 19.89 29.16 19.79 29.16C16.06 27.89 13.27 23.75 13.27 18.85L13.27 4.22L31.14 4.22L31.14 18.85C31.14 23.75 28.35 27.89 24.56 29.16L23.98 29.33ZM32.35 20.92C32.44 20.25 32.53 19.52 32.53 18.81L32.53 8L38.65 8C38.42 10.35 37.34 17.73 32.35 20.92Z" fill="#000000" fill-opacity="1.000000" fill-rule="evenodd"/>
				<path id="Vector" d="M28.71 12.28L25.02 11.74L23.35 8.37C23.17 8.01 22.77 7.74 22.36 7.74C21.96 7.74 21.55 7.96 21.37 8.37L19.71 11.74L16.02 12.28C15.61 12.33 15.25 12.64 15.12 13.05C14.98 13.45 15.07 13.9 15.39 14.17L18.09 16.78L17.46 20.47C17.37 20.88 17.54 21.28 17.91 21.55C18.09 21.69 18.31 21.78 18.58 21.78C18.76 21.78 18.94 21.73 19.08 21.64L22.5 19.93L25.74 21.64C26.1 21.82 26.55 21.82 26.91 21.55C27.27 21.28 27.4 20.88 27.36 20.47L26.73 16.78L29.43 14.17C29.74 13.86 29.83 13.45 29.7 13.05C29.47 12.64 29.16 12.33 28.71 12.28ZM25.47 16.06C25.29 16.2 25.24 16.42 25.29 16.65L25.92 20.2L22.81 18.58C22.63 18.49 22.41 18.49 22.18 18.58L18.85 20.25L19.48 16.65C19.53 16.42 19.44 16.2 19.3 16.06L16.74 13.54L20.29 13C20.52 12.96 20.7 12.82 20.79 12.64L22.36 9.4L23.94 12.64C24.03 12.82 24.21 13 24.43 13L27.99 13.54L25.47 16.06Z" fill="#000000" fill-opacity="1.000000" fill-rule="evenodd"/>
			</g>
		</g>
	</g>
</svg>
