<svg width="45.000000" height="45.000000" viewBox="0 0 45 45" fill="none" xmlns="http://www.w3.org/2000/svg" xmlns:xlink="http://www.w3.org/1999/xlink">
	<desc>
			Created with Pixso.
	</desc>
	<defs>
		<clipPath id="clip3_341">
			<rect id="target.svg" rx="-0.225000" width="44.549999" height="44.549999" transform="translate(0.225000 0.225000)" fill="white" fill-opacity="0"/>
		</clipPath>
		<clipPath id="clip3_340">
			<rect id="target.svg fill" rx="-0.500000" width="44.000000" height="44.000000" transform="translate(0.500000 0.500000)" fill="white" fill-opacity="0"/>
		</clipPath>
		<clipPath id="clip3_339">
			<rect id="target.svg" rx="-0.500000" width="44.000000" height="44.000000" transform="translate(0.500000 0.500000)" fill="white" fill-opacity="0"/>
		</clipPath>
	</defs>
	<g clip-path="url(#clip3_339)">
		<g clip-path="url(#clip3_340)">
			<g clip-path="url(#clip3_341)">
				<path id="Vector" d="M43.22 7.11C43.18 6.99 43.09 6.88 42.98 6.8C42.87 6.73 42.74 6.68 42.61 6.68L38.61 6.59L38.7 2.59C38.7 2.45 38.67 2.32 38.59 2.21C38.52 2.1 38.42 2.01 38.3 1.95C38.17 1.9 38.04 1.88 37.91 1.91C37.78 1.93 37.65 1.99 37.56 2.08L32.78 6.65C32.65 6.77 32.57 6.94 32.57 7.12L32.47 11.39L31.28 12.58C28.14 9.67 23.94 7.88 19.33 7.88C9.62 7.88 1.72 15.78 1.72 25.49C1.72 35.2 9.62 43.09 19.33 43.09C29.04 43.09 36.93 35.2 36.93 25.49C36.93 20.88 35.15 16.68 32.24 13.53L33.28 12.49L37.79 12.6L37.81 12.6C37.98 12.6 38.15 12.53 38.28 12.41L43.06 7.84C43.26 7.66 43.32 7.37 43.22 7.11ZM35.58 25.49C35.58 34.45 28.29 41.74 19.33 41.74C10.36 41.74 3.07 34.45 3.07 25.49C3.07 16.52 10.36 9.23 19.33 9.23C23.57 9.23 27.43 10.86 30.33 13.53L27.83 16.03C25.57 14 22.59 12.76 19.33 12.76C12.31 12.76 6.61 18.47 6.61 25.49C6.61 32.5 12.31 38.21 19.33 38.21C26.35 38.21 32.05 32.5 32.05 25.49C32.05 22.22 30.82 19.24 28.78 16.98L31.28 14.49C33.95 17.38 35.58 21.25 35.58 25.49ZM23.39 25.49C23.39 27.73 21.57 29.55 19.33 29.55C17.09 29.55 15.26 27.73 15.26 25.49C15.26 23.25 17.09 21.42 19.33 21.42C20.2 21.42 21.02 21.71 21.68 22.18L18.85 25.01C18.79 25.07 18.74 25.15 18.7 25.23C18.67 25.31 18.65 25.4 18.65 25.49C18.65 25.58 18.67 25.66 18.7 25.75C18.74 25.83 18.79 25.9 18.85 25.96C18.91 26.03 18.99 26.08 19.07 26.11C19.15 26.14 19.24 26.16 19.33 26.16C19.42 26.16 19.5 26.14 19.59 26.11C19.67 26.08 19.74 26.03 19.8 25.96L22.63 23.13C23.13 23.82 23.39 24.64 23.39 25.49ZM22.64 21.22C21.7 20.48 20.53 20.07 19.33 20.07C16.34 20.07 13.91 22.5 13.91 25.49C13.91 28.47 16.34 30.9 19.33 30.9C22.31 30.9 24.74 28.47 24.74 25.49C24.74 24.24 24.31 23.09 23.6 22.17L27.83 17.94C29.61 19.95 30.7 22.6 30.7 25.49C30.7 31.76 25.6 36.86 19.33 36.86C13.06 36.86 7.96 31.76 7.96 25.49C7.96 19.22 13.06 14.11 19.33 14.11C22.22 14.11 24.86 15.2 26.87 16.99L22.64 21.22ZM37.55 11.24L34.6 11.17L36.74 9.03C36.8 8.97 36.85 8.9 36.89 8.81C36.92 8.73 36.94 8.64 36.94 8.55C36.94 8.46 36.92 8.37 36.89 8.29C36.86 8.21 36.81 8.13 36.74 8.07C36.68 8.01 36.6 7.96 36.52 7.92C36.44 7.89 36.35 7.87 36.26 7.87C36.17 7.87 36.08 7.89 36 7.93C35.92 7.96 35.84 8.01 35.78 8.08L33.85 10.01L33.91 7.43L36.1 5.34L36.1 5.34L37.31 4.19L37.24 7.23C37.24 7.41 37.31 7.58 37.43 7.71C37.55 7.84 37.72 7.92 37.9 7.92L40.95 7.99L37.55 11.24Z" fill="#000000" fill-opacity="1.000000" fill-rule="evenodd"/>
			</g>
		</g>
	</g>
</svg>
