<svg width="45.000000" height="45.000000" viewBox="0 0 45 45" fill="none" xmlns="http://www.w3.org/2000/svg" xmlns:xlink="http://www.w3.org/1999/xlink">
	<desc>
			Created with Pixso.
	</desc>
	<defs>
		<clipPath id="clip3_352">
			<rect id="touragency_group.svg" rx="-0.225000" width="44.549999" height="44.549999" transform="translate(0.225000 0.225000)" fill="white" fill-opacity="0"/>
		</clipPath>
		<clipPath id="clip3_351">
			<rect id="touragency_group.svg fill" rx="-0.500000" width="44.000000" height="44.000000" transform="translate(0.500000 0.500000)" fill="white" fill-opacity="0"/>
		</clipPath>
		<clipPath id="clip3_350">
			<rect id="touragency_group.svg" rx="-0.500000" width="44.000000" height="44.000000" transform="translate(0.500000 0.500000)" fill="white" fill-opacity="0"/>
		</clipPath>
	</defs>
	<g clip-path="url(#clip3_350)">
		<g clip-path="url(#clip3_351)">
			<g clip-path="url(#clip3_352)">
				<path id="Vector" d="M22.47 23.59C16.68 23.59 11.97 28.3 11.97 34.09L11.97 34.75L32.96 34.75L32.96 34.09C32.96 28.3 28.25 23.59 22.47 23.59ZM13.3 33.44C13.64 28.67 17.62 24.9 22.47 24.9C27.31 24.9 31.29 28.67 31.63 33.44L13.3 33.44ZM22.29 22.52C25.68 22.52 28.43 19.76 28.43 16.38C28.43 13 25.68 10.24 22.29 10.24C18.91 10.24 16.16 13 16.16 16.38C16.16 19.76 18.91 22.52 22.29 22.52ZM22.29 11.55C24.96 11.55 27.12 13.72 27.12 16.38C27.12 19.04 24.96 21.21 22.29 21.21C19.63 21.21 17.47 19.04 17.47 16.38C17.47 13.72 19.63 11.55 22.29 11.55ZM8.43 27.43C9.62 27.43 10.79 27.75 11.81 28.35L12.47 27.22C11.25 26.5 9.85 26.12 8.43 26.12C4.03 26.12 0.46 29.69 0.46 34.09L0.46 34.75L10.21 34.75L10.21 33.44L1.8 33.44C2.13 30.07 4.98 27.43 8.43 27.43ZM8.3 24.85C10.91 24.85 13.03 22.72 13.03 20.12C13.03 17.51 10.91 15.38 8.3 15.38C5.69 15.38 3.57 17.51 3.57 20.12C3.57 22.72 5.69 24.85 8.3 24.85ZM8.3 16.69C10.19 16.69 11.72 18.23 11.72 20.12C11.72 22 10.19 23.54 8.3 23.54C6.42 23.54 4.88 22 4.88 20.12C4.88 18.23 6.42 16.69 8.3 16.69ZM36.56 26.12C35.14 26.12 33.74 26.5 32.52 27.22L33.18 28.35C34.21 27.74 35.37 27.43 36.56 27.43C40.01 27.43 42.86 30.07 43.19 33.44L34.78 33.44L34.78 34.75L44.53 34.75L44.53 34.09C44.53 29.69 40.96 26.12 36.56 26.12ZM36.69 24.85C39.3 24.85 41.42 22.72 41.42 20.12C41.42 17.51 39.3 15.38 36.69 15.38C34.08 15.38 31.96 17.51 31.96 20.12C31.96 22.72 34.08 24.85 36.69 24.85ZM36.69 16.69C38.57 16.69 40.11 18.23 40.11 20.12C40.11 22 38.57 23.54 36.69 23.54C34.8 23.54 33.27 22 33.27 20.12C33.27 18.23 34.8 16.69 36.69 16.69Z" fill="#000000" fill-opacity="1.000000" fill-rule="evenodd"/>
			</g>
		</g>
	</g>
</svg>
