<svg width="45.000000" height="45.000000" viewBox="0 0 45 45" fill="none" xmlns="http://www.w3.org/2000/svg" xmlns:xlink="http://www.w3.org/1999/xlink">
	<desc>
			Created with Pixso.
	</desc>
	<defs>
		<clipPath id="clip3_361">
			<rect id="Tilda_Icons_35_Valentine_heartpoint.svg" rx="-0.225000" width="44.549999" height="44.549999" transform="translate(0.225000 0.225000)" fill="white" fill-opacity="0"/>
		</clipPath>
		<clipPath id="clip3_360">
			<rect id="Tilda_Icons_35_Valentine_heartpoint.svg fill" rx="-0.500000" width="44.000000" height="44.000000" transform="translate(0.500000 0.500000)" fill="white" fill-opacity="0"/>
		</clipPath>
		<clipPath id="clip3_359">
			<rect id="Tilda_Icons_35_Valentine_heartpoint.svg" rx="-0.500000" width="44.000000" height="44.000000" transform="translate(0.500000 0.500000)" fill="white" fill-opacity="0"/>
		</clipPath>
	</defs>
	<g clip-path="url(#clip3_359)">
		<g clip-path="url(#clip3_360)">
			<g clip-path="url(#clip3_361)">
				<path id="Vector" d="M22.49 8.24C15.42 8.24 9.67 14.07 9.67 21.24C9.67 23.63 10.33 25.98 11.56 28.02C11.58 28.07 11.61 28.12 11.64 28.17L21.73 42.6C21.86 42.78 22.06 42.89 22.28 42.89L22.29 42.89C22.5 42.89 22.71 42.79 22.83 42.61L33.34 28.18C33.38 28.13 33.41 28.07 33.43 28.01C34.66 25.97 35.32 23.63 35.32 21.24C35.32 14.07 29.57 8.24 22.49 8.24ZM32.2 27.43C32.19 27.45 32.17 27.48 32.16 27.5L22.3 41.05L12.82 27.5C12.81 27.48 12.8 27.45 12.78 27.43C11.63 25.57 11.02 23.43 11.02 21.24C11.02 14.82 16.17 9.59 22.49 9.59C28.82 9.59 33.97 14.82 33.97 21.24C33.97 23.43 33.36 25.57 32.2 27.43Z" fill="#000000" fill-opacity="1.000000" fill-rule="evenodd"/>
				<path id="Vector" d="M25.59 15.97L25.58 15.97C24.98 15.97 24.39 16.11 23.85 16.38C23.31 16.65 22.84 17.04 22.48 17.52C22.12 17.04 21.65 16.66 21.12 16.39C20.58 16.12 19.99 15.98 19.4 15.98L19.39 15.98C18.88 15.98 18.38 16.08 17.91 16.28C17.44 16.47 17.01 16.76 16.65 17.12C16.29 17.48 16.01 17.9 15.81 18.37C15.62 18.84 15.52 19.35 15.52 19.85C15.52 20.84 15.88 21.77 16.52 22.45C17.85 23.85 21.86 27.76 22.03 27.93C22.16 28.05 22.33 28.12 22.51 28.12C22.68 28.12 22.85 28.05 22.98 27.93C23.15 27.76 27.13 23.85 28.46 22.46C29.11 21.77 29.47 20.84 29.47 19.85C29.47 17.71 27.73 15.97 25.59 15.97ZM27.48 21.53C26.44 22.62 23.63 25.39 22.5 26.5C21.38 25.4 18.55 22.62 17.5 21.52C17.1 21.09 16.87 20.5 16.87 19.85C16.87 19.52 16.93 19.19 17.06 18.89C17.19 18.58 17.37 18.3 17.61 18.07C17.84 17.84 18.12 17.65 18.42 17.52C18.73 17.4 19.06 17.33 19.39 17.33L19.39 17.33C19.95 17.33 20.49 17.52 20.93 17.86C21.38 18.2 21.69 18.67 21.84 19.21C21.88 19.35 21.96 19.48 22.08 19.57C22.2 19.66 22.34 19.7 22.49 19.7L22.49 19.7C22.64 19.7 22.79 19.65 22.9 19.56C23.02 19.47 23.11 19.34 23.14 19.2C23.29 18.66 23.6 18.18 24.04 17.84C24.48 17.5 25.02 17.32 25.58 17.32L25.58 17.32C26.98 17.32 28.12 18.46 28.12 19.85C28.12 20.5 27.89 21.09 27.48 21.53ZM39.34 14.65C39.32 14.57 39.27 14.49 39.22 14.42C39.16 14.35 39.09 14.29 39.02 14.25C38.94 14.21 38.85 14.18 38.76 14.17C38.68 14.16 38.59 14.17 38.5 14.2C38.42 14.22 38.34 14.27 38.27 14.32C38.2 14.38 38.14 14.45 38.1 14.52C38.06 14.6 38.03 14.69 38.02 14.78C38.01 14.86 38.02 14.95 38.05 15.04C38.63 16.98 38.92 19.03 38.92 21.15C38.92 22.64 38.78 24.1 38.49 25.51C38.45 25.69 38.49 25.87 38.59 26.02C38.69 26.17 38.84 26.27 39.02 26.31C39.19 26.34 39.37 26.31 39.52 26.21C39.67 26.11 39.78 25.96 39.81 25.78C40.12 24.26 40.27 22.71 40.27 21.15C40.27 18.9 39.96 16.71 39.34 14.65ZM15.07 5.85C15.16 5.85 15.25 5.83 15.33 5.79C17.37 4.93 19.56 4.5 21.82 4.5C22 4.5 22.17 4.42 22.3 4.3C22.42 4.17 22.5 4 22.5 3.82C22.5 3.64 22.42 3.47 22.3 3.34C22.17 3.22 22 3.14 21.82 3.14C19.37 3.14 17.01 3.62 14.81 4.55C14.66 4.61 14.55 4.72 14.47 4.85C14.4 4.99 14.38 5.15 14.41 5.3C14.44 5.46 14.52 5.59 14.64 5.69C14.76 5.79 14.91 5.85 15.07 5.85ZM11.46 8.16C11.59 8.04 11.67 7.88 11.68 7.7C11.69 7.53 11.64 7.36 11.52 7.22C11.41 7.09 11.25 7 11.07 6.98C10.9 6.97 10.72 7.02 10.59 7.13C6.71 10.39 4.5 15.17 4.5 20.25C4.5 20.42 4.57 20.6 4.69 20.72C4.82 20.85 4.99 20.92 5.17 20.92C5.35 20.92 5.52 20.85 5.65 20.72C5.77 20.6 5.85 20.42 5.85 20.25C5.84 17.94 6.34 15.67 7.31 13.58C8.28 11.49 9.69 9.64 11.46 8.16Z" fill="#000000" fill-opacity="1.000000" fill-rule="evenodd"/>
			</g>
		</g>
	</g>
</svg>
