<svg width="45.000000" height="45.000000" viewBox="0 0 45 45" fill="none" xmlns="http://www.w3.org/2000/svg" xmlns:xlink="http://www.w3.org/1999/xlink">
	<desc>
			Created with Pixso.
	</desc>
	<defs>
		<clipPath id="clip3_383">
			<rect id="search_result.svg" rx="-0.225000" width="44.549999" height="44.549999" transform="translate(0.225000 0.225000)" fill="white" fill-opacity="0"/>
		</clipPath>
		<clipPath id="clip3_382">
			<rect id="search_result.svg fill" rx="-0.500000" width="44.000000" height="44.000000" transform="translate(0.500000 0.500000)" fill="white" fill-opacity="0"/>
		</clipPath>
		<clipPath id="clip3_381">
			<rect id="search_result.svg" rx="-0.500000" width="44.000000" height="44.000000" transform="translate(0.500000 0.500000)" fill="white" fill-opacity="0"/>
		</clipPath>
	</defs>
	<g clip-path="url(#clip3_381)">
		<g clip-path="url(#clip3_382)">
			<g clip-path="url(#clip3_383)">
				<path id="Vector" d="M40.47 4.68L16.54 4.68C14.32 4.68 12.51 6.49 12.51 8.71L12.51 13.09C12.51 13.27 12.58 13.44 12.7 13.57C12.83 13.7 13 13.77 13.18 13.77C13.36 13.77 13.53 13.7 13.66 13.57C13.79 13.44 13.86 13.27 13.86 13.09L13.86 8.71C13.86 8 14.14 7.32 14.64 6.82C15.15 6.32 15.83 6.03 16.54 6.03L40.47 6.03C41.96 6.03 43.16 7.24 43.16 8.71L43.16 25.19C43.16 26.67 41.96 27.87 40.47 27.87L31.51 27.87C31.5 27.87 31.48 27.87 31.47 27.87C31.46 27.87 31.45 27.87 31.44 27.87L25.57 27.87C25.39 27.87 25.22 27.94 25.09 28.07C24.97 28.2 24.9 28.37 24.9 28.55L24.9 35.52L18.45 35.52C18.27 35.52 18.1 35.59 17.98 35.72C17.85 35.84 17.78 36.02 17.78 36.19C17.78 36.37 17.85 36.54 17.98 36.67C18.1 36.8 18.27 36.87 18.45 36.87L38.56 36.87C38.74 36.87 38.92 36.8 39.04 36.67C39.17 36.54 39.24 36.37 39.24 36.19C39.24 36.02 39.17 35.84 39.04 35.72C38.92 35.59 38.74 35.52 38.56 35.52L32.12 35.52L32.12 29.22L40.47 29.22C42.7 29.22 44.51 27.41 44.51 25.19L44.51 8.71C44.51 6.49 42.7 4.68 40.47 4.68ZM26.25 35.52L26.25 29.22L30.77 29.22L30.77 35.52L26.25 35.52Z" fill="#000000" fill-opacity="1.000000" fill-rule="evenodd"/>
				<path id="Vector" d="M14.52 33.79C17.04 33.79 19.54 32.75 21.33 30.73C24.66 26.98 24.32 21.21 20.57 17.88C16.81 14.56 11.05 14.9 7.72 18.65C4.54 22.24 4.72 27.65 8 31.03L6.9 32.27L6.64 32.05C6.51 31.93 6.33 31.87 6.16 31.88C5.98 31.89 5.81 31.97 5.69 32.1L0.69 37.69C0.63 37.75 0.59 37.83 0.56 37.91C0.53 38 0.52 38.08 0.52 38.17C0.53 38.26 0.55 38.35 0.59 38.43C0.63 38.51 0.68 38.58 0.75 38.64L2.32 40.04C2.38 40.1 2.46 40.15 2.55 40.18C2.63 40.21 2.72 40.22 2.81 40.21C2.89 40.21 2.98 40.19 3.06 40.15C3.14 40.11 3.21 40.06 3.27 39.99L8.28 34.4C8.33 34.33 8.38 34.26 8.41 34.17C8.44 34.09 8.45 34 8.45 33.91C8.44 33.82 8.42 33.73 8.38 33.65C8.34 33.57 8.29 33.5 8.22 33.44L7.91 33.17L9.01 31.92C10.6 33.13 12.53 33.79 14.52 33.79ZM2.71 38.59L2.15 38.08L6.2 33.56C6.24 33.67 6.3 33.78 6.4 33.86C6.51 33.96 6.66 34.01 6.8 34.02L2.71 38.59ZM8.73 19.55C10.26 17.83 12.39 16.95 14.53 16.95C16.36 16.95 18.2 17.59 19.67 18.89C22.87 21.73 23.16 26.64 20.32 29.84C17.49 33.03 12.58 33.33 9.38 30.49C6.19 27.65 5.89 22.75 8.73 19.55ZM28.56 9.37C28.45 9.37 28.35 9.39 28.25 9.43C28.15 9.47 28.06 9.53 27.99 9.61C27.91 9.68 27.86 9.77 27.81 9.87C27.77 9.97 27.75 10.07 27.75 10.18C27.75 10.28 27.77 10.39 27.81 10.48C27.86 10.58 27.91 10.67 27.99 10.75C28.06 10.82 28.15 10.88 28.25 10.92C28.35 10.96 28.45 10.98 28.56 10.98C28.66 10.98 28.77 10.96 28.87 10.92C28.97 10.88 29.05 10.82 29.13 10.75C29.2 10.67 29.26 10.58 29.3 10.48C29.34 10.39 29.36 10.28 29.36 10.18C29.36 10.07 29.34 9.97 29.3 9.87C29.26 9.77 29.2 9.68 29.13 9.61C29.05 9.53 28.97 9.47 28.87 9.43C28.77 9.39 28.66 9.37 28.56 9.37Z" fill="#000000" fill-opacity="1.000000" fill-rule="evenodd"/>
			</g>
		</g>
	</g>
</svg>
