<svg width="105" height="25" viewBox="0 0 105 25" fill="none" xmlns="http://www.w3.org/2000/svg">
<path d="M1 19.5H65.1111L66.2222 15L67.8889 24L69.5555 1L71.2222 19.5H104" stroke="white"/>
<path d="M3.456 10.184H4.192L7.184 5.8H9.456V6.12L6.048 10.824L10.544 16.68V17H8.064L4.288 12.04H3.456V17H1.312V5.8H3.456V10.184ZM15.2643 5.72H16.8483L21.3763 17H19.1042L18.1603 14.52H13.8563L12.9123 17H10.7843L15.2643 5.72ZM14.5123 12.792H17.4883L16.0003 8.888L14.5123 12.792ZM26.188 5.8C26.796 5.8 27.3453 5.88 27.836 6.04C28.3373 6.2 28.7587 6.43467 29.1 6.744C29.452 7.04267 29.7187 7.40533 29.9 7.832C30.092 8.25867 30.188 8.744 30.188 9.288C30.188 9.832 30.092 10.328 29.9 10.776C29.7187 11.224 29.452 11.608 29.1 11.928C28.748 12.2373 28.316 12.4827 27.804 12.664C27.3027 12.8347 26.732 12.92 26.092 12.92H24.956V17H22.812V5.8H26.188ZM25.98 11.064C26.6733 11.064 27.1853 10.8987 27.516 10.568C27.8467 10.2373 28.012 9.832 28.012 9.352C28.012 9.11733 27.9693 8.89867 27.884 8.696C27.8093 8.48267 27.6867 8.30133 27.516 8.152C27.356 7.992 27.1427 7.86933 26.876 7.784C26.62 7.688 26.3107 7.64 25.948 7.64H24.956V11.064H25.98ZM30.4729 15.16H31.5609C31.9449 14.2213 32.2382 13.1493 32.4409 11.944C32.6435 10.728 32.7449 9.32533 32.7449 7.736V5.8H39.8169V15.16H41.2089V19.256H39.2569V17H32.4249V19.256H30.4729V15.16ZM34.7929 7.704C34.7929 9.208 34.7022 10.568 34.5209 11.784C34.3502 13 34.0622 14.1253 33.6569 15.16H37.6729V7.64H34.7929V7.704ZM42.9839 5.8H45.1279V13.112L50.9839 5.8H52.3439V17H50.1839V9.72L44.3439 17H42.9839V5.8ZM60.1523 15.288C60.6749 15.288 61.1603 15.1973 61.6083 15.016C62.0669 14.8347 62.4616 14.5787 62.7923 14.248C63.1229 13.9067 63.3789 13.496 63.5603 13.016C63.7523 12.5253 63.8483 11.9813 63.8483 11.384C63.8483 10.7973 63.7523 10.264 63.5603 9.784C63.3789 9.29333 63.1229 8.88267 62.7923 8.552C62.4723 8.21067 62.0829 7.94933 61.6243 7.768C61.1763 7.576 60.6856 7.48 60.1523 7.48C59.6189 7.48 59.1283 7.57067 58.6803 7.752C58.2323 7.93333 57.8429 8.19467 57.5123 8.536C57.1816 8.87733 56.9256 9.288 56.7443 9.768C56.5629 10.248 56.4723 10.7867 56.4723 11.384C56.4723 11.9813 56.5629 12.52 56.7443 13C56.9256 13.48 57.1763 13.8907 57.4963 14.232C57.8269 14.5733 58.2163 14.8347 58.6643 15.016C59.1229 15.1973 59.6189 15.288 60.1523 15.288ZM60.1523 17.144C59.2563 17.144 58.4456 17.0053 57.7203 16.728C56.9949 16.44 56.3763 16.04 55.8643 15.528C55.3523 15.016 54.9576 14.408 54.6803 13.704C54.4029 13 54.2643 12.2267 54.2643 11.384C54.2643 10.5733 54.4029 9.82133 54.6803 9.128C54.9576 8.424 55.3523 7.816 55.8643 7.304C56.3763 6.78133 56.9949 6.376 57.7203 6.088C58.4456 5.78933 59.2563 5.64 60.1523 5.64C61.0269 5.64 61.8269 5.784 62.5523 6.072C63.2776 6.34933 63.9016 6.744 64.4243 7.256C64.9469 7.768 65.3469 8.376 65.6243 9.08C65.9123 9.784 66.0563 10.5573 66.0563 11.4C66.0563 12.2107 65.9176 12.968 65.6403 13.672C65.3629 14.3653 64.9629 14.9733 64.4403 15.496C63.9283 16.008 63.3096 16.4133 62.5843 16.712C61.8589 17 61.0483 17.144 60.1523 17.144Z" fill="white"/>
<path d="M72.1401 5.8H80.9561V17H78.8121V7.64H74.2841V17H72.1401V5.8ZM86.938 5.8C87.546 5.8 88.0953 5.88 88.586 6.04C89.0873 6.2 89.5087 6.43467 89.85 6.744C90.202 7.04267 90.4687 7.40533 90.65 7.832C90.842 8.25867 90.938 8.744 90.938 9.288C90.938 9.832 90.842 10.328 90.65 10.776C90.4687 11.224 90.202 11.608 89.85 11.928C89.498 12.2373 89.066 12.4827 88.554 12.664C88.0527 12.8347 87.482 12.92 86.842 12.92H85.706V17H83.562V5.8H86.938ZM86.73 11.064C87.4233 11.064 87.9353 10.8987 88.266 10.568C88.5967 10.2373 88.762 9.832 88.762 9.352C88.762 9.11733 88.7193 8.89867 88.634 8.696C88.5593 8.48267 88.4367 8.30133 88.266 8.152C88.106 7.992 87.8927 7.86933 87.626 7.784C87.37 7.688 87.0607 7.64 86.698 7.64H85.706V11.064H86.73ZM97.9335 15.288C98.4562 15.288 98.9415 15.1973 99.3895 15.016C99.8482 14.8347 100.243 14.5787 100.574 14.248C100.904 13.9067 101.16 13.496 101.342 13.016C101.534 12.5253 101.63 11.9813 101.63 11.384C101.63 10.7973 101.534 10.264 101.342 9.784C101.16 9.29333 100.904 8.88267 100.574 8.552C100.254 8.21067 99.8642 7.94933 99.4055 7.768C98.9575 7.576 98.4668 7.48 97.9335 7.48C97.4002 7.48 96.9095 7.57067 96.4615 7.752C96.0135 7.93333 95.6242 8.19467 95.2935 8.536C94.9628 8.87733 94.7068 9.288 94.5255 9.768C94.3442 10.248 94.2535 10.7867 94.2535 11.384C94.2535 11.9813 94.3442 12.52 94.5255 13C94.7068 13.48 94.9575 13.8907 95.2775 14.232C95.6082 14.5733 95.9975 14.8347 96.4455 15.016C96.9042 15.1973 97.4002 15.288 97.9335 15.288ZM97.9335 17.144C97.0375 17.144 96.2268 17.0053 95.5015 16.728C94.7762 16.44 94.1575 16.04 93.6455 15.528C93.1335 15.016 92.7388 14.408 92.4615 13.704C92.1842 13 92.0455 12.2267 92.0455 11.384C92.0455 10.5733 92.1842 9.82133 92.4615 9.128C92.7388 8.424 93.1335 7.816 93.6455 7.304C94.1575 6.78133 94.7762 6.376 95.5015 6.088C96.2268 5.78933 97.0375 5.64 97.9335 5.64C98.8082 5.64 99.6082 5.784 100.334 6.072C101.059 6.34933 101.683 6.744 102.206 7.256C102.728 7.768 103.128 8.376 103.406 9.08C103.694 9.784 103.838 10.5573 103.838 11.4C103.838 12.2107 103.699 12.968 103.422 13.672C103.144 14.3653 102.744 14.9733 102.222 15.496C101.71 16.008 101.091 16.4133 100.366 16.712C99.6402 17 98.8295 17.144 97.9335 17.144Z" fill="#D91010"/>
</svg>
