<svg width="25.000000" height="25.000000" viewBox="0 0 25 25" fill="none" xmlns="http://www.w3.org/2000/svg" xmlns:xlink="http://www.w3.org/1999/xlink">
	<desc>
			Created with Pixso.
	</desc>
	<defs/>
	<path id="Vector" d="M12.5 25C19.4 25 25 19.4 25 12.5C25 5.59 19.4 0 12.5 0C5.59 0 0 5.59 0 12.5C0 19.4 5.59 25 12.5 25ZM12.95 12.3L18.54 8.42C18.35 8.16 18.05 8 17.71 8L7.28 8C6.95 8 6.66 8.15 6.47 8.39L11.89 12.29C12.21 12.52 12.63 12.52 12.95 12.3ZM18.75 15.91L18.75 9.4L13.36 13.14C12.79 13.53 12.04 13.53 11.47 13.12L6.25 9.36L6.25 15.91C6.25 16.49 6.71 16.95 7.28 16.95L17.71 16.95C18.28 16.95 18.75 16.49 18.75 15.91Z" fill="#525252" fill-opacity="1.000000" fill-rule="evenodd"/>
</svg>
