<svg width="25.000000" height="25.000000" viewBox="0 0 25 25" fill="none" xmlns="http://www.w3.org/2000/svg" xmlns:xlink="http://www.w3.org/1999/xlink">
	<desc>
			Created with Pixso.
	</desc>
	<defs/>
	<path id="Vector" d="M12.5 25C19.4 25 25 19.4 25 12.5C25 5.59 19.4 0 12.5 0C5.59 0 0 5.59 0 12.5C0 19.4 5.59 25 12.5 25ZM16.97 8.15C17.93 8.24 18.47 8.83 18.59 9.76C18.67 10.41 18.75 11.35 18.75 12.35C18.75 14.12 18.59 15.14 18.59 15.14C18.44 16.07 17.99 16.58 17.04 16.69C15.98 16.81 13.6 16.86 12.55 16.86C11.45 16.86 9.24 16.82 8.13 16.72C7.18 16.64 6.53 16.11 6.4 15.17C6.31 14.48 6.25 13.66 6.25 12.36C6.25 10.92 6.3 10.3 6.42 9.65C6.59 8.72 7.04 8.27 8.06 8.16C9.12 8.05 10.13 8 12.39 8C13.49 8 15.87 8.05 16.97 8.15ZM11.17 10.59L11.17 14.19L14.59 12.37L11.17 10.59Z" fill="#525252" fill-opacity="1.000000" fill-rule="evenodd"/>
</svg>
