<svg width="61" height="60" viewBox="0 0 61 60" fill="none" xmlns="http://www.w3.org/2000/svg">
<path d="M5.33334 31.525H47.8333" stroke="#505661" stroke-width="4" stroke-miterlimit="10" stroke-linecap="round" stroke-linejoin="round"/>
<path d="M47.8333 25.7V43.575C47.7583 50.7 45.8083 52.5 38.3833 52.5H14.7834C7.23342 52.5 5.33334 50.625 5.33334 43.175V25.7C5.33334 18.95 6.90834 16.775 12.8333 16.425C13.4333 16.4 14.0834 16.375 14.7834 16.375H38.3833C45.9333 16.375 47.8333 18.25 47.8333 25.7Z" stroke="#505661" stroke-width="4" stroke-linecap="round" stroke-linejoin="round"/>
<path d="M55.3333 16.825V34.3C55.3333 41.05 53.7583 43.225 47.8333 43.575V25.7C47.8333 18.25 45.9333 16.375 38.3833 16.375H14.7834C14.0834 16.375 13.4333 16.4 12.8333 16.425C12.9083 9.3 14.8584 7.5 22.2834 7.5H45.8833C53.4333 7.5 55.3333 9.375 55.3333 16.825Z" stroke="#505661" stroke-width="4" stroke-linecap="round" stroke-linejoin="round"/>
<path d="M13.4583 44.525H17.7583" stroke="#505661" stroke-width="4" stroke-miterlimit="10" stroke-linecap="round" stroke-linejoin="round"/>
<path d="M23.1087 44.525H31.7087" stroke="#505661" stroke-width="4" stroke-miterlimit="10" stroke-linecap="round" stroke-linejoin="round"/>
</svg>
