<svg width="270" height="34" viewBox="0 0 270 34" fill="none" xmlns="http://www.w3.org/2000/svg">
<path d="M95.5237 15.5468C95.5237 23.409 88.5622 29.9435 79.768 29.9435C70.9737 29.9435 64.0123 23.409 64.0123 15.5468C64.0123 7.68447 70.9737 1.15 79.768 1.15C88.5622 1.15 95.5237 7.68447 95.5237 15.5468Z" stroke="#323843" stroke-width="2.3"/>
<path d="M80.3673 15.5465C80.3673 15.7108 80.1918 16.0048 79.7684 16.0048C79.345 16.0048 79.1695 15.7108 79.1695 15.5465C79.1695 15.3822 79.345 15.0882 79.7684 15.0882C80.1918 15.0882 80.3673 15.3822 80.3673 15.5465Z" fill="#323843" stroke="#323843" stroke-width="2.3"/>
<path fill-rule="evenodd" clip-rule="evenodd" d="M81.8448 18.3875C80.6125 18.6806 79.3353 18.5718 78.2348 17.9875C77.1364 17.4044 76.3961 16.4441 76.0551 15.3189L71.3176 29.0091L81.8448 18.3875Z" fill="#323843"/>
<path fill-rule="evenodd" clip-rule="evenodd" d="M83.4343 15.492L88.343 1.89214L77.9908 12.6007C79.1435 12.3756 80.3192 12.504 81.34 13.046C82.3612 13.5882 83.07 14.4608 83.4343 15.492Z" fill="#323843"/>
<path d="M20.7321 30.1468V24.893H2.84423V30.1468H0.0342679L0 22.2311H2.12461C4.15783 18.6585 5.80269 15.0159 7.05918 11.3032C8.31567 7.59053 8.94391 4.14638 8.94391 0.970764H20.4236V22.2311H23.542V30.1468H20.7321ZM11.3427 3.63268C10.9086 7.22861 10.2461 10.3575 9.35513 13.0194C8.48701 15.658 7.08203 18.7286 5.14018 22.2311H17.6137V3.63268H11.3427Z" fill="#323843"/>
<path d="M28.8854 17.1174C28.9311 18.5418 29.308 19.826 30.0162 20.9702C30.7473 22.091 32.0723 22.6514 33.9913 22.6514C34.9051 22.6514 35.7504 22.5113 36.5271 22.2311C37.3267 21.9509 38.2862 21.5072 39.4056 20.9001L40.6735 22.9666C39.7826 23.6671 38.7317 24.2275 37.5209 24.6478C36.3101 25.0681 35.0879 25.2783 33.8542 25.2783C32.2551 25.2783 30.8615 24.9047 29.6736 24.1575C28.5085 23.4103 27.6175 22.3829 27.0007 21.0753C26.3838 19.7443 26.0754 18.2382 26.0754 16.557C26.0754 14.8524 26.3838 13.2646 27.0007 11.7936C27.6175 10.2992 28.5085 9.09662 29.6736 8.18596C30.8615 7.27531 32.2665 6.81998 33.8885 6.81998C35.2135 6.81998 36.4243 7.14688 37.5209 7.80069C38.6175 8.45449 39.4742 9.35347 40.091 10.4976C40.7307 11.6418 41.0505 12.9144 41.0505 14.3154C41.0505 14.7123 41.0391 15.0626 41.0162 15.3661C40.9934 15.6463 40.9705 15.8915 40.9477 16.1017L40.8449 17.1174H28.8854ZM38.4119 14.4905V14.2103C38.4119 13.2763 38.2063 12.4357 37.795 11.6885C37.4067 10.9413 36.8584 10.3575 36.1502 9.93723C35.4648 9.51692 34.6995 9.30677 33.8542 9.30677C32.6663 9.30677 31.6383 9.75042 30.7701 10.6377C29.902 11.525 29.3309 12.8093 29.0567 14.4905H38.4119Z" fill="#323843"/>
<path d="M49.7042 25.2433C48.4249 25.2433 47.1912 25.0448 46.0033 24.6478C44.8382 24.2275 43.9129 23.7021 43.2276 23.0717L44.9752 21.1453C45.5464 21.589 46.2546 21.9392 47.0998 22.1961C47.968 22.4296 48.8132 22.5463 49.6357 22.5463C50.9835 22.5463 52.1715 22.2311 53.1995 21.6006C54.2276 20.9702 54.7416 20.0945 54.7416 18.9737C54.7416 18.0864 54.4217 17.4093 53.7821 16.9423C53.1424 16.4519 52.2857 16.2067 51.212 16.2067H47.6139V13.6849H51.212C51.943 13.6849 52.5484 13.5915 53.0282 13.4047C53.5308 13.2179 53.7821 12.7743 53.7821 12.0738C53.7821 11.2332 53.3594 10.5794 52.5142 10.1124C51.6917 9.64535 50.5837 9.41185 49.1902 9.41185C47.7052 9.41185 46.3345 9.64535 45.078 10.1124L44.3241 7.59053C45.078 7.31033 45.9119 7.10018 46.8257 6.96008C47.7624 6.81998 48.6533 6.74993 49.4986 6.74993C51.4861 6.74993 53.1538 7.17023 54.5017 8.01084C55.8724 8.85144 56.5578 10.124 56.5578 11.8286C56.5578 12.5991 56.375 13.2646 56.0095 13.825C55.644 14.3621 55.2327 14.7123 54.7758 14.8758C55.5297 15.1326 56.1808 15.6814 56.7291 16.522C57.2774 17.3392 57.5515 18.2149 57.5515 19.1489C57.5515 20.3864 57.186 21.4722 56.455 22.4062C55.7239 23.3169 54.753 24.0174 53.5422 24.5077C52.3542 24.9981 51.0749 25.2433 49.7042 25.2433Z" fill="#323843"/>
<path d="M110.141 6.89003C111.74 6.89003 113.1 7.29866 114.219 8.11591C115.361 8.93317 116.218 10.0306 116.789 11.4083C117.383 12.7626 117.68 14.257 117.68 15.8915C117.68 17.6895 117.337 19.3006 116.652 20.725C115.99 22.126 115.007 23.2351 113.705 24.0524C112.426 24.8463 110.918 25.2433 109.182 25.2433C108.496 25.2433 107.331 25.1382 105.686 24.928V33.9996H102.979V12.6342C102.979 10.8129 102.499 9.4819 101.54 8.64129L103.425 6.855C103.767 7.06516 104.11 7.38038 104.453 7.80069C104.795 8.19764 105.081 8.66464 105.309 9.2017C105.858 8.50119 106.577 7.94079 107.468 7.52048C108.359 7.10018 109.25 6.89003 110.141 6.89003ZM109.01 22.6514C110.929 22.6514 112.38 22.056 113.362 20.8651C114.368 19.6742 114.87 18.0864 114.87 16.1017C114.87 14.2337 114.448 12.6692 113.602 11.4083C112.757 10.124 111.626 9.4819 110.21 9.4819C109.09 9.4819 108.074 9.8555 107.16 10.6027C106.269 11.3266 105.778 12.2606 105.686 13.4047V22.4412C107.057 22.5813 108.165 22.6514 109.01 22.6514Z" fill="#323843"/>
<path d="M137.306 7.38038V24.928H134.496V11.8986L124.866 24.893H121.919V12.5991C121.919 10.7778 121.44 9.44687 120.48 8.60627L122.365 6.81998C122.936 7.14688 123.461 7.71896 123.941 8.53622C124.444 9.35347 124.707 10.2291 124.729 11.1631V20.3747L134.324 7.38038H137.306Z" fill="#323843"/>
<path d="M144.171 17.1174C144.217 18.5418 144.594 19.826 145.302 20.9702C146.033 22.091 147.358 22.6514 149.277 22.6514C150.191 22.6514 151.036 22.5113 151.813 22.2311C152.613 21.9509 153.572 21.5072 154.692 20.9001L155.959 22.9666C155.069 23.6671 154.018 24.2275 152.807 24.6478C151.596 25.0681 150.374 25.2783 149.14 25.2783C147.541 25.2783 146.147 24.9047 144.959 24.1575C143.794 23.4103 142.903 22.3829 142.287 21.0753C141.67 19.7443 141.361 18.2382 141.361 16.557C141.361 14.8524 141.67 13.2646 142.287 11.7936C142.903 10.2992 143.794 9.09662 144.959 8.18596C146.147 7.27531 147.552 6.81998 149.174 6.81998C150.499 6.81998 151.71 7.14688 152.807 7.80069C153.903 8.45449 154.76 9.35347 155.377 10.4976C156.017 11.6418 156.336 12.9144 156.336 14.3154C156.336 14.7123 156.325 15.0626 156.302 15.3661C156.279 15.6463 156.256 15.8915 156.234 16.1017L156.131 17.1174H144.171ZM153.698 14.4905V14.2103C153.698 13.2763 153.492 12.4357 153.081 11.6885C152.693 10.9413 152.144 10.3575 151.436 9.93723C150.751 9.51692 149.985 9.30677 149.14 9.30677C147.952 9.30677 146.924 9.75042 146.056 10.6377C145.188 11.525 144.617 12.8093 144.343 14.4905H153.698Z" fill="#323843"/>
<path d="M174.928 24.893H172.118V17.6078H163.38V24.893H160.57V11.9687C160.57 10.6377 160.147 9.54027 159.302 8.67632L161.221 6.74993C162.66 8.22099 163.38 9.9489 163.38 11.9337V14.9458H172.118V7.38038H174.928V24.893Z" fill="#323843"/>
<path d="M185.041 10.0073H178.188V7.34536H194.705V10.0073H187.851V24.893H185.041V10.0073Z" fill="#323843"/>
<path d="M209.631 25.3483C208.763 24.7412 208.146 23.994 207.781 23.1067C207.255 23.7839 206.547 24.3092 205.656 24.6828C204.788 25.0565 203.805 25.2433 202.709 25.2433C200.836 25.2433 199.328 24.7179 198.186 23.6671C197.066 22.6164 196.506 21.227 196.506 19.4991C196.506 17.6778 197.18 16.2651 198.528 15.2611C199.876 14.2337 201.761 13.72 204.182 13.72H207.164V12.9844C207.164 11.6535 206.924 10.7195 206.444 10.1824C205.987 9.622 205.199 9.34179 204.08 9.34179C203.12 9.34179 202.172 9.51692 201.235 9.86718C200.322 10.2174 199.476 10.7195 198.7 11.3733L197.329 9.23672C198.151 8.46617 199.168 7.85906 200.379 7.41541C201.589 6.97176 202.835 6.74993 204.114 6.74993C206.01 6.74993 207.461 7.25196 208.466 8.25601C209.471 9.26007 209.974 10.7078 209.974 12.5991V19.5692C209.974 21.4138 210.465 22.7565 211.447 23.5971L209.631 25.3483ZM202.743 22.6514C204.068 22.6514 205.13 22.2661 205.93 21.4956C206.752 20.7016 207.164 19.6859 207.164 18.4484V16.3118H204.182C202.469 16.3118 201.224 16.5687 200.447 17.0824C199.693 17.5727 199.316 18.3666 199.316 19.4641C199.316 20.4681 199.613 21.2504 200.207 21.8108C200.824 22.3712 201.669 22.6514 202.743 22.6514Z" fill="#323843"/>
<path d="M232.656 29.7965H229.846V24.893H215.213V7.38038H218.023V22.2311H227.173V7.38038H229.983V22.2311H232.622L232.656 29.7965Z" fill="#323843"/>
<path d="M251.655 7.38038V24.928H248.845V11.8986L239.215 24.893H236.268V12.5991C236.268 10.7778 235.789 9.44687 234.829 8.60627L236.714 6.81998C237.285 7.14688 237.81 7.71896 238.29 8.53622C238.793 9.35347 239.055 10.2291 239.078 11.1631V20.3747L248.673 7.38038H251.655Z" fill="#323843"/>
<path d="M257.287 25.3483C256.533 25.3483 255.847 25.1615 255.231 24.7879L256.567 22.3362C256.636 22.3829 256.738 22.4179 256.875 22.4412C257.012 22.4646 257.15 22.4763 257.287 22.4763C257.424 22.4763 257.561 22.4179 257.698 22.3011C257.835 22.1844 257.961 22.0676 258.075 21.9509C258.189 21.8341 258.28 21.7407 258.349 21.6707C258.486 21.5306 258.806 21.157 259.308 20.5499L260.439 19.1839C260.805 18.7869 261.159 18.46 261.502 18.2032C260.748 18.1098 260.177 17.993 259.788 17.8529C258.669 17.456 257.789 16.7905 257.15 15.8565C256.51 14.9225 256.19 13.9068 256.19 12.8093C256.19 11.922 256.396 11.0931 256.807 10.3225C257.241 9.5286 257.881 8.87479 258.726 8.36109C259.48 7.89409 260.222 7.61388 260.953 7.52048C261.707 7.42708 263.044 7.38038 264.963 7.38038H270V24.893H267.19V18.0981C266.208 18.0981 265.1 18.6468 263.866 19.7443C263.638 19.9544 263.341 20.2813 262.975 20.725C262.61 21.1453 262.37 21.4255 262.255 21.5656C261.364 22.6164 260.656 23.4103 260.131 23.9473C259.605 24.4844 259.091 24.858 258.589 25.0681C258.155 25.2549 257.721 25.3483 257.287 25.3483ZM260.645 15.121C260.919 15.2377 261.193 15.3078 261.467 15.3311C261.741 15.3545 262.267 15.3661 263.044 15.3661H267.19V10.2875H262.187C261.296 10.2875 260.542 10.521 259.925 10.988C259.308 11.4783 259 12.0971 259 12.8443C259 13.3113 259.137 13.755 259.411 14.1753C259.708 14.5956 260.119 14.9108 260.645 15.121Z" fill="#323843"/>
</svg>
