<svg width="24" height="24" viewBox="0 0 24 24" fill="none" xmlns="http://www.w3.org/2000/svg">
<path d="M11.7393 14.8056L12 14.9649L12.2607 14.8056L13.8575 13.8298L23.0337 19.4544C22.5798 20.0881 21.8376 20.5 21 20.5H3C2.16237 20.5 1.42025 20.0881 0.966269 19.4544L10.1425 13.8298L11.7393 14.8056ZM0.663882 5.10744C1.02322 4.1674 1.93415 3.5 3 3.5H21C22.0659 3.5 22.9768 4.1674 23.3361 5.10744L12 12.0351L0.663882 5.10744ZM0.5 7.93715L7.74698 12.3659L0.5 16.808V7.93715ZM23.5 7.93715V16.808L16.253 12.3659L23.5 7.93715Z" fill="#323843" stroke="#323843"/>
</svg>
