<svg width="40" height="41" viewBox="0 0 40 41" fill="none" xmlns="http://www.w3.org/2000/svg">
<path d="M0.5 20.5C0.5 9.73045 9.23045 1 20 1C30.7696 1 39.5 9.73045 39.5 20.5C39.5 31.2696 30.7696 40 20 40C9.23045 40 0.5 31.2696 0.5 20.5Z" fill="#323843" stroke="#323843"/>
<path d="M21.9286 22.4286C20.3571 24.05 20.2429 26.0714 20.1071 30.5C24.2357 30.5 27.0857 30.4857 28.5571 29.0571C29.9857 27.5857 30 24.6 30 20.6071C25.5714 20.75 23.55 20.8571 21.9286 22.4286ZM10 20.6071C10 24.6 10.0143 27.5857 11.4429 29.0571C12.9143 30.4857 15.7643 30.5 19.8929 30.5C19.75 26.0714 19.6429 24.05 18.0714 22.4286C16.45 20.8571 14.4286 20.7429 10 20.6071ZM19.8929 10.5C15.7714 10.5 12.9143 10.5143 11.4429 11.9429C10.0143 13.4143 10 16.4 10 20.3929C14.4286 20.25 16.45 20.1429 18.0714 18.5714C19.6429 16.95 19.7571 14.9286 19.8929 10.5ZM21.9286 18.5714C20.3571 16.95 20.2429 14.9286 20.1071 10.5C24.2357 10.5 27.0857 10.5143 28.5571 11.9429C29.9857 13.4143 30 16.4 30 20.3929C25.5714 20.25 23.55 20.1429 21.9286 18.5714Z" fill="white"/>
<mask id="path-3-inside-1_1532_6339" fill="white">
<path d="M30 20.6071V20.3929C25.5714 20.25 23.55 20.1429 21.9286 18.5714C20.3571 16.95 20.2429 14.9286 20.1071 10.5H19.8929C19.75 14.9286 19.6429 16.95 18.0714 18.5714C16.45 20.1429 14.4286 20.2571 10 20.3929V20.6071C14.4286 20.75 16.45 20.8571 18.0714 22.4286C19.6429 24.05 19.7571 26.0714 19.8929 30.5H20.1071C20.25 26.0714 20.3571 24.05 21.9286 22.4286C23.55 20.8571 25.5714 20.7429 30 20.6071Z"/>
</mask>
<path d="M30 20.6071V20.3929C25.5714 20.25 23.55 20.1429 21.9286 18.5714C20.3571 16.95 20.2429 14.9286 20.1071 10.5H19.8929C19.75 14.9286 19.6429 16.95 18.0714 18.5714C16.45 20.1429 14.4286 20.2571 10 20.3929V20.6071C14.4286 20.75 16.45 20.8571 18.0714 22.4286C19.6429 24.05 19.7571 26.0714 19.8929 30.5H20.1071C20.25 26.0714 20.3571 24.05 21.9286 22.4286C23.55 20.8571 25.5714 20.7429 30 20.6071Z" fill="#323843"/>
<path d="M30 20.3929H31V19.4246L30.0322 19.3934L30 20.3929ZM21.9286 18.5714L21.2105 19.2674L21.2214 19.2786L21.2326 19.2895L21.9286 18.5714ZM20.1071 10.5L21.1067 10.4694L21.077 9.5H20.1071V10.5ZM19.8929 10.5V9.5H18.9246L18.8934 10.4678L19.8929 10.5ZM18.0714 18.5714L18.7674 19.2895L18.7786 19.2786L18.7895 19.2674L18.0714 18.5714ZM10 20.3929L9.96937 19.3933L9 19.423V20.3929H10ZM10 20.6071H9V21.5754L9.96776 21.6066L10 20.6071ZM18.0714 22.4286L18.7895 21.7326L18.7786 21.7214L18.7674 21.7105L18.0714 22.4286ZM19.8929 30.5L18.8933 30.5306L18.923 31.5H19.8929V30.5ZM20.1071 30.5V31.5H21.0754L21.1066 30.5322L20.1071 30.5ZM21.9286 22.4286L21.2326 21.7105L21.2214 21.7214L21.2105 21.7326L21.9286 22.4286ZM31 20.6071V20.3929H29V20.6071H31ZM30.0322 19.3934C27.7921 19.3211 26.2673 19.2588 25.0993 19.0356C23.9826 18.8223 23.2646 18.4737 22.6245 17.8533L21.2326 19.2895C22.214 20.2406 23.3174 20.7313 24.7239 21.0001C26.0791 21.259 27.7794 21.3217 29.9678 21.3923L30.0322 19.3934ZM22.6467 17.8755C22.0256 17.2347 21.6756 16.5161 21.4616 15.4C21.2377 14.233 21.1753 12.7084 21.1067 10.4694L19.1076 10.5306C19.1747 12.7202 19.2373 14.4206 19.4974 15.7768C19.7672 17.1839 20.2601 18.2867 21.2105 19.2674L22.6467 17.8755ZM20.1071 9.5H19.8929V11.5H20.1071V9.5ZM18.8934 10.4678C18.8211 12.7079 18.7588 14.2327 18.5356 15.4007C18.3223 16.5174 17.9737 17.2354 17.3533 17.8755L18.7895 19.2674C19.7406 18.286 20.2313 17.1826 20.5001 15.7761C20.759 14.4209 20.8217 12.7206 20.8923 10.5322L18.8934 10.4678ZM17.3755 17.8533C16.7347 18.4744 16.0161 18.8244 14.9 19.0384C13.733 19.2623 12.2084 19.3247 9.96937 19.3933L10.0306 21.3924C12.2202 21.3253 13.9206 21.2627 15.2768 21.0026C16.6839 20.7328 17.7867 20.2399 18.7674 19.2895L17.3755 17.8533ZM9 20.3929V20.6071H11V20.3929H9ZM9.96776 21.6066C12.2079 21.6789 13.7327 21.7412 14.9007 21.9644C16.0174 22.1778 16.7354 22.5263 17.3755 23.1467L18.7674 21.7105C17.786 20.7594 16.6826 20.2687 15.2761 19.9999C13.9209 19.741 12.2206 19.6783 10.0322 19.6077L9.96776 21.6066ZM17.3533 23.1245C17.9744 23.7653 18.3244 24.4839 18.5384 25.6C18.7623 26.767 18.8247 28.2916 18.8933 30.5306L20.8924 30.4694C20.8253 28.2798 20.7627 26.5794 20.5026 25.2233C20.2328 23.8161 19.7399 22.7133 18.7895 21.7326L17.3533 23.1245ZM19.8929 31.5H20.1071V29.5H19.8929V31.5ZM21.1066 30.5322C21.1789 28.2921 21.2412 26.7673 21.4644 25.5993C21.6778 24.4826 22.0263 23.7646 22.6467 23.1245L21.2105 21.7326C20.2594 22.714 19.7687 23.8174 19.4999 25.2239C19.241 26.5791 19.1783 28.2794 19.1077 30.4678L21.1066 30.5322ZM22.6245 23.1467C23.2653 22.5256 23.9839 22.1756 25.1 21.9616C26.267 21.7377 27.7916 21.6753 30.0306 21.6067L29.9694 19.6076C27.7798 19.6747 26.0794 19.7373 24.7233 19.9974C23.3161 20.2672 22.2133 20.7601 21.2326 21.7105L22.6245 23.1467Z" fill="#323843" mask="url(#path-3-inside-1_1532_6339)"/>
</svg>
