<svg width="155.000000" height="152.105255" viewBox="0 0 155 152.105" fill="none" xmlns="http://www.w3.org/2000/svg" xmlns:xlink="http://www.w3.org/1999/xlink">
	<desc>
			Created with Pixso.
	</desc>
	<defs/>
	<path id="Vector" d="M78.81 73.43L75.85 72.29L74.53 75.3L71.81 81.57L63.53 100.7L58.65 111.96L37.83 111.96L43.69 98.39L50.99 81.53L57 67.67L57.99 65.32L55.54 64.37L59.09 62.83L71.7 57.26L77.06 69.47L78.81 73.43Z" fill="#FFFFFF" fill-opacity="1.000000" fill-rule="nonzero"/>
	<path id="Vector" d="M106.57 59.2L104.77 63.23L99.45 75.33L86.73 69.76L83.32 68.26L85.67 67.3L84.72 65.07L82.55 60.12L71.81 35.26L92.67 35.26L102.2 57.26L103.52 60.38L106.57 59.2Z" fill="#FFFFFF" fill-opacity="1.000000" fill-rule="nonzero"/>
	<path id="Vector" d="M125.89 111.96L105.03 111.96L100.19 100.78L89.41 100.74L87.39 100.74L87.39 102.76L85.41 100.74L74.93 90.29L83.62 81.57L87.39 77.79L87.39 81.6L91.21 81.6L94.62 81.6L112.76 81.64L121.05 100.81L125.89 111.96Z" fill="#FFFFFF" fill-opacity="1.000000" fill-rule="nonzero"/>
	<path id="Vector" d="M20.52 113.06L17.15 112.84C17.52 111.3 17.41 109.35 16.82 107.74C16.2 106.09 15.54 105.65 14.84 105.91C12.64 106.71 17.19 114.05 12.02 115.99C9.53 116.91 6.74 115.62 5.2 111.48C4.54 109.68 4.25 107.63 4.54 105.98L7.91 106.13C7.69 107.74 7.8 109.17 8.28 110.38C8.9 112.03 9.67 112.43 10.37 112.18C12.5 111.37 7.99 104.08 13.12 102.17C15.54 101.25 18.36 102.54 19.9 106.68C20.74 108.95 20.96 111.48 20.56 113.13L20.52 113.06Z" fill="#FFFFFF" fill-opacity="1.000000" fill-rule="nonzero"/>
	<path id="Vector" d="M15.21 86.15L7.4 87.1L14.22 90.14L14.44 92.01L8.72 96.52L16.35 95.61L16.79 99.46L2.01 101.22L1.61 97.77L9.53 91.57L0.4 87.5L0 84.06L14.77 82.26L15.21 86.11L15.21 86.15Z" fill="#FFFFFF" fill-opacity="1.000000" fill-rule="nonzero"/>
	<path id="Vector" d="M13.52 69.91L12.64 76.14L15.36 77.68L14.77 81.93L0.95 73.39L1.53 69.28L17.19 64.81L16.57 69.14L13.56 69.91L13.52 69.91ZM10.3 70.71L5.31 71.96L9.75 74.53L10.26 70.75L10.3 70.71Z" fill="#FFFFFF" fill-opacity="1.000000" fill-rule="nonzero"/>
	<path id="Vector" d="M16.16 57L15.36 59.13L19.06 60.52L17.56 64.45L3.66 59.13L6.08 52.79C7.55 49.01 10.41 47.36 13.6 48.57C15.65 49.34 16.79 50.92 16.93 52.97L22.43 51.65L20.82 55.87L16.16 56.97L16.16 57ZM9.05 54.22L8.21 56.42L12.28 57.96L13.12 55.76C13.74 54.14 13.3 53.04 12.02 52.53C10.74 52.05 9.67 52.53 9.05 54.18L9.05 54.22Z" fill="#FFFFFF" fill-opacity="1.000000" fill-rule="nonzero"/>
	<path id="Vector" d="M15.06 41.9L12.61 45.75L9.78 43.95L16.93 32.73L19.76 34.53L17.3 38.38L27.01 44.58L24.74 48.13L15.03 41.94L15.06 41.9Z" fill="#FFFFFF" fill-opacity="1.000000" fill-rule="nonzero"/>
	<path id="Vector" d="M37.46 19.87C39.62 22.32 39.11 25.44 36.18 28L33.65 30.2L36.47 33.43L34.38 35.26L24.59 24.05L29.21 20.01C32.15 17.45 35.3 17.37 37.46 19.83L37.46 19.87ZM35.37 21.7C34.13 20.31 32.48 20.31 30.68 21.88L28.26 24.01L32.15 28.44L34.57 26.32C36.4 24.74 36.62 23.09 35.41 21.66L35.37 21.7Z" fill="#FFFFFF" fill-opacity="1.000000" fill-rule="nonzero"/>
	<path id="Vector" d="M54 21.33L49.23 18.99C49.08 19.1 48.9 19.21 48.75 19.28L45.82 20.89L47.91 24.71L45.49 26.02L38.31 13.01L43.66 10.04C47.07 8.17 50.18 8.72 51.76 11.62C52.86 13.6 52.64 15.58 51.25 17.26L56.6 19.9L54 21.33ZM44.68 12.13L41.86 13.71L44.72 18.91L47.54 17.34C49.67 16.16 50.22 14.59 49.34 12.97C48.42 11.32 46.81 10.99 44.68 12.17L44.68 12.13Z" fill="#FFFFFF" fill-opacity="1.000000" fill-rule="nonzero"/>
	<path id="Vector" d="M68.62 13.78L69.28 15.98L58.61 19.21L54.29 4.98L64.66 1.83L65.32 4.03L57.59 6.37L58.72 10.08L65.58 7.99L66.24 10.15L59.38 12.24L60.59 16.16L68.62 13.71L68.62 13.78Z" fill="#FFFFFF" fill-opacity="1.000000" fill-rule="nonzero"/>
	<path id="Vector" d="M70.27 14.22L71.01 11.98C72.29 12.83 74.23 13.3 76.07 13.12C78.37 12.9 79.25 11.95 79.14 10.85C78.81 7.66 70.24 10.66 69.69 5.17C69.43 2.78 71.12 0.55 75.19 0.14C76.94 -0.04 78.85 0.22 80.24 0.95L79.58 3.19C78.15 2.53 76.69 2.31 75.37 2.45C73.1 2.67 72.25 3.66 72.36 4.8C72.69 7.95 81.23 4.98 81.82 10.41C82.08 12.79 80.35 14.99 76.29 15.43C73.98 15.65 71.59 15.17 70.27 14.26L70.27 14.22Z" fill="#FFFFFF" fill-opacity="1.000000" fill-rule="nonzero"/>
	<path id="Vector" d="M83.21 12.97L84.35 10.92C85.45 11.98 87.28 12.79 89.12 12.94C91.43 13.12 92.45 12.39 92.56 11.29C92.82 8.1 83.84 9.45 84.31 3.96C84.5 1.57 86.59 -0.3 90.66 0.03C92.45 0.18 94.25 0.8 95.5 1.76L94.43 3.81C93.15 2.93 91.72 2.42 90.44 2.31C88.16 2.12 87.14 2.93 87.06 4.07C86.81 7.22 95.75 5.9 95.31 11.32C95.13 13.71 93.04 15.58 88.97 15.25C86.66 15.06 84.42 14.15 83.29 12.97L83.21 12.97Z" fill="#FFFFFF" fill-opacity="1.000000" fill-rule="nonzero"/>
	<path id="Vector" d="M109.5 11.84C110.42 10.04 112.51 9.42 114.38 10.37C116.21 11.32 116.91 13.38 115.99 15.17C115.07 16.97 112.98 17.59 111.15 16.64C109.28 15.69 108.58 13.63 109.54 11.84L109.5 11.84ZM115.33 14.84C116.1 13.38 115.55 11.73 114.08 10.96C112.58 10.19 110.93 10.7 110.16 12.17C109.39 13.63 109.94 15.28 111.44 16.05C112.91 16.82 114.6 16.31 115.33 14.84Z" fill="#FFFFFF" fill-opacity="1.000000" fill-rule="nonzero"/>
	<path id="Vector" d="M119.36 13.23L123.58 16.05L123.25 16.57L119.62 14.15L118.37 16.05L120.28 17.3C121.63 18.22 122 19.24 121.27 20.34C120.53 21.44 119.33 21.55 117.9 20.6L115.55 19.02L119.4 13.23L119.36 13.23ZM118.19 20.09C119.25 20.78 120.09 20.75 120.61 19.94C121.16 19.13 120.86 18.4 119.76 17.67L118.01 16.49L116.43 18.88L118.19 20.05L118.19 20.09Z" fill="#FFFFFF" fill-opacity="1.000000" fill-rule="nonzero"/>
	<path id="Vector" d="M122.92 19.79C124.2 18.25 126.36 18.07 127.98 19.43C129.59 20.75 129.81 22.91 128.53 24.45C127.21 26.03 125.08 26.17 123.47 24.82C121.85 23.46 121.63 21.33 122.92 19.76L122.92 19.79ZM127.94 24.01C129 22.73 128.82 21 127.54 19.94C126.25 18.88 124.49 18.99 123.47 20.27C122.4 21.55 122.59 23.28 123.87 24.34C125.15 25.4 126.88 25.26 127.94 24.01Z" fill="#FFFFFF" fill-opacity="1.000000" fill-rule="nonzero"/>
	<path id="Vector" d="M134.28 28.88C133.22 29.91 131.83 29.73 130.62 28.48L129.33 27.13L127.76 28.63L127.24 28.11L132.27 23.31L134.06 25.18C135.27 26.47 135.38 27.86 134.28 28.88ZM133.77 28.37C134.58 27.6 134.54 26.65 133.59 25.62L132.3 24.3L129.77 26.69L131.06 28C132.01 28.99 132.96 29.1 133.77 28.33L133.77 28.37Z" fill="#FFFFFF" fill-opacity="1.000000" fill-rule="nonzero"/>
	<path id="Vector" d="M140.51 32.73L133.99 33.94C133.04 34.13 132.34 33.87 131.94 33.32C131.75 33.1 131.64 32.84 131.53 32.55L132.12 32.33C132.19 32.55 132.3 32.77 132.41 32.92C132.67 33.25 133.07 33.43 133.7 33.32L134.1 33.25L136.52 27.71L137 28.33L134.83 33.17L140.04 32.15L140.51 32.73Z" fill="#FFFFFF" fill-opacity="1.000000" fill-rule="nonzero"/>
	<path id="Vector" d="M139.49 42.67L137.66 43.88L137.29 43.29L138.61 42.45L135.31 37.39L133.99 38.23L133.62 37.65L135.46 36.47L135.64 36.77C136.23 37.57 137.84 36.77 139.74 35.63L141.69 34.46L144.25 38.38L138.97 41.83L139.56 42.71L139.49 42.67ZM136.19 37.61L138.53 41.2L143.3 38.12L141.5 35.34L140.07 36.22C138.53 37.17 137.03 37.94 136.26 37.65L136.19 37.61Z" fill="#FFFFFF" fill-opacity="1.000000" fill-rule="nonzero"/>
	<path id="Vector" d="M142.31 41.9C144.11 40.98 146.16 41.72 147.11 43.59C148.03 45.46 147.41 47.51 145.57 48.43C143.74 49.34 141.72 48.61 140.81 46.74C139.85 44.87 140.51 42.82 142.35 41.9L142.31 41.9ZM145.24 47.77C146.71 47.03 147.26 45.38 146.53 43.88C145.79 42.38 144.14 41.79 142.64 42.56C141.17 43.29 140.62 44.98 141.36 46.45C142.09 47.95 143.74 48.5 145.24 47.77Z" fill="#FFFFFF" fill-opacity="1.000000" fill-rule="nonzero"/>
	<path id="Vector" d="M146.64 55.83C145.54 56.23 144.58 55.68 144 54.11L142.93 51.21L149.46 48.83L150.45 51.54C150.96 52.9 150.67 53.96 149.61 54.36C148.84 54.66 148.21 54.4 147.74 53.85C147.88 54.84 147.52 55.5 146.64 55.83ZM146.45 55.13C147.3 54.84 147.48 54.11 147.08 53.01L146.27 50.81L143.78 51.72L144.58 53.92C144.99 55.02 145.61 55.46 146.45 55.13ZM146.78 50.62L147.52 52.6C147.88 53.59 148.51 54.03 149.28 53.74C150.05 53.45 150.27 52.75 149.9 51.72L149.17 49.74L146.78 50.62Z" fill="#FFFFFF" fill-opacity="1.000000" fill-rule="nonzero"/>
	<path id="Vector" d="M148.18 61.73L147.22 57.99L145.21 57.63L145.02 56.89L152.54 58.25L152.72 58.95L146.78 63.71L146.6 62.98L148.18 61.73ZM148.69 61.33L151.88 58.8L147.85 58.1L148.65 61.33L148.69 61.33Z" fill="#FFFFFF" fill-opacity="1.000000" fill-rule="nonzero"/>
	<path id="Vector" d="M154.59 69.47L147.74 70.42L147.63 69.69L150.78 69.25L150.16 64.96L147 65.4L146.89 64.67L153.75 63.71L153.86 64.45L150.78 64.89L151.4 69.17L154.48 68.73L154.59 69.47Z" fill="#FFFFFF" fill-opacity="1.000000" fill-rule="nonzero"/>
	<path id="Vector" d="M154.85 72.18L154.85 72.91L149.13 73.06L155 77.35L155 78.01L148.07 78.19L148.07 77.46L153.78 77.31L147.92 73.02L147.92 72.36L154.85 72.18Z" fill="#FFFFFF" fill-opacity="1.000000" fill-rule="nonzero"/>
	<path id="Vector" d="M148.21 85.09L147.59 85.09C147.59 85.05 147.96 80.14 147.96 80.14L154.89 80.65L154.52 85.38L153.89 85.38C153.89 85.34 154.19 81.31 154.19 81.31L151.73 81.13L151.48 84.72L150.85 84.72C150.85 84.68 151.11 81.09 151.11 81.09L148.54 80.91L148.21 85.09Z" fill="#FFFFFF" fill-opacity="1.000000" fill-rule="nonzero"/>
	<path id="Vector" d="M146.34 95.13L144.22 94.65L144.36 93.99L145.9 94.32L147.19 88.38L145.68 88.05L145.83 87.39L147.96 87.87L147.88 88.2C147.74 89.19 149.42 89.78 151.59 90.29L153.78 90.84L152.8 95.42L146.64 94.1L146.42 95.13L146.34 95.13ZM147.59 89.23L146.71 93.41L152.25 94.58L152.94 91.32L151.29 90.91C149.53 90.47 147.92 89.96 147.59 89.19L147.59 89.23Z" fill="#FFFFFF" fill-opacity="1.000000" fill-rule="nonzero"/>
	<path id="Vector" d="M150.27 103.42L143.67 101.22L143.89 100.52L149.86 102.5L150.93 99.31L148.76 98.5C146.16 97.55 145.1 96.71 145.46 95.53C145.54 95.35 145.57 95.2 145.72 95.02L146.31 95.28C146.23 95.39 146.2 95.46 146.16 95.57C145.87 96.41 146.75 97.04 148.91 97.88L151.7 98.91L150.19 103.38L150.27 103.42Z" fill="#FFFFFF" fill-opacity="1.000000" fill-rule="nonzero"/>
	<path id="Vector" d="M147.22 110.38L140.92 107.52L141.21 106.86L143.12 107.74L143.96 105.87C144.03 105.76 144.07 105.61 144.14 105.5L142.82 103.31L143.15 102.61L144.55 104.99C145.24 104.19 146.2 104 147.22 104.48C148.65 105.14 149.02 106.49 148.32 108L147.22 110.45L147.22 110.38ZM144.51 106.13L143.67 107.96L146.93 109.43L147.74 107.67C148.29 106.49 147.99 105.54 146.93 105.07C145.9 104.59 145.02 104.96 144.51 106.13Z" fill="#FFFFFF" fill-opacity="1.000000" fill-rule="nonzero"/>
	<path id="Vector" d="M141.76 119.73L138.5 113.94C138.02 113.09 138.02 112.36 138.39 111.77C138.53 111.55 138.75 111.33 139.01 111.15L139.41 111.63C139.23 111.77 139.05 111.92 138.94 112.1C138.72 112.47 138.68 112.91 138.94 113.46L139.12 113.79L145.13 114.23L144.73 114.89L139.45 114.45L142.13 119.03L141.72 119.66L141.76 119.73Z" fill="#FFFFFF" fill-opacity="1.000000" fill-rule="nonzero"/>
	<path id="Vector" d="M137.58 124.2L139.05 122.26L134.03 118.45L134.47 117.86L139.49 121.67L140.95 119.73L141.47 120.1L138.1 124.57L137.58 124.2Z" fill="#FFFFFF" fill-opacity="1.000000" fill-rule="nonzero"/>
	<path id="Vector" d="M137.07 125.81L136.59 126.36L132.38 122.48L133.59 129.63L133.14 130.1L128.05 125.41L128.53 124.86L132.74 128.75L131.53 121.6L131.97 121.12L137.07 125.81Z" fill="#FFFFFF" fill-opacity="1.000000" fill-rule="nonzero"/>
	<path id="Vector" d="M127.13 135.49L122.59 130.25L123.14 129.77L127.28 134.54L129.81 132.34L128.34 130.54C126.58 128.38 126.07 127.13 127.02 126.29C127.17 126.18 127.28 126.07 127.5 125.96L127.9 126.51C127.79 126.58 127.72 126.62 127.65 126.69C126.99 127.28 127.39 128.27 128.86 130.07L130.73 132.38L127.17 135.46L127.13 135.49Z" fill="#FFFFFF" fill-opacity="1.000000" fill-rule="nonzero"/>
	<path id="Vector" d="M125.01 137.14L124.42 137.55L121.16 132.82L120.79 140.08L120.24 140.44L116.28 134.72L116.87 134.32L120.13 139.05L120.5 131.79L121.05 131.42L125.01 137.14Z" fill="#FFFFFF" fill-opacity="1.000000" fill-rule="nonzero"/>
	<path id="Vector" d="M111.59 139.64C110.97 138.54 111.74 137.25 113.02 136.56C113.79 136.12 114.74 135.9 115.7 136.08L115.7 136.67C114.93 136.48 114.05 136.67 113.39 137.03C112.4 137.58 111.81 138.5 112.29 139.34C112.69 140.04 113.5 140.11 114.49 139.56L115.81 138.83L116.1 139.34L114.82 140.04C113.97 140.52 113.68 141.17 114.01 141.84C114.41 142.57 115.37 142.57 116.25 142.09C116.8 141.8 117.35 141.28 117.68 140.63L118.19 141.03C117.79 141.76 117.16 142.28 116.54 142.64C115.33 143.3 113.97 143.27 113.39 142.24C113.02 141.58 113.13 140.88 113.68 140.33C112.76 140.59 111.99 140.33 111.59 139.56L111.59 139.64Z" fill="#FFFFFF" fill-opacity="1.000000" fill-rule="nonzero"/>
	<path id="Vector" d="M105.98 142.06L109.54 140.52L109.54 138.5L110.27 138.21L110.12 145.83L109.46 146.12L103.78 141.03L104.48 140.74L105.98 142.09L105.98 142.06ZM106.46 142.5L109.46 145.24L109.46 141.17C109.5 141.17 106.46 142.5 106.46 142.5Z" fill="#FFFFFF" fill-opacity="1.000000" fill-rule="nonzero"/>
	<path id="Vector" d="M96.6 143.89L95.94 141.73L96.6 141.5L97.07 143.05L102.86 141.25L104.92 147.88L104.22 148.1L102.35 142.09L98.35 143.34L100.22 149.35L99.53 149.57L97.66 143.56L96.6 143.89Z" fill="#FFFFFF" fill-opacity="1.000000" fill-rule="nonzero"/>
	<path id="Vector" d="M96.67 150.3L95.97 150.45L94.91 144.81L91.61 151.26L90.95 151.37L89.67 144.55L90.36 144.4L91.43 150.05L94.73 143.6L95.39 143.49L96.67 150.3Z" fill="#FFFFFF" fill-opacity="1.000000" fill-rule="nonzero"/>
	<path id="Vector" d="M88.24 151.73L87.5 151.73C87.5 151.77 87.1 146.05 87.1 146.05L83.07 152.1L82.41 152.1C82.41 152.14 81.93 145.21 81.93 145.21L82.66 145.21C82.66 145.17 83.07 150.89 83.07 150.89L87.1 144.84L87.76 144.84C87.76 144.81 88.24 151.73 88.24 151.73Z" fill="#FFFFFF" fill-opacity="1.000000" fill-rule="nonzero"/>
	<path id="Vector" d="M77.86 148.73C77.72 150.74 76.03 152.14 73.94 151.95C71.85 151.77 70.42 150.16 70.6 148.14C70.75 146.12 72.44 144.73 74.53 144.91C76.62 145.1 78.04 146.71 77.9 148.73L77.86 148.73ZM71.34 148.21C71.19 149.86 72.33 151.18 74.01 151.29C75.7 151.44 77.02 150.3 77.16 148.65C77.31 147 76.14 145.68 74.49 145.57C72.84 145.43 71.48 146.56 71.37 148.21L71.34 148.21Z" fill="#FFFFFF" fill-opacity="1.000000" fill-rule="nonzero"/>
	<path id="Vector" d="M64 149.83L66.39 150.27L67.49 144.07L68.18 144.18L67.08 150.38L69.47 150.82L69.36 151.44L63.86 150.45L63.97 149.83L64 149.83Z" fill="#FFFFFF" fill-opacity="1.000000" fill-rule="nonzero"/>
	<path id="Vector" d="M62.57 150.12L61.36 146.97L58.76 149.13L57.92 148.91L61.07 146.31L59.53 142.17L60.37 142.39L61.69 145.83L64.55 143.49L65.36 143.71L61.99 146.53L63.42 150.38L62.61 150.16L62.57 150.12Z" fill="#FFFFFF" fill-opacity="1.000000" fill-rule="nonzero"/>
	<path id="Vector" d="M58.14 145.39C57.44 147.3 55.46 148.14 53.48 147.41C51.54 146.67 50.59 144.73 51.32 142.83C52.02 140.92 54.03 140.08 55.98 140.81C57.96 141.54 58.87 143.49 58.14 145.39ZM52.02 143.08C51.43 144.62 52.16 146.2 53.74 146.78C55.32 147.37 56.89 146.67 57.48 145.14C58.06 143.6 57.33 142.02 55.76 141.43C54.18 140.85 52.6 141.54 52.02 143.12L52.02 143.08Z" fill="#FFFFFF" fill-opacity="1.000000" fill-rule="nonzero"/>
	<path id="Vector" d="M45.53 136.74L46.52 134.8L47.14 135.09L46.44 136.48L51.83 139.23L52.57 137.84L53.19 138.13L52.2 140.08L51.91 139.93C50.99 139.53 50 141.03 48.94 142.97L47.84 144.95L43.66 142.83L46.52 137.22L45.6 136.74L45.53 136.74ZM50.92 139.45L47.1 137.51L44.54 142.57L47.51 144.07L48.31 142.61C49.19 141.03 50.11 139.6 50.92 139.45Z" fill="#FFFFFF" fill-opacity="1.000000" fill-rule="nonzero"/>
	<path id="Vector" d="M43.47 138.79C42.34 140.48 40.25 140.88 38.49 139.71C36.77 138.57 36.29 136.45 37.43 134.76C38.56 133.07 40.69 132.67 42.41 133.84C44.17 135.02 44.61 137.11 43.51 138.79L43.47 138.79ZM38.01 135.2C37.1 136.59 37.46 138.28 38.85 139.2C40.25 140.11 41.97 139.78 42.89 138.43C43.8 137.03 43.44 135.35 42.04 134.43C40.65 133.51 38.96 133.84 38.05 135.24L38.01 135.2Z" fill="#FFFFFF" fill-opacity="1.000000" fill-rule="nonzero"/>
	<path id="Vector" d="M32.81 128.89C33.58 127.98 34.64 128.01 35.92 129.08L38.27 131.06L33.83 136.37L31.63 134.54C30.53 133.59 30.2 132.56 30.97 131.68C31.49 131.06 32.15 130.95 32.84 131.2C32.22 130.43 32.22 129.66 32.81 128.93L32.81 128.89ZM35.3 133.48L33.69 132.12C32.88 131.42 32.15 131.39 31.6 132.05C31.05 132.67 31.23 133.4 32.04 134.1L33.65 135.46L35.3 133.48ZM33.32 129.37C32.73 130.07 32.95 130.76 33.87 131.53L35.67 133.04L37.35 131.02L35.56 129.52C34.68 128.78 33.91 128.71 33.32 129.41L33.32 129.37Z" fill="#FFFFFF" fill-opacity="1.000000" fill-rule="nonzero"/>
</svg>
