<svg width="92.242188" height="32.958984" viewBox="0 0 92.2422 32.959" fill="none" xmlns="http://www.w3.org/2000/svg" xmlns:xlink="http://www.w3.org/1999/xlink">
	<desc>
			Created with Pixso.
	</desc>
	<defs/>
	<path id="Vector" d="M47.21 8.83L46.56 8.58L46.26 9.25L45.67 10.63L43.85 14.85L42.76 17.34L38.15 17.34L39.46 14.35L41.06 10.61L42.39 7.55L42.62 7.03L42.07 6.83L42.86 6.48L45.65 5.27L46.84 7.96L47.21 8.83Z" fill="#EB5C37" fill-opacity="1.000000" fill-rule="nonzero"/>
	<path id="Vector" d="M53.35 5.69L52.95 6.58L51.79 9.25L48.98 8.02L48.2 7.69L48.74 7.49L48.52 6.99L48.05 5.89L45.67 0.4L50.28 0.4L52.38 5.27L52.68 5.94L53.35 5.69Z" fill="#EB5C37" fill-opacity="1.000000" fill-rule="nonzero"/>
	<path id="Vector" d="M57.6 17.34L53.01 17.34L51.94 14.87L49.55 14.87L49.11 14.87L49.11 15.3L48.68 14.87L46.36 12.55L48.28 10.63L49.11 9.8L49.11 10.63L49.95 10.63L50.7 10.63L54.71 10.65L56.56 14.89L57.6 17.34Z" fill="#EB5C37" fill-opacity="1.000000" fill-rule="nonzero"/>
	<path id="Vector" d="M0 15.82L1.56 12.28C3.06 13.27 5.18 13.94 7.16 13.94C9.14 13.94 9.91 13.39 9.91 12.55C9.91 9.86 0.27 11.82 0.27 5.53C0.27 -0.76 2.75 0.03 7.77 0.03C12.8 0.03 12.25 0.54 13.93 1.51L12.44 5.07C10.82 4.2 9.22 3.77 7.75 3.77C6.29 3.77 5.02 4.44 5.02 5.29C5.02 7.88 14.64 5.94 14.64 12.2C14.64 18.45 12.17 17.66 7.14 17.66C2.11 17.66 1.6 16.91 0 15.8L0 15.82Z" fill="#2F52A0" fill-opacity="1.000000" fill-rule="nonzero"/>
	<path id="Vector" d="M31.84 17.34L31.8 8.36L27.44 15.66L25.31 15.66L20.97 8.6L20.97 17.32L16.54 17.32L16.54 0.38L20.48 0.38L26.43 10.16L32.25 0.38L36.19 0.38L36.23 17.32L31.82 17.32L31.84 17.34Z" fill="#2F52A0" fill-opacity="1.000000" fill-rule="nonzero"/>
	<path id="Vector" d="M66.93 12.85L64.31 12.85L64.31 17.34L59.52 17.34L59.52 0.4L67.26 0.4C71.89 0.4 74.78 2.8 74.78 6.68C74.78 10.56 73.58 11.01 71.46 12.02L75.12 17.34L69.99 17.34L66.93 12.85ZM66.99 4.18L64.31 4.18L64.31 9.15L66.99 9.15C68.96 9.15 69.95 8.24 69.95 6.68C69.95 5.11 68.96 4.18 66.99 4.18Z" fill="#2F52A0" fill-opacity="1.000000" fill-rule="nonzero"/>
	<path id="Vector" d="M82.26 4.2L77.06 4.2L77.06 0.4L92.24 0.4L92.24 4.2L87.05 4.2L87.05 17.34L82.26 17.34L82.26 4.2Z" fill="#2F52A0" fill-opacity="1.000000" fill-rule="nonzero"/>
	<path id="Vector" d="M11.13 25.35C11.13 27.93 9.19 29.55 6.1 29.55L3.77 29.55L3.77 32.74L1.1 32.74L1.1 21.16L6.1 21.16C9.19 21.16 11.13 22.76 11.13 25.35ZM8.42 25.35C8.42 24.09 7.59 23.34 5.94 23.34L3.77 23.34L3.77 27.35L5.94 27.35C7.59 27.35 8.42 26.6 8.42 25.35Z" fill="#EB5C37" fill-opacity="1.000000" fill-rule="nonzero"/>
	<path id="Vector" d="M20.41 32.74L18.17 29.51L15.7 29.51L15.7 32.74L13.03 32.74L13.03 21.16L18.04 21.16C21.12 21.16 23.06 22.76 23.06 25.35C23.06 27.95 22.19 28.36 20.69 29.02L23.28 32.74L20.41 32.74ZM17.9 23.34L15.72 23.34L15.72 27.37L17.9 27.37C19.54 27.37 20.37 26.62 20.37 25.35C20.37 24.09 19.54 23.34 17.9 23.34Z" fill="#EB5C37" fill-opacity="1.000000" fill-rule="nonzero"/>
	<path id="Vector" d="M34.16 30.58L34.16 32.74L25.2 32.74L25.2 21.16L33.95 21.16L33.95 23.32L27.85 23.32L27.85 25.83L33.23 25.83L33.23 27.91L27.85 27.91L27.85 30.58L34.16 30.58Z" fill="#EB5C37" fill-opacity="1.000000" fill-rule="nonzero"/>
	<path id="Vector" d="M35.37 31.59L36.28 29.57C37.25 30.28 38.72 30.78 40.1 30.78C41.49 30.78 42.34 30.24 42.34 29.53C42.34 27.35 35.61 28.86 35.61 24.54C35.61 20.23 37.19 20.94 40.5 20.94C43.8 20.94 43.45 21.3 44.51 21.97L43.68 24.01C42.61 23.4 41.51 23.1 40.48 23.1C38.89 23.1 38.28 23.69 38.28 24.42C38.28 26.56 45.01 25.08 45.01 29.33C45.01 33.59 43.41 32.91 40.1 32.91C36.8 32.91 36.42 32.36 35.39 31.57L35.37 31.59Z" fill="#EB5C37" fill-opacity="1.000000" fill-rule="nonzero"/>
	<path id="Vector" d="M45.94 31.59L46.85 29.57C47.82 30.28 49.28 30.78 50.67 30.78C52.06 30.78 52.91 30.24 52.91 29.53C52.91 27.35 46.18 28.86 46.18 24.54C46.18 20.23 47.76 20.94 51.07 20.94C54.37 20.94 54.01 21.3 55.08 21.97L54.25 24.01C53.18 23.4 52.07 23.1 51.05 23.1C49.46 23.1 48.85 23.69 48.85 24.42C48.85 26.56 55.58 25.08 55.58 29.33C55.58 33.59 53.97 32.91 50.67 32.91C47.36 32.91 46.99 32.36 45.96 31.57L45.94 31.59Z" fill="#EB5C37" fill-opacity="1.000000" fill-rule="nonzero"/>
</svg>
