<svg width="328.349609" height="38.000000" viewBox="0 0 328.35 38" fill="none" xmlns="http://www.w3.org/2000/svg" xmlns:xlink="http://www.w3.org/1999/xlink">
	<desc>
			Created with Pixso.
	</desc>
	<defs/>
	<path id="Vector" d="M101.39 18.97L99.98 18.42L99.35 19.87L98.07 22.84L94.16 31.89L91.82 37.25L81.92 37.25L84.73 30.83L88.17 22.8L91.02 16.21L91.53 15.11L90.34 14.68L92.04 13.92L98.03 11.32L100.58 17.1L101.39 18.97Z" fill="#EB5C37" fill-opacity="1.000000" fill-rule="nonzero"/>
	<path id="Vector" d="M114.56 12.22L113.71 14.13L111.2 19.87L105.17 17.23L103.51 16.51L104.66 16.08L104.19 15.02L103.17 12.64L98.07 0.87L107.97 0.87L112.48 11.32L113.11 12.77L114.56 12.22Z" fill="#EB5C37" fill-opacity="1.000000" fill-rule="nonzero"/>
	<path id="Vector" d="M123.69 37.25L113.84 37.25L111.54 31.93L106.4 31.93L105.46 31.93L105.46 32.87L104.53 31.93L99.56 26.96L103.68 22.84L105.46 21.06L105.46 22.84L107.25 22.84L108.86 22.84L117.49 22.88L121.44 31.98L123.69 37.25Z" fill="#EB5C37" fill-opacity="1.000000" fill-rule="nonzero"/>
	<path id="Vector" d="M0 33.97L3.35 26.37C6.58 28.49 11.13 29.94 15.38 29.94C19.63 29.94 21.28 28.75 21.28 26.96C21.28 21.18 0.59 25.39 0.59 11.88C0.59 -1.64 5.9 0.06 16.7 0.06C27.49 0.06 26.3 1.17 29.91 3.25L26.72 10.9C23.24 9.03 19.8 8.1 16.65 8.1C13.51 8.1 10.79 9.54 10.79 11.37C10.79 16.93 31.44 12.77 31.44 26.2C31.44 39.63 26.13 37.93 15.34 37.93C4.54 37.93 3.44 36.31 0 33.93L0 33.97Z" fill="#2F52A0" fill-opacity="1.000000" fill-rule="nonzero"/>
	<path id="Vector" d="M68.37 37.25L68.28 17.95L58.93 33.63L54.34 33.63L45.04 18.46L45.04 37.2L35.52 37.2L35.52 0.83L43.98 0.83L56.77 21.82L69.26 0.83L77.72 0.83L77.8 37.2L68.32 37.2L68.37 37.25Z" fill="#2F52A0" fill-opacity="1.000000" fill-rule="nonzero"/>
	<path id="Vector" d="M143.71 27.6L138.1 27.6L138.1 37.25L127.82 37.25L127.82 0.87L144.43 0.87C154.38 0.87 160.58 6.01 160.58 14.34C160.58 22.67 157.99 23.65 153.44 25.81L161.3 37.25L150.3 37.25L143.71 27.6ZM143.84 8.99L138.1 8.99L138.1 19.65L143.84 19.65C148.09 19.65 150.21 17.7 150.21 14.34C150.21 10.98 148.09 8.99 143.84 8.99Z" fill="#2F52A0" fill-opacity="1.000000" fill-rule="nonzero"/>
	<path id="Vector" d="M176.64 9.03L165.47 9.03L165.47 0.87L198.06 0.87L198.06 9.03L186.93 9.03L186.93 37.25L176.64 37.25L176.64 9.03Z" fill="#2F52A0" fill-opacity="1.000000" fill-rule="nonzero"/>
	<path id="Vector" d="M232.9 20.97C232.9 26.49 228.74 29.98 222.11 29.98L217.1 29.98L217.1 36.82L211.36 36.82L211.36 11.96L222.11 11.96C228.74 11.96 232.9 15.4 232.9 20.97ZM227.08 20.97C227.08 18.25 225.3 16.64 221.77 16.64L217.1 16.64L217.1 25.26L221.77 25.26C225.3 25.26 227.08 23.65 227.08 20.97Z" fill="#EB5C37" fill-opacity="1.000000" fill-rule="nonzero"/>
	<path id="Vector" d="M252.83 36.82L248.03 29.89L242.72 29.89L242.72 36.82L236.98 36.82L236.98 11.96L247.73 11.96C254.36 11.96 258.53 15.4 258.53 20.97C258.53 26.54 256.66 27.43 253.43 28.83L258.99 36.82L252.83 36.82ZM247.44 16.64L242.76 16.64L242.76 25.31L247.44 25.31C250.96 25.31 252.75 23.69 252.75 20.97C252.75 18.25 250.96 16.64 247.44 16.64Z" fill="#EB5C37" fill-opacity="1.000000" fill-rule="nonzero"/>
	<path id="Vector" d="M282.37 32.19L282.37 36.82L263.12 36.82L263.12 11.96L281.9 11.96L281.9 16.59L268.81 16.59L268.81 21.99L280.37 21.99L280.37 26.45L268.81 26.45L268.81 32.19L282.37 32.19Z" fill="#EB5C37" fill-opacity="1.000000" fill-rule="nonzero"/>
	<path id="Vector" d="M284.96 34.36L286.91 30.02C289 31.55 292.14 32.61 295.11 32.61C298.09 32.61 299.92 31.47 299.92 29.94C299.92 25.26 285.47 28.49 285.47 19.23C285.47 9.96 288.87 11.49 295.96 11.49C303.06 11.49 302.29 12.26 304.59 13.7L302.81 18.08C300.51 16.76 298.13 16.13 295.92 16.13C292.52 16.13 291.2 17.4 291.2 18.97C291.2 23.56 305.65 20.38 305.65 29.51C305.65 38.65 302.21 37.2 295.11 37.2C288.02 37.2 287.21 36.01 285 34.31L284.96 34.36Z" fill="#EB5C37" fill-opacity="1.000000" fill-rule="nonzero"/>
	<path id="Vector" d="M307.65 34.36L309.6 30.02C311.69 31.55 314.83 32.61 317.81 32.61C320.78 32.61 322.61 31.47 322.61 29.94C322.61 25.26 308.16 28.49 308.16 19.23C308.16 9.96 311.56 11.49 318.66 11.49C325.75 11.49 324.99 12.26 327.28 13.7L325.5 18.08C323.2 16.76 320.82 16.13 318.61 16.13C315.21 16.13 313.9 17.4 313.9 18.97C313.9 23.56 328.35 20.38 328.35 29.51C328.35 38.65 324.9 37.2 317.81 37.2C310.71 37.2 309.9 36.01 307.69 34.31L307.65 34.36Z" fill="#EB5C37" fill-opacity="1.000000" fill-rule="nonzero"/>
</svg>
