<svg width="36.195801" height="36.000000" viewBox="0 0 36.1958 36" fill="none" xmlns="http://www.w3.org/2000/svg" xmlns:xlink="http://www.w3.org/1999/xlink">
	<desc>
			Created with Pixso.
	</desc>
	<defs/>
	<ellipse id="Ellipse 1" cx="18.097900" cy="18.000000" rx="18.097958" ry="18.000000" fill="#FFFFFF" fill-opacity="1.000000"/>
	<path id="Vector" d="M10.16 16.91C10.2 16.89 10.23 16.87 10.26 16.85C10.83 16.56 11.41 16.28 11.99 16C12.02 16 12.07 15.96 12.1 15.95C12.15 15.93 12.19 15.9 12.24 15.88C12.32 15.84 12.41 15.8 12.49 15.76C12.67 15.68 12.84 15.59 13.01 15.51C13.35 15.35 13.69 15.18 14.04 15.02C14.72 14.69 15.41 14.36 16.1 14.03C16.78 13.7 17.47 13.37 18.15 13.04C18.84 12.71 19.53 12.38 20.21 12.06C20.9 11.73 21.58 11.4 22.27 11.07C22.42 10.99 22.59 10.89 22.75 10.85C22.89 10.83 23.02 10.77 23.16 10.74C23.42 10.69 23.71 10.66 23.96 10.79C24.05 10.83 24.13 10.89 24.2 10.96C24.51 11.32 24.47 11.9 24.4 12.39C23.93 15.86 23.46 19.32 22.99 22.79C22.93 23.26 22.84 23.79 22.51 24.09C22.22 24.34 21.82 24.37 21.47 24.26C21.12 24.15 20.81 23.92 20.51 23.7C19.26 22.77 18 21.84 16.75 20.9C16.45 20.68 16.12 20.39 16.12 19.99C16.12 19.75 16.25 19.54 16.38 19.34C17.47 17.75 19.05 16.65 20.22 15.13C20.38 14.92 20.51 14.53 20.28 14.41C20.15 14.33 19.99 14.43 19.87 14.53C18.32 15.73 16.78 16.94 15.23 18.14C14.73 18.54 14.2 18.94 13.59 19.04C13.05 19.12 12.5 18.95 11.97 18.78C11.53 18.63 11.09 18.48 10.65 18.33C10.42 18.25 10.18 18.16 10 17.98C9.82 17.79 9.71 17.48 9.82 17.24C9.89 17.08 10.02 16.99 10.16 16.91L10.16 16.91Z" fill="#315B83" fill-opacity="1.000000" fill-rule="nonzero"/>
</svg>
