<svg width="36.195801" height="36.000000" viewBox="0 0 36.1958 36" fill="none" xmlns="http://www.w3.org/2000/svg" xmlns:xlink="http://www.w3.org/1999/xlink">
	<desc>
			Created with Pixso.
	</desc>
	<defs/>
	<ellipse id="Ellipse 5" cx="18.097900" cy="18.000000" rx="18.097958" ry="18.000000" fill="#FFFFFF" fill-opacity="1.000000"/>
	<path id="Vector" d="M20.58 21.2C17.31 21.2 14.66 18.61 14.66 15.42C14.66 14.62 15.33 13.96 16.16 13.96C16.24 13.96 16.33 13.97 16.41 13.98C16.58 14.01 16.75 14.07 16.91 14.16C16.93 14.17 16.94 14.19 16.95 14.21L17.29 16.33C17.3 16.36 17.29 16.38 17.27 16.4C17.08 16.61 16.84 16.76 16.57 16.83L16.44 16.87L16.49 16.99C16.93 18.09 17.84 18.98 18.97 19.41L19.1 19.46L19.14 19.33C19.21 19.07 19.36 18.83 19.58 18.65C19.59 18.63 19.61 18.63 19.63 18.63C19.64 18.63 19.64 18.63 19.65 18.63L21.82 18.96C21.85 18.97 21.87 18.98 21.88 19C21.97 19.15 22.03 19.32 22.06 19.49C22.08 19.57 22.08 19.65 22.08 19.73C22.08 20.54 21.41 21.2 20.58 21.2Z" fill="#315B83" fill-opacity="1.000000" fill-rule="nonzero"/>
	<path id="Vector" d="M26.38 16.86C26.2 14.92 25.29 13.12 23.81 11.8C22.32 10.46 20.39 9.72 18.36 9.72C13.93 9.72 10.32 13.24 10.32 17.56C10.32 19.01 10.73 20.42 11.51 21.65L9.78 25.39L15.33 24.81C16.29 25.2 17.31 25.4 18.36 25.4C18.64 25.4 18.92 25.38 19.21 25.35C19.46 25.33 19.71 25.29 19.96 25.24C23.67 24.51 26.39 21.3 26.41 17.6L26.41 17.56C26.41 17.32 26.4 17.09 26.37 16.86L26.38 16.86ZM15.54 23.17L12.47 23.49L13.39 21.51L13.2 21.27C13.19 21.26 13.18 21.24 13.16 21.22C12.36 20.15 11.94 18.88 11.94 17.56C11.94 14.11 14.82 11.31 18.36 11.31C21.68 11.31 24.49 13.83 24.76 17.04C24.78 17.22 24.79 17.39 24.79 17.56C24.79 17.61 24.79 17.66 24.78 17.71C24.72 20.59 22.65 23.05 19.75 23.67C19.53 23.72 19.31 23.75 19.08 23.78C18.85 23.8 18.61 23.82 18.37 23.82C17.52 23.82 16.69 23.66 15.91 23.34C15.82 23.3 15.74 23.27 15.66 23.23L15.54 23.18L15.54 23.17Z" fill="#315B83" fill-opacity="1.000000" fill-rule="nonzero"/>
</svg>
