<svg width="24.000000" height="24.000000" viewBox="0 0 24 24" fill="none" xmlns="http://www.w3.org/2000/svg" xmlns:xlink="http://www.w3.org/1999/xlink">
	<desc>
			Created with Pixso.
	</desc>
	<defs/>
	<path id="Vector" d="M22.08 12.8L1.91 12.8C1.41 12.8 1 12.44 1 12C1 11.55 1.41 11.19 1.91 11.19L22.08 11.19C22.58 11.19 23 11.55 23 12C23 12.44 22.58 12.8 22.08 12.8ZM22.08 6.61L1.91 6.61C1.41 6.61 1 6.25 1 5.8C1 5.36 1.41 5 1.91 5L22.08 5C22.58 5 23 5.36 23 5.8C23 6.25 22.58 6.61 22.08 6.61ZM22.08 19L1.91 19C1.41 19 1 18.63 1 18.19C1 17.74 1.41 17.38 1.91 17.38L22.08 17.38C22.58 17.38 23 17.74 23 18.19C23 18.63 22.58 19 22.08 19Z" fill="#232828" fill-opacity="1.000000" fill-rule="nonzero"/>
</svg>
