<svg width="105.298340" height="169.771484" viewBox="0 0 105.298 169.771" fill="none" xmlns="http://www.w3.org/2000/svg" xmlns:xlink="http://www.w3.org/1999/xlink">
	<desc>
			Created with Pixso.
	</desc>
	<defs/>
	<path id="Vector" d="M21.79 151.05L82.47 150.98L81.5 164.67C79.56 165.46 24.82 164.96 22.85 164.96L21.79 151.05ZM12.6 89.31C14.06 89.55 15.42 90.29 16.93 90.73C28.81 94.26 39.68 91.47 51.39 88.76C69.84 84.47 73.91 83.61 91.82 87.37L91.04 97.9C85.96 98.76 78.61 96.69 77.45 99.41C75.49 103.98 85.19 102.67 90.7 102.67L90.14 108.6C90.06 108.66 89.95 108.71 89.88 108.74C89.81 108.76 89.69 108.83 89.6 108.86C89.52 108.89 89.41 108.93 89.31 108.96L85.7 109.05C84.22 109.04 82.75 109.04 81.27 109.03C77.61 109.02 76.42 110.09 77.91 113.18C80.19 114 86.6 113.67 89.64 113.67C90.03 115.66 89.7 118.06 89.28 120.01C86.74 120.01 84.19 120.02 81.65 120.01C79.34 119.99 76.4 119.56 76.36 122.36C76.33 125.18 79.42 124.64 81.65 124.63C84.08 124.62 86.52 124.63 89.09 124.64L88.48 131C86.08 131 83.68 131.02 81.28 131C78.99 130.99 76.02 130.48 76.05 133.36C76.07 136.12 78.73 135.64 81.28 135.63C83.6 135.62 85.91 135.63 88.22 135.63C88.61 148.41 86.5 146.27 75.4 146.27L28.71 146.27C17.35 146.27 15.87 148.32 16.14 135.63C24.37 135.63 32.61 135.63 40.84 135.63C43.1 135.63 57.32 136.35 58.48 134.8C59.54 133.39 58.88 131.46 57.02 131.09C54.57 130.59 23.51 131.27 17.27 131.05C15.37 130.98 15.27 130.78 15.28 124.72C20.25 124.15 42.15 124.63 50.03 124.63C52.74 124.63 59.36 125.89 58.94 121.99C58.6 118.78 51.56 120.01 48.93 120.01C41.36 120.01 19.47 120.49 14.87 119.92L14.53 113.68L50.03 113.67C52.95 113.67 59.66 114.82 59.15 111.02C58.74 107.95 52.26 109.05 49.3 109.05C37.97 109.05 25.04 109.31 14.08 109.02L13.63 102.67C22.21 102.67 30.79 102.67 39.37 102.67C41.74 102.67 56.73 103.18 58.2 102.21C59.82 101.15 59.39 99.31 57.86 98.3C55.28 97.44 19.33 98.04 13.28 98.04L12.6 89.31ZM92.21 82.53C89.65 82.36 85.72 81.1 82.45 80.71C71.51 79.41 61.45 81.62 51.08 84.04C35.81 87.61 26.42 90.2 12.22 83.84L11.43 72.24L92.92 72.24L92.21 82.53ZM7.31 60.42C9.59 59.62 51.79 60.19 58.12 60.19C61.78 60.19 94.68 59.93 96.64 60.29C100.1 60.94 100.68 66.09 97.23 67.31C94.96 68.12 52.56 67.56 46.36 67.56L7.79 67.49C4.09 66.88 3.36 61.79 7.31 60.42ZM44.52 55.53C40.84 55.53 37.03 48.93 35.99 44.82C33.04 33.08 41.73 19.96 48.39 11.14C49.03 10.3 49.72 9.33 50.45 8.4C50.83 7.91 50.9 7.77 51.43 7.2C52.3 6.28 51.63 6.75 52.73 6.11C55.78 11.42 62.22 16.89 67.27 29.36C73.49 44.74 64.84 55.53 60.33 55.53L44.52 55.53ZM30.55 39.61C30.55 42.69 31.39 46.14 32.24 48.58C33.23 51.42 34.59 53.23 36.06 55.42C28.83 55.42 21.6 55.42 14.37 55.42C10.12 55.42 7.32 55.02 4.42 56.5C-3 60.28 -0.28 71.39 6.65 71.96L11.08 134.08C11.19 135.48 11.4 135.61 11.43 137.41C11.64 153.1 16.71 146.56 17.27 152.89L18.08 166.05C18.33 168.59 18.79 169.77 21.72 169.77L83.12 169.77C84.93 169.77 85.82 168.72 86.03 167.16L87.17 150.65C93.41 147.34 92.64 143.06 93.05 134.47L95.68 98.49C95.82 97.16 95.88 95.01 96.09 93.39C96.5 90.34 96.37 86.46 96.83 83.09C97.01 81.77 97.01 79.64 97.25 78L97.62 73.22C98.22 70.92 100.07 72.17 102.32 69.46C105.82 65.22 104.81 59.51 100.49 56.8C97.62 55 95.22 55.42 90.84 55.42C83.49 55.42 76.14 55.42 68.78 55.42C70.3 53.16 71.55 51.98 72.61 48.95C76.33 38.2 73.56 31.2 68.79 21.59C67.25 18.49 55.61 -0.27 52.28 0C50.52 0.14 46.17 6.14 44.99 7.72C38.96 15.8 30.55 28.53 30.55 39.61Z" fill="#232828" fill-opacity="1.000000" fill-rule="evenodd"/>
	<path id="Vector" d="M12.6 89.31L13.28 98.04C19.33 98.04 55.28 97.44 57.86 98.3C59.39 99.31 59.82 101.15 58.2 102.21C56.73 103.18 41.74 102.67 39.37 102.67C30.79 102.67 22.21 102.67 13.63 102.67L14.08 109.02C25.04 109.31 37.97 109.05 49.3 109.05C52.26 109.05 58.74 107.95 59.15 111.02C59.66 114.82 52.95 113.67 50.03 113.67L14.53 113.68L14.87 119.92C19.47 120.49 41.36 120.01 48.93 120.01C51.56 120.01 58.6 118.78 58.94 121.99C59.36 125.89 52.74 124.63 50.03 124.63C42.15 124.63 20.25 124.15 15.28 124.72C15.27 130.78 15.37 130.98 17.27 131.05C23.51 131.27 54.57 130.59 57.02 131.09C58.88 131.46 59.54 133.39 58.48 134.8C57.32 136.35 43.1 135.63 40.84 135.63C32.61 135.63 24.37 135.63 16.14 135.63C15.87 148.32 17.35 146.27 28.71 146.27L75.4 146.27C86.5 146.27 88.61 148.41 88.22 135.63C85.91 135.63 83.6 135.62 81.28 135.63C78.73 135.64 76.07 136.12 76.05 133.36C76.02 130.48 78.99 130.99 81.28 131C83.68 131.02 86.08 131 88.48 131L89.09 124.64C86.52 124.63 84.08 124.62 81.65 124.63C79.42 124.64 76.33 125.18 76.36 122.36C76.4 119.56 79.33 119.99 81.65 120.01C84.19 120.02 86.74 120.01 89.28 120.01C89.7 118.06 90.03 115.66 89.64 113.67C86.6 113.67 80.19 114 77.91 113.18C76.42 110.09 77.61 109.02 81.27 109.03C82.75 109.04 84.22 109.04 85.7 109.05L89.31 108.96C89.41 108.93 89.52 108.89 89.6 108.86C89.69 108.83 89.81 108.76 89.88 108.74C89.95 108.71 90.06 108.66 90.14 108.6L90.7 102.67C85.19 102.67 75.49 103.98 77.45 99.41C78.61 96.69 85.96 98.76 91.04 97.9L91.82 87.37C73.91 83.61 69.84 84.47 51.39 88.76C39.68 91.47 28.81 94.26 16.92 90.73C15.42 90.29 14.06 89.55 12.6 89.31Z" fill="#2ECDFD" fill-opacity="1.000000" fill-rule="evenodd"/>
	<path id="Vector" d="M64.14 41.14C59.09 42.73 61.2 39.14 58.5 32.25C56.64 27.5 53.22 23.7 55.61 22.01C59.8 19.07 66.46 36.82 64.14 41.14ZM44.52 55.53L60.33 55.53C64.84 55.53 73.49 44.74 67.27 29.36C62.22 16.89 55.78 11.42 52.73 6.11C51.63 6.75 52.3 6.28 51.43 7.2C50.9 7.77 50.83 7.91 50.45 8.4C49.72 9.33 49.03 10.3 48.39 11.14C41.73 19.96 33.04 33.08 35.99 44.82C37.03 48.93 40.84 55.53 44.52 55.53Z" fill="#2ECDFD" fill-opacity="1.000000" fill-rule="evenodd"/>
	<path id="Vector" d="M12.22 83.84C26.42 90.2 35.81 87.61 51.08 84.04C61.45 81.62 71.51 79.41 82.45 80.71C85.72 81.1 89.65 82.36 92.21 82.53L92.92 72.24L11.43 72.24L12.22 83.84Z" fill="#B5E5EC" fill-opacity="1.000000" fill-rule="evenodd"/>
	<path id="Vector" d="M21.79 151.05L22.84 164.96C24.82 164.96 79.56 165.46 81.5 164.67L82.47 150.98L21.79 151.05Z" fill="#2ECDFD" fill-opacity="1.000000" fill-rule="evenodd"/>
	<path id="Vector" d="M7.31 60.42C3.36 61.79 4.09 66.88 7.79 67.49L46.36 67.56C52.56 67.56 94.96 68.12 97.23 67.31C100.68 66.09 100.1 60.94 96.64 60.29C94.68 59.93 61.78 60.19 58.12 60.19C51.79 60.19 9.59 59.62 7.31 60.42Z" fill="#B5E5EC" fill-opacity="1.000000" fill-rule="evenodd"/>
	<path id="Vector" d="M80.92 52.84C84.32 52.84 83.63 48.76 88.42 41.59C92.56 35.39 96.36 33.71 96.36 30.78C96.36 29.32 94.93 28.95 93.79 28.95C90.61 28.95 82.36 41.52 80.33 46.38C79.94 47.33 79.08 49.22 78.92 50.13C78.71 51.32 79.72 52.84 80.92 52.84Z" fill="#232828" fill-opacity="1.000000" fill-rule="evenodd"/>
	<path id="Vector" d="M9.22 30.78C9.22 33.7 10.59 33.69 13.36 36.57C16.72 40.04 19.73 45.9 21.6 50.39C23.3 54.44 26.5 52.89 26.5 50.64C26.5 47.8 22.2 40.44 20.77 38.35L14.65 30.87C11.02 27.51 9.22 29.29 9.22 30.78Z" fill="#232828" fill-opacity="1.000000" fill-rule="evenodd"/>
	<path id="Vector" d="M64.14 41.14C66.46 36.82 59.8 19.07 55.61 22.01C53.22 23.7 56.64 27.5 58.5 32.25C61.2 39.14 59.09 42.73 64.14 41.14Z" fill="#232828" fill-opacity="1.000000" fill-rule="evenodd"/>
	<path id="Vector" d="M92.68 52.48C94.96 52.48 96.78 47.29 101.86 44.74C101.93 44.71 107.02 43.25 104.68 40.11C103.26 38.22 100.27 40.07 98.34 41.22C96.3 42.45 91.96 46.67 90.82 48.43C89.62 50.31 90.53 52.48 92.68 52.48Z" fill="#232828" fill-opacity="1.000000" fill-rule="evenodd"/>
	<path id="Vector" d="M0.4 41.81C0.4 44.62 2.84 43.24 6.93 47.05C9.62 49.55 11.29 52.48 12.9 52.48C14.96 52.48 15.75 50.42 14.83 48.74C14.35 47.85 12.17 45.47 11.44 44.74C9.38 42.67 0.4 35.48 0.4 41.81Z" fill="#232828" fill-opacity="1.000000" fill-rule="evenodd"/>
</svg>
