<svg width="128.101562" height="169.934570" viewBox="0 0 128.102 169.935" fill="none" xmlns="http://www.w3.org/2000/svg" xmlns:xlink="http://www.w3.org/1999/xlink">
	<desc>
			Created with Pixso.
	</desc>
	<defs/>
	<path id="Vector" d="M29.32 148.24C28.3 144.68 32.45 145.23 35.1 145.24C37.52 145.25 42.26 144.34 42.88 146.85C43.76 150.37 39.61 149.7 36.94 149.7C34.46 149.69 29.93 150.38 29.32 148.24ZM29.27 129.8C31.48 127.8 33.77 128.5 37.31 128.49C39.68 128.48 44 128.09 42.91 131.4C42.13 133.78 37.79 133.02 35.1 133.02C31.66 133.03 29.12 133.81 29.27 129.8ZM29.27 104.07C31.52 102.06 33.75 102.76 37.31 102.75C39.69 102.74 43.99 102.37 42.92 105.67C42.14 108.05 37.8 107.28 35.1 107.28C31.66 107.29 29.11 108.1 29.27 104.07ZM32.16 90.51C28.06 90.51 28.14 86.1 32.16 86.1C37.46 86.1 40.11 85.42 42.92 87.05L42.83 89.57C41.61 90.35 41.95 90.51 40.23 90.51L32.16 90.51ZM10.12 86.08C13.35 86.15 20.29 85.48 21.4 86.95C22.18 87.98 21.88 89.41 21.04 90.05C19.39 91.29 7.94 90.06 4.75 90.67L4.72 102.55C8.07 103.21 19.47 101.94 21.27 103.25C23.22 104.66 22.18 107.22 18.93 107.3C16.01 107.37 13.05 107.22 10.12 107.32L10.12 128.46C12.82 128.55 15.52 128.43 18.21 128.47C21.67 128.52 22.79 131.26 20.55 132.6C18.38 133.9 8.13 132.29 4.75 133.27L4.76 145.09C8.22 145.74 19.27 144.51 21.28 145.52C22.25 146 24.24 149.68 18.94 149.72C16.01 149.74 13.06 149.65 10.12 149.72C10.12 152.43 9.75 158.44 10.54 160.65C11.62 163.68 14.11 165.23 17.82 165.23L86.21 165.23C95.47 165.23 94.01 157.59 94.01 149.7L79.22 149.7C76.43 149.7 75.84 148.34 76.6 145.92C79.4 144.43 94.33 145.27 99.02 145.23L99.08 133.02L79.64 133.02C74.48 133.02 74.81 128.49 79.22 128.49L94.02 128.49L94.01 107.28L79.96 107.28C77.77 107.28 75.36 106.14 76.96 103.73C77.97 102.21 81.52 102.75 83.63 102.75C88.77 102.76 93.94 102.8 99.07 102.74L99.06 90.54C94.34 90.54 79.5 91.32 76.61 89.86C75.81 87.4 76.43 86.1 79.22 86.1L94.02 86.1L94.01 80.2L58.28 80.21L58.28 86.09C61.08 86.12 63.92 86.12 66.73 86.09C70.07 86.07 71.95 86.37 70.8 89.86C68.19 91.19 61.93 90.48 58.28 90.52L58.28 102.73C61.39 102.79 70.98 101.32 71.17 104.87C71.38 108.81 61.4 107.24 58.28 107.31L58.28 128.47C61.39 128.53 71 127.05 71.17 130.6C71.36 134.55 61.4 132.97 58.28 133.04L58.29 145.23C62.12 145.28 68.01 144.44 70.82 145.91C71.95 149.5 70.1 149.73 66.73 149.7C63.92 149.68 61.08 149.67 58.28 149.71C58.28 152.52 58.65 154.7 57.58 156.71C53.41 157.45 53.52 157.12 49.07 157.09C46.55 157.09 45.88 156.26 45.88 153.75L45.88 80.2L10.12 80.2L10.12 86.08Z" fill="#2ECDFE" fill-opacity="1.000000" fill-rule="evenodd"/>
	<path id="Vector" d="M50.41 152.65C50.41 147.49 49.95 55.7 50.64 53.17L53.85 53.17L53.85 152.65L50.41 152.65ZM18.93 107.3C22.18 107.22 23.22 104.66 21.27 103.25C19.47 101.94 8.07 103.21 4.72 102.55L4.75 90.67C7.94 90.06 19.39 91.29 21.04 90.05C21.88 89.41 22.18 87.98 21.4 86.95C20.29 85.48 13.35 86.15 10.12 86.08L10.12 80.2L45.88 80.2L45.88 153.75C45.88 156.26 46.55 157.09 49.07 157.09C53.52 157.12 53.41 157.45 57.58 156.71C58.65 154.7 58.28 152.52 58.28 149.71C61.08 149.67 63.92 149.68 66.73 149.7C70.1 149.73 71.95 149.5 70.82 145.91C68.01 144.44 62.12 145.28 58.29 145.23L58.28 133.04C61.4 132.97 71.36 134.55 71.17 130.6C71 127.05 61.39 128.53 58.28 128.47L58.28 107.31C61.4 107.24 71.38 108.81 71.17 104.87C70.98 101.32 61.39 102.79 58.28 102.73L58.28 90.52C61.93 90.48 68.19 91.19 70.8 89.86C71.95 86.37 70.07 86.07 66.73 86.09C63.92 86.12 61.08 86.12 58.28 86.09L58.28 80.21L94.01 80.2L94.02 86.1L79.22 86.1C76.43 86.1 75.81 87.4 76.61 89.86C79.5 91.32 94.34 90.54 99.06 90.54L99.07 102.74C93.94 102.8 88.77 102.76 83.63 102.75C81.52 102.75 77.97 102.21 76.96 103.73C75.36 106.14 77.77 107.28 79.96 107.28L94.01 107.28L94.02 128.49L79.22 128.49C74.81 128.49 74.48 133.02 79.64 133.02L99.08 133.02L99.02 145.23C94.33 145.27 79.4 144.43 76.6 145.92C75.84 148.34 76.43 149.7 79.22 149.7L94.01 149.7C94.01 157.59 95.47 165.23 86.21 165.23L17.82 165.23C14.11 165.23 11.62 163.68 10.54 160.65C9.75 158.44 10.12 152.43 10.12 149.72C13.06 149.65 16.01 149.74 18.94 149.72C24.24 149.68 22.25 146 21.28 145.52C19.27 144.51 8.22 145.74 4.76 145.09L4.75 133.27C8.13 132.29 18.38 133.9 20.55 132.6C22.79 131.26 21.67 128.52 18.21 128.47C15.52 128.43 12.82 128.55 10.12 128.46L10.12 107.32C13.05 107.22 16.01 107.37 18.93 107.3ZM58.28 51.91L62.31 51.9C62.31 57.41 61.5 62.5 67.63 64.23C70.84 65.14 74.59 65.82 77.82 66.54C85.17 68.16 92.62 68.35 93.86 75.74L58.28 75.73L58.28 51.91ZM10.43 75.75C11.02 68.2 20.9 67.77 28.35 66.11C31.47 65.41 37.12 64.6 39.18 62.98C42.46 60.42 41.91 57.12 41.9 51.98L45.89 51.9L45.76 75.75L10.43 75.75ZM35.1 47.49C32.6 47.49 31 46.72 31.04 44.18C31.08 41.65 32.91 41.07 35.47 41.07L68.93 41.07C74.93 41.07 74.59 47.49 68.93 47.49L35.1 47.49ZM38.45 11.52C42.79 11.52 63.53 10.9 65.84 11.79L66.35 36.54L37.64 36.54L38.45 11.52ZM118.81 33.64C120.15 38.2 121.58 42.67 122.93 47.12C121.93 47.93 118.4 48.83 117.08 49.08C116.32 45.4 114.61 40.74 113.51 37.1C112.64 34.22 112.32 33.97 109.02 33.98C102.01 34.01 73.46 34.49 70.94 33.75L70.77 27.95L115.56 28.06C117.69 28.55 118.11 31.25 118.81 33.64ZM44.43 6.92C45.35 5.13 45.74 4.76 48.34 4.76L56.06 4.76C58.45 4.76 59.17 5.24 59.75 7.08L44.43 6.92ZM39.88 7.05C34.2 7.05 36.13 6.72 34 8.15C34 10.9 33.61 12.03 33.63 14.76C33.64 17.21 33.67 19.7 33.64 22.14C33.62 24.48 33.26 26.26 33.26 29.11C33.27 31.56 33.26 34.01 33.26 36.46C32.07 37.04 26.4 38.25 26.36 44.18C26.33 48.04 29.63 51.9 33.63 51.9L37.31 51.9C37.31 60.38 38.74 59.25 28.76 61.37C22.56 62.69 13.42 63.95 9.63 67.61C4.59 72.47 5.69 78.62 5.69 86.1C-1.54 86.1 0.17 91.85 0.17 103.01C0.17 104.25 1.01 105.63 1.72 106.24C2.68 107.07 3.98 107.42 5.69 107.42L5.69 128.38C2.58 128.38 0.17 130.04 0.17 132.79L0.17 144.93C0.17 148.27 2.26 149.71 5.69 149.71C5.69 157.18 4.58 162.39 9.45 166.91C11.61 168.92 14.49 169.93 18.56 169.93L86.21 169.93C93.58 169.93 98.71 164.8 98.71 157.43L98.71 149.71C101.35 149.71 103.49 148.15 103.49 145.66L103.49 132.43C103.49 130.1 101.07 128.43 98.71 128.38L98.71 107.42C101.01 107.23 103.49 105.8 103.49 103.38L103.49 90.14C103.49 87.57 101.45 86.1 98.71 86.1C98.71 75.77 99.84 66.83 86.43 63.81L70.23 60.16C65.99 59.28 66.72 58.58 66.72 51.9C70.9 51.9 72.71 52.48 75.65 49.44C79.1 45.88 77.86 42.12 75.55 38.67L109.37 38.67C109.47 39.78 110.13 41.78 110.43 42.76C110.9 44.3 111.24 45.24 111.73 46.97C112.15 48.45 112.63 49.61 112.97 50.88C114.29 55.9 115.86 54.12 122.61 52.27C130.07 50.23 128.61 50.23 125.87 41.29C122.5 30.29 122.57 23.23 113.05 23.23L70.77 23.23C70.77 19.28 70.38 16.64 70.4 12.56C70.43 6.6 70.38 7.05 64.52 7.05C62.6 -1.18 56.54 0.06 48.7 0.06C43.79 0.06 39.98 2.81 39.88 7.05Z" fill="#232828" fill-opacity="1.000000" fill-rule="evenodd"/>
	<path id="Vector" d="M37.64 36.54L66.35 36.54L65.84 11.79C63.53 10.9 42.79 11.52 38.45 11.52L37.64 36.54Z" fill="#B8B8B8" fill-opacity="1.000000" fill-rule="evenodd"/>
	<path id="Vector" d="M58.28 75.73L93.86 75.74C92.62 68.35 85.17 68.16 77.82 66.54C74.59 65.82 70.84 65.14 67.63 64.23C61.5 62.5 62.31 57.41 62.31 51.9L58.28 51.91L58.28 75.73Z" fill="#B5E5EC" fill-opacity="1.000000" fill-rule="evenodd"/>
	<path id="Vector" d="M10.43 75.75L45.76 75.75L45.89 51.9L41.9 51.98C41.91 57.12 42.46 60.42 39.18 62.98C37.12 64.6 31.47 65.41 28.35 66.11C20.9 67.77 11.02 68.2 10.43 75.75Z" fill="#B5E5EC" fill-opacity="1.000000" fill-rule="evenodd"/>
	<path id="Vector" d="M70.94 33.75C73.46 34.49 102.01 34.01 109.02 33.98C112.32 33.97 112.64 34.22 113.51 37.1C114.61 40.74 116.32 45.4 117.08 49.08C118.4 48.83 121.93 47.93 122.93 47.12C121.58 42.67 120.15 38.2 118.81 33.64C118.11 31.25 117.69 28.55 115.56 28.06L70.77 27.95L70.94 33.75Z" fill="#B8B8B8" fill-opacity="1.000000" fill-rule="evenodd"/>
	<path id="Vector" d="M50.41 152.65L53.85 152.65L53.85 53.17L50.64 53.17C49.95 55.7 50.41 147.49 50.41 152.65Z" fill="#B5E5EC" fill-opacity="1.000000" fill-rule="evenodd"/>
	<path id="Vector" d="M35.1 47.49L68.93 47.49C74.59 47.49 74.93 41.07 68.93 41.07L35.47 41.07C32.91 41.07 31.08 41.65 31.04 44.18C31 46.72 32.6 47.49 35.1 47.49Z" fill="#D4D4D4" fill-opacity="1.000000" fill-rule="evenodd"/>
	<path id="Vector" d="M29.27 104.07C29.11 108.1 31.66 107.29 35.1 107.28C37.8 107.28 42.14 108.05 42.92 105.67C43.99 102.37 39.69 102.74 37.31 102.75C33.75 102.76 31.52 102.06 29.27 104.07Z" fill="#232828" fill-opacity="1.000000" fill-rule="evenodd"/>
	<path id="Vector" d="M29.27 129.8C29.12 133.81 31.66 133.03 35.1 133.02C37.79 133.01 42.13 133.78 42.91 131.4C44 128.09 39.68 128.48 37.31 128.49C33.77 128.5 31.48 127.8 29.27 129.8Z" fill="#232828" fill-opacity="1.000000" fill-rule="evenodd"/>
	<path id="Vector" d="M29.32 148.24C29.93 150.38 34.46 149.69 36.94 149.7C39.61 149.7 43.76 150.37 42.88 146.85C42.26 144.34 37.52 145.25 35.1 145.24C32.45 145.23 28.3 144.68 29.32 148.24Z" fill="#232828" fill-opacity="1.000000" fill-rule="evenodd"/>
	<path id="Vector" d="M32.16 90.51L40.23 90.51C41.95 90.51 41.61 90.35 42.83 89.57L42.92 87.05C40.11 85.42 37.46 86.1 32.16 86.1C28.14 86.1 28.06 90.51 32.16 90.51Z" fill="#232828" fill-opacity="1.000000" fill-rule="evenodd"/>
	<path id="Vector" d="M44.43 6.92L59.75 7.08C59.17 5.24 58.45 4.76 56.06 4.76L48.34 4.76C45.74 4.76 45.35 5.13 44.43 6.92Z" fill="#B5E5EC" fill-opacity="1.000000" fill-rule="evenodd"/>
</svg>
