<svg width="122.133057" height="169.867920" viewBox="0 0 122.133 169.868" fill="none" xmlns="http://www.w3.org/2000/svg" xmlns:xlink="http://www.w3.org/1999/xlink">
	<desc>
			Created with Pixso.
	</desc>
	<defs/>
	<path id="Vector" d="M12.21 152.14C12.21 160.48 10.5 158.99 31.26 158.99C42.14 158.99 108.05 159.44 109.36 158.63C111.12 157.02 110.49 154.97 110.58 152.25C116.2 153.85 117.6 157.97 117.16 164.95L5.15 165.03C4.34 159.1 5.7 152.91 12.21 152.14ZM16.92 111.42L27.19 111.42C27.33 117.25 27.22 123.21 27.22 129.05C27.21 140.5 31.98 147.09 44.13 147.06L79.06 147.06C84.64 147.07 89.14 145.25 91.61 142.35C94.75 138.69 95.57 135.06 95.57 128.68C95.56 122.98 95.44 117.11 95.59 111.42L105.88 111.45L105.79 154.34L16.92 154.34L16.92 111.42ZM90.81 111.42C90.96 116.38 90.84 121.5 90.84 126.48C90.84 131.87 91.18 135.71 88.26 139C85.27 142.39 81.7 142.34 76.48 142.34L46.33 142.34C40.15 142.34 38.11 142.64 34.54 139C31.3 135.7 31.89 131.74 31.89 126.48C31.89 121.53 31.73 116.34 31.93 111.42L41.83 111.5C42.64 118.38 47.09 123.43 53.45 124.87C54.23 128.16 55.93 134.81 58.07 136.42C59.86 137.76 62.74 137.63 64.39 136.08C65.86 134.7 66.27 132.82 66.94 130.54C69.25 122.75 68.23 125.57 72.01 123.46C76.02 121.23 79.21 117.1 79.81 111.42L90.81 111.42ZM61.04 132.64C60.02 131.68 58.92 127.06 58.47 125.37L63.61 125.38C63.17 126.99 61.98 131.74 61.04 132.64ZM75.02 111.43C74.74 114.84 72.55 117.52 70.65 118.8C66.53 121.6 54.58 121.45 50.81 118.69C48.76 117.19 46.92 114.69 46.52 111.43L75.02 111.43ZM16.91 106.73C16.91 90.06 15.34 92.07 31.99 92.07L91.19 92.07C107.51 92.07 105.88 90.33 105.88 106.73L16.91 106.73ZM25.74 39.3C28.27 39.82 30.78 41.01 33.77 41.6C43.31 43.5 51.16 42.53 60.61 40.74C71.19 38.74 81.06 36.22 91.94 37.42C96.69 37.94 95.74 36.75 95.74 43.76C91.28 43.76 86.82 43.76 82.37 43.76C78.54 43.76 71.55 42.43 73 47.22C74.42 49.04 76.38 48.5 79.06 48.49L100.38 48.49L100.38 57.9C97.32 57.9 94.25 57.91 91.18 57.9C87.88 57.88 85.45 57.56 86.05 61.52C88.55 63.2 90.85 62.55 95.65 62.55C96.6 73.32 90.4 72.73 81.68 74.69C67.05 77.99 70.05 76.97 68.94 87.42L52.66 87.42C51.66 76.94 53.92 77.85 39.41 74.58C30.66 72.61 25.17 73.34 25.79 62.55L68.76 62.55C77.36 62.55 79.89 63.65 79.42 59.02C76.38 56.92 70.03 57.9 65.82 57.9C58.65 57.9 23.57 58.31 21.51 57.61L21.51 48.69C24.01 48.1 29.39 49.23 30.74 47.65C31.76 46.46 31.28 44.69 30.17 44.1C29.07 43.52 27.17 43.76 25.74 43.76L25.74 39.3ZM100.38 27.57C98.31 27.57 93.54 27.01 92.29 28.32C91.56 29.08 90.04 32.27 95.74 32.27C95.28 33.32 96.56 33.2 93.97 32.98C93.41 32.93 92.29 32.73 91.57 32.66C73.63 30.84 57.7 38.86 40.81 37.85C37.77 37.66 34.81 37.08 32.05 36.35C25.92 34.72 25.74 34.6 25.74 32.27L47.77 32.26C49.96 32.02 51.05 29.86 49.65 28.32C47.79 26.27 26.24 28.41 21.5 27.39L21.57 18.25C26.83 17.18 73.34 19.41 77.32 17.45C79.09 11.83 72.07 13.44 67.66 13.44L25.9 13.44C24.06 3.59 31.55 4.83 38.98 4.83L82.73 4.83C85.57 4.83 90.91 4.46 92.98 5.56C95.34 6.81 96.43 10.01 95.5 13.44C92.72 13.44 89.89 13.39 87.12 13.42C83.84 13.47 82.13 15.75 84.32 17.52C85.77 18.68 97.53 18.1 100.37 18.1L100.38 27.57ZM20.96 13.23C15.94 15.64 16.92 13.34 16.92 28.67C16.92 30.83 18.96 32.18 20.96 32.35L20.96 43.75C18.83 43.93 16.92 45.18 16.92 47.43L16.92 58.82C16.92 60.97 18.77 62.45 20.96 62.5C20.96 69.05 21.63 75.3 30.29 77.44C36.1 78.87 41.73 79.92 47.44 81.25C48.04 83.86 47.8 84.01 47.8 87.14L23.9 87.14C17.66 87.14 12.14 89.68 12.14 95.96L12.14 147.43C8.15 147.43 5.63 149.63 3.58 151.75C-0.38 155.84 0.01 160.79 0.01 166.19C0.01 168.38 0.75 169.86 2.95 169.86L119.13 169.86C122.77 169.86 122.07 165.76 122.07 162.14C122.07 158.06 120.96 154.59 119.03 152.32C117.19 150.15 114.2 147.73 110.68 147.43C110.68 142.19 111.15 96.99 110.33 94.1C108.99 89.37 105.35 87.14 99.28 87.14L73.54 87.14C73.54 79.2 72.28 82.05 91.05 77.44C94.47 76.59 96.37 75.18 98.24 72.86C100.5 70.06 100.38 67.74 100.38 62.87C101.75 62.21 102.52 62.63 103.77 61.48C105.91 59.53 105.16 52.6 105.16 48.53C105.16 45.55 103.41 43.75 100.38 43.75L100.38 32.35C106.66 32.21 105.16 25.44 105.16 17.64C105.16 15.04 102.91 13.44 100.38 13.23C100.38 8.33 100.44 6.18 97.91 3.57C95.77 1.35 93.56 0 89.35 0L31.63 0C28.31 0 24.97 1.72 23.47 3.6C21.22 6.43 20.96 8.3 20.96 13.23Z" fill="#232828" fill-opacity="1.000000" fill-rule="evenodd"/>
	<path id="Vector" d="M25.74 39.3L25.74 43.76C27.17 43.76 29.07 43.52 30.17 44.1C31.28 44.69 31.76 46.46 30.74 47.65C29.39 49.23 24.01 48.1 21.51 48.69L21.51 57.61C23.57 58.31 58.65 57.9 65.82 57.9C70.03 57.9 76.38 56.92 79.42 59.02C79.89 63.65 77.36 62.55 68.76 62.55L25.79 62.55C25.17 73.34 30.66 72.61 39.41 74.58C53.92 77.85 51.66 76.94 52.66 87.42L68.94 87.42C70.05 76.97 67.05 77.99 81.68 74.69C90.4 72.73 96.6 73.32 95.65 62.55C90.85 62.55 88.55 63.2 86.05 61.52C85.45 57.56 87.88 57.88 91.18 57.9C94.25 57.91 97.32 57.9 100.38 57.9L100.38 48.49L79.06 48.49C76.38 48.5 74.42 49.04 73 47.22C71.55 42.43 78.54 43.76 82.37 43.76C86.82 43.76 91.28 43.76 95.74 43.76C95.74 36.75 96.69 37.94 91.94 37.42C81.06 36.22 71.19 38.74 60.61 40.74C51.16 42.53 43.31 43.5 33.77 41.6C30.78 41.01 28.27 39.82 25.74 39.3Z" fill="#2ECCFD" fill-opacity="1.000000" fill-rule="evenodd"/>
	<path id="Vector" d="M25.9 13.44L67.66 13.44C72.07 13.44 79.09 11.83 77.32 17.45C73.34 19.41 26.83 17.18 21.57 18.25L21.5 27.39C26.24 28.41 47.79 26.28 49.65 28.32C51.05 29.86 49.96 32.02 47.77 32.26L25.74 32.27C25.74 34.6 25.92 34.72 32.05 36.35C34.81 37.08 37.77 37.66 40.81 37.85C57.7 38.86 73.63 30.84 91.57 32.66C92.29 32.73 93.41 32.93 93.97 32.98C96.56 33.2 95.28 33.32 95.74 32.27C90.04 32.27 91.56 29.08 92.29 28.32C93.54 27.01 98.31 27.57 100.38 27.57L100.37 18.1C97.53 18.1 85.77 18.68 84.32 17.52C82.13 15.75 83.84 13.47 87.13 13.42C89.89 13.39 92.72 13.44 95.5 13.44C96.43 10.01 95.34 6.81 92.98 5.56C90.91 4.46 85.57 4.83 82.73 4.83L38.98 4.83C31.55 4.83 24.06 3.59 25.9 13.44Z" fill="#B5E5EC" fill-opacity="1.000000" fill-rule="evenodd"/>
	<path id="Vector" d="M16.92 154.34L105.79 154.34L105.88 111.45L95.59 111.42C95.44 117.11 95.56 122.98 95.57 128.68C95.57 135.06 94.75 138.69 91.61 142.36C89.14 145.25 84.64 147.07 79.06 147.06L44.13 147.06C31.98 147.09 27.21 140.51 27.22 129.05C27.22 123.21 27.33 117.25 27.19 111.42L16.92 111.42L16.92 154.34Z" fill="#B7B7B7" fill-opacity="1.000000" fill-rule="evenodd"/>
	<path id="Vector" d="M90.81 111.42L79.81 111.42C79.21 117.1 76.02 121.23 72.01 123.46C68.23 125.57 69.25 122.75 66.94 130.54C66.27 132.82 65.86 134.7 64.39 136.08C62.74 137.63 59.86 137.76 58.07 136.42C55.93 134.81 54.23 128.16 53.45 124.87C47.09 123.43 42.64 118.38 41.83 111.5L31.93 111.42C31.73 116.34 31.89 121.53 31.89 126.48C31.89 131.74 31.3 135.7 34.54 139C38.11 142.64 40.15 142.34 46.33 142.34L76.48 142.34C81.7 142.34 85.27 142.39 88.26 139C91.18 135.71 90.84 131.87 90.84 126.48C90.84 121.5 90.96 116.38 90.81 111.42Z" fill="#6F6F6F" fill-opacity="1.000000" fill-rule="evenodd"/>
	<path id="Vector" d="M83.48 97.31C85.91 95.59 87.47 96.24 92.66 96.24C97.27 96.24 97.29 100.93 92.66 100.93C86.39 100.93 82.82 101.89 83.48 97.31ZM31.26 100.93C26.64 100.93 26.65 96.24 31.26 96.24C36.5 96.24 37.96 95.6 40.44 97.3C41.08 101.88 37.61 100.93 31.26 100.93ZM68.39 100.93C66.44 100.93 64.8 100.52 64.84 98.55C64.9 95.42 69.75 96.24 73.91 96.24C79.01 96.24 78.98 100.93 73.93 100.93L68.39 100.93ZM50.01 100.93C44.95 100.93 44.92 96.24 50.01 96.24C54.08 96.24 59.43 95.39 59.07 98.82C58.77 101.71 53.94 100.93 50.01 100.93ZM16.92 106.73L105.88 106.73C105.88 90.33 107.51 92.07 91.19 92.07L31.99 92.07C15.34 92.07 16.92 90.06 16.92 106.73Z" fill="#ECECEC" fill-opacity="1.000000" fill-rule="evenodd"/>
	<path id="Vector" d="M12.21 152.14C5.7 152.91 4.34 159.1 5.15 165.03L117.16 164.95C117.6 157.97 116.2 153.85 110.58 152.25C110.49 154.97 111.12 157.02 109.36 158.63C108.05 159.44 42.14 158.99 31.26 158.99C10.5 158.99 12.21 160.48 12.21 152.14Z" fill="#B5E5EC" fill-opacity="1.000000" fill-rule="evenodd"/>
	<path id="Vector" d="M75.02 111.43L46.52 111.43C46.92 114.69 48.76 117.19 50.81 118.69C54.58 121.45 66.53 121.6 70.65 118.8C72.55 117.52 74.74 114.84 75.02 111.43Z" fill="#B5E5EC" fill-opacity="1.000000" fill-rule="evenodd"/>
	<path id="Vector" d="M50.01 100.93C53.94 100.93 58.77 101.71 59.07 98.82C59.43 95.39 54.08 96.24 50.01 96.24C44.92 96.24 44.95 100.93 50.01 100.93Z" fill="#232828" fill-opacity="1.000000" fill-rule="evenodd"/>
	<path id="Vector" d="M83.48 97.31C82.82 101.89 86.39 100.93 92.66 100.93C97.29 100.93 97.27 96.24 92.66 96.24C87.47 96.24 85.91 95.6 83.48 97.31Z" fill="#232828" fill-opacity="1.000000" fill-rule="evenodd"/>
	<path id="Vector" d="M31.26 100.93C37.61 100.93 41.08 101.88 40.44 97.3C37.96 95.6 36.5 96.24 31.26 96.24C26.65 96.24 26.64 100.93 31.26 100.93Z" fill="#232828" fill-opacity="1.000000" fill-rule="evenodd"/>
	<path id="Vector" d="M68.39 100.93L73.93 100.93C78.98 100.93 79.01 96.24 73.91 96.24C69.75 96.24 64.9 95.42 64.84 98.55C64.8 100.52 66.44 100.93 68.39 100.93Z" fill="#232828" fill-opacity="1.000000" fill-rule="evenodd"/>
	<path id="Vector" d="M61.04 132.64C61.98 131.74 63.17 126.99 63.61 125.38L58.47 125.37C58.92 127.06 60.02 131.68 61.04 132.64Z" fill="#B5E5EC" fill-opacity="1.000000" fill-rule="evenodd"/>
</svg>
