<svg width="169.672852" height="154.323242" viewBox="0 0 169.673 154.323" fill="none" xmlns="http://www.w3.org/2000/svg" xmlns:xlink="http://www.w3.org/1999/xlink">
	<desc>
			Created with Pixso.
	</desc>
	<defs/>
	<path id="Vector" d="M99.97 136.04C98.87 144.27 91.1 151.32 81.22 149.95C73 148.81 65.78 140.9 67.34 131.04C68.64 122.85 76.4 115.81 86.28 117.33C94.51 118.59 101.28 126.17 99.97 136.04ZM64.28 126.46L63.05 131.75C56.78 130.34 26.24 120.66 17.55 118.04C14.98 117.26 12.5 116.55 9.92 115.74C7.21 114.89 3.84 114.81 4.28 111.44C4.72 108.09 8.46 109.54 10.95 110.29L33.76 117.27C38.81 118.85 43.96 120.3 49.01 121.87C53.98 123.41 59.36 125.26 64.28 126.46ZM92.16 102.14C91.43 101.4 91.39 101.46 90.43 100.74C90.64 98.36 92.92 92.1 93.72 89.39C94.26 87.57 94.86 85.54 95.42 83.74C96.47 80.37 95.98 80.47 97.31 80.06C97.33 80.05 98.82 79.86 98.87 79.84L92.16 102.14ZM40.09 42.76C47.36 42.26 73.05 42.7 82.27 42.7C85.35 42.7 89.77 42 92.29 43.3C93.73 44.04 98.06 46.43 98.96 47.28C102.83 50.97 98.35 58.61 97.34 63.63C93.86 63.2 86.04 60.04 83.61 59.63C81.67 59.31 79.95 60.56 81.05 62.58C81.99 64.32 96.23 66.98 99.16 68.75L97.26 75.73C94.04 75.46 80.59 70.12 78.9 70.9C77.41 71.59 77.37 73.49 78.51 74.34L92.59 78.68L86.37 99.61L72.5 95.43C70.83 95.16 69.2 96.38 70 98.26C70.59 99.62 86.2 104 88.47 104.47L86.35 111.75L69.64 106.7C66.61 106.06 64.04 109.28 69.78 111.03C72.57 111.88 75.6 112.71 78.24 113.64C76.25 114.79 72.12 115.52 68.5 119.68C67.78 120.51 66.99 121.83 66.1 122.63L38.24 114.26C27.24 110.84 19.64 110.98 21.57 104.02C22 102.48 23.2 98.2 23.75 97.16C29.46 98.55 57.49 108.07 60.58 107.83C62.43 106.51 62.52 104.74 60.36 103.91C58.63 103.23 56.45 102.75 54.71 102.2C49.32 100.5 22.68 92.89 21.34 91.91L23.41 84.93C28.93 85.94 61.32 97.12 63.35 96.53C65.3 95.96 65.12 93.55 63.46 92.72L28.27 82.03L34.5 61.27C40.49 62.52 67.14 71.45 69.97 71.89C71.84 72.19 73.38 70.54 72.28 68.86C71.46 67.62 55.53 63.3 52.59 62.4L32.17 56.27L34.3 49.02C41.06 50.87 48.12 53.05 54.71 55.13C57.26 55.94 73.97 61.65 75.31 60.32C76.26 58.06 75.75 57.2 73.54 56.54L39.22 46.3L40.09 42.76ZM68.64 24.61C71.42 25.07 75.47 27.04 77.92 27.28C79.89 27.47 81.17 25.95 80.1 24.27C79.44 23.24 77.3 22.87 75.97 22.48C64.79 19.22 66.36 20.77 69.37 9.91C69.99 10.01 90.25 15.76 91.95 16.91C89.15 30.76 87.17 23.8 82.1 25.25C80.92 28.07 81.79 28.5 84.48 29.29C83.72 32.73 81.79 35.53 84.32 38.63L41.44 38.63C42.91 29.8 47.08 31.52 55.44 31.97C64.96 32.49 66.24 33.72 68.64 24.61ZM144.81 12.42C144.88 11.21 145.23 10.32 145.55 9.22C145.68 8.76 145.77 8.37 145.98 7.82L146.62 6.45C150.09 7.1 154.05 8.44 157.46 9.38C160.74 10.28 166.67 10.55 165.37 14.98C164.34 18.52 158.44 15.95 155.38 15.13C152.1 14.26 148.08 12.96 144.81 12.42ZM92.54 115.14C93.28 111.3 109.72 59 111.48 53.11C114.58 42.74 117.68 32.45 120.98 22.16C122.64 16.97 123.83 11.1 127.13 8.08C128.73 6.62 131.03 5.17 133.9 4.57C136.55 4.02 140.51 4.11 142.47 5.52L140.87 11.13C137.62 10.63 135.93 9.62 132.68 11.06C127.25 13.46 126.16 22.88 123.74 30.8C120.73 40.61 117.81 50.09 114.92 59.84C112.06 69.49 108.93 79.21 106.14 88.94C103.38 98.55 99.9 108.4 97.37 118.07C95.69 117.21 94.42 115.94 92.54 115.14ZM103.23 66.18C100.94 64.64 100.75 65.87 103.09 58.68C106.26 48.97 105.29 46.2 97.42 41.47L89.64 37.11C88.05 36.23 87.33 36.08 87.35 34.91C87.38 32.9 88.47 32.17 88.52 29.78C93.66 29.35 94.16 23.64 95.46 19.8C97.99 12.34 97.29 14.02 82.69 9.51C80.17 8.73 77.73 8.08 75.06 7.21C73.16 6.59 69.13 5.18 67.2 5.14C66.63 5.99 66.44 5.85 65.99 6.87C65.56 7.83 62.77 17.02 62.97 18.55C63.3 21.07 63.98 21.28 64.99 22.79C64.18 24.49 63.94 26.67 63.15 28.31C50.53 28.31 41.6 23.27 37.92 35.79C36.99 38.94 35.94 41.72 35.21 44.85C31.06 44.85 30.99 45.86 29.92 49.12C28.67 52.95 25.87 58.71 30.43 59.93C30.35 60.92 24.51 80.2 24.4 80.33C23.59 81.32 24.32 80.22 22.21 80.73C19.67 81.33 19.24 84.18 18.45 86.92C17.16 91.45 15.32 93.6 19.77 95.96C18.24 99.15 17.19 103.93 17.19 107.72C12.71 107.35 6.74 102.34 2.01 107.25C-1.98 111.39 0.62 116.75 4.1 118.25L63.15 136.04C63.39 138.86 64.4 141.13 65.48 143.27C71.47 155.21 88.19 158.29 98 148.45C104.5 141.92 106.47 131.64 101.84 123.82C100.09 120.87 100.27 121.93 100.94 120.19C103.65 113.14 110.43 88.9 113.57 78.72C115.44 72.68 117.13 66.48 119.09 60.34C120.98 54.38 122.85 48.22 124.69 42.04C125.65 38.8 126.41 36.2 127.37 32.95L131.59 19.16C133.79 12.48 136.32 14.44 143.01 16.1C146.82 17.04 160.08 20.95 162.8 20.95C170.24 20.95 172.7 9.81 164.78 7.21C160.67 5.85 139.9 0 136.69 0C130.1 0 124.47 3.87 121.17 9.11C120.3 10.49 119.79 11.68 119.28 13.46C116.09 24.46 112.05 36.09 109.04 46.98L103.23 66.18Z" fill="#232828" fill-opacity="1.000000" fill-rule="evenodd"/>
	<path id="Vector" d="M97.34 63.63C98.35 58.61 102.83 50.97 98.96 47.28C98.06 46.43 93.73 44.04 92.29 43.3C89.77 42 85.35 42.7 82.27 42.7C73.05 42.7 47.36 42.26 40.09 42.76L39.22 46.3L73.54 56.54C75.75 57.2 76.26 58.06 75.31 60.32C73.97 61.65 57.26 55.94 54.71 55.13C48.12 53.05 41.06 50.87 34.3 49.02L32.17 56.27L52.59 62.4C55.53 63.3 71.46 67.62 72.28 68.86C73.38 70.54 71.84 72.19 69.97 71.89C67.14 71.45 40.49 62.52 34.5 61.27L28.27 82.03L63.46 92.72C65.12 93.55 65.3 95.96 63.35 96.53C61.32 97.12 28.93 85.94 23.41 84.93L21.34 91.91C22.68 92.89 49.32 100.5 54.71 102.2C56.45 102.75 58.63 103.23 60.36 103.91C62.52 104.74 62.43 106.51 60.58 107.83C57.49 108.07 29.46 98.55 23.75 97.16C23.2 98.2 22 102.48 21.57 104.02C19.64 110.98 27.24 110.84 38.24 114.26L66.1 122.63C66.99 121.83 67.78 120.51 68.5 119.68C72.12 115.52 76.25 114.79 78.24 113.64C75.6 112.71 72.57 111.88 69.78 111.03C64.04 109.28 66.61 106.06 69.64 106.7L86.35 111.75L88.47 104.47C86.2 104 70.59 99.62 70 98.26C69.2 96.38 70.83 95.16 72.5 95.43L86.37 99.61L92.59 78.68L78.51 74.34C77.37 73.49 77.41 71.59 78.9 70.9C80.59 70.12 94.04 75.46 97.26 75.73L99.16 68.75C96.23 66.98 81.99 64.32 81.05 62.58C79.95 60.56 81.67 59.31 83.61 59.63C86.04 60.04 93.86 63.2 97.34 63.63Z" fill="#2ECDFE" fill-opacity="1.000000" fill-rule="evenodd"/>
	<path id="Vector" d="M99.97 136.04C101.28 126.17 94.51 118.59 86.28 117.33C76.4 115.81 68.64 122.85 67.34 131.04C65.78 140.9 73 148.81 81.22 149.95C91.1 151.32 98.87 144.27 99.97 136.04Z" fill="#6F6F6F" fill-opacity="1.000000" fill-rule="evenodd"/>
	<path id="Vector" d="M92.54 115.14C94.42 115.94 95.69 117.21 97.37 118.07C99.9 108.4 103.38 98.55 106.14 88.94C108.93 79.21 112.06 69.49 114.92 59.84C117.81 50.09 120.73 40.61 123.74 30.8C126.17 22.88 127.25 13.46 132.68 11.06C135.93 9.62 137.62 10.63 140.87 11.13L142.47 5.52C140.51 4.11 136.55 4.02 133.91 4.57C131.03 5.17 128.73 6.62 127.13 8.08C123.83 11.1 122.64 16.97 120.98 22.16C117.68 32.45 114.58 42.74 111.48 53.11C109.72 59 93.28 111.3 92.54 115.14Z" fill="#B7B7B7" fill-opacity="1.000000" fill-rule="evenodd"/>
	<path id="Vector" d="M68.64 24.61C66.24 33.72 64.96 32.49 55.44 31.97C47.08 31.52 42.91 29.8 41.44 38.63L84.32 38.63C81.79 35.53 83.72 32.73 84.48 29.29C81.79 28.5 80.93 28.07 82.1 25.25C87.17 23.8 89.15 30.76 91.95 16.91C90.25 15.76 69.99 10.01 69.37 9.91C66.36 20.77 64.79 19.22 75.97 22.48C77.3 22.87 79.44 23.24 80.1 24.27C81.17 25.95 79.89 27.47 77.92 27.28C75.47 27.04 71.42 25.07 68.64 24.61Z" fill="#B5E5EC" fill-opacity="1.000000" fill-rule="evenodd"/>
	<path id="Vector" d="M10.95 110.29C8.46 109.54 4.72 108.09 4.28 111.44C3.84 114.81 7.21 114.89 9.92 115.74C12.5 116.55 14.98 117.26 17.55 118.04C26.24 120.66 56.78 130.34 63.05 131.75L64.28 126.46C59.36 125.26 53.98 123.41 49.01 121.87C43.96 120.3 38.81 118.85 33.76 117.27L10.95 110.29Z" fill="#B7B7B7" fill-opacity="1.000000" fill-rule="evenodd"/>
	<path id="Vector" d="M144.81 12.42C148.08 12.96 152.1 14.26 155.38 15.13C158.44 15.95 164.34 18.52 165.37 14.98C166.67 10.55 160.74 10.28 157.46 9.38C154.05 8.44 150.09 7.1 146.62 6.45L145.98 7.82C145.77 8.37 145.68 8.76 145.55 9.22C145.23 10.32 144.88 11.21 144.81 12.42Z" fill="#B5E5EC" fill-opacity="1.000000" fill-rule="evenodd"/>
	<path id="Vector" d="M98.88 79.84C98.82 79.86 97.34 80.05 97.31 80.06C95.98 80.47 96.47 80.37 95.42 83.74C94.86 85.54 94.26 87.57 93.72 89.39C92.92 92.1 90.64 98.36 90.43 100.74C91.39 101.46 91.43 101.4 92.16 102.14L98.88 79.84Z" fill="#B5E5EC" fill-opacity="1.000000" fill-rule="evenodd"/>
</svg>
