<svg width="71" height="56" viewBox="0 0 71 56" fill="none" xmlns="http://www.w3.org/2000/svg">
<path d="M69.7449 14.5674C68.7414 14.5674 66.9852 14.8185 65.229 14.3163C63.9746 14.0652 61.2149 13.3118 54.9428 8.28937C51.1795 5.27591 50.4269 4.27143 47.6672 2.7647C43.9039 0.755734 42.1477 1.25798 41.3951 1.5091C40.3916 1.76022 39.6389 2.7647 37.8827 4.52255C36.1265 6.2804 35.123 7.28488 34.8721 8.54049C34.3703 10.5495 35.123 12.0562 36.1265 14.3163C37.3809 16.8275 43.1513 23.6078 43.653 24.11" stroke="black" stroke-width="2" stroke-miterlimit="10" stroke-linecap="round"/>
<path d="M34.6232 8.28977C35.1249 8.03865 37.8847 7.03417 40.1426 7.78753C40.6444 8.03865 41.8988 8.54089 42.9023 9.04314C42.9023 9.04314 43.4041 9.29426 43.9059 9.7965C46.6656 11.8055 52.6868 17.5813 55.4465 19.088C58.4571 20.8458 61.2168 22.3526 63.4748 21.3481C64.2274 20.8458 64.4783 20.5947 66.2345 18.3346C66.9871 17.5813 67.7398 16.0745 69.496 14.8189" stroke="black" stroke-width="2" stroke-miterlimit="10" stroke-linecap="round"/>
<path d="M53.9397 32.1458C52.9362 32.3969 51.18 32.648 49.4238 32.3969C47.4167 32.1458 45.4097 31.3924 39.1376 25.8677C35.3743 22.8543 34.3708 21.5987 31.862 20.3431C28.0987 18.3341 26.3425 18.8363 25.5899 19.0875C24.5863 19.3386 23.8337 20.3431 22.0775 22.1009C20.0704 23.8588 19.0669 24.8633 18.816 25.8677C18.3143 27.1233 18.5651 28.8812 20.0704 31.6435C21.3249 33.9036 23.5828 37.6704 27.5969 41.4372" stroke="black" stroke-width="2" stroke-miterlimit="10" stroke-linecap="round"/>
<path d="M18.8162 25.8662C19.5688 25.6151 22.0776 24.6106 24.5865 25.1128C25.0882 25.3639 26.3427 25.8662 27.3462 26.3684C27.3462 26.3684 27.848 26.6195 28.3497 27.1218C31.1095 29.1307 37.1307 34.9065 39.8904 36.4133C42.901 38.1711 45.6607 39.6778 47.9186 38.6733C48.6713 38.1711 48.9222 37.92 50.6784 35.6599C51.431 34.9065 52.1837 33.3998 53.9398 32.1442" stroke="black" stroke-width="2" stroke-miterlimit="10" stroke-linecap="round"/>
<path d="M34.8716 49.2222C34.8716 49.9755 34.3698 50.98 33.6172 52.2356C33.3663 52.4868 32.1119 54.2446 29.8539 54.7468C27.596 55.2491 25.8398 54.2446 23.5818 52.989C21.5748 51.7334 20.0695 50.7289 17.8115 48.7199C14.55 45.9576 8.77972 41.4374 6.77265 41.1863C4.76558 40.9352 3.0094 40.9352 3.0094 40.9352C3.0094 40.9352 7.27442 36.1639 8.27795 35.6616C9.53237 35.1594 10.7868 35.6616 13.0447 36.415C16.0553 37.6706 21.3239 41.9397 24.5854 44.702C27.3451 46.9621 28.8504 48.2177 31.1083 48.9711C32.1119 49.2222 35.6242 50.2267 36.8787 48.7199C37.6313 47.7155 37.3804 46.2087 36.8787 44.1998C36.126 41.6885 35.1225 39.9307 34.3698 38.9262" stroke="black" stroke-width="2" stroke-miterlimit="10" stroke-linecap="round"/>
<path d="M29.8527 32.6458L32.3615 35.9103" stroke="black" stroke-width="2" stroke-miterlimit="10" stroke-linecap="round"/>
<path d="M53.9387 32.1447C54.1896 31.1402 54.6914 28.629 53.9387 25.8667C53.4369 24.1088 52.4334 22.8532 51.9316 22.0999" stroke="black" stroke-width="2" stroke-miterlimit="10" stroke-linecap="round"/>
<path d="M47.6678 16.0693L49.1731 18.8317" stroke="black" stroke-width="2" stroke-miterlimit="10" stroke-linecap="round"/>
</svg>
