<svg width="35" height="30" viewBox="0 0 35 30" fill="none" xmlns="http://www.w3.org/2000/svg">
<path d="M27.7266 18.6854L5.57751 19.0067C5.37418 12.9375 10.1653 7.95338 16.2902 7.86095C22.4044 7.78038 27.5232 12.6162 27.7266 18.6854Z" stroke="white" stroke-miterlimit="10"/>
<path d="M4.39541 19.5379L28.6783 19.1892" stroke="white" stroke-miterlimit="10" stroke-linecap="round"/>
<path d="M16.167 7.70271C16.7135 7.69487 17.1421 7.2499 17.1244 6.70884C17.1066 6.16778 16.6492 5.73552 16.1028 5.74336C15.5563 5.7512 15.1277 6.19617 15.1454 6.73723C15.1631 7.27829 15.6205 7.71055 16.167 7.70271Z" stroke="white" stroke-miterlimit="10"/>
<path d="M9.70557 14.9712C9.99417 14.4576 10.4358 13.8234 11.0712 13.169C11.8903 12.3358 12.7189 11.8321 13.341 11.5084" stroke="white" stroke-miterlimit="10" stroke-linecap="round"/>
<path d="M3.98315 22.1946H30.3923" stroke="white" stroke-miterlimit="10" stroke-linecap="round"/>
<path d="M12.0518 23.7268L22.6141 23.6152" stroke="white" stroke-miterlimit="10" stroke-linecap="round"/>
<path d="M14.7532 25.1274L19.6292 25.1912" stroke="white" stroke-miterlimit="10" stroke-linecap="round"/>
<path d="M7.07434 29.0914C8.89751 29.0914 10.3755 27.6669 10.3755 25.9096C10.3755 24.1523 8.89751 22.7278 7.07434 22.7278C5.25117 22.7278 3.77319 24.1523 3.77319 25.9096C3.77319 27.6669 5.25117 29.0914 7.07434 29.0914Z" stroke="white" stroke-miterlimit="10"/>
<path d="M26.6725 1.66675C26.3454 2.06504 25.9855 2.63857 26.0345 3.32362C26.0836 4.02461 26.5417 4.34324 26.8197 4.99643C27.0651 5.56997 27.1796 6.46213 26.6234 7.84817" stroke="white" stroke-miterlimit="10" stroke-linecap="round"/>
<path d="M30.241 1.875C29.7829 2.71937 29.7011 3.43629 29.6848 3.86644C29.6684 4.63115 29.8647 5.23655 30.1592 6.08092C30.5191 7.18019 30.7154 7.24391 30.7972 7.81745C30.879 8.35912 30.8462 9.15569 30.2083 10.239" stroke="white" stroke-miterlimit="10" stroke-linecap="round"/>
<path d="M26.881 29.0914C28.7041 29.0914 30.1821 27.6669 30.1821 25.9096C30.1821 24.1523 28.7041 22.7278 26.881 22.7278C25.0578 22.7278 23.5798 24.1523 23.5798 25.9096C23.5798 27.6669 25.0578 29.0914 26.881 29.0914Z" stroke="white" stroke-miterlimit="10"/>
<path d="M7.07462 26.3639C7.33507 26.3639 7.54621 26.1604 7.54621 25.9094C7.54621 25.6583 7.33507 25.4548 7.07462 25.4548C6.81417 25.4548 6.60303 25.6583 6.60303 25.9094C6.60303 26.1604 6.81417 26.3639 7.07462 26.3639Z" stroke="white" stroke-miterlimit="10"/>
<path d="M26.8813 26.3639C27.1417 26.3639 27.3529 26.1604 27.3529 25.9094C27.3529 25.6583 27.1417 25.4548 26.8813 25.4548C26.6208 25.4548 26.4097 25.6583 26.4097 25.9094C26.4097 26.1604 26.6208 26.3639 26.8813 26.3639Z" stroke="white" stroke-miterlimit="10"/>
</svg>
