<svg width="36" height="36" viewBox="0 0 36 36" fill="none" xmlns="http://www.w3.org/2000/svg">
<path d="M24.0828 5.58486L4.69797 23.4791C-0.347919 18.2217 -0.0946503 9.96283 5.26295 5.01132C10.6206 0.0789301 19.0369 0.327462 24.0828 5.58486Z" stroke="white" stroke-miterlimit="10"/>
<path d="M4.07458 24.8942L25.3297 5.2793" stroke="white" stroke-miterlimit="10" stroke-linecap="round"/>
<path d="M5.0305 4.96463C5.50865 4.52338 5.53174 3.78531 5.08208 3.31611C4.63242 2.84691 3.88028 2.82425 3.40214 3.2655C2.92399 3.70675 2.9009 4.44482 3.35056 4.91402C3.80022 5.38322 4.55236 5.40588 5.0305 4.96463Z" stroke="white" stroke-miterlimit="10"/>
<path d="M5.12659 16.5962C4.97073 15.9079 4.85384 14.9903 4.89281 13.9006C4.95125 12.505 5.28245 11.3961 5.57468 10.6123" stroke="white" stroke-miterlimit="10" stroke-linecap="round"/>
<path d="M3.74341 26.6333H35.1955" stroke="white" stroke-miterlimit="10" stroke-linecap="round"/>
<path d="M13.3528 28.4717L25.932 28.3379" stroke="white" stroke-miterlimit="10" stroke-linecap="round"/>
<path d="M16.5698 30.1528L22.3769 30.2293" stroke="white" stroke-miterlimit="10" stroke-linecap="round"/>
<path d="M7.42479 34.9098C9.5961 34.9098 11.3563 33.2003 11.3563 31.0916C11.3563 28.9829 9.5961 27.2734 7.42479 27.2734C5.25348 27.2734 3.49329 28.9829 3.49329 31.0916C3.49329 33.2003 5.25348 34.9098 7.42479 34.9098Z" stroke="white" stroke-miterlimit="10"/>
<path d="M28.7395 8.46973C28.3499 8.94767 27.9213 9.63591 27.9797 10.458C28.0382 11.2992 28.5837 11.6815 28.9149 12.4653C29.2071 13.1536 29.3435 14.2242 28.6811 15.8874" stroke="white" stroke-miterlimit="10" stroke-linecap="round"/>
<path d="M32.9859 8.71875C32.4404 9.73199 32.343 10.5923 32.3235 11.1085C32.304 12.0261 32.5378 12.7526 32.8885 13.7658C33.3171 15.085 33.5509 15.1614 33.6483 15.8497C33.7457 16.4997 33.7068 17.4556 32.947 18.7556" stroke="white" stroke-miterlimit="10" stroke-linecap="round"/>
<path d="M31.0133 34.9098C33.1846 34.9098 34.9448 33.2003 34.9448 31.0916C34.9448 28.9829 33.1846 27.2734 31.0133 27.2734C28.842 27.2734 27.0818 28.9829 27.0818 31.0916C27.0818 33.2003 28.842 34.9098 31.0133 34.9098Z" stroke="white" stroke-miterlimit="10"/>
<path d="M7.42505 31.6368C7.73523 31.6368 7.98669 31.3926 7.98669 31.0914C7.98669 30.7901 7.73523 30.5459 7.42505 30.5459C7.11486 30.5459 6.8634 30.7901 6.8634 31.0914C6.8634 31.3926 7.11486 31.6368 7.42505 31.6368Z" stroke="white" stroke-miterlimit="10"/>
<path d="M31.0135 31.6368C31.3237 31.6368 31.5752 31.3926 31.5752 31.0914C31.5752 30.7901 31.3237 30.5459 31.0135 30.5459C30.7034 30.5459 30.4519 30.7901 30.4519 31.0914C30.4519 31.3926 30.7034 31.6368 31.0135 31.6368Z" stroke="white" stroke-miterlimit="10"/>
<path d="M20.598 23.258C20.8127 23.258 21.0227 23.2113 21.228 23.118C21.4333 23.0153 21.6153 22.8753 21.774 22.698C21.942 22.5207 22.0727 22.3107 22.166 22.068C22.2687 21.8253 22.32 21.564 22.32 21.284C22.32 20.9667 22.264 20.696 22.152 20.472C22.0493 20.2387 21.9093 20.0473 21.732 19.898C21.564 19.7487 21.368 19.6413 21.144 19.576C20.92 19.5013 20.696 19.464 20.472 19.464H19.66V18.904L21.76 16.16L22.236 15.67V15.614L21.48 15.698H19.366L18.82 17.126H18.344C18.2973 16.93 18.246 16.6967 18.19 16.426C18.1433 16.1553 18.0967 15.8847 18.05 15.614C18.0127 15.3433 17.98 15.082 17.952 14.83C17.9333 14.578 17.924 14.368 17.924 14.2H24.028V14.886L21.606 17.84L21.004 18.456V18.484L21.48 18.386C21.9187 18.4047 22.3107 18.4887 22.656 18.638C23.0107 18.778 23.3047 18.974 23.538 19.226C23.7807 19.4687 23.9627 19.7533 24.084 20.08C24.2147 20.4067 24.28 20.766 24.28 21.158C24.28 21.6247 24.1773 22.0447 23.972 22.418C23.776 22.7913 23.51 23.1087 23.174 23.37C22.838 23.6313 22.446 23.832 21.998 23.972C21.55 24.1027 21.0787 24.168 20.584 24.168C20.304 24.168 20.024 24.1447 19.744 24.098C19.464 24.0607 19.198 24.0047 18.946 23.93C18.7033 23.8553 18.4793 23.7667 18.274 23.664C18.078 23.5613 17.91 23.4493 17.77 23.328L18.288 21.872H18.694C18.75 21.9373 18.8247 22.026 18.918 22.138C19.0207 22.2407 19.1233 22.3527 19.226 22.474C19.338 22.5953 19.4453 22.7167 19.548 22.838C19.6507 22.9593 19.7393 23.062 19.814 23.146C19.9073 23.1647 20.01 23.188 20.122 23.216C20.2433 23.244 20.402 23.258 20.598 23.258Z" fill="white"/>
</svg>
