<svg width="50" height="63" viewBox="0 0 50 63" fill="none" xmlns="http://www.w3.org/2000/svg">
<path d="M17.4757 26.7258C12.6213 29.5895 7.28149 32.9304 2.42712 35.794C2.91256 41.044 2.91256 46.294 3.398 51.544C8.25237 54.4076 13.5922 57.2713 18.4465 59.6576C23.3009 56.794 28.1553 53.9304 32.5242 50.5895C32.5242 45.3395 32.5242 40.5667 32.5242 35.3167C27.1844 32.9304 22.33 30.0667 17.4757 26.7258Z" stroke="black" stroke-width="2" stroke-miterlimit="10" stroke-linecap="round"/>
<path d="M32.5302 2.86206C27.6759 5.7257 22.3361 9.06661 17.4817 11.9302C17.9671 17.1802 17.9671 22.4302 18.4526 27.6802C23.3069 30.5439 28.6467 33.4075 33.5011 35.7939C38.3555 32.9302 43.2098 30.0666 47.5788 26.7257C47.5788 21.4757 47.5788 16.703 47.5788 11.453C42.239 9.06661 37.3846 5.7257 32.5302 2.86206Z" stroke="black" stroke-width="2" stroke-miterlimit="10" stroke-linecap="round"/>
<path d="M32.5303 22.4319C36.4138 22.4319 36.4138 16.7046 32.5303 16.7046C28.6468 16.7046 28.6468 22.4319 32.5303 22.4319Z" fill="black"/>
<path d="M38.8289 33.4092C44.6541 38.6592 46.5959 45.8183 44.1687 51.5456C42.7124 54.8865 38.8289 58.2274 33.9745 58.7047C30.091 59.1819 25.7221 57.2728 23.2949 53.9319C21.3531 51.0683 21.3531 48.2047 21.3531 46.7728C21.3531 41.5228 24.2658 37.7047 26.693 34.3637C29.1201 31.5001 31.0619 29.591 33.0036 28.6365C34.9454 30.0683 36.8871 31.9774 38.8289 33.4092Z" fill="white" stroke="black" stroke-width="2" stroke-miterlimit="10" stroke-linecap="round"/>
<path d="M34.472 52.978C34.9575 52.5007 37.3847 51.5461 38.3555 49.1598C38.841 48.2052 38.841 47.2507 38.841 46.2961" fill="white"/>
<path d="M34.472 52.978C34.9575 52.5007 37.3847 51.5461 38.3555 49.1598C38.841 48.2052 38.841 47.2507 38.841 46.2961" stroke="black" stroke-width="2" stroke-miterlimit="10" stroke-linecap="round"/>
<path d="M39.4701 40.7575C39.3362 40.2217 38.7933 39.8959 38.2575 40.0299C37.7217 40.1638 37.3959 40.7067 37.5299 41.2425L39.4701 40.7575ZM38.0299 43.2425C38.1638 43.7783 38.7067 44.1041 39.2425 43.9701C39.7783 43.8362 40.1041 43.2933 39.9701 42.7575L38.0299 43.2425ZM37.5299 41.2425L38.0299 43.2425L39.9701 42.7575L39.4701 40.7575L37.5299 41.2425Z" fill="black"/>
</svg>
