<svg width="65" height="65" viewBox="0 0 65 65" fill="none" xmlns="http://www.w3.org/2000/svg">
<path d="M45.32 18.3019C44.2387 16.9198 44.6319 14.9947 44.9759 13.2671C45.1234 12.3785 45.7624 9.51556 48.22 7.19556C52.6929 2.95046 60.7539 3.24663 60.7539 3.24663C60.7539 3.29599 60.6556 6.10961 60.4098 8.1828C60.1149 10.3054 59.8692 12.3292 58.6403 14.353C58.2471 14.9947 56.8217 17.3641 53.9217 18.6475C51.4149 19.7828 47.0403 20.5232 45.32 18.3019Z" stroke="black" stroke-width="2" stroke-miterlimit="10" stroke-linecap="round"/>
<path d="M42.8147 5C42.8147 5 36.0316 7.51745 33.4265 12.6511C32.0503 15.4153 32.2469 18.2783 32.296 19.0681C32.4435 21.1413 33.0825 22.5728 33.4265 23.3132C34.1147 24.6953 34.6554 25.7319 35.6384 26.0281C37.8011 26.6698 40.5045 23.1157 40.7994 22.6715C42.6672 20.154 42.9621 17.3898 43.1588 15.6128C43.2571 14.5762 43.2079 14.3787 43.1588 13.3421C43.1096 12.3055 43.1096 11.417 43.1588 10.5285C43.1588 9.54128 43.1096 7.86298 42.8147 5Z" stroke="black" stroke-width="2" stroke-miterlimit="10" stroke-linecap="round"/>
<path d="M58.8377 21.9288C58.8377 21.9288 56.036 28.642 50.7767 31.0114C47.9258 32.2948 45.1241 31.9493 44.3377 31.8505C42.2733 31.6037 40.897 30.9127 40.1597 30.5178C38.8326 29.7773 37.8004 29.185 37.5547 28.1978C37.014 25.9765 40.6513 23.459 41.1428 23.1629C43.7479 21.3858 46.5004 21.2378 48.2699 21.0897C49.3021 21.0403 49.4987 21.0897 50.5309 21.1884C51.5631 21.2871 52.4479 21.2871 53.3326 21.3365C54.3648 21.3858 56.036 21.4846 58.8377 21.9288Z" stroke="black" stroke-width="2" stroke-miterlimit="10" stroke-linecap="round"/>
<path d="M28.9565 13.3906C28.9565 13.3906 22.7633 17.1915 21.2396 22.7693C20.404 25.7804 21.1412 28.4953 21.387 29.2851C21.9277 31.2596 22.8616 32.5923 23.3531 33.1847C24.287 34.4187 25.0243 35.3566 26.0565 35.4059C28.3175 35.6034 30.2345 31.6051 30.4802 31.1115C31.8073 28.2485 31.5616 25.4842 31.4141 23.7566C31.3158 22.72 31.2175 22.5719 30.9718 21.5353C30.726 20.5481 30.5785 19.6596 30.3819 18.7711C30.2345 17.7345 29.8412 16.1055 28.9565 13.3906Z" stroke="black" stroke-width="2" stroke-miterlimit="10" stroke-linecap="round"/>
<path d="M49.8455 34.7147C49.8455 34.7147 46.2082 41.033 40.7031 42.662C37.754 43.5505 35.0014 42.9088 34.215 42.662C32.1997 42.1684 30.9218 41.2799 30.2828 40.7862C29.054 39.8484 28.1201 39.1573 27.9726 38.1701C27.6777 35.8994 31.6591 33.8756 32.1506 33.6288C34.9523 32.2467 37.7048 32.3947 39.4743 32.4935C40.5065 32.5428 40.654 32.6416 41.6862 32.8884C42.6692 33.0858 43.554 33.2339 44.4879 33.382C45.4709 33.5794 47.093 33.925 49.8455 34.7147Z" stroke="black" stroke-width="2" stroke-miterlimit="10" stroke-linecap="round"/>
<path d="M16.8154 22.2773C16.8154 22.2773 11.0646 26.7199 10.1307 32.3965C9.63916 35.4569 10.6714 38.1225 10.9663 38.8629C11.7527 40.788 12.7849 41.9727 13.3256 42.565C14.407 43.7003 15.1934 44.5395 16.2256 44.4901C18.4866 44.4901 20.0103 40.2944 20.1578 39.7514C21.19 36.7897 20.6493 34.0254 20.3053 32.2978C20.1086 31.3105 20.0103 31.1131 19.6663 30.1259C19.3222 29.1386 19.0764 28.2995 18.8307 27.411C18.4866 26.4731 17.9459 24.8935 16.8154 22.2773Z" stroke="black" stroke-width="2" stroke-miterlimit="10" stroke-linecap="round"/>
<path d="M40.9507 46.1185C40.9507 46.1185 36.6253 51.9432 30.9236 52.9304C27.8761 53.4734 25.2219 52.4862 24.4846 52.19C22.5676 51.4496 21.3388 50.413 20.7981 49.87C19.6676 48.8334 18.832 47.9942 18.832 46.9576C18.832 44.687 23.01 43.1568 23.5015 42.9594C26.4507 41.9228 29.2032 42.4164 30.9236 42.7125C31.9066 42.91 32.1032 43.0087 33.0863 43.3542C34.0693 43.6998 34.9049 43.9466 35.7897 44.1934C36.7727 44.4402 38.3456 44.9832 40.9507 46.1185Z" stroke="black" stroke-width="2" stroke-miterlimit="10" stroke-linecap="round"/>
<path d="M44.6334 19.043C33.7707 29.9519 22.908 40.8608 11.9961 51.7204" stroke="black" stroke-width="2" stroke-miterlimit="10" stroke-linecap="round"/>
<path d="M3.24609 60.7526L10.1766 53.6445" stroke="black" stroke-width="2" stroke-miterlimit="10" stroke-linecap="round"/>
<path d="M55 13C54.8303 13.4 54.4909 14.0727 53.6909 14.7273C52.6727 15.5455 51.5333 15.8727 51 16" stroke="black" stroke-width="2" stroke-miterlimit="10" stroke-linecap="round"/>
<path d="M57.2383 9.05859C57.1594 9.20543 57.0543 9.40121 56.9229 9.64593C56.8615 9.76014 56.809 9.85802 56.7652 9.9396" stroke="black" stroke-width="2" stroke-miterlimit="10" stroke-linecap="round"/>
</svg>
