<svg width="207" height="248" viewBox="0 0 207 248" fill="none" xmlns="http://www.w3.org/2000/svg">
<g clip-path="url(#clip0_18_26)">
<path d="M31.1419 201.15L40.3302 197.218L50.6419 198.422L65.5676 213.509L54.2528 230.36L40.8518 233.69L37.9629 233.129L10.9597 229.277L31.1419 201.15Z" fill="url(#paint0_linear_18_26)"/>
<path d="M21.383 224.598C35.5972 218.429 45.2164 228.264 54.2279 224.351C63.2398 220.439 59.9842 207.824 59.9842 207.824C59.9842 207.824 52.9956 196.831 43.9814 200.741C34.9672 204.651 35.5956 218.429 21.383 224.598Z" fill="#FFD553"/>
<path d="M41.9848 235.181C38.1723 235.181 34.6093 234.152 30.9252 233.087C23.471 230.933 15.0226 228.492 1.8661 234.202C1.70676 234.275 1.53448 234.315 1.35932 234.32C1.18417 234.326 1.00967 234.297 0.846035 234.234C0.682403 234.171 0.532926 234.076 0.406351 233.955C0.279779 233.834 0.178656 233.689 0.108897 233.528C0.0391392 233.367 0.00214829 233.194 9.082e-05 233.019C-0.00196665 232.844 0.0309528 232.67 0.0969172 232.508C0.162882 232.345 0.260566 232.198 0.384257 232.073C0.507949 231.949 0.655163 231.851 0.817274 231.785C13.9922 226.067 18.1017 218.506 21.7329 211.836C24.7509 206.286 27.6022 201.044 34.8813 197.885C41.6374 194.953 48.5482 195.578 54.8626 199.692C59.5616 202.751 62.2455 206.629 62.3609 206.794C62.4565 206.932 62.5242 207.088 62.5603 207.252C62.6035 207.446 63.6034 212.058 62.6259 217.578C61.3147 225.004 57.0511 230.477 50.296 233.41C47.3309 234.698 44.5985 235.181 41.9848 235.181ZM17.369 228.014C22.8588 228.014 27.4104 229.329 31.653 230.556C37.6434 232.287 42.8178 233.782 49.2464 230.993C62.6132 225.193 60.4186 210.181 60.0366 208.069C58.7061 206.248 49.4133 194.448 35.9278 200.302C29.4799 203.101 26.961 207.731 24.044 213.095C21.334 218.077 18.3689 223.526 11.909 228.445C13.715 228.159 15.5406 228.015 17.369 228.014Z" fill="#371A45"/>
<path d="M141.04 128.466C141.04 128.466 158.154 135.658 161.055 140.101C163.956 144.545 153.318 144.656 153.318 144.656" fill="white"/>
<path d="M153.318 146.181C153.083 146.181 152.852 146.126 152.642 146.022C152.432 145.918 152.249 145.767 152.107 145.58L139.829 129.387C139.627 129.121 139.519 128.795 139.521 128.461C139.522 128.126 139.634 127.802 139.839 127.537C140.044 127.273 140.331 127.084 140.654 126.999C140.978 126.915 141.32 126.939 141.628 127.068C143.424 127.823 159.261 134.576 162.332 139.276C163.409 140.927 163.134 142.214 162.71 143.002C161.171 145.879 155.148 146.162 153.34 146.181H153.318ZM145.843 132.291L154.055 143.124C156.899 142.99 159.637 142.298 160.024 141.573C160.061 141.504 159.988 141.259 159.784 140.942C158.33 138.709 151.756 135.095 145.844 132.288L145.843 132.291Z" fill="#371A45"/>
<path d="M69.195 90.7586C62.5476 95.7408 56.4551 119.466 57.9951 133.611C59.5351 147.755 84.5343 148.81 98.83 148.348C113.126 147.885 113.077 115.563 112.89 106.905C112.597 93.3865 79.046 83.3757 69.195 90.7586Z" fill="white"/>
<g opacity="0.25">
<path opacity="0.25" d="M98.8305 148.348C84.5333 148.807 59.5356 147.746 57.9936 133.604C57.7896 131.616 57.7138 129.617 57.7672 127.62C61.7155 130.725 67.216 127.962 67.8782 124.17C71.9709 100.737 80.6995 91.7493 84.9193 88.6703C97.7813 90.4728 112.694 97.9115 112.886 106.908C113.079 115.567 113.127 147.893 98.8305 148.348Z" fill="#371A45"/>
</g>
<path d="M93.8468 149.953C76.5712 149.953 57.9096 146.866 56.4845 133.772C54.9954 120.09 60.6637 95.2541 68.281 89.5425C75.0378 84.4784 90.6248 86.8947 101.192 92.0392C109.595 96.1319 114.287 101.397 114.406 106.875C114.749 122.735 113.188 149.406 98.8758 149.87C97.2254 149.923 95.5399 149.953 93.8468 149.953ZM79.339 89.7551C75.407 89.7551 72.1077 90.4778 70.1104 91.9741C63.9716 96.5749 58.0271 119.829 59.5092 133.444C60.8926 146.145 84.7113 147.284 98.7858 146.833C111.26 146.431 111.576 116.198 111.375 106.941C111.284 102.722 107.09 98.2863 99.8691 94.7714C93.1581 91.5062 85.4762 89.7551 79.339 89.7551Z" fill="#371A45"/>
<path d="M70.5992 114.488L64.2539 111.958C63.9162 111.823 63.5531 111.762 63.1899 111.778C62.8263 111.794 62.4703 111.887 62.1453 112.051C61.8208 112.215 61.5344 112.446 61.3056 112.729C61.0767 113.012 60.9109 113.34 60.8188 113.692C59.4858 118.834 57.4331 129.491 62.6066 131.673C68.8771 134.322 71.1002 127.084 72.2018 117.149C72.2618 116.591 72.1377 116.029 71.8483 115.548C71.5589 115.068 71.1205 114.695 70.5992 114.488Z" fill="white"/>
<g opacity="0.25">
<path opacity="0.25" d="M72.1881 117.131C71.1098 127.071 68.903 134.311 62.6274 131.679C60.0493 130.603 59.2574 127.416 59.2783 123.856C59.8011 124.875 60.5508 125.664 61.6006 126.103C67.2175 128.457 69.5784 122.901 70.7798 114.572C71.2497 114.802 71.6373 115.171 71.889 115.629C72.1413 116.087 72.2455 116.612 72.1881 117.131Z" fill="#371A45"/>
</g>
<path d="M65.0463 133.63C64.1171 133.63 63.1274 133.412 62.0853 132.975C56.3498 130.572 57.4804 120.979 59.437 113.355C59.5773 112.809 59.8327 112.3 60.1851 111.86C60.5381 111.421 60.9801 111.062 61.4821 110.807C61.9846 110.551 62.5349 110.405 63.0979 110.379C63.6604 110.353 64.2224 110.447 64.7462 110.655L71.0966 113.17C71.9033 113.491 72.5833 114.066 73.0324 114.809C73.4814 115.551 73.6752 116.42 73.5847 117.283C72.5924 126.415 70.8698 131.079 67.8218 132.876C66.9826 133.375 66.0228 133.636 65.0463 133.63ZM63.2805 113.183C63.0236 113.184 62.7744 113.27 62.5715 113.427C62.368 113.584 62.2226 113.804 62.1575 114.052C60.3743 120.996 59.7035 128.932 63.1691 130.385C64.4869 130.936 65.5422 130.96 66.3951 130.457C69.5296 128.611 70.4797 119.856 70.792 116.98C70.8179 116.728 70.7609 116.474 70.6292 116.258C70.4975 116.042 70.2981 115.874 70.0626 115.782L63.7118 113.266C63.5744 113.212 63.4285 113.183 63.2805 113.183Z" fill="#371A45"/>
<path d="M68.2658 90.7896L75.7417 94.2404C78.2292 95.4097 80.7097 96.5673 83.1804 97.822C83.3549 97.91 83.4886 98.0621 83.5537 98.2462C83.6194 98.4308 83.6107 98.6327 83.5309 98.8112C83.451 98.9897 83.305 99.1301 83.124 99.2039C82.9429 99.2776 82.7405 99.2786 82.5584 99.2069L82.5457 99.2018C80.0276 98.2019 77.4424 97.2763 74.8725 96.3476L67.1326 93.6098L67.1189 93.6047C66.7639 93.4516 66.4801 93.1693 66.3249 92.8148C66.1703 92.4603 66.1561 92.0601 66.2853 91.6954C66.4144 91.3307 66.6774 91.0291 67.0207 90.8511C67.364 90.6731 67.7622 90.6319 68.135 90.7367C68.1757 90.753 68.2241 90.7713 68.2658 90.7896Z" fill="#371A45"/>
<path d="M183.12 86.2163C180.655 94.6265 161.935 110.2 135.074 110.978C132.401 111.058 129.725 110.99 127.059 110.773L124.662 100.536L122.744 92.3434C122.744 92.3434 126.916 91.5835 132.614 90.0674C137.119 88.8752 142.578 87.2116 147.694 85.0841C152.518 83.0782 157.042 80.6593 160.164 77.829C160.164 77.829 160.335 69.403 162.724 68.546C165.642 67.4973 167.803 73.4235 167.803 73.4235C167.803 73.4235 174.435 66.5976 178.305 67.2582C184.062 68.2378 185.829 76.9938 183.12 86.2163Z" fill="white"/>
<g opacity="0.35">
<path opacity="0.35" d="M184.329 79.341C184.192 81.6714 183.787 83.9789 183.12 86.2163C180.416 95.4387 158.163 113.28 127.059 110.772L122.744 92.3434C122.744 92.3434 124.039 92.1074 126.17 91.6364L131.213 101.403C156.902 109.144 180.108 88.8294 184.329 79.341Z" fill="#371A45"/>
</g>
<path d="M132.96 112.532C130.99 112.532 128.984 112.452 126.941 112.291C126.741 112.277 126.547 112.223 126.368 112.132C126.189 112.042 126.029 111.918 125.899 111.766C125.768 111.614 125.669 111.437 125.607 111.247C125.545 111.056 125.521 110.855 125.537 110.655C125.553 110.456 125.608 110.261 125.699 110.083C125.791 109.905 125.917 109.746 126.07 109.616C126.223 109.487 126.4 109.389 126.59 109.329C126.782 109.267 126.983 109.245 127.182 109.262C157.857 111.733 179.273 93.9296 181.663 85.7895C183.367 79.9788 183.201 74.1939 181.237 71.0503C180.426 69.7513 179.355 68.9803 178.053 68.758C175.932 68.3969 171.42 71.8874 168.895 74.4859L167.21 76.2207L166.381 73.9473C165.712 72.128 164.176 69.6944 163.266 69.9705C162.513 70.5081 161.762 74.2499 161.686 77.862L161.673 78.516L161.187 78.9565C150.365 88.7577 124.131 93.6418 123.02 93.8406C122.623 93.9129 122.214 93.8249 121.883 93.596C121.552 93.3666 121.325 93.0152 121.253 92.619C121.18 92.2228 121.268 91.8139 121.497 91.4823C121.726 91.1507 122.078 90.9238 122.474 90.8516C122.734 90.8043 148.169 86.0728 158.666 77.1291C158.784 74.0124 159.388 68.1416 162.212 67.1234C165.078 66.0894 167.164 68.785 168.292 70.8545C170.724 68.6487 175.165 65.1887 178.564 65.767C180.726 66.1347 182.541 67.4067 183.815 69.4446C186.254 73.3497 186.544 79.9421 184.578 86.649C181.822 96.0373 161.503 112.53 132.96 112.532Z" fill="#371A45"/>
<path d="M155.237 147.185C155.237 147.185 117.628 161.729 104.432 160.688C91.2366 159.647 77.0304 157.559 76.2523 132.53C75.7706 116.972 83.4658 101.664 89.3604 92.3129C92.9501 86.6155 95.871 83.1245 95.871 83.1245L132.183 84.9784C132.183 84.9784 132.325 86.8922 132.617 90.0674C132.799 92.0504 133.042 94.5238 133.35 97.3266C133.791 101.353 134.361 106.059 135.075 110.978C136.168 118.514 137.6 126.546 139.408 133.374C140.183 136.329 152.581 137.138 155.237 147.185Z" fill="white"/>
<path d="M134.257 100.846C135.616 105.275 136.394 109.753 137.181 114.227C137.968 118.702 138.691 123.177 139.616 127.605C139.851 128.71 140.101 129.811 140.36 130.91L140.76 132.551L140.863 132.961L140.87 132.986V132.981V132.971C140.87 132.964 140.868 132.958 140.865 132.953C140.861 132.947 140.856 132.943 140.851 132.939C140.855 132.941 140.859 132.943 140.863 132.946C140.87 132.951 140.863 132.957 140.874 132.969C140.894 132.987 140.913 133.006 140.93 133.026C140.982 133.08 141.038 133.131 141.097 133.177C141.381 133.407 141.831 133.658 142.295 133.899C142.759 134.14 143.266 134.37 143.781 134.604C144.808 135.07 145.878 135.547 146.935 136.083C149.049 137.148 151.165 138.451 152.936 140.255C153.833 141.159 154.609 142.172 155.248 143.273C155.884 144.382 156.372 145.569 156.701 146.804L157.055 148.124L155.78 148.609C149.8 150.886 143.798 152.997 137.728 154.981C131.658 156.964 125.538 158.792 119.285 160.268C116.155 160.996 112.998 161.651 109.735 162.018C108.106 162.204 106.455 162.327 104.724 162.228C104.28 162.217 103.9 162.175 103.497 162.148L102.298 162.043C101.496 161.971 100.694 161.893 99.891 161.796C96.6812 161.419 93.4104 160.849 90.25 159.686C88.654 159.105 87.1246 158.354 85.6888 157.447C84.2378 156.522 82.9099 155.416 81.7375 154.157C80.5795 152.896 79.578 151.5 78.7556 149.999C77.9363 148.526 77.2644 146.977 76.7492 145.372L76.5488 144.778L76.381 144.178L76.0489 142.974L75.7767 141.764L75.6425 141.158L75.5357 140.55L75.3241 139.334C75.2605 138.929 75.2158 138.522 75.1634 138.115C75.0454 137.303 74.9772 136.489 74.9091 135.675C74.6283 132.414 74.6573 129.133 74.995 125.878C75.3439 122.636 75.9522 119.428 76.8153 116.284C78.513 110.008 81.0779 104.033 84.0969 98.3408C85.6059 95.4947 87.115 92.6363 88.9469 89.9799C90.7789 87.324 92.8077 84.7978 95.4773 82.8061C95.5699 82.7364 95.6823 82.6998 95.7978 82.7019C95.9132 82.7039 96.0251 82.7441 96.1151 82.8163C96.2052 82.8885 96.2682 82.9887 96.2952 83.1011C96.3221 83.2135 96.3104 83.3315 96.2631 83.4368L96.254 83.4561C94.9204 86.3984 93.2914 89.0731 91.6369 91.7341C90.0099 94.4083 88.2542 97.0083 86.7844 99.775C83.8391 105.295 81.3724 111.081 79.7474 117.08C78.9275 120.067 78.3492 123.115 78.0171 126.194C77.6982 129.263 77.6713 132.354 77.9368 135.428C78.0019 136.198 78.0655 136.968 78.1779 137.728C78.2292 138.108 78.2709 138.492 78.3299 138.871L78.5283 140.001L78.6264 140.567L78.7505 141.125L79.0008 142.24L79.3034 143.334L79.456 143.881L79.6375 144.416C80.0922 145.839 80.6873 147.214 81.413 148.519C82.1185 149.808 82.9765 151.007 83.9693 152.09C85.9518 154.235 88.4973 155.803 91.3068 156.83C94.1163 157.856 97.1567 158.411 100.245 158.772C101.018 158.865 101.796 158.94 102.577 159.013L103.753 159.114C104.141 159.144 104.556 159.188 104.903 159.195C105.269 159.201 105.625 159.241 106 159.223L107.124 159.196C107.882 159.139 108.638 159.099 109.404 158.998C112.462 158.656 115.54 158.021 118.596 157.313C124.713 155.868 130.776 154.05 136.791 152.097C142.806 150.144 148.791 148.026 154.686 145.78L153.765 147.586C153.243 145.624 152.212 143.834 150.776 142.398C149.34 140.933 147.522 139.79 145.568 138.807C144.59 138.311 143.574 137.857 142.523 137.38C141.999 137.14 141.465 136.899 140.918 136.617C140.371 136.336 139.808 136.04 139.198 135.559C139.033 135.428 138.878 135.286 138.733 135.133L138.501 134.875C138.421 134.774 138.346 134.655 138.274 134.543C138.13 134.353 137.999 133.973 137.928 133.75L137.819 133.33L137.382 131.653C137.103 130.529 136.833 129.411 136.58 128.287C136.067 126.04 135.576 123.793 135.144 121.533C134.713 119.273 134.348 117.007 134.027 114.734C133.4 110.189 132.968 105.615 133.251 100.977C133.259 100.857 133.309 100.743 133.391 100.656C133.474 100.568 133.585 100.513 133.705 100.499C133.825 100.485 133.945 100.513 134.046 100.579C134.147 100.644 134.222 100.743 134.258 100.858L134.257 100.846Z" fill="#371A45"/>
<path d="M79.8974 223.651L73.3919 224.663C71.9465 224.887 70.467 224.717 69.1105 224.169C67.7546 223.621 66.5716 222.716 65.6882 221.551C60.3306 214.477 57.0104 206.073 56.0873 197.249C55.9353 195.794 56.1799 194.325 56.7948 192.999C57.4102 191.672 58.3735 190.536 59.5819 189.713L65.025 186.003" fill="#DE3E3E"/>
<g opacity="0.6">
<path opacity="0.6" d="M66.1815 189.734L60.7929 193.407C59.4568 194.318 58.3918 195.573 57.7118 197.041C57.0318 198.508 56.7617 200.132 56.9306 201.74C57.0623 203.004 57.2393 204.261 57.4611 205.512C56.809 203.063 56.3498 200.568 56.0873 198.049C55.9358 196.594 56.1809 195.126 56.7963 193.799C57.4112 192.473 58.374 191.337 59.5819 190.513L65.026 186.805L66.1815 189.734Z" fill="white"/>
</g>
<g opacity="0.35">
<path opacity="0.35" d="M60.1872 210.79C61.5192 213.445 63.0918 215.973 64.8846 218.342C65.768 219.508 66.9505 220.413 68.307 220.961C69.6634 221.509 71.1429 221.679 72.5883 221.453L78.6575 220.508L65.027 186.002L63.8648 186.794L73.9712 212.374L67.4606 213.387C66.1281 213.594 64.7646 213.466 63.4941 213.012C62.2236 212.558 61.0869 211.795 60.1872 210.79ZM72.7272 209.233L63.8623 186.795L64.229 186.545L73.1661 209.165L72.7272 209.233Z" fill="#371A45"/>
</g>
<path d="M81.0474 176.003C77.6642 169.375 66.0711 160.604 43.2665 175.074C43.2002 175.116 43.1482 175.177 43.1171 175.25C43.0861 175.322 43.0776 175.402 43.0927 175.479C43.1078 175.556 43.1457 175.627 43.2017 175.682C43.2576 175.737 43.3288 175.774 43.4061 175.788C47.201 176.465 65.0529 179.506 68.3212 188.788" fill="#FF5555"/>
<g opacity="0.6">
<path opacity="0.6" d="M47.1068 176.099C45.4698 175.749 44.1593 175.521 43.4066 175.386C43.3294 175.372 43.2583 175.336 43.2024 175.28C43.1465 175.225 43.1084 175.155 43.0933 175.078C43.0781 175.001 43.0865 174.921 43.1173 174.849C43.1482 174.777 43.2001 174.716 43.2662 174.673C66.0716 160.203 77.6642 168.976 81.0479 175.603L79.6696 176.987C75.2951 171.34 65.0138 166.188 47.1068 176.099Z" fill="white"/>
</g>
<path d="M68.3212 190.31C68.0069 190.31 67.6997 190.212 67.4434 190.03C67.1865 189.848 66.9927 189.591 66.888 189.295C65.796 186.191 61.2812 180.509 43.3195 177.315L43.1398 177.284C42.7611 177.216 42.4118 177.036 42.1375 176.766C41.8632 176.496 41.6767 176.15 41.6025 175.772C41.5283 175.395 41.5697 175.004 41.7214 174.651C41.8732 174.297 42.1281 173.998 42.4528 173.791C53.5388 166.757 63.2047 164.294 71.1811 166.475C78.2191 168.401 81.3729 173.296 82.4023 175.313C82.5854 175.672 82.6184 176.089 82.4943 176.472C82.3697 176.856 82.0981 177.174 81.7396 177.357C81.3805 177.54 80.9635 177.573 80.58 177.449C80.197 177.325 79.8786 177.053 79.6955 176.694C78.8497 175.037 76.2447 171.009 70.3805 169.406C63.9396 167.646 55.7506 169.526 46.5711 174.845C62.9341 178.23 68.2378 183.963 69.7554 188.285C69.8358 188.514 69.8602 188.76 69.8267 189C69.7931 189.24 69.702 189.47 69.5617 189.667C69.4213 189.866 69.2357 190.028 69.02 190.139C68.8044 190.251 68.5648 190.309 68.3222 190.31H68.3212Z" fill="#371A45"/>
<path d="M98.1429 219.276C100.203 226.426 97.8866 241.139 71.3489 246.159C71.2721 246.173 71.1922 246.163 71.1205 246.132C71.0488 246.1 70.9883 246.048 70.9471 245.981C70.9054 245.915 70.885 245.837 70.8876 245.759C70.8906 245.681 70.9171 245.605 70.9639 245.542C73.2719 242.455 84.0634 227.624 80.1039 218.613" fill="#D25658"/>
<path d="M71.3494 246.163C71.2721 246.176 71.1928 246.167 71.121 246.135C71.0493 246.103 70.9888 246.05 70.9471 245.984C70.9059 245.917 70.8856 245.84 70.8881 245.761C70.8911 245.683 70.9176 245.607 70.9644 245.544C72.1454 243.963 75.5535 239.3 78.0639 233.916C80.4381 228.829 82.0086 223.096 80.1436 218.713C80.1309 218.681 80.1146 218.647 80.1019 218.616H80.2117L98.1409 219.271C98.7192 221.278 98.9536 223.882 98.4008 226.7C96.995 233.922 90.4397 242.548 71.3494 246.163Z" fill="#FF5555"/>
<g opacity="0.35">
<path opacity="0.35" d="M78.0639 233.916C80.4386 228.829 82.0091 223.096 80.1441 218.713C80.1665 218.682 80.1889 218.65 80.2123 218.619L98.1409 219.275C98.7197 221.281 98.9541 223.885 98.4013 226.704C94.123 230.334 87.6373 233.184 78.0639 233.916Z" fill="#371A45"/>
</g>
<path d="M71.2706 247.688C70.9171 247.686 70.5712 247.587 70.2712 247.4C69.9711 247.214 69.729 246.948 69.5708 246.632C69.4132 246.316 69.3455 245.962 69.3765 245.61C69.4076 245.259 69.5352 244.922 69.7458 244.638C72.7196 240.66 82.1556 227.069 78.7114 219.231C78.5486 218.862 78.539 218.442 78.6849 218.066C78.8309 217.69 79.1208 217.387 79.49 217.224C79.8593 217.061 80.2784 217.051 80.6547 217.197C81.0311 217.343 81.3342 217.633 81.497 218.002C85.0022 225.979 78.3676 237.609 73.8944 244.072C84.0913 241.704 91.2885 237.48 94.8009 231.771C98.1907 226.262 97.0993 221.135 96.6848 219.695C96.5729 219.308 96.6197 218.892 96.815 218.539C97.0098 218.186 97.3368 217.926 97.7243 217.814C98.1114 217.702 98.5269 217.749 98.8799 217.945C99.2323 218.139 99.4933 218.466 99.6046 218.853C100.246 221.087 101.321 226.973 97.3892 233.363C93.0391 240.434 84.3736 245.24 71.6347 247.652C71.5147 247.676 71.3926 247.687 71.2706 247.688Z" fill="#371A45"/>
<path d="M205.349 152.157C205.349 152.157 199.386 190.092 150.253 213.524C108.394 233.485 79.4539 223.651 79.4539 223.651C70.1588 213.28 64.8841 199.924 64.5835 186C64.5835 186 71.0107 173.967 88.4602 161.797C89.0604 161.379 89.6758 160.958 90.3059 160.539C97.1206 155.99 105.496 151.472 115.675 147.62C118.076 146.711 120.579 145.84 123.185 145.01C123.288 144.976 123.39 144.946 123.493 144.916C134.005 141.6 143.627 139.936 152.285 139.379C152.562 139.36 152.835 139.345 153.109 139.329C186.517 137.465 205.349 152.157 205.349 152.157Z" fill="white"/>
<path d="M180.296 193.799C177.03 174.275 169.677 155.661 158.718 139.176C188.891 138.975 205.789 152.157 205.789 152.157C205.789 152.157 202.461 173.324 180.296 193.799Z" fill="#FF5555"/>
<g opacity="0.6">
<path opacity="0.6" d="M205.162 154.51C205.632 152.745 205.789 151.756 205.789 151.756C205.789 151.756 188.892 138.574 158.718 138.775C159.426 139.839 160.118 140.913 160.795 141.994C186.372 142.345 201.948 152.254 205.162 154.51Z" fill="white"/>
</g>
<path d="M179.262 196.823L178.798 194.049C175.547 174.612 168.366 156.432 157.452 140.017L155.896 137.676L158.704 137.657C182.623 137.492 198.418 145.67 204.101 149.192C205.14 149.828 205.944 150.785 206.391 151.918C206.839 153.05 206.906 154.298 206.583 155.472C204.84 161.926 198.889 178.69 181.324 194.915L179.262 196.823ZM161.533 140.716C171.272 155.971 177.983 172.959 181.299 190.751C196.713 175.689 202.047 160.625 203.652 154.68C203.801 154.137 203.77 153.56 203.563 153.036C203.356 152.512 202.985 152.069 202.505 151.774C197.269 148.531 183.078 141.179 161.533 140.716Z" fill="#371A45"/>
<path d="M99.3244 227.593C86.9176 227.593 79.7087 225.192 79.4061 225.088L79.0298 224.961L78.7638 224.664C69.2229 214.026 63.8094 200.322 63.5037 186.035L63.4956 185.638L63.6828 185.287C63.8353 185.003 67.5095 178.225 76.7156 169.658C85.1553 161.803 100.067 150.899 123.163 143.565C135.274 139.719 147.232 137.732 158.708 137.657L159.529 137.651L159.983 138.335C171.108 155.069 178.44 173.598 181.771 193.407L182.073 194.226L181.329 194.918C172.903 202.707 162.812 209.429 151.343 214.9C129.469 225.332 111.132 227.561 99.6021 227.594L99.3244 227.593ZM80.7488 222.324C82.354 222.799 89.1748 224.613 99.7552 224.553C110.942 224.501 128.745 222.306 150.035 212.156C160.953 206.949 170.578 200.588 178.661 193.243C175.395 174.378 168.416 156.711 157.906 140.704C146.986 140.865 135.612 142.8 124.083 146.461C83.6072 159.314 68.3782 183.295 66.5523 186.388C66.9342 199.659 71.9582 212.375 80.7488 222.324Z" fill="#371A45"/>
<path d="M72.1377 226.279C70.6531 226.279 69.1883 225.936 67.8594 225.274C66.5299 224.613 65.3723 223.652 64.4767 222.468C58.9513 215.174 55.5274 206.506 54.5758 197.405C54.3937 195.678 54.6841 193.933 55.415 192.357C56.1453 190.781 57.2902 189.433 58.7259 188.456L64.1695 184.747C64.3338 184.63 64.5204 184.546 64.7178 184.502C64.9156 184.457 65.1196 184.453 65.3189 184.488C65.5178 184.524 65.708 184.599 65.8779 184.709C66.0477 184.819 66.1937 184.962 66.3076 185.129C66.4216 185.296 66.5009 185.484 66.5411 185.683C66.5813 185.881 66.5818 186.085 66.5416 186.284C66.5019 186.482 66.4231 186.671 66.3092 186.838C66.1957 187.005 66.0498 187.148 65.8799 187.259L60.4379 190.967C59.4553 191.636 58.672 192.558 58.1721 193.636C57.6721 194.714 57.4733 195.908 57.5979 197.09C58.492 205.639 61.7084 213.781 66.8986 220.632C67.6152 221.581 68.576 222.317 69.6786 222.763C70.7808 223.208 71.9831 223.345 73.158 223.161L79.6665 222.149C80.0647 222.088 80.4711 222.186 80.7966 222.424C81.1221 222.662 81.3398 223.019 81.4013 223.417C81.4634 223.815 81.3647 224.222 81.1267 224.547C80.8892 224.873 80.5316 225.09 80.1334 225.152L73.6254 226.164C73.1336 226.241 72.6361 226.279 72.1377 226.279Z" fill="#371A45"/>
<g opacity="0.35">
<path opacity="0.35" d="M158.957 193.673C167.119 185.512 167.119 172.278 158.957 164.117C150.795 155.955 137.562 155.955 129.4 164.117C121.239 172.278 121.239 185.512 129.4 193.673C137.562 201.835 150.795 201.835 158.957 193.673Z" fill="#371A45"/>
</g>
<path d="M144.64 195.106C155.02 195.106 163.434 186.692 163.434 176.312C163.434 165.933 155.02 157.518 144.64 157.518C134.261 157.518 125.846 165.933 125.846 176.312C125.846 186.692 134.261 195.106 144.64 195.106Z" fill="#FF5555"/>
<g opacity="0.6">
<path opacity="0.6" d="M163.126 173.305C162.998 172.897 162.854 172.493 162.696 172.091C158.884 162.439 147.965 157.706 138.312 161.518C129.802 164.879 125.115 173.759 126.737 182.43C123.742 173.085 128.477 162.894 137.731 159.239C147.387 155.426 158.303 160.16 162.119 169.815C162.565 170.944 162.902 172.112 163.126 173.305Z" fill="white"/>
</g>
<g opacity="0.35">
<path opacity="0.35" d="M151.544 193.791C141.892 197.604 130.974 192.874 127.16 183.219C125.999 180.29 125.596 177.116 125.989 173.991C126.203 175.392 126.574 176.765 127.095 178.083C130.908 187.738 141.826 192.472 151.48 188.659C154.62 187.419 157.367 185.357 159.434 182.687C161.5 180.019 162.809 176.842 163.224 173.492C164.519 181.963 159.853 190.508 151.544 193.791Z" fill="#371A45"/>
</g>
<path d="M144.635 196.637C139.565 196.645 134.673 194.762 130.918 191.355C127.162 187.948 124.813 183.263 124.329 178.216C123.845 173.168 125.261 168.122 128.301 164.064C131.341 160.005 135.785 157.226 140.765 156.271C145.745 155.317 150.902 156.253 155.228 158.899C159.553 161.545 162.736 165.709 164.154 170.578C165.572 175.446 165.122 180.668 162.894 185.223C160.665 189.777 156.818 193.336 152.104 195.205C149.727 196.149 147.193 196.635 144.635 196.637ZM144.644 159.028C142.101 159.028 139.59 159.59 137.289 160.672C134.988 161.755 132.955 163.332 131.333 165.291C129.712 167.249 128.543 169.542 127.91 172.005C127.277 174.467 127.195 177.04 127.67 179.538C128.146 182.035 129.166 184.398 130.66 186.456C132.153 188.514 134.083 190.217 136.31 191.443C138.537 192.67 141.008 193.389 143.546 193.551C146.084 193.713 148.626 193.313 150.991 192.378C154.727 190.898 157.831 188.161 159.767 184.639C161.704 181.117 162.353 177.03 161.602 173.082C160.851 169.133 158.747 165.57 155.652 163.005C152.558 160.44 148.667 159.034 144.647 159.028H144.644Z" fill="#371A45"/>
<path d="M153.221 184.477C157.89 179.807 157.89 172.237 153.221 167.567C148.551 162.898 140.981 162.898 136.311 167.567C131.642 172.237 131.642 179.807 136.311 184.477C140.981 189.146 148.551 189.146 153.221 184.477Z" fill="#A8F5FF"/>
<g opacity="0.3">
<path opacity="0.3" d="M149.159 187.144C146.21 188.309 142.918 188.254 140.009 186.992C137.1 185.73 134.811 183.365 133.646 180.416C133.133 179.125 132.851 177.753 132.813 176.365C132.857 176.49 132.904 176.613 132.953 176.741C133.985 179.359 135.907 181.528 138.381 182.869C140.856 184.209 143.723 184.633 146.48 184.068C149.236 183.502 151.705 181.983 153.451 179.776C155.198 177.57 156.11 174.819 156.028 172.006C157.07 174.928 156.936 178.14 155.654 180.964C154.373 183.789 152.044 186.005 149.159 187.144Z" fill="white"/>
</g>
<g opacity="0.35">
<path opacity="0.35" d="M156.849 176.64C156.781 176.446 156.713 176.253 156.636 176.059C155.621 173.488 153.748 171.349 151.333 170.004C148.919 168.659 146.113 168.192 143.394 168.683C140.674 169.173 138.208 170.59 136.416 172.693C134.623 174.796 133.614 177.455 133.56 180.219C133.005 178.566 132.818 176.813 133.011 175.08C133.205 173.348 133.775 171.679 134.682 170.19C135.589 168.701 136.81 167.429 138.261 166.462C139.711 165.495 141.355 164.856 143.078 164.591C144.801 164.327 146.561 164.442 148.235 164.929C149.908 165.416 151.455 166.263 152.768 167.411C154.079 168.559 155.124 169.98 155.829 171.574C156.534 173.168 156.883 174.897 156.849 176.64Z" fill="#371A45"/>
</g>
<path d="M144.763 189.506C142.06 189.5 139.422 188.684 137.189 187.163C134.955 185.642 133.229 183.486 132.233 180.974C129.505 174.063 132.904 166.219 139.815 163.489C146.726 160.758 154.57 164.16 157.3 171.072C160.03 177.983 156.628 185.825 149.717 188.556C148.141 189.182 146.459 189.504 144.763 189.506ZM144.754 165.585C143.445 165.585 142.148 165.833 140.931 166.315C135.579 168.429 132.945 174.5 135.06 179.857C135.563 181.132 136.313 182.295 137.266 183.279C138.219 184.265 139.357 185.052 140.614 185.598C141.872 186.143 143.224 186.435 144.594 186.458C145.965 186.481 147.327 186.233 148.601 185.729C153.954 183.615 156.588 177.544 154.474 172.187C153.701 170.24 152.362 168.569 150.629 167.392C148.896 166.214 146.849 165.585 144.754 165.585Z" fill="#371A45"/>
<g opacity="0.2">
<path opacity="0.2" d="M183.786 150.387C183.695 147.533 177.768 145.296 174.41 145.322C170.936 145.349 168.844 145.948 168.83 147.63C168.808 149.979 171.515 150.807 174.733 150.929C177.008 151.015 183.898 153.91 183.786 150.387Z" fill="white"/>
</g>
<g opacity="0.2">
<path opacity="0.2" d="M192.496 153.993C192.309 151.519 189.319 149.214 187.69 149.027C186.005 148.834 185.019 149.221 185.096 150.675C185.202 152.705 186.558 153.589 188.126 153.896C189.236 154.113 192.726 157.046 192.496 153.993Z" fill="white"/>
</g>
<g opacity="0.35">
<path opacity="0.35" d="M79.0933 220.842C79.0933 220.842 108.033 230.676 149.89 210.717C192.399 190.445 202.59 159.324 204.567 151.296C204.769 151.43 204.945 151.55 205.097 151.656C204.48 151.228 203.457 150.549 202.036 149.723C196.264 162.839 182.526 183.942 150.883 199.033C131.119 208.457 114.236 211.239 101.919 211.551C86.1908 211.952 72.0447 201.853 67.5893 186.761C67.5644 186.681 67.5405 186.594 67.5156 186.512C67.3421 185.912 67.1789 185.309 67.0258 184.703C66.9459 184.453 66.8615 184.205 66.7852 183.952C66.7603 183.872 66.7364 183.785 66.7115 183.703C66.6866 183.62 66.6632 183.523 66.6377 183.434L66.6937 183.354C65.5453 185.028 65.0229 186.002 65.0229 186.002C65.1196 190.488 65.735 194.947 66.8559 199.292C69.3414 207.27 73.515 214.619 79.0933 220.842Z" fill="#371A45"/>
</g>
<path d="M77.0406 210.525C68.4234 213.927 57.2454 210.458 57.2454 210.458C57.2454 210.458 57.2668 210.419 57.3095 210.351C57.9595 209.247 63.5576 200.079 71.6474 196.879C79.4112 193.809 87.8677 196.959 89.3737 197.574C89.5288 197.637 89.6096 197.673 89.6096 197.673C89.6096 197.673 85.6003 207.148 77.0406 210.525Z" fill="#FF5555"/>
<g opacity="0.6">
<path opacity="0.6" d="M90.0114 198.073C90.0114 198.073 89.7709 198.651 89.2724 199.568C86.3907 198.57 79.2591 196.657 72.6295 199.278C66.1235 201.851 61.2293 208.284 59.2223 211.275C58.226 211.039 57.6447 210.859 57.6447 210.859C57.6447 210.859 57.6691 210.82 57.7098 210.75C58.3608 209.649 63.9594 200.479 72.0492 197.281C79.813 194.211 88.2669 197.361 89.7734 197.975C89.9306 198.038 90.0114 198.073 90.0114 198.073Z" fill="white"/>
</g>
<g opacity="0.35">
<path opacity="0.35" d="M77.0406 210.525C68.4234 213.927 57.2454 210.458 57.2454 210.458C57.2454 210.458 57.2668 210.419 57.3095 210.351L89.3737 197.574C89.5288 197.637 89.6096 197.673 89.6096 197.673C89.6096 197.673 85.6003 207.149 77.0406 210.525Z" fill="#371A45"/>
</g>
<path d="M68.1686 213.546C62.1702 213.546 57.1106 212.007 56.7943 211.909L54.9898 211.348L55.9246 209.705C56.1718 209.27 62.0817 199.026 71.091 195.465C80.138 191.888 89.8182 196.102 90.2261 196.283L91.5901 196.889L91.0093 198.263C90.8359 198.674 86.6496 208.366 77.5991 211.938C74.549 213.143 71.2355 213.546 68.1686 213.546ZM59.6536 209.505C63.1233 210.281 70.5397 211.459 76.4822 209.113C82.4247 206.768 86.0586 201.156 87.4969 198.509C84.633 197.563 78.1321 195.95 72.2074 198.293C66.2497 200.647 61.6524 206.569 59.6536 209.505Z" fill="#371A45"/>
<g opacity="0.25">
<path opacity="0.25" d="M119.855 179.529C121.051 181.245 129.316 195.19 122.664 200.732C116.841 205.586 106.095 204.788 100.435 197.157C96.6934 192.109 95.9341 186.289 96.1467 181.838C96.3974 176.638 97.3281 171.677 94.7338 167.783C93.3509 165.702 91.0719 163.851 88.4582 161.797C89.0583 161.379 89.6742 160.958 90.3039 160.539C97.1186 155.99 105.494 151.472 115.673 147.62C117.66 148.577 119.563 149.807 121.162 151.391C127.468 157.651 127.642 170.205 123.362 175.295C121.673 177.298 119.855 179.529 119.855 179.529Z" fill="#371A45"/>
</g>
<path d="M123.656 175.73C124.853 177.447 133.118 191.391 126.465 196.932C120.641 201.787 109.896 200.989 104.232 193.358C100.492 188.31 99.7313 182.491 99.9444 178.039C100.195 172.839 101.125 167.878 98.531 163.986C95.5796 159.549 84.0634 157.892 78.335 151.325C74.9584 147.459 73.1504 140.434 73.4581 131.831C73.5638 129.068 73.8588 126.315 74.3405 123.592C76.4669 111.43 82.416 97.4405 93.3702 85.0536C93.3702 85.0536 97.7238 102.467 102.286 117.937C105.464 128.721 108.746 138.56 110.718 140.887C110.98 141.199 111.22 141.373 111.432 141.404C114.042 141.763 116.586 142.501 118.984 143.592C121.141 144.579 123.226 145.879 124.955 147.588C131.26 153.847 131.435 166.402 127.153 171.492C125.473 173.501 123.656 175.73 123.656 175.73Z" fill="white"/>
<g opacity="0.25">
<path opacity="0.25" d="M128.591 193.753C128.207 194.997 127.469 196.102 126.467 196.932C120.644 201.787 109.898 200.989 104.235 193.358C100.494 188.314 99.7338 182.491 99.9464 178.039C100.197 172.839 101.124 167.878 98.533 163.989C95.5816 159.553 84.0654 157.89 78.3335 151.329C74.963 147.462 73.1529 140.431 73.4601 131.829C73.4601 131.791 73.4641 131.749 73.4641 131.711C73.4753 131.423 73.4906 131.134 73.5059 130.842C73.5211 130.575 73.5364 130.306 73.5547 130.032C73.5628 129.911 73.5699 129.786 73.5811 129.66C73.631 129.018 73.6879 128.368 73.7602 127.711C73.7947 127.4 73.8324 127.085 73.87 126.766C73.8965 126.545 73.927 126.321 73.9575 126.098C73.9799 125.911 74.0073 125.725 74.0379 125.536C74.0796 125.243 74.1253 124.951 74.1701 124.653C74.224 124.319 74.281 123.981 74.3379 123.643C74.3379 123.624 74.345 123.604 74.3491 123.585C74.5307 123.378 74.7234 123.18 74.9259 122.993C74.9259 122.993 76.0738 123.514 78.5237 124.148C82.417 125.158 89.5974 126.464 100.695 126.449L100.52 120.695C100.502 120.108 100.663 119.531 100.979 119.037C101.296 118.544 101.754 118.157 102.295 117.929C102.557 117.817 102.835 117.745 103.119 117.716L110.013 116.98L119.979 141.111L110.727 140.883L103.768 140.712C103.045 140.666 102.365 140.352 101.862 139.832C101.358 139.312 101.066 138.622 101.044 137.898L100.956 135.009C94.8686 136.373 84.7907 136.729 78.2694 134.579C78.7556 140.589 80.4304 145.444 83.0289 148.422C88.7567 154.989 97.3449 151.463 103.156 158.24C106.788 162.479 104.888 169.936 104.638 175.136C104.425 179.587 102.705 186.117 106.442 191.161C111.383 197.837 122.08 197.244 128.591 193.753Z" fill="#371A45"/>
</g>
<g opacity="0.25">
<path opacity="0.25" d="M147.701 85.0841C143.95 90.2388 139.035 94.4342 133.354 97.3266C127.901 100.085 121.891 101.568 115.781 101.664C109.67 101.76 103.618 100.465 98.0809 97.879C92.9964 95.4916 86.9161 97.7686 84.5989 102.886C81.2666 110.25 79.311 117.542 78.5227 124.152C76.0728 123.517 74.9254 122.997 74.9254 122.997C74.7229 123.184 74.5302 123.382 74.3486 123.589C76.4751 111.427 82.4236 97.4375 93.3784 85.0506L93.4923 86.2163C94.9469 84.2302 95.8741 83.1215 95.8741 83.1215L132.187 84.9748C132.187 84.9748 132.328 86.8892 132.62 90.0643C137.121 88.8752 142.58 87.2116 147.701 85.0841Z" fill="#371A45"/>
</g>
<path d="M112.165 141.005C114.137 140.979 116.119 141.299 118.031 141.878C119.943 142.458 121.802 143.279 123.513 144.42C124.377 144.996 125.192 145.64 125.952 146.346C126.718 147.078 127.411 147.882 128.021 148.748C129.234 150.473 130.076 152.394 130.66 154.357C131.223 156.319 131.541 158.342 131.607 160.381C131.7 162.424 131.521 164.471 131.074 166.468C130.609 168.474 129.878 170.493 128.483 172.269L124.83 176.688L124.899 174.86C125.204 175.308 125.44 175.701 125.688 176.116C125.936 176.53 126.163 176.938 126.386 177.353C126.838 178.184 127.262 179.026 127.659 179.881C128.471 181.605 129.148 183.388 129.683 185.216C130.202 187.068 130.583 189.008 130.535 191.063C130.508 192.086 130.383 193.141 130.044 194.179C129.709 195.242 129.168 196.228 128.451 197.081L128.178 197.402C128.084 197.504 127.978 197.596 127.878 197.693C127.674 197.876 127.47 198.094 127.263 198.232C126.847 198.533 126.443 198.858 126.011 199.13C125.566 199.382 125.128 199.645 124.675 199.88L123.276 200.481C121.384 201.161 119.386 201.498 117.376 201.476C115.382 201.46 113.404 201.124 111.518 200.48C109.626 199.853 107.868 198.847 106.301 197.62C105.909 197.312 105.51 197.011 105.166 196.648C104.821 196.286 104.437 195.965 104.111 195.589L103.164 194.437C102.851 194.05 102.593 193.639 102.307 193.24C101.241 191.6 100.383 189.833 99.7542 187.981C99.1423 186.14 98.739 184.237 98.5503 182.306C98.4511 181.349 98.4023 180.387 98.4048 179.424C98.4003 178.943 98.4186 178.461 98.4354 177.98L98.5157 176.588C98.6337 174.743 98.7949 172.951 98.798 171.222C98.8016 169.492 98.6378 167.832 98.0758 166.392C98.0137 166.209 97.9385 166.032 97.8505 165.86C97.7625 165.691 97.6959 165.508 97.5931 165.348L97.2986 164.857C97.2056 164.718 97.1044 164.584 96.9965 164.456C96.5515 163.936 95.9325 163.443 95.2419 162.996C93.8452 162.102 92.2198 161.353 90.577 160.606C87.2869 159.111 83.808 157.642 80.6405 155.389C79.0669 154.252 77.5746 152.932 76.3698 151.265C75.1837 149.622 74.3583 147.818 73.7332 145.989C73.13 144.17 72.6824 142.304 72.3956 140.409C72.1306 138.538 71.9755 136.653 71.9317 134.764C71.8626 131.003 72.1987 127.263 72.8142 123.583C74.0918 116.228 76.5198 109.119 79.8237 102.464C81.5092 99.1555 83.2272 95.8451 85.3506 92.7879C87.4888 89.752 89.9133 86.8825 93.005 84.7103C93.1007 84.6431 93.2156 84.6101 93.3321 84.6162C93.4485 84.6228 93.5594 84.6676 93.6474 84.7444C93.7349 84.8212 93.7944 84.9249 93.8163 85.0399C93.8376 85.1543 93.8203 85.2728 93.7669 85.376V85.3811C92.0382 88.6855 89.9845 91.5937 88.0401 94.6041C86.0815 97.5916 84.1137 100.593 82.5472 103.816C79.3649 110.225 77.032 117.068 75.8123 124.095C75.2249 127.608 74.907 131.166 74.9721 134.7C75.0128 136.459 75.1568 138.213 75.4029 139.955C75.6613 141.669 76.0641 143.357 76.6068 145.003C77.1566 146.621 77.8778 148.168 78.8329 149.486C79.7662 150.785 81.0306 151.927 82.4104 152.92C85.2026 154.913 88.4912 156.331 91.8302 157.838C93.5035 158.603 95.2088 159.372 96.8907 160.445C97.7269 160.99 98.5661 161.625 99.3127 162.489C99.4999 162.71 99.6743 162.941 99.836 163.182L100.246 163.864C100.385 164.09 100.487 164.335 100.604 164.571C100.722 164.807 100.824 165.049 100.912 165.297C101.28 166.259 101.531 167.262 101.659 168.283C101.788 169.257 101.849 170.238 101.839 171.221C101.834 173.141 101.664 174.983 101.551 176.779L101.471 178.119C101.456 178.551 101.439 178.983 101.443 179.414C101.442 180.276 101.485 181.137 101.573 181.994C101.74 183.697 102.096 185.377 102.635 187.002C103.74 190.2 105.576 193.221 108.19 195.225C109.488 196.239 110.942 197.08 112.524 197.6C114.095 198.135 115.742 198.414 117.402 198.428C119.048 198.45 120.685 198.178 122.235 197.626L123.35 197.144C123.705 196.957 124.047 196.749 124.399 196.555C124.737 196.342 125.041 196.087 125.368 195.86C125.545 195.746 125.643 195.619 125.781 195.499C125.845 195.437 125.914 195.382 125.974 195.316L126.142 195.114C127.056 194.054 127.487 192.584 127.506 190.981C127.549 189.382 127.237 187.695 126.77 186.044C126.278 184.369 125.657 182.736 124.914 181.157C124.542 180.36 124.146 179.572 123.726 178.799C123.517 178.412 123.3 178.031 123.08 177.654C122.86 177.277 122.624 176.898 122.416 176.593L121.763 175.637L122.485 174.763L126.117 170.365C127.09 169.134 127.739 167.494 128.11 165.791C128.848 162.364 128.603 158.642 127.56 155.283C127.028 153.605 126.307 151.997 125.347 150.584C124.872 149.881 124.335 149.221 123.742 148.613C123.133 147.991 122.474 147.419 121.772 146.903C120.321 145.839 118.778 144.909 117.159 144.123C115.519 143.321 113.801 142.636 112.01 141.996H112.006C111.893 141.955 111.797 141.876 111.737 141.772C111.676 141.668 111.653 141.546 111.673 141.428C111.693 141.309 111.754 141.201 111.845 141.123C111.936 141.044 112.052 141 112.172 140.998L112.165 141.005Z" fill="#371A45"/>
<path d="M100.084 169.201C99.8086 169.199 99.5436 169.099 99.3371 168.918C99.1306 168.736 98.9969 168.486 98.9602 168.214C97.1873 155.101 104.952 148.902 108.373 146.845C114.044 143.437 120.878 143.118 124.992 146.072C125.115 146.158 125.221 146.269 125.301 146.396C125.382 146.523 125.436 146.665 125.462 146.814C125.487 146.962 125.482 147.115 125.449 147.261C125.415 147.408 125.352 147.547 125.264 147.669C125.176 147.792 125.065 147.896 124.936 147.975C124.808 148.054 124.665 148.107 124.517 148.131C124.368 148.154 124.216 148.148 124.069 148.112C123.923 148.077 123.785 148.013 123.663 147.923C120.32 145.523 114.385 145.891 109.547 148.799C106.513 150.623 99.627 156.138 101.218 167.909C101.239 168.057 101.23 168.208 101.191 168.353C101.153 168.498 101.087 168.634 100.996 168.753C100.906 168.872 100.792 168.973 100.663 169.048C100.533 169.124 100.39 169.173 100.242 169.193C100.189 169.199 100.137 169.202 100.084 169.201Z" fill="#371A45"/>
<path d="M125.747 175.539C125.586 175.691 125.478 175.78 125.345 175.896C125.213 176.012 125.088 176.102 124.958 176.201C124.699 176.402 124.43 176.581 124.155 176.757C123.608 177.105 123.038 177.414 122.448 177.683C121.254 178.229 119.981 178.586 118.677 178.741C117.366 178.884 116.001 178.829 114.75 178.395C113.502 177.978 112.386 177.238 111.606 176.252C112.852 176.469 113.965 176.636 115.057 176.582C115.588 176.573 116.117 176.527 116.642 176.444C117.161 176.374 117.673 176.261 118.174 176.107C119.185 175.802 120.161 175.392 121.087 174.885C121.561 174.644 122.016 174.362 122.473 174.088L123.144 173.656L123.759 173.241L123.853 173.179C124.168 172.967 124.552 172.881 124.928 172.939C125.305 172.996 125.645 173.192 125.883 173.489C126.121 173.785 126.24 174.161 126.215 174.54C126.19 174.92 126.023 175.276 125.748 175.539H125.747Z" fill="#371A45"/>
<path d="M154.827 66.9989C154.72 67.006 154.612 66.9912 154.51 66.9566C154.409 66.9221 154.315 66.8671 154.234 66.7964C154.153 66.7252 154.087 66.6388 154.04 66.5421C153.992 66.4455 153.964 66.3407 153.958 66.2334L152.451 42.676C152.438 42.4592 152.511 42.2458 152.654 42.0827C152.798 41.9196 153 41.8201 153.217 41.8061C155.493 41.6608 157.732 42.4253 159.444 43.9313C161.156 45.4374 162.2 47.5618 162.346 49.8372L162.859 57.871C163.005 60.1465 162.24 62.3864 160.734 64.0983C159.228 65.8103 157.103 66.8534 154.827 66.9989Z" fill="white"/>
<path d="M154.775 67.1631C154.526 67.1626 154.286 67.0675 154.104 66.8971C153.922 66.7262 153.811 66.4928 153.795 66.2435L152.289 42.6863C152.273 42.4264 152.36 42.1706 152.532 41.975C152.704 41.7793 152.947 41.66 153.206 41.6431C155.525 41.4973 157.806 42.2773 159.55 43.8119C161.294 45.3465 162.358 47.5102 162.508 49.8283L163.021 57.8608C163.095 59.0092 162.942 60.1607 162.57 61.2496C162.198 62.3385 161.616 63.344 160.856 64.2076C160.096 65.0712 159.173 65.7767 158.14 66.2837C157.107 66.7908 155.984 67.0894 154.837 67.1626L154.775 67.1631ZM153.778 41.9553C153.595 41.9553 153.412 41.9609 153.227 41.9729C153.054 41.9841 152.892 42.0637 152.777 42.1943C152.662 42.3249 152.603 42.4958 152.614 42.6694L154.12 66.2227C154.125 66.3092 154.148 66.3931 154.186 66.4709C154.224 66.5482 154.277 66.6174 154.341 66.6743C154.406 66.7318 154.482 66.775 154.563 66.803C154.645 66.831 154.731 66.8422 154.817 66.8366C157.049 66.6942 159.134 65.6704 160.612 63.991C162.089 62.3111 162.839 60.1134 162.696 57.8812L162.183 49.8476C162.046 47.7103 161.101 45.705 159.541 44.2386C157.98 42.7722 155.919 41.9544 153.778 41.9513V41.9553Z" fill="#371A45"/>
<g opacity="0.35">
<path opacity="0.35" d="M162.619 54.1038L162.859 57.8756C163.004 60.1511 162.239 62.3909 160.733 64.1029C159.226 65.8148 157.102 66.8585 154.826 67.0044C154.609 67.0182 154.396 66.9449 154.232 66.801C154.069 66.6576 153.97 66.4546 153.956 66.2375L153.555 59.9781C153.628 60.118 153.74 60.2335 153.878 60.3113C154.015 60.3891 154.172 60.4257 154.33 60.416L154.891 60.3784C156.672 60.2645 158.372 59.5987 159.756 58.4742C161.141 57.3502 162.142 55.8229 162.619 54.1038Z" fill="#371A45"/>
</g>
<path d="M154.773 68.5205C154.179 68.519 153.608 68.2922 153.175 67.8858C152.742 67.4789 152.48 66.923 152.44 66.3305L150.935 42.7731C150.896 42.1542 151.104 41.5452 151.514 41.0797C151.924 40.6142 152.502 40.3303 153.12 40.2903C154.446 40.2054 155.776 40.3825 157.033 40.8115C158.29 41.2405 159.451 41.913 160.448 42.7907C161.446 43.6683 162.261 44.7338 162.846 45.9264C163.432 47.1189 163.777 48.4151 163.862 49.741L164.375 57.7738C164.46 59.0997 164.283 60.4292 163.853 61.687C163.424 62.9443 162.752 64.1049 161.874 65.1027C160.996 66.1001 159.931 66.9149 158.738 67.5003C157.545 68.0862 156.249 68.431 154.923 68.5155C154.874 68.519 154.823 68.5205 154.773 68.5205ZM154.014 43.3084L155.426 65.4003C157.159 65.1139 158.723 64.1944 159.815 62.8207C160.908 61.4469 161.452 59.7167 161.343 57.9646L160.829 49.9312C160.716 48.1787 159.957 46.5306 158.698 45.3067C157.438 44.0829 155.769 43.3706 154.014 43.3084Z" fill="#371A45"/>
<path d="M75.4609 46.7766C75.5682 46.7697 75.6755 46.7841 75.7778 46.8188C75.8795 46.8536 75.9736 46.9081 76.0545 46.9791C76.1348 47.0502 76.2009 47.1366 76.2482 47.2331C76.296 47.3298 76.324 47.4347 76.3306 47.5421L77.8371 71.0997C77.8437 71.207 77.8295 71.3143 77.7944 71.4165C77.7598 71.5183 77.7054 71.6124 77.6342 71.6927C77.563 71.7736 77.477 71.8397 77.3804 71.887C77.2837 71.9348 77.1785 71.9623 77.0711 71.9694C74.7957 72.1149 72.5558 71.3504 70.8433 69.8445C69.1314 68.3385 68.0877 66.2136 67.9423 63.9381L67.4286 55.9053C67.2836 53.6298 68.0481 51.3899 69.554 49.6777C71.0605 47.9657 73.1849 46.9222 75.4609 46.7766Z" fill="white"/>
<path d="M76.5102 72.1509C74.2855 72.1474 72.1459 71.2975 70.5244 69.7747C68.9035 68.2515 67.9225 66.1688 67.78 63.9487L67.2664 55.9154C67.1931 54.767 67.3467 53.6155 67.718 52.5266C68.0898 51.4377 68.6721 50.4329 69.4325 49.5692C70.1923 48.7055 71.1154 48 72.1479 47.4931C73.1809 46.9861 74.3033 46.6876 75.4518 46.6146C75.7117 46.5985 75.967 46.686 76.1628 46.8579C76.3581 47.0298 76.4776 47.2721 76.4949 47.5318L78.0004 71.089C78.0166 71.3489 77.9297 71.6047 77.7578 71.8005C77.5853 71.9963 77.3432 72.1153 77.0833 72.1321C76.8906 72.1443 76.6994 72.1509 76.5102 72.1509ZM75.467 46.9396C74.3618 47.0103 73.2811 47.298 72.2867 47.7863C71.2924 48.2746 70.4044 48.954 69.6725 49.7856C68.9412 50.6172 68.3807 51.5847 68.0226 52.6329C67.6651 53.6811 67.5176 54.7899 67.5883 55.8951L68.102 63.9279C68.1727 65.0331 68.46 66.1139 68.9483 67.1082C69.4366 68.1025 70.116 68.991 70.9476 69.7224C71.7792 70.4542 72.747 71.0152 73.7953 71.3728C74.8435 71.7303 75.9522 71.8783 77.0574 71.8071C77.1434 71.802 77.2278 71.7796 77.3051 71.7415C77.3824 71.7034 77.4516 71.6505 77.5085 71.5859C77.5655 71.5208 77.6092 71.4455 77.6367 71.3641C77.6647 71.2822 77.6759 71.1963 77.6708 71.1098L76.1643 47.5527C76.1592 47.4666 76.1368 47.3823 76.0987 47.3048C76.0605 47.2274 76.0077 47.1581 75.9431 47.1012C75.8785 47.0442 75.8027 47.0006 75.7213 46.9729C75.6394 46.9452 75.553 46.9338 75.467 46.9396Z" fill="#371A45"/>
<g opacity="0.35">
<path opacity="0.35" d="M77.4206 64.5642L77.8376 71.0997C77.8513 71.3168 77.7781 71.5299 77.6342 71.6932C77.4902 71.8565 77.2878 71.9561 77.0706 71.9704C75.9441 72.0426 74.814 71.8921 73.7454 71.5274C72.6773 71.1632 71.6907 70.5916 70.8433 69.846C69.9955 69.1004 69.3033 68.1945 68.8059 67.1814C68.308 66.1678 68.015 65.0667 67.9433 63.9396L67.7276 60.5549C68.5043 62.0135 69.6852 63.2174 71.1281 64.0225C72.5716 64.8276 74.2159 65.1999 75.8652 65.0946L76.7248 65.0392C76.8728 65.0295 77.0152 64.9802 77.1373 64.8968C77.2598 64.8129 77.3575 64.6984 77.4206 64.5642Z" fill="#371A45"/>
</g>
<path d="M76.5163 73.5068C73.9473 73.5023 71.476 72.5217 69.6024 70.7635C67.7292 69.0052 66.594 66.6011 66.4267 64.0377L65.913 56.0044C65.7421 53.3266 66.6418 50.6907 68.4138 48.6764C70.1862 46.6621 72.686 45.4343 75.3638 45.2631C75.9827 45.2237 76.5915 45.4317 77.0574 45.8413C77.5228 46.2509 77.8066 46.8286 77.8468 47.4474L79.3527 71.0045C79.3924 71.624 79.1844 72.2333 78.7744 72.6992C78.365 73.1651 77.7867 73.4489 77.1678 73.4885C76.9511 73.5007 76.7339 73.5068 76.5163 73.5068ZM74.8613 48.3718C73.1295 48.6586 71.5655 49.5779 70.4726 50.952C69.3796 52.3257 68.8354 54.0565 68.9457 55.8086L69.4589 63.8409C69.5713 65.5935 70.3307 67.2419 71.59 68.4661C72.8493 69.6898 74.5185 70.4018 76.2737 70.4639L74.8613 48.3718Z" fill="#371A45"/>
<path d="M143.593 85.3312C159.302 69.6221 159.302 44.1527 143.593 28.4436C127.884 12.7346 102.415 12.7346 86.7055 28.4436C70.9964 44.1527 70.9964 69.6221 86.7055 85.3312C102.415 101.04 127.884 101.04 143.593 85.3312Z" fill="white"/>
<path d="M115.153 97.2763H114.861C92.59 97.1156 74.6029 78.8701 74.7616 56.6006C74.9223 34.4299 93.0101 16.5011 115.144 16.5011H115.437C126.226 16.5814 136.338 20.8513 143.911 28.5382C151.485 36.225 155.613 46.3923 155.536 57.1809C155.377 79.3467 137.288 97.2763 115.153 97.2763ZM115.14 16.8229C104.548 16.8229 94.5746 20.9155 87.0234 28.3552C79.4 35.8671 75.1639 45.898 75.0876 56.6021C75.0113 67.3061 79.106 77.3931 86.6191 85.0094C94.1316 92.6257 104.162 96.8694 114.866 96.9457C125.57 97.022 135.656 92.9278 143.278 85.4148C150.898 77.9022 155.137 67.8721 155.213 57.1676C155.29 46.4638 151.194 36.3767 143.683 28.7604C136.171 21.1442 126.136 16.9031 115.435 16.8229H115.14Z" fill="#371A45"/>
<g opacity="0.35">
<path opacity="0.35" d="M155.027 51.604C155.272 53.4512 155.388 55.3127 155.374 57.1757C155.213 79.3903 137.077 97.2707 114.86 97.113C92.6429 96.9558 74.7662 78.8166 74.9228 56.6005C74.9269 55.9586 74.9467 55.3219 74.9813 54.6927C77.5492 74.2926 94.2465 89.4881 114.573 89.634C136.145 89.7871 153.875 72.9265 155.027 51.604Z" fill="#371A45"/>
</g>
<path d="M115.157 98.6323H114.851C103.7 98.5519 93.2492 94.1383 85.4208 86.1939C77.593 78.2496 73.3253 67.7374 73.4057 56.5894C73.486 45.4414 77.8996 34.9876 85.844 27.1595C93.7883 19.3314 104.305 15.0574 115.447 15.1441C126.589 15.2308 137.05 19.6379 144.877 27.5824C152.704 35.5269 156.973 46.0328 156.892 57.187C156.812 68.3416 152.398 78.7887 144.454 86.6171C136.587 94.3722 126.195 98.6323 115.157 98.6323ZM115.141 18.1822C104.908 18.1822 95.2714 22.132 87.976 29.3238C80.614 36.5813 76.5213 46.2736 76.4415 56.6107C76.3611 66.9485 80.3246 76.6974 87.5818 84.0604C94.8396 91.4229 104.531 95.5186 114.866 95.5924C125.218 95.6534 134.953 91.7102 142.315 84.452C149.678 77.1938 153.774 67.5029 153.848 57.1677C153.922 46.8329 149.965 37.0804 142.707 29.7178C135.449 22.3551 125.758 18.2601 115.423 18.1863L115.141 18.1822Z" fill="#371A45"/>
<path d="M155.238 58.2076C155.3 66.0782 152.803 73.4066 148.482 79.4874C145.241 84.0465 131.837 92.0865 115.208 92.3687C99.7903 92.6296 85.6955 84.5205 82.383 80.0108C77.9693 73.9996 75.3516 66.7124 75.289 58.8408C75.1237 38.0112 92.9506 29.2297 115.029 29.058C137.107 28.8863 155.071 37.378 155.238 58.2076Z" fill="#371A45"/>
<path d="M114.462 93.2812C98.8453 93.2812 85.0607 85.1879 81.6526 80.5505C76.9587 74.1635 74.4447 66.6596 74.3827 58.8506C74.3028 48.6825 78.3152 40.8103 86.3134 35.4538C93.3021 30.7722 103.229 28.2484 115.022 28.1513C126.814 28.0542 136.78 30.4231 143.842 34.9932C151.924 40.2221 156.062 48.0285 156.144 58.1975C156.206 66.0061 153.811 73.5486 149.22 80.0093C146.038 84.487 132.799 92.9741 115.224 93.2716C114.969 93.2797 114.719 93.2812 114.462 93.2812ZM115.63 29.9665C115.428 29.9665 115.229 29.9665 115.036 29.9665C103.289 30.0596 75.9904 33.0601 76.1963 58.8353C76.2558 66.2609 78.6478 73.3981 83.1138 79.4758C86.2376 83.7287 99.6697 91.4671 114.478 91.4681C114.719 91.4681 114.954 91.4681 115.194 91.4615C131.914 91.1782 144.84 83.0477 147.743 78.9621C152.112 72.8137 154.391 65.6414 154.331 58.2143C154.129 32.8658 127.678 29.9649 115.63 29.9649V29.9665Z" fill="#371A45"/>
<g opacity="0.7">
<path opacity="0.7" d="M147.29 56.3498C147.96 52.4758 146.227 48.9417 143.42 48.4564C140.613 47.9709 137.794 50.718 137.125 54.592C136.455 58.466 138.187 62.0003 140.994 62.4855C143.801 62.9712 146.62 60.2238 147.29 56.3498Z" fill="white"/>
</g>
<g opacity="0.7">
<path opacity="0.7" d="M138.694 70.4949C139.244 68.7764 138.495 67.0004 137.02 66.5279C135.546 66.0554 133.904 67.066 133.354 68.7845C132.803 70.5031 133.552 72.2791 135.027 72.7516C136.501 73.2241 138.143 72.2135 138.694 70.4949Z" fill="white"/>
</g>
<g opacity="0.35">
<path opacity="0.35" d="M147.307 38.8369C152.231 43.4616 155.171 49.8404 155.236 58.2061C155.299 66.0792 152.801 73.4066 148.482 79.4874C145.241 84.0465 131.836 92.0865 115.207 92.3698C109.336 92.471 103.658 91.3561 98.6917 89.6869C119.125 88.9032 135.453 79.0358 139.47 73.3807C144.956 65.6637 148.125 56.3614 148.044 46.3737C148.033 43.844 147.786 41.3208 147.307 38.8369Z" fill="#111A28"/>
</g>
<path d="M79.3583 41.9907L76.973 40.1089L78.0965 41.0053L76.9033 40.2084C83.9652 29.6351 97.7676 23.493 114.761 23.3566C131.651 23.2298 145.513 28.9401 152.859 39.0448C153.087 39.3429 153.197 39.715 153.167 40.0892C153.137 40.4635 152.97 40.8134 152.697 41.0715C152.425 41.3297 152.066 41.4777 151.691 41.4871C151.315 41.4965 150.95 41.3666 150.665 41.1225C150.573 41.0432 150.491 40.9538 150.418 40.856C143.662 31.5401 130.67 26.2623 114.783 26.3963C98.8082 26.5231 85.9213 32.1741 79.427 41.896C79.4056 41.9289 79.3822 41.9602 79.3583 41.9907Z" fill="#371A45"/>
<g opacity="0.7">
<path opacity="0.7" d="M84.365 71.1637C84.365 71.1637 77.7501 50.6661 88.7593 42.3894C99.7684 34.1127 115.701 34.0197 115.337 35.0444C115.337 35.0444 97.7325 39.458 90.9422 53.4538C85.7056 64.2488 84.365 71.1637 84.365 71.1637Z" fill="white"/>
</g>
<path d="M140.531 115.841L141.619 124.241L142.467 130.774C142.579 131.629 142.362 132.495 141.86 133.198C141.358 133.9 140.608 134.385 139.763 134.557C138.633 134.788 137.228 135.057 135.613 135.336C129.863 136.328 121.405 137.437 112.904 137.307C112.023 137.292 111.183 136.937 110.558 136.316C109.934 135.696 109.573 134.859 109.551 133.979L109.112 116.637C109.101 116.174 109.183 115.714 109.355 115.283C109.526 114.853 109.783 114.463 110.111 114.136C110.438 113.808 110.828 113.551 111.258 113.379C111.688 113.208 112.148 113.125 112.611 113.137C118.517 113.289 130.288 113.483 136.846 112.88C137.724 112.801 138.598 113.065 139.286 113.617C139.973 114.169 140.419 114.966 140.531 115.841Z" fill="white"/>
<path d="M112.347 113.141L105.452 113.876C104.724 113.954 104.051 114.304 103.57 114.856C103.088 115.409 102.833 116.123 102.856 116.855L103.38 134.061C103.402 134.785 103.694 135.476 104.199 135.996C104.704 136.516 105.385 136.829 106.109 136.873L112.479 137.275" fill="white"/>
<g opacity="0.25">
<path opacity="0.25" d="M112.347 113.141L105.452 113.876C104.724 113.954 104.051 114.304 103.57 114.856C103.088 115.409 102.833 116.123 102.856 116.855L103.38 134.061C103.402 134.785 103.694 135.476 104.199 135.996C104.704 136.516 105.385 136.829 106.109 136.873L112.479 137.275" fill="#371A45"/>
</g>
<path d="M114.301 138.661C113.828 138.661 113.354 138.657 112.879 138.65C111.651 138.634 110.478 138.141 109.607 137.276C108.735 136.41 108.234 135.241 108.209 134.013L107.77 116.669C107.753 116.025 107.868 115.384 108.107 114.785C108.346 114.186 108.705 113.643 109.16 113.187C109.616 112.731 110.16 112.373 110.759 112.133C111.357 111.894 111.999 111.78 112.643 111.796C118.883 111.957 130.309 112.134 136.717 111.543C137.942 111.428 139.164 111.794 140.123 112.564C141.082 113.334 141.705 114.447 141.858 115.668L143.793 130.6C143.944 131.791 143.64 132.995 142.942 133.972C142.245 134.949 141.204 135.627 140.028 135.871C134.814 136.933 124.723 138.661 114.301 138.661ZM112.521 114.477C112.244 114.477 111.971 114.533 111.716 114.64C111.461 114.748 111.231 114.905 111.038 115.103C110.845 115.302 110.694 115.536 110.593 115.793C110.493 116.051 110.444 116.326 110.452 116.602L110.89 133.946C110.901 134.48 111.118 134.989 111.497 135.366C111.876 135.743 112.386 135.959 112.921 135.967C123.582 136.128 134.149 134.331 139.496 133.243C140.009 133.137 140.462 132.841 140.766 132.415C141.07 131.989 141.202 131.464 141.136 130.945L139.201 116.013C139.136 115.482 138.865 114.996 138.448 114.661C138.031 114.325 137.499 114.165 136.966 114.215C130.418 114.817 118.873 114.638 112.575 114.478H112.521V114.477Z" fill="#371A45"/>
<path d="M112.476 138.614C112.447 138.614 112.419 138.614 112.39 138.614L106.021 138.212C104.963 138.151 103.966 137.694 103.229 136.933C102.492 136.172 102.068 135.161 102.04 134.102L101.514 116.898C101.486 115.828 101.861 114.787 102.564 113.981C103.267 113.174 104.247 112.661 105.31 112.544L112.205 111.808C112.38 111.789 112.557 111.805 112.727 111.855C112.895 111.905 113.053 111.987 113.19 112.098C113.327 112.209 113.441 112.346 113.525 112.5C113.609 112.655 113.662 112.825 113.681 113C113.699 113.175 113.683 113.352 113.634 113.521C113.584 113.69 113.501 113.847 113.391 113.984C113.28 114.122 113.144 114.235 112.989 114.319C112.834 114.404 112.664 114.457 112.489 114.476L105.595 115.21C105.203 115.254 104.842 115.443 104.583 115.74C104.324 116.037 104.186 116.421 104.196 116.816L104.721 134.021C104.732 134.411 104.888 134.783 105.16 135.064C105.431 135.344 105.798 135.513 106.188 135.536L112.558 135.937C112.904 135.96 113.227 136.117 113.46 136.374C113.693 136.632 113.817 136.969 113.807 137.315C113.797 137.662 113.653 137.991 113.405 138.234C113.157 138.477 112.825 138.614 112.478 138.617L112.476 138.614Z" fill="#371A45"/>
<path d="M127.016 138.025C126.674 138.025 126.345 137.893 126.097 137.659C125.848 137.424 125.698 137.103 125.679 136.762L125.166 127.974L120.716 124.973C120.547 124.859 120.406 124.707 120.304 124.531C120.202 124.354 120.142 124.156 120.128 123.953L119.4 113.369C119.375 113.014 119.493 112.664 119.727 112.396C119.96 112.127 120.291 111.963 120.646 111.939C121.001 111.914 121.351 112.032 121.619 112.266C121.887 112.5 122.052 112.83 122.076 113.185L122.759 123.115L127.216 126.121C127.387 126.237 127.529 126.39 127.632 126.57C127.734 126.749 127.793 126.949 127.805 127.155L128.356 136.605C128.366 136.781 128.342 136.957 128.285 137.123C128.227 137.29 128.137 137.443 128.02 137.575C127.903 137.706 127.761 137.814 127.602 137.89C127.443 137.967 127.271 138.012 127.095 138.022C127.07 138.024 127.043 138.025 127.016 138.025Z" fill="#371A45"/>
<path d="M139.528 123.863C139.584 124.395 139.282 128.769 139.282 128.769L136.25 129.085C134.164 129.301 132.245 127.319 131.967 124.649C131.69 121.979 133.157 119.645 135.245 119.427L138.278 119.112C138.278 119.112 139.435 122.996 139.528 123.863Z" fill="#FF5555"/>
<path d="M139.528 123.863C139.584 124.395 139.287 128.769 139.287 128.769L139.186 128.779C139.267 127.517 139.347 126.017 139.313 125.721C139.224 124.853 138.064 120.97 138.064 120.97L135.032 121.286C133.573 121.436 132.415 122.626 131.943 124.238C131.845 121.746 133.269 119.633 135.249 119.428L138.282 119.113C138.282 119.113 139.435 122.996 139.528 123.863Z" fill="white"/>
<path d="M135.942 130.24C133.403 130.24 131.159 127.882 130.834 124.767C130.492 121.477 132.418 118.576 135.128 118.295L137.245 118.074C137.767 118.019 138.293 118.149 138.73 118.443C139.167 118.736 139.486 119.174 139.632 119.68C140.579 122.949 140.642 123.546 140.661 123.743C140.678 123.903 140.716 124.271 140.481 127.912C140.448 128.441 140.228 128.941 139.861 129.323C139.493 129.706 139.002 129.945 138.475 129.999L136.369 130.218C136.227 130.232 136.084 130.24 135.942 130.24ZM137.452 120.342L135.365 120.559C133.93 120.708 132.895 122.526 133.102 124.529C133.31 126.532 134.702 128.093 136.134 127.949L138.21 127.732C138.37 125.305 138.408 124.191 138.395 123.97C138.36 123.676 138.096 122.571 137.452 120.342Z" fill="#371A45"/>
<path d="M139.287 128.762C141.374 128.544 142.842 126.206 142.564 123.54C142.287 120.874 140.369 118.888 138.282 119.105C136.194 119.323 134.726 121.66 135.004 124.327C135.281 126.993 137.199 128.979 139.287 128.762Z" fill="#FF5555"/>
<path d="M142.559 123.552C142.592 123.867 142.6 124.185 142.583 124.502C142.007 122.326 140.31 120.82 138.476 121.01C136.642 121.199 135.284 123.031 135.173 125.283C135.091 124.973 135.032 124.656 134.999 124.336C134.721 121.67 136.191 119.333 138.279 119.12C140.367 118.908 142.282 120.881 142.559 123.552Z" fill="white"/>
<path d="M138.962 129.925C137.751 129.925 136.586 129.402 135.642 128.424C134.657 127.404 134.027 125.993 133.866 124.452C133.706 122.91 134.033 121.402 134.786 120.199C135.596 118.909 136.793 118.121 138.157 117.979C139.521 117.837 140.857 118.362 141.914 119.457C142.9 120.477 143.53 121.888 143.69 123.431C143.85 124.972 143.524 126.48 142.769 127.683C141.961 128.973 140.764 129.761 139.399 129.903C139.254 129.918 139.108 129.925 138.962 129.925ZM138.588 120.235C138.524 120.235 138.46 120.239 138.396 120.246C137.742 120.313 137.146 120.728 136.717 121.41C136.236 122.182 136.025 123.176 136.133 124.219C136.242 125.262 136.649 126.189 137.281 126.844C137.843 127.425 138.511 127.708 139.164 127.639C139.817 127.568 140.414 127.157 140.843 126.474C141.324 125.703 141.535 124.709 141.427 123.665C141.318 122.628 140.911 121.695 140.278 121.041C139.772 120.517 139.179 120.235 138.588 120.235Z" fill="#371A45"/>
<path d="M74.9223 119.202C74.9223 119.202 83.9901 123.306 105.565 122.566C105.565 122.566 109.517 126.353 105.565 129.482C101.613 132.611 79.3695 134.412 73.427 128C69.6649 123.941 74.9223 119.202 74.9223 119.202Z" fill="white"/>
<g opacity="0.25">
<path opacity="0.25" d="M105.564 129.484C101.614 132.614 79.3705 134.411 73.4255 127.999C71.6367 126.073 71.887 123.986 72.6473 122.331C72.863 122.715 73.1244 123.071 73.4255 123.392C79.3705 129.803 101.614 128.003 105.564 124.876C105.941 124.584 106.278 124.243 106.567 123.863C107.395 125.242 108.075 127.494 105.564 129.484Z" fill="#371A45"/>
</g>
<path d="M89.9041 133.663C84.8664 133.663 76.2472 133.021 72.4434 128.913C71.2395 127.61 70.6618 126.118 70.7355 124.477C70.8891 121.07 73.896 118.322 74.0256 118.206L74.6772 117.619L75.4741 117.98C75.6115 118.04 84.6732 121.943 105.52 121.226L106.086 121.206L106.495 121.598C106.729 121.824 108.785 123.873 108.661 126.53C108.611 127.58 108.18 129.127 106.402 130.535C103.753 132.633 96.1731 133.626 90.254 133.664L89.9041 133.663ZM75.2666 120.777C74.5765 121.562 73.4814 123.044 73.4153 124.606C73.3767 125.513 73.7022 126.325 74.4112 127.089C79.8532 132.963 101.396 131.072 104.732 128.431C105.535 127.795 105.943 127.132 105.978 126.403C106.023 125.46 105.431 124.489 104.986 123.927C87.264 124.467 78.0349 121.773 75.2666 120.777V120.777Z" fill="#371A45"/>
<g opacity="0.25">
<path opacity="0.25" d="M152.581 151.055C149.333 154.979 138.918 158.766 133.312 155.252C128.628 152.32 128.48 148.119 125.16 145.703C124.966 145.562 124.382 145.307 123.489 144.916C134.001 141.601 143.624 139.936 152.281 139.379C156.011 143.975 155.27 147.804 152.581 151.055Z" fill="#371A45"/>
</g>
<path d="M107.322 101.403C119.069 116.059 138.45 125.045 150.028 135.491C156.374 141.217 155.375 143.972 152.21 147.801C148.965 151.726 141.341 155.514 135.735 152.001C131.052 149.066 130.76 146.277 127.442 143.86C126.132 142.906 105.071 137.318 93.3794 119.095" fill="white"/>
<g opacity="0.25">
<path opacity="0.25" d="M152.209 147.804C148.966 151.728 141.342 155.514 135.735 152.002C131.052 149.068 130.76 146.28 127.439 143.861C126.133 142.908 105.071 137.32 93.3794 119.095L93.62 118.791C106.66 132.5 120.252 133.321 129.28 140.269C132.533 142.772 132.816 143.603 137.5 146.535C143.106 150.049 150.73 146.261 153.973 142.338C154.182 142.086 154.38 141.84 154.566 141.597C155.099 143.812 154.002 145.634 152.209 147.804Z" fill="#371A45"/>
</g>
<path d="M107.717 101.088C110.211 102.848 112.268 104.849 114.469 106.766C116.629 108.707 118.85 110.601 121.091 112.484C123.372 114.33 125.734 116.073 128.153 117.759C130.561 119.461 133.015 121.116 135.465 122.784C137.916 124.453 140.386 126.118 142.814 127.874C143.425 128.302 144.03 128.746 144.629 129.199C145.229 129.651 145.833 130.091 146.432 130.55C147.611 131.49 148.807 132.406 149.943 133.417C151.135 134.407 152.258 135.476 153.307 136.615C153.568 136.923 153.832 137.222 154.087 137.538C154.327 137.875 154.583 138.197 154.815 138.55L155.147 139.102L155.312 139.38C155.362 139.477 155.408 139.583 155.456 139.683L155.736 140.297C155.816 140.511 155.882 140.742 155.952 140.965C156.209 141.865 156.31 142.907 156.098 143.864C155.91 144.762 155.569 145.621 155.092 146.405C154.669 147.1 154.199 147.764 153.683 148.394C153.451 148.695 153.172 149.006 152.891 149.317C152.609 149.627 152.312 149.903 152.018 150.19C150.825 151.283 149.494 152.216 148.058 152.963C146.619 153.726 145.079 154.282 143.485 154.616C141.872 154.943 140.158 155.017 138.468 154.678L137.838 154.531C137.626 154.49 137.419 154.43 137.217 154.351C136.816 154.191 136.395 154.069 136.013 153.87C135.631 153.67 135.239 153.463 134.874 153.251C134.542 153.027 134.204 152.818 133.879 152.579C133.219 152.108 132.591 151.593 132.001 151.038C131.419 150.482 130.871 149.891 130.362 149.268C129.36 148.046 128.562 146.876 127.623 145.993C127.511 145.874 127.383 145.775 127.265 145.666C127.146 145.557 127.022 145.453 126.894 145.356L126.701 145.208L126.606 145.133L126.559 145.095C126.537 145.077 126.559 145.099 126.559 145.095C126.566 145.103 126.576 145.109 126.586 145.112L126.505 145.077C126.441 145.049 126.394 145.023 126.308 144.989C125.684 144.733 124.967 144.466 124.276 144.198C122.88 143.658 121.481 143.091 120.099 142.485C114.571 140.064 109.258 137.05 104.47 133.296C103.266 132.367 102.113 131.37 100.978 130.357C99.8635 129.319 98.7156 128.311 97.6592 127.204C97.1212 126.66 96.6146 126.085 96.1426 125.483C95.902 125.188 95.661 124.889 95.4463 124.571C95.2312 124.252 95.0049 123.945 94.7953 123.624C94.3803 122.975 94.0121 122.298 93.6942 121.596C93.3779 120.878 93.1307 120.131 92.9567 119.365C92.9344 119.26 92.9435 119.151 92.9837 119.051C93.0234 118.951 93.092 118.866 93.181 118.806C93.2695 118.745 93.3743 118.713 93.4816 118.713C93.5889 118.712 93.6942 118.744 93.7832 118.803L93.8091 118.82C94.4729 119.266 95.013 119.774 95.5658 120.273C96.1187 120.771 96.6146 121.296 97.1247 121.812C97.377 122.071 97.6201 122.336 97.8591 122.605C98.0982 122.873 98.3525 123.129 98.592 123.397C98.8311 123.665 99.0732 123.926 99.3142 124.2C99.5548 124.474 99.8005 124.728 100.036 125.002C100.98 126.091 101.98 127.13 103.031 128.116C104.102 129.083 105.198 130.024 106.344 130.908C110.898 134.479 115.986 137.372 121.319 139.708C122.655 140.293 124.004 140.84 125.374 141.37C126.066 141.639 126.738 141.888 127.489 142.195C127.576 142.229 127.694 142.284 127.799 142.332C127.858 142.36 127.895 142.374 127.972 142.412C128.062 142.461 128.152 142.513 128.24 142.568C128.277 142.591 128.342 142.631 128.355 142.643L128.418 142.691L128.541 142.787L128.79 142.98C129.118 143.239 129.433 143.514 129.734 143.804C130.955 144.969 131.83 146.275 132.712 147.339C133.562 148.392 134.552 149.323 135.652 150.11C135.924 150.311 136.22 150.491 136.501 150.682L137.317 151.124C137.59 151.268 137.892 151.344 138.175 151.463C138.318 151.523 138.468 151.566 138.621 151.592L139.074 151.697C140.295 151.938 141.601 151.899 142.89 151.637C145.467 151.103 147.994 149.759 149.963 147.958C150.197 147.725 150.456 147.508 150.662 147.259C150.867 147.01 151.097 146.777 151.318 146.494C151.743 145.977 152.132 145.43 152.483 144.859C152.783 144.377 153 143.848 153.125 143.293C153.241 142.795 153.18 142.315 153.044 141.797C152.745 140.761 151.976 139.652 151.056 138.64C150.094 137.597 149.064 136.62 147.972 135.716C146.893 134.753 145.731 133.865 144.592 132.957C144.013 132.51 143.419 132.078 142.835 131.639C142.249 131.199 141.659 130.764 141.056 130.341C138.676 128.62 136.219 126.971 133.774 125.298C131.329 123.624 128.856 121.967 126.418 120.242C123.969 118.539 121.577 116.735 119.164 114.946C116.788 113.107 114.413 111.236 112.309 109.049C110.142 106.942 108.252 104.503 106.94 101.716C106.891 101.612 106.878 101.495 106.903 101.383C106.927 101.271 106.988 101.17 107.076 101.096C107.164 101.023 107.274 100.98 107.389 100.975C107.503 100.97 107.616 101.003 107.71 101.068L107.717 101.088Z" fill="#371A45"/>
<path d="M108.235 135.54C108.031 135.54 107.831 135.493 107.649 135.404C107.466 135.315 107.306 135.186 107.181 135.027C107.055 134.867 106.967 134.681 106.924 134.482C106.881 134.284 106.883 134.078 106.93 133.881C107.113 133.132 111.521 115.645 123.702 115.645H123.9C124.256 115.65 124.595 115.797 124.842 116.052C125.09 116.308 125.226 116.651 125.22 117.006C125.215 117.362 125.068 117.701 124.813 117.948C124.558 118.196 124.214 118.332 123.859 118.327H123.707C113.6 118.327 109.575 134.353 109.535 134.515C109.463 134.807 109.297 135.067 109.061 135.252C108.826 135.438 108.535 135.539 108.235 135.54Z" fill="#371A45"/>
<path d="M157.902 107.823C157.673 107.823 157.447 107.764 157.247 107.651C150.483 103.852 149.99 85.5713 149.955 83.4968C149.949 83.1412 150.085 82.7974 150.332 82.5416C150.58 82.2858 150.918 82.1388 151.274 82.1327H151.297C151.649 82.1327 151.986 82.271 152.237 82.5177C152.488 82.7644 152.632 83.0995 152.637 83.451C152.725 88.6545 153.958 102.725 158.56 105.309C158.819 105.455 159.022 105.681 159.138 105.954C159.253 106.228 159.276 106.531 159.2 106.818C159.125 107.105 158.957 107.359 158.722 107.54C158.487 107.721 158.199 107.82 157.902 107.82V107.823Z" fill="#371A45"/>
<path d="M169.006 73.5135C169.02 73.5938 169.026 73.754 169.035 73.8817L169.061 74.2926C169.084 74.5693 169.094 74.8496 169.122 75.1288C169.159 75.6903 169.229 76.2523 169.31 76.8189C169.39 77.3854 169.506 77.951 169.617 78.541C169.705 79.1467 169.857 79.7372 169.932 80.4589C169.302 80.1593 168.747 79.7235 168.308 79.1818C168.089 78.9179 167.892 78.6366 167.718 78.3401C167.552 78.041 167.401 77.7338 167.267 77.419C166.995 76.7883 166.797 76.1287 166.677 75.4528C166.618 75.1135 166.581 74.7707 166.563 74.4264C166.556 74.2535 166.55 74.08 166.559 73.9036C166.563 73.7133 166.579 73.5241 166.605 73.336C166.643 73.0512 166.781 72.7897 166.996 72.599C167.211 72.4078 167.487 72.3005 167.774 72.2964C168.061 72.2923 168.34 72.3915 168.56 72.5761C168.78 72.7607 168.927 73.0181 168.973 73.3014L169.006 73.5135Z" fill="#371A45"/>
</g>
<defs>
<linearGradient id="paint0_linear_18_26" x1="63.963" y1="218.082" x2="6.45972" y2="220.408" gradientUnits="userSpaceOnUse">
<stop stop-color="#FCB127"/>
<stop offset="1" stop-color="#EC1C24"/>
</linearGradient>
<clipPath id="clip0_18_26">
<rect width="207" height="247.688" fill="white"/>
</clipPath>
</defs>
</svg>
