<svg width="72" height="42" viewBox="0 0 72 42" fill="none" xmlns="http://www.w3.org/2000/svg">
<path d="M70.8 0H13.2C12.5373 0 12 0.553108 12 1.23529V4.94118H8.4C7.7373 4.94118 7.2 5.49428 7.2 6.17647V9.88235H1.2C0.537305 9.88235 0 10.4355 0 11.1176V40.7647C0 41.4469 0.537305 42 1.2 42H58.8C59.4627 42 60 41.4469 60 40.7647V37.0588H66C66.6627 37.0588 67.2 36.5057 67.2 35.8235V32.1176H70.8C71.4627 32.1176 72 31.5645 72 30.8824V1.23529C72 0.553108 71.4627 0 70.8 0ZM48 12.3529C48.0018 13.195 48.1436 14.031 48.4201 14.8235H11.5799C11.8559 14.031 11.9977 13.195 12 12.3529H48ZM57.6 32.1176H55.2V19.7647H57.6V32.1176ZM49.848 34.5882H31.2V32.1176H32.4C33.0627 32.1176 33.6 31.5645 33.6 30.8824V25.9412C33.6 25.259 33.0627 24.7059 32.4 24.7059H28.8V22.2353H33.6V19.7647H31.2V17.2941H49.848C50.6514 18.2164 51.6662 18.9166 52.8 19.3322V32.5501C51.6662 32.9657 50.6514 33.666 49.848 34.5882ZM7.2 32.5501V19.3322C8.3332 18.9172 9.34805 18.2164 10.1508 17.2941H28.8V19.7647H27.6C26.9373 19.7647 26.4 20.3178 26.4 21V25.9412C26.4 26.6234 26.9373 27.1765 27.6 27.1765H31.2V29.6471H26.4V32.1176H28.8V34.5882H10.1508C9.34805 33.666 8.3332 32.9651 7.2 32.5501ZM4.8 32.1176H2.4V19.7647H4.8V32.1176ZM57.6 17.2941H55.2C52.5492 17.2941 50.4 15.0817 50.4 12.3529H57.6V17.2941ZM2.4 12.3529H9.6C9.6 15.0817 7.45078 17.2941 4.8 17.2941H2.4V12.3529ZM2.4 39.5294V34.5882H4.8C7.45078 34.5882 9.6 36.8007 9.6 39.5294H2.4ZM11.5799 37.0588H48.4201C48.1436 37.8514 48.0018 38.6874 48 39.5294H12C11.9977 38.6874 11.8559 37.8514 11.5799 37.0588ZM57.6 39.5294H50.4C50.4 36.8007 52.5492 34.5882 55.2 34.5882H57.6V39.5294ZM64.8 34.5882H60V11.1176C60 10.4355 59.4627 9.88235 58.8 9.88235H9.6V7.41176H64.8V34.5882ZM69.6 29.6471H67.2V6.17647C67.2 5.49428 66.6627 4.94118 66 4.94118H14.4V2.47059H69.6V29.6471Z" fill="url(#paint0_linear_2_26)"/>
<defs>
<linearGradient id="paint0_linear_2_26" x1="2.10534" y1="0.020834" x2="114.063" y2="136.147" gradientUnits="userSpaceOnUse">
<stop stop-color="#FF5555"/>
<stop offset="1" stop-color="#428DFF"/>
</linearGradient>
</defs>
</svg>
