<svg width="59" height="60" viewBox="0 0 59 60" fill="none" xmlns="http://www.w3.org/2000/svg">
<g clip-path="url(#clip0_2_40)">
<path d="M56.9437 50.8448H22.6404C22.0638 47.7926 19.7207 45.3792 16.6867 44.713V7.50226C16.6821 3.3609 13.3258 0.00468745 9.18447 0H1.49998C0.671477 0 0 0.671477 0 1.49998C0 2.32849 0.671477 2.99997 1.49998 2.99997H9.18447C11.67 3.0029 13.6838 5.01674 13.6868 7.50226V44.6567C9.85595 45.3394 7.12961 48.7618 7.32004 52.6477C7.51105 56.5336 10.5597 59.6724 14.4385 59.9765C18.3174 60.28 21.8177 57.6545 22.6117 53.8453H56.9437C57.7723 53.8453 58.4437 53.1738 58.4437 52.3453C58.4437 51.5168 57.7723 50.8453 56.9437 50.8453V50.8448ZM15.0414 56.9994C12.4282 56.9994 10.3095 54.8807 10.3095 52.2668C10.3095 49.6536 12.4282 47.5348 15.0414 47.5348C17.6553 47.5348 19.774 49.6536 19.774 52.2668C19.774 54.8807 17.6553 56.9994 15.0414 56.9994Z" fill="url(#paint0_linear_2_40)"/>
<path d="M31.4247 41.5648H48.8134C52.9535 41.5601 56.3086 38.2051 56.3133 34.0649V10.6399C56.3086 6.49973 52.9535 3.14469 48.8134 3.14001H31.4247C27.2845 3.14469 23.9294 6.49973 23.9247 10.6399V34.0649C23.9294 38.2051 27.2845 41.5601 31.4247 41.5648ZM26.9247 34.0649V23.8521H38.6193V38.5648H31.4247C28.9409 38.5619 26.9276 36.5486 26.9247 34.0649ZM48.8134 38.5648H41.6193V23.8521H53.3133V34.0649C53.3104 36.5486 51.2977 38.5619 48.8134 38.5648ZM53.3133 20.8527H41.6193V6.13997H48.8134C51.2977 6.1429 53.3104 8.15559 53.3133 10.6399V20.8527ZM31.4247 6.14056H38.6193V20.8527H26.9247V10.6399C26.9276 8.15559 28.9409 6.1429 31.4247 6.13997V6.14056Z" fill="url(#paint1_linear_2_40)"/>
</g>
<defs>
<linearGradient id="paint0_linear_2_40" x1="1.70895" y1="0.0297649" x2="154.169" y2="105.358" gradientUnits="userSpaceOnUse">
<stop stop-color="#FF5555"/>
<stop offset="1" stop-color="#428DFF"/>
</linearGradient>
<linearGradient id="paint1_linear_2_40" x1="1.70895" y1="0.029764" x2="154.169" y2="105.358" gradientUnits="userSpaceOnUse">
<stop stop-color="#FF5555"/>
<stop offset="1" stop-color="#428DFF"/>
</linearGradient>
<clipPath id="clip0_2_40">
<rect width="59" height="60" fill="white"/>
</clipPath>
</defs>
</svg>
