<svg width="165" height="65" viewBox="0 0 165 65" fill="none" xmlns="http://www.w3.org/2000/svg">
<path d="M0 32.0966C0 20.8311 0 15.1984 2.17987 10.9202C4.09734 7.15695 7.15695 4.09734 10.9202 2.17987C15.1984 0 20.7989 0 32 0H137.311C144.465 0 148.043 0 150.947 0.904779C157.225 2.85991 162.14 7.7753 164.095 14.0525C165 16.9574 165 20.5346 165 27.6889V27.6889C165 34.3213 165 37.6375 164.188 40.3988C162.437 46.358 158.016 51.1653 152.225 53.409C149.541 54.4486 146.236 54.726 139.627 55.2807L34.6765 64.0895C22.6405 65.0997 16.6225 65.6048 11.9797 63.5725C7.90064 61.7868 4.53411 58.691 2.41356 54.7756C0 50.3191 0 44.2449 0 32.0966V32.0966Z" fill="#FF5555"/>
</svg>
