<svg width="24" height="24" fill="none" xmlns="http://www.w3.org/2000/svg"><path clip-rule="evenodd" d="M7.422 19.82a.766.766 0 0 1 0 1.53.764.764 0 1 1 0-1.53ZM18.675 19.82a.766.766 0 1 1-.001 1.532.766.766 0 0 1 0-1.532Z" stroke="#3B3943" stroke-width="1.5" stroke-linecap="round" stroke-linejoin="round"/><path d="m2.75 3.25 2.08.36.963 11.473a1.802 1.802 0 0 0 1.797 1.653h10.912c.896 0 1.656-.658 1.785-1.546l.949-6.558a1.34 1.34 0 0 0-1.327-1.533H5.164M14.126 10.795h2.772" stroke="#3B3943" stroke-width="1.5" stroke-linecap="round" stroke-linejoin="round"/></svg>