<svg width="21" height="21" viewBox="0 0 21 21" fill="none" xmlns="http://www.w3.org/2000/svg">
<path fill-rule="evenodd" clip-rule="evenodd" d="M6.49545 17.3428C6.8647 17.3428 7.16482 17.6429 7.16482 18.0121C7.16482 18.3814 6.8647 18.6806 6.49545 18.6806C6.1262 18.6806 5.82695 18.3814 5.82695 18.0121C5.82695 17.6429 6.1262 17.3428 6.49545 17.3428Z" stroke="white" stroke-width="0.949219" stroke-linecap="round" stroke-linejoin="round"/>
<path fill-rule="evenodd" clip-rule="evenodd" d="M16.3401 17.3428C16.7093 17.3428 17.0094 17.6429 17.0094 18.0121C17.0094 18.3814 16.7093 18.6806 16.3401 18.6806C15.9708 18.6806 15.6708 18.3814 15.6708 18.0121C15.6708 17.6429 15.9708 17.3428 16.3401 17.3428Z" stroke="white" stroke-width="0.949219" stroke-linecap="round" stroke-linejoin="round"/>
<path d="M2.40625 2.84375L4.22625 3.15875L5.06887 13.1976C5.13712 14.0158 5.8205 14.644 6.64125 14.644H16.1892C16.9732 14.644 17.6383 14.0682 17.7512 13.2912L18.5815 7.553C18.6838 6.84512 18.1353 6.21162 17.4203 6.21162H4.5185" stroke="white" stroke-width="0.949219" stroke-linecap="round" stroke-linejoin="round"/>
<path d="M12.3607 9.44592H14.7871" stroke="white" stroke-width="0.949219" stroke-linecap="round" stroke-linejoin="round"/>
</svg>
