<svg width="22" height="22" xmlns="http://www.w3.org/2000/svg">

 <g>
  <title>background</title>
  <rect fill="none" id="canvas_background" height="402" width="582" y="-1" x="-1"/>
 </g>
 <g>
  <title>Layer 1</title>
  <path id="svg_1" fill="#ffffff" d="m18.9456,0.85354l-18.09217,18.09216c-0.47134,0.4713 -0.47134,1.2355 0,1.7068c0.47133,0.4714 1.23552,0.4714 1.70685,0l18.09212,-18.0921c0.4714,-0.47134 0.4714,-1.23553 0,-1.70686c-0.4713,-0.47134 -1.2355,-0.47133 -1.7068,0z"/>
  <path id="svg_2" fill="#ffffff" d="m20.6526,18.9456l-18.09214,-18.09217c-0.47134,-0.47134 -1.23552,-0.47134 -1.70686,0c-0.47133,0.47133 -0.47133,1.23552 0,1.70686l18.0921,18.09211c0.4714,0.4714 1.2356,0.4714 1.7069,0c0.4713,-0.4713 0.4713,-1.2355 0,-1.7068z"/>
 </g>
</svg>