<svg width="22" height="22" viewBox="0 0 22 22" fill="none" xmlns="http://www.w3.org/2000/svg">
<path d="M18.9456 0.85354L0.853429 18.9457C0.382094 19.417 0.382092 20.1812 0.853428 20.6525C1.32476 21.1239 2.08895 21.1239 2.56028 20.6525L20.6524 2.5604C21.1238 2.08906 21.1238 1.32487 20.6524 0.853538C20.1811 0.382203 19.4169 0.382205 18.9456 0.85354Z" fill="#3B3943"/>
<path d="M20.6526 18.9456L2.56046 0.853428C2.08912 0.382093 1.32494 0.382093 0.853602 0.853428C0.382266 1.32476 0.382266 2.08895 0.853602 2.56029L18.9457 20.6524C19.4171 21.1238 20.1813 21.1238 20.6526 20.6524C21.1239 20.1811 21.1239 19.4169 20.6526 18.9456Z" fill="#3B3943"/>
</svg>
