<svg width="24" height="24" fill="none" xmlns="http://www.w3.org/2000/svg"><path d="M23.87 6.948a.475.475 0 0 0-.017-.017L18.9 2.528a.471.471 0 0 0-.155-.095l-3.584-1.28a.471.471 0 0 0-.631.419c0 .103-.155 2.49-2.543 2.528-2.402-.037-2.553-2.425-2.557-2.528a.47.47 0 0 0-.627-.42L5.223 2.447a.47.47 0 0 0-.155.095L.147 6.93a.471.471 0 0 0 0 .683l3.918 3.96v10.832c0 .26.21.47.47.47h14.93c.26 0 .47-.21.47-.47V11.574l3.918-3.96a.47.47 0 0 0 .017-.666Zm-3.949 3.284V8.047a.47.47 0 1 0-.942 0V21.91H4.988V8.047a.471.471 0 0 0-.942 0v2.19L1.15 7.303 5.633 3.29l2.948-1.064a3.47 3.47 0 0 0 6.814 0l2.948 1.064 4.47 4.013-2.892 2.929Z" fill="#fff"/></svg>