<svg width="24" height="24" fill="none" xmlns="http://www.w3.org/2000/svg"><g clip-path="url(#a)" fill="#fff"><path d="M17.785 21.194v-3.4c0-.622-.506-1.128-1.128-1.128H7.343a1.13 1.13 0 0 0-1.128 1.128v3.4c0 .622.506 1.128 1.128 1.128h9.314c.622 0 1.128-.506 1.128-1.128Zm-.703 0c0 .234-.19.424-.425.424H7.343a.425.425 0 0 1-.425-.424v-3.4c0-.235.19-.425.425-.425h9.314c.234 0 .425.19.425.425v3.4Z"/><path d="M15.698 18.617H8.302a.352.352 0 0 0 0 .703h5.683l-.13.964a.58.58 0 0 0 .575.657h.93a.58.58 0 0 0 .574-.657l-.13-.98a.352.352 0 0 0-.106-.687Zm-1.127 1.62.123-.917h.402l.122.918h-.647Z"/><path d="M20.47 10.284v-.013l-.218-4.474c-.071-1.473-1.008-2.684-2.262-3.074V.671A.672.672 0 0 0 17.32 0h-3.036a.672.672 0 0 0-.672.671v1.92h-3.225V.67A.672.672 0 0 0 9.717 0H6.68a.672.672 0 0 0-.672.671v2.054c-.386.12-.752.32-1.07.59a.352.352 0 1 0 .456.536 2.279 2.279 0 0 1 1.485-.557c10.72 0 10.238-.005 10.447.01 1.199.112 2.158 1.181 2.223 2.527.232 4.789.219 4.494.219 4.552a1.57 1.57 0 0 1-1.57 1.568h-.414V10.2a.535.535 0 0 0-.534-.533h-1.553a.535.535 0 0 0-.534.534v1.749H8.836V10.2a.535.535 0 0 0-.534-.533H6.749a.535.535 0 0 0-.534.534v1.749H5.8a1.57 1.57 0 0 1-1.567-1.646l.217-4.474c.013-.271.063-.537.148-.79a.352.352 0 1 0-.667-.224 3.617 3.617 0 0 0-.184.98L3.53 10.27v.002c-.017.363-.511 10.476-.511 10.623A3.108 3.108 0 0 0 6.125 24h9.834a.352.352 0 1 0 0-.703H6.125a2.404 2.404 0 0 1-2.403-2.4c0-.088-.028.515.431-8.951a2.28 2.28 0 0 0 1.647.708h.415v1.038c0 .723.588 1.31 1.31 1.31.723 0 1.31-.587 1.31-1.31v-1.038h6.329v1.038a1.31 1.31 0 0 0 2.62 0v-1.038c.431 0 1.312.081 2.063-.708.458 9.46.43 8.862.43 8.95 0 1.324-1.077 2.4-2.402 2.4H17.6a.351.351 0 1 0 0 .704h.275a3.108 3.108 0 0 0 3.106-3.103c0-.114.032.586-.511-10.613Zm-4.815-7.695-1.34.002V.703h2.972v1.893c-.177-.01-1.434-.007-1.632-.007Zm-8.927.006h-.015V.704h2.971v1.888c-3.071 0-2.837-.002-2.956.004Zm1.405 11.097a.608.608 0 0 1-1.215 0v-3.321h1.215v3.321Zm8.341.607a.608.608 0 0 1-.607-.607v-3.321h1.215v3.335a.608.608 0 0 1-.608.593Z"/></g><defs><clipPath id="a"><path fill="#fff" d="M0 0h24v24H0z"/></clipPath></defs></svg>