<svg width="24" height="24" fill="none" xmlns="http://www.w3.org/2000/svg"><path d="M15.66 6.188a.607.607 0 1 0 0-1.213.607.607 0 0 0 0 1.213ZM8.34 6.188a.607.607 0 1 0 0-1.213.607.607 0 0 0 0 1.213Z" fill="#3B3943"/><path d="M21.594 17.21c.382-.367.6-.857.647-1.462.13-1.668-.72-3.12-2.456-4.199a9.889 9.889 0 0 0-2.37-1.046c.75-.939 1.192-2.08 1.192-3.31 0-.7-.142-1.441-.405-2.173a2.294 2.294 0 0 0 1.742-2.223 2.292 2.292 0 0 0-2.29-2.29c-.757 0-1.46.382-1.881.987C14.635.524 13.329 0 12 0c-1.329 0-2.635.523-3.773 1.494A2.304 2.304 0 0 0 6.346.507a2.292 2.292 0 0 0-2.29 2.29c0 1.073.743 1.976 1.742 2.223-.263.732-.405 1.473-.405 2.173 0 1.232.443 2.375 1.196 3.315a9.89 9.89 0 0 0-2.351 1.041C2.5 12.63 1.652 14.08 1.782 15.748c.047.6.26 1.086.635 1.451-.6.604-.874 1.466-.642 2.295l.783 2.8C2.848 23.33 3.84 24 4.941 24c.245 0 .496-.033.746-.103h.001l4.124-1.172a8.745 8.745 0 0 0 4.376 0l4.124 1.171h.002c.25.07.5.104.745.104 1.101 0 2.093-.67 2.383-1.707l.783-2.799c.23-.824-.038-1.68-.631-2.284Zm-.129-1.523c-.036.458-.203.801-.508 1.046a2.777 2.777 0 0 0-1.252-.335l.001-.137c0-1.517-.577-3.207-1.558-4.673 1.38.575 3.494 1.83 3.317 4.1Zm-3.81-14.401c.833 0 1.51.678 1.51 1.51 0 .75-.55 1.375-1.267 1.492a8.613 8.613 0 0 0-1.55-2.25 1.52 1.52 0 0 1 1.306-.752Zm-12.82 1.51c0-.832.677-1.51 1.51-1.51.542 0 1.04.294 1.307.753a8.617 8.617 0 0 0-1.55 2.25 1.514 1.514 0 0 1-1.268-1.492Zm3.066.129C9.073 1.541 10.529.778 12 .778c1.47 0 2.926.763 4.098 2.147 1.083 1.278 1.73 2.874 1.73 4.268 0 2.649-2.407 4.823-5.44 4.996V7.637c.78-.095 1.314-.477 1.314-.976 0-.58-.716-1-1.703-1-.987 0-1.703.42-1.703 1 0 .5.534.88 1.314.976v4.552c-3.033-.173-5.44-2.347-5.44-4.996 0-1.394.647-2.99 1.73-4.268ZM12 6.882c-.483 0-.795-.136-.9-.221.105-.086.417-.221.9-.221.481 0 .793.135.898.22-.105.086-.417.222-.899.222ZM4.632 12.22a8.48 8.48 0 0 1 1.212-.62c-.977 1.463-1.552 3.148-1.552 4.661l.002.137a2.792 2.792 0 0 0-1.239.327c-.299-.243-.463-.585-.498-1.038-.107-1.373.59-2.54 2.075-3.467Zm.844 10.927c-.957.268-1.93-.209-2.17-1.063l-.783-2.8c-.239-.854.346-1.767 1.303-2.034a1.9 1.9 0 0 1 1.37.118c.401.203.685.538.799.945l.783 2.8c.114.407.046.84-.193 1.222a1.9 1.9 0 0 1-1.11.812Zm2.115-1.355c.3.183.611.345.935.488l-1.209.344c.146-.265.238-.546.274-.832Zm2.33.158a7.233 7.233 0 0 1-2.425-1.16l-.752-2.686a2.285 2.285 0 0 0-1.198-1.43 2.572 2.572 0 0 0-.47-.182 5.166 5.166 0 0 1-.005-.231c0-1.683.797-3.614 2.099-5.124 1.207 1.132 2.925 1.842 4.83 1.842 1.903 0 3.622-.71 4.828-1.842 1.302 1.51 2.1 3.441 2.1 5.124 0 .078-.003.155-.006.231a2.576 2.576 0 0 0-.47.181c-.599.302-1.025.81-1.198 1.43l-.752 2.687c-1.253.925-2.847 1.433-4.503 1.433-.71 0-1.41-.092-2.078-.273Zm6.485-.159c.037.286.13.568.275.833l-1.211-.344c.324-.143.637-.306.936-.489Zm5.069-2.506-.784 2.799c-.239.854-1.212 1.331-2.169 1.063a1.9 1.9 0 0 1-1.11-.812 1.516 1.516 0 0 1-.192-1.223l.783-2.799c.114-.407.398-.742.8-.945a1.9 1.9 0 0 1 1.37-.118c.957.267 1.54 1.18 1.302 2.035Z" fill="#3B3943"/></svg>