<svg width="806" height="504" viewBox="0 0 806 504" fill="none" xmlns="http://www.w3.org/2000/svg">
<g clip-path="url(#clip0_1_14)">
<path d="M399.345 212.134C398.072 233.726 390.905 256.18 367.229 259.312C320.08 265.527 323.98 205.99 323.98 205.99C323.98 205.99 312.633 203.453 307.7 194.677C305.909 191.507 304.498 188.137 303.496 184.637C301.1 176.172 302.166 170.22 302.166 170.22H396.069C396.069 170.22 400.6 190.74 399.345 212.134Z" fill="white"/>
<path d="M360.562 263.053C350.632 263.053 342.339 259.992 335.843 253.909C321.485 240.456 320.514 216.428 320.617 208.417C316.562 207.02 308.914 203.541 304.836 196.293C296.81 182.025 298.843 170.138 298.939 169.639C299.076 168.882 299.475 168.198 300.065 167.705C300.656 167.212 301.4 166.941 302.169 166.941H396.076C396.825 166.941 397.551 167.197 398.134 167.666C398.717 168.135 399.122 168.79 399.283 169.521C399.751 171.642 410.552 221.795 392.35 247.776C386.438 256.214 378.132 261.192 367.655 262.574C365.303 262.889 362.934 263.049 360.562 263.053ZM305.219 173.509C305.183 177.315 305.857 184.712 310.564 193.071C314.701 200.428 324.609 202.77 324.708 202.793C325.47 202.967 326.144 203.406 326.612 204.032C327.08 204.658 327.309 205.43 327.26 206.209C327.242 206.497 325.576 235.327 340.345 249.128C346.825 255.188 355.722 257.519 366.796 256.058C375.487 254.911 382.092 250.968 386.963 244.003C401.337 223.496 395.293 183.949 393.369 173.509H305.219Z" fill="#371A45"/>
<path d="M528.664 204.919C528.814 204.132 538.878 178.381 537.366 164.128C536.049 151.707 516.413 122.035 489.803 113.274C463.098 104.483 452.717 166.318 452.717 166.318L528.664 204.919Z" fill="white"/>
<path d="M530.988 198.178C529.698 202.077 528.714 204.679 528.664 204.917L452.717 166.316C454.193 158.268 456.27 150.342 458.931 142.605C464.644 126.235 474.57 108.255 489.807 113.272C516.416 122.031 536.045 151.709 537.366 164.136C538.41 173.999 533.896 189.385 530.988 198.178Z" fill="white"/>
<g opacity="0.35">
<path opacity="0.35" d="M530.988 198.178C529.698 202.078 528.714 204.68 528.664 204.918L452.717 166.316C454.193 158.268 456.27 150.343 458.931 142.606C462.888 141.168 467.338 140.973 472.312 142.491C504.274 152.259 528.705 182.851 530.708 195.403C530.859 196.321 530.953 197.248 530.988 198.178Z" fill="#371A45"/>
</g>
<path d="M531.074 209.828L449.078 168.153L449.478 165.776C449.771 164.029 456.864 122.899 475.039 111.927C479.995 108.932 485.308 108.338 490.829 110.156C518.738 119.342 539.227 150.535 540.631 163.784C541.553 172.563 538.735 186.315 532.224 204.657C532.053 205.144 531.925 205.498 531.855 205.7L531.074 209.828ZM531.889 205.531L531.879 205.582C531.883 205.562 531.887 205.546 531.889 205.531ZM456.385 164.501L526.797 200.286C533.8 180.038 534.649 169.652 534.1 164.475C532.994 153.97 514.709 124.93 488.776 116.394C485.105 115.185 481.723 115.563 478.437 117.546C466.322 124.858 458.825 151.976 456.385 164.501Z" fill="#371A45"/>
<path d="M495.12 166.557C495.304 159.055 499.005 142.968 507.145 143.79C515.285 144.612 531.729 156.28 526.973 178.252C523.285 195.312 494.941 174.058 495.12 166.557Z" fill="white"/>
<g opacity="0.35">
<path opacity="0.35" d="M527.447 175.658C527.325 176.504 527.168 177.373 526.978 178.26C523.293 195.312 494.945 174.056 495.126 166.554C495.216 162.818 496.176 156.949 498.139 152.096C500.997 159.066 516.146 171.487 527.447 175.658Z" fill="#371A45"/>
</g>
<path d="M519.534 188.007C518.913 188.005 518.293 187.967 517.677 187.893C507.117 186.636 491.662 173.828 491.837 166.478C491.989 160.122 494.382 148.138 500.158 143.037C502.318 141.129 504.846 140.257 507.473 140.523C512.504 141.028 519.927 144.761 525.177 151.984C528.988 157.225 532.951 166.159 530.183 178.955C528.92 184.784 525.085 188.007 519.534 188.007ZM498.404 166.629C498.538 169.578 510.217 180.678 518.784 181.409C521.711 181.658 523.111 180.582 523.76 177.571C526.016 167.149 522.885 160.008 519.862 155.852C515.557 149.931 509.701 147.351 506.815 147.061C506.321 147.013 505.537 147.05 504.504 147.964C500.787 151.245 498.538 161.078 498.404 166.626V166.629Z" fill="#371A45"/>
<path d="M511.866 148.042C511.426 150.095 511.044 152.219 510.724 154.307C510.403 156.395 510.145 158.515 509.986 160.599C509.809 162.622 509.788 164.655 509.924 166.681C509.984 167.572 510.133 168.454 510.368 169.316C510.567 170.072 510.967 170.606 511.009 170.529C511.319 170.833 511.566 171.195 511.735 171.595C511.904 171.994 511.992 172.424 511.994 172.858C511.996 173.292 511.912 173.722 511.746 174.123C511.581 174.525 511.338 174.889 511.031 175.196C510.724 175.503 510.359 175.746 509.958 175.911C509.556 176.076 509.126 176.16 508.692 176.157C508.258 176.155 507.829 176.066 507.429 175.897C507.029 175.728 506.667 175.481 506.363 175.171C505.72 174.464 505.22 173.64 504.889 172.744C504.625 172.04 504.44 171.308 504.336 170.564C504.159 169.3 504.104 168.023 504.174 166.749C504.309 164.447 504.621 162.158 505.108 159.904C505.558 157.693 506.105 155.553 506.71 153.428C507.314 151.304 507.97 149.221 508.709 147.113C508.845 146.714 509.128 146.383 509.5 146.187C509.872 145.991 510.306 145.945 510.711 146.059C511.116 146.173 511.462 146.438 511.677 146.799C511.893 147.16 511.962 147.59 511.87 148.001L511.866 148.042Z" fill="#371A45"/>
<path d="M591.873 204.228C591.316 206.566 590.129 208.707 588.441 210.418C581.274 217.569 569.172 211.371 566.71 209.991C566.422 209.836 566.265 209.736 566.265 209.736C565.801 212.204 565.209 214.645 564.493 217.051C562.9 222.511 560.108 230.32 555.56 237.855C536.685 269.135 501.967 241.943 501.967 241.943L399.937 231.344L377.343 228.997C377.343 228.997 358.206 221.551 357.467 174.508C356.999 144.773 420.649 145.134 450.565 147.498C509.044 152.129 526.842 204.516 532.417 197.61C536.728 192.266 537.785 173.771 543.524 167.809C548.721 162.407 563.549 164.434 577.94 176.496C590.599 187.119 593.607 197.225 591.873 204.228Z" fill="white"/>
<g opacity="0.35">
<path opacity="0.35" d="M591.871 204.228C591.315 206.566 590.128 208.707 588.44 210.419C581.273 217.569 569.171 211.371 566.708 209.991C566.331 201.329 564.097 192.382 566.635 192.159C569.91 191.881 573.367 214.698 591.871 204.228Z" fill="#371A45"/>
</g>
<g opacity="0.35">
<path opacity="0.35" d="M564.489 217.051C562.897 222.511 560.105 230.32 555.557 237.855C536.682 269.135 501.964 241.943 501.964 241.943L399.934 231.344C409.275 208.078 426.204 179.279 450.226 181.033C490.241 183.93 502.498 217.523 532.701 236.604C551.025 248.181 564.088 215.317 564.088 215.317C564.088 215.317 564.23 215.936 564.489 217.051Z" fill="#371A45"/>
</g>
<path d="M530.992 256.189C516.899 256.189 504.015 247.516 500.726 245.12L376.563 232.22L376.152 232.06C375.286 231.722 354.958 223.254 354.181 174.561C354.081 168.207 356.481 162.686 361.313 158.149C379.926 140.669 430.119 142.593 450.828 144.233C492.497 147.53 513.855 173.844 525.341 187.981C527.23 190.309 529.311 192.872 530.673 194.194C531.847 191.757 532.897 187.559 533.846 183.754C535.606 176.701 537.429 169.41 541.159 165.533C548.37 158.036 565.454 161.751 580.044 173.986C592.423 184.366 595.327 193.621 595.583 199.555C595.806 204.739 594.094 209.423 590.759 212.75C583.907 219.569 574.038 216.891 568.565 214.561C567.201 220.029 564.173 229.933 558.364 239.557C552.893 248.625 545.621 254.049 536.753 255.678C534.852 256.023 532.924 256.194 530.992 256.189ZM378.258 225.781L503.249 238.77L503.986 239.354C504.146 239.477 520.426 252.003 535.59 249.202C542.515 247.912 548.287 243.53 552.742 236.151C560.539 223.229 562.995 209.317 563.019 209.176L563.839 204.405L567.964 206.928C568.124 207.024 580.053 214.132 586.118 208.085C588.133 206.077 589.163 203.145 589.021 199.826C588.739 193.3 584.045 185.906 575.822 179.001C562.612 167.923 549.481 166.335 545.886 170.068C543.37 172.683 541.692 179.401 540.212 185.328C538.693 191.409 537.383 196.66 534.965 199.656C534.524 200.226 533.96 200.688 533.314 201.007C532.669 201.326 531.959 201.494 531.239 201.499H531.229C527.87 201.499 525.319 198.366 520.237 192.1C509.378 178.726 489.165 153.832 450.304 150.757C418.404 148.234 379.454 150.101 365.802 162.92C362.326 166.182 360.671 169.95 360.743 174.44C361.385 214.792 375.901 224.484 378.258 225.79V225.781Z" fill="#371A45"/>
<path d="M568.268 192.03C568.521 193.543 568.725 195.008 568.906 196.504C569.087 198.001 569.232 199.493 569.35 201.003C569.604 204.068 569.657 207.146 569.511 210.217V210.228C569.463 211.101 569.071 211.919 568.42 212.502C567.77 213.086 566.915 213.388 566.043 213.342C565.17 213.295 564.352 212.905 563.767 212.256C563.182 211.607 562.878 210.753 562.922 209.88C562.934 209.674 562.965 209.47 563.013 209.27C563.662 206.524 564.133 203.738 564.424 200.931C564.581 199.503 564.704 198.066 564.793 196.62C564.889 195.185 564.957 193.716 564.986 192.303V192.264C564.996 191.855 565.159 191.464 565.441 191.168C565.724 190.871 566.106 190.691 566.515 190.662C566.923 190.632 567.328 190.756 567.65 191.008C567.972 191.261 568.189 191.624 568.257 192.028L568.268 192.03Z" fill="#371A45"/>
<path d="M529.58 193.043C530.657 194.369 531.608 195.638 532.575 196.965C533.543 198.292 534.457 199.619 535.349 200.983C537.123 203.719 538.793 206.546 540.094 209.644C540.253 210.023 540.265 210.449 540.126 210.836C539.988 211.223 539.709 211.544 539.345 211.737C538.982 211.929 538.559 211.978 538.161 211.874C537.763 211.77 537.419 211.521 537.195 211.176L537.171 211.139C535.55 208.621 533.559 206.272 531.458 204.022C530.405 202.9 529.325 201.802 528.217 200.728C527.111 199.665 525.963 198.583 524.857 197.623C524.507 197.347 524.217 197.002 524.004 196.611C523.791 196.219 523.66 195.789 523.618 195.345C523.576 194.901 523.625 194.453 523.761 194.029C523.897 193.605 524.118 193.212 524.41 192.875C524.702 192.539 525.059 192.265 525.46 192.07C525.861 191.875 526.298 191.764 526.743 191.743C527.188 191.721 527.633 191.79 528.051 191.946C528.468 192.101 528.85 192.34 529.173 192.647C529.319 192.769 529.455 192.901 529.58 193.043Z" fill="#371A45"/>
<path d="M515.529 199.827C511.401 211.666 502.927 223.013 488.339 227.823L472.938 217.856C472.938 217.856 486.54 210.385 493.025 196.765C493.831 195.065 494.534 193.424 495.135 191.84C501.465 175.199 497.302 164.632 497.302 164.632C497.302 164.632 506.62 157.17 514.478 165.354C519.133 170.216 520.562 185.396 515.529 199.827Z" fill="white"/>
<g opacity="0.35">
<path opacity="0.35" d="M515.529 199.827C511.401 211.666 502.927 223.012 488.339 227.822L472.938 217.856C472.938 217.856 486.54 210.385 493.025 196.764C493.831 195.065 494.534 193.424 495.135 191.84C497.531 195.319 500.824 198.694 504.902 199.713C508.386 200.589 512.027 200.628 515.529 199.827Z" fill="#371A45"/>
</g>
<path d="M488.34 231.099C487.558 231.1 486.803 230.822 486.208 230.315C485.613 229.808 485.219 229.106 485.095 228.335C484.972 227.564 485.127 226.774 485.533 226.106C485.94 225.439 486.571 224.939 487.313 224.695C505.209 218.798 511.601 202.964 513.818 194.052C516.993 181.286 514.857 170.498 512.096 167.619C508.082 163.436 503.564 164.794 501.107 166.076C502.213 171.052 503.374 182.662 495.986 198.172C489.125 212.58 475.108 220.401 474.514 220.727C473.752 221.138 472.858 221.232 472.027 220.986C471.196 220.741 470.495 220.178 470.078 219.419C469.661 218.66 469.56 217.766 469.798 216.934C470.037 216.101 470.594 215.396 471.35 214.972C471.56 214.854 484.147 207.757 490.055 195.349C498.507 177.606 494.272 165.92 494.229 165.804L493.387 163.572L495.241 162.059C499.275 158.83 508.982 154.886 516.834 163.072C522.107 168.568 523.519 182.263 520.192 195.636C515.861 213.037 504.629 225.904 489.37 230.933C489.037 231.043 488.69 231.099 488.34 231.099Z" fill="#371A45"/>
<g opacity="0.4">
<path opacity="0.4" d="M442.573 264.841C440.02 266.099 437.195 266.705 434.351 266.606C431.506 266.507 428.73 265.705 426.271 264.271C428.575 265.029 431.024 265.24 433.424 264.888C435.824 264.536 438.109 263.63 440.099 262.243C442.089 260.856 443.728 259.025 444.889 256.895C446.049 254.765 446.698 252.395 446.785 249.971C446.872 247.547 446.393 245.136 445.388 242.929C444.382 240.721 442.877 238.778 440.991 237.253C439.106 235.727 436.891 234.661 434.522 234.139C432.154 233.617 429.696 233.652 427.344 234.243C426.852 234.367 426.376 234.514 425.906 234.68C426.369 234.396 426.842 234.127 427.338 233.891C429.373 232.869 431.59 232.259 433.861 232.097C436.133 231.936 438.413 232.226 440.572 232.95C442.731 233.675 444.725 234.819 446.439 236.318C448.154 237.817 449.554 239.641 450.56 241.684C451.566 243.727 452.157 245.949 452.3 248.221C452.443 250.494 452.134 252.772 451.392 254.925C450.65 257.078 449.489 259.063 447.976 260.764C446.463 262.466 444.628 263.852 442.577 264.841H442.573Z" fill="white"/>
</g>
<path d="M177.698 501.398C197.709 501.398 212.317 489.792 212.317 466.379V447.569H223.523C242.734 447.569 252.739 435.762 252.739 419.153C252.739 402.544 242.934 390.537 223.523 390.537H212.317V255.063C212.317 223.645 188.504 203.434 151.683 203.434C122.668 203.434 105.658 215.041 83.4459 249.46C56.8313 289.682 33.8186 326.102 14.608 360.721C4.40242 378.731 0 392.538 0 406.546C0 430.96 18.0099 447.569 44.4244 447.569H142.879V466.379C142.879 489.792 157.487 501.398 177.698 501.398ZM144.88 393.139H61.4338V391.138C84.8467 346.113 108.66 309.092 143.479 258.665H144.88V393.139Z" fill="#FF5555"/>
<path d="M399.02 504C475.462 504 522.688 445.968 522.688 351.716C522.688 256.864 475.061 200.633 399.02 200.633C323.178 200.633 275.151 257.064 275.151 351.916C275.151 446.368 322.578 504 399.02 504ZM399.02 446.768C368.603 446.768 349.793 414.951 349.793 351.716C349.793 288.881 368.603 257.864 399.02 257.864C429.436 257.864 448.047 288.681 448.047 351.916C448.047 414.951 429.636 446.768 399.02 446.768Z" fill="#FF5555"/>
<path d="M730.002 501.398C750.013 501.398 764.621 489.792 764.621 466.379V447.569H775.827C795.037 447.569 805.043 435.762 805.043 419.153C805.043 402.544 795.238 390.537 775.827 390.537H764.621V255.063C764.621 223.645 740.808 203.434 703.987 203.434C674.971 203.434 657.962 215.041 635.75 249.46C609.135 289.682 586.123 326.102 566.912 360.721C556.706 378.731 552.304 392.538 552.304 406.546C552.304 430.96 570.314 447.569 596.728 447.569H695.183V466.379C695.183 489.792 709.791 501.398 730.002 501.398ZM697.184 393.139H613.738V391.138C637.151 346.113 660.964 309.092 695.783 258.665H697.184V393.139Z" fill="#FF5555"/>
<g opacity="0.3">
<path opacity="0.3" d="M316.348 282.921C316.963 282.081 317.584 281.243 318.237 280.411C317.592 281.243 316.963 282.074 316.348 282.921Z" fill="#293856"/>
</g>
<g opacity="0.35">
<path opacity="0.45" d="M470.697 209.392C469.265 214.033 467.335 218.506 464.941 222.732C463.486 225.299 461.828 227.745 459.982 230.047C458.208 232.261 456.25 234.321 454.129 236.204C449.407 240.4 443.424 242.665 437.2 243.684C423.047 246.016 407.686 241.853 403.269 239.053C397.523 235.408 391.192 229.99 390.215 215.96C390.166 215.302 390.134 214.629 390.109 213.933C387.145 214.368 384.149 214.67 381.143 214.836C379.215 214.941 377.286 215 375.347 215C360.068 214.943 345 211.423 331.278 204.703C329.66 203.9 328.068 203.078 326.516 202.208C323.358 200.449 320.297 198.522 317.346 196.436C312.38 192.934 307.744 188.986 303.496 184.642C301.1 176.177 302.166 170.225 302.166 170.225H396.069C396.069 170.225 399.386 185.2 399.559 202.908C400.018 202.835 400.48 202.759 400.954 202.695C402.333 202.488 403.704 202.308 405.084 202.153C405.65 202.079 406.217 202.022 406.783 201.969C407.415 201.895 408.057 201.838 408.689 201.784C409.313 201.727 409.936 201.67 410.561 201.62H410.611C411.243 201.571 411.882 201.521 412.515 201.48C413.795 201.399 415.076 201.333 416.357 201.283C416.989 201.259 417.621 201.233 418.263 201.219C418.895 201.202 419.527 201.193 420.159 201.185C420.791 201.178 421.449 201.169 422.072 201.169C422.695 201.169 423.377 201.169 424.025 201.185C424.394 201.185 424.762 201.185 425.131 201.202H425.155L426.312 201.226L428.185 201.3C428.553 201.3 428.922 201.324 429.301 201.349H429.342C429.867 201.373 430.402 201.407 430.927 201.44C431.625 201.48 432.315 201.521 433.011 201.58C433.073 201.581 433.134 201.586 433.195 201.594C433.885 201.644 434.583 201.701 435.272 201.76C435.658 201.801 436.045 201.834 436.43 201.875C437.44 201.972 438.457 202.079 439.459 202.203C440.092 202.276 440.733 202.359 441.365 202.44L442.458 202.59C442.499 202.598 442.54 202.603 442.581 202.604C443.064 202.671 443.541 202.744 444.017 202.818C444.813 202.934 445.609 203.065 446.398 203.187C446.628 203.227 446.849 203.26 447.08 203.303C447.211 203.327 447.334 203.343 447.465 203.367C448.599 203.564 449.732 203.778 450.865 204.009C452.129 204.254 453.384 204.525 454.632 204.805C455.257 204.952 455.88 205.092 456.504 205.247C457.129 205.402 457.745 205.544 458.368 205.708H458.377C458.992 205.863 459.615 206.028 460.231 206.192C460.846 206.357 461.464 206.521 462.074 206.701C462.689 206.873 463.297 207.046 463.917 207.234C464.532 207.418 465.138 207.602 465.747 207.787C466.975 208.164 468.19 208.558 469.392 208.968H469.401C469.884 209.104 470.286 209.244 470.697 209.392Z" fill="black"/>
</g>
<path d="M281.175 147.553C288.564 163.081 299.824 176.445 313.873 186.361C316.827 188.445 319.89 190.371 323.049 192.129C324.597 192.997 326.182 193.825 327.811 194.628C332.622 196.988 337.614 198.96 342.738 200.526C352.179 203.419 361.995 204.901 371.869 204.923C373.805 204.923 375.736 204.87 377.661 204.764C412.886 202.783 446.033 182.353 462.641 148.409C487.114 98.409 466.415 38.0431 416.425 13.5695C407.055 8.97467 397.027 5.86599 386.701 4.35498C385.525 4.17069 384.34 4.02326 383.153 3.89978C379.981 3.5484 376.813 3.34876 373.651 3.30084C359.116 3.10613 344.709 6.04003 331.408 11.9035C329.31 12.8286 327.242 13.8256 325.205 14.8945C306.272 24.8486 291 40.5732 281.604 59.7892C267.515 88.5495 268.389 120.736 281.175 147.553Z" fill="white"/>
<path d="M371.878 205.247C361.972 205.226 352.123 203.739 342.652 200.837C337.511 199.265 332.504 197.287 327.676 194.923C325.894 194.039 324.333 193.22 322.896 192.415C319.728 190.65 316.656 188.719 313.692 186.628C299.608 176.67 288.314 163.265 280.889 147.695C267.504 119.624 267.657 87.5304 281.309 59.6438C290.741 40.3603 306.069 24.5814 325.07 14.5942C327.074 13.5419 329.167 12.532 331.294 11.594C344.641 5.71183 359.096 2.76855 373.681 2.9637C376.843 3.01161 380.051 3.21433 383.216 3.56448C384.456 3.69348 385.656 3.84828 386.778 4.02152C397.131 5.53939 407.184 8.65928 416.578 13.2692C466.656 37.7797 487.455 98.4717 462.945 148.549C446.888 181.369 414.221 203.034 377.689 205.089C375.765 205.192 373.81 205.245 371.878 205.247ZM372.212 3.61055C358.208 3.62328 344.36 6.54715 331.546 12.1966C329.433 13.1273 327.352 14.1298 325.364 15.1766C306.483 25.0959 291.254 40.7729 281.886 59.9331C268.324 87.6392 268.171 119.523 281.468 147.412C288.845 162.88 300.065 176.197 314.057 186.092C317.002 188.169 320.055 190.088 323.204 191.842C324.632 192.642 326.185 193.456 327.953 194.334C336.804 198.666 346.241 201.679 355.965 203.277C361.228 204.14 366.552 204.579 371.886 204.591C373.804 204.591 375.756 204.536 377.657 204.433C413.951 202.391 446.397 180.868 462.361 148.259C486.714 98.5012 466.046 38.2183 416.288 13.8607C406.949 9.27876 396.954 6.17815 386.662 4.67022C385.556 4.49883 384.358 4.34587 383.125 4.21871C379.981 3.86856 376.793 3.66584 373.653 3.62161C373.174 3.61424 372.693 3.61055 372.212 3.61055Z" fill="#371A45"/>
<g opacity="0.35">
<path opacity="0.35" d="M281.175 147.55C288.564 163.077 299.825 176.442 313.873 186.357C316.827 188.442 319.89 190.367 323.049 192.126C324.597 192.994 326.182 193.821 327.811 194.625C332.622 196.984 337.614 198.956 342.739 200.522C352.179 203.415 361.995 204.897 371.869 204.919C373.806 204.919 375.736 204.866 377.662 204.761C412.887 202.78 446.033 182.349 462.641 148.405C471.21 130.973 474.535 111.429 472.211 92.1451C470.48 100.091 467.795 107.799 464.215 115.102C457.988 127.831 447.898 132.493 437.78 141.162C420.918 155.609 401.251 170.221 379.237 171.458C377.312 171.563 375.381 171.617 373.445 171.618C363.571 171.596 353.754 170.114 344.313 167.221C339.188 165.655 334.196 163.683 329.385 161.324C327.765 160.52 326.173 159.693 324.623 158.825C321.464 157.067 318.401 155.143 315.447 153.058C301.397 143.145 290.133 129.784 282.74 114.26C278.002 104.317 274.916 93.6685 273.601 82.7334C268.869 104.581 271.533 127.382 281.175 147.55Z" fill="#371A45"/>
</g>
<path d="M371.881 207.142C356.262 207.097 340.858 203.505 326.831 196.637C325.014 195.736 323.424 194.901 321.96 194.081C318.734 192.283 315.606 190.314 312.589 188.184C298.239 178.036 286.73 164.378 279.163 148.514C265.525 119.916 265.684 87.2191 279.594 58.8091C289.201 39.1647 304.817 23.0916 324.175 12.921C326.219 11.8466 328.351 10.8182 330.519 9.86363C344.113 3.86964 358.837 0.870955 373.692 1.07117C376.915 1.11909 380.185 1.32549 383.408 1.68301C384.668 1.81386 385.9 1.97235 387.051 2.15111C397.599 3.69609 407.843 6.87383 417.413 11.5701C468.435 36.5487 489.625 98.3705 464.652 149.391C448.294 182.828 415.014 204.899 377.796 206.993C375.834 207.092 373.845 207.142 371.881 207.142ZM372.212 5.50333C358.474 5.51722 344.889 8.38582 332.317 13.9272C330.244 14.8487 328.202 15.8254 326.252 16.85C307.73 26.5835 292.79 41.9639 283.599 60.7607C270.291 87.9434 270.146 119.225 283.188 146.588C290.425 161.762 301.432 174.826 315.158 184.533C318.047 186.571 321.043 188.454 324.131 190.174C325.536 190.959 327.061 191.761 328.801 192.623C342.212 199.205 356.946 202.646 371.884 202.684C373.764 202.684 375.673 202.629 377.551 202.527C413.154 200.524 445.001 179.408 460.647 147.425C484.54 98.6137 464.267 39.4642 415.456 15.5674C406.294 11.0728 396.489 8.0313 386.392 6.55194C385.286 6.38055 384.134 6.23312 382.932 6.10781C379.833 5.76503 376.707 5.56784 373.626 5.52177C373.154 5.5144 372.684 5.51071 372.212 5.51071V5.50333Z" fill="#371A45"/>
<path d="M371.882 208.203C356.099 208.155 340.534 204.522 326.362 197.577C324.519 196.665 322.918 195.823 321.438 194.997C318.181 193.182 315.022 191.195 311.975 189.046C297.477 178.794 285.85 164.996 278.205 148.969C264.43 120.08 264.588 87.0477 278.64 58.3464C288.347 38.4975 304.125 22.2567 323.684 11.9792C325.748 10.8937 327.905 9.85433 330.094 8.8905C343.826 2.83526 358.7 -0.19362 373.706 0.00958852C376.964 0.0575037 380.267 0.265758 383.525 0.626965C384.795 0.759653 386.042 0.918132 387.211 1.10058C397.863 2.66214 408.208 5.87218 417.873 10.6154C469.419 35.8484 490.826 98.3077 465.604 149.848C449.079 183.626 415.457 205.924 377.86 208.039C375.871 208.146 373.865 208.201 371.882 208.203ZM372.211 6.56477C358.62 6.5797 345.181 9.41815 332.744 14.9002C330.689 15.805 328.671 16.7762 326.742 17.7917C308.416 27.4197 293.634 42.6357 284.539 61.2324C271.374 88.1239 271.226 119.072 284.134 146.14C291.293 161.151 302.182 174.075 315.76 183.678C318.619 185.694 321.583 187.557 324.639 189.26C326.03 190.038 327.54 190.83 329.265 191.685C333.921 193.961 338.751 195.864 343.709 197.374C352.843 200.174 362.34 201.607 371.893 201.628C373.748 201.628 375.639 201.574 377.499 201.475C412.72 199.492 444.223 178.601 459.705 146.953C483.342 98.669 463.285 40.1478 414.996 16.5072C405.934 12.061 396.235 9.05176 386.247 7.58757C385.155 7.41925 384.016 7.27366 382.832 7.1508C379.758 6.80803 376.668 6.61453 373.618 6.56846C373.147 6.566 372.678 6.56477 372.211 6.56477Z" fill="#371A45"/>
<path d="M295.187 169.25C352.035 213.494 433.773 188.248 441.664 117.338C447.036 69.0961 403.951 26.5879 357.285 24.3948C323.323 22.7989 289.467 36.0972 272.579 88.1332C272.579 88.1332 268.661 112.323 274.422 128.861C280.182 145.399 288.573 160.507 288.573 160.507L295.187 169.25Z" fill="#371A45"/>
<g opacity="0.35">
<path opacity="0.35" d="M422.368 57.4009C428.45 70.0542 431.323 84.2132 429.686 98.9102C421.819 169.547 340.685 194.862 283.867 151.317C286.576 156.91 288.572 160.503 288.572 160.503L295.188 169.25C352.036 213.494 433.774 188.248 441.665 117.339C444.147 94.9775 436.223 73.8542 422.368 57.4009Z" fill="#111A28"/>
</g>
<path d="M357.514 204.11C352.456 204.11 347.403 203.76 342.393 203.063L341.999 202.977C336.741 201.371 331.62 199.35 326.682 196.932C324.858 196.027 323.264 195.191 321.793 194.369C318.558 192.566 315.421 190.593 312.394 188.458C297.995 178.275 286.447 164.57 278.854 148.652C265.176 119.962 265.332 87.1583 279.287 58.656C287.33 42.1933 299.614 28.1708 314.875 18.0313L315.096 17.8838L315.345 17.7843C327.714 12.8656 341.883 10.7426 357.481 11.4761C385.251 12.7827 413.136 26.7979 432.048 48.9716C449.436 69.3467 457.498 94.1447 454.753 118.795C451.765 145.587 439.595 167.984 419.553 183.564C402.381 196.928 380.372 204.11 357.514 204.11ZM343.302 198.01C369.967 201.657 396.6 194.923 416.411 179.519C435.33 164.809 446.819 143.615 449.655 118.231C452.235 95.0108 444.606 71.5932 428.149 52.3073C410.131 31.1932 383.624 17.8451 357.243 16.6086C342.5 15.9138 329.121 17.8838 317.49 22.4597C303.092 32.0859 291.502 45.3554 283.9 60.9173C270.631 88.0078 270.489 119.18 283.491 146.45C290.703 161.572 301.673 174.592 315.352 184.266C318.231 186.297 321.216 188.173 324.294 189.887C325.695 190.672 327.215 191.468 328.951 192.33C333.579 194.595 338.377 196.494 343.302 198.01Z" fill="#371A45"/>
<path d="M357.625 194.52C335.155 194.52 312.334 186.756 293.172 171.841L292.829 171.576L285.701 162.098C285.353 161.471 277.106 146.549 271.326 129.939C265.363 112.815 269.179 88.629 269.345 87.608L269.463 87.1196C284.343 41.2776 313.938 19.0671 357.448 21.1145C382.425 22.2884 407.492 34.8902 424.502 54.8211C440.152 73.1597 447.409 95.4919 444.936 117.702C441.367 149.75 422.79 175.105 393.971 187.263C382.41 192.135 370.072 194.52 357.625 194.52ZM297.547 166.921C325.406 188.424 361.331 193.904 391.413 181.212C417.976 170.004 435.104 146.59 438.407 116.975C440.677 96.5884 433.964 76.0291 419.504 59.0855C403.655 40.5073 380.335 28.7662 357.139 27.6752C317.028 25.7863 289.667 46.3861 275.79 88.8943C275.421 91.4044 272.408 113.082 277.526 127.779C282.773 142.841 290.349 156.897 291.348 158.716L297.547 166.921Z" fill="#371A45"/>
<path d="M434.116 118.161C434.116 118.305 434.116 118.458 434.116 118.602C434.484 138.269 446.301 153.489 460.668 152.682C475.151 151.873 486.719 135.084 486.535 115.205C486.384 99.8668 479.267 87.1526 469.365 82.5343C466.44 81.1408 463.21 80.507 459.975 80.6914C445.501 81.5005 433.919 98.2856 434.116 118.161Z" fill="white"/>
<g opacity="0.35">
<path opacity="0.35" d="M434.125 118.602C434.494 138.269 446.31 153.49 460.677 152.682C475.152 151.873 486.719 135.085 486.535 115.205C486.509 111.99 486.16 108.786 485.494 105.641C482.742 92.7681 465.205 90.6285 459.19 102.336L452.716 114.934C452.716 114.934 449.051 123.38 440.793 123.38C437.99 123.38 435.797 121.324 434.125 118.602Z" fill="#371A45"/>
</g>
<path d="M459.556 156.002C453.524 156.002 447.804 153.617 442.935 149.061C435.362 141.973 430.956 130.724 430.829 118.196C430.62 96.618 443.611 78.3217 459.788 77.4095C466.293 77.0409 472.493 79.4367 477.71 84.313C485.283 91.4007 489.689 102.652 489.816 115.178C490.026 136.754 477.034 155.052 460.855 155.965C460.422 155.989 459.996 156.002 459.556 156.002ZM461.063 83.9444C460.761 83.9444 460.461 83.9444 460.156 83.9702C447.441 84.6889 437.22 100.014 437.395 118.137C437.498 128.719 441.247 138.489 447.422 144.27C451.292 147.895 455.792 149.673 460.486 149.41C473.213 148.693 483.425 133.365 483.248 115.244C483.145 104.662 479.398 94.893 473.223 89.1119C469.598 85.7173 465.411 83.9407 461.063 83.9407V83.9444Z" fill="#371A45"/>
<path d="M490.104 120.838C491.301 105.315 482.745 91.9963 470.994 91.09C459.242 90.1838 448.746 102.033 447.549 117.556C446.351 133.08 454.907 146.398 466.658 147.305C478.41 148.211 488.906 136.362 490.104 120.838Z" fill="white"/>
<path d="M467.91 147.685C465.249 147.682 462.627 147.051 460.256 145.842C449.273 140.282 444.151 123.821 448.841 109.146C451.447 100.988 456.62 94.7715 463.032 92.0827C467.766 90.0998 472.865 90.2712 477.391 92.56C488.375 98.12 493.497 114.581 488.806 129.256C486.2 137.414 481.027 143.63 474.616 146.319C472.494 147.216 470.214 147.68 467.91 147.685ZM469.753 91.3603C467.535 91.3742 465.342 91.8303 463.302 92.7019C457.074 95.3096 452.039 101.376 449.492 109.347C444.901 123.722 449.86 139.816 460.57 145.23C464.976 147.462 469.747 147.626 474.36 145.689C480.591 143.079 485.625 137.012 488.172 129.044C492.765 114.669 487.804 98.5734 477.095 93.159C474.828 91.9881 472.315 91.3717 469.764 91.3603H469.753Z" fill="#371A45"/>
<g opacity="0.35">
<path opacity="0.35" d="M448.366 130.798C446.993 125.553 447.054 119.925 448.276 114.61C452.411 126.301 463.127 130.984 473.122 125.039C479.583 121.202 484.251 113.797 486.138 105.591C486.403 106.328 486.635 107.1 486.846 107.894C490.332 121.248 485.371 138.671 474.736 144.996C464.101 151.32 451.853 144.142 448.366 130.798Z" fill="#371A45"/>
</g>
<path d="M468.181 151.527C463.69 151.527 459.409 149.739 455.738 146.317C449.594 140.589 445.89 130.809 445.827 120.148C445.722 101.953 455.688 87.053 468.517 86.2274C473.395 85.9159 478.087 87.7017 482.056 91.4022C488.201 97.1299 491.905 106.91 491.966 117.571C492.073 135.766 482.106 150.666 469.278 151.492C468.911 151.514 468.546 151.527 468.181 151.527ZM469.591 92.7678C469.377 92.7678 469.16 92.7678 468.937 92.7899C459.888 93.3704 452.314 105.886 452.395 120.116C452.447 128.997 455.371 136.995 460.218 141.512C462.039 143.21 465.01 145.198 468.858 144.936C477.906 144.354 485.482 131.841 485.399 117.61C485.348 108.731 482.423 100.733 477.578 96.2159C475.861 94.6126 473.117 92.7678 469.591 92.7678Z" fill="#371A45"/>
<g opacity="0.7">
<path opacity="0.7" d="M327.418 45.1754C327.982 44.3793 324.501 45.2805 324.501 45.2805L322.02 45.4648C322.02 45.4648 317.614 45.9753 315.448 46.3862C313.283 46.7972 311.106 47.3077 308.985 47.9324C306.43 48.6575 304.14 50.1073 302.391 52.1066C294.809 60.912 289.357 71.3451 286.456 82.5972C280.398 105.961 285.166 123.806 297.685 140.971C297.685 140.971 295.34 128.624 300.101 104.185C302.764 90.5033 307.056 73.9099 327.418 45.1754Z" fill="white"/>
</g>
<g opacity="0.7">
<path opacity="0.7" d="M414.842 98.1267C415.509 89.4817 410.035 82.0097 402.615 81.4375C395.196 80.8653 388.641 87.4098 387.975 96.0548C387.308 104.7 392.782 112.172 400.201 112.744C407.62 113.316 414.175 106.772 414.842 98.1267Z" fill="white"/>
</g>
<g opacity="0.7">
<path opacity="0.7" d="M407.408 131.059C407.983 127.525 405.991 124.259 402.958 123.766C399.926 123.272 397.001 125.736 396.425 129.27C395.849 132.804 397.841 136.07 400.874 136.564C403.907 137.057 406.832 134.593 407.408 131.059Z" fill="white"/>
</g>
<path d="M433.354 188.263C464.186 180.003 461.919 155.253 458.18 150.047C452.97 142.79 431.218 145.598 423.31 162.085C415.57 178.234 401.855 172.471 399.852 197.164C398.057 219.309 405.058 226.395 411.278 230.843C416.917 234.872 442.714 241.716 456.446 227.996C478.441 206.007 474.633 165.352 474.633 165.352" fill="white"/>
<g opacity="0.35">
<path opacity="0.35" d="M435.629 188.317C435.629 188.317 437.017 201.384 443.598 201.123C450.179 200.861 454.957 175.018 454.957 175.018C454.957 175.018 448.975 185.114 435.629 188.317Z" fill="#371A45"/>
</g>
<g opacity="0.35">
<path opacity="0.35" d="M456.452 227.996C442.725 241.722 416.93 234.875 411.29 230.843C405.058 226.394 398.055 219.309 399.853 197.168C399.903 196.51 399.968 195.878 400.038 195.262C401.575 206.642 406.639 211.419 411.279 214.736C416.918 218.767 442.713 225.609 456.441 211.887C469.494 198.834 473.468 179.205 474.535 165.413L474.632 165.354C474.632 165.354 478.445 206.01 456.452 227.996Z" fill="#371A45"/>
</g>
<path d="M433.07 187.207C438.348 184.001 443.355 181.358 447.503 177.809C449.533 176.069 451.329 174.075 452.847 171.874C454.334 169.691 455.458 167.281 456.176 164.739C456.893 162.189 457.135 159.529 456.889 156.892C456.778 155.649 456.519 154.424 456.119 153.243C455.968 152.803 455.768 152.381 455.522 151.986C455.279 151.664 454.988 151.382 454.659 151.149C453.942 150.607 452.89 150.176 451.727 149.922C450.502 149.66 449.25 149.543 447.997 149.574C445.398 149.605 442.723 150.191 440.194 151.098C435.13 152.965 430.652 156.385 427.768 160.852C427.427 161.422 427.054 161.974 426.759 162.572L426.299 163.458L425.705 164.564C425.296 165.301 424.917 166.049 424.476 166.775L423.018 168.872C420.962 171.604 418.365 173.909 415.831 175.783C413.297 177.657 410.918 179.264 409.125 181.128C407.332 182.991 406.032 185.138 405.082 187.615C404.689 188.905 404.221 190.15 403.998 191.546C403.865 192.227 403.701 192.898 403.587 193.591L403.336 195.712C403.264 196.424 403.152 197.115 403.106 197.845L402.977 200.028C402.855 201.49 402.9 202.929 402.864 204.378C402.923 210.116 403.705 215.846 406.154 220.496C407.348 222.836 409.033 224.793 411.056 226.542C411.591 226.964 412.101 227.399 412.678 227.808C412.962 228.018 413.26 228.243 413.439 228.348C413.623 228.485 413.924 228.632 414.176 228.776C415.374 229.381 416.615 229.897 417.89 230.318C423.289 232.109 428.952 232.976 434.64 232.88C440.264 232.773 445.819 231.529 450.315 228.722C451.432 228.023 452.481 227.221 453.448 226.326L454.171 225.654L454.893 224.884C455.365 224.358 455.883 223.881 456.32 223.321C458.188 221.205 459.797 218.848 461.275 216.41C462.753 213.946 464.038 211.372 465.119 208.71C466.228 206.03 467.178 203.286 467.963 200.493C468.747 197.685 469.396 194.836 469.911 191.945C470.432 189.059 470.678 186.124 470.886 183.194C471.389 177.324 471.623 171.511 473.558 165.47V165.441C473.628 165.218 473.763 165.021 473.945 164.875C474.127 164.729 474.349 164.641 474.582 164.621C474.814 164.601 475.048 164.651 475.252 164.764C475.456 164.878 475.622 165.049 475.729 165.257C476.503 166.775 476.951 168.292 477.338 169.84C477.699 171.371 477.94 172.928 478.06 174.497C478.284 177.612 478.214 180.742 477.854 183.844C477.485 186.948 476.932 190.021 476.379 193.099C475.827 196.177 475.13 199.238 474.282 202.268C473.426 205.309 472.392 208.298 471.184 211.218C469.981 214.173 468.553 217.03 466.912 219.766C465.254 222.506 463.429 225.173 461.288 227.605C460.787 228.239 460.195 228.8 459.651 229.4L458.818 230.285L457.88 231.164C456.617 232.324 455.25 233.365 453.795 234.273C450.921 236.045 447.787 237.357 444.508 238.162C441.325 238.955 438.06 239.38 434.78 239.429C428.323 239.544 421.893 238.559 415.767 236.518C414.164 235.985 412.603 235.331 411.099 234.562C410.689 234.33 410.304 234.137 409.871 233.844C409.407 233.549 409.103 233.313 408.765 233.073C408.108 232.603 407.459 232.062 406.808 231.54C404.241 229.351 401.908 226.621 400.342 223.553C398.736 220.501 397.762 217.252 397.146 214.033C396.53 210.813 396.365 207.595 396.289 204.414C396.324 202.835 396.289 201.241 396.409 199.68L396.549 197.327C396.593 196.545 396.722 195.736 396.805 194.942L397.091 192.546C397.223 191.745 397.411 190.939 397.572 190.136C397.837 188.531 398.401 186.92 398.913 185.317C400.104 182.134 401.96 178.99 404.42 176.515C406.88 174.04 409.58 172.245 411.885 170.511C414.191 168.777 416.17 167.009 417.783 164.897L418.918 163.264C419.266 162.693 419.567 162.085 419.897 161.499L420.389 160.6L420.975 159.468C421.356 158.709 421.824 157.994 422.265 157.27C425.976 151.533 431.636 147.248 437.929 144.922C441.095 143.787 444.42 143.048 447.89 142.996C449.669 142.957 451.446 143.128 453.185 143.507C454.971 143.912 456.817 144.576 458.542 145.84C459.446 146.491 460.24 147.284 460.892 148.188C461.48 149.059 461.952 150.003 462.298 150.996C462.88 152.683 463.261 154.433 463.433 156.21C463.779 159.619 463.55 163.062 462.757 166.396C461.975 169.738 460.617 172.918 458.743 175.794C455.96 179.906 452.224 183.283 447.853 185.638C443.482 187.994 438.607 189.257 433.643 189.321C433.395 189.321 433.155 189.241 432.958 189.092C432.76 188.943 432.617 188.733 432.55 188.495C432.483 188.257 432.496 188.004 432.586 187.773C432.677 187.543 432.84 187.349 433.051 187.22L433.07 187.207Z" fill="#371A45"/>
<path d="M445.273 185.082C445.424 186.372 445.337 187.749 445.26 189.074C445.183 190.399 444.976 191.733 444.831 193.064C444.685 194.394 444.574 195.707 444.534 197.022C444.493 198.338 444.512 199.617 444.998 200.861L445.033 200.95C445.062 201.023 445.066 201.104 445.045 201.18C445.025 201.256 444.98 201.323 444.918 201.372C444.856 201.421 444.78 201.449 444.702 201.451C444.623 201.454 444.545 201.431 444.48 201.386C444.131 201.174 443.802 200.931 443.496 200.66C443.211 200.371 442.946 200.063 442.702 199.739C442.481 199.416 442.262 199.075 442.059 198.727C441.887 198.382 441.705 198.034 441.541 197.677C440.949 196.274 440.501 194.815 440.205 193.322C439.898 191.876 439.722 190.406 439.68 188.928C439.68 187.454 439.748 186.037 440.163 184.55C440.324 183.969 440.682 183.462 441.176 183.116C441.67 182.77 442.269 182.607 442.87 182.654C443.471 182.701 444.037 182.955 444.471 183.373C444.906 183.791 445.181 184.347 445.251 184.946L445.273 185.082Z" fill="#371A45"/>
<path d="M324.419 202.741C325.355 202.999 326.398 203.24 327.399 203.462C328.4 203.683 329.426 203.889 330.443 204.062C332.471 204.409 334.524 204.674 336.453 204.648H336.54C336.932 204.657 337.309 204.806 337.603 205.067C337.896 205.327 338.088 205.684 338.143 206.073C338.198 206.462 338.114 206.858 337.905 207.19C337.695 207.523 337.375 207.77 337 207.888C334.715 208.518 332.484 208.786 330.255 208.994C329.15 209.09 328.033 209.152 326.922 209.198C325.81 209.245 324.723 209.272 323.545 209.259H323.501C322.621 209.249 321.782 208.891 321.166 208.262C320.551 207.633 320.211 206.785 320.221 205.905C320.231 205.025 320.59 204.186 321.219 203.57C321.848 202.955 322.695 202.615 323.575 202.625C323.86 202.629 324.144 202.668 324.419 202.741Z" fill="#371A45"/>
</g>
<defs>
<clipPath id="clip0_1_14">
<rect width="806" height="504" fill="white"/>
</clipPath>
</defs>
</svg>
