<svg width="32" height="36" viewBox="0 0 32 36" fill="none" xmlns="http://www.w3.org/2000/svg">
<g clip-path="url(#clip0_8_37)">
<path d="M31.2057 0.367352C31.1089 0.185166 30.9353 0.0552534 30.7327 0.0141145C30.6823 0.00359786 30.6304 -0.0010419 30.5787 0.000195355H10.943C10.5607 0.000195355 10.2505 0.30982 10.2505 0.692443V8.78536C10.2505 9.16737 10.5607 9.47761 10.943 9.47761C11.3254 9.47761 11.6353 9.16737 11.6353 8.78536V1.38469H25.8681L16.0338 4.32906C15.7405 4.4166 15.5398 4.68632 15.5398 4.99223V30.3152H11.6353V23.2304C11.6353 22.8478 11.3254 22.5378 10.943 22.5378C10.5607 22.5378 10.2505 22.8478 10.2505 23.2304V31.0075C10.2505 31.3901 10.5607 31.6997 10.943 31.6997H15.5398V35.3079C15.5398 35.5266 15.6431 35.7323 15.8188 35.8628C15.9942 35.9937 16.2209 36.0336 16.4309 35.9711L30.7931 31.671C31.086 31.5831 31.2867 31.3134 31.2867 31.0075V0.708527C31.2892 0.58975 31.2614 0.47252 31.2057 0.367352ZM20.4718 19.6813C19.2704 19.6813 18.2961 18.707 18.2961 17.5056C18.2961 16.3036 19.2704 15.3299 20.4718 15.3299C21.6738 15.3299 22.6475 16.3036 22.6475 17.5056C22.6466 18.7066 21.6729 19.6798 20.4718 19.6813Z" fill="white"/>
<path d="M13.9417 15.3347L9.8857 11.2787C9.61505 11.008 9.17675 11.008 8.9061 11.2787C8.63576 11.5487 8.63576 11.987 8.9061 12.2576L11.7806 15.1318H0.692556C0.310243 15.1318 0 15.4417 0 15.824C0 16.2067 0.310243 16.5166 0.692556 16.5166H11.7806L8.9061 19.3908C8.63576 19.6611 8.63576 20.0994 8.9061 20.3697C9.17675 20.6401 9.61505 20.6401 9.8857 20.3697L13.9417 16.3137C14.2121 16.0434 14.2121 15.6047 13.9417 15.3347Z" fill="white"/>
</g>
<defs>
<clipPath id="clip0_8_37">
<rect width="32" height="36" fill="white"/>
</clipPath>
</defs>
</svg>
