<svg width="36" height="36" viewBox="0 0 36 36" fill="none" xmlns="http://www.w3.org/2000/svg">
<path d="M8.57143 31.7144C8.57143 34.0813 6.65265 36.0001 4.28571 36.0001C1.91878 36.0001 0 34.0813 0 31.7144C0 29.3475 1.91878 27.4287 4.28571 27.4287C6.65265 27.4287 8.57143 29.3475 8.57143 31.7144Z" fill="white"/>
<path d="M27.4286 4.28571C27.4286 1.91878 29.3474 0 31.7143 0C34.0812 0 36 1.91878 36 4.28571C36 6.65265 34.0812 8.57143 31.7143 8.57143C29.3474 8.57143 27.4286 6.65265 27.4286 4.28571Z" fill="white"/>
<path d="M6.57143 19.7143C6.57143 22.0812 5.65265 24 3.28571 24C0.91878 24 0 22.0812 0 19.7143V4.32787C0 1.93765 1.93765 0 4.32787 0H19.7143C22.0812 0 24 0.91878 24 3.28571C24 5.65265 22.0812 6.57143 19.7143 6.57143H6.57143V19.7143Z" fill="white"/>
<path d="M29.4286 16.2857C29.4286 13.9188 30.3474 12 32.7143 12C35.0812 12 36 13.9188 36 16.2857V31.6721C36 34.0623 34.0623 36 31.6721 36H16.2857C13.9188 36 12 35.0812 12 32.7143C12 30.3474 13.9188 29.4286 16.2857 29.4286H29.4286V16.2857Z" fill="white"/>
<path d="M13.7143 13.7144H22.2857V22.2858H13.7143V13.7144Z" fill="white"/>
</svg>
