<svg width="36" height="32" viewBox="0 0 36 32" fill="none" xmlns="http://www.w3.org/2000/svg">
<path d="M26.6783 21.4852L25.9443 21.8237L20.1918 11.485L21.6706 9.95033L26.6783 21.4852ZM9.87859 0.945557L13.492 3.62676C13.9927 3.99258 14.2432 4.78933 14.0948 5.5453L13.564 8.0193L9.87396 4.96067L8.59595 3.90036L9.87859 0.945557ZM6.07208 9.42682L6.40121 8.71615L8.51626 10.8903C9.5926 12.0076 10.1426 13.8479 9.9497 15.6892L9.86956 18.2578L4.12435 13.6799L6.07208 9.42682ZM33.4283 35.3083H24.0054L1.50537 18.0681L2.80451 14.6916L24.1066 31.6357C24.2046 31.7131 24.3156 31.7539 24.4283 31.7539H35.9997C35.9997 33.7172 34.8483 35.3083 33.4283 35.3083ZM35.9997 29.9765H24.6L20.1907 26.4672L21.673 24.3776C21.9181 24.0225 21.9082 23.46 21.651 23.1213C21.3992 22.7896 21.002 22.7954 20.7552 23.1335L19.04 25.5508L16.5971 23.6046L19.047 20.8955C19.3244 20.5887 19.3691 20.029 19.1472 19.6458C18.9253 19.2623 18.5208 19.2005 18.2434 19.5073L15.4001 22.652L13.3069 20.9882L16.4824 17.3298C16.7556 17.0157 16.7926 16.4552 16.5654 16.0775C16.3384 15.7001 15.9327 15.649 15.6597 15.9631L12.1187 20.043L11.1251 19.252L11.229 15.8404C11.4672 13.3826 10.722 10.9402 9.28306 9.46L7.09294 7.2088L7.92029 5.41291L13.6109 10.1325C13.6873 10.1935 13.7723 10.2308 13.8599 10.2434C13.8751 10.2434 13.8887 10.2507 13.9039 10.2525C13.9193 10.254 13.9292 10.2586 13.9414 10.2586C14.0211 10.2591 14.0999 10.2388 14.1741 10.1989L20.6861 6.72735C20.8054 6.66464 20.9388 6.68596 21.0443 6.78487C21.1504 6.88529 21.2131 7.05176 21.212 7.22918V8.20703L18.898 10.6061C18.614 10.901 18.5567 11.4579 18.77 11.8505C18.7716 11.853 18.7729 11.8558 18.7742 11.8581L25.2028 23.4111C25.369 23.7117 25.6554 23.8328 25.915 23.712L27.7223 22.8794L33.499 23.4498C34.9049 23.5937 35.9942 25.2088 35.9997 27.1574V29.9765Z" fill="white"/>
<path d="M3.85692 24.6443H0.643077C0.287745 24.6443 0 25.0424 0 25.5333C0 26.0242 0.287745 26.4216 0.643077 26.4216H3.85692C4.21226 26.4216 4.5 26.0242 4.5 25.5333C4.5 25.0424 4.21226 24.6443 3.85692 24.6443Z" fill="white"/>
<path d="M0 30.865C0 31.3559 0.287745 31.754 0.643078 31.754H9.00001C9.35513 31.754 9.64309 31.3559 9.64309 30.865C9.64309 30.3744 9.35513 29.9766 9.00001 29.9766H0.643078C0.287745 29.9766 0 30.3744 0 30.865Z" fill="white"/>
</svg>
