<svg width="110" height="110" fill="none" xmlns="http://www.w3.org/2000/svg"><path d="M88.519 38.138h-.523a.503.503 0 0 1-.505-.503l-.034-15.983a.507.507 0 0 1 .502-.507h.523a5.268 5.268 0 0 1 3.741 1.547 5.31 5.31 0 0 1 1.556 3.75l.014 6.378a5.318 5.318 0 0 1-1.54 3.756 5.275 5.275 0 0 1-3.734 1.562Z" fill="#fff"/><path d="M87.995 38.25a.614.614 0 0 1-.615-.615l-.033-15.982a.618.618 0 0 1 .612-.618h.535c1.43 0 2.8.57 3.812 1.583a5.43 5.43 0 0 1 1.585 3.825l.013 6.378c.006 2.988-2.41 5.424-5.386 5.432h-.523v-.002Zm.501-16.995h-.534a.394.394 0 0 0-.392.396l.033 15.982a.397.397 0 0 0 .394.396h.523c2.854-.006 5.171-2.342 5.165-5.208l-.013-6.378a5.208 5.208 0 0 0-1.52-3.669 5.165 5.165 0 0 0-3.656-1.519Z" fill="#371A45"/><path opacity=".35" d="m93.789 29.799.005 2.541a5.804 5.804 0 0 1-1.68 4.096 5.756 5.756 0 0 1-4.073 1.705.55.55 0 0 1-.55-.552l-.01-4.225a.552.552 0 0 0 .501.327h.376a5.744 5.744 0 0 0 3.334-1.076 5.781 5.781 0 0 0 2.097-2.816Z" fill="#371A45"/><path d="M87.995 38.757a1.118 1.118 0 0 1-1.119-1.12l-.033-15.983a1.124 1.124 0 0 1 1.116-1.126h.536c1.563 0 3.062.622 4.168 1.73a5.936 5.936 0 0 1 1.733 4.183l.013 6.378c.007 3.267-2.635 5.93-5.889 5.937h-.525Zm.077-16.995.033 15.76h.413c2.576-.005 4.667-2.114 4.662-4.7l-.013-6.379a4.7 4.7 0 0 0-1.371-3.31 4.663 4.663 0 0 0-3.3-1.372h-.424Z" fill="#371A45"/><path d="M35.288 21.257h.524a.503.503 0 0 1 .505.503l.033 15.983a.507.507 0 0 1-.501.507h-.523a5.267 5.267 0 0 1-3.743-1.546 5.307 5.307 0 0 1-1.557-3.75l-.013-6.378a5.328 5.328 0 0 1 1.54-3.757 5.285 5.285 0 0 1 3.735-1.562Z" fill="#fff"/><path d="M35.314 38.362c-2.971 0-5.391-2.423-5.397-5.408l-.014-6.378c-.006-2.988 2.41-5.424 5.386-5.432h.523a.61.61 0 0 1 .614.616l.034 15.982a.618.618 0 0 1-.613.618h-.524l-.01.002Zm-.025-16.994c-2.854.006-5.171 2.342-5.165 5.208l.013 6.378c.006 2.862 2.329 5.186 5.177 5.186h.534a.394.394 0 0 0 .394-.395l-.034-15.983a.396.396 0 0 0-.394-.396l-.525.002Z" fill="#371A45"/><path opacity=".35" d="m36.343 33.289.008 4.408a.555.555 0 0 1-.55.553 5.742 5.742 0 0 1-4.079-1.686 5.785 5.785 0 0 1-1.696-4.09l-.005-2.282a5.785 5.785 0 0 0 2.133 2.47c.933.602 2.018.92 3.126.918h.577a.555.555 0 0 0 .486-.291Z" fill="#371A45"/><path d="M35.313 38.868c-3.248 0-5.894-2.65-5.901-5.913l-.014-6.378c-.006-3.267 2.635-5.93 5.89-5.938h.525a1.116 1.116 0 0 1 1.118 1.122l.034 15.982a1.126 1.126 0 0 1-.688 1.039 1.113 1.113 0 0 1-.428.086h-.536Zm-.023-16.994c-2.576.005-4.668 2.114-4.662 4.7l.013 6.379c.006 2.583 2.1 4.68 4.672 4.681h.423l-.034-15.76h-.412Z" fill="#371A45"/><path d="m34.679 33.029-.67 4.587-.132.9a1.248 1.248 0 0 1-2.181.643 1.26 1.26 0 0 1-.307-.88l.08-1.921.16-3.777 3.05.448Z" fill="#F55"/><path d="m34.68 33.029-.672 4.587c-1.094-.132-1.934-.678-2.538-1.259l.16-3.777 3.05.449Z" fill="#BB2828"/><path d="M32.641 40.206a1.862 1.862 0 0 1-1.442-.679 1.876 1.876 0 0 1-.426-1.274l.24-5.698a.619.619 0 0 1 .704-.585l3.05.449a.61.61 0 0 1 .506.46.62.62 0 0 1 .012.24l-.801 5.485c-.065.445-.287.85-.625 1.145-.338.294-.77.456-1.218.457Zm-.096-1.24a.635.635 0 0 0 .723-.54l.712-4.875-1.767-.26L32 38.306a.64.64 0 0 0 .544.66Z" fill="#371A45"/><path d="M37.013 30.622c-.292 2-1.688 5.05-4.09 4.697-2.401-.354-4.009-2.963-3.59-5.828.418-2.864 2.704-4.901 5.106-4.548 2.401.354 2.864 3.679 2.574 5.679Z" fill="#F55"/><path opacity=".5" d="M37.058 28.805c-.37-1.163-1.091-2.124-2.322-2.306-2.4-.352-4.69 1.683-5.106 4.548-.06.41-.08.824-.06 1.237a5.988 5.988 0 0 1-.239-2.792c.418-2.865 2.704-4.902 5.107-4.548 1.755.256 2.476 2.103 2.62 3.861Z" fill="#fff"/><path d="M36.632 26.894c.472 1.177.537 2.646.38 3.728-.294 2-1.69 5.05-4.091 4.698-2.126-.314-3.63-2.394-3.654-4.856.6 1.42 1.76 2.455 3.21 2.67 2.401.352 3.799-2.698 4.091-4.699.071-.51.093-1.026.064-1.54Z" fill="#BB2828"/><path d="M33.324 35.953c-.16 0-.32-.012-.477-.036-2.733-.402-4.577-3.33-4.11-6.529.224-1.529.938-2.897 2.01-3.853 1.103-.981 2.449-1.413 3.794-1.215 2.87.422 3.42 4.136 3.093 6.378-.182 1.245-.69 2.554-1.361 3.5-.818 1.157-1.83 1.755-2.95 1.755Zm.583-10.445c-.827 0-1.646.33-2.344.951-.857.763-1.428 1.867-1.61 3.11-.368 2.524 1.01 4.824 3.073 5.128.833.123 1.588-.286 2.245-1.214.663-.935 1.027-2.144 1.147-2.963.218-1.493.002-4.676-2.056-4.979a3.121 3.121 0 0 0-.455-.032Z" fill="#371A45"/><path d="m89.135 33.029.67 4.587.132.9a1.248 1.248 0 0 0 2.181.643c.21-.243.32-.558.306-.88l-.08-1.921-.16-3.777-3.05.448Z" fill="#F55"/><path d="m89.135 33.029.67 4.587c1.095-.132 1.935-.678 2.539-1.259l-.16-3.777-3.05.449Z" fill="#BB2828"/><path d="M91.174 40.206c-.448 0-.88-.163-1.22-.457a1.88 1.88 0 0 1-.626-1.145l-.801-5.485a.62.62 0 0 1 .519-.7l3.05-.449a.613.613 0 0 1 .703.585l.24 5.698c.02.463-.132.918-.426 1.275a1.862 1.862 0 0 1-1.44.678Zm-1.342-6.656.712 4.875a.641.641 0 0 0 .723.54.635.635 0 0 0 .544-.66l-.211-5.016-1.768.261Z" fill="#371A45"/><path d="M86.803 30.622c.292 2 1.688 5.05 4.09 4.697 2.4-.354 4.009-2.963 3.59-5.828-.418-2.864-2.704-4.901-5.106-4.548-2.401.354-2.866 3.679-2.574 5.679Z" fill="#F55"/><path opacity=".5" d="M86.756 28.805c.37-1.163 1.091-2.124 2.322-2.306 2.4-.352 4.69 1.683 5.106 4.548.06.41.08.824.059 1.237.3-.898.382-1.855.24-2.792-.418-2.865-2.704-4.902-5.107-4.548-1.755.256-2.475 2.103-2.62 3.861Z" fill="#fff"/><path d="M87.181 26.894c-.472 1.177-.537 2.646-.38 3.728.294 2 1.69 5.05 4.091 4.698 2.126-.314 3.63-2.394 3.655-4.856-.6 1.42-1.76 2.455-3.211 2.67-2.4.352-3.798-2.698-4.09-4.699a7.938 7.938 0 0 1-.065-1.54Z" fill="#BB2828"/><path d="M90.505 35.964c-1.12 0-2.131-.6-2.95-1.755-.67-.947-1.178-2.255-1.36-3.5-.328-2.24.222-5.955 3.092-6.378 1.346-.197 2.692.234 3.794 1.216 1.072.956 1.786 2.324 2.01 3.853.465 3.198-1.377 6.126-4.11 6.529a3.334 3.334 0 0 1-.476.035Zm-3.094-5.432c.12.819.483 2.027 1.146 2.963.657.928 1.412 1.336 2.246 1.214 2.063-.304 3.44-2.604 3.072-5.129-.181-1.242-.752-2.346-1.61-3.109-.825-.736-1.82-1.063-2.799-.918-2.057.303-2.273 3.486-2.055 4.98Z" fill="#371A45"/><path d="M79.324 55.869v26.996c0 .667-.08 1.331-.238 1.979-.891 3.637-4.176 6.355-8.061 6.355H46.029c-4.26 0-7.794-3.263-8.25-7.421a8.174 8.174 0 0 1-.052-.914V55.87a8.348 8.348 0 0 1 3.06-6.45 8.234 8.234 0 0 1 5.242-1.885h24.995a8.21 8.21 0 0 1 3.242.665 8.378 8.378 0 0 1 2.954 2.14 8.42 8.42 0 0 1 1.77 3.196 8.32 8.32 0 0 1 .334 2.334Z" fill="#fff"/><path d="M71.024 47.535c4.565 0 8.3 3.75 8.3 8.334v26.996c0 4.584-3.735 8.335-8.3 8.335H46.028c-4.565 0-8.3-3.75-8.3-8.335V55.87c0-4.584 3.735-8.334 8.3-8.334h24.996Zm0-1.234H46.028c-5.254 0-9.53 4.292-9.53 9.569v26.997c0 5.275 4.275 9.568 9.53 9.568h24.996c5.254 0 9.53-4.292 9.53-9.569V55.87c0-5.276-4.276-9.57-9.53-9.57v.002Z" fill="#371A45"/><path d="M79.086 84.844c-.334 5.574-.988 9.076-.988 9.076h-39.58s-.7-3.957-.738-10.142c-.01-1.619.025-3.392.13-5.285.408-7.387 1.875-16.63 5.851-25.88.363-.843.746-1.684 1.15-2.526a62.576 62.576 0 0 1 1.814-3.495 63.15 63.15 0 0 1 2.94-4.74H71.52a64.65 64.65 0 0 1 2.749 6.346 72.696 72.696 0 0 1 2.234 7.156c.261 1.012.5 2.02.717 3.025 2.2 10.155 2.264 19.795 1.866 26.465Z" fill="#fff"/><path d="M78.098 94.536h-39.58a.612.612 0 0 1-.605-.51c-.013-.071-1.262-7.313-.5-17.343.705-9.263 3.314-22.885 11.747-35.18a.613.613 0 0 1 1.107.479.618.618 0 0 1-.095.221c-8.276 12.069-10.84 25.463-11.533 34.573-.636 8.367.143 14.732.405 16.526h38.535c.29-1.785 1.204-8.153 1.068-16.528-.147-9.095-1.599-22.487-7.678-34.643a.618.618 0 0 1 .273-.828.612.612 0 0 1 .825.274c6.188 12.375 7.663 25.977 7.81 35.208.16 9.994-1.162 17.178-1.175 17.25a.618.618 0 0 1-.604.5Z" fill="#371A45"/><path opacity=".35" d="M29.38 93.609v-.087c.668.03 0 .087 0 .087Z" fill="#371A45"/><path d="M97.296 80.667s-4.336 20.77-5.75 21.232c-2.024.661-6.887-.036-6.887-.036s-16.922-2.302-26.584-2.302c-9.661 0-26.584 2.302-26.584 2.302s-4.865.696-6.889.036c-1.413-.462-5.75-21.232-5.75-21.232 2.58-3.746 8.54-3.35 11.381 3.26 1.102-1.75 2.723-3.33 5.094-4.192.34-.124.68-.23 1.019-.317 4.693-1.232 8.973.861 11.99 3.144.275.207.537.417.788.624l.076.064c.2.165.391.331.576.495a12.96 12.96 0 0 0 3.002 1.978c.154.072.31.143.47.208 1.527.648 3.169.983 4.827.983 3.058 0 6-1.14 8.297-3.166 2.547-2.248 6.488-4.842 10.991-4.685 1.182.041 2.35.27 3.46.675 2.373.861 3.99 2.441 5.095 4.192 2.84-6.612 8.798-7.009 11.377-3.263Z" fill="#fff"/><path opacity=".35" d="M95.776 79.163c-1.39 6.09-3.362 14.04-4.23 14.324-2.024.66-6.889-.036-6.889-.036S67.736 88.85 58.073 88.85c-9.662 0-26.584 4.601-26.584 4.601s-4.863.697-6.886.036c-.868-.283-2.84-8.234-4.23-14.324a5.538 5.538 0 0 0-1.307 1.216c.888 4.155 4.311 19.827 5.537 20.228 2.023.662 6.886-.034 6.886-.034s16.923-2.302 26.584-2.302c9.661 0 26.584 2.302 26.584 2.302s4.865.696 6.889.034c1.225-.401 4.648-16.073 5.536-20.228.071.093.143.188.215.288 0 0-4.336 20.769-5.75 21.232 1.413-.462 5.75-21.232 5.75-21.232a5.606 5.606 0 0 0-1.521-1.504Z" fill="#371A45"/><path d="M69.043 81.45c.637-.495 1.31-.94 2.016-1.33.179-.095.355-.197.537-.285l.551-.264c.375-.158.752-.32 1.141-.447a11.656 11.656 0 0 1 4.894-.624c.83.08 1.658.234 2.451.494.402.12.796.267 1.18.44.194.081.38.184.57.275.184.104.374.198.552.312 1.45.88 2.651 2.14 3.534 3.556l-1.154.09c.26-.589.558-1.161.892-1.712.343-.554.73-1.079 1.16-1.568.866-.977 1.95-1.806 3.21-2.284 1.255-.485 2.688-.569 3.999-.174 1.31.396 2.46 1.276 3.224 2.39v.001a.614.614 0 0 1 .094.476c-.967 4.562-1.984 9.106-3.133 13.634-.29 1.13-.589 2.26-.913 3.387a55.193 55.193 0 0 1-.514 1.689 20.17 20.17 0 0 1-.614 1.691c-.06.144-.125.285-.201.431-.08.164-.176.321-.284.468-.039.047-.07.088-.118.138a1.983 1.983 0 0 1-.088.081.63.63 0 0 1-.118.085 1.192 1.192 0 0 1-.17.082c-.028.009-.042.012-.064.018l-.121.033a3.92 3.92 0 0 1-.48.108c-.628.113-1.232.146-1.831.154-1.199.016-2.373-.068-3.544-.186-.585-.059-1.173-.142-1.74-.216l-1.72-.22-3.447-.417c-2.299-.267-4.6-.512-6.903-.735-2.302-.223-4.607-.42-6.911-.57-2.305-.149-4.611-.266-6.907-.272-2.296.006-4.603.123-6.907.272-2.304.149-4.61.347-6.912.57a364.23 364.23 0 0 0-6.902.735l-3.447.417-1.72.22c-.567.074-1.156.157-1.74.216-1.171.118-2.345.202-3.544.186-.599-.008-1.203-.041-1.832-.154a3.924 3.924 0 0 1-.479-.108l-.12-.033c-.023-.006-.037-.009-.066-.018a1.177 1.177 0 0 1-.17-.082.624.624 0 0 1-.117-.085 1.792 1.792 0 0 1-.088-.081c-.049-.05-.08-.091-.118-.138a3.072 3.072 0 0 1-.284-.468 6.978 6.978 0 0 1-.2-.431 21.46 21.46 0 0 1-.616-1.691 46.82 46.82 0 0 1-.513-1.689 126.577 126.577 0 0 1-.913-3.387c-1.15-4.527-2.165-9.07-3.133-13.634a.616.616 0 0 1 .093-.474l.003-.004c.764-1.115 1.91-1.998 3.224-2.389 1.312-.395 2.746-.31 3.996.18 1.258.481 2.34 1.311 3.2 2.29.425.492.809 1.017 1.148 1.572.33.551.624 1.124.88 1.714l-1.083-.086c.88-1.4 2.06-2.65 3.49-3.533.709-.447 1.47-.804 2.266-1.062.783-.276 1.606-.438 2.431-.536.207-.02.415-.041.622-.055l.624-.007c.208-.009.415.013.622.023.207.01.414.025.619.056.824.087 1.629.288 2.406.544.39.128.765.288 1.141.444l.549.266c.182.089.358.19.537.288.702.394 1.367.85 1.988 1.363a.207.207 0 0 1-.218.348c-1.421-.663-2.843-1.259-4.313-1.615-1.46-.376-2.962-.506-4.432-.34-.734.084-1.464.226-2.168.467a8.76 8.76 0 0 0-2.017.89 9.147 9.147 0 0 0-2.465 2.202c-.228.294-.443.6-.645.915a.618.618 0 0 1-.873.173.619.619 0 0 1-.209-.254l-.002-.005c-.233-.536-.5-1.057-.8-1.559-.302-.493-.643-.96-1.02-1.397-.756-.86-1.681-1.559-2.715-1.954a4.948 4.948 0 0 0-3.206-.151c-1.036.31-1.943 1.003-2.568 1.909l.096-.478c.964 4.542 1.98 9.084 3.12 13.579.287 1.123.585 2.243.904 3.351.16.555.325 1.106.502 1.65.176.545.362 1.085.573 1.587.053.125.107.247.165.358a1.996 1.996 0 0 0 .179.298c-.004 0-.002 0-.03-.02a.21.21 0 0 0-.073-.031l.04.01.089.023c.12.037.244.064.368.084.512.093 1.07.128 1.628.134 1.12.015 2.263-.065 3.398-.18.568-.057 1.127-.136 1.708-.213l1.728-.22 3.458-.418c2.306-.269 4.615-.514 6.927-.738a221.43 221.43 0 0 1 6.948-.573c2.322-.15 4.647-.269 6.986-.274 2.34.005 4.666.124 6.987.274 2.32.15 4.636.35 6.948.573 2.312.224 4.622.468 6.927.738l3.457.418 1.728.22c.582.077 1.141.156 1.71.213 1.134.115 2.276.195 3.396.18a9.842 9.842 0 0 0 1.629-.134c.124-.02.247-.047.368-.084l.089-.023.04-.01a.21.21 0 0 0-.072.031c-.029.021-.028.019-.031.02a.018.018 0 0 0-.008.009c.002-.003.014-.021.022-.029.062-.088.117-.181.164-.278.057-.111.113-.233.166-.358.213-.503.399-1.043.573-1.586.174-.543.341-1.096.502-1.65.319-1.11.616-2.231.904-3.352 1.14-4.495 2.156-9.037 3.12-13.579l.096.478c-.625-.906-1.53-1.6-2.568-1.91a4.926 4.926 0 0 0-3.204.157c-1.031.4-1.954 1.098-2.703 1.961-.374.438-.711.907-1.009 1.4a13.58 13.58 0 0 0-.788 1.56l-.002.005a.657.657 0 0 1-.893.322.656.656 0 0 1-.26-.236c-.8-1.268-1.85-2.361-3.114-3.125-.154-.102-.319-.185-.478-.278-.166-.081-.325-.174-.496-.245a8.026 8.026 0 0 0-1.039-.402 10.08 10.08 0 0 0-2.18-.494 10.65 10.65 0 0 0-2.244-.039c-.752.046-1.5.193-2.24.378-1.48.372-2.907 1.002-4.304 1.721a.205.205 0 0 1-.269-.071.207.207 0 0 1 .048-.275v.002Z" fill="#371A45"/><path d="M90.287 101.899h1.258a3.731 3.731 0 0 0 3.414-2.222c1.88-4.23 5.311-13.526 2.098-19.196a5.99 5.99 0 0 0-.3-.477s-3.084-2.817-5.3 1.168c-2.068 3.722-6.413 19.64-1.17 20.727Z" fill="#AFAFB2"/><path opacity=".7" d="M90.323 83.825c.056-.09.111-.174.165-.252 2.725-3.985 6.517-1.168 6.517-1.168.131.152.254.312.368.477a8.33 8.33 0 0 1 .922 1.732c-.153-1.49-.537-2.898-1.237-4.133a5.992 5.992 0 0 0-.3-.478s-3.084-2.817-5.3 1.168c-.335.604-.73 1.525-1.135 2.654Z" fill="#fff"/><path d="M98.28 85.072a.612.612 0 0 1-.102-.009l-7.71-1.29a.614.614 0 0 1-.505-.71.617.617 0 0 1 .708-.507l7.71 1.289a.614.614 0 0 1 .511.66.618.618 0 0 1-.612.566v.001ZM98.23 89.254a.63.63 0 0 1-.082-.005l-9.019-1.218a.613.613 0 0 1-.527-.694.618.618 0 0 1 .691-.529l9.02 1.218a.614.614 0 0 1 .532.652.618.618 0 0 1-.614.576ZM97.435 93.351a.682.682 0 0 1-.075-.005l-9.155-1.125a.614.614 0 0 1-.535-.687.618.618 0 0 1 .684-.538l9.155 1.125a.614.614 0 0 1 .541.65.618.618 0 0 1-.615.58ZM95.984 97.818c-.018 0-.036 0-.056-.003l-8.184-.741a.614.614 0 0 1-.557-.67.618.618 0 0 1 .667-.56l8.185.742a.613.613 0 0 1 .563.643.618.618 0 0 1-.617.59Z" fill="#371A45"/><path opacity=".35" d="M90.288 101.899h1.257a3.731 3.731 0 0 0 3.414-2.222 50.36 50.36 0 0 0 1.63-4.155c-.754 1.259-2.287 2.054-3.97 2.054h-1.498c-2.131-.37-2.933-2.47-2.965-5.221-.72 4.644-.522 8.993 2.132 9.544Z" fill="#371A45"/><path d="M91.546 102.515h-1.258a.645.645 0 0 1-.124-.012c-1.027-.213-1.802-.881-2.305-1.985-2.15-4.72 1.364-16.595 3.062-19.648.783-1.407 1.77-2.218 2.933-2.408 1.785-.293 3.256 1.028 3.317 1.084a.643.643 0 0 1 .09.104c.117.167.228.344.33.526 3.273 5.776.108 14.855-2.071 19.752-.343.77-.9 1.424-1.606 1.883a4.34 4.34 0 0 1-2.368.704Zm-1.19-1.234h1.19a3.12 3.12 0 0 0 2.853-1.856c1.677-3.771 5.242-13.138 2.126-18.64a5.728 5.728 0 0 0-.226-.365c-.221-.18-1.199-.916-2.252-.739-.773.13-1.463.732-2.051 1.79-1.776 3.194-4.844 14.524-3.018 18.534.325.715.777 1.133 1.379 1.277v-.001Z" fill="#371A45"/><path d="M25.857 101.899h-1.256a3.732 3.732 0 0 1-3.415-2.222c-1.881-4.23-5.31-13.526-2.098-19.196.093-.165.193-.325.3-.477 0 0 3.084-2.817 5.3 1.168 2.07 3.722 6.413 19.64 1.17 20.727Z" fill="#AFAFB2"/><path opacity=".7" d="M25.823 83.825a6.52 6.52 0 0 0-.165-.252c-2.725-3.985-6.517-1.167-6.517-1.167-.13.153-.254.312-.368.478a8.34 8.34 0 0 0-.922 1.731c.153-1.49.537-2.898 1.237-4.133a5.99 5.99 0 0 1 .3-.477s3.084-2.817 5.3 1.168c.336.602.731 1.523 1.135 2.652Z" fill="#fff"/><path d="M17.867 85.072a.613.613 0 0 1-.612-.566.619.619 0 0 1 .512-.66l7.71-1.292a.614.614 0 0 1 .7.748.62.62 0 0 1-.499.47l-7.709 1.291a.608.608 0 0 1-.102.01ZM17.916 89.254a.613.613 0 0 1-.613-.576.619.619 0 0 1 .532-.652l9.019-1.218a.611.611 0 0 1 .613.302.617.617 0 0 1-.45.921L18 89.25a.648.648 0 0 1-.083.005ZM18.712 93.351a.613.613 0 0 1-.615-.58.619.619 0 0 1 .54-.65l9.155-1.125a.613.613 0 0 1 .685.538.62.62 0 0 1-.535.687l-9.155 1.125a.676.676 0 0 1-.075.005ZM20.163 97.818a.613.613 0 0 1-.616-.59.618.618 0 0 1 .562-.642l8.185-.741a.612.612 0 0 1 .667.559.62.62 0 0 1-.556.67l-8.186.741a.586.586 0 0 1-.056.003Z" fill="#371A45"/><path opacity=".35" d="M25.858 101.899H24.6a3.723 3.723 0 0 1-2.035-.603 3.755 3.755 0 0 1-1.38-1.619 50.328 50.328 0 0 1-1.63-4.155c.754 1.259 2.287 2.054 3.97 2.054h1.498c2.132-.37 2.934-2.47 2.965-5.221.722 4.644.523 8.993-2.131 9.544Z" fill="#371A45"/><path d="M25.858 102.515H24.6c-.841 0-1.664-.244-2.37-.703a4.37 4.37 0 0 1-1.607-1.884c-2.177-4.895-5.342-13.975-2.07-19.752.102-.18.215-.36.33-.526a.623.623 0 0 1 .09-.104c.062-.056 1.533-1.377 3.317-1.084 1.164.19 2.15 1.001 2.933 2.409 1.698 3.052 5.213 14.929 3.063 19.648-.502 1.103-1.279 1.771-2.305 1.984a.647.647 0 0 1-.124.012Zm-6.01-22.095c-.08.117-.155.24-.225.365-3.117 5.504.447 14.869 2.125 18.64a3.12 3.12 0 0 0 2.853 1.856h1.19c.601-.144 1.053-.562 1.378-1.276 1.827-4.01-1.242-15.34-3.018-18.533-.588-1.06-1.279-1.661-2.05-1.791-1.054-.176-2.029.556-2.253.74ZM40.044 101.297a.46.46 0 0 1-.46-.448.463.463 0 0 1 .052-.229c2.222-4.26 2.254-9.048.098-14.233-1.622-3.903-3.945-6.574-3.969-6.6a.464.464 0 0 1 .378-.755.46.46 0 0 1 .314.143c.098.112 2.434 2.793 4.117 6.83 2.245 5.384 2.203 10.586-.121 15.044a.455.455 0 0 1-.409.248ZM76.317 101.297a.458.458 0 0 1-.408-.249c-2.324-4.458-2.365-9.66-.121-15.043 1.684-4.038 4.019-6.719 4.117-6.83a.461.461 0 1 1 .691.611c-.023.026-2.346 2.698-3.969 6.6-2.155 5.185-2.122 9.973.098 14.233a.462.462 0 0 1-.408.677v.001Z" fill="#371A45"/><path opacity=".35" d="M49.341 80.26c0 .36-.087.706-.188 1.051l.156-.876.032-.175Z" fill="#371A45"/><path d="M30.925 83.962c.221.571.36 1.144.48 1.73.113.587.195 1.18.245 1.774.056.596.078 1.195.076 1.794-.005.6-.056 1.198-.151 1.79a.08.08 0 0 1-.157 0c-.11-.583-.218-1.155-.345-1.723a62.169 62.169 0 0 0-.403-1.693c-.142-.561-.297-1.118-.433-1.68-.135-.56-.274-1.124-.37-1.682l-.003-.014a.558.558 0 0 1 .397-.632.551.551 0 0 1 .664.336ZM86.4 84.272a25.58 25.58 0 0 1-.371 1.682c-.137.559-.291 1.118-.433 1.68a65.572 65.572 0 0 0-.402 1.692c-.127.569-.235 1.14-.345 1.724a.08.08 0 0 1-.13.047.08.08 0 0 1-.027-.047 11.927 11.927 0 0 1-.152-1.79c-.002-.599.02-1.199.076-1.794.05-.595.132-1.187.245-1.774.12-.586.26-1.16.48-1.73a.556.556 0 0 1 .665-.336.554.554 0 0 1 .397.631l-.003.014Z" fill="#371A45"/><path d="M19.826 53.08s.366 13.907 11.567 15.842c3.21.554 5.647-.443 7.32-1.64 1.838-1.313 2.752-2.866 2.752-2.866l1.94-7.094 2.068-7.575a26.258 26.258 0 0 1-3.403 2.583c-.926.59-1.976 1.167-3.066 1.598-3.538 1.395-7.49 1.223-8.942-5.24L19.826 53.08Z" fill="#fff"/><path opacity=".35" d="M31.393 68.922c6.735 1.164 10.072-4.506 10.072-4.506.215-.835-.75-1.474-1.423-.938-1.674 1.33-4.256 2.57-7.754 1.965-7.912-1.367-12.114-9.487-4.034-13.22l-8.428.856s.366 13.908 11.567 15.843Z" fill="#371A45"/><path d="M45.613 49.899c-1.003 1.434-2.38 2.482-3.841 3.388-.742.45-1.52.838-2.327 1.157-.814.316-1.66.582-2.552.713-.886.137-1.829.139-2.741-.113a5.284 5.284 0 0 1-2.402-1.44 6.381 6.381 0 0 1-.852-1.085c-.128-.19-.23-.39-.343-.586-.097-.202-.205-.4-.289-.606a13.703 13.703 0 0 1-.804-2.505l.84.431-10.236 4.394.373-.584c.012.308.041.653.076.98a23.722 23.722 0 0 0 .511 2.97 21.022 21.022 0 0 0 1.278 3.791c.558 1.204 1.223 2.36 2.064 3.369.834 1.01 1.808 1.9 2.919 2.578a11.753 11.753 0 0 0 3.614 1.436c1.275.298 2.577.363 3.84.139a8.551 8.551 0 0 0 1.836-.547 8.28 8.28 0 0 0 1.662-.965c1.047-.755 1.96-1.65 3.05-2.502l.014-.011a.214.214 0 0 1 .3.036.217.217 0 0 1 .038.184c-.186.74-.573 1.362-1.033 1.922a7.786 7.786 0 0 1-1.623 1.45c-1.223.788-2.585 1.392-4.029 1.646s-2.928.177-4.32-.148a12.986 12.986 0 0 1-3.991-1.589c-1.234-.753-2.314-1.74-3.227-2.846-.92-1.106-1.637-2.353-2.232-3.641a22.227 22.227 0 0 1-1.356-4.016 25.805 25.805 0 0 1-.403-2.076 22.866 22.866 0 0 1-.135-1.051 16.535 16.535 0 0 1-.082-1.077.608.608 0 0 1 .365-.58l.008-.004 10.236-4.392a.613.613 0 0 1 .842.432c.18.788.413 1.557.729 2.276.073.183.168.352.25.529.097.166.184.34.292.498.198.32.432.618.695.888.505.53 1.144.914 1.848 1.11.703.195 1.47.204 2.23.082a9.642 9.642 0 0 0 2.25-.686 21.686 21.686 0 0 0 2.146-1.103c.352-.2.7-.412 1.048-.624l1.04-.655a37.373 37.373 0 0 1 2.145-1.27l.009-.005a.209.209 0 0 1 .307.174.211.211 0 0 1-.037.133Z" fill="#371A45"/><path d="M29.286 68.563a5.31 5.31 0 0 1-1.04-.108.46.46 0 0 1-.35-.541.463.463 0 0 1 .53-.367c1.195.239 2.15.007 2.915-.709 3.104-2.9 1.958-12.433 1.946-12.529a.464.464 0 0 1 .4-.517.46.46 0 0 1 .515.402c.051.411 1.215 10.1-2.232 13.322-.746.696-1.645 1.047-2.684 1.047Z" fill="#371A45"/><path d="M32.004 48.28c-1.349 6.953-8.29 6.618-10.213 6.238-4.013-.795-5.539-4.49-5.539-4.49l3.014-4.389 1.323-2.362 1.677-.589c1.229-2.504 3.953-5.402 5.63-4.496 0-.002 5.27 4.093 4.108 10.087Z" fill="#fff"/><path opacity=".35" d="M15.566 47.833c.094 2.143 2.976 3.965 8.966 2.993 2.11-.343 3.789-1.91 3.695-4.053a3.899 3.899 0 0 0-1.253-2.695 3.869 3.869 0 0 0-2.784-1.016c-2.135.097-8.719 2.627-8.625 4.77Z" fill="#371A45"/><path d="M15.473 40.886a52.86 52.86 0 0 0 3.086 2.635l4.637 4.362 2.67-7.474s-.047-1.482-.248-3.438c-.394-3.873-1.385-9.6-3.768-9.345-4.286.458-.943 11.697-.943 11.697s-7.264-8.88-9.898-6.15c-1.54 1.598 1.752 5.21 4.464 7.712Z" fill="#fff"/><path opacity=".35" d="M15.473 40.885a52.84 52.84 0 0 0 3.086 2.636l4.637 4.361 2.67-7.473s-.047-1.482-.248-3.438c-1.11.965-3.189 2.72-3.896 3.74-1.22 1.761-4.53-.239-6.25.174Z" fill="#371A45"/><path d="M23.196 48.5a.614.614 0 0 1-.42-.166L18.16 43.99c-.916-.712-7.912-6.256-8.153-9.609-.047-.643.147-1.21.56-1.637.474-.493 1.105-.737 1.833-.707 2.296.094 5.384 2.956 7.29 4.98-.583-2.699-1.163-6.824.159-8.818.457-.69 1.127-1.101 1.934-1.188.584-.063 1.147.13 1.636.556 2.643 2.308 3.026 11.751 3.06 12.82a.62.62 0 0 1-.035.229l-2.67 7.475a.617.617 0 0 1-.58.409h.002ZM12.278 33.27c-.345 0-.609.107-.828.333-.108.11-.245.302-.217.69.172 2.403 5.617 7.123 7.703 8.74.015.011.03.024.044.037l3.952 3.722 2.315-6.48c-.104-2.846-.763-10.178-2.635-11.812-.305-.267-.545-.276-.698-.26-.452.049-.784.253-1.043.645-1.375 2.076-.015 8.113.625 10.263a.62.62 0 0 1-.3.722.612.612 0 0 1-.764-.153c-1.44-1.76-5.7-6.348-8.083-6.445a.626.626 0 0 0-.07-.003Z" fill="#371A45"/><path d="M15.406 49.269c1.128 1.672 5.633 2.276 7.234.91 1.362-1.162-.107-2.5-.525-2.839-.065-.054-.105-.082-.105-.082s1.694-.604 1.93-2.07c.016-.098.025-.197.026-.297.032-1.68-4.487-2.928-6.496-2.512-1.502.312-2.052.956-2.165 1.624-.12.71.254 1.45.5 1.842.06.099.127.194.197.285 0 0-1.5 1.8-.596 3.139Z" fill="#fff"/><path opacity=".35" d="M15.803 45.845c1.221.562 3.663 1.5 6.31 1.495-.064-.054-.104-.082-.104-.082s1.694-.604 1.93-2.07c-1.57.42-5.918 1.277-8.634-1.187-.121.713.253 1.451.498 1.844ZM15.406 49.269c1.128 1.672 5.632 2.276 7.234.91.67-.57.655-1.183.418-1.7a2.152 2.152 0 0 1-.26.262c-1.6 1.367-6.105.761-7.233-.908a1.622 1.622 0 0 1-.238-.54c-.237.602-.348 1.34.079 1.976Z" fill="#371A45"/><path d="M19.92 51.488c-.406 0-.812-.03-1.214-.085-1.742-.238-3.147-.92-3.757-1.822-.866-1.282-.07-2.792.378-3.46-.329-.532-.829-1.575-.474-2.565.309-.86 1.151-1.439 2.505-1.72 1.616-.334 4.86.313 6.34 1.547.69.576.826 1.145.819 1.52-.024 1.267-.879 2.057-1.545 2.482.367.4.757.979.785 1.643.017.408-.101 1.011-.76 1.573-.676.577-1.78.887-3.077.887Zm-2.34-8.567c-.652.136-1.476.42-1.688 1.007-.238.66.31 1.564.542 1.858a.557.557 0 0 1-.009.7c-.01.015-1.221 1.498-.563 2.473.424.627 1.599 1.155 2.993 1.346 1.458.2 2.803-.016 3.428-.547.386-.33.375-.594.372-.68-.022-.563-.723-1.193-.967-1.368a.554.554 0 0 1 .137-.971c.013-.005 1.563-.585 1.588-1.855.004-.239-.227-.483-.422-.648-1.205-1.005-4.07-1.593-5.41-1.315Z" fill="#371A45"/><path d="M21.008 47.772c-2.877 0-5.116-1.177-5.221-1.233a.46.46 0 0 1 .432-.815c.035.02 2.672 1.394 5.744 1.076a.458.458 0 0 1 .504.411.463.463 0 0 1-.41.507c-.348.036-.698.054-1.049.053Z" fill="#371A45"/><path d="M27.896 38.19c-2.226-1.202-6.293 4.294-6.267 6.678.02 1.82 2.23 3.241 4.69.809 2.493-2.465 5.073-5.598 1.577-7.486Z" fill="#fff"/><path d="M16.252 50.03s1.528 3.694 5.538 4.488c1.924.382 8.866.716 10.215-6.239 1.162-5.993-4.11-10.087-4.11-10.087-2.226-1.203-6.292 4.293-6.266 6.677.02 1.82 2.755 2.732 4.867-.566 0 0-1.059 2.957 1.563 4.827l-5.82 3.718-4.555-.683-1.432-2.135Z" fill="#fff"/><path d="m26.818 47.79.115-.073a3.558 3.558 0 0 1-.258-.2c.043.088.09.18.143.272Z" fill="#fff"/><path opacity=".35" d="M26.379 43.767c.266-1.187-2.962 1.95-4.743 1.259.148 1.472 2.122 2.243 3.977.39.072-.95.766-1.65.766-1.65Z" fill="#371A45"/><path opacity=".35" d="m18.451 52.277-.768-.115c.886.97 2.223 1.982 4.107 2.355 1.925.382 8.866.715 10.214-6.239.792-4.078-1.397-7.28-2.877-8.906 1.224 1.781 2.356 4.382 1.753 7.493-1.349 6.955-8.29 6.62-10.215 6.24a7.27 7.27 0 0 1-2.213-.828Z" fill="#371A45"/><path d="M16.254 50.032c.112.251.24.495.384.73l.117.018-.501-.748ZM16.559 50.75c.066.071.133.144.204.216l-.126-.205-.078-.012Z" fill="#fff"/><path d="M29.172 52.823c.368-.642.728-1.17 1.057-1.73.324-.56.6-1.149.824-1.758.23-.62.384-1.266.455-1.925a8.31 8.31 0 0 0-.03-1.971 9.036 9.036 0 0 0-.482-1.923 10.798 10.798 0 0 0-.878-1.799 12.458 12.458 0 0 0-1.186-1.633 11.84 11.84 0 0 0-1.05-1.09 8.283 8.283 0 0 0-.363-.315l.085.055c-.173-.09-.373-.114-.617-.072a2.466 2.466 0 0 0-.768.301 5.03 5.03 0 0 0-.76.54 7.846 7.846 0 0 0-.703.67c-.893.956-1.66 2.094-2.163 3.285-.12.288-.216.585-.287.888a2.418 2.418 0 0 0-.058.416c-.01.116 0 .233.027.346.05.21.167.398.335.533.182.14.4.225.63.242.486.048 1.038-.164 1.507-.524.477-.356.885-.851 1.235-1.39a.615.615 0 0 1 1.1.527l-.005.016c-.02.058-.05.167-.07.257a4.716 4.716 0 0 0-.105.883c-.011.39.054.777.191 1.142.058.182.15.346.22.52.094.163.163.34.269.502.085.175.197.336.292.527.044.1.104.188.157.288.057.107.106.218.148.332l.012.036a.23.23 0 0 1-.247.301 2.251 2.251 0 0 1-1.342-.739c-.186-.186-.326-.414-.46-.642a4.435 4.435 0 0 1-.161-.364 2.27 2.27 0 0 1-.12-.378 5.996 5.996 0 0 1-.186-1.541 5.832 5.832 0 0 1 .137-1.14 4.04 4.04 0 0 1 .11-.4l1.095.543c-.408.627-.892 1.23-1.532 1.71-.325.25-.686.449-1.07.59-.398.139-.836.22-1.288.174a2.392 2.392 0 0 1-1.284-.508 2.203 2.203 0 0 1-.759-1.204 2.322 2.322 0 0 1-.06-.692c.01-.209.039-.416.085-.62.085-.375.203-.743.352-1.1.288-.678.639-1.329 1.048-1.942.404-.61.859-1.186 1.359-1.72.253-.272.523-.529.808-.768.292-.25.607-.473.94-.666a3.674 3.674 0 0 1 1.166-.444c.113-.022.228-.034.343-.036.12-.006.24-.001.358.015.12.007.242.05.362.078.118.041.233.09.346.144.023.01.044.023.064.04l.02.015c.168.134.298.25.44.378a13.756 13.756 0 0 1 2.458 2.994c.388.638.716 1.311.98 2.01.262.708.446 1.442.548 2.19.102.75.113 1.511.034 2.266-.083.755-.215 1.49-.441 2.217a7.321 7.321 0 0 1-.424 1.064c-.174.344-.38.671-.613.978-.23.31-.504.585-.81.818a3.165 3.165 0 0 1-1.02.533.22.22 0 0 1-.28-.197.222.222 0 0 1 .028-.126l-.003-.007ZM16.762 49.816c.046.103.114.242.18.363.065.122.14.25.214.373.075.123.158.242.237.363l.256.35c.353.457.755.873 1.2 1.24.215.19.454.348.691.506.254.13.502.27.76.385.497.282 1.003.507 1.526.94l.013.01a.2.2 0 0 1 .013.3.2.2 0 0 1-.098.052 3.053 3.053 0 0 1-1.962-.237c-.602-.284-1.135-.692-1.649-1.103a8.882 8.882 0 0 1-1.366-1.414l-.29-.396c-.09-.137-.184-.271-.268-.412-.085-.14-.17-.282-.248-.428a6.687 6.687 0 0 1-.23-.468.556.556 0 0 1 .28-.731.547.547 0 0 1 .604.104c.052.05.094.11.124.177l.013.026Z" fill="#371A45"/><path opacity=".35" d="M78.99 53.535a26.876 26.876 0 0 1-21.485 5.764 26.944 26.944 0 0 1-16.718-9.881 8.234 8.234 0 0 1 5.242-1.885h.177a63.15 63.15 0 0 1 3.458-5.682H71.52a64.65 64.65 0 0 1 2.749 6.347 8.378 8.378 0 0 1 2.953 2.14 8.42 8.42 0 0 1 1.77 3.197Z" fill="#371A45"/><path d="M61.907 56.777c14.895 0 26.97-12.124 26.97-27.08 0-14.955-12.075-27.08-26.97-27.08s-26.97 12.125-26.97 27.08c0 14.956 12.075 27.08 26.97 27.08Z" fill="#fff"/><path d="M61.925 56.889c-.624 0-1.25-.021-1.882-.065-14.897-1.032-26.18-14.04-25.15-28.998C35.92 12.87 48.878 1.54 63.771 2.573c14.893 1.034 26.18 14.04 25.15 28.997-.984 14.323-12.907 25.319-26.997 25.319ZM61.89 2.728c-13.976 0-25.801 10.906-26.777 25.113-1.02 14.836 10.171 27.738 24.947 28.762.625.043 1.248.065 1.866.064 13.977 0 25.802-10.906 26.778-25.113C89.723 16.718 78.532 3.816 63.757 2.793a27.186 27.186 0 0 0-1.869-.065h.002Z" fill="#371A45"/><path opacity=".35" d="M88.812 27.804a27.021 27.021 0 0 1 0 3.758c-1.027 14.92-13.904 26.18-28.763 25.152-14.86-1.028-26.072-13.96-25.049-28.88.03-.429.07-.858.119-1.279.91 13.276 11.452 24.18 25.048 25.123 14.432.998 26.991-9.595 28.645-23.874Z" fill="#371A45"/><path d="M61.926 57.395c-.636 0-1.273-.022-1.917-.066-15.174-1.051-26.667-14.302-25.62-29.538 1.046-15.236 14.24-26.775 29.417-25.725 15.177 1.05 26.667 14.302 25.622 29.538-1.003 14.59-13.149 25.791-27.502 25.791Zm-.035-54.16c-13.714 0-25.317 10.7-26.275 24.64-1 14.558 9.981 27.218 24.479 28.222.614.043 1.224.064 1.832.064 13.714 0 25.317-10.702 26.274-24.642 1-14.557-9.98-27.217-24.478-28.221a26.621 26.621 0 0 0-1.834-.064h.002Z" fill="#371A45"/><path d="M88.679 32.25c-.284 5.29-2.257 10.111-5.401 14.017-2.357 2.929-11.66 7.775-22.799 7.273-10.328-.464-19.425-6.498-21.455-9.665-2.708-4.222-4.156-9.227-3.871-14.518.752-14.003 13.043-19.16 27.824-18.362 14.782.8 26.453 7.252 25.702 21.254Z" fill="#371A45"/><path d="M62.138 54.195c-.556 0-1.118-.012-1.686-.036-10.672-.48-19.822-6.636-21.945-9.947-2.877-4.488-4.25-9.636-3.968-14.887.367-6.838 3.38-11.962 8.955-15.23 4.872-2.857 11.62-4.14 19.517-3.714 7.896.427 14.469 2.43 19.007 5.795 5.195 3.85 7.641 9.27 7.275 16.109-.282 5.252-2.197 10.22-5.537 14.372-2.204 2.737-10.656 7.538-21.618 7.538ZM60.09 11.533c-6.423 0-11.904 1.238-15.977 3.625-5.194 3.046-8.004 7.834-8.347 14.232-.268 4.99 1.039 9.884 3.774 14.152 1.944 3.032 10.86 8.927 20.966 9.382 11.202.506 20.182-4.42 22.293-7.044 3.177-3.949 4.998-8.673 5.267-13.664.343-6.397-1.937-11.46-6.778-15.049-4.344-3.22-10.687-5.142-18.343-5.555a52.874 52.874 0 0 0-2.855-.08Z" fill="#371A45"/><path opacity=".7" d="M83.445 30.677c.609-2.576-.404-5.022-2.263-5.465-1.858-.443-3.858 1.286-4.467 3.861-.608 2.575.405 5.022 2.263 5.465 1.859.443 3.859-1.286 4.467-3.861ZM77.092 39.808c.439-1.132.01-2.357-.957-2.735-.967-.379-2.107.232-2.547 1.364-.439 1.132-.01 2.356.957 2.735.967.378 2.107-.232 2.547-1.364Z" fill="#fff"/><path opacity=".35" d="M84.174 18.905c3.104 3.31 4.805 7.72 4.505 13.343-.284 5.293-2.257 10.113-5.4 14.02-2.358 2.928-11.661 7.773-22.8 7.273-3.934-.175-7.687-1.16-10.94-2.488 13.705.323 25.04-5.63 27.962-9.263 3.99-4.958 6.495-11.077 6.854-17.791a27.52 27.52 0 0 0-.181-5.094Z" fill="#3B3943"/><path d="M87.036 20.462a.608.608 0 0 1-.427-.172.612.612 0 0 1-.095-.117C82.307 13.52 73.716 9.372 62.946 8.789c-10.83-.586-19.813 2.734-24.644 9.106a.504.504 0 0 1-.058.066.614.614 0 0 1-1.048-.394.619.619 0 0 1 .141-.437c5.084-6.69 14.438-10.18 25.675-9.573 11.156.603 20.09 4.949 24.52 11.924a.618.618 0 0 1-.496.981ZM37.8 17.517l.009.008-.009-.008Z" fill="#371A45"/><path opacity=".7" d="M40.716 38.011s-3.578-14.047 4.13-19.15c7.71-5.105 18.377-4.506 18.09-3.833 0 0-11.963 2.232-17.086 11.356-3.951 7.037-5.134 11.627-5.134 11.627Z" fill="#fff"/><path d="M61.294 60.954c-7.065 0-14.39-3.654-21.181-10.564-5.097-5.187-8.157-10.453-8.187-10.505a.62.62 0 0 1 .226-.838.612.612 0 0 1 .837.22c.03.051 3.025 5.201 8.019 10.276 4.567 4.641 11.794 10.177 20.286 10.177 8.502 0 16.065-5.54 20.913-10.19 5.297-5.08 8.599-10.234 8.632-10.286a.615.615 0 1 1 1.035.664c-.033.053-3.4 5.313-8.798 10.495-7.191 6.902-14.723 10.55-21.782 10.55Z" fill="#371A45"/><path d="M61.854 60.337h-1.118a.608.608 0 0 0-.607.609v4.5c0 .336.272.609.607.609h1.118a.608.608 0 0 0 .606-.609v-4.5a.608.608 0 0 0-.606-.61Z" fill="#371A45"/><path d="M67.015 107c-3.64 0-7.846-.658-11.544-1.555-2.355-.572-3.028-.845-2.95-1.554.077-.71.978-.77 1.931-.828.846-.052 1.988-.072 3.31-.096 3.593-.063 9.023-.158 10.687-1.115l.102-.06c-.492-.12-1.561-.263-3.878-.298-2.365-.036-5.385.044-8.306.121-4.166.111-8.101.216-10.386.014-1.209-.108-1.863-.523-1.946-1.238-.2-1.721 3.7-3.483 5.789-4.173a15.771 15.771 0 0 0 7.861-5.763 15.877 15.877 0 0 0 2.994-9.299V66.055a.618.618 0 0 1 .615-.603.613.613 0 0 1 .614.603v15.1a17.11 17.11 0 0 1-3.227 10.023 16.998 16.998 0 0 1-8.474 6.21c-2.977.986-4.754 2.33-4.937 2.822.081.049.301.144.818.189 2.215.195 6.298.087 10.247-.018 10.472-.278 13.357-.175 13.707 1.079.215.775-.654 1.275-.982 1.464-1.938 1.115-7.115 1.206-11.276 1.279-.674.012-1.382.024-2.026.043h.003c8.132 1.974 15.341 2.006 17.935.08.69-.513 1.049-1.142 1.095-1.925.1-1.67-.14-4.296-.42-7.339-.527-5.755-1.183-12.914.058-18.085a.618.618 0 0 1 .501-.474.612.612 0 0 1 .706.52.618.618 0 0 1-.012.242c-1.194 4.97-.548 12.019-.028 17.683.283 3.091.528 5.761.422 7.524-.069 1.154-.604 2.111-1.591 2.842C72.8 106.525 70.11 107 67.015 107Z" fill="#371A45"/><path opacity=".35" d="M58.485 75.74ZM79.347 78.525a36.956 36.956 0 0 1-3.7.167c-.124 0-.248-.002-.372-.007-.13 0-.263-.005-.394-.01-.088 0-.177-.006-.26-.01l-.31-.017c-.129-.01-.26-.016-.387-.027h-.01c-.128-.009-.26-.02-.389-.034l-.252-.026c-.072-.006-.144-.017-.215-.023-.11-.013-.222-.029-.33-.043a7.404 7.404 0 0 1-.366-.059 4.466 4.466 0 0 1-.35-.06c-.113-.025-.234-.043-.347-.068l-.03-.005c-.064-.014-.128-.028-.19-.044a4.507 4.507 0 0 1-.208-.05l-.115-.03v1.423c0 1.97-1.605 3.58-3.568 3.58H48.085c-1.958 0-3.563-1.61-3.563-3.58v-1.137c-2.135.323-4.56.259-6.643.076.128-2.333.343-4.64.618-6.883 1.89.053 4.084.048 6.025-.119v-2.554c0-1.969 1.605-3.577 3.563-3.577h19.47c.945.002 1.85.379 2.52 1.05a3.595 3.595 0 0 1 1.047 2.527v2.393c.413.062.848.112 1.296.153 2.026.185 4.344.183 6.311.12.273 2.237.488 4.545.618 6.874Z" fill="#371A45"/><path d="M48.39 75.892c-2.65 1.077-6.751.852-9.547.512a2.993 2.993 0 0 1-2.026-1.165 3.02 3.02 0 0 1-.581-2.27 3.016 3.016 0 0 1 1.06-1.887 2.993 2.993 0 0 1 2.047-.686c2.615.123 6.538.18 9.023-.372" fill="#fff"/><path opacity=".35" d="M48.39 75.892c-2.65 1.077-6.752.851-9.547.512a2.997 2.997 0 0 1-2.322-1.646 3.027 3.027 0 0 1 .083-2.853 2.995 2.995 0 0 0 2.239 1.49c2.792.34 6.885.566 9.536-.507l.012 3.004Z" fill="#371A45"/><path d="M43.123 77.302c-1.53 0-3.05-.127-4.354-.286a3.614 3.614 0 0 1-2.378-1.31 3.644 3.644 0 0 1 .42-5.032 3.61 3.61 0 0 1 2.56-.895c2.731.13 6.485.171 8.862-.36.347-.077 1.21-.074 1.73 1.609.542 1.751.491 4.69-1.342 5.434-1.541.629-3.526.84-5.498.84ZM39.2 71.01a2.385 2.385 0 0 0-1.633.656 2.403 2.403 0 0 0 1.35 4.126c2.84.344 6.747.542 9.243-.472.673-.274.824-1.372.857-1.83.103-1.424-.34-2.614-.595-2.847-2.51.541-6.33.5-9.108.37a2.43 2.43 0 0 0-.114-.003Z" fill="#371A45"/><path d="M78.209 76.404c-1.312.16-2.913.294-4.515.279-.11 0-.219-.002-.33-.005a12.619 12.619 0 0 1-.348-.01c-.078-.002-.155-.006-.23-.009l-.273-.015c-.116-.007-.231-.015-.345-.024h-.01c-.113-.008-.228-.018-.342-.03-.075-.006-.151-.015-.224-.023-.064-.005-.128-.013-.19-.02a13.8 13.8 0 0 1-.617-.09 6.08 6.08 0 0 1-.311-.053l-.306-.06-.026-.006-.168-.038a9.306 9.306 0 0 1-1.031-.3c-.096-.035-.19-.073-.28-.11l.012-2.817.013-3.05a16.79 16.79 0 0 0 2.145.314c2.263.206 4.931.15 6.877.058.047 0 .094-.003.144-.003.764.002 1.5.296 2.055.823a3.021 3.021 0 0 1 .246 4.125c-.49.59-1.184.97-1.943 1.063h-.004Z" fill="#fff"/><path opacity=".35" d="M78.209 76.404c-1.312.16-2.913.293-4.514.279-.11 0-.22-.002-.33-.006a11.1 11.1 0 0 1-.348-.01 4.76 4.76 0 0 1-.23-.007l-.275-.016c-.115-.007-.23-.015-.343-.024h-.01c-.113-.008-.23-.017-.344-.03l-.224-.023c-.064-.005-.127-.014-.19-.021-.097-.01-.196-.025-.291-.036a4.36 4.36 0 0 1-.324-.052 5.489 5.489 0 0 1-.312-.053c-.1-.02-.207-.039-.306-.06l-.026-.005a4.256 4.256 0 0 1-.168-.04c-.062-.012-.124-.028-.186-.044a9.908 9.908 0 0 1-.844-.256 9.252 9.252 0 0 1-.28-.108l.01-2.817v-.187c.087.036.178.072.27.103.092.031.19.068.288.098a9.73 9.73 0 0 0 .91.241l.026.006c.1.02.202.043.306.06.105.018.206.04.312.053a.233.233 0 0 0 .053.01l.27.042a5.1 5.1 0 0 0 .293.036c.062.007.125.016.189.022l.224.023c.114.012.23.021.344.03h.009c.113.009.228.016.343.023l.274.016.23.007c.115.005.232.009.349.01.11.004.22.006.33.006 1.602.014 3.203-.119 4.513-.279a2.981 2.981 0 0 0 2.24-1.49 3.031 3.031 0 0 1-.874 3.967c-.405.287-.874.47-1.366.531h.002Z" fill="#371A45"/><path d="M73.928 77.302c-1.97 0-3.955-.211-5.497-.838-1.833-.745-1.885-3.683-1.342-5.435.521-1.683 1.383-1.685 1.73-1.608 2.376.53 6.13.487 8.86.36a3.609 3.609 0 0 1 2.56.897 3.643 3.643 0 0 1 .419 5.029 3.615 3.615 0 0 1-2.375 1.31 36.967 36.967 0 0 1-4.355.285Zm-5.298-6.66c-.255.234-.698 1.424-.595 2.847.033.46.183 1.557.857 1.831 2.496 1.014 6.404.816 9.243.472a2.388 2.388 0 0 0 1.561-.87 2.407 2.407 0 0 0-.275-3.313 2.384 2.384 0 0 0-1.683-.596c-2.777.13-6.598.171-9.108-.37Z" fill="#371A45"/><path d="M69.687 68.084v9.404c0 1.746-1.422 3.174-3.16 3.174h-17.25c-1.736 0-3.158-1.428-3.158-3.174v-9.404c0-1.745 1.422-3.17 3.158-3.17h17.249a3.16 3.16 0 0 1 2.232.93c.592.594.926 1.4.928 2.24h.001Z" fill="#fff"/><path opacity=".35" d="M69.687 68.084v9.405c0 1.745-1.421 3.172-3.159 3.172H49.277a3.16 3.16 0 0 1-2.23-.931 3.186 3.186 0 0 1-.928-2.24v-3.519c1.848 3.607 8.127 5.026 13.292 4.5 1.154-.116 1.98-1.217 1.704-2.349a4.495 4.495 0 0 1-.127-1.066c0-2.05 1.354-3.714 3.024-3.714 1.261 0 2.9 1.08 3.09 3.135.047.504.747.587.897.104.763-2.485 1.167-6.757 1.044-8.41.418.55.644 1.222.644 1.913Z" fill="#371A45"/><path d="M66.785 81.278H49.019a3.512 3.512 0 0 1-2.484-1.035 3.54 3.54 0 0 1-1.031-2.494v-9.924a3.54 3.54 0 0 1 1.03-2.495 3.512 3.512 0 0 1 2.485-1.035h17.766a3.512 3.512 0 0 1 2.484 1.035 3.54 3.54 0 0 1 1.03 2.495v9.924a3.54 3.54 0 0 1-1.03 2.494 3.512 3.512 0 0 1-2.484 1.035ZM49.019 65.53c-.606 0-1.187.242-1.615.673a2.303 2.303 0 0 0-.67 1.622v9.924c0 .608.241 1.192.67 1.622.428.43 1.01.672 1.615.673h17.766c.606 0 1.187-.243 1.615-.673.429-.43.67-1.014.67-1.622v-9.924c0-.609-.241-1.192-.67-1.622a2.283 2.283 0 0 0-1.615-.673H49.019Z" fill="#371A45"/><path d="M65.939 74.72a2.743 2.743 0 0 0 0-3.867 2.716 2.716 0 0 0-3.853 0 2.743 2.743 0 0 0 0 3.868 2.716 2.716 0 0 0 3.853 0Z" fill="#F55"/><path d="M66.737 72.788c0 .146-.012.291-.036.435a2.737 2.737 0 0 0-.921-1.65 2.717 2.717 0 0 0-3.536 0 2.737 2.737 0 0 0-.921 1.65 2.741 2.741 0 0 1 .762-2.37 2.719 2.719 0 0 1 3.853 0c.511.513.798 1.21.798 1.935Z" fill="#fff"/><path opacity=".35" d="M66.736 72.786a2.74 2.74 0 0 1-.798 1.934 2.718 2.718 0 0 1-3.85 0 2.74 2.74 0 0 1-.611-2.923 2.716 2.716 0 0 0 5.073 0c.124.315.187.65.186.99Z" fill="#371A45"/><path d="M64.013 75.985c-.63 0-1.246-.188-1.77-.539a3.21 3.21 0 0 1-.483-4.92 3.18 3.18 0 0 1 3.471-.694c.582.242 1.08.652 1.43 1.178a3.207 3.207 0 0 1-.398 4.037c-.597.6-1.406.937-2.25.938Zm0-5.47a2.257 2.257 0 0 0-2.092 1.402 2.28 2.28 0 0 0 .49 2.477 2.26 2.26 0 0 0 3.864-1.607c0-.603-.239-1.18-.663-1.606-.424-.426-1-.666-1.6-.666ZM56.293 81.278a.613.613 0 0 1-.614-.617v-5.1a2.625 2.625 0 0 0-1.034-2.08l-.893-.675a3.853 3.853 0 0 1-1.523-3.066v-4.827a.619.619 0 0 1 .614-.632.613.613 0 0 1 .615.632v4.827a2.627 2.627 0 0 0 1.034 2.08l.892.676a3.852 3.852 0 0 1 1.524 3.066v5.099a.619.619 0 0 1-.615.617Z" fill="#371A45"/><path d="m88.604 57.527-1.52 5.989-.4 1.578-2.822 11.118-.1.402a2.342 2.342 0 0 1-1.195 1.506c-.507.26-1.09.327-1.642.186l-9.562-2.446a2.328 2.328 0 0 1-1.43-1.073 2.349 2.349 0 0 1-.254-1.774l4.843-19.088a2.346 2.346 0 0 1 1.069-1.435 2.324 2.324 0 0 1 1.767-.255l9.562 2.446c.599.153 1.113.54 1.429 1.073a2.35 2.35 0 0 1 .255 1.773Z" fill="#F55"/><path d="m83.958 75.836-.198.779a2.347 2.347 0 0 1-1.07 1.435 2.328 2.328 0 0 1-1.767.256l-9.561-2.447a2.333 2.333 0 0 1-1.43-1.073 2.35 2.35 0 0 1-.254-1.774l.197-.779a2.35 2.35 0 0 0 .255 1.774c.316.534.83.92 1.429 1.074l9.562 2.446c.6.153 1.235.061 1.767-.256a2.341 2.341 0 0 0 1.07-1.435Z" fill="#fff"/><path d="M88.604 57.527 83.76 76.614a2.337 2.337 0 0 1-1.564 1.655 2.258 2.258 0 0 0 1.311-1.532l4.7-18.526a2.28 2.28 0 0 0-.247-1.722 2.264 2.264 0 0 0-1.387-1.041l-9.281-2.375a2.252 2.252 0 0 0-2.372.841c-.178.24-.307.511-.38.8l-4.701 18.527a2.276 2.276 0 0 0 .426 1.978 2.338 2.338 0 0 1-.589-2.21l4.843-19.088a2.341 2.341 0 0 1 1.07-1.435 2.325 2.325 0 0 1 1.767-.256l9.562 2.447a2.328 2.328 0 0 1 1.431 1.074 2.35 2.35 0 0 1 .255 1.776Z" fill="#fff"/><path d="M81.367 78.956c-.26 0-.52-.033-.772-.097l-9.21-2.357a3.123 3.123 0 0 1-1.918-1.44 3.15 3.15 0 0 1-.342-2.379l4.754-18.732a3.145 3.145 0 0 1 1.434-1.925 3.12 3.12 0 0 1 2.37-.344l9.21 2.357a3.133 3.133 0 0 1 1.916 1.44c.424.716.547 1.572.343 2.379L84.4 76.592a3.148 3.148 0 0 1-1.114 1.703 3.126 3.126 0 0 1-1.918.661Zm-.469-1.293a1.896 1.896 0 0 0 1.439-.21 1.91 1.91 0 0 0 .87-1.168l4.754-18.733c.124-.49.049-1.01-.209-1.445a1.902 1.902 0 0 0-1.163-.874l-9.21-2.356a1.891 1.891 0 0 0-1.99.705c-.15.201-.258.43-.32.672l-4.753 18.734a1.912 1.912 0 0 0 .703 1.998c.2.15.427.259.669.32l9.21 2.357Z" fill="#371A45"/><path d="M78.235 57.285a1.539 1.539 0 0 0 .534-2.104 1.526 1.526 0 0 0-2.096-.536 1.539 1.539 0 0 0-.534 2.104c.432.73 1.37.97 2.096.536Z" fill="#371A45"/><path d="M77.607 56.538a.571.571 0 0 0-.32-1.094.57.57 0 0 0 .32 1.094Z" fill="#21091D"/><path d="M77.456 57.739a1.755 1.755 0 0 1-1.391-.683 1.772 1.772 0 0 1-.318-1.522 1.768 1.768 0 0 1 1.346-1.29 1.752 1.752 0 0 1 1.747.643 1.77 1.77 0 0 1-.454 2.582c-.279.175-.601.269-.93.27Zm-1.261-2.09a1.31 1.31 0 0 0 .48 1.366 1.295 1.295 0 0 0 1.95-.483 1.308 1.308 0 0 0-.854-1.825 1.294 1.294 0 0 0-.982.144c-.295.177-.509.463-.594.798Z" fill="#E0E0E0"/><path d="M80.369 66.601a1.395 1.395 0 0 1-2.306-.391 1.408 1.408 0 0 1 .423-1.67 1.394 1.394 0 0 1 2.212.762l-.021-.005a.665.665 0 0 0-.813.484.673.673 0 0 0 .483.815l.022.005Z" fill="#fff"/><path d="M83.764 77.058a.465.465 0 0 1-.114-.015l-14.082-3.602a.461.461 0 0 1-.325-.56.463.463 0 0 1 .552-.337l14.083 3.603a.462.462 0 0 1 .191.795.46.46 0 0 1-.305.116Z" fill="#371A45"/><path opacity=".35" d="m87.082 63.516-.399 1.578-2.822 11.118c-.775-2.988-1.071-3.153-3.597-5.704-2.744-2.77-1.896-7.313-.022-9.508 1.64-1.92 4.623-.282 6.84 2.516Z" fill="#371A45"/><path d="M84.222 74.794s3.746-1.303 5.285-5.01c2.298-5.54-.362-10.892-5.246-11.534-3.673-.483-6.549 6.45-3.996 9.401 2.179 2.518 4.64 3.747 3.957 7.143Z" fill="#fff"/><path opacity=".35" d="M89.912 68.642c-.114.388-.249.769-.404 1.142-1.54 3.705-5.285 5.01-5.285 5.01.68-3.394-1.78-4.625-3.958-7.143-1.615-1.866-1.057-5.326.501-7.495-.46 1.763-.877 4.522.17 5.732 1.333 1.54 2.782 2.389 3.866 3.37 1.518 1.374 3.886 1.14 5.057-.54l.053-.076Z" fill="#371A45"/><path d="M84.221 75.41a.612.612 0 0 1-.596-.468.62.62 0 0 1-.006-.27c.46-2.29-.692-3.432-2.287-5.013a27.38 27.38 0 0 1-1.532-1.603c-1.71-1.978-1.245-5.205-.089-7.367 1.147-2.14 2.876-3.282 4.63-3.05 2.349.308 4.295 1.616 5.48 3.682 1.425 2.482 1.517 5.652.252 8.7-1.626 3.918-5.488 5.299-5.651 5.356a.619.619 0 0 1-.2.034ZM83.9 58.844c-1.326 0-2.461 1.223-3.106 2.43-.993 1.858-1.335 4.506-.066 5.974.484.558.984 1.055 1.47 1.534 1.427 1.415 2.787 2.762 2.755 4.995 1.14-.618 3.035-1.935 3.987-4.23 1.117-2.69 1.05-5.464-.181-7.61-.99-1.724-2.616-2.816-4.576-3.074a2.142 2.142 0 0 0-.282-.019h-.001Z" fill="#371A45"/></svg>