<svg width="120" height="120" fill="none" xmlns="http://www.w3.org/2000/svg"><path opacity=".35" d="M82.6 34.273c-12.417-6.127-25.974-8.09-38.174-5.53-12.317 2.586-21.785 9.464-26.66 19.37-10.005 20.331 2.798 47.205 28.541 59.906 1.181.582 2.371 1.127 3.57 1.634 11.413 4.827 23.564 6.213 34.604 3.896 12.317-2.586 21.785-9.464 26.662-19.37 10.002-20.33-2.8-47.204-28.544-59.906Z" fill="#371A45"/><path d="M110.73 81.598a31.721 31.721 0 0 1-2.749 8.347c-4.779 9.711-14.057 16.075-25.245 18.551-4.042.895-8.333 1.281-12.75 1.137-8.178-.27-16.793-2.364-25.07-6.452-6.146-3.032-11.537-6.88-16.033-11.252-3.505-3.406-6.466-7.132-8.817-11.037-6.962-11.568-8.568-24.715-3.09-35.846 9.699-19.71 37.935-25.637 63.064-13.237 21.712 10.713 34.002 31.597 30.69 49.789Z" fill="#F55"/><path opacity=".35" d="M94.795 41.858c10.964 12.983 14.659 29.333 8.055 42.755-4.12 8.373-11.588 14.258-20.742 17.307-9.907 3.3-20.67 2.647-30.32-1.34a66.434 66.434 0 0 1-3.963-1.794c-14.977-7.388-25.47-19.62-29.45-32.469-1.963-6.336-1.722-13.2 1.036-19.23.12-.261.243-.521.37-.78 4.534-9.21 13.4-15.624 24.962-18.05 10.204-2.142 21.423-.962 32.057 3.306-.235-.103-.468-.21-.704-.31-10.953-4.63-22.59-5.968-33.142-3.753-11.563 2.427-20.428 8.838-24.962 18.05-.026.05-.05.104-.074.156a31.603 31.603 0 0 1 1.968-5.057c.203-.413.418-.819.64-1.22a31.584 31.584 0 0 0-3.549 5.62c-7.182 14.595-2.184 32.655 11.097 46.079l.034.033c.347.35.7.698 1.058 1.042l.021.02a60.227 60.227 0 0 0 2.268 2.066l.045.038c.207.18.412.363.624.536.212.173.418.345.626.514a62.99 62.99 0 0 0 3.604 2.734 67.826 67.826 0 0 0 1.228.84c.111.076.222.148.334.224.364.24.73.475 1.1.709l.164.104c.426.267.857.53 1.293.788.098.058.197.114.295.171a52.208 52.208 0 0 0 1.434.817c.316.175.633.347.953.517l.406.215a69.92 69.92 0 0 0 2.523 1.252c.128.06.255.116.383.175.263.121.525.243.787.36.16.071.32.139.48.208.231.102.463.204.695.302.17.071.341.14.512.21.223.092.443.185.667.273.178.071.356.139.534.208.215.084.43.169.646.25.183.069.368.135.552.202.21.077.42.155.63.23.188.066.375.129.563.193.207.072.414.144.621.213.19.063.38.123.57.184.205.066.41.133.616.197.192.059.384.116.577.174.202.06.405.122.607.18.202.059.394.111.587.165.193.054.399.112.598.165.2.053.394.103.594.154.201.051.394.102.59.148.197.046.4.098.6.143.2.044.39.092.585.136.194.044.403.088.604.132.192.041.384.083.577.122.204.042.408.081.612.121l.567.108c.206.038.411.074.617.109l.561.096c.208.034.416.065.623.098.183.028.366.056.549.082.21.031.422.059.633.086.179.024.358.049.537.069.213.026.426.049.64.074a48.555 48.555 0 0 0 1.173.118l.515.045a49.029 49.029 0 0 0 1.156.082c.22.014.439.026.658.036a49.873 49.873 0 0 0 1.157.045l.479.011.672.009h.465c.227 0 .454-.002.682-.005.147 0 .295-.005.445-.009.231-.004.463-.011.693-.019l.428-.017c.235-.01.469-.022.703-.035l.41-.026c.238-.015.476-.031.713-.049l.39-.032c.241-.021.482-.043.724-.067l.37-.039c.246-.027.492-.054.734-.084l.348-.045c.25-.033.5-.067.748-.102l.324-.049a46.708 46.708 0 0 0 1.836-.315c.092-.017.184-.036.275-.054a50.25 50.25 0 0 0 1.843-.402l.21-.052c.278-.068.556-.138.832-.211l.172-.047c.287-.078.573-.157.858-.239l.127-.038c.295-.088.594-.177.888-.27l.082-.027c.308-.099.615-.2.92-.305l.027-.009c8.963-3.088 16.267-8.92 20.326-17.166 7.547-15.34 1.645-34.502-13.186-48.09Z" fill="#371A45"/><path d="M71.753 110.461c-9.034 0-18.395-2.234-27.185-6.57-12.311-6.074-22.038-15.554-27.392-26.692-5.384-11.204-5.707-22.745-.906-32.5 4.8-9.755 14.137-16.531 26.29-19.082 12.083-2.536 25.518-.588 37.83 5.486 12.31 6.074 22.037 15.553 27.392 26.692 5.384 11.203 5.706 22.745.905 32.5l-.706-.349.706.348c-4.8 9.752-14.137 16.532-26.29 19.082a51.849 51.849 0 0 1-10.644 1.085ZM53.208 26.109a50.25 50.25 0 0 0-10.322 1.05c-11.67 2.45-20.62 8.927-25.202 18.236-9.494 19.289 2.88 44.895 27.582 57.082 11.997 5.919 25.07 7.821 36.81 5.357 11.67-2.45 20.619-8.926 25.201-18.236 4.582-9.31 4.258-20.362-.912-31.12-5.201-10.822-14.673-20.042-26.67-25.961-8.574-4.23-17.697-6.408-26.489-6.408h.002Z" fill="#371A45"/><path opacity=".6" d="M17.363 47.042c4.534-9.21 13.399-15.623 24.962-18.05 10.551-2.217 22.19-.878 33.142 3.753a65.316 65.316 0 0 1 3.444 1.576c23.55 11.619 35.826 35.492 28.443 54.297 8.662-19.016-3.636-43.862-27.814-55.79a64.149 64.149 0 0 0-3.443-1.576c-10.953-4.63-22.591-5.968-33.142-3.753-11.564 2.426-20.429 8.837-24.963 18.05a30.33 30.33 0 0 0-1.02 2.32c.127-.277.257-.553.39-.827Z" fill="#FEFEFE"/><path opacity=".6" d="M102.667 79.392s-12.29 32.511-56.61 20.945c0 0 38.234 8.857 56.61-20.945Z" fill="#FEFEFE"/><path opacity=".35" d="M105.164 76.007c-3.914-14.973-12.77-14.942-16-14.388-2.803-5.688-7.722-10.913-14.237-14.579l-8.076-8.728a9.222 9.222 0 0 0-13.041-.502l-6.256 5.796c-5.485 1.837-9.96 5.37-12.431 10.393a19.188 19.188 0 0 0-1.116 2.807v.01a9.278 9.278 0 0 0-.832 6.781v.004c.044.952.15 1.9.316 2.838-3.368 6.642-9.933 10.523-13.423 14.452 2.352 3.905 5.313 7.63 8.817 11.037 4.285-1.91 8.761-6.339 11.718-11.498a33.424 33.424 0 0 0 1.68 1.754c2.706 2.628 5.945 4.94 9.642 6.763 1.656.82 3.368 1.52 5.123 2.096-.978 3.591-1.432 11.801 12.15 17.079.238.517.5 1.021.788 1.511 4.417.148 8.707-.242 12.75-1.137-.197-3.69-2.886-7.886-5.049-10.764-1.578-2.1-2.351-3.949-2.566-5.696-.185-1.497.044-2.92.528-4.36a7.508 7.508 0 0 1 2.119-3.201l3.664-3.27c1.409-1.258 3.24-1.98 5.13-1.922 1.196.042 2.345.374 3.573 1.062 1.147.644 2.365 1.6 3.752 2.918 3.784 3.595 10.199 8.62 14.758 5.242l2.085-6.91c-1.507-3.206-5.566-5.588-5.566-5.588Z" fill="#371A45"/><path d="M84.862 69.423 64.927 87.904c-4.147 3.842-10.622 3.596-14.463-.557l-17.72-19.163c-3.84-4.152-3.592-10.635.556-14.48l19.935-18.482c4.147-3.845 10.622-3.596 14.463.557l17.72 19.163c3.84 4.155 3.591 10.636-.556 14.48Z" fill="#fff"/><path d="M57.977 91.414a10.98 10.98 0 0 1-8.09-3.532L32.166 68.72a11.035 11.035 0 0 1-2.926-7.92 11.042 11.042 0 0 1 3.525-7.673L52.7 34.644a11.016 11.016 0 0 1 7.911-2.93 11.01 11.01 0 0 1 7.663 3.53l17.721 19.163c4.129 4.465 3.86 11.46-.599 15.593L65.46 88.482a10.97 10.97 0 0 1-7.482 2.932Zm2.202-58.132a9.374 9.374 0 0 0-6.41 2.518L33.835 54.282a9.459 9.459 0 0 0-2.442 10.221 9.459 9.459 0 0 0 1.929 3.145l17.72 19.163c3.539 3.827 9.528 4.058 13.35.514l19.936-18.481c3.822-3.544 4.052-9.54.513-13.366L67.12 36.315a9.383 9.383 0 0 0-6.94-3.032Z" fill="#371A45"/><path d="M33.982 55.318c-1.096 16.773-21.47 20.05-17.214 29.5 5.786 12.85 24.715-4.046 25.611-18.161" fill="#fff"/><path opacity=".35" d="M42.379 66.656C41.497 80.552 23.145 97.14 17.05 85.4c2.386 1.99 1.955-8.71 5.175-10.446 7.056-3.808 10.661 16.155 18.17-10.853l-6.42-8.672c.005-.038.007-.073.009-.11l8.394 11.337Z" fill="#371A45"/><path d="M23.101 90.173c-3.101 0-5.569-1.743-7.05-5.031-2.27-5.042 1.635-8.433 6.155-12.363 4.893-4.25 10.44-9.068 10.991-17.514a.789.789 0 0 1 1.38-.473.788.788 0 0 1 .191.576c-.594 9.104-6.658 14.371-11.53 18.604-4.816 4.183-7.457 6.734-5.752 10.522 1.45 3.217 3.798 4.554 6.98 3.974 3.477-.634 7.603-3.555 11.036-7.816 3.587-4.451 5.808-9.57 6.092-14.045a.788.788 0 0 1 1.57.099c-.303 4.791-2.65 10.235-6.437 14.935-3.663 4.545-8.141 7.677-11.979 8.376a9.165 9.165 0 0 1-1.647.156Z" fill="#371A45"/><path d="m23.48 82.768-.639.482a.598.598 0 0 1-.836-.119l-10.842-14.42a.6.6 0 0 1 .119-.837l.64-.482a.598.598 0 0 1 .835.118l10.84 14.419a.6.6 0 0 1-.116.84Z" fill="#FFDF00"/><path d="M12.28 67.27a.598.598 0 0 1 .479.238l10.838 14.42a.6.6 0 0 1-.118.838l-.64.482a.599.599 0 0 1-.836-.119l-10.84-14.418a.6.6 0 0 1 .118-.837l.64-.482a.595.595 0 0 1 .36-.12l-.001-.003Zm0-1.296a1.877 1.877 0 0 0-1.138.382l-.64.481a1.9 1.9 0 0 0-.374 2.655l10.84 14.421a1.903 1.903 0 0 0 1.514.756c.41.001.81-.132 1.138-.38l.64-.483a1.897 1.897 0 0 0 .374-2.655l-10.84-14.423a1.905 1.905 0 0 0-1.514-.756v.002Z" fill="#371A45"/><path opacity=".5" d="m23.496 82.384-10.84-14.422a.599.599 0 0 0-.839-.118l-.639.482a.588.588 0 0 0-.124.129.596.596 0 0 1 .227-.585l.64-.482a.597.597 0 0 1 .836.118l10.84 14.423a.597.597 0 0 1 .006.708.59.59 0 0 0-.107-.253Z" fill="#fff"/><path d="m15.537 77.741-.034-.026.26-.296.226-.323.034.026 4.56-5.21c.116.183 8.697 8.513 11.79 11.513a1.696 1.696 0 0 1 .153 2.266L27.77 91.76a1.693 1.693 0 0 1-2.234.388c-3.645-2.295-13.765-8.662-13.97-8.732l3.972-5.674Z" fill="#8CDBFF"/><path d="M15.427 83.944c1.649 1.01 7.566 4.733 9.9 6.202a1.252 1.252 0 0 0 1.651-.287l3.517-4.487a1.255 1.255 0 0 0-.113-1.674c-1.98-1.921-6.997-6.791-8.368-8.156a.443.443 0 0 0-.662.041l-6.043 7.707a.443.443 0 0 0 .118.654Z" fill="#F55"/><path opacity=".6" d="M31.384 87.122a1.697 1.697 0 0 0-.153-2.266c-3.093-3-11.673-11.33-11.79-11.514l-4.132 4.72.225-.323-.033-.026.26-.296.226-.323.033.026 4.56-5.21c.117.183 8.698 8.513 11.79 11.513a1.696 1.696 0 0 1 .154 2.266l-4.757 6.068c-.032.04-.069.072-.103.108l3.72-4.743Z" fill="#FEFEFE"/><path d="M26.437 93.057c-.442 0-.874-.126-1.248-.362-8.286-5.218-13.47-8.46-13.898-8.693a.649.649 0 0 1-.258-.961l3.841-5.485a.648.648 0 0 1 .141-.268l.237-.27.206-.296a.65.65 0 0 1 .227-.201l4.41-5.038a.65.65 0 0 1 .993.022c.326.359 4.81 4.735 11.734 11.453a2.341 2.341 0 0 1 .213 3.131l-4.757 6.068a2.338 2.338 0 0 1-1.841.9Zm-13.943-9.842c1.18.718 4.393 2.72 13.385 8.382a1.043 1.043 0 0 0 1.378-.24l4.756-6.067a1.046 1.046 0 0 0-.094-1.4c-7.63-7.401-10.334-10.05-11.311-11.027l-4.1 4.686a.67.67 0 0 1-.125.11l-.093.132a.577.577 0 0 1-.043.055l-.106.121a.658.658 0 0 1-.077.148l-3.57 5.1Z" fill="#371A45"/><path d="m11.751 83.512 8.971-11.442a1.182 1.182 0 0 0-.2-1.663l-.365-.287a1.181 1.181 0 0 0-1.66.2L9.527 81.763a1.182 1.182 0 0 0 .2 1.662l.366.287a1.179 1.179 0 0 0 1.657-.2Z" fill="#fff"/><path d="M10.818 84.613c-.41 0-.806-.139-1.127-.394l-.365-.286a1.835 1.835 0 0 1-.31-2.573l8.974-11.44a1.832 1.832 0 0 1 1.933-.634c.231.065.447.175.636.324l.365.287a1.836 1.836 0 0 1 .31 2.573l-8.973 11.442a1.82 1.82 0 0 1-1.443.701Zm8.609-14.097a.533.533 0 0 0-.422.204l-8.97 11.443a.536.536 0 0 0 .091.752l.365.287a.534.534 0 0 0 .751-.09l8.97-11.443a.536.536 0 0 0-.09-.752l-.365-.287a.531.531 0 0 0-.33-.114Z" fill="#371A45"/><path opacity=".35" d="M10.803 80.305s1.81.764 9.814-9.166l.102.847-9.174 11.7-.867.301-1.396-1.042s-.435-.562-.222-.833c.213-.27 1.743-1.807 1.743-1.807ZM21.305 72.776l-3.987 5.615c-1.265 1.782-.623 4.28 1.35 5.216 4.15 1.967 10.755 4.232 13.959.697l-.007 1.132-5.431 6.928-1.387-.108-14.05-8.744 8.996-11.283.557.547ZM11.053 68.455s4.222 4.653 5.292 3.288l.52.409s-2.026 2.763-2.045 2.608c-.018-.155-3.976-6.038-3.976-6.038l.21-.267Z" fill="#371A45"/><path d="M13.501 84.789s4.338-5.388 8.851-2.21c4.17 2.935 3.539 8.655 1.749 9.524-2.732 1.327-10.955.733-10.6-7.314Z" fill="#fff"/><path opacity=".35" d="M23.165 83.49c.36 2.184-.277 4.186-1.279 4.672-1.747.849-5.74.907-8.298-1.265.9 6.265 8.009 6.667 10.512 5.452 1.662-.808 2.324-5.8-.935-8.86Z" fill="#371A45"/><path d="M21.224 93.442c-1.734 0-3.664-.44-5.214-1.46-1.603-1.055-3.476-3.166-3.296-7.229a.788.788 0 0 1 .174-.46c1.66-2.062 5.868-5.21 9.915-2.36 2.814 1.98 3.621 5.1 3.44 7.358-.14 1.724-.812 3.04-1.8 3.52-.828.404-1.973.63-3.219.63Zm-6.945-8.353c-.05 2.533.823 4.408 2.598 5.576 2.29 1.508 5.522 1.388 6.88.728.382-.184.819-1.01.917-2.228.148-1.825-.504-4.344-2.775-5.943-3.459-2.435-6.835.981-7.62 1.867Z" fill="#371A45"/><path d="M111.562 84.058c-5.043 7.46-13.657.826-18.468-3.747-3.207-3.048-5.604-4.362-8.19-4.448-2.115-.07-4.16.739-5.736 2.145l-4.094 3.655a8.386 8.386 0 0 0-2.371 3.578c-1.171 3.485-.998 6.881 2.28 11.241 3.989 5.308 9.587 14.632 1.612 18.799-1.604.838-3.1.814-4.433.306-4.042-1.533-6.67-7.487-6.67-7.487-19.898-7.733-12.85-21.088-12.85-21.088-10.324-11.902-19.91-32.705-19.91-32.705l23.326-20.83s3.143 1.801 7.595 4.705c5.797 3.775 13.81 9.417 20.008 15.385a60.597 60.597 0 0 1 2.804 2.866s13.832-4.911 19.234 15.761c0 0 5.747 3.373 6.707 7.642.305 1.344.13 2.778-.844 4.222Z" fill="#fff"/><path opacity=".35" d="M111.562 84.059c-5.043 7.459-13.657.825-18.468-3.748-3.207-3.047-5.604-4.361-8.19-4.448-2.115-.069-4.16.739-5.735 2.145l-4.095 3.655a8.385 8.385 0 0 0-2.371 3.578c-1.17 3.485-.998 6.881 2.28 11.241 3.989 5.308 9.587 14.633 1.612 18.799-1.604.838-3.1.814-4.433.306 2.882-.81 8.33-3.275 6.485-10.127-2.473-9.182-8.18-3.912-11.149-13.594-2.969-9.68 9.377-21.658 17.483-21.063 10.535.773 9.394 7.79 12.601 11.148 3.707 3.877 13.252 5.226 14.825-2.112.305 1.341.129 2.776-.845 4.22Z" fill="#371A45"/><path d="M56.189 33.246c2.902 1.368 5.671 2.965 8.389 4.65 2.71 1.696 5.36 3.487 7.948 5.376 2.577 1.9 5.103 3.874 7.54 5.964 2.427 2.1 4.778 4.3 6.979 6.666l-.844-.21c.185-.063.325-.102.483-.144a12.497 12.497 0 0 1 1.377-.273c.613-.085 1.231-.13 1.85-.137 1.235 0 2.477.137 3.674.465 2.397.645 4.601 1.965 6.323 3.708a18.145 18.145 0 0 1 2.324 2.815c.357.493.651 1.02.964 1.538.162.256.287.53.43.794l.415.802c1.041 2.167 1.813 4.438 2.422 6.735l-.363-.48c.541.328 1.017.657 1.505 1.013.487.356.95.726 1.404 1.118a17.161 17.161 0 0 1 2.506 2.63c.73.985 1.37 2.105 1.656 3.392.031.162.075.32.092.484l.054.495c.008.334.02.669-.028 1.002a3.194 3.194 0 0 1-.075.496c-.037.162-.067.328-.113.488-.106.315-.206.634-.358.925-.129.306-.308.575-.475.853-.174.268-.365.507-.548.761-.201.24-.405.48-.62.712l-.344.33-.172.166-.187.151-.377.3c-.129.096-.269.18-.404.269-.264.186-.564.32-.852.47-.598.254-1.224.467-1.869.55a7.769 7.769 0 0 1-1.916.048c-.318-.018-.625-.08-.935-.128-.303-.067-.61-.128-.906-.216a15.86 15.86 0 0 1-3.356-1.41c-2.102-1.163-3.976-2.62-5.742-4.168-.439-.39-.874-.783-1.3-1.187a43.22 43.22 0 0 0-1.257-1.152c-.846-.742-1.731-1.425-2.662-1.991-.934-.554-1.916-.985-2.941-1.158a7.07 7.07 0 0 0-3.091.141 7.756 7.756 0 0 0-2.778 1.429c-.103.08-.2.17-.301.254l-.323.287-.645.578-1.295 1.156-1.293 1.155-.638.571a7.628 7.628 0 0 0-2.1 3.273c-.335 1.045-.568 2.11-.578 3.173l-.003.399.024.397c.005.266.06.527.088.79.05.262.099.524.165.783.077.256.133.517.232.77.349 1.018.857 1.995 1.458 2.925.148.234.3.466.467.69.167.223.317.448.498.689.352.469.693.948 1.03 1.428 1.335 1.934 2.565 3.966 3.477 6.191a15.957 15.957 0 0 1 1.017 3.497c.053.304.079.616.11.926.013.314.04.626.021.945a7.778 7.778 0 0 1-.265 1.9c-.155.631-.437 1.229-.758 1.795-.182.269-.348.552-.563.794-.105.124-.203.254-.313.371l-.34.341-.172.168-.183.153-.368.303c-.254.187-.515.363-.777.536-.272.152-.531.315-.817.458-.295.134-.583.281-.9.375-.307.118-.635.181-.96.25-.163.028-.332.039-.497.058a3.216 3.216 0 0 1-.5.018c-.337.009-.668-.041-.997-.087l-.485-.109c-.162-.037-.314-.099-.47-.148-1.245-.433-2.282-1.196-3.178-2.035-.89-.852-1.65-1.799-2.323-2.792a21.864 21.864 0 0 1-.95-1.527 21.238 21.238 0 0 1-.833-1.613l.435.416c-2.214-.868-4.378-1.899-6.405-3.197l-.745-.512c-.246-.173-.501-.334-.737-.527-.477-.373-.961-.736-1.405-1.153-.223-.207-.463-.394-.67-.619l-.64-.654c-.212-.219-.402-.462-.603-.693-.098-.117-.2-.232-.295-.351l-.273-.372c-1.486-1.957-2.469-4.35-2.718-6.826a14.4 14.4 0 0 1 .123-3.706c.104-.61.245-1.213.422-1.806a13.546 13.546 0 0 1 .476-1.32 7.74 7.74 0 0 1 .21-.455l.102.887a81.983 81.983 0 0 1-3.653-4.552 89.189 89.189 0 0 1-3.35-4.758 81.033 81.033 0 0 1-2.989-4.98c-.928-1.699-1.793-3.432-2.53-5.23a.265.265 0 0 1 .457-.258c1.154 1.556 2.227 3.152 3.292 4.748l3.175 4.79a150.055 150.055 0 0 0 3.251 4.72c1.123 1.543 2.29 3.055 3.536 4.486a.789.789 0 0 1 .11.869l-.008.016a6.817 6.817 0 0 0-.157.341 11.576 11.576 0 0 0-.416 1.154 13.996 13.996 0 0 0-.376 1.609 12.824 12.824 0 0 0-.11 3.287c.224 2.183 1.077 4.28 2.417 6.046l.245.336c.088.108.18.212.27.318.183.209.353.43.547.63l.586.598c.189.207.414.379.618.57.408.385.861.722 1.304 1.07.217.18.458.331.69.493l.696.483c1.912 1.223 3.985 2.216 6.121 3.053a.793.793 0 0 1 .431.407l.004.01c.218.476.488.988.76 1.468.274.481.572.96.886 1.42.624.922 1.323 1.786 2.104 2.534.787.739 1.663 1.365 2.611 1.69.463.171.952.257 1.445.256.122.007.243.003.364-.013.121-.015.243-.02.363-.041.24-.055.482-.095.716-.188.24-.067.466-.188.698-.291.23-.115.462-.261.695-.389.219-.147.439-.295.65-.449l.3-.248.152-.125.137-.136.273-.271c.088-.093.163-.197.246-.296.172-.189.295-.411.44-.618.246-.439.467-.895.586-1.392a6.2 6.2 0 0 0 .211-1.527c.017-.26-.008-.526-.016-.788-.028-.265-.05-.53-.096-.796a14.381 14.381 0 0 0-.92-3.153c-.844-2.062-2.02-4.016-3.312-5.885-.326-.466-.657-.93-.999-1.387-.168-.221-.344-.477-.52-.717a13.85 13.85 0 0 1-.505-.747c-.654-1.011-1.224-2.1-1.624-3.271-.111-.288-.18-.593-.267-.891-.079-.301-.134-.61-.193-.916-.035-.31-.099-.62-.106-.933l-.027-.469.004-.47c.013-1.254.284-2.477.655-3.631a9.068 9.068 0 0 1 1.869-3.27c.209-.236.43-.461.663-.674l.655-.587 1.294-1.156 1.293-1.154.647-.578.325-.29c.12-.101.238-.207.362-.304a9.325 9.325 0 0 1 3.348-1.72 8.664 8.664 0 0 1 3.779-.174c1.26.214 2.428.735 3.477 1.36 1.045.635 1.996 1.374 2.888 2.155.442.388.885.8 1.3 1.191.415.392.837.774 1.262 1.152 1.707 1.498 3.512 2.89 5.46 3.966.956.539 1.969.966 3.022 1.274.258.077.52.128.779.186.261.038.522.093.782.107.512.052 1.03.04 1.54-.036.506-.062.984-.232 1.448-.425.222-.12.455-.217.663-.367.106-.071.217-.134.319-.21l.301-.241.15-.121.141-.136.281-.27c.177-.193.349-.395.519-.597.153-.216.325-.43.466-.647.128-.218.274-.43.367-.66.119-.223.187-.459.269-.69.035-.117.053-.238.082-.357.029-.118.048-.239.055-.36.057-.49.027-.987-.089-1.466-.216-.982-.738-1.926-1.378-2.79a15.626 15.626 0 0 0-2.274-2.382 21.136 21.136 0 0 0-2.679-1.966l-.007-.004a.796.796 0 0 1-.356-.476c-.59-2.221-1.331-4.397-2.315-6.446l-.393-.755c-.135-.249-.252-.508-.404-.746-.293-.483-.568-.978-.898-1.432a16.581 16.581 0 0 0-2.13-2.582c-1.561-1.58-3.508-2.736-5.623-3.308-1.057-.29-2.157-.412-3.255-.411-.55.006-1.097.046-1.641.12-.271.04-.541.087-.806.144-.132.03-.264.06-.394.094-.129.035-.265.074-.357.104l-.013.004a.796.796 0 0 1-.83-.214c-2.139-2.303-4.465-4.441-6.87-6.49-1.224-1.002-2.44-2.012-3.701-2.97-1.236-.985-2.518-1.92-3.788-2.868a325.36 325.36 0 0 0-7.764-5.496c-2.612-1.803-5.233-3.602-7.834-5.441l-.004-.003a.264.264 0 0 1 .265-.453h-.001Z" fill="#371A45"/><path d="M57.163 74.876c-1.407 2.627-4.84 5.181-7.303 6.775a3.124 3.124 0 0 1-4.366-1.004 3.133 3.133 0 0 1 .782-4.125c2.175-1.646 5.354-4.216 6.975-6.314" fill="#fff"/><path opacity=".35" d="M57.164 74.874c-1.407 2.63-4.84 5.183-7.303 6.777a3.13 3.13 0 0 1-4.753-1.974 3.113 3.113 0 0 0 2.898-.26c2.46-1.589 5.886-4.137 7.297-6.762l1.86 2.22Z" fill="#371A45"/><path d="M48.176 82.94a3.916 3.916 0 0 1-3.834-3.096 3.926 3.926 0 0 1 1.46-3.947c3.2-2.421 5.624-4.611 6.827-6.167.25-.325 1.011-.966 2.648.099 1.636 1.064 3.596 3.527 2.58 5.425-1.47 2.744-4.928 5.356-7.57 7.065a3.874 3.874 0 0 1-2.111.621Zm5.592-12.116c-1.672 2.104-4.726 4.592-7.017 6.326a2.344 2.344 0 0 0 2.682 3.838c3.515-2.273 6.014-4.576 7.035-6.485.279-.522-.157-1.319-.357-1.638-.745-1.186-1.907-1.942-2.343-2.04v-.001Z" fill="#371A45"/><path d="M73.388 61.36c2.836-.908 5.97-3.822 7.982-5.96a3.132 3.132 0 0 0-.192-4.482 3.123 3.123 0 0 0-4.193.019c-2.011 1.842-5.116 4.503-7.47 5.719" fill="#fff"/><path opacity=".35" d="M81.37 55.403c-2.013 2.134-5.145 5.05-7.983 5.957l-1.859-2.256c2.833-.912 5.961-3.822 7.97-5.955a3.116 3.116 0 0 0 .783-2.79 3.127 3.127 0 0 1 1.87 2.235 3.135 3.135 0 0 1-.78 2.81Z" fill="#371A45"/><path d="M72.914 62.222c-1.797 0-3.484-2.039-4.146-3.638-.745-1.805.023-2.437.388-2.625 1.745-.9 4.337-2.89 7.298-5.6a3.913 3.913 0 0 1 6.566 2.852 3.922 3.922 0 0 1-1.078 2.734c-2.158 2.29-5.353 5.22-8.313 6.167-.231.074-.472.11-.715.11Zm-2.887-4.941c.017.447.549 1.728 1.579 2.679.276.255.98.828 1.543.65 2.06-.66 4.777-2.701 7.649-5.748a2.346 2.346 0 0 0-1.64-3.95 2.34 2.34 0 0 0-1.641.61c-2.121 1.941-5.122 4.495-7.49 5.759Z" fill="#371A45"/><path d="m69.03 54.445 6.238 7.506a3.308 3.308 0 0 1-.426 4.64l-13.806 11.5a3.297 3.297 0 0 1-4.632-.426l-6.237-7.506a3.302 3.302 0 0 1 .424-4.637L64.398 54.02a3.293 3.293 0 0 1 4.632.424Z" fill="#fff"/><path d="M58.935 79.639a4.064 4.064 0 0 1-3.136-1.47l-6.238-7.506a4.091 4.091 0 0 1 .526-5.748l13.807-11.501a4.083 4.083 0 0 1 5.74.527l6.238 7.507a4.096 4.096 0 0 1-.526 5.748l-13.807 11.5c-.73.61-1.652.944-2.604.943Zm7.557-25.59a2.475 2.475 0 0 0-1.593.577l-13.804 11.5a2.516 2.516 0 0 0-.322 3.528l6.238 7.508a2.503 2.503 0 0 0 3.523.323L74.34 65.984a2.513 2.513 0 0 0 .324-3.528l-6.239-7.507a2.483 2.483 0 0 0-1.694-.886c-.08-.01-.16-.013-.239-.013Z" fill="#371A45"/><path d="M70.222 61.604a2.842 2.842 0 0 0-2.695-2.982 2.841 2.841 0 0 0-2.978 2.698 2.842 2.842 0 0 0 2.695 2.982 2.841 2.841 0 0 0 2.978-2.698Z" fill="#F55"/><path opacity=".35" d="M75.855 63.009a3.313 3.313 0 0 1-1.013 3.583L61.035 78.09a3.296 3.296 0 0 1-4.631-.426l-2.333-2.808c4.552-.252 11.837-3.837 13.35-10.043a2.822 2.822 0 0 1-1.994-1.018 2.782 2.782 0 0 1-.507-.914 2.828 2.828 0 0 0 2.856-.061 4.683 4.683 0 0 0-.634-2.788c-1.696-2.874-.598-7.1 1.448-9.887a4.116 4.116 0 0 0 .217-4.527c-.773-1.311-1.837-2.854-3.134-4.09l-11.254-4.87s4.083 0 9.192.676c6.024 3.93 14.355 9.796 20.797 16-.436 4.652-3.51 8.873-8.553 9.674Z" fill="#371A45"/><path d="M67.615 65.412a3.413 3.413 0 0 1-3.408-3.656 3.42 3.42 0 0 1 3.563-3.178 3.413 3.413 0 0 1 3.256 3.493 3.42 3.42 0 0 1-3.411 3.34Zm-.01-5.68a2.245 2.245 0 0 0-2.19 1.763 2.252 2.252 0 0 0 1.24 2.524 2.244 2.244 0 0 0 2.732-.663 2.251 2.251 0 0 0-.052-2.813 2.23 2.23 0 0 0-1.521-.802c-.07-.004-.14-.009-.209-.009ZM66.652 74.004a.589.589 0 0 1-.454-.213l-4.259-5.126-4.197.204a.586.586 0 0 1-.482-.212l-4.268-5.135a.592.592 0 0 1 .508-.968c.156.015.3.09.4.211l4.08 4.91 4.196-.205a.59.59 0 0 1 .482.212l4.448 5.354a.592.592 0 0 1-.454.97v-.002Z" fill="#371A45"/><path d="M75.42 62.594c-9.888-.561-7.26-10.786-3.038-14.163l-.114-.079-5.726-3.946-.077-.06-9.291-7.212s19.128 0 25.768 7.002c6.405 6.752 2.53 19.025-7.522 18.458Z" fill="#fff"/><path opacity=".35" d="M75.038 45.164c-.738 1.698-1.861 2.66-2.77 3.186l-5.726-3.944-.077-.06c1.37.257 3.276.633 4.472.956 2.135.577 4.016-.108 4.101-.138ZM75.42 62.594c-3.882-.22-5.834-1.93-6.517-4.131 1.07 1.148 2.788 1.936 5.339 2.08 8.6.487 12.68-8.426 9.667-15.239 4.992 6.898 1.01 17.826-8.489 17.29Z" fill="#371A45"/><path d="M57.173 36.872c.764-.19 1.524-.27 2.287-.323.76-.045 1.523-.049 2.283-.011 1.522.062 3.038.212 4.542.449 3.008.468 6.016 1.031 8.949 1.97 1.465.47 2.912 1.034 4.3 1.756 1.387.722 2.718 1.61 3.86 2.764.15.136.273.296.41.443.135.148.271.296.393.46.241.322.492.637.702.985.448.67.802 1.4 1.103 2.146.3.746.503 1.53.66 2.32.137.792.203 1.595.197 2.4a12.447 12.447 0 0 1-.987 4.696c-.634 1.482-1.583 2.85-2.813 3.925a9.644 9.644 0 0 1-2.017 1.38c-.178.1-.362.188-.552.265l-.564.236c-.389.12-.77.271-1.17.35-.787.208-1.599.274-2.403.314-.806-.005-1.6-.035-2.395-.18-.399-.052-.795-.165-1.19-.26-.394-.131-.788-.25-1.166-.436a6.543 6.543 0 0 1-2.082-1.466 6.01 6.01 0 0 1-1.315-2.216c-.262-.801-.389-1.64-.375-2.483.02-1.656.459-3.24 1.14-4.69.694-1.445 1.628-2.789 2.923-3.856l.044 1.271c-.978-.663-1.996-1.268-2.94-1.98a17.388 17.388 0 0 1-1.378-1.125 9.856 9.856 0 0 1-.637-.638 6.59 6.59 0 0 1-.585-.714.28.28 0 0 1 .296-.433c.298.076.59.173.875.29.284.11.556.236.823.368.53.269 1.044.565 1.543.887 1.002.628 1.93 1.364 2.898 2.042h.004a.793.793 0 0 1 .042 1.269c-1.047.84-1.882 2.03-2.488 3.294-.599 1.271-.973 2.664-.987 4.027-.015 1.362.379 2.68 1.263 3.607.452.47.992.848 1.589 1.111.295.148.627.246.948.355.336.078.664.177 1.014.22.688.128 1.404.152 2.101.159.697-.038 1.397-.09 2.066-.271.341-.064.662-.197.993-.296l.476-.2c.16-.064.315-.139.465-.224a8.074 8.074 0 0 0 1.702-1.163c1.04-.909 1.855-2.077 2.403-3.362.55-1.297.843-2.688.861-4.097a12.07 12.07 0 0 0-.17-2.1c-.14-.689-.313-1.37-.577-2.022-.263-.65-.569-1.283-.96-1.866-.179-.301-.4-.573-.61-.855-.102-.141-.228-.265-.341-.4-.113-.133-.224-.27-.355-.386-.98-.99-2.18-1.797-3.46-2.466-1.281-.67-2.655-1.205-4.056-1.655-2.807-.892-5.734-1.483-8.689-1.827l-4.44-.492c-1.483-.16-2.965-.358-4.45-.743a.27.27 0 0 1 0-.525l-.003.002Z" fill="#371A45"/><path d="M71.953 47.769c.049-.06.135-.141.208-.214l.234-.221c.157-.15.316-.298.476-.444.315-.299.64-.593.935-.92.304-.327.58-.68.823-1.054.268-.376.457-.796.679-1.245l.004-.009a.116.116 0 0 1 .186-.03c.018.017.03.04.033.064a4.448 4.448 0 0 1-.028 1.56 5.635 5.635 0 0 1-.519 1.506c-.235.48-.535.927-.89 1.326a4.865 4.865 0 0 1-.907.786c-.12.08-.246.152-.375.215a.783.783 0 0 1-.965-1.185l.106-.135Z" fill="#371A45"/><path d="M62.075 20.462a.596.596 0 0 1-.844-.055L49.874 7.469a.597.597 0 0 1 .054-.844 6.26 6.26 0 0 1 8.842.57l3.873 4.413a6.276 6.276 0 0 1-.569 8.854Z" fill="#fff"/><path d="M61.681 20.752h-.05a.735.735 0 0 1-.507-.25L49.767 7.563a.739.739 0 0 1 .067-1.043 6.402 6.402 0 0 1 9.043.583l3.872 4.412a6.42 6.42 0 0 1-.582 9.054.733.733 0 0 1-.486.184ZM54.056 5.206a6.072 6.072 0 0 0-4.033 1.526.456.456 0 0 0-.042.645l11.357 12.938a.456.456 0 0 0 .644.041 6.13 6.13 0 0 0 1.754-6.583 6.135 6.135 0 0 0-1.198-2.07L58.666 7.29a6.086 6.086 0 0 0-4.207-2.069 4.625 4.625 0 0 0-.403-.015Z" fill="#371A45"/><path opacity=".35" d="m60.828 9.539 1.817 2.068a6.281 6.281 0 0 1-.57 8.855.598.598 0 0 1-.844-.055l-3.02-3.439a.598.598 0 0 0 .64-.092l.305-.271a6.27 6.27 0 0 0 1.672-7.066Z" fill="#371A45"/><path d="M61.682 21.398a1.398 1.398 0 0 1-.614-.142 1.375 1.375 0 0 1-.429-.33L49.283 7.99a1.386 1.386 0 0 1 .126-1.957A7.05 7.05 0 0 1 57.177 5c.831.41 1.574.978 2.185 1.675l3.873 4.412a7.061 7.061 0 0 1 1.033 7.777 7.059 7.059 0 0 1-1.672 2.188 1.37 1.37 0 0 1-.914.347ZM50.593 7.094l11.102 12.65a5.488 5.488 0 0 0 .358-7.614L58.18 7.716a5.477 5.477 0 0 0-7.587-.622Z" fill="#371A45"/><path d="M7.278 44.16a.597.597 0 0 1 .843.054l11.357 12.938a.596.596 0 0 1-.054.844 6.261 6.261 0 0 1-8.843-.57l-3.873-4.412a6.275 6.275 0 0 1-.916-6.91c.363-.74.868-1.4 1.486-1.944Z" fill="#fff"/><path d="M15.29 59.696a6.39 6.39 0 0 1-4.816-2.177l-3.872-4.412c-2.333-2.66-2.071-6.718.582-9.053a.744.744 0 0 1 .814-.11.735.735 0 0 1 .229.177l11.357 12.938a.74.74 0 0 1-.067 1.044 6.378 6.378 0 0 1-4.226 1.593ZM7.67 44.153c-.11 0-.216.04-.3.113a6.142 6.142 0 0 0-.556 8.654l3.873 4.412a6.129 6.129 0 0 0 8.643.558.457.457 0 0 0 .041-.645L8.014 44.309a.455.455 0 0 0-.313-.154l-.03-.002Z" fill="#371A45"/><path opacity=".35" d="m16.326 53.562 3.149 3.59a.6.6 0 0 1-.055.844 6.26 6.26 0 0 1-8.842-.57l-1.632-1.86a6.261 6.261 0 0 0 6.717-1.005l.472-.415a.605.605 0 0 0 .191-.584Z" fill="#371A45"/><path d="M15.29 60.343a7.03 7.03 0 0 1-5.302-2.397l-3.872-4.412c-2.568-2.925-2.28-7.396.64-9.966a1.384 1.384 0 0 1 1.953.126l11.359 12.94a1.387 1.387 0 0 1-.126 1.957 7.021 7.021 0 0 1-4.652 1.752ZM7.656 44.877a5.496 5.496 0 0 0-.358 7.614l3.873 4.412a5.484 5.484 0 0 0 7.587.622L7.656 44.877Z" fill="#371A45"/><path d="M34.678 61.66c16.19 0 29.316-13.14 29.316-29.352 0-16.21-13.125-29.352-29.316-29.352-16.19 0-29.316 13.141-29.316 29.352s13.126 29.353 29.316 29.353Z" fill="#fff"/><path d="M34.715 61.791c-8.898 0-17.696-4.008-23.485-11.631C1.397 37.213 3.92 18.673 16.85 8.83c12.929-9.844 31.448-7.319 41.28 5.627 4.763 6.272 6.801 14.025 5.74 21.831-1.062 7.806-5.1 14.732-11.362 19.5a29.289 29.289 0 0 1-17.792 6.003Zm-.07-58.683A29 29 0 0 0 17.02 9.056c-12.804 9.747-15.303 28.11-5.567 40.932C21.19 62.81 39.53 65.31 52.336 55.562c6.203-4.722 10.198-11.58 11.25-19.312 1.05-7.731-.967-15.41-5.684-21.622C52.17 7.08 43.455 3.108 34.644 3.108h.002Z" fill="#371A45"/><path opacity=".35" d="M55.335 11.479c.964.957 1.86 1.981 2.68 3.064 9.798 12.904 7.293 31.32-5.594 41.133-12.887 9.812-31.281 7.301-41.081-5.602-.282-.37-.555-.749-.816-1.128 10.211 10.177 26.608 11.514 38.401 2.537 12.517-9.53 15.238-27.172 6.41-40.004Z" fill="#371A45"/><path d="M34.715 62.437c-9.093 0-18.084-4.097-24-11.886C.67 37.32 3.246 18.373 16.46 8.316 29.672-1.74 48.596.838 58.642 14.068c4.866 6.409 6.949 14.333 5.864 22.309-1.085 7.976-5.208 15.054-11.61 19.927a29.927 29.927 0 0 1-18.181 6.133Zm-.07-58.683A28.36 28.36 0 0 0 17.413 9.57C4.89 19.103 2.445 37.059 11.967 49.597c9.523 12.538 27.455 14.983 39.978 5.45 6.066-4.618 9.973-11.325 11.001-18.884 1.029-7.56-.946-15.069-5.558-21.143C51.784 7.638 43.26 3.754 34.644 3.754h.002Z" fill="#371A45"/><path d="M58.396 15.2c3.542 4.52 5.362 9.866 5.577 15.305.16 4.078-3.994 14.699-13.463 22.274-8.78 7.024-20.523 8.623-24.441 7.496-5.226-1.504-9.978-4.549-13.519-9.068-9.367-11.96-2.99-24.977 9.67-34.921C34.881 6.342 49.027 3.24 58.396 15.2Z" fill="#371A45"/><path d="M29.097 61.392c-1.328 0-2.438-.127-3.247-.36-5.577-1.604-10.391-4.834-13.921-9.339-4.6-5.873-5.795-12.248-3.552-18.953 1.956-5.844 6.575-11.748 13.356-17.074 6.782-5.326 13.61-8.412 19.743-8.922 7.035-.585 12.938 2.096 17.54 7.97 3.528 4.504 5.515 9.954 5.743 15.76.158 4.029-3.715 14.887-13.759 22.922-7.317 5.853-16.459 7.996-21.903 7.996ZM43.372 8.218c-8.333 0-16.48 5.396-20.668 8.687C16.165 22.04 11.727 27.69 9.869 33.24c-2.066 6.168-.955 12.049 3.3 17.48 3.323 4.242 7.859 7.284 13.116 8.796 3.732 1.074 15.172-.505 23.732-7.353 9.487-7.59 13.31-17.995 13.168-21.628-.215-5.472-2.086-10.608-5.411-14.85-4.321-5.519-9.395-7.467-14.402-7.467Z" fill="#371A45"/><path opacity=".7" d="M52.101 24.02c1.837-.97 2.24-3.812.9-6.348-1.34-2.536-3.914-3.806-5.75-2.836-1.837.97-2.24 3.812-.9 6.348 1.34 2.537 3.914 3.806 5.75 2.836ZM53.154 32.619c1.06-.384 1.558-1.698 1.11-2.936-.448-1.238-1.67-1.93-2.732-1.546-1.06.384-1.558 1.698-1.11 2.936.448 1.237 1.67 1.93 2.732 1.546Z" fill="#fff"/><path opacity=".35" d="M45.197 7.544c4.9.476 9.435 2.853 13.198 7.655 3.542 4.52 5.362 9.868 5.578 15.306.16 4.078-3.995 14.7-13.463 22.275-3.343 2.676-7.115 4.563-10.724 5.812 11.44-9.561 16.469-22.54 16.27-27.598-.272-6.904-2.585-13.692-7.079-19.424a29.71 29.71 0 0 0-3.78-4.026Z" fill="#111A28"/><path d="M6.289 40.44h-.037a.787.787 0 0 1-.75-.761c-.616-9.142 4.567-18.732 14.22-26.314 9.586-7.529 20.03-10.396 28.664-7.872a.787.787 0 0 1-.177 1.556c-.024 0-.053 0-.077-.003a.792.792 0 0 1-.15-.029c-8.148-2.4-18.093.366-27.288 7.585-9.246 7.263-14.21 16.371-13.62 24.99v.095a.789.789 0 0 1-.785.754Zm-.016-.787h.015-.015Z" fill="#371A45"/><path opacity=".7" d="M23.273 54.278S10.33 45.386 12.997 35.697c2.667-9.69 11.819-16.845 12.065-16.092 0 0-8.194 10.396-5.88 21.51 1.785 8.572 4.09 13.163 4.09 13.163Z" fill="#fff"/><path d="M100.665 79.822a17.402 17.402 0 0 0 1.709-1.665c.516-.569.978-1.185 1.378-1.84.372-.623.663-1.291.865-1.988.2-.676.273-1.358.302-2.068v-.033a.794.794 0 0 1 .738-.758.786.786 0 0 1 .829.656c.156.902.055 1.856-.243 2.72-.29.87-.787 1.636-1.344 2.303a9.912 9.912 0 0 1-1.907 1.713c-.698.475-1.426.879-2.22 1.157a.111.111 0 0 1-.077 0 .118.118 0 0 1-.06-.05c-.013-.024-.018-.05-.013-.077a.108.108 0 0 1 .039-.067l.004-.003ZM73.371 103.16c-.29.788-.704 1.513-1.19 2.204a9.897 9.897 0 0 1-1.74 1.882c-.675.55-1.448 1.034-2.322 1.31-.866.285-1.82.371-2.72.201a.79.79 0 0 1 .126-1.567h.034c.709-.019 1.39-.08 2.069-.27.699-.193 1.37-.474 1.998-.838.66-.389 1.283-.84 1.859-1.347a17.283 17.283 0 0 0 1.69-1.686l.004-.005a.112.112 0 0 1 .144-.022.113.113 0 0 1 .048.137v.001ZM84.992 47.737a.59.59 0 0 1-.416-.17c-4.251-4.227-9.94-.417-10.18-.252a.59.59 0 0 1-.667-.975c.067-.046 6.731-4.532 11.679.387a.59.59 0 0 1-.416 1.01ZM36.883 80.747a.59.59 0 0 1-.528-.326c-2.297-4.566-10.171-9.85-10.25-9.903a.591.591 0 0 1 .654-.985c.334.222 8.215 5.51 10.65 10.356a.59.59 0 0 1-.526.857ZM89.49 77.994a.59.59 0 0 1-.579-.478c-.065-.337-1.57-8.34 1.895-14.179 3.63-6.113 9.462-3.291 9.52-3.262a.591.591 0 0 1-.527 1.057c-.197-.098-4.917-2.348-7.977 2.808-3.233 5.446-1.767 13.27-1.752 13.348a.591.591 0 0 1-.467.692.552.552 0 0 1-.113.014Z" fill="#371A45"/></svg>