<svg width="88" height="105" fill="none" xmlns="http://www.w3.org/2000/svg"><path d="M72.818 19.603c3.82 2 12.51 14.326 11.599 23.723-.37 3.804-8.41 7.304-10.606 7.582-1.743.22-26.34-32.203-24.432-32.449 8.03-1.033 18.748-1.313 23.44 1.144Z" fill="#fff"/><path opacity=".35" d="M84.415 43.327c-.368 3.805-8.41 7.304-10.605 7.583-1.337.17-16.09-18.831-22.057-27.831 12.721 6.014 21.44 14.06 22.482 14.97 3.14 2.737 7.488 2.779 9.937.594.288 1.6.39 3.179.243 4.684Z" fill="#371A45"/><path d="M73.74 51.548c-.437 0-1.225-.416-4.9-4.772-2.28-2.702-5.223-6.409-8.289-10.436-1.938-2.546-11.622-15.358-11.904-17.576-.07-.547.272-.881.647-.93 8.343-1.074 18.98-1.323 23.814 1.208 3.943 2.066 12.881 14.578 11.934 24.346-.421 4.336-8.909 7.864-11.156 8.149a1.095 1.095 0 0 1-.145.011ZM50.041 19.015c.766 1.713 4.633 7.486 11.103 16.015 6.994 9.22 11.7 14.654 12.703 15.234 2.156-.364 9.62-3.722 9.938-6.998.883-9.112-7.64-21.206-11.263-23.103-4.462-2.338-14.757-2.092-22.48-1.148Z" fill="#371A45"/><path d="M65.154 28.482a.63.63 0 0 1-.565-.915c.198-.398 4.91-9.709 9.584-7.787a.635.635 0 0 1 .208 1.03.631.631 0 0 1-.688.14c-2.986-1.226-6.768 4.768-7.973 7.182a.633.633 0 0 1-.566.35Z" fill="#371A45"/><path d="M75.588 38.072c-.093-2.024 5.645-5.477 7.108-4.605 1.464.872 2.997 5.86 2.405 7.744-.593 1.883-3.717 4.372-5.088 3.941-2.281-.716-4.348-5.408-4.425-7.08Z" fill="#fff"/><path opacity=".35" d="M85.1 41.21c-.591 1.884-3.716 4.373-5.087 3.943-2.2-.693-4.201-5.079-4.409-6.89.693 2.477 2.246 3.755 3.038 3.44.484-.191.569-1.779.569-1.779s2.973 2.122 4.682.132c.517-.603.963-1.462.015-5.017.951 1.88 1.617 4.822 1.192 6.172Z" fill="#371A45"/><path d="M80.333 45.756a1.63 1.63 0 0 1-.487-.07c-2.572-.807-4.735-5.802-4.817-7.588-.064-1.401 1.747-3 3.464-4.031.737-.442 3.239-1.827 4.49-1.081 1.666.993 3.327 6.247 2.652 8.393-.594 1.889-3.48 4.377-5.302 4.377Zm-4.185-7.711c.069 1.507 2.047 5.948 4.033 6.571.972.305 3.844-1.852 4.386-3.575.518-1.648-.914-6.352-2.157-7.093-.311-.187-1.59.028-3.341 1.079-1.934 1.16-2.948 2.42-2.921 3.018Z" fill="#371A45"/><path d="M81.404 36.32a7.65 7.65 0 0 0-1.124.663c-.35.25-.681.537-.918.871l-.087.126c-.025.043-.045.088-.068.132-.053.086-.07.18-.1.268a.78.78 0 0 0-.02.136.548.548 0 0 0-.007.13c.01.094.027.186.052.276.112.387.293.779.487 1.157.396.757.851 1.482 1.362 2.168.247.337.514.658.8.962.133.143.275.277.426.401.139.115.295.208.369.225a.642.642 0 0 1 .465.834.64.64 0 0 1-.88.368l-.064-.032c-.328-.16-.515-.345-.697-.527a5.636 5.636 0 0 1-.467-.558c-.272-.37-.52-.755-.746-1.154-.446-.78-.83-1.593-1.146-2.433-.155-.422-.297-.85-.373-1.317a1.848 1.848 0 0 1-.022-.375.889.889 0 0 1 .033-.192c.011-.062.028-.124.05-.184.052-.115.096-.23.17-.327.033-.05.065-.101.1-.149l.116-.132c.314-.345.693-.593 1.08-.805.387-.211.792-.39 1.209-.532Z" fill="#371A45"/><g opacity=".2" fill="#371A45"><path opacity=".2" d="M25.079 57.431a2.42 2.42 0 0 0-.965-3.61 2.413 2.413 0 0 0-1.389-.184l-7.333 1.213a2.415 2.415 0 0 0-2.012 2.582 2.42 2.42 0 0 0 2.404 2.221c.132 0 .264-.01.394-.032l7.335-1.211a2.398 2.398 0 0 0 1.566-.978ZM68.017 65.78a2.398 2.398 0 0 0-1.844.124l-6.656 3.312a2.413 2.413 0 0 0-.838 3.642 2.431 2.431 0 0 0 1.919.94c.37 0 .737-.086 1.069-.252l6.656-3.312a2.413 2.413 0 0 0 .838-3.642 2.413 2.413 0 0 0-1.144-.812ZM39.799 59.678a2.4 2.4 0 0 0 1.815.347l7.277-1.516a2.416 2.416 0 0 0 1.853-2.855 2.417 2.417 0 0 0-2.837-1.878l-7.278 1.516a2.411 2.411 0 0 0-1.882 1.915 2.417 2.417 0 0 0 1.052 2.471ZM65.867 59.65c.324 0 .646-.065.944-.194l6.837-2.92a2.417 2.417 0 0 0 .779-3.98 2.414 2.414 0 0 0-2.676-.466l-6.836 2.921a2.415 2.415 0 0 0-1.417 2.71 2.418 2.418 0 0 0 2.369 1.931v-.001Z"/></g><path opacity=".3" d="M33.596 70.558c-12.158 0-21.359-5.43-20.18-6.08 3.395-1.879 11.153-3.19 20.18-3.19 10.071 0 18.563 1.633 21.18 3.863.542.461-9.023 5.407-21.18 5.407Z" fill="#371A45"/><path opacity=".4" d="M60.243 59.809c0 1.654-.641 3.235-1.81 4.686-1.958 2.432-5.394 4.495-9.763 5.922-4.097 1.339-9.013 2.12-14.3 2.12-.34 0-.68-.004-1.017-.012-4.222-.08-8.184-.655-11.651-1.616-7.883-2.181-13.209-6.335-13.209-11.1 0-1.525 1.855 2.493 5.574 5.241 2.076 1.533 4.676 2.9 7.543 3.906 3.579 1.256 7.542 1.273 11.455 1.038.076-.004.47.005.546 0 4.913-.343 8.639-.387 11.922-1.293 5.624-1.556 9.099-3.69 11.246-5.543 3.363-2.905 3.464-5.123 3.464-3.35Z" fill="#fff"/><path d="M8.456 59.093c.205.517.56.98.935 1.437.375.458.78.899 1.2 1.33.854.868 1.762 1.68 2.718 2.435.485.377.984.735 1.498 1.073l.39.249.194.124c.06.038.12.071.184.11.258.147.53.287.804.424a29.52 29.52 0 0 0 3.407 1.42c4.671 1.638 9.663 2.313 14.618 2.22 4.964-.106 9.9-1.013 14.639-2.524l1.768-.597c.585-.213 1.165-.439 1.748-.657l.436-.166.415-.18.413-.181c.138-.061.268-.137.402-.205l.4-.208c.133-.07.258-.153.388-.23l.385-.233c.126-.082.247-.171.37-.256.982-.686 1.894-1.494 2.592-2.46.088-.118.178-.236.27-.352.083-.121.17-.24.259-.358.17-.24.344-.48.497-.724.325-.49.649-.965.92-1.49l.02-.039a.217.217 0 0 1 .4.039c.054.177.08.36.08.546.004.178-.01.356-.04.532-.057.34-.156.672-.294.988a6.952 6.952 0 0 1-1.06 1.702c-.103.13-.212.255-.328.374l-.34.363-.356.345c-.117.115-.233.233-.36.34-.246.218-.486.444-.748.643l-.387.306c-.133.097-.268.19-.404.284-.135.095-.268.192-.406.28l-.421.255c-.141.083-.278.175-.424.25l-.436.229c-.147.074-.29.156-.44.222l-.45.198-.45.196-.446.168c-.594.224-1.186.454-1.783.671l-1.806.61c-4.842 1.544-9.9 2.475-14.998 2.584-5.092.095-10.227-.596-15.062-2.29a30.731 30.731 0 0 1-3.553-1.483 19.95 19.95 0 0 1-.864-.458c-.071-.042-.15-.085-.222-.132l-.203-.129-.406-.258a36.888 36.888 0 0 1-1.595-1.09c-1.046-.752-2.042-1.596-2.9-2.59-.424-.499-.83-1.026-1.14-1.626-.076-.154-.145-.309-.214-.463a6.81 6.81 0 0 1-.165-.492c-.085-.34-.146-.703-.068-1.075a.214.214 0 0 1 .407-.036l.012.035Z" fill="#371A45"/><path d="M45.885 38.854a1.883 1.883 0 0 1 .506 2.607l-4.16 6.167a1.88 1.88 0 0 1-2.603.506 1.882 1.882 0 0 1-.505-2.606l4.158-6.168a1.88 1.88 0 0 1 2.604-.506Z" fill="#fff"/><path d="M45.885 38.854a1.883 1.883 0 0 1 .506 2.607l-4.16 6.167a1.88 1.88 0 0 1-2.603.506 1.882 1.882 0 0 1-.505-2.606l4.158-6.168a1.88 1.88 0 0 1 2.604-.506Z" fill="#fff"/><path opacity=".6" d="m43.282 39.36-4.158 6.168a1.885 1.885 0 0 0 .36 2.496 1.875 1.875 0 0 1 .229-1.618l4.157-6.17a1.88 1.88 0 0 1 2.75-.395 1.873 1.873 0 0 0-2.544-1.15 1.872 1.872 0 0 0-.793.668v.001Z" fill="#fff"/><path opacity=".35" d="m46.39 41.46-4.158 6.17a1.876 1.876 0 0 1-3.109-2.1l.265-.39c.097.11.209.206.33.288a1.88 1.88 0 0 0 2.604-.505l3.895-5.778a1.88 1.88 0 0 1 .174 2.315Z" fill="#371A45"/><path d="M40.674 48.995a2.412 2.412 0 0 1-2.408-2.545c.023-.437.165-.86.41-1.224l4.158-6.168a2.417 2.417 0 0 1 3.353-.652 2.423 2.423 0 0 1 .651 3.357L42.68 47.93a2.416 2.416 0 0 1-2.006 1.064Zm4.164-9.92a1.332 1.332 0 0 0-1.11.588l-4.157 6.17a1.339 1.339 0 0 0 .841 2.056 1.333 1.333 0 0 0 1.373-.562l4.158-6.17a1.339 1.339 0 0 0-.36-1.856 1.326 1.326 0 0 0-.745-.227Z" fill="#371A45"/><path d="M24.595 54.785a1.884 1.884 0 0 1-1.545 2.157l-7.334 1.211a1.879 1.879 0 0 1-2.156-1.546 1.884 1.884 0 0 1 1.545-2.158l7.335-1.21a1.88 1.88 0 0 1 2.155 1.546Z" fill="#fff"/><path d="M24.595 54.785a1.884 1.884 0 0 1-1.545 2.157l-7.334 1.211a1.879 1.879 0 0 1-2.156-1.546 1.884 1.884 0 0 1 1.545-2.158l7.335-1.21a1.88 1.88 0 0 1 2.155 1.546Z" fill="#fff"/><path opacity=".6" d="m22.44 53.238-7.335 1.211a1.882 1.882 0 0 0-1.565 1.976 1.874 1.874 0 0 1 1.332-.945l7.335-1.21a1.879 1.879 0 0 1 2.175 1.728 1.873 1.873 0 0 0-1.942-2.76Z" fill="#fff"/><path opacity=".35" d="m23.05 56.942-7.336 1.212a1.874 1.874 0 0 1-2.115-1.554 1.88 1.88 0 0 1 1.505-2.15l.465-.077c-.013.146-.007.294.017.44a1.883 1.883 0 0 0 2.155 1.546l6.87-1.136a1.878 1.878 0 0 1-1.562 1.719Z" fill="#371A45"/><path d="M15.408 58.72a2.414 2.414 0 0 1-2.406-2.222 2.419 2.419 0 0 1 2.014-2.582l7.335-1.21A2.414 2.414 0 0 1 25.1 54.7a2.42 2.42 0 0 1-1.963 2.774l-7.335 1.212c-.13.021-.262.032-.394.032Zm7.335-4.966a1.35 1.35 0 0 0-.217.017l-7.335 1.212a1.335 1.335 0 0 0-1.1 1.536 1.337 1.337 0 0 0 1.535 1.101l7.335-1.21a1.336 1.336 0 0 0 1.1-1.536 1.344 1.344 0 0 0-1.317-1.12h-.001Z" fill="#371A45"/><path d="M33.364 48.279a1.882 1.882 0 0 1-2.52.827l-6.633-3.358a1.882 1.882 0 0 1-.826-2.523 1.88 1.88 0 0 1 2.519-.827l6.633 3.358a1.882 1.882 0 0 1 .827 2.523Z" fill="#F55"/><path opacity=".35" d="m30.845 49.106-6.633-3.358a1.882 1.882 0 0 1-.828-2.523 1.885 1.885 0 0 1 2.52-.828l.832.422a1.883 1.883 0 0 0 .466 3.017l5.802 2.935a1.881 1.881 0 0 1-2.159.335Z" fill="#371A45"/><path d="M31.684 49.848a2.39 2.39 0 0 1-1.083-.26L23.97 46.23a2.417 2.417 0 0 1 2.18-4.314l6.633 3.358a2.42 2.42 0 0 1 1.065 3.248 2.402 2.402 0 0 1-1.403 1.204c-.245.08-.501.122-.76.122Zm-6.62-7.11a1.348 1.348 0 0 0-1.057.511 1.335 1.335 0 0 0 .448 2.017l6.635 3.358a1.339 1.339 0 0 0 1.794-.59 1.34 1.34 0 0 0-.589-1.795L25.66 42.88a1.318 1.318 0 0 0-.597-.144Z" fill="#371A45"/><path d="M68.553 66.298a1.884 1.884 0 0 1-.844 2.516l-6.657 3.313a1.88 1.88 0 0 1-2.514-.846 1.884 1.884 0 0 1 .845-2.515l6.657-3.311a1.88 1.88 0 0 1 2.513.843Z" fill="#FFD2D2"/><path opacity=".35" d="M68.725 66.845a1.884 1.884 0 0 1-1.017 1.971l-6.657 3.311a1.879 1.879 0 0 1-2.612-1.076 1.887 1.887 0 0 1 .943-2.284l.179-.088a1.76 1.76 0 0 0 .174.545 1.882 1.882 0 0 0 2.514.847l6.476-3.226Z" fill="#371A45"/><path d="M60.226 72.864a2.415 2.415 0 0 1-2.412-2.253 2.42 2.42 0 0 1 1.33-2.329l6.657-3.312a2.413 2.413 0 0 1 3.238 1.09 2.42 2.42 0 0 1-1.088 3.241l-6.657 3.312a2.392 2.392 0 0 1-1.068.251ZM66.87 65.8c-.205 0-.406.047-.59.138l-6.656 3.311a1.336 1.336 0 0 0 1.187 2.394l6.657-3.312a1.338 1.338 0 0 0 .601-1.792 1.327 1.327 0 0 0-1.2-.74Z" fill="#371A45"/><path d="M61.345 53.475a1.88 1.88 0 0 1-2.567.665l-6.406-3.775a1.882 1.882 0 0 1-.664-2.57 1.881 1.881 0 0 1 2.567-.665l6.406 3.775a1.883 1.883 0 0 1 .664 2.57Z" fill="#FFD2D2"/><path opacity=".35" d="M60.982 53.919a1.88 1.88 0 0 1-2.204.223l-6.405-3.777a1.883 1.883 0 0 1-.524-2.776 1.882 1.882 0 0 1 2.427-.456l.171.101a1.78 1.78 0 0 0-.362.444 1.885 1.885 0 0 0 .664 2.57l6.233 3.671Z" fill="#371A45"/><path d="M59.725 54.94c-.43 0-.852-.115-1.222-.334l-6.405-3.776a2.416 2.416 0 0 1-.882-3.325 2.416 2.416 0 0 1 3.332-.841l6.405 3.775a2.42 2.42 0 0 1 .856 3.31 2.418 2.418 0 0 1-2.084 1.19Zm-6.4-7.53a1.335 1.335 0 0 0-1.239 1.84c.11.272.307.5.56.65l6.405 3.775a1.334 1.334 0 0 0 1.97-1.487 1.337 1.337 0 0 0-.615-.817l-6.405-3.776a1.328 1.328 0 0 0-.676-.184Z" fill="#371A45"/><path d="M49.862 54.826a1.884 1.884 0 0 1-1.455 2.22l-7.278 1.516a1.879 1.879 0 0 1-2.218-1.456 1.884 1.884 0 0 1 1.455-2.22l7.278-1.517a1.879 1.879 0 0 1 2.218 1.457Z" fill="#FFD2D2"/><path opacity=".35" d="M49.891 55.398a1.885 1.885 0 0 1-1.483 1.647l-7.277 1.515a1.88 1.88 0 0 1-2.254-1.706 1.885 1.885 0 0 1 1.49-1.97l.195-.04a1.732 1.732 0 0 0 .03.573 1.884 1.884 0 0 0 2.22 1.456l7.08-1.475Z" fill="#371A45"/><path d="M40.747 59.142a2.415 2.415 0 0 1-2.397-2.171 2.42 2.42 0 0 1 1.906-2.614l7.278-1.516a2.412 2.412 0 0 1 2.876 1.87 2.42 2.42 0 0 1-1.892 2.864l-7.278 1.518c-.162.033-.328.05-.493.05Zm7.279-5.27c-.092 0-.183.009-.272.027l-7.278 1.517a1.333 1.333 0 0 0-1.035 1.58 1.339 1.339 0 0 0 1.058 1.041c.172.033.35.032.521-.004l7.278-1.516a1.335 1.335 0 0 0 .62-2.299 1.335 1.335 0 0 0-.892-.346Z" fill="#371A45"/><path fill-rule="evenodd" clip-rule="evenodd" d="M72.643 64.582V49.335l-10.181 5.4V69.98l10.18-5.4Z" fill="#371A45"/><path fill-rule="evenodd" clip-rule="evenodd" d="M21.234 91.51V76.263l-10.192 5.4v15.246l10.192-5.399Z" fill="#1A2830"/><path fill-rule="evenodd" clip-rule="evenodd" d="M87.978 66.576v15.27c0 5.927-4.295 11.854-12.884 16.37-17.178 9.045-45.03 9.045-62.208 0l-.16-.08a1.569 1.569 0 0 1-.859-1.433V82.431c.31.183.63.355.95.516 17.179 9.045 45.03 9.045 62.208 0 8.59-4.517 12.884-10.444 12.884-16.359l.069-.011ZM10.596 96.898C3.553 92.576.026 87.211.037 81.846v-14.18c.47 5.181 4.237 10.317 11.292 14.386v14.399a.47.47 0 0 1-.252.424.457.457 0 0 1-.481 0v.023Z" fill="#371A45"/><path fill-rule="evenodd" clip-rule="evenodd" d="M12.886 50.206c16.308-8.586 42.247-9.022 59.55-1.307a.492.492 0 0 1 0 .883l-1.74.917c-15.815-7.394-40.082-7.096-55.2.883C.38 59.561-.214 72.377 13.963 80.712l-2.61 1.375c-15.633-9.08-15.118-23.122 1.534-31.88ZM74.727 50l.39.206c17.177 9.034 17.177 23.696 0 32.73-17.179 9.033-45.03 9.044-62.208 0-.321-.161-.642-.345-.95-.517l2.61-1.375.95.527c15.736 8.277 41.228 8.277 56.986 0 15.758-8.277 15.736-21.712 0-29.989-.378-.206-.755-.39-1.145-.585l1.878-.986a1.591 1.591 0 0 1 1.489 0V50Z" fill="#371A45"/><path fill-rule="evenodd" clip-rule="evenodd" d="M15.44 51.616c15.735-8.288 41.227-8.288 56.985 0 15.758 8.288 15.736 21.701 0 29.99-15.735 8.288-41.227 8.276-56.985 0-15.758-8.277-15.735-21.713 0-29.99Z" fill="#D8D2DA"/><path style="mix-blend-mode:screen" opacity=".5" fill-rule="evenodd" clip-rule="evenodd" d="M14.97 81.422c15.736 8.277 41.228 8.277 56.986 0a26.208 26.208 0 0 0 9.059-7.302 109.07 109.07 0 0 0-77.027-3.44c1.523 3.933 5.177 7.693 10.983 10.742Z" fill="#fff"/><path opacity=".2" fill-rule="evenodd" clip-rule="evenodd" d="M32.046 46.733 56.519 59.64c3.87 2.029 3.87 5.354 0 7.394L43.922 73.65a16.98 16.98 0 0 1-14.052 0L5.202 60.673l.195-.333s5.44-5.904 10.009-8.31a54.803 54.803 0 0 1 16.605-5.274l.035-.023Z" fill="#fff"/><path fill-rule="evenodd" clip-rule="evenodd" d="m32.044 46.309 24.474 12.873c3.87 2.041 3.87 5.365 0 7.406L43.92 73.191a16.89 16.89 0 0 1-14.051 0L5.396 60.317c1.866-3.198 5.199-6.213 10.009-8.735A54.806 54.806 0 0 1 32.01 46.31h.035Z" fill="#371A45"/><path fill-rule="evenodd" clip-rule="evenodd" d="M15.44 51.616a24.985 24.985 0 0 0-9.757 8.312L30.43 72.95a15.653 15.653 0 0 0 12.986 0l12.597-6.614c3.574-1.88 3.574-4.953 0-6.878L31.21 46.446a53.784 53.784 0 0 0-15.77 5.17Z" fill="#F55"/><path fill-rule="evenodd" clip-rule="evenodd" d="M72.437 81.571c-15.735 8.277-41.228 8.277-56.986 0l-.962-.527-2.6 1.375c.31.184.63.356.951.516 17.178 9.045 45.03 9.045 62.208 0C83.637 78.42 87.93 72.492 87.93 66.577c0-5.916-4.294-11.854-12.883-16.37l-.39-.207a1.59 1.59 0 0 0-.744-.185c-.26 0-1.184-.436-1.413-.315l-1.198 1.486c.378.195.756.378 1.145.585 7.868 4.138 11.796 9.56 11.796 14.994 0 5.434-3.928 10.845-11.796 14.995l-.011.011Z" fill="#371A45"/><path fill-rule="evenodd" clip-rule="evenodd" d="m12.726 98.136.16.08c17.179 9.045 45.03 9.045 62.208 0 8.59-4.516 12.884-10.443 12.884-16.37v-15.27h-.057c0 5.916-4.295 11.843-12.884 16.36-17.178 9.044-45.03 9.044-62.207 0a15.23 15.23 0 0 1-.951-.517v14.273a1.594 1.594 0 0 0 .859 1.433l-.011.011Z" fill="#371A45"/><path style="mix-blend-mode:screen" opacity=".8" fill-rule="evenodd" clip-rule="evenodd" d="M21.234 83.44a45.78 45.78 0 0 1-5.531-2.43c-.573-.31-1.146-.62-1.66-.94-8.338-4.93-11.556-11.464-9.666-17.552-2.29 6.202.733 12.84 9.024 17.895l.504.298.584.333.95.527a45.78 45.78 0 0 0 5.795 2.522c15.69 5.64 37.265 4.803 51.19-2.522a28.254 28.254 0 0 0 8.017-6.064 29.169 29.169 0 0 1-7.558 5.502c-14.075 7.394-35.925 8.208-51.695 2.43h.046Z" fill="#fff"/><path style="mix-blend-mode:multiply" opacity=".4" fill-rule="evenodd" clip-rule="evenodd" d="M71.75 51.616c15.735 8.277 15.735 21.701 0 29.99a57.021 57.021 0 0 1-19.263 5.64 57.307 57.307 0 0 0 19.938-5.732c15.736-8.289 15.736-21.713 0-29.99-10.238-5.387-24.599-7.267-37.723-5.651 12.93-1.479 26.981.436 37.048 5.732v.011Z" fill="#371A45"/><path fill-rule="evenodd" clip-rule="evenodd" d="M11.294 93.734V82.087l-.252-.138c-4.81-2.854-8.017-6.179-9.746-9.664-.183 7.337.916 15.396 9.746 21.288.088.047.172.1.252.161ZM75.037 82.935c-17.178 9.045-45.03 9.045-62.208 0-.32-.16-.64-.332-.95-.516v11.67c.595.367 1.237.734 1.901 1.078 16.147 8.506 42.373 8.506 58.486 0 10.788-5.674 12.265-11.464 12.288-19.695a29.357 29.357 0 0 1-9.505 7.452l-.012.011Z" fill="#F55" style="mix-blend-mode:screen"/><path style="mix-blend-mode:screen" opacity=".75" fill-rule="evenodd" clip-rule="evenodd" d="M11.294 82.672v-.585C6.13 79.083 2.717 75.541 1.08 71.77c1.443 3.92 4.856 7.68 10.215 10.844v.058Z" fill="#F55"/><path style="mix-blend-mode:screen" opacity=".75" fill-rule="evenodd" clip-rule="evenodd" d="m12.371 84.723-.504 7.52v-9.812s.86.47.95.516c17.179 9.044 45.03 9.044 62.208 0a28.04 28.04 0 0 0 10.307-8.472c-12.23 18.709-52.313 19.912-71.655 9.538-.264-.138-.79-.287-.962-.184-.172.103-.275.585-.298.894h-.046Z" fill="#fff"/><path style="mix-blend-mode:screen" fill-rule="evenodd" clip-rule="evenodd" d="m43.417 72.916 11.842-6.225a110.174 110.174 0 0 0-35.903.39l11.086 5.835a15.653 15.653 0 0 0 12.987 0h-.012Z" fill="#F55"/><path fill-rule="evenodd" clip-rule="evenodd" d="m27.773 64.536 12.345-6.488a1.074 1.074 0 0 1 .882 0l8.75 4.585c.24.126.24.332 0 .459L37.416 69.58a.996.996 0 0 1-.882 0l-8.76-4.585c-.241-.127-.241-.344 0-.47v.011Z" fill="#F55"/><path fill-rule="evenodd" clip-rule="evenodd" d="M28.026 64.868a85.413 85.413 0 0 0 8.59 4.506c.202.08.427.08.63 0a142.868 142.868 0 0 0 12.161-6.397.103.103 0 0 0 0-.183 77.752 77.752 0 0 0-8.577-4.506.778.778 0 0 0-.642 0c-4.271 1.984-8.257 4.162-12.15 6.386a.126.126 0 0 0-.058.103.102.102 0 0 0 0 .091h.046ZM19.55 53.737a11.03 11.03 0 0 1 9.162 0c2.52 1.33 2.52 3.44 0 4.803a10.94 10.94 0 0 1-9.161 0c-2.52-1.318-2.52-3.439 0-4.803Z" fill="#4A8FFF"/><path fill-rule="evenodd" clip-rule="evenodd" d="M20.158 54.058a9.452 9.452 0 0 1 7.913 0c2.188 1.147 2.188 3.015 0 4.173a9.531 9.531 0 0 1-7.913 0c-2.199-1.146-2.199-3.026 0-4.173Z" fill="#fff"/><path style="mix-blend-mode:screen" fill-rule="evenodd" clip-rule="evenodd" d="m24.109 56.202-5.406.756c-.515-1.008 0-2.097 1.455-2.843l3.95 2.087Z" fill="#fff"/><path style="mix-blend-mode:screen" fill-rule="evenodd" clip-rule="evenodd" d="m24.108 56.202 5.417-.768c.516 1.02 0 2.11-1.454 2.854l-3.963-2.086Z" fill="#fff"/><path fill-rule="evenodd" clip-rule="evenodd" d="M37.244 69.374c2.29-1.07 4.512-2.179 6.665-3.325a119.32 119.32 0 0 0-5.726-.149c-2.645 0-5.256.092-7.856.287a82.956 82.956 0 0 0 6.31 3.187c.203.08.428.08.63 0h-.023Z" fill="#F55" style="mix-blend-mode:screen" opacity=".5"/><path style="mix-blend-mode:screen" fill-rule="evenodd" clip-rule="evenodd" d="M58.212 84.15c-10.02-5.273-24.244-6.981-36.979-5.124a60.73 60.73 0 0 0-5.325 1.009l1.145.653a43.981 43.981 0 0 0 4.135 1.892c11.143 4.379 25.824 5.124 38.17 2.293-.39-.23-.79-.448-1.146-.665v-.058Z" fill="#fff"/><path opacity=".3" d="M52.138 37.776c-.153.13-.302.266-.453.41a27.377 27.377 0 0 0-.58-.124c-5.074-1.07-10.659-1.645-16.725-1.645-2.345 0-4.617.085-6.815.256l-2.425-1.61c-.524.51-1.049 1.191-1.549 2.007-.227.027-.454.057-.681.088a22.655 22.655 0 0 0 1.822 3.111c-3.025 6.087-4.682 16.778.375 21.622 4.12 3.948 10.643.778 11.022-3.82.222-2.693.375-5.48.74-7.963.052-.358.11-.708.171-1.05 2.619.743 5.35 1.009 8.063.782 6.46-.532 12.24-3.832 16.03-8.791A22.386 22.386 0 0 0 65 33.169c-3.567-1.589-8.849 1.144-12.862 4.607Z" fill="#371A45"/><path d="M36.624 42.684c-.868 1.45-1.363 3.433-1.69 5.662-.364 2.483-.518 5.27-.74 7.963-.378 4.6-6.902 7.768-11.022 3.82-5.278-5.055-3.24-16.479.028-22.392.13-.23.26-.453.391-.666.5-.816 1.025-1.498 1.55-2.007l2.424 1.61 9.059 6.01Z" fill="#fff"/><path opacity=".35" d="m37.454 36.468-.83 6.216c-.867 1.45-1.362 3.433-1.69 5.662-.364 2.483-.517 5.27-.739 7.963-.378 4.6-6.902 7.768-11.022 3.82-1.329-1.273-2.195-2.95-2.692-4.843.4.67.886 1.283 1.448 1.823 4.119 3.948 10.643.778 11.023-3.82.154-1.87.275-3.785.456-5.613A22.61 22.61 0 0 1 22.913 37.16c.227-.032.454-.061.681-.088.5-.816 1.025-1.498 1.55-2.007l2.424 1.61a89.391 89.391 0 0 1 8.209-.244c.563.005 1.123.018 1.677.038Z" fill="#371A45"/><path d="M27.558 62.555c-1.774 0-3.472-.674-4.824-1.968-2.231-2.137-3.417-5.524-3.431-9.793-.022-6.74 2.784-13.65 5.396-16.184l.365-.354 12.411 8.234-.31.518c-1.52 2.548-1.86 7.036-2.188 11.377-.05.66-.1 1.321-.153 1.976-.203 2.472-2.018 4.708-4.622 5.697a7.442 7.442 0 0 1-2.644.497Zm-2.326-26.671c-2.33 2.634-4.683 8.994-4.664 14.907.009 2.73.543 6.49 3.04 8.883 1.655 1.585 3.953 2.034 6.146 1.201 2.152-.817 3.648-2.63 3.811-4.617.054-.652.104-1.31.153-1.968.319-4.216.647-8.564 2.074-11.4l-10.56-7.006Z" fill="#371A45"/><path d="m21.904 41.693-.572-.738c.17-.133 4.229-3.223 8.385-.745l-.478.802c-3.602-2.148-7.184.566-7.335.681Z" fill="#371A45"/><path d="M78.986 53.689c-.14-.15-.28-.296-.421-.439-6.993-7.214-13.205-6.74-13.205-6.74-4.38 1.575-5.569 8.307-6.762 13.474-1.178 5.094-7.852 7.044-11.88 1.982-2.584-3.248-2.748-7.762-1.62-12.124 1.194-4.622 3.837-9.07 6.586-11.654.153-.144.3-.28.452-.41 4.014-3.463 9.295-6.196 12.86-4.607.208.093.41.2.603.32 11.526 7.212 13.387 20.198 13.387 20.198Z" fill="#fff"/><path opacity=".35" d="M78.986 53.689c-7.163-7.673-13.624-7.18-13.624-7.18-4.38 1.576-5.569 8.308-6.762 13.475-1.178 5.094-7.852 7.044-11.88 1.982-1.272-1.6-1.957-3.506-2.192-5.549.33.728.816 1.368 1.256 2.058 3.292 5.17 10.911 3.526 12.09-1.569.831-3.592 1.652-8.552 3.48-11.485a4.228 4.228 0 0 1 5.063-1.713c2.97 1.104 8.553 3.488 11.808 6.827.585 1.917.761 3.154.761 3.154Z" fill="#371A45"/><path d="M52.392 65.555c-2.297 0-4.522-1.132-6.164-3.197-2.58-3.241-3.12-8.022-1.52-13.463 1.324-4.509 4.08-9.061 7.019-11.598 4.299-3.71 10.29-6.798 14.208-4.345 6.088 3.81 9.48 9.214 11.257 13.077 1.922 4.183 2.402 7.431 2.422 7.568l.286 1.992-1.373-1.47c-6.421-6.877-12.29-6.996-13.038-6.981-3.65 1.394-4.895 6.907-5.995 11.776-.093.41-.184.816-.276 1.211-.613 2.645-2.627 4.659-5.259 5.255a7.059 7.059 0 0 1-1.567.175Zm-.254-27.779.413.48c-5.572 4.807-10.373 16.985-5.336 23.314 1.706 2.143 4.121 3.104 6.462 2.576 2.155-.489 3.806-2.139 4.307-4.307l.274-1.205c1.122-4.967 2.518-11.148 6.89-12.72l.08-.03.085-.007c.257-.019 5.939-.37 12.581 5.824-1.055-3.904-4.222-12.413-12.63-17.676-3.341-2.092-8.937.972-12.713 4.23l-.413-.479Z" fill="#371A45"/><path d="M61.972 48.926c-1.804-7.259-13.768-4.718-13.889-4.691l-.2-.913c.13-.029 3.235-.7 6.634-.413 4.625.39 7.517 2.394 8.361 5.791l-.906.226Z" fill="#371A45"/><path d="M66.217 31.878a.472.472 0 0 1-.457-.488l.435-13.621a.473.473 0 0 1 .487-.458 4.953 4.953 0 0 1 4.483 3.209c.23.61.338 1.259.317 1.91l-.149 4.645a4.965 4.965 0 0 1-3.207 4.486c-.61.23-1.258.338-1.909.317Z" fill="#fff"/><path d="M66.379 31.997c-.055 0-.11 0-.165-.003a.59.59 0 0 1-.57-.608l.435-13.621a.59.59 0 0 1 .608-.571c2.797.09 5 2.44 4.91 5.24l-.148 4.645a5.083 5.083 0 0 1-5.07 4.918Zm.289-14.57a.356.356 0 0 0-.356.345l-.435 13.621a.357.357 0 0 0 .345.368 4.845 4.845 0 0 0 4.993-4.689l.148-4.645a4.85 4.85 0 0 0-4.685-5h-.01Z" fill="#371A45"/><path opacity=".35" d="m71.401 24.897-.068 2.179a4.968 4.968 0 0 1-1.565 3.461 4.957 4.957 0 0 1-3.55 1.341.473.473 0 0 1-.458-.488l.115-3.622a.473.473 0 0 0 .421.295l.323.01a4.951 4.951 0 0 0 4.782-3.176Z" fill="#371A45"/><path d="M66.378 32.531c-.06 0-.12 0-.181-.002a1.123 1.123 0 0 1-1.087-1.16l.435-13.62a1.125 1.125 0 0 1 1.158-1.088 5.619 5.619 0 0 1 5.427 5.79l-.148 4.645a5.618 5.618 0 0 1-5.604 5.435Zm.46-14.56-.422 13.26a4.32 4.32 0 0 0 4.266-4.177l.148-4.645a4.312 4.312 0 0 0-3.99-4.439l-.003.001Z" fill="#371A45"/><path d="M21.768 15.873a.473.473 0 0 1 .457.487l-.434 13.621a.472.472 0 0 1-.488.46 4.952 4.952 0 0 1-4.481-3.209 4.967 4.967 0 0 1-.316-1.91l.148-4.645a4.967 4.967 0 0 1 1.563-3.462 4.957 4.957 0 0 1 3.551-1.342Z" fill="#fff"/><path d="M21.318 30.558h-.019c-2.797-.09-5-2.44-4.91-5.24l.148-4.646a5.085 5.085 0 0 1 3.28-4.59 5.069 5.069 0 0 1 1.954-.325.59.59 0 0 1 .57.608l-.434 13.622a.592.592 0 0 1-.59.57Zm.287-14.57a4.84 4.84 0 0 0-3.365 1.367 4.85 4.85 0 0 0-1.47 3.325l-.148 4.644a4.855 4.855 0 0 0 1.31 3.47 4.845 4.845 0 0 0 3.375 1.53.357.357 0 0 0 .367-.346l.435-13.62a.355.355 0 0 0-.345-.368 7.165 7.165 0 0 0-.159-.002Z" fill="#371A45"/><path opacity=".35" d="m21.913 26.204-.122 3.779a.474.474 0 0 1-.488.457 4.951 4.951 0 0 1-4.48-3.208 4.966 4.966 0 0 1-.317-1.91l.063-1.958a4.965 4.965 0 0 0 4.422 3.059l.497.015a.479.479 0 0 0 .425-.234Z" fill="#371A45"/><path d="M21.319 31.091h-.039a5.619 5.619 0 0 1-5.427-5.79l.149-4.646a5.619 5.619 0 0 1 3.626-5.073 5.604 5.604 0 0 1 2.16-.359 1.122 1.122 0 0 1 1.086 1.16l-.433 13.621a1.126 1.126 0 0 1-1.122 1.087Zm.25-14.569a4.306 4.306 0 0 0-4.265 4.174l-.148 4.645a4.32 4.32 0 0 0 3.99 4.44l.424-13.259Z" fill="#371A45"/><path d="M43.995 47.099c12.813 0 23.2-10.398 23.2-23.223 0-12.826-10.387-23.224-23.2-23.224-12.812 0-23.2 10.398-23.2 23.223 0 12.826 10.388 23.224 23.2 23.224Z" fill="#fff"/><path d="M44.04 47.219c-.815 0-1.63-.043-2.44-.127C28.811 45.77 19.48 34.28 20.802 21.477 22.124 8.676 33.604-.663 46.392.66 59.179 1.982 68.51 13.473 67.189 26.274c-.64 6.202-3.654 11.782-8.488 15.714-4.196 3.414-9.328 5.23-14.662 5.23ZM43.977.769C32.307.768 22.26 9.63 21.035 21.501c-1.308 12.674 7.928 24.05 20.588 25.359 6.135.635 12.146-1.16 16.93-5.052 4.786-3.893 7.77-9.418 8.403-15.557l.115.012-.115-.012C68.264 13.579 59.03 2.202 46.368.893a23.293 23.293 0 0 0-2.39-.125Z" fill="#371A45"/><path opacity=".35" d="M67.181 23.042c.039 1.074.003 2.15-.108 3.22-1.319 12.757-12.717 22.03-25.46 20.713-12.744-1.317-22.01-12.73-20.694-25.486.039-.367.084-.733.139-1.093.395 11.406 9.14 21.06 20.802 22.267 12.376 1.28 23.483-7.431 25.321-19.621Z" fill="#371A45"/><path d="M44.04 47.752c-.833 0-1.666-.043-2.495-.128C28.463 46.27 18.92 34.516 20.272 21.422 21.624 8.327 33.366-1.225 46.447.128 59.527 1.48 69.07 13.235 67.719 26.329c-.654 6.344-3.737 12.052-8.681 16.074-4.293 3.492-9.541 5.35-14.997 5.35Zm-.061-46.45c-11.402 0-21.216 8.658-22.413 20.254-1.278 12.379 7.745 23.493 20.112 24.772 12.368 1.28 23.47-7.752 24.748-20.133C67.703 13.816 58.68 2.702 46.313 1.423c-.775-.08-1.554-.12-2.334-.12Z" fill="#371A45"/><path d="M66.937 26.848c-.398 4.527-2.236 8.6-5.054 11.856-2.112 2.441-10.25 6.322-19.813 5.565-8.866-.7-16.51-6.14-18.163-8.913-2.205-3.699-3.303-8.03-2.905-12.558C22.056 10.819 32.775 6.76 45.46 7.879c12.685 1.118 22.53 6.99 21.477 18.97Z" fill="#371A45"/><path d="M44.584 44.929a33.14 33.14 0 0 1-2.556-.1c-9.171-.726-16.868-6.28-18.6-9.185-2.346-3.937-3.377-8.396-2.981-12.895.515-5.861 3.26-10.173 8.16-12.816 4.276-2.308 10.122-3.211 16.904-2.614 6.782.598 12.38 2.51 16.189 5.532 4.361 3.46 6.311 8.185 5.795 14.046-.395 4.5-2.19 8.709-5.187 12.174-1.9 2.196-8.819 5.858-17.724 5.858ZM41.542 8.26c-4.911 0-9.15.902-12.404 2.66-4.547 2.453-7.095 6.466-7.576 11.928-.375 4.262.603 8.488 2.828 12.221 1.58 2.651 9.061 7.956 17.727 8.642 9.602.758 17.458-3.19 19.345-5.373 2.842-3.287 4.543-7.277 4.918-11.54l.558.05-.558-.05C67.682 12.009 52.15 9.03 45.413 8.437a43.979 43.979 0 0 0-3.87-.176Z" fill="#371A45"/><path opacity=".5" d="M62.482 25.342c.599-2.189-.2-4.315-1.785-4.748-1.585-.434-3.356.99-3.955 3.178-.598 2.19.201 4.315 1.786 4.749 1.585.433 3.355-.99 3.954-3.179ZM56.765 32.996c.41-.957.079-2.018-.742-2.371-.82-.353-1.82.137-2.23 1.094-.412.957-.08 2.02.741 2.372.82.352 1.82-.138 2.23-1.095Z" fill="#fff"/><path opacity=".35" d="M63.454 15.278c2.571 2.93 3.905 6.758 3.484 11.57-.398 4.527-2.237 8.6-5.052 11.856-2.112 2.441-10.252 6.322-19.814 5.566-3.376-.266-6.574-1.22-9.333-2.453 11.774.678 21.692-4.09 24.312-7.118 3.575-4.133 5.908-9.303 6.412-15.048.133-1.454.13-2.918-.01-4.373Z" fill="#fff"/><path d="M65.886 16.82a.648.648 0 0 1-.459-.192l-.068-.064-.036-.069c-3.402-5.79-10.631-9.577-19.835-10.388-9.254-.816-17.035 1.75-21.347 7.037l-.044.049a.65.65 0 0 1-.951-.888C27.737 6.688 35.922 3.956 45.6 4.81c9.61.848 17.199 4.854 20.824 10.994a.652.652 0 0 1-.539 1.016h.001Z" fill="#371A45"/><path opacity=".5" d="M25.535 30.38s-2.667-12.145 4.11-16.293c6.777-4.15 15.93-3.323 15.664-2.754 0 0-10.35 1.562-15.021 9.233-3.601 5.914-4.753 9.814-4.753 9.814Z" fill="#fff"/><path opacity=".6" d="M9.086 70.139 1.752 71.35a1.881 1.881 0 0 0-1.566 1.976 1.875 1.875 0 0 1 1.333-.945l7.334-1.211a1.879 1.879 0 0 1 2.176 1.728 1.875 1.875 0 0 0-.913-2.64 1.87 1.87 0 0 0-1.03-.12Z" fill="#fff"/></svg>