<svg width="502" height="594" viewBox="0 0 502 594" fill="none" xmlns="http://www.w3.org/2000/svg">
<g opacity="0.35">
<path opacity="0.35" d="M292.578 594C399.272 594 485.764 583.683 485.764 570.956C485.764 558.229 399.272 547.912 292.578 547.912C185.885 547.912 99.3931 558.229 99.3931 570.956C99.3931 583.683 185.885 594 292.578 594Z" fill="#371A45"/>
</g>
<path d="M192.258 271.645V401.498C192.254 408.698 194.114 415.778 197.657 422.047C204.89 434.874 218.659 443.576 234.354 443.576H355.294C370.416 443.576 383.746 435.498 391.169 423.445C395.242 416.849 397.396 409.249 397.39 401.498V271.645C397.392 268.85 397.111 266.061 396.552 263.322C394.598 253.814 389.431 245.267 381.917 239.119C374.404 232.971 365.003 229.596 355.294 229.561H234.358C216.302 229.561 200.795 241.073 194.858 257.119C193.137 261.769 192.256 266.687 192.258 271.645Z" fill="white"/>
<path d="M355.3 446.717H234.355C209.414 446.717 189.124 426.432 189.124 401.496V271.645C189.124 246.709 209.414 226.424 234.355 226.424H355.3C380.241 226.424 400.534 246.709 400.534 271.645V401.496C400.534 426.432 380.252 446.717 355.3 446.717ZM234.355 232.706C212.879 232.706 195.406 250.174 195.406 271.645V401.496C195.406 422.967 212.879 440.436 234.355 440.436H355.3C376.776 440.436 394.249 422.967 394.249 401.496V271.645C394.249 250.174 376.776 232.706 355.3 232.706H234.355Z" fill="#371A45"/>
<path d="M219.277 241.855C219.277 241.855 166.898 301.404 166.898 351.138C166.898 393.704 219.277 408.347 219.277 408.347L291.872 285.427L219.277 241.855Z" fill="white"/>
<path d="M166.898 351.134C166.898 393.708 219.277 408.347 219.277 408.347L221.068 405.318L291.874 285.427L237.146 252.574L219.279 241.851C219.279 241.851 166.898 301.416 166.898 351.134Z" fill="white"/>
<g opacity="0.35">
<path opacity="0.35" d="M188.852 356.958C188.852 381.538 206.315 396.806 221.068 405.319L291.874 285.427L237.146 252.574C224.816 267.797 188.852 315.742 188.852 356.958Z" fill="#371A45"/>
</g>
<path d="M220.753 412.021L218.431 411.373C217.875 411.216 204.68 407.462 191.311 398.295C173.283 385.943 163.756 369.624 163.756 351.138C163.756 300.797 214.745 242.238 216.917 239.78L218.647 237.814L296.163 284.338L220.753 412.021ZM219.946 245.921C211.043 256.609 170.04 308.167 170.04 351.138C170.04 385.929 208.053 401.226 217.846 404.59L287.581 286.516L219.946 245.921Z" fill="#371A45"/>
<path d="M375.343 314.034C375.343 314.034 397.536 341.825 433.084 335.686C469.942 329.327 463.423 267.991 463.423 267.991L407.415 246.429C407.415 246.429 410.895 265.589 402.785 265.587C393.7 265.587 377.485 244.212 363.322 237.795L375.343 314.034Z" fill="white"/>
<g opacity="0.35">
<path opacity="0.35" d="M367.074 261.638L375.341 314.036C375.341 314.036 397.532 341.817 433.086 335.688C469.943 329.327 463.422 267.989 463.422 267.989L437.659 281.808C455.046 284.911 452.861 316.527 426.487 321.078C390.941 327.217 369.646 271.178 369.646 271.178L367.074 261.638Z" fill="#371A45"/>
</g>
<path d="M422.754 339.727C392.232 339.727 373.747 317.066 372.889 315.994C372.387 315.341 372.16 314.518 372.259 313.701C372.357 312.884 372.773 312.138 373.416 311.624C374.059 311.11 374.878 310.868 375.697 310.952C376.516 311.035 377.27 311.437 377.796 312.07C378.002 312.333 399.321 338.321 432.551 332.592C462.613 327.404 461.12 280.303 460.447 270.216L411.179 251.252C411.54 256.028 411.373 262.575 408.429 266.097C407.748 266.934 406.886 267.607 405.908 268.064C404.93 268.52 403.862 268.75 402.783 268.734C396.743 268.734 389.656 262.457 381.45 255.195C374.933 249.43 368.194 243.461 362.025 240.667C361.276 240.317 360.694 239.686 360.407 238.911C360.12 238.135 360.151 237.278 360.492 236.524C360.833 235.771 361.458 235.183 362.23 234.887C363.002 234.591 363.86 234.612 364.617 234.944C371.651 238.129 378.751 244.414 385.62 250.491C391.954 256.096 399.13 262.449 402.791 262.451C402.949 262.465 403.109 262.437 403.253 262.37C403.398 262.303 403.522 262.2 403.614 262.07C405.542 259.765 405.179 251.711 404.329 246.995L403.336 241.501L466.344 265.755L466.55 267.664C466.828 270.288 472.933 332.005 433.623 338.788C430.034 339.411 426.397 339.725 422.754 339.727Z" fill="#371A45"/>
<g opacity="0.35">
<path opacity="0.35" d="M335.448 474.731C335.103 474.885 334.759 475.031 334.419 475.177C334.759 475.039 335.103 474.885 335.448 474.731Z" fill="#371A45"/>
</g>
<g opacity="0.35">
<path opacity="0.35" d="M291.872 378.532C290.992 379.881 290.14 381.205 289.316 382.502C290.146 381.203 291.001 379.872 291.872 378.532Z" fill="#371A45"/>
</g>
<path d="M183.83 547.815C183.879 548.348 183.953 548.884 184.05 549.392C186.714 565.161 205.191 570.802 238.443 566.444C253.499 564.488 274.318 562.162 279.808 550.181C290.772 526.253 279.585 477.839 280.885 446.814V446.754C289.896 447.74 298.987 447.74 307.999 446.754C307.999 447.007 308.015 447.254 308.023 447.51C309.133 478.553 298.201 526.424 309.075 550.17C314.565 562.16 335.376 564.486 350.44 566.433C383.734 570.787 402.21 565.143 404.85 549.333C404.93 548.824 405.004 548.322 405.055 547.805C406.97 528.537 380.087 519.588 380.087 519.588C380.087 519.588 385.947 478.7 389.818 441.807C391.445 426.294 391.816 410.245 391.307 394.28C391.183 390.147 390.999 386.019 390.755 381.898C390.411 376.039 389.97 370.227 389.433 364.461C388.964 359.466 388.435 354.53 387.846 349.654C385.659 331.332 382.719 314.009 379.685 298.767C376.972 285.094 374.186 273.09 371.795 263.565C371.26 261.461 370.766 259.481 370.273 257.624C367.356 246.39 365.332 239.85 365.332 239.85H223.543C223.543 239.85 221.505 246.437 218.579 257.731C216.851 264.345 214.823 272.586 212.71 282.068C211.887 285.773 211.053 289.663 210.211 293.736C206.817 310.194 203.455 329.381 201.023 349.8C200.455 354.565 199.939 359.391 199.477 364.278C198.919 370.248 198.459 376.284 198.113 382.355C197.858 386.661 197.669 390.981 197.545 395.314C197.464 398.182 197.41 401.052 197.383 403.925C197.267 416.688 197.768 429.431 199.067 441.814C202.93 478.706 208.79 519.594 208.79 519.594C208.79 519.594 181.915 528.547 183.83 547.815Z" fill="white"/>
<g opacity="0.35">
<path opacity="0.35" d="M309.076 550.174C314.567 562.16 335.376 564.488 350.438 566.452C383.736 570.791 402.21 565.155 404.846 549.339C377.587 560.167 329.539 553.983 321.323 540.246C310.684 522.455 308.968 504.675 325.507 482.508C342.046 460.341 343.326 431.42 343.326 431.42C335.421 437.241 319.157 443.565 308.021 447.514C309.137 478.56 298.197 526.422 309.076 550.174Z" fill="#371A45"/>
</g>
<g opacity="0.35">
<path opacity="0.35" d="M184.048 549.394C186.71 565.163 205.184 570.791 238.439 566.452C253.499 564.488 274.318 562.16 279.81 550.174C290.768 526.247 279.579 477.827 280.88 446.808C271.664 443.926 254.604 438.03 245.619 431.42C245.619 431.42 241.089 452.211 260.362 480.655C275.91 503.598 277.04 521.852 266.403 539.632C258.858 552.249 214.012 557.433 184.048 549.394Z" fill="#371A45"/>
</g>
<path d="M372.808 263.312C376.239 273.568 379.047 284.013 381.543 294.528C382.778 299.79 383.944 305.073 384.975 310.38C385.486 313.033 386.023 315.685 386.503 318.344L387.852 326.344C388.317 329.008 388.725 331.684 389.118 334.36L390.306 342.389C390.665 345.071 391.002 347.756 391.317 350.446C391.665 353.123 391.935 355.825 392.192 358.52C393.389 369.285 393.994 380.117 394.457 390.947C394.7 401.788 394.888 412.645 394.274 423.502L394.083 427.572L393.99 429.608L393.821 431.64L393.144 439.771C392.678 445.186 392.026 450.513 391.441 455.882C388.98 477.316 386.234 498.703 383.205 520.043L381.088 516.617C382.548 517.126 383.765 517.646 385.076 518.217C386.388 518.787 387.611 519.404 388.85 520.057C391.348 521.379 393.739 522.893 396.002 524.586C398.331 526.313 400.457 528.299 402.337 530.507C404.301 532.811 405.854 535.434 406.929 538.263C408 541.18 408.442 544.29 408.226 547.389C408.046 550.464 407.257 553.473 405.906 556.241C404.497 559.033 402.487 561.479 400.021 563.403C397.664 565.24 395.032 566.692 392.221 567.708C386.767 569.737 381.176 570.505 375.679 570.851C370.173 571.158 364.716 570.977 359.311 570.557C356.611 570.324 353.916 570.067 351.241 569.721L343.289 568.692C337.971 567.948 332.598 567.084 327.243 565.653C324.52 564.941 321.854 564.031 319.264 562.93C316.638 561.783 314.044 560.358 311.674 558.423C310.473 557.426 309.379 556.307 308.41 555.084C307.435 553.832 306.627 552.458 306.009 550.996C304.807 548.353 304.02 545.621 303.333 542.897C302.033 537.434 301.479 531.95 301.228 526.515C300.977 521.08 301.053 515.672 301.269 510.303C301.71 499.562 302.711 488.935 303.574 478.364C304.436 467.793 305.239 457.247 304.856 446.904L308.379 449.889C305.989 450.161 303.726 450.332 301.397 450.462C299.068 450.591 296.764 450.651 294.437 450.655C292.111 450.659 289.792 450.587 287.478 450.462C285.163 450.336 282.888 450.161 280.497 449.889L284.021 446.904C283.635 457.247 284.459 467.805 285.303 478.364C286.148 488.923 287.157 499.568 287.605 510.303C287.824 515.672 287.902 521.074 287.647 526.515C287.391 531.956 286.844 537.426 285.542 542.897C284.859 545.621 284.074 548.353 282.865 550.996C282.246 552.457 281.438 553.832 280.462 555.084C279.494 556.308 278.4 557.427 277.199 558.423C274.829 560.358 272.234 561.783 269.611 562.93C267.026 564.024 264.365 564.93 261.649 565.639C256.295 567.069 250.921 567.934 245.602 568.677L237.648 569.707C234.971 570.052 232.278 570.31 229.578 570.542C224.173 570.954 218.719 571.143 213.211 570.837C207.715 570.491 202.125 569.723 196.668 567.693C193.858 566.678 191.225 565.225 188.868 563.389C186.402 561.464 184.393 559.019 182.983 556.227C181.632 553.459 180.844 550.45 180.665 547.375C180.45 544.276 180.891 541.166 181.96 538.249C183.037 535.421 184.59 532.797 186.552 530.492C188.428 528.284 190.549 526.297 192.875 524.569C195.137 522.876 197.528 521.362 200.026 520.041C201.262 519.387 202.52 518.774 203.801 518.2C205.1 517.624 206.327 517.109 207.789 516.601L205.677 520.041C202.647 498.509 199.884 476.954 197.389 455.376C196.798 449.963 196.143 444.601 195.673 439.131C195.453 436.399 195.146 433.672 195 430.938L194.537 422.734C194.109 411.791 194.168 400.849 194.603 389.932C195.037 379.016 195.886 368.124 197.018 357.273C197.267 354.557 197.586 351.848 197.901 349.139C198.216 346.43 198.519 343.721 198.884 341.018C199.555 335.606 200.288 330.202 201.132 324.815C202.796 314.015 204.818 303.364 207.349 292.663C208.012 290.01 208.718 287.375 209.469 284.758C210.202 282.129 210.991 279.519 211.817 276.915C213.487 271.715 215.27 266.533 217.553 261.515C217.662 261.281 217.852 261.094 218.088 260.991C218.325 260.888 218.59 260.875 218.836 260.955C219.081 261.034 219.288 261.201 219.419 261.423C219.55 261.646 219.594 261.908 219.544 262.161V262.175C217.368 272.759 215.369 283.4 213.262 293.985C211.376 304.529 209.494 315.232 207.748 325.867C204.202 347.161 201.711 368.651 200.885 390.188C200.457 400.952 200.399 411.725 200.819 422.471C201.239 433.217 202.409 443.87 203.636 454.667C206.095 476.187 208.85 497.681 211.901 519.149L212.261 521.712L209.791 522.575C208.74 522.941 207.509 523.445 206.383 523.95C205.256 524.454 204.101 525.018 202.989 525.597C200.782 526.76 198.669 528.094 196.67 529.586C192.735 532.532 189.412 536.203 187.861 540.41C187.094 542.5 186.779 544.728 186.937 546.949C187.06 549.195 187.629 551.394 188.609 553.419C190.546 557.33 194.354 560.159 198.892 561.816C203.422 563.51 208.483 564.253 213.577 564.566C218.671 564.879 223.887 564.684 229.082 564.28C231.679 564.056 234.279 563.809 236.876 563.471L244.739 562.442C249.949 561.717 255.097 560.877 260.02 559.56C264.9 558.236 269.698 556.437 273.219 553.551C274.063 552.847 274.834 552.06 275.521 551.202L275.994 550.559L276.406 549.89C276.542 549.667 276.666 549.436 276.777 549.199L276.958 548.853L277.131 548.431C278.138 546.232 278.832 543.83 279.441 541.405C280.607 536.518 281.146 531.379 281.377 526.2C281.607 521.02 281.55 515.779 281.335 510.528C280.905 500.029 279.915 489.468 279.048 478.848C278.181 468.227 277.349 457.535 277.749 446.612L277.874 443.238L281.272 443.627C283.38 443.868 285.635 444.039 287.828 444.16C290.021 444.282 292.244 444.344 294.446 444.346C296.647 444.348 298.856 444.282 301.064 444.16C303.271 444.039 305.511 443.868 307.62 443.627L311.019 443.238L311.143 446.612C311.544 457.535 310.688 468.227 309.843 478.848C308.999 489.468 307.99 500.021 307.558 510.528C307.352 515.779 307.27 521.027 307.515 526.2C307.76 531.373 308.285 536.518 309.452 541.405C310.07 543.83 310.754 546.232 311.761 548.431L311.936 548.853L312.115 549.199C312.242 549.429 312.335 549.672 312.485 549.89L312.897 550.559L313.373 551.202C314.059 552.06 314.83 552.847 315.675 553.551C319.2 556.433 323.991 558.236 328.874 559.56C333.797 560.877 338.944 561.717 344.152 562.442L352.016 563.471C354.614 563.809 357.213 564.056 359.811 564.28C365.004 564.692 370.201 564.85 375.314 564.566C380.427 564.282 385.474 563.51 390.002 561.816C394.532 560.159 398.345 557.34 400.285 553.419C401.264 551.394 401.832 549.195 401.957 546.949C402.114 544.728 401.799 542.5 401.032 540.41C399.479 536.203 396.156 532.532 392.223 529.586C390.223 528.094 388.11 526.76 385.902 525.597C384.79 525.011 383.66 524.462 382.511 523.95C381.384 523.445 380.153 522.941 379.103 522.575L376.632 521.712L376.992 519.149C379.989 497.871 382.723 476.546 385.194 455.172C385.776 449.84 386.429 444.479 386.886 439.166L387.549 431.203L387.716 429.213L387.798 427.216L387.963 423.218C388.494 412.567 388.307 401.874 387.938 391.198C386.909 369.845 384.607 348.542 381.483 327.343C378.302 306.139 374.453 285.057 370.776 263.82C370.733 263.56 370.79 263.294 370.935 263.074C371.079 262.854 371.302 262.696 371.557 262.632C371.813 262.568 372.083 262.603 372.314 262.728C372.546 262.854 372.721 263.062 372.806 263.312H372.808Z" fill="#371A45"/>
<path d="M236.444 496.301C210.689 496.301 201.83 485.088 201.312 484.4C200.807 483.737 200.587 482.9 200.7 482.074C200.812 481.249 201.248 480.502 201.912 479.998C202.575 479.493 203.412 479.273 204.238 479.386C205.064 479.498 205.811 479.934 206.315 480.598C206.591 480.941 223.457 500.978 280.691 481.403C281.082 481.269 281.495 481.214 281.906 481.24C282.318 481.266 282.721 481.373 283.091 481.555C283.462 481.737 283.793 481.989 284.066 482.299C284.338 482.609 284.547 482.969 284.681 483.359C284.814 483.75 284.869 484.162 284.843 484.574C284.817 484.986 284.71 485.388 284.528 485.759C284.347 486.129 284.094 486.46 283.784 486.733C283.474 487.005 283.114 487.214 282.724 487.348C263.296 493.993 248.127 496.301 236.444 496.301Z" fill="#371A45"/>
<path d="M355.014 497.771C331.952 497.771 307.253 489.639 305.682 489.112C304.905 488.838 304.266 488.269 303.904 487.529C303.542 486.788 303.486 485.935 303.747 485.153C304.009 484.371 304.567 483.723 305.302 483.35C306.037 482.976 306.889 482.906 307.675 483.154C308.231 483.34 363.355 501.476 382.463 483.828C383.078 483.281 383.883 482.998 384.705 483.038C385.527 483.079 386.3 483.44 386.858 484.044C387.416 484.648 387.715 485.447 387.691 486.269C387.667 487.091 387.321 487.871 386.728 488.441C379.136 495.457 367.311 497.771 355.014 497.771Z" fill="#371A45"/>
<path d="M176.059 203.861C176.374 203.818 176.678 203.713 176.953 203.553C177.229 203.392 177.469 203.179 177.662 202.925C177.854 202.671 177.995 202.382 178.076 202.074C178.156 201.766 178.176 201.445 178.132 201.129L168.627 131.929C168.54 131.292 168.203 130.716 167.691 130.327C167.178 129.938 166.532 129.769 165.895 129.856C162.584 130.311 159.395 131.413 156.511 133.099C153.626 134.786 151.102 137.024 149.082 139.686C147.063 142.348 145.588 145.381 144.741 148.613C143.894 151.845 143.692 155.212 144.147 158.522L147.388 182.12C147.842 185.43 148.945 188.618 150.632 191.501C152.318 194.385 154.557 196.909 157.219 198.928C159.882 200.946 162.916 202.421 166.148 203.268C169.381 204.114 172.748 204.316 176.059 203.861Z" fill="white"/>
<path d="M172.544 204.662C166.267 204.647 160.208 202.364 155.483 198.235C150.757 194.105 147.684 188.407 146.83 182.19L143.587 158.592C143.122 155.209 143.329 151.767 144.195 148.463C145.061 145.159 146.57 142.058 148.635 139.337C150.7 136.616 153.281 134.329 156.231 132.605C159.18 130.882 162.44 129.756 165.825 129.292C166.611 129.184 167.407 129.393 168.039 129.872C168.67 130.351 169.086 131.062 169.194 131.847L178.698 201.047C178.805 201.832 178.596 202.628 178.117 203.259C177.638 203.89 176.928 204.306 176.143 204.415C174.95 204.579 173.748 204.662 172.544 204.662ZM166.229 130.392C166.142 130.392 166.056 130.398 165.971 130.41C159.434 131.309 153.521 134.766 149.533 140.022C145.545 145.278 143.809 151.902 144.705 158.438L147.948 182.036C148.392 185.274 149.469 188.392 151.119 191.213C152.768 194.035 154.958 196.503 157.562 198.478C160.166 200.453 163.134 201.896 166.296 202.724C169.458 203.552 172.752 203.749 175.991 203.303C176.48 203.235 176.922 202.976 177.22 202.583C177.518 202.19 177.649 201.695 177.582 201.206L168.078 132.006C168.016 131.561 167.795 131.154 167.457 130.858C167.119 130.563 166.686 130.399 166.237 130.398L166.229 130.392Z" fill="#371A45"/>
<g opacity="0.35">
<path opacity="0.35" d="M145.869 171.053L147.386 182.122C148.307 188.806 151.844 194.852 157.221 198.929C162.598 203.007 169.375 204.783 176.061 203.867C176.699 203.779 177.275 203.44 177.664 202.927C178.053 202.414 178.222 201.767 178.135 201.129L175.614 182.732C175.484 183.181 175.226 183.582 174.873 183.889C174.52 184.195 174.086 184.393 173.623 184.459L171.976 184.679C166.748 185.398 161.426 184.472 156.748 182.03C152.07 179.589 148.268 175.752 145.869 171.053Z" fill="#371A45"/>
</g>
<path d="M172.538 207.246C165.639 207.227 158.98 204.717 153.786 200.178C148.592 195.638 145.214 189.375 144.275 182.542L141.034 158.945C140.523 155.226 140.75 151.443 141.701 147.813C142.653 144.182 144.31 140.774 146.579 137.784C148.848 134.793 151.684 132.279 154.925 130.385C158.165 128.49 161.748 127.252 165.467 126.742C166.192 126.641 166.929 126.684 167.637 126.869C168.344 127.054 169.009 127.377 169.592 127.819C170.175 128.26 170.664 128.813 171.033 129.445C171.402 130.076 171.643 130.774 171.741 131.499L181.246 200.699C181.445 202.161 181.055 203.643 180.163 204.818C179.271 205.994 177.949 206.767 176.487 206.97C175.179 207.151 173.859 207.244 172.538 207.246ZM165.613 133.078C159.904 134.05 154.797 137.204 151.372 141.872C147.947 146.541 146.473 152.358 147.261 158.094L150.502 181.692C151.289 187.429 154.278 192.634 158.835 196.207C163.393 199.78 169.162 201.44 174.922 200.837L165.613 133.078Z" fill="#371A45"/>
<path d="M394.363 98.4915C394.047 98.5345 393.743 98.6393 393.468 98.8C393.193 98.9606 392.952 99.1739 392.76 99.4276C392.567 99.6813 392.426 99.9705 392.346 100.279C392.265 100.587 392.246 100.908 392.289 101.223L401.794 170.423C401.881 171.06 402.218 171.637 402.731 172.026C403.243 172.414 403.889 172.584 404.526 172.496C407.837 172.042 411.026 170.94 413.911 169.253C416.795 167.567 419.32 165.329 421.339 162.667C423.359 160.005 424.834 156.971 425.681 153.739C426.528 150.507 426.729 147.14 426.274 143.83L423.034 120.235C422.115 113.55 418.579 107.504 413.202 103.427C407.825 99.349 401.049 97.5738 394.363 98.4915Z" fill="white"/>
<path d="M404.191 173.083C403.469 173.082 402.772 172.82 402.228 172.345C401.685 171.87 401.332 171.215 401.234 170.499L391.729 101.299C391.623 100.514 391.832 99.7187 392.311 99.0874C392.79 98.4561 393.5 98.0404 394.285 97.9315C397.669 97.4668 401.112 97.6732 404.417 98.5391C407.722 99.405 410.824 100.913 413.545 102.978C416.267 105.043 418.555 107.623 420.279 110.572C422.002 113.521 423.128 116.78 423.592 120.164L426.833 143.762C427.298 147.146 427.091 150.588 426.225 153.892C425.359 157.196 423.85 160.297 421.785 163.018C419.72 165.739 417.139 168.027 414.189 169.75C411.24 171.474 407.979 172.599 404.595 173.062C404.461 173.079 404.326 173.086 404.191 173.083ZM394.439 99.0555C393.951 99.1235 393.509 99.3822 393.211 99.7749C392.912 100.168 392.782 100.662 392.847 101.151L402.352 170.353C402.385 170.596 402.465 170.83 402.588 171.041C402.711 171.252 402.875 171.437 403.07 171.585C403.265 171.733 403.488 171.841 403.724 171.902C403.961 171.963 404.208 171.977 404.45 171.943C410.988 171.045 416.9 167.587 420.888 162.331C424.876 157.075 426.612 150.45 425.715 143.915L422.474 120.317C421.576 113.781 418.118 107.869 412.861 103.882C407.603 99.8943 400.977 98.1583 394.439 99.0555Z" fill="#371A45"/>
<g opacity="0.35">
<path opacity="0.35" d="M399.152 151.227L401.79 170.423C401.879 171.061 402.217 171.637 402.731 172.026C403.244 172.415 403.891 172.584 404.529 172.496C407.839 172.043 411.028 170.942 413.913 169.256C416.797 167.571 419.322 165.333 421.341 162.671C423.36 160.01 424.835 156.976 425.681 153.744C426.528 150.513 426.728 147.146 426.273 143.836L424.907 133.893C423.512 138.581 420.796 142.767 417.084 145.951C413.372 149.135 408.82 151.183 403.975 151.849L401.448 152.194C401.014 152.254 400.572 152.195 400.168 152.025C399.764 151.855 399.413 151.579 399.152 151.227Z" fill="#371A45"/>
</g>
<path d="M404.193 175.66C402.848 175.657 401.55 175.169 400.537 174.285C399.525 173.401 398.865 172.181 398.681 170.849L389.176 101.649C388.977 100.187 389.366 98.7065 390.258 97.5311C391.149 96.3556 392.471 95.5816 393.932 95.3787C397.652 94.868 401.435 95.0948 405.067 96.046C408.698 96.9972 412.107 98.6543 415.098 100.923C418.089 103.191 420.604 106.026 422.499 109.266C424.394 112.506 425.632 116.088 426.143 119.806L429.386 143.404C430.417 150.913 428.423 158.523 423.843 164.562C419.263 170.602 412.471 174.575 404.961 175.609C404.706 175.644 404.45 175.661 404.193 175.66ZM395.499 101.526L404.808 169.285C410.517 168.313 415.624 165.159 419.049 160.491C422.474 155.822 423.949 150.005 423.161 144.269L419.92 120.671C419.132 114.934 416.144 109.729 411.586 106.156C407.028 102.583 401.259 100.922 395.499 101.526Z" fill="#371A45"/>
<g opacity="0.35">
<path opacity="0.35" d="M194.858 257.126C196.963 259.328 199.139 261.446 201.386 263.478C224.099 284.05 253.587 295.551 284.234 295.79C314.881 296.03 344.545 284.99 367.576 264.775C368.827 263.677 370.051 262.552 371.25 261.399C374.767 258.052 378.083 254.499 381.179 250.758C383.1 248.457 384.925 246.087 386.652 243.65C382.714 239.226 377.885 235.684 372.481 233.258C367.078 230.831 361.222 229.575 355.298 229.571H234.358C216.302 229.571 200.801 241.079 194.858 257.126Z" fill="#371A45"/>
</g>
<path d="M285.196 270.21C350.95 270.21 404.255 216.918 404.255 151.18C404.255 85.4407 350.95 32.1488 285.196 32.1488C219.442 32.1488 166.138 85.4407 166.138 151.18C166.138 216.918 219.442 270.21 285.196 270.21Z" fill="white"/>
<path d="M284.955 270.811C262.003 270.811 239.522 264.178 219.847 251.349C193.079 233.898 174.72 207.071 168.14 175.811C161.559 144.551 167.547 112.611 185.001 85.8495C202.456 59.0876 229.29 40.7289 260.557 34.1476C325.101 20.5608 388.665 62.0149 402.253 126.546C415.841 191.077 374.379 254.624 309.831 268.209C301.652 269.935 293.315 270.807 284.955 270.811ZM285.225 32.6983C277.014 32.7012 268.825 33.5574 260.79 35.253C229.817 41.7706 203.239 59.9563 185.949 86.4609C168.658 112.965 162.724 144.614 169.243 175.578C175.762 206.541 193.952 233.116 220.463 250.404C246.974 267.692 278.632 273.621 309.603 267.104C373.539 253.649 414.616 190.698 401.149 126.777C389.417 71.0584 340.052 32.6983 285.225 32.6983Z" fill="#371A45"/>
<g opacity="0.35">
<path opacity="0.35" d="M166.414 159.338C166.787 164.837 167.544 170.304 168.679 175.698C182.232 240.023 245.368 281.193 309.712 267.66C374.056 254.126 415.232 190.989 401.695 126.661C401.306 124.809 400.872 122.968 400.402 121.165C404.485 179.516 365.013 233.413 306.141 245.803C243.659 258.948 182.314 220.493 166.414 159.338Z" fill="#371A45"/>
</g>
<path d="M284.949 273.391C261.502 273.391 238.537 266.614 218.441 253.507C191.102 235.681 172.342 208.275 165.619 176.342C158.896 144.409 165.014 111.77 182.845 84.4374C200.677 57.1053 228.085 38.3493 260.026 31.6259C325.958 17.753 390.895 60.0944 404.78 126.015C418.664 191.936 376.304 256.854 310.371 270.735C302.011 272.497 293.492 273.387 284.949 273.391ZM285.225 35.2758C277.192 35.2783 269.181 36.1159 261.321 37.775C231.022 44.1566 205.022 61.941 188.106 87.8691C171.191 113.797 165.388 144.757 171.765 175.049C178.149 205.339 195.937 231.335 221.871 248.245C247.805 265.154 278.776 270.957 309.071 264.582C371.618 251.421 411.791 189.84 398.627 127.308C387.15 72.7939 338.864 35.2758 285.225 35.2758Z" fill="#371A45"/>
<path d="M169.694 178.608C174.148 201.471 185.706 221.252 201.816 236.342C213.899 247.654 257.514 263.079 305.913 254.106C350.788 245.785 386.897 213.963 393.85 198.951C403.116 178.917 406.41 156.246 401.959 133.383C390.173 72.8803 333.295 57.9225 269.148 70.4121C205.001 82.9016 157.908 118.106 169.694 178.608Z" fill="#371A45"/>
<path d="M275.998 259.991C238.587 259.991 209.142 247.502 199.67 238.629C182.477 222.531 171.049 201.986 166.608 179.203C160.822 149.508 168.271 124.292 188.751 104.254C206.609 86.7822 234.205 74.0106 268.553 67.3222C302.9 60.6338 333.272 62.118 356.385 71.6144C382.89 82.5024 399.259 103.08 405.043 132.776C409.483 155.554 406.598 178.888 396.704 200.263C389.396 216.046 353.002 248.564 306.489 257.188C296.433 259.052 286.226 259.99 275.998 259.991ZM172.779 178.007C176.961 199.483 187.748 218.86 203.97 234.049C214.741 244.136 256.841 260.012 305.347 251.018C349.114 242.903 384.376 211.948 391.004 197.632C400.34 177.458 403.065 155.455 398.88 133.984C393.527 106.493 378.426 87.4595 353.992 77.432C332.018 68.403 302.888 67.0422 269.749 73.496C236.61 79.9497 210.12 92.1387 193.151 108.752C174.278 127.215 167.423 150.521 172.779 178.007Z" fill="#371A45"/>
<g opacity="0.7">
<path opacity="0.7" d="M213.483 182.676C221.34 179.615 224.284 168.347 220.06 157.508C215.835 146.668 206.04 140.363 198.184 143.424C190.327 146.485 187.382 157.753 191.607 168.592C195.832 179.432 205.626 185.737 213.483 182.676Z" fill="white"/>
</g>
<g opacity="0.7">
<path opacity="0.7" d="M236.889 208.893C240.889 206.656 242.016 201.064 239.408 196.404C236.8 191.744 231.443 189.78 227.444 192.017C223.444 194.255 222.317 199.846 224.925 204.506C227.533 209.167 232.89 211.131 236.889 208.893Z" fill="white"/>
</g>
<g opacity="0.35">
<path opacity="0.35" d="M181.287 117.768C169.727 134.077 164.965 154.304 169.694 178.604C174.15 201.471 185.712 221.25 201.816 236.342C213.901 247.654 257.52 263.077 305.919 254.11C323.01 250.946 338.819 244.371 352.249 236.612C292.521 246.369 239.349 227.368 224.365 213.337C203.91 194.192 189.241 169.077 183.595 140.065C182.134 132.721 181.361 125.256 181.287 117.768Z" fill="#111A28"/>
</g>
<path d="M169.344 126.75C168.802 126.75 168.269 126.609 167.797 126.342C167.326 126.075 166.931 125.691 166.652 125.226C166.373 124.762 166.218 124.233 166.204 123.691C166.19 123.149 166.316 122.613 166.57 122.135C181.76 88.9436 218.295 64.4935 266.848 55.0425C315.784 45.5152 358.981 55.0692 385.367 81.2527L383.172 83.4945L381.191 85.9339L383.172 83.4945L381.189 85.9319L380.942 85.7116C356.056 61.0083 314.911 52.0842 268.048 61.2142C221.447 70.2885 186.521 93.4993 172.225 124.897L172.079 125.2L171.772 125.612C171.476 125.969 171.105 126.256 170.686 126.453C170.266 126.65 169.808 126.751 169.344 126.75Z" fill="#371A45"/>
<g opacity="0.7">
<path opacity="0.7" d="M382.894 174.452C382.894 174.452 390.01 111.119 353.204 93.5982C316.398 76.0774 270.126 85.1888 271.788 87.9453C271.788 87.9453 325.447 90.3703 353.389 126.968C374.935 155.192 382.894 174.452 382.894 174.452Z" fill="white"/>
</g>
<path d="M307.472 443.666L311.894 442.53C313.393 442.118 314.905 441.717 316.402 441.26C319.409 440.399 322.396 439.439 325.363 438.378C328.344 437.348 331.254 436.148 334.227 434.987C337.201 433.826 340.137 432.535 343.324 431.424C341.218 434.017 338.782 436.324 336.078 438.287C334.746 439.287 333.364 440.219 331.938 441.079C330.496 441.902 329.055 442.726 327.556 443.473C324.584 444.988 321.51 446.295 318.356 447.384C315.164 448.457 312.032 449.352 308.524 449.854C307.733 449.961 306.93 449.763 306.28 449.299C305.63 448.836 305.181 448.143 305.023 447.36C304.866 446.577 305.013 445.764 305.433 445.086C305.854 444.408 306.517 443.915 307.288 443.707L307.472 443.666Z" fill="#371A45"/>
<path d="M280.424 449.854C276.923 449.354 273.783 448.459 270.591 447.384C267.438 446.296 264.364 444.989 261.391 443.473C259.901 442.732 258.455 441.894 257.01 441.079C255.583 440.219 254.201 439.287 252.869 438.287C250.165 436.324 247.729 434.017 245.623 431.424C248.811 432.535 251.722 433.855 254.72 434.987C257.718 436.119 260.603 437.353 263.584 438.378C266.566 439.403 269.537 440.393 272.546 441.26C274.043 441.717 275.554 442.108 277.053 442.53L281.476 443.666L281.649 443.712C282.432 443.907 283.11 444.397 283.541 445.08C283.973 445.762 284.125 446.584 283.966 447.375C283.807 448.167 283.349 448.867 282.687 449.329C282.026 449.792 281.211 449.982 280.413 449.861L280.424 449.854Z" fill="#371A45"/>
<path d="M379.529 522.686C377.701 522.466 375.675 522.26 373.729 522.091C371.783 521.922 369.794 521.77 367.819 521.692C363.874 521.486 359.929 521.462 355.984 521.622C352.046 521.853 348.123 522.301 344.235 522.964C340.27 523.732 336.363 524.771 332.541 526.074C335.545 523.174 339.254 520.973 343.166 519.334C347.105 517.766 351.248 516.78 355.419 516.104C359.591 515.498 363.804 515.215 368.019 515.258C370.121 515.3 372.224 515.376 374.32 515.592C376.448 515.774 378.563 516.079 380.656 516.506C381.446 516.672 382.142 517.135 382.599 517.8C383.056 518.465 383.24 519.281 383.112 520.078C382.985 520.875 382.555 521.592 381.912 522.081C381.269 522.569 380.463 522.792 379.661 522.702L379.529 522.686Z" fill="#371A45"/>
<path d="M208.215 516.506C210.308 516.079 212.423 515.774 214.551 515.592C216.647 515.386 218.75 515.3 220.852 515.258C225.067 515.215 229.28 515.498 233.452 516.104C237.623 516.78 241.768 517.766 245.707 519.334C249.619 520.981 253.326 523.174 256.332 526.074C252.51 524.772 248.603 523.733 244.639 522.964C240.75 522.301 236.827 521.853 232.889 521.622C228.947 521.461 225.001 521.484 221.052 521.692C219.079 521.77 217.107 521.932 215.142 522.091C213.178 522.249 211.17 522.466 209.342 522.686L209.222 522.702C208.417 522.8 207.605 522.582 206.957 522.094C206.309 521.607 205.874 520.888 205.744 520.087C205.614 519.287 205.798 518.467 206.259 517.8C206.72 517.132 207.421 516.668 208.215 516.506Z" fill="#371A45"/>
<g opacity="0.35">
<path opacity="0.35" d="M341.747 432.48C341.747 432.48 316.715 436.698 297.382 436.698C278.049 436.698 247.107 432.48 247.107 432.48C247.107 432.48 265.684 447.401 295.304 446.756C325.661 446.097 341.747 432.48 341.747 432.48Z" fill="#371A45"/>
</g>
<g opacity="0.35">
<path opacity="0.35" d="M198.114 382.359C202.232 382.639 206.556 382.804 210.895 382.771C211.485 382.771 212.06 382.771 212.653 382.746C213.246 382.721 213.888 382.721 214.506 382.688C214.918 382.688 215.33 382.664 215.742 382.647C216.225 382.622 216.711 382.598 217.195 382.565C217.813 382.532 218.431 382.491 219.028 382.441H219.069C219.687 382.4 220.305 382.342 220.902 382.285C221.297 382.246 221.699 382.204 222.094 382.155C222.432 382.13 222.767 382.089 223.097 382.048C223.622 381.99 224.149 381.916 224.657 381.842C225.166 381.768 225.627 381.702 226.099 381.62C226.196 381.615 226.292 381.601 226.387 381.579C226.945 381.496 227.495 381.398 228.034 381.293C228.574 381.188 229.136 381.087 229.669 380.971L229.801 380.947C230.106 380.873 230.419 380.815 230.697 380.741C231.034 380.667 231.362 380.593 231.691 380.502C231.872 380.453 232.045 380.411 232.227 380.354V387.055C232.227 396.298 239.804 403.873 249.058 403.873H340.928C350.165 403.873 357.742 396.298 357.742 387.055V381.702C368.386 383.312 380.567 382.878 390.749 381.908C390.405 376.049 389.964 370.237 389.427 364.472C388.958 359.476 388.429 354.54 387.84 349.664C378.553 349.961 367.473 350.01 357.742 349.164V337.166C357.73 332.712 355.954 328.443 352.803 325.293C349.653 322.143 345.383 320.368 340.928 320.356H249.07C244.61 320.361 240.335 322.133 237.18 325.284C234.025 328.435 232.248 332.708 232.239 337.166V348.408C230.299 348.694 228.244 348.925 226.132 349.114C218.126 349.837 209.167 349.952 201.023 349.804C200.455 354.569 199.94 359.395 199.477 364.282C198.919 370.248 198.46 376.288 198.114 382.359Z" fill="#371A45"/>
</g>
<path d="M341.459 369.536C354.477 374.804 374.623 373.702 388.357 372.039C390.312 371.801 392.199 371.175 393.908 370.196C395.617 369.217 397.113 367.906 398.306 366.34C399.5 364.773 400.368 362.984 400.859 361.077C401.35 359.17 401.454 357.184 401.164 355.237C400.632 351.621 398.776 348.332 395.955 346.008C393.135 343.683 389.551 342.489 385.9 342.657C373.054 343.258 353.778 343.54 341.58 340.833" fill="white"/>
<g opacity="0.35">
<path opacity="0.35" d="M341.457 369.534C354.476 374.8 374.62 373.698 388.354 372.039C390.777 371.743 393.088 370.852 395.081 369.444C397.074 368.036 398.686 366.156 399.774 363.972C400.862 361.788 401.391 359.369 401.314 356.93C401.237 354.492 400.557 352.111 399.333 350C398.194 351.979 396.608 353.665 394.702 354.923C392.796 356.181 390.622 356.976 388.354 357.246C374.645 358.907 354.542 360.009 341.522 354.765L341.457 369.534Z" fill="#371A45"/>
</g>
<path d="M367.331 376.556C357.633 376.556 347.873 375.526 340.279 372.449C331.204 368.776 330.939 354.333 333.616 345.718C336.208 337.387 340.526 337.387 342.264 337.769C353.92 340.355 372.351 340.149 385.758 339.521C390.386 339.304 394.919 340.889 398.402 343.945C401.885 347 404.048 351.287 404.434 355.904C404.82 360.52 403.4 365.107 400.473 368.698C397.546 372.289 393.34 374.606 388.739 375.16C382.331 375.938 374.851 376.556 367.331 376.556ZM342.636 366.625C354.874 371.578 374.05 370.608 387.979 368.922C390.958 368.554 393.678 367.048 395.57 364.719C397.463 362.391 398.38 359.42 398.13 356.43C397.88 353.44 396.482 350.663 394.23 348.681C391.977 346.698 389.044 345.664 386.046 345.796C372.425 346.436 353.688 346.634 341.345 343.999C340.11 345.246 337.946 351.276 338.529 358.09C338.712 360.231 339.48 365.349 342.647 366.625H342.636Z" fill="#371A45"/>
<path d="M194.99 372.039C201.433 372.819 209.299 373.48 217.173 373.404C217.714 373.404 218.247 373.404 218.791 373.379C219.335 373.355 219.934 373.355 220.5 373.33C220.887 373.33 221.264 373.305 221.635 373.289L222.975 373.215C223.541 373.182 224.108 373.14 224.668 373.099H224.709C225.267 373.058 225.835 373.009 226.393 372.951C226.764 372.918 227.132 372.877 227.495 372.836C227.808 372.811 228.113 372.77 228.423 372.737C228.907 372.679 229.393 372.613 229.865 372.548C230.336 372.482 230.763 372.418 231.197 372.342C231.286 372.337 231.374 372.323 231.461 372.301C231.977 372.226 232.49 372.136 232.988 372.037C233.487 371.938 233.999 371.848 234.494 371.741L234.615 371.716C234.895 371.65 235.175 371.592 235.439 371.527C235.741 371.463 236.056 371.389 236.351 371.306C237.28 371.076 238.192 370.812 239.079 370.534C239.555 370.386 240.033 370.221 240.5 370.057C240.967 369.892 241.429 369.711 241.873 369.532L241.816 355.751L241.75 340.829C238.626 341.528 235.035 342.02 231.213 342.366C220.094 343.377 206.992 343.097 197.445 342.653C197.214 342.653 196.983 342.636 196.747 342.636C192.993 342.649 189.385 344.09 186.658 346.668C183.93 349.246 182.287 352.765 182.062 356.511C181.838 360.257 183.05 363.948 185.451 366.832C187.853 369.716 191.263 371.577 194.988 372.037L194.99 372.039Z" fill="white"/>
<g opacity="0.35">
<path opacity="0.35" d="M194.99 372.039C201.433 372.819 209.299 373.48 217.173 373.404C217.716 373.404 218.249 373.404 218.791 373.379C219.333 373.355 219.934 373.355 220.502 373.33C220.887 373.33 221.266 373.305 221.637 373.289L222.975 373.215C223.543 373.182 224.11 373.14 224.668 373.099H224.709C225.269 373.058 225.835 373.009 226.395 372.951C226.764 372.918 227.134 372.877 227.495 372.836C227.808 372.811 228.112 372.77 228.423 372.737C228.909 372.679 229.393 372.613 229.865 372.55C230.336 372.486 230.76 372.418 231.197 372.344C231.285 372.339 231.373 372.325 231.458 372.303C231.977 372.228 232.488 372.138 232.988 372.039C233.489 371.94 233.999 371.85 234.491 371.743L234.615 371.718C234.895 371.652 235.173 371.596 235.439 371.531C235.743 371.465 236.056 371.391 236.351 371.308C237.279 371.078 238.192 370.814 239.079 370.536C239.557 370.388 240.032 370.223 240.502 370.059C240.971 369.894 241.431 369.713 241.875 369.534L241.818 356.377C241.389 356.55 240.953 356.723 240.502 356.879C240.051 357.036 239.557 357.207 239.079 357.355C238.192 357.635 237.279 357.898 236.351 358.129C236.048 358.209 235.733 358.283 235.439 358.349C235.167 358.415 234.889 358.473 234.615 358.539L234.491 358.563C233.999 358.67 233.497 358.769 232.988 358.86C232.48 358.95 231.977 359.049 231.458 359.121C231.373 359.144 231.285 359.157 231.197 359.162C230.76 359.237 230.318 359.302 229.865 359.368C229.412 359.434 228.911 359.5 228.423 359.558C228.121 359.591 227.806 359.632 227.495 359.657C227.134 359.698 226.764 359.739 226.395 359.772C225.835 359.829 225.269 359.879 224.709 359.92H224.668C224.11 359.961 223.543 360.002 222.975 360.035L221.637 360.107C221.266 360.124 220.887 360.14 220.502 360.149C219.934 360.173 219.359 360.19 218.791 360.198C218.223 360.206 217.716 360.223 217.173 360.223C209.299 360.297 201.433 359.64 194.99 358.86C192.569 358.569 190.258 357.68 188.265 356.274C186.272 354.869 184.661 352.99 183.574 350.807C182.522 352.921 181.992 355.256 182.029 357.617C182.066 359.978 182.669 362.296 183.787 364.376C184.906 366.456 186.507 368.237 188.456 369.57C190.405 370.904 192.646 371.75 194.99 372.039Z" fill="#371A45"/>
</g>
<path d="M216.013 376.556C208.494 376.556 201.017 375.938 194.611 375.16C190.011 374.606 185.805 372.289 182.877 368.698C179.95 365.107 178.531 360.52 178.917 355.904C179.303 351.287 181.465 347 184.948 343.945C188.431 340.889 192.964 339.304 197.593 339.521C211 340.139 229.428 340.345 241.085 337.769C242.821 337.387 247.136 337.387 249.733 345.718C252.41 354.327 252.146 368.774 243.07 372.449C235.474 375.526 225.712 376.556 216.013 376.556ZM196.745 345.784C193.79 345.792 190.949 346.927 188.801 348.956C186.654 350.985 185.36 353.756 185.185 356.705C185.009 359.654 185.964 362.559 187.855 364.829C189.746 367.099 192.432 368.563 195.365 368.922C209.297 370.608 228.473 371.578 240.708 366.625L241.888 369.538L240.708 366.625C243.867 365.347 244.635 360.231 244.826 358.09C245.411 351.274 243.255 345.246 242.011 343.999C229.667 346.632 210.934 346.434 197.309 345.796C197.113 345.786 196.928 345.782 196.745 345.782V345.784Z" fill="#371A45"/>
<path d="M236.855 331.349V377.344C236.868 381.456 238.507 385.397 241.416 388.305C244.324 391.212 248.266 392.852 252.379 392.864H337.106C341.218 392.849 345.157 391.209 348.063 388.302C350.969 385.394 352.607 381.455 352.619 377.344V331.349C352.607 327.239 350.968 323.302 348.062 320.396C345.155 317.491 341.216 315.853 337.106 315.841H252.383C248.271 315.85 244.329 317.486 241.42 320.392C238.511 323.298 236.872 327.237 236.86 331.349H236.855Z" fill="white"/>
<g opacity="0.43">
<path opacity="0.43" d="M236.857 331.349V377.348C236.871 381.46 238.511 385.399 241.42 388.305C244.329 391.212 248.27 392.849 252.383 392.86H337.11C341.22 392.845 345.157 391.206 348.063 388.3C350.968 385.394 352.606 381.457 352.619 377.348V331.349C352.607 327.24 350.969 323.303 348.063 320.398C345.157 317.493 341.22 315.855 337.11 315.843H252.383C248.27 315.849 244.327 317.484 241.417 320.39C238.507 323.296 236.868 327.237 236.857 331.349Z" fill="white"/>
</g>
<g opacity="0.35">
<path opacity="0.35" d="M236.857 352.676V377.352C236.871 381.464 238.511 385.403 241.42 388.309C244.329 391.216 248.27 392.853 252.383 392.864H337.11C341.22 392.849 345.157 391.21 348.063 388.304C350.968 385.398 352.606 381.461 352.619 377.352V342.13C336.025 348.727 343.872 377.853 311.112 375.93C284.531 374.367 280.564 352.952 280.564 352.952H248.938C248.938 352.952 249.025 366.744 243.864 366.845C239.823 366.911 238.105 360.758 236.857 352.676Z" fill="#371A45"/>
</g>
<path d="M337.104 396.001H252.383C247.437 395.996 242.695 394.029 239.198 390.532C235.7 387.036 233.733 382.295 233.728 377.35V331.349C233.733 326.404 235.7 321.663 239.197 318.166C242.695 314.669 247.437 312.702 252.383 312.696H337.114C342.06 312.702 346.802 314.669 350.299 318.166C353.797 321.663 355.764 326.404 355.769 331.349V377.35C355.764 382.297 353.795 387.039 350.296 390.536C346.796 394.033 342.052 395.999 337.104 396.001ZM252.383 318.979C249.103 318.982 245.958 320.287 243.639 322.606C241.319 324.925 240.015 328.069 240.012 331.349V377.35C240.012 380.632 241.316 383.778 243.635 386.1C245.955 388.421 249.101 389.727 252.383 389.731H337.114C340.394 389.727 343.539 388.422 345.859 386.103C348.178 383.784 349.483 380.64 349.487 377.361V331.349C349.483 328.069 348.178 324.925 345.859 322.606C343.539 320.287 340.394 318.982 337.114 318.979H252.383Z" fill="#371A45"/>
<path d="M274.184 363.807C279.409 358.583 279.409 350.113 274.184 344.889C268.959 339.665 260.487 339.665 255.262 344.889C250.037 350.113 250.037 358.583 255.262 363.807C260.487 369.031 268.959 369.031 274.184 363.807Z" fill="#FF4444"/>
<path d="M251.341 354.354C251.339 355.067 251.397 355.78 251.514 356.484C252.026 353.351 253.636 350.501 256.055 348.445C258.475 346.389 261.547 345.26 264.723 345.26C267.899 345.26 270.971 346.389 273.391 348.445C275.81 350.501 277.42 353.351 277.932 356.484C278.049 355.78 278.107 355.067 278.105 354.354C278.105 350.805 276.695 347.401 274.185 344.892C271.675 342.382 268.271 340.973 264.721 340.973C261.171 340.973 257.767 342.382 255.257 344.892C252.747 347.401 251.337 350.805 251.337 354.354H251.341Z" fill="white"/>
<g opacity="0.35">
<path opacity="0.35" d="M251.353 354.345C251.295 356.139 251.597 357.925 252.243 359.599C252.888 361.273 253.864 362.8 255.112 364.09C256.36 365.379 257.855 366.404 259.507 367.104C261.159 367.805 262.936 368.165 264.73 368.165C266.525 368.165 268.301 367.805 269.953 367.104C271.606 366.404 273.1 365.379 274.348 364.09C275.596 362.8 276.572 361.273 277.218 359.599C277.864 357.925 278.166 356.139 278.107 354.345C278.111 352.688 277.799 351.046 277.189 349.506C276.212 352.015 274.5 354.17 272.277 355.69C270.054 357.21 267.424 358.023 264.731 358.023C262.038 358.023 259.408 357.21 257.185 355.69C254.962 354.17 253.25 352.015 252.274 349.506C251.664 351.046 251.351 352.688 251.353 354.345Z" fill="#371A45"/>
</g>
<path d="M264.721 370.081C261.608 370.081 258.566 369.158 255.977 367.429C253.389 365.701 251.372 363.243 250.181 360.368C248.99 357.493 248.679 354.329 249.286 351.277C249.893 348.225 251.392 345.421 253.594 343.221C255.795 341.021 258.599 339.522 261.652 338.916C264.705 338.309 267.869 338.621 270.745 339.812C273.621 341.003 276.078 343.02 277.807 345.608C279.536 348.195 280.459 351.237 280.459 354.349C280.454 358.521 278.794 362.52 275.844 365.469C272.893 368.418 268.893 370.077 264.721 370.081ZM264.721 343.319C262.541 343.319 260.409 343.966 258.596 345.177C256.783 346.388 255.37 348.109 254.536 350.123C253.701 352.137 253.483 354.353 253.908 356.491C254.334 358.629 255.384 360.593 256.926 362.135C258.467 363.676 260.432 364.726 262.57 365.151C264.709 365.576 266.925 365.358 268.94 364.524C270.954 363.69 272.676 362.277 273.887 360.465C275.099 358.652 275.745 356.521 275.745 354.341C275.74 351.42 274.577 348.621 272.51 346.556C270.444 344.491 267.643 343.33 264.721 343.328V343.319Z" fill="#371A45"/>
<path d="M302.639 396.001C301.806 396.001 301.007 395.671 300.418 395.082C299.828 394.493 299.497 393.695 299.497 392.862V366.158C299.502 363.778 300.058 361.433 301.12 359.304C302.183 357.175 303.723 355.32 305.62 353.884L312.827 348.464C313.949 347.616 314.859 346.52 315.487 345.262C316.115 344.004 316.444 342.618 316.447 341.211V315.837C316.447 315.004 316.778 314.205 317.367 313.616C317.957 313.027 318.756 312.696 319.589 312.696C320.422 312.696 321.222 313.027 321.811 313.616C322.4 314.205 322.731 315.004 322.731 315.837V341.211C322.725 343.591 322.17 345.936 321.107 348.065C320.045 350.194 318.505 352.049 316.608 353.485L309.401 358.905C308.279 359.753 307.368 360.849 306.74 362.107C306.112 363.365 305.784 364.752 305.781 366.158V392.862C305.78 393.695 305.449 394.493 304.86 395.082C304.271 395.671 303.472 396.001 302.639 396.001Z" fill="#371A45"/>
<path d="M405.747 254.979C413.16 285.746 444.211 282.879 452.756 280.8C470.582 276.46 476.697 259.666 476.697 259.666L462.321 240.669L455.927 230.395L448.292 228.099C442.292 217.166 429.511 204.767 422.173 209.142C422.173 209.137 399.354 228.457 405.747 254.979Z" fill="white"/>
<g opacity="0.35">
<path opacity="0.35" d="M479.345 249.733C479.345 259.32 466.785 268.018 439.745 264.866C430.222 263.756 422.385 257.095 422.385 247.508C422.385 242.905 424.214 238.49 427.469 235.234C430.725 231.979 435.14 230.15 439.745 230.15C449.334 230.15 479.345 240.146 479.345 249.733Z" fill="#371A45"/>
</g>
<path d="M478.39 218.71C471.292 225.833 465.076 231.084 465.076 231.084L445.154 251.465L431.708 218.638C431.708 218.638 431.63 212.013 432.147 203.244C433.154 185.881 436.461 160.126 447.193 160.791C466.495 161.991 453.724 212.81 453.724 212.81C453.724 212.81 484.536 171.739 496.876 183.405C504.1 190.233 490.05 207.001 478.39 218.71Z" fill="white"/>
<g opacity="0.35">
<path opacity="0.35" d="M478.39 218.71C471.292 225.833 465.076 231.084 465.076 231.084L445.154 251.465L431.708 218.638C431.708 218.638 431.63 212.013 432.147 203.244C437.319 207.332 446.972 214.753 450.345 219.173C456.158 226.788 470.6 217.205 478.39 218.71Z" fill="#371A45"/>
</g>
<path d="M445.152 254.612C444.529 254.61 443.92 254.424 443.403 254.076C442.886 253.729 442.483 253.236 442.245 252.66L428.801 219.826C428.651 219.459 428.572 219.067 428.566 218.671C428.513 213.876 428.371 171.502 439.891 160.565C442.072 158.494 444.681 157.493 447.399 157.658C451.159 157.892 454.338 159.646 456.594 162.732C462.759 171.16 461.318 188.811 459.331 201.022C467.567 191.652 480.369 179.096 490.394 178.242C493.74 177.956 496.742 178.958 499.042 181.138C501.058 183.044 502.08 185.632 501.995 188.623C501.573 203.785 471.259 229.975 467.225 233.394L447.401 253.657C447.109 253.958 446.759 254.198 446.373 254.362C445.987 254.526 445.572 254.611 445.152 254.612ZM434.846 218.006L446.25 245.855L462.829 228.886C462.899 228.816 462.974 228.748 463.05 228.68C475.538 218.123 495.449 197.862 495.711 188.436C495.754 186.874 495.204 186.147 494.72 185.692C493.711 184.737 492.501 184.354 490.919 184.49C480.4 185.383 462.315 206.599 456.234 214.7C455.798 215.279 455.175 215.69 454.471 215.863C453.767 216.036 453.024 215.96 452.37 215.647C451.715 215.335 451.189 214.806 450.88 214.15C450.571 213.494 450.498 212.752 450.675 212.048C453.104 202.373 457.993 175.298 451.511 166.436C450.345 164.842 448.912 164.046 446.999 163.926C446.381 163.887 445.418 163.969 444.211 165.116C436.259 172.675 434.76 205.279 434.846 218.006Z" fill="#371A45"/>
<path d="M480.342 256.113C475.606 263.798 455.544 267.384 448.095 261.609C441.757 256.691 448.095 250.425 449.89 248.831C450.17 248.578 450.345 248.446 450.345 248.446C450.345 248.446 442.634 246.083 441.285 239.594C441.194 239.159 441.135 238.717 441.11 238.273C440.637 230.782 460.647 224.315 469.732 225.777C476.527 226.87 479.115 229.635 479.753 232.593C480.437 235.745 478.905 239.113 477.881 240.916C477.408 241.74 477.058 242.229 477.058 242.229C477.058 242.229 484.133 249.962 480.342 256.113Z" fill="white"/>
<g opacity="0.35">
<path opacity="0.35" d="M477.883 240.912C472.517 243.66 461.759 248.333 449.88 248.832C450.16 248.578 450.335 248.447 450.335 248.447C450.335 248.447 442.624 246.083 441.275 239.595C448.391 241.153 468.043 244.123 479.745 232.595C480.439 235.747 478.907 239.109 477.883 240.912Z" fill="#371A45"/>
</g>
<g opacity="0.35">
<path opacity="0.35" d="M480.342 256.113C475.606 263.798 455.544 267.384 448.094 261.609C444.979 259.192 444.926 256.463 445.889 254.099C446.261 254.508 446.668 254.882 447.106 255.219C454.546 260.996 474.618 257.408 479.345 249.733C479.813 248.983 480.139 248.152 480.307 247.283C481.489 249.916 482.137 253.19 480.342 256.113Z" fill="#371A45"/>
</g>
<path d="M459.003 267.61C453.701 267.61 449.144 266.398 446.173 264.094C442.893 261.55 442.201 258.668 442.197 256.697C442.197 253.848 443.587 251.29 445.063 249.381C441.975 247.448 438.33 244.014 437.978 238.471C437.861 236.655 438.39 233.882 441.571 230.994C448.274 224.906 462.737 221.464 470.234 222.667C476.6 223.696 480.665 226.242 482.31 230.251C484.134 234.689 482.31 239.372 480.869 242.009C483.119 245.186 486.702 251.777 483.014 257.762C480.362 262.068 474.033 265.502 466.085 266.945C463.749 267.377 461.379 267.6 459.003 267.61ZM466.803 228.702C460.385 228.702 450.256 231.597 445.801 235.65C444.771 236.579 444.213 237.464 444.252 238.077C444.586 243.277 451.214 245.431 451.282 245.451C451.828 245.623 452.317 245.941 452.695 246.37C453.074 246.799 453.329 247.323 453.432 247.886C453.535 248.449 453.483 249.03 453.281 249.565C453.079 250.101 452.734 250.571 452.285 250.925C451.049 251.907 448.473 254.631 448.486 256.689C448.486 257.224 448.65 258.058 450.028 259.127C452.746 261.235 458.75 261.891 464.971 260.773C470.913 259.695 476.018 257.165 477.671 254.478C480.125 250.495 474.788 244.412 474.731 244.352C474.244 243.815 473.958 243.127 473.92 242.403C473.883 241.68 474.096 240.965 474.525 240.381C475.373 239.201 477.578 235.234 476.504 232.636C475.552 230.343 472.031 229.326 469.247 228.88C468.439 228.754 467.621 228.694 466.803 228.698V228.702Z" fill="#371A45"/>
<path d="M452.863 251.662C451.974 251.662 451.072 251.637 450.162 251.582C449.743 251.567 449.332 251.469 448.952 251.293C448.572 251.117 448.231 250.867 447.949 250.557C447.668 250.248 447.45 249.885 447.311 249.49C447.171 249.096 447.112 248.677 447.136 248.259C447.161 247.841 447.268 247.432 447.453 247.057C447.638 246.681 447.896 246.346 448.212 246.071C448.528 245.797 448.895 245.588 449.293 245.458C449.691 245.327 450.111 245.277 450.528 245.311C464.03 246.102 475.344 239.586 475.456 239.52C476.172 239.117 477.019 239.011 477.813 239.225C478.607 239.438 479.286 239.955 479.704 240.663C480.121 241.372 480.244 242.216 480.046 243.014C479.848 243.812 479.345 244.501 478.645 244.933C478.153 245.217 467.067 251.662 452.863 251.662Z" fill="#371A45"/>
<path d="M422.175 209.139C431.916 203.332 451.226 227.049 451.581 237.703C451.852 245.828 442.224 252.609 430.718 242.232C419.059 231.733 406.876 218.261 422.175 209.139Z" fill="white"/>
<path d="M476.698 259.67C476.698 259.67 470.58 276.458 452.761 280.798C444.213 282.881 413.165 285.748 405.748 254.976C399.354 228.457 422.175 209.139 422.175 209.139C431.917 203.332 451.227 227.049 451.581 237.703C451.853 245.828 439.77 250.437 429.652 236.136C429.652 236.136 434.983 249.126 423.6 257.99L450.42 273.43L470.702 269.471L476.698 259.67Z" fill="white"/>
<path d="M428.9 251.763L428.364 251.458C428.776 251.141 429.134 250.841 429.484 250.511C429.309 250.923 429.118 251.343 428.9 251.763Z" fill="white"/>
<g opacity="0.35">
<path opacity="0.35" d="M430.082 233.728C428.655 228.476 443.74 241.845 451.589 238.409C451.212 244.996 442.529 248.84 433.846 240.939C433.319 236.71 430.082 233.728 430.082 233.728Z" fill="#371A45"/>
</g>
<g opacity="0.35">
<path opacity="0.35" d="M467.283 270.142L470.706 269.477C466.923 273.975 461.129 278.762 452.761 280.8C444.209 282.883 413.16 285.74 405.746 254.974C401.397 236.931 410.578 222.21 416.889 214.659C411.752 222.85 407.191 234.681 410.506 248.447C417.919 279.217 448.968 276.355 457.521 274.272C460.978 273.435 464.276 272.04 467.283 270.142Z" fill="#371A45"/>
</g>
<path d="M476.691 259.685C476.242 260.83 475.715 261.944 475.116 263.018L474.591 263.123L476.691 259.685Z" fill="white"/>
<path d="M475.466 262.947C475.186 263.281 474.898 263.623 474.591 263.954C474.776 263.631 474.951 263.316 475.116 263.017L475.466 262.947Z" fill="white"/>
<path d="M418.207 276.302C416.481 275.936 414.844 275.237 413.387 274.243C411.924 273.281 410.611 272.109 409.491 270.764C407.243 268.109 405.508 265.06 404.374 261.772C402.183 255.347 401.018 248.486 401.66 241.665C402.257 234.858 404.504 228.322 407.73 222.473C409.342 219.554 411.189 216.771 413.253 214.152C414.278 212.843 415.355 211.574 416.484 210.346C417.052 209.728 417.624 209.129 418.224 208.536C418.823 207.943 419.397 207.388 420.138 206.743C420.252 206.646 420.372 206.557 420.499 206.478L420.559 206.443C422.585 205.222 425.047 204.926 427.078 205.208C428.98 205.49 430.821 206.096 432.52 206.999C434.07 207.802 435.543 208.747 436.92 209.821C438.256 210.839 439.527 211.939 440.727 213.115C443.09 215.413 445.255 217.907 447.199 220.569C449.169 223.243 450.883 226.096 452.318 229.092C453.065 230.67 453.674 232.31 454.138 233.993C454.39 234.911 454.561 235.849 454.651 236.797L454.711 237.552C454.711 237.818 454.694 238.098 454.68 238.376C454.63 238.921 454.655 239.469 454.509 240.01C454.146 242.213 452.88 244.278 451.214 245.739C449.577 247.185 447.54 248.1 445.373 248.366C444.863 248.458 444.345 248.494 443.828 248.475C443.32 248.497 442.811 248.481 442.305 248.428C441.322 248.276 440.313 248.16 439.422 247.823C438.963 247.673 438.497 247.533 438.048 247.366L436.78 246.761C435.947 246.365 435.151 245.897 434.402 245.361C431.402 243.302 429.087 240.681 427.08 237.95L432.553 234.944C432.781 235.534 432.977 236.135 433.142 236.745C433.3 237.312 433.432 237.878 433.541 238.446C433.766 239.582 433.916 240.732 433.99 241.888C434.117 244.247 433.942 246.613 433.469 248.928C433.263 250.114 432.808 251.25 432.341 252.362C432.059 252.897 431.741 253.418 431.441 253.939C431.14 254.46 430.71 254.898 430.343 255.38C428.809 257.248 426.633 258.477 424.24 258.826C424.084 258.847 423.925 258.838 423.772 258.798C423.619 258.758 423.476 258.688 423.35 258.592C423.224 258.496 423.119 258.377 423.039 258.24C422.96 258.104 422.908 257.953 422.887 257.797C422.868 257.651 422.874 257.504 422.906 257.36L422.953 257.167C423.233 255.975 423.705 255.127 424.057 254.235C424.409 253.344 424.843 252.601 425.167 251.812C425.913 250.347 426.553 248.829 427.082 247.271C427.63 245.662 427.847 243.958 427.718 242.262C427.661 241.396 427.548 240.535 427.38 239.683C427.298 239.255 427.199 238.835 427.084 238.423C426.983 238.036 426.824 237.559 426.74 237.334L426.723 237.289C426.458 236.577 426.459 235.794 426.727 235.083C426.994 234.372 427.51 233.782 428.178 233.421C428.846 233.06 429.623 232.953 430.364 233.119C431.105 233.286 431.761 233.715 432.211 234.327C433.891 236.607 435.781 238.695 437.933 240.165C440.054 241.606 442.48 242.464 444.51 242.145C445.458 242.051 446.352 241.661 447.065 241.029C447.708 240.443 448.216 239.716 448.34 238.818C448.424 238.613 448.364 238.361 448.404 238.137L448.434 237.789L448.395 237.377C448.337 236.775 448.225 236.178 448.062 235.595C447.692 234.275 447.21 232.99 446.62 231.753C444.162 226.607 440.515 221.691 436.36 217.64C434.28 215.624 431.997 213.808 429.653 212.596C428.601 212.029 427.461 211.64 426.281 211.447C425.237 211.315 424.446 211.447 423.775 211.84L424.197 211.54C423.744 211.933 423.167 212.485 422.653 212.993C422.138 213.502 421.613 214.058 421.104 214.605C420.091 215.704 419.119 216.851 418.195 218.033C416.341 220.385 414.681 222.884 413.232 225.505C410.35 230.724 408.424 236.416 407.916 242.234C407.358 248.076 408.278 253.965 410.593 259.359C411.718 261.992 413.047 264.532 414.569 266.958C416.107 269.374 417.748 271.67 419.407 274.597V274.614C419.516 274.804 419.567 275.022 419.555 275.241C419.543 275.46 419.469 275.672 419.341 275.85C419.213 276.028 419.037 276.166 418.833 276.247C418.629 276.328 418.406 276.349 418.191 276.308L418.207 276.302Z" fill="#371A45"/>
<path d="M479.65 260.745C479.381 261.496 479.074 262.233 478.73 262.953C478.404 263.639 478.06 264.306 477.69 264.954C477.319 265.603 476.918 266.233 476.53 266.871C476.143 267.509 475.678 268.094 475.25 268.701L473.866 270.455L472.363 272.102C471.337 273.184 470.236 274.193 469.068 275.12C467.915 276.06 466.705 276.927 465.444 277.718C464.127 278.42 462.875 279.204 461.491 279.746C458.803 281.058 455.775 281.512 452.82 281.047C452.746 281.034 452.68 280.992 452.636 280.931C452.592 280.87 452.575 280.793 452.587 280.719C452.598 280.654 452.632 280.594 452.682 280.55L452.697 280.538C455.011 278.539 457.276 277.36 459.432 275.894C460.55 275.252 461.524 274.383 462.547 273.629C463.482 272.742 464.491 271.968 465.346 271.011C465.79 270.554 466.239 270.107 466.639 269.607C467.038 269.107 467.493 268.664 467.874 268.166L469.031 266.651L470.129 265.09C470.814 264.018 471.498 262.947 472.101 261.838C472.4 261.28 472.719 260.734 472.983 260.172C473.246 259.61 473.555 259.017 473.738 258.6L473.821 258.406C474.142 257.65 474.747 257.049 475.507 256.735C476.266 256.42 477.118 256.415 477.881 256.722C478.643 257.029 479.255 257.623 479.584 258.376C479.914 259.129 479.934 259.981 479.642 260.749L479.65 260.745Z" fill="#371A45"/>
<path d="M427.891 338.611C422.07 338.611 402.295 337.059 395.944 316.537C386.804 287.004 400.211 265.241 400.787 264.329C401.129 263.818 401.656 263.46 402.257 263.332C402.858 263.204 403.485 263.316 404.005 263.643C404.524 263.971 404.896 264.488 405.04 265.085C405.184 265.682 405.089 266.312 404.776 266.84C404.619 267.087 391.981 287.789 400.452 315.143C406.757 335.524 428.204 333.947 429.112 333.877C429.735 333.822 430.353 334.017 430.832 334.418C431.311 334.82 431.611 335.395 431.665 336.018C431.72 336.64 431.525 337.259 431.123 337.737C430.722 338.216 430.147 338.516 429.524 338.57C429.479 338.566 428.89 338.611 427.891 338.611Z" fill="#371A45"/>
<path d="M201.973 345.199C201.764 345.199 201.556 345.17 201.355 345.115C177.41 338.574 171.368 319.158 171.123 318.334C170.944 317.736 171.01 317.091 171.307 316.541C171.603 315.991 172.106 315.582 172.705 315.403C173.303 315.224 173.948 315.29 174.498 315.586C175.048 315.883 175.458 316.385 175.637 316.984C175.865 317.731 181.279 334.745 202.596 340.569C203.146 340.72 203.622 341.065 203.937 341.541C204.252 342.016 204.383 342.589 204.308 343.154C204.233 343.718 203.955 344.237 203.527 344.613C203.099 344.989 202.549 345.197 201.979 345.199H201.973Z" fill="#371A45"/>
<path d="M105.107 127.634C104.451 127.635 103.807 127.461 103.24 127.13L79.9908 113.558C78.6844 112.794 77.1987 112.389 75.6852 112.386C74.9566 112.387 74.2312 112.482 73.5273 112.67C68.991 113.886 64.3186 114.52 59.6223 114.558H59.1446C29.0552 114.558 4.18562 90.0978 3.70997 60.0318C3.5903 52.6785 4.93562 45.3748 7.66756 38.5465C10.3995 31.7181 14.4634 25.5016 19.6225 20.2593C24.7816 15.0169 30.9326 10.8534 37.7173 8.01154C44.5019 5.16965 51.7844 3.70615 59.1405 3.7063C59.5049 3.7063 59.8653 3.7063 60.2318 3.7063C90.4324 4.28888 114.812 29.3421 114.575 59.5584C114.475 73.1163 109.396 86.165 100.304 96.2242C99.0509 97.6153 98.2753 99.3701 98.0901 101.233C97.9049 103.095 98.3197 104.969 99.2741 106.579L108.305 122.045C108.638 122.608 108.815 123.25 108.82 123.904C108.824 124.558 108.655 125.201 108.331 125.769C108.006 126.336 107.537 126.808 106.97 127.136C106.404 127.463 105.762 127.635 105.107 127.634Z" fill="#FF4444"/>
<path d="M59.1404 7.41098C59.4802 7.41098 59.8199 7.41098 60.17 7.41098C88.3485 7.95446 111.097 31.3547 110.879 59.5308C110.795 72.184 106.054 84.3634 97.5609 93.7448C95.787 95.7227 94.688 98.2131 94.4227 100.856C94.1573 103.499 94.7393 106.159 96.0845 108.449L105.118 123.916L81.8604 110.341C79.9863 109.245 77.8544 108.667 75.6831 108.666C74.6297 108.665 73.5808 108.804 72.5636 109.077C68.3316 110.212 63.9727 110.804 59.5914 110.84H59.1446C31.0772 110.84 7.86103 88.0693 7.41421 59.9569C6.9571 31.0191 30.2906 7.41098 59.1404 7.41098ZM59.1404 0C51.2936 0.000346349 43.5254 1.56178 36.2882 4.59334C29.0509 7.62491 22.4895 12.066 16.986 17.6579C11.4825 23.2498 7.14701 29.8806 4.23212 37.1642C1.31723 44.4478 -0.118801 52.2385 0.00768484 60.0825C0.514219 92.1597 27.0455 118.257 59.1466 118.257H59.6573C64.6644 118.215 69.646 117.537 74.4827 116.241C74.8728 116.137 75.2751 116.084 75.679 116.085C76.5361 116.088 77.3772 116.317 78.117 116.75L101.366 130.322C102.78 131.146 104.428 131.479 106.051 131.269C107.674 131.058 109.183 130.317 110.34 129.16C111.497 128.002 112.239 126.495 112.45 124.872C112.66 123.249 112.327 121.602 111.503 120.188L102.47 104.721C101.914 103.789 101.67 102.704 101.774 101.624C101.878 100.544 102.325 99.5251 103.048 98.7164C112.751 87.9866 118.174 74.0672 118.286 59.6028C118.537 27.3671 92.5264 0.636113 60.3079 0.0164724C59.9188 0.0164724 59.5317 0.0164724 59.1446 0.0164724L59.1404 0Z" fill="#371A45"/>
<g opacity="0.5">
<path opacity="0.5" d="M62.8778 11.4911C33.5585 10.9271 9.66698 34.7534 10.1323 64.0391C10.2746 73.074 12.8081 81.91 17.475 89.6482C11.1064 81.0454 7.58857 70.6665 7.41434 59.9651C6.95105 30.6732 30.8426 6.85308 60.1598 7.41097C78.5433 7.76505 94.6083 17.8502 103.501 32.6392C94.2603 20.1064 79.5173 11.8123 62.8778 11.4911Z" fill="white"/>
</g>
<g opacity="0.3">
<path opacity="0.3" d="M51.4438 99.9824C55.8252 99.9487 60.1844 99.3565 64.416 98.2203C65.0429 98.0802 65.6809 97.9962 66.3227 97.9691C74.0299 97.4586 80.9216 93.3187 85.6225 87.1902C86.7797 85.6813 88.0934 84.3308 89.403 82.8878C96.6629 74.872 101.214 64.7742 102.41 54.027C103.607 43.2797 101.388 32.4286 96.0682 23.0132C105.311 32.4622 110.988 45.3985 110.879 59.537C110.797 72.1205 106.109 84.2384 97.7011 93.6028C94.0318 97.6974 93.2679 103.62 96.0394 108.367L105.124 123.922L81.8605 110.341C80.4613 109.526 78.9145 108.996 77.3093 108.782C75.7042 108.567 74.0724 108.673 72.5082 109.092C68.2941 110.215 63.9549 110.802 59.5936 110.837C40.1353 111.004 22.9584 100.223 13.9932 84.2814C23.5185 94.0516 36.8346 100.108 51.4438 99.9824Z" fill="#102770"/>
</g>
<path d="M78.0035 41.8432C72.7179 36.5587 64.15 37.5057 58.8644 42.788L58.0407 43.6115L57.2171 42.788C51.9314 37.5057 43.3636 36.5587 38.0676 41.8432C36.8092 43.0997 35.811 44.5919 35.1298 46.2344C34.4487 47.8769 34.0981 49.6376 34.0981 51.4157C34.0981 53.1938 34.4487 54.9544 35.1298 56.5969C35.811 58.2395 36.8092 59.7317 38.0676 60.9882L38.8913 61.8116L55.506 78.4246C55.8374 78.7559 56.2308 79.0188 56.6637 79.1981C57.0967 79.3774 57.5608 79.4697 58.0294 79.4697C58.4981 79.4697 58.9621 79.3774 59.3951 79.1981C59.8281 79.0188 60.2215 78.7559 60.5528 78.4246L77.1696 61.8116L77.9932 60.9882C79.2523 59.7324 80.2514 58.2407 80.9334 56.5985C81.6154 54.9564 81.9669 53.1959 81.9679 51.4178C81.9688 49.6397 81.6192 47.8789 80.939 46.236C80.2587 44.5931 79.2612 43.1003 78.0035 41.8432Z" fill="white"/>
<g opacity="0.5">
<path opacity="0.5" d="M76.2741 49.1205C74.6475 46.8828 71.4909 46.7758 70.5375 47.4736C69.5842 48.1715 71.1944 49.3943 72.821 51.6341C74.4477 53.8738 75.4773 56.2701 76.4286 55.5825C77.3799 54.8949 77.9008 51.3603 76.2741 49.1205Z" fill="#FF4444"/>
</g>
<g opacity="0.5">
<path opacity="0.5" d="M66.1723 44.5053C66.1492 44.8303 66.2308 45.1542 66.4053 45.4294C66.5798 45.7045 66.8379 45.9166 67.1417 46.0343C67.4456 46.152 67.7791 46.1692 68.0935 46.0834C68.4078 45.9976 68.6864 45.8132 68.8882 45.5575C69.2733 45.0159 68.9294 44.1161 68.0275 43.7681C67.1257 43.4201 66.2547 43.8484 66.1723 44.5053Z" fill="#FF4444"/>
</g>
</svg>
