<svg width="15" height="15" viewBox="0 0 15 15" fill="none" xmlns="http://www.w3.org/2000/svg">
<path d="M10.1504 3.78308C10.8162 3.99577 11.2893 4.59352 11.3484 5.29682" stroke="white" stroke-linecap="round" stroke-linejoin="round"/>
<path fill-rule="evenodd" clip-rule="evenodd" d="M7.34277 13.0336C5.91474 12.1987 4.58626 11.216 3.38111 10.1032C2.53384 9.30184 1.88882 8.32486 1.49546 7.24712C0.787594 5.15644 1.61443 2.76302 3.92837 2.0547C5.14448 1.68277 6.47266 1.89535 7.49743 2.62592C8.52259 1.89624 9.8503 1.68374 11.0665 2.0547C13.3804 2.76302 14.2132 5.15644 13.5053 7.24712C13.112 8.32486 12.467 9.30184 11.6197 10.1032C10.4145 11.216 9.08607 12.1987 7.65804 13.0336L7.50338 13.125L7.34277 13.0336Z" stroke="white" stroke-linecap="round" stroke-linejoin="round"/>
</svg>
