<svg width="22" height="20" viewBox="0 0 22 20" fill="none" xmlns="http://www.w3.org/2000/svg">
<path d="M15.2402 5.05298C16.3055 5.39328 17.0625 6.34968 17.1571 7.47496" stroke="white" stroke-width="1.5" stroke-linecap="round" stroke-linejoin="round"/>
<path fill-rule="evenodd" clip-rule="evenodd" d="M10.7484 18.8538C8.46358 17.5179 6.33801 15.9456 4.40978 14.1652C3.05414 12.8829 2.02211 11.3198 1.39273 9.59539C0.260151 6.25031 1.58308 2.42083 5.28539 1.28752C7.23117 0.692435 9.35626 1.03255 10.9959 2.20148C12.6361 1.03398 14.7605 0.693978 16.7064 1.28752C20.4087 2.42083 21.7411 6.25031 20.6086 9.59539C19.9792 11.3198 18.9471 12.8829 17.5915 14.1652C15.6633 15.9456 13.5377 17.5179 11.2529 18.8538L11.0054 19L10.7484 18.8538Z" stroke="white" stroke-width="1.5" stroke-linecap="round" stroke-linejoin="round"/>
</svg>
