<svg width="24" height="24" fill="none" xmlns="http://www.w3.org/2000/svg"><path d="M16.24 7.053a2.781 2.781 0 0 1 1.917 2.422" stroke="#3B3943" stroke-width="1.5" stroke-linecap="round" stroke-linejoin="round"/><path clip-rule="evenodd" d="M11.748 20.854a36.496 36.496 0 0 1-6.339-4.689 11.923 11.923 0 0 1-3.017-4.57c-1.132-3.345.19-7.174 3.893-8.307a6.563 6.563 0 0 1 5.71.913 6.573 6.573 0 0 1 5.71-.913c3.703 1.133 5.036 4.962 3.903 8.307a11.922 11.922 0 0 1-3.017 4.57 36.495 36.495 0 0 1-6.339 4.689l-.247.146-.257-.146Z" stroke="#3B3943" stroke-width="1.5" stroke-linecap="round" stroke-linejoin="round"/></svg>