<svg width="24" height="18" viewBox="0 0 24 18" fill="none" xmlns="http://www.w3.org/2000/svg">
<g opacity="0.7">
<path opacity="0.7" d="M6.86719 8.2964V11.812H8.48278V10.2857H9.88903V11.812H11.5046V8.2939L9.18741 6.39429L6.86719 8.2964Z" fill="#3B3943"/>
<path opacity="0.7" d="M16.9688 0.47876H1.40625C0.629578 0.47876 0 1.10838 0 1.88501V16.1152C0 16.8918 0.629578 17.5214 1.40625 17.5214H16.9688V0.47876ZM12.911 9.4469V13.2183H5.46103V9.4494L5.10984 9.7373L4.21828 8.6498L9.1875 4.57592L14.1567 8.6498L13.2652 9.7373L12.911 9.4469Z" fill="#3B3943"/>
<path opacity="0.7" d="M22.5938 0.47876H18.375V17.5214H22.5938C23.3704 17.5214 24 16.8918 24 16.1152V1.88501C24 1.10838 23.3704 0.47876 22.5938 0.47876ZM21.8906 9.7032H20.4844V8.297H21.8906V9.7032Z" fill="#3B3943"/>
</g>
</svg>
