<svg width="24" height="24" viewBox="0 0 24 24" fill="none" xmlns="http://www.w3.org/2000/svg">
<g opacity="0.7">
<path opacity="0.7" d="M6.86719 11.2964V14.812H8.48278V13.2857H9.88903V14.812H11.5046V11.2939L9.18741 9.39429L6.86719 11.2964Z" fill="white"/>
<path opacity="0.7" d="M16.9688 3.47876H1.40625C0.629578 3.47876 0 4.10838 0 4.88501V19.1152C0 19.8918 0.629578 20.5214 1.40625 20.5214H16.9688V3.47876ZM12.911 12.4469V16.2183H5.46103V12.4494L5.10984 12.7373L4.21828 11.6498L9.1875 7.57592L14.1567 11.6498L13.2652 12.7373L12.911 12.4469Z" fill="white"/>
<path opacity="0.7" d="M22.5938 3.47876H18.375V20.5214H22.5938C23.3704 20.5214 24 19.8918 24 19.1152V4.88501C24 4.10838 23.3704 3.47876 22.5938 3.47876ZM21.8906 12.7032H20.4844V11.297H21.8906V12.7032Z" fill="white"/>
</g>
</svg>
