<svg width="15" height="18" viewBox="0 0 15 18" fill="none" xmlns="http://www.w3.org/2000/svg">
<path fill-rule="evenodd" clip-rule="evenodd" d="M1.03272 8.04977C1.04473 4.41498 3.91918 1.47841 7.45301 1.49076C10.9868 1.50311 13.8418 4.4597 13.8298 8.09449V8.16903C13.7863 10.5318 12.5038 12.7156 10.9313 14.4224C10.032 15.383 9.02775 16.2334 7.93851 16.9566C7.64727 17.2158 7.21527 17.2158 6.92402 16.9566C5.30028 15.8695 3.87516 14.4971 2.71388 12.9019C1.67884 11.511 1.09118 9.82272 1.03272 8.07213V8.04977Z" stroke="#200E32" stroke-width="1.5" stroke-linecap="round" stroke-linejoin="round"/>
<path d="M7.43158 10.2858C8.56417 10.2858 9.48231 9.3414 9.48231 8.17646C9.48231 7.01151 8.56417 6.06714 7.43158 6.06714C6.299 6.06714 5.38086 7.01151 5.38086 8.17646C5.38086 9.3414 6.299 10.2858 7.43158 10.2858Z" stroke="#200E32" stroke-width="1.5" stroke-linecap="round" stroke-linejoin="round"/>
</svg>
