<svg width="1120" height="554" viewBox="0 0 1120 554" fill="none" xmlns="http://www.w3.org/2000/svg">
<path d="M0 32C0 20.7989 0 15.1984 2.17987 10.9202C4.09734 7.15695 7.15695 4.09734 10.9202 2.17987C15.1984 0 20.799 0 32 0H1088C1099.2 0 1104.8 0 1109.08 2.17987C1112.84 4.09734 1115.9 7.15695 1117.82 10.9202C1120 15.1984 1120 20.799 1120 32V426.73C1120 437.061 1120 442.226 1118.06 446.307C1116.34 449.9 1113.6 452.902 1110.17 454.926C1106.28 457.225 1101.14 457.684 1090.85 458.603L34.8459 552.889C22.7578 553.968 16.7137 554.508 12.0479 552.486C7.94886 550.71 4.5625 547.612 2.42877 543.687C0 539.22 0 533.152 0 521.016V32Z" fill="url(#paint0_linear_66_1794)"/>
<defs>
<linearGradient id="paint0_linear_66_1794" x1="560" y1="0" x2="560" y2="546.071" gradientUnits="userSpaceOnUse">
<stop stop-color="#3D3B44"/>
<stop offset="1" stop-color="#2F2C3C"/>
</linearGradient>
</defs>
</svg>
