<svg width="66" height="80" viewBox="0 0 66 80" fill="none" xmlns="http://www.w3.org/2000/svg">
<g clip-path="url(#clip0_3_132)">
<path d="M9.93966 64.9689L12.8723 63.6989L16.1636 64.0876L20.9275 68.9604L17.3161 74.4033L13.0388 75.4789L12.1167 75.2975L3.49805 74.0534L9.93966 64.9689Z" fill="url(#paint0_linear_3_132)"/>
<path d="M6.82471 72.5421C11.3615 70.5497 14.4317 73.7261 17.308 72.4626C20.1843 71.199 19.1452 67.1246 19.1452 67.1246C19.1452 67.1246 16.9146 63.5737 14.0375 64.8367C11.1604 66.0997 11.361 70.5497 6.82471 72.5421Z" fill="#FFD553"/>
<path d="M13.4005 75.9606C12.1836 75.9606 11.0464 75.628 9.87051 75.2841C7.49134 74.5884 4.79483 73.8 0.595612 75.6441C0.544755 75.6677 0.489764 75.6807 0.433859 75.6825C0.377955 75.6843 0.322259 75.6748 0.270032 75.6545C0.217805 75.6343 0.170095 75.6037 0.129697 75.5645C0.0892982 75.5254 0.0570223 75.4785 0.0347572 75.4265C0.0124922 75.3746 0.000685678 75.3187 2.89874e-05 75.2621C-0.000627703 75.2055 0.00987931 75.1494 0.0309335 75.0969C0.0519876 75.0445 0.0831657 74.9968 0.122645 74.9567C0.162124 74.9166 0.20911 74.8849 0.260853 74.8634C4.46596 73.0167 5.77759 70.5746 6.93657 68.4203C7.89986 66.6277 8.80988 64.9347 11.1332 63.9143C13.2896 62.9672 15.4953 63.1691 17.5108 64.498C19.0104 65.4858 19.8672 66.7384 19.9041 66.7915C19.9345 66.8363 19.9561 66.8867 19.9676 66.9398C19.9814 67.0023 20.3005 68.4918 19.9886 70.275C19.5701 72.6733 18.2093 74.4412 16.0532 75.3883C15.1068 75.8043 14.2347 75.9606 13.4005 75.9606ZM5.54374 73.6455C7.29591 73.6455 8.74867 74.0703 10.1028 74.4666C12.0148 75.0257 13.6663 75.5085 15.7182 74.6076C19.9845 72.7342 19.284 67.8856 19.1621 67.2037C18.7374 66.6153 15.7714 62.8042 11.4672 64.695C9.40922 65.5988 8.60524 67.0945 7.67421 68.8267C6.80927 70.436 5.86288 72.1961 3.80105 73.7847C4.37748 73.6924 4.96015 73.6459 5.54374 73.6455Z" fill="#371A45"/>
<path d="M45.0166 41.4927C45.0166 41.4927 50.479 43.8155 51.4049 45.2509C52.3308 46.6863 48.9354 46.722 48.9354 46.722" fill="white"/>
<path d="M48.9346 47.2146C48.8597 47.2145 48.7859 47.1969 48.7189 47.1633C48.6519 47.1296 48.5934 47.0807 48.5481 47.0205L44.6293 41.7903C44.5648 41.7043 44.5302 41.5991 44.5308 41.4911C44.5314 41.3831 44.5671 41.2783 44.6326 41.193C44.698 41.1077 44.7894 41.0466 44.8927 41.0192C44.9959 40.9918 45.1052 40.9997 45.2036 41.0415C45.7768 41.2852 50.8314 43.4665 51.8117 44.9846C52.1554 45.5177 52.0678 45.9332 51.9323 46.188C51.441 47.1169 49.5188 47.2086 48.9415 47.2146H48.9346ZM46.5487 42.7283L49.1699 46.2274C50.0777 46.1838 50.9516 45.9604 51.075 45.7264C51.0868 45.7041 51.0635 45.625 50.9982 45.5224C50.5341 44.8013 48.4361 43.6339 46.549 42.7273L46.5487 42.7283Z" fill="#371A45"/>
<path d="M22.0852 29.3138C19.9635 30.9231 18.019 38.586 18.5105 43.1544C19.002 47.7229 26.9811 48.0637 31.544 47.9144C36.107 47.7651 36.0913 37.3256 36.0317 34.5289C35.9382 30.1627 25.2295 26.9293 22.0852 29.3138Z" fill="white"/>
<g opacity="0.25">
<path opacity="0.25" d="M31.5437 47.9144C26.9805 48.0627 19.0019 47.72 18.5096 43.1524C18.4445 42.5103 18.4204 41.8648 18.4374 41.2196C19.6975 42.2224 21.4533 41.33 21.6646 40.1051C22.9708 32.5368 25.7567 29.6339 27.1037 28.6394C31.2089 29.2215 35.9688 31.6242 36.03 34.53C36.0915 37.3266 36.1069 47.7675 31.5437 47.9144Z" fill="#371A45"/>
</g>
<path d="M29.9534 48.4328C24.4395 48.4328 18.4832 47.4357 18.0283 43.2068C17.5529 38.7876 19.3622 30.7658 21.7934 28.9211C23.95 27.2854 28.925 28.0658 32.298 29.7275C34.9796 31.0493 36.4775 32.7501 36.5154 34.5193C36.6247 39.6419 36.1266 48.2563 31.5585 48.4061C31.0317 48.4232 30.4938 48.4328 29.9534 48.4328ZM25.3228 28.9898C24.0678 28.9898 23.0149 29.2231 22.3774 29.7065C20.418 31.1924 18.5206 38.7031 18.9937 43.1008C19.4352 47.2029 27.0376 47.5707 31.5298 47.4251C35.5111 47.2955 35.612 37.5303 35.548 34.5406C35.5188 33.1778 34.1802 31.7453 31.8756 30.61C29.7336 29.5554 27.2817 28.9898 25.3228 28.9898Z" fill="#371A45"/>
<path d="M22.5334 36.978L20.5082 36.1611C20.4003 36.1175 20.2845 36.0977 20.1685 36.1029C20.0525 36.108 19.9389 36.1381 19.8352 36.191C19.7315 36.244 19.6402 36.3186 19.5672 36.41C19.4941 36.5014 19.4412 36.6075 19.4117 36.7212C18.9863 38.3821 18.3311 41.8241 19.9824 42.5288C21.9838 43.3841 22.6932 41.0465 23.0449 37.8375C23.0641 37.6574 23.0245 37.4758 22.9321 37.3206C22.8398 37.1654 22.6997 37.0451 22.5334 36.978Z" fill="white"/>
<g opacity="0.25">
<path opacity="0.25" d="M23.0406 37.8319C22.6964 41.0422 21.992 43.3809 19.9891 42.5308C19.1662 42.1829 18.9134 41.1537 18.92 40.0039C19.087 40.3331 19.3263 40.5879 19.6613 40.7297C21.4542 41.4899 22.2077 39.6952 22.5911 37.0051C22.7411 37.0793 22.8647 37.1986 22.9452 37.3465C23.0256 37.4945 23.059 37.6641 23.0406 37.8319Z" fill="#371A45"/>
</g>
<path d="M20.7609 43.1608C20.4643 43.1608 20.1485 43.0903 19.8158 42.9491C17.9853 42.1731 18.3462 39.0745 18.9706 36.612C19.0155 36.4358 19.0969 36.2713 19.2095 36.1294C19.322 35.9875 19.4631 35.8714 19.6234 35.7889C19.7837 35.7065 19.9594 35.6595 20.1391 35.651C20.3187 35.6426 20.498 35.6729 20.6651 35.74L22.6921 36.5526C22.9496 36.656 23.1666 36.8418 23.3099 37.0816C23.4533 37.3215 23.5152 37.6022 23.4861 37.8809C23.1696 40.8305 22.6196 42.3366 21.6469 42.9172C21.3789 43.0783 21.0726 43.1626 20.7609 43.1608ZM20.1974 36.5565C20.1154 36.5568 20.0359 36.5846 19.971 36.6354C19.9062 36.6862 19.8597 36.7572 19.8389 36.8374C19.2697 39.0802 19.0556 41.6436 20.1618 42.1124C20.5824 42.2908 20.9192 42.2983 21.1915 42.1358C22.1919 41.5396 22.4952 38.7119 22.5948 37.783C22.6031 37.7016 22.5849 37.6197 22.5428 37.5498C22.5008 37.4799 22.4373 37.4259 22.362 37.396L20.335 36.5834C20.2912 36.5658 20.2446 36.5567 20.1974 36.5565Z" fill="#371A45"/>
<path d="M21.7889 29.3239L24.175 30.4384C24.969 30.8161 25.7607 31.1901 26.5493 31.5952C26.605 31.6237 26.6477 31.6728 26.6686 31.7323C26.6894 31.7918 26.6868 31.8572 26.6612 31.9148C26.6357 31.9724 26.5891 32.0178 26.5313 32.0416C26.4735 32.0654 26.4089 32.0657 26.3508 32.0425L26.3467 32.041C25.543 31.718 24.718 31.4189 23.8976 31.1191L21.4273 30.2347L21.4229 30.2332C21.3096 30.1837 21.219 30.0925 21.1696 29.978C21.1202 29.8635 21.1156 29.7343 21.1568 29.6165C21.1981 29.4987 21.282 29.4012 21.3916 29.3437C21.5012 29.2862 21.6283 29.273 21.7472 29.3068C21.7603 29.312 21.7756 29.318 21.7889 29.3239Z" fill="#371A45"/>
<path d="M58.4468 27.8468C57.66 30.5631 51.685 35.5932 43.1119 35.8446C42.2586 35.8703 41.4046 35.8482 40.5537 35.7782L39.7887 32.472L39.1763 29.8257C39.1763 29.8257 40.5081 29.5803 42.3266 29.0907C43.7645 28.7055 45.5067 28.1682 47.1398 27.4811C48.6794 26.8331 50.1234 26.052 51.1198 25.1378C51.1198 25.1378 51.1743 22.4163 51.9371 22.1395C52.8681 21.8008 53.5578 23.7149 53.5578 23.7149C53.5578 23.7149 55.6747 21.5102 56.91 21.7235C58.7475 22.04 59.3112 24.868 58.4468 27.8468Z" fill="white"/>
<g opacity="0.35">
<path opacity="0.35" d="M58.8325 25.626C58.789 26.3788 58.6595 27.124 58.4468 27.8467C57.5837 30.8253 50.4812 36.5878 40.5537 35.7778L39.1763 29.8256C39.1763 29.8256 39.5897 29.7494 40.2697 29.5973L41.8794 32.7518C50.0789 35.2522 57.4856 28.6906 58.8325 25.626Z" fill="#371A45"/>
</g>
<path d="M42.4375 36.3464C41.8088 36.3464 41.1685 36.3204 40.5166 36.2686C40.4528 36.2639 40.3905 36.2465 40.3334 36.2174C40.2763 36.1883 40.2254 36.148 40.1838 36.0989C40.1421 36.0498 40.1104 35.9929 40.0906 35.9313C40.0708 35.8698 40.0632 35.8049 40.0682 35.7404C40.0733 35.6758 40.0909 35.613 40.1201 35.5554C40.1493 35.4978 40.1895 35.4466 40.2383 35.4048C40.2871 35.363 40.3436 35.3313 40.4046 35.3117C40.4655 35.2921 40.5297 35.2848 40.5934 35.2904C50.3839 36.0885 57.2194 30.3381 57.9822 27.7089C58.5262 25.8322 58.4732 23.9637 57.8464 22.9484C57.5875 22.5288 57.2456 22.2797 56.8301 22.2079C56.1532 22.0913 54.713 23.2188 53.9069 24.058L53.3691 24.6184L53.1045 23.8841C52.8911 23.2965 52.4009 22.5104 52.1105 22.5996C51.8702 22.7732 51.6305 23.9818 51.6061 25.1484L51.6018 25.3597L51.4468 25.502C47.9927 28.6677 39.6196 30.2451 39.2649 30.3094C39.1384 30.3327 39.0079 30.3043 38.9021 30.2303C38.7963 30.1563 38.7239 30.0428 38.7008 29.9148C38.6777 29.7867 38.7058 29.6547 38.7789 29.5476C38.852 29.4405 38.9642 29.3673 39.0907 29.3439C39.1737 29.3286 47.2919 27.8004 50.6421 24.9118C50.68 23.9051 50.8726 22.0089 51.7739 21.68C52.6888 21.3461 53.3545 22.2167 53.7146 22.8852C54.4907 22.1727 55.9083 21.0551 56.993 21.2419C57.6833 21.3607 58.2626 21.7715 58.6691 22.4298C59.4475 23.691 59.54 25.8202 58.9127 27.9865C58.0329 31.0188 51.5477 36.3458 42.4375 36.3464Z" fill="#371A45"/>
<path d="M49.5478 47.5388C49.5478 47.5388 37.5441 52.2364 33.3324 51.9002C29.1206 51.564 24.5864 50.8894 24.3379 42.8056C24.1842 37.7804 26.6403 32.8362 28.5218 29.8158C29.6674 27.9756 30.5997 26.8481 30.5997 26.8481L42.1898 27.4469C42.1898 27.4469 42.2349 28.065 42.3281 29.0906C42.3862 29.7311 42.4638 30.5299 42.5622 31.4352C42.7028 32.7356 42.8846 34.2557 43.1126 35.8445C43.4617 38.2786 43.9186 40.8728 44.4957 43.078C44.7431 44.0325 48.7003 44.2938 49.5478 47.5388Z" fill="white"/>
<path d="M42.8513 32.5718C43.2849 34.0025 43.5334 35.4488 43.7846 36.894C44.0359 38.3393 44.2667 39.7845 44.5617 41.2147C44.6368 41.5718 44.7167 41.9274 44.7991 42.2823L44.9272 42.8123L44.96 42.9448L44.962 42.9528V42.9512V42.9479C44.9621 42.9458 44.9615 42.9437 44.9605 42.9419C44.9592 42.9403 44.9577 42.9389 44.9559 42.9378C44.9573 42.9381 44.9586 42.9388 44.9597 42.9398C44.962 42.9416 44.9597 42.9432 44.9633 42.9474C44.9697 42.953 44.9757 42.9592 44.9812 42.9658C44.9978 42.9833 45.0156 42.9996 45.0345 43.0145C45.1252 43.0889 45.2689 43.17 45.4169 43.2477C45.565 43.3255 45.7268 43.3999 45.891 43.4753C46.2191 43.6259 46.5603 43.7801 46.8979 43.953C47.5725 44.2972 48.2479 44.7179 48.8134 45.3008C49.0994 45.5924 49.3473 45.9199 49.5511 46.2753C49.7541 46.6334 49.91 47.0168 50.0149 47.4157L50.1279 47.8421L49.7209 47.9989C47.8122 48.7342 45.8967 49.4162 43.9593 50.0569C42.022 50.6976 40.0685 51.2878 38.0727 51.7647C37.0738 51.9995 36.066 52.2112 35.0248 52.3297C34.5049 52.3898 33.9777 52.4295 33.4253 52.3976C33.2834 52.394 33.1622 52.3805 33.0337 52.3717L32.651 52.338C32.3949 52.3144 32.1388 52.2893 31.8826 52.2582C30.8581 52.1363 29.8141 51.9523 28.8055 51.5765C28.2961 51.3888 27.808 51.1464 27.3497 50.8533C26.8865 50.5546 26.4627 50.1975 26.0885 49.7907C25.7189 49.3835 25.3993 48.9326 25.1367 48.4478C24.8753 47.9722 24.6608 47.4716 24.4964 46.9534L24.4324 46.7616L24.3788 46.5677L24.2728 46.1789L24.186 45.788L24.1432 45.5924L24.1091 45.3959L24.0415 45.0032C24.0213 44.8721 24.007 44.7407 23.9903 44.6095C23.9527 44.347 23.9309 44.0842 23.9091 43.8213C23.8195 42.768 23.8287 41.7085 23.9365 40.6569C24.0478 39.61 24.2421 38.5738 24.5174 37.5583C25.0594 35.5312 25.878 33.6013 26.8415 31.7629C27.3233 30.8435 27.8048 29.9203 28.3896 29.0624C28.9743 28.2045 29.6218 27.3886 30.4739 26.7453C30.5034 26.7229 30.5394 26.7111 30.5762 26.7117C30.6131 26.7123 30.6487 26.7253 30.6774 26.7487C30.7062 26.772 30.7264 26.8044 30.735 26.8406C30.7435 26.8769 30.7399 26.915 30.7247 26.949L30.7219 26.9552C30.2962 27.9057 29.7762 28.7695 29.2481 29.629C28.7289 30.4926 28.1685 31.3324 27.6993 32.2261C26.7593 34.009 25.972 35.8777 25.4533 37.8154C25.1917 38.7801 25.007 39.7645 24.9011 40.759C24.7993 41.7501 24.7907 42.7488 24.8755 43.7415C24.8962 43.9903 24.9165 44.2389 24.9523 44.4843C24.9687 44.6072 24.982 44.7311 25.001 44.8534L25.0642 45.2186L25.0955 45.4013L25.1352 45.5815L25.2151 45.9415L25.3117 46.295L25.3603 46.4718L25.4182 46.6444C25.5634 47.1041 25.7533 47.5481 25.985 47.9699C26.2101 48.3861 26.484 48.7732 26.8008 49.123C27.4337 49.8158 28.2461 50.3225 29.1428 50.654C30.0395 50.9855 31.01 51.1649 31.9958 51.2813C32.2422 51.3113 32.4907 51.3357 32.7401 51.359L33.1154 51.3919C33.2393 51.4015 33.3715 51.4155 33.4824 51.4179C33.5992 51.4199 33.7129 51.4329 33.8325 51.4269L34.1911 51.4184C34.4331 51.4 34.6744 51.3868 34.919 51.3544C35.8949 51.2439 36.8774 51.0387 37.8527 50.8101C39.8052 50.3435 41.7405 49.7562 43.6601 49.1253C45.5798 48.4945 47.4903 47.8105 49.3718 47.0853L49.078 47.6685C48.9113 47.0347 48.5822 46.4566 48.1239 45.9928C47.6655 45.5198 47.0853 45.1504 46.4617 44.8329C46.1495 44.6728 45.8252 44.5261 45.4897 44.3721C45.3224 44.2944 45.1521 44.2166 44.9774 44.1256C44.8027 44.0346 44.6232 43.9393 44.4285 43.7837C44.3758 43.7417 44.3261 43.6958 44.28 43.6464L44.206 43.5629C44.1803 43.5303 44.1565 43.4919 44.1335 43.4556C44.0874 43.3942 44.0459 43.2716 44.0231 43.1995L43.9882 43.064L43.8489 42.522C43.7598 42.1592 43.6735 41.7981 43.5928 41.435C43.4291 40.7093 43.2724 39.9835 43.1346 39.2537C42.9968 38.5238 42.8805 37.7919 42.778 37.0578C42.5778 35.5895 42.44 34.1122 42.5304 32.6143C42.5329 32.5755 42.5487 32.5388 42.5752 32.5106C42.6016 32.4824 42.637 32.4644 42.6752 32.4599C42.7134 32.4553 42.7519 32.4644 42.7841 32.4856C42.8163 32.5068 42.8402 32.5388 42.8515 32.576L42.8513 32.5718Z" fill="#371A45"/>
<path d="M25.5013 72.2363L23.4249 72.5631C22.9635 72.6357 22.4914 72.5806 22.0585 72.4037C21.6256 72.2267 21.2481 71.9345 20.966 71.558C19.2561 69.2735 18.1964 66.5591 17.9017 63.7088C17.8532 63.239 17.9312 62.7646 18.1276 62.336C18.324 61.9075 18.6314 61.5408 19.0172 61.2747L20.7545 60.0768" fill="#00AAFF"/>
<g opacity="0.6">
<path opacity="0.6" d="M21.1234 61.2817L19.4035 62.468C18.977 62.7621 18.6371 63.1677 18.4201 63.6416C18.203 64.1154 18.1169 64.64 18.1708 65.1594C18.2128 65.5677 18.2692 65.9738 18.3401 66.3776C18.132 65.587 17.9854 64.781 17.9016 63.9672C17.8533 63.4974 17.9314 63.0232 18.1278 62.5947C18.3242 62.1662 18.6314 61.7995 19.017 61.5334L20.7546 60.3357L21.1234 61.2817Z" fill="white"/>
</g>
<g opacity="0.35">
<path opacity="0.35" d="M19.2104 68.0823C19.6356 68.94 20.1375 69.7565 20.7098 70.5216C20.9917 70.8983 21.3692 71.1906 21.8021 71.3676C22.2351 71.5445 22.7073 71.5994 23.1686 71.5264L25.1057 71.2214L20.7552 60.0763L20.3843 60.3321L23.61 68.594L21.532 68.9213C21.1066 68.9883 20.6714 68.9467 20.2659 68.8001C19.8605 68.6536 19.4977 68.4069 19.2104 68.0823ZM23.213 67.5795L20.3835 60.3324L20.5006 60.2515L23.3531 67.5575L23.213 67.5795Z" fill="#371A45"/>
</g>
<path d="M25.8685 56.8468C24.7887 54.7059 21.0884 51.873 13.8097 56.5466C13.7886 56.5602 13.772 56.58 13.7621 56.6033C13.7522 56.6266 13.7495 56.6524 13.7543 56.6773C13.7591 56.7023 13.7712 56.7251 13.789 56.7429C13.8069 56.7608 13.8296 56.7727 13.8543 56.7773C15.0655 56.9958 20.7634 57.9781 21.8066 60.9761" fill="#FF5555"/>
<g opacity="0.6">
<path opacity="0.6" d="M15.0353 56.8776C14.5128 56.7646 14.0946 56.691 13.8543 56.6475C13.8297 56.643 13.807 56.6311 13.7891 56.6133C13.7713 56.5955 13.7591 56.5727 13.7543 56.5479C13.7495 56.523 13.7521 56.4973 13.762 56.474C13.7718 56.4507 13.7884 56.4309 13.8095 56.4173C21.0884 51.7434 24.7884 54.5771 25.8685 56.7175L25.4285 57.1646C24.0323 55.3404 20.7508 53.6767 15.0353 56.8776Z" fill="white"/>
</g>
<path d="M21.806 61.4675C21.7056 61.4675 21.6077 61.4359 21.5257 61.3772C21.4438 61.3185 21.3819 61.2355 21.3486 61.1396C21 60.1371 19.559 58.3018 13.8261 57.2705L13.7687 57.2604C13.6479 57.2385 13.5364 57.1801 13.4488 57.093C13.3613 57.0059 13.3018 56.8941 13.2781 56.7722C13.2544 56.6503 13.2676 56.524 13.316 56.4098C13.3645 56.2957 13.4458 56.199 13.5495 56.1324C17.0879 53.8601 20.1729 53.0649 22.7188 53.7691C24.9651 54.3911 25.9717 55.9722 26.3003 56.6238C26.3587 56.7397 26.3693 56.8744 26.3296 56.9982C26.2899 57.122 26.2033 57.2248 26.0887 57.2839C25.9742 57.3431 25.8411 57.3538 25.7187 57.3136C25.5964 57.2735 25.4948 57.1858 25.4364 57.0699C25.1664 56.5346 24.335 55.2338 22.4632 54.7159C20.4075 54.1473 17.7938 54.7548 14.8639 56.4727C20.0866 57.5659 21.7794 59.4176 22.2637 60.8136C22.2894 60.8876 22.2972 60.9667 22.2864 61.0444C22.2757 61.1221 22.2467 61.1961 22.2019 61.2601C22.1571 61.3241 22.0978 61.3764 22.029 61.4125C21.9602 61.4485 21.8838 61.4674 21.8063 61.4675H21.806Z" fill="#371A45"/>
<path d="M31.3241 70.8232C31.9816 73.1328 31.2424 77.8848 22.7723 79.506C22.7477 79.5106 22.7223 79.5076 22.6994 79.4974C22.6765 79.4871 22.6572 79.4702 22.644 79.4488C22.6307 79.4273 22.6241 79.4023 22.6251 79.377C22.6261 79.3517 22.6345 79.3273 22.6493 79.3069C23.386 78.3099 26.8304 73.5195 25.5666 70.6091" fill="#D25658"/>
<path d="M22.7728 79.5072C22.7481 79.5117 22.7227 79.5086 22.6998 79.4983C22.6769 79.488 22.6576 79.471 22.6444 79.4495C22.6312 79.428 22.6246 79.4029 22.6256 79.3776C22.6265 79.3523 22.635 79.3278 22.6498 79.3074C23.0268 78.7968 24.1146 77.2907 24.9158 75.5518C25.6737 73.9088 26.1749 72.0569 25.5797 70.6412C25.5756 70.6311 25.5704 70.6202 25.5663 70.6101H25.6014L31.3238 70.8219C31.5085 71.4698 31.5833 72.3109 31.4068 73.2212C30.9581 75.5539 28.8658 78.3396 22.7728 79.5072Z" fill="#FF5555"/>
<g opacity="0.35">
<path opacity="0.35" d="M24.916 75.5518C25.6739 73.9089 26.1751 72.057 25.5799 70.6413C25.5871 70.6314 25.5942 70.6211 25.6017 70.6112L31.3241 70.823C31.5087 71.4709 31.5835 72.312 31.4071 73.2223C30.0416 74.3948 27.9716 75.3155 24.916 75.5518Z" fill="#371A45"/>
</g>
<path d="M22.7474 80C22.6347 79.9994 22.5243 79.9673 22.4286 79.907C22.3328 79.8468 22.2554 79.7609 22.205 79.6589C22.1546 79.5568 22.1331 79.4427 22.143 79.329C22.1528 79.2154 22.1936 79.1067 22.2608 79.0151C23.21 77.73 26.2218 73.3404 25.1225 70.8087C25.0705 70.6894 25.0674 70.5541 25.114 70.4325C25.1606 70.3109 25.253 70.2131 25.3709 70.1605C25.4888 70.1078 25.6225 70.1048 25.7427 70.1519C25.8628 70.1991 25.9595 70.2926 26.0115 70.4119C27.1303 72.9882 25.0126 76.7446 23.5849 78.8321C26.8396 78.0672 29.1368 76.7029 30.2578 74.859C31.3397 73.0797 30.9914 71.4237 30.859 70.9585C30.8234 70.8334 30.8383 70.6992 30.9006 70.5853C30.9628 70.4713 31.0672 70.3871 31.1908 70.3511C31.3144 70.3151 31.4471 70.3302 31.5596 70.3932C31.6722 70.4562 31.7554 70.5618 31.791 70.6869C31.9959 71.4082 32.3389 73.3093 31.0839 75.3732C29.6954 77.6569 26.9297 79.2092 22.8637 79.9883C22.8254 79.996 22.7864 79.9999 22.7474 80Z" fill="#371A45"/>
<path d="M65.5424 49.1447C65.5424 49.1447 63.6391 61.397 47.9572 68.9655C34.5971 75.4126 25.3601 72.2362 25.3601 72.2362C22.3933 68.8866 20.7097 64.5728 20.6138 60.0757C20.6138 60.0757 22.6651 56.1892 28.2346 52.2583C28.4262 52.1233 28.6226 51.9872 28.8237 51.8522C30.9987 50.3826 33.6719 48.9233 36.9209 47.6792C37.6872 47.3855 38.4862 47.1045 39.3178 46.8364C39.3505 46.8255 39.3833 46.8156 39.4161 46.8058C42.7714 45.7348 45.8426 45.1973 48.6057 45.0174C48.6941 45.0114 48.7814 45.0065 48.8688 45.0016C59.5316 44.3992 65.5424 49.1447 65.5424 49.1447Z" fill="white"/>
<path d="M57.546 62.5945C56.5036 56.2886 54.1566 50.2765 50.6587 44.9522C60.2891 44.8871 65.6824 49.1448 65.6824 49.1448C65.6824 49.1448 64.6205 55.9814 57.546 62.5945Z" fill="#FF5555"/>
<g opacity="0.6">
<path opacity="0.6" d="M65.4826 49.9049C65.6324 49.3347 65.6824 49.0151 65.6824 49.0151C65.6824 49.0151 60.2896 44.7575 50.6587 44.8225C50.8846 45.1662 51.1055 45.5128 51.3215 45.8624C59.4851 45.9756 64.4565 49.1761 65.4826 49.9049Z" fill="white"/>
</g>
<path d="M57.2157 63.5714L57.0677 62.6754C56.0301 56.3973 53.738 50.5257 50.2547 45.2238L49.7578 44.4675L50.6543 44.4615C58.2884 44.4081 63.33 47.0495 65.1439 48.1871C65.4754 48.3926 65.7319 48.7015 65.8747 49.0674C66.0175 49.4333 66.039 49.8362 65.9359 50.2155C65.3796 52.3001 63.4801 57.7145 57.874 62.9551L57.2157 63.5714ZM51.5571 45.4495C54.6656 50.3767 56.8075 55.8634 57.866 61.6101C62.7855 56.7452 64.488 51.88 65.0005 49.9596C65.0481 49.7842 65.0381 49.5978 64.9721 49.4286C64.906 49.2593 64.7875 49.1163 64.6342 49.0211C62.9632 47.9735 58.4336 45.5988 51.5571 45.4495Z" fill="#371A45"/>
<path d="M31.7017 73.5095C27.7417 73.5095 25.4409 72.734 25.3444 72.7005L25.2242 72.6593L25.1392 72.5637C22.0942 69.1276 20.3663 64.7013 20.2687 60.0869L20.2661 59.9586L20.3258 59.8454C20.3745 59.7536 21.5473 57.5645 24.4856 54.7974C27.1793 52.2602 31.9389 48.7386 39.3105 46.3697C43.1757 45.1276 46.9925 44.4856 50.6554 44.4615L50.9174 44.4597L51.0624 44.6805C54.6131 50.0854 56.9533 56.0698 58.0165 62.4681L58.1128 62.7324L57.8754 62.9561C55.1861 65.4718 51.9652 67.6428 48.3047 69.4099C41.3229 72.7793 35.4704 73.4991 31.7903 73.51L31.7017 73.5095ZM25.7729 71.8076C26.2851 71.9611 28.4622 72.5471 31.8392 72.5277C35.4097 72.5111 41.0921 71.8019 47.8872 68.5235C51.3721 66.8419 54.4441 64.7873 57.0238 62.4149C55.9813 56.322 53.7538 50.6157 50.3995 45.4457C46.9142 45.4975 43.2838 46.1227 39.604 47.3051C26.6852 51.4565 21.8244 59.2018 21.2417 60.201C21.3636 64.4872 22.967 68.5944 25.7729 71.8076Z" fill="#371A45"/>
<path d="M23.0245 73.0854C22.5507 73.0854 22.0832 72.9743 21.6589 72.7607C21.2347 72.547 20.8651 72.2368 20.5793 71.8543C18.8157 69.4983 17.7229 66.6989 17.4192 63.7593C17.3612 63.2014 17.4537 62.6379 17.687 62.1289C17.9202 61.62 18.2855 61.1845 18.7439 60.8689L20.4812 59.6709C20.5338 59.633 20.5933 59.606 20.6563 59.5917C20.7193 59.5773 20.7845 59.5759 20.8481 59.5874C20.9117 59.5988 20.9724 59.6231 21.0266 59.6586C21.0808 59.6941 21.1274 59.7402 21.1638 59.7943C21.2001 59.8483 21.2255 59.9091 21.2383 59.9731C21.2511 60.0372 21.2512 60.1032 21.2384 60.1673C21.2257 60.2313 21.2005 60.2922 21.1642 60.3463C21.128 60.4003 21.0814 60.4466 21.0273 60.4822L19.2902 61.6799C18.9766 61.8958 18.7266 62.1937 18.567 62.542C18.4074 62.8902 18.3441 63.2757 18.3838 63.6575C18.6691 66.4188 19.6957 69.0484 21.3523 71.2615C21.5811 71.5678 21.8878 71.8056 22.2396 71.9494C22.5914 72.0932 22.9752 72.1378 23.3501 72.0782L25.4275 71.7514C25.5546 71.7314 25.6844 71.7633 25.7882 71.8401C25.8921 71.9169 25.9615 72.0323 25.9813 72.1609C26.001 72.2895 25.9695 72.4208 25.8936 72.5259C25.8177 72.631 25.7037 72.7013 25.5766 72.7213L23.4994 73.0481C23.3423 73.0729 23.1835 73.0854 23.0245 73.0854Z" fill="#371A45"/>
<g opacity="0.35">
<path opacity="0.35" d="M50.7354 62.5539C53.3405 59.9178 53.3405 55.6437 50.7354 53.0076C48.1304 50.3714 43.9068 50.3714 41.3018 53.0076C38.6968 55.6437 38.6968 59.9178 41.3018 62.5539C43.9068 65.1901 48.1304 65.1901 50.7354 62.5539Z" fill="#371A45"/>
</g>
<path d="M46.1655 63.0167C49.4784 63.0167 52.164 60.299 52.164 56.9465C52.164 53.5941 49.4784 50.8763 46.1655 50.8763C42.8526 50.8763 40.167 53.5941 40.167 56.9465C40.167 60.299 42.8526 63.0167 46.1655 63.0167Z" fill="#FF5555"/>
<g opacity="0.6">
<path opacity="0.6" d="M52.0651 55.975C52.0241 55.8434 51.9784 55.7127 51.9278 55.5831C50.7112 52.4654 47.2261 50.9367 44.1451 52.1681C41.4289 53.2536 39.9331 56.122 40.4507 58.9225C39.4949 55.904 41.0063 52.6126 43.9597 51.432C47.0417 50.2006 50.5258 51.7295 51.7436 54.8481C51.886 55.2125 51.9937 55.5899 52.0651 55.975Z" fill="white"/>
</g>
<g opacity="0.35">
<path opacity="0.35" d="M48.3686 62.5919C45.2881 63.8233 41.8032 62.2957 40.5859 59.1774C40.2153 58.2315 40.0867 57.2063 40.2122 56.1967C40.2806 56.6493 40.399 57.0927 40.5651 57.5186C41.7822 60.6369 45.2669 62.1661 48.3483 60.9344C49.3504 60.534 50.2273 59.8677 50.8869 59.0057C51.5464 58.1437 51.9643 57.1177 52.0965 56.0358C52.5099 58.7718 51.0208 61.5316 48.3686 62.5919Z" fill="#371A45"/>
</g>
<path d="M46.1638 63.5113C44.5454 63.514 42.9842 62.9057 41.7855 61.8054C40.5869 60.705 39.837 59.1917 39.6825 57.5614C39.5281 55.9312 39.9801 54.3012 40.9504 52.9904C41.9206 51.6796 43.3391 50.7822 44.9285 50.4737C46.518 50.1652 48.1639 50.4679 49.5445 51.3224C50.9251 52.177 51.9411 53.522 52.3936 55.0944C52.8461 56.6668 52.7027 58.3535 51.9914 59.8246C51.2801 61.2956 50.0521 62.4453 48.5476 63.0486C47.7889 63.3535 46.9801 63.5105 46.1638 63.5113ZM46.1666 51.3642C45.355 51.3642 44.5534 51.5455 43.819 51.8951C43.0846 52.2447 42.4355 52.7541 41.9181 53.3868C41.4006 54.0195 41.0275 54.76 40.8254 55.5554C40.6234 56.3508 40.5972 57.1816 40.749 57.9884C40.9007 58.7952 41.2265 59.5582 41.7032 60.2229C42.1799 60.8876 42.7957 61.4376 43.5066 61.8338C44.2176 62.2299 45.0062 62.4624 45.8161 62.5146C46.6261 62.5668 47.4374 62.4374 48.1923 62.1358C49.3849 61.6575 50.3755 60.7736 50.9936 59.636C51.6117 58.4985 51.8188 57.1785 51.579 55.9032C51.3393 54.6279 50.6679 53.4771 49.6802 52.6486C48.6926 51.8202 47.4504 51.366 46.1676 51.3642H46.1666Z" fill="#371A45"/>
<path d="M48.9042 59.5837C50.3946 58.0755 50.3946 55.6303 48.9042 54.1221C47.4138 52.614 44.9975 52.614 43.5071 54.1221C42.0168 55.6303 42.0168 58.0755 43.5071 59.5837C44.9975 61.0918 47.4138 61.0918 48.9042 59.5837Z" fill="#6BD6F0"/>
<g opacity="0.3">
<path opacity="0.3" d="M47.6077 60.445C46.6663 60.8212 45.6158 60.8035 44.6873 60.396C43.7588 59.9884 43.0283 59.2243 42.6565 58.2717C42.4926 57.8548 42.4026 57.4119 42.3906 56.9633C42.4047 57.0037 42.4196 57.0437 42.4352 57.0849C42.7646 57.9303 43.3782 58.6311 44.1678 59.064C44.9575 59.4968 45.8728 59.634 46.7525 59.4513C47.6323 59.2687 48.4202 58.7779 48.9776 58.0653C49.5351 57.3528 49.8263 56.4641 49.8001 55.5557C50.1327 56.4992 50.09 57.5367 49.6809 58.449C49.2718 59.3612 48.5284 60.0769 47.6077 60.445Z" fill="white"/>
</g>
<g opacity="0.35">
<path opacity="0.35" d="M50.0621 57.0523C50.0406 56.9898 50.0188 56.9273 49.9942 56.8646C49.6703 56.0344 49.0722 55.3434 48.3016 54.9091C47.531 54.4747 46.6356 54.3239 45.7675 54.4823C44.8995 54.6406 44.1124 55.0984 43.5402 55.7777C42.9681 56.4569 42.6461 57.3158 42.629 58.2082C42.4518 57.6745 42.392 57.1081 42.4538 56.5486C42.5157 55.9891 42.6977 55.45 42.9871 54.9691C43.2765 54.4883 43.6663 54.0773 44.1292 53.7649C44.5921 53.4526 45.1169 53.2464 45.6668 53.1609C46.2167 53.0754 46.7784 53.1126 47.3127 53.2699C47.8469 53.4272 48.3406 53.7007 48.7594 54.0715C49.1781 54.4422 49.5117 54.9011 49.7367 55.416C49.9617 55.9309 50.0728 56.4893 50.0621 57.0523Z" fill="#371A45"/>
</g>
<path d="M46.2047 61.2078C45.3422 61.206 44.5 60.9424 43.7871 60.4512C43.0742 59.9599 42.5232 59.2636 42.2055 58.4521C41.3347 56.22 42.4197 53.6867 44.6254 52.8047C46.8312 51.9226 49.3349 53.0213 50.2062 55.2537C51.0775 57.4861 49.9918 60.0192 47.786 60.9009C47.2828 61.1031 46.7462 61.2072 46.2047 61.2078ZM46.2019 53.4817C45.7841 53.4817 45.3701 53.5617 44.9817 53.7175C43.2733 54.4005 42.4327 56.3612 43.1076 58.0913C43.2683 58.503 43.5076 58.8787 43.8118 59.1969C44.116 59.515 44.4792 59.7694 44.8805 59.9455C45.2819 60.1217 45.7136 60.2161 46.151 60.2234C46.5884 60.2307 47.0229 60.1507 47.4298 59.9881C49.1381 59.3051 49.9788 57.3443 49.3041 55.6143C49.0577 54.9852 48.6302 54.4455 48.077 54.0653C47.5239 53.685 46.8706 53.4817 46.2019 53.4817Z" fill="#371A45"/>
<g opacity="0.2">
<path opacity="0.2" d="M58.66 48.5729C58.631 47.651 56.739 46.9287 55.6674 46.937C54.5584 46.9458 53.8909 47.1391 53.8863 47.6826C53.8794 48.4413 54.7433 48.7088 55.7703 48.7482C56.4965 48.7759 58.6958 49.7108 58.66 48.5729Z" fill="white"/>
</g>
<g opacity="0.2">
<path opacity="0.2" d="M61.44 49.7378C61.3803 48.9388 60.4257 48.1944 59.9061 48.134C59.3682 48.0715 59.0534 48.1964 59.078 48.6661C59.1121 49.3218 59.5447 49.6075 60.0454 49.7065C60.3994 49.7764 61.5133 50.724 61.44 49.7378Z" fill="white"/>
</g>
<g opacity="0.35">
<path opacity="0.35" d="M25.2449 71.3289C25.2449 71.3289 34.4816 74.5052 47.8412 68.059C61.4088 61.5114 64.6616 51.4596 65.2927 48.8667C65.3571 48.91 65.4134 48.9488 65.4618 48.983C65.2651 48.8446 64.9385 48.6256 64.4849 48.3586C62.6428 52.5951 58.2579 59.4109 48.1583 64.285C41.8501 67.3289 36.4612 68.2275 32.5301 68.3283C27.51 68.4579 22.995 65.196 21.573 60.3215C21.5651 60.2955 21.5574 60.2675 21.5494 60.2408C21.4941 60.0471 21.442 59.8525 21.3932 59.6569C21.3676 59.576 21.3407 59.4959 21.3164 59.4143C21.3084 59.3884 21.3007 59.3604 21.2928 59.3337C21.2849 59.307 21.2774 59.2756 21.2692 59.2469L21.2872 59.2209C20.9206 59.7616 20.7539 60.0763 20.7539 60.0763C20.7848 61.5251 20.9811 62.9655 21.3389 64.3687C22.1322 66.9455 23.4644 69.3193 25.2449 71.3289Z" fill="#371A45"/>
</g>
<path d="M24.5892 67.9968C21.8389 69.0955 18.271 67.9753 18.271 67.9753C18.271 67.9753 18.2779 67.9626 18.2915 67.9406C18.4989 67.5842 20.2857 64.623 22.8677 63.5893C25.3458 62.5979 28.0448 63.6152 28.5256 63.8138C28.575 63.8342 28.6009 63.8459 28.6009 63.8459C28.6009 63.8459 27.3213 66.9064 24.5892 67.9968Z" fill="#FF5555"/>
<g opacity="0.6">
<path opacity="0.6" d="M28.7296 63.975C28.7296 63.975 28.6527 64.1616 28.4937 64.4579C27.5739 64.1357 25.2977 63.5175 23.1816 64.3643C21.1052 65.1953 19.543 67.2732 18.9025 68.2392C18.5844 68.163 18.3989 68.1049 18.3989 68.1049C18.3989 68.1049 18.4066 68.0922 18.4197 68.0697C18.6274 67.7141 20.4144 64.7521 22.9964 63.7192C25.4745 62.7275 28.1728 63.7451 28.6535 63.9434C28.7037 63.9639 28.7296 63.975 28.7296 63.975Z" fill="white"/>
</g>
<g opacity="0.35">
<path opacity="0.35" d="M24.5892 67.9968C21.8389 69.0955 18.271 67.9752 18.271 67.9752C18.271 67.9752 18.2779 67.9625 18.2915 67.9405L28.5256 63.8137C28.575 63.8342 28.6009 63.8459 28.6009 63.8459C28.6009 63.8459 27.3213 66.9064 24.5892 67.9968Z" fill="#371A45"/>
</g>
<path d="M21.7581 68.9726C19.8436 68.9726 18.2287 68.4754 18.1278 68.4438L17.5518 68.2624L17.8501 67.7318C17.929 67.5916 19.8154 64.2828 22.691 63.1325C25.5785 61.9773 28.6682 63.3383 28.7983 63.3969L29.2337 63.5926L29.0483 64.0363C28.993 64.169 27.6568 67.2995 24.7682 68.4531C23.7946 68.8424 22.7371 68.9726 21.7581 68.9726ZM19.0404 67.6673C20.1479 67.9182 22.515 68.2984 24.4116 67.5408C26.3083 66.7832 27.4683 64.9707 27.9272 64.1159C27.0131 63.8103 24.9382 63.2891 23.0472 64.0459C21.1457 64.8064 19.6784 66.7189 19.0404 67.6673Z" fill="#371A45"/>
<g opacity="0.25">
<path opacity="0.25" d="M38.2544 57.9853C38.6363 58.5397 41.2741 63.0436 39.1508 64.8335C37.2924 66.4014 33.8626 66.1437 32.0561 63.6791C30.8618 62.0486 30.6195 60.1689 30.6874 58.7312C30.7673 57.0517 31.0644 55.4494 30.2363 54.1918C29.795 53.5195 29.0676 52.9218 28.2334 52.2583C28.425 52.1232 28.6214 51.9872 28.8225 51.8521C30.9975 50.3825 33.6707 48.9233 36.9197 47.6792C37.5539 47.9884 38.1612 48.3857 38.6716 48.8974C40.6843 50.919 40.7399 54.9738 39.3737 56.6178C38.8348 57.265 38.2544 57.9853 38.2544 57.9853Z" fill="#371A45"/>
</g>
<path d="M39.4679 56.7584C39.8498 57.313 42.4879 61.8167 40.3643 63.6066C38.5056 65.1744 35.0758 64.9168 33.2683 62.4522C32.0742 60.8216 31.8317 58.9423 31.8996 57.5043C31.9795 55.8248 32.2766 54.2225 31.4485 52.9652C30.5065 51.5321 26.8308 50.9971 25.0026 48.8759C23.9248 47.6272 23.3477 45.3585 23.4458 42.5798C23.4796 41.6873 23.5738 40.7982 23.7276 39.9187C24.4063 35.9904 26.305 31.472 29.8014 27.4712C29.8014 27.4712 31.1909 33.0956 32.647 38.0919C33.6615 41.5751 34.709 44.753 35.3383 45.5047C35.4218 45.6055 35.4984 45.6618 35.5663 45.6716C36.3993 45.7878 37.2112 46.0259 37.9765 46.3784C38.6649 46.6972 39.3306 47.1168 39.8823 47.6689C41.8947 49.6906 41.9505 53.7456 40.5841 55.3896C40.0475 56.0383 39.4679 56.7584 39.4679 56.7584Z" fill="white"/>
<g opacity="0.25">
<path opacity="0.25" d="M41.043 62.5797C40.9205 62.9814 40.685 63.3382 40.3653 63.6066C38.5066 65.1744 35.0768 64.9168 33.2693 62.4522C32.0752 60.8229 31.8327 58.9423 31.9005 57.5043C31.9804 55.8248 32.2763 54.2225 31.4495 52.9662C30.5075 51.5334 26.8318 50.9963 25.0022 48.8772C23.9265 47.6282 23.3487 45.3575 23.4468 42.579C23.4468 42.5668 23.4481 42.553 23.4481 42.5411C23.4516 42.4478 23.4565 42.3545 23.4614 42.2602C23.4662 42.1741 23.4711 42.087 23.477 41.9986C23.4796 41.9595 23.4819 41.9191 23.4855 41.8784C23.5013 41.671 23.5195 41.4614 23.5426 41.2491C23.5536 41.1485 23.5656 41.0467 23.5777 40.9438C23.5861 40.8725 23.5959 40.8002 23.6056 40.7278C23.6128 40.6677 23.6215 40.6076 23.6312 40.5464C23.6445 40.4518 23.6591 40.3575 23.6735 40.2613C23.6906 40.1532 23.7088 40.0441 23.727 39.935C23.727 39.9288 23.7293 39.9226 23.7306 39.9163C23.7886 39.8493 23.8501 39.7855 23.9147 39.7251C23.9147 39.7251 24.281 39.8933 25.0629 40.098C26.3057 40.4243 28.5975 40.8463 32.1395 40.8414L32.0837 38.9827C32.078 38.7934 32.1291 38.6068 32.2302 38.4474C32.3312 38.2881 32.4776 38.1633 32.65 38.0896C32.7337 38.0533 32.8224 38.0301 32.913 38.0209L35.1134 37.783L38.2945 45.577L35.3414 45.5034L33.1202 45.4482C32.8895 45.4333 32.6726 45.3319 32.5118 45.1638C32.3511 44.9957 32.258 44.773 32.2509 44.5392L32.223 43.6061C30.2798 44.0467 27.0633 44.1618 24.9818 43.4675C25.137 45.4083 25.6715 46.9763 26.5008 47.9382C28.3291 50.0594 31.0702 48.9208 32.925 51.1094C34.084 52.4786 33.4778 54.887 33.3979 56.5666C33.33 58.0043 32.7808 60.1133 33.9736 61.7425C35.5509 63.8987 38.9651 63.7072 41.043 62.5797Z" fill="#371A45"/>
</g>
<g opacity="0.25">
<path opacity="0.25" d="M47.1421 27.481C45.9452 29.146 44.3761 30.5009 42.5631 31.4352C40.8225 32.3262 38.9045 32.8052 36.9542 32.8361C35.0038 32.867 33.072 32.4489 31.3047 31.6135C29.6819 30.8424 27.7412 31.578 27.0018 33.2308C25.9381 35.6091 25.3139 37.9644 25.0624 40.0993C24.2804 39.8946 23.9141 39.7263 23.9141 39.7263C23.8495 39.7868 23.788 39.8506 23.73 39.9176C24.4087 35.9894 26.3074 31.471 29.8038 27.4701L29.8402 27.8467C30.3045 27.2052 30.6004 26.847 30.6004 26.847L42.1904 27.4458C42.1904 27.4458 42.2355 28.0639 42.3287 29.0895C43.7656 28.7054 45.5078 28.1681 47.1421 27.481Z" fill="#371A45"/>
</g>
<path d="M35.7999 45.5429C36.4294 45.5346 37.0621 45.6378 37.6722 45.8249C38.2823 46.012 38.876 46.2774 39.422 46.646C39.6976 46.8319 39.9579 47.0399 40.2004 47.2681C40.4449 47.5043 40.666 47.7641 40.8607 48.0438C41.2477 48.6011 41.5167 49.2213 41.7031 49.8555C41.8827 50.4889 41.9842 51.1424 42.0053 51.801C42.035 52.461 41.9778 53.1221 41.8353 53.7669C41.6867 54.4149 41.4534 55.067 41.0082 55.6406L39.8423 57.0682L39.8641 56.4775C39.9617 56.6221 40.037 56.7491 40.1161 56.8831C40.1953 57.0171 40.2675 57.1488 40.339 57.2828C40.4829 57.5512 40.6183 57.8234 40.7452 58.0995C41.0044 58.6559 41.2203 59.232 41.3912 59.8223C41.5569 60.4208 41.6785 61.0472 41.6632 61.711C41.6545 62.0415 41.6145 62.3821 41.5064 62.7174C41.3995 63.0607 41.2267 63.3792 40.998 63.6547L40.9109 63.7584C40.8807 63.7915 40.8469 63.8211 40.8151 63.8524C40.7501 63.9115 40.6848 63.982 40.6189 64.0263C40.486 64.1235 40.3572 64.2285 40.2191 64.3166C40.0772 64.3978 39.9374 64.4828 39.7927 64.5587L39.3462 64.7528C38.7423 64.9725 38.1046 65.0813 37.4629 65.0742C36.8267 65.0692 36.1954 64.9606 35.5932 64.7526C34.9895 64.5499 34.4283 64.2251 33.9284 63.8288C33.8031 63.7293 33.6758 63.6321 33.5659 63.515C33.4561 63.3978 33.3334 63.2941 33.2291 63.1728L32.9269 62.8007C32.827 62.6757 32.7448 62.543 32.6534 62.4142C32.3131 61.8844 32.0394 61.3138 31.8386 60.7155C31.6434 60.121 31.5146 59.5063 31.4544 58.8828C31.4227 58.5735 31.4073 58.2627 31.4081 57.9518C31.4065 57.7963 31.4124 57.6407 31.4178 57.4852L31.4434 57.0358C31.4811 56.4397 31.5325 55.8609 31.5336 55.3024C31.5346 54.7438 31.4823 54.2075 31.303 53.7426C31.2832 53.6836 31.2592 53.6261 31.2311 53.5707C31.2029 53.516 31.1816 53.4572 31.1489 53.4054L31.0549 53.2467C31.0251 53.2018 30.993 53.1585 30.9586 53.1171C30.8164 52.9494 30.6189 52.7901 30.3984 52.6457C29.9527 52.3569 29.4338 52.1151 28.9095 51.8736C27.8594 51.391 26.7491 50.9164 25.7382 50.1888C25.2359 49.8216 24.7595 49.3952 24.375 48.8566C23.9965 48.3261 23.7329 47.7434 23.5334 47.1527C23.3409 46.5653 23.198 45.9623 23.1064 45.3503C23.0219 44.7461 22.9725 44.1373 22.9584 43.5272C22.9364 42.3121 23.0437 41.1043 23.2401 39.9157C23.6479 37.5402 24.4229 35.2441 25.4774 33.0946C26.0153 32.026 26.5637 30.9569 27.2414 29.9694C27.924 28.9888 28.6977 28.062 29.6846 27.3604C29.715 27.3387 29.7518 27.3281 29.7889 27.3301C29.8261 27.3321 29.8615 27.3466 29.8895 27.3714C29.9175 27.3962 29.9365 27.4298 29.9434 27.4668C29.9503 27.5038 29.9448 27.5421 29.9276 27.5755V27.5771C29.3759 28.6444 28.7205 29.5837 28.0999 30.5559C27.4747 31.5209 26.8467 32.4905 26.3467 33.5314C25.3309 35.6012 24.5864 37.8116 24.197 40.081C24.0096 41.2158 23.9081 42.365 23.9289 43.5065C23.9419 44.0745 23.9879 44.6413 24.0664 45.2039C24.1488 45.7573 24.2774 46.3027 24.4506 46.8342C24.6261 47.3567 24.8563 47.8564 25.1611 48.282C25.459 48.7019 25.8626 49.0704 26.3029 49.3911C27.1942 50.0349 28.2439 50.4929 29.3096 50.9796C29.8436 51.2269 30.3879 51.4752 30.9247 51.8217C31.1916 51.9977 31.4595 52.2027 31.6977 52.4819C31.7574 52.5533 31.8132 52.6279 31.8647 52.7056L31.9956 52.9259C32.0399 52.999 32.0725 53.0783 32.1098 53.1545C32.1474 53.2305 32.1803 53.3088 32.2082 53.389C32.3258 53.6996 32.4059 54.0234 32.4467 54.3535C32.4878 54.6679 32.5071 54.9849 32.5043 55.3021C32.5025 55.9223 32.4482 56.5174 32.4121 57.0975L32.3865 57.5303C32.3819 57.6698 32.3765 57.8092 32.3778 57.9484C32.3772 58.2267 32.3911 58.5048 32.4193 58.7817C32.4724 59.332 32.5861 59.8745 32.7581 60.3993C33.1108 61.4324 33.6968 62.408 34.5313 63.0552C34.9454 63.3828 35.4095 63.6544 35.9144 63.8224C36.416 63.9949 36.9416 64.0852 37.4714 64.0899C37.9967 64.0968 38.5191 64.009 39.014 63.8307L39.3698 63.6752C39.4833 63.6145 39.5924 63.5474 39.7048 63.4849C39.8124 63.416 39.9097 63.3338 40.014 63.2602C40.0703 63.2236 40.1018 63.1824 40.1459 63.1436C40.1661 63.1239 40.1884 63.1057 40.2073 63.0847L40.2611 63.0194C40.5526 62.677 40.6901 62.2022 40.6965 61.6843C40.7101 61.168 40.6105 60.6232 40.4614 60.0898C40.3043 59.549 40.1063 59.0213 39.869 58.5114C39.7504 58.254 39.6239 57.9995 39.4899 57.7499C39.4233 57.6247 39.3539 57.5018 39.2837 57.38C39.2136 57.2582 39.1382 57.1358 39.0717 57.0374L38.8634 56.7284L39.0939 56.4464L40.2529 55.0258C40.5636 54.6282 40.7708 54.0984 40.8891 53.5484C41.1245 52.4414 41.0467 51.2393 40.7134 50.1544C40.5439 49.6124 40.3136 49.0933 40.0073 48.6368C39.8557 48.4095 39.6843 48.1965 39.495 48.0003C39.3005 47.7993 39.0902 47.6146 38.8662 47.4479C38.4033 47.1043 37.9105 46.8038 37.394 46.5501C36.8705 46.2909 36.3219 46.0696 35.7504 45.863H35.7492C35.713 45.8498 35.6826 45.8242 35.6632 45.7907C35.6437 45.7571 35.6365 45.7178 35.6428 45.6794C35.6492 45.6411 35.6686 45.6062 35.6977 45.5808C35.7268 45.5554 35.7638 45.5412 35.8022 45.5406L35.7999 45.5429Z" fill="#371A45"/>
<path d="M31.9439 54.6497C31.8561 54.6493 31.7715 54.6168 31.7056 54.5582C31.6397 54.4996 31.597 54.4189 31.5853 54.3309C31.0195 50.0957 33.4978 48.0935 34.5897 47.4292C36.3997 46.3282 38.5809 46.2253 39.8941 47.1794C39.9335 47.2073 39.967 47.2429 39.9927 47.284C40.0184 47.3252 40.0358 47.3711 40.0439 47.419C40.0519 47.467 40.0505 47.5162 40.0397 47.5636C40.0288 47.611 40.0088 47.6558 39.9808 47.6954C39.9527 47.7349 39.9172 47.7684 39.8763 47.794C39.8353 47.8195 39.7898 47.8366 39.7423 47.8442C39.6947 47.8519 39.6462 47.8499 39.5995 47.8384C39.5527 47.8269 39.5087 47.8061 39.4699 47.7773C38.4029 47.0021 36.5083 47.121 34.9644 48.0603C33.996 48.6495 31.7981 50.4304 32.306 54.2324C32.3125 54.2803 32.3096 54.3291 32.2974 54.3759C32.2853 54.4227 32.2641 54.4666 32.2352 54.5051C32.2062 54.5437 32.17 54.576 32.1287 54.6004C32.0874 54.6247 32.0417 54.6406 31.9943 54.6471C31.9776 54.6492 31.9607 54.65 31.9439 54.6497Z" fill="#371A45"/>
<path d="M40.1348 56.6967C40.0836 56.7459 40.049 56.7744 40.0067 56.812C39.9645 56.8496 39.9245 56.8786 39.883 56.9107C39.8006 56.9755 39.7145 57.0333 39.6269 57.0901C39.4523 57.2023 39.2703 57.3023 39.0821 57.3892C38.7008 57.5655 38.2947 57.6808 37.8783 57.7311C37.4601 57.7772 37.0244 57.7593 36.6251 57.6194C36.2266 57.4846 35.8705 57.2456 35.6216 56.9271C36.0191 56.997 36.3743 57.051 36.7229 57.0336C36.8924 57.0306 37.0614 57.0157 37.2288 56.989C37.3945 56.9665 37.558 56.9301 37.7177 56.8802C38.0403 56.7816 38.3519 56.6493 38.6475 56.4854C38.7989 56.4077 38.9441 56.3167 39.0901 56.228L39.3039 56.0886L39.5004 55.9546L39.5304 55.9344C39.6312 55.8659 39.7537 55.8383 39.8737 55.8568C39.9937 55.8754 40.1025 55.9388 40.1785 56.0346C40.2545 56.1304 40.2922 56.2515 40.2842 56.3741C40.2763 56.4967 40.2231 56.6118 40.1353 56.6967H40.1348Z" fill="#371A45"/>
<path d="M49.4166 21.6398C49.3824 21.642 49.348 21.6374 49.3155 21.6261C49.283 21.6149 49.253 21.5973 49.2272 21.5743C49.2014 21.5514 49.1804 21.5235 49.1652 21.4923C49.1501 21.4611 49.1412 21.4272 49.139 21.3925L48.6582 13.7838C48.6539 13.7138 48.6772 13.6449 48.723 13.5922C48.7688 13.5395 48.8334 13.5074 48.9026 13.5028C49.6289 13.4559 50.3438 13.7028 50.8902 14.1893C51.4366 14.6757 51.7697 15.3618 51.8163 16.0968L51.9802 18.6915C52.0266 19.4265 51.7826 20.15 51.3018 20.7029C50.821 21.2558 50.1429 21.5928 49.4166 21.6398Z" fill="white"/>
<path d="M49.4001 21.6929C49.3204 21.6927 49.2438 21.6619 49.1857 21.6068C49.1276 21.5517 49.0923 21.4763 49.0871 21.3958L48.6066 13.7871C48.6013 13.7032 48.6292 13.6205 48.6841 13.5574C48.739 13.4942 48.8164 13.4556 48.8993 13.4502C49.6393 13.4031 50.3675 13.655 50.9241 14.1507C51.4807 14.6463 51.8202 15.3452 51.8681 16.0939L52.032 18.6884C52.0555 19.0592 52.0066 19.4311 51.888 19.7829C51.7694 20.1346 51.5835 20.4592 51.3409 20.7382C51.0982 21.0172 50.8037 21.2451 50.474 21.4088C50.1444 21.5726 49.786 21.669 49.4195 21.6926L49.4001 21.6929ZM49.0817 13.551C49.0233 13.551 48.9649 13.5528 48.906 13.5567C48.8506 13.5603 48.7988 13.586 48.7621 13.6282C48.7255 13.6704 48.7068 13.7256 48.7103 13.7817L49.1911 21.3891C49.1927 21.4169 49.1998 21.4441 49.2119 21.4692C49.224 21.4942 49.2408 21.5166 49.2615 21.535C49.2822 21.5534 49.3062 21.5675 49.3323 21.5765C49.3583 21.5855 49.3859 21.5892 49.4134 21.5874C50.1259 21.5413 50.7912 21.2106 51.2628 20.6682C51.7345 20.1257 51.9739 19.4159 51.9283 18.6948L51.7644 16.1001C51.7208 15.4098 51.4193 14.7621 50.9211 14.2885C50.4229 13.8148 49.7653 13.5507 49.0817 13.5497V13.551Z" fill="#371A45"/>
<g opacity="0.35">
<path opacity="0.35" d="M51.9037 17.4749L51.9805 18.693C52.0267 19.428 51.7826 20.1515 51.3018 20.7044C50.821 21.2573 50.143 21.5944 49.4167 21.6416C49.3474 21.646 49.2792 21.6223 49.2271 21.5759C49.175 21.5294 49.1432 21.4639 49.1388 21.3938L49.0107 19.3721C49.0342 19.4173 49.07 19.4547 49.1138 19.4798C49.1577 19.5049 49.2078 19.5166 49.2582 19.5136L49.4375 19.5014C50.0056 19.4645 50.5483 19.2496 50.9902 18.8864C51.4321 18.5233 51.7514 18.0299 51.9037 17.4749Z" fill="#371A45"/>
</g>
<path d="M49.3994 22.1311C49.2098 22.1307 49.0274 22.0574 48.8892 21.9261C48.751 21.7948 48.6672 21.6152 48.6548 21.4238L48.1743 13.8151C48.1619 13.6152 48.2284 13.4185 48.3591 13.2681C48.4899 13.1178 48.6743 13.0261 48.8718 13.0131C49.2949 12.9857 49.7193 13.0429 50.1206 13.1815C50.522 13.3201 50.8924 13.5373 51.2107 13.8207C51.5291 14.1042 51.7891 14.4483 51.976 14.8335C52.163 15.2187 52.273 15.6374 52.3 16.0656L52.464 18.6601C52.491 19.0884 52.4344 19.5178 52.2975 19.924C52.1605 20.3301 51.9458 20.705 51.6656 21.0272C51.3855 21.3494 51.0454 21.6125 50.6647 21.8017C50.284 21.9908 49.8703 22.1022 49.447 22.1296C49.4314 22.1306 49.4153 22.1311 49.3994 22.1311ZM49.1571 13.988L49.6079 21.1234C50.1607 21.0308 50.6598 20.7339 51.0086 20.2902C51.3575 19.8466 51.5312 19.2876 51.496 18.7218L51.3321 16.127C51.2963 15.561 51.0538 15.0287 50.6519 14.6334C50.25 14.2381 49.7172 14.0081 49.1571 13.988Z" fill="#371A45"/>
<path d="M24.0853 15.1082C24.1196 15.106 24.1539 15.1106 24.1864 15.1219C24.2189 15.1331 24.2489 15.1507 24.2747 15.1736C24.3005 15.1966 24.3216 15.2245 24.3367 15.2557C24.3518 15.2869 24.3607 15.3208 24.3629 15.3555L24.8437 22.9642C24.8459 22.9989 24.8413 23.0336 24.8302 23.0665C24.8191 23.0994 24.8017 23.1298 24.779 23.1559C24.7563 23.182 24.7288 23.2033 24.6979 23.2186C24.6671 23.2339 24.6336 23.2429 24.5993 23.2451C23.873 23.2921 23.158 23.0453 22.6116 22.5588C22.0652 22.0724 21.7321 21.3862 21.6856 20.6512L21.5217 18.0567C21.4753 17.3217 21.7193 16.5982 22.2001 16.0452C22.6809 15.4923 23.359 15.1552 24.0853 15.1082Z" fill="white"/>
<path d="M24.4199 23.3038C23.7099 23.3026 23.0269 23.0282 22.5095 22.5363C21.9921 22.0443 21.6789 21.3716 21.6335 20.6546L21.4696 18.0599C21.4461 17.689 21.4951 17.3171 21.6137 16.9655C21.7323 16.6138 21.9182 16.2892 22.1609 16.0102C22.4035 15.7313 22.698 15.5034 23.0276 15.3396C23.3573 15.1759 23.7156 15.0795 24.0821 15.0559C24.165 15.0507 24.2466 15.079 24.309 15.1345C24.3714 15.19 24.4095 15.2683 24.415 15.3522L24.8955 22.9609C24.9008 23.0448 24.8729 23.1275 24.818 23.1906C24.7632 23.2538 24.6857 23.2924 24.6028 23.2978C24.5413 23.3017 24.4804 23.3038 24.4199 23.3038ZM24.0869 15.1609C23.7341 15.1837 23.3892 15.2766 23.0719 15.4343C22.7546 15.5921 22.4711 15.8115 22.2376 16.0801C22.0041 16.3487 21.8251 16.6612 21.711 16.9998C21.5968 17.3384 21.5497 17.6964 21.5723 18.0534L21.7362 20.6479C21.7587 21.0049 21.8505 21.354 22.0064 21.6751C22.1622 21.9962 22.379 22.2832 22.6445 22.5195C22.9099 22.7558 23.2187 22.9369 23.5533 23.0525C23.8879 23.168 24.2418 23.2157 24.5946 23.1928C24.6221 23.1911 24.6489 23.1838 24.6736 23.1715C24.6983 23.1593 24.7204 23.1422 24.7385 23.1213C24.7567 23.1003 24.7706 23.076 24.7795 23.0496C24.7884 23.0233 24.792 22.9954 24.7903 22.9676L24.3095 15.3589C24.3078 15.3311 24.3007 15.3039 24.2886 15.2788C24.2765 15.2538 24.2596 15.2315 24.2389 15.2131C24.2182 15.1947 24.1942 15.1806 24.1681 15.1716C24.142 15.1627 24.1144 15.159 24.0869 15.1609Z" fill="#371A45"/>
<g opacity="0.35">
<path opacity="0.35" d="M24.7105 20.8534L24.8437 22.9642C24.8479 23.0343 24.8246 23.1033 24.7787 23.156C24.7328 23.2087 24.6681 23.2409 24.5988 23.2454C24.2392 23.2688 23.8786 23.2202 23.5375 23.1025C23.1965 22.9847 22.8817 22.8002 22.6112 22.5593C22.3407 22.3184 22.1197 22.026 21.9609 21.6987C21.802 21.3714 21.7085 21.0156 21.6856 20.6517L21.6167 19.5585C21.8647 20.0296 22.2415 20.4184 22.7021 20.6784C23.1628 20.9385 23.6877 21.0587 24.2141 21.0247L24.4884 21.0068C24.5356 21.0037 24.5811 20.9878 24.6201 20.9608C24.6592 20.9338 24.6904 20.8967 24.7105 20.8534Z" fill="#371A45"/>
</g>
<path d="M24.4216 23.7418C23.6016 23.7403 22.8128 23.4236 22.2149 22.8557C21.6171 22.2879 21.2547 21.5114 21.2013 20.6834L21.0373 18.0887C20.9827 17.2238 21.2699 16.3725 21.8356 15.7219C22.4012 15.0713 23.1991 14.6747 24.0537 14.6194C24.2513 14.6067 24.4457 14.6739 24.5943 14.8062C24.7429 14.9385 24.8335 15.1251 24.8462 15.325L25.327 22.9337C25.3396 23.1336 25.2732 23.3305 25.1424 23.4809C25.0116 23.6314 24.8271 23.7231 24.6295 23.7359C24.5604 23.7398 24.491 23.7418 24.4216 23.7418ZM23.8934 15.6235C23.3406 15.7162 22.8415 16.0131 22.4926 16.4568C22.1438 16.9006 21.9701 17.4595 22.0052 18.0254L22.1692 20.6199C22.2049 21.186 22.4473 21.7184 22.8493 22.1137C23.2512 22.509 23.784 22.739 24.3442 22.759L23.8934 15.6235Z" fill="#371A45"/>
<path d="M45.8312 27.5608C50.8451 22.487 50.8451 14.2608 45.8312 9.18695C40.8172 4.11314 32.6881 4.11314 27.6742 9.18695C22.6603 14.2608 22.6603 22.487 27.6742 27.5608C32.6881 32.6347 40.8173 32.6347 45.8312 27.5608Z" fill="white"/>
<path d="M36.7536 31.4189H36.6601C29.5521 31.3671 23.8109 25.4739 23.8617 18.2812C23.9129 11.1204 29.686 5.32959 36.7508 5.32959H36.8443C40.2876 5.35551 43.5151 6.73465 45.9324 9.2174C48.3498 11.7002 49.6673 14.9841 49.6427 18.4686C49.592 25.6279 43.8184 31.4189 36.7536 31.4189ZM36.7495 5.43352C33.3686 5.43352 30.1855 6.75538 27.7753 9.15831C25.3421 11.5846 23.99 14.8244 23.9657 18.2817C23.9413 21.739 25.2483 24.997 27.6462 27.457C30.0441 29.9169 33.2454 31.2875 36.6619 31.3121C40.0784 31.3367 43.2977 30.0144 45.7301 27.5879C48.1625 25.1613 49.5154 21.9217 49.5398 18.4644C49.5641 15.0071 48.2571 11.7492 45.8595 9.2892C43.4618 6.82925 40.259 5.45944 36.8435 5.43352H36.7495Z" fill="#371A45"/>
<g opacity="0.35">
<path opacity="0.35" d="M49.4806 16.6675C49.5588 17.264 49.5958 17.8653 49.5912 18.467C49.54 25.6421 43.7515 31.4171 36.6604 31.3663C29.5692 31.3155 23.8635 25.4568 23.9134 18.2812C23.9147 18.0738 23.9211 17.8683 23.9321 17.6651C24.7517 23.9955 30.081 28.9035 36.5687 28.9506C43.4539 29.0001 49.1128 23.5544 49.4806 16.6675Z" fill="#371A45"/>
</g>
<path d="M36.7551 31.8569H36.6573C33.0984 31.831 29.7626 30.4055 27.2641 27.8395C24.7655 25.2735 23.4035 21.8782 23.4291 18.2776C23.4547 14.6769 24.8634 11.3005 27.399 8.7721C29.9347 6.24373 33.2913 4.86329 36.8476 4.89129C40.4039 4.91928 43.7426 6.34274 46.2408 8.9087C48.7391 11.4747 50.1014 14.8679 50.0758 18.4706C50.0502 22.0734 48.6415 25.4477 46.1059 27.9761C43.595 30.4809 40.2779 31.8569 36.7551 31.8569ZM36.75 5.87257C33.4839 5.87257 30.408 7.14829 28.0796 9.47113C25.7299 11.8152 24.4236 14.9457 24.398 18.2845C24.3724 21.6234 25.6374 24.7723 27.9538 27.1503C30.2702 29.5284 33.3635 30.8513 36.6622 30.8751C39.9662 30.8948 43.0733 29.6212 45.4233 27.2768C47.7732 24.9325 49.0805 21.8025 49.1041 18.4644C49.1276 15.1263 47.8647 11.9764 45.5483 9.59839C43.2318 7.22035 40.1386 5.89771 36.8399 5.87387L36.75 5.87257Z" fill="#371A45"/>
<path d="M49.5481 18.8003C49.5681 21.3424 48.771 23.7094 47.3918 25.6735C46.3576 27.1459 42.0792 29.7427 36.7717 29.834C31.8507 29.9182 27.3521 27.2991 26.2948 25.8425C24.8861 23.9009 24.0506 21.5472 24.0306 19.0048C23.9779 12.2771 29.6678 9.44081 36.7146 9.38534C43.7614 9.32988 49.4951 12.0726 49.5481 18.8003Z" fill="#371A45"/>
<path d="M36.5334 30.1287C31.5489 30.1287 27.1491 27.5145 26.0614 26.0167C24.5633 23.9538 23.7608 21.5301 23.7411 19.008C23.7155 15.7238 24.9961 13.1812 27.549 11.4511C29.7796 9.93899 32.9481 9.12384 36.7119 9.09248C40.4757 9.06112 43.6566 9.82624 45.9107 11.3023C48.4902 12.9912 49.8111 15.5126 49.8369 18.797C49.8569 21.3191 49.0926 23.7552 47.6271 25.842C46.6115 27.2882 42.3859 30.0294 36.7765 30.1256C36.6953 30.1282 36.6154 30.1287 36.5334 30.1287ZM36.9061 9.67876C36.8415 9.67876 36.778 9.67876 36.7165 9.67876C32.9673 9.70883 24.2541 10.6779 24.3199 19.003C24.3389 21.4013 25.1024 23.7065 26.5278 25.6696C27.5249 27.0433 31.8119 29.5426 36.5385 29.5429C36.6154 29.5429 36.6904 29.5429 36.767 29.5408C42.1037 29.4493 46.2291 26.8232 47.1558 25.5037C48.5504 23.5178 49.2775 21.2012 49.2586 18.8024C49.194 10.6152 40.7516 9.67824 36.9061 9.67824V9.67876Z" fill="#371A45"/>
<g opacity="0.7">
<path opacity="0.7" d="M47.0107 18.2002C47.2245 16.9489 46.6715 15.8074 45.7755 15.6507C44.8795 15.4939 43.9798 16.3812 43.766 17.6324C43.5522 18.8837 44.1052 20.0252 45.0012 20.1819C45.8972 20.3387 46.7969 19.4514 47.0107 18.2002Z" fill="white"/>
</g>
<g opacity="0.7">
<path opacity="0.7" d="M44.2683 22.769C44.444 22.2139 44.2048 21.6402 43.7341 21.4877C43.2634 21.3351 42.7394 21.6615 42.5637 22.2166C42.388 22.7717 42.6272 23.3454 43.0979 23.4979C43.5686 23.6505 44.0926 23.3241 44.2683 22.769Z" fill="white"/>
</g>
<g opacity="0.35">
<path opacity="0.35" d="M47.0162 12.5438C48.5878 14.0375 49.5263 16.0978 49.547 18.7998C49.567 21.3427 48.7697 23.7094 47.3912 25.6735C46.3567 27.1459 42.0781 29.7427 36.7706 29.8342C34.8968 29.8669 33.0847 29.5069 31.4995 28.9678C38.0213 28.7145 43.2327 25.5276 44.5149 23.7011C46.2658 21.2085 47.2772 18.204 47.2514 14.9781C47.248 14.1611 47.1692 13.3461 47.0162 12.5438Z" fill="#111A28"/>
</g>
<path d="M25.3289 13.5624L24.5677 12.9546L24.9263 13.2441L24.5454 12.9867C26.7993 9.57164 31.2047 7.58782 36.6287 7.54376C42.0195 7.50281 46.4438 9.34719 48.7884 12.6109C48.8613 12.7071 48.8963 12.8273 48.8868 12.9482C48.8773 13.0691 48.8239 13.1821 48.7369 13.2655C48.6499 13.3488 48.5354 13.3967 48.4156 13.3997C48.2958 13.4027 48.1792 13.3608 48.0882 13.2819C48.0588 13.2563 48.0325 13.2274 48.0095 13.1959C45.8529 10.187 41.7062 8.48228 36.6357 8.52556C31.5369 8.56651 27.4238 10.3917 25.3509 13.5318C25.344 13.5424 25.3366 13.5525 25.3289 13.5624Z" fill="#371A45"/>
<g opacity="0.7">
<path opacity="0.7" d="M26.9273 22.985C26.9273 22.985 24.816 16.3646 28.3298 13.6913C31.8437 11.0181 36.9291 10.988 36.8128 11.319C36.8128 11.319 31.1939 12.7445 29.0265 17.265C27.3553 20.7516 26.9273 22.985 26.9273 22.985Z" fill="white"/>
</g>
<path d="M44.854 37.4152L45.2013 40.1282L45.472 42.2382C45.5076 42.5146 45.4384 42.7944 45.2782 43.0211C45.118 43.2478 44.8788 43.4047 44.6088 43.46C44.2482 43.5347 43.8 43.6217 43.2844 43.7119C41.4493 44.0323 38.7494 44.3905 36.036 44.3485C35.7551 44.3434 35.487 44.2288 35.2876 44.0285C35.0883 43.8281 34.9731 43.5576 34.9661 43.2734L34.826 37.6721C34.8222 37.5226 34.8485 37.374 34.9033 37.2351C34.9581 37.0962 35.0402 36.9701 35.1446 36.8644C35.2491 36.7586 35.3737 36.6755 35.5109 36.6201C35.6481 36.5646 35.7951 36.538 35.9428 36.5418C37.8279 36.5908 41.5847 36.6537 43.6778 36.4588C43.9581 36.4331 44.2373 36.5184 44.4566 36.6968C44.676 36.8752 44.8184 37.1327 44.854 37.4152Z" fill="white"/>
<path d="M35.858 36.5431L33.6574 36.7805C33.4248 36.8057 33.2102 36.9188 33.0565 37.0972C32.9028 37.2757 32.8214 37.5063 32.8286 37.7429L32.9961 43.2999C33.0031 43.5339 33.0963 43.7568 33.2575 43.9249C33.4186 44.093 33.6359 44.1941 33.8669 44.2083L35.9 44.3379" fill="white"/>
<g opacity="0.25">
<path opacity="0.25" d="M35.858 36.5431L33.6574 36.7805C33.4248 36.8057 33.2102 36.9188 33.0565 37.0972C32.9028 37.2757 32.8214 37.5063 32.8286 37.7429L32.9961 43.2999C33.0031 43.5339 33.0963 43.7568 33.2575 43.9249C33.4186 44.093 33.6359 44.1941 33.8669 44.2083L35.9 44.3379" fill="#371A45"/>
</g>
<path d="M36.4816 44.7856C36.3305 44.7856 36.1792 44.7844 36.0278 44.7822C35.6359 44.7769 35.2614 44.6178 34.9832 44.3383C34.7051 44.0589 34.5452 43.6811 34.5371 43.2846L34.397 37.6828C34.3917 37.4746 34.4283 37.2675 34.5046 37.0742C34.5809 36.8808 34.6953 36.7051 34.8408 36.5579C34.9863 36.4106 35.1599 36.2949 35.351 36.2177C35.5421 36.1405 35.7467 36.1034 35.9524 36.1087C37.9441 36.1606 41.5908 36.2179 43.6363 36.0271C44.0272 35.9899 44.4171 36.1082 44.7233 36.3569C45.0296 36.6055 45.2282 36.9651 45.277 37.3593L45.8948 42.1823C45.9429 42.567 45.8459 42.9559 45.6231 43.2714C45.4004 43.5869 45.0683 43.8059 44.6931 43.8846C43.029 44.2278 39.8082 44.7856 36.4816 44.7856ZM35.9133 36.9747C35.8251 36.9748 35.7377 36.9927 35.6565 37.0274C35.5752 37.0622 35.5017 37.113 35.4401 37.177C35.3786 37.241 35.3303 37.3167 35.2982 37.3999C35.2661 37.483 35.2507 37.5718 35.253 37.661L35.3928 43.2628C35.3963 43.4354 35.4658 43.5999 35.5867 43.7217C35.7076 43.8435 35.8705 43.913 36.0411 43.9157C39.4437 43.9676 42.8164 43.3872 44.5233 43.0358C44.6868 43.0015 44.8316 42.906 44.9286 42.7684C45.0257 42.6307 45.0679 42.4612 45.0468 42.2935L44.429 37.4708C44.4081 37.2991 44.3219 37.1424 44.1887 37.034C44.0556 36.9255 43.8859 36.8739 43.7157 36.8899C41.6257 37.0846 37.941 37.0268 35.9307 36.9749H35.9133V36.9747Z" fill="#371A45"/>
<path d="M35.8991 44.7704C35.8899 44.7704 35.8809 44.7704 35.8717 44.7704L33.8385 44.6409C33.5009 44.621 33.183 44.4735 32.9477 44.2276C32.7124 43.9817 32.5769 43.6554 32.5681 43.3133L32.4004 37.7563C32.3913 37.4109 32.5108 37.0747 32.7352 36.8142C32.9596 36.5538 33.2725 36.3882 33.6119 36.3502L35.8125 36.1125C35.8684 36.1065 35.9249 36.1117 35.9789 36.1278C36.0328 36.1439 36.0831 36.1705 36.1268 36.2063C36.1705 36.242 36.2069 36.2861 36.2338 36.3361C36.2607 36.386 36.2776 36.4409 36.2835 36.4974C36.2895 36.554 36.2844 36.6112 36.2685 36.6658C36.2526 36.7203 36.2262 36.7712 36.1909 36.8155C36.1556 36.8597 36.112 36.8965 36.0626 36.9237C36.0133 36.9509 35.9591 36.9681 35.9032 36.9741L33.7028 37.2115C33.5777 37.2256 33.4624 37.2866 33.3797 37.3826C33.2971 37.4786 33.253 37.6026 33.2564 37.7299L33.4239 43.2869C33.4272 43.4129 33.4771 43.5332 33.5638 43.6238C33.6505 43.7144 33.7677 43.7688 33.8921 43.7762L35.9252 43.9058C36.0357 43.9135 36.1389 43.9641 36.2132 44.0472C36.2875 44.1302 36.3272 44.2391 36.3239 44.3511C36.3206 44.4631 36.2746 44.5694 36.1954 44.6478C36.1163 44.7262 36.0103 44.7705 35.8996 44.7715L35.8991 44.7704Z" fill="#371A45"/>
<path d="M40.5408 44.5802C40.4316 44.5802 40.3266 44.5379 40.2473 44.462C40.1679 44.3862 40.1202 44.2826 40.1138 44.1723L39.9502 41.3339L38.5299 40.3646C38.476 40.3277 38.431 40.2788 38.3985 40.2218C38.366 40.1647 38.3467 40.1009 38.3422 40.0351L38.1099 36.6167C38.1021 36.5021 38.1396 36.389 38.2142 36.3024C38.2888 36.2158 38.3944 36.1627 38.5077 36.1548C38.6209 36.147 38.7327 36.1849 38.8182 36.2604C38.9038 36.3359 38.9563 36.4427 38.9641 36.5573L39.182 39.7645L40.6046 40.7357C40.6592 40.7729 40.7046 40.8224 40.7372 40.8803C40.7698 40.9383 40.7888 41.003 40.7926 41.0695L40.9685 44.1217C40.9718 44.1785 40.964 44.2354 40.9456 44.2892C40.9271 44.3429 40.8984 44.3925 40.8611 44.435C40.8237 44.4775 40.7784 44.5121 40.7278 44.5369C40.6772 44.5617 40.6223 44.5762 40.5662 44.5795C40.5578 44.58 40.5493 44.5802 40.5408 44.5802Z" fill="#371A45"/>
<path d="M44.5343 40.0061C44.552 40.1779 44.4557 41.5907 44.4557 41.5907L43.4881 41.6926C42.8221 41.7626 42.2097 41.1224 42.1211 40.2601C42.0325 39.3978 42.501 38.6438 43.1674 38.5735L44.1353 38.4717C44.1353 38.4717 44.5046 39.7261 44.5343 40.0061Z" fill="#FF5555"/>
<path d="M44.5335 40.0061C44.5514 40.1779 44.4567 41.5907 44.4567 41.5907L44.4247 41.5938C44.4503 41.1861 44.4759 40.702 44.4649 40.6061C44.4367 40.3259 44.0663 39.0719 44.0663 39.0719L43.0987 39.1738C42.633 39.2223 42.2634 39.6067 42.1128 40.1274C42.0816 39.3223 42.536 38.6399 43.1681 38.5738L44.136 38.4719C44.136 38.4719 44.5041 39.7261 44.5335 40.0061Z" fill="white"/>
<path d="M43.3894 42.0658C42.579 42.0658 41.8626 41.304 41.7591 40.2981C41.65 39.2354 42.2647 38.2985 43.1294 38.2075L43.8051 38.1365C43.972 38.1185 44.1399 38.1607 44.2792 38.2555C44.4186 38.3502 44.5205 38.4916 44.5671 38.6549C44.8693 39.7108 44.8893 39.9039 44.8957 39.9674C44.901 40.0192 44.9131 40.1379 44.838 41.3139C44.8275 41.4848 44.7573 41.6463 44.6401 41.7697C44.5228 41.8931 44.366 41.9704 44.1977 41.9878L43.5256 42.0585C43.4804 42.0634 43.4349 42.0658 43.3894 42.0658ZM43.8712 38.8687L43.2052 38.9389C42.7473 38.9871 42.4166 39.5742 42.4829 40.2211C42.5493 40.8681 42.9934 41.3722 43.4506 41.3258L44.1132 41.2558C44.1644 40.4718 44.1765 40.112 44.1724 40.0407C44.1611 39.9456 44.0768 39.5887 43.8712 38.8687Z" fill="#371A45"/>
<path d="M44.4569 41.5883C45.1232 41.5182 45.5916 40.7631 45.503 39.9019C45.4145 39.0407 44.8025 38.3994 44.1362 38.4695C43.4699 38.5397 43.0015 39.2947 43.09 40.156C43.1786 41.0172 43.7905 41.6585 44.4569 41.5883Z" fill="#FF5555"/>
<path d="M45.5009 39.9055C45.5114 40.0075 45.514 40.1101 45.5086 40.2124C45.3247 39.5098 44.783 39.0235 44.1977 39.0847C43.6125 39.1459 43.1788 39.7376 43.1435 40.4649C43.1171 40.3645 43.0985 40.2623 43.0879 40.159C42.9993 39.298 43.4683 38.543 44.1347 38.4743C44.8011 38.4056 45.4123 39.0432 45.5009 39.9055Z" fill="white"/>
<path d="M44.353 41.9642C43.9665 41.9642 43.5949 41.7952 43.2934 41.4792C42.9791 41.1498 42.7778 40.6941 42.7266 40.1962C42.6754 39.6983 42.7799 39.2113 43.0204 38.8225C43.2788 38.406 43.6607 38.1515 44.0961 38.1056C44.5315 38.0598 44.958 38.2293 45.2953 38.5831C45.6098 38.9125 45.8111 39.3681 45.8621 39.8663C45.9133 40.3642 45.8091 40.8512 45.5683 41.24C45.3102 41.6565 44.928 41.911 44.4926 41.9569C44.4462 41.9618 44.3996 41.9642 44.353 41.9642ZM44.2336 38.8345C44.2132 38.8344 44.1928 38.8355 44.1724 38.8378C43.9637 38.8596 43.7734 38.9933 43.6366 39.2139C43.4829 39.4633 43.4156 39.7841 43.4502 40.1211C43.4847 40.458 43.6148 40.7574 43.8167 40.9689C43.996 41.1565 44.2093 41.248 44.4176 41.2255C44.6258 41.2029 44.8166 41.07 44.9534 40.8494C45.107 40.6003 45.1742 40.2792 45.1398 39.9422C45.1053 39.6071 44.9751 39.3059 44.7731 39.0944C44.6117 38.9252 44.4224 38.8345 44.2336 38.8345Z" fill="#371A45"/>
<path d="M23.913 38.5007C23.913 38.5007 26.8073 39.8265 33.6935 39.5872C33.6935 39.5872 34.955 40.8106 33.6935 41.8212C32.4321 42.8318 25.3325 43.4134 23.4359 41.3425C22.2351 40.0312 23.913 38.5007 23.913 38.5007Z" fill="white"/>
<g opacity="0.25">
<path opacity="0.25" d="M33.6935 41.8216C32.4325 42.8324 25.3329 43.4128 23.4355 41.3419C22.8646 40.7198 22.9445 40.0459 23.1871 39.5115C23.2561 39.6353 23.3395 39.7502 23.4355 39.8539C25.3329 41.9248 32.4325 41.3432 33.6935 40.3334C33.8138 40.2389 33.9213 40.1288 34.0134 40.006C34.2777 40.4513 34.4949 41.1788 33.6935 41.8216Z" fill="#371A45"/>
</g>
<path d="M28.6953 43.1712C27.0874 43.1712 24.3363 42.9638 23.1222 41.6371C22.738 41.2164 22.5536 40.7343 22.5772 40.2043C22.6261 39.104 23.5858 38.2163 23.6273 38.179L23.8353 37.9893L24.0896 38.1059C24.1334 38.1253 27.0256 39.386 33.6796 39.1543L33.8601 39.1481L33.9905 39.2746C34.0653 39.3474 34.7215 40.0094 34.6821 40.8675C34.6662 41.2066 34.5284 41.7063 33.9608 42.1609C33.1156 42.8387 30.6962 43.1595 28.807 43.1717L28.6953 43.1712ZM24.0233 39.0094C23.803 39.2629 23.4537 39.7416 23.4324 40.246C23.4201 40.5389 23.5241 40.8012 23.7503 41.0482C25.4873 42.9452 32.3633 42.3345 33.4281 41.4816C33.6842 41.276 33.8145 41.0619 33.8256 40.8266C33.8399 40.5218 33.6509 40.2084 33.509 40.0267C27.8527 40.2012 24.9069 39.3311 24.0233 39.0092V39.0094Z" fill="#371A45"/>
<g opacity="0.25">
<path opacity="0.25" d="M48.7004 48.7889C47.6639 50.0563 44.3396 51.2794 42.55 50.1444C41.0553 49.1974 41.0079 47.8405 39.9483 47.0601C39.8866 47.0147 39.6999 46.9323 39.415 46.8061C42.7703 45.7351 45.8415 45.1976 48.6046 45.0177C49.7951 46.5021 49.5587 47.7387 48.7004 48.7889Z" fill="#371A45"/>
</g>
<path d="M34.2544 32.7518C38.0036 37.4856 44.1896 40.3878 47.885 43.7619C49.9105 45.6112 49.5916 46.501 48.5814 47.7378C47.5457 49.0055 45.1124 50.2289 43.3231 49.0941C41.8284 48.1463 41.7351 47.2456 40.6761 46.4649C40.2581 46.1568 33.536 44.3518 29.8042 38.4661" fill="white"/>
<g opacity="0.25">
<path opacity="0.25" d="M48.5812 47.7386C47.5459 49.006 45.1127 50.2291 43.3231 49.0944C41.8284 48.1471 41.7351 47.2467 40.6753 46.4652C40.2583 46.1573 33.5357 44.3526 29.8042 38.4661L29.881 38.3679C34.0431 42.7956 38.3814 43.0608 41.2628 45.3048C42.3012 46.1135 42.3913 46.3817 43.8864 47.3288C45.6757 48.4638 48.1089 47.2404 49.1441 45.9733C49.2111 45.8921 49.2742 45.8123 49.3334 45.734C49.5038 46.4491 49.1534 47.038 48.5812 47.7386Z" fill="#371A45"/>
</g>
<path d="M34.3803 32.6501C35.1764 33.2187 35.8331 33.8649 36.5356 34.4841C37.2251 35.111 37.9338 35.7225 38.6492 36.3308C39.3771 36.9269 40.1309 37.4899 40.9031 38.0347C41.6715 38.5844 42.4547 39.1189 43.237 39.6577C44.0192 40.1966 44.8075 40.7346 45.5823 41.3015C45.7775 41.4399 45.9706 41.5832 46.1619 41.7294C46.3533 41.8756 46.5461 42.0176 46.7372 42.1659C47.1137 42.4696 47.4953 42.7654 47.858 43.092C48.2382 43.4117 48.5969 43.7568 48.9314 44.1251C49.0147 44.2243 49.099 44.321 49.1804 44.4229C49.2572 44.5317 49.3387 44.6359 49.4127 44.7497L49.519 44.9283L49.5715 45.018C49.5876 45.0493 49.6022 45.0833 49.6176 45.116L49.7067 45.314C49.7324 45.3832 49.7534 45.4578 49.7759 45.5299C49.8579 45.8204 49.8901 46.1571 49.8225 46.4663C49.7622 46.7563 49.6536 47.0338 49.5013 47.2869C49.3664 47.5114 49.2161 47.726 49.0516 47.9292C48.9775 48.0266 48.8887 48.1272 48.7988 48.2275C48.7089 48.3278 48.6138 48.4167 48.5201 48.5095C48.1393 48.8626 47.7145 49.1637 47.2564 49.405C46.7969 49.6514 46.3054 49.8311 45.7964 49.9389C45.2819 50.0447 44.7348 50.0685 44.1954 49.9589L43.9943 49.9117C43.9267 49.8983 43.8603 49.8788 43.7961 49.8534C43.668 49.8015 43.5338 49.7622 43.4119 49.6979C43.29 49.6336 43.1647 49.5667 43.0484 49.498C42.9424 49.4257 42.8343 49.3583 42.7306 49.2811C42.52 49.129 42.3197 48.9626 42.1313 48.7832C41.9453 48.6038 41.7706 48.413 41.608 48.2117C41.2883 47.8169 41.0335 47.439 40.7341 47.1539C40.6982 47.1156 40.6572 47.0834 40.6196 47.0485C40.5818 47.013 40.5422 46.9795 40.501 46.9481L40.4398 46.9002L40.4093 46.8761L40.3942 46.8639C40.3873 46.8582 40.3942 46.8652 40.3942 46.8639C40.3965 46.8665 40.3995 46.8684 40.4029 46.8694L40.3773 46.858C40.3568 46.8489 40.3414 46.8406 40.314 46.8297C40.115 46.7468 39.8863 46.6607 39.6658 46.5741C39.2201 46.3997 38.7734 46.2165 38.3324 46.0208C36.5679 45.2388 34.8723 44.2653 33.344 43.0528C32.9598 42.7529 32.5918 42.4308 32.2296 42.1034C31.8738 41.7683 31.5073 41.4427 31.1703 41.0853C30.9985 40.9096 30.8369 40.7239 30.6862 40.5294C30.6093 40.434 30.5325 40.3376 30.4639 40.2347C30.3952 40.1318 30.323 40.0325 30.2561 39.9288C30.1237 39.7194 30.0062 39.5006 29.9047 39.2741C29.8037 39.042 29.7249 38.8006 29.6694 38.5533C29.6622 38.5194 29.6651 38.4841 29.6779 38.452C29.6906 38.4198 29.7126 38.3922 29.7409 38.3727C29.7692 38.3532 29.8027 38.3428 29.8369 38.3426C29.8712 38.3425 29.9047 38.3527 29.9332 38.3719L29.9414 38.3773C30.1532 38.5212 30.3256 38.6855 30.502 38.8465C30.6785 39.0074 30.8368 39.1772 30.9997 39.3436C31.0801 39.4273 31.1577 39.5131 31.234 39.5997C31.3104 39.6862 31.3916 39.7692 31.4679 39.8557C31.5442 39.9423 31.6216 40.0265 31.6984 40.1149C31.7752 40.2033 31.8536 40.2857 31.9289 40.3741C32.2302 40.7258 32.5493 41.0614 32.8848 41.3798C33.2267 41.6921 33.5763 41.9961 33.9421 42.2817C35.3956 43.4351 37.0197 44.3695 38.7219 45.1237C39.1481 45.3127 39.5789 45.4894 40.0162 45.6608C40.2369 45.7476 40.4516 45.8279 40.691 45.9272C40.7187 45.9381 40.7566 45.956 40.7902 45.9713C40.8089 45.9803 40.8209 45.985 40.8452 45.9972C40.8742 46.013 40.9029 46.0298 40.9308 46.0475C40.9428 46.0552 40.9633 46.0679 40.9677 46.0718L40.9876 46.0874L41.0271 46.1185L41.1062 46.1807C41.2111 46.2643 41.3117 46.3531 41.4077 46.4469C41.7973 46.8232 42.0764 47.2449 42.3582 47.5886C42.6296 47.9285 42.9453 48.2296 43.2966 48.4836C43.3835 48.5486 43.4777 48.6064 43.5676 48.6684L43.8281 48.8112C43.9152 48.8576 44.0115 48.8822 44.1019 48.9206C44.1475 48.94 44.1952 48.954 44.2441 48.9623L44.3888 48.9963C44.7786 49.074 45.1953 49.0616 45.6067 48.9768C46.4291 48.8045 47.2359 48.3701 47.8642 47.7884C47.9389 47.7133 48.0217 47.643 48.0872 47.5627C48.1528 47.4823 48.2263 47.4072 48.2965 47.3157C48.4323 47.1486 48.5566 46.9722 48.6684 46.7877C48.7643 46.6319 48.8336 46.4609 48.8733 46.2818C48.9104 46.1211 48.891 45.9658 48.8477 45.7984C48.7522 45.4638 48.5068 45.1058 48.213 44.7788C47.9061 44.4421 47.5773 44.1267 47.2287 43.8345C46.8842 43.5235 46.5133 43.2366 46.1499 42.9432C45.9652 42.7991 45.7757 42.6596 45.589 42.5176C45.4023 42.3756 45.2137 42.2351 45.0214 42.0985C44.2617 41.5425 43.4775 41.0099 42.697 40.4695C41.9166 39.9291 41.1275 39.3939 40.3494 38.8366C39.5677 38.2866 38.8042 37.704 38.034 37.126C37.2756 36.5322 36.5174 35.9278 35.8461 35.2215C35.1546 34.5408 34.5512 33.7532 34.1324 32.853C34.1168 32.8195 34.1127 32.7816 34.1206 32.7454C34.1284 32.7093 34.1479 32.6767 34.1759 32.6529C34.204 32.629 34.239 32.6152 34.2756 32.6136C34.3122 32.6119 34.3483 32.6226 34.3783 32.6438L34.3803 32.6501Z" fill="#371A45"/>
<path d="M34.5458 43.7777C34.481 43.7775 34.417 43.7625 34.3588 43.7338C34.3005 43.705 34.2495 43.6633 34.2094 43.6117C34.1694 43.5602 34.1414 43.5001 34.1276 43.436C34.1137 43.3719 34.1144 43.3055 34.1296 43.2417C34.1877 42.9999 35.5946 37.3517 39.4827 37.3517H39.5459C39.6594 37.3535 39.7676 37.4008 39.8466 37.4833C39.9256 37.5658 39.969 37.6767 39.9673 37.7915C39.9655 37.9064 39.9187 38.0158 39.8372 38.0958C39.7557 38.1758 39.6461 38.2197 39.5326 38.2179H39.4842C36.2583 38.2179 34.9735 43.3941 34.9607 43.4467C34.9381 43.5409 34.8849 43.6247 34.8097 43.6847C34.7345 43.7447 34.6416 43.7775 34.5458 43.7777Z" fill="#371A45"/>
<path d="M50.3983 34.8253C50.325 34.8254 50.2529 34.8062 50.1891 34.7699C48.0304 33.5429 47.8729 27.6383 47.8619 26.9683C47.86 26.8534 47.9032 26.7425 47.9821 26.6598C48.061 26.5772 48.1692 26.5297 48.2827 26.5277H48.2901C48.4024 26.5278 48.5101 26.5724 48.5901 26.6521C48.6701 26.7317 48.716 26.84 48.7179 26.9536C48.7458 28.6341 49.1394 33.1787 50.6083 34.0133C50.6908 34.0603 50.7556 34.1336 50.7925 34.2218C50.8295 34.31 50.8365 34.4081 50.8125 34.5008C50.7885 34.5935 50.7349 34.6755 50.6599 34.734C50.585 34.7925 50.493 34.8243 50.3983 34.8243V34.8253Z" fill="#371A45"/>
<path d="M53.9422 23.7438C53.9466 23.7697 53.9486 23.8216 53.9514 23.8628L53.9596 23.9955C53.9671 24.0849 53.9701 24.1754 53.9791 24.2656C53.9909 24.447 54.0134 24.6284 54.039 24.8114C54.0647 24.9944 54.1018 25.1771 54.1371 25.3676C54.1653 25.5633 54.214 25.7541 54.2375 25.9871C54.0366 25.8904 53.8596 25.7496 53.7194 25.5747C53.6494 25.4894 53.5865 25.3985 53.5311 25.3028C53.478 25.2063 53.4299 25.1069 53.3869 25.0053C53.3003 24.8016 53.2371 24.5886 53.1987 24.3703C53.1801 24.2606 53.168 24.1499 53.1626 24.0388C53.1603 23.9828 53.1582 23.9268 53.161 23.8698C53.1625 23.8085 53.1674 23.7473 53.1759 23.6865C53.1879 23.5946 53.2322 23.5101 53.3007 23.4484C53.3692 23.3868 53.4573 23.3521 53.5489 23.3507C53.6406 23.3494 53.7297 23.3814 53.7999 23.4411C53.8701 23.5007 53.9168 23.5838 53.9315 23.6754L53.9422 23.7438Z" fill="#371A45"/>
</g>
<defs>
<linearGradient id="paint0_linear_3_132" x1="20.4153" y1="70.4377" x2="2.06106" y2="71.1711" gradientUnits="userSpaceOnUse">
<stop stop-color="#FCB127"/>
<stop offset="1" stop-color="#EC1C24"/>
</linearGradient>
<clipPath id="clip0_3_132">
<rect width="66" height="80" fill="white"/>
</clipPath>
</defs>
</svg>
