<svg width="68" height="80" viewBox="0 0 68 80" fill="none" xmlns="http://www.w3.org/2000/svg">
<path d="M48.3088 34.2574V51.3434C48.3087 52.3175 47.9225 53.2517 47.2352 53.9405C46.548 54.6293 45.6158 55.0163 44.6439 55.0164H20.8832C19.9112 55.0163 18.9791 54.6293 18.2918 53.9405C17.6045 53.2517 17.2183 52.3175 17.2183 51.3434V34.2574C17.2182 33.3276 17.5702 32.4325 18.203 31.7527C18.8359 31.0729 19.7025 30.6591 20.6279 30.5947C20.7117 30.5869 20.7968 30.5844 20.8832 30.5844H44.6439C45.6157 30.5849 46.5476 30.972 47.2348 31.6607C47.922 32.3494 48.3083 33.2834 48.3088 34.2574Z" fill="white"/>
<path d="M44.6449 55.4947H20.8849C19.7867 55.4934 18.7338 55.0556 17.9573 54.2774C17.1808 53.4991 16.744 52.4439 16.7427 51.3433V34.2573C16.744 33.1567 17.1808 32.1015 17.9573 31.3233C18.7338 30.545 19.7867 30.1072 20.8849 30.106H44.6449C45.7431 30.1072 46.7959 30.545 47.5725 31.3233C48.349 32.1015 48.7858 33.1567 48.7871 34.2573V51.3433C48.7858 52.4439 48.349 53.4991 47.5725 54.2774C46.7959 55.0556 45.7431 55.4934 44.6449 55.4947ZM20.8849 31.0633C20.0398 31.0641 19.2296 31.401 18.6321 31.9998C18.0345 32.5987 17.6984 33.4107 17.6976 34.2576V51.3436C17.6984 52.1906 18.0345 53.0026 18.6321 53.6014C19.2296 54.2003 20.0398 54.5371 20.8849 54.538H44.6449C45.49 54.5371 46.3002 54.2003 46.8977 53.6014C47.4953 53.0026 47.8314 52.1906 47.8322 51.3436V34.2576C47.8314 33.4107 47.4953 32.5987 46.8977 31.9998C46.3002 31.401 45.49 31.0641 44.6449 31.0633H20.8849Z" fill="#371A45"/>
<path d="M50.9976 42.3035C50.9332 43.1988 50.6637 44.1032 50.1507 45.0037H15.5745C15.0614 44.1032 14.792 43.1988 14.7262 42.3035C14.5677 40.1576 15.5809 38.0595 17.2193 36.1474C18.484 34.6707 20.1224 33.3051 21.8846 32.1178C22.7019 31.5661 23.545 31.0519 24.3919 30.5843C27.634 28.7872 30.898 27.6451 32.7646 27.5288H32.9605C34.8272 27.6464 38.0899 28.7885 41.332 30.5843C42.701 31.3426 44.0661 32.2173 45.3204 33.1824C46.4265 34.0325 47.4474 34.9523 48.3098 35.9213C50.063 37.8928 51.1626 40.0736 50.9976 42.3035Z" fill="white"/>
<path d="M50.1511 45.5206C50.0609 45.5205 49.9722 45.4967 49.894 45.4516C49.8157 45.4064 49.7507 45.3415 49.7054 45.2632C49.6601 45.185 49.6361 45.0962 49.6357 45.0057C49.6354 44.9152 49.6588 44.8262 49.7035 44.7477C50.7954 42.8282 50.7599 40.7614 49.5988 38.6054C46.5932 33.0249 36.7477 28.2966 32.9442 28.0437H32.7831C28.9803 28.2954 19.1338 33.0236 16.1286 38.6054C14.9684 40.7614 14.932 42.8282 16.0238 44.7477C16.0574 44.8066 16.079 44.8716 16.0875 44.939C16.096 45.0063 16.0911 45.0746 16.0732 45.1401C16.0554 45.2056 16.0248 45.2668 15.9833 45.3205C15.9418 45.3741 15.8901 45.419 15.8313 45.4526C15.7725 45.4862 15.7076 45.5079 15.6404 45.5164C15.5732 45.5249 15.505 45.52 15.4397 45.5021C15.3744 45.4842 15.3133 45.4535 15.2598 45.4119C15.2063 45.3703 15.1615 45.3186 15.1279 45.2596C13.8482 43.0093 13.8794 40.6057 15.2211 38.1145C18.4409 32.136 28.647 27.2702 32.7341 27.0125H32.7663H32.9945C37.0816 27.2708 47.2877 32.136 50.5076 38.1145C51.8492 40.6057 51.8805 43.0093 50.6007 45.2596C50.5555 45.3391 50.4901 45.4051 50.4111 45.451C50.3321 45.4968 50.2424 45.5208 50.1511 45.5206Z" fill="#371A45"/>
<path d="M26.0561 49.3488C24.0067 50.1802 20.8352 50.0064 18.6734 49.7442C18.3655 49.7068 18.0683 49.608 17.7991 49.4536C17.53 49.2991 17.2945 49.0922 17.1066 48.845C16.9186 48.5978 16.782 48.3153 16.7049 48.0143C16.6277 47.7133 16.6115 47.3998 16.6572 47.0924C16.7408 46.5218 17.033 46.0028 17.4771 45.6359C17.9211 45.2691 18.4853 45.0807 19.0601 45.1074C21.0824 45.2023 24.116 45.2469 26.037 44.8196" fill="white"/>
<g opacity="0.35">
<path opacity="0.35" d="M26.0565 49.3486C24.0065 50.1812 20.8356 50.0055 18.6732 49.7449C18.3003 49.6988 17.9442 49.5629 17.6352 49.3487C17.3262 49.1346 17.0736 48.8487 16.899 48.5153C16.7243 48.182 16.6328 47.8113 16.6323 47.4348C16.6318 47.0583 16.7224 46.6873 16.8961 46.3535C17.0703 46.6879 17.3231 46.9748 17.6327 47.1893C17.9424 47.4037 18.2995 47.5394 18.6732 47.5844C20.8324 47.8467 23.9975 48.0205 26.0475 47.1933L26.0565 49.3486Z" fill="#371A45"/>
</g>
<path d="M21.9821 50.4777C20.7977 50.4777 19.6198 50.3808 18.6114 50.2571C17.8779 50.1736 17.2057 49.8069 16.7374 49.2349C16.2691 48.663 16.0416 47.9307 16.1031 47.1934C16.1646 46.4561 16.5103 45.7718 17.0669 45.2857C17.6234 44.7996 18.347 44.5499 19.0842 44.5896C22.0652 44.7298 24.4948 44.6319 25.9251 44.3138C26.2039 44.2521 26.8974 44.2515 27.3109 45.5825C27.7347 46.9484 27.6908 49.2419 26.2496 49.8265C25.0514 50.3139 23.5113 50.4777 21.9821 50.4777ZM18.9498 45.6212C18.4896 45.6221 18.0471 45.7989 17.7124 46.1155C17.3778 46.4321 17.1762 46.8647 17.1488 47.3251C17.1215 47.7855 17.2703 48.239 17.5651 48.5932C17.8599 48.9474 18.2783 49.1756 18.7351 49.2313C20.9266 49.4968 23.9409 49.6512 25.8623 48.8699C26.336 48.6777 26.4604 47.909 26.4917 47.5876C26.5964 46.5195 26.2661 45.556 26.0666 45.3422C24.1204 45.7556 21.177 45.7236 19.0358 45.6235C19.0072 45.6232 18.9781 45.6212 18.9498 45.6212Z" fill="#371A45"/>
<path d="M41.73 49.3488C43.7793 50.1802 46.9508 50.0064 49.113 49.7442C49.4208 49.7068 49.718 49.6079 49.9871 49.4535C50.2562 49.299 50.4916 49.0921 50.6795 48.8449C50.8675 48.5977 51.004 48.3152 51.0812 48.0142C51.1584 47.7132 51.1746 47.3998 51.1288 47.0924C51.0452 46.5218 50.753 46.0028 50.309 45.6359C49.8649 45.2691 49.3007 45.0807 48.7259 45.1074C46.7036 45.2023 43.6704 45.2469 41.7493 44.8196" fill="white"/>
<g opacity="0.35">
<path opacity="0.35" d="M49.1125 49.7449C46.9507 50.0056 43.7792 50.1813 41.7295 49.3486L41.7385 47.1746C43.7882 48.0018 46.9542 47.828 49.1125 47.5657C49.4847 47.5214 49.8405 47.387 50.1493 47.1741C50.4581 46.9613 50.7106 46.6763 50.885 46.3439C51.0616 46.6776 51.1545 47.0493 51.1557 47.427C51.1568 47.8048 51.0663 48.1771 50.8918 48.5119C50.7173 48.8467 50.4641 49.1339 50.1541 49.3487C49.8441 49.5635 49.4866 49.6995 49.1125 49.7449Z" fill="#371A45"/>
</g>
<path d="M45.8044 50.4777C44.2749 50.4777 42.7351 50.314 41.5368 49.8279C40.0959 49.2433 40.0518 46.9497 40.4759 45.5838C40.8887 44.2528 41.5826 44.2534 41.8617 44.3151C43.2923 44.6333 45.7222 44.7311 48.7026 44.591C49.4367 44.5563 50.1557 44.8084 50.7081 45.2941C51.2606 45.7799 51.6036 46.4615 51.6649 47.1955C51.7261 47.9295 51.501 48.6587 51.0367 49.2297C50.5725 49.8007 49.9054 50.169 49.1757 50.2571C48.1667 50.3795 46.9878 50.4777 45.8044 50.4777ZM41.7196 45.3422C41.5214 45.5561 41.1897 46.5195 41.2945 47.5876C41.3267 47.909 41.4501 48.6777 41.9239 48.8699C43.8459 49.6499 46.8605 49.4965 49.0513 49.2313C49.5146 49.1737 49.9377 48.9386 50.232 48.5753C50.5262 48.2121 50.6689 47.7488 50.63 47.2825C50.591 46.8163 50.3736 46.3832 50.0233 46.0739C49.6729 45.7647 49.2167 45.6033 48.7503 45.6236C46.6088 45.724 43.6658 45.7553 41.7196 45.3422Z" fill="#371A45"/>
<path d="M42.5225 43.3229V50.581C42.5206 51.23 42.2625 51.8517 41.8047 52.3106C41.3469 52.7695 40.7265 53.0282 40.079 53.0303H26.7414C26.0941 53.0282 25.4739 52.7694 25.0164 52.3105C24.5589 51.8516 24.3012 51.2298 24.2998 50.581V43.3229C24.3018 42.6744 24.5597 42.0531 25.0172 41.5946C25.4747 41.136 26.0947 40.8776 26.7417 40.8756H40.0793C40.7267 40.8771 41.347 41.1354 41.8049 41.594C42.2628 42.0526 42.5209 42.6742 42.5228 43.3229H42.5225Z" fill="white"/>
<g opacity="0.35">
<path opacity="0.35" d="M42.5225 43.3228V50.581C42.5206 51.2299 42.2625 51.8517 41.8047 52.3106C41.3469 52.7695 40.7265 53.0282 40.079 53.0302H26.7414C26.0941 53.0282 25.4739 52.7694 25.0164 52.3105C24.5589 51.8515 24.3012 51.2297 24.2998 50.581V47.866C27.083 49.9366 33.1566 51.3739 36.953 48.2752C39.9624 45.817 41.3804 43.359 42.0249 41.8458C42.3482 42.27 42.5231 42.7891 42.5225 43.3228Z" fill="#371A45"/>
</g>
<path d="M40.079 53.5464H26.741C25.9568 53.5455 25.205 53.2329 24.6505 52.6772C24.096 52.1214 23.7841 51.3679 23.7832 50.582V43.3229C23.7841 42.5369 24.0959 41.7833 24.6505 41.2276C25.205 40.6718 25.9568 40.3591 26.741 40.3582H40.079C40.8633 40.3591 41.6152 40.6717 42.1697 41.2275C42.7243 41.7833 43.0363 42.5369 43.0372 43.3229V50.582C43.0363 51.368 42.7243 52.1215 42.1697 52.6772C41.6151 53.2329 40.8633 53.5455 40.079 53.5464ZM26.741 41.392C26.2302 41.3925 25.7405 41.5961 25.3793 41.9581C25.0181 42.3201 24.815 42.8109 24.8145 43.3229V50.582C24.815 51.0939 25.0181 51.5847 25.3793 51.9467C25.7405 52.3087 26.2302 52.5123 26.741 52.5128H40.079C40.5899 52.5123 41.0796 52.3087 41.4409 51.9467C41.8021 51.5848 42.0053 51.0939 42.0059 50.582V43.3229C42.0053 42.8109 41.8021 42.3201 41.4409 41.9581C41.0796 41.5961 40.5899 41.3925 40.079 41.392H26.741Z" fill="#371A45"/>
<path d="M38.1359 49.063C39.299 49.063 40.2419 48.118 40.2419 46.9523C40.2419 45.7865 39.299 44.8416 38.1359 44.8416C36.9727 44.8416 36.0298 45.7865 36.0298 46.9523C36.0298 48.118 36.9727 49.063 38.1359 49.063Z" fill="#22A7F0"/>
<g opacity="0.35">
<path opacity="0.35" d="M40.2413 46.952C40.2447 47.2313 40.1928 47.5086 40.0885 47.7677C39.9842 48.0268 39.8297 48.2626 39.6338 48.4613C39.4379 48.6601 39.2045 48.8179 38.9473 48.9256C38.6901 49.0333 38.4141 49.0888 38.1354 49.0888C37.8566 49.0888 37.5806 49.0333 37.3234 48.9256C37.0662 48.8179 36.8329 48.6601 36.637 48.4613C36.4411 48.2626 36.2865 48.0268 36.1822 47.7677C36.0779 47.5086 36.026 47.2313 36.0295 46.952C36.0288 46.6905 36.078 46.4312 36.1742 46.1881C36.3279 46.5842 36.5974 46.9245 36.9473 47.1645C37.2973 47.4044 37.7115 47.5328 38.1355 47.5328C38.5596 47.5328 38.9737 47.4044 39.3237 47.1645C39.6737 46.9245 39.9432 46.5842 40.0969 46.1881C40.1928 46.4313 40.2418 46.6905 40.2413 46.952Z" fill="#371A45"/>
</g>
<path d="M38.1357 49.451C37.6426 49.451 37.1606 49.3044 36.7506 49.0299C36.3406 48.7553 36.0211 48.3651 35.8324 47.9085C35.6437 47.452 35.5943 46.9496 35.6905 46.4649C35.7867 45.9802 36.0241 45.535 36.3728 45.1856C36.7215 44.8361 37.1657 44.5982 37.6493 44.5017C38.1329 44.4053 38.6342 44.4548 39.0898 44.6439C39.5453 44.8331 39.9347 45.1533 40.2087 45.5642C40.4826 45.9751 40.6288 46.4582 40.6288 46.9524C40.6281 47.6148 40.3652 48.25 39.8978 48.7184C39.4304 49.1868 38.7967 49.4503 38.1357 49.451ZM38.1357 45.2292C37.7956 45.2292 37.4631 45.3303 37.1803 45.5197C36.8975 45.7091 36.6771 45.9783 36.5469 46.2932C36.4168 46.6082 36.3827 46.9547 36.4491 47.289C36.5155 47.6234 36.6793 47.9305 36.9198 48.1715C37.1604 48.4125 37.4668 48.5766 37.8004 48.6431C38.134 48.7095 38.4798 48.6754 38.794 48.5449C39.1082 48.4144 39.3768 48.1934 39.5657 47.91C39.7546 47.6265 39.8554 47.2932 39.8554 46.9524C39.8548 46.4955 39.6735 46.0574 39.3511 45.7344C39.0287 45.4113 38.5916 45.2297 38.1357 45.2292Z" fill="#371A45"/>
<path d="M32.167 53.4175C32.0644 53.4175 31.9661 53.3766 31.8935 53.304C31.821 53.2313 31.7803 53.1327 31.7803 53.0299V48.0472L29.1128 46.0346V40.8753C29.1128 40.7725 29.1535 40.6739 29.2261 40.6012C29.2986 40.5285 29.397 40.4877 29.4995 40.4877C29.6021 40.4877 29.7005 40.5285 29.773 40.6012C29.8455 40.6739 29.8863 40.7725 29.8863 40.8753V45.648L32.5537 47.6606V53.0296C32.5538 53.0805 32.5438 53.1309 32.5244 53.178C32.505 53.2251 32.4765 53.2678 32.4406 53.3039C32.4046 53.3399 32.362 53.3685 32.3151 53.3879C32.2681 53.4074 32.2178 53.4175 32.167 53.4175Z" fill="#371A45"/>
<g opacity="0.3">
<path opacity="0.3" d="M34 80C52.7777 80 68 78.6343 68 76.9497C68 75.2651 52.7777 73.8994 34 73.8994C15.2223 73.8994 0 75.2651 0 76.9497C0 78.6343 15.2223 80 34 80Z" fill="#371A45"/>
</g>
<path d="M57.5029 55.3229V75.0186C57.5028 75.4623 57.3268 75.8877 57.0138 76.2014C56.7007 76.515 56.2762 76.6913 55.8335 76.6914H11.7099C11.2672 76.6913 10.8427 76.515 10.5297 76.2014C10.2166 75.8877 10.0407 75.4623 10.0405 75.0186V55.3229H57.5029Z" fill="#FF9F40"/>
<g opacity="0.35">
<path opacity="0.35" d="M55.8335 73.9579H11.7099C11.2672 73.9578 10.8426 73.7815 10.5296 73.4677C10.2165 73.154 10.0406 72.7285 10.0405 72.2848V75.0186C10.0407 75.4622 10.2166 75.8876 10.5297 76.2013C10.8427 76.515 11.2672 76.6912 11.7099 76.6913H55.8335C56.2762 76.6912 56.7007 76.515 57.0138 76.2013C57.3268 75.8876 57.5028 75.4622 57.5029 75.0186V72.2848C57.5028 72.7285 57.3268 73.1539 57.0138 73.4676C56.7007 73.7814 56.2762 73.9577 55.8335 73.9579Z" fill="#371A45"/>
</g>
<g opacity="0.6">
<path opacity="0.6" d="M55.7706 55.3229V75.0186C55.7705 75.4622 55.5946 75.8876 55.2816 76.2012C54.9686 76.5149 54.5442 76.6912 54.1016 76.6914H55.8277C56.2703 76.6912 56.6947 76.5149 57.0077 76.2012C57.3207 75.8876 57.4966 75.4622 57.4967 75.0186V55.3229H55.7706Z" fill="white"/>
</g>
<g opacity="0.35">
<path opacity="0.35" d="M57.5029 55.3229C57.5029 55.3229 39.1181 70.1725 10.0405 72.9958V55.3229H57.5029Z" fill="#371A45"/>
</g>
<path d="M3.39167 52.0703L13.5483 45.1759L12.5656 43.7217L2.40888 50.616L3.39167 52.0703Z" fill="#FF9F40"/>
<path d="M3.62636 52.2497C3.53723 52.2497 3.44831 52.2411 3.36081 52.2242C3.09039 52.1722 2.84145 52.0409 2.64548 51.8471C2.44951 51.6532 2.31533 51.4055 2.25992 51.1352C2.2045 50.8648 2.23035 50.5841 2.33419 50.3286C2.43802 50.073 2.61517 49.854 2.84323 49.6994L12.7007 43.0071L14.2621 45.3171L4.40433 52.0094C4.17486 52.1657 3.90384 52.2494 3.62636 52.2497ZM12.4245 44.4424L3.42139 50.5553C3.38078 50.5813 3.34578 50.6152 3.31846 50.6549C3.29113 50.6947 3.27204 50.7396 3.2623 50.7869C3.25257 50.8342 3.25238 50.8829 3.26177 50.9303C3.27116 50.9777 3.28992 51.0227 3.31695 51.0626C3.34398 51.1026 3.37873 51.1368 3.41915 51.1631C3.45957 51.1893 3.50483 51.2073 3.55227 51.2157C3.59971 51.2242 3.64836 51.223 3.69535 51.2123C3.74233 51.2017 3.78671 51.1816 3.82585 51.1535L12.8299 45.0419L12.4245 44.4424Z" fill="#371A45"/>
<path d="M64.7016 50.6198L54.5449 43.7255L53.5621 45.1797L63.7188 52.0741L64.7016 50.6198Z" fill="#FF9F40"/>
<path d="M63.4777 52.2502C63.2002 52.2503 62.9291 52.1669 62.6994 52.0108L52.8413 45.3185L54.4027 43.0085L64.2614 49.7008C64.5081 49.8683 64.6947 50.1107 64.7936 50.3924C64.8926 50.6741 64.8987 50.9801 64.8111 51.2656C64.7235 51.551 64.5468 51.8007 64.307 51.9779C64.0672 52.1552 63.7769 52.2506 63.479 52.2502H63.4777ZM63.2772 51.1549C63.3164 51.1816 63.3605 51.2003 63.4069 51.2099C63.4533 51.2195 63.5012 51.2199 63.5478 51.2109C63.5943 51.202 63.6386 51.1839 63.6782 51.1578C63.7178 51.1317 63.7519 51.098 63.7785 51.0586C63.805 51.0193 63.8236 50.9751 63.8331 50.9286C63.8427 50.882 63.8429 50.8341 63.834 50.7874C63.825 50.7408 63.8069 50.6964 63.7808 50.6567C63.7546 50.6171 63.721 50.583 63.6817 50.5564L54.6776 44.4439L54.2735 45.0417L63.2775 51.1543L63.2772 51.1549Z" fill="#371A45"/>
<g opacity="0.35">
<path opacity="0.35" d="M50.998 42.3036C50.9335 43.1989 50.6641 44.1033 50.151 45.0038H15.5748C15.0617 44.1033 14.7923 43.1989 14.7266 42.3036H50.998Z" fill="#371A45"/>
</g>
<path d="M59.3264 55.3228H7.48618C7.34045 55.3229 7.1972 55.285 7.07045 55.2129C6.9437 55.1409 6.83779 55.0371 6.76308 54.9117C6.68837 54.7863 6.64742 54.6436 6.64424 54.4976C6.64107 54.3516 6.67577 54.2072 6.74495 54.0787L12.3764 43.6139H54.4355L58.9628 52.0267L60.0669 54.0787C60.1361 54.2072 60.1708 54.3514 60.1676 54.4974C60.1645 54.6434 60.1236 54.786 60.049 54.9114C59.9743 55.0368 59.8685 55.1406 59.7419 55.2127C59.6152 55.2848 59.472 55.3228 59.3264 55.3228Z" fill="#FF9F40"/>
<g opacity="0.35">
<path opacity="0.35" d="M26.7046 40.4788C25.6431 39.5066 23.3646 38.0241 20.0335 39.0005C17.0422 39.8787 15.8604 41.6742 15.396 43.0259C14.7473 44.9122 15.1704 46.7748 15.8372 47.7073C16.9726 49.2938 18.7999 49.5053 20.0484 49.5053C20.3113 49.5053 20.5489 49.4957 20.7487 49.4879C20.8776 49.4827 20.9904 49.4782 21.0816 49.4779C21.9469 49.476 23.8876 49.3074 25.0385 48.6846C26.1893 48.0619 26.2728 46.1838 26.2309 45.1835C26.4394 45.1938 26.6821 45.2045 26.9299 45.2119C28.0717 45.2468 28.6434 45.2642 28.7492 44.729C28.9754 43.5808 28.0965 41.7537 26.7046 40.4788Z" fill="#371A45"/>
<path opacity="0.35" d="M50.7545 43.0253C50.2898 41.6736 49.108 39.8778 46.117 38.9996C42.784 38.021 40.5058 39.5057 39.4459 40.4779C38.054 41.7528 37.1751 43.5786 37.401 44.7281C37.5067 45.2633 38.0778 45.2449 39.2206 45.211C39.4668 45.2035 39.7108 45.1929 39.9193 45.1826C39.879 46.1838 39.9667 48.0639 41.1117 48.6837C42.2632 49.3065 44.2036 49.4751 45.0689 49.477C45.1601 49.477 45.2726 49.4818 45.4018 49.487C45.6016 49.4948 45.8392 49.5044 46.1021 49.5044C47.3509 49.5044 49.1782 49.2926 50.3133 47.7064C50.9801 46.7739 51.4032 44.9125 50.7545 43.0253Z" fill="#371A45"/>
</g>
<g opacity="0.6">
<path opacity="0.6" d="M7.13054 55.0254L12.3353 45.3532H51.4939C52.1241 45.3532 52.7441 45.5122 53.2969 45.8154C53.8496 46.1186 54.3174 46.5564 54.6571 47.0883L58.9214 53.766L59.5982 55.0257C59.708 54.9813 59.8073 54.9142 59.8895 54.8287C59.9717 54.7432 60.035 54.6413 60.0753 54.5297C60.1155 54.418 60.1318 54.2991 60.1231 54.1807C60.1143 54.0623 60.0808 53.9471 60.0246 53.8426L58.9208 51.7906L54.3934 43.3778H12.3353L6.70417 53.8426C6.64803 53.9471 6.61451 54.0623 6.6058 54.1806C6.59709 54.299 6.61338 54.4179 6.65362 54.5295C6.69385 54.6411 6.75713 54.7429 6.8393 54.8284C6.92148 54.9138 7.02072 54.981 7.13054 55.0254Z" fill="white"/>
</g>
<g opacity="0.35">
<path opacity="0.35" d="M60.0668 54.0787L59.5241 53.0681C59.4524 53.1941 59.3486 53.2988 59.2233 53.3714C59.0979 53.444 58.9556 53.4819 58.8109 53.4812H8.00231C7.85762 53.4819 7.71535 53.4439 7.59009 53.3713C7.46483 53.2988 7.36107 53.1941 7.28943 53.0681L6.74544 54.0787C6.67626 54.2073 6.64155 54.3516 6.64473 54.4976C6.64791 54.6437 6.68886 54.7863 6.76357 54.9117C6.83828 55.0371 6.94419 55.141 7.07094 55.213C7.19769 55.2851 7.34094 55.323 7.48667 55.3229H59.3262C59.4719 55.3228 59.615 55.2849 59.7417 55.2128C59.8684 55.1407 59.9742 55.0368 60.0488 54.9115C60.1235 54.7861 60.1643 54.6434 60.1675 54.4975C60.1706 54.3515 60.1359 54.2072 60.0668 54.0787Z" fill="#371A45"/>
</g>
<path d="M59.3261 55.8397H7.48596C7.25109 55.8397 7.02023 55.7786 6.81596 55.6624C6.6117 55.5463 6.44103 55.3789 6.32065 55.1768C6.20028 54.9747 6.13432 54.7447 6.12923 54.5093C6.12413 54.274 6.18009 54.0414 6.29161 53.8342L12.069 43.0972H54.7434L60.5205 53.8342C60.632 54.0414 60.688 54.274 60.6829 54.5093C60.6778 54.7447 60.6118 54.9747 60.4914 55.1768C60.3711 55.3789 60.2004 55.5463 59.9961 55.6624C59.7919 55.7786 59.561 55.8397 59.3261 55.8397ZM12.6846 44.131L7.19914 54.3245C7.17236 54.3743 7.15893 54.4301 7.16015 54.4866C7.16138 54.5432 7.17722 54.5984 7.20612 54.6469C7.23503 54.6955 7.27602 54.7356 7.32507 54.7635C7.37412 54.7914 7.42956 54.8061 7.48596 54.8061H59.3261C59.3825 54.8061 59.438 54.7914 59.487 54.7635C59.5361 54.7356 59.5771 54.6955 59.606 54.6469C59.6349 54.5984 59.6507 54.5432 59.652 54.4866C59.6532 54.4301 59.6397 54.3743 59.613 54.3245L54.1275 44.131H12.6846Z" fill="#371A45"/>
<path d="M55.8334 77.2081H11.7091C11.1299 77.2074 10.5746 76.9765 10.165 76.566C9.75549 76.1556 9.5251 75.599 9.52441 75.0186V54.806H58.0181V75.0186C58.0174 75.599 57.787 76.1556 57.3774 76.566C56.9679 76.9765 56.4126 77.2074 55.8334 77.2081ZM10.5557 55.8396V75.0186C10.556 75.325 10.6777 75.6189 10.8939 75.8356C11.1101 76.0523 11.4033 76.1742 11.7091 76.1745H55.8334C56.1391 76.1742 56.4323 76.0523 56.6485 75.8355C56.8647 75.6188 56.9862 75.325 56.9865 75.0186V55.8396H10.5557Z" fill="#371A45"/>
<g opacity="0.6">
<path opacity="0.6" d="M15.5747 43.1795C21.1249 36.7411 27.6984 41.4244 27.6984 41.4244V41.4211C26.6548 39.4067 23.96 37.0676 20.0866 38.2045C17.1358 39.0717 15.8934 41.3042 15.5747 43.1795Z" fill="white"/>
</g>
<path d="M28.2429 43.3361C28.2106 43.5047 25.6724 43.3426 25.6724 43.3426C25.6724 43.3426 26.025 46.2705 24.7919 46.9371C23.7607 47.4959 21.9353 47.6664 21.0784 47.6684C20.2214 47.6703 17.621 48.0237 16.2546 46.1132C15.1266 44.5383 14.8688 39.7623 20.1763 38.2039C25.4839 36.6455 28.5813 41.6182 28.2429 43.3361Z" fill="white"/>
<path d="M37.9055 43.3361C37.9377 43.5047 40.476 43.3426 40.476 43.3426C40.476 43.3426 40.1237 46.2692 41.3564 46.9371C42.3893 47.4959 44.2131 47.6664 45.07 47.6684C45.9269 47.6703 48.5274 48.0237 49.8941 46.1132C51.0221 44.5383 51.2799 39.7623 45.9721 38.2039C40.6642 36.6455 37.5671 41.6182 37.9055 43.3361Z" fill="white"/>
<g opacity="0.35">
<path opacity="0.35" d="M49.8932 46.1134C48.5267 48.0229 45.9266 47.6702 45.0694 47.669C44.2121 47.6677 42.3893 47.4958 41.3555 46.9377C40.1231 46.2698 40.475 43.3422 40.475 43.3422C40.475 43.3422 37.9381 43.5037 37.9046 43.3358C37.8478 43.0489 37.8878 42.6717 38.0167 42.2492C38.5117 42.3332 40.475 42.2079 40.475 42.2079C40.475 42.2079 41.2069 44.5625 42.0658 45.2556C42.7264 45.7888 44.2688 46.1858 45.1274 46.1884C45.9859 46.191 48.5396 46.0941 49.9061 44.1859C50.1639 43.8228 50.3779 43.3332 50.4862 42.7751C50.7092 44.1406 50.383 45.4294 49.8932 46.1134Z" fill="#371A45"/>
</g>
<g opacity="0.35">
<path opacity="0.35" d="M16.2544 46.1134C17.6208 48.0229 20.2209 47.6702 21.0782 47.669C21.9355 47.6677 23.7582 47.4958 24.7921 46.9377C26.0245 46.2698 25.6725 43.3422 25.6725 43.3422C25.6725 43.3422 28.2095 43.5037 28.243 43.3358C28.2997 43.0489 28.2598 42.6717 28.1309 42.2492C27.6358 42.3332 25.6725 42.2079 25.6725 42.2079C25.6725 42.2079 24.9407 44.5625 24.0818 45.2556C23.4211 45.7888 21.8787 46.1858 21.0202 46.1884C20.1616 46.191 17.6079 46.0941 16.2415 44.1859C15.9837 43.8228 15.7697 43.3332 15.6614 42.7751C15.4384 44.1406 15.7645 45.4294 16.2544 46.1134Z" fill="#371A45"/>
</g>
<path d="M20.0474 48.2122C18.7989 48.2122 16.9713 48.001 15.8359 46.4145C15.1688 45.482 14.746 43.6197 15.3944 41.7334C15.8591 40.3817 17.0409 38.5859 20.0322 37.7077C23.3646 36.7294 25.6434 38.2139 26.705 39.1864C28.0965 40.4609 28.9754 42.287 28.7495 43.4362C28.6438 43.9711 28.0704 43.953 26.9302 43.9191C26.6837 43.9113 26.4397 43.901 26.2312 43.8907C26.2715 44.8919 26.1838 46.7717 25.0388 47.3922C23.8937 48.0126 21.9472 48.1832 21.0816 48.1851C20.99 48.1851 20.8776 48.1899 20.7483 48.1951C20.5476 48.2032 20.3101 48.2122 20.0474 48.2122ZM22.1551 38.4257C21.5341 38.4293 20.9168 38.522 20.322 38.7009C17.7538 39.4551 16.755 40.9502 16.3696 42.0713C15.8691 43.5263 16.153 45.0854 16.6741 45.8134C17.7248 47.2817 19.6642 47.2055 20.7064 47.1635C20.8505 47.158 20.9759 47.1532 21.078 47.1528C21.9453 47.1506 23.654 46.9671 24.5476 46.4836C25.2457 46.106 25.2624 44.2469 25.16 43.4059L25.0855 42.7883L25.7046 42.828C26.4304 42.8746 27.2805 42.9065 27.744 42.8959C27.6705 42.1788 27.1171 40.9664 26.0079 39.9506C25.3166 39.3149 24.013 38.4244 22.1551 38.4244V38.4257Z" fill="#371A45"/>
<g opacity="0.6">
<path opacity="0.6" d="M50.5739 43.1795C45.0236 36.7411 38.4502 41.4244 38.4502 41.4244V41.4211C39.4937 39.4067 42.1886 37.0676 46.062 38.2045C49.0128 39.0717 50.2551 41.3042 50.5739 43.1795Z" fill="white"/>
</g>
<path d="M46.1011 48.2123C45.8384 48.2123 45.6012 48.2033 45.4014 48.1952C45.2725 48.19 45.1597 48.1855 45.0682 48.1852C44.2026 48.1833 42.2618 48.0143 41.1113 47.3923C39.9608 46.7702 39.877 44.8911 39.9189 43.8908C39.7104 43.9011 39.4677 43.9114 39.2202 43.9192C38.0784 43.9537 37.5063 43.9712 37.401 43.4363C37.1754 42.2881 38.0536 40.461 39.4451 39.1865C40.5067 38.2143 42.7855 36.7292 46.1179 37.7078C49.1092 38.586 50.291 40.3818 50.7557 41.7335C51.4041 43.6198 50.9813 45.4821 50.3142 46.4146C49.1772 48.0011 47.3496 48.2123 46.1011 48.2123ZM41.0617 42.7861L40.9872 43.4034C40.8873 44.2451 40.9057 46.1055 41.5996 46.4814C42.4932 46.9659 44.2019 47.1484 45.0692 47.1507C45.1713 47.1507 45.2967 47.1558 45.4408 47.1613C46.483 47.2033 48.4228 47.2795 49.4731 45.8112C49.9942 45.0832 50.2787 43.5242 49.7776 42.0691C49.3909 40.948 48.3918 39.4529 45.8252 38.6988C42.9773 37.8629 41.0394 39.1228 40.138 39.9484C39.0288 40.9642 38.4754 42.177 38.4019 42.8937C38.866 42.904 39.7155 42.8724 40.4416 42.8259L41.0617 42.7861Z" fill="#371A45"/>
<path d="M50.6958 21.3237C50.6057 21.3303 50.5165 21.3009 50.448 21.2418C50.3795 21.1827 50.3372 21.0988 50.3303 21.0084L49.5981 11.1929C49.5948 11.1481 49.6002 11.1031 49.6142 11.0605C49.6282 11.0178 49.6504 10.9784 49.6796 10.9444C49.7088 10.9103 49.7445 10.8824 49.7845 10.8622C49.8244 10.842 49.868 10.8299 49.9127 10.8266C50.3811 10.7913 50.8519 10.8489 51.2982 10.996C51.7445 11.1431 52.1575 11.3769 52.5136 11.6839C52.8697 11.991 53.162 12.3653 53.3737 12.7856C53.5855 13.2059 53.7126 13.6638 53.7478 14.1333L53.9982 17.4801C54.0333 17.9498 53.9758 18.4219 53.8288 18.8693C53.6819 19.3168 53.4484 19.7308 53.1417 20.0877C52.835 20.4447 52.4611 20.7375 52.0415 20.9496C51.6218 21.1617 51.1645 21.2888 50.6958 21.3237Z" fill="white"/>
<path d="M50.6702 21.4173C50.561 21.417 50.4558 21.3755 50.3758 21.3009C50.2957 21.2264 50.2467 21.1243 50.2384 21.0151L49.5046 11.2005C49.4962 11.0857 49.5336 10.9722 49.6086 10.8849C49.6835 10.7976 49.7899 10.7436 49.9045 10.7348C50.8748 10.6619 51.8343 10.9782 52.5719 11.6142C53.3095 12.2502 53.7649 13.1537 53.8379 14.1261L54.088 17.4729C54.159 18.4448 53.8428 19.4053 53.2085 20.1439C52.5742 20.8826 51.6736 21.3391 50.7041 21.4134C50.6921 21.4169 50.6812 21.4173 50.6702 21.4173ZM50.1842 10.9098C50.0959 10.9098 50.0073 10.9134 49.9184 10.9199C49.8528 10.925 49.7918 10.9559 49.7489 11.0059C49.706 11.0559 49.6845 11.1209 49.6892 11.1866L50.4231 21.0013C50.4253 21.0339 50.434 21.0658 50.4487 21.095C50.4633 21.1243 50.4836 21.1503 50.5084 21.1717C50.5331 21.1931 50.5619 21.2093 50.5929 21.2194C50.6239 21.2296 50.6567 21.2335 50.6893 21.2309C51.6103 21.1607 52.4659 20.7272 53.0685 20.0256C53.671 19.3239 53.9712 18.4114 53.9033 17.4881L53.6532 14.1413C53.5871 13.2641 53.1932 12.4441 52.5501 11.8453C51.9069 11.2465 51.0621 10.913 50.1842 10.9115V10.9098Z" fill="#371A45"/>
<g opacity="0.35">
<path opacity="0.35" d="M53.8778 15.9116L53.9958 17.4813C54.031 17.9509 53.9735 18.4228 53.8267 18.8701C53.6799 19.3173 53.4466 19.7313 53.1401 20.0882C52.8337 20.4451 52.4601 20.738 52.0406 20.9502C51.6212 21.1624 51.1642 21.2897 50.6957 21.3249C50.6054 21.3315 50.5163 21.3019 50.4478 21.2427C50.3793 21.1835 50.337 21.0994 50.3302 21.009L50.1343 18.3999C50.1654 18.4578 50.2126 18.5055 50.2701 18.5373C50.3276 18.569 50.393 18.5834 50.4585 18.5788L50.6908 18.5608C51.4307 18.5054 52.1351 18.2206 52.7062 17.7459C53.2772 17.2712 53.6867 16.6301 53.8778 15.9116Z" fill="#371A45"/>
</g>
<path d="M50.6696 21.8413C50.4537 21.8407 50.246 21.7587 50.0878 21.6115C49.9296 21.4643 49.8325 21.2628 49.8159 21.0471L49.0824 11.2322C49.0658 11.0052 49.1396 10.7809 49.2877 10.6084C49.4359 10.4359 49.6462 10.3293 49.8726 10.312C50.9549 10.2308 52.0251 10.5838 52.8477 11.2933C53.6704 12.0028 54.1782 13.0108 54.2594 14.0955L54.5095 17.4422C54.5893 18.5267 54.2367 19.5986 53.529 20.4228C52.8213 21.247 51.8162 21.7562 50.7344 21.8387C50.7128 21.8404 50.6912 21.8413 50.6696 21.8413ZM50.1243 11.3342L50.831 20.7897C51.6054 20.6858 52.311 20.2894 52.8035 19.6816C53.2961 19.0737 53.5385 18.3003 53.4811 17.5194L53.231 14.1726C53.1726 13.3915 52.8182 12.6623 52.2406 12.1346C51.663 11.6068 50.9058 11.3205 50.1243 11.3342Z" fill="#371A45"/>
<path d="M17.5869 13.2545C17.6771 13.2478 17.7662 13.2772 17.8347 13.3363C17.9032 13.3954 17.9455 13.4794 17.9524 13.5697L18.6859 23.3843C18.6892 23.4291 18.6838 23.4741 18.6698 23.5167C18.6558 23.5593 18.6336 23.5988 18.6044 23.6328C18.5752 23.6668 18.5395 23.6947 18.4995 23.715C18.4596 23.7352 18.416 23.7473 18.3713 23.7506C17.9029 23.7858 17.4321 23.7283 16.9858 23.5812C16.5395 23.4341 16.1265 23.2003 15.7704 22.8932C15.4143 22.5862 15.122 22.2118 14.9103 21.7916C14.6985 21.3713 14.5714 20.9133 14.5362 20.4438L14.2858 17.097C14.2508 16.6275 14.3084 16.1556 14.4553 15.7084C14.6023 15.2612 14.8357 14.8473 15.1422 14.4905C15.4488 14.1337 15.8224 13.8409 16.2419 13.6288C16.6613 13.4167 17.1184 13.2895 17.5869 13.2545Z" fill="white"/>
<path d="M18.0988 23.8539C17.174 23.8524 16.2839 23.501 15.6066 22.8701C14.9292 22.2391 14.5145 21.3751 14.4455 20.4509L14.1954 17.1034C14.1243 16.1315 14.4406 15.171 15.0749 14.4324C15.7092 13.6938 16.6097 13.2373 17.5793 13.163C17.6361 13.1587 17.6931 13.1656 17.7472 13.1834C17.8013 13.2012 17.8514 13.2296 17.8946 13.2668C17.9377 13.304 17.9731 13.3494 17.9988 13.4004C18.0244 13.4514 18.0398 13.5069 18.044 13.5638L18.7778 23.3781C18.7862 23.493 18.7488 23.6065 18.6738 23.6939C18.5989 23.7812 18.4925 23.8352 18.3779 23.8442C18.2851 23.85 18.1919 23.8539 18.0988 23.8539ZM17.6131 13.3468C17.6068 13.3464 17.6004 13.3464 17.5941 13.3468C16.6731 13.417 15.8174 13.8504 15.2149 14.5521C14.6123 15.2538 14.3121 16.1663 14.38 17.0895L14.6314 20.4367C14.6656 20.8939 14.7893 21.34 14.9955 21.7493C15.2017 22.1587 15.4864 22.5234 15.8332 22.8225C16.18 23.1216 16.5822 23.3493 17.0168 23.4926C17.4515 23.636 17.91 23.6921 18.3663 23.6578C18.4319 23.6528 18.4929 23.6219 18.5358 23.5719C18.5788 23.5218 18.6002 23.4568 18.5954 23.391L17.8616 13.5764C17.8569 13.5139 17.8288 13.4555 17.783 13.4129C17.7371 13.3702 17.6769 13.3465 17.6144 13.3464L17.6131 13.3468Z" fill="#371A45"/>
<g opacity="0.35">
<path opacity="0.35" d="M18.4833 20.6615L18.6866 23.3842C18.6932 23.4747 18.6637 23.5641 18.6045 23.6328C18.5454 23.7015 18.4614 23.7438 18.3711 23.7505C17.9028 23.7858 17.4322 23.7282 16.9861 23.5811C16.54 23.434 16.1271 23.2003 15.7712 22.8933C15.4152 22.5863 15.1231 22.212 14.9115 21.7918C14.6999 21.3716 14.573 20.9138 14.538 20.4444L14.4326 19.0339C14.7624 19.6386 15.259 20.1352 15.8631 20.4642C16.4672 20.7933 17.1531 20.941 17.8387 20.8895L18.1961 20.8627C18.2576 20.8579 18.3166 20.8367 18.3671 20.8013C18.4176 20.7659 18.4577 20.7176 18.4833 20.6615Z" fill="#371A45"/>
</g>
<path d="M18.1015 24.2772C17.0698 24.2753 16.0769 23.8835 15.3209 23.18C14.565 22.4765 14.1016 21.5131 14.0234 20.4821L13.7733 17.1357C13.6935 16.0513 14.0462 14.9795 14.7539 14.1553C15.4616 13.3312 16.4666 12.822 17.5484 12.7395C17.6606 12.731 17.7733 12.7447 17.8801 12.7799C17.987 12.8151 18.0859 12.8711 18.1711 12.9446C18.2564 13.0181 18.3263 13.1078 18.377 13.2084C18.4276 13.3091 18.4579 13.4187 18.4663 13.5311L19.2001 23.3454C19.2168 23.5724 19.143 23.7968 18.9948 23.9693C18.8467 24.1418 18.6363 24.2484 18.4099 24.2656C18.3067 24.2737 18.2036 24.2772 18.1015 24.2772ZM17.4517 13.7876C16.6769 13.8907 15.9708 14.2869 15.4781 14.895C14.9854 15.5031 14.7434 16.277 14.8017 17.0582L15.0518 20.405C15.1736 22.0335 16.5487 23.2795 18.1585 23.2434L17.4517 13.7876Z" fill="#371A45"/>
<g opacity="0.35">
<path opacity="0.35" d="M46.997 31.4408C45.433 33.3203 43.4777 34.8341 41.2682 35.8759C39.0586 36.9177 36.6484 37.4624 34.2065 37.4716C29.3427 37.4897 24.9572 35.4265 21.8853 32.1178C21.4371 31.635 21.0174 31.1264 20.6284 30.5946C20.7122 30.5868 20.7973 30.5843 20.8837 30.5843H24.3913C27.6334 28.7872 30.8974 27.6451 32.764 27.5288H32.9599C34.8266 27.6464 38.0893 28.7885 41.3314 30.5843H44.6443C45.5048 30.5825 46.3382 30.886 46.997 31.4408Z" fill="#371A45"/>
</g>
<path d="M34.1435 34.0606C43.3858 34.0606 50.8782 26.5516 50.8782 17.2888C50.8782 8.02606 43.3858 0.51709 34.1435 0.51709C24.9011 0.51709 17.4087 8.02606 17.4087 17.2888C17.4087 26.5516 24.9011 34.0606 34.1435 34.0606Z" fill="white"/>
<path d="M34.1417 34.1533C29.6711 34.1533 25.4648 32.4169 22.2897 29.2591C19.0992 26.0858 17.3331 21.8575 17.316 17.3528C17.299 12.8481 19.0334 8.60635 22.1998 5.4091C25.3661 2.21185 29.585 0.441557 34.0795 0.424438H34.1439C43.3932 0.424438 50.9345 7.94745 50.9702 17.2249C51.0054 26.524 43.4854 34.1171 34.2068 34.1533H34.1417ZM34.1443 0.609833H34.0798C29.6347 0.626628 25.4622 2.37754 22.3306 5.53958C19.1991 8.70162 17.4843 12.8966 17.501 17.3519C17.5178 21.8071 19.2648 25.9885 22.4199 29.1267C25.5598 32.2496 29.7201 33.9673 34.1414 33.9673H34.2058C43.3823 33.9324 50.8194 26.422 50.7846 17.2253C50.7505 8.05081 43.2908 0.609833 34.1443 0.609833Z" fill="#371A45"/>
<g opacity="0.35">
<path opacity="0.35" d="M50.7089 14.9043C50.8192 15.6732 50.8758 16.4488 50.8784 17.2256C50.9122 26.4879 43.4487 34.0251 34.2065 34.061C24.9643 34.0968 17.444 26.6148 17.4082 17.3525C17.4082 17.0861 17.4121 16.8196 17.424 16.557C18.5842 24.717 25.5966 30.9761 34.0534 30.9442C43.0291 30.9096 50.3263 23.7994 50.7089 14.9043Z" fill="#371A45"/>
</g>
<path d="M34.1417 34.577C29.5589 34.577 25.2469 32.7967 21.9919 29.5594C18.7215 26.3066 16.9106 21.9718 16.8932 17.3541C16.8758 12.7363 18.6535 8.38797 21.8994 5.10998C25.1454 1.83198 29.4703 0.0174413 34.0779 0H34.1446C43.6259 0 51.3576 7.71228 51.3937 17.223C51.4295 26.7559 43.7203 34.5409 34.2087 34.577H34.1417ZM34.1446 1.03356H34.082C29.75 1.05003 25.6836 2.75637 22.6316 5.83799C19.5797 8.91961 17.9084 13.0083 17.9264 17.3502C17.9445 21.6921 19.6451 25.7676 22.7202 28.8259C25.7819 31.8694 29.8351 33.5435 34.1436 33.5435H34.2081C43.1512 33.5096 50.3995 26.19 50.3656 17.2272C50.3289 8.28591 43.0587 1.03388 34.1446 1.03388V1.03356Z" fill="#371A45"/>
<path d="M50.8266 17.6561C50.8885 20.9377 49.883 24.0041 48.1127 26.5593C46.7859 28.4746 41.2463 31.8886 34.33 32.0824C27.9167 32.2616 22.0168 28.9449 20.6185 27.0809C18.7531 24.5939 17.6329 21.5685 17.571 18.2873C17.4073 9.60279 24.7832 5.86357 33.9681 5.68786C43.1529 5.51216 50.6619 8.97264 50.8266 17.6561Z" fill="#371A45"/>
<path d="M33.8189 32.6068C27.3595 32.6068 21.6446 29.3097 20.206 27.3922C18.2079 24.7272 17.1173 21.5823 17.0551 18.2975C16.9742 14.0089 18.6287 10.6692 21.972 8.37113C24.8802 6.37217 29.0247 5.26626 33.9571 5.17356C38.8895 5.08087 43.0723 6.02819 46.0543 7.91572C49.4817 10.0856 51.2607 13.36 51.3416 17.6486C51.4038 20.9337 50.4334 24.1174 48.5378 26.856C47.2203 28.7574 41.7056 32.3943 34.3454 32.6C34.1685 32.6026 33.9932 32.6068 33.8189 32.6068ZM34.564 6.20066C34.3594 6.20066 34.1637 6.20249 33.9768 6.20615C29.132 6.29788 17.8859 7.65959 18.086 18.2778C18.144 21.3442 19.1621 24.2808 21.0303 26.7723C22.3552 28.5384 28.0859 31.7425 34.3152 31.5677C41.2212 31.3739 46.5133 27.9642 47.6896 26.2672C49.4621 23.7085 50.369 20.7351 50.3113 17.669C50.1179 7.45482 39.6739 6.19905 34.564 6.19905V6.20066Z" fill="#371A45"/>
<g opacity="0.7">
<path opacity="0.7" d="M47.5222 16.9236C47.784 15.3056 47.0477 13.8405 45.8776 13.6511C44.7075 13.4618 43.5468 14.6201 43.285 16.2381C43.0232 17.8561 43.7596 19.3212 44.9296 19.5105C46.0997 19.6998 47.2604 18.5416 47.5222 16.9236Z" fill="white"/>
</g>
<g opacity="0.7">
<path opacity="0.7" d="M43.9981 22.8504C44.2197 22.1315 43.9 21.3949 43.2842 21.2051C42.6683 21.0152 41.9895 21.4441 41.7679 22.163C41.5463 22.8819 41.8659 23.6186 42.4818 23.8084C43.0976 23.9982 43.7765 23.5693 43.9981 22.8504Z" fill="white"/>
</g>
<g opacity="0.35">
<path opacity="0.35" d="M47.4389 9.61658C49.5083 11.5222 50.7584 14.1681 50.8254 17.6557C50.8873 20.9376 49.8815 24.004 48.1125 26.5592C46.785 28.4748 41.2448 31.8885 34.3288 32.0823C31.8866 32.1511 29.5198 31.7121 27.4463 31.0387C35.9427 30.6188 42.6899 26.4303 44.3361 24.0547C46.583 20.812 47.8585 16.9193 47.7796 12.7554C47.7636 11.7008 47.6496 10.65 47.4389 9.61658Z" fill="#111A28"/>
</g>
<path d="M18.6833 11.3731C18.5892 11.3728 18.4969 11.3468 18.4164 11.2977C18.336 11.2486 18.2705 11.1784 18.2271 11.0947C18.1836 11.0109 18.1639 10.9169 18.17 10.8227C18.1762 10.7285 18.2079 10.6378 18.2618 10.5604C21.133 6.1607 26.8063 3.56098 33.8306 3.42791C40.8075 3.29387 46.5669 5.59515 49.6478 9.73682C49.7294 9.8347 49.7719 9.95934 49.7673 10.0868C49.7627 10.2142 49.7112 10.3354 49.6228 10.4271C49.5344 10.5188 49.4153 10.5745 49.2884 10.5835C49.1614 10.5925 49.0357 10.5541 48.9353 10.4758L48.8808 10.4351L48.836 10.3744C45.9601 6.4908 40.502 4.33453 33.8503 4.46114C27.1663 4.58808 21.7972 7.02146 19.1178 11.1376L19.0884 11.1783C19.04 11.2393 18.9783 11.2885 18.9082 11.3222C18.838 11.356 18.7612 11.3733 18.6833 11.3731Z" fill="#371A45"/>
<g opacity="0.7">
<path opacity="0.7" d="M21.4023 23.3811C21.4023 23.3811 18.5572 14.8658 23.0994 11.3659C27.6415 7.86605 34.2694 7.75333 34.1212 8.18226C34.1212 8.18226 26.8174 10.1014 24.0565 15.9691C21.9285 20.4923 21.4023 23.3811 21.4023 23.3811Z" fill="white"/>
</g>
<path d="M39.9743 43.2215C40.0356 43.0516 40.0933 42.8514 40.1422 42.6624C40.1912 42.4735 40.2331 42.2768 40.2641 42.0839C40.2973 41.8951 40.315 41.7039 40.3172 41.5123C40.3172 41.3275 40.3024 41.1441 40.2496 40.9955L40.2431 40.9767C40.2218 40.9171 40.2233 40.8517 40.2472 40.7931C40.2712 40.7345 40.3161 40.6868 40.373 40.6594C40.43 40.632 40.4951 40.6267 40.5558 40.6446C40.6164 40.6624 40.6683 40.7022 40.7014 40.7561C40.8403 40.9806 40.9057 41.2145 40.9544 41.4428C40.9992 41.6664 41.0259 41.8932 41.0343 42.1211C41.0453 42.3456 41.0443 42.5681 41.0343 42.7897C41.0243 43.0112 41.0088 43.2254 40.9769 43.4628V43.4676C40.9584 43.6043 40.8865 43.728 40.777 43.8115C40.6675 43.8951 40.5294 43.9316 40.393 43.913C40.2566 43.8945 40.1332 43.8224 40.0498 43.7126C39.9665 43.6029 39.9301 43.4644 39.9486 43.3278C39.9535 43.2916 39.9621 43.2559 39.9743 43.2215Z" fill="#371A45"/>
<path d="M25.1056 43.4634C25.0734 43.226 25.0592 43.0148 25.0483 42.7903C25.0373 42.5658 25.0373 42.3462 25.0483 42.1217C25.0566 41.8938 25.0834 41.667 25.1282 41.4434C25.1768 41.2151 25.2423 40.9812 25.3812 40.7568C25.4143 40.7028 25.4662 40.663 25.5268 40.6452C25.5874 40.6273 25.6525 40.6326 25.7095 40.66C25.7665 40.6874 25.8113 40.7351 25.8353 40.7937C25.8593 40.8523 25.8608 40.9177 25.8394 40.9774L25.833 40.9961C25.7801 41.1453 25.7644 41.3288 25.7653 41.5129C25.7675 41.7046 25.7853 41.8958 25.8185 42.0846C25.8507 42.2783 25.8904 42.4721 25.9403 42.663C25.9903 42.8539 26.047 43.0522 26.1082 43.2221C26.133 43.2906 26.1432 43.3636 26.138 43.4362C26.1329 43.5089 26.1125 43.5797 26.0783 43.644C26.0441 43.7083 25.9968 43.7647 25.9395 43.8095C25.8822 43.8543 25.8161 43.8865 25.7455 43.9041C25.675 43.9217 25.6015 43.9242 25.5299 43.9114C25.4583 43.8987 25.3902 43.8711 25.33 43.8303C25.2697 43.7895 25.2187 43.7365 25.1802 43.6747C25.1418 43.6129 25.1167 43.5436 25.1066 43.4715L25.1056 43.4634Z" fill="#371A45"/>
</svg>
