<svg width="66" height="80" fill="none" xmlns="http://www.w3.org/2000/svg"><g clip-path="url(#a)"><path d="m9.94 64.969 2.932-1.27 3.292.389 4.763 4.872-3.61 5.443-4.278 1.076-.922-.181-8.619-1.245L9.94 64.97Z" fill="url(#b)"/><path d="M6.825 72.542c4.536-1.992 7.607 1.184 10.483-.08 2.876-1.263 1.837-5.337 1.837-5.337s-2.23-3.551-5.107-2.288C11.16 66.1 11.36 70.55 6.824 72.542Z" fill="#FFD553"/><path d="M13.4 75.96c-1.216 0-2.354-.332-3.53-.676-2.379-.696-5.075-1.484-9.274.36a.416.416 0 0 1-.561-.218.43.43 0 0 1 .226-.563c4.205-1.846 5.517-4.288 6.676-6.443.963-1.792 1.873-3.485 4.196-4.506 2.157-.947 4.362-.745 6.378.584 1.5.988 2.356 2.24 2.393 2.293.03.045.052.096.064.149.013.062.332 1.552.02 3.335-.418 2.398-1.779 4.166-3.935 5.113a6.463 6.463 0 0 1-2.653.573Zm-7.856-2.314c1.752 0 3.205.424 4.559.82 1.912.56 3.563 1.043 5.615.142 4.267-1.874 3.566-6.722 3.444-7.404-.425-.589-3.39-4.4-7.695-2.509-2.058.904-2.862 2.4-3.793 4.132-.865 1.609-1.811 3.37-3.873 4.958a11.07 11.07 0 0 1 1.743-.14Z" fill="#371A45"/><path d="M45.017 41.493s5.462 2.322 6.388 3.758c.926 1.435-2.47 1.471-2.47 1.471" fill="#fff"/><path d="M48.935 47.215a.483.483 0 0 1-.387-.195l-3.919-5.23a.494.494 0 0 1 .264-.77.48.48 0 0 1 .31.021c.574.244 5.628 2.426 6.609 3.944.343.533.256.948.12 1.203-.491.929-2.413 1.02-2.99 1.027h-.007Zm-2.386-4.487 2.62 3.5c.909-.044 1.783-.268 1.906-.502.012-.022-.012-.101-.077-.204-.464-.72-2.562-1.888-4.449-2.795v.001Z" fill="#371A45"/><path d="M22.085 29.314c-2.122 1.61-4.066 9.272-3.575 13.84.492 4.569 8.471 4.91 13.034 4.76 4.563-.149 4.547-10.588 4.488-13.385-.094-4.366-10.802-7.6-13.947-5.215Z" fill="#fff"/><path opacity=".25" d="M31.544 47.914c-4.564.149-12.542-.194-13.034-4.762a15.193 15.193 0 0 1-.073-1.932c1.26 1.002 3.016.11 3.228-1.115 1.306-7.568 4.092-10.471 5.439-11.466 4.105.582 8.865 2.985 8.926 5.891.062 2.797.077 13.237-4.486 13.384Z" fill="#371A45"/><path d="M29.953 48.433c-5.514 0-11.47-.997-11.925-5.226-.475-4.42 1.334-12.441 3.765-14.286 2.157-1.636 7.132-.855 10.505.806 2.682 1.322 4.18 3.023 4.217 4.792.11 5.123-.388 13.737-4.957 13.887-.526.017-1.064.027-1.605.027Zm-4.63-19.443c-1.255 0-2.308.233-2.946.716-1.959 1.486-3.856 8.997-3.383 13.395.441 4.102 8.044 4.47 12.536 4.324 3.981-.13 4.082-9.895 4.018-12.884-.03-1.363-1.368-2.796-3.672-3.931-2.142-1.055-4.594-1.62-6.553-1.62Z" fill="#371A45"/><path d="m22.533 36.978-2.025-.817a.81.81 0 0 0-.94.249.833.833 0 0 0-.156.311c-.426 1.661-1.08 5.103.57 5.808 2.002.855 2.711-1.483 3.063-4.692a.837.837 0 0 0-.113-.516.822.822 0 0 0-.399-.343Z" fill="#fff"/><path opacity=".25" d="M23.04 37.832c-.344 3.21-1.048 5.549-3.05 4.699-.824-.348-1.077-1.377-1.07-2.527.167.33.406.584.741.726 1.793.76 2.547-1.035 2.93-3.725a.815.815 0 0 1 .45.827Z" fill="#371A45"/><path d="M20.76 43.16c-.296 0-.612-.07-.944-.21-1.83-.777-1.47-3.876-.845-6.338a1.288 1.288 0 0 1 .652-.823 1.258 1.258 0 0 1 1.042-.049l2.027.813c.258.103.475.289.618.529.143.24.205.52.176.799-.316 2.95-.866 4.456-1.84 5.036a1.7 1.7 0 0 1-.885.244Zm-.563-6.603a.37.37 0 0 0-.358.28c-.57 2.243-.783 4.807.323 5.275.42.179.757.186 1.03.024 1-.596 1.303-3.424 1.403-4.353a.378.378 0 0 0-.233-.387l-2.027-.813a.373.373 0 0 0-.138-.026ZM21.789 29.324l2.386 1.114c.794.378 1.586.752 2.374 1.157a.245.245 0 0 1 .112.32.24.24 0 0 1-.31.128l-.004-.002c-.804-.323-1.629-.622-2.45-.922l-2.47-.884-.004-.002a.498.498 0 0 1-.031-.89.481.481 0 0 1 .355-.036l.042.017Z" fill="#371A45"/><path d="M58.447 27.847c-.787 2.716-6.762 7.746-15.335 7.998a22.82 22.82 0 0 1-2.558-.067l-.765-3.306-.613-2.646s1.332-.246 3.15-.735c1.438-.386 3.18-.923 4.814-1.61 1.54-.648 2.983-1.429 3.98-2.343 0 0 .054-2.722.817-2.998.931-.34 1.62 1.575 1.62 1.575s2.118-2.205 3.353-1.991c1.838.316 2.401 3.144 1.537 6.123Z" fill="#fff"/><path opacity=".35" d="M58.833 25.626a9.886 9.886 0 0 1-.386 2.22c-.863 2.98-7.966 8.742-17.893 7.932l-1.378-5.952s.414-.077 1.094-.229l1.61 3.155c8.199 2.5 15.606-4.061 16.953-7.126Z" fill="#371A45"/><path d="M42.438 36.346a24.25 24.25 0 0 1-1.921-.077.481.481 0 0 1-.426-.338.498.498 0 0 1 .147-.526.483.483 0 0 1 .355-.115c9.79.799 16.626-4.952 17.39-7.581.543-1.877.49-3.745-.137-4.76-.258-.42-.6-.67-1.016-.741-.677-.117-2.117 1.01-2.923 1.85l-.538.56-.264-.734c-.214-.587-.704-1.374-.994-1.284-.24.173-.48 1.382-.505 2.548l-.004.212-.155.142c-3.454 3.166-11.827 4.743-12.182 4.807a.48.48 0 0 1-.363-.079.491.491 0 0 1-.123-.682.484.484 0 0 1 .312-.204c.083-.015 8.2-1.544 11.551-4.432.038-1.007.23-2.903 1.132-3.232.915-.334 1.58.537 1.94 1.205.777-.712 2.194-1.83 3.279-1.643.69.119 1.27.53 1.676 1.188.779 1.261.871 3.39.244 5.556-.88 3.033-7.365 8.36-16.475 8.36Z" fill="#371A45"/><path d="M49.548 47.539S37.544 52.236 33.332 51.9c-4.211-.336-8.746-1.01-8.994-9.094-.154-5.026 2.302-9.97 4.184-12.99 1.145-1.84 2.078-2.968 2.078-2.968l11.59.599s.045.618.138 1.644c.058.64.136 1.439.234 2.344.14 1.3.323 2.82.55 4.41.35 2.434.807 5.028 1.384 7.233.247.954 4.204 1.216 5.052 4.46Z" fill="#fff"/><path d="M42.851 32.572c.434 1.43.682 2.877.934 4.322.25 1.445.482 2.89.777 4.32.075.358.155.713.237 1.068l.128.53.033.133.002.008v-.005c0-.002 0-.004-.002-.006a.018.018 0 0 0-.004-.004c.001 0 .003 0 .004.002.002.002 0 .003.003.007a.501.501 0 0 0 .071.067c.091.075.235.156.383.234.148.078.31.152.474.227.328.15.67.305 1.007.478.674.344 1.35.765 1.915 1.348.286.291.534.619.738.974.203.358.359.742.464 1.14l.113.427-.407.157a126.38 126.38 0 0 1-5.762 2.058c-1.937.64-3.89 1.23-5.886 1.708-1 .234-2.007.446-3.048.565-.52.06-1.047.1-1.6.068-.142-.004-.263-.018-.391-.026l-.383-.034a26.706 26.706 0 0 1-.768-.08c-1.025-.122-2.069-.306-3.078-.681a7.542 7.542 0 0 1-1.455-.724 6.501 6.501 0 0 1-1.262-1.062 6.858 6.858 0 0 1-.951-1.343 8.337 8.337 0 0 1-.64-1.495l-.065-.191-.053-.194-.106-.39-.087-.39-.043-.196-.034-.196-.068-.393c-.02-.13-.034-.262-.05-.394-.038-.262-.06-.525-.082-.788-.09-1.053-.08-2.112.027-3.164.112-1.047.306-2.083.581-3.099.542-2.027 1.361-3.957 2.325-5.795.481-.92.963-1.843 1.548-2.7.584-.858 1.232-1.674 2.084-2.318a.165.165 0 0 1 .261.096.17.17 0 0 1-.01.108l-.003.006c-.426.95-.946 1.815-1.474 2.674-.52.864-1.08 1.703-1.549 2.597-.94 1.783-1.727 3.652-2.246 5.59a18.89 18.89 0 0 0-.552 2.943c-.102.991-.11 1.99-.026 2.983.021.248.041.497.077.742.017.123.03.247.049.37l.063.365.032.182.04.18.08.36.096.354.048.177.058.172c.145.46.335.904.567 1.326.225.416.499.803.816 1.153.633.693 1.445 1.2 2.342 1.531.896.331 1.867.51 2.853.627.246.03.495.055.744.078l.375.033c.124.01.256.023.367.026.117.002.23.015.35.009l.36-.009c.241-.018.482-.031.727-.064.976-.11 1.958-.315 2.934-.544 1.952-.467 3.887-1.054 5.807-1.685 1.92-.63 3.83-1.315 5.712-2.04l-.294.584a3.735 3.735 0 0 0-.954-1.676c-.459-.473-1.039-.843-1.662-1.16-.313-.16-.637-.307-.972-.46-.168-.079-.338-.156-.513-.247a3.147 3.147 0 0 1-.548-.342 1.377 1.377 0 0 1-.149-.138l-.074-.083c-.026-.033-.05-.071-.073-.107a1.016 1.016 0 0 1-.11-.257l-.035-.135-.14-.542c-.088-.363-.175-.724-.255-1.087a63.236 63.236 0 0 1-.458-2.181 46.455 46.455 0 0 1-.357-2.196c-.2-1.468-.338-2.946-.248-4.444a.167.167 0 0 1 .145-.154.163.163 0 0 1 .177.116v-.004Z" fill="#371A45"/><path d="m25.501 72.236-2.076.327a2.56 2.56 0 0 1-1.367-.16 2.591 2.591 0 0 1-1.092-.845 15.814 15.814 0 0 1-3.064-7.85c-.049-.469.03-.943.226-1.372a2.61 2.61 0 0 1 .89-1.061l1.736-1.198" fill="#0AF"/><path opacity=".6" d="m21.123 61.282-1.72 1.186c-.426.294-.766.7-.983 1.174a2.921 2.921 0 0 0-.25 1.517c.043.409.1.815.17 1.219a15.847 15.847 0 0 1-.438-2.41c-.049-.47.03-.945.226-1.373a2.61 2.61 0 0 1 .889-1.062l1.738-1.197.368.946Z" fill="#fff"/><path opacity=".35" d="M19.21 68.082c.426.858.927 1.675 1.5 2.44.282.376.66.669 1.092.846.433.177.905.231 1.367.158l1.937-.305-4.35-11.145-.372.256 3.226 8.262-2.078.327c-.425.067-.86.026-1.266-.12a2.582 2.582 0 0 1-1.056-.719Zm4.003-.502-2.83-7.248.118-.08 2.852 7.306-.14.021Z" fill="#371A45"/><path d="M25.869 56.847c-1.08-2.141-4.78-4.974-12.06-.3a.126.126 0 0 0-.055.13.126.126 0 0 0 .1.1c1.212.219 6.91 1.201 7.953 4.2" fill="#F55"/><path opacity=".6" d="M15.035 56.878c-.522-.113-.94-.187-1.18-.23a.124.124 0 0 1-.1-.1.127.127 0 0 1 .054-.13c7.28-4.675 10.98-1.84 12.06.3l-.44.447c-1.397-1.825-4.678-3.488-10.394-.287Z" fill="#fff"/><path d="M21.806 61.468a.481.481 0 0 1-.457-.328c-.349-1.003-1.79-2.838-7.523-3.87l-.057-.01a.608.608 0 0 1-.49-.488.624.624 0 0 1 .27-.64c3.539-2.272 6.624-3.067 9.17-2.363 2.246.622 3.253 2.203 3.581 2.855a.496.496 0 0 1-.211.66.48.48 0 0 1-.653-.214c-.27-.535-1.101-1.836-2.973-2.354-2.056-.569-4.67.039-7.6 1.757 5.224 1.093 6.916 2.945 7.4 4.34a.496.496 0 0 1-.234.6.482.482 0 0 1-.223.055Z" fill="#371A45"/><path d="M31.324 70.823c.658 2.31-.082 7.062-8.552 8.683a.123.123 0 0 1-.128-.057.127.127 0 0 1 .005-.142c.737-.997 4.181-5.788 2.918-8.698" fill="#D25658"/><path d="M22.773 79.507a.124.124 0 0 1-.129-.058.128.128 0 0 1 .006-.142c.377-.51 1.465-2.016 2.266-3.755.758-1.643 1.259-3.495.664-4.91l-.014-.032h.035l5.723.212a5.23 5.23 0 0 1 .083 2.4c-.449 2.332-2.541 5.118-8.634 6.285Z" fill="#F55"/><path opacity=".35" d="M24.916 75.552c.758-1.643 1.26-3.495.664-4.91l.022-.03 5.722.211c.185.648.26 1.489.083 2.4-1.365 1.172-3.435 2.093-6.491 2.329Z" fill="#371A45"/><path d="M22.747 80a.604.604 0 0 1-.542-.341.623.623 0 0 1 .056-.644c.949-1.285 3.96-5.675 2.861-8.206a.497.497 0 0 1 .249-.648.48.48 0 0 1 .64.25c1.12 2.577-.998 6.334-2.426 8.421 3.255-.765 5.552-2.13 6.673-3.973 1.082-1.78.733-3.435.601-3.9a.495.495 0 0 1 .332-.608.48.48 0 0 1 .369.042.49.49 0 0 1 .231.294c.205.721.548 2.622-.707 4.686-1.389 2.284-4.154 3.836-8.22 4.615a.598.598 0 0 1-.117.012Z" fill="#371A45"/><path d="M65.542 49.145s-1.903 12.252-17.585 19.82c-13.36 6.448-22.597 3.271-22.597 3.271a18.952 18.952 0 0 1-4.746-12.16s2.051-3.887 7.62-7.818c.192-.135.389-.27.59-.406 2.175-1.47 4.848-2.929 8.097-4.173a46.968 46.968 0 0 1 2.495-.873c3.355-1.071 6.427-1.609 9.19-1.789l.263-.015c10.663-.603 16.673 4.143 16.673 4.143Z" fill="#fff"/><path d="M57.546 62.594a45.71 45.71 0 0 0-6.887-17.642c9.63-.065 15.023 4.193 15.023 4.193s-1.061 6.836-8.136 13.45Z" fill="#F55"/><path opacity=".6" d="M65.483 49.905c.15-.57.2-.89.2-.89s-5.393-4.258-15.024-4.193c.226.344.447.69.663 1.04 8.163.114 13.135 3.314 14.16 4.043Z" fill="#fff"/><path d="m57.216 63.571-.148-.896a44.922 44.922 0 0 0-6.813-17.451l-.497-.756.896-.007c7.634-.053 12.676 2.589 14.49 3.726.331.206.588.515.73.88.144.366.165.77.062 1.148-.556 2.085-2.456 7.5-8.062 12.74l-.658.616ZM51.557 45.45a45.857 45.857 0 0 1 6.309 16.16c4.92-4.865 6.622-9.73 7.135-11.65a.85.85 0 0 0-.367-.939c-1.67-1.047-6.2-3.422-13.077-3.572Z" fill="#371A45"/><path d="M31.702 73.51c-3.96 0-6.261-.776-6.358-.81l-.12-.04-.085-.096a19.434 19.434 0 0 1-4.87-12.477l-.003-.128.06-.114c.049-.091 1.221-2.28 4.16-5.048 2.693-2.537 7.453-6.058 14.824-8.427 3.866-1.242 7.682-1.884 11.345-1.908l.262-.002.145.22a45.896 45.896 0 0 1 6.955 17.788l.096.264-.238.224c-2.689 2.516-5.91 4.687-9.57 6.454-6.982 3.37-12.835 4.09-16.515 4.1h-.088Zm-5.93-1.702c.513.153 2.69.74 6.067.72 3.57-.017 9.253-.726 16.048-4.005 3.485-1.681 6.557-3.736 9.137-6.108a44.904 44.904 0 0 0-6.624-16.97c-3.486.053-7.116.678-10.796 1.86-12.919 4.151-17.78 11.897-18.362 12.896a18.445 18.445 0 0 0 4.53 11.607Z" fill="#371A45"/><path d="M23.024 73.085c-.473 0-.94-.11-1.365-.324a3.076 3.076 0 0 1-1.08-.907 16.306 16.306 0 0 1-3.16-8.095 3.136 3.136 0 0 1 .268-1.63 3.094 3.094 0 0 1 1.057-1.26l1.737-1.198a.482.482 0 0 1 .757.302.496.496 0 0 1-.21.51L19.29 61.68a2.117 2.117 0 0 0-.723.862c-.16.348-.223.734-.183 1.115a15.317 15.317 0 0 0 2.968 7.605 2.1 2.1 0 0 0 .888.687c.351.144.735.189 1.11.13l2.077-.328a.48.48 0 0 1 .361.09.492.492 0 0 1-.211.88l-2.078.327a3.046 3.046 0 0 1-.474.037Z" fill="#371A45"/><path opacity=".35" d="M50.735 62.554c2.605-2.636 2.605-6.91 0-9.546a6.615 6.615 0 0 0-9.433 0c-2.605 2.636-2.605 6.91 0 9.546a6.615 6.615 0 0 0 9.433 0Z" fill="#371A45"/><path d="M46.166 63.017c3.312 0 5.998-2.718 5.998-6.07 0-3.353-2.686-6.07-5.998-6.07-3.313 0-5.999 2.717-5.999 6.07 0 3.352 2.686 6.07 5.998 6.07Z" fill="#F55"/><path opacity=".6" d="M52.065 55.975a5.914 5.914 0 0 0-.137-.392c-1.217-3.118-4.702-4.646-7.783-3.415-2.716 1.086-4.212 3.954-3.694 6.755-.956-3.019.555-6.31 3.509-7.491 3.082-1.231 6.566.297 7.784 3.416.142.364.25.742.321 1.127Z" fill="#fff"/><path opacity=".35" d="M48.369 62.592c-3.08 1.231-6.566-.296-7.783-3.415a6.108 6.108 0 0 1-.374-2.98c.069.452.187.896.353 1.322 1.217 3.118 4.702 4.647 7.783 3.415a6.003 6.003 0 0 0 2.539-1.928 6.107 6.107 0 0 0 1.21-2.97c.413 2.736-1.076 5.496-3.728 6.556Z" fill="#371A45"/><path d="M46.164 63.511a6.458 6.458 0 0 1-4.379-1.706 6.635 6.635 0 0 1-.835-8.815 6.49 6.49 0 0 1 3.978-2.516 6.436 6.436 0 0 1 4.617.848 6.569 6.569 0 0 1 2.849 3.772 6.65 6.65 0 0 1-.403 4.73 6.53 6.53 0 0 1-3.443 3.225 6.409 6.409 0 0 1-2.384.462Zm.003-12.147a5.46 5.46 0 0 0-2.348.531 5.523 5.523 0 0 0-1.9 1.492 5.605 5.605 0 0 0-1.094 2.168 5.646 5.646 0 0 0 .878 4.668 5.538 5.538 0 0 0 1.804 1.61 5.467 5.467 0 0 0 4.685.303 5.537 5.537 0 0 0 2.802-2.5 5.64 5.64 0 0 0 .585-3.733 5.595 5.595 0 0 0-1.899-3.254 5.477 5.477 0 0 0-3.512-1.285h-.001Z" fill="#371A45"/><path d="M48.904 59.584a3.895 3.895 0 0 0 0-5.462 3.785 3.785 0 0 0-5.397 0 3.895 3.895 0 0 0 0 5.462 3.785 3.785 0 0 0 5.397 0Z" fill="#6BD6F0"/><path opacity=".3" d="M47.608 60.445a3.775 3.775 0 0 1-2.92-.049 3.842 3.842 0 0 1-2.032-2.124 3.858 3.858 0 0 1-.265-1.309l.044.122c.33.845.943 1.546 1.733 1.979.79.433 1.705.57 2.584.387a3.809 3.809 0 0 0 2.226-1.386 3.892 3.892 0 0 0 .822-2.51c.333.944.29 1.982-.12 2.894a3.837 3.837 0 0 1-2.072 1.996Z" fill="#fff"/><path opacity=".35" d="M50.062 57.052a3.848 3.848 0 0 0-1.76-2.143 3.777 3.777 0 0 0-2.535-.427 3.806 3.806 0 0 0-2.227 1.296 3.89 3.89 0 0 0-.911 2.43 3.907 3.907 0 0 1 .358-3.239c.29-.48.68-.892 1.142-1.204a3.79 3.79 0 0 1 3.184-.495c.534.157 1.028.43 1.446.801.42.371.753.83.978 1.345.225.515.336 1.073.325 1.636Z" fill="#371A45"/><path d="M46.205 61.208a4.276 4.276 0 0 1-2.418-.757 4.354 4.354 0 0 1-1.581-1.999c-.871-2.232.214-4.765 2.42-5.647 2.205-.882 4.709.216 5.58 2.449.871 2.232-.214 4.765-2.42 5.647a4.253 4.253 0 0 1-1.581.307Zm-.003-7.726c-.418 0-.832.08-1.22.236-1.709.682-2.55 2.643-1.874 4.373.16.412.4.788.704 1.106.304.318.667.572 1.069.748a3.297 3.297 0 0 0 2.549.043c1.708-.683 2.549-2.644 1.874-4.374a3.37 3.37 0 0 0-1.227-1.549 3.309 3.309 0 0 0-1.875-.583Z" fill="#371A45"/><path opacity=".2" d="M58.66 48.573c-.029-.922-1.921-1.644-2.993-1.636-1.109.009-1.776.202-1.78.746-.008.758.856 1.026 1.883 1.065.726.028 2.926.963 2.89-.175ZM61.44 49.738c-.06-.8-1.014-1.544-1.534-1.604-.538-.063-.853.062-.828.532.034.656.467.942.967 1.04.354.07 1.468 1.018 1.395.032Z" fill="#fff"/><path opacity=".35" d="M25.245 71.329s9.237 3.176 22.596-3.27c13.568-6.548 16.82-16.6 17.452-19.192l.169.116a14.433 14.433 0 0 0-.977-.624c-1.842 4.236-6.227 11.052-16.327 15.926-6.308 3.044-11.697 3.943-15.628 4.043a11.116 11.116 0 0 1-10.957-8.007l-.024-.08a17.989 17.989 0 0 1-.156-.584l-.077-.243-.023-.08-.024-.087.018-.026c-.366.54-.533.855-.533.855.03 1.45.227 2.89.585 4.293a18.864 18.864 0 0 0 3.906 6.96Z" fill="#371A45"/><path d="M24.59 67.997c-2.751 1.099-6.319-.022-6.319-.022l.02-.034c.208-.357 1.995-3.318 4.577-4.352 2.478-.991 5.177.026 5.658.225l.075.032s-1.28 3.06-4.012 4.15Z" fill="#F55"/><path opacity=".6" d="M28.73 63.975s-.077.187-.236.483c-.92-.322-3.196-.94-5.312-.094-2.077.831-3.639 2.91-4.28 3.875-.318-.076-.503-.134-.503-.134l.02-.035c.208-.356 1.995-3.318 4.577-4.35 2.479-.992 5.177.025 5.658.223l.076.032Z" fill="#fff"/><path opacity=".35" d="M24.59 67.997c-2.751 1.099-6.319-.022-6.319-.022l.02-.034 10.235-4.127.075.032s-1.28 3.06-4.012 4.15Z" fill="#371A45"/><path d="M21.758 68.973c-1.914 0-3.53-.498-3.63-.53l-.576-.18.298-.531c.079-.14 1.965-3.45 4.841-4.6 2.887-1.155 5.977.206 6.107.265l.436.196-.186.443c-.055.133-1.391 3.263-4.28 4.417-.973.39-2.03.52-3.01.52Zm-2.718-1.306c1.108.251 3.475.631 5.372-.126 1.896-.758 3.056-2.57 3.515-3.425-.914-.306-2.989-.827-4.88-.07-1.901.76-3.369 2.673-4.007 3.621Z" fill="#371A45"/><path opacity=".25" d="M38.254 57.985c.382.555 3.02 5.059.897 6.849-1.859 1.567-5.288 1.31-7.095-1.155-1.194-1.63-1.436-3.51-1.369-4.948.08-1.68.377-3.282-.45-4.54-.442-.672-1.17-1.27-2.004-1.933.192-.135.388-.27.59-.406 2.174-1.47 4.848-2.929 8.097-4.173.634.31 1.241.707 1.752 1.218 2.012 2.022 2.068 6.077.702 7.72-.54.648-1.12 1.368-1.12 1.368Z" fill="#371A45"/><path d="M39.468 56.758c.382.555 3.02 5.059.896 6.849-1.858 1.567-5.288 1.31-7.096-1.155-1.194-1.63-1.436-3.51-1.368-4.948.08-1.68.377-3.282-.451-4.539-.943-1.433-4.618-1.968-6.446-4.09-1.078-1.248-1.655-3.517-1.557-6.295.034-.893.128-1.782.282-2.661.678-3.929 2.577-8.447 6.073-12.448 0 0 1.39 5.625 2.846 10.62 1.014 3.484 2.062 6.662 2.691 7.414.084.1.16.157.228.167a8.601 8.601 0 0 1 2.41.706c.689.32 1.355.739 1.906 1.29 2.013 2.023 2.069 6.078.702 7.722-.537.648-1.116 1.368-1.116 1.368Z" fill="#fff"/><path opacity=".25" d="M41.043 62.58a2.165 2.165 0 0 1-.678 1.027c-1.858 1.567-5.288 1.31-7.096-1.155-1.194-1.63-1.436-3.51-1.368-4.948.08-1.68.375-3.282-.451-4.538-.942-1.433-4.618-1.97-6.448-4.089-1.075-1.249-1.653-3.52-1.555-6.298l.001-.038.013-.28.016-.262.008-.12c.016-.208.035-.418.058-.63.01-.1.023-.202.035-.305.008-.072.018-.144.028-.216.007-.06.015-.12.025-.182l.043-.285.053-.326c0-.006.002-.012.004-.019.058-.067.12-.13.184-.19 0 0 .366.167 1.148.372 1.243.326 3.535.748 7.076.743l-.055-1.858a.947.947 0 0 1 .566-.893.886.886 0 0 1 .263-.07l2.2-.237 3.181 7.794-2.953-.074-2.22-.055a.924.924 0 0 1-.61-.284.946.946 0 0 1-.26-.625l-.028-.933c-1.943.44-5.16.556-7.241-.139.155 1.941.69 3.51 1.519 4.471 1.828 2.121 4.57.983 6.424 3.171 1.159 1.37.553 3.778.473 5.458-.068 1.437-.617 3.546.576 5.175 1.577 2.157 4.991 1.965 7.069.838Z" fill="#371A45"/><path opacity=".25" d="M47.142 27.481a12.946 12.946 0 0 1-4.579 3.954 12.744 12.744 0 0 1-11.258.178c-1.623-.77-3.564-.035-4.303 1.618-1.064 2.378-1.688 4.733-1.94 6.868-.782-.204-1.148-.373-1.148-.373-.065.06-.126.125-.184.192.679-3.929 2.577-8.447 6.074-12.448l.036.377c.465-.642.76-1 .76-1l11.59.599s.046.618.139 1.643c1.437-.384 3.179-.92 4.813-1.608Z" fill="#371A45"/><path d="M35.8 45.543a6.13 6.13 0 0 1 1.872.282c.61.187 1.204.452 1.75.821.276.186.536.394.778.622.245.236.466.496.66.776.388.557.657 1.177.843 1.812.18.633.281 1.286.302 1.945a7.54 7.54 0 0 1-.17 1.966c-.148.648-.382 1.3-.827 1.874l-1.166 1.427.022-.59a10.382 10.382 0 0 1 .475.805c.144.268.28.54.406.816.26.557.475 1.133.646 1.723.166.599.288 1.225.272 1.889-.008.33-.048.671-.157 1.006-.106.344-.28.662-.508.938l-.087.103c-.03.033-.064.063-.096.094-.065.06-.13.13-.196.174-.133.098-.262.203-.4.29-.142.082-.282.167-.426.243l-.447.194a5.335 5.335 0 0 1-1.883.321 5.867 5.867 0 0 1-1.87-.321 5.542 5.542 0 0 1-1.665-.924c-.125-.1-.252-.197-.362-.314-.11-.117-.233-.22-.337-.342l-.302-.372c-.1-.125-.182-.258-.274-.387-.34-.53-.614-1.1-.814-1.699a8.49 8.49 0 0 1-.385-1.832 8.907 8.907 0 0 1-.046-.931c-.002-.156.004-.311.01-.467l.025-.45c.038-.595.09-1.174.09-1.733.002-.558-.05-1.094-.23-1.56a1.281 1.281 0 0 0-.072-.171c-.028-.055-.05-.114-.082-.166l-.094-.158a1.505 1.505 0 0 0-.096-.13 2.626 2.626 0 0 0-.56-.471c-.446-.29-.965-.53-1.49-.772-1.05-.483-2.16-.958-3.17-1.685-.503-.367-.98-.794-1.364-1.332-.378-.53-.642-1.114-.842-1.704a11.032 11.032 0 0 1-.427-1.803 15.799 15.799 0 0 1-.148-1.823 19.942 19.942 0 0 1 .282-3.611c.408-2.376 1.183-4.672 2.237-6.821.538-1.069 1.087-2.138 1.764-3.126.683-.98 1.457-1.907 2.444-2.609a.164.164 0 0 1 .205.011.169.169 0 0 1 .038.205v.001c-.552 1.067-1.207 2.007-1.828 2.979-.625.965-1.253 1.934-1.753 2.975-1.016 2.07-1.76 4.28-2.15 6.55a18.95 18.95 0 0 0-.268 3.425c.013.569.059 1.135.137 1.698.083.553.211 1.099.385 1.63.175.523.405 1.022.71 1.448.298.42.702.788 1.142 1.11.891.643 1.94 1.1 3.007 1.588.534.247 1.078.495 1.615.842.267.176.534.38.773.66.06.071.115.146.167.224l.13.22c.045.073.077.152.115.228a4.168 4.168 0 0 1 .337 1.199c.04.315.06.632.057.95-.002.62-.056 1.214-.092 1.794l-.026.433c-.004.14-.01.28-.008.418 0 .279.013.557.041.834a7.51 7.51 0 0 0 .34 1.617c.352 1.033.938 2.009 1.772 2.656.414.328.879.6 1.383.767a4.921 4.921 0 0 0 1.557.268 4.38 4.38 0 0 0 1.543-.26l.356-.155c.113-.06.222-.128.335-.19.107-.069.205-.151.309-.225.056-.036.088-.078.132-.116.02-.02.042-.038.061-.06l.054-.065c.292-.342.43-.817.435-1.335.014-.516-.085-1.06-.235-1.594a11.04 11.04 0 0 0-.592-1.579 13.976 13.976 0 0 0-.585-1.131 5.84 5.84 0 0 0-.212-.343l-.209-.309.23-.282 1.16-1.42c.31-.398.518-.928.636-1.478.235-1.107.158-2.309-.176-3.394a5.863 5.863 0 0 0-.706-1.517 4.563 4.563 0 0 0-.512-.637 5.17 5.17 0 0 0-.629-.552 9.49 9.49 0 0 0-1.472-.898 15.79 15.79 0 0 0-1.644-.687.168.168 0 0 1-.052-.282.163.163 0 0 1 .104-.04l-.002.002Z" fill="#371A45"/><path d="M31.944 54.65a.36.36 0 0 1-.238-.092.37.37 0 0 1-.12-.227c-.566-4.235 1.912-6.238 3.004-6.902 1.81-1.1 3.99-1.204 5.304-.25a.366.366 0 0 1 .146.385.373.373 0 0 1-.164.23.362.362 0 0 1-.406-.017c-1.067-.775-2.962-.656-4.506.283-.968.59-3.166 2.37-2.658 6.172a.371.371 0 0 1-.177.368.362.362 0 0 1-.185.05ZM40.135 56.697c-.051.049-.086.077-.128.115-.042.038-.082.067-.124.099a4.488 4.488 0 0 1-.8.479 4.016 4.016 0 0 1-1.205.341c-.418.046-.854.028-1.253-.112a2.142 2.142 0 0 1-1.003-.692c.397.07.752.124 1.1.107.17-.003.34-.018.507-.045.166-.022.329-.059.489-.109.322-.098.634-.23.93-.395.15-.077.296-.168.442-.257l.214-.14.196-.133.03-.02a.48.48 0 0 1 .648.1.495.495 0 0 1-.043.662Z" fill="#371A45"/><path d="M49.417 21.64a.258.258 0 0 1-.19-.066.264.264 0 0 1-.088-.182l-.48-7.608a.267.267 0 0 1 .064-.192.26.26 0 0 1 .18-.09c.726-.046 1.44.2 1.987.687a2.79 2.79 0 0 1 .926 1.908l.164 2.595a2.798 2.798 0 0 1-.678 2.01c-.481.554-1.16.89-1.885.938Z" fill="#fff"/><path d="M49.4 21.693a.313.313 0 0 1-.214-.086.32.32 0 0 1-.099-.211l-.48-7.609a.32.32 0 0 1 .077-.23.312.312 0 0 1 .215-.107 2.778 2.778 0 0 1 2.025.7c.557.496.896 1.195.944 1.944l.164 2.594a2.86 2.86 0 0 1-.691 2.05 2.8 2.8 0 0 1-1.922.955H49.4Zm-.318-8.142c-.059 0-.117.002-.176.006a.209.209 0 0 0-.144.071.214.214 0 0 0-.052.154l.481 7.607a.213.213 0 0 0 .141.188.207.207 0 0 0 .081.01 2.68 2.68 0 0 0 1.85-.919 2.744 2.744 0 0 0 .665-1.973l-.164-2.595a2.737 2.737 0 0 0-.843-1.812 2.675 2.675 0 0 0-1.84-.738v.001Z" fill="#371A45"/><path opacity=".35" d="m51.904 17.475.076 1.218a2.799 2.799 0 0 1-.678 2.011c-.481.553-1.159.89-1.885.938a.26.26 0 0 1-.19-.066.267.267 0 0 1-.088-.182l-.128-2.022a.265.265 0 0 0 .247.142l.18-.013a2.723 2.723 0 0 0 1.552-.615c.442-.363.761-.856.914-1.411Z" fill="#371A45"/><path d="M49.4 22.131a.743.743 0 0 1-.51-.205.76.76 0 0 1-.235-.502l-.48-7.609a.762.762 0 0 1 .184-.547.745.745 0 0 1 .513-.255 3.193 3.193 0 0 1 2.339.808 3.297 3.297 0 0 1 1.09 2.245l.163 2.594a3.307 3.307 0 0 1-.798 2.367 3.202 3.202 0 0 1-2.266 1.104Zm-.243-8.143.45 7.135a2.257 2.257 0 0 0 1.402-.833 2.306 2.306 0 0 0 .487-1.568l-.164-2.595a2.299 2.299 0 0 0-.68-1.494 2.247 2.247 0 0 0-1.495-.645Z" fill="#371A45"/><path d="M24.085 15.108a.257.257 0 0 1 .19.066.264.264 0 0 1 .088.181l.48 7.61a.267.267 0 0 1-.145.254.259.259 0 0 1-.099.026 2.724 2.724 0 0 1-1.987-.686 2.79 2.79 0 0 1-.926-1.908l-.164-2.594a2.798 2.798 0 0 1 .678-2.012 2.733 2.733 0 0 1 1.885-.937Z" fill="#fff"/><path d="M24.42 23.304a2.78 2.78 0 0 1-1.91-.768 2.845 2.845 0 0 1-.877-1.881l-.163-2.595a2.86 2.86 0 0 1 .69-2.05c.244-.279.538-.507.868-.67.33-.164.688-.26 1.054-.284a.312.312 0 0 1 .227.079.32.32 0 0 1 .106.217l.48 7.609a.32.32 0 0 1-.077.23.312.312 0 0 1-.215.107 2.889 2.889 0 0 1-.183.006Zm-.333-8.143a2.667 2.667 0 0 0-1.85.92 2.731 2.731 0 0 0-.665 1.972l.164 2.595a2.748 2.748 0 0 0 .909 1.872 2.686 2.686 0 0 0 1.95.673.206.206 0 0 0 .143-.072.213.213 0 0 0 .052-.153l-.48-7.61a.215.215 0 0 0-.071-.145.21.21 0 0 0-.152-.052Z" fill="#371A45"/><path opacity=".35" d="m24.71 20.853.134 2.111c.004.07-.02.14-.065.192a.261.261 0 0 1-.18.09 2.713 2.713 0 0 1-1.988-.687 2.773 2.773 0 0 1-.925-1.907l-.07-1.094c.249.472.625.86 1.086 1.12.46.26.986.38 1.512.347l.274-.018a.261.261 0 0 0 .223-.154Z" fill="#371A45"/><path d="M24.422 23.742a3.212 3.212 0 0 1-2.207-.886 3.288 3.288 0 0 1-1.014-2.173l-.164-2.594a3.292 3.292 0 0 1 .799-2.367 3.215 3.215 0 0 1 2.218-1.103.741.741 0 0 1 .54.187c.149.133.24.32.252.519l.481 7.609a.761.761 0 0 1-.185.547.743.743 0 0 1-.512.255c-.07.004-.139.006-.208.006Zm-.529-8.119a2.258 2.258 0 0 0-1.4.834 2.308 2.308 0 0 0-.488 1.568l.164 2.595c.036.566.278 1.098.68 1.494.402.395.935.625 1.495.645l-.45-7.136Z" fill="#371A45"/><path d="M45.831 27.56c5.014-5.073 5.014-13.3 0-18.373a12.732 12.732 0 0 0-18.157 0c-5.014 5.074-5.014 13.3 0 18.374a12.732 12.732 0 0 0 18.157 0Z" fill="#fff"/><path d="M36.754 31.419h-.094c-7.108-.052-12.85-5.945-12.798-13.138.05-7.16 5.824-12.951 12.889-12.951h.093c3.444.026 6.671 1.405 9.088 3.887a13.042 13.042 0 0 1 3.71 9.252c-.05 7.159-5.824 12.95-12.888 12.95Zm-.005-25.985c-3.38 0-6.564 1.321-8.974 3.724-2.433 2.427-3.785 5.666-3.81 9.124a12.928 12.928 0 0 0 3.681 9.175c2.398 2.46 5.6 3.83 9.016 3.855 3.416.025 6.636-1.298 9.068-3.724a12.931 12.931 0 0 0 3.81-9.124 12.93 12.93 0 0 0-3.68-9.175c-2.398-2.46-5.601-3.83-9.017-3.855h-.094Z" fill="#371A45"/><path opacity=".35" d="M49.48 16.668c.079.596.116 1.197.111 1.799-.051 7.175-5.84 12.95-12.93 12.9-7.092-.052-12.798-5.91-12.748-13.086.002-.207.008-.413.02-.616.819 6.33 6.148 11.239 12.636 11.286 6.885.05 12.544-5.397 12.912-12.284Z" fill="#371A45"/><path d="M36.755 31.857h-.098c-3.559-.026-6.894-1.451-9.393-4.017a13.48 13.48 0 0 1-3.835-9.562c.026-3.601 1.434-6.977 3.97-9.506 2.536-2.528 5.892-3.909 9.449-3.88a13.169 13.169 0 0 1 9.393 4.017 13.478 13.478 0 0 1 3.835 9.562c-.026 3.602-1.434 6.977-3.97 9.505-2.511 2.505-5.828 3.88-9.35 3.88ZM36.75 5.873c-3.266 0-6.342 1.275-8.67 3.598a12.504 12.504 0 0 0-3.682 8.814 12.49 12.49 0 0 0 3.556 8.865c2.316 2.378 5.41 3.701 8.708 3.725a12.207 12.207 0 0 0 8.761-3.598 12.493 12.493 0 0 0 3.681-8.813 12.5 12.5 0 0 0-3.556-8.866c-2.316-2.378-5.41-3.7-8.708-3.724l-.09-.001Z" fill="#371A45"/><path d="M49.548 18.8a11.75 11.75 0 0 1-2.156 6.873c-1.034 1.473-5.313 4.07-10.62 4.161-4.921.084-9.42-2.535-10.477-3.991a11.755 11.755 0 0 1-2.264-6.838c-.053-6.728 5.637-9.564 12.684-9.62 7.046-.055 12.78 2.688 12.833 9.415Z" fill="#371A45"/><path d="M36.533 30.129c-4.984 0-9.384-2.614-10.472-4.112a12.028 12.028 0 0 1-2.32-7.009c-.026-3.284 1.255-5.827 3.808-7.557 2.23-1.512 5.4-2.327 9.163-2.359 3.764-.03 6.945.734 9.199 2.21 2.58 1.69 3.9 4.21 3.926 7.495a12.031 12.031 0 0 1-2.21 7.045c-1.016 1.446-5.241 4.187-10.85 4.284a7.55 7.55 0 0 1-.244.003Zm.373-20.45h-.19c-3.749.03-12.462.999-12.396 9.324a11.445 11.445 0 0 0 2.208 6.667c.997 1.373 5.284 3.873 10.01 3.873.077 0 .152 0 .229-.002 5.337-.092 9.462-2.718 10.389-4.037a11.444 11.444 0 0 0 2.103-6.702c-.065-8.187-8.507-9.124-12.353-9.124Z" fill="#371A45"/><path opacity=".7" d="M47.01 18.2c.215-1.251-.338-2.393-1.234-2.55-.897-.156-1.796.731-2.01 1.982-.214 1.252.34 2.393 1.235 2.55.896.157 1.796-.73 2.01-1.982ZM44.268 22.769c.176-.555-.063-1.129-.534-1.281-.47-.153-.995.174-1.17.729-.176.555.063 1.128.534 1.28.47.154.995-.173 1.17-.728Z" fill="#fff"/><path opacity=".35" d="M47.016 12.544c1.572 1.493 2.51 3.554 2.531 6.256.02 2.543-.777 4.91-2.156 6.873-1.034 1.473-5.313 4.07-10.62 4.161-1.874.033-3.686-.327-5.271-.866 6.521-.253 11.733-3.44 13.015-5.267a14.907 14.907 0 0 0 2.736-8.723 13.291 13.291 0 0 0-.235-2.434Z" fill="#111A28"/><path d="m25.329 13.562-.761-.607.358.29-.38-.258c2.253-3.415 6.659-5.4 12.083-5.443 5.39-.041 9.815 1.803 12.16 5.067a.495.495 0 0 1-.052.654.482.482 0 0 1-.727-.07c-2.157-3.008-6.304-4.713-11.374-4.67-5.1.042-9.212 1.867-11.285 5.007a.448.448 0 0 1-.022.03Z" fill="#371A45"/><path opacity=".7" d="M26.927 22.985s-2.111-6.62 1.403-9.294c3.514-2.673 8.6-2.703 8.483-2.372 0 0-5.62 1.425-7.787 5.946-1.67 3.487-2.099 5.72-2.099 5.72Z" fill="#fff"/><path d="m44.854 37.415.347 2.713.271 2.11c.036.277-.034.556-.194.783-.16.227-.4.384-.67.439-.36.075-.808.162-1.324.252-1.835.32-4.535.678-7.248.636a1.084 1.084 0 0 1-.748-.32c-.2-.2-.315-.47-.322-.755l-.14-5.6a1.114 1.114 0 0 1 .319-.809 1.087 1.087 0 0 1 .798-.322c1.885.049 5.642.112 7.735-.083.28-.026.56.06.779.238.219.178.361.436.397.718Z" fill="#fff"/><path d="m35.858 36.543-2.2.238a.925.925 0 0 0-.602.316.946.946 0 0 0-.227.646l.167 5.557c.007.234.1.457.261.625.162.168.379.27.61.283l2.033.13" fill="#fff"/><path opacity=".25" d="m35.858 36.543-2.2.238a.925.925 0 0 0-.602.316.946.946 0 0 0-.227.646l.167 5.557c.007.234.1.457.261.625.162.168.379.27.61.283l2.033.13" fill="#371A45"/><path d="M36.482 44.786c-.151 0-.303-.002-.454-.004a1.502 1.502 0 0 1-1.045-.444 1.538 1.538 0 0 1-.446-1.053l-.14-5.602a1.55 1.55 0 0 1 .444-1.125 1.515 1.515 0 0 1 1.111-.45c1.992.053 5.639.11 7.684-.08.391-.038.781.08 1.087.329.307.248.505.608.554 1.002l.618 4.823c.048.385-.05.774-.272 1.09a1.521 1.521 0 0 1-.93.613c-1.664.343-4.885.9-8.211.9Zm-.569-7.811a.656.656 0 0 0-.615.425.676.676 0 0 0-.045.261l.14 5.602a.67.67 0 0 0 .194.459c.12.121.283.191.454.194 3.403.052 6.775-.529 8.482-.88a.663.663 0 0 0 .406-.268.678.678 0 0 0 .118-.474l-.618-4.823a.667.667 0 0 0-.24-.437.652.652 0 0 0-.473-.144c-2.09.195-5.775.137-7.785.085h-.018Z" fill="#371A45"/><path d="M35.9 44.77h-.028l-2.033-.13a1.342 1.342 0 0 1-.891-.412 1.374 1.374 0 0 1-.38-.915l-.168-5.557c-.009-.345.11-.681.335-.942.225-.26.538-.426.877-.464l2.2-.238a.424.424 0 0 1 .422.224.436.436 0 0 1-.33.638l-2.201.238a.5.5 0 0 0-.323.17.512.512 0 0 0-.124.348l.168 5.557a.507.507 0 0 0 .14.337c.087.09.204.145.328.152l2.033.13c.11.008.214.058.288.141a.436.436 0 0 1-.018.6.426.426 0 0 1-.295.125v-.002ZM40.54 44.58a.424.424 0 0 1-.293-.118.435.435 0 0 1-.133-.29l-.164-2.838-1.42-.97a.433.433 0 0 1-.188-.329l-.232-3.418a.436.436 0 0 1 .104-.315.427.427 0 0 1 .75.255l.218 3.207 1.423.972a.43.43 0 0 1 .188.334l.175 3.052a.439.439 0 0 1-.24.415.424.424 0 0 1-.187.043Z" fill="#371A45"/><path d="M44.534 40.006c.018.172-.078 1.585-.078 1.585l-.968.102c-.666.07-1.278-.57-1.367-1.433-.089-.862.38-1.616 1.046-1.686l.968-.102s.37 1.254.4 1.534Z" fill="#F55"/><path d="M44.533 40.006c.018.172-.076 1.585-.076 1.585l-.032.003c.025-.408.05-.892.04-.988-.028-.28-.399-1.534-.399-1.534l-.967.102c-.466.048-.836.433-.986.953-.031-.805.423-1.487 1.055-1.553l.968-.102s.368 1.254.397 1.534Z" fill="#fff"/><path d="M43.39 42.066c-.811 0-1.527-.762-1.63-1.768-.11-1.063.505-2 1.37-2.09l.675-.072a.708.708 0 0 1 .474.12c.14.094.241.236.288.399.302 1.056.322 1.249.329 1.312.005.052.017.17-.058 1.347a.727.727 0 0 1-.198.456.711.711 0 0 1-.442.218l-.672.07c-.046.005-.091.008-.137.008Zm.481-3.197-.666.07c-.458.048-.788.635-.722 1.282.066.647.51 1.151.968 1.105l.662-.07c.051-.784.063-1.144.06-1.215-.012-.095-.096-.452-.302-1.172Z" fill="#371A45"/><path d="M44.457 41.588c.666-.07 1.135-.825 1.046-1.686-.089-.861-.7-1.503-1.367-1.433-.666.07-1.135.826-1.046 1.687.089.861.7 1.502 1.367 1.432Z" fill="#F55"/><path d="M45.5 39.906c.011.102.014.204.009.306-.184-.702-.726-1.189-1.311-1.127-.586.06-1.02.653-1.054 1.38a2.009 2.009 0 0 1-.056-.306c-.089-.861.38-1.616 1.047-1.685.666-.068 1.277.57 1.366 1.432Z" fill="#fff"/><path d="M44.353 41.964c-.386 0-.758-.169-1.06-.485a2.18 2.18 0 0 1-.566-1.283 2.192 2.192 0 0 1 .293-1.373c.259-.417.64-.672 1.076-.717.436-.046.862.123 1.2.477.314.33.515.785.566 1.283a2.19 2.19 0 0 1-.294 1.374c-.258.416-.64.671-1.075.717a1.33 1.33 0 0 1-.14.007Zm-.12-3.13c-.02 0-.04.002-.06.004-.21.022-.4.155-.536.376a1.45 1.45 0 0 0-.187.907c.035.337.165.636.367.848.179.188.392.279.6.256.209-.022.4-.155.536-.376.154-.249.221-.57.187-.907a1.438 1.438 0 0 0-.367-.848c-.161-.169-.35-.26-.54-.26Z" fill="#371A45"/><path d="M23.913 38.5s2.894 1.327 9.78 1.087c0 0 1.262 1.224 0 2.234-1.26 1.01-8.36 1.592-10.257-.478-1.2-1.312.477-2.842.477-2.842Z" fill="#fff"/><path opacity=".25" d="M33.694 41.822c-1.262 1.01-8.361 1.59-10.259-.48-.57-.622-.49-1.296-.248-1.83.07.123.152.238.248.342 1.898 2.07 8.997 1.49 10.259.48.12-.095.227-.205.32-.328.264.445.48 1.173-.32 1.816Z" fill="#371A45"/><path d="M28.695 43.171c-1.608 0-4.359-.207-5.573-1.534-.384-.42-.568-.903-.545-1.433.05-1.1 1.009-1.988 1.05-2.025l.208-.19.255.117c.043.02 2.936 1.28 9.59 1.048l.18-.006.13.127c.075.072.731.734.692 1.593-.016.339-.154.838-.721 1.293-.845.678-3.265.998-5.154 1.01h-.112Zm-4.672-4.162c-.22.254-.57.733-.59 1.237-.013.293.091.555.317.802 1.737 1.897 8.613 1.286 9.678.434.256-.206.387-.42.398-.655.014-.305-.175-.619-.317-.8-5.656.174-8.602-.696-9.486-1.018Z" fill="#371A45"/><path opacity=".25" d="M48.7 48.789c-1.036 1.267-4.36 2.49-6.15 1.355-1.495-.947-1.542-2.303-2.602-3.084-.061-.045-.248-.128-.533-.254 3.355-1.07 6.427-1.608 9.19-1.788 1.19 1.484.954 2.72.095 3.77Z" fill="#371A45"/><path d="M34.254 32.752c3.75 4.734 9.936 7.636 13.631 11.01 2.026 1.85 1.707 2.739.696 3.976-1.035 1.267-3.469 2.49-5.258 1.356-1.495-.948-1.588-1.848-2.647-2.63-.418-.307-7.14-2.112-10.872-7.998" fill="#fff"/><path opacity=".25" d="M48.581 47.739c-1.035 1.267-3.468 2.49-5.258 1.355-1.495-.947-1.588-1.847-2.648-2.629-.417-.308-7.14-2.112-10.87-7.999l.076-.098c4.162 4.428 8.5 4.693 11.382 6.937 1.038.809 1.128 1.077 2.623 2.024 1.79 1.135 4.223-.089 5.258-1.356.067-.08.13-.16.19-.239.17.715-.18 1.304-.753 2.005Z" fill="#371A45"/><path d="M34.38 32.65c.796.569 1.453 1.215 2.156 1.834a84.58 84.58 0 0 0 2.113 1.847c.728.596 1.482 1.159 2.254 1.704.769.55 1.552 1.084 2.334 1.623.782.539 1.57 1.077 2.345 1.643.196.139.389.282.58.428.191.147.384.289.575.437.377.304.758.6 1.121.926.38.32.739.665 1.073 1.033.084.1.168.196.25.298.076.109.158.213.232.327l.106.178.053.09c.016.031.03.065.046.098l.089.198c.025.07.046.144.069.216.082.29.114.627.046.936a2.63 2.63 0 0 1-.32.82c-.136.225-.286.44-.45.643a5.006 5.006 0 0 1-.253.298c-.09.1-.185.19-.279.283-.38.353-.806.654-1.264.895-.46.246-.95.426-1.46.534a4.002 4.002 0 0 1-1.6.02l-.202-.047a1.143 1.143 0 0 1-.198-.059c-.128-.052-.262-.09-.384-.155a8.754 8.754 0 0 1-.364-.2c-.106-.072-.214-.14-.317-.217a5.758 5.758 0 0 1-1.123-1.07c-.32-.394-.575-.772-.874-1.057-.036-.038-.077-.07-.114-.106a1.512 1.512 0 0 0-.119-.1l-.061-.048-.03-.024-.016-.012c-.007-.006 0 .001 0 0a.019.019 0 0 0 .009.005l-.026-.011c-.02-.01-.036-.017-.063-.028-.199-.083-.428-.17-.648-.256a32.353 32.353 0 0 1-1.334-.553c-1.764-.782-3.46-1.756-4.988-2.968-.384-.3-.752-.622-1.114-.95-.356-.335-.723-.66-1.06-1.018a6.415 6.415 0 0 1-.484-.556 4.078 4.078 0 0 1-.222-.294c-.069-.103-.141-.203-.208-.306a5.218 5.218 0 0 1-.351-.655 4.004 4.004 0 0 1-.236-.72.175.175 0 0 1 .072-.181.171.171 0 0 1 .192-.001l.008.005c.212.144.385.308.561.47.177.16.335.33.498.497.08.083.158.17.234.256.076.086.158.17.234.256.076.086.154.17.23.259.077.088.156.17.23.26.302.35.621.686.957 1.005.342.312.691.616 1.057.902 1.454 1.153 3.078 2.088 4.78 2.842.426.189.857.365 1.294.537.22.087.436.167.675.266.028.011.066.029.1.044.018.01.03.014.054.026.03.016.058.033.086.05.012.008.032.02.037.025l.02.015.04.031.078.063c.105.083.206.172.302.266.39.376.668.798.95 1.142a4.8 4.8 0 0 0 .939.895c.087.065.18.122.27.184l.261.143c.087.047.183.071.274.11.046.019.093.033.142.041l.145.034c.39.078.806.066 1.218-.02.822-.172 1.629-.606 2.257-1.188.075-.075.158-.145.223-.225.066-.08.14-.156.21-.247.135-.167.26-.344.371-.528.096-.156.166-.327.205-.506a.992.992 0 0 0-.025-.484c-.096-.334-.341-.692-.635-1.02a10.182 10.182 0 0 0-.984-.944c-.345-.31-.716-.597-1.08-.89-.184-.145-.373-.284-.56-.426a21.635 21.635 0 0 0-.568-.42c-.76-.556-1.544-1.088-2.324-1.629-.78-.54-1.57-1.075-2.348-1.632-.781-.55-1.545-1.133-2.315-1.711-.758-.594-1.517-1.198-2.188-1.904-.691-.681-1.295-1.469-1.714-2.369a.17.17 0 0 1 .044-.2.165.165 0 0 1 .202-.01l.002.007Z" fill="#371A45"/><path d="M34.546 43.778a.426.426 0 0 1-.418-.342.438.438 0 0 1 .002-.194c.058-.242 1.465-5.89 5.353-5.89h.063c.113.002.222.049.3.131a.436.436 0 0 1-.009.613.425.425 0 0 1-.304.122h-.049c-3.226 0-4.51 5.176-4.523 5.229a.434.434 0 0 1-.415.33ZM50.398 34.825a.422.422 0 0 1-.209-.055c-2.159-1.227-2.316-7.132-2.327-7.802a.436.436 0 0 1 .12-.308.426.426 0 0 1 .3-.132h.008c.112 0 .22.044.3.124.08.08.126.188.128.302.028 1.68.421 6.225 1.89 7.06a.431.431 0 0 1 .205.487.433.433 0 0 1-.415.323v.001ZM53.942 23.744c.005.026.007.078.01.119l.008.133c.007.089.01.18.02.27.01.181.033.362.059.545.026.183.063.366.098.557.028.195.077.386.1.62a1.495 1.495 0 0 1-.518-.413 2.038 2.038 0 0 1-.188-.272 2.913 2.913 0 0 1-.332-.933 2.795 2.795 0 0 1-.038-.5c.002-.062.006-.123.015-.184a.38.38 0 0 1 .756-.011l.01.069Z" fill="#371A45"/></g><defs><linearGradient id="b" x1="20.415" y1="70.438" x2="2.061" y2="71.171" gradientUnits="userSpaceOnUse"><stop stop-color="#FCB127"/><stop offset="1" stop-color="#EC1C24"/></linearGradient><clipPath id="a"><path fill="#fff" d="M0 0h66v80H0z"/></clipPath></defs></svg>