<svg width="171" height="200" viewBox="0 0 171 200" fill="none" xmlns="http://www.w3.org/2000/svg">
<path opacity="0.05" d="M15.5526 165.749C12.5353 165.525 9.51401 166.129 6.81519 167.497C5.79013 168.245 4.98836 169.259 4.49578 170.429C4.00319 171.599 3.83846 172.881 4.01928 174.137H0V131.586L85.2775 25.6881C87.6366 22.63 89.9083 19.7466 91.8306 16.9507C93.4281 15.1876 94.489 13.0051 94.8886 10.6597C94.9804 9.86694 94.8393 9.0646 94.4824 8.3508C94.1255 7.63701 93.5683 7.04262 92.879 6.64041C91.6182 6.04155 90.393 5.37061 89.2093 4.63083V0H153.779V4.63083C151.948 4.59976 150.172 5.25427 148.799 6.46575C148.133 7.1768 147.619 8.01608 147.288 8.93249C146.958 9.8489 146.818 10.8232 146.876 11.7956V132.984H157.449C159.823 133.109 162.185 132.565 164.264 131.411C165.924 130.45 166.71 127.916 166.71 123.81H170.73V175.098H166.71C166.71 170.817 165.924 168.108 164.264 167.147C162.185 165.994 159.823 165.449 157.449 165.574H146.876V184.622C146.433 187.696 147.183 190.822 148.973 193.36C150.156 194.624 151.787 195.377 153.517 195.456V200H103.451V195.456C105.724 195.483 107.94 194.744 109.742 193.36C110.815 192.198 111.608 190.808 112.062 189.294C112.517 187.78 112.619 186.182 112.363 184.622V165.574L15.5526 165.749ZM112.363 38.969L37.3962 132.984H112.363V38.969Z" fill="#3B3943"/>
</svg>
