<svg width="164" height="200" viewBox="0 0 164 200" fill="none" xmlns="http://www.w3.org/2000/svg">
<path opacity="0.05" d="M27.9436 135.004C27.9436 135.509 27.9436 136.098 27.9436 136.856C27.8986 137.585 27.8986 138.315 27.9436 139.044C28.3324 142.995 30.232 146.644 33.246 149.228C37.1837 153.238 41.6934 156.641 46.6286 159.328C52.4659 162.523 58.6506 165.036 65.0612 166.819C71.5969 168.732 78.3675 169.723 85.1772 169.765C90.2164 169.732 95.238 169.168 100.159 168.082C105.142 167.052 109.902 165.142 114.215 162.443C118.57 159.682 122.182 155.896 124.736 151.417C127.623 146.285 129.077 140.47 128.944 134.583C129.222 128.499 127.699 122.468 124.568 117.245C121.86 112.839 118.137 109.145 113.71 106.471C109.265 103.714 104.362 101.776 99.2331 100.748C94.1938 99.7006 89.0617 99.1648 83.9147 99.149C80.706 99.1877 77.5023 99.4126 74.3197 99.8223C69.976 100.336 65.6917 101.266 61.5262 102.6C57.5977 103.784 53.8777 105.573 50.5003 107.902C49.0959 108.816 47.9386 110.062 47.1311 111.531C46.3236 112.999 45.8908 114.644 45.8711 116.319C45.892 117.608 46.2088 118.875 46.797 120.022L44.8611 122.884L5.30258 78.2755C7.82759 76.0872 9.59502 74.488 10.605 73.3938C11.6615 71.836 12.1654 69.969 12.036 68.0913V17.5909C12.036 13.2142 10.0159 11.0259 5.89168 11.0259V6.56503H137.193C139.429 6.59982 141.653 6.22906 143.758 5.47082C145.778 4.79748 146.788 2.94585 146.788 0H150.659V49.4061H146.788C146.788 45.2819 145.778 42.6727 143.758 41.7469C141.719 40.7326 139.47 40.2136 137.193 40.2319H41.0736V80.1271C48.8488 76.7857 56.9041 74.1382 65.1455 72.2155C73.4406 70.4108 81.9065 69.5077 90.3956 69.5221C98.9252 69.5888 107.411 70.7486 115.646 72.973C124.299 75.1543 132.484 78.8903 139.802 83.9989C146.932 89.1704 152.848 95.8341 157.14 103.526C161.843 112.223 164.166 122.007 163.874 131.89C164.231 143.146 161.525 154.287 156.046 164.126C151.063 172.642 144.25 179.945 136.098 185.505C127.969 190.995 118.85 194.854 109.249 196.867C99.8966 198.869 90.3646 199.913 80.8006 199.981C70.7318 200.175 60.6903 198.87 51.0053 196.11C43.562 193.85 36.4138 190.714 29.711 186.767C24.4528 183.849 19.54 180.348 15.0659 176.33C13.4555 174.343 11.1859 172.999 8.66921 172.543C8.02567 172.476 7.37694 172.476 6.7334 172.543L3.87175 173.048L0 169.429L25.2502 131.385L27.9436 135.004Z" fill="#3B3943"/>
</svg>
