<svg width="176" height="208" viewBox="0 0 176 208" fill="none" xmlns="http://www.w3.org/2000/svg">
<g filter="url(#filter0_d_16_14)">
<path opacity="0.05" d="M9.32981 29.1879L13.2842 25.8353C14.8855 27.0678 16.8511 27.7331 18.8719 27.7265C19.9034 27.7265 21.9665 26.2651 24.8893 23.4283C28.8488 19.8137 33.1698 16.6162 37.784 13.8863C54.0501 4.27185 72.7113 -0.5276 91.5977 0.0460133C100.281 0.0626675 108.933 1.07219 117.387 3.05482C125.685 4.91077 133.616 8.13555 140.855 12.5969C147.742 16.8616 153.61 22.5834 158.048 29.3599C162.679 36.8008 165.012 45.4429 164.753 54.2036C164.811 62.9625 162.43 71.5647 157.876 79.0472C155.93 82.5936 153.278 85.7043 150.085 88.1879C146.892 90.6715 143.224 92.4757 139.308 93.4893V94.263C148.762 96.5163 157.132 102.002 162.972 109.772C168.811 117.541 171.752 127.107 171.287 136.815C171.671 147.904 168.673 158.848 162.69 168.192C157.385 176.233 150.295 182.94 141.973 187.792C133.581 192.715 124.336 196.01 114.722 197.506C105.521 199.092 96.206 199.926 86.8696 199.999C77.6346 200.035 68.4285 198.967 59.447 196.818C51.7502 194.936 44.2181 192.435 36.9244 189.339C30.3911 186.417 24.9753 183.838 20.7631 181.431C18.1611 179.695 15.2384 178.496 12.1666 177.906C11.1904 177.862 10.2261 178.134 9.41579 178.68L6.92282 180.141L4 179.024L22.9122 125.21L26.5227 127.445C26.3396 128.324 26.3396 129.231 26.5227 130.11V132.689C26.5602 135.599 27.2157 138.469 28.4458 141.107C29.6758 143.744 31.4524 146.091 33.6577 147.991C38.7373 152.701 44.5426 156.561 50.8506 159.424C57.5337 162.554 64.5382 164.947 71.7399 166.559C77.7747 167.982 83.9385 168.789 90.1363 168.966C94.7765 168.902 99.4043 168.47 103.977 167.676C109.183 166.793 114.245 165.203 119.02 162.949C123.605 160.794 127.678 157.688 130.969 153.836C134.309 149.519 136.015 144.16 135.783 138.706C135.824 133.399 133.859 128.272 130.282 124.35C127.161 120.63 123.217 117.687 118.762 115.754C114.151 113.698 109.251 112.364 104.234 111.8C99.8429 111.235 95.423 110.92 90.9958 110.854C86.438 110.779 81.8931 111.359 77.4995 112.573C75.5531 113.173 73.8057 114.289 72.4433 115.803C71.0809 117.316 70.1545 119.171 69.7627 121.17H65.8943V70.3649H70.1066C70.1424 72.5432 70.8343 74.66 72.0919 76.4389C73.3494 78.2179 75.1141 79.5763 77.1557 80.3368C81.7044 81.9705 86.5067 82.7854 91.3398 82.7438C95.3732 82.6629 99.3954 82.2894 103.375 81.6262C107.855 80.9044 112.202 79.5135 116.269 77.4999C120.312 75.4482 123.838 72.5095 126.585 68.9035C129.498 65.1873 130.991 60.5547 130.797 55.8369C131.01 51.4899 129.703 47.2044 127.101 43.7159C124.491 40.5047 121.123 37.9936 117.301 36.409C113.018 34.611 108.504 33.4245 103.891 32.8844C98.9573 32.2645 93.9907 31.9487 89.0187 31.9388C82.9913 31.9777 76.9897 32.7279 71.1382 34.1739C65.368 35.5376 59.7726 37.5567 54.4611 40.1915C49.9744 42.3235 45.8077 45.0723 42.0822 48.358C40.6791 49.4357 39.5179 50.796 38.6738 52.3509C37.8298 53.9058 37.3216 55.6206 37.1822 57.3843C37.075 58.5567 37.075 59.7364 37.1822 60.9088C37.3648 62.2551 37.6816 63.5799 38.1278 64.8632L35.2051 67.0982L9.32981 29.1879Z" fill="#3B3943"/>
</g>
<defs>
<filter id="filter0_d_16_14" x="0" y="0" width="176" height="208" filterUnits="userSpaceOnUse" color-interpolation-filters="sRGB">
<feFlood flood-opacity="0" result="BackgroundImageFix"/>
<feColorMatrix in="SourceAlpha" type="matrix" values="0 0 0 0 0 0 0 0 0 0 0 0 0 0 0 0 0 0 127 0" result="hardAlpha"/>
<feOffset dy="4"/>
<feGaussianBlur stdDeviation="2"/>
<feComposite in2="hardAlpha" operator="out"/>
<feColorMatrix type="matrix" values="0 0 0 0 0 0 0 0 0 0 0 0 0 0 0 0 0 0 0.25 0"/>
<feBlend mode="normal" in2="BackgroundImageFix" result="effect1_dropShadow_16_14"/>
<feBlend mode="normal" in="SourceGraphic" in2="effect1_dropShadow_16_14" result="shape"/>
</filter>
</defs>
</svg>
