<svg width="161" height="200" viewBox="0 0 161 200" fill="none" xmlns="http://www.w3.org/2000/svg">
<g clip-path="url(#clip0_15_12)">
<path opacity="0.05" d="M160.157 200H156.365C156.365 197.303 155.269 195.871 153.246 195.618C151.094 195.344 148.927 195.203 146.758 195.197H11.921C9.99462 195.174 8.07195 195.372 6.19048 195.786C4.67357 195.786 3.91508 197.472 3.91508 199.663H0.0385408V186.432C-0.374954 174.627 2.5457 162.944 8.46582 152.723C14.1546 143.417 21.3284 135.104 29.7026 128.115C38.2785 121.049 47.5055 114.813 57.2598 109.491C67.0354 104.098 76.2212 98.7884 84.7327 93.5635C92.6014 89.0787 99.9498 83.737 106.644 77.636C109.326 75.1032 111.459 72.0453 112.909 68.6527C114.359 65.2601 115.095 61.6054 115.071 57.916C115.254 53.5023 114.204 49.1249 112.037 45.2751C110.107 41.9009 107.425 39.0171 104.2 36.8479C100.995 34.7729 97.4172 33.3418 93.6656 32.6342C89.9739 31.9062 86.2201 31.5394 82.4573 31.5388C77.9159 31.6963 73.4131 32.4326 69.058 33.7298C63.6493 35.2292 58.4634 37.4396 53.636 40.3031C48.905 43.1083 44.6401 46.634 40.9951 50.7529C37.6208 54.5318 35.7602 59.4232 35.7702 64.4893C35.8247 66.1156 36.0795 67.729 36.5287 69.2929C36.8691 70.8009 37.595 72.1946 38.6355 73.338L35.4332 75.8662L2.48246 35.5838L5.6848 32.9714L8.21301 34.4882C9.11948 34.9693 10.1371 35.2019 11.1625 35.1624C12.4266 35.1624 14.7863 33.3927 18.1572 29.6847C22.4886 25.2657 27.1977 21.2333 32.2307 17.6337C39.1995 12.7208 46.7238 8.64755 54.6473 5.49836C64.8437 1.63984 75.6874 -0.219855 86.5867 0.0206801C94.6499 0.0128916 102.675 1.11888 110.436 3.30731C117.986 5.40972 125.055 8.95877 131.251 13.7572C137.456 18.7023 142.468 24.9815 145.915 32.1286C149.938 40.6226 151.874 49.9551 151.561 59.3487C151.914 69.4239 149.802 79.4331 145.409 88.5071C141.741 95.9191 136.576 102.49 130.24 107.806C123.778 113.159 116.637 117.637 109.003 121.121C101.082 124.829 93.0757 128.368 84.817 131.908C76.5583 135.447 68.7209 139.239 61.1363 143.116C53.6811 146.955 46.9285 152.027 41.1637 158.116V161.824H146.758C149.009 161.833 151.232 161.313 153.246 160.308C155.269 159.381 156.365 156.431 156.365 151.88H160.157V200Z" fill="#3B3943"/>
</g>
<defs>
<clipPath id="clip0_15_12">
<rect width="161" height="200" fill="white"/>
</clipPath>
</defs>
</svg>
