<svg width="71" height="200" viewBox="0 0 71 200" fill="none" xmlns="http://www.w3.org/2000/svg">
<path opacity="0.05" d="M16.1555 195.076C18.2739 195.118 20.3339 194.38 21.9438 193.002C22.9527 191.826 23.6919 190.443 24.1098 188.95C24.5276 187.458 24.614 185.892 24.3628 184.363V59.1793C22.5792 59.0665 20.7902 59.0665 19.0065 59.1793C16.9175 59.4146 14.8606 59.8781 12.8726 60.5616C10.9704 61.1601 9.16591 62.0331 7.51619 63.1533C5.86061 64.2632 4.63974 65.9114 4.06048 67.8186H0V21.0799H3.97407C3.90455 22.0687 4.15181 23.054 4.67996 23.8928C5.20812 24.7316 5.98971 25.3804 6.91144 25.7451C8.67229 26.5644 10.5852 27.0059 12.527 27.0411C14.2677 27.0821 15.9976 26.7573 17.6048 26.0876C19.2121 25.4179 20.6609 24.4183 21.8574 23.1534C24.3146 20.5735 25.6502 17.1257 25.5723 13.5638C25.5723 9.99286 24.8812 7.74665 23.4989 6.82512C21.7469 5.66445 19.7778 4.8709 17.7106 4.49248V0H70.8423V4.49248C68.4824 4.88794 66.2397 5.80268 64.2764 7.17064C63.4046 7.81096 62.7095 8.66209 62.2563 9.64421C61.803 10.6263 61.6063 11.7073 61.6846 12.7861V184.795C61.4315 186.337 61.5334 187.917 61.9825 189.414C62.4316 190.911 63.2161 192.286 64.2764 193.434C65.9587 194.803 68.0688 195.537 70.2376 195.508V200H16.1555V195.076Z" fill="#3B3943"/>
</svg>
