<svg width="24" height="24" fill="none" xmlns="http://www.w3.org/2000/svg"><g clip-path="url(#a)" fill="#3B3943"><path d="M13.606 15.191a3.997 3.997 0 1 0 7.995 0 3.997 3.997 0 0 0-7.995 0Zm3.997-3.198a3.198 3.198 0 1 1 0 6.396 3.198 3.198 0 0 1 0-6.396ZM15.32 23.186h4.568v.8h-4.569v-.8ZM13.606 21.587H21.6v.8h-7.995v-.8ZM4.812 21.587h.8v.8h-.8v-.8ZM2.414 22.386h.799v.8h-.8v-.8Z"/><path d="M4.852 19.337A30.274 30.274 0 0 0 8.697 7.505l3.718 3.696a.4.4 0 0 0 .638-.105 3.903 3.903 0 0 0-.733-4.51l-.327-.327h2.812a.4.4 0 0 0 .38-.526 3.903 3.903 0 0 0-3.708-2.672h-.52l1.997-2.008a.4.4 0 0 0-.105-.64 3.904 3.904 0 0 0-4.512.733l-.382.382c-.125.125-.24.258-.347.4a3.84 3.84 0 0 0-.343-.4l-.382-.382a3.902 3.902 0 0 0-4.51-.732.4.4 0 0 0-.104.64L4.267 3.06h-.524A3.903 3.903 0 0 0 .035 5.733a.4.4 0 0 0 .38.526h2.809l-.327.327a3.903 3.903 0 0 0-.733 4.51.4.4 0 0 0 .64.105L6.266 7.76a21.665 21.665 0 0 1-4.18 10.564 14.914 14.914 0 0 0-1.631-.333l-.25-.025-.08.796.233.023c.4.057.797.138 1.192.229-.08.1-.16.202-.243.301l.614.513A22.505 22.505 0 0 0 7.15 6.88l.46-.457.344.343a29.226 29.226 0 0 1-5.069 14.19l.655.458c.314-.449.614-.914.905-1.389 1.87.895 3.52 2.188 4.837 3.79l.618-.507a14.931 14.931 0 0 0-2.655-2.52H24v-.8H6.06c-.392-.237-.796-.451-1.21-.65Zm7.696-9.132L8.325 6.006a3.083 3.083 0 0 1 3.051.763l.382.382c.8.799 1.102 1.968.79 3.054Zm1.647-4.745h-3.31a3.898 3.898 0 0 0-2.476-.296 3.1 3.1 0 0 1 2.527-1.303h.54a3.104 3.104 0 0 1 2.719 1.599ZM8.519 2.093 8.9 1.71a3.106 3.106 0 0 1 3.055-.79l-2.37 2.383A3.899 3.899 0 0 0 7.7 4.785a3.026 3.026 0 0 1 .821-2.692H8.52ZM6.317 1.71l.381.382c.179.182.333.385.46.605a3.803 3.803 0 0 0-.305 1.33 3.9 3.9 0 0 0-1.22-.724L3.264.921a3.104 3.104 0 0 1 3.055.79h-.001ZM3.74 3.861h.54a3.1 3.1 0 0 1 2.53 1.303 3.9 3.9 0 0 0-2.475.296H1.025a3.104 3.104 0 0 1 2.718-1.6H3.74Zm-1.07 6.344a3.104 3.104 0 0 1 .791-3.054l.382-.382a3.055 3.055 0 0 1 2.167-.892c.3 0 .598.043.886.127l-4.225 4.201Z"/></g><defs><clipPath id="a"><path fill="#fff" d="M0 0h24v24H0z"/></clipPath></defs></svg>