<svg width="1120" height="556" viewBox="0 0 1120 556" fill="none" xmlns="http://www.w3.org/2000/svg">
<mask id="mask0_214_12888" style="mask-type:alpha" maskUnits="userSpaceOnUse" x="0" y="0" width="1120" height="554">
<path d="M0 32C0 20.7989 0 15.1984 2.17987 10.9202C4.09734 7.15695 7.15695 4.09734 10.9202 2.17987C15.1984 0 20.7989 0 32 0H1088C1099.2 0 1104.8 0 1109.08 2.17987C1112.84 4.09734 1115.9 7.15695 1117.82 10.9202C1120 15.1984 1120 20.7989 1120 32V426.73C1120 437.061 1120 442.226 1118.06 446.307C1116.34 449.9 1113.6 452.902 1110.17 454.926C1106.28 457.225 1101.14 457.684 1090.85 458.603L34.8459 552.889C22.7578 553.968 16.7137 554.508 12.0479 552.486C7.94886 550.71 4.5625 547.612 2.42877 543.687C0 539.22 0 533.152 0 521.016V32Z" fill="url(#paint0_linear_214_12888)"/>
</mask>
<g mask="url(#mask0_214_12888)">
<g filter="url(#filter0_f_214_12888)">
<circle cx="76.5" cy="500.5" r="156.5" fill="#FF94E1" fill-opacity="0.8"/>
</g>
<g opacity="0.7" filter="url(#filter1_f_214_12888)">
<circle cx="1037.5" cy="85.5" r="156.5" fill="#A157FF"/>
</g>
</g>
<path d="M0 32C0 20.7989 0 15.1984 2.17987 10.9202C4.09734 7.15695 7.15695 4.09734 10.9202 2.17987C15.1984 0 20.7989 0 32 0H1088C1099.2 0 1104.8 0 1109.08 2.17987C1112.84 4.09734 1115.9 7.15695 1117.82 10.9202C1120 15.1984 1120 20.7989 1120 32V426.73C1120 437.061 1120 442.226 1118.06 446.307C1116.34 449.9 1113.6 452.902 1110.17 454.926C1106.28 457.225 1101.14 457.684 1090.85 458.603L34.8459 552.889C22.7578 553.968 16.7137 554.508 12.0479 552.486C7.94886 550.71 4.5625 547.612 2.42877 543.687C0 539.22 0 533.152 0 521.016V32Z" fill="url(#paint1_linear_214_12888)"/>
<mask id="mask1_214_12888" style="mask-type:alpha" maskUnits="userSpaceOnUse" x="0" y="0" width="1120" height="554">
<path d="M0 32C0 20.7989 0 15.1984 2.17987 10.9202C4.09734 7.15695 7.15695 4.09734 10.9202 2.17987C15.1984 0 20.7989 0 32 0H1088C1099.2 0 1104.8 0 1109.08 2.17987C1112.84 4.09734 1115.9 7.15695 1117.82 10.9202C1120 15.1984 1120 20.7989 1120 32V426.73C1120 437.061 1120 442.226 1118.06 446.307C1116.34 449.9 1113.6 452.902 1110.17 454.926C1106.28 457.225 1101.14 457.684 1090.85 458.603L34.8459 552.889C22.7578 553.968 16.7137 554.508 12.0479 552.486C7.94886 550.71 4.5625 547.612 2.42877 543.687C0 539.22 0 533.152 0 521.016V32Z" fill="url(#paint2_linear_214_12888)"/>
</mask>
<g mask="url(#mask1_214_12888)">
<g filter="url(#filter2_f_214_12888)">
<circle cx="76.5" cy="500.5" r="156.5" fill="#FF94E1" fill-opacity="0.8"/>
</g>
<g opacity="0.7" filter="url(#filter3_f_214_12888)">
<circle cx="1037.5" cy="85.5" r="156.5" fill="#A157FF"/>
</g>
</g>
<defs>
<filter id="filter0_f_214_12888" x="-504" y="-80" width="1161" height="1161" filterUnits="userSpaceOnUse" color-interpolation-filters="sRGB">
<feFlood flood-opacity="0" result="BackgroundImageFix"/>
<feBlend mode="normal" in="SourceGraphic" in2="BackgroundImageFix" result="shape"/>
<feGaussianBlur stdDeviation="212" result="effect1_foregroundBlur_214_12888"/>
</filter>
<filter id="filter1_f_214_12888" x="457" y="-495" width="1161" height="1161" filterUnits="userSpaceOnUse" color-interpolation-filters="sRGB">
<feFlood flood-opacity="0" result="BackgroundImageFix"/>
<feBlend mode="normal" in="SourceGraphic" in2="BackgroundImageFix" result="shape"/>
<feGaussianBlur stdDeviation="212" result="effect1_foregroundBlur_214_12888"/>
</filter>
<filter id="filter2_f_214_12888" x="-504" y="-80" width="1161" height="1161" filterUnits="userSpaceOnUse" color-interpolation-filters="sRGB">
<feFlood flood-opacity="0" result="BackgroundImageFix"/>
<feBlend mode="normal" in="SourceGraphic" in2="BackgroundImageFix" result="shape"/>
<feGaussianBlur stdDeviation="212" result="effect1_foregroundBlur_214_12888"/>
</filter>
<filter id="filter3_f_214_12888" x="457" y="-495" width="1161" height="1161" filterUnits="userSpaceOnUse" color-interpolation-filters="sRGB">
<feFlood flood-opacity="0" result="BackgroundImageFix"/>
<feBlend mode="normal" in="SourceGraphic" in2="BackgroundImageFix" result="shape"/>
<feGaussianBlur stdDeviation="212" result="effect1_foregroundBlur_214_12888"/>
</filter>
<linearGradient id="paint0_linear_214_12888" x1="560" y1="0" x2="560" y2="546.071" gradientUnits="userSpaceOnUse">
<stop stop-color="#3D3B44"/>
<stop offset="1" stop-color="#2F2C3C"/>
</linearGradient>
<linearGradient id="paint1_linear_214_12888" x1="-88" y1="-1.16134e-05" x2="896" y2="644" gradientUnits="userSpaceOnUse">
<stop stop-color="#FF5555"/>
<stop offset="1" stop-color="#F2A1FF"/>
</linearGradient>
<linearGradient id="paint2_linear_214_12888" x1="560" y1="0" x2="560" y2="546.071" gradientUnits="userSpaceOnUse">
<stop stop-color="#3D3B44"/>
<stop offset="1" stop-color="#2F2C3C"/>
</linearGradient>
</defs>
</svg>
