<svg width="84" height="11" fill="none" xmlns="http://www.w3.org/2000/svg"><path d="M11.438.197v.885l-1.205.295v9.348H8.828L3.71 2.558v6.986l1.204.197v.886H1V9.74l1.204-.197V1.377L1 1.181V.197h2.609l5.119 8.068V1.377l-1.104-.196V.197h3.814zm6.022 0c1.104 0 2.007.197 2.609.689.602.491.903 1.18.903 2.164 0 .492-.2.886-.502 1.28-.3.393-.602.59-1.104.786.603.099 1.104.492 1.506.886.401.492.602 1.082.602 1.673 0 .984-.301 1.672-1.004 2.164-.602.492-1.505.787-2.61.787h-5.118v-.885l1.205-.197V1.28l-1.205-.197V.197h4.718zm-2.108 4.427h2.409c.501 0 .903-.196 1.304-.491.301-.296.502-.69.502-1.181 0-.59-.2-.984-.502-1.28-.401-.295-.903-.393-1.606-.393h-2.007v3.345h-.1zm0 1.181v3.838h2.509c.703 0 1.204-.197 1.505-.492.402-.394.603-.788.603-1.378 0-.59-.201-1.082-.502-1.476-.301-.393-.803-.492-1.405-.492h-2.71z" fill="#BA0C17" stroke="#BA0C17" stroke-width=".283" stroke-miterlimit="10"/><path d="M37.432 5.51c0 1.574-.502 2.854-1.506 3.837-1.003.984-2.308 1.575-3.914 1.575-1.606 0-2.81-.492-3.814-1.575-1.003-1.082-1.505-2.263-1.505-3.837v-.098c0-1.575.502-2.854 1.505-3.838C29.202.59 30.406 0 31.912 0c1.605 0 2.91.492 3.914 1.574 1.004 1.083 1.505 2.263 1.505 3.838v.098h.1zm-1.606-.197c0-1.279-.301-2.263-1.004-3.05-.702-.787-1.606-1.18-2.81-1.18-1.104 0-2.007.393-2.71 1.18-.702.787-1.003 1.771-1.003 3.05v.197c0 1.28.3 2.263 1.003 3.05.602.787 1.506 1.181 2.71 1.181s2.208-.394 2.81-1.18c.602-.788 1.004-1.772 1.004-3.05v-.198zM42.149.098v.886l-1.104.295v6.002c0 .787.2 1.378.602 1.771.401.394 1.004.59 1.706.59.703 0 1.305-.196 1.807-.59.501-.393.702-.984.702-1.77V1.278L44.758.984V.098h3.613v.886l-1.104.197v6.002c0 1.18-.401 1.968-1.104 2.656-.702.59-1.606.886-2.81.886-1.104 0-2.007-.295-2.71-.886-.702-.59-1.003-1.475-1.003-2.656V1.279L38.536.984V.098h3.613zm15.255 0V2.46H56.3l-.1-1.18h-2.108v8.363l1.004.196v.886h-3.413v-.886l1.104-.196V1.279H50.68l-.1 1.18h-1.105V.1h7.929zm1.003 10.627v-.886l1.105-.196V1.279l-1.105-.197V.098h3.513v.886l-1.104.197v8.363h3.513l.1-1.18h1.104v2.361h-7.126zm8.13 0v-.886l1.104-.196V1.279l-1.104-.197V.098h7.627v2.559H72.96l-.1-1.378h-3.914v3.444h3.813v1.082h-3.813v3.838h4.014l.2-1.476h1.105v2.558h-7.728zM84 .098V2.46h-1.104l-.1-1.18h-2.208v8.363l1.104.196v.886h-3.613v-.886l1.104-.196V1.279h-2.208l-.1 1.18H75.67V.1H84z" fill="#BA0C17"/></svg>