<svg width="248" height="237" viewBox="0 0 248 237" fill="none" xmlns="http://www.w3.org/2000/svg">
<path d="M114.526 57.1403C119.395 57.0716 123.212 53.0806 123.052 48.2261C122.893 43.3716 118.816 39.492 113.947 39.5607C109.079 39.6294 105.261 43.6204 105.421 48.4749C105.58 53.3294 109.657 57.209 114.526 57.1403Z" stroke="#003F80" stroke-width="6" stroke-miterlimit="10"/>
<path d="M56.9233 119.327C59.4947 114.72 63.4295 109.031 69.0923 103.162C76.3923 95.6895 83.7783 91.1733 89.3232 88.2708" stroke="#003F80" stroke-width="6" stroke-miterlimit="10" stroke-linecap="round"/>
<path d="M3 174.379H239.154" stroke="#003F80" stroke-width="6" stroke-miterlimit="10" stroke-linecap="round"/>
<path d="M75.6904 188.039L169.827 187.039" stroke="#003F80" stroke-width="6" stroke-miterlimit="10" stroke-linecap="round"/>
<path d="M99.7643 200.6L143.222 201.172" stroke="#003F80" stroke-width="6" stroke-miterlimit="10" stroke-linecap="round"/>
<path d="M32.3799 233C48.12 233 60.8799 220.24 60.8799 204.5C60.8799 188.76 48.12 176 32.3799 176C16.6398 176 3.87988 188.76 3.87988 204.5C3.87988 220.24 16.6398 233 32.3799 233Z" stroke="#003F80" stroke-width="6" stroke-miterlimit="10"/>
<path d="M208.061 3C204.949 6.55042 201.525 11.663 201.992 17.7698C202.459 24.0185 206.816 26.8588 209.462 32.6815C211.796 37.7941 212.885 45.7471 207.594 58.1026" stroke="#003F80" stroke-width="6" stroke-miterlimit="10" stroke-linecap="round"/>
<path d="M239.604 4.57446C235.827 12.2034 235.153 18.6807 235.018 22.5671C234.883 29.4763 236.502 34.9461 238.929 42.575C241.897 52.5069 243.515 53.0827 244.19 58.2646C244.864 63.1586 244.594 70.3557 239.334 80.1437" stroke="#003F80" stroke-width="6" stroke-miterlimit="10" stroke-linecap="round"/>
<path d="M207.793 233.677C224.313 233.677 237.706 220.989 237.706 205.338C237.706 189.688 224.313 177 207.793 177C191.272 177 177.88 189.688 177.88 205.338C177.88 220.989 191.272 233.677 207.793 233.677Z" stroke="#003F80" stroke-width="6" stroke-miterlimit="10"/>
<path d="M31.8799 210C34.6413 210 36.8799 207.761 36.8799 205C36.8799 202.239 34.6413 200 31.8799 200C29.1185 200 26.8799 202.239 26.8799 205C26.8799 207.761 29.1185 210 31.8799 210Z" stroke="#003F80" stroke-width="6" stroke-miterlimit="10"/>
<path d="M208.006 209.897C210.767 209.897 213.006 207.659 213.006 204.897C213.006 202.136 210.767 199.897 208.006 199.897C205.244 199.897 203.006 202.136 203.006 204.897C203.006 207.659 205.244 209.897 208.006 209.897Z" stroke="#003F80" stroke-width="6" stroke-miterlimit="10"/>
<line x1="10.8796" y1="159" x2="226.889" y2="159" stroke="#003F80" stroke-width="6" stroke-linecap="round" stroke-linejoin="round"/>
<path fill-rule="evenodd" clip-rule="evenodd" d="M211.882 157C211.614 105.563 170.052 64 118.883 64C67.715 64 26.1524 105.563 25.8846 157H19.8845C20.1524 102.278 64.373 58 118.883 58C173.394 58 217.614 102.278 217.882 157H211.882Z" fill="#003F80"/>
</svg>
