<svg width="12" height="51" viewBox="0 0 12 51" fill="none" xmlns="http://www.w3.org/2000/svg">
<path d="M10.3066 34.7217H2.10352L0.941406 0.234375H11.4688L10.3066 34.7217ZM6.20508 40.1221C7.86849 40.1221 9.2015 40.612 10.2041 41.5918C11.2295 42.5716 11.7422 43.8249 11.7422 45.3516C11.7422 46.8555 11.2295 48.0973 10.2041 49.0771C9.2015 50.057 7.86849 50.5469 6.20508 50.5469C4.56445 50.5469 3.23145 50.057 2.20605 49.0771C1.20345 48.0973 0.702148 46.8555 0.702148 45.3516C0.702148 43.8477 1.20345 42.6058 2.20605 41.626C3.23145 40.6234 4.56445 40.1221 6.20508 40.1221Z" fill="#FDFDFD"/>
</svg>
