<svg width="194" height="199" viewBox="0 0 194 199" fill="none" xmlns="http://www.w3.org/2000/svg">
<path d="M183.195 63.1107C174.721 61.4367 165.811 61.2993 157.239 60.5925C156.138 60.4545 155.24 61.9742 155.43 62.8549C156.68 67.9485 157.705 73.4224 160.329 77.7913L160.217 77.9813C148.108 102.089 117.254 116.416 94.5 124.5C68.3578 133.914 39.2666 136.964 13.0648 130.457C10.0341 129.18 6.82803 127.798 3.84634 126.037C2.44319 125.209 1.20905 127.298 2.5 128.317C3.02618 128.628 3.55236 128.938 4.07854 129.249C3.62976 130.009 3.81935 130.89 4.69632 131.408C6.73784 132.357 9.00376 132.927 11.1575 133.686C59.5866 160.24 135.657 135.988 168.258 87.5988C170.055 90.9659 172.139 94.2462 173.823 97.8034C174.49 99.4785 176.615 98.6836 177.225 97.2503C181.607 87.0273 182.447 75.9927 184.451 65.39C184.724 64.5268 184.471 63.3527 183.195 63.1107ZM175.176 92.7095C173.569 90.2227 171.738 88.1165 170.243 85.4401C169.59 84.5417 168.552 84.6977 168.04 85.164C167.514 84.8533 166.939 85.0258 166.427 85.4923C132.596 126.749 82.2415 146.717 35.4012 137.5C55.9336 137.584 76.809 134.857 96 128C110.078 122.991 123.796 115.902 136.666 108.13C146.675 101.999 158.031 91.2951 161.108 79.2763C162.175 80.6749 164.223 78.8097 163.619 77.4283C162.096 73.1978 160.748 69.0708 159.688 64.8575C166.696 65.4097 173.816 65.7711 180.662 66.9968C178.967 75.4755 177.973 84.3687 175.176 92.7095Z" fill="#FDFDFD"/>
</svg>
