<svg width="67" height="67" viewBox="0 0 67 67" fill="none" xmlns="http://www.w3.org/2000/svg">
<path d="M63.9116 64.3828H61.0414V22.7088C61.0414 20.769 59.4633 19.191 57.5237 19.191H51.1084C49.1687 19.191 47.5907 20.7692 47.5907 22.7088V64.3828H40.3028V41.5903C40.3028 39.6506 38.7248 38.0726 36.7851 38.0726H30.3698C28.4301 38.0726 26.8521 39.6507 26.8521 41.5903V64.3828H19.5643V52.5787C19.5643 50.639 17.9861 49.061 16.0465 49.061H9.63112C7.69139 49.061 6.11335 50.6391 6.11335 52.5787V64.3828H3.08841C2.36567 64.3828 1.77982 64.9686 1.77982 65.6914C1.77982 66.4141 2.36567 67 3.08841 67H63.9116C64.6343 67 65.2202 66.4141 65.2202 65.6914C65.2202 64.9686 64.6343 64.3828 63.9116 64.3828ZM16.9468 64.3828H8.73041V52.5787C8.73041 52.0821 9.13437 51.6782 9.63098 51.6782H16.0462C16.5428 51.6782 16.9468 52.0821 16.9468 52.5787V64.3828ZM37.6855 64.3828H29.4691V41.5903C29.4691 41.0937 29.8731 40.6898 30.3697 40.6898H36.785C37.2814 40.6898 37.6855 41.0937 37.6855 41.5903V64.3828ZM58.4243 64.3828H50.2079V22.7088C50.2079 22.2122 50.6118 21.8082 51.1084 21.8082H57.5237C58.0203 21.8082 58.4243 22.2122 58.4243 22.7088V64.3828Z" fill="#105499"/>
<path d="M61.0383 1.37612C61.0566 1.019 60.931 0.655867 60.6583 0.383156C60.3856 0.110445 60.0225 -0.0153105 59.6653 0.00314063C59.6443 0.00222461 59.6235 0 59.602 0H51.685C50.9623 0 50.3764 0.585857 50.3764 1.30859C50.3764 2.03133 50.9623 2.61719 51.685 2.61719H56.5735L43.6372 15.5537L38.7587 10.6752C38.5134 10.4299 38.1805 10.292 37.8334 10.292C37.4864 10.292 37.1535 10.4299 36.9081 10.6752L13.3837 34.1998C12.8726 34.7108 12.8726 35.5394 13.3837 36.0506C13.6392 36.3059 13.9741 36.4336 14.309 36.4336C14.6438 36.4336 14.9788 36.3059 15.2343 36.0503L37.8334 13.451L42.7119 18.3295C43.2229 18.8405 44.0515 18.8405 44.5626 18.3295L58.4243 4.46793V8.89229C58.4243 9.61502 59.0101 10.2009 59.7329 10.2009C60.4556 10.2009 61.0415 9.61502 61.0415 8.89229V1.43945C61.0415 1.41812 61.0392 1.39732 61.0383 1.37612Z" fill="#105499"/>
<path d="M9.89819 40.9995C10.6209 40.9995 11.2068 40.4136 11.2068 39.6909C11.2068 38.9682 10.6209 38.3823 9.89819 38.3823C9.17548 38.3823 8.5896 38.9682 8.5896 39.6909C8.5896 40.4136 9.17548 40.9995 9.89819 40.9995Z" fill="#105499"/>
</svg>
