<svg width="67" height="55" viewBox="0 0 67 55" fill="none" xmlns="http://www.w3.org/2000/svg">
<path d="M64.71 47.5034H64.5791V41.7517C64.5791 41.2162 64.1397 40.7823 63.5977 40.7823C63.0556 40.7823 62.6162 41.2162 62.6162 41.7517V47.5034H24.667C24.125 47.5034 23.6855 47.9373 23.6855 48.4727C23.6855 49.0082 24.125 49.4421 24.667 49.4421H64.71C64.8903 49.4421 65.0371 49.587 65.0371 49.7653V50.153C65.0371 51.7565 63.7163 53.0612 62.0928 53.0612H4.90723C3.28365 53.0612 1.96289 51.7565 1.96289 50.153V49.7653C1.96289 49.587 2.10971 49.4421 2.29004 49.4421H20.0869C20.6289 49.4421 21.0684 49.0082 21.0684 48.4727C21.0684 47.9373 20.6289 47.5034 20.0869 47.5034H4.38379V27.0171C4.38379 26.4816 3.94436 26.0477 3.40234 26.0477C2.86032 26.0477 2.4209 26.4816 2.4209 27.0171V47.5034H2.29004C1.02738 47.5034 0 48.5181 0 49.7653V50.153C0 52.8257 2.20132 54.9999 4.90723 54.9999H62.0928C64.7987 54.9999 67 52.8257 67 50.153V49.7653C67 48.518 65.9726 47.5034 64.71 47.5034Z" fill="#105499"/>
<path d="M3.40234 23.4627C3.94436 23.4627 4.38379 23.0288 4.38379 22.4933V15.8369H14.5504C15.413 18.2814 17.7686 20.041 20.5339 20.041C20.5474 20.0339 22.2312 20.0341 22.3114 20.0348V23.2042H17.6576C17.227 21.7177 15.8396 20.6262 14.1981 20.6262C12.2138 20.6262 10.5995 22.2207 10.5995 24.1806C10.5995 26.1404 12.2138 27.735 14.1981 27.735C15.8447 27.735 17.2355 26.6366 17.6616 25.143H23.293C23.835 25.143 24.2744 24.7091 24.2744 24.1736V20.0348H27.6113V29.9899H24.8756C24.4694 28.4669 23.0633 27.3402 21.3955 27.3402C19.4112 27.3402 17.7969 28.9348 17.7969 30.8947C17.7969 32.8545 19.4112 34.4491 21.3955 34.4491C23.0158 34.4491 24.3889 33.3857 24.8384 31.9287H28.5928C29.1348 31.9287 29.5742 31.4948 29.5742 30.9593V20.0348H32.8457V33.292C31.3372 33.7152 30.2285 35.0872 30.2285 36.711C30.2285 38.6708 31.8428 40.2654 33.8271 40.2654C35.8115 40.2654 37.4258 38.6708 37.4258 36.711C37.4258 35.0872 36.3171 33.7152 34.8086 33.292V20.0348H38.0801V30.9593C38.0801 31.4948 38.5195 31.9287 39.0615 31.9287H42.8159C43.2654 33.3857 44.6385 34.4491 46.2588 34.4491C48.2431 34.4491 49.8574 32.8545 49.8574 30.8947C49.8574 28.9348 48.2431 27.3402 46.2588 27.3402C44.591 27.3402 43.1849 28.4669 42.7787 29.9899H40.043V20.0348H43.3145V24.1736C43.3145 24.7091 43.7539 25.143 44.2959 25.143H49.9272C50.3532 26.6366 51.744 27.735 53.3906 27.735C55.375 27.735 56.9893 26.1404 56.9893 24.1806C56.9893 22.2207 55.375 20.6262 53.3906 20.6262C51.7491 20.6262 50.3619 21.7178 49.9311 23.2042H45.2773V20.0348C45.8048 20.0378 45.915 20.0279 46.4659 20.041C49.2313 20.041 51.5869 18.2814 52.4495 15.8369H62.6162V37.228C62.6162 37.7635 63.0556 38.1973 63.5977 38.1973C64.1397 38.1973 64.5791 37.7635 64.5791 37.228V12.2825C64.5791 11.0353 63.5517 10.0206 62.2891 10.0206H51.5248C50.1877 8.26186 47.797 7.19373 45.3725 7.61871C44.6173 4.2702 41.5828 1.78935 38.0061 1.78935C37.1457 1.78935 36.3077 1.9305 35.5062 2.20955C33.9525 0.798126 31.9016 0 29.7794 0C29.2693 0 28.7579 0.0453671 28.2596 0.134809C27.7264 0.230455 27.3725 0.735181 27.4693 1.26188C27.5663 1.78858 28.0771 2.13846 28.6104 2.0423C28.9933 1.97367 29.3866 1.93877 29.7794 1.93877C31.5854 1.93877 33.3245 2.69191 34.5511 4.00498C34.8391 4.31337 35.2954 4.40359 35.6817 4.22884C36.4152 3.89654 37.1973 3.72799 38.0063 3.72799C40.951 3.72799 43.399 6.0001 43.5794 8.90075C43.5985 9.20863 43.7649 9.48911 44.0274 9.6561C44.2899 9.82335 44.6173 9.85695 44.9088 9.74709C45.4073 9.55929 45.9313 9.46403 46.4661 9.46403C48.8773 9.46403 50.839 11.4016 50.839 13.7832C50.839 16.1648 48.8773 18.1023 46.4661 18.1023C46.1627 18.0839 21.0842 18.1025 20.7849 18.0961C18.3431 18.2018 16.1516 16.3037 16.1613 13.7832C16.1613 11.4016 18.123 9.46403 20.5342 9.46403C21.0337 9.46403 21.5249 9.5474 21.9943 9.71142C22.3043 9.81986 22.6491 9.76764 22.9122 9.57221C23.1751 9.37679 23.3214 9.064 23.3016 8.73971C23.1756 7.11864 23.8604 5.09805 25.1497 3.85647C25.5296 3.47466 25.5243 2.86085 25.1377 2.48563C24.751 2.11054 24.1298 2.11597 23.7498 2.49765C22.3704 3.884 21.5379 5.66521 21.3611 7.57864C19.2828 7.24556 16.6805 8.31473 15.4754 10.0208H4.71094C3.44828 10.0208 2.4209 11.0356 2.4209 12.2827V22.4936C2.4209 23.0287 2.86032 23.4627 3.40234 23.4627ZM14.1982 25.7961C13.2962 25.7961 12.5625 25.0714 12.5625 24.1804C12.5625 23.2895 13.2962 22.5648 14.1982 22.5648C15.1003 22.5648 15.834 23.2895 15.834 24.1804C15.834 25.0714 15.1003 25.7961 14.1982 25.7961ZM21.3955 32.5103C20.4935 32.5103 19.7598 31.7856 19.7598 30.8947C19.7598 30.0037 20.4935 29.279 21.3955 29.279C22.2975 29.279 23.0312 30.0037 23.0312 30.8947C23.0312 31.7856 22.2975 32.5103 21.3955 32.5103ZM35.4629 36.711C35.4629 37.6019 34.7292 38.3266 33.8271 38.3266C32.9251 38.3266 32.1914 37.6019 32.1914 36.711C32.1914 35.82 32.9251 35.0953 33.8271 35.0953C34.7292 35.0953 35.4629 35.82 35.4629 36.711ZM46.2588 29.279C47.1608 29.279 47.8945 30.0037 47.8945 30.8947C47.8945 31.7856 47.1608 32.5103 46.2588 32.5103C45.3568 32.5103 44.623 31.7856 44.623 30.8947C44.623 30.0037 45.3568 29.279 46.2588 29.279ZM53.3906 22.5648C54.2926 22.5648 55.0264 23.2895 55.0264 24.1804C55.0264 25.0714 54.2926 25.7961 53.3906 25.7961C52.4886 25.7961 51.7549 25.0714 51.7549 24.1804C51.7549 23.2895 52.4886 22.5648 53.3906 22.5648ZM62.2891 11.9594C62.4694 11.9594 62.6162 12.1042 62.6162 12.2825V13.8981H52.7987C52.8129 13.3797 52.737 12.6821 52.5264 11.9594H62.2891ZM4.71094 11.9594H14.4734C14.3426 12.3854 14.1832 13.1675 14.2011 13.8981H4.38379V12.2825C4.38379 12.1042 4.53061 11.9594 4.71094 11.9594Z" fill="#105499"/>
</svg>
