<svg width="50" height="50" viewBox="0 0 50 50" fill="none" xmlns="http://www.w3.org/2000/svg">
<g clip-path="url(#clip0)">
<path d="M33.1912 44.1069C32.7867 44.1069 32.4588 44.4348 32.4588 44.8394V49.2675C32.4588 49.6721 32.7867 49.9999 33.1912 49.9999C33.5957 49.9999 33.9236 49.6721 33.9236 49.2675V44.8394C33.9236 44.4349 33.5957 44.1069 33.1912 44.1069Z" fill="#105499"/>
<path d="M41.6344 26.4729C41.1815 25.9864 40.6057 25.6608 39.9723 25.5253C41.1889 24.2775 41.1793 22.2725 39.9436 21.0366C39.4294 20.5224 38.771 20.205 38.0596 20.1224C38.5291 18.9858 38.3406 17.6318 37.4766 16.7042C36.9571 16.1463 36.2761 15.8 35.532 15.7092C35.6959 15.321 35.7819 14.9002 35.7819 14.4661C35.7819 13.6128 35.4497 12.8105 34.8462 12.2071C34.243 11.604 33.4421 11.2719 32.5915 11.2719C32.3115 11.2705 32.0375 11.3062 31.7739 11.3752L20.8741 0.475471C20.2402 -0.158523 19.2088 -0.158425 18.5749 0.475374L16.2771 2.77316C15.9911 3.0593 15.9911 3.52298 16.2771 3.80902C16.5631 4.09496 17.0269 4.09496 17.3129 3.80902L19.6106 1.51123C19.6734 1.44834 19.7755 1.44834 19.8383 1.51123L30.4345 12.1073C30.3988 12.1399 30.3636 12.1732 30.3291 12.2077L29.5726 12.9641L20.2423 3.63382C19.9563 3.34788 19.4925 3.34788 19.2065 3.63382L11.1668 11.6736C11.0294 11.811 10.9522 11.9972 10.9522 12.1916C10.9522 12.3859 11.0294 12.572 11.1668 12.7095L15.0188 16.5615C15.1618 16.7044 15.3493 16.7759 15.5367 16.7759C15.7241 16.7759 15.9116 16.7044 16.0545 16.5615C16.3406 16.2753 16.3406 15.8116 16.0545 15.5256L12.7204 12.1916L19.7244 5.18756L28.5368 13.9999L27.2337 15.3029C27.1462 14.371 26.7413 13.5063 26.0711 12.8361V12.8362C25.3096 12.0746 24.2971 11.6551 23.2201 11.6551C22.1431 11.6551 21.1306 12.0746 20.3691 12.8361C19.6075 13.5976 19.1881 14.6102 19.1881 15.6871C19.1881 16.7641 19.6074 17.7766 20.3691 18.5382C21.0579 19.227 21.936 19.614 22.8375 19.6991L21.5328 21.0037L18.5354 18.0063C18.2494 17.7204 17.7856 17.7204 17.4997 18.0063C17.2136 18.2924 17.2136 18.7561 17.4997 19.0422L20.4971 22.0395L19.6379 22.8987L9.04408 12.3055C9.00511 12.2666 8.99691 12.2221 8.99691 12.1917C8.99691 12.1612 9.00511 12.1168 9.04408 12.0779L14.832 6.28992C15.118 6.00378 15.118 5.5401 14.832 5.25406C14.5459 4.96812 14.0821 4.96812 13.7962 5.25406L8.00832 11.042C7.70119 11.3492 7.53204 11.7574 7.53204 12.1917C7.53204 12.6259 7.70119 13.0342 8.00822 13.3413L14.0027 19.3358V24.1199C14.0027 25.3479 14.277 26.5865 14.7957 27.7018L19.8563 38.5783L19.6112 49.2507C19.602 49.6551 19.9223 49.9905 20.3267 49.9998C20.3324 49.9999 20.3381 50 20.3439 50C20.7405 50 21.0666 49.6831 21.0758 49.2843L21.3247 38.4411C21.3273 38.3288 21.304 38.2173 21.2566 38.1153L16.124 27.0839C15.6947 26.1609 15.4677 25.1361 15.4677 24.1199V20.8003L18.6018 23.9345L17.4016 25.1347C17.1156 25.4208 17.1156 25.8846 17.4016 26.1705C17.5447 26.3136 17.7321 26.3851 17.9196 26.3851C18.107 26.3851 18.2945 26.3136 18.4375 26.1706L31.365 13.2435C31.6918 12.9167 32.1262 12.7368 32.5889 12.7368H32.5908C33.0509 12.7368 33.4841 12.9166 33.8106 13.243C34.1372 13.5697 34.3171 14.0041 34.3171 14.4661C34.3171 14.9281 34.1372 15.3625 33.8106 15.6891L30.2026 19.2971C29.9166 19.5832 29.9166 20.0469 30.2026 20.3329C30.3456 20.4759 30.5331 20.5474 30.7205 20.5474C30.9079 20.5474 31.0954 20.4759 31.2384 20.3329C31.2384 20.3329 33.886 17.6852 33.9146 17.6567C34.2496 17.3216 34.6979 17.1431 35.1689 17.1502C35.6421 17.1587 36.0809 17.3547 36.4047 17.7024C37.031 18.3748 36.9924 19.4701 36.3184 20.1438L32.4891 23.9738C32.203 24.2599 32.203 24.7236 32.4891 25.0096C32.632 25.1526 32.8195 25.2241 33.007 25.2241C33.1944 25.2241 33.3819 25.1526 33.5248 25.0096C33.5248 25.0096 36.4375 22.0964 36.4616 22.0723V22.0722C36.7884 21.7453 37.2227 21.5655 37.6846 21.5655C38.1465 21.5655 38.5809 21.7454 38.9076 22.0722C39.582 22.7466 39.582 23.8441 38.9076 24.5184L35.1059 28.32C34.8199 28.6062 34.8199 29.0699 35.1059 29.3559C35.2489 29.4989 35.4364 29.5704 35.6238 29.5704C35.8112 29.5704 35.9987 29.4989 36.1417 29.3559C36.1417 29.3559 38.0374 27.4603 38.0723 27.4254C38.4073 27.0903 38.8532 26.9118 39.3268 26.919C39.7999 26.9274 40.2387 27.1234 40.5623 27.4709C41.1887 28.1434 41.15 29.2387 40.4762 29.9125L32.6734 37.7153C32.5359 37.8527 32.4588 38.0389 32.4588 38.2333V41.3306C32.4588 41.7352 32.7867 42.063 33.1912 42.063C33.5957 42.063 33.9237 41.7352 33.9237 41.3306V38.5367L41.5121 30.9484C42.7371 29.7235 42.792 27.7156 41.6344 26.4729ZM21.4049 17.5024C20.92 17.0175 20.653 16.373 20.653 15.6872C20.653 15.0015 20.92 14.3569 21.405 13.872C21.8898 13.3871 22.5344 13.1201 23.2202 13.1201C23.9059 13.1201 24.5506 13.3871 25.0353 13.872V13.8721C25.5202 14.3569 25.7872 15.0015 25.7872 15.6872C25.7872 16.3639 25.5268 17.0002 25.054 17.4828L25.0165 17.5203C24.0141 18.5029 22.3997 18.4972 21.4049 17.5024Z" fill="#105499"/>
</g>
<defs>
<clipPath id="clip0">
<rect width="50" height="50" fill="white"/>
</clipPath>
</defs>
</svg>
