<svg width="67" height="67" viewBox="0 0 67 67" fill="none" xmlns="http://www.w3.org/2000/svg">
<path d="M40.9852 55.179C40.9852 53.4425 39.5724 52.0296 37.8359 52.0296H31.3322C29.5957 52.0296 28.1828 53.4425 28.1828 55.179C28.1828 56.9156 29.5957 58.3283 31.3322 58.3283H37.8359C39.5724 58.3283 40.9852 56.9156 40.9852 55.179ZM30.1455 55.179C30.1455 54.5247 30.6777 53.9925 31.332 53.9925H37.8358C38.4899 53.9925 39.0221 54.5247 39.0221 55.179C39.0221 55.8332 38.4899 56.3654 37.8358 56.3654H31.332C30.6779 56.3654 30.1455 55.8332 30.1455 55.179Z" fill="#105499"/>
<path d="M14.0502 10.6345H24.8285C25.6853 10.6345 26.5159 10.2789 27.1075 9.65886C27.7074 9.02995 28.0151 8.20449 27.9743 7.33428C27.8953 5.65286 26.4866 4.33589 24.7672 4.33589H23.6349C23.587 4.33589 23.5452 4.30187 23.5357 4.25502C23.0353 1.7895 20.8437 0 18.3247 0C15.7246 0 13.5202 1.85794 13.0834 4.41781C13.0755 4.46492 13.0261 4.48599 13.0053 4.49279C11.6658 4.93288 10.7766 6.2255 10.8431 7.63617C10.9226 9.31745 12.3311 10.6345 14.0502 10.6345ZM13.618 6.35754C14.3536 6.11597 14.8903 5.4991 15.0184 4.74797C15.2938 3.13421 16.6843 1.96289 18.3247 1.96289C19.914 1.96289 21.2966 3.09103 21.6121 4.64538C21.8064 5.6034 22.6571 6.29879 23.6349 6.29879H24.7672C25.4252 6.29879 25.9843 6.80469 26.0135 7.42653C26.029 7.75551 25.913 8.06709 25.6872 8.30381C25.4609 8.54093 25.1559 8.67166 24.8285 8.67166H14.0502C13.3924 8.67166 12.8332 8.16576 12.8039 7.54378C12.7788 7.01105 13.1137 6.52334 13.618 6.35754Z" fill="#105499"/>
<path d="M64.9346 28.1827H58.3285V15.7111L58.9702 16.1695C59.4192 16.4901 59.9663 16.617 60.5103 16.5262C61.0544 16.4355 61.5307 16.1384 61.8513 15.6894L63.1116 13.9253C63.7734 12.9985 63.5579 11.706 62.6313 11.0441L47.7081 0.384727C46.9899 -0.128242 46.0251 -0.128242 45.3068 0.384727L30.3836 11.0441C29.9346 11.3647 29.6376 11.8411 29.5467 12.3853C29.4561 12.9294 29.5826 13.4764 29.9035 13.9254L31.1635 15.6894C31.4841 16.1384 31.9604 16.4354 32.5046 16.5262C32.6194 16.5453 32.7343 16.5549 32.8484 16.5549C33.2752 16.5549 33.6905 16.4226 34.0446 16.1696L34.6864 15.7112V20.9027C34.6864 21.4448 35.1257 21.8841 35.6678 21.8841C36.21 21.8841 36.6493 21.4448 36.6493 20.9027V14.3092L46.4475 7.31046C46.4835 7.28468 46.5315 7.28494 46.567 7.3102L56.3655 14.3092V28.1828H51.8246V19.3716C51.8246 18.2532 50.9148 17.3433 49.7963 17.3433H43.2184C42.0999 17.3433 41.1901 18.2532 41.1901 19.3716V28.1828H36.6493V24.7743C36.6493 24.2321 36.21 23.7929 35.6678 23.7929C35.1257 23.7929 34.6864 24.2321 34.6864 24.7743V28.1827H27.7775C26.887 28.1827 26.0996 28.7502 25.818 29.5949L24.109 34.722C23.8601 35.4689 24.0513 36.2789 24.6078 36.8356L27.7035 39.9311C27.7435 39.9711 27.7435 40.0363 27.7035 40.0761L18.7092 49.07C18.6799 49.0996 18.6519 49.1276 18.5828 49.0848C18.5139 49.0422 18.5263 49.0047 18.5395 48.9652L21.1102 41.2529C21.4502 40.2327 20.9637 39.1386 19.9787 38.7077L16.2097 37.0587C16.1682 37.0405 16.1432 36.9966 16.149 36.9518L16.9736 30.5096C17.0489 29.9213 16.8675 29.3286 16.4755 28.8833C16.0835 28.438 15.5184 28.1825 14.9248 28.1825H12.8024V25.8097H13.1654C13.6734 25.8097 14.1395 25.5769 14.4447 25.1708C14.7497 24.7647 14.8436 24.2522 14.7024 23.7643L13.4508 19.4418C13.8197 19.3313 14.1392 19.0898 14.3489 18.7503C14.6426 18.275 14.6687 17.6931 14.4189 17.1934L11.0843 10.5242C10.8115 9.97855 10.263 9.63963 9.65297 9.63963C9.04304 9.63963 8.49447 9.97855 8.22163 10.5242L4.88694 17.1937C4.63726 17.6935 4.66357 18.2756 4.95721 18.7507C5.16711 19.0899 5.48641 19.3315 5.85517 19.4419L4.6035 23.7643C4.4623 24.2523 4.55626 24.7649 4.86129 25.1708C5.16646 25.577 5.63284 25.8098 6.14058 25.8098H6.50371V28.1827H2.06535C0.926484 28.1827 0 29.1093 0 30.2481V63.8506C0 65.5872 1.41276 67 3.14926 67H5.52148C6.06363 67 6.50293 66.5607 6.50293 66.0186C6.50293 65.4764 6.06363 65.0371 5.52148 65.0371H3.14926C2.4951 65.0371 1.96289 64.5049 1.96289 63.8507V53.9926H22.6605C23.3147 53.9926 23.8469 54.5248 23.8469 55.1791C23.8469 55.8332 23.3147 56.3655 22.6605 56.3655H19.1799C17.4433 56.3655 16.0305 57.7782 16.0305 59.5147C16.0305 61.2512 17.4434 62.664 19.1799 62.664H31.3321C31.9862 62.664 32.5184 63.1962 32.5184 63.8505C32.5184 64.5046 31.9862 65.0368 31.3321 65.0368H9.44805C8.9059 65.0368 8.4666 65.4761 8.4666 66.0183C8.4666 66.5604 8.9059 66.9997 9.44805 66.9997H63.8506C65.5872 67 67 65.5872 67 63.8507V30.2481C67 29.1093 66.0735 28.1827 64.9346 28.1827ZM45.3069 5.71293L32.9038 14.5724C32.8577 14.6051 32.7939 14.5945 32.7608 14.5484L31.5007 12.7843C31.4844 12.7614 31.4785 12.7356 31.4831 12.7079C31.4876 12.68 31.5018 12.6576 31.5245 12.6411L46.4478 1.98187C46.4655 1.9693 46.4865 1.96289 46.5074 1.96289C46.5282 1.96289 46.549 1.9693 46.567 1.982L61.4902 12.6414C61.5362 12.6744 61.547 12.7386 61.5142 12.7846L60.2541 14.5487C60.2211 14.5946 60.1571 14.6053 60.111 14.5726L47.7078 5.71306C46.9899 5.20022 46.0251 5.19983 45.3069 5.71293ZM43.1531 19.3715C43.1531 19.3355 43.1825 19.3061 43.2185 19.3061H49.7964C49.8324 19.3061 49.8619 19.3355 49.8619 19.3715V28.1827H43.1531V19.3715ZM7.59783 18.1854C7.40559 17.9296 7.14924 17.7424 6.85899 17.6391L9.6531 12.0508L12.4473 17.6391C12.157 17.7424 11.9006 17.9296 11.7085 18.1854C11.4035 18.5915 11.3095 19.1042 11.4507 19.5917L12.683 23.847H11.8211H7.48516H6.62319L7.85549 19.5919C7.99669 19.104 7.90286 18.5913 7.59783 18.1854ZM8.4666 25.8098H10.8395V28.1827H8.4666V25.8098ZM31.3322 60.7012H19.1801C18.5258 60.7012 17.9936 60.169 17.9936 59.5148C17.9936 58.8607 18.5258 58.3285 19.1801 58.3285H22.6607C24.3972 58.3285 25.8099 56.9157 25.8099 55.1792C25.8099 53.4427 24.3972 52.0298 22.6607 52.0298H1.96289V30.2481C1.96289 30.1915 2.00895 30.1455 2.06535 30.1455H14.9252C14.956 30.1455 14.982 30.1573 15.0024 30.1804C15.0225 30.2034 15.0309 30.2303 15.027 30.2606L14.2023 36.7028C14.0868 37.606 14.5887 38.492 15.4232 38.8573L19.1924 40.5062C19.2412 40.5275 19.2654 40.582 19.2485 40.6325L16.6776 48.3448C16.3685 49.2724 16.7195 50.2408 17.5514 50.7549C18.383 51.269 19.4061 51.1498 20.0976 50.4583L29.0919 41.4642C29.8969 40.6589 29.8969 39.3486 29.0919 38.5433L25.9963 35.4477C25.9685 35.4201 25.9591 35.3799 25.9715 35.3429L27.6804 30.2157C27.6944 30.1738 27.7334 30.1457 27.7776 30.1457H49.888L49.8666 32.8911L46.0686 34.7901C45.5839 35.0326 45.3874 35.622 45.6299 36.1068L47.4314 39.7101L43.7509 42.4704C43.3341 42.783 43.2342 43.3667 43.5232 43.7999L45.6911 47.0518C45.8802 47.3355 46.1914 47.489 46.5086 47.489C46.6957 47.489 46.8848 47.4356 47.0521 47.324C47.503 47.0233 47.625 46.414 47.3242 45.963L45.6712 43.4837L49.2644 40.7889C49.65 40.4995 49.7614 39.9811 49.5525 39.5648C49.5527 39.5648 49.5533 39.5647 49.5533 39.5647L47.8244 36.1067L50.5497 34.7441L53.3101 38.4246C53.5024 38.6809 53.7968 38.8173 54.0961 38.8173C54.2835 38.8173 54.4728 38.7637 54.6397 38.6523L57.8915 36.4844C58.3425 36.1837 58.4644 35.5744 58.1637 35.1234C57.863 34.6725 57.2537 34.5505 56.8028 34.8513L54.3235 36.5043L51.8275 33.1763L51.8512 30.1455H64.9349C64.9914 30.1455 65.0374 30.1916 65.0374 30.2481V52.0297H46.5074C44.7709 52.0297 43.358 53.4426 43.358 55.1791C43.358 56.9157 44.7709 58.3283 46.5074 58.3283H48.6752C49.3294 58.3283 49.8616 58.8605 49.8616 59.5147C49.8616 60.1689 49.3294 60.7011 48.6752 60.7011H40.0037C38.2671 60.7011 36.8545 62.114 36.8545 63.8505C36.8545 64.2701 36.9375 64.6704 37.0872 65.0368H34.2488C34.3983 64.6704 34.4816 64.27 34.4816 63.8505C34.4814 62.1141 33.0687 60.7012 31.3322 60.7012ZM63.8507 65.0371H40.0037C39.3495 65.0371 38.8173 64.5049 38.8173 63.8507C38.8173 63.1964 39.3495 62.6642 40.0037 62.6642H48.6754C50.412 62.6642 51.8246 61.2515 51.8246 59.515C51.8246 57.7785 50.4119 56.3657 48.6754 56.3657H46.5074C45.8531 56.3657 45.3209 55.8335 45.3209 55.1793C45.3209 54.525 45.8531 53.9928 46.5074 53.9928H65.0371V63.851C65.0371 64.5049 64.5049 65.0371 63.8507 65.0371Z" fill="#105499"/>
</svg>
