<svg width="55" height="67" viewBox="0 0 55 67" fill="none" xmlns="http://www.w3.org/2000/svg">
<path d="M27.2023 47.0797C16.1756 47.0797 7.20498 38.1323 7.20498 27.1344C7.20498 16.1343 16.1758 7.18536 27.2023 7.18536C38.2268 7.18536 47.1959 16.1344 47.1959 27.1344C47.1959 38.1323 38.2268 47.0797 27.2023 47.0797ZM27.2023 9.80255C17.6188 9.80255 9.82217 17.5776 9.82217 27.1344C9.82217 36.6892 17.6189 44.4625 27.2023 44.4625C36.7836 44.4625 44.5787 36.6892 44.5787 27.1344C44.5787 17.5776 36.7836 9.80255 27.2023 9.80255Z" fill="#105499"/>
<path d="M27.2023 37.1381C26.4795 37.1381 25.8937 36.5561 25.8937 35.8333V35.8257C25.8937 35.1031 26.4795 34.5172 27.2023 34.5172C27.925 34.5172 28.5109 35.1031 28.5109 35.8257C28.5109 36.5484 27.925 37.1381 27.2023 37.1381Z" fill="#105499"/>
<path d="M27.2023 31.8336C26.4795 31.8336 25.8937 31.2476 25.8937 30.525V26.3739C25.8937 25.6513 26.4795 25.0653 27.2023 25.0653C27.9441 25.0653 28.6339 24.7691 29.1446 24.2311C29.6516 23.6971 29.9096 22.9975 29.8713 22.2614C29.7989 20.8751 28.6511 19.7676 27.2583 19.7401C25.9081 19.7115 24.7462 20.6923 24.5537 22.0194C24.5361 22.1649 24.5276 22.2898 24.5276 22.401C24.5276 23.1236 23.9418 23.7096 23.219 23.7096C22.4963 23.7096 21.9104 23.1236 21.9104 22.401C21.9104 22.1793 21.9258 21.9463 21.9573 21.689C21.9582 21.6812 21.9593 21.6736 21.9603 21.6657C22.3323 19.0228 24.6334 17.0681 27.3101 17.1235C30.0681 17.1779 32.3411 19.3748 32.4847 22.125C32.5608 23.5853 32.0485 24.9732 31.0426 26.0329C30.3531 26.7593 29.4694 27.271 28.5107 27.5167V30.5249C28.5109 31.2476 27.925 31.8336 27.2023 31.8336Z" fill="#105499"/>
<path d="M27.2024 67C26.7572 67 26.3426 66.7737 26.1017 66.3995L17.0367 52.3105C13.6369 50.9481 10.5878 48.9353 7.96881 46.3229C2.82944 41.1969 -0.000523365 34.3809 7.25992e-08 27.1307C0.000654369 19.882 2.83075 13.0687 7.96894 7.94578C13.102 2.82198 19.9328 0 27.2023 0C34.4718 0 41.3024 2.82198 46.4361 7.9463C51.5721 13.0689 54.4011 19.8822 54.4018 27.1308C54.4024 34.3809 51.5735 41.1969 46.436 46.3229C43.8122 48.9363 40.7624 50.9489 37.3643 52.3105L28.3029 66.3994C28.0621 66.7737 27.6474 67 27.2024 67ZM27.2023 2.61719C20.6309 2.61719 14.457 5.16751 9.81733 9.79849C5.17457 14.4275 2.61771 20.5827 2.61719 27.1308C2.61666 33.6807 5.17352 39.8384 9.81707 44.4699C12.2781 46.9247 15.1577 48.7934 18.3757 50.0241C18.6361 50.1237 18.8579 50.3039 19.0086 50.5383L27.2021 63.2726L35.3921 50.5384C35.543 50.3038 35.7648 50.1236 36.0252 50.024C39.2416 48.7938 42.1226 46.9247 44.5881 44.4692C49.229 39.8384 51.7851 33.6807 51.7845 27.1307C51.7839 20.5825 49.2279 14.4272 44.5875 9.79875C39.9477 5.16751 33.7736 2.61719 27.2023 2.61719Z" fill="#105499"/>
</svg>
