<svg width="47" height="47" viewBox="0 0 47 47" fill="none" xmlns="http://www.w3.org/2000/svg">
<g clip-path="url(#clip0)">
<path d="M39.9299 25.7654C39.926 24.1933 39.5556 22.6483 38.8492 21.2458L40.4716 19.6234C41.6879 18.4071 41.6879 16.4279 40.4716 15.2115C39.8649 14.6049 39.0685 14.3009 38.2715 14.2995C38.2704 13.4678 37.9461 12.6862 37.358 12.098C36.7509 11.491 35.9539 11.187 35.1565 11.1859C35.1554 10.3885 34.8513 9.5914 34.2443 8.98436C33.6564 8.39659 32.8753 8.07228 32.0442 8.07081C32.0427 7.23979 31.7185 6.45861 31.1307 5.87076C30.5415 5.28153 29.758 4.95703 28.9248 4.95703C28.0915 4.95703 27.3081 5.28153 26.7189 5.87076L23.501 9.08873L21.7104 7.29808C21.1212 6.70885 20.3378 6.38435 19.5045 6.38435C18.6712 6.38435 17.8878 6.70885 17.2986 7.29808C16.7104 7.8863 16.3862 8.66794 16.385 9.4996C15.5881 9.50107 14.7916 9.805 14.185 10.4117C13.5971 10.9995 13.2729 11.7806 13.2713 12.6117C12.4403 12.6133 11.6591 12.9375 11.0713 13.5254C10.0668 14.5298 9.8928 16.054 10.5472 17.2398C10.0965 17.3871 9.67267 17.6387 9.31504 17.9963C8.09875 19.2127 8.09875 21.1918 9.31504 22.4082L10.6144 23.7075L0.291306 34.0306C-0.067154 34.3891 -0.067154 34.9703 0.291306 35.3289C0.470582 35.5081 0.705485 35.5978 0.940389 35.5978C1.17529 35.5978 1.41029 35.5081 1.58947 35.3289L8.58738 28.331L15.1427 34.8863L4.64285 45.3862C4.28439 45.7447 4.28439 46.3259 4.64285 46.6845C4.82213 46.8637 5.05703 46.9534 5.29193 46.9534C5.52684 46.9534 5.76183 46.8637 5.94102 46.6845L20.1329 32.4926C20.3943 32.2312 20.6919 32.0193 21.014 31.86L23.235 33.3229C24.704 34.2904 26.495 34.6684 28.2218 34.3888L40.5643 46.7313C40.7436 46.9105 40.9785 47.0002 41.2134 47.0002C41.4483 47.0002 41.6833 46.9105 41.8625 46.7313C42.2209 46.3728 42.2209 45.7916 41.8625 45.433L34.7012 38.2717L35.5669 37.406C35.9253 37.0476 35.9253 36.4663 35.5669 36.1078C35.2084 35.7494 34.6272 35.7494 34.2686 36.1078L33.4029 36.9735L31.376 34.9466L38.9452 27.3772L40.9722 29.4043L40.1084 30.268C39.75 30.6266 39.75 31.2078 40.1084 31.5663C40.2877 31.7455 40.5226 31.8352 40.7575 31.8352C40.9924 31.8352 41.2274 31.7455 41.4066 31.5663L42.2704 30.7025L45.4323 33.8644C45.6116 34.0436 45.8465 34.1333 46.0814 34.1333C46.3163 34.1333 46.5513 34.0436 46.7304 33.8644C47.0889 33.5059 47.0889 32.9247 46.7304 32.5661L39.9299 25.7654ZM28.0171 7.16892C28.2595 6.92649 28.5819 6.79293 28.9248 6.79293C29.2676 6.79293 29.59 6.92649 29.8324 7.16892C30.075 7.41136 30.2084 7.73374 30.2084 8.07659C30.2084 8.41954 30.0749 8.74192 29.8324 8.98436L27.8152 11.0016C27.4568 11.36 27.4568 11.9413 27.8152 12.2998C28.1737 12.6584 28.7549 12.6583 29.1135 12.2998L31.1307 10.2826C31.3731 10.0401 31.6955 9.90662 32.0385 9.90662C32.3813 9.90662 32.7037 10.0402 32.9461 10.2826C33.4467 10.7832 33.4467 11.5975 32.9461 12.098L29.8658 15.1783C29.5074 15.5368 29.5074 16.118 29.8658 16.4766C30.0451 16.6559 30.28 16.7454 30.5149 16.7454C30.7498 16.7454 30.9848 16.6559 31.164 16.4766L34.2443 13.3963C34.4867 13.1538 34.8091 13.0203 35.152 13.0203C35.4949 13.0203 35.8173 13.1539 36.0597 13.3963C36.3022 13.6387 36.4357 13.9611 36.4357 14.304C36.4357 14.6468 36.3022 14.9692 36.0597 15.2116L32.9794 18.2919C32.621 18.6504 32.621 19.2316 32.9794 19.5902C33.1587 19.7694 33.3936 19.859 33.6285 19.859C33.8634 19.859 34.0984 19.7694 34.2776 19.5902L37.3578 16.5099C37.8583 16.0093 38.6728 16.0094 39.1732 16.5099C39.6738 17.0105 39.6738 17.8249 39.1732 18.3253L31.5858 25.9127C29.1565 28.3421 25.9266 29.68 22.4909 29.68C21.5606 29.68 20.6682 29.925 19.8859 30.3828L14.5727 25.0696C14.9815 24.9152 15.3568 24.675 15.6752 24.3566C16.2634 23.7684 16.5876 22.9868 16.5888 22.1551C17.3857 22.1536 18.1822 21.8496 18.7888 21.2429C19.3955 20.6363 19.6994 19.8399 19.7009 19.0429C20.5326 19.0418 21.3143 18.7175 21.9024 18.1293C22.5091 17.5226 22.813 16.7262 22.8145 15.9292C23.6462 15.9281 24.4278 15.6038 25.0159 15.0157C25.6052 14.4264 25.9297 13.643 25.9297 12.8097C25.9297 11.9764 25.6052 11.193 25.0159 10.6038L24.7989 10.3867L28.0171 7.16892ZM18.5968 8.59625C18.8392 8.35381 19.1616 8.22025 19.5045 8.22025C19.8473 8.22025 20.1697 8.35381 20.4121 8.59625L23.7181 11.9021C23.9605 12.1445 24.094 12.4669 24.094 12.8097C24.094 13.1526 23.9605 13.475 23.7181 13.7175C23.4756 13.9599 23.1532 14.0935 22.8104 14.0935C22.4676 14.0935 22.1454 13.96 21.903 13.7178C21.9029 13.7177 21.9028 13.7176 21.9027 13.7174L18.5968 10.4116C18.3544 10.1692 18.2208 9.84677 18.2208 9.50392C18.2208 9.16106 18.3543 8.83877 18.5968 8.59625ZM15.4831 11.7098C15.7334 11.4595 16.0621 11.3345 16.3909 11.3345C16.7196 11.3345 17.0484 11.4596 17.2985 11.7098L20.6044 15.0157C21.1049 15.5162 21.1048 16.3306 20.6044 16.8312C20.3619 17.0736 20.0395 17.2072 19.6967 17.2072C19.3539 17.2072 19.0317 17.0737 18.7893 16.8315C18.7892 16.8314 18.7891 16.8313 18.789 16.8311L15.4832 13.5253C15.2407 13.2828 15.1072 12.9605 15.1072 12.6175C15.1071 12.2747 15.2407 11.9524 15.4831 11.7098ZM12.3695 14.8235C12.6119 14.581 12.9343 14.4475 13.2772 14.4475C13.6201 14.4475 13.9425 14.5811 14.185 14.8235L17.4908 18.1293C17.9913 18.6299 17.9913 19.4443 17.4908 19.9448C16.9902 20.4452 16.1758 20.4453 15.6752 19.9448L12.3694 16.639C11.869 16.1385 11.869 15.324 12.3695 14.8235ZM10.6132 19.2945C10.8635 19.0442 11.1922 18.9192 11.521 18.9192C11.8492 18.9192 12.1777 19.0441 12.4277 19.2937L14.3771 21.243C14.6195 21.4855 14.7531 21.8078 14.7531 22.1507C14.7531 22.4936 14.6195 22.8159 14.3771 23.0585C14.1346 23.301 13.8123 23.4345 13.4693 23.4345C13.1267 23.4345 12.8045 23.3011 12.5621 23.0589L12.5616 23.0585L10.6132 21.11C10.1127 20.6094 10.1127 19.795 10.6132 19.2945ZM9.88564 27.0327L11.9127 25.0057L18.4681 31.5611L16.4411 33.5881L9.88564 27.0327ZM29.1729 32.7434C28.9468 32.5174 28.6195 32.4248 28.3088 32.5001C26.9195 32.8345 25.4383 32.5757 24.245 31.7896L23.7478 31.4621C27.1998 31.1717 30.4065 29.6886 32.8842 27.2109L37.4653 22.6299C37.8594 23.5822 38.072 24.6002 38.0915 25.6349L30.078 33.6485L29.1729 32.7434Z" fill="#105499"/>
<path d="M37.1875 33.1889C37.0168 33.3596 36.9186 33.5955 36.9186 33.8379C36.9186 34.0793 37.0168 34.3162 37.1875 34.4868C37.3583 34.6575 37.5951 34.7559 37.8365 34.7559C38.0789 34.7559 38.3148 34.6576 38.4856 34.4868C38.6563 34.3162 38.7545 34.0793 38.7545 33.8379C38.7545 33.5955 38.6563 33.3596 38.4856 33.1889C38.3148 33.0181 38.078 32.9199 37.8365 32.9199C37.5951 32.9199 37.3583 33.0181 37.1875 33.1889Z" fill="#105499"/>
<path d="M6.20198 7.4998C6.38125 7.67908 6.61616 7.76867 6.85106 7.76867C7.08597 7.76867 7.32096 7.67908 7.50014 7.4998C7.8586 7.14134 7.8586 6.5601 7.50014 6.20155L3.17926 1.88066C2.8208 1.5222 2.23955 1.5222 1.881 1.88066C1.52245 2.23912 1.52254 2.82037 1.881 3.17892L6.20198 7.4998Z" fill="#105499"/>
<path d="M11.1994 5.0043C11.7064 5.0043 12.1174 4.59333 12.1174 4.08635V0.917951C12.1174 0.410967 11.7064 0 11.1994 0C10.6925 0 10.2815 0.410967 10.2815 0.917951V4.08635C10.2815 4.59333 10.6925 5.0043 11.1994 5.0043Z" fill="#105499"/>
<path d="M0.918378 12.1169H4.08678C4.59376 12.1169 5.00473 11.7059 5.00473 11.199C5.00473 10.692 4.59376 10.281 4.08678 10.281H0.918378C0.411394 10.281 0.000427246 10.692 0.000427246 11.199C0.000427246 11.7059 0.411394 12.1169 0.918378 12.1169Z" fill="#105499"/>
<path d="M40.1489 7.76846C40.3838 7.76846 40.6188 7.67887 40.798 7.4996L45.1189 3.17871C45.4773 2.82025 45.4773 2.239 45.1189 1.88045C44.7604 1.5219 44.1792 1.52199 43.8206 1.88045L39.4997 6.20134C39.1413 6.5598 39.1413 7.14104 39.4997 7.4996C39.6791 7.67887 39.914 7.76846 40.1489 7.76846Z" fill="#105499"/>
<path d="M35.8005 5.0043C36.3075 5.0043 36.7185 4.59333 36.7185 4.08635V0.917951C36.7185 0.410967 36.3075 0 35.8005 0C35.2935 0 34.8826 0.410967 34.8826 0.917951V4.08635C34.8826 4.59333 35.2935 5.0043 35.8005 5.0043Z" fill="#105499"/>
<path d="M41.9953 11.199C41.9953 11.7059 42.4063 12.1169 42.9133 12.1169H46.0817C46.5886 12.1169 46.9996 11.7059 46.9996 11.199C46.9996 10.692 46.5886 10.281 46.0817 10.281H42.9133C42.4063 10.281 41.9953 10.692 41.9953 11.199Z" fill="#105499"/>
</g>
<defs>
<clipPath id="clip0">
<rect width="47" height="47" fill="white"/>
</clipPath>
</defs>
</svg>
