<svg width="46" height="46" viewBox="0 0 46 46" fill="none" xmlns="http://www.w3.org/2000/svg">
<path d="M40.6232 9.91838C40.6194 9.85137 40.6063 9.78473 40.5843 9.72147C40.5756 9.69676 40.5697 9.67318 40.5588 9.64922C40.5217 9.56574 40.4701 9.48975 40.4057 9.42461L31.2057 0.224609C31.1402 0.160221 31.0638 0.108187 30.9803 0.0711263C30.9571 0.0606445 30.9343 0.0542806 30.9103 0.0460449C30.8452 0.023584 30.7774 0.0101074 30.7089 0.00598958C30.6966 0.00861003 30.682 0 30.6666 0H9.19997C7.08378 0.00262045 5.36926 1.71714 5.36664 3.83333V42.1667C5.36926 44.2829 7.08378 45.9974 9.19997 46H36.8C38.9162 45.9974 40.6307 44.2829 40.6333 42.1667V9.96667C40.6333 9.94982 40.6247 9.93522 40.6232 9.91838ZM38.0159 9.2H32.2C31.7766 9.2 31.4333 8.85672 31.4333 8.43333V2.61745L38.0159 9.2ZM36.8 44.4667H9.19997C7.9298 44.4667 6.89997 43.4368 6.89997 42.1667V3.83333C6.89997 2.56317 7.9298 1.53333 9.19997 1.53333H29.9V8.43333C29.9 9.7035 30.9298 10.7333 32.2 10.7333H39.1V42.1667C39.1 43.4368 38.0701 44.4667 36.8 44.4667Z" fill="#105499"/>
<path d="M34.5 20.6999H31.9031C31.6905 19.867 31.3607 19.0685 30.9235 18.3288L32.7582 16.4949C33.0573 16.1954 33.0573 15.7102 32.7582 15.4108L30.5899 13.2418C30.2904 12.9427 29.8053 12.9427 29.5058 13.2418L27.6723 15.0757C26.9318 14.6385 26.1329 14.3091 25.3 14.0968V11.4999C25.3 11.0766 24.9567 10.7333 24.5333 10.7333H21.4667C21.0433 10.7333 20.7 11.0766 20.7 11.4999V14.0968C19.8671 14.3091 19.0686 14.6385 18.3289 15.0757L16.4949 13.2418C16.1955 12.9427 15.7103 12.9427 15.4108 13.2418L13.2418 15.41C12.9427 15.7095 12.9427 16.1947 13.2418 16.4941L15.0765 18.3277C14.6393 19.0682 14.3091 19.8666 14.0969 20.6999H11.5C11.0766 20.6999 10.7333 21.0432 10.7333 21.4666V24.5333C10.7333 24.9567 11.0766 25.2999 11.5 25.2999H14.0969C14.3095 26.1329 14.6393 26.9314 15.0765 27.6711L13.2418 29.505C12.9427 29.8045 12.9427 30.2896 13.2418 30.5891L15.4101 32.7581C15.7096 33.0572 16.1947 33.0572 16.4942 32.7581L18.3278 30.9242C19.0682 31.3614 19.8671 31.6908 20.7 31.9031V34.4999C20.7 34.9233 21.0433 35.2666 21.4667 35.2666H24.5333C24.9567 35.2666 25.3 34.9233 25.3 34.4999V31.9031C26.1329 31.6908 26.9314 31.3614 27.6711 30.9242L29.5051 32.7581C29.8045 33.0572 30.2897 33.0572 30.5892 32.7581L32.7582 30.5899C33.0573 30.2904 33.0573 29.8052 32.7582 29.5058L30.9235 27.6722C31.3607 26.9317 31.6909 26.1332 31.9031 25.2999H34.5C34.9234 25.2999 35.2667 24.9567 35.2667 24.5333V21.4666C35.2667 21.0432 34.9234 20.6999 34.5 20.6999ZM33.7333 23.7666H31.2877C30.9175 23.7662 30.6004 24.0305 30.5334 24.3944C30.341 25.4523 29.9258 26.4574 29.3149 27.3424C29.1056 27.6471 29.1431 28.0578 29.4047 28.3191L31.132 30.0471L30.0471 31.1312L28.3199 29.4047C28.0586 29.143 27.6479 29.1056 27.3432 29.3148C26.4579 29.9254 25.4527 30.3409 24.3945 30.5333C24.0306 30.6003 23.7663 30.9174 23.7667 31.2877V33.7333H22.2333V31.2877C22.2337 30.9174 21.9694 30.6003 21.6056 30.5333C20.5473 30.3409 19.5421 29.9254 18.6568 29.3148C18.3521 29.1056 17.9414 29.143 17.6801 29.4047L15.9529 31.1312L14.868 30.0471L16.5953 28.3191C16.8569 28.0578 16.8944 27.6471 16.6851 27.3424C16.0742 26.4574 15.659 25.4523 15.4666 24.3944C15.3996 24.0305 15.0825 23.7662 14.7123 23.7666H12.2667V22.2333H14.7123C15.0825 22.2337 15.3996 21.9694 15.4666 21.6055C15.659 20.5476 16.0742 19.5425 16.6851 18.6575C16.8944 18.3528 16.8569 17.9421 16.5953 17.6808L14.868 15.9528L15.9529 14.8687L17.6801 16.5952C17.9414 16.8569 18.3521 16.8943 18.6568 16.6851C19.5421 16.0745 20.5473 15.659 21.6056 15.4665C21.9694 15.3995 22.2337 15.0825 22.2333 14.7122V12.2666H23.7667V14.7122C23.7663 15.0825 24.0306 15.3995 24.3945 15.4665C25.4527 15.659 26.4579 16.0745 27.3432 16.6851C27.6479 16.8943 28.0586 16.8569 28.3199 16.5952L30.0471 14.8687L31.132 15.9528L29.4047 17.6808C29.1431 17.9421 29.1056 18.3528 29.3149 18.6575C29.9258 19.5425 30.341 20.5476 30.5334 21.6055C30.6004 21.9694 30.9175 22.2337 31.2877 22.2333H33.7333V23.7666Z" fill="#105499"/>
<path d="M23 16.8667C19.6125 16.8667 16.8666 19.6125 16.8666 23C16.8666 26.3875 19.6125 29.1334 23 29.1334C26.3874 29.1334 29.1333 26.3875 29.1333 23C29.1295 19.6144 26.3856 16.8704 23 16.8667ZM23 27.6C20.4596 27.6 18.4 25.5404 18.4 23C18.4 20.4597 20.4596 18.4 23 18.4C25.5403 18.4 27.6 20.4597 27.6 23C27.5973 25.5396 25.5395 27.5974 23 27.6Z" fill="#105499"/>
<path d="M23 20.7C21.7298 20.7 20.7 21.7298 20.7 23C20.7 24.2701 21.7298 25.3 23 25.3C24.2702 25.3 25.3 24.2701 25.3 23C25.3 21.7298 24.2702 20.7 23 20.7ZM23 23.7666C22.5766 23.7666 22.2333 23.4233 22.2333 23C22.2333 22.5766 22.5766 22.2333 23 22.2333C23.4234 22.2333 23.7667 22.5766 23.7667 23C23.7667 23.4233 23.4234 23.7666 23 23.7666Z" fill="#105499"/>
<path d="M10.7333 4.59998H13.8V6.13331H10.7333V4.59998Z" fill="#105499"/>
<path d="M15.3333 4.59998H19.9333V6.13331H15.3333V4.59998Z" fill="#105499"/>
<path d="M10.7333 7.66663H19.9333V9.19996H10.7333V7.66663Z" fill="#105499"/>
<path d="M26.0667 36.8H27.6V38.3334H26.0667V36.8Z" fill="#105499"/>
<path d="M29.1333 36.8H35.2666V38.3334H29.1333V36.8Z" fill="#105499"/>
<path d="M26.0667 39.8667H35.2667V41.4H26.0667V39.8667Z" fill="#105499"/>
</svg>
