<svg width="50" height="50" viewBox="0 0 50 50" fill="none" xmlns="http://www.w3.org/2000/svg">
<path d="M21.4836 10.1577H19.1399C18.7079 10.1577 18.3586 9.8085 18.3586 9.37646V7.03271C18.3586 6.60068 18.7079 6.25146 19.1399 6.25146H21.4836C21.9157 6.25146 22.2649 6.60068 22.2649 7.03271V9.37646C22.2649 9.8085 21.9157 10.1577 21.4836 10.1577ZM19.9211 8.59521H20.7024V7.81396H19.9211V8.59521Z" fill="#105499"/>
<path d="M26.1719 10.1577H23.8281C23.3961 10.1577 23.0469 9.8085 23.0469 9.37646V7.03271C23.0469 6.60068 23.3961 6.25146 23.8281 6.25146H26.1719C26.6039 6.25146 26.9531 6.60068 26.9531 7.03271V9.37646C26.9531 9.8085 26.6039 10.1577 26.1719 10.1577ZM24.6094 8.59521H25.3906V7.81396H24.6094V8.59521Z" fill="#105499"/>
<path d="M30.8602 10.1577H28.5164C28.0844 10.1577 27.7352 9.8085 27.7352 9.37646V7.03271C27.7352 6.60068 28.0844 6.25146 28.5164 6.25146H30.8602C31.2922 6.25146 31.6414 6.60068 31.6414 7.03271V9.37646C31.6414 9.8085 31.2922 10.1577 30.8602 10.1577ZM29.2977 8.59521H30.0789V7.81396H29.2977V8.59521Z" fill="#105499"/>
<path d="M23.8274 7.81396H21.4836C21.0516 7.81396 20.7024 7.46475 20.7024 7.03271V4.68896C20.7024 4.25693 21.0516 3.90771 21.4836 3.90771H23.8274C24.2594 3.90771 24.6086 4.25693 24.6086 4.68896V7.03271C24.6086 7.46475 24.2594 7.81396 23.8274 7.81396ZM22.2649 6.25146H23.0461V5.47021H22.2649V6.25146Z" fill="#105499"/>
<path d="M28.5156 7.81396H26.1719C25.7398 7.81396 25.3906 7.46475 25.3906 7.03271V4.68896C25.3906 4.25693 25.7398 3.90771 26.1719 3.90771H28.5156C28.9477 3.90771 29.2969 4.25693 29.2969 4.68896V7.03271C29.2969 7.46475 28.9477 7.81396 28.5156 7.81396ZM26.9531 6.25146H27.7344V5.47021H26.9531V6.25146Z" fill="#105499"/>
<path d="M42.1875 50H7.8125C7.38047 50 7.03125 49.6508 7.03125 49.2188V0.78125C7.03125 0.349219 7.38047 0 7.8125 0H38.2812C38.4891 0 38.6875 0.0820313 38.8336 0.228906L42.7398 4.13516C42.8867 4.28125 42.9688 4.47969 42.9688 4.6875V49.2188C42.9688 49.6508 42.6195 50 42.1875 50ZM8.59375 48.4375H41.4062V5.01094L37.9578 1.5625H8.59375V48.4375Z" fill="#105499"/>
<path d="M16.407 27.3571C13.3921 27.3571 10.9382 24.9032 10.9382 21.8876C10.9382 18.8727 13.3921 16.4188 16.407 16.4188C19.4218 16.4188 21.8757 18.8727 21.8757 21.8876C21.8757 24.9032 19.4218 27.3571 16.407 27.3571ZM16.407 17.9813C14.2531 17.9813 12.5007 19.7337 12.5007 21.8876C12.5007 24.0423 14.2531 25.7946 16.407 25.7946C18.5609 25.7946 20.3132 24.0423 20.3132 21.8876C20.3132 19.7337 18.5609 17.9813 16.407 17.9813Z" fill="#105499"/>
<path d="M16.407 24.2313C15.1148 24.2313 14.0632 23.1798 14.0632 21.8876C14.0632 20.5954 15.1148 19.5438 16.407 19.5438C17.6992 19.5438 18.7507 20.5954 18.7507 21.8876C18.7507 23.1798 17.6992 24.2313 16.407 24.2313ZM16.407 21.1063C15.9757 21.1063 15.6257 21.4563 15.6257 21.8876C15.6257 22.3188 15.9757 22.6688 16.407 22.6688C16.8382 22.6688 17.1882 22.3188 17.1882 21.8876C17.1882 21.4563 16.8382 21.1063 16.407 21.1063Z" fill="#105499"/>
<path d="M13.4601 26.3141C13.3742 26.3141 13.2851 26.2993 13.1992 26.2688C12.7921 26.1251 12.5796 25.6782 12.7242 25.272C13.2749 23.7149 14.7554 22.6688 16.407 22.6688C18.0593 22.6688 19.5398 23.7149 20.0898 25.2727C20.2343 25.6798 20.0203 26.1259 19.614 26.2688C19.2062 26.4141 18.7609 26.2001 18.6179 25.793C18.2874 24.8595 17.3992 24.2313 16.4078 24.2313C15.4163 24.2313 14.5288 24.8595 14.1976 25.7938C14.0828 26.1141 13.782 26.3141 13.4601 26.3141Z" fill="#105499"/>
<path d="M38.2796 21.8922H24.2179C23.7859 21.8922 23.4367 21.543 23.4367 21.111C23.4367 20.6789 23.7859 20.3297 24.2179 20.3297H38.2796C38.7117 20.3297 39.0609 20.6789 39.0609 21.111C39.0609 21.543 38.7117 21.8922 38.2796 21.8922Z" fill="#105499"/>
<path d="M38.2796 24.2352H24.2179C23.7859 24.2352 23.4367 23.886 23.4367 23.454C23.4367 23.0219 23.7859 22.6727 24.2179 22.6727H38.2796C38.7117 22.6727 39.0609 23.0219 39.0609 23.454C39.0609 23.886 38.7117 24.2352 38.2796 24.2352Z" fill="#105499"/>
<path d="M30.4843 26.5773H24.2179C23.7859 26.5773 23.4367 26.2281 23.4367 25.796C23.4367 25.364 23.7859 25.0148 24.2179 25.0148H30.4843C30.9164 25.0148 31.2656 25.364 31.2656 25.796C31.2656 26.2281 30.9156 26.5773 30.4843 26.5773Z" fill="#105499"/>
<path d="M24.2179 19.5446C23.7859 19.5446 23.4367 19.1953 23.4367 18.7633V17.9821C23.4367 17.55 23.7859 17.2008 24.2179 17.2008C24.65 17.2008 24.9992 17.55 24.9992 17.9821V18.7633C24.9992 19.1946 24.65 19.5446 24.2179 19.5446Z" fill="#105499"/>
<path d="M26.5617 19.5446C26.1296 19.5446 25.7804 19.1953 25.7804 18.7633V17.9821C25.7804 17.55 26.1296 17.2008 26.5617 17.2008C26.9937 17.2008 27.3429 17.55 27.3429 17.9821V18.7633C27.3429 19.1946 26.9937 19.5446 26.5617 19.5446Z" fill="#105499"/>
<path d="M28.9054 19.5446C28.4734 19.5446 28.1242 19.1953 28.1242 18.7633V17.9821C28.1242 17.55 28.4734 17.2008 28.9054 17.2008C29.3375 17.2008 29.6867 17.55 29.6867 17.9821V18.7633C29.6867 19.1946 29.3375 19.5446 28.9054 19.5446Z" fill="#105499"/>
<path d="M31.2492 19.5446C30.8171 19.5446 30.4679 19.1953 30.4679 18.7633V17.9821C30.4679 17.55 30.8171 17.2008 31.2492 17.2008C31.6812 17.2008 32.0304 17.55 32.0304 17.9821V18.7633C32.0304 19.1946 31.6812 19.5446 31.2492 19.5446Z" fill="#105499"/>
<path d="M33.5929 19.5446C33.1609 19.5446 32.8117 19.1953 32.8117 18.7633V17.9821C32.8117 17.55 33.1609 17.2008 33.5929 17.2008C34.025 17.2008 34.3742 17.55 34.3742 17.9821V18.7633C34.3742 19.1946 34.025 19.5446 33.5929 19.5446Z" fill="#105499"/>
<path d="M35.9367 19.5446C35.5046 19.5446 35.1554 19.1953 35.1554 18.7633V17.9821C35.1554 17.55 35.5046 17.2008 35.9367 17.2008C36.3687 17.2008 36.7179 17.55 36.7179 17.9821V18.7633C36.7179 19.1946 36.3687 19.5446 35.9367 19.5446Z" fill="#105499"/>
<path d="M38.2812 19.5446C37.8492 19.5446 37.5 19.1953 37.5 18.7633V17.9821C37.5 17.55 37.8492 17.2008 38.2812 17.2008C38.7133 17.2008 39.0625 17.55 39.0625 17.9821V18.7633C39.0625 19.1946 38.7133 19.5446 38.2812 19.5446Z" fill="#105499"/>
<path d="M38.2812 14.0664H11.7195C11.2875 14.0664 10.9382 13.7172 10.9382 13.2852C10.9382 12.8531 11.2875 12.5039 11.7195 12.5039H38.2812C38.7132 12.5039 39.0625 12.8531 39.0625 13.2852C39.0625 13.7172 38.7132 14.0664 38.2812 14.0664Z" fill="#105499"/>
<path d="M38.2812 31.2461H11.7195C11.2875 31.2461 10.9382 30.8969 10.9382 30.4648C10.9382 30.0328 11.2875 29.6836 11.7195 29.6836H38.2812C38.7132 29.6836 39.0625 30.0328 39.0625 30.4648C39.0625 30.8969 38.7132 31.2461 38.2812 31.2461Z" fill="#105499"/>
<path d="M38.2812 35.157H11.7195C11.2875 35.157 10.9382 34.8078 10.9382 34.3757C10.9382 33.9437 11.2875 33.5945 11.7195 33.5945H38.2812C38.7132 33.5945 39.0625 33.9437 39.0625 34.3757C39.0625 34.8078 38.7132 35.157 38.2812 35.157Z" fill="#105499"/>
<path d="M38.2812 37.5007H11.7195C11.2875 37.5007 10.9382 37.1515 10.9382 36.7195C10.9382 36.2875 11.2875 35.9382 11.7195 35.9382H38.2812C38.7132 35.9382 39.0625 36.2875 39.0625 36.7195C39.0625 37.1515 38.7132 37.5007 38.2812 37.5007Z" fill="#105499"/>
<path d="M25 39.8445H11.7195C11.2875 39.8445 10.9382 39.4953 10.9382 39.0632C10.9382 38.6312 11.2875 38.282 11.7195 38.282H25C25.432 38.282 25.7812 38.6312 25.7812 39.0632C25.7812 39.4953 25.432 39.8445 25 39.8445Z" fill="#105499"/>
<path d="M17.189 43.7507H11.7195C11.2875 43.7507 10.9382 43.4015 10.9382 42.9695C10.9382 42.5375 11.2875 42.1882 11.7195 42.1882H17.189C17.6211 42.1882 17.9703 42.5375 17.9703 42.9695C17.9703 43.4015 17.6211 43.7507 17.189 43.7507Z" fill="#105499"/>
<path d="M25.0023 43.7507H19.5328C19.1008 43.7507 18.7516 43.4015 18.7516 42.9695C18.7516 42.5375 19.1008 42.1882 19.5328 42.1882H25.0023C25.4344 42.1882 25.7836 42.5375 25.7836 42.9695C25.7836 43.4015 25.4344 43.7507 25.0023 43.7507Z" fill="#105499"/>
<path d="M35.9406 46.0945C34.2172 46.0945 32.8156 44.6929 32.8156 42.9695C32.8156 41.246 34.2172 39.8445 35.9406 39.8445C37.6641 39.8445 39.0656 41.246 39.0656 42.9695C39.0656 44.6929 37.6641 46.0945 35.9406 46.0945ZM35.9406 41.407C35.0789 41.407 34.3781 42.1078 34.3781 42.9695C34.3781 43.8312 35.0789 44.532 35.9406 44.532C36.8024 44.532 37.5031 43.8312 37.5031 42.9695C37.5031 42.1078 36.8016 41.407 35.9406 41.407Z" fill="#105499"/>
<path d="M38.2812 5.46719C37.8492 5.46719 37.5 5.11797 37.5 4.68594V0.78125C37.5 0.349219 37.8492 0 38.2812 0C38.7133 0 39.0625 0.349219 39.0625 0.78125V4.68594C39.0625 5.11797 38.7133 5.46719 38.2812 5.46719Z" fill="#105499"/>
<path d="M42.1875 5.46728H38.2812C37.8492 5.46728 37.5 5.11807 37.5 4.68604C37.5 4.254 37.8492 3.90479 38.2812 3.90479H42.1875C42.6195 3.90479 42.9688 4.254 42.9688 4.68604C42.9688 5.11807 42.6195 5.46728 42.1875 5.46728Z" fill="#105499"/>
</svg>
