<svg width="67" height="67" viewBox="0 0 67 67" fill="none" xmlns="http://www.w3.org/2000/svg">
<g clip-path="url(#clip0)">
<path d="M33.5 0C29.183 0 25.6833 3.49963 25.6833 7.81667C25.6882 12.1316 29.1851 15.6284 33.5 15.6333C37.817 15.6333 41.3167 12.1337 41.3167 7.81667C41.3167 3.49963 37.817 0 33.5 0ZM33.5 13.4C30.4165 13.4 27.9167 10.9002 27.9167 7.81667C27.9203 4.73467 30.418 2.23696 33.5 2.23333C36.5836 2.23333 39.0833 4.73313 39.0833 7.81667C39.0833 10.9002 36.5836 13.4 33.5 13.4Z" fill="#105499"/>
<path d="M36.85 16.75H30.15C24.6022 16.7561 20.1062 21.2521 20.1 26.8V45.7833H24.5667V67H26.8V41.3167H24.5667V43.55H22.3334V26.8C22.3383 22.4851 25.8351 18.9882 30.15 18.9833H36.85C41.165 18.9882 44.6618 22.4851 44.6667 26.8V43.55H42.4334V41.3167H40.2V67H42.4334V45.7833H46.9V26.8C46.8939 21.2521 42.3979 16.7561 36.85 16.75Z" fill="#105499"/>
<path d="M34.6167 45.7833H32.3834V67H34.6167V45.7833Z" fill="#105499"/>
<path d="M55.8334 11.1667C52.133 11.1667 49.1334 14.1663 49.1334 17.8667C49.137 21.5655 52.1345 24.563 55.8334 24.5667C59.5337 24.5667 62.5334 21.567 62.5334 17.8667C62.5334 14.1663 59.5337 11.1667 55.8334 11.1667ZM55.8334 22.3333C53.3665 22.3333 51.3667 20.3335 51.3667 17.8667C51.3667 15.3998 53.3665 13.4 55.8334 13.4C58.3002 13.4 60.3 15.3998 60.3 17.8667C60.3 20.3335 58.3002 22.3333 55.8334 22.3333Z" fill="#105499"/>
<path d="M59.1834 25.6833H49.1334V27.9167H59.1834C62.2654 27.9203 64.7631 30.418 64.7667 33.5V48.0167H62.5334V45.7833H60.3V67H62.5334V50.25H67V33.5C66.9951 29.185 63.4983 25.6882 59.1834 25.6833Z" fill="#105499"/>
<path d="M49.1334 45.7833V48.0167H44.6667V50.25H49.1334V67H51.3667V45.7833H49.1334Z" fill="#105499"/>
<path d="M56.95 50.25H54.7167V67H56.95V50.25Z" fill="#105499"/>
<path d="M11.1667 11.1667C7.46632 11.1667 4.46667 14.1663 4.46667 17.8667C4.4703 21.5655 7.46786 24.563 11.1667 24.5667C14.867 24.5667 17.8667 21.567 17.8667 17.8667C17.8667 14.1663 14.867 11.1667 11.1667 11.1667ZM11.1667 22.3333C8.69982 22.3333 6.70001 20.3335 6.70001 17.8667C6.70001 15.3998 8.69982 13.4 11.1667 13.4C13.6335 13.4 15.6333 15.3998 15.6333 17.8667C15.6333 20.3335 13.6335 22.3333 11.1667 22.3333Z" fill="#105499"/>
<path d="M7.81667 25.6833C3.50173 25.6882 0.00488542 29.185 0 33.5V50.25H4.46667V67H6.7V45.7833H4.46667V48.0167H2.23333V33.5C2.23696 30.418 4.73467 27.9203 7.81667 27.9167H17.8667V25.6833H7.81667Z" fill="#105499"/>
<path d="M17.8667 48.0167V45.7833H15.6334V67H17.8667V50.25H22.3334V48.0167H17.8667Z" fill="#105499"/>
<path d="M12.2833 50.25H10.05V67H12.2833V50.25Z" fill="#105499"/>
</g>
<defs>
<clipPath id="clip0">
<rect width="67" height="67" fill="white"/>
</clipPath>
</defs>
</svg>
