<svg width="46" height="46" viewBox="0 0 46 46" fill="none" xmlns="http://www.w3.org/2000/svg">
<path d="M37.1968 13.3643C37.6929 13.3643 38.0952 12.962 38.0952 12.4658V2.69531C38.0952 1.20912 36.8861 0 35.3999 0H2.69678C1.21058 0 0.00146484 1.20912 0.00146484 2.69531V43.3047C0.00146484 44.7909 1.21058 46 2.69678 46H35.3999C36.8861 46 38.0952 44.7909 38.0952 43.3047V36.6857C38.0952 36.1895 37.6929 35.7873 37.1968 35.7873C36.7007 35.7873 36.2983 36.1895 36.2983 36.6857V43.3047C36.2983 43.8001 35.8953 44.2031 35.3999 44.2031H2.69678C2.20138 44.2031 1.79834 43.8001 1.79834 43.3047V2.69531C1.79834 2.19991 2.20138 1.79688 2.69678 1.79688H35.3999C35.8953 1.79688 36.2983 2.19991 36.2983 2.69531V12.4658C36.2983 12.962 36.7007 13.3643 37.1968 13.3643Z" fill="#105499"/>
<path d="M19.0475 4.85156C14.4899 4.85156 10.7819 8.5595 10.7819 13.1172C10.7819 15.4816 11.7801 17.617 13.3768 19.1249C13.4067 19.1569 13.4385 19.1872 13.4733 19.2148C14.9441 20.5606 16.9015 21.3827 19.0475 21.3827C21.1934 21.3827 23.1508 20.5605 24.6216 19.2148C24.6564 19.1872 24.6882 19.1568 24.7181 19.1249C26.315 17.617 27.3132 15.4816 27.3132 13.1172C27.3132 8.5595 23.6052 4.85156 19.0475 4.85156ZM19.0475 19.5859C17.5805 19.5859 16.2265 19.0943 15.1402 18.2681C15.9298 16.8679 17.4033 15.9922 19.0475 15.9922C20.6918 15.9922 22.1653 16.8679 22.9549 18.2681C21.8685 19.0943 20.5146 19.5859 19.0475 19.5859ZM17.61 12.7578V12.1738C17.61 11.3812 18.2549 10.7363 19.0475 10.7363C19.8401 10.7363 20.485 11.3812 20.485 12.1738V12.7578C20.485 13.5504 19.8401 14.1953 19.0475 14.1953C18.2549 14.1953 17.61 13.5504 17.61 12.7578ZM24.2531 16.952C23.5905 15.9693 22.6722 15.205 21.606 14.7331C22.0292 14.1862 22.2819 13.5012 22.2819 12.7578V12.1738C22.2819 10.3903 20.831 8.93945 19.0475 8.93945C17.2641 8.93945 15.8132 10.3903 15.8132 12.1738V12.7578C15.8132 13.5012 16.0659 14.1862 16.4891 14.7331C15.4229 15.205 14.5046 15.9693 13.842 16.952C13.0488 15.8781 12.5788 14.5517 12.5788 13.1172C12.5788 9.5503 15.4807 6.64844 19.0475 6.64844C22.6144 6.64844 25.5163 9.5503 25.5163 13.1172C25.5163 14.5517 25.0463 15.8781 24.2531 16.952Z" fill="#105499"/>
<path d="M23.8991 39.3516H19.0475C18.5514 39.3516 18.1491 39.7538 18.1491 40.25C18.1491 40.7462 18.5514 41.1484 19.0475 41.1484H23.8991C24.3952 41.1484 24.7975 40.7462 24.7975 40.25C24.7975 39.7538 24.3952 39.3516 23.8991 39.3516Z" fill="#105499"/>
<path d="M23.8991 34.3203H11.1413C10.6452 34.3203 10.2429 34.7225 10.2429 35.2188C10.2429 35.715 10.6452 36.1172 11.1413 36.1172H23.8991C24.3952 36.1172 24.7975 35.715 24.7975 35.2188C24.7975 34.7225 24.3952 34.3203 23.8991 34.3203Z" fill="#105499"/>
<path d="M23.8991 29.2891H11.1413C10.6452 29.2891 10.2429 29.6913 10.2429 30.1875C10.2429 30.6837 10.6452 31.0859 11.1413 31.0859H23.8991C24.3952 31.0859 24.7975 30.6837 24.7975 30.1875C24.7975 29.6913 24.3952 29.2891 23.8991 29.2891Z" fill="#105499"/>
<path d="M7.93917 24.5211C7.77215 24.3539 7.54035 24.2578 7.30316 24.2578C7.06678 24.2578 6.83499 24.3539 6.66797 24.5211C6.50086 24.6882 6.40472 24.92 6.40472 25.1562C6.40472 25.3925 6.50077 25.6243 6.66797 25.7914C6.83597 25.9586 7.06678 26.0547 7.30316 26.0547C7.54035 26.0547 7.77125 25.9586 7.93917 25.7914C8.10627 25.6243 8.2025 25.3925 8.2025 25.1562C8.2025 24.92 8.10636 24.6882 7.93917 24.5211Z" fill="#105499"/>
<path d="M7.93917 29.5523C7.77125 29.3852 7.54035 29.2891 7.30316 29.2891C7.06678 29.2891 6.83597 29.3852 6.66797 29.5523C6.50086 29.7194 6.40472 29.9512 6.40472 30.1875C6.40472 30.4238 6.50077 30.6556 6.66797 30.8227C6.83597 30.9898 7.06678 31.0859 7.30316 31.0859C7.54035 31.0859 7.77125 30.9898 7.93917 30.8227C8.10627 30.6556 8.2025 30.4238 8.2025 30.1875C8.2025 29.9512 8.10636 29.7194 7.93917 29.5523Z" fill="#105499"/>
<path d="M7.93917 34.5836C7.77125 34.4164 7.54035 34.3203 7.30316 34.3203C7.06678 34.3203 6.83597 34.4164 6.66797 34.5836C6.50086 34.7507 6.40472 34.9825 6.40472 35.2188C6.40472 35.455 6.50077 35.6868 6.66797 35.8539C6.83499 36.0211 7.06678 36.1172 7.30316 36.1172C7.54035 36.1172 7.77215 36.0211 7.93917 35.8539C8.10627 35.6868 8.2025 35.455 8.2025 35.2188C8.2025 34.9825 8.10636 34.7507 7.93917 34.5836Z" fill="#105499"/>
<path d="M23.8991 24.2578H11.1413C10.6452 24.2578 10.2429 24.66 10.2429 25.1562C10.2429 25.6525 10.6452 26.0547 11.1413 26.0547H23.8991C24.3952 26.0547 24.7975 25.6525 24.7975 25.1562C24.7975 24.66 24.3952 24.2578 23.8991 24.2578Z" fill="#105499"/>
<path d="M44.1134 11.7083C43.2406 11.2044 42.2237 11.0705 41.25 11.3313C40.2764 11.5922 39.4626 12.2167 38.9588 13.0895L27.6527 32.6721C27.5908 32.7795 27.5516 32.8985 27.5378 33.0217L26.742 40.1502C26.7025 40.5049 26.8766 40.8495 27.1856 41.028C27.3252 41.1085 27.4802 41.1484 27.6348 41.1484C27.8227 41.1484 28.01 41.0896 28.1676 40.9734L33.9432 36.7198C34.043 36.6463 34.1265 36.553 34.1884 36.4456L45.4945 16.863C46.5349 15.0611 45.9153 12.7487 44.1134 11.7083ZM28.7556 38.3087L29.1712 34.5863L31.7715 36.0876L28.7556 38.3087ZM33.0816 34.7691L29.6581 32.7925L38.7309 17.0779L42.1544 19.0545L33.0816 34.7691ZM43.9384 15.9645L43.0528 17.4984L39.6293 15.5218L40.5149 13.9879C40.7788 13.5307 41.2051 13.2037 41.715 13.067C42.2251 12.9303 42.7577 13.0005 43.2149 13.2645C43.6721 13.5285 43.9991 13.9547 44.1358 14.4646C44.2724 14.9746 44.2023 15.5073 43.9384 15.9645Z" fill="#105499"/>
</svg>
