<svg width="50" height="50" viewBox="0 0 50 50" fill="none" xmlns="http://www.w3.org/2000/svg">
<path d="M48.0492 35.9111C47.686 36.0892 47.5359 36.5279 47.714 36.8912C48.2588 38.0026 48.5351 39.1988 48.5351 40.4466C48.5351 42.4291 47.8169 44.2463 46.6286 45.6546C46.1267 44.1348 45.0708 42.8303 43.6771 42.0273C44.0249 41.4559 44.2254 40.7853 44.2254 40.0687V38.9068C44.2254 36.8231 42.5302 35.1278 40.4465 35.1278C38.3628 35.1278 36.6676 36.823 36.6676 38.9068V40.0687C36.6676 40.7852 36.868 41.4557 37.2156 42.0271C35.8217 42.8302 34.7659 44.1349 34.2643 45.6546C33.0761 44.2463 32.3579 42.4291 32.3579 40.4466C32.3579 35.9865 35.9864 32.358 40.4465 32.358C42.4144 32.358 44.3108 33.073 45.7867 34.3713C46.0903 34.6384 46.5532 34.6089 46.8204 34.3051C47.0876 34.0014 47.058 33.5386 46.7543 33.2714C45.0108 31.7377 42.7707 30.8931 40.4465 30.8931C37.5058 30.8931 34.8716 32.229 33.1177 34.3254L18.8521 27.1921C19.0181 26.4879 19.1067 25.7541 19.1067 24.9999C19.1067 24.2457 19.0185 23.5117 18.8524 22.8075L33.1175 15.6745C34.8837 17.7916 37.6466 19.1067 40.4464 19.1067C45.6552 19.1067 49.9998 14.8256 49.9998 9.55332C50 4.28564 45.7144 0 40.4466 0C35.1788 0 30.8932 4.28564 30.8932 9.55342C30.8932 10.3077 30.9818 11.0416 31.1479 11.7459L25.4147 14.6126C25.053 14.7936 24.9063 15.2334 25.0872 15.5952C25.2702 15.9611 25.7146 16.101 26.0699 15.9228L31.5998 13.1577C31.7859 13.6127 32.0057 14.0504 32.2568 14.4673L18.4004 21.3959C18.2144 20.9409 17.9945 20.5032 17.7434 20.0862L22.9871 17.4642C23.3488 17.2832 23.4955 16.8434 23.3146 16.4814C23.1339 16.1197 22.694 15.973 22.3319 16.1539L16.8824 18.8788C15.1286 16.7823 12.4942 15.4463 9.55352 15.4463C4.28564 15.4466 0 19.7322 0 25C0 30.2164 4.35684 34.5534 9.55342 34.5534C12.3888 34.5534 15.1362 33.2209 16.8825 31.121L31.1475 38.2539C30.9814 38.9582 30.8932 39.6923 30.8932 40.4466C30.8932 45.6615 35.2521 50 40.4466 50C45.654 50 50 45.7186 50 40.4466C50 38.9734 49.6734 37.5603 49.0294 36.2465C48.8513 35.8833 48.4127 35.7331 48.0492 35.9111ZM40.4466 17.642C38.5742 17.642 36.8498 17.0008 35.4775 15.9287C35.7515 14.3389 36.7938 12.9523 38.2449 12.244C38.8654 12.6905 39.6256 12.9546 40.4466 12.9546C41.2676 12.9546 42.0275 12.6906 42.648 12.2442C44.0989 12.9525 45.1412 14.3389 45.4158 15.9286C44.0435 17.0007 42.319 17.642 40.4466 17.642ZM38.1325 9.17559V8.01367C38.1325 6.7377 39.1706 5.69951 40.4466 5.69951C41.7226 5.69951 42.7606 6.7376 42.7606 8.01367V9.17559C42.7606 10.4516 41.7226 11.4897 40.4466 11.4897C39.1706 11.4897 38.1325 10.4517 38.1325 9.17559ZM40.4466 1.46484C44.9066 1.46484 48.5352 5.09336 48.5352 9.55342C48.5352 11.5359 47.817 13.3531 46.6288 14.7613C46.1269 13.2419 45.0711 11.9372 43.6775 11.1338C44.0252 10.5624 44.2255 9.89189 44.2255 9.17559V8.01367C44.2255 5.92998 42.5303 4.23467 40.4466 4.23467C38.3629 4.23467 36.6677 5.92988 36.6677 8.01367V9.17559C36.6677 9.8918 36.868 10.5622 37.2155 11.1336C35.8217 11.937 34.7659 13.2418 34.2644 14.7613C33.0762 13.353 32.358 11.5359 32.358 9.55342C32.358 5.09336 35.9865 1.46484 40.4466 1.46484ZM9.55342 33.0886C7.68096 33.0886 5.95645 32.4473 4.58408 31.3751C4.85859 29.7851 5.90127 28.3988 7.35264 27.6912C7.97295 28.1373 8.73272 28.4012 9.55342 28.4012C10.3741 28.4012 11.134 28.1373 11.7544 27.6911C13.2062 28.3989 14.2487 29.7854 14.5226 31.3752C13.1502 32.4473 11.4258 33.0886 9.55342 33.0886ZM7.23936 24.6222V23.4603C7.23936 22.1843 8.27744 21.1461 9.55342 21.1461C10.8294 21.1461 11.8675 22.1842 11.8675 23.4603V24.6222C11.8675 25.8981 10.8294 26.9363 9.55342 26.9363C8.27744 26.9363 7.23936 25.8982 7.23936 24.6222ZM15.7357 30.2078C15.2342 28.6883 14.1783 27.3838 12.7842 26.5808C13.1319 26.0093 13.3324 25.3387 13.3324 24.6222V23.4603C13.3324 21.3766 11.6372 19.6812 9.55352 19.6812C7.46982 19.6812 5.77461 21.3765 5.77461 23.4603V24.6222C5.77461 25.3388 5.9751 26.0094 6.32295 26.5809C4.9291 27.3837 3.87314 28.6882 3.37129 30.2077C2.18301 28.7996 1.46484 26.9824 1.46484 25C1.46484 20.5399 5.09336 16.9114 9.55342 16.9114C14.0135 16.9114 17.642 20.5399 17.642 25C17.642 26.9824 16.9239 28.7996 15.7357 30.2078ZM31.5997 36.8423L17.7433 29.9137C17.9944 29.4968 18.2142 29.059 18.4003 28.604L32.2567 35.5326C32.0057 35.9496 31.7857 36.3873 31.5997 36.8423ZM38.1325 38.9068C38.1325 37.6309 39.1706 36.5927 40.4466 36.5927C41.7226 36.5927 42.7606 37.6308 42.7606 38.9068V40.0687C42.7606 41.3447 41.7226 42.3829 40.4466 42.3829C39.1706 42.3829 38.1325 41.3448 38.1325 40.0687V38.9068ZM40.4466 48.5352C38.5742 48.5352 36.8499 47.8939 35.4775 46.8219C35.7516 45.2317 36.7939 43.8454 38.2454 43.1375C38.8658 43.5838 39.6258 43.8477 40.4466 43.8477C41.2674 43.8477 42.0272 43.5838 42.6476 43.1376C44.0985 43.8451 45.141 45.2313 45.4157 46.8217C44.0435 47.8938 42.3189 48.5352 40.4466 48.5352Z" fill="#105499"/>
</svg>
