<svg width="583" height="290" viewBox="0 0 583 290" fill="none" xmlns="http://www.w3.org/2000/svg">
<g clip-path="url(#clip0)">
<path opacity="0.8" d="M123.18 -0.000125025C107.34 -0.0272287 91.6459 3.00424 76.9652 8.92648C76.3741 9.16775 75.7806 9.41018 75.1874 9.6581C52.8765 19.0344 33.8406 34.7604 20.4656 54.8651C7.09048 74.9697 -0.0288031 98.5587 -5.82562e-05 122.676V256.537C0.00154149 257.951 0.566144 259.306 1.56988 260.306C2.57362 261.306 3.93452 261.868 5.35402 261.869L5.46034 261.879C108.655 280.543 208.979 290 303.726 290C305.146 290 306.565 289.998 307.983 289.994C401.117 289.711 491.803 280.254 577.521 261.883L577.646 261.869C579.065 261.868 580.426 261.306 581.43 260.306C582.434 259.306 582.998 257.951 583 256.537V5.3321C582.998 3.9184 582.434 2.56306 581.43 1.56342C580.426 0.563788 579.065 0.00150278 577.646 -8.88642e-05L123.18 -0.000125025Z" fill="#1F76CC"/>
<path d="M443.675 106.758C442.747 106.773 441.862 107.151 441.211 107.81C440.56 108.469 440.195 109.356 440.195 110.281C440.195 111.205 440.56 112.092 441.211 112.751C441.862 113.41 442.747 113.788 443.675 113.803H532.365C532.83 113.812 533.292 113.728 533.725 113.559C534.157 113.389 534.552 113.136 534.886 112.814C535.22 112.492 535.488 112.108 535.673 111.683C535.858 111.258 535.957 110.801 535.965 110.339C535.972 109.876 535.888 109.416 535.717 108.985C535.546 108.555 535.292 108.162 534.968 107.829C534.645 107.497 534.259 107.231 533.832 107.047C533.405 106.863 532.946 106.765 532.482 106.758C532.443 106.757 532.404 106.757 532.365 106.758H443.675Z" fill="#104478"/>
<path d="M552.478 105.777C552.414 105.841 552.362 105.918 552.327 106.002C552.292 106.086 552.274 106.176 552.274 106.267C552.274 106.358 552.292 106.448 552.327 106.532C552.362 106.616 552.414 106.693 552.478 106.757L555.466 109.733H548.098C547.913 109.733 547.736 109.806 547.606 109.936C547.475 110.066 547.402 110.243 547.402 110.426C547.402 110.61 547.475 110.787 547.606 110.917C547.736 111.047 547.913 111.12 548.098 111.12H555.466L552.478 114.095C552.414 114.16 552.362 114.236 552.327 114.32C552.292 114.404 552.274 114.495 552.274 114.586C552.274 114.677 552.292 114.767 552.327 114.851C552.362 114.935 552.414 115.011 552.478 115.076C552.543 115.14 552.62 115.191 552.704 115.226C552.789 115.261 552.879 115.279 552.97 115.279C553.062 115.279 553.152 115.261 553.237 115.226C553.321 115.191 553.398 115.14 553.463 115.076L557.639 110.917C557.769 110.787 557.843 110.61 557.843 110.426C557.843 110.243 557.769 110.066 557.639 109.936L553.463 105.777C553.398 105.713 553.321 105.661 553.237 105.627C553.152 105.592 553.062 105.574 552.97 105.574C552.879 105.574 552.789 105.592 552.704 105.627C552.62 105.661 552.543 105.713 552.478 105.777Z" fill="#FDFDFD"/>
<path d="M423.524 105.777C423.589 105.841 423.64 105.918 423.675 106.002C423.71 106.086 423.728 106.176 423.728 106.267C423.728 106.358 423.71 106.448 423.675 106.532C423.64 106.616 423.589 106.693 423.524 106.757L420.536 109.733H427.904C427.996 109.733 428.087 109.751 428.171 109.785C428.256 109.82 428.333 109.871 428.398 109.935C428.463 110 428.514 110.076 428.549 110.161C428.584 110.245 428.603 110.335 428.603 110.426C428.603 110.518 428.584 110.608 428.549 110.692C428.514 110.776 428.463 110.853 428.398 110.917C428.333 110.982 428.256 111.033 428.171 111.067C428.087 111.102 427.996 111.12 427.904 111.12H420.536L423.524 114.095C423.655 114.225 423.728 114.402 423.728 114.586C423.728 114.769 423.655 114.946 423.524 115.076C423.394 115.206 423.217 115.279 423.032 115.279C422.847 115.279 422.67 115.206 422.54 115.076L418.363 110.917C418.233 110.787 418.16 110.61 418.16 110.426C418.16 110.243 418.233 110.066 418.363 109.936L422.54 105.777C422.604 105.713 422.681 105.661 422.766 105.627C422.85 105.592 422.941 105.574 423.032 105.574C423.123 105.574 423.214 105.592 423.298 105.627C423.383 105.661 423.46 105.713 423.524 105.777Z" fill="#FDFDFD"/>
<path opacity="0.6" d="M447.256 33.64C449.356 33.64 451.058 31.9451 451.058 29.8542C451.058 27.7634 449.356 26.0685 447.256 26.0685C445.157 26.0685 443.455 27.7634 443.455 29.8542C443.455 31.9451 445.157 33.64 447.256 33.64Z" fill="#9ED4CC"/>
<path opacity="0.6" d="M463.095 33.64C465.194 33.64 466.896 31.9451 466.896 29.8542C466.896 27.7634 465.194 26.0685 463.095 26.0685C460.996 26.0685 459.294 27.7634 459.294 29.8542C459.294 31.9451 460.996 33.64 463.095 33.64Z" fill="#9ED4CC"/>
<path opacity="0.6" d="M478.934 33.64C481.033 33.64 482.735 31.9451 482.735 29.8542C482.735 27.7634 481.033 26.0685 478.934 26.0685C476.835 26.0685 475.133 27.7634 475.133 29.8542C475.133 31.9451 476.835 33.64 478.934 33.64Z" fill="#9ED4CC"/>
<path opacity="0.6" d="M494.773 33.64C496.872 33.64 498.574 31.9451 498.574 29.8542C498.574 27.7634 496.872 26.0685 494.773 26.0685C492.673 26.0685 490.972 27.7634 490.972 29.8542C490.972 31.9451 492.673 33.64 494.773 33.64Z" fill="#9ED4CC"/>
<path opacity="0.6" d="M510.612 33.64C512.711 33.64 514.413 31.9451 514.413 29.8542C514.413 27.7634 512.711 26.0685 510.612 26.0685C508.512 26.0685 506.81 27.7634 506.81 29.8542C506.81 31.9451 508.512 33.64 510.612 33.64Z" fill="#9ED4CC"/>
<path opacity="0.6" d="M526.451 33.64C528.55 33.64 530.252 31.9451 530.252 29.8542C530.252 27.7634 528.55 26.0685 526.451 26.0685C524.351 26.0685 522.649 27.7634 522.649 29.8542C522.649 31.9451 524.351 33.64 526.451 33.64Z" fill="#9ED4CC"/>
<path opacity="0.6" d="M542.29 33.64C544.389 33.64 546.091 31.9451 546.091 29.8542C546.091 27.7634 544.389 26.0685 542.29 26.0685C540.19 26.0685 538.488 27.7634 538.488 29.8542C538.488 31.9451 540.19 33.64 542.29 33.64Z" fill="#9ED4CC"/>
<path opacity="0.6" d="M447.256 45.6284C449.356 45.6284 451.058 43.9334 451.058 41.8426C451.058 39.7517 449.356 38.0568 447.256 38.0568C445.157 38.0568 443.455 39.7517 443.455 41.8426C443.455 43.9334 445.157 45.6284 447.256 45.6284Z" fill="#9ED4CC"/>
<path opacity="0.6" d="M463.095 45.6284C465.194 45.6284 466.896 43.9334 466.896 41.8426C466.896 39.7517 465.194 38.0568 463.095 38.0568C460.996 38.0568 459.294 39.7517 459.294 41.8426C459.294 43.9334 460.996 45.6284 463.095 45.6284Z" fill="#9ED4CC"/>
<path opacity="0.6" d="M478.934 45.6284C481.033 45.6284 482.735 43.9334 482.735 41.8426C482.735 39.7517 481.033 38.0568 478.934 38.0568C476.835 38.0568 475.133 39.7517 475.133 41.8426C475.133 43.9334 476.835 45.6284 478.934 45.6284Z" fill="#9ED4CC"/>
<path opacity="0.6" d="M494.773 45.6284C496.872 45.6284 498.574 43.9334 498.574 41.8426C498.574 39.7517 496.872 38.0568 494.773 38.0568C492.673 38.0568 490.972 39.7517 490.972 41.8426C490.972 43.9334 492.673 45.6284 494.773 45.6284Z" fill="#9ED4CC"/>
<path opacity="0.6" d="M510.612 45.6284C512.711 45.6284 514.413 43.9334 514.413 41.8426C514.413 39.7517 512.711 38.0568 510.612 38.0568C508.512 38.0568 506.81 39.7517 506.81 41.8426C506.81 43.9334 508.512 45.6284 510.612 45.6284Z" fill="#9ED4CC"/>
<path opacity="0.6" d="M526.451 45.6284C528.55 45.6284 530.252 43.9334 530.252 41.8426C530.252 39.7517 528.55 38.0568 526.451 38.0568C524.351 38.0568 522.649 39.7517 522.649 41.8426C522.649 43.9334 524.351 45.6284 526.451 45.6284Z" fill="#9ED4CC"/>
<path opacity="0.6" d="M542.29 45.6284C544.389 45.6284 546.091 43.9334 546.091 41.8426C546.091 39.7517 544.389 38.0568 542.29 38.0568C540.19 38.0568 538.488 39.7517 538.488 41.8426C538.488 43.9334 540.19 45.6284 542.29 45.6284Z" fill="#9ED4CC"/>
<path opacity="0.6" d="M447.256 57.6167C449.356 57.6167 451.058 55.9218 451.058 53.8309C451.058 51.7401 449.356 50.0451 447.256 50.0451C445.157 50.0451 443.455 51.7401 443.455 53.8309C443.455 55.9218 445.157 57.6167 447.256 57.6167Z" fill="#9ED4CC"/>
<path opacity="0.6" d="M463.095 57.6167C465.194 57.6167 466.896 55.9218 466.896 53.8309C466.896 51.7401 465.194 50.0451 463.095 50.0451C460.996 50.0451 459.294 51.7401 459.294 53.8309C459.294 55.9218 460.996 57.6167 463.095 57.6167Z" fill="#9ED4CC"/>
<path opacity="0.6" d="M478.934 57.6167C481.033 57.6167 482.735 55.9218 482.735 53.8309C482.735 51.7401 481.033 50.0451 478.934 50.0451C476.835 50.0451 475.133 51.7401 475.133 53.8309C475.133 55.9218 476.835 57.6167 478.934 57.6167Z" fill="#9ED4CC"/>
<path opacity="0.6" d="M494.773 57.6167C496.872 57.6167 498.574 55.9218 498.574 53.8309C498.574 51.7401 496.872 50.0451 494.773 50.0451C492.673 50.0451 490.972 51.7401 490.972 53.8309C490.972 55.9218 492.673 57.6167 494.773 57.6167Z" fill="#9ED4CC"/>
<path opacity="0.6" d="M510.612 57.6167C512.711 57.6167 514.413 55.9218 514.413 53.8309C514.413 51.7401 512.711 50.0451 510.612 50.0451C508.512 50.0451 506.81 51.7401 506.81 53.8309C506.81 55.9218 508.512 57.6167 510.612 57.6167Z" fill="#9ED4CC"/>
<path opacity="0.6" d="M526.451 57.6167C528.55 57.6167 530.252 55.9218 530.252 53.8309C530.252 51.7401 528.55 50.0451 526.451 50.0451C524.351 50.0451 522.649 51.7401 522.649 53.8309C522.649 55.9218 524.351 57.6167 526.451 57.6167Z" fill="#9ED4CC"/>
<path opacity="0.6" d="M542.29 57.6167C544.389 57.6167 546.091 55.9218 546.091 53.8309C546.091 51.7401 544.389 50.0451 542.29 50.0451C540.19 50.0451 538.488 51.7401 538.488 53.8309C538.488 55.9218 540.19 57.6167 542.29 57.6167Z" fill="#9ED4CC"/>
<path opacity="0.6" d="M447.256 69.6051C449.356 69.6051 451.058 67.9101 451.058 65.8193C451.058 63.7284 449.356 62.0335 447.256 62.0335C445.157 62.0335 443.455 63.7284 443.455 65.8193C443.455 67.9101 445.157 69.6051 447.256 69.6051Z" fill="#9ED4CC"/>
<path opacity="0.6" d="M463.095 69.6051C465.194 69.6051 466.896 67.9101 466.896 65.8193C466.896 63.7284 465.194 62.0335 463.095 62.0335C460.996 62.0335 459.294 63.7284 459.294 65.8193C459.294 67.9101 460.996 69.6051 463.095 69.6051Z" fill="#9ED4CC"/>
<path opacity="0.6" d="M447.256 81.5934C449.356 81.5934 451.058 79.8984 451.058 77.8076C451.058 75.7168 449.356 74.0218 447.256 74.0218C445.157 74.0218 443.455 75.7168 443.455 77.8076C443.455 79.8984 445.157 81.5934 447.256 81.5934Z" fill="#9ED4CC"/>
<path opacity="0.6" d="M463.095 81.5934C465.194 81.5934 466.896 79.8984 466.896 77.8076C466.896 75.7168 465.194 74.0218 463.095 74.0218C460.996 74.0218 459.294 75.7168 459.294 77.8076C459.294 79.8984 460.996 81.5934 463.095 81.5934Z" fill="#9ED4CC"/>
<path opacity="0.6" d="M478.934 81.5934C481.033 81.5934 482.735 79.8984 482.735 77.8076C482.735 75.7168 481.033 74.0218 478.934 74.0218C476.835 74.0218 475.133 75.7168 475.133 77.8076C475.133 79.8984 476.835 81.5934 478.934 81.5934Z" fill="#9ED4CC"/>
<path opacity="0.6" d="M478.934 69.6051C481.033 69.6051 482.735 67.9101 482.735 65.8193C482.735 63.7284 481.033 62.0335 478.934 62.0335C476.835 62.0335 475.133 63.7284 475.133 65.8193C475.133 67.9101 476.835 69.6051 478.934 69.6051Z" fill="#9ED4CC"/>
<path opacity="0.6" d="M494.773 69.6051C496.872 69.6051 498.574 67.9101 498.574 65.8193C498.574 63.7284 496.872 62.0335 494.773 62.0335C492.673 62.0335 490.972 63.7284 490.972 65.8193C490.972 67.9101 492.673 69.6051 494.773 69.6051Z" fill="#9ED4CC"/>
<path opacity="0.6" d="M510.612 69.6051C512.711 69.6051 514.413 67.9101 514.413 65.8193C514.413 63.7284 512.711 62.0335 510.612 62.0335C508.512 62.0335 506.81 63.7284 506.81 65.8193C506.81 67.9101 508.512 69.6051 510.612 69.6051Z" fill="#9ED4CC"/>
<path opacity="0.6" d="M526.451 69.6051C528.55 69.6051 530.252 67.9101 530.252 65.8193C530.252 63.7284 528.55 62.0335 526.451 62.0335C524.351 62.0335 522.649 63.7284 522.649 65.8193C522.649 67.9101 524.351 69.6051 526.451 69.6051Z" fill="#9ED4CC"/>
<path opacity="0.6" d="M542.29 69.6051C544.389 69.6051 546.091 67.9101 546.091 65.8193C546.091 63.7284 544.389 62.0335 542.29 62.0335C540.19 62.0335 538.488 63.7284 538.488 65.8193C538.488 67.9101 540.19 69.6051 542.29 69.6051Z" fill="#9ED4CC"/>
<path d="M392.726 222.446C388.576 222.446 384.519 221.221 381.068 218.924C377.618 216.628 374.928 213.364 373.34 209.546C371.752 205.727 371.336 201.525 372.146 197.472C372.955 193.418 374.954 189.694 377.889 186.772C380.823 183.849 384.562 181.859 388.632 181.052C392.703 180.246 396.922 180.66 400.756 182.242C404.59 183.823 407.868 186.502 410.173 189.938C412.479 193.375 413.71 197.415 413.71 201.549C413.703 207.089 411.491 212.401 407.557 216.319C403.623 220.236 398.289 222.44 392.726 222.446ZM392.726 181.836C388.811 181.836 384.984 182.992 381.729 185.158C378.474 187.324 375.937 190.403 374.439 194.005C372.941 197.607 372.549 201.57 373.313 205.394C374.076 209.218 375.962 212.731 378.73 215.488C381.498 218.244 385.025 220.122 388.865 220.883C392.704 221.643 396.684 221.253 400.301 219.761C403.918 218.269 407.009 215.742 409.184 212.5C411.359 209.259 412.52 205.447 412.52 201.549C412.514 196.322 410.427 191.312 406.716 187.616C403.005 183.92 397.974 181.842 392.726 181.836Z" fill="#104478"/>
<path d="M400.771 199.546H394.738V193.537C394.738 193.005 394.526 192.496 394.149 192.12C393.771 191.745 393.26 191.534 392.726 191.534C392.193 191.534 391.681 191.745 391.304 192.12C390.927 192.496 390.715 193.005 390.715 193.537V199.546H384.681C384.148 199.546 383.637 199.757 383.259 200.132C382.882 200.508 382.67 201.017 382.67 201.549C382.67 202.08 382.882 202.589 383.259 202.965C383.637 203.34 384.148 203.552 384.681 203.552H390.715V209.561C390.715 210.092 390.927 210.601 391.304 210.977C391.681 211.352 392.193 211.564 392.726 211.564C393.26 211.564 393.771 211.352 394.149 210.977C394.526 210.601 394.738 210.092 394.738 209.561V203.552H400.771C401.305 203.552 401.816 203.34 402.193 202.965C402.571 202.589 402.782 202.08 402.782 201.549C402.782 201.017 402.571 200.508 402.193 200.132C401.816 199.757 401.305 199.546 400.771 199.546Z" fill="#FDFDFD"/>
<path opacity="0.6" d="M32.1387 225.012C33.7893 225.012 35.1274 223.679 35.1274 222.035C35.1274 220.392 33.7893 219.059 32.1387 219.059C30.4881 219.059 29.15 220.392 29.15 222.035C29.15 223.679 30.4881 225.012 32.1387 225.012Z" fill="#9ED4CC"/>
<path opacity="0.6" d="M32.1387 212.61C33.7893 212.61 35.1274 211.277 35.1274 209.633C35.1274 207.99 33.7893 206.657 32.1387 206.657C30.4881 206.657 29.15 207.99 29.15 209.633C29.15 211.277 30.4881 212.61 32.1387 212.61Z" fill="#9ED4CC"/>
<path opacity="0.6" d="M32.1387 200.208C33.7893 200.208 35.1274 198.875 35.1274 197.231C35.1274 195.587 33.7893 194.255 32.1387 194.255C30.4881 194.255 29.15 195.587 29.15 197.231C29.15 198.875 30.4881 200.208 32.1387 200.208Z" fill="#9ED4CC"/>
<path opacity="0.6" d="M32.1387 187.806C33.7893 187.806 35.1274 186.473 35.1274 184.829C35.1274 183.185 33.7893 181.853 32.1387 181.853C30.4881 181.853 29.15 183.185 29.15 184.829C29.15 186.473 30.4881 187.806 32.1387 187.806Z" fill="#9ED4CC"/>
<path opacity="0.6" d="M32.1387 175.404C33.7893 175.404 35.1274 174.071 35.1274 172.427C35.1274 170.783 33.7893 169.451 32.1387 169.451C30.4881 169.451 29.15 170.783 29.15 172.427C29.15 174.071 30.4881 175.404 32.1387 175.404Z" fill="#9ED4CC"/>
<path opacity="0.6" d="M32.1387 163.002C33.7893 163.002 35.1274 161.669 35.1274 160.025C35.1274 158.381 33.7893 157.049 32.1387 157.049C30.4881 157.049 29.15 158.381 29.15 160.025C29.15 161.669 30.4881 163.002 32.1387 163.002Z" fill="#9ED4CC"/>
<path opacity="0.6" d="M32.1387 150.6C33.7893 150.6 35.1274 149.267 35.1274 147.623C35.1274 145.979 33.7893 144.647 32.1387 144.647C30.4881 144.647 29.15 145.979 29.15 147.623C29.15 149.267 30.4881 150.6 32.1387 150.6Z" fill="#9ED4CC"/>
<path opacity="0.6" d="M41.603 225.012C43.2536 225.012 44.5917 223.679 44.5917 222.035C44.5917 220.392 43.2536 219.059 41.603 219.059C39.9523 219.059 38.6143 220.392 38.6143 222.035C38.6143 223.679 39.9523 225.012 41.603 225.012Z" fill="#9ED4CC"/>
<path opacity="0.6" d="M41.603 212.61C43.2536 212.61 44.5917 211.277 44.5917 209.633C44.5917 207.99 43.2536 206.657 41.603 206.657C39.9523 206.657 38.6143 207.99 38.6143 209.633C38.6143 211.277 39.9523 212.61 41.603 212.61Z" fill="#9ED4CC"/>
<path opacity="0.6" d="M41.603 200.208C43.2536 200.208 44.5917 198.875 44.5917 197.231C44.5917 195.587 43.2536 194.255 41.603 194.255C39.9523 194.255 38.6143 195.587 38.6143 197.231C38.6143 198.875 39.9523 200.208 41.603 200.208Z" fill="#9ED4CC"/>
<path opacity="0.6" d="M41.603 187.806C43.2536 187.806 44.5917 186.473 44.5917 184.829C44.5917 183.185 43.2536 181.853 41.603 181.853C39.9523 181.853 38.6143 183.185 38.6143 184.829C38.6143 186.473 39.9523 187.806 41.603 187.806Z" fill="#9ED4CC"/>
<path opacity="0.6" d="M41.603 175.404C43.2536 175.404 44.5917 174.071 44.5917 172.427C44.5917 170.783 43.2536 169.451 41.603 169.451C39.9523 169.451 38.6143 170.783 38.6143 172.427C38.6143 174.071 39.9523 175.404 41.603 175.404Z" fill="#9ED4CC"/>
<path opacity="0.6" d="M41.603 163.002C43.2536 163.002 44.5917 161.669 44.5917 160.025C44.5917 158.381 43.2536 157.049 41.603 157.049C39.9523 157.049 38.6143 158.381 38.6143 160.025C38.6143 161.669 39.9523 163.002 41.603 163.002Z" fill="#9ED4CC"/>
<path opacity="0.6" d="M41.603 150.6C43.2536 150.6 44.5917 149.267 44.5917 147.623C44.5917 145.979 43.2536 144.647 41.603 144.647C39.9523 144.647 38.6143 145.979 38.6143 147.623C38.6143 149.267 39.9523 150.6 41.603 150.6Z" fill="#9ED4CC"/>
<path opacity="0.6" d="M51.0672 225.012C52.7178 225.012 54.0559 223.679 54.0559 222.035C54.0559 220.392 52.7178 219.059 51.0672 219.059C49.4166 219.059 48.0785 220.392 48.0785 222.035C48.0785 223.679 49.4166 225.012 51.0672 225.012Z" fill="#9ED4CC"/>
<path opacity="0.6" d="M51.0672 212.61C52.7178 212.61 54.0559 211.277 54.0559 209.633C54.0559 207.99 52.7178 206.657 51.0672 206.657C49.4166 206.657 48.0785 207.99 48.0785 209.633C48.0785 211.277 49.4166 212.61 51.0672 212.61Z" fill="#9ED4CC"/>
<path opacity="0.6" d="M51.0672 200.208C52.7178 200.208 54.0559 198.875 54.0559 197.231C54.0559 195.587 52.7178 194.255 51.0672 194.255C49.4166 194.255 48.0785 195.587 48.0785 197.231C48.0785 198.875 49.4166 200.208 51.0672 200.208Z" fill="#9ED4CC"/>
<path opacity="0.6" d="M51.0672 187.806C52.7178 187.806 54.0559 186.473 54.0559 184.829C54.0559 183.185 52.7178 181.853 51.0672 181.853C49.4166 181.853 48.0785 183.185 48.0785 184.829C48.0785 186.473 49.4166 187.806 51.0672 187.806Z" fill="#9ED4CC"/>
<path opacity="0.6" d="M51.0672 175.404C52.7178 175.404 54.0559 174.071 54.0559 172.427C54.0559 170.783 52.7178 169.451 51.0672 169.451C49.4166 169.451 48.0785 170.783 48.0785 172.427C48.0785 174.071 49.4166 175.404 51.0672 175.404Z" fill="#9ED4CC"/>
<path opacity="0.6" d="M51.0672 163.002C52.7178 163.002 54.0559 161.669 54.0559 160.025C54.0559 158.381 52.7178 157.049 51.0672 157.049C49.4166 157.049 48.0785 158.381 48.0785 160.025C48.0785 161.669 49.4166 163.002 51.0672 163.002Z" fill="#9ED4CC"/>
<path opacity="0.6" d="M51.0672 150.6C52.7178 150.6 54.0559 149.267 54.0559 147.623C54.0559 145.979 52.7178 144.647 51.0672 144.647C49.4166 144.647 48.0785 145.979 48.0785 147.623C48.0785 149.267 49.4166 150.6 51.0672 150.6Z" fill="#9ED4CC"/>
<path opacity="0.6" d="M60.5315 225.012C62.1821 225.012 63.5202 223.679 63.5202 222.035C63.5202 220.392 62.1821 219.059 60.5315 219.059C58.8809 219.059 57.5428 220.392 57.5428 222.035C57.5428 223.679 58.8809 225.012 60.5315 225.012Z" fill="#9ED4CC"/>
<path opacity="0.6" d="M60.5315 212.61C62.1821 212.61 63.5202 211.277 63.5202 209.633C63.5202 207.99 62.1821 206.657 60.5315 206.657C58.8809 206.657 57.5428 207.99 57.5428 209.633C57.5428 211.277 58.8809 212.61 60.5315 212.61Z" fill="#9ED4CC"/>
<path opacity="0.6" d="M69.9957 225.012C71.6464 225.012 72.9845 223.679 72.9845 222.035C72.9845 220.392 71.6464 219.059 69.9957 219.059C68.3451 219.059 67.007 220.392 67.007 222.035C67.007 223.679 68.3451 225.012 69.9957 225.012Z" fill="#9ED4CC"/>
<path opacity="0.6" d="M69.9957 212.61C71.6464 212.61 72.9845 211.277 72.9845 209.633C72.9845 207.99 71.6464 206.657 69.9957 206.657C68.3451 206.657 67.007 207.99 67.007 209.633C67.007 211.277 68.3451 212.61 69.9957 212.61Z" fill="#9ED4CC"/>
<path opacity="0.6" d="M69.9957 200.208C71.6464 200.208 72.9845 198.875 72.9845 197.231C72.9845 195.587 71.6464 194.255 69.9957 194.255C68.3451 194.255 67.007 195.587 67.007 197.231C67.007 198.875 68.3451 200.208 69.9957 200.208Z" fill="#9ED4CC"/>
<path opacity="0.6" d="M60.5315 200.208C62.1821 200.208 63.5202 198.875 63.5202 197.231C63.5202 195.587 62.1821 194.255 60.5315 194.255C58.8809 194.255 57.5428 195.587 57.5428 197.231C57.5428 198.875 58.8809 200.208 60.5315 200.208Z" fill="#9ED4CC"/>
<path opacity="0.6" d="M60.5315 187.806C62.1821 187.806 63.5202 186.473 63.5202 184.829C63.5202 183.185 62.1821 181.853 60.5315 181.853C58.8809 181.853 57.5428 183.185 57.5428 184.829C57.5428 186.473 58.8809 187.806 60.5315 187.806Z" fill="#9ED4CC"/>
<path opacity="0.6" d="M60.5315 175.404C62.1821 175.404 63.5202 174.071 63.5202 172.427C63.5202 170.783 62.1821 169.451 60.5315 169.451C58.8809 169.451 57.5428 170.783 57.5428 172.427C57.5428 174.071 58.8809 175.404 60.5315 175.404Z" fill="#9ED4CC"/>
<path opacity="0.6" d="M60.5315 163.002C62.1821 163.002 63.5202 161.669 63.5202 160.025C63.5202 158.381 62.1821 157.049 60.5315 157.049C58.8809 157.049 57.5428 158.381 57.5428 160.025C57.5428 161.669 58.8809 163.002 60.5315 163.002Z" fill="#9ED4CC"/>
<path opacity="0.6" d="M60.5315 150.6C62.1821 150.6 63.5202 149.267 63.5202 147.623C63.5202 145.979 62.1821 144.647 60.5315 144.647C58.8809 144.647 57.5428 145.979 57.5428 147.623C57.5428 149.267 58.8809 150.6 60.5315 150.6Z" fill="#9ED4CC"/>
<path d="M295.907 19.5526H97.3648C96.3896 19.5536 95.4547 19.9399 94.7652 20.6266C94.0757 21.3133 93.6879 22.2443 93.6869 23.2155V192.295C93.6879 193.266 94.0757 194.197 94.7652 194.884C95.4547 195.571 96.3896 195.957 97.3648 195.958H295.907C296.882 195.957 297.817 195.571 298.507 194.884C299.196 194.197 299.584 193.266 299.585 192.295V23.2155C299.584 22.2443 299.196 21.3132 298.507 20.6265C297.817 19.9398 296.882 19.5536 295.907 19.5526ZM298.111 192.295C298.111 192.878 297.879 193.437 297.466 193.849C297.053 194.262 296.492 194.495 295.907 194.497H97.3648C96.7793 194.496 96.2183 194.263 95.8049 193.85C95.3916 193.438 95.1599 192.878 95.1608 192.295V23.2155C95.1599 22.6324 95.3916 22.0729 95.8049 21.66C96.2183 21.2471 96.7793 21.0146 97.3648 21.0136H295.907C296.492 21.0157 297.053 21.2486 297.466 21.6613C297.879 22.0739 298.111 22.6328 298.111 23.2155V192.295Z" fill="#104478"/>
<path d="M143.193 165.894C143.193 166.155 143.187 166.415 143.173 166.669C142.973 170.485 141.309 174.079 138.527 176.709C135.744 179.339 132.053 180.806 128.217 180.806C124.38 180.806 120.69 179.339 117.907 176.709C115.124 174.079 113.461 170.485 113.261 166.669C113.247 166.415 113.24 166.155 113.24 165.894C113.239 163.934 113.625 161.994 114.378 160.183C115.13 158.372 116.233 156.727 117.623 155.341C119.014 153.955 120.666 152.856 122.483 152.105C124.301 151.355 126.249 150.969 128.217 150.969C130.184 150.969 132.133 151.355 133.95 152.105C135.768 152.856 137.419 153.955 138.81 155.341C140.201 156.727 141.304 158.372 142.056 160.183C142.808 161.994 143.195 163.934 143.193 165.894Z" fill="#FDFDFD"/>
<path d="M280.48 155.948H162.802C162.14 155.949 161.506 156.212 161.039 156.678C160.571 157.144 160.309 157.776 160.309 158.435C160.309 159.093 160.571 159.725 161.039 160.191C161.506 160.658 162.14 160.92 162.802 160.921H280.48C281.141 160.92 281.775 160.658 282.242 160.191C282.71 159.725 282.972 159.093 282.972 158.435C282.972 157.776 282.71 157.144 282.242 156.678C281.775 156.212 281.141 155.949 280.48 155.948Z" fill="#104478"/>
<path d="M213.438 170.867H162.802C162.141 170.867 161.506 171.128 161.039 171.594C160.571 172.06 160.309 172.691 160.309 173.35C160.309 174.008 160.571 174.64 161.039 175.106C161.506 175.571 162.141 175.833 162.802 175.833H213.438C214.099 175.833 214.733 175.571 215.201 175.106C215.668 174.64 215.931 174.008 215.931 173.35C215.931 172.691 215.668 172.06 215.201 171.594C214.733 171.128 214.099 170.867 213.438 170.867Z" fill="#FDFDFD"/>
<path d="M343.077 138.389H144.535C143.187 138.387 141.894 137.853 140.941 136.903C139.987 135.953 139.451 134.666 139.45 133.323V46.5495C139.451 45.2067 139.987 43.9193 140.941 42.9697C141.894 42.0201 143.187 41.486 144.535 41.4844H343.077C344.425 41.486 345.718 42.0201 346.671 42.9697C347.625 43.9193 348.161 45.2067 348.162 46.5495V133.323C348.161 134.666 347.625 135.953 346.671 136.903C345.718 137.853 344.425 138.387 343.077 138.389ZM144.535 43.2618C143.66 43.2628 142.821 43.6095 142.202 44.2259C141.583 44.8422 141.235 45.6779 141.234 46.5495V133.323C141.235 134.195 141.583 135.03 142.202 135.647C142.821 136.263 143.66 136.61 144.535 136.611H343.077C343.952 136.61 344.791 136.263 345.41 135.647C346.029 135.03 346.377 134.195 346.378 133.323V46.5495C346.377 45.6779 346.029 44.8422 345.41 44.2259C344.791 43.6095 343.952 43.2628 343.077 43.2618H144.535Z" fill="#FDFDFD"/>
<path d="M184.968 73.1335C184.306 73.1335 183.671 73.3954 183.203 73.8617C182.735 74.3279 182.472 74.9602 182.472 75.6195C182.472 76.2788 182.735 76.9111 183.203 77.3773C183.671 77.8435 184.306 78.1054 184.968 78.1054H302.643C303.305 78.1054 303.94 77.8435 304.408 77.3773C304.877 76.9111 305.14 76.2788 305.14 75.6195C305.14 74.9602 304.877 74.3279 304.408 73.8617C303.94 73.3954 303.305 73.1335 302.643 73.1335H184.968Z" fill="#FDFDFD"/>
<path d="M184.968 87.5379C184.306 87.5379 183.671 87.7998 183.203 88.266C182.735 88.7322 182.472 89.3645 182.472 90.0238C182.472 90.6831 182.735 91.3154 183.203 91.7817C183.671 92.2479 184.306 92.5098 184.968 92.5098H302.643C303.305 92.5087 303.939 92.2464 304.406 91.7803C304.873 91.3142 305.136 90.6825 305.136 90.0238C305.136 89.3652 304.873 88.7335 304.406 88.2674C303.939 87.8013 303.305 87.5389 302.643 87.5379H184.968Z" fill="#FDFDFD"/>
<path d="M184.968 101.768C184.306 101.768 183.671 102.029 183.203 102.496C182.735 102.962 182.472 103.594 182.472 104.253C182.472 104.913 182.735 105.545 183.203 106.011C183.671 106.477 184.306 106.739 184.968 106.739H235.604C236.266 106.738 236.899 106.476 237.367 106.01C237.834 105.544 238.096 104.912 238.096 104.253C238.096 103.595 237.834 102.963 237.367 102.497C236.899 102.031 236.266 101.769 235.604 101.768H184.968Z" fill="#FDFDFD"/>
<path d="M375.811 175.152L355.87 147.124L362.326 148.464C362.44 148.488 362.559 148.489 362.674 148.467C362.789 148.445 362.899 148.401 362.997 148.337C363.095 148.273 363.18 148.19 363.246 148.094C363.312 147.997 363.358 147.889 363.382 147.774C363.406 147.66 363.407 147.542 363.385 147.427C363.363 147.313 363.319 147.203 363.255 147.106C363.19 147.008 363.107 146.924 363.01 146.858C362.913 146.792 362.805 146.746 362.69 146.722L353.07 144.728L351.771 154.427C351.756 154.543 351.763 154.661 351.793 154.774C351.823 154.887 351.875 154.993 351.946 155.086C352.017 155.179 352.106 155.258 352.208 155.316C352.31 155.375 352.422 155.413 352.538 155.429C352.655 155.444 352.773 155.437 352.887 155.406C353 155.376 353.107 155.324 353.2 155.253C353.293 155.181 353.371 155.093 353.43 154.991C353.489 154.89 353.527 154.778 353.542 154.662L354.412 148.149L374.355 176.18C374.423 176.275 374.509 176.356 374.608 176.418C374.707 176.48 374.818 176.522 374.933 176.542C375.049 176.561 375.167 176.558 375.281 176.532C375.395 176.506 375.503 176.458 375.599 176.391C375.695 176.323 375.776 176.238 375.838 176.139C375.901 176.04 375.943 175.93 375.963 175.815C375.982 175.7 375.979 175.582 375.953 175.469C375.927 175.355 375.879 175.247 375.811 175.152V175.152Z" fill="#FDFDFD"/>
<path d="M267.505 256.727H125.767C125.071 256.726 124.404 256.451 123.912 255.961C123.419 255.471 123.143 254.806 123.142 254.113V219.098C123.143 218.405 123.419 217.74 123.912 217.25C124.404 216.76 125.071 216.484 125.767 216.484H267.505C268.201 216.484 268.868 216.76 269.36 217.25C269.852 217.74 270.129 218.405 270.13 219.098V254.113C270.129 254.806 269.852 255.471 269.36 255.961C268.868 256.451 268.201 256.726 267.505 256.727ZM125.767 217.529C125.349 217.53 124.949 217.695 124.654 217.989C124.358 218.283 124.192 218.682 124.192 219.098V254.113C124.192 254.529 124.358 254.928 124.654 255.222C124.949 255.516 125.349 255.681 125.767 255.682H267.505C267.923 255.681 268.323 255.516 268.618 255.222C268.914 254.928 269.08 254.529 269.08 254.113V219.098C269.08 218.682 268.914 218.283 268.618 217.989C268.323 217.695 267.923 217.53 267.505 217.529H125.767Z" fill="#104478"/>
<path d="M147.79 245.91C153.695 245.91 158.482 241.143 158.482 235.262C158.482 229.381 153.695 224.614 147.79 224.614C141.885 224.614 137.098 229.381 137.098 235.262C137.098 241.143 141.885 245.91 147.79 245.91Z" fill="#FDFDFD"/>
<path d="M172.483 228.163C172.249 228.163 172.017 228.208 171.8 228.297C171.584 228.386 171.387 228.517 171.221 228.682C171.055 228.847 170.924 229.042 170.834 229.258C170.744 229.473 170.698 229.704 170.698 229.938C170.698 230.171 170.744 230.402 170.834 230.618C170.924 230.833 171.055 231.029 171.221 231.194C171.387 231.359 171.584 231.489 171.8 231.578C172.017 231.667 172.249 231.713 172.483 231.712H256.492C256.965 231.712 257.418 231.525 257.752 231.193C258.086 230.86 258.274 230.408 258.274 229.938C258.274 229.467 258.086 229.016 257.752 228.683C257.418 228.35 256.965 228.163 256.492 228.163H172.483Z" fill="#FDFDFD"/>
<path d="M172.483 238.811C172.249 238.811 172.017 238.856 171.8 238.945C171.584 239.034 171.387 239.165 171.221 239.33C171.055 239.495 170.924 239.691 170.834 239.906C170.744 240.122 170.698 240.353 170.698 240.586C170.698 240.819 170.744 241.05 170.834 241.266C170.924 241.481 171.055 241.677 171.221 241.842C171.387 242.007 171.584 242.138 171.8 242.227C172.017 242.316 172.249 242.361 172.483 242.361H208.633C209.105 242.361 209.558 242.174 209.893 241.841C210.227 241.508 210.415 241.057 210.415 240.586C210.415 240.115 210.227 239.664 209.893 239.331C209.558 238.998 209.105 238.811 208.633 238.811H172.483Z" fill="#FDFDFD"/>
<path d="M454.517 131.975H517.512C518.208 131.976 518.875 132.251 519.367 132.742C519.859 133.232 520.136 133.896 520.137 134.589V199.928C520.136 200.621 519.859 201.285 519.367 201.775C518.875 202.265 518.208 202.541 517.512 202.542H454.517C453.821 202.541 453.154 202.265 452.662 201.775C452.169 201.285 451.893 200.621 451.892 199.928V134.589C451.893 133.896 452.169 133.232 452.662 132.742C453.154 132.251 453.821 131.976 454.517 131.975ZM517.512 201.496C517.929 201.496 518.33 201.33 518.625 201.036C518.92 200.742 519.086 200.343 519.087 199.928V134.589C519.086 134.173 518.92 133.775 518.625 133.481C518.33 133.186 517.929 133.021 517.512 133.021H454.517C454.099 133.021 453.699 133.186 453.404 133.481C453.108 133.775 452.942 134.173 452.942 134.589V199.928C452.942 200.343 453.108 200.742 453.404 201.036C453.699 201.33 454.099 201.496 454.517 201.496H517.512Z" fill="#104478"/>
<path d="M504.089 189.068C504.561 189.068 505.015 188.881 505.349 188.548C505.683 188.215 505.871 187.764 505.871 187.293C505.871 186.822 505.683 186.371 505.349 186.038C505.015 185.705 504.561 185.518 504.089 185.518H467.94C467.467 185.518 467.014 185.705 466.68 186.038C466.345 186.371 466.158 186.822 466.158 187.293C466.158 187.764 466.345 188.215 466.68 188.548C467.014 188.881 467.467 189.068 467.94 189.068H504.089Z" fill="#FDFDFD"/>
<path d="M504.089 178.611C504.323 178.612 504.555 178.566 504.772 178.477C504.988 178.388 505.185 178.258 505.351 178.093C505.517 177.928 505.648 177.732 505.738 177.517C505.828 177.301 505.874 177.07 505.874 176.837C505.874 176.603 505.828 176.372 505.738 176.157C505.648 175.941 505.517 175.745 505.351 175.581C505.185 175.416 504.988 175.285 504.772 175.196C504.555 175.107 504.323 175.062 504.089 175.062H467.94C467.705 175.062 467.473 175.107 467.257 175.196C467.04 175.285 466.843 175.416 466.677 175.581C466.512 175.745 466.38 175.941 466.29 176.157C466.201 176.372 466.154 176.603 466.154 176.837C466.154 177.07 466.201 177.301 466.29 177.517C466.38 177.732 466.512 177.928 466.677 178.093C466.843 178.258 467.04 178.388 467.257 178.477C467.473 178.566 467.705 178.612 467.94 178.611H504.089Z" fill="#FDFDFD"/>
<path d="M486.014 145.449C488.233 145.449 490.401 146.104 492.246 147.332C494.09 148.559 495.528 150.304 496.377 152.345C497.226 154.386 497.448 156.632 497.015 158.799C496.583 160.966 495.514 162.957 493.946 164.519C492.377 166.081 490.378 167.145 488.202 167.576C486.026 168.007 483.771 167.786 481.722 166.941C479.672 166.095 477.92 164.663 476.688 162.826C475.455 160.989 474.797 158.829 474.797 156.62C474.801 153.658 475.983 150.819 478.086 148.725C480.189 146.63 483.04 145.452 486.014 145.449Z" fill="#FDFDFD"/>
</g>
<defs>
<clipPath id="clip0">
<rect width="583" height="290" fill="white"/>
</clipPath>
</defs>
</svg>
