<svg width="50" height="50" viewBox="0 0 50 50" fill="none" xmlns="http://www.w3.org/2000/svg">
<path d="M19.3641 22.8825C25.2589 22.8825 30.0376 18.1041 30.0376 12.209C30.0376 6.31427 25.2589 1.53552 19.3641 1.53552C13.4694 1.53552 8.69064 6.31427 8.69064 12.209C8.69632 18.1019 13.4716 22.8768 19.3641 22.8825ZM19.3641 3.55505C24.1438 3.55505 28.0181 7.42995 28.0181 12.209C28.0181 16.9887 24.1438 20.863 19.3641 20.863C14.5848 20.863 10.7105 16.9887 10.7105 12.209C10.7159 7.43184 14.587 3.56074 19.3641 3.55505Z" fill="#105499"/>
<path d="M47.1034 28.8505L38.3989 24.2158C38.099 24.0522 37.736 24.056 37.4395 24.2255L29.4722 28.5879C26.5539 26.4168 23.0597 25.286 19.3442 25.286C14.7192 25.2961 10.4276 27.0937 7.24663 30.3653C4.02523 33.6672 2.25795 38.1811 2.26836 43.0785C2.26994 43.6357 2.72108 44.0868 3.27797 44.0884L31.3705 44.0379C32.6911 45.6777 34.3889 46.9733 36.3185 47.8146L37.49 48.3295C37.6173 48.3864 37.7552 48.4138 37.8941 48.4104C38.0324 48.4078 38.1694 48.3807 38.2979 48.3295L39.6207 47.754C44.4809 45.7149 47.642 40.9576 47.6385 35.6867V29.749C47.6388 29.374 47.4333 29.0289 47.1034 28.8505ZM4.3182 42.0588C4.53004 38.0901 6.07507 34.4653 8.70075 31.7689C11.4975 28.891 15.2843 27.3055 19.354 27.3055H19.3843C22.727 27.3055 25.8574 28.3558 28.4525 30.3451V35.8079C28.4541 37.9768 28.9952 40.1109 30.0275 42.0181L4.3182 42.0588ZM45.619 35.6867C45.6209 40.1494 42.9406 44.1759 38.8229 45.8961H38.8128L37.8941 46.2898L37.1263 45.9564C33.0879 44.192 30.4764 40.2053 30.472 35.7982V30.335L37.9342 26.2454L45.619 30.3451V35.6867Z" fill="#105499"/>
<path d="M35.1674 35.1515C34.805 34.7279 34.1676 34.6783 33.7436 35.0407C33.3199 35.4031 33.2704 36.0405 33.6328 36.4642L35.9248 39.1401C36.1174 39.3639 36.3974 39.4927 36.6922 39.4937C36.9237 39.4956 37.1484 39.4173 37.3284 39.2714L42.6602 34.9397C43.0924 34.5855 43.1556 33.9481 42.8013 33.5156C42.4474 33.0834 41.81 33.0202 41.3779 33.3744L36.8135 37.0906L35.1674 35.1515Z" fill="#105499"/>
</svg>
