<svg width="21" height="47" fill="none" xmlns="http://www.w3.org/2000/svg"><path fill="#012060" d="M.633 46.528V0H20.57v46.528z"/><path d="M14.62 26.079v.898l-5.478 2.847h5.478v.899H7.511v-.899l5.503-2.856H7.51v-.889h7.11zm-3.286-4.456v2.515h2.52v-2.93h.766v3.823H7.511v-3.774h.771v2.88h2.286v-2.514h.766zm1.045-2.42l.796-.093-.703-.141L7.51 17.83v-.747l4.96-1.104.724-.141-.82-.103-4.864-.869v-.893l7.11 1.416v.805l-5.18 1.188-.42.073.42.073 5.18 1.23v.811L7.511 20.98v-.893l4.868-.884z" fill="#fff"/></svg>