<svg width="24" height="24" viewBox="0 0 24 24" fill="none" xmlns="http://www.w3.org/2000/svg">
<path d="M10.9395 12L4.71897 5.781C4.64924 5.71127 4.59392 5.62849 4.55619 5.53738C4.51845 5.44627 4.49902 5.34862 4.49902 5.25C4.49902 5.15139 4.51845 5.05374 4.55619 4.96263C4.59392 4.87152 4.64924 4.78873 4.71897 4.719C4.7887 4.64927 4.87149 4.59396 4.9626 4.55622C5.0537 4.51848 5.15135 4.49905 5.24997 4.49905C5.34859 4.49905 5.44624 4.51848 5.53735 4.55622C5.62846 4.59396 5.71124 4.64927 5.78097 4.719L12 10.9395L18.219 4.719C18.3598 4.57817 18.5508 4.49905 18.75 4.49905C18.9491 4.49905 19.1401 4.57817 19.281 4.719C19.4218 4.85983 19.5009 5.05084 19.5009 5.25C19.5009 5.44916 19.4218 5.64017 19.281 5.781L13.0605 12L19.281 18.219C19.4218 18.3598 19.5009 18.5508 19.5009 18.75C19.5009 18.9492 19.4218 19.1402 19.281 19.281C19.1401 19.4218 18.9491 19.5009 18.75 19.5009C18.5508 19.5009 18.3598 19.4218 18.219 19.281L12 13.0605L5.78097 19.281C5.64014 19.4218 5.44913 19.5009 5.24997 19.5009C5.05081 19.5009 4.8598 19.4218 4.71897 19.281C4.57814 19.1402 4.49902 18.9492 4.49902 18.75C4.49902 18.5508 4.57814 18.3598 4.71897 18.219L10.9395 12Z" fill="#616465"/>
</svg>
