<svg width="196" height="39" viewBox="0 0 196 39" fill="none" xmlns="http://www.w3.org/2000/svg">
<g clip-path="url(#clip0_35_3011)">
<path d="M40.6243 24.7106H43.0722V23.799C43.1229 22.1333 43.1293 20.566 43.1103 18.8937C43.1103 17.91 43.1103 16.828 43.0595 15.8443C43.0595 15.3524 43.0278 14.8606 43.0151 14.3622V13.6277C43.0151 13.3588 43.0151 13.0834 42.9644 12.8079C42.9137 12.5325 42.901 12.2833 42.8566 12.021C42.8566 12.021 42.0893 4.09246 35.9379 0.17082C35.7459 0.0541752 35.5263 -0.00486669 35.3037 0.000313855H34.1179C33.906 0.00108831 33.6981 0.0599215 33.5154 0.17082C27.3577 4.09246 26.6348 12.0144 26.6348 12.0144C26.5904 12.2768 26.5523 12.5391 26.527 12.8014C26.5016 13.0637 26.4889 13.3523 26.4762 13.6211V14.3556C26.4762 14.854 26.4762 15.3459 26.4318 15.8377C26.4318 16.8214 26.3874 17.9035 26.3811 18.8871C26.3811 20.5594 26.3811 22.1268 26.4192 23.7925V24.704H28.867V18.9527C28.867 18.9527 28.6704 5.45651 33.7564 1.24632C34.0618 1.00965 34.4023 0.825822 34.7647 0.702012C35.1265 0.827284 35.4668 1.01099 35.773 1.24632C40.8463 5.46307 40.6624 18.9527 40.6624 18.9527L40.6243 24.7106Z" fill="white"/>
<path d="M34.7267 15.3193C34.2965 15.3193 33.8759 15.4513 33.5182 15.6984C33.1605 15.9456 32.8817 16.2969 32.7171 16.7079C32.5525 17.1189 32.5094 17.5712 32.5933 18.0075C32.6772 18.4439 32.8844 18.8447 33.1886 19.1592C33.4928 19.4738 33.8804 19.6881 34.3023 19.7749C34.7243 19.8616 35.1616 19.8171 35.5591 19.6469C35.9565 19.4766 36.2963 19.1883 36.5353 18.8184C36.7743 18.4485 36.9019 18.0136 36.9019 17.5687C36.9019 16.9721 36.6727 16.4 36.2648 15.9782C35.8568 15.5563 35.3036 15.3193 34.7267 15.3193Z" fill="white"/>
<path d="M178.833 24.7104H181.287V18.9525C181.287 18.9525 181.084 5.45632 186.177 1.24613C186.482 1.00946 186.823 0.825628 187.185 0.701818C187.547 0.82709 187.887 1.0108 188.193 1.24613C193.267 5.46287 193.076 18.9525 193.076 18.9525V24.7104H195.531V23.7988C195.581 22.1331 195.581 20.5658 195.569 18.8935C195.569 17.9098 195.531 16.8278 195.512 15.8441C195.512 15.3522 195.512 14.8604 195.467 14.362V13.6275C195.467 13.3586 195.467 13.0832 195.417 12.8078C195.366 12.5323 195.359 12.2831 195.315 12.0208C195.315 12.0208 194.56 4.09227 188.403 0.170626C188.223 0.0587673 188.017 -0.000184886 187.807 0.000119827H186.589C186.366 -0.00721773 186.146 0.0519775 185.955 0.170626C179.797 4.10538 179.062 12.0142 179.062 12.0142C179.017 12.2766 178.979 12.5389 178.954 12.8012C178.928 13.0635 178.916 13.3521 178.903 13.6209V14.3554C178.903 14.8538 178.865 15.3457 178.859 15.8375C178.859 16.8212 178.808 17.9033 178.808 18.887C178.808 20.5592 178.808 22.1266 178.808 23.7923L178.833 24.7104Z" fill="white"/>
<path d="M187.198 19.8181C188.399 19.8181 189.373 18.811 189.373 17.5687C189.373 16.3264 188.399 15.3193 187.198 15.3193C185.997 15.3193 185.023 16.3264 185.023 17.5687C185.023 18.811 185.997 19.8181 187.198 19.8181Z" fill="white"/>
<path d="M30.2368 36.3834C30.1049 36.5039 29.9521 36.5974 29.7865 36.6589C29.6151 36.7296 29.4321 36.7652 29.2475 36.7638C28.9696 36.7674 28.6973 36.6827 28.4675 36.5211C28.226 36.3567 28.0295 36.1309 27.8967 35.8654C27.7529 35.5871 27.6788 35.2759 27.6811 34.9604C27.6865 34.6596 27.7626 34.3647 27.9031 34.1013C28.0311 33.8344 28.226 33.608 28.4675 33.4455C28.7034 33.2937 28.976 33.2141 29.2539 33.216C29.5046 33.2143 29.7515 33.2798 29.9705 33.4061C30.1828 33.5326 30.3582 33.7161 30.4778 33.9373L31.0168 33.7603C30.8706 33.4396 30.6341 33.1721 30.3383 32.993C30.0155 32.7974 29.6469 32.6976 29.2729 32.7044C28.8804 32.6979 28.4939 32.8046 28.1568 33.0127C27.8369 33.2087 27.5758 33.4924 27.4021 33.8324C27.2172 34.1819 27.1233 34.5751 27.1294 34.9735C27.1208 35.273 27.1682 35.5713 27.2689 35.8522C27.374 36.1236 27.5266 36.3727 27.7192 36.5867C27.912 36.8014 28.145 36.9732 28.4041 37.0917C28.675 37.2178 28.9695 37.2805 29.2665 37.2753C29.5289 37.2782 29.7893 37.2292 30.0339 37.131C30.2664 37.0434 30.4814 36.9122 30.668 36.7441C30.8378 36.5887 30.9684 36.3929 31.0485 36.1736L30.4968 36.0096C30.4435 36.1558 30.3538 36.2847 30.2368 36.3834Z" fill="white"/>
<path d="M34.9993 33.0194C34.6693 32.8047 34.2855 32.6953 33.8958 32.7047C33.5074 32.6992 33.1253 32.8059 32.7924 33.0129C32.4733 33.2149 32.211 33.4998 32.0314 33.8392C31.8481 34.1846 31.7542 34.5732 31.7587 34.9671C31.7577 35.5739 31.9851 36.1572 32.3929 36.5935C32.5914 36.8059 32.8301 36.9738 33.0942 37.0866C33.3582 37.1995 33.6419 37.2548 33.9275 37.2493C34.1961 37.2527 34.4629 37.2038 34.7139 37.105C34.9474 37.0164 35.1625 36.8829 35.348 36.7116C35.518 36.5521 35.6541 36.3578 35.7476 36.141L35.2656 36.0033C35.158 36.2531 34.9727 36.4585 34.7393 36.587C34.4978 36.7294 34.2245 36.804 33.9466 36.8034C33.6795 36.8037 33.417 36.7313 33.1856 36.5935C32.9512 36.4506 32.7568 36.2472 32.6212 36.0033C32.4681 35.7585 32.3725 35.48 32.3421 35.1901H36.0076C36.0125 35.1575 36.0125 35.1243 36.0076 35.0917V34.9606C36.0165 34.5693 35.9271 34.1824 35.7481 33.8376C35.5692 33.4928 35.3068 33.2018 34.9866 32.9932L34.9993 33.0194ZM32.3421 34.7573C32.3587 34.4622 32.4458 34.176 32.5958 33.9244C32.7288 33.6834 32.922 33.4838 33.1551 33.3465C33.3883 33.2093 33.6529 33.1393 33.9212 33.144C34.1899 33.1396 34.4549 33.2098 34.6885 33.3473C34.9225 33.4844 35.1189 33.6807 35.2593 33.9179C35.4074 34.1727 35.4944 34.4606 35.5129 34.7573H32.3421Z" fill="white"/>
<path d="M36.5847 33.2949H38.113V37.1903H38.6774V33.2949H40.2058V32.7769H36.5847V33.2949Z" fill="white"/>
<path d="M42.7994 34.3312H41.6833V32.79H41.1252V37.2035H42.8375C43.1141 37.214 43.3883 37.146 43.6302 37.0068C43.8352 36.8821 44.0022 36.7003 44.1121 36.4822C44.2232 36.2522 44.2797 35.9982 44.277 35.7411C44.2838 35.5554 44.2541 35.3701 44.1898 35.1966C44.1255 35.023 44.0279 34.8647 43.9029 34.7312C43.7539 34.592 43.5796 34.4849 43.3901 34.4162C43.2007 34.3475 42.9998 34.3186 42.7994 34.3312ZM43.6112 36.2264C43.5464 36.3768 43.4406 36.5045 43.3068 36.5936C43.1416 36.693 42.9522 36.7409 42.7614 36.7314H41.6833V34.764H42.7487C42.9489 34.7539 43.1481 34.7992 43.3258 34.8951C43.4598 34.9734 43.5647 35.0958 43.6238 35.2427C43.683 35.3926 43.7131 35.553 43.7126 35.7149C43.7149 35.891 43.6803 36.0655 43.6112 36.2264Z" fill="white"/>
<path d="M50.403 36.3834C50.2712 36.5039 50.1184 36.5974 49.9528 36.6588C49.7812 36.7289 49.5982 36.7645 49.4137 36.7638C49.1339 36.7671 48.8597 36.6825 48.6274 36.5211C48.3877 36.3565 48.1932 36.1306 48.063 35.8653C47.9162 35.5882 47.8419 35.2763 47.8473 34.9603C47.8488 34.6607 47.9206 34.3659 48.0566 34.1013C48.1847 33.8344 48.3796 33.6079 48.621 33.4455C48.8429 33.3072 49.0958 33.2309 49.3548 33.224C49.6138 33.2171 49.8701 33.2799 50.0986 33.4061C50.311 33.5326 50.4863 33.7161 50.6059 33.9373L51.145 33.7602C50.9981 33.4379 50.759 33.1701 50.4601 32.993C50.1396 32.7976 49.773 32.6977 49.401 32.7044C49.0085 32.6979 48.622 32.8046 48.2849 33.0126C47.9788 33.2158 47.7295 33.4985 47.562 33.8324C47.382 34.1836 47.2904 34.576 47.2956 34.9735C47.2931 35.2742 47.3469 35.5726 47.4542 35.8522C47.5568 36.1249 47.7097 36.3744 47.9044 36.5867C48.0972 36.8014 48.3302 36.9732 48.5893 37.0917C48.8582 37.2171 49.1505 37.2798 49.4454 37.2753C49.7099 37.2787 49.9725 37.2297 50.2191 37.131C50.452 37.0441 50.6671 36.9128 50.8533 36.7441C51.0248 36.5889 51.1575 36.3932 51.2401 36.1736L50.6884 36.0096C50.6281 36.1588 50.5294 36.2881 50.403 36.3834Z" fill="white"/>
<path d="M51.7983 33.2949H53.3267V37.1903H53.8847V33.2949H55.4194V32.7769H51.7983V33.2949Z" fill="white"/>
<path d="M58.0194 36.574L56.4404 32.79H55.8442L57.7467 37.1445L57.5375 37.6888C57.4465 37.9235 57.3249 38.1441 57.176 38.3446C57.1269 38.4082 57.0654 38.4604 56.9954 38.4977C56.9255 38.535 56.8487 38.5566 56.7701 38.561C56.7134 38.5709 56.6556 38.5709 56.5989 38.561L56.4404 38.4167L56.2311 38.8233C56.3239 38.8768 56.4216 38.9207 56.5228 38.9545C56.6417 38.9942 56.7671 39.0084 56.8915 38.9959C57.0158 38.9835 57.1364 38.9449 57.2457 38.8824C57.3971 38.7825 57.5285 38.6533 57.6326 38.502C57.7731 38.2993 57.8882 38.0789 57.975 37.8462L60.0234 32.79H59.4653L58.0194 36.574Z" fill="white"/>
<path d="M64.3164 32.79H61.5135V34.0033C61.503 34.442 61.4691 34.8799 61.412 35.3148C61.3751 35.5946 61.3092 35.8694 61.2154 36.1346C61.1599 36.2975 61.0636 36.4424 60.9364 36.5543C60.838 36.6318 60.7176 36.6733 60.5939 36.6723H60.5178V38.22H61.0125V37.1904H64.4179V38.22H64.9189V36.6723H64.3418L64.3164 32.79ZM63.7584 36.6854H61.412C61.5446 36.5573 61.6448 36.3974 61.7037 36.2198C61.8 35.9505 61.868 35.6713 61.9066 35.387C61.9627 34.9519 61.9966 34.5141 62.0081 34.0754V33.3147H63.733L63.7584 36.6854Z" fill="white"/>
<path d="M66.4599 36.4099V32.7834H65.8955V37.1903H66.4409L69.0092 33.6228V37.1903H69.5673V32.7769H69.0663L66.4599 36.4099Z" fill="white"/>
<path d="M71.508 36.4099V32.7834H70.95V37.1903H71.489L74.0573 33.6228V37.1903H74.6217V32.7769H74.1144L71.508 36.4099Z" fill="white"/>
<path d="M72.2182 31.6616C72.1599 31.6083 72.1133 31.5426 72.0816 31.4691C72.0499 31.3956 72.0337 31.3159 72.0343 31.2354H71.6221C71.6246 31.3608 71.6531 31.4842 71.7056 31.5973C71.7581 31.7105 71.8334 31.8106 71.9265 31.8911C72.1725 32.0869 72.4793 32.1825 72.7889 32.16C73.0964 32.1809 73.4007 32.0853 73.645 31.8911C73.7381 31.8106 73.8134 31.7105 73.8659 31.5973C73.9184 31.4842 73.9469 31.3608 73.9494 31.2354H73.5626C73.5504 31.401 73.4779 31.5557 73.3597 31.6682C73.198 31.7888 73.0005 31.8469 72.8016 31.8321C72.5936 31.8502 72.3863 31.7896 72.2182 31.6616Z" fill="white"/>
<path d="M80.5447 35.8197L78.8388 32.7769H78.2617V37.1903H78.7944V33.6359L80.3608 36.4034H80.7223L82.2696 33.6359V37.1903H82.8023V32.7769H82.2506L80.5447 35.8197Z" fill="white"/>
<path d="M87.4761 36.4949V34.4554C87.4924 34.2159 87.4602 33.9756 87.3816 33.7497C87.303 33.5239 87.1796 33.3175 87.0195 33.1438C86.8486 32.9828 86.6485 32.8588 86.4307 32.7788C86.2129 32.6989 85.9819 32.6647 85.7511 32.6782C85.4721 32.6792 85.1953 32.7302 84.9331 32.829C84.6406 32.9397 84.3634 33.0896 84.1087 33.2749L84.3243 33.6815C84.5402 33.5265 84.772 33.3968 85.0155 33.2946C85.2323 33.2094 85.4621 33.165 85.6941 33.1635C85.8558 33.1536 86.0177 33.1775 86.1703 33.2339C86.3228 33.2902 86.4628 33.3778 86.5819 33.4913C86.6918 33.6093 86.7772 33.7493 86.8328 33.9027C86.8885 34.0561 86.9131 34.2196 86.9053 34.3832V34.757C86.7103 34.683 86.5084 34.6303 86.3029 34.5996C86.0928 34.5691 85.8809 34.5538 85.6687 34.5537C85.3465 34.5458 85.0258 34.6015 84.7238 34.7177C84.474 34.8076 84.2541 34.9691 84.0896 35.1833C83.9305 35.3844 83.8471 35.6383 83.855 35.8981C83.8573 36.1309 83.9232 36.3583 84.0453 36.5539C84.1685 36.7644 84.3465 36.9349 84.5589 37.0457C84.7892 37.1716 85.0468 37.2348 85.3072 37.2294C85.6307 37.2267 85.9502 37.1553 86.2458 37.0195C86.5391 36.8907 86.7964 36.6877 86.9941 36.4293V36.7506C87.0022 36.8528 87.0423 36.9495 87.1082 37.0261C87.1475 37.0703 87.1957 37.105 87.2494 37.1277C87.3031 37.1503 87.361 37.1604 87.419 37.1572C87.4525 37.164 87.4869 37.164 87.5204 37.1572H87.679V36.7244C87.6496 36.7252 87.6204 36.7198 87.5932 36.7085C87.5659 36.6973 87.5412 36.6803 87.5204 36.6588C87.487 36.6115 87.4712 36.5533 87.4761 36.4949ZM86.918 35.8391C86.9137 35.9054 86.8964 35.9701 86.8673 36.0293C86.8309 36.1119 86.784 36.1891 86.7277 36.2588C86.5855 36.4423 86.3998 36.5846 86.1887 36.6719C85.9505 36.7781 85.6935 36.8317 85.4341 36.8293C85.2397 36.8336 85.0476 36.7862 84.876 36.6916C84.7271 36.6091 84.6022 36.4868 84.5145 36.3375C84.4343 36.1988 84.3926 36.04 84.394 35.8784C84.3926 35.745 84.426 35.6136 84.4907 35.4982C84.5555 35.3828 84.6491 35.2876 84.7619 35.2226C85.0555 35.0452 85.3923 34.9587 85.7321 34.9734C85.9449 34.9719 86.1572 34.9917 86.3663 35.0325C86.563 35.0723 86.756 35.1293 86.9434 35.203L86.918 35.8391Z" fill="white"/>
<path d="M91.8519 34.6721H89.404V32.7769H88.8459V37.1903H89.404V35.1902H91.8519V37.1903H92.4163V32.7769H91.8519V34.6721Z" fill="white"/>
<path d="M94.363 36.4099V32.7834H93.8049V37.1903H94.3503L96.9123 33.6228V37.1903H97.4767V32.7769H96.9694L94.363 36.4099Z" fill="white"/>
<path d="M102.138 32.7769H101.497L100.058 34.6655H99.4174V32.7769H98.853V37.1903H99.4174V35.1967H100.058L101.688 37.1903H102.341L100.502 34.9147L102.138 32.7769Z" fill="white"/>
<path d="M107.807 33.0129C107.478 32.8024 107.097 32.6954 106.71 32.7047C106.369 32.6998 106.032 32.788 105.734 32.9604C105.448 33.1305 105.209 33.3746 105.042 33.6687C104.86 33.9933 104.752 34.3566 104.725 34.7311H103.869V32.7899H103.311V37.2034H103.869V35.236H104.725C104.751 35.6026 104.855 35.9587 105.03 36.2787C105.196 36.5865 105.44 36.8414 105.737 37.0159C106.033 37.1904 106.369 37.2779 106.71 37.269C107.091 37.2775 107.467 37.1753 107.795 36.9739C108.104 36.7833 108.355 36.5059 108.517 36.1738C108.689 35.8078 108.778 35.4065 108.778 34.9999C108.778 34.5934 108.689 34.1921 108.517 33.8261C108.358 33.4925 108.112 33.2111 107.807 33.0129ZM108.017 35.9115C107.905 36.1773 107.722 36.4047 107.49 36.5673C107.258 36.7223 106.986 36.8023 106.71 36.7968C106.448 36.8 106.19 36.7248 105.968 36.5804C105.745 36.4282 105.567 36.2148 105.454 35.964C105.328 35.6713 105.265 35.3533 105.271 35.0327C105.265 34.71 105.328 34.39 105.454 34.0949C105.564 33.8424 105.74 33.6265 105.962 33.4719C106.184 33.3218 106.445 33.2441 106.71 33.249C106.981 33.2442 107.248 33.3217 107.477 33.4719C107.706 33.6214 107.889 33.8353 108.004 34.0884C108.143 34.3819 108.21 34.7061 108.2 35.0327C108.199 35.3364 108.134 35.6361 108.01 35.9115H108.017Z" fill="white"/>
<path d="M113.426 33.4063C113.246 33.1974 113.032 33.0241 112.792 32.8948C112.537 32.7674 112.257 32.7023 111.974 32.7047C111.652 32.7032 111.336 32.794 111.061 32.967C110.786 33.1242 110.552 33.3496 110.382 33.6228V32.7899H109.881V39.0134H110.439V36.2787C110.607 36.5653 110.837 36.8077 111.111 36.987C111.405 37.1837 111.748 37.2884 112.097 37.2884C112.447 37.2884 112.79 37.1837 113.084 36.987C113.378 36.7752 113.614 36.4883 113.769 36.1541C113.93 35.7993 114.012 35.4116 114.009 35.0196C114.008 34.436 113.803 33.8726 113.432 33.4326L113.426 33.4063ZM113.325 35.6426C113.259 35.8511 113.156 36.0447 113.02 36.2131C112.888 36.3797 112.724 36.516 112.538 36.6132C112.342 36.7174 112.124 36.7693 111.904 36.764C111.684 36.7708 111.467 36.7212 111.27 36.6197C110.88 36.4134 110.573 36.0723 110.401 35.6557V34.3048C110.423 34.1541 110.482 34.0118 110.572 33.8916C110.669 33.7566 110.787 33.6391 110.921 33.5441C111.056 33.4391 111.205 33.3572 111.365 33.3014C111.507 33.2458 111.657 33.2169 111.809 33.2162C112.028 33.2113 112.246 33.2607 112.443 33.3604C112.635 33.4576 112.809 33.5885 112.957 33.7474C113.103 33.9111 113.217 34.1027 113.293 34.3113C113.438 34.7357 113.438 35.1986 113.293 35.6229L113.325 35.6426Z" fill="white"/>
<path d="M118.385 36.4949V34.4554C118.402 34.2159 118.369 33.9756 118.291 33.7497C118.212 33.5239 118.089 33.3175 117.929 33.1438C117.758 32.9828 117.558 32.8588 117.34 32.7788C117.122 32.6989 116.891 32.6647 116.66 32.6782C116.381 32.6792 116.104 32.7302 115.842 32.829C115.55 32.9397 115.273 33.0896 115.018 33.2749L115.233 33.6815C115.449 33.5265 115.681 33.3968 115.925 33.2946C116.141 33.2094 116.371 33.165 116.603 33.1635C116.765 33.1536 116.927 33.1775 117.079 33.2339C117.232 33.2902 117.372 33.3778 117.491 33.4913C117.601 33.6093 117.686 33.7493 117.742 33.9027C117.798 34.0561 117.822 34.2196 117.814 34.3832V34.757C117.609 34.6807 117.397 34.628 117.18 34.5996C116.97 34.5691 116.758 34.5538 116.546 34.5537C116.224 34.5458 115.903 34.6015 115.601 34.7177C115.351 34.8076 115.131 34.9691 114.967 35.1833C114.81 35.3858 114.727 35.6388 114.732 35.8981C114.735 36.1309 114.801 36.3583 114.923 36.5539C115.046 36.7644 115.224 36.9349 115.436 37.0457C115.667 37.1716 115.924 37.2348 116.185 37.2294C116.508 37.2267 116.828 37.1553 117.123 37.0195C117.416 36.8907 117.674 36.6877 117.871 36.4293V36.7506C117.88 36.8528 117.92 36.9495 117.986 37.0261C118.025 37.0703 118.073 37.105 118.127 37.1277C118.181 37.1503 118.238 37.1604 118.296 37.1572C118.33 37.164 118.364 37.164 118.398 37.1572H118.556V36.7244C118.527 36.7252 118.498 36.7198 118.471 36.7085C118.443 36.6973 118.419 36.6803 118.398 36.6588C118.375 36.6074 118.371 36.5494 118.385 36.4949ZM117.827 35.8391C117.823 35.9054 117.806 35.9701 117.776 36.0293C117.74 36.1119 117.693 36.1891 117.637 36.2588C117.495 36.4423 117.309 36.5846 117.098 36.6719C116.862 36.7774 116.607 36.831 116.35 36.8293C116.153 36.8344 115.959 36.787 115.785 36.6916C115.636 36.6091 115.511 36.4868 115.424 36.3375C115.343 36.1988 115.302 36.04 115.303 35.8784C115.302 35.745 115.335 35.6136 115.4 35.4982C115.465 35.3828 115.558 35.2876 115.671 35.2226C115.965 35.0452 116.301 34.9587 116.641 34.9734C116.854 34.9719 117.066 34.9917 117.275 35.0325C117.472 35.0723 117.665 35.1293 117.852 35.203L117.827 35.8391Z" fill="white"/>
<path d="M122.577 36.4099V32.7834H122.012V37.1903H122.558L125.126 33.6228V37.1903H125.684V32.7769H125.183L122.577 36.4099Z" fill="white"/>
<path d="M129.331 37.1903H129.889V33.2949H132.216V37.1903H132.774V32.7769H129.331V37.1903Z" fill="white"/>
<path d="M137.125 33.0194C136.792 32.8049 136.407 32.6955 136.015 32.7046C135.629 32.7 135.249 32.8068 134.918 33.0129C134.599 33.2149 134.336 33.4998 134.157 33.8392C133.971 34.184 133.875 34.5725 133.878 34.9671C133.877 35.272 133.931 35.5743 134.036 35.859C134.143 36.1296 134.295 36.3783 134.487 36.5935C134.679 36.8071 134.912 36.9768 135.171 37.0919C135.44 37.2173 135.733 37.28 136.028 37.2755C136.296 37.2783 136.563 37.2294 136.814 37.1312C137.048 37.0442 137.264 36.9106 137.448 36.7378C137.622 36.5803 137.76 36.3856 137.854 36.1672L137.366 36.0295C137.26 36.2788 137.077 36.4844 136.846 36.6132C136.604 36.7548 136.331 36.8293 136.053 36.8296C135.786 36.8318 135.523 36.7593 135.292 36.6197C135.057 36.4751 134.861 36.2723 134.721 36.0295C134.574 35.7736 134.485 35.4866 134.461 35.1901H138.133C138.137 35.1574 138.137 35.1244 138.133 35.0917V34.9606C138.141 34.5702 138.052 34.1841 137.875 33.8396C137.697 33.495 137.436 33.2035 137.118 32.9932L137.125 33.0194ZM134.442 34.7573C134.456 34.4627 134.541 34.1765 134.689 33.9244C134.827 33.6857 135.021 33.4871 135.254 33.3473C135.487 33.2098 135.752 33.1396 136.021 33.144C136.29 33.1406 136.555 33.2107 136.789 33.3473C137.022 33.4844 137.219 33.6807 137.359 33.9178C137.508 34.1726 137.595 34.4605 137.613 34.7573H134.442Z" fill="white"/>
<path d="M142.515 32.79H139.725L139.687 34.0164C139.676 34.4552 139.642 34.893 139.585 35.328C139.548 35.6077 139.482 35.8825 139.388 36.1477C139.333 36.3106 139.237 36.4555 139.109 36.5674C139.011 36.6449 138.891 36.6864 138.767 36.6854H138.691V38.2331H139.186V37.1904H142.591V38.22H143.092V36.6723H142.515V32.79ZM141.957 36.6854H139.61C139.743 36.5573 139.843 36.3974 139.902 36.2198C139.998 35.9505 140.067 35.6713 140.105 35.387C140.161 34.9519 140.195 34.5141 140.207 34.0754V33.3147H141.931L141.957 36.6854Z" fill="white"/>
<path d="M144.658 36.4099V32.7834H144.094V37.1903H144.639L147.208 33.6228V37.1903H147.766V32.7769H147.265L144.658 36.4099Z" fill="white"/>
<path d="M152.433 32.7769H151.786L150.347 34.6655H149.706V32.7769H149.148V37.1903H149.706V35.1967H150.347L151.977 37.1903H152.636L150.791 34.9147L152.433 32.7769Z" fill="white"/>
<path d="M158.09 33.0129C157.763 32.8026 157.384 32.6955 156.999 32.7046C156.663 32.6978 156.33 32.7834 156.036 32.9528C155.742 33.1221 155.497 33.3692 155.325 33.6687C155.145 33.9938 155.038 34.3571 155.014 34.731H154.158V32.7899H153.6V37.2034H154.158V35.236H155.014C155.035 35.6026 155.137 35.9594 155.312 36.2787C155.479 36.5874 155.725 36.843 156.022 37.0176C156.319 37.1922 156.657 37.2791 156.999 37.269C157.378 37.2766 157.752 37.1744 158.077 36.9739C158.387 36.7833 158.637 36.5059 158.8 36.1738C158.981 35.8091 159.071 35.4032 159.06 34.9934C159.068 34.5888 158.981 34.1883 158.807 33.8261C158.644 33.492 158.397 33.2107 158.09 33.0129ZM158.299 35.9115C158.19 36.177 158.01 36.4046 157.779 36.5673C157.546 36.7205 157.275 36.8003 156.999 36.7968C156.737 36.8015 156.479 36.7262 156.257 36.5804C156.031 36.4319 155.852 36.2174 155.744 35.9639C155.614 35.6722 155.551 35.3536 155.56 35.0327C155.552 34.7105 155.613 34.3905 155.737 34.0949C155.849 33.8419 156.027 33.6261 156.251 33.4719C156.472 33.3183 156.733 33.2403 156.999 33.249C157.269 33.2431 157.534 33.3207 157.76 33.4719C157.992 33.6193 158.177 33.8336 158.293 34.0884C158.427 34.3835 158.492 34.7069 158.483 35.0327C158.486 35.3362 158.423 35.6365 158.299 35.9115Z" fill="white"/>
<path d="M163.715 33.4063C163.537 33.196 163.321 33.0224 163.081 32.8948C162.828 32.7675 162.55 32.7024 162.269 32.7046C161.947 32.7032 161.631 32.794 161.356 32.967C161.08 33.1257 160.845 33.3506 160.671 33.6228V32.7899H160.17V39.0134H160.728V36.2787C160.896 36.5653 161.126 36.8077 161.4 36.987C161.695 37.1835 162.039 37.288 162.389 37.288C162.74 37.288 163.084 37.1835 163.379 36.987C163.673 36.7769 163.907 36.4893 164.057 36.1541C164.221 35.8002 164.304 35.4119 164.298 35.0196C164.297 34.436 164.092 33.8726 163.721 33.4326L163.715 33.4063ZM163.613 35.6426C163.546 35.8514 163.44 36.045 163.303 36.2131C163.172 36.3813 163.008 36.5178 162.821 36.6132C162.626 36.7196 162.407 36.7716 162.187 36.764C161.978 36.764 161.772 36.7147 161.584 36.6197C161.391 36.5189 161.217 36.3834 161.07 36.2197C160.923 36.0533 160.803 35.8627 160.715 35.6557V34.3048C160.743 34.1558 160.801 34.0148 160.887 33.8916C160.986 33.7564 161.106 33.639 161.242 33.5441C161.375 33.4405 161.522 33.3587 161.679 33.3014C161.821 33.2458 161.971 33.2169 162.123 33.2162C162.343 33.2123 162.56 33.2617 162.757 33.3604C162.948 33.4561 163.12 33.5873 163.265 33.7474C163.411 33.9126 163.527 34.1036 163.607 34.3113C163.683 34.5212 163.724 34.743 163.728 34.9671C163.728 35.1975 163.689 35.4261 163.613 35.6426Z" fill="white"/>
<path d="M168.687 36.495V34.4555C168.704 34.2154 168.671 33.9744 168.592 33.7482C168.512 33.5221 168.386 33.3161 168.224 33.1439C168.054 32.9817 167.854 32.8569 167.636 32.7768C167.418 32.6968 167.186 32.6633 166.955 32.6783C166.674 32.68 166.396 32.731 166.131 32.8291C165.84 32.9423 165.563 33.0921 165.307 33.2751L165.522 33.6817C165.74 33.5265 165.974 33.3968 166.22 33.2947C166.436 33.2086 166.666 33.1641 166.898 33.1636C167.06 33.1545 167.222 33.1788 167.374 33.2351C167.527 33.2914 167.667 33.3785 167.786 33.4915C167.896 33.6094 167.982 33.7494 168.037 33.9028C168.093 34.0562 168.117 34.2197 168.11 34.3834V34.7572C167.914 34.6839 167.713 34.6312 167.507 34.5998C167.297 34.5697 167.085 34.5544 166.873 34.5539C166.553 34.5468 166.235 34.6024 165.934 34.7178C165.685 34.8087 165.465 34.97 165.3 35.1834C165.145 35.3866 165.065 35.6396 165.072 35.8982C165.076 36.1298 165.14 36.3561 165.256 36.554C165.382 36.7644 165.562 36.9346 165.776 37.0459C166.004 37.171 166.26 37.2341 166.518 37.2295C166.841 37.2274 167.161 37.1559 167.456 37.0196C167.751 36.8936 168.009 36.6902 168.205 36.4294V36.7508C168.212 36.8544 168.255 36.952 168.325 37.0262C168.364 37.0712 168.412 37.1064 168.466 37.1291C168.52 37.1519 168.578 37.1615 168.636 37.1574C168.67 37.1641 168.704 37.1641 168.737 37.1574H168.89V36.7245C168.833 36.7244 168.778 36.7008 168.737 36.659C168.719 36.6367 168.704 36.6106 168.696 36.5824C168.687 36.5542 168.684 36.5245 168.687 36.495ZM168.129 35.8392C168.124 35.9055 168.107 35.9702 168.078 36.0294C168.039 36.1107 167.992 36.1876 167.938 36.2589C167.795 36.4409 167.61 36.5829 167.399 36.6721C167.161 36.7772 166.904 36.8307 166.645 36.8295C166.45 36.8346 166.258 36.7872 166.087 36.6917C165.938 36.6092 165.813 36.487 165.725 36.3376C165.643 36.1995 165.599 36.0407 165.598 35.8786C165.598 35.7445 165.632 35.6127 165.698 35.4972C165.764 35.3817 165.859 35.2868 165.973 35.2228C166.266 35.0453 166.603 34.9588 166.943 34.9736C167.145 34.9737 167.347 34.9934 167.545 35.0326C167.744 35.0724 167.939 35.1295 168.129 35.2031V35.8392Z" fill="white"/>
<path d="M22.5571 34.7573H0.202931C0.148535 34.759 0.0969209 34.7826 0.0590358 34.823C0.0211507 34.8634 -2.49702e-05 34.9175 2.20975e-08 34.9737C2.20975e-08 35.0294 0.0213802 35.0828 0.0594372 35.1221C0.0974943 35.1615 0.149111 35.1836 0.202931 35.1836H22.5571C22.6109 35.1836 22.6625 35.1615 22.7006 35.1221C22.7386 35.0828 22.76 35.0294 22.76 34.9737C22.7609 34.9456 22.7563 34.9176 22.7464 34.8914C22.7366 34.8652 22.7218 34.8413 22.7029 34.8211C22.6839 34.8009 22.6613 34.7849 22.6362 34.7739C22.6112 34.7629 22.5843 34.7573 22.5571 34.7573Z" fill="white"/>
<path d="M195.797 34.7573H173.443C173.416 34.7573 173.389 34.7629 173.364 34.7739C173.339 34.7849 173.316 34.8009 173.297 34.8211C173.278 34.8413 173.263 34.8652 173.254 34.8914C173.244 34.9176 173.239 34.9456 173.24 34.9737C173.24 35.0294 173.261 35.0828 173.3 35.1221C173.338 35.1615 173.389 35.1836 173.443 35.1836H195.797C195.851 35.1836 195.903 35.1615 195.941 35.1221C195.979 35.0828 196 35.0294 196 34.9737C196 34.9175 195.979 34.8634 195.941 34.823C195.903 34.7826 195.852 34.759 195.797 34.7573Z" fill="white"/>
<path d="M95.4159 19.4705H95.3968V11.7059H95.4159V4.87256H92.968V24.3758H95.4159V19.4705Z" fill="white"/>
<path d="M108.429 24.3758L100.026 12.4273L106.869 4.87256H105.518L96.5828 14.5849V16.2309L98.4599 14.152L105.626 24.3758H108.429Z" fill="white"/>
<path d="M136.243 7.96805C135.359 6.9349 134.28 6.10014 133.072 5.51539C131.631 4.83322 130.059 4.50122 128.475 4.54482C127.14 4.52826 125.813 4.76613 124.562 5.24651C123.424 5.69084 122.371 6.34152 121.454 7.16799C120.571 7.96264 119.84 8.92133 119.298 9.99445C118.755 11.0542 118.394 12.2037 118.233 13.3915H116.096V14.6244H118.233C118.224 16.2113 118.56 17.7801 119.216 19.2149C119.788 20.4222 120.6 21.4906 121.6 22.3496C122.567 23.1633 123.679 23.7737 124.872 24.1465C126.046 24.5205 127.266 24.7128 128.494 24.717C129.893 24.7321 131.282 24.4579 132.578 23.9104C133.778 23.4028 134.872 22.6589 135.799 21.72C136.707 20.7891 137.427 19.6805 137.917 18.4589C138.407 17.2373 138.657 15.9272 138.653 14.6047C138.64 13.45 138.439 12.3059 138.057 11.2208C137.656 10.0277 137.041 8.92398 136.243 7.96805ZM135.203 18.7231C134.766 19.7608 134.132 20.6974 133.339 21.4774C132.641 22.1544 131.816 22.6767 130.916 23.0119C130.146 23.3074 129.334 23.4671 128.513 23.4841C127.673 23.4682 126.841 23.3087 126.052 23.0119C125.138 22.6825 124.3 22.1599 123.591 21.4774C122.784 20.7017 122.137 19.7647 121.689 18.7231C121.145 17.4227 120.883 16.0146 120.922 14.5981C120.885 13.1875 121.149 11.7859 121.695 10.4929C122.143 9.45897 122.791 8.53062 123.598 7.76476C124.31 7.09287 125.148 6.57751 126.058 6.24988C126.847 5.95091 127.679 5.78915 128.519 5.77115C129.339 5.78902 130.151 5.94633 130.922 6.23676C131.821 6.55977 132.646 7.07101 133.345 7.73853C134.138 8.51688 134.771 9.45398 135.203 10.4929C135.739 11.8 135.997 13.2115 135.958 14.6309C135.99 16.0349 135.733 17.4299 135.203 18.7231Z" fill="white"/>
<path d="M114.922 17.8245H114.91V10.0599H114.922V4.87256H112.468V24.3758H114.922V17.8245Z" fill="white"/>
<path d="M146.206 6.09891H149.028C149.715 6.08662 150.397 6.22986 151.025 6.51862C151.569 6.78003 152.055 7.15515 152.452 7.62035C152.832 8.07786 153.121 8.60822 153.302 9.18114C153.488 9.72231 153.585 10.2921 153.587 10.8665C153.586 11.4191 153.501 11.968 153.334 12.4929C153.163 13.0433 152.882 13.5504 152.509 13.9815C152.113 14.4437 151.626 14.8146 151.082 15.0702C150.429 15.3639 149.721 15.5071 149.009 15.4899C148.451 15.4899 147.937 15.4899 147.474 15.4177H147.392V16.5457L147.715 16.5982C148.303 16.6883 148.896 16.7321 149.491 16.7293C150.481 16.7485 151.466 16.5864 152.401 16.2506C153.186 15.9656 153.906 15.5194 154.52 14.939C155.068 14.4082 155.501 13.762 155.788 13.0438C156.08 12.3165 156.226 11.5358 156.219 10.7485C156.221 9.98413 156.094 9.22528 155.845 8.50567C155.613 7.79955 155.235 7.15475 154.735 6.61699C154.192 6.06388 153.545 5.63295 152.833 5.35131C151.962 5.01913 151.04 4.85897 150.112 4.87913H143.809V24.3759H146.256L146.206 6.09891Z" fill="white"/>
<path d="M163.277 4.87939H160.823V24.3761H163.277V4.87939Z" fill="white"/>
<path d="M173.481 24.3758H176.284L167.875 12.4273L174.718 4.87256H173.373L164.476 14.5389V16.185L166.315 14.152L173.481 24.3758Z" fill="white"/>
<path d="M84.0517 24.3758H86.4996V4.87256H84.0517L74.0383 20.2968V22.5593L84.0517 6.96454V24.3758Z" fill="white"/>
<path d="M72.8524 18.3032H72.8714V4.87256H70.4236V24.3758H72.8524V18.3032Z" fill="white"/>
<path d="M50.2191 4.87939H47.7649V24.3761H50.2191V4.87939Z" fill="white"/>
<path d="M61.5073 24.3758H63.9551V4.87256H61.5073V13.3979H51.4558V14.6832H61.5073V24.3758Z" fill="white"/>
<path d="M2.65708 8.58435H2.76489L10.7299 23.9889H11.0597L19.0248 8.58435H19.1326V24.3758H21.5868V4.87256H19.7287L10.9963 21.6149H10.7934L2.06097 4.87256H0.202881V24.3758H2.65708V8.58435Z" fill="white"/>
</g>
<defs>
<clipPath id="clip0_35_3011">
<rect width="196" height="39" fill="white"/>
</clipPath>
</defs>
</svg>
