<svg width="196" height="39" viewBox="0 0 196 39" fill="none" xmlns="http://www.w3.org/2000/svg">
<g clip-path="url(#clip0_35_2431)">
<path d="M40.6243 24.7103H43.0722V23.7987C43.1229 22.133 43.1293 20.5657 43.1103 18.8934C43.1103 17.9097 43.1103 16.8277 43.0595 15.844C43.0595 15.3521 43.0278 14.8603 43.0151 14.3619V13.6274C43.0151 13.3585 43.0151 13.0831 42.9644 12.8076C42.9137 12.5322 42.901 12.283 42.8566 12.0207C42.8566 12.0207 42.0893 4.09216 35.9379 0.170515C35.7459 0.0538701 35.5263 -0.00517187 35.3037 8.6792e-06H34.1179C33.906 0.000783138 33.6981 0.0596163 33.5154 0.170515C27.3577 4.09216 26.6348 12.0141 26.6348 12.0141C26.5904 12.2765 26.5523 12.5388 26.527 12.8011C26.5016 13.0634 26.4889 13.352 26.4762 13.6208V14.3553C26.4762 14.8537 26.4762 15.3456 26.4318 15.8374C26.4318 16.8211 26.3874 17.9032 26.3811 18.8868C26.3811 20.5591 26.3811 22.1265 26.4192 23.7922V24.7037H28.867V18.9524C28.867 18.9524 28.6704 5.4562 33.7564 1.24602C34.0618 1.00934 34.4023 0.825517 34.7647 0.701707C35.1265 0.826979 35.4668 1.01069 35.773 1.24602C40.8463 5.46276 40.6624 18.9524 40.6624 18.9524L40.6243 24.7103Z" fill="#1D1D1B"/>
<path d="M34.7267 15.3193C34.2965 15.3193 33.8759 15.4513 33.5182 15.6984C33.1605 15.9456 32.8817 16.2969 32.7171 16.7079C32.5525 17.1189 32.5094 17.5712 32.5933 18.0075C32.6772 18.4439 32.8844 18.8447 33.1886 19.1592C33.4928 19.4738 33.8804 19.6881 34.3023 19.7749C34.7243 19.8616 35.1616 19.8171 35.5591 19.6469C35.9565 19.4766 36.2963 19.1883 36.5353 18.8184C36.7743 18.4485 36.9019 18.0136 36.9019 17.5687C36.9019 16.9721 36.6727 16.4 36.2648 15.9782C35.8568 15.5563 35.3036 15.3193 34.7267 15.3193Z" fill="#1D1D1B"/>
<path d="M178.833 24.7103H181.287V18.9524C181.287 18.9524 181.084 5.45619 186.177 1.246C186.482 1.00933 186.823 0.825506 187.185 0.701696C187.547 0.826968 187.887 1.01068 188.193 1.246C193.267 5.46275 193.076 18.9524 193.076 18.9524V24.7103H195.531V23.7987C195.581 22.133 195.581 20.5657 195.569 18.8934C195.569 17.9097 195.531 16.8276 195.512 15.844C195.512 15.3521 195.512 14.8603 195.467 14.3619V13.6274C195.467 13.3585 195.467 13.0831 195.417 12.8076C195.366 12.5322 195.359 12.283 195.315 12.0207C195.315 12.0207 194.56 4.09214 188.403 0.170504C188.223 0.0586452 188.017 -0.000306956 187.807 -2.24344e-06H186.589C186.366 -0.0073398 186.146 0.0518554 185.955 0.170504C179.797 4.10526 179.062 12.0141 179.062 12.0141C179.017 12.2764 178.979 12.5388 178.954 12.8011C178.928 13.0634 178.916 13.3519 178.903 13.6208V14.3553C178.903 14.8537 178.865 15.3455 178.859 15.8374C178.859 16.8211 178.808 17.9031 178.808 18.8868C178.808 20.5591 178.808 22.1264 178.808 23.7922L178.833 24.7103Z" fill="#1D1D1B"/>
<path d="M187.198 19.8181C188.399 19.8181 189.373 18.811 189.373 17.5687C189.373 16.3264 188.399 15.3193 187.198 15.3193C185.997 15.3193 185.023 16.3264 185.023 17.5687C185.023 18.811 185.997 19.8181 187.198 19.8181Z" fill="#1D1D1B"/>
<path d="M30.2368 36.3834C30.1049 36.5038 29.9521 36.5973 29.7865 36.6588C29.6151 36.7295 29.4321 36.7651 29.2475 36.7637C28.9696 36.7674 28.6973 36.6827 28.4675 36.5211C28.226 36.3567 28.0295 36.1309 27.8967 35.8653C27.7529 35.587 27.6788 35.2759 27.6811 34.9603C27.6865 34.6595 27.7626 34.3646 27.9031 34.1012C28.0311 33.8344 28.226 33.6079 28.4675 33.4454C28.7034 33.2937 28.976 33.2141 29.2539 33.2159C29.5046 33.2142 29.7515 33.2798 29.9705 33.4061C30.1828 33.5325 30.3582 33.7161 30.4778 33.9373L31.0168 33.7602C30.8706 33.4395 30.6341 33.1721 30.3383 32.9929C30.0155 32.7973 29.6469 32.6975 29.2729 32.7044C28.8804 32.6978 28.4939 32.8046 28.1568 33.0126C27.8369 33.2087 27.5758 33.4924 27.4021 33.8323C27.2172 34.1819 27.1233 34.5751 27.1294 34.9734C27.1208 35.2729 27.1682 35.5713 27.2689 35.8522C27.374 36.1236 27.5266 36.3726 27.7192 36.5867C27.912 36.8013 28.145 36.9731 28.4041 37.0916C28.675 37.2178 28.9695 37.2805 29.2665 37.2752C29.5289 37.2781 29.7893 37.2291 30.0339 37.131C30.2664 37.0433 30.4814 36.9122 30.668 36.7441C30.8378 36.5887 30.9684 36.3928 31.0485 36.1735L30.4968 36.0096C30.4435 36.1557 30.3538 36.2847 30.2368 36.3834Z" fill="#1D1D1B"/>
<path d="M34.9993 33.0192C34.6693 32.8045 34.2855 32.695 33.8958 32.7044C33.5074 32.6989 33.1253 32.8057 32.7924 33.0126C32.4733 33.2146 32.211 33.4995 32.0314 33.8389C31.8481 34.1844 31.7542 34.5729 31.7587 34.9669C31.7577 35.5736 31.9851 36.1569 32.3929 36.5932C32.5914 36.8057 32.8301 36.9735 33.0942 37.0864C33.3582 37.1992 33.6419 37.2546 33.9275 37.249C34.1961 37.2525 34.4629 37.2035 34.7139 37.1048C34.9474 37.0161 35.1625 36.8826 35.348 36.7113C35.518 36.5518 35.6541 36.3575 35.7476 36.1407L35.2656 36.003C35.158 36.2528 34.9727 36.4583 34.7393 36.5867C34.4978 36.7292 34.2245 36.8038 33.9466 36.8031C33.6795 36.8034 33.417 36.731 33.1856 36.5932C32.9512 36.4503 32.7568 36.2469 32.6212 36.003C32.4681 35.7582 32.3725 35.4797 32.3421 35.1898H36.0076C36.0125 35.1572 36.0125 35.1241 36.0076 35.0915V34.9603C36.0165 34.5691 35.9271 34.1821 35.7481 33.8373C35.5692 33.4925 35.3068 33.2015 34.9866 32.9929L34.9993 33.0192ZM32.3421 34.757C32.3587 34.462 32.4458 34.1758 32.5958 33.9242C32.7288 33.6832 32.922 33.4836 33.1551 33.3463C33.3883 33.209 33.6529 33.139 33.9212 33.1438C34.1899 33.1394 34.4549 33.2096 34.6885 33.3471C34.9225 33.4841 35.1189 33.6805 35.2593 33.9176C35.4074 34.1725 35.4944 34.4603 35.5129 34.757H32.3421Z" fill="#1D1D1B"/>
<path d="M36.5847 33.2946H38.113V37.19H38.6774V33.2946H40.2058V32.7765H36.5847V33.2946Z" fill="#1D1D1B"/>
<path d="M42.7994 34.3308H41.6833V32.7896H41.1252V37.2031H42.8375C43.1141 37.2136 43.3883 37.1456 43.6302 37.0064C43.8352 36.8817 44.0022 36.6999 44.1121 36.4818C44.2232 36.2518 44.2797 35.9978 44.277 35.7407C44.2838 35.555 44.2541 35.3697 44.1898 35.1962C44.1255 35.0226 44.0279 34.8643 43.9029 34.7308C43.7539 34.5916 43.5796 34.4845 43.3901 34.4158C43.2007 34.3471 42.9998 34.3182 42.7994 34.3308ZM43.6112 36.226C43.5464 36.3764 43.4406 36.5041 43.3068 36.5932C43.1416 36.6926 42.9522 36.7405 42.7614 36.731H41.6833V34.7636H42.7487C42.9489 34.7535 43.1481 34.7988 43.3258 34.8947C43.4598 34.973 43.5647 35.0954 43.6238 35.2423C43.683 35.3922 43.7131 35.5526 43.7126 35.7145C43.7149 35.8906 43.6803 36.0651 43.6112 36.226Z" fill="#1D1D1B"/>
<path d="M50.403 36.3834C50.2712 36.5039 50.1184 36.5973 49.9528 36.6588C49.7812 36.7289 49.5982 36.7645 49.4137 36.7637C49.1339 36.767 48.8597 36.6824 48.6274 36.5211C48.3877 36.3565 48.1932 36.1306 48.063 35.8653C47.9162 35.5882 47.8419 35.2762 47.8473 34.9603C47.8488 34.6606 47.9206 34.3658 48.0566 34.1012C48.1847 33.8344 48.3796 33.6079 48.621 33.4454C48.8429 33.3072 49.0958 33.2309 49.3548 33.224C49.6138 33.2171 49.8701 33.2798 50.0986 33.4061C50.311 33.5325 50.4863 33.7161 50.6059 33.9373L51.145 33.7602C50.9981 33.4379 50.759 33.17 50.4601 32.9929C50.1396 32.7976 49.773 32.6977 49.401 32.7044C49.0085 32.6979 48.622 32.8046 48.2849 33.0126C47.9788 33.2158 47.7295 33.4984 47.562 33.8324C47.382 34.1836 47.2904 34.576 47.2956 34.9734C47.2931 35.2742 47.3469 35.5726 47.4542 35.8522C47.5568 36.1249 47.7097 36.3744 47.9044 36.5867C48.0972 36.8013 48.3302 36.9732 48.5893 37.0916C48.8582 37.2171 49.1505 37.2797 49.4454 37.2753C49.7099 37.2786 49.9725 37.2297 50.2191 37.131C50.452 37.044 50.6671 36.9128 50.8533 36.7441C51.0248 36.5889 51.1575 36.3932 51.2401 36.1735L50.6884 36.0096C50.6281 36.1588 50.5294 36.2881 50.403 36.3834Z" fill="#1D1D1B"/>
<path d="M51.7983 33.2946H53.3267V37.19H53.8847V33.2946H55.4194V32.7765H51.7983V33.2946Z" fill="#1D1D1B"/>
<path d="M58.0194 36.5736L56.4404 32.7896H55.8442L57.7467 37.1441L57.5375 37.6884C57.4465 37.9231 57.3249 38.1437 57.176 38.3442C57.1269 38.4078 57.0654 38.46 56.9954 38.4973C56.9255 38.5346 56.8487 38.5562 56.7701 38.5606C56.7134 38.5705 56.6556 38.5705 56.5989 38.5606L56.4404 38.4163L56.2311 38.8229C56.3239 38.8764 56.4216 38.9203 56.5228 38.9541C56.6417 38.9938 56.7671 39.008 56.8915 38.9955C57.0158 38.9831 57.1364 38.9445 57.2457 38.882C57.3971 38.7821 57.5285 38.6529 57.6326 38.5016C57.7731 38.2989 57.8882 38.0785 57.975 37.8458L60.0234 32.7896H59.4653L58.0194 36.5736Z" fill="#1D1D1B"/>
<path d="M64.3164 32.7896H61.5135V34.0029C61.503 34.4417 61.4691 34.8795 61.412 35.3144C61.3751 35.5942 61.3092 35.869 61.2154 36.1342C61.1599 36.2971 61.0636 36.442 60.9364 36.5539C60.838 36.6314 60.7176 36.6729 60.5939 36.6719H60.5178V38.2196H61.0125V37.19H64.4179V38.2196H64.9189V36.6719H64.3418L64.3164 32.7896ZM63.7584 36.6851H61.412C61.5446 36.5569 61.6448 36.397 61.7037 36.2194C61.8 35.9501 61.868 35.6709 61.9066 35.3866C61.9627 34.9515 61.9966 34.5137 62.0081 34.075V33.3143H63.733L63.7584 36.6851Z" fill="#1D1D1B"/>
<path d="M66.4599 36.4096V32.7831H65.8955V37.19H66.4409L69.0092 33.6225V37.19H69.5673V32.7765H69.0663L66.4599 36.4096Z" fill="#1D1D1B"/>
<path d="M71.508 36.4096V32.7831H70.95V37.19H71.489L74.0573 33.6225V37.19H74.6217V32.7765H74.1144L71.508 36.4096Z" fill="#1D1D1B"/>
<path d="M72.2182 31.6617C72.1599 31.6083 72.1133 31.5427 72.0816 31.4691C72.0499 31.3956 72.0337 31.3159 72.0343 31.2354H71.6221C71.6246 31.3609 71.6531 31.4843 71.7056 31.5974C71.7581 31.7105 71.8334 31.8107 71.9265 31.8912C72.1725 32.0869 72.4793 32.1826 72.7889 32.1601C73.0964 32.181 73.4007 32.0854 73.645 31.8912C73.7381 31.8107 73.8134 31.7105 73.8659 31.5974C73.9184 31.4843 73.9469 31.3609 73.9494 31.2354H73.5626C73.5504 31.4011 73.4779 31.5557 73.3597 31.6682C73.198 31.7889 73.0005 31.8469 72.8016 31.8322C72.5936 31.8502 72.3863 31.7897 72.2182 31.6617Z" fill="#1D1D1B"/>
<path d="M80.5447 35.8194L78.8388 32.7765H78.2617V37.19H78.7944V33.6356L80.3608 36.4031H80.7223L82.2696 33.6356V37.19H82.8023V32.7765H82.2506L80.5447 35.8194Z" fill="#1D1D1B"/>
<path d="M87.4761 36.4949V34.4554C87.4924 34.2159 87.4602 33.9756 87.3816 33.7497C87.303 33.5239 87.1796 33.3175 87.0195 33.1438C86.8486 32.9828 86.6485 32.8588 86.4307 32.7788C86.2129 32.6989 85.9819 32.6647 85.7511 32.6782C85.4721 32.6792 85.1953 32.7302 84.9331 32.829C84.6406 32.9397 84.3634 33.0896 84.1087 33.2749L84.3243 33.6815C84.5402 33.5265 84.772 33.3968 85.0155 33.2946C85.2323 33.2094 85.4621 33.165 85.6941 33.1635C85.8558 33.1536 86.0177 33.1775 86.1703 33.2339C86.3228 33.2902 86.4628 33.3778 86.5819 33.4913C86.6918 33.6093 86.7772 33.7493 86.8328 33.9027C86.8885 34.0561 86.9131 34.2196 86.9053 34.3832V34.757C86.7103 34.683 86.5084 34.6303 86.3029 34.5996C86.0928 34.5691 85.8809 34.5538 85.6687 34.5537C85.3465 34.5458 85.0258 34.6015 84.7238 34.7177C84.474 34.8076 84.2541 34.9691 84.0896 35.1833C83.9305 35.3844 83.8471 35.6383 83.855 35.8981C83.8573 36.1309 83.9232 36.3583 84.0453 36.5539C84.1685 36.7644 84.3465 36.9349 84.5589 37.0457C84.7892 37.1716 85.0468 37.2348 85.3072 37.2294C85.6307 37.2267 85.9502 37.1553 86.2458 37.0195C86.5391 36.8907 86.7964 36.6877 86.9941 36.4293V36.7506C87.0022 36.8528 87.0423 36.9495 87.1082 37.0261C87.1475 37.0703 87.1957 37.105 87.2494 37.1277C87.3031 37.1503 87.361 37.1604 87.419 37.1572C87.4525 37.164 87.4869 37.164 87.5204 37.1572H87.679V36.7244C87.6496 36.7252 87.6204 36.7198 87.5932 36.7085C87.5659 36.6973 87.5412 36.6803 87.5204 36.6588C87.487 36.6115 87.4712 36.5533 87.4761 36.4949ZM86.918 35.8391C86.9137 35.9054 86.8964 35.9701 86.8673 36.0293C86.8309 36.1119 86.784 36.1891 86.7277 36.2588C86.5855 36.4423 86.3998 36.5846 86.1887 36.6719C85.9505 36.7781 85.6935 36.8317 85.4341 36.8293C85.2397 36.8336 85.0476 36.7862 84.876 36.6916C84.7271 36.6091 84.6022 36.4868 84.5145 36.3375C84.4343 36.1988 84.3926 36.04 84.394 35.8784C84.3926 35.745 84.426 35.6136 84.4907 35.4982C84.5555 35.3828 84.6491 35.2876 84.7619 35.2226C85.0555 35.0452 85.3923 34.9587 85.7321 34.9734C85.9449 34.9719 86.1572 34.9917 86.3663 35.0325C86.563 35.0723 86.756 35.1293 86.9434 35.203L86.918 35.8391Z" fill="#1D1D1B"/>
<path d="M91.8519 34.6718H89.404V32.7765H88.8459V37.19H89.404V35.1898H91.8519V37.19H92.4163V32.7765H91.8519V34.6718Z" fill="#1D1D1B"/>
<path d="M94.363 36.4096V32.7831H93.8049V37.19H94.3503L96.9123 33.6225V37.19H97.4767V32.7765H96.9694L94.363 36.4096Z" fill="#1D1D1B"/>
<path d="M102.138 32.7765H101.497L100.058 34.6652H99.4174V32.7765H98.853V37.19H99.4174V35.1964H100.058L101.688 37.19H102.341L100.502 34.9144L102.138 32.7765Z" fill="#1D1D1B"/>
<path d="M107.807 33.0126C107.478 32.8022 107.097 32.6951 106.71 32.7044C106.369 32.6996 106.032 32.7878 105.734 32.9601C105.448 33.1303 105.209 33.3743 105.042 33.6684C104.86 33.993 104.752 34.3564 104.725 34.7308H103.869V32.7896H103.311V37.2031H103.869V35.2357H104.725C104.751 35.6023 104.855 35.9584 105.03 36.2785C105.196 36.5862 105.44 36.8411 105.737 37.0156C106.033 37.1901 106.369 37.2776 106.71 37.2687C107.091 37.2773 107.467 37.175 107.795 36.9736C108.104 36.783 108.355 36.5056 108.517 36.1735C108.689 35.8075 108.778 35.4062 108.778 34.9997C108.778 34.5931 108.689 34.1918 108.517 33.8258C108.358 33.4922 108.112 33.2108 107.807 33.0126ZM108.017 35.9112C107.905 36.177 107.722 36.4045 107.49 36.567C107.258 36.7221 106.986 36.802 106.71 36.7965C106.448 36.7997 106.19 36.7246 105.968 36.5801C105.745 36.428 105.567 36.2145 105.454 35.9637C105.328 35.671 105.265 35.3531 105.271 35.0325C105.265 34.7097 105.328 34.3897 105.454 34.0947C105.564 33.8421 105.74 33.6263 105.962 33.4717C106.184 33.3215 106.445 33.2439 106.71 33.2487C106.981 33.2439 107.248 33.3214 107.477 33.4717C107.706 33.6211 107.889 33.835 108.004 34.0881C108.143 34.3816 108.21 34.7058 108.2 35.0325C108.199 35.3361 108.134 35.6358 108.01 35.9112H108.017Z" fill="#1D1D1B"/>
<path d="M113.426 33.4061C113.246 33.1972 113.032 33.0238 112.792 32.8946C112.537 32.7671 112.257 32.702 111.974 32.7044C111.652 32.703 111.336 32.7938 111.061 32.9667C110.786 33.124 110.552 33.3493 110.382 33.6225V32.7896H109.881V39.0131H110.439V36.2784C110.607 36.565 110.837 36.8075 111.111 36.9867C111.405 37.1835 111.748 37.2882 112.097 37.2882C112.447 37.2882 112.79 37.1835 113.084 36.9867C113.378 36.7749 113.614 36.488 113.769 36.1538C113.93 35.799 114.012 35.4114 114.009 35.0193C114.008 34.4358 113.803 33.8723 113.432 33.4323L113.426 33.4061ZM113.325 35.6423C113.259 35.8508 113.156 36.0444 113.02 36.2129C112.888 36.3794 112.724 36.5157 112.538 36.6129C112.342 36.7172 112.124 36.769 111.904 36.7637C111.684 36.7705 111.467 36.7209 111.27 36.6195C110.88 36.4132 110.573 36.072 110.401 35.6554V34.3045C110.423 34.1539 110.482 34.0116 110.572 33.8914C110.669 33.7563 110.787 33.6388 110.921 33.5438C111.056 33.4389 111.205 33.3569 111.365 33.3011C111.507 33.2455 111.657 33.2166 111.809 33.2159C112.028 33.211 112.246 33.2605 112.443 33.3602C112.635 33.4573 112.809 33.5883 112.957 33.7471C113.103 33.9109 113.217 34.1024 113.293 34.3111C113.438 34.7354 113.438 35.1983 113.293 35.6227L113.325 35.6423Z" fill="#1D1D1B"/>
<path d="M118.385 36.4949V34.4554C118.402 34.2159 118.369 33.9756 118.291 33.7497C118.212 33.5239 118.089 33.3175 117.929 33.1438C117.758 32.9828 117.558 32.8588 117.34 32.7788C117.122 32.6989 116.891 32.6647 116.66 32.6782C116.381 32.6792 116.104 32.7302 115.842 32.829C115.55 32.9397 115.273 33.0896 115.018 33.2749L115.233 33.6815C115.449 33.5265 115.681 33.3968 115.925 33.2946C116.141 33.2094 116.371 33.165 116.603 33.1635C116.765 33.1536 116.927 33.1775 117.079 33.2339C117.232 33.2902 117.372 33.3778 117.491 33.4913C117.601 33.6093 117.686 33.7493 117.742 33.9027C117.798 34.0561 117.822 34.2196 117.814 34.3832V34.757C117.609 34.6807 117.397 34.628 117.18 34.5996C116.97 34.5691 116.758 34.5538 116.546 34.5537C116.224 34.5458 115.903 34.6015 115.601 34.7177C115.351 34.8076 115.131 34.9691 114.967 35.1833C114.81 35.3858 114.727 35.6388 114.732 35.8981C114.735 36.1309 114.801 36.3583 114.923 36.5539C115.046 36.7644 115.224 36.9349 115.436 37.0457C115.667 37.1716 115.924 37.2348 116.185 37.2294C116.508 37.2267 116.828 37.1553 117.123 37.0195C117.416 36.8907 117.674 36.6877 117.871 36.4293V36.7506C117.88 36.8528 117.92 36.9495 117.986 37.0261C118.025 37.0703 118.073 37.105 118.127 37.1277C118.181 37.1503 118.238 37.1604 118.296 37.1572C118.33 37.164 118.364 37.164 118.398 37.1572H118.556V36.7244C118.527 36.7252 118.498 36.7198 118.471 36.7085C118.443 36.6973 118.419 36.6803 118.398 36.6588C118.375 36.6074 118.371 36.5494 118.385 36.4949ZM117.827 35.8391C117.823 35.9054 117.806 35.9701 117.776 36.0293C117.74 36.1119 117.693 36.1891 117.637 36.2588C117.495 36.4423 117.309 36.5846 117.098 36.6719C116.862 36.7774 116.607 36.831 116.35 36.8293C116.153 36.8344 115.959 36.787 115.785 36.6916C115.636 36.6091 115.511 36.4868 115.424 36.3375C115.343 36.1988 115.302 36.04 115.303 35.8784C115.302 35.745 115.335 35.6136 115.4 35.4982C115.465 35.3828 115.558 35.2876 115.671 35.2226C115.965 35.0452 116.301 34.9587 116.641 34.9734C116.854 34.9719 117.066 34.9917 117.275 35.0325C117.472 35.0723 117.665 35.1293 117.852 35.203L117.827 35.8391Z" fill="#1D1D1B"/>
<path d="M122.577 36.4096V32.7831H122.012V37.19H122.558L125.126 33.6225V37.19H125.684V32.7765H125.183L122.577 36.4096Z" fill="#1D1D1B"/>
<path d="M129.331 37.19H129.889V33.2946H132.216V37.19H132.774V32.7765H129.331V37.19Z" fill="#1D1D1B"/>
<path d="M137.125 33.0192C136.792 32.8047 136.407 32.6952 136.015 32.7044C135.629 32.6998 135.249 32.8065 134.918 33.0126C134.599 33.2146 134.336 33.4995 134.157 33.8389C133.971 34.1837 133.875 34.5723 133.878 34.9669C133.877 35.2717 133.931 35.5741 134.036 35.8588C134.143 36.1294 134.295 36.3781 134.487 36.5932C134.679 36.8068 134.912 36.9766 135.171 37.0916C135.44 37.2171 135.733 37.2798 136.028 37.2753C136.296 37.2781 136.563 37.2292 136.814 37.131C137.048 37.044 137.264 36.9103 137.448 36.7375C137.622 36.58 137.76 36.3854 137.854 36.167L137.366 36.0293C137.26 36.2786 137.077 36.4841 136.846 36.6129C136.604 36.7545 136.331 36.8291 136.053 36.8293C135.786 36.8315 135.523 36.759 135.292 36.6195C135.057 36.4749 134.861 36.272 134.721 36.0293C134.574 35.7734 134.485 35.4864 134.461 35.1898H138.133C138.137 35.1572 138.137 35.1241 138.133 35.0915V34.9603C138.141 34.5699 138.052 34.1839 137.875 33.8393C137.697 33.4948 137.436 33.2033 137.118 32.9929L137.125 33.0192ZM134.442 34.757C134.456 34.4625 134.541 34.1763 134.689 33.9242C134.827 33.6854 135.021 33.4868 135.254 33.3471C135.487 33.2096 135.752 33.1394 136.021 33.1438C136.29 33.1403 136.555 33.2104 136.789 33.3471C137.022 33.4841 137.219 33.6805 137.359 33.9176C137.508 34.1724 137.595 34.4602 137.613 34.757H134.442Z" fill="#1D1D1B"/>
<path d="M142.515 32.7896H139.725L139.687 34.016C139.676 34.4548 139.642 34.8926 139.585 35.3276C139.548 35.6073 139.482 35.8821 139.388 36.1473C139.333 36.3103 139.237 36.4551 139.109 36.567C139.011 36.6445 138.891 36.686 138.767 36.6851H138.691V38.2327H139.186V37.19H142.591V38.2196H143.092V36.6719H142.515V32.7896ZM141.957 36.6851H139.61C139.743 36.5569 139.843 36.397 139.902 36.2194C139.998 35.9501 140.067 35.6709 140.105 35.3866C140.161 34.9515 140.195 34.5137 140.207 34.075V33.3143H141.931L141.957 36.6851Z" fill="#1D1D1B"/>
<path d="M144.658 36.4096V32.7831H144.094V37.19H144.639L147.208 33.6225V37.19H147.766V32.7765H147.265L144.658 36.4096Z" fill="#1D1D1B"/>
<path d="M152.433 32.7765H151.786L150.347 34.6652H149.706V32.7765H149.148V37.19H149.706V35.1964H150.347L151.977 37.19H152.636L150.791 34.9144L152.433 32.7765Z" fill="#1D1D1B"/>
<path d="M158.09 33.0126C157.763 32.8023 157.384 32.6952 156.999 32.7044C156.663 32.6975 156.33 32.7832 156.036 32.9525C155.742 33.1219 155.497 33.3689 155.325 33.6684C155.145 33.9935 155.038 34.3569 155.014 34.7308H154.158V32.7897H153.6V37.2031H154.158V35.2358H155.014C155.035 35.6024 155.137 35.9591 155.312 36.2785C155.479 36.5872 155.725 36.8428 156.022 37.0173C156.319 37.1919 156.657 37.2789 156.999 37.2687C157.378 37.2764 157.752 37.1742 158.077 36.9736C158.387 36.783 158.637 36.5056 158.8 36.1735C158.981 35.8088 159.071 35.4029 159.06 34.9931C159.068 34.5885 158.981 34.188 158.807 33.8258C158.644 33.4918 158.397 33.2104 158.09 33.0126ZM158.299 35.9112C158.19 36.1768 158.01 36.4044 157.779 36.567C157.546 36.7203 157.275 36.8 156.999 36.7965C156.737 36.8012 156.479 36.726 156.257 36.5801C156.031 36.4316 155.852 36.2171 155.744 35.9637C155.614 35.672 155.551 35.3534 155.56 35.0325C155.552 34.7102 155.613 34.3902 155.737 34.0947C155.849 33.8416 156.027 33.6259 156.251 33.4717C156.472 33.318 156.733 33.24 156.999 33.2487C157.269 33.2428 157.534 33.3205 157.76 33.4717C157.992 33.619 158.177 33.8333 158.293 34.0881C158.427 34.3833 158.492 34.7067 158.483 35.0325C158.486 35.3359 158.423 35.6362 158.299 35.9112Z" fill="#1D1D1B"/>
<path d="M163.715 33.4061C163.537 33.1957 163.321 33.0222 163.081 32.8946C162.828 32.7672 162.55 32.7021 162.269 32.7044C161.947 32.703 161.631 32.7938 161.356 32.9667C161.08 33.1255 160.845 33.3504 160.671 33.6225V32.7897H160.17V39.0131H160.728V36.2785C160.896 36.5651 161.126 36.8075 161.4 36.9867C161.695 37.1833 162.039 37.2878 162.389 37.2878C162.74 37.2878 163.084 37.1833 163.379 36.9867C163.673 36.7766 163.907 36.4891 164.057 36.1539C164.221 35.8 164.304 35.4117 164.298 35.0194C164.297 34.4358 164.092 33.8724 163.721 33.4323L163.715 33.4061ZM163.613 35.6424C163.546 35.8512 163.44 36.0448 163.303 36.2129C163.172 36.3811 163.008 36.5176 162.821 36.6129C162.626 36.7194 162.407 36.7714 162.187 36.7638C161.978 36.7638 161.772 36.7144 161.584 36.6195C161.391 36.5186 161.217 36.3832 161.07 36.2195C160.923 36.0531 160.803 35.8625 160.715 35.6555V34.3045C160.743 34.1556 160.801 34.0146 160.887 33.8914C160.986 33.7562 161.106 33.6388 161.242 33.5438C161.375 33.4403 161.522 33.3585 161.679 33.3012C161.821 33.2455 161.971 33.2167 162.123 33.2159C162.343 33.212 162.56 33.2614 162.757 33.3602C162.948 33.4558 163.12 33.587 163.265 33.7471C163.411 33.9123 163.527 34.1034 163.607 34.3111C163.683 34.521 163.724 34.7428 163.728 34.9669C163.728 35.1972 163.689 35.4258 163.613 35.6424Z" fill="#1D1D1B"/>
<path d="M168.687 36.4949V34.4554C168.704 34.2153 168.671 33.9742 168.592 33.7481C168.512 33.522 168.386 33.316 168.224 33.1438C168.054 32.9816 167.854 32.8567 167.636 32.7767C167.418 32.6967 167.186 32.6632 166.955 32.6782C166.674 32.6799 166.396 32.7309 166.131 32.829C165.84 32.9422 165.563 33.092 165.307 33.2749L165.522 33.6815C165.74 33.5264 165.974 33.3966 166.22 33.2946C166.436 33.2085 166.666 33.164 166.898 33.1635C167.06 33.1543 167.222 33.1786 167.374 33.2349C167.527 33.2912 167.667 33.3784 167.786 33.4914C167.896 33.6093 167.982 33.7493 168.037 33.9027C168.093 34.0561 168.117 34.2196 168.11 34.3832V34.757C167.914 34.6838 167.713 34.6311 167.507 34.5996C167.297 34.5696 167.085 34.5543 166.873 34.5537C166.553 34.5467 166.235 34.6023 165.934 34.7177C165.685 34.8085 165.465 34.9699 165.3 35.1833C165.145 35.3865 165.065 35.6395 165.072 35.8981C165.076 36.1297 165.14 36.3559 165.256 36.5539C165.382 36.7642 165.562 36.9344 165.776 37.0458C166.004 37.1708 166.26 37.234 166.518 37.2294C166.841 37.2273 167.161 37.1558 167.456 37.0195C167.751 36.8935 168.009 36.69 168.205 36.4293V36.7506C168.212 36.8543 168.255 36.9519 168.325 37.0261C168.364 37.0711 168.412 37.1063 168.466 37.129C168.52 37.1517 168.578 37.1614 168.636 37.1572C168.67 37.164 168.704 37.164 168.737 37.1572H168.89V36.7244C168.833 36.7243 168.778 36.7007 168.737 36.6588C168.719 36.6365 168.704 36.6105 168.696 36.5823C168.687 36.5541 168.684 36.5243 168.687 36.4949ZM168.129 35.8391C168.124 35.9054 168.107 35.9701 168.078 36.0293C168.039 36.1106 167.992 36.1875 167.938 36.2588C167.795 36.4408 167.61 36.5828 167.399 36.6719C167.161 36.777 166.904 36.8306 166.645 36.8293C166.45 36.8345 166.258 36.787 166.087 36.6916C165.938 36.6091 165.813 36.4868 165.725 36.3375C165.643 36.1994 165.599 36.0406 165.598 35.8784C165.598 35.7444 165.632 35.6125 165.698 35.497C165.764 35.3816 165.859 35.2867 165.973 35.2226C166.266 35.0452 166.603 34.9587 166.943 34.9734C167.145 34.9736 167.347 34.9933 167.545 35.0325C167.744 35.0723 167.939 35.1293 168.129 35.203V35.8391Z" fill="#1D1D1B"/>
<path d="M22.5571 34.757H0.202931C0.148535 34.7587 0.0969209 34.7823 0.0590358 34.8227C0.0211507 34.8631 -2.49702e-05 34.9172 2.20975e-08 34.9734C2.20975e-08 35.0291 0.0213802 35.0825 0.0594372 35.1218C0.0974943 35.1612 0.149111 35.1833 0.202931 35.1833H22.5571C22.6109 35.1833 22.6625 35.1612 22.7006 35.1218C22.7386 35.0825 22.76 35.0291 22.76 34.9734C22.7609 34.9453 22.7563 34.9173 22.7464 34.8911C22.7366 34.8649 22.7218 34.841 22.7029 34.8208C22.6839 34.8006 22.6613 34.7846 22.6362 34.7736C22.6112 34.7626 22.5843 34.757 22.5571 34.757Z" fill="#1D1D1B"/>
<path d="M195.797 34.757H173.443C173.416 34.757 173.389 34.7626 173.364 34.7736C173.339 34.7846 173.316 34.8006 173.297 34.8208C173.278 34.841 173.263 34.8649 173.254 34.8911C173.244 34.9173 173.239 34.9453 173.24 34.9734C173.24 35.0291 173.261 35.0825 173.3 35.1218C173.338 35.1612 173.389 35.1833 173.443 35.1833H195.797C195.851 35.1833 195.903 35.1612 195.941 35.1218C195.979 35.0825 196 35.0291 196 34.9734C196 34.9172 195.979 34.8631 195.941 34.8227C195.903 34.7823 195.852 34.7587 195.797 34.757Z" fill="#1D1D1B"/>
<path d="M95.4159 19.4705H95.3968V11.7059H95.4159V4.87253H92.968V24.3758H95.4159V19.4705Z" fill="#1D1D1B"/>
<path d="M108.429 24.3758L100.026 12.4273L106.869 4.87253H105.518L96.5825 14.5848V16.2309L98.4596 14.152L105.626 24.3758H108.429Z" fill="#1D1D1B"/>
<path d="M136.243 7.96787C135.359 6.93472 134.28 6.09996 133.072 5.51521C131.631 4.83304 130.059 4.50104 128.475 4.54463C127.14 4.52807 125.813 4.76594 124.562 5.24633C123.424 5.69066 122.371 6.34134 121.454 7.1678C120.571 7.96246 119.84 8.92114 119.298 9.99427C118.755 11.054 118.394 12.2035 118.233 13.3913H116.096V14.6242H118.233C118.224 16.2112 118.56 17.7799 119.216 19.2147C119.788 20.4221 120.6 21.4904 121.6 22.3494C122.567 23.1631 123.679 23.7735 124.872 24.1463C126.046 24.5203 127.266 24.7126 128.494 24.7168C129.893 24.7319 131.282 24.4577 132.578 23.9102C133.778 23.4026 134.872 22.6587 135.799 21.7198C136.707 20.7889 137.427 19.6803 137.917 18.4588C138.407 17.2372 138.657 15.927 138.653 14.6045C138.64 13.4498 138.439 12.3057 138.057 11.2206C137.656 10.0275 137.041 8.92379 136.243 7.96787ZM135.203 18.7229C134.766 19.7606 134.132 20.6972 133.339 21.4772C132.641 22.1542 131.816 22.6765 130.916 23.0118C130.146 23.3073 129.334 23.4669 128.513 23.4839C127.673 23.468 126.841 23.3085 126.052 23.0118C125.138 22.6824 124.3 22.1598 123.591 21.4772C122.784 20.7015 122.137 19.7645 121.689 18.7229C121.145 17.4225 120.883 16.0144 120.922 14.5979C120.885 13.1873 121.149 11.7857 121.695 10.4927C122.143 9.45879 122.791 8.53043 123.598 7.76458C124.31 7.09269 125.148 6.57733 126.058 6.24969C126.847 5.95073 127.679 5.78897 128.519 5.77097C129.339 5.78884 130.151 5.94614 130.922 6.23658C131.821 6.55958 132.646 7.07082 133.345 7.73834C134.138 8.5167 134.771 9.45379 135.203 10.4927C135.739 11.7998 135.997 13.2113 135.958 14.6307C135.99 16.0347 135.733 17.4297 135.203 18.7229Z" fill="#1D1D1B"/>
<path d="M114.922 17.8244H114.91V10.0598H114.922V4.87253H112.468V24.3758H114.922V17.8244Z" fill="#1D1D1B"/>
<path d="M146.206 6.09888H149.028C149.715 6.08659 150.397 6.22983 151.025 6.51859C151.569 6.78 152.055 7.15512 152.452 7.62032C152.832 8.07783 153.121 8.60819 153.302 9.1811C153.488 9.72228 153.585 10.2921 153.587 10.8665C153.586 11.419 153.501 11.9679 153.334 12.4929C153.163 13.0433 152.882 13.5504 152.509 13.9815C152.113 14.4437 151.626 14.8146 151.082 15.0701C150.429 15.3639 149.721 15.5071 149.009 15.4898C148.451 15.4898 147.937 15.4898 147.474 15.4177H147.392V16.5457L147.715 16.5981C148.303 16.6882 148.896 16.7321 149.491 16.7293C150.481 16.7484 151.466 16.5864 152.401 16.2506C153.186 15.9655 153.906 15.5194 154.52 14.939C155.068 14.4082 155.501 13.7619 155.788 13.0437C156.08 12.3165 156.226 11.5358 156.219 10.7484C156.221 9.9841 156.094 9.22525 155.845 8.50564C155.613 7.79952 155.235 7.15472 154.735 6.61696C154.192 6.06385 153.545 5.63292 152.833 5.35127C151.962 5.0191 151.04 4.85894 150.112 4.8791H143.809V24.3758H146.256L146.206 6.09888Z" fill="#1D1D1B"/>
<path d="M163.277 4.87909H160.823V24.3758H163.277V4.87909Z" fill="#1D1D1B"/>
<path d="M173.481 24.3758H176.284L167.875 12.4273L174.718 4.87253H173.373L164.476 14.5389V16.185L166.315 14.152L173.481 24.3758Z" fill="#1D1D1B"/>
<path d="M84.0517 24.3758H86.4996V4.87253H84.0517L74.0383 20.2968V22.5593L84.0517 6.96451V24.3758Z" fill="#1D1D1B"/>
<path d="M72.8524 18.3032H72.8714V4.87253H70.4236V24.3758H72.8524V18.3032Z" fill="#1D1D1B"/>
<path d="M50.2191 4.87909H47.7649V24.3758H50.2191V4.87909Z" fill="#1D1D1B"/>
<path d="M61.5073 24.3758H63.9551V4.87253H61.5073V13.3978H51.4558V14.6832H61.5073V24.3758Z" fill="#1D1D1B"/>
<path d="M2.65708 8.58432H2.76489L10.7299 23.9889H11.0597L19.0248 8.58432H19.1326V24.3758H21.5868V4.87253H19.7287L10.9963 21.6149H10.7934L2.06097 4.87253H0.202881V24.3758H2.65708V8.58432Z" fill="#1D1D1B"/>
</g>
<defs>
<clipPath id="clip0_35_2431">
<rect width="196" height="39" fill="white"/>
</clipPath>
</defs>
</svg>
