<svg width="60" height="60" viewBox="0 0 60 60" fill="none" xmlns="http://www.w3.org/2000/svg">
<rect width="60" height="60" rx="10" fill="#1D1D1B"/>
<path d="M32.1417 9.1665C34.4855 9.17275 35.675 9.18525 36.7021 9.21442L37.1063 9.229C37.573 9.24567 38.0334 9.2665 38.5896 9.2915C40.8063 9.39567 42.3188 9.74567 43.6459 10.2603C45.0209 10.7894 46.1792 11.5061 47.3375 12.6623C48.3973 13.7034 49.2171 14.9633 49.7396 16.354C50.2542 17.6811 50.6042 19.1936 50.7084 21.4123C50.7334 21.9665 50.7542 22.4269 50.7709 22.8957L50.7834 23.2998C50.8146 24.3248 50.8271 25.5144 50.8313 27.8582L50.8334 29.4123V32.1415C50.8385 33.6611 50.8225 35.1807 50.7855 36.6998L50.773 37.104C50.7563 37.5728 50.7355 38.0332 50.7105 38.5873C50.6063 40.8061 50.2521 42.3165 49.7396 43.6457C49.2171 45.0364 48.3973 46.2962 47.3375 47.3373C46.2964 48.3971 45.0366 49.2169 43.6459 49.7394C42.3188 50.254 40.8063 50.604 38.5896 50.7082L37.1063 50.7707L36.7021 50.7832C35.675 50.8123 34.4855 50.8269 32.1417 50.8311L30.5875 50.8332H27.8605C26.3402 50.8385 24.8199 50.8226 23.3 50.7853L22.8959 50.7728C22.4013 50.754 21.9069 50.7325 21.4125 50.7082C19.1959 50.604 17.6834 50.254 16.3542 49.7394C14.9643 49.2166 13.7051 48.3969 12.6646 47.3373C11.6041 46.2964 10.7836 45.0365 10.2605 43.6457C9.74588 42.3186 9.39588 40.8061 9.29171 38.5873L9.22921 37.104L9.2188 36.6998C9.18039 35.1807 9.16303 33.6611 9.16671 32.1415V27.8582C9.16095 26.3386 9.17623 24.819 9.21255 23.2998L9.22713 22.8957C9.2438 22.4269 9.26463 21.9665 9.28963 21.4123C9.3938 19.1936 9.7438 17.6832 10.2584 16.354C10.7827 14.9628 11.6047 13.7028 12.6667 12.6623C13.7066 11.6031 14.965 10.7833 16.3542 10.2603C17.6834 9.74567 19.1938 9.39567 21.4125 9.2915C21.9667 9.2665 22.4292 9.24567 22.8959 9.229L23.3 9.2165C24.8192 9.17949 26.3388 9.16351 27.8584 9.16859L32.1417 9.1665ZM30 19.5832C27.2374 19.5832 24.5879 20.6806 22.6344 22.6341C20.6808 24.5876 19.5834 27.2372 19.5834 29.9998C19.5834 32.7625 20.6808 35.412 22.6344 37.3655C24.5879 39.319 27.2374 40.4165 30 40.4165C32.7627 40.4165 35.4122 39.319 37.3657 37.3655C39.3192 35.412 40.4167 32.7625 40.4167 29.9998C40.4167 27.2372 39.3192 24.5876 37.3657 22.6341C35.4122 20.6806 32.7627 19.5832 30 19.5832ZM30 23.7498C30.8208 23.7497 31.6336 23.9112 32.3919 24.2252C33.1502 24.5392 33.8393 24.9994 34.4198 25.5797C35.0002 26.16 35.4607 26.8489 35.7749 27.6071C36.0892 28.3653 36.251 29.178 36.2511 29.9988C36.2512 30.8196 36.0897 31.6323 35.7757 32.3906C35.4618 33.149 35.0015 33.8381 34.4212 34.4185C33.841 34.999 33.1521 35.4595 32.3938 35.7737C31.6356 36.0879 30.8229 36.2497 30.0021 36.2498C28.3445 36.2498 26.7548 35.5914 25.5827 34.4193C24.4106 33.2472 23.7521 31.6574 23.7521 29.9998C23.7521 28.3422 24.4106 26.7525 25.5827 25.5804C26.7548 24.4083 28.3445 23.7498 30.0021 23.7498M40.9396 16.4582C40.249 16.4582 39.5866 16.7325 39.0982 17.2209C38.6098 17.7093 38.3355 18.3717 38.3355 19.0623C38.3355 19.753 38.6098 20.4154 39.0982 20.9038C39.5866 21.3921 40.249 21.6665 40.9396 21.6665C41.6303 21.6665 42.2927 21.3921 42.7811 20.9038C43.2694 20.4154 43.5438 19.753 43.5438 19.0623C43.5438 18.3717 43.2694 17.7093 42.7811 17.2209C42.2927 16.7325 41.6303 16.4582 40.9396 16.4582Z" fill="white"/>
</svg>
