<svg width="61" height="60" viewBox="0 0 61 60" fill="none" xmlns="http://www.w3.org/2000/svg">
<g id="vk">
<rect id="Rectangle 13164" x="0.333252" width="60" height="60" rx="10" fill="#1D1D1B"/>
<path id="Vector" d="M44.1193 31.9773C43.422 31.1242 43.6215 30.7446 44.1193 29.9821C44.1282 29.9733 49.8838 22.2674 50.4768 19.654L50.4804 19.6523C50.7751 18.6999 50.4804 18 49.0554 18H44.3403C43.1399 18 42.5865 18.6007 42.29 19.2727C42.29 19.2727 39.8893 24.8407 36.4931 28.4499C35.3969 29.4928 34.8902 29.8271 34.2918 29.8271C33.9971 29.8271 33.5389 29.4928 33.5389 28.5404V19.6523C33.5389 18.5101 33.2029 18 32.2092 18H24.795C24.0421 18 23.5946 18.5328 23.5946 19.029C23.5946 20.1119 25.2927 20.3609 25.4688 23.4078V30.0186C25.4688 31.4672 25.1975 31.7336 24.5955 31.7336C22.9927 31.7336 19.1023 26.143 16.7968 19.7446C16.3314 18.5032 15.8768 18.0017 14.6675 18.0017H9.9505C8.60459 18.0017 8.33325 18.6024 8.33325 19.2745C8.33325 20.4619 9.93612 26.3658 15.7869 34.1658C19.6863 39.49 25.1777 42.375 30.1732 42.375C33.1759 42.375 33.5425 41.7343 33.5425 40.6322C33.5425 35.5448 33.2711 35.0642 34.7752 35.0642C35.4724 35.0642 36.6727 35.3985 39.476 37.9666C42.6799 41.0117 43.2064 42.375 44.9998 42.375H49.7149C51.059 42.375 51.7401 41.7343 51.3483 40.4703C50.4517 37.8117 44.3924 32.3429 44.1193 31.9773Z" fill="white"/>
</g>
</svg>
