<svg width="61" height="60" viewBox="0 0 61 60" fill="none" xmlns="http://www.w3.org/2000/svg">
<g id="vk">
<rect id="Rectangle 13164" x="0.666748" width="60" height="60" rx="10" fill="#1D1D1B"/>
<g id="Vector">
<path fill-rule="evenodd" clip-rule="evenodd" d="M49.4538 25.5908C48.4852 21.4389 46.119 17.7346 42.7423 15.0841C39.3657 12.4336 35.1785 10.9937 30.8658 11C29.6372 11.0401 28.4125 11.1577 27.1992 11.3522C24.2653 11.9237 21.5089 13.1697 19.1531 14.9892C16.7972 16.8087 14.9081 19.1508 13.6386 21.8257C12.3692 24.5006 11.7551 27.4332 11.846 30.3862C11.937 33.3391 12.7304 36.2294 14.1621 38.8231C14.2237 38.9663 14.2555 39.1204 14.2555 39.276C14.2555 39.4316 14.2237 39.5856 14.1621 39.7288C13.2455 42.6469 12.4306 45.6154 11.6667 48.5336C11.6667 49.0367 11.6667 49.0367 12.0232 48.8858L21.2408 46.521C21.3492 46.4592 21.4722 46.4267 21.5973 46.4267C21.7225 46.4267 21.8454 46.4592 21.9538 46.521C25.1888 48.2019 28.8441 48.9303 32.4857 48.6197C36.1272 48.3091 39.6021 46.9725 42.4976 44.7687C45.3932 42.5649 47.5878 39.5865 48.8208 36.187C50.0538 32.7876 50.2735 29.11 49.4538 25.5908ZM33.514 45.2632C32.788 45.3693 32.0501 45.3693 31.3242 45.2632C28.3115 45.3126 25.3401 44.5657 22.7177 43.0998C22.5706 43.0159 22.4037 42.9717 22.2339 42.9717C22.064 42.9717 21.8972 43.0159 21.7501 43.0998L16.6575 44.4079C16.301 44.4079 16.2501 44.4079 16.3519 44.106C16.8103 42.5463 17.2177 40.9363 17.7269 39.3263C17.8163 39.1551 17.8629 38.9654 17.8629 38.7728C17.8629 38.5803 17.8163 38.3905 17.7269 38.2194C15.9656 35.5877 15.0564 32.4889 15.1201 29.3346C15.1838 26.1802 16.2173 23.1197 18.0834 20.5595C19.8511 18.0716 22.338 16.169 25.2185 15.1007C28.0989 14.0324 31.2388 13.8482 34.2269 14.5722C37.2368 15.0824 40.0147 16.4956 42.1832 18.62C44.3517 20.7444 45.8056 23.4769 46.3473 26.4461C46.8354 28.5198 46.8858 30.6705 46.4953 32.7642C46.1048 34.858 45.2818 36.8497 44.0777 38.6153C42.8735 40.3809 41.3141 41.8824 39.4966 43.0262C37.6791 44.1699 35.6425 44.9315 33.514 45.2632Z" fill="white"/>
<path fill-rule="evenodd" clip-rule="evenodd" d="M35.8566 38.8231C35.201 38.9519 34.5261 38.9519 33.8705 38.8231C29.7184 37.5275 26.13 34.8863 23.6853 31.3265C22.6074 30.045 21.8564 28.5266 21.4955 26.899C21.2742 25.9889 21.3142 25.0359 21.6111 24.147C21.908 23.2582 22.4499 22.4688 23.176 21.8676C23.4833 21.6112 23.8411 21.4206 24.2268 21.308C24.6126 21.1954 25.0178 21.1633 25.4168 21.2136C25.5953 21.3565 25.75 21.5263 25.8751 21.7167C26.3844 23.0752 26.9955 24.2827 27.5047 25.5908C27.5675 25.7159 27.6002 25.8537 27.6002 25.9933C27.6002 26.133 27.5675 26.2707 27.5047 26.3958C27.16 26.9478 26.7682 27.4696 26.3334 27.9555C26.2586 28.0169 26.1985 28.0938 26.1571 28.1808C26.1158 28.2677 26.0944 28.3626 26.0944 28.4587C26.0944 28.5547 26.1158 28.6496 26.1571 28.7365C26.1985 28.8235 26.2586 28.9004 26.3334 28.9618C27.7882 31.4806 30.07 33.4331 32.801 34.4962C32.9455 34.6105 33.1252 34.6728 33.3103 34.6728C33.4954 34.6728 33.675 34.6105 33.8195 34.4962L35.2455 32.6849C35.398 32.5666 35.5863 32.5023 35.7802 32.5023C35.9741 32.5023 36.1624 32.5666 36.3149 32.6849L39.0649 33.9428L39.676 34.2447C40.6436 34.7478 40.6436 34.7981 40.5418 35.8044C40.4286 36.6643 40.034 37.4641 39.418 38.0818C38.8019 38.6994 37.9984 39.1012 37.1297 39.2257C36.684 39.1697 36.2524 39.0333 35.8566 38.8231Z" fill="white"/>
</g>
</g>
</svg>
