<svg width="48" height="48" viewBox="0 0 48 48" fill="none" xmlns="http://www.w3.org/2000/svg">
<path d="M16.14 22.914L32.859 6.98399C33.1379 6.71805 33.5086 6.5697 33.894 6.5697C34.2794 6.5697 34.65 6.71805 34.929 6.98399L34.947 7.00199C35.0827 7.13091 35.1907 7.28609 35.2646 7.45809C35.3384 7.63008 35.3765 7.81531 35.3765 8.00249C35.3765 8.18967 35.3384 8.37489 35.2646 8.54689C35.1907 8.71889 35.0827 8.87407 34.947 9.00299L19.203 24.003L34.947 38.997C35.0827 39.1259 35.1907 39.2811 35.2646 39.4531C35.3384 39.6251 35.3765 39.8103 35.3765 39.9975C35.3765 40.1847 35.3384 40.3699 35.2646 40.5419C35.1907 40.7139 35.0827 40.8691 34.947 40.998L34.929 41.016C34.65 41.2819 34.2794 41.4303 33.894 41.4303C33.5086 41.4303 33.1379 41.2819 32.859 41.016L16.14 25.086C15.9929 24.9459 15.8759 24.7774 15.7959 24.5907C15.7159 24.4041 15.6747 24.2031 15.6747 24C15.6747 23.7969 15.7159 23.5959 15.7959 23.4093C15.8759 23.2226 15.9929 23.0541 16.14 22.914Z" fill="white"/>
</svg>
