<svg width="48" height="48" viewBox="0 0 48 48" fill="none" xmlns="http://www.w3.org/2000/svg">
<path d="M31.86 22.914L15.141 6.98399C14.8621 6.71805 14.4914 6.5697 14.106 6.5697C13.7206 6.5697 13.35 6.71805 13.071 6.98399L13.053 7.00199C12.9173 7.13091 12.8093 7.28609 12.7354 7.45809C12.6616 7.63008 12.6235 7.81531 12.6235 8.00249C12.6235 8.18967 12.6616 8.37489 12.7354 8.54689C12.8093 8.71889 12.9173 8.87407 13.053 9.00299L28.797 24.003L13.053 38.997C12.9173 39.1259 12.8093 39.2811 12.7354 39.4531C12.6616 39.6251 12.6235 39.8103 12.6235 39.9975C12.6235 40.1847 12.6616 40.3699 12.7354 40.5419C12.8093 40.7139 12.9173 40.8691 13.053 40.998L13.071 41.016C13.35 41.2819 13.7206 41.4303 14.106 41.4303C14.4914 41.4303 14.8621 41.2819 15.141 41.016L31.86 25.086C32.0071 24.9459 32.1241 24.7774 32.2041 24.5907C32.2841 24.4041 32.3253 24.2031 32.3253 24C32.3253 23.7969 32.2841 23.5959 32.2041 23.4093C32.1241 23.2226 32.0071 23.0541 31.86 22.914Z" fill="white"/>
</svg>
