<svg width="2192" height="1895" viewBox="0 0 2192 1895" fill="none" xmlns="http://www.w3.org/2000/svg">
<g opacity="0.7">
<path opacity="0.111111" d="M409.561 1488.01C636.678 1318.85 1000.41 1026.02 1334.4 932.072C1573.7 864.754 1980.18 722.517 2069.75 547.793" stroke="#FFBB00" stroke-width="3"/>
<path opacity="0.222222" d="M324.748 1426.59C564.375 1278.36 950.003 1019.17 1289.22 955.302C1532.27 909.539 1947.48 804.041 2051.17 638.067" stroke="#FFBB00" stroke-width="3"/>
<path opacity="0.333333" d="M254.063 1361.89C504.289 1235.48 908.737 1011.51 1250.49 977.909C1495.35 953.837 1916.01 885.511 2032.98 729.417" stroke="#FFBB00" stroke-width="3"/>
<path opacity="0.444444" d="M197.664 1295.16C456.518 1191.3 876.6 1003.83 1218.21 1000.46C1462.97 998.049 1885.76 967.037 2015.09 821.874" stroke="#FFBB00" stroke-width="3"/>
<path opacity="0.555556" d="M155.597 1227.67C421.067 1146.89 853.514 996.964 1192.32 1023.54C1435.08 1042.58 1856.71 1048.73 1997.4 915.458" stroke="#FFBB00" stroke-width="3"/>
<path opacity="0.666667" d="M127.801 1160.68C397.842 1103.35 839.326 991.684 1172.73 1047.68C1411.61 1087.81 1828.86 1130.68 1979.8 1010.18" stroke="#FFBB00" stroke-width="3"/>
<path opacity="0.777778" d="M114.098 1095.44C386.656 1061.74 833.819 988.764 1159.28 1073.45C1392.47 1134.13 1802.14 1213.01 1962.21 1106.06" stroke="#FFBB00" stroke-width="3"/>
<path opacity="0.888889" d="M114.209 1033.16C387.232 1023.08 836.705 988.946 1151.77 1101.36C1377.52 1181.91 1776.54 1295.81 1944.51 1203.07" stroke="#FFBB00" stroke-width="3"/>
<path d="M127.749 975.011C399.202 988.391 847.638 992.943 1149.97 1131.93C1366.59 1231.51 1751.99 1379.17 1926.62 1301.21" stroke="#FFBB00" stroke-width="3"/>
</g>
</svg>
