<svg width="2535" height="2444" viewBox="0 0 2535 2444" fill="none" xmlns="http://www.w3.org/2000/svg">
<path opacity="0.111111" d="M521.941 1675.91C707.199 1615.52 1104.53 1434.97 1211.79 1195.85C1319.05 956.732 1857.1 788.324 2112.71 734.011" stroke="#FFBB00" stroke-width="3"/>
<path opacity="0.222222" d="M486.943 1551.96C676.713 1507.81 1088.27 1362.55 1216.36 1134.74C1344.44 906.933 1894.97 785.599 2154.22 753.409" stroke="#FFBB00" stroke-width="3"/>
<path opacity="0.333333" d="M465.527 1429.25C658.339 1401.44 1080.94 1292.11 1228.85 1077.17C1376.76 862.238 1935.5 788.28 2196.39 778.169" stroke="#FFBB00" stroke-width="3"/>
<path opacity="0.444444" d="M457.52 1308.88C651.899 1297.43 1082.31 1224.38 1248.91 1023.78C1415.52 823.183 1978.21 796.543 2238.73 808.297" stroke="#FFBB00" stroke-width="3"/>
<path opacity="0.555556" d="M462.633 1191.97C657.113 1196.74 1092.08 1160.06 1276.12 975.157C1460.16 790.254 2022.56 810.514 2280.75 843.757" stroke="#FFBB00" stroke-width="3"/>
<path opacity="0.666667" d="M480.509 1079.57C673.642 1100.32 1109.93 1099.82 1310.03 931.851C1510.14 763.88 2068.04 830.279 2321.98 884.474" stroke="#FFBB00" stroke-width="3"/>
<path opacity="0.777778" d="M510.657 972.685C701.023 1009.05 1135.43 1044.28 1350.11 894.361C1564.79 744.438 2114.11 855.874 2361.93 930.331" stroke="#FFBB00" stroke-width="3"/>
<path opacity="0.888889" d="M552.525 872.266C738.746 923.762 1168.11 994.032 1395.79 863.137C1623.47 732.243 2160.23 887.289 2400.14 981.174" stroke="#FFBB00" stroke-width="3"/>
<path d="M605.464 779.201C786.21 845.25 1207.46 949.593 1446.48 838.571C1685.5 727.549 2205.86 924.47 2436.16 1036.81" stroke="#FFBB00" stroke-width="3"/>
</svg>
