<svg width="1452" height="1800" viewBox="0 0 1452 1800" fill="none" xmlns="http://www.w3.org/2000/svg">
<path opacity="0.111111" d="M720.773 487.222C714.454 638.17 669.575 982.01 540.606 1149.78C379.394 1359.5 537.643 1699.03 1105.64 1401.42" stroke="#FFBB00" stroke-width="3"/>
<path opacity="0.222222" d="M760.65 443.624C742.326 592.963 670.61 930.312 530.334 1084.99C354.988 1278.34 483.353 1630.24 1065.74 1387.3" stroke="#FFBB00" stroke-width="3"/>
<path opacity="0.333333" d="M795.519 400.278C765.414 547.068 667.628 875.875 517.324 1016.78C329.444 1192.91 426.971 1554.55 1018.62 1366.49" stroke="#FFBB00" stroke-width="3"/>
<path opacity="0.444444" d="M825.45 356.724C783.859 500.051 660.923 818.347 501.903 944.912C303.128 1103.12 369.093 1471.81 964.936 1338.36" stroke="#FFBB00" stroke-width="3"/>
<path opacity="0.555556" d="M850.552 312.515C797.842 451.496 650.82 757.405 484.416 869.188C276.412 1008.92 310.327 1381.9 905.425 1302.36" stroke="#FFBB00" stroke-width="3"/>
<path opacity="0.666667" d="M870.978 267.221C807.579 401.01 637.671 692.759 465.227 789.441C249.673 910.293 251.288 1284.8 840.857 1258" stroke="#FFBB00" stroke-width="3"/>
<path opacity="0.777778" d="M886.915 220.435C813.323 348.227 621.852 624.157 444.711 705.536C223.285 807.26 192.592 1180.49 772.044 1204.86" stroke="#FFBB00" stroke-width="3"/>
<path opacity="0.888889" d="M898.587 171.773C815.354 292.81 603.762 551.381 423.255 617.374C197.622 699.865 134.851 1069.04 699.831 1142.62" stroke="#FFBB00" stroke-width="3"/>
<path d="M906.249 120.881C813.984 234.452 583.814 474.255 401.252 524.891C173.05 588.187 78.6729 950.556 625.091 1071.01" stroke="#FFBB00" stroke-width="3"/>
</svg>
