<svg width="960" height="1004" viewBox="0 0 960 1004" fill="none" xmlns="http://www.w3.org/2000/svg">
<path opacity="0.111111" d="M341.884 57.7124C372.27 117.115 411.345 276.116 324.552 436.902C216.061 637.886 465.42 883.748 875.585 716.768" stroke="#FFBB00" stroke-width="3"/>
<path opacity="0.222222" d="M358.246 58.0709C383.552 119.771 409.927 280.801 312.991 431.324C191.82 619.476 417.507 886.9 831.37 761.786" stroke="#FFBB00" stroke-width="3"/>
<path opacity="0.333333" d="M371.613 58.4324C391.666 121.997 405.277 284.059 299.298 423.789C166.825 598.451 366.989 885.175 780.445 801.259" stroke="#FFBB00" stroke-width="3"/>
<path opacity="0.444444" d="M382.055 58.5073C396.721 123.492 397.577 285.591 283.672 414.111C141.292 574.76 314.296 878.366 723.387 834.589" stroke="#FFBB00" stroke-width="3"/>
<path opacity="0.555556" d="M389.67 58.0189C398.853 123.969 387.041 285.119 266.328 402.122C115.437 548.375 259.873 866.307 660.826 861.241" stroke="#FFBB00" stroke-width="3"/>
<path opacity="0.666667" d="M394.583 56.7049C398.224 123.159 373.904 282.389 247.493 387.674C89.4797 519.281 204.179 848.866 593.439 880.738" stroke="#FFBB00" stroke-width="3"/>
<path opacity="0.777778" d="M396.94 54.3204C395.02 120.816 358.426 277.174 227.41 370.644C63.6405 487.483 147.681 825.956 521.942 892.673" stroke="#FFBB00" stroke-width="3"/>
<path opacity="0.888889" d="M396.911 50.641C389.448 116.713 340.883 269.273 206.329 350.931C38.1366 453.004 90.8545 797.527 447.086 896.71" stroke="#FFBB00" stroke-width="3"/>
<path d="M394.684 45.4628C381.735 110.653 321.572 258.517 184.51 328.457C13.183 415.882 34.1741 763.572 369.647 892.585" stroke="#FFBB00" stroke-width="3"/>
</svg>
