<svg width="1440" height="2523" viewBox="0 0 1440 2523" fill="none" xmlns="http://www.w3.org/2000/svg">
<g opacity="0.3">
<path opacity="0.111111" d="M-541.356 121.441C-518.758 330.991 -349.293 781.945 147.788 909.36C769.139 1068.63 960.806 1421.1 1135.68 1643.53" stroke="#FFBB00" stroke-width="3"/>
<path opacity="0.222222" d="M-561.328 255.829C-520.804 462.611 -313.937 897.071 189.338 980.657C818.433 1085.14 1038.76 1419.56 1231.19 1625.89" stroke="#FFBB00" stroke-width="3"/>
<path opacity="0.333333" d="M-567.579 388.425C-509.437 590.908 -266.744 1005.79 238.893 1045.43C870.939 1095 1118.24 1409.05 1326.77 1597.92" stroke="#FFBB00" stroke-width="3"/>
<path opacity="0.444444" d="M-560.398 518.046C-485.077 714.733 -208.387 1107.09 295.805 1103.02C926.045 1097.94 1198.47 1389.47 1421.51 1559.64" stroke="#FFBB00" stroke-width="3"/>
<path opacity="0.555556" d="M-540.177 643.548C-448.243 832.986 -139.625 1200.05 359.373 1152.82C983.121 1093.78 1278.62 1360.79 1514.53 1511.17" stroke="#FFBB00" stroke-width="3"/>
<path opacity="0.666667" d="M-507.404 763.829C-399.546 944.617 -61.2941 1283.81 428.845 1194.28C1041.52 1082.37 1357.91 1323.06 1604.94 1452.69" stroke="#FFBB00" stroke-width="3"/>
<path opacity="0.777778" d="M-462.659 877.844C-339.683 1048.65 25.7027 1357.59 503.43 1226.95C1100.59 1063.63 1435.54 1276.38 1691.87 1384.48" stroke="#FFBB00" stroke-width="3"/>
<path opacity="0.888889" d="M-406.608 984.607C-269.431 1144.17 120.398 1420.71 582.297 1250.42C1159.67 1037.55 1510.73 1220.95 1774.5 1306.87" stroke="#FFBB00" stroke-width="3"/>
<path d="M-339.999 1083.2C-189.644 1230.34 221.771 1472.57 664.586 1264.38C1218.1 1004.14 1582.72 1157.01 1852.01 1220.28" stroke="#FFBB00" stroke-width="3"/>
</g>
</svg>
