<svg width="114" height="57" viewBox="0 0 114 57" fill="none" xmlns="http://www.w3.org/2000/svg">
<path d="M100.588 0H13.4118C6.00466 0 0 6.00466 0 13.4118V43.5882C0 50.9953 6.00466 57 13.4118 57H100.588C107.995 57 114 50.9953 114 43.5882V13.4118C114 6.00466 107.995 0 100.588 0Z" fill="white"/>
<path d="M66.0461 12.8188H47.8989V45.4221H66.0461V12.8188Z" fill="#FF5A00"/>
<path d="M49.1073 29.1192C49.1073 22.4952 52.2213 16.616 56.9998 12.8175C53.4831 10.0524 49.0468 8.38135 44.2082 8.38135C32.7453 8.38135 23.4703 17.6563 23.4703 29.1192C23.4703 40.5819 32.7453 49.8568 44.2082 49.8568C49.0468 49.8568 53.4831 48.1857 56.9998 45.4208C52.2146 41.6759 49.1073 35.7432 49.1073 29.1192Z" fill="#EB001B"/>
<path d="M90.5294 29.1192C90.5294 40.5819 81.2545 49.8568 69.7916 49.8568C64.9529 49.8568 60.5167 48.1857 57 45.4208C61.8389 41.6154 64.8925 35.7432 64.8925 29.1192C64.8925 22.4952 61.7784 16.616 57 12.8175C60.51 10.0524 64.9462 8.38135 69.7849 8.38135C81.2545 8.38135 90.5294 17.7167 90.5294 29.1192Z" fill="#F79E1B"/>
</svg>
