<svg width="116" height="58" viewBox="0 0 116 58" fill="none" xmlns="http://www.w3.org/2000/svg">
<path d="M102.353 0H13.6466C6.10978 0 0 6.10978 0 13.6466V44.3534C0 51.8902 6.10978 58 13.6466 58H102.353C109.89 58 116 51.8902 116 44.3534V13.6466C116 6.10978 109.89 0 102.353 0Z" fill="white"/>
<path fill-rule="evenodd" clip-rule="evenodd" d="M24.9462 17.0602C25.7085 17.056 27.9726 16.853 28.9317 20.0907C29.9782 23.6576 31.0077 27.2294 32.0202 30.8062H32.596C34.1102 25.5738 35.1501 22.0026 35.7177 20.0907C36.6871 16.8178 39.1086 17.0602 40.078 17.0602H47.5559V40.3223H39.933V26.6136H39.4234L35.1749 40.3223H29.4412L25.1927 26.6033H24.6811V40.3223H17.0582V17.0602H24.9462ZM58.5034 17.0602V30.7793H59.1103L64.2785 19.4983C65.2811 17.2528 67.4188 17.0602 67.4188 17.0602H74.7931V40.3223H67.0149V26.6033H66.4059L61.3392 37.8843C60.3366 40.1214 58.0953 40.3223 58.0953 40.3223H50.721V17.0602H58.5013H58.5034ZM101.689 28.1154C100.603 31.1915 97.1935 33.3934 93.4235 33.3934H85.2621V40.3223H77.8629V28.1154H101.686H101.689Z" fill="#0F754E"/>
<path fill-rule="evenodd" clip-rule="evenodd" d="M93.7798 17.0601H77.4777C77.865 22.2386 82.3248 26.6715 86.942 26.6715H102.204C103.087 22.3691 100.054 17.0601 93.7798 17.0601Z" fill="url(#paint0_linear_839_3255)"/>
<defs>
<linearGradient id="paint0_linear_839_3255" x1="102.356" y1="23.1066" x2="77.4756" y2="23.1066" gradientUnits="userSpaceOnUse">
<stop stop-color="#1F5CD7"/>
<stop offset="1" stop-color="#02AEFF"/>
</linearGradient>
</defs>
</svg>
