<svg width="1440" height="1948" viewBox="0 0 1440 1948" fill="none" xmlns="http://www.w3.org/2000/svg">
<g opacity="0.5">
<path opacity="0.111111" d="M-48.925 1590.91C70.4762 1718.12 387.738 1874.56 701.576 1482.69C1093.87 992.849 614.476 860.953 1560.03 343.332" stroke="#FFBB00" stroke-width="3"/>
<path opacity="0.222222" d="M-46.7607 1560.59C61.125 1697.7 363.125 1881.56 708.039 1520.13C1139.18 1068.35 674.018 894.397 1657.19 464.472" stroke="#FFBB00" stroke-width="3"/>
<path opacity="0.333333" d="M-44.5982 1530.27C50.9547 1676.24 335.332 1886.04 708.416 1557.49C1174.77 1146.79 727.52 932.264 1740.25 592.628" stroke="#FFBB00" stroke-width="3"/>
<path opacity="0.444444" d="M-42.4376 1499.96C40.0586 1653.68 304.593 1887.75 702.759 1594.21C1200.47 1227.29 774.651 973.989 1808.72 726.501" stroke="#FFBB00" stroke-width="3"/>
<path opacity="0.555556" d="M-40.279 1469.64C28.5357 1629.96 271.165 1886.42 691.164 1629.77C1216.16 1308.95 815.131 1018.98 1862.21 864.758" stroke="#FFBB00" stroke-width="3"/>
<path opacity="0.666667" d="M-38.1224 1439.33C16.4896 1605.02 235.326 1881.85 673.777 1663.64C1221.84 1390.88 848.733 1066.64 1900.48 1006.04" stroke="#FFBB00" stroke-width="3"/>
<path opacity="0.777778" d="M-34.5002 1403C5.49546 1572.81 197.374 1873.82 650.79 1695.31C1217.56 1472.18 875.289 1116.34 1923.38 1149" stroke="#FFBB00" stroke-width="3"/>
<path opacity="0.888889" d="M-27.5012 1364C-2.4247 1536.64 157.619 1862.17 622.433 1724.3C1203.45 1551.98 894.679 1167.44 1930.91 1292.25" stroke="#FFBB00" stroke-width="3"/>
<path d="M-9.50309 1336.04C0.464427 1510.2 116.389 1846.75 588.986 1750.15C1179.73 1629.41 906.848 1219.31 1923.16 1434.44" stroke="#FFBB00" stroke-width="3"/>
</g>
</svg>
