<svg width="116" height="58" viewBox="0 0 116 58" fill="none" xmlns="http://www.w3.org/2000/svg">
<path d="M102.353 0H13.6471C6.11 0 0 6.11 0 13.6471V44.3529C0 51.89 6.11 58 13.6471 58H102.353C109.89 58 116 51.89 116 44.3529V13.6471C116 6.11 109.89 0 102.353 0Z" fill="white"/>
<path d="M59.5018 24.3602C59.5018 28.2451 62.8571 30.3644 65.5058 31.6004C68.1548 32.8367 69.0378 33.7195 69.0378 34.9557C69.0378 36.7216 66.9185 37.6047 64.9761 37.6047C61.4441 37.6047 59.5018 36.7216 57.9124 35.8388L56.6763 41.6663C58.2655 42.3727 61.2677 43.0791 64.2698 43.0791C71.5101 43.0791 76.2781 39.5471 76.2781 33.8962C76.2781 26.8324 66.5653 26.4793 66.5653 23.3006C66.5653 22.4176 67.4484 21.3581 69.5675 21.0049C70.627 20.8284 73.2759 20.8284 76.4546 22.2411L77.6908 16.5901C76.1014 16.0604 73.8056 15.354 71.1569 15.354C64.4463 15.5306 59.5018 19.239 59.5018 24.3602ZM89.3459 16.0604C87.9332 16.0604 86.8736 16.7667 86.3438 18.0029L75.9249 42.7259H83.1652L84.5779 38.6642H93.4075L94.2904 42.7259H100.648L95.1734 16.0604H89.3459ZM90.4054 23.3006L92.5245 33.3663H86.8736L90.4054 23.3006ZM50.6721 16.0604L45.0212 42.7259H51.9083L57.5592 16.0604H50.6721ZM40.6064 16.0604L33.3659 34.2494L30.5405 18.7093C30.1873 16.9433 28.7746 16.0604 27.3619 16.0604H15.5302L15.3536 16.7667C17.8259 17.2965 20.4748 18.1795 22.2407 19.0624C23.3002 19.5922 23.4769 20.122 23.8301 21.3581L29.3045 42.7259H36.5447L47.67 16.0604H40.6064Z" fill="#1A1F71"/>
</svg>
