<svg width="1440" height="1566" viewBox="0 0 1440 1566" fill="none" xmlns="http://www.w3.org/2000/svg">
<g opacity="0.5">
<path opacity="0.111111" d="M1383.68 -501.369C1398.59 -306.55 1335.84 126.121 965.533 298.253C502.651 513.418 842.974 1117.63 151.276 989.353" stroke="#FFBB00" stroke-width="3"/>
<path opacity="0.222222" d="M1436.58 -385.717C1434.79 -190.437 1335.8 234.752 954.204 373.27C477.214 546.416 763.047 1178.15 88.5341 989.071" stroke="#FFBB00" stroke-width="3"/>
<path opacity="0.333333" d="M1476.71 -268.083C1458.24 -73.7714 1323.82 340.915 933.965 445.165C446.646 575.477 675.786 1229.83 23.7674 981.978" stroke="#FFBB00" stroke-width="3"/>
<path opacity="0.444444" d="M1504.01 -149.604C1469.01 42.3197 1300.24 443.567 905.171 513.167C411.337 600.167 582.021 1272.06 -42.4193 967.926" stroke="#FFBB00" stroke-width="3"/>
<path opacity="0.555556" d="M1518.53 -31.4088C1467.27 156.724 1265.45 541.7 868.23 576.537C371.7 620.084 482.617 1304.32 -109.422 946.816" stroke="#FFBB00" stroke-width="3"/>
<path opacity="0.666667" d="M1520.41 85.3864C1453.29 268.357 1219.97 634.355 823.627 634.584C328.193 634.87 378.497 1326.13 -176.618 918.603" stroke="#FFBB00" stroke-width="3"/>
<path opacity="0.777778" d="M1509.92 199.691C1427.44 376.166 1164.38 720.625 771.903 686.662C281.306 644.208 270.619 1337.14 -243.384 883.299" stroke="#FFBB00" stroke-width="3"/>
<path opacity="0.888889" d="M1487.37 310.447C1390.16 479.142 1099.33 799.66 713.644 732.179C231.54 647.828 159.958 1337.06 -309.111 840.968" stroke="#FFBB00" stroke-width="3"/>
<path d="M1453.21 416.635C1341.99 576.323 1025.55 870.68 649.495 770.602C179.43 645.505 47.5206 1325.7 -373.187 791.726" stroke="#FFBB00" stroke-width="3"/>
</g>
</svg>
