<svg width="84" height="76" viewBox="0 0 84 76" fill="none" xmlns="http://www.w3.org/2000/svg">
<path d="M17.6407 10.7141C18.61 10.1395 19.7844 9.50923 20.2504 9.30533C20.7164 9.10143 21.1824 8.91606 21.2756 8.91606C21.3688 8.89752 21.6484 9.26826 22.3008 10.5658L20.5859 11.4185C19.6352 11.9005 18.1813 12.7161 17.3611 13.2722C16.541 13.8097 15.0497 14.9219 14.0432 15.7561C13.0552 16.5717 11.564 18.0175 10.7252 18.9629C9.90502 19.9083 8.60021 21.5951 7.8546 22.7073C7.09035 23.838 6.00921 25.7102 5.45 26.878C4.8908 28.0458 4.16383 29.8068 3.8283 30.7707C3.51142 31.7346 3.04541 33.4956 2.78445 34.6634C2.41164 36.3687 2.2998 37.518 2.22524 40.4097C2.15068 43.2273 2.18796 44.4878 2.43028 46.1561C2.61669 47.3239 2.91493 48.918 3.10133 49.678C3.28773 50.438 3.71646 51.8283 4.03334 52.7365C4.36887 53.6448 5.02128 55.239 5.52456 56.2585C6.00921 57.278 7.03442 59.0205 7.78004 60.1326C8.54428 61.2448 9.25261 62.2829 9.34581 62.4126C9.4763 62.6166 9.3831 62.7834 8.4138 63.5805L8.00372 63.1541C7.78003 62.9317 7.12763 62.079 6.54978 61.2634C5.97193 60.4478 5.03992 58.9834 4.49935 58.0195C3.94014 57.0556 3.10133 55.2946 2.61669 54.1268C2.15068 52.959 1.51691 51.0868 1.21867 49.9561C0.920424 48.8253 0.566259 47.0087 0.417137 45.878C0.268015 44.7473 0.0816125 43.2087 0.0256917 42.4487C-0.030229 41.6887 0.00705148 39.9834 0.118893 38.6487C0.230734 37.3141 0.528978 35.238 0.771302 34.0146C1.01362 32.7912 1.55419 30.8078 1.98292 29.6029C2.393 28.4165 3.17589 26.5444 3.7351 25.4507C4.29431 24.3385 5.24496 22.7073 5.84145 21.7805C6.45658 20.8536 7.57499 19.3707 8.33924 18.4439C9.12213 17.517 10.371 16.2009 11.1353 15.4965C11.8995 14.7922 13.2603 13.6614 14.1923 12.9756C15.1243 12.2897 16.6714 11.2702 17.6407 10.7141Z" fill="#2B2A29"/>
<path d="M42.2459 74.7766C43.2151 74.6097 44.8182 74.239 45.7875 73.9609C46.7568 73.6829 47.6142 73.4419 47.6702 73.4234C47.7447 73.4234 47.7634 73.479 47.7261 73.5902C47.6888 73.7014 46.9991 73.9795 46.2162 74.239C45.4147 74.48 44.259 74.8136 43.6439 74.9619C43.0287 75.1102 41.5375 75.4068 40.3445 75.6292C39.1329 75.8331 37.6044 76 36.9334 76C35.9082 76 35.7218 75.9444 35.7218 75.6848C35.7218 75.3883 36.0014 75.3326 38.0891 75.2214C39.4125 75.1473 41.2766 74.9434 42.2459 74.7766Z" fill="#2B2A29"/>
<path fill-rule="evenodd" clip-rule="evenodd" d="M18.5357 0C18.7034 0 24.0905 0.166829 30.5027 0.370732C36.915 0.574634 42.2088 0.81561 42.2834 0.889756C42.3579 0.963902 38.779 5.00488 34.324 9.86146C29.869 14.7366 26.1409 18.722 26.0291 18.722C25.9172 18.722 25.8054 18.4068 25.7495 18.0361C25.7122 17.6468 25.5444 15.4595 25.3767 13.161C25.2089 10.8624 25.0411 8.82341 25.0038 8.61951C24.9666 8.41561 23.3821 6.46927 21.4808 4.31902C19.5795 2.15024 18.051 0.296585 18.107 0.185366C18.1815 0.0926829 18.3679 0 18.5357 0ZM24.1278 4.68976C25.1716 5.8761 26.0477 6.85854 26.0663 6.85854C26.1036 6.85854 28.5641 5.83902 31.5279 4.56L36.9336 2.26146C30.1486 2.09463 26.7187 1.98341 24.9293 1.90927C21.7604 1.79805 21.6859 1.79805 21.9655 2.15024C22.1146 2.33561 23.0839 3.48488 24.1278 4.68976ZM26.9052 8.48976C26.8306 8.5639 26.8865 10.0098 26.9984 11.7337C27.1288 13.439 27.2966 14.8107 27.3712 14.7922C27.4271 14.7551 28.9742 13.1054 30.801 11.122C32.6091 9.13854 34.8459 6.69171 35.7593 5.70927C36.6913 4.70829 37.3996 3.89268 37.3623 3.91122C37.3437 3.91122 34.995 4.93073 32.1803 6.15415C29.3657 7.37756 26.9984 8.41561 26.9052 8.48976V8.48976ZM52.3118 21.1317H84.0002V43.7463H52.3118V21.1317ZM56.5059 24.5239C56.2076 24.7093 55.7416 25.1541 55.4806 25.5249L55.0146 26.1922C54.9214 35.1268 54.9401 38 54.996 38.3337C55.0706 38.6673 55.4247 39.2605 55.7975 39.6868C56.189 40.0946 56.8041 40.521 57.1583 40.6322C57.5124 40.7434 58.314 40.8176 58.9291 40.8176C59.712 40.7805 60.2712 40.6507 60.7931 40.3541C61.2591 40.0946 61.7065 39.6312 61.9861 39.1122C62.3589 38.4449 62.4707 37.9073 62.5453 36.4615L62.6571 34.6634H60.1407C60.1594 37.7034 60.1034 37.9444 59.7493 38.278C59.5069 38.5005 59.0969 38.6488 58.7054 38.6488C58.2394 38.6488 57.9598 38.519 57.6988 38.1854C57.3447 37.759 57.326 37.4068 57.326 32.439C57.326 27.4712 57.3447 27.119 57.6988 26.6927C57.9598 26.359 58.2394 26.2293 58.7054 26.2293C59.0969 26.2293 59.5069 26.3776 59.7493 26.6C60.0848 26.9151 60.1594 27.1746 60.1407 28.3239V29.6585H62.6571C62.4707 27.0078 62.3216 26.3776 61.9861 25.7659C61.6878 25.2283 61.2778 24.802 60.7931 24.5424C60.383 24.32 59.712 24.0976 59.3019 24.0605C58.8918 24.0049 58.2208 24.0234 57.8107 24.079C57.4006 24.1532 56.8041 24.3571 56.5059 24.5239V24.5239ZM64.428 32.402C63.701 36.8507 63.1231 40.558 63.1231 40.6507C63.1231 40.7249 63.6264 40.7805 64.2416 40.7805H65.36L65.826 37.6107L69.1812 37.722C69.4049 39.1678 69.4981 39.8537 69.554 40.1873L69.6472 40.7805C71.5485 40.7805 72.0705 40.7063 72.0705 40.5951C72.0705 40.4839 71.4926 36.7766 70.7656 32.3463C70.0387 27.9161 69.4608 24.2459 69.4608 24.1902C69.4608 24.1346 68.622 24.0976 67.5968 24.0976C66.5716 24.0976 65.7328 24.1346 65.7328 24.1902C65.7328 24.2459 65.1363 27.9346 64.428 32.402ZM73.1889 40.7805H75.4257C75.4257 30.9005 75.4816 29.6585 75.6494 29.6585C75.7985 29.6585 76.4323 31.679 77.3829 35.1639L78.8928 40.6878L81.3906 40.7805V24.0976H79.3402C79.3402 32.2722 79.2842 33.3473 79.1165 33.3288C78.986 33.2917 78.3522 31.2898 77.6439 28.7317L76.4136 24.1902L73.2075 24.079L73.1889 40.7805Z" fill="#7EFF2E"/>
<path fill-rule="evenodd" clip-rule="evenodd" d="M36.4865 23.9493C37.6235 23.9864 38.0336 24.0976 38.6301 24.4869C39.0588 24.7649 39.5248 25.3025 39.7671 25.7844C40.1772 26.5815 40.1959 26.7669 40.1959 32.402C40.1959 37.203 40.1399 38.2966 39.8976 38.8898C39.7485 39.2605 39.3943 39.8166 39.1147 40.0947C38.8165 40.3913 38.1827 40.7435 37.5862 40.9103C36.8779 41.0956 36.2628 41.1513 35.629 41.0586C35.1257 40.9844 34.3801 40.7805 34.0073 40.5766C33.5599 40.3542 33.1126 39.9093 32.2738 38.4635L32.2178 32.9952C32.1806 29.362 32.2365 27.2488 32.367 26.6927C32.4788 26.2293 32.777 25.5805 33.0194 25.2283C33.243 24.8947 33.8023 24.4498 34.2496 24.2644C34.8834 23.9864 35.4053 23.9122 36.4865 23.9493V23.9493ZM34.8275 32.0498C34.7902 35.1825 34.8275 37.24 34.958 37.6849C35.0946 38.1422 35.3183 38.4326 35.629 38.5561C35.89 38.6674 36.2255 38.7415 36.3746 38.7415C36.5424 38.7415 36.8779 38.5376 37.1202 38.2781L37.5862 37.8147C37.5862 27.3044 37.5676 27.0449 37.2134 26.6927C36.9897 26.4703 36.5983 26.322 36.2068 26.322C35.8154 26.322 35.4612 26.4703 35.2376 26.7113C34.9207 27.0635 34.8834 27.5083 34.8275 32.0498ZM41.8548 24.0976H44.6695V38L45.0982 38.3893C45.4151 38.7044 45.6388 38.7786 46.1607 38.6859C46.5149 38.6117 46.925 38.4078 47.0555 38.241C47.2232 37.9815 47.2792 36.2761 47.2792 24.0976H49.8701L49.8329 31.2898C49.7956 38.3337 49.7956 38.482 49.3855 39.2605C49.1432 39.6869 48.7331 40.1874 48.4535 40.3727C48.1552 40.5766 47.6333 40.8176 47.2792 40.9474C46.925 41.0586 46.2912 41.1513 45.8811 41.1513C45.4711 41.1513 44.8373 41.0586 44.4831 40.9474C44.129 40.8176 43.607 40.5766 43.3274 40.3727C43.0292 40.1874 42.6191 39.6869 42.3954 39.2605C41.9667 38.482 41.9667 38.3152 41.9108 31.2898L41.8548 24.0976ZM24.8177 24.3756L25.6937 27.7122C26.197 29.5474 26.6444 31.16 26.7003 31.3269C26.7935 31.5493 26.8494 31.5308 26.9799 31.2342C27.0731 31.0303 27.5205 29.3991 28.0051 27.6196C28.4711 25.8215 28.8626 24.3386 28.8812 24.32C28.8999 24.3015 29.4777 24.3015 31.3977 24.3756L28.0797 35.4976V41.1513H25.4701V35.8683L23.7924 30.2517C22.8791 27.1747 22.1148 24.561 22.1148 24.4498C22.1335 24.3386 22.6367 24.283 24.8177 24.3756V24.3756ZM22.8604 47.4537H31.0621V50.0488H28.2661V64.322H25.6565V50.0488H22.8604V47.4537ZM36.561 47.4908C38.8724 47.5649 39.2638 47.6205 40.0095 48.0098C40.4568 48.2693 40.9974 48.7513 41.2024 49.122C41.5007 49.6225 41.6125 50.1786 41.6684 51.6244C41.7057 52.7737 41.6498 53.7376 41.5007 54.2196C41.3702 54.6088 41.016 55.202 40.1772 56.0732L40.7364 56.6293C41.0533 56.9444 41.3888 57.5376 41.482 57.9269C41.5752 58.3347 41.6871 59.9288 41.7803 64.3035H40.5314C39.3757 64.3035 39.2638 64.2849 39.1706 63.8957C39.1334 63.6732 39.0588 62.3386 39.0402 60.9298C38.9842 58.6683 38.947 58.3532 38.6114 58.0196C38.4064 57.8157 37.8472 57.5747 36.4678 57.3708V64.322H33.6718L33.6345 55.9991C33.6159 51.161 33.6904 47.6391 33.7836 47.5464C33.8768 47.4722 35.1257 47.4352 36.561 47.4908V47.4908ZM36.4678 55.0537C38.015 55.0537 38.3318 54.961 38.6114 54.6644C38.9283 54.3122 38.9842 54.0157 38.9842 52.4586C38.9842 51.1239 38.9097 50.5678 38.7046 50.3454C38.4996 50.123 38.1454 50.0303 37.4557 50.0303L36.4678 50.0488V55.0537ZM51.0072 47.4537L51.1004 47.9542C51.1563 48.2322 51.7342 51.8839 52.4052 56.0732C53.0763 60.2439 53.6541 63.803 53.71 63.9883C53.7846 64.2849 53.6541 64.322 51.0072 64.322L50.6344 61.3561H47.2792L47.186 62.2274C47.13 62.7093 47.0368 63.3766 46.9063 64.322H45.6947C45.005 64.322 44.4831 64.2293 44.4831 64.1366C44.4831 64.0254 45.0982 60.2996 45.8252 55.8693C46.5708 51.4205 47.2046 47.6947 47.2419 47.6205C47.2792 47.5278 48.1366 47.4537 51.0072 47.4537V47.4537ZM48.3044 54.8683C48.062 56.5366 47.8011 58.1493 47.7452 58.4274L47.652 58.9464C50.2057 58.9464 50.2616 58.9278 50.1684 58.52C50.1125 58.2976 49.8701 56.7035 49.6092 54.9981C49.3482 53.2927 49.1432 51.8098 49.1432 51.7171C49.1432 51.6059 49.0686 51.5317 48.9568 51.5317C48.8636 51.5317 48.7704 51.5874 48.7704 51.6615C48.7704 51.7356 48.5653 53.1815 48.3044 54.8683ZM56.1706 47.4537C56.823 47.4537 57.3822 47.5093 57.4194 47.5835C57.4754 47.6576 57.9041 50.3083 58.3701 53.4781C58.8361 56.6293 59.2648 59.5025 59.3208 59.8732C59.3767 60.2254 59.4885 60.4478 59.5444 60.3552C59.619 60.281 60.1036 57.3522 61.5389 47.5464L62.5642 47.4908C63.1234 47.4537 63.6826 47.4722 63.7758 47.5093C63.8876 47.5649 63.4962 50.6791 62.7133 55.721C62.0236 60.1883 61.4644 63.9513 61.4457 64.081C61.4457 64.2478 60.9238 64.322 57.4381 64.322L57.0839 62.1347C56.8975 60.9298 56.2824 57.1854 55.7232 53.7932C55.164 50.401 54.7725 47.5835 54.8471 47.5278C54.9217 47.4908 55.5181 47.4537 56.1706 47.4537V47.4537ZM66.2922 47.4352L73.4687 47.5464V49.9561L68.9018 50.0488V54.683H72.6299V57.0927H68.9018V61.9122H73.5619V64.322H66.2922V47.4352ZM76.3766 47.4166L78.8744 47.5278L78.9676 61.8937H83.2548V64.3035H76.3579L76.3766 47.4166ZM10.4087 63.7659L12.6269 65.8791C13.8386 67.0469 14.9197 68.0108 15.0315 68.0108C15.1247 68.0108 15.2179 68.1035 15.1993 68.2332C15.1993 68.363 15.0502 68.6596 14.5655 69.3269L13.4471 68.4557C12.832 67.9737 11.6763 66.9542 9.43945 64.7669L10.4087 63.7659ZM17.1752 69.6791C17.2311 69.6791 17.8276 70.0127 18.5173 70.4391C19.2069 70.8469 20.549 71.5513 21.4997 72.0147C22.4503 72.4596 23.3078 72.8303 23.4196 72.8303C23.5128 72.8303 23.5501 73.0527 23.4942 73.3493C23.4383 73.6274 23.3637 73.8683 23.3451 73.9054C23.3264 73.9239 22.7672 73.72 22.1148 73.4605C21.4438 73.201 19.9898 72.5152 18.8714 71.9405C17.753 71.3659 16.7651 70.8098 16.6905 70.6986C16.5973 70.5874 16.6532 70.3464 16.8024 70.1054C16.9701 69.8644 17.1379 69.6791 17.1752 69.6791V69.6791ZM26.0293 73.7942L27.185 74.1278C27.8187 74.2947 28.9558 74.5727 29.7014 74.7025C30.913 74.9435 31.0621 75.0176 31.0621 75.3883C31.0621 75.722 30.9689 75.7776 30.6334 75.722C30.4097 75.6664 29.4964 75.4996 28.6389 75.3513C27.7628 75.1844 26.7376 74.9805 26.3462 74.8693C25.6937 74.7025 25.6565 74.6469 25.8429 74.2391L26.0293 73.7942Z" fill="#2B2A29"/>
<path d="M66.6647 31.8459C66.9629 29.8254 67.2239 28.1015 67.2239 27.9903C67.2052 27.8976 67.3544 27.8605 67.5221 27.9161C67.7831 27.9903 67.9136 28.6205 68.2677 31.3825C68.5101 33.2361 68.7151 34.9415 68.7151 35.1825C68.7151 35.5718 68.6405 35.5903 67.4103 35.5903C66.6833 35.5903 66.1055 35.5718 66.1055 35.5347C66.1055 35.5161 66.3478 33.8479 66.6647 31.8459Z" fill="#7EFF2E"/>
</svg>
