<svg width="34" height="36" viewBox="0 0 34 36" fill="none" xmlns="http://www.w3.org/2000/svg">
<path fill-rule="evenodd" clip-rule="evenodd" d="M32.8406 2.13367C32.6686 2.51304 28.8752 10.2341 24.4136 19.2855C19.4458 29.3816 16.1365 35.8194 15.9253 35.8543C15.7017 35.9163 12.3155 28.3705 8.07238 18.4762C3.98639 8.88177 0.66164 0.841155 0.705882 0.599876C0.789425 0.343748 1.06698 0.306242 1.41821 0.465464C1.76943 0.624686 5.32344 1.90918 16.6167 5.95084L24.7226 3.51683C29.1882 2.1439 32.8972 1.14666 33.0077 1.2621C33.0789 1.39238 33.0003 1.7814 32.8406 2.13367ZM23.5284 6.79751C20.9788 7.53633 18.6526 8.21315 18.3898 8.29C17.9821 8.39916 17.8615 10.1738 17.6886 17.7395L17.4738 27.0502C20.9109 20.115 23.3481 15.2418 25.0531 11.7681L28.1537 5.43163L23.5284 6.79751ZM14.8455 8.34923C14.6981 8.31509 13.0402 7.66151 11.1416 6.96414C9.22832 6.22743 7.14306 5.51078 6.52657 5.36196L5.39919 5.04688C12.061 20.7417 14.163 25.5166 14.3471 25.8288C14.5436 26.1138 14.7352 26.266 14.745 26.1725C14.7942 26.0641 14.8585 22.0426 14.9598 17.2211C15.0218 12.4145 14.9805 8.41047 14.8455 8.34923Z" fill="white"/>
</svg>
