<svg width="34" height="34" viewBox="0 0 34 34" fill="none" xmlns="http://www.w3.org/2000/svg">
<g filter="url(#filter0_i_270_112)">
<circle cx="16.5838" cy="16.5843" r="12.4857" transform="rotate(24.9217 16.5838 16.5843)" fill="white"/>
</g>
<path fill-rule="evenodd" clip-rule="evenodd" d="M12.1456 24.7518C12.144 24.568 12.2285 20.7726 12.3335 16.3205C12.4471 11.3562 12.5762 8.16445 12.6543 8.11124C12.7322 8.04491 15.4892 10.4367 19.0255 13.6095C22.4431 16.6914 25.2674 19.2927 25.2945 19.3975C25.3086 19.5156 25.2045 19.5821 25.0343 19.5836C24.8641 19.5851 23.2028 19.731 17.9313 20.2105L15.1385 22.6903C13.6058 24.0693 12.3062 25.1574 12.2406 25.1317C12.1878 25.0928 12.1471 24.9225 12.1456 24.7518ZM15.0072 21.1553C15.8906 20.386 16.6961 19.683 16.7871 19.6034C16.93 19.484 16.6487 18.7512 15.3128 15.6904L13.6695 11.9233C13.5816 15.3379 13.5111 17.7414 13.4737 19.4486L13.4093 22.5611L15.0072 21.1553ZM18.1949 18.9214C18.2603 18.9077 19.0453 18.8614 19.9349 18.788C20.8376 18.7276 21.8055 18.6272 22.0799 18.5722L22.5898 18.489C17.008 13.4434 15.2797 11.9223 15.148 11.8315C15.0164 11.7539 14.9115 11.7285 14.9249 11.7678C14.9254 11.8203 15.6465 13.4422 16.5014 15.3911C17.3693 17.3268 18.1295 18.922 18.1949 18.9214Z" fill="#3CCC2C"/>
<defs>
<filter id="filter0_i_270_112" x="4.09521" y="4.09558" width="24.9771" height="27.6841" filterUnits="userSpaceOnUse" color-interpolation-filters="sRGB">
<feFlood flood-opacity="0" result="BackgroundImageFix"/>
<feBlend mode="normal" in="SourceGraphic" in2="BackgroundImageFix" result="shape"/>
<feColorMatrix in="SourceAlpha" type="matrix" values="0 0 0 0 0 0 0 0 0 0 0 0 0 0 0 0 0 0 127 0" result="hardAlpha"/>
<feOffset dy="3.28092"/>
<feGaussianBlur stdDeviation="1.35338"/>
<feComposite in2="hardAlpha" operator="arithmetic" k2="-1" k3="1"/>
<feColorMatrix type="matrix" values="0 0 0 0 0.491667 0 0 0 0 0.479375 0 0 0 0 0.479375 0 0 0 0.25 0"/>
<feBlend mode="normal" in2="shape" result="effect1_innerShadow_270_112"/>
</filter>
</defs>
</svg>
