<svg width="22" height="21" viewBox="0 0 22 21" fill="none" xmlns="http://www.w3.org/2000/svg">
<path d="M9.89985 0.0999756L19.7988 1.51498L21.2128 11.415L12.0208 20.607C11.8333 20.7944 11.579 20.8998 11.3138 20.8998C11.0487 20.8998 10.7944 20.7944 10.6068 20.607L0.706849 10.707C0.519378 10.5194 0.414063 10.2651 0.414062 9.99998C0.414063 9.73481 0.519378 9.4805 0.706849 9.29298L9.89985 0.0999756ZM12.7278 8.58598C12.9136 8.77166 13.1341 8.91895 13.3768 9.01942C13.6195 9.11989 13.8796 9.17157 14.1422 9.17153C14.4049 9.17148 14.6649 9.1197 14.9076 9.01915C15.1502 8.91859 15.3707 8.77123 15.5563 8.58548C15.742 8.39972 15.8893 8.17921 15.9898 7.93654C16.0903 7.69386 16.1419 7.43377 16.1419 7.17112C16.1419 6.90847 16.0901 6.6484 15.9895 6.40576C15.889 6.16312 15.7416 5.94266 15.5558 5.75698C15.3701 5.57129 15.1496 5.424 14.9069 5.32353C14.6642 5.22306 14.4041 5.17138 14.1415 5.17142C13.611 5.17152 13.1024 5.38233 12.7273 5.75748C12.3523 6.13262 12.1417 6.64138 12.1418 7.17183C12.1419 7.70228 12.3527 8.21096 12.7278 8.58598Z" fill="white"/>
</svg>
