<svg width="25" height="24" viewBox="0 0 25 24" fill="none" xmlns="http://www.w3.org/2000/svg">
<g clip-path="url(#clip0_6604_11752)">
<path d="M18.0843 23C17.5539 23 17.0452 22.7893 16.6701 22.4142C16.295 22.0391 16.0843 21.5304 16.0843 21C16.0843 20.4696 16.295 19.9609 16.6701 19.5858C17.0452 19.2107 17.5539 19 18.0843 19C18.6148 19 19.1235 19.2107 19.4985 19.5858C19.8736 19.9609 20.0843 20.4696 20.0843 21C20.0843 21.5304 19.8736 22.0391 19.4985 22.4142C19.1235 22.7893 18.6148 23 18.0843 23Z" fill="white"/>
<path d="M2.99854 4H4.99854V10H6.99854V3C6.99854 2.73478 6.89318 2.48043 6.70564 2.29289C6.51811 2.10536 6.26375 2 5.99854 2H2.99854V4Z" fill="white"/>
<path d="M20.938 7L18.938 15H15V17H19.72C19.9429 17 20.1595 16.9255 20.3352 16.7883C20.511 16.6512 20.6358 16.4592 20.69 16.243L23.19 6.243C23.2269 6.09555 23.2298 5.94162 23.1983 5.79291C23.1668 5.6442 23.1019 5.50462 23.0083 5.38479C22.9148 5.26495 22.7952 5.16801 22.6586 5.10134C22.522 5.03466 22.372 5 22.22 5H8.5V7H20.938Z" fill="white"/>
<path fill-rule="evenodd" clip-rule="evenodd" d="M3.13496 14.6555C2.62978 15.1847 2.2594 15.826 2.05349 16.5281L0.5 16.5136L0.528441 19.1947L2.08159 19.2103C2.30087 19.9171 2.6842 20.5663 3.20061 21.1056L2.43627 22.4295L4.80085 23.7946L5.56452 22.4719C6.28975 22.6495 7.04365 22.6569 7.76536 22.4934L8.55551 23.8306L10.8923 22.5136L10.1022 21.1763C10.6076 20.6468 10.9781 20.0051 11.184 19.3026L12.7378 19.3171L12.71 16.6348L11.1562 16.6203C10.9385 15.9216 10.5608 15.2707 10.0378 14.7239L10.8008 13.4023L8.43628 12.0372L7.67327 13.3587C6.94774 13.1814 6.1936 13.1744 5.47176 13.3384L4.68229 12L2.34482 13.3182L3.13496 14.6555ZM5.24777 20.2381C5.56235 20.435 5.91259 20.568 6.27757 20.6291C6.64254 20.6903 7.01477 20.6783 7.372 20.5939C7.72923 20.5095 8.06415 20.3544 8.35673 20.138C8.64931 19.9215 8.89355 19.6481 9.07487 19.334C9.25619 19.02 9.37086 18.6717 9.41203 18.3101C9.4532 17.9485 9.42002 17.581 9.31449 17.2294C9.20895 16.8778 9.03322 16.5495 8.7978 16.264C8.56237 15.9784 8.27207 15.7416 7.94425 15.5676C7.31276 15.2325 6.57926 15.1499 5.89807 15.3374C5.21687 15.5248 4.64107 15.9675 4.29178 16.5725C3.9425 17.1775 3.84695 17.8975 4.02525 18.5812C4.20354 19.2648 4.64178 19.8588 5.24777 20.2381Z" fill="white"/>
</g>
<defs>
<clipPath id="clip0_6604_11752">
<rect width="24" height="24" fill="white" transform="translate(0.5)"/>
</clipPath>
</defs>
</svg>
