<svg width="24" height="24" viewBox="0 0 24 24" fill="none" xmlns="http://www.w3.org/2000/svg">
<path d="M17.5843 23C17.0539 23 16.5452 22.7893 16.1701 22.4142C15.795 22.0391 15.5843 21.5304 15.5843 21C15.5843 20.4696 15.795 19.9609 16.1701 19.5858C16.5452 19.2107 17.0539 19 17.5843 19C18.1148 19 18.6235 19.2107 18.9985 19.5858C19.3736 19.9609 19.5843 20.4696 19.5843 21C19.5843 21.5304 19.3736 22.0391 18.9985 22.4142C18.6235 22.7893 18.1148 23 17.5843 23Z" fill="black"/>
<path d="M2.49854 4H4.49854V10H6.49854V3C6.49854 2.73478 6.39318 2.48043 6.20564 2.29289C6.01811 2.10536 5.76375 2 5.49854 2H2.49854V4Z" fill="black"/>
<path d="M20.438 7L18.438 15H14.5V17H19.22C19.4429 17 19.6595 16.9255 19.8352 16.7883C20.011 16.6512 20.1358 16.4592 20.19 16.243L22.69 6.243C22.7269 6.09555 22.7298 5.94162 22.6983 5.79291C22.6668 5.6442 22.6019 5.50462 22.5083 5.38479C22.4148 5.26495 22.2952 5.16801 22.1586 5.10134C22.022 5.03466 21.872 5 21.72 5H8V7H20.438Z" fill="black"/>
<path fill-rule="evenodd" clip-rule="evenodd" d="M2.63496 14.6555C2.12978 15.1847 1.7594 15.826 1.55349 16.5281L0 16.5136L0.0284414 19.1947L1.58159 19.2103C1.80087 19.9171 2.1842 20.5663 2.70061 21.1056L1.93627 22.4295L4.30085 23.7946L5.06452 22.4719C5.78975 22.6495 6.54365 22.6569 7.26536 22.4934L8.05551 23.8306L10.3923 22.5136L9.60216 21.1763C10.1076 20.6468 10.4781 20.0051 10.684 19.3026L12.2378 19.3171L12.21 16.6348L10.6562 16.6203C10.4385 15.9216 10.0608 15.2707 9.53784 14.7239L10.3008 13.4023L7.93628 12.0372L7.17327 13.3587C6.44774 13.1814 5.6936 13.1744 4.97176 13.3384L4.18229 12L1.84482 13.3182L2.63496 14.6555ZM4.74777 20.2381C5.06235 20.435 5.41259 20.568 5.77757 20.6291C6.14254 20.6903 6.51477 20.6783 6.872 20.5939C7.22923 20.5095 7.56415 20.3544 7.85673 20.138C8.14931 19.9215 8.39355 19.6481 8.57487 19.334C8.75619 19.02 8.87086 18.6717 8.91203 18.3101C8.9532 17.9485 8.92002 17.581 8.81449 17.2294C8.70895 16.8778 8.53322 16.5495 8.2978 16.264C8.06237 15.9784 7.77207 15.7416 7.44425 15.5676C6.81276 15.2325 6.07926 15.1499 5.39807 15.3374C4.71687 15.5248 4.14107 15.9675 3.79178 16.5725C3.4425 17.1775 3.34695 17.8975 3.52525 18.5812C3.70354 19.2648 4.14178 19.8588 4.74777 20.2381Z" fill="black"/>
</svg>
