<svg width="21" height="19" viewBox="0 0 21 19" fill="none" xmlns="http://www.w3.org/2000/svg">
<path d="M15 0C18.038 0 20.5 2.5 20.5 6C20.5 13 13 17 10.5 18.5C8 17 0.5 13 0.5 6C0.5 2.5 3 0 6 0C7.86 0 9.5 1 10.5 2C11.5 1 13.14 0 15 0ZM11.434 15.604C12.315 15.048 13.11 14.495 13.854 13.903C16.835 11.533 18.5 8.943 18.5 6C18.5 3.64 16.963 2 15 2C13.924 2 12.76 2.57 11.914 3.414L10.5 4.828L9.086 3.414C8.24 2.57 7.076 2 6 2C4.06 2 2.5 3.656 2.5 6C2.5 8.944 4.166 11.533 7.145 13.903C7.89 14.495 8.685 15.048 9.566 15.603C9.865 15.792 10.161 15.973 10.5 16.175C10.839 15.973 11.135 15.792 11.434 15.604Z" fill="white"/>
</svg>
