<svg width="12" height="13" viewBox="0 0 12 13" fill="none" xmlns="http://www.w3.org/2000/svg">
<path fill-rule="evenodd" clip-rule="evenodd" d="M0 0.666748V1.33341C0 1.55646 0.00666475 1.77877 0.0198463 2.00008C0.100887 3.3607 0.428252 4.6836 0.96757 5.90852C1.14306 6.3071 1.34099 6.69531 1.56019 7.07107C1.5704 7.08858 1.58067 7.10607 1.59097 7.12353C2.0691 7.93334 2.64632 8.68451 3.31067 9.35608C3.98332 10.0215 4.73583 10.5995 5.54712 11.0781C5.56312 11.0875 5.57913 11.0969 5.59517 11.1063C5.59513 11.1062 5.59521 11.1063 5.59517 11.1063C5.97105 11.3255 6.35951 11.5236 6.75823 11.6992C7.98315 12.2385 9.30604 12.5659 10.6667 12.6469C10.888 12.6601 11.1103 12.6667 11.3333 12.6667H12V8.32541L7.83333 7.90008L6.33333 10.0001C6.33333 10.0001 6.30699 9.98251 6.25977 9.95038C6.10837 9.84735 5.74231 9.59466 5.34159 9.29169C5.31135 9.26883 5.28092 9.24568 5.25036 9.22229C4.90268 8.95612 4.53947 8.65841 4.27467 8.39208C3.68327 7.79727 3.35174 7.35795 2.72054 6.41411C2.70283 6.38761 2.68487 6.36072 2.66667 6.33342L4.76667 4.83342L4.34133 0.666748H0ZM3.13718 2.00008H1.35587C1.42879 3.07804 1.67714 4.12933 2.07904 5.11461L3.36159 4.1985L3.13718 2.00008ZM7.55214 10.5877C8.53742 10.9896 9.58871 11.238 10.6667 11.3109V9.52957L8.46825 9.30516L7.55214 10.5877Z" fill="white"/>
</svg>
