<svg width="18" height="19" viewBox="0 0 18 19" fill="none" xmlns="http://www.w3.org/2000/svg">
<path fill-rule="evenodd" clip-rule="evenodd" d="M0 0.5V1.5C0 1.83457 0.00999712 2.16803 0.0297695 2.5C0.151331 4.54093 0.642379 6.52527 1.45136 8.36265C1.71459 8.96053 2.01149 9.54284 2.34028 10.1065C2.3556 10.1328 2.371 10.159 2.38646 10.1852C3.10366 11.3999 3.96949 12.5266 4.966 13.534C5.97497 14.5321 7.10374 15.3991 8.32069 16.117C8.34468 16.1311 8.3687 16.1452 8.39276 16.1593C8.3927 16.1592 8.39282 16.1593 8.39276 16.1593C8.95658 16.4882 9.53927 16.7853 10.1373 17.0486C11.9747 17.8576 13.9591 18.3487 16 18.4702C16.332 18.49 16.6654 18.5 17 18.5H18V11.988L11.75 11.35L9.5 14.5C9.5 14.5 9.46049 14.4736 9.38966 14.4254C9.16255 14.2709 8.61346 13.8919 8.01238 13.4374C7.96703 13.4031 7.92137 13.3684 7.87554 13.3333C7.35402 12.9341 6.80921 12.4875 6.412 12.088C5.5249 11.1958 5.02761 10.5368 4.08082 9.12104C4.05424 9.0813 4.02731 9.04096 4 9L7.15 6.75L6.512 0.5H0ZM4.70577 2.5H2.03381C2.14319 4.11694 2.51571 5.69387 3.11857 7.17179L5.04239 5.79763L4.70577 2.5ZM11.3282 15.3814C12.8061 15.9843 14.3831 16.3568 16 16.4662V13.7942L12.7024 13.4576L11.3282 15.3814Z" fill="black"/>
</svg>
