<svg width="80" height="80" viewBox="0 0 80 80" fill="none" xmlns="http://www.w3.org/2000/svg">
<g filter="url(#filter0_d_5081_55399)">
<circle cx="40" cy="36" r="32" fill="#62BC5B"/>
<path d="M49.5981 38.9846C49.5202 38.9472 46.6041 37.5113 46.0859 37.3248C45.8743 37.2488 45.6477 37.1746 45.4067 37.1746C45.0129 37.1746 44.6821 37.3709 44.4245 37.7563C44.1332 38.1893 43.2513 39.2201 42.9789 39.528C42.9433 39.5687 42.8947 39.6172 42.8656 39.6172C42.8395 39.6172 42.3882 39.4314 42.2516 39.372C39.1234 38.0132 36.749 34.7455 36.4234 34.1945C36.3769 34.1153 36.375 34.0793 36.3746 34.0793C36.386 34.0374 36.4912 33.9319 36.5455 33.8775C36.7043 33.7204 36.8764 33.5132 37.0429 33.3128C37.1217 33.2179 37.2007 33.1228 37.2782 33.0332C37.5198 32.7522 37.6273 32.534 37.752 32.2813L37.8173 32.15C38.1217 31.5452 37.8617 31.0348 37.7777 30.87C37.7087 30.732 36.4774 27.7604 36.3465 27.4481C36.0317 26.6948 35.6158 26.344 35.0377 26.344C34.9841 26.344 35.0377 26.344 34.8128 26.3535C34.5389 26.365 33.0473 26.5614 32.3878 26.9771C31.6885 27.418 30.5054 28.8235 30.5054 31.2952C30.5054 33.5197 31.9171 35.6201 32.5232 36.4189C32.5382 36.4391 32.5659 36.48 32.606 36.5387C34.9272 39.9285 37.8208 42.4407 40.7542 43.6126C43.5782 44.7406 44.9155 44.871 45.6757 44.871C45.6759 44.871 45.6759 44.871 45.6759 44.871C45.9954 44.871 46.2511 44.8459 46.4767 44.8237L46.6198 44.8101C47.5954 44.7236 49.7393 43.6127 50.2269 42.2575C50.6111 41.1901 50.7124 40.0239 50.4568 39.6006C50.2817 39.3128 49.98 39.168 49.5981 38.9846Z" fill="white"/>
<path d="M40.355 16C29.5218 16 20.7083 24.7473 20.7083 35.4991C20.7083 38.9766 21.6389 42.3806 23.4019 45.3599L20.0275 55.3138C19.9646 55.4994 20.0114 55.7045 20.1487 55.8443C20.2478 55.9455 20.3822 56 20.5195 56C20.572 56 20.625 55.9921 20.6767 55.9756L31.0559 52.6774C33.8962 54.1949 37.1063 54.996 40.3552 54.996C51.1874 54.9961 60 46.2497 60 35.4991C60 24.7473 51.1874 16 40.355 16ZM40.355 50.9343C37.298 50.9343 34.3371 50.0516 31.7919 48.3814C31.7063 48.3252 31.607 48.2964 31.507 48.2964C31.4541 48.2964 31.4011 48.3044 31.3496 48.3208L26.1502 49.9735L27.8287 45.0217C27.883 44.8614 27.8558 44.6847 27.7558 44.5481C25.8176 41.8997 24.7931 38.7708 24.7931 35.4991C24.7931 26.987 31.7741 20.0618 40.3549 20.0618C48.9347 20.0618 55.9149 26.987 55.9149 35.4991C55.915 44.0101 48.9349 50.9343 40.355 50.9343Z" fill="white"/>
</g>
<defs>
<filter id="filter0_d_5081_55399" x="0" y="0" width="80" height="80" filterUnits="userSpaceOnUse" color-interpolation-filters="sRGB">
<feFlood flood-opacity="0" result="BackgroundImageFix"/>
<feColorMatrix in="SourceAlpha" type="matrix" values="0 0 0 0 0 0 0 0 0 0 0 0 0 0 0 0 0 0 127 0" result="hardAlpha"/>
<feOffset dy="4"/>
<feGaussianBlur stdDeviation="4"/>
<feColorMatrix type="matrix" values="0 0 0 0 0 0 0 0 0 0 0 0 0 0 0 0 0 0 0.1 0"/>
<feBlend mode="multiply" in2="BackgroundImageFix" result="effect1_dropShadow_5081_55399"/>
<feBlend mode="normal" in="SourceGraphic" in2="effect1_dropShadow_5081_55399" result="shape"/>
</filter>
</defs>
</svg>
