<svg width="15" height="15" viewBox="0 0 15 15" fill="none" xmlns="http://www.w3.org/2000/svg">
<path d="M8.87424 7.51314L14.715 1.67226C15.0951 1.29234 15.0951 0.678052 14.715 0.298127C14.335 -0.0817976 13.7207 -0.0817976 13.3408 0.298127L7.49993 6.13901L1.65922 0.298127C1.27911 -0.0817976 0.665003 -0.0817976 0.285078 0.298127C-0.095026 0.678052 -0.095026 1.29234 0.285078 1.67226L6.12579 7.51314L0.285078 13.354C-0.095026 13.7339 -0.095026 14.3482 0.285078 14.7282C0.474418 14.9177 0.723371 15.0129 0.972147 15.0129C1.22092 15.0129 1.4697 14.9177 1.65922 14.7282L7.49993 8.88728L13.3408 14.7282C13.5303 14.9177 13.7791 15.0129 14.0279 15.0129C14.2767 15.0129 14.5254 14.9177 14.715 14.7282C15.0951 14.3482 15.0951 13.7339 14.715 13.354L8.87424 7.51314Z" fill="#A3A3A3"/>
</svg>
