<svg width="21" height="21" viewBox="0 0 21 21" fill="none" xmlns="http://www.w3.org/2000/svg">
<path d="M10.501 0C7.64933 0 7.29145 0.0124652 6.17144 0.0634372C5.05362 0.114623 4.29061 0.291594 3.62297 0.55126C2.93237 0.81944 2.34655 1.17819 1.76293 1.76203C1.17886 2.34566 0.8201 2.93147 0.551038 3.62184C0.290718 4.28969 0.113525 5.05291 0.0632201 6.17028C0.0131286 7.29028 0 7.64838 0 10.5C0 13.3516 0.0126909 13.7084 0.0634335 14.8284C0.114849 15.9462 0.291818 16.7092 0.551252 17.3768C0.819662 18.0674 1.17841 18.6532 1.76226 19.2369C2.34569 19.8209 2.9315 20.1806 3.62166 20.4487C4.28972 20.7084 5.05296 20.8854 6.17056 20.9366C7.29058 20.9875 7.64823 21 10.4997 21C13.3515 21 13.7083 20.9875 14.8283 20.9366C15.9462 20.8854 16.7101 20.7084 17.3781 20.4487C18.0685 20.1806 18.6534 19.8209 19.2369 19.2369C19.8209 18.6532 20.1797 18.0674 20.4487 17.3771C20.7069 16.7092 20.8841 15.946 20.9366 14.8286C20.9869 13.7086 21 13.3516 21 10.5C21 7.64837 20.9869 7.2905 20.9366 6.1705C20.8841 5.05268 20.7069 4.28969 20.4487 3.62207C20.1797 2.93147 19.8209 2.34565 19.2369 1.76203C18.6528 1.17796 18.0687 0.819216 17.3775 0.55125C16.7081 0.291594 15.9446 0.114623 14.8268 0.0634372C13.7068 0.0124652 13.3502 0 10.4977 0H10.501ZM9.55903 1.89219C9.83861 1.89175 10.1505 1.89219 10.501 1.89219C13.3045 1.89219 13.6368 1.90225 14.7439 1.95256C15.7677 1.99938 16.3233 2.17043 16.6934 2.31415C17.1834 2.50446 17.5328 2.73197 17.9001 3.09947C18.2676 3.46697 18.4951 3.81697 18.6858 4.30696C18.8295 4.67665 19.0008 5.23228 19.0474 6.25604C19.0977 7.3629 19.1087 7.69541 19.1087 10.4976C19.1087 13.2998 19.0977 13.6323 19.0474 14.7392C19.0006 15.7629 18.8295 16.3185 18.6858 16.6882C18.4955 17.1782 18.2676 17.5271 17.9001 17.8944C17.5326 18.2619 17.1836 18.4894 16.6934 18.6797C16.3237 18.8241 15.7677 18.9947 14.7439 19.0415C13.637 19.0918 13.3045 19.1028 10.501 19.1028C7.69724 19.1028 7.36495 19.0918 6.25806 19.0415C5.23431 18.9943 4.67868 18.8232 4.30833 18.6795C3.81832 18.4892 3.46831 18.2617 3.10082 17.8942C2.73331 17.5267 2.50581 17.1776 2.31505 16.6873C2.17133 16.3177 2.00005 15.762 1.95346 14.7383C1.90315 13.6314 1.89308 13.2989 1.89308 10.495C1.89308 7.69104 1.90315 7.36028 1.95346 6.25341C2.00028 5.22965 2.17133 4.67403 2.31505 4.30391C2.50536 3.81391 2.73331 3.46391 3.10082 3.09641C3.46831 2.7289 3.81832 2.50141 4.30833 2.31066C4.67846 2.16628 5.23431 1.99566 6.25806 1.94862C7.2267 1.90487 7.60208 1.89175 9.55904 1.88955L9.55903 1.89219ZM16.1059 3.63562C15.4102 3.63562 14.8458 4.19935 14.8458 4.89518C14.8458 5.59081 15.4102 6.15519 16.1059 6.15519C16.8015 6.15519 17.3659 5.59081 17.3659 4.89518C17.3659 4.19956 16.8015 3.6352 16.1058 3.6352L16.1059 3.63562ZM10.501 5.10781C7.52311 5.10781 5.10874 7.52215 5.10874 10.5C5.10874 13.4778 7.52311 15.8911 10.501 15.8911C13.4789 15.8911 15.8924 13.4778 15.8924 10.5C15.8924 7.52215 13.4786 5.10781 10.5008 5.10781H10.501ZM10.501 7C12.4339 7 14.001 8.56691 14.001 10.5C14.001 12.4329 12.4339 14 10.501 14C8.56787 14 7.00095 12.4329 7.00095 10.5C7.00095 8.56691 8.56787 7 10.501 7Z" fill="white"/>
</svg>
