<svg width="18" height="22" viewBox="0 0 18 22" fill="none" xmlns="http://www.w3.org/2000/svg">
<path d="M1.71112 8.99721C1.71112 13.9792 6.13079 18.099 8.08705 19.6786C8.36702 19.9047 8.50869 20.019 8.71756 20.077C8.88021 20.1222 9.11959 20.1222 9.28223 20.077C9.4915 20.0189 9.63217 19.9057 9.9132 19.6788C11.8695 18.0992 16.2889 13.9796 16.2889 8.99767C16.2889 7.11231 15.521 5.30394 14.1541 3.97078C12.7871 2.63763 10.9333 1.88867 9.00014 1.88867C7.06699 1.88867 5.21294 2.63774 3.846 3.9709C2.47906 5.30405 1.71112 7.11185 1.71112 8.99721Z" stroke="#0091FF" stroke-width="2" stroke-linecap="round" stroke-linejoin="round"/>
<path d="M6.9175 8.04961C6.9175 9.18381 7.84989 10.1033 9.00005 10.1033C10.1502 10.1033 11.0826 9.18381 11.0826 8.04961C11.0826 6.91541 10.1502 5.99596 9.00005 5.99596C7.84989 5.99596 6.9175 6.91541 6.9175 8.04961Z" stroke="#0091FF" stroke-width="2" stroke-linecap="round" stroke-linejoin="round"/>
</svg>
