<svg width="13" height="13" viewBox="0 0 13 13" fill="none" xmlns="http://www.w3.org/2000/svg">
<path d="M4.66681 1.73333H3.34681C2.5254 1.73333 2.11439 1.73333 1.80065 1.89319C1.52468 2.0338 1.30047 2.25801 1.15986 2.53398C1 2.84772 1 3.25873 1 4.08014V9.65348C1 10.4749 1 10.8854 1.15986 11.1991C1.30047 11.4751 1.52468 11.6997 1.80065 11.8403C2.11408 12 2.5246 12 3.3444 12H8.92227C9.74207 12 10.152 12 10.4654 11.8403C10.7414 11.6997 10.9664 11.4749 11.107 11.1989C11.2667 10.8855 11.2667 10.4754 11.2667 9.6556V8.33333M12 4.66667V1M12 1H8.33333M12 1L6.86667 6.13333" stroke="#8C8C8C" stroke-width="1.46667" stroke-linecap="round" stroke-linejoin="round"/>
</svg>
