<svg width="56" height="55" viewBox="0 0 56 55" fill="none" xmlns="http://www.w3.org/2000/svg">
<path fill-rule="evenodd" clip-rule="evenodd" d="M27.3451 0.00825893C28.527 0.0302827 29.8594 0.107366 30.2999 0.173437C30.7404 0.239509 31.6107 0.393676 32.2339 0.514807C32.8571 0.646949 33.9101 0.911235 34.5763 1.12046C35.2317 1.32969 36.2739 1.69308 36.8756 1.94635C37.4881 2.18862 38.4873 2.66213 39.1105 2.98147C39.7337 3.31183 40.8189 3.97254 41.528 4.44606C42.2372 4.91957 43.2042 5.62433 43.677 6.00975C44.1497 6.39516 45.1167 7.30915 45.8366 8.03594C46.5458 8.77373 47.4591 9.78683 47.8566 10.3044C48.2542 10.8219 48.8881 11.7139 49.2534 12.2865C49.6295 12.8592 50.1882 13.8172 50.4891 14.4118C50.7899 14.9955 51.0156 15.48 50.9833 15.48C50.9511 15.48 50.7792 15.1937 50.5858 14.8413C50.4031 14.4999 49.9518 13.7731 49.5758 13.2225C49.2105 12.6719 48.5228 11.758 48.05 11.1853C47.588 10.6127 46.8359 9.78683 46.4061 9.36838C45.9656 8.93891 45.149 8.21213 44.5903 7.74963C44.0315 7.29814 43.1075 6.6154 42.5488 6.241C41.9901 5.86659 41.023 5.29397 40.3998 4.96362C39.7767 4.64427 38.6915 4.14873 37.9823 3.86243C37.2732 3.58713 36.1665 3.21272 35.511 3.03653C34.8556 2.86034 33.9423 2.6401 33.4696 2.55201C32.9968 2.46391 32.1372 2.33177 31.557 2.2657C30.9875 2.21064 29.7734 2.15558 28.8709 2.15558C27.979 2.15558 26.7971 2.21064 26.2706 2.2657C25.7442 2.33177 24.7986 2.47493 24.1754 2.59606C23.5523 2.71719 22.5208 2.97046 21.8653 3.15766C21.2099 3.34487 20.1569 3.73028 19.5015 3.99457C18.8461 4.25885 17.8146 4.75439 17.1914 5.08475C16.5682 5.42612 15.5582 6.04278 14.9351 6.47225C14.3119 6.90171 13.4415 7.55141 13.001 7.92582C12.5605 8.28921 11.7331 9.07106 11.1744 9.64367C10.605 10.2163 9.77762 11.1633 9.32635 11.7359C8.87507 12.3086 8.20891 13.2556 7.84359 13.8282C7.47827 14.4008 6.82285 15.6231 6.39306 16.5261C5.95253 17.4401 5.42604 18.7175 5.21115 19.3892C4.99626 20.0609 4.70615 21.0961 4.56647 21.7017C4.42679 22.3074 4.26562 23.1222 4.20115 23.5187C4.14743 23.9151 4.03999 24.8731 3.96477 25.666C3.88956 26.5029 3.86807 27.6702 3.91105 28.474C3.95403 29.2339 4.06147 30.3681 4.14743 31.0068C4.23339 31.6455 4.45903 32.7797 4.63094 33.5395C4.8136 34.2993 5.15743 35.4556 5.39381 36.1273C5.63019 36.799 6.03849 37.7901 6.29636 38.3297C6.54349 38.8693 7.03774 39.8163 7.39231 40.4219C7.74689 41.0276 8.39156 42.0187 8.83209 42.6243C9.28337 43.23 10.1215 44.2431 10.7017 44.8708C11.2926 45.4984 12.2274 46.4124 12.7861 46.8859C13.3448 47.3705 14.3334 48.1303 14.9888 48.5708C15.6442 49.0112 16.7939 49.694 17.5675 50.0904C18.3411 50.4758 19.4263 50.9824 19.985 51.1916C20.5438 51.4118 21.4463 51.7202 21.9728 51.8743C22.4993 52.0285 23.4233 52.2487 24.0143 52.3699C24.6052 52.491 25.497 52.6341 26.002 52.7112C26.507 52.7773 27.8394 52.8324 28.9568 52.8324C30.2354 52.8213 31.4603 52.7553 32.2339 52.6452C32.9108 52.5461 33.8779 52.3699 34.3829 52.2597C34.8878 52.1386 35.683 51.9294 36.1557 51.7862C36.6285 51.6431 37.4988 51.3347 38.0898 51.1035C38.6807 50.8722 39.7229 50.3877 40.3998 50.0243C41.0768 49.6719 42.162 49.0222 42.8174 48.5708C43.4728 48.1303 44.3861 47.4475 44.8589 47.0511C45.3316 46.6657 46.2557 45.7737 46.9004 45.091C47.5558 44.3972 48.4476 43.3401 48.8881 42.7344C49.3394 42.1288 49.9626 41.2038 50.2849 40.6642C50.6073 40.1356 50.8866 39.7172 50.9081 39.7282C50.9189 39.7502 50.6825 40.2347 50.3816 40.8074C50.0808 41.38 49.5865 42.2279 49.2857 42.6794C48.9848 43.1309 48.4476 43.9017 48.093 44.3862C47.7384 44.8708 46.8896 45.8508 46.202 46.5776C45.525 47.2934 44.4828 48.2955 43.8919 48.791C43.3009 49.2865 42.3769 49.9913 41.8504 50.3547C41.3239 50.7181 40.3998 51.2907 39.8089 51.6321C39.2179 51.9734 38.1757 52.491 37.4988 52.7883C36.8219 53.0856 35.7044 53.5151 35.0275 53.7353C34.3506 53.9556 33.2654 54.2529 32.61 54.4071C31.9546 54.5502 30.7941 54.7594 30.0313 54.8586C28.9461 55.0017 28.0972 55.0237 26.2706 54.9797C24.5837 54.9466 23.5415 54.8586 22.6175 54.7044C21.9083 54.5722 20.7694 54.33 20.0925 54.1428C19.4156 53.9666 18.2981 53.6142 17.6212 53.3609C16.9443 53.0966 15.7731 52.5791 15.0103 52.1937C14.2581 51.8083 13.1944 51.2026 12.6572 50.8612C12.1092 50.5088 11.1744 49.8591 10.5835 49.3966C10.0033 48.9452 8.98252 48.0532 8.33784 47.4145C7.69316 46.7758 6.75838 45.7627 6.25338 45.1571C5.75913 44.5514 4.96402 43.4612 4.49126 42.7344C4.0185 42.0077 3.25563 40.6202 2.79361 39.6511C2.32084 38.6821 1.74063 37.2946 1.50425 36.5678C1.25712 35.841 0.977762 34.8719 0.859571 34.4205C0.752125 33.969 0.580211 33.2091 0.494253 32.7356C0.397552 32.2731 0.247127 31.227 0.16117 30.4341C0.0752125 29.6303 0 28.2978 0 27.483C0 26.6681 0.0752125 25.3577 0.16117 24.5648C0.247127 23.7719 0.429786 22.5386 0.580211 21.8118C0.730636 21.085 1.02074 19.9508 1.22489 19.2791C1.42904 18.6074 1.82659 17.5282 2.09521 16.8565C2.36382 16.1847 2.83659 15.1717 3.12669 14.599C3.42754 14.0264 4.02924 13.0023 4.45903 12.3416C4.88881 11.6809 5.56572 10.7118 5.97402 10.1943C6.37157 9.67671 7.24189 8.70766 7.88657 8.03594C8.54199 7.37522 9.48752 6.48326 9.99252 6.07582C10.4975 5.65737 11.4323 4.96362 12.0877 4.52314C12.7324 4.08266 13.7746 3.44397 14.3978 3.11362C15.021 2.77225 16.0525 2.27671 16.7079 2.00141C17.3633 1.73713 18.47 1.32969 19.1792 1.10945C19.8883 0.889211 21.124 0.59189 21.9191 0.437723C22.7142 0.294568 23.7779 0.12939 24.2829 0.0743303C24.7879 0.00825892 26.1632 -0.0137649 27.3451 0.00825893ZM16.2996 11.9562C16.8154 11.9562 17.3204 12.0333 17.7501 12.1874C18.1262 12.3086 18.7172 12.5949 19.0717 12.8151C19.4263 13.0353 20.028 13.4868 20.4148 13.8172C20.8016 14.1365 21.4248 14.7202 21.8116 15.0946C22.1984 15.469 22.8753 16.0856 23.3159 16.46C23.7564 16.8344 24.53 17.352 25.035 17.6163C25.54 17.8806 26.2169 18.1779 26.5393 18.288C26.8616 18.3981 27.5385 18.5743 28.9568 18.8606L28.2047 18.9487C27.7856 18.9928 27.0658 18.9928 26.593 18.9597C26.1202 18.9157 25.3681 18.8056 24.9276 18.7065C24.487 18.6184 23.8316 18.4532 23.477 18.3321C23.1225 18.2109 21.8653 17.6273 20.6834 17.0216C19.4263 16.383 18.2981 15.8764 17.965 15.8103C17.589 15.7333 17.2451 15.7333 16.8906 15.8214C16.6112 15.8764 16.1922 16.0526 15.9558 16.1847C15.7194 16.3279 15.2574 16.7353 14.9351 17.0877C14.6127 17.4511 14.2152 18.0127 14.0647 18.3431C13.9036 18.6734 13.6887 19.2681 13.5812 19.6645C13.4415 20.1931 13.3986 20.7767 13.3986 21.8669C13.3986 22.7589 13.4738 23.7719 13.5812 24.3996C13.6779 24.9722 13.9036 26.0184 14.0862 26.7121C14.2581 27.4059 14.5697 28.5181 14.7846 29.1898C14.9995 29.8615 15.44 31.1499 15.7624 32.0529C16.0955 32.9669 16.8046 34.7949 17.3526 36.1273C17.9006 37.4597 19.3296 40.8074 20.5223 43.5603C21.7149 46.3133 22.8646 48.9562 23.058 49.4297C23.2621 49.8922 23.4018 50.2776 23.3696 50.2776C23.3374 50.2776 22.5745 49.1213 21.6719 47.7228C20.7586 46.3133 19.6305 44.5074 19.1577 43.7255C18.6849 42.9437 17.8468 41.5011 17.3096 40.5321C16.7616 39.563 15.8161 37.735 15.2037 36.4577C14.602 35.1803 13.8498 33.5285 13.5597 32.7687C13.2589 32.0089 12.8184 30.8196 12.5712 30.1258C12.3348 29.4321 11.9373 28.1657 11.7117 27.3178C11.4753 26.4699 11.1637 25.1594 11.024 24.3996C10.8736 23.6398 10.7017 22.4065 10.6265 21.6467C10.5297 20.5895 10.519 19.9949 10.6157 19.0589C10.6802 18.3871 10.8628 17.3961 11.024 16.8565C11.1744 16.3169 11.4753 15.524 11.6902 15.0946C11.9051 14.6761 12.3348 14.0594 12.6357 13.7181C12.9365 13.3877 13.3986 12.9693 13.6457 12.7821C13.9036 12.5949 14.4301 12.3416 14.8169 12.2094C15.2896 12.0443 15.7946 11.9562 16.2996 11.9562ZM38.7882 12.9583C39.0568 12.9583 39.5403 13.0133 39.8626 13.0904C40.185 13.1675 40.6685 13.3547 40.9371 13.5199C41.2057 13.674 41.5818 13.9934 41.7859 14.2246C41.9901 14.4669 42.2909 14.9514 42.4521 15.3148C42.6025 15.6782 42.8174 16.3499 42.9141 16.8014C43.0215 17.2529 43.129 18.1999 43.1612 18.8937C43.1935 19.5874 43.1612 20.8318 43.0968 21.6467C43.0215 22.4615 42.8389 23.8821 42.6885 24.785C42.538 25.699 42.2587 27.1086 42.0653 27.9234C41.8611 28.7383 41.4851 30.1699 41.2164 31.0949C40.9478 32.0089 40.3998 33.6496 40.013 34.7288C39.6262 35.7969 38.9493 37.5148 38.5195 38.5499C38.0898 39.585 37.4343 41.0386 37.069 41.7984C36.7037 42.5583 36.188 43.5824 35.9301 44.0779C35.6722 44.5844 35.4358 44.9809 35.4036 44.9589C35.3714 44.9478 35.4788 44.4853 35.6292 43.9458C35.7797 43.4062 36.3276 41.6222 36.8541 39.9815C37.3699 38.3407 38.0038 36.2594 38.2402 35.3565C38.4766 34.4425 38.8204 32.9999 39.003 32.13C39.175 31.2711 39.4436 29.7624 39.5833 28.7714C39.7337 27.7913 39.9056 26.3928 39.9808 25.666C40.056 24.9392 40.1097 23.4306 40.1097 22.3074C40.1097 20.8978 40.056 19.9508 39.9271 19.224C39.8196 18.5523 39.6155 17.8916 39.3791 17.374C39.0568 16.7023 38.9278 16.5371 38.4873 16.2728C38.0253 15.9975 37.8856 15.9755 36.9078 15.9755C36.1342 15.9755 35.2961 16.0856 33.8993 16.3609C32.2662 16.6803 31.7289 16.7353 30.4073 16.7353C29.2362 16.7464 28.6774 16.6913 28.151 16.5481C27.7642 16.438 27.0872 16.1847 26.6467 15.9755C26.2062 15.7553 25.8624 15.5681 25.8946 15.5461C25.9268 15.524 26.3566 15.5571 26.8616 15.6231C27.4955 15.7002 28.151 15.6892 29.0105 15.6011C29.6874 15.535 30.7727 15.3368 31.4281 15.1606C32.0728 14.9734 33.3836 14.533 34.3291 14.1806C35.2747 13.8172 36.3384 13.4318 36.6929 13.3327C37.0475 13.2225 37.5525 13.1014 37.8211 13.0574C38.0898 13.0133 38.5195 12.9693 38.7882 12.9583ZM54.3894 13.1675C54.4431 13.1675 54.5183 13.4538 54.6365 14.4339L55.2275 14.555C55.5498 14.6211 55.8936 14.6981 55.9796 14.7312C56.0655 14.7642 55.8721 14.8193 55.5498 14.8743C55.2275 14.9184 54.8729 14.9955 54.7654 15.0505C54.6365 15.1166 54.572 15.3258 54.5291 15.7553C54.4968 16.0856 54.4216 16.3609 54.3679 16.3609C54.3034 16.3609 54.2389 16.0636 54.2067 15.7002C54.153 15.0836 54.1315 15.0395 53.8521 14.9844C53.691 14.9624 53.3686 14.9074 53.1322 14.8743C52.8959 14.8303 52.724 14.7862 52.7562 14.7532C52.7884 14.7312 53.1 14.6431 54.0993 14.4339L54.196 13.7952C54.2497 13.4538 54.3357 13.1675 54.3894 13.1675ZM47.6203 13.7731C47.6847 13.8172 47.7277 13.9383 47.7169 14.0594C47.7062 14.1916 47.7922 14.2797 47.9426 14.3127C48.179 14.3458 48.179 14.3568 47.9748 14.4228C47.8566 14.4669 47.7062 14.6321 47.5128 15.0946L47.5021 14.7862C47.4913 14.555 47.4268 14.4779 46.9004 14.3458L47.169 14.2797C47.3301 14.2356 47.4591 14.1145 47.4806 13.9603C47.5021 13.8282 47.5665 13.7401 47.6203 13.7731ZM52.7025 21.1511L53.8844 21.3824C54.5398 21.5145 55.0448 21.6356 55.0126 21.6356C54.9803 21.6467 54.4538 21.7458 52.7025 22.0431L52.4768 23.2434C52.3479 23.9702 52.2297 24.3666 52.1867 24.2344C52.1545 24.1133 52.0685 23.6398 52.0041 23.1883C51.9288 22.7368 51.8321 22.2853 51.7892 22.1972C51.7354 22.0871 51.3164 21.966 50.5965 21.8339C49.9841 21.7237 49.4683 21.6246 49.4576 21.6136C49.4468 21.6026 49.9626 21.4925 50.618 21.3714C51.6173 21.1842 51.8107 21.1181 51.8429 20.9309C51.8751 20.8097 51.9611 20.2922 52.0578 19.7746C52.1437 19.2571 52.2297 18.8166 52.2297 18.7836C52.2404 18.7505 52.3479 19.2681 52.7025 21.1511ZM27.0443 33.8699C27.3988 33.8699 27.8071 33.958 28.1187 34.1121C28.4303 34.2553 28.989 34.7178 29.5048 35.2353C29.9775 35.7309 30.59 36.4687 30.8586 36.8981C31.138 37.3276 31.6215 38.2086 31.9438 38.8803C32.2769 39.552 32.7174 40.5431 32.9431 41.0827C33.158 41.6222 33.577 42.7895 33.8564 43.6705C34.1465 44.5514 34.3721 45.2782 34.3506 45.2892C34.3399 45.3002 33.8993 44.3091 33.3729 43.0868C32.8356 41.8645 32.148 40.3449 31.8256 39.7062C31.5033 39.0675 30.9768 38.1315 30.6437 37.6139C30.3214 37.0964 29.8056 36.4246 29.5048 36.1163C29.2039 35.808 28.7527 35.4556 28.4948 35.3234C28.2477 35.1913 27.8609 35.0481 27.6352 35.0151C27.3344 34.96 27.1087 35.0041 26.7004 35.2023C26.3244 35.3895 26.088 35.6097 25.8731 35.9621C25.7012 36.2374 25.4755 36.755 25.3574 37.1184C25.2392 37.4818 25.0672 38.1975 24.9705 38.7151C24.8738 39.2987 24.7879 40.7303 24.7449 42.5142C24.7127 44.166 24.7342 46.4785 24.8094 47.9651C24.8738 49.3856 24.9168 50.5639 24.9061 50.5749C24.8846 50.5859 24.7664 50.0904 24.6375 49.4737C24.5085 48.8571 24.3044 47.7339 24.1862 46.974C24.068 46.2142 23.9176 45.0029 23.8638 44.2761C23.7994 43.5493 23.7457 42.338 23.7457 41.5782C23.7457 40.8184 23.8209 39.6842 23.8961 39.0455C23.982 38.4068 24.1325 37.5699 24.2292 37.1734C24.3259 36.777 24.573 36.1163 24.7664 35.6868C24.9598 35.2574 25.2929 34.7618 25.4863 34.5636C25.6797 34.3764 25.9805 34.1341 26.1632 34.0461C26.3459 33.9469 26.7434 33.8699 27.0443 33.8699Z" fill="#0091FF"/>
</svg>
