<svg width="107" height="107" viewBox="0 0 107 107" fill="none" xmlns="http://www.w3.org/2000/svg">
<circle cx="53.5" cy="53.5" r="33.5" fill="white"/>
<circle cx="53.5" cy="53.5" r="42" stroke="white"/>
<circle cx="53.5" cy="53.5" r="53" stroke="white"/>
<path d="M46 61.2766V46.7245C46 45.5246 46 44.9239 46.2134 44.5689C46.3997 44.259 46.6869 44.0556 47.0057 44.0069C47.3708 43.9512 47.8186 44.2337 48.7129 44.798L60.2448 52.0741L60.249 52.0763C61.2373 52.6999 61.7317 53.0118 61.8939 53.4276C62.0354 53.7903 62.0354 54.209 61.8939 54.5717C61.7315 54.988 61.2359 55.3012 60.2448 55.9266L48.7129 63.2027C47.8179 63.7673 47.3709 64.0488 47.0057 63.9931C46.6869 63.9444 46.3997 63.741 46.2134 63.4311C46 63.0761 46 62.4766 46 61.2766Z" fill="#0091FF"/>
</svg>
