<svg width="22" height="22" viewBox="0 0 22 22" fill="none" xmlns="http://www.w3.org/2000/svg">
<path fill-rule="evenodd" clip-rule="evenodd" d="M18.791 3.19524C16.7236 1.13667 13.9723 0 11.0421 0C5.00287 0 0.0946914 4.89238 0.0894307 10.9005C0.0894307 12.8229 0.594452 14.6981 1.55189 16.3481L0 22L5.80775 20.4862C7.40698 21.3557 9.20612 21.8114 11.0421 21.8114H11.0473C17.0813 21.8114 21.9947 16.919 22 10.911C22 7.99333 20.8584 5.25381 18.791 3.19524ZM11.0473 19.9676C9.41129 19.9676 7.80679 19.5276 6.41272 18.7052L6.0813 18.5114L2.63558 19.4124L3.55619 16.0705L3.34051 15.73C2.43042 14.2895 1.94644 12.6186 1.94644 10.9057C1.94644 5.90857 6.03396 1.84381 11.0526 1.84381C13.483 1.84381 15.7714 2.78667 17.4864 4.49952C19.2066 6.21238 20.1535 8.49095 20.1483 10.911C20.143 15.9029 16.0607 19.9676 11.0473 19.9676ZM16.0397 13.1843C15.7661 13.0481 14.4194 12.3881 14.1722 12.299C13.9197 12.21 13.7408 12.1629 13.5567 12.4352C13.3725 12.7076 12.8517 13.3205 12.6887 13.5038C12.5308 13.6871 12.3678 13.7081 12.0942 13.5719C11.8207 13.4357 10.9369 13.1476 9.89527 12.2205C9.07987 11.4976 8.53276 10.6071 8.37494 10.3348C8.21712 10.0624 8.35916 9.91571 8.49593 9.77952C8.61693 9.65905 8.76949 9.46 8.90627 9.30286C9.04304 9.14571 9.09039 9.03048 9.17982 8.84714C9.26925 8.66381 9.22716 8.50667 9.15878 8.37048C9.09039 8.23429 8.54328 6.89333 8.31707 6.34857C8.09613 5.81952 7.86992 5.88762 7.70158 5.88238C7.54376 5.8719 7.35964 5.8719 7.17551 5.8719C6.99139 5.8719 6.6968 5.94 6.44428 6.21238C6.19177 6.48476 5.48685 7.14476 5.48685 8.48571C5.48685 9.82667 6.46533 11.1205 6.6021 11.3038C6.73888 11.4871 8.53276 14.2371 11.2788 15.4157C11.9311 15.6986 12.4414 15.8662 12.8412 15.9919C13.4988 16.2014 14.0933 16.17 14.5667 16.1019C15.0928 16.0233 16.187 15.4419 16.4132 14.8081C16.6394 14.1743 16.6394 13.6243 16.571 13.5143C16.4921 13.3886 16.3132 13.3205 16.0397 13.1843Z" fill="white"/>
</svg>
