<svg width="16" height="16" viewBox="0 0 16 16" fill="none" xmlns="http://www.w3.org/2000/svg">
<g clip-path="url(#clip0_1_2616)">
<path d="M14.2857 0H1.71428C0.767511 0 0 0.767511 0 1.71428V10.8571C0 11.8039 0.767511 12.5714 1.71428 12.5714H3.74287L3.43202 15.3657C3.39736 15.6794 3.62357 15.9618 3.93726 15.9964C4.09925 16.0143 4.26117 15.9622 4.38231 15.8531L8.02915 12.5714H14.2857C15.2325 12.5714 16 11.8039 16 10.8571V1.71428C16 0.767511 15.2325 0 14.2857 0ZM14.8571 10.8571C14.8571 11.1727 14.6013 11.4286 14.2857 11.4286H7.8097C7.66851 11.4286 7.53234 11.481 7.42741 11.5754L4.7337 14L4.94913 12.0634C4.98415 11.7498 4.75831 11.4672 4.44465 11.4321C4.42356 11.4298 4.40236 11.4286 4.38114 11.4286H1.71428C1.39868 11.4286 1.14285 11.1727 1.14285 10.8571V1.71428C1.14285 1.39868 1.39868 1.14285 1.71428 1.14285H14.2857C14.6013 1.14285 14.8572 1.39868 14.8572 1.71428V10.8571H14.8571Z" fill="#949494"/>
</g>
<defs>
<clipPath id="clip0_1_2616">
<rect width="16" height="16" fill="white"/>
</clipPath>
</defs>
</svg>
