<svg width="16" height="16" viewBox="0 0 16 16" fill="none" xmlns="http://www.w3.org/2000/svg">
<g clip-path="url(#clip0_1_2605)">
<path d="M14.6915 1.96356C13.864 1.07402 12.7043 0.567887 11.4893 0.566011C10.2734 0.567418 9.11252 1.07328 8.28366 1.96299L8.00117 2.26149L7.71869 1.96299C6.07401 0.192861 3.30572 0.091205 1.53562 1.73589C1.45719 1.8088 1.38143 1.88452 1.30852 1.96299C-0.436174 3.84486 -0.436174 6.7532 1.30852 8.63507L7.58604 15.2551C7.80322 15.4844 8.16515 15.4942 8.39443 15.277C8.40193 15.2699 8.40924 15.2626 8.41634 15.2551L14.6916 8.63507C16.4361 6.7534 16.4361 3.84522 14.6915 1.96356ZM13.8641 7.84765H13.8636L8.00117 14.0308L2.13825 7.84765C0.805405 6.40973 0.805405 4.18775 2.13825 2.74983C3.34864 1.43796 5.39338 1.3557 6.70525 2.56609C6.76894 2.62486 6.83022 2.68614 6.88899 2.74983L7.58604 3.48521C7.81575 3.71345 8.18663 3.71345 8.41634 3.48521L9.11339 2.7504C10.3238 1.43853 12.3685 1.35627 13.6804 2.56666C13.7441 2.62542 13.8054 2.68671 13.8641 2.7504C15.2086 4.1906 15.2184 6.41664 13.8641 7.84765Z" fill="#949494"/>
</g>
<defs>
<clipPath id="clip0_1_2605">
<rect width="16" height="16" fill="white"/>
</clipPath>
</defs>
</svg>
