<svg width="20" height="20" viewBox="0 0 20 20" fill="none" xmlns="http://www.w3.org/2000/svg">
<circle cx="10" cy="10" r="9" stroke="white" stroke-width="2"/>
<path fill-rule="evenodd" clip-rule="evenodd" d="M9.99992 6.6665C10.23 6.6665 10.4166 6.85305 10.4166 7.08317V12.9165C10.4166 13.1466 10.23 13.3332 9.99992 13.3332C9.76979 13.3332 9.58325 13.1466 9.58325 12.9165V7.08317C9.58325 6.85305 9.76979 6.6665 9.99992 6.6665Z" fill="white"/>
<path fill-rule="evenodd" clip-rule="evenodd" d="M6.66675 10.0002C6.66675 9.77004 6.8533 9.5835 7.08341 9.5835H12.9167C13.1469 9.5835 13.3334 9.77004 13.3334 10.0002C13.3334 10.2303 13.1469 10.4168 12.9167 10.4168H7.08341C6.8533 10.4168 6.66675 10.2303 6.66675 10.0002Z" fill="white"/>
</svg>
