<svg width="20" height="20" viewBox="0 0 20 20" fill="none" xmlns="http://www.w3.org/2000/svg">
<g clip-path="url(#clip0_201_1203)">
<path d="M14.6058 4.98223C14.2473 4.84281 13.8735 4.73672 13.4946 4.65551C14.0435 4.20902 14.9794 3.17547 14.9794 1.52734V0.585938C14.9794 0.262344 14.7171 0 14.3935 0H13.4521C12.1773 0 10.7988 0.630977 10.0003 1.94012C9.2019 0.631289 7.82373 0 6.54838 0H5.60698C5.28338 0 5.02104 0.262344 5.02104 0.585938V1.52734C5.02104 3.17539 5.95682 4.20895 6.5058 4.65551C6.12686 4.73672 5.75307 4.84281 5.39459 4.98223C2.35549 6.1641 2.51061 9.01562 2.51061 9.37238C2.51061 12.0257 3.40385 14.8003 5.43076 17.1312C6.89951 18.8203 8.77854 20 10.0002 20C11.2218 20 13.1009 18.8203 14.5696 17.1312C16.5984 14.7981 17.4898 12.0235 17.4898 9.37238C17.4898 8.9802 17.6285 6.15773 14.6058 4.98223ZM10.5861 4.03777C10.5861 2.46344 11.8644 1.17188 13.452 1.17188H13.8075V1.52734C13.8075 3.10145 12.5291 4.39324 10.9416 4.39324H10.5861V4.03777ZM6.19291 1.52734V1.17188H6.54838C8.13541 1.17188 9.41428 2.46281 9.41428 4.03777V4.39324H9.05881C7.47229 4.39324 6.19291 3.10234 6.19291 1.52734ZM13.6853 16.3623C12.1537 18.1237 10.5838 18.8281 10.0002 18.8281C9.41592 18.8281 7.84537 18.1222 6.31506 16.3623C4.50494 14.2805 3.68248 11.7939 3.68248 9.37238C3.68248 7.6893 4.36147 6.64137 5.81936 6.07441C7.12901 5.56508 8.7885 5.56508 10.0002 5.56508C11.2119 5.56508 12.8714 5.56508 14.1811 6.07441C15.6389 6.64137 16.318 7.6893 16.318 9.37238C16.3179 11.796 15.4937 14.2826 13.6853 16.3623Z" fill="#7FBAFF"/>
<path d="M8.11743 12.4688C8.44104 12.4688 8.70337 12.2064 8.70337 11.8828C8.70337 11.5592 8.44104 11.2969 8.11743 11.2969C7.79383 11.2969 7.53149 11.5592 7.53149 11.8828C7.53149 12.2064 7.79383 12.4688 8.11743 12.4688Z" fill="#7FBAFF"/>
<path d="M6.23462 9.33105C6.55822 9.33105 6.82056 9.06872 6.82056 8.74512C6.82056 8.42151 6.55822 8.15918 6.23462 8.15918C5.91101 8.15918 5.64868 8.42151 5.64868 8.74512C5.64868 9.06872 5.91101 9.33105 6.23462 9.33105Z" fill="#7FBAFF"/>
<path d="M10.0002 9.33105C10.3238 9.33105 10.5862 9.06872 10.5862 8.74512C10.5862 8.42151 10.3238 8.15918 10.0002 8.15918C9.67664 8.15918 9.41431 8.42151 9.41431 8.74512C9.41431 9.06872 9.67664 9.33105 10.0002 9.33105Z" fill="#7FBAFF"/>
<path d="M10.0002 15.6064C10.3238 15.6064 10.5862 15.3441 10.5862 15.0205C10.5862 14.6969 10.3238 14.4346 10.0002 14.4346C9.67664 14.4346 9.41431 14.6969 9.41431 15.0205C9.41431 15.3441 9.67664 15.6064 10.0002 15.6064Z" fill="#7FBAFF"/>
<path d="M13.7659 9.33105C14.0895 9.33105 14.3518 9.06872 14.3518 8.74512C14.3518 8.42151 14.0895 8.15918 13.7659 8.15918C13.4423 8.15918 13.1799 8.42151 13.1799 8.74512C13.1799 9.06872 13.4423 9.33105 13.7659 9.33105Z" fill="#7FBAFF"/>
<path d="M11.8831 12.4688C12.2067 12.4688 12.469 12.2064 12.469 11.8828C12.469 11.5592 12.2067 11.2969 11.8831 11.2969C11.5595 11.2969 11.2971 11.5592 11.2971 11.8828C11.2971 12.2064 11.5595 12.4688 11.8831 12.4688Z" fill="#7FBAFF"/>
</g>
<defs>
<clipPath id="clip0_201_1203">
<rect width="20" height="20" fill="white"/>
</clipPath>
</defs>
</svg>
