<svg width="49" height="49" viewBox="0 0 49 49" fill="none" xmlns="http://www.w3.org/2000/svg">
<g clip-path="url(#clip0_202_2637)">
<path d="M24.4997 48.9999C38.0305 48.9999 48.9994 38.031 48.9994 24.5002C48.9994 10.9694 38.0305 0.000488281 24.4997 0.000488281C10.9689 0.000488281 0 10.9694 0 24.5002C0 38.031 10.9689 48.9999 24.4997 48.9999Z" fill="#41B4E6"/>
<path d="M49.0001 24.5005C49.0001 23.9035 48.9776 23.312 48.9357 22.7256L38.7817 12.5718L10.2185 23.8072L21.1469 34.7358L21.2903 35.2518L21.4759 35.0647L21.4766 35.0655L21.2903 35.2518L33.3792 47.3407C42.5208 43.7844 49.0001 34.8996 49.0001 24.5005Z" fill="#0091C8"/>
<path d="M22.1206 28.0699L33.1926 36.4293L38.7815 12.5718L10.2183 23.8072L18.9097 26.6861L34.7719 16.0462L22.1206 28.0699Z" fill="white"/>
<path d="M18.9097 26.6858L21.2901 35.2516L22.1205 28.0697L34.7718 16.0459L18.9097 26.6858Z" fill="#D2D2D7"/>
<path d="M25.7191 30.7866L21.2903 35.2518L22.1207 28.0698L25.7191 30.7866Z" fill="#B9B9BE"/>
</g>
<defs>
<clipPath id="clip0_202_2637">
<rect width="49" height="49" fill="white"/>
</clipPath>
</defs>
</svg>
