<svg width="700" height="219" viewBox="0 0 700 219" fill="none" xmlns="http://www.w3.org/2000/svg">
<g clip-path="url(#clip0_18_12)">
<path d="M0 0H700V55.4167C700 112.589 700 141.175 688.873 163.011C679.088 182.22 663.469 197.836 644.263 207.624C622.424 218.75 593.837 218.75 536.667 218.75H0V0Z" fill="url(#paint0_linear_18_12)"/>
<mask id="mask0_18_12" style="mask-type:alpha" maskUnits="userSpaceOnUse" x="0" y="0" width="700" height="219">
<path d="M0 0H700V55.4167C700 112.589 700 141.175 688.873 163.011C679.088 182.22 663.469 197.836 644.263 207.624C622.424 218.75 593.837 218.75 536.667 218.75H0V0Z" fill="url(#paint1_linear_18_12)"/>
</mask>
<g mask="url(#mask0_18_12)">
<g filter="url(#filter0_f_18_12)">
<path d="M59.974 278.906C130.146 278.906 187.031 229.529 187.031 168.62C187.031 107.71 130.146 58.3333 59.974 58.3333C-10.1978 58.3333 -67.0833 107.71 -67.0833 168.62C-67.0833 229.529 -10.1978 278.906 59.974 278.906Z" fill="#FF94E1" fill-opacity="0.6"/>
</g>
<g opacity="0.5" filter="url(#filter1_f_18_12)">
<path opacity="0.5" d="M663.542 179.74C729.787 179.74 783.49 135.015 783.49 79.8437C783.49 24.6728 729.787 -20.0521 663.542 -20.0521C597.296 -20.0521 543.594 24.6728 543.594 79.8437C543.594 135.015 597.296 179.74 663.542 179.74Z" fill="#A157FF"/>
</g>
</g>
</g>
<defs>
<filter id="filter0_f_18_12" x="-491.083" y="-365.667" width="1102.11" height="1068.57" filterUnits="userSpaceOnUse" color-interpolation-filters="sRGB">
<feFlood flood-opacity="0" result="BackgroundImageFix"/>
<feBlend mode="normal" in="SourceGraphic" in2="BackgroundImageFix" result="shape"/>
<feGaussianBlur stdDeviation="212" result="effect1_foregroundBlur_18_12"/>
</filter>
<filter id="filter1_f_18_12" x="119.594" y="-444.052" width="1087.9" height="1047.79" filterUnits="userSpaceOnUse" color-interpolation-filters="sRGB">
<feFlood flood-opacity="0" result="BackgroundImageFix"/>
<feBlend mode="normal" in="SourceGraphic" in2="BackgroundImageFix" result="shape"/>
<feGaussianBlur stdDeviation="212" result="effect1_foregroundBlur_18_12"/>
</filter>
<linearGradient id="paint0_linear_18_12" x1="350" y1="0" x2="350" y2="214.844" gradientUnits="userSpaceOnUse">
<stop stop-color="#3D3B44"/>
<stop offset="1" stop-color="#2F2C3C"/>
</linearGradient>
<linearGradient id="paint1_linear_18_12" x1="350" y1="0" x2="350" y2="214.844" gradientUnits="userSpaceOnUse">
<stop stop-color="#3D3B44"/>
<stop offset="1" stop-color="#2F2C3C"/>
</linearGradient>
<clipPath id="clip0_18_12">
<rect width="700" height="218.75" fill="white"/>
</clipPath>
</defs>
</svg>
