<svg width="78" height="60" viewBox="0 0 78 60" fill="none" xmlns="http://www.w3.org/2000/svg">
<g clip-path="url(#clip0_2_27)">
<path d="M19.4983 44.3361C20.2165 44.3361 20.7985 43.7517 20.7985 43.0305V40.4198C20.7985 39.6992 20.2165 39.1142 19.4983 39.1142C18.7806 39.1142 18.1986 39.6992 18.1986 40.4198V43.0305C18.1986 43.7517 18.7806 44.3361 19.4983 44.3361Z" fill="url(#paint0_linear_2_27)"/>
<path d="M18.1986 53.4731C18.1986 54.1943 18.7806 54.7787 19.4983 54.7787H24.6982C25.4165 54.7787 25.9985 54.1943 25.9985 53.4731C25.9985 52.7524 25.4165 52.168 24.6982 52.168H20.7985V48.2518C20.7985 47.5311 20.2165 46.9467 19.4983 46.9467C18.7806 46.9467 18.1986 47.5311 18.1986 48.2518V53.4731Z" fill="url(#paint1_linear_2_27)"/>
<path d="M13.8044 46.8422C13.8782 46.8798 13.9568 46.9061 14.0383 46.9205C14.1246 46.9348 14.2115 46.9438 14.2984 46.9467C14.6429 46.9414 14.972 46.8063 15.2213 46.5679C15.3392 46.443 15.4314 46.2972 15.4945 46.1371C15.6909 45.6501 15.5838 45.0932 15.2213 44.7143C15.097 44.5966 14.9518 44.5034 14.7923 44.4401C14.6364 44.3731 14.4685 44.3379 14.2984 44.3361C13.7705 44.3325 13.2926 44.651 13.0903 45.1404C12.888 45.6304 13.0005 46.1944 13.3754 46.5679L13.5706 46.7245C13.6432 46.7741 13.7217 46.8135 13.8044 46.8422Z" fill="url(#paint2_linear_2_27)"/>
<path d="M0.135147 21.4229C0.289276 21.733 0.559448 21.969 0.886749 22.0784C1.21405 22.1883 1.57111 22.1626 1.87936 22.0079L12.9987 16.4251V40.4198C12.9987 41.1405 13.5807 41.7254 14.2984 41.7254C15.0166 41.7254 15.5986 41.1405 15.5986 40.4198V33.8929H26.2377C26.7864 35.4519 28.2515 36.497 29.8987 36.5036H48.0984C49.7451 36.497 51.2102 35.4519 51.7594 33.8929H62.3985V56.0837C62.3985 56.8049 61.8165 57.3893 61.0982 57.3893H16.8983C16.1806 57.3893 15.5986 56.8049 15.5986 56.0837V50.8624C15.5986 50.1418 15.0166 49.5574 14.2984 49.5574C13.5807 49.5574 12.9987 50.1418 12.9987 50.8624V56.0837C12.9987 58.2468 14.7447 60 16.8983 60H61.0982C63.2525 60 64.9985 58.2468 64.9985 56.0837V16.4251L76.1172 22.0144C76.5332 22.223 77.0277 22.1931 77.4157 21.9356C77.8031 21.6786 78.0245 21.2329 77.9965 20.7674C77.9685 20.3019 77.6954 19.8866 77.2794 19.6781L64.2796 13.1511C64.2677 13.1511 64.2534 13.1511 64.2403 13.141C64.0755 13.0896 63.9071 13.0496 63.7363 13.0221C63.7232 13.0221 63.7113 13.0143 63.6982 13.0143H14.2984C14.2853 13.0143 14.274 13.0221 14.2609 13.0221C14.1728 13.0304 14.0853 13.0478 14.0008 13.0741C13.9175 13.089 13.8354 13.1111 13.7562 13.141C13.7431 13.141 13.7306 13.141 13.7175 13.1511L0.717148 19.6781C0.0780181 20.0001 -0.182037 20.7793 0.135147 21.4229ZM15.5986 23.4503H25.9985V31.2823H15.5986V23.4503ZM48.0984 33.8929H29.8987C29.1804 33.8929 28.5984 33.3085 28.5984 32.5879V22.1453C28.5984 21.4241 29.1804 20.8397 29.8987 20.8397H48.0984C48.8167 20.8397 49.3987 21.4241 49.3987 22.1453V32.5879C49.3987 33.3085 48.8167 33.8929 48.0984 33.8929ZM51.9987 31.2823V23.4503H62.3985V31.2823H51.9987ZM62.3985 20.8397H51.7594C51.2102 19.2807 49.7451 18.2356 48.0984 18.229H29.8987C28.2515 18.2356 26.7864 19.2807 26.2377 20.8397H15.5986V15.6184H62.3985V20.8397Z" fill="url(#paint3_linear_2_27)"/>
<path d="M67.9793 0.336925L64.0797 4.2526C63.7416 4.58064 63.606 5.06585 63.725 5.52237C63.844 5.97829 64.1987 6.33502 64.6533 6.45453C65.108 6.57403 65.5912 6.4378 65.9173 6.09839L69.8175 2.18212C70.3103 1.67003 70.3031 0.856186 69.8015 0.352461C69.3004 -0.151264 68.4893 -0.157837 67.9793 0.336925Z" fill="url(#paint4_linear_2_27)"/>
<path d="M66.2988 9.09146C66.2988 9.81269 66.8808 10.3971 67.5984 10.3971H71.4987C72.2164 10.3971 72.7984 9.81269 72.7984 9.09146C72.7984 8.37083 72.2164 7.78644 71.4987 7.78644H67.5984C66.8808 7.78644 66.2988 8.37083 66.2988 9.09146Z" fill="url(#paint5_linear_2_27)"/>
<path d="M12.9987 6.48082C13.5241 6.48082 13.9978 6.16293 14.199 5.67534C14.4007 5.18715 14.2894 4.62606 13.9175 4.2526L10.0179 0.336925C9.50727 -0.157837 8.69676 -0.151264 8.19509 0.352461C7.69402 0.856187 7.68688 1.67003 8.17962 2.18212L12.0793 6.09839C12.3233 6.34338 12.6535 6.48082 12.9987 6.48082Z" fill="url(#paint6_linear_2_27)"/>
<path d="M5.19819 9.09146C5.19819 9.81269 5.78078 10.3971 6.49847 10.3971H10.3987C11.1164 10.3971 11.6984 9.81269 11.6984 9.09146C11.6984 8.37083 11.1164 7.78644 10.3987 7.78644H6.49847C5.78078 7.78644 5.19819 8.37083 5.19819 9.09146Z" fill="url(#paint7_linear_2_27)"/>
<path d="M43.1972 23.4503H34.7993C33.5294 23.4515 32.4999 24.4853 32.4987 25.761V28.9722C32.4999 30.2473 33.5294 31.2811 34.7993 31.2823H43.1972C44.4678 31.2811 45.4973 30.2473 45.4985 28.9722V25.761C45.4973 24.4853 44.4678 23.4515 43.1972 23.4503ZM42.8985 28.6716H35.0986V26.061H42.8985V28.6716Z" fill="url(#paint8_linear_2_27)"/>
</g>
<defs>
<linearGradient id="paint0_linear_2_27" x1="2.28076" y1="-2.30099e-05" x2="164.823" y2="149.793" gradientUnits="userSpaceOnUse">
<stop stop-color="#FF5555"/>
<stop offset="1" stop-color="#428DFF"/>
</linearGradient>
<linearGradient id="paint1_linear_2_27" x1="2.28075" y1="-1.56138e-05" x2="164.823" y2="149.793" gradientUnits="userSpaceOnUse">
<stop stop-color="#FF5555"/>
<stop offset="1" stop-color="#428DFF"/>
</linearGradient>
<linearGradient id="paint2_linear_2_27" x1="2.28075" y1="2.1051e-06" x2="164.823" y2="149.793" gradientUnits="userSpaceOnUse">
<stop stop-color="#FF5555"/>
<stop offset="1" stop-color="#428DFF"/>
</linearGradient>
<linearGradient id="paint3_linear_2_27" x1="2.28075" y1="-1.03589e-05" x2="164.823" y2="149.793" gradientUnits="userSpaceOnUse">
<stop stop-color="#FF5555"/>
<stop offset="1" stop-color="#428DFF"/>
</linearGradient>
<linearGradient id="paint4_linear_2_27" x1="2.28075" y1="-1.01904e-05" x2="164.823" y2="149.793" gradientUnits="userSpaceOnUse">
<stop stop-color="#FF5555"/>
<stop offset="1" stop-color="#428DFF"/>
</linearGradient>
<linearGradient id="paint5_linear_2_27" x1="2.28071" y1="-1.18606e-05" x2="164.823" y2="149.793" gradientUnits="userSpaceOnUse">
<stop stop-color="#FF5555"/>
<stop offset="1" stop-color="#428DFF"/>
</linearGradient>
<linearGradient id="paint6_linear_2_27" x1="2.28075" y1="-9.47124e-06" x2="164.823" y2="149.793" gradientUnits="userSpaceOnUse">
<stop stop-color="#FF5555"/>
<stop offset="1" stop-color="#428DFF"/>
</linearGradient>
<linearGradient id="paint7_linear_2_27" x1="2.28075" y1="-1.11962e-05" x2="164.823" y2="149.793" gradientUnits="userSpaceOnUse">
<stop stop-color="#FF5555"/>
<stop offset="1" stop-color="#428DFF"/>
</linearGradient>
<linearGradient id="paint8_linear_2_27" x1="2.28074" y1="-8.62739e-06" x2="164.823" y2="149.793" gradientUnits="userSpaceOnUse">
<stop stop-color="#FF5555"/>
<stop offset="1" stop-color="#428DFF"/>
</linearGradient>
<clipPath id="clip0_2_27">
<rect width="78" height="60" fill="white"/>
</clipPath>
</defs>
</svg>
