<svg width="17" height="14" fill="none" xmlns="http://www.w3.org/2000/svg"><path d="M6.898 13.483c-.082-.079-.434-.378-.723-.656-1.817-1.631-4.792-5.886-5.7-8.114C.329 4.375.02 3.52 0 3.063c0-.438.102-.855.309-1.253A2.645 2.645 0 0 1 1.589.697C1.962.557 3.077.338 3.098.338 4.317.12 6.298 0 8.489 0c2.086 0 3.988.12 5.226.299.02.02 1.405.238 1.88.477C16.462 1.214 17 2.069 17 2.984v.08c-.021.595-.56 1.849-.58 1.849-.909 2.107-3.738 6.264-5.618 7.934 0 0-.483.471-.785.676-.433.319-.97.477-1.507.477-.6 0-1.157-.179-1.612-.517" fill="#F55"/></svg>