<svg width="14" height="16" fill="none" xmlns="http://www.w3.org/2000/svg"><path opacity=".6" d="M.5 9.508c.076.077.365.408.634.68 1.578 1.71 5.693 4.51 7.846 5.365.328.138 1.154.428 1.596.447a2.65 2.65 0 0 0 1.212-.29c.48-.273.866-.7 1.077-1.206.136-.35.346-1.4.346-1.419.211-1.148.328-3.013.328-5.074 0-1.964-.117-3.754-.29-4.919-.019-.019-.23-1.323-.46-1.77A2.42 2.42 0 0 0 10.652 0h-.077C10 .02 8.788.527 8.788.545 6.75 1.401 2.73 4.064 1.115 5.833c0 0-.455.455-.653.739A2.353 2.353 0 0 0 0 7.991c0 .564.173 1.089.5 1.517" fill="#371A45"/></svg>