<svg width="90" height="35" viewBox="0 0 90 35" fill="none" xmlns="http://www.w3.org/2000/svg">
<path d="M0 17.2828C0 11.2167 0 8.18375 1.18902 5.88011C2.23491 3.85374 3.90379 2.20626 5.95647 1.17378C8.29004 0 11.3449 0 17.4545 0H74.8969C78.7991 0 80.7507 0 82.3347 0.487189C85.7591 1.53995 88.44 4.1867 89.5064 7.56673C90 9.13091 90 11.0571 90 14.9094C90 18.4807 90 20.2663 89.5571 21.7532C88.602 24.962 86.1906 27.5505 83.0318 28.7587C81.5678 29.3185 79.7651 29.4678 76.1602 29.7665L18.9145 34.5097C12.3494 35.0537 9.06676 35.3257 6.53438 34.2313C4.30944 33.2698 2.47315 31.6028 1.31649 29.4945C0 27.0949 0 23.8242 0 17.2828Z" fill="#FF5555"/>
</svg>
