<svg width="15" height="15" viewBox="0 0 15 15" fill="none" xmlns="http://www.w3.org/2000/svg">
<path fill-rule="evenodd" clip-rule="evenodd" d="M4.63961 12.3877C4.90336 12.3877 5.11773 12.6021 5.11773 12.8658C5.11773 13.1296 4.90336 13.3433 4.63961 13.3433C4.37586 13.3433 4.16211 13.1296 4.16211 12.8658C4.16211 12.6021 4.37586 12.3877 4.63961 12.3877Z" stroke="white" stroke-width="0.949219" stroke-linecap="round" stroke-linejoin="round"/>
<path fill-rule="evenodd" clip-rule="evenodd" d="M11.6715 12.3877C11.9352 12.3877 12.1496 12.6021 12.1496 12.8658C12.1496 13.1296 11.9352 13.3433 11.6715 13.3433C11.4077 13.3433 11.1934 13.1296 11.1934 12.8658C11.1934 12.6021 11.4077 12.3877 11.6715 12.3877Z" stroke="white" stroke-width="0.949219" stroke-linecap="round" stroke-linejoin="round"/>
<path d="M1.71875 2.03125L3.01875 2.25625L3.62062 9.42688C3.66937 10.0113 4.1575 10.46 4.74375 10.46H11.5637C12.1237 10.46 12.5988 10.0487 12.6794 9.49375L13.2725 5.395C13.3456 4.88937 12.9538 4.43687 12.4431 4.43687H3.2275" stroke="white" stroke-width="0.949219" stroke-linecap="round" stroke-linejoin="round"/>
<path d="M8.8291 6.74707H10.5622" stroke="white" stroke-width="0.949219" stroke-linecap="round" stroke-linejoin="round"/>
</svg>
