<svg width="53" height="105" viewBox="0 0 53 105" fill="none" xmlns="http://www.w3.org/2000/svg">
<g clip-path="url(#clip0_1_162)">
<path d="M20.7911 54.8704C18.7461 59.1282 16.712 64.7432 15.6387 65.6199C13.5102 67.3564 11.0832 67.9665 8.85674 67.9209C8.85674 67.9209 7.23592 64.8601 6.08965 65.4068C5.56529 65.6566 5.00185 66.4637 5.9528 68.2177C5.99212 68.2898 6.054 68.3511 6.11011 68.4198C6.11011 68.4198 4.36422 68.3273 2.80659 66.8436C1.08037 65.1991 0.682899 66.4726 0.551807 67.2468C0.420715 68.021 0.150141 72.2994 3.08267 74.1611C6.02935 76.0318 12.924 77.0289 18.2081 71.7039L22.0808 66.1231L20.7911 54.8704Z" fill="white"/>
<path d="M48.1832 78.5857C45.6728 81.7495 39.291 80.5343 39.291 80.5343L39.5191 64.0258L39.5907 58.8794L39.5972 58.4074L39.6513 54.5056C39.6513 54.5056 42.0371 54.6076 44.4073 55.2775C44.8005 55.3884 45.197 55.5156 45.5798 55.6618C45.741 55.7222 45.8996 55.7864 46.0559 55.8532C47.3833 56.4274 48.5031 57.2428 48.9087 58.3936C50.3179 62.3961 50.2471 75.9848 48.1832 78.5857Z" fill="white"/>
<g opacity="0.35">
<path opacity="0.35" d="M49.8648 67.4464C49.8726 72.1965 49.3422 77.1254 48.1839 78.5861C45.6738 81.7504 39.291 80.5346 39.291 80.5346L39.5629 74.8118C39.5629 74.8118 45.9457 76.0276 48.4558 72.8632C49.1356 72.0056 49.5992 69.9543 49.8648 67.4464Z" fill="#371A45"/>
</g>
<path d="M42.0585 81.2429C40.472 81.2429 39.2594 81.0158 39.2006 81.0048C39.1389 80.9931 39.0801 80.9693 39.0276 80.9348C38.975 80.9004 38.9298 80.8559 38.8944 80.8039C38.8591 80.752 38.8343 80.6936 38.8215 80.632C38.8087 80.5705 38.8082 80.5071 38.8199 80.4453C38.8317 80.3836 38.8555 80.3248 38.8899 80.2722C38.9244 80.2197 38.9689 80.1745 39.0209 80.1391C39.0728 80.1038 39.1312 80.079 39.1927 80.0662C39.2543 80.0534 39.3177 80.0529 39.3795 80.0646C39.4057 80.0696 40.5727 80.2833 42.0705 80.2833C44.0107 80.2833 46.5098 79.9249 47.8079 78.2886C48.1084 77.91 48.5402 77.001 48.892 74.8207C49.1524 73.2082 49.317 71.197 49.3687 69.0044C49.4736 64.5981 49.1065 60.3979 48.4563 58.5526C47.8839 56.9271 45.5602 56.0435 43.7107 55.5899C41.6222 55.0758 39.6498 54.9851 39.6298 54.984C39.5046 54.9764 39.3875 54.9199 39.3035 54.8267C39.2196 54.7335 39.1756 54.611 39.181 54.4857C39.1865 54.3604 39.2409 54.2422 39.3326 54.1567C39.4242 54.0711 39.5459 54.0249 39.6713 54.0281C39.7549 54.0315 41.7459 54.1225 43.9252 54.6574C45.2215 54.9754 46.314 55.386 47.1724 55.8776C48.2998 56.5233 49.0339 57.317 49.3585 58.2372C49.8013 59.4957 50.0362 61.4314 50.1553 62.8336C50.3144 64.7127 50.375 66.9129 50.3249 69.0293C50.2693 71.3931 49.9856 77.0852 48.557 78.8859C47.9277 79.6797 47.0303 80.2833 45.8908 80.6797C45.0059 80.9875 43.9719 81.1718 42.8175 81.2272C42.5582 81.2374 42.3028 81.2429 42.0585 81.2429Z" fill="#371A45"/>
<path d="M49.362 69.4354L44.9948 69.6913C44.8052 69.702 44.6246 69.7754 44.4813 69.9C44.338 70.0246 44.2402 70.1933 44.2032 70.3795C43.9256 71.7825 43.4523 75.0562 44.8034 76.1622C45.9247 77.0798 47.771 77.0048 48.8672 76.1076C50.0932 75.1042 50.2641 71.8884 50.2707 70.2954C50.2712 70.1781 50.2477 70.062 50.2016 69.9542C50.1555 69.8464 50.0877 69.7491 50.0026 69.6685C49.9174 69.5879 49.8166 69.5257 49.7064 69.4856C49.5962 69.4455 49.479 69.4284 49.362 69.4354Z" fill="white"/>
<g opacity="0.35">
<path opacity="0.35" d="M44.2035 70.3801C43.9251 71.7825 43.4527 75.0564 44.8037 76.1618C45.9253 77.0794 47.771 77.0047 48.8674 76.1072C49.6209 75.4898 49.9759 74.036 50.1387 72.6375C49.9308 73.3338 49.613 73.896 49.2232 74.263C46.9894 76.3631 45.3899 73.8173 45.3899 73.8173C45.3899 73.8173 45.0949 74.4243 44.8674 74.4549C43.9159 74.5842 44.1595 71.616 44.3233 70.083C44.2646 70.1733 44.2239 70.2742 44.2035 70.3801Z" fill="#371A45"/>
</g>
<path d="M46.7739 77.296C45.9444 77.296 45.1222 77.0422 44.5003 76.5325C43.8008 75.9599 43.4353 74.9024 43.4141 73.3891C43.3981 72.2415 43.5792 71.0684 43.7339 70.2865C43.7916 69.9965 43.9439 69.7338 44.1669 69.5397C44.3899 69.3455 44.671 69.2309 44.9662 69.2137L49.3333 68.9578C49.5156 68.947 49.6982 68.9737 49.8698 69.0363C50.0414 69.0988 50.1983 69.1958 50.331 69.3213C50.4636 69.4468 50.5692 69.5981 50.6411 69.766C50.713 69.9339 50.7498 70.1147 50.7491 70.2973C50.7457 71.1222 50.6993 72.3479 50.4974 73.505C50.2392 74.9858 49.805 75.9585 49.1703 76.4782C48.5049 77.0225 47.6349 77.296 46.7739 77.296ZM49.39 69.9132L45.0226 70.1691C44.9389 70.1738 44.8591 70.2061 44.7958 70.261C44.7324 70.3159 44.6891 70.3903 44.6725 70.4724C44.5268 71.2092 44.3561 72.3112 44.371 73.3757C44.3878 74.5763 44.6421 75.4119 45.1065 75.7921C46.0241 76.5443 47.6087 76.5194 48.5638 75.7375C49.3213 75.1174 49.7804 73.0823 49.7919 70.2934C49.7921 70.2415 49.7817 70.1902 49.7613 70.1425C49.7409 70.0948 49.711 70.0518 49.6733 70.0162C49.6356 69.9806 49.5911 69.953 49.5423 69.9353C49.4936 69.9176 49.4417 69.9101 49.39 69.9132Z" fill="#371A45"/>
<path d="M45.5951 71.2598C45.6284 71.5219 45.6439 71.7873 45.6614 72.0508C45.679 72.3143 45.6955 72.5775 45.7196 72.8373C45.7674 73.3591 45.841 73.8763 45.9837 74.3611C46.052 74.599 46.1429 74.8298 46.2551 75.0504C46.3613 75.2594 46.4962 75.4525 46.656 75.6241C46.8085 75.7859 46.9868 75.9212 47.1838 76.0244C47.381 76.1252 47.5916 76.1973 47.8091 76.2386C47.874 76.2515 47.9355 76.2777 47.9898 76.3154C48.0441 76.3532 48.09 76.4018 48.1247 76.4582C48.1593 76.5145 48.182 76.5774 48.1912 76.6429C48.2004 76.7084 48.1959 76.7751 48.1782 76.8388C48.1604 76.9025 48.1296 76.9619 48.0878 77.0131C48.0461 77.0644 47.9941 77.1065 47.9353 77.1368C47.8765 77.167 47.812 77.1848 47.746 77.1891C47.68 77.1933 47.6138 77.1838 47.5517 77.1612L47.5427 77.1578C47.2526 77.0542 46.9789 76.9095 46.7299 76.7281C46.4828 76.5454 46.2676 76.3231 46.0933 76.07C45.9271 75.8264 45.7957 75.5608 45.7029 75.2809C45.6145 75.0138 45.5516 74.7389 45.5151 74.46C45.4414 73.912 45.4488 73.3722 45.48 72.841C45.496 72.5754 45.5188 72.3114 45.5416 72.0481C45.5644 71.7849 45.5885 71.524 45.5951 71.2598Z" fill="#371A45"/>
<path d="M46.6868 58.3019C46.6231 58.2471 46.5513 58.2023 46.4739 58.1693C46.3981 58.1355 46.3199 58.107 46.2401 58.084C46.0805 58.0378 45.9183 58.0015 45.7542 57.9752C45.4263 57.9234 45.0955 57.8911 44.7637 57.8788C44.4323 57.8649 44.1011 57.867 43.7721 57.8827C43.4442 57.8981 43.1173 57.9314 42.793 57.9823C42.6318 58.0085 42.4719 58.0382 42.3135 58.073C42.1551 58.1079 41.9989 58.1491 41.8455 58.1947C41.6921 58.2403 41.5403 58.2917 41.3927 58.3494C41.2451 58.407 41.1011 58.4708 40.9622 58.5421C40.8239 58.6114 40.6898 58.689 40.5608 58.7744L40.4666 58.8396L40.3751 58.9078C40.3151 58.9542 40.2561 59.0014 40.2 59.0515C40.0885 59.151 39.9846 59.2586 39.889 59.3734C39.7946 59.4879 39.7094 59.6096 39.6339 59.7374L39.6316 59.7416C39.5851 59.8213 39.5094 59.8797 39.4204 59.9044C39.3315 59.929 39.2365 59.9179 39.1556 59.8734C39.0748 59.8289 39.0146 59.7545 38.9878 59.6662C38.9611 59.5779 38.9699 59.4826 39.0125 59.4007C39.0997 59.2304 39.2032 59.069 39.3216 58.9188C39.439 58.769 39.5696 58.63 39.7118 58.5035C39.7818 58.4401 39.8549 58.3808 39.9291 58.3232L40.0427 58.2403L40.1588 58.1616C40.3144 58.0616 40.476 57.9714 40.6428 57.8916C40.9704 57.737 41.3131 57.6166 41.6654 57.5322C42.0108 57.4479 42.3624 57.3907 42.7168 57.3612C43.4158 57.2989 44.12 57.3298 44.8109 57.4532C45.1552 57.5144 45.4932 57.6067 45.8208 57.7291C45.9851 57.7912 46.1441 57.8666 46.2962 57.9545C46.3724 57.999 46.4449 58.0495 46.513 58.1055C46.5471 58.1335 46.5791 58.1639 46.6087 58.1965C46.6386 58.2286 46.6648 58.264 46.6868 58.3019Z" fill="#371A45"/>
<g opacity="0.35">
<path opacity="0.35" d="M45.5802 55.662C43.9352 56.8345 41.8949 57.7765 39.5977 58.4076L39.6517 54.5057C39.6517 54.5057 42.0375 54.6077 44.4077 55.2776C44.8012 55.3885 45.1969 55.5157 45.5802 55.662Z" fill="#371A45"/>
</g>
<g opacity="0.35">
<path opacity="0.35" d="M22.0799 66.1221L18.2082 71.7027C12.9247 77.0279 6.02871 76.0303 3.08281 74.1598C2.02489 73.4887 1.38385 72.501 1.00342 71.4785C1.3031 71.8311 0.753819 68.3294 1.1783 68.5989C1.33561 68.6986 1.43288 70.1597 2.6974 71.6285C3.31222 72.3424 4.26106 72.9145 5.41625 73.2781C5.75709 73.3856 5.48887 73.7286 5.86773 73.7708C12.7632 74.5382 14.6819 71.8435 15.8135 69.2035L20.1518 56.2461C20.3645 55.7774 20.5787 55.3164 20.7929 54.8707L22.0799 66.1221Z" fill="#371A45"/>
</g>
<path d="M8.89531 76.1371C7.86413 76.1383 6.83639 76.0183 5.83324 75.7795C4.68513 75.505 3.64478 75.0847 2.82466 74.564C2.08293 74.092 1.47388 73.4458 1.01558 72.6401C0.643535 71.9877 0.368763 71.2305 0.198867 70.3897C-0.0877023 68.9708 -0.00432673 67.6601 0.0798349 67.1648C0.134107 66.8452 0.299284 65.8728 1.06434 65.6179C1.63958 65.4271 2.31759 65.7136 3.13745 66.4947C3.7257 67.0551 4.43111 67.4778 5.20268 67.7322C4.9405 67.0442 4.89094 66.4412 5.05638 65.9328C5.19665 65.5013 5.49082 65.1602 5.88437 64.9724C6.17644 64.8332 6.65441 64.7543 7.27395 65.1691C7.59251 65.383 7.93125 65.7165 8.28074 66.1604C8.59602 66.5676 8.88317 66.9957 9.14019 67.442C10.8122 67.433 13.1603 67.0225 15.338 65.2467C15.5121 65.1046 15.8579 64.6497 16.5155 63.2889C17.0249 62.2352 17.6059 60.8863 18.2197 59.4579C18.9129 57.8481 19.63 56.1832 20.3607 54.6615C20.4056 54.5679 20.4798 54.4916 20.5719 54.4439C20.664 54.3961 20.7692 54.3797 20.8715 54.3969C20.9738 54.4142 21.0677 54.4642 21.1391 54.5395C21.2105 54.6148 21.2555 54.7112 21.2673 54.8143L22.556 66.066C22.5693 66.1814 22.5401 66.2977 22.4739 66.3932L18.6009 71.9744C18.5853 71.9973 18.5678 72.0187 18.5485 72.0386C15.4851 75.1251 12.0995 75.9546 9.79933 76.1072C9.49746 76.1271 9.19613 76.1371 8.89531 76.1371ZM1.41751 66.5209C1.39979 66.5203 1.3821 66.5225 1.36507 66.5275C1.32836 66.5398 1.13959 66.6355 1.02213 67.3256C0.962877 67.6748 0.867442 68.8724 1.13566 70.2002C1.46758 71.8427 2.20826 73.0391 3.33802 73.7559C4.5931 74.5527 6.93285 75.3379 9.73535 75.1523C11.8638 75.0113 14.994 74.2441 17.8369 71.3952L21.5827 65.9971L20.5078 56.6124C20.0296 57.6708 19.5579 58.7665 19.0964 59.8373C17.6248 63.2554 16.6843 65.3812 15.94 65.9889C13.4159 68.0479 10.6892 68.4356 8.84549 68.3976C8.76022 68.3958 8.67697 68.3713 8.60437 68.3265C8.53176 68.2818 8.47245 68.2184 8.43255 68.143C8.42862 68.136 8.03586 67.3995 7.5191 66.7448C6.92813 65.996 6.47795 65.7485 6.29443 65.8369C6.20502 65.8796 6.04299 65.9874 5.96433 66.2301C5.83324 66.6352 5.97718 67.2592 6.37125 67.9868C6.37911 67.9988 6.40454 68.0282 6.42368 68.0497C6.44282 68.0712 6.4617 68.0935 6.48032 68.1163C6.5389 68.1881 6.57536 68.2754 6.58528 68.3675C6.5952 68.4597 6.57814 68.5527 6.53618 68.6354C6.49423 68.718 6.42917 68.7867 6.34893 68.833C6.26868 68.8794 6.1767 68.9015 6.08415 68.8966C6.0055 68.8924 4.14398 68.7765 2.47595 67.189C1.85169 66.5938 1.53497 66.5209 1.41751 66.5209Z" fill="#371A45"/>
<path d="M0.46627 71.4168C0.359213 71.0593 0.301092 70.6888 0.293493 70.3157C0.283572 69.9393 0.322881 69.5632 0.410425 69.1969C0.432448 69.1039 0.459105 69.011 0.490392 68.918C0.506385 68.8716 0.521066 68.8252 0.539943 68.7788C0.558821 68.7323 0.575339 68.6862 0.596838 68.6403C0.680942 68.4456 0.790912 68.263 0.923779 68.0976L0.980412 68.0328L1.00899 68.0009L1.04071 67.9697C1.06195 67.949 1.08292 67.9282 1.10469 67.9078L1.176 67.8493C1.18806 67.8399 1.19933 67.8299 1.21218 67.8207L1.25177 67.7945C1.27799 67.777 1.30421 67.7589 1.33226 67.7421C1.36031 67.7253 1.38994 67.7106 1.41904 67.6957L1.4408 67.6844L1.46414 67.6747L1.51107 67.6556C1.63717 67.6039 1.77175 67.5759 1.90801 67.5732H1.95861H1.98483L2.00607 67.5746C2.03465 67.5767 2.06218 67.5777 2.09154 67.5814C2.15089 67.5876 2.20981 67.5974 2.26799 67.6107C2.39318 67.6389 2.51328 67.6862 2.62403 67.751C2.73356 67.8167 2.8316 67.8998 2.91427 67.9972C2.98669 68.0828 3.04931 68.1763 3.10094 68.2759C3.14592 68.3628 3.18567 68.4524 3.21997 68.5441C3.28552 68.7166 3.33376 68.8781 3.38463 69.032C3.43172 69.1805 3.48695 69.3264 3.55006 69.4688C3.69933 69.8175 3.95283 70.1115 4.27578 70.3104C4.34212 70.3521 4.41186 70.3907 4.48343 70.4268C4.63059 70.4984 4.78248 70.5597 4.93806 70.6104C4.95392 70.6155 4.96739 70.6262 4.97597 70.6405C4.98454 70.6548 4.98765 70.6717 4.9847 70.6881C4.98176 70.7046 4.97297 70.7193 4.95996 70.7298C4.94695 70.7402 4.9306 70.7456 4.91394 70.7449C4.73936 70.7383 4.56576 70.7157 4.39534 70.6772C4.21884 70.6377 4.04778 70.577 3.88592 70.4963C3.80267 70.4549 3.72227 70.4081 3.64524 70.356C3.56777 70.3026 3.49385 70.2442 3.42395 70.1812C3.2853 70.0543 3.1621 69.9116 3.0569 69.7559C2.84715 69.4507 2.70348 69.1167 2.55613 68.8501C2.48219 68.719 2.40459 68.607 2.33144 68.5472C2.30041 68.5206 2.26491 68.4996 2.22657 68.4854C2.18892 68.472 2.14954 68.464 2.10963 68.4618C2.08527 68.4604 2.06085 68.4604 2.03648 68.4618C2.02416 68.4618 2.01026 68.4636 1.99637 68.4641H1.98614L1.97985 68.466L1.96779 68.4689C1.95213 68.472 1.93671 68.4762 1.92165 68.4814C1.90693 68.4881 1.89265 68.4957 1.87891 68.5043C1.82254 68.5357 1.75936 68.6036 1.69748 68.6933C1.63153 68.7982 1.57762 68.9103 1.53676 69.0273C1.52496 69.058 1.51474 69.091 1.50425 69.1235C1.49376 69.156 1.48459 69.1896 1.47489 69.2232C1.46519 69.2567 1.45758 69.2913 1.44867 69.3254C1.43976 69.3595 1.43294 69.3951 1.42533 69.4303C1.36887 69.7197 1.33964 70.0137 1.33803 70.3086C1.33683 70.6074 1.35725 70.906 1.39912 71.2018L1.40069 71.2136C1.41737 71.3332 1.38838 71.4545 1.31951 71.5536C1.25064 71.6527 1.14695 71.7222 1.02912 71.7482C0.91129 71.7742 0.787988 71.7548 0.683809 71.6939C0.579631 71.6331 0.502234 71.5351 0.467057 71.4197L0.46627 71.4168Z" fill="#371A45"/>
<path d="M28.1621 102.907C26.9165 103.66 24.808 104.313 21.8244 104.31C17.6517 104.308 14.2459 104.116 14.281 101.113C14.3088 98.7304 18.4186 97.6562 18.4186 97.6562C16.5872 90.9658 16.1617 85.1731 16.3051 79.921C16.3544 78.1578 16.4663 76.4549 16.6113 74.7987L30.5541 77.3831C29.6432 81.1339 29.3071 84.7767 29.2101 88.0878C28.9809 95.8411 30.064 101.758 28.1621 102.907Z" fill="white"/>
<g opacity="0.35">
<path opacity="0.35" d="M30.5544 77.3831C30.4938 77.6314 30.4359 77.8781 30.3819 78.1251C30.3578 78.2284 30.335 78.3317 30.3137 78.435C30.2836 78.572 30.2547 78.7093 30.2269 78.8469C30.1892 79.0281 30.1525 79.2082 30.1184 79.387C30.1071 79.4449 30.0958 79.5029 30.0859 79.5608C30.0631 79.6817 30.0405 79.8015 30.019 79.9211C29.9889 80.0886 29.9584 80.2561 29.9309 80.4237C29.912 80.532 29.8942 80.6402 29.8766 80.7485C29.8025 81.2108 29.735 81.6706 29.674 82.1279C29.6362 82.41 29.6021 82.6908 29.5691 82.9703C29.5515 83.1203 29.535 83.2689 29.5188 83.4176C29.5049 83.546 29.491 83.6745 29.4797 83.803C29.4582 84.0127 29.438 84.2225 29.4204 84.4322C29.4079 84.5746 29.3942 84.717 29.384 84.858C29.3675 85.0581 29.3538 85.2584 29.3386 85.4574C29.3297 85.5848 29.3211 85.7106 29.3148 85.8365C29.3059 85.9563 29.2996 86.0745 29.292 86.1931C29.2794 86.3997 29.2694 86.606 29.2592 86.8102C29.2592 86.8241 29.2579 86.8365 29.2568 86.8517C29.238 87.2685 29.2214 87.6817 29.2102 88.0887C28.981 95.842 30.0641 101.759 28.1614 102.908C26.9158 103.661 24.8073 104.313 21.8236 104.311C18.4897 104.308 15.6445 104.186 14.6558 102.606C16.0388 103.113 18.0463 103.169 20.2731 103.17C23.257 103.171 25.3665 102.519 26.6122 101.767C27.926 100.973 27.8151 97.9041 27.696 93.5261C27.615 90.5464 25.8026 87.8616 23.037 86.7494C19.7073 85.4102 17.0839 83.1085 16.3044 79.9219C16.3537 78.1587 16.4656 76.4558 16.6106 74.7996L28.8127 77.0617L30.5544 77.3831Z" fill="#371A45"/>
</g>
<path d="M21.8351 104.79H21.8235C18.6705 104.789 15.9527 104.678 14.6261 103.335C14.0689 102.771 13.7918 102.022 13.8025 101.109C13.8164 99.952 14.6211 98.9022 16.13 98.0732C16.6753 97.7779 17.2456 97.5312 17.8341 97.3359C16.7681 93.3278 16.1355 89.4097 15.9021 85.3744C15.7126 82.0945 15.786 78.7212 16.1331 74.7582C16.1447 74.6322 16.2057 74.5159 16.3029 74.4348C16.4 74.3537 16.5253 74.3144 16.6514 74.3254C16.7775 74.3365 16.894 74.3971 16.9755 74.4938C17.0571 74.5906 17.0969 74.7158 17.0864 74.8419C16.5568 80.8876 16.3552 88.3112 18.8784 97.5317L19.0061 97.9987L18.5378 98.1209C18.5281 98.1235 17.5416 98.3859 16.5744 98.9203C15.7524 99.3744 14.77 100.125 14.7582 101.121C14.7503 101.777 14.9294 102.282 15.3054 102.662C16.3712 103.741 18.9961 103.832 21.8227 103.833H21.8338C25.2015 103.833 27.0884 102.998 27.9138 102.499C28.3613 102.229 28.6369 101.468 28.7565 100.172C28.8802 98.8327 28.8312 97.0289 28.7743 94.9403C28.6476 90.2899 28.4741 83.9214 30.087 77.2718C30.117 77.1485 30.1947 77.0421 30.303 76.9761C30.4114 76.9101 30.5416 76.8898 30.6649 76.9197C30.7882 76.9496 30.8946 77.0273 30.9606 77.1357C31.0267 77.2441 31.0469 77.3742 31.017 77.4976C29.4342 84.0229 29.6057 90.3185 29.7307 94.9141C29.8537 99.42 29.9347 102.397 28.4085 103.318C27.4993 103.867 25.4346 104.79 21.8351 104.79Z" fill="#371A45"/>
<path d="M4.5303 74.877C4.5303 74.877 2.32481 73.9785 2.50676 72.4067C2.67928 70.9153 3.71779 70.2596 4.19811 70.3469C4.92436 70.478 4.65614 72.5343 4.65614 72.5343C4.65614 72.5343 6.60915 72.0857 7.38285 72.516" fill="white"/>
<g opacity="0.35">
<path opacity="0.35" d="M5.86696 73.7708L4.52981 74.8767C4.52981 74.8767 2.32429 73.9785 2.50573 72.4067C2.55974 71.9368 2.69975 71.5514 2.88223 71.2441C2.88223 71.2769 2.87987 71.3097 2.87987 71.3438C2.87541 73.2884 5.18789 73.695 5.86696 73.7708Z" fill="#371A45"/>
</g>
<path d="M24.6298 92.136C23.6343 92.1346 22.6412 92.0394 21.6636 91.8518C19.9804 91.5314 18.2916 90.9383 16.6446 90.0893C16.5611 90.0463 16.4982 89.972 16.4695 89.8826C16.4409 89.7933 16.4489 89.6962 16.4918 89.6127C16.5348 89.5293 16.6091 89.4663 16.6985 89.4377C16.7878 89.409 16.8849 89.4171 16.9684 89.46C20.5412 91.302 23.6279 91.5293 25.5894 91.3958C27.7165 91.2511 29.0164 90.6617 29.0293 90.6564C29.1139 90.6197 29.2096 90.6175 29.2958 90.6503C29.3821 90.6831 29.452 90.7484 29.4908 90.8322C29.5296 90.9159 29.534 91.0115 29.5032 91.0985C29.4725 91.1855 29.4089 91.257 29.326 91.2978C29.2697 91.324 27.9207 91.9396 25.6748 92.0983C25.3293 92.1236 24.9809 92.1362 24.6298 92.136Z" fill="#371A45"/>
<path d="M18.2856 97.2541L18.3202 97.2449L18.3504 97.2376L18.4089 97.2242C18.4474 97.2156 18.4851 97.2082 18.5229 97.2006L18.6356 97.1794L18.7481 97.1602C18.8973 97.1361 19.0462 97.1167 19.1938 97.0999C19.491 97.0681 19.7881 97.0496 20.0853 97.0444C20.6748 97.0329 21.2643 97.0704 21.8477 97.1563C21.9926 97.1762 22.1361 97.203 22.2808 97.2281C22.3526 97.2418 22.4239 97.2572 22.4955 97.2717L22.6027 97.294L22.7094 97.3202C22.9939 97.3836 23.2739 97.4651 23.5511 97.5511C24.1009 97.7288 24.6357 97.95 25.1504 98.2126C24.6128 98.017 24.0604 97.8644 23.4986 97.7564C23.2186 97.7063 22.9386 97.6607 22.6565 97.6337L22.5516 97.6222L22.4467 97.6135C22.3762 97.6083 22.3059 97.6017 22.2354 97.5973C22.0944 97.5902 21.9538 97.5815 21.8128 97.58C21.2524 97.5667 20.6918 97.6 20.1369 97.6793C19.8614 97.7189 19.5882 97.77 19.3197 97.8327C19.186 97.8647 19.0528 97.899 18.9222 97.9376L18.8249 97.9669L18.729 97.9976C18.6975 98.0081 18.6658 98.0186 18.6354 98.0296L18.5903 98.0458L18.569 98.054C18.5625 98.0566 18.5544 98.0597 18.5523 98.0611C18.5037 98.09 18.4498 98.1091 18.3938 98.1173C18.3378 98.1254 18.2808 98.1224 18.2259 98.1085C18.1711 98.0946 18.1195 98.0701 18.0741 98.0362C18.0288 98.0024 17.9905 97.96 17.9616 97.9114C17.9326 97.8627 17.9135 97.8089 17.9054 97.7529C17.8972 97.6969 17.9002 97.6399 17.9141 97.585C17.928 97.5302 17.9526 97.4786 17.9864 97.4332C18.0202 97.3879 18.0627 97.3496 18.1113 97.3207C18.1425 97.3022 18.1758 97.2877 18.2106 97.2774L18.2856 97.2541Z" fill="#371A45"/>
<g opacity="0.35">
<path opacity="0.35" d="M28.2695 86.8927C28.291 86.4759 28.3179 86.0447 28.3501 85.5994C28.3187 86.044 28.291 86.4759 28.2695 86.8927Z" fill="#371A45"/>
</g>
<g opacity="0.35">
<path opacity="0.35" d="M28.3779 85.2365C28.3969 84.9936 28.4174 84.7459 28.4397 84.4935C28.4181 84.7455 28.3969 84.9935 28.3779 85.2365Z" fill="#371A45"/>
</g>
<g opacity="0.35">
<path opacity="0.35" d="M28.5527 83.3281C28.5769 83.0964 28.6033 82.8596 28.6314 82.6202C28.6033 82.8596 28.5779 83.0964 28.5527 83.3281Z" fill="#371A45"/>
</g>
<g opacity="0.35">
<path opacity="0.35" d="M28.6436 82.5097C28.675 82.2376 28.7091 81.9631 28.7445 81.6823C28.709 81.9631 28.6754 82.239 28.6436 82.5097Z" fill="#371A45"/>
</g>
<path d="M42.8012 76.4344C42.7712 76.8642 42.7113 77.2914 42.6221 77.7128C42.0893 80.2269 40.5508 82.1249 38.4557 83.4374C30.3805 88.5031 14.0465 84.8668 15.3516 74.3047C16.0228 68.8762 18.1046 63.333 19.6451 57.8214C19.9073 56.8893 20.1504 55.9599 20.3706 55.0304C22.9924 48.986 38.8299 51.422 39.6222 53.3703C39.86 53.956 40.0907 54.6186 40.311 55.3453C40.5944 56.2672 40.8602 57.29 41.1082 58.382C42.1525 62.9893 42.8552 68.8282 42.8853 73.5024C42.8919 74.5464 42.8657 75.5325 42.8012 76.4344Z" fill="white"/>
<g opacity="0.35">
<path opacity="0.35" d="M42.8015 76.4348C42.5771 79.5923 40.892 81.9111 38.4561 83.4378C30.4432 88.4645 14.3012 84.9239 15.3253 74.5496C16.2584 83.4887 30.9369 86.3162 38.4561 81.5994C40.892 80.0729 42.5771 77.7541 42.8015 74.5963C42.8406 74.0573 42.8657 73.4867 42.8783 72.8921C42.9011 74.164 42.8786 75.3593 42.8015 76.4348Z" fill="#371A45"/>
</g>
<path d="M29.6578 86.175C29.049 86.175 28.4358 86.1488 27.8183 86.0964C24.3753 85.804 21.2 84.712 18.8778 83.0218C17.4358 81.973 16.3569 80.7245 15.6694 79.3124C14.9193 77.7726 14.6532 76.0681 14.8782 74.2467C15.3239 70.6446 16.3695 67.0367 17.494 63.3491C17.6011 62.9972 17.7087 62.6454 17.8167 62.2935C18.559 59.8709 19.3264 57.3658 19.9055 54.9204L19.9152 54.879L19.9323 54.8402C20.582 53.3426 21.9841 52.2301 24.0995 51.5335C25.8013 50.9732 27.9798 50.6922 30.3935 50.7207C32.5216 50.7469 34.8026 51.0175 36.6518 51.4666C37.5267 51.679 38.2842 51.9276 38.8421 52.185C39.5175 52.4968 39.9184 52.8261 40.0668 53.1918C42.1965 58.4329 43.7578 69.7456 43.2796 76.4698C43.1461 78.346 42.5164 80.0205 41.4078 81.4466C40.3955 82.7486 39.0099 83.8143 37.2889 84.6148C35.0905 85.6362 32.4325 86.175 29.6578 86.175ZM20.8263 55.1849C20.2414 57.6466 19.474 60.152 18.7315 62.5751C18.6236 62.9268 18.5161 63.2782 18.409 63.6293C17.2971 67.275 16.2633 70.8394 15.8278 74.3652C15.3357 78.3504 17.521 80.8519 19.4407 82.2494C23.9587 85.5377 31.6213 86.196 36.8852 83.7477C39.2052 82.6688 42.0321 80.5187 42.3247 76.4027C42.7948 69.7925 41.2665 58.688 39.1801 53.5528C39.1232 53.4128 38.495 52.9 36.4258 52.3974C34.643 51.9645 32.4406 51.7026 30.3822 51.6785C28.0708 51.6523 26.0013 51.916 24.3986 52.4438C22.5725 53.0437 21.3709 53.9658 20.8263 55.1834V55.1849Z" fill="#371A45"/>
<path d="M16.5137 75.3989C17.6382 75.3989 18.5498 74.4873 18.5498 73.3628C18.5498 72.2383 17.6382 71.3267 16.5137 71.3267C15.3891 71.3267 14.4775 72.2383 14.4775 73.3628C14.4775 74.4873 15.3891 75.3989 16.5137 75.3989Z" fill="white"/>
<g opacity="0.35">
<path opacity="0.35" d="M14.4777 73.3628C14.4746 73.6321 14.525 73.8994 14.626 74.1491C14.7269 74.3988 14.8764 74.6261 15.0658 74.8176C15.2552 75.0092 15.4807 75.1612 15.7293 75.265C15.9779 75.3688 16.2446 75.4223 16.5139 75.4223C16.7833 75.4223 17.05 75.3688 17.2985 75.265C17.5471 75.1612 17.7726 75.0092 17.962 74.8176C18.1514 74.6261 18.3009 74.3988 18.4019 74.1491C18.5028 73.8994 18.5532 73.6321 18.5502 73.3628C18.5509 73.0616 18.484 72.7642 18.3546 72.4923C18.1896 72.8408 17.929 73.1353 17.6032 73.3416C17.2773 73.5478 16.8997 73.6573 16.514 73.6573C16.1284 73.6573 15.7508 73.5478 15.4249 73.3416C15.0991 73.1353 14.8385 72.8408 14.6735 72.4923C14.544 72.7642 14.4771 73.0616 14.4777 73.3628Z" fill="#371A45"/>
</g>
<path d="M16.5138 75.8233C16.0272 75.8233 15.5515 75.6791 15.1468 75.4087C14.7422 75.1384 14.4268 74.7542 14.2406 74.3046C14.0543 73.8551 14.0056 73.3604 14.1005 72.8831C14.1954 72.4058 14.4297 71.9674 14.7737 71.6233C15.1178 71.2792 15.5562 71.0448 16.0334 70.9499C16.5107 70.8549 17.0054 70.9036 17.455 71.0898C17.9046 71.2761 18.2888 71.5914 18.5592 71.996C18.8295 72.4006 18.9738 72.8763 18.9738 73.3629C18.9727 74.0151 18.7132 74.6402 18.2521 75.1013C17.791 75.5625 17.1659 75.8221 16.5138 75.8233ZM16.5138 71.751C16.1949 71.751 15.8832 71.8456 15.6181 72.0227C15.353 72.1999 15.1463 72.4517 15.0243 72.7463C14.9023 73.0409 14.8704 73.3651 14.9326 73.6778C14.9949 73.9905 15.1484 74.2778 15.3739 74.5032C15.5994 74.7287 15.8867 74.8822 16.1994 74.9444C16.5122 75.0066 16.8363 74.9746 17.1309 74.8526C17.4255 74.7305 17.6773 74.5238 17.8544 74.2587C18.0315 73.9935 18.126 73.6818 18.1259 73.3629C18.1254 72.9355 17.9554 72.5258 17.6532 72.2236C17.351 71.9214 16.9412 71.7514 16.5138 71.751Z" fill="#371A45"/>
<g opacity="0.35">
<path opacity="0.35" d="M42.8015 76.4346C42.7714 76.8644 42.7116 77.2915 42.6224 77.713C41.7698 77.9712 39.0984 78.5064 32.5742 77.9712L32.5414 78.514C32.4659 79.7874 31.3615 80.7661 30.0905 80.6901L19.3443 80.0517C18.0735 79.9748 17.0924 78.8718 17.1682 77.5995L17.2387 76.4105L17.5093 71.8813C17.5837 70.6079 18.687 69.6294 19.9604 69.7052L30.704 70.3436C30.8594 70.3528 31.0135 70.3777 31.1639 70.418C31.6792 70.5571 32.1311 70.8692 32.4436 71.302C32.7562 71.7347 32.9104 72.2618 32.8804 72.7947L32.8224 73.7758C34.2482 73.9533 39.2913 74.4774 42.823 73.5136C42.8431 73.5086 42.8646 73.5037 42.8846 73.5C42.8922 74.5466 42.866 75.5327 42.8015 76.4346Z" fill="#371A45"/>
</g>
<path d="M18.6363 78.4144L29.3818 79.0536C30.6534 79.1296 31.7569 78.1506 31.8329 76.8775L32.1738 71.1596C32.2401 70.0448 31.4976 69.0621 30.457 68.7826C30.3068 68.7421 30.1529 68.7172 29.9976 68.7084L19.254 68.0692C17.9806 67.9932 16.8771 68.9719 16.8026 70.2453L16.531 74.7737L16.4597 75.9627C16.3841 77.2361 17.3647 78.3381 18.6363 78.4144Z" fill="white"/>
<g opacity="0.35">
<path opacity="0.35" d="M18.6366 78.4144L29.382 79.0536C30.6536 79.1296 31.7571 78.1506 31.8332 76.8775L32.174 71.1595C32.2403 70.0447 31.4978 69.0621 30.4572 68.7826C29.823 69.1517 29.4203 69.3877 29.4203 69.3877C28.624 73.9465 27.181 76.1575 21.4761 75.9116C19.0134 75.8049 17.4827 75.3372 16.5331 74.7743L16.4618 75.9633C16.3845 77.2362 17.365 78.3381 18.6366 78.4144Z" fill="#371A45"/>
</g>
<path d="M29.5203 79.5364C29.4646 79.5364 29.4085 79.5348 29.352 79.5314L18.6078 78.8922C17.8681 78.8465 17.1767 78.5097 16.6847 77.9554C16.1927 77.4012 15.9403 76.6746 15.9826 75.9347L16.3234 70.2157C16.3682 69.4756 16.7048 68.7835 17.2593 68.2913C17.8138 67.7991 18.5409 67.547 19.2811 67.5904L30.0253 68.2298C30.7653 68.2747 31.4573 68.6113 31.9495 69.1657C32.4416 69.7202 32.6937 70.4472 32.6505 71.1873L32.3097 76.9062C32.2657 77.6168 31.9529 78.284 31.435 78.7725C30.917 79.261 30.2326 79.5341 29.5206 79.5364H29.5203ZM19.113 68.5424C18.6444 68.5432 18.1937 68.7226 17.8527 69.0441C17.5117 69.3656 17.3061 69.805 17.2778 70.2728L16.9369 75.9919C16.9099 76.4784 17.0762 76.9559 17.3997 77.3203C17.7232 77.6846 18.1777 77.9063 18.6639 77.9371L29.4081 78.5765C29.8946 78.6037 30.3721 78.4373 30.7365 78.1138C31.1009 77.7903 31.3226 77.3358 31.3532 76.8495L31.6941 71.1307C31.7213 70.6442 31.555 70.1666 31.2315 69.8022C30.9081 69.4377 30.4536 69.216 29.9673 69.1853L19.2232 68.546C19.1865 68.5434 19.1495 68.5424 19.113 68.5424Z" fill="#371A45"/>
<path d="M18.2085 78.3461C18.3486 78.3838 18.4923 78.4065 18.6372 78.4141L29.3825 79.0533C29.8268 79.0784 30.269 78.9755 30.6565 78.7566C31.044 78.5377 31.3605 78.2122 31.5683 77.8186C31.7233 77.5275 31.8133 77.2062 31.8321 76.8769L31.9841 74.3366L32.0342 73.4976L32.1734 71.1579C32.2495 69.8845 31.2689 68.7828 29.9973 68.7067L27.6754 68.5691C28.7336 68.8344 29.4923 69.8263 29.426 70.9523L29.2425 74.0411L29.0852 76.6721C29.0091 77.9437 27.9053 78.9243 26.634 78.8482L18.2085 78.3461Z" fill="white"/>
<g opacity="0.35">
<path opacity="0.35" d="M18.2085 78.3462C18.3486 78.3838 18.4923 78.4066 18.6372 78.4141L29.3825 79.0533C29.9956 79.0882 30.5975 78.8788 31.0566 78.471C31.5157 78.0631 31.7945 77.4901 31.8321 76.8772L32.0343 73.4989C31.7286 74.0796 31.1995 74.7836 30.4179 74.8143C29.9892 74.8321 29.5878 74.4997 29.2433 74.0424L29.086 76.6735C29.01 77.9451 27.9062 78.9257 26.6349 78.8496L18.2085 78.3462Z" fill="#371A45"/>
</g>
<path d="M29.5219 79.5363C29.4654 79.5363 29.409 79.5346 29.3525 79.5313L18.6088 78.8919C18.4317 78.8822 18.256 78.8546 18.0845 78.8095L18.2347 77.8691L26.6622 78.3714C27.1486 78.3985 27.6259 78.2322 27.9901 77.9087C28.3544 77.5852 28.5759 77.1308 28.6063 76.6447L28.9472 70.9256C28.972 70.4978 28.8467 70.0747 28.5931 69.7293C28.3394 69.3839 27.9732 69.1378 27.5576 69.0334L27.7026 68.0917L30.0234 68.2293C30.7632 68.2752 31.4547 68.6122 31.9467 69.1665C32.4387 69.7209 32.6911 70.4476 32.6487 71.1876L32.3079 76.9058C32.2642 77.6162 31.9519 78.2834 31.4343 78.7719C30.9167 79.2604 30.2326 79.5337 29.5208 79.5363H29.5219ZM28.7219 78.535L29.4097 78.5759C29.896 78.6031 30.3734 78.4369 30.7377 78.1134C31.102 77.79 31.3235 77.3356 31.354 76.8494L31.6949 71.1307C31.7222 70.644 31.5559 70.1664 31.2324 69.8019C30.9088 69.4374 30.4543 69.2156 29.9679 69.185L29.3543 69.1485C29.7483 69.6763 29.9427 70.3265 29.9031 70.9838L29.5623 76.7026C29.5222 77.3973 29.2222 78.0514 28.7219 78.535Z" fill="#371A45"/>
<path d="M25.0151 73.6078C25.0038 73.8194 25.2094 75.5427 25.2094 75.5427L26.4155 75.6075C27.2453 75.652 27.9642 74.829 28.0211 73.7693C28.078 72.7095 27.4514 71.8139 26.6216 71.7693L25.4155 71.7046C25.4155 71.7046 25.0337 73.263 25.0151 73.6078Z" fill="#22A7F0"/>
<g opacity="0.35">
<path opacity="0.35" d="M25.0151 73.6078C25.0038 73.8194 25.2094 75.5427 25.2094 75.5427L26.4155 75.6075C27.2453 75.652 27.9642 74.829 28.0211 73.7693C28.078 72.7095 27.4514 71.8139 26.6216 71.7693L25.4155 71.7046C25.4155 71.7046 25.0337 73.263 25.0151 73.6078Z" fill="#371A45"/>
</g>
<path d="M26.4809 75.9683C26.4526 75.9683 26.4243 75.9683 26.3957 75.9659L25.1897 75.9011C25.1056 75.8966 25.0257 75.8626 24.9641 75.8051C24.9025 75.7475 24.8631 75.6702 24.8528 75.5865C24.7899 75.0593 24.6446 73.8087 24.6564 73.5898C24.6758 73.2301 25.0017 71.8856 25.0667 71.6206C25.0867 71.5395 25.1342 71.4679 25.2012 71.4181C25.2682 71.3683 25.3504 71.3434 25.4338 71.3476L26.6398 71.4124C27.1537 71.4402 27.6177 71.7142 27.9468 72.1842C28.2569 72.6273 28.41 73.1976 28.3783 73.7898C28.3466 74.3821 28.1329 74.9327 27.7771 75.3401C27.4214 75.7475 26.9636 75.9683 26.4809 75.9683ZM25.5311 75.2006L26.4343 75.2494C26.7227 75.2648 27.0082 75.1288 27.2373 74.8666C27.4882 74.5795 27.639 74.1828 27.6623 73.75C27.6856 73.3171 27.5781 72.9068 27.3595 72.5946C27.1597 72.309 26.8907 72.1433 26.6021 72.1279L25.6949 72.0791C25.5554 72.6659 25.385 73.4312 25.374 73.626C25.3711 73.7476 25.4466 74.4738 25.5311 75.2006Z" fill="#371A45"/>
<path d="M26.8187 73.7093C26.8757 72.6495 26.2493 71.7542 25.4195 71.7096C24.5897 71.6649 23.8707 72.4878 23.8137 73.5476C23.7567 74.6073 24.3831 75.5026 25.213 75.5473C26.0428 75.5919 26.7617 74.769 26.8187 73.7093Z" fill="#22A7F0"/>
<g opacity="0.35">
<path opacity="0.35" d="M25.2105 75.5422C26.0396 75.5871 26.7575 74.7639 26.8157 73.7045C26.829 73.4708 26.8077 73.2363 26.7525 73.0088C26.5527 73.8503 25.9213 74.4506 25.2105 74.4116C24.5711 74.3772 24.0522 73.8377 23.8734 73.1076C23.8392 73.2504 23.8181 73.3959 23.8102 73.5425C23.7536 74.6032 24.3805 75.4977 25.2105 75.5422Z" fill="#371A45"/>
</g>
<g opacity="0.7">
<path opacity="0.7" d="M23.835 74.0433C23.9753 73.0995 24.6478 72.3968 25.416 72.4382C26.1105 72.4749 26.6639 73.1097 26.7914 73.9387C26.8029 73.8629 26.8108 73.7838 26.8155 73.7046C26.8729 72.6448 26.246 71.7495 25.416 71.7046C24.5859 71.6598 23.8673 72.4831 23.8109 73.5425C23.8015 73.7098 23.8096 73.8777 23.835 74.0433Z" fill="white"/>
</g>
<path d="M25.2754 75.9035C25.2471 75.9035 25.2188 75.9027 25.1904 75.9011C24.6766 75.8749 24.2122 75.5994 23.8832 75.1295C23.5733 74.6862 23.4199 74.1159 23.4519 73.5237C23.4836 72.9314 23.6971 72.3811 24.0528 71.9736C24.4304 71.5416 24.9214 71.3182 25.4351 71.3462C25.9487 71.3743 26.4133 71.648 26.742 72.1181C27.0522 72.5612 27.2053 73.1314 27.1736 73.7237C27.1419 74.316 26.9282 74.8666 26.5724 75.274C26.2166 75.6814 25.7594 75.9035 25.2754 75.9035ZM25.3519 72.0617C25.0785 72.0617 24.8108 72.197 24.5935 72.4458C24.3428 72.7342 24.1918 73.1293 24.1685 73.5622C24.1454 73.9951 24.2529 74.4057 24.4713 74.7179C24.6711 75.0032 24.9401 75.1689 25.2287 75.1846C25.5174 75.2003 25.8029 75.064 26.032 74.8018C26.2827 74.5147 26.4337 74.118 26.4568 73.6852C26.4798 73.2523 26.3726 72.842 26.154 72.5297C25.9544 72.2442 25.6854 72.0785 25.3965 72.063C25.3818 72.0623 25.3661 72.0617 25.3519 72.0617Z" fill="#371A45"/>
<path d="M21.9786 78.9248H21.9658C21.9194 78.9232 21.8738 78.9125 21.8315 78.8932C21.7893 78.8739 21.7513 78.8465 21.7196 78.8126C21.688 78.7786 21.6633 78.7387 21.6471 78.6952C21.6308 78.6518 21.6233 78.6055 21.625 78.5591L21.7243 75.7836C21.7498 75.1074 21.511 74.4479 21.0586 73.9447L20.9181 73.7874C20.6242 73.4576 20.3986 73.0729 20.2543 72.6554C20.1099 72.2379 20.0498 71.796 20.0773 71.3551L20.287 68.1303C20.2945 68.0378 20.338 67.9519 20.4082 67.8912C20.4784 67.8305 20.5697 67.7999 20.6623 67.8059C20.7549 67.8119 20.8414 67.8542 20.9031 67.9234C20.9649 67.9927 20.9969 68.0835 20.9923 68.1762L20.7826 71.401C20.761 71.748 20.8085 72.0957 20.9221 72.4242C21.0358 72.7528 21.2135 73.0555 21.4448 73.3149L21.5851 73.4722C22.1599 74.1113 22.4633 74.9491 22.4309 75.808L22.3315 78.5835C22.3284 78.675 22.2899 78.7618 22.2241 78.8254C22.1582 78.8891 22.0702 78.9247 21.9786 78.9248Z" fill="#371A45"/>
<path d="M43.8681 73.7672C43.8157 75.3505 42.246 75.9546 42.246 75.9546C42.246 75.9546 40.0751 77.082 31.1185 76.2693C31.1185 76.2693 28.5857 73.677 31.726 72.0876C31.726 72.0876 37.9642 73.0089 42.1154 71.8778C42.864 71.6762 43.9151 72.3524 43.8681 73.7672Z" fill="white"/>
<g opacity="0.35">
<path opacity="0.35" d="M43.867 73.767C43.8146 75.3504 42.2459 75.955 42.2459 75.955C42.2459 75.955 40.0745 77.0809 31.1183 76.2696C31.1183 76.2696 29.6849 74.8014 30.3121 73.3992C30.315 73.4065 30.3176 73.4139 30.3205 73.4215C30.6089 74.1894 31.3291 74.713 32.1471 74.7773C40.2426 75.4128 42.2459 74.374 42.2459 74.374C42.2459 74.374 43.3442 73.9508 43.7333 72.8866C43.8358 73.1683 43.8813 73.4676 43.867 73.767Z" fill="#371A45"/>
</g>
<path d="M36.8916 77.0434C35.3447 77.0434 33.5794 76.9598 31.6068 76.793C31.3537 76.7726 31.1083 76.6957 30.8888 76.568C30.6693 76.4404 30.4812 76.2651 30.3383 76.0552C29.9513 75.4873 29.5303 74.6132 29.7214 73.6796C29.863 72.9877 30.3126 72.3949 31.0585 71.9182C31.3925 71.7058 31.7901 71.6167 32.1828 71.6663C33.6154 71.8443 38.557 72.3524 41.9898 71.4175C42.4879 71.2819 43.0529 71.4133 43.5026 71.7691C44.0665 72.2148 44.3743 72.9489 44.3465 73.7831L43.8683 73.7671L44.3465 73.7831C44.2867 75.5744 42.6567 76.3032 42.4397 76.3927C42.2991 76.4585 41.6827 76.7112 40.1938 76.8806C39.24 76.9891 38.137 77.0434 36.8916 77.0434ZM31.9694 72.6101C31.8292 72.6096 31.6917 72.6492 31.5732 72.7242C31.0544 73.0564 30.7468 73.4423 30.659 73.8715C30.535 74.4785 30.8462 75.1011 31.1291 75.5167C31.1921 75.6087 31.275 75.6855 31.3716 75.7413C31.4682 75.7972 31.576 75.8307 31.6873 75.8394C35.9365 76.1989 38.5187 76.0959 39.9363 75.9462C41.4213 75.7888 41.9798 75.5497 42.028 75.5267L42.0543 75.512L42.0731 75.5067C42.1232 75.4868 43.3476 74.9879 43.3888 73.7501C43.4126 73.0286 43.0977 72.6689 42.9077 72.5178C42.6979 72.3524 42.4425 72.2837 42.2399 72.339C38.6383 73.3199 33.5401 72.7976 32.0635 72.6141C32.0322 72.6108 32.0008 72.6095 31.9694 72.6101Z" fill="#371A45"/>
<path d="M31.2824 83.9623C31.2562 83.5806 32.0299 93.7208 32.9213 99.9254C33.561 104.378 37.6393 104.841 44.1609 104.379C46.5612 104.209 48.4002 103.493 48.2145 101.596C47.9655 99.0463 44.2346 98.0809 44.2346 98.0809C44.2346 98.0809 43.3062 87.5991 42.5736 76.7166" fill="white"/>
<path d="M31.1228 83.9728C31.1216 83.9682 31.1206 83.9635 31.1199 83.9589C31.7649 83.9156 31.3005 83.9541 31.4453 83.9468L31.451 83.9667L31.4623 84.0058L31.4838 84.0844C31.4982 84.1369 31.51 84.1893 31.5247 84.2418C31.5509 84.3466 31.5759 84.4511 31.5997 84.5551C31.6477 84.7648 31.6901 84.9746 31.7308 85.1843C31.8112 85.6038 31.8807 86.0238 31.9392 86.4444C31.9993 86.8652 32.0467 87.2868 32.095 87.7084C32.1432 88.13 32.1865 88.5521 32.2281 88.9745C32.3113 89.8187 32.3768 90.6648 32.4484 91.51C32.4835 91.9327 32.5221 92.3551 32.5606 92.7774C32.5991 93.1998 32.6435 93.6214 32.6885 94.043C32.8679 95.7294 33.0606 97.4139 33.2869 99.0906L33.3739 99.7185L33.3964 99.8743L33.4198 100.021C33.4271 100.071 33.4376 100.119 33.446 100.167L33.4596 100.24L33.4756 100.312C33.5543 100.692 33.6775 101.061 33.8427 101.412C33.9242 101.582 34.018 101.747 34.1235 101.904C34.2285 102.06 34.3454 102.207 34.4732 102.344C34.7326 102.621 35.031 102.858 35.3589 103.049C35.6971 103.245 36.0555 103.404 36.4278 103.523C36.6163 103.585 36.8088 103.64 37.0046 103.688C37.2005 103.736 37.3979 103.777 37.5985 103.813C38.4 103.957 39.2285 104.015 40.0609 104.036C40.8933 104.057 41.7336 104.036 42.5744 103.996C42.9939 103.976 43.4147 103.952 43.8369 103.923L44.1515 103.901C44.2537 103.893 44.3562 103.885 44.458 103.875C44.5597 103.864 44.6612 103.853 44.7624 103.842C44.8636 103.831 44.9642 103.816 45.0639 103.8C45.2639 103.77 45.4619 103.734 45.6554 103.689C45.8489 103.644 46.0392 103.594 46.2227 103.532C46.5879 103.408 46.9306 103.244 47.1928 103.027C47.3204 102.924 47.4314 102.803 47.5221 102.667C47.6071 102.534 47.6686 102.388 47.7038 102.234C47.7401 102.071 47.753 101.903 47.7421 101.736C47.7332 101.561 47.7031 101.389 47.6524 101.221C47.5523 100.887 47.3695 100.572 47.128 100.29C46.8866 100.008 46.5914 99.7565 46.2683 99.5358C45.9389 99.3136 45.591 99.12 45.2285 98.9571C45.045 98.8743 44.8594 98.7975 44.6711 98.7275C44.577 98.6926 44.4821 98.6593 44.3874 98.6281C44.34 98.6126 44.2928 98.5974 44.2456 98.583L44.1756 98.5623L44.1121 98.5445L43.7844 98.4527L43.7556 98.1234C43.5993 96.3426 43.4484 94.5623 43.3028 92.7824C43.1572 91.0025 43.0145 89.2218 42.8746 87.4401L42.4667 82.096C42.4284 81.6503 42.383 81.2064 42.3424 80.7615C42.3018 80.3166 42.2721 79.8701 42.2556 79.4244C42.248 79.201 42.2415 78.9787 42.2399 78.7537C42.2383 78.5287 42.2433 78.3056 42.2538 78.0812C42.2643 77.8568 42.28 77.6316 42.3062 77.4061C42.3294 77.1781 42.3649 76.9516 42.4127 76.7275C42.4204 76.6926 42.4392 76.6611 42.4663 76.6377C42.4934 76.6143 42.5274 76.6003 42.5631 76.5977C42.5988 76.5952 42.6343 76.6042 42.6645 76.6235C42.6947 76.6427 42.7178 76.6712 42.7304 76.7047C42.8081 76.9202 42.8742 77.1397 42.9284 77.3623C42.9835 77.5823 43.0304 77.8028 43.0715 78.0235C43.1544 78.465 43.2081 78.9087 43.2551 79.3525C43.3513 80.2403 43.3744 81.1333 43.4278 82.0245C43.4541 82.4702 43.49 82.9146 43.5228 83.3598L43.6227 84.6948L43.8282 87.3644C43.9668 89.1441 44.1094 90.9234 44.2561 92.7025C44.4027 94.4815 44.5534 96.2599 44.7081 98.0377L44.3515 97.6182L44.399 97.631L44.4415 97.6431L44.524 97.6677C44.5786 97.6842 44.6323 97.7015 44.6858 97.7202C44.7928 97.7551 44.8987 97.7922 45.0036 97.8313C45.2133 97.9091 45.4201 97.9943 45.6239 98.0869C46.0365 98.2728 46.4325 98.4935 46.8077 98.7466C47.1964 99.007 47.5491 99.3177 47.8564 99.6705C47.934 99.7618 48.008 99.8567 48.0785 99.9553C48.1479 100.055 48.2143 100.157 48.2748 100.264C48.398 100.48 48.4965 100.708 48.5685 100.946C48.6411 101.186 48.6843 101.433 48.6972 101.683C48.7132 101.941 48.6924 102.2 48.6353 102.451C48.5749 102.713 48.4698 102.961 48.3247 103.187C48.1806 103.406 48.0037 103.601 47.8003 103.766C47.6083 103.921 47.4 104.056 47.1792 104.167C46.9685 104.273 46.7505 104.364 46.5269 104.438C46.3074 104.512 46.0872 104.571 45.8669 104.622C45.6467 104.673 45.4265 104.713 45.2065 104.746C45.0966 104.764 44.9868 104.777 44.8769 104.792C44.7671 104.806 44.6575 104.818 44.5479 104.827C44.4383 104.836 44.329 104.846 44.2196 104.855L43.8993 104.877C43.4729 104.905 43.0458 104.93 42.6177 104.951C41.7614 104.991 40.9014 105.013 40.0362 104.992C39.171 104.972 38.2995 104.91 37.4275 104.755C37.2096 104.715 36.992 104.67 36.7749 104.617C36.5578 104.564 36.3415 104.502 36.1266 104.431C35.6894 104.291 35.2687 104.103 34.8717 103.872C34.4641 103.635 34.0931 103.339 33.7706 102.995C33.6091 102.821 33.4613 102.635 33.3285 102.438C33.1971 102.243 33.0802 102.038 32.9785 101.825C32.7807 101.407 32.633 100.967 32.5383 100.514L32.5202 100.431L32.5042 100.347C32.4943 100.291 32.4825 100.236 32.4738 100.18L32.4476 100.012L32.4248 99.8528L32.3367 99.2188C32.1083 97.5277 31.9151 95.8366 31.735 94.1437L31.5997 92.8747L31.4589 91.6065C31.365 90.761 31.2709 89.9154 31.1996 89.0678C31.1637 88.6441 31.1309 88.2201 31.1044 87.7957C31.078 87.3712 31.052 86.9467 31.0391 86.5209C31.0263 86.0951 31.0232 85.6691 31.0336 85.2417C31.0399 85.0278 31.0478 84.8138 31.0599 84.5996C31.0667 84.4923 31.0746 84.3851 31.0837 84.2779C31.0887 84.2242 31.0932 84.1707 31.0992 84.117L31.1078 84.0362L31.1128 83.9961L31.1154 83.9762C31.2596 83.963 30.7945 83.9922 31.439 83.9463C31.439 83.9434 31.439 83.9502 31.4374 83.9523L31.4303 83.9785C31.4215 84.0134 31.4011 84.0443 31.3726 84.0662C31.344 84.0881 31.3089 84.0998 31.2729 84.0992C31.2369 84.0987 31.2021 84.086 31.1742 84.0632C31.1463 84.0405 31.1269 84.009 31.1191 83.9738L31.1228 83.9728Z" fill="#371A45"/>
<path d="M35.9511 93.0114C34.5702 93.0114 33.2506 92.8557 32.0228 92.5476C31.9319 92.5248 31.8538 92.4668 31.8056 92.3863C31.7574 92.3059 31.7432 92.2097 31.766 92.1187C31.7888 92.0278 31.8468 91.9497 31.9272 91.9015C32.0076 91.8533 32.1039 91.8391 32.1948 91.8619C35.1051 92.5927 38.0232 92.2783 39.9579 91.886C42.0664 91.4586 43.4995 90.848 43.5139 90.8417C43.5997 90.8062 43.696 90.8059 43.782 90.8408C43.8681 90.8758 43.9369 90.9432 43.9736 91.0285C44.0103 91.1138 44.012 91.2101 43.9783 91.2966C43.9446 91.3832 43.8781 91.4529 43.7934 91.4909C43.7331 91.5171 42.2916 92.1322 40.1162 92.5751C38.8781 92.8307 37.6195 92.9752 36.3557 93.0069C36.22 93.0097 36.0852 93.0112 35.9511 93.0114Z" fill="#371A45"/>
<path d="M44.107 98.4855C44.1044 98.4842 44.0963 98.4811 44.0897 98.4787L44.068 98.4706L44.0221 98.4546C43.9912 98.4438 43.9592 98.4336 43.9272 98.4234C43.8629 98.4029 43.7977 98.3835 43.7316 98.3647C43.6005 98.3274 43.4655 98.2941 43.3302 98.2624C43.0593 98.2011 42.784 98.1505 42.5064 98.1114C41.9476 98.0321 41.3835 97.9971 40.8192 98.0065C40.7484 98.0086 40.6773 98.0081 40.6066 98.0118L40.3937 98.0215C40.3229 98.0252 40.2521 98.0314 40.181 98.0362L40.0746 98.0438L39.9697 98.0543L39.7571 98.0757L39.545 98.1033C39.5096 98.108 39.4739 98.1122 39.4401 98.1174L39.3352 98.1345L39.1233 98.1686C38.5571 98.2703 37.9995 98.4156 37.4556 98.603C39.0439 97.8296 40.7928 97.4432 42.5591 97.4756C42.8562 97.4812 43.1542 97.4987 43.4531 97.5281C43.6023 97.5441 43.7518 97.5624 43.9017 97.5852C43.9767 97.597 44.052 97.6096 44.1278 97.6238C44.1658 97.6311 44.2038 97.6382 44.2423 97.6466L44.3008 97.6592L44.3312 97.666L44.3656 97.6746L44.4288 97.6919C44.5368 97.7235 44.6281 97.7962 44.683 97.8945C44.738 97.9927 44.7522 98.1085 44.7226 98.2171C44.6929 98.3257 44.6219 98.4183 44.5247 98.475C44.4274 98.5317 44.3118 98.548 44.2027 98.5204C44.1696 98.5125 44.1375 98.5008 44.107 98.4855Z" fill="#371A45"/>
<g opacity="0.35">
<path opacity="0.35" d="M31.5981 84.2743C31.5981 84.4434 32.0546 93.8928 32.9219 99.9254C33.5617 104.379 37.6389 104.841 44.1608 104.379C46.5619 104.209 48.4003 103.494 48.2147 101.596C48.21 101.551 48.2053 101.508 48.1984 101.465C47.4593 101.948 46.354 102.188 45.0921 102.277C38.5705 102.74 34.4919 102.277 33.8522 97.8243C33.1893 93.2135 32.1118 87.0057 31.6123 84.2777L31.5995 84.2824C31.5997 84.2796 31.5993 84.2768 31.5981 84.2743Z" fill="#371A45"/>
</g>
<g opacity="0.35">
<path opacity="0.35" d="M7.83674 51.1844C7.79112 51.2369 7.74366 51.2875 7.69385 51.3418C7.73632 51.2786 7.77801 51.2141 7.8176 51.149C7.82415 51.1598 7.83044 51.1732 7.83674 51.1844Z" fill="#371A45"/>
</g>
<path d="M46.6354 84.8639C45.75 85.5239 45.0098 84.9848 41.8316 85.2355C41.3125 85.2769 39.3642 85.5692 38.7357 84.806C38.4497 84.4594 38.402 83.9468 38.456 83.4369C38.5504 82.5551 38.9497 81.6802 38.9497 81.6802C38.9497 81.6802 38.1122 81.5455 37.7772 80.3352C37.4447 79.1323 38.8629 76.8148 38.8629 76.8148C38.8629 76.8148 39.1639 68.0623 38.0076 62.0823L36.9382 60.7371L31.0791 53.3696L39.9976 54.8699C39.9976 54.8699 40.1112 55.0321 40.3123 55.3447C40.6269 55.8295 41.1536 56.6758 41.7936 57.8271C43.9902 61.7808 47.5242 69.3265 48.3519 78.153C48.4993 79.7419 48.6983 83.3278 46.6354 84.8639Z" fill="white"/>
<g opacity="0.35">
<path opacity="0.35" d="M48.2921 81.7235C48.0855 82.9439 47.6156 84.1355 46.6359 84.8647C45.7505 85.5246 45.0103 84.9855 41.8321 85.2362C41.313 85.2776 39.3647 85.5699 38.7363 84.8067C38.4502 84.4601 38.4025 83.9476 38.4565 83.4376C38.5509 82.5559 38.9502 81.681 38.9502 81.681C38.9502 81.681 38.1128 81.5462 37.7777 80.336C37.6002 79.6947 37.9201 78.7388 38.2575 77.9845C38.235 78.2163 38.2436 78.4341 38.2966 78.6229C38.6316 79.8334 39.4693 79.9682 39.4693 79.9682C39.4693 79.9682 39.07 80.8423 38.9754 81.7248C38.9214 82.235 39.4255 81.2067 39.4394 81.6556C39.5063 83.7892 41.8321 83.565 42.3497 83.5234C45.5287 83.2727 46.268 83.8117 47.1534 83.1518C47.6573 82.7774 48.0249 82.2827 48.2921 81.7235Z" fill="#371A45"/>
</g>
<path d="M38.1649 62.054C38.2719 62.3484 38.3636 62.6473 38.4533 62.9475L38.518 63.1733C38.5382 63.2485 38.555 63.3245 38.5736 63.4001C38.6106 63.5516 38.6444 63.7037 38.6785 63.8557C38.7126 64.0078 38.7448 64.1604 38.7768 64.313C38.7931 64.3896 38.8057 64.4661 38.819 64.5427L38.8581 64.7726C38.8838 64.9257 38.9084 65.0792 38.9318 65.233L38.9666 65.4637C38.9782 65.5408 38.9897 65.6176 38.9984 65.6947C39.1541 66.927 39.2501 68.1653 39.3015 69.4033L39.3308 70.332L39.3376 70.564L39.3418 70.7963L39.35 71.2604L39.3586 71.7245L39.3631 72.1885L39.3683 72.6526C39.3709 72.8073 39.3699 72.962 39.3715 73.1167C39.3733 73.4261 39.377 73.7352 39.3762 74.0446C39.3754 74.3539 39.3762 74.6633 39.3736 74.9727L39.3696 75.4368L39.3628 75.9011C39.3576 76.2113 39.351 76.5191 39.3413 76.8329C39.3391 76.912 39.3169 76.9892 39.2768 77.0573L39.2713 77.0662L39.2312 77.1339L39.1895 77.2057C39.162 77.2542 39.1344 77.3033 39.1074 77.3526C39.0533 77.451 39.0008 77.5504 38.9501 77.6509C38.8471 77.8512 38.7503 78.0544 38.6617 78.2589C38.5731 78.4634 38.4905 78.67 38.421 78.8764C38.3517 79.0773 38.296 79.2827 38.2543 79.4912C38.2156 79.6766 38.202 79.8664 38.2139 80.0554C38.2181 80.0941 38.2245 80.1325 38.2328 80.1705L38.2386 80.1967C38.2386 80.2015 38.2401 80.2051 38.2417 80.2106L38.2475 80.2282L38.2698 80.298C38.2829 80.3444 38.2989 80.39 38.3175 80.4346L38.3437 80.5004C38.3511 80.5223 38.36 80.5437 38.3704 80.5643C38.4435 80.7246 38.546 80.8697 38.6727 80.992C38.7302 81.0478 38.7944 81.0963 38.8639 81.1362L38.8901 81.1508C38.8982 81.1556 38.9069 81.159 38.9163 81.1632L38.9412 81.1758C38.9496 81.1794 38.9577 81.1823 38.9659 81.186C38.9826 81.1936 38.9976 81.198 39.0128 81.2035C39.0199 81.2062 39.0254 81.207 39.0319 81.2093C39.0337 81.2099 39.0354 81.2103 39.0372 81.2106H39.0393H39.0377H39.0346H39.0283L39.3872 81.8818L39.3589 81.9474L39.329 82.0195C39.3093 82.0682 39.2899 82.1173 39.2716 82.1671C39.2341 82.2662 39.1989 82.3666 39.1667 82.4673C39.1344 82.568 39.1038 82.6694 39.0757 82.7709C39.0477 82.8724 39.0233 82.9738 39.0023 83.0748C38.9593 83.2713 38.932 83.4709 38.9208 83.6718C38.916 83.7652 38.9173 83.8588 38.9244 83.952C38.9263 83.9977 38.9341 84.0396 38.9391 84.0831C38.9423 84.1044 38.9472 84.1243 38.9512 84.1447L38.957 84.1754C38.9593 84.1851 38.9622 84.1946 38.9648 84.204C38.9822 84.2753 39.0086 84.3442 39.0435 84.4088C39.0521 84.4227 39.0603 84.4371 39.0681 84.4515C39.076 84.4659 39.0875 84.4777 39.0964 84.4893C39.1041 84.5009 39.1129 84.5118 39.1226 84.5218C39.1274 84.5265 39.1313 84.5317 39.136 84.5367L39.1525 84.5509C39.204 84.5954 39.2614 84.6326 39.323 84.6615C39.4003 84.6966 39.4803 84.7254 39.5623 84.7475C39.7513 84.7957 39.9444 84.8255 40.1391 84.8367C40.2414 84.8437 40.3457 84.8466 40.4506 84.8479C40.5555 84.8492 40.6622 84.8479 40.7692 84.8429C40.9834 84.8346 41.1997 84.8183 41.4202 84.7968L41.5874 84.7803L41.7639 84.7632L42.1123 84.737C42.574 84.7071 43.0376 84.6883 43.5019 84.6867C43.7338 84.6856 43.9655 84.6881 44.1969 84.694C44.4279 84.7001 44.6579 84.7092 44.8831 84.7179C45.1083 84.7265 45.3288 84.7347 45.5304 84.7286C45.6249 84.7263 45.7192 84.7186 45.8128 84.7056C45.8939 84.6944 45.9735 84.6749 46.0506 84.6474C46.1246 84.6201 46.1955 84.585 46.2619 84.5425L46.2881 84.5262L46.3143 84.5076C46.3319 84.4948 46.3487 84.4843 46.3684 84.4678L46.4819 84.3765L46.5105 84.3537L46.5367 84.3288L46.5904 84.279C46.6271 84.2468 46.6621 84.2128 46.6953 84.177L46.7962 84.07L46.8904 83.956C46.9058 83.9368 46.9223 83.9187 46.9368 83.8983L46.9806 83.838L47.0243 83.7777C47.039 83.7575 47.0537 83.7376 47.0668 83.7161L47.1476 83.5892C47.1617 83.5685 47.1738 83.5459 47.1861 83.5239L47.2233 83.4578L47.2606 83.3918C47.2729 83.3697 47.2834 83.3461 47.2949 83.3236L47.3631 83.1865C47.4032 83.0915 47.4478 82.9993 47.4832 82.9012C47.6347 82.5155 47.7383 82.1023 47.8138 81.681C47.8492 81.4694 47.8793 81.2562 47.9008 81.0407C47.9223 80.8252 47.9388 80.6084 47.9467 80.39C47.9656 79.954 47.9601 79.514 47.9386 79.0733C47.9274 78.853 47.9123 78.6323 47.8932 78.411C47.8759 78.19 47.8484 77.9653 47.825 77.7432L47.7527 77.0744L47.7435 76.9907L47.732 76.9074L47.7092 76.7406L47.6635 76.4071L47.6179 76.0736L47.5951 75.9069L47.5838 75.8235L47.5702 75.7404L47.4609 75.076C47.3935 74.6321 47.3017 74.1922 47.2191 73.7509L47.1877 73.5855L47.1717 73.5026L47.1539 73.4203L47.0823 73.0912L46.9397 72.4326C46.8893 72.2137 46.8348 71.9958 46.7823 71.7772L46.7037 71.4497L46.6641 71.2858L46.6208 71.123L46.4478 70.4715C46.4182 70.3629 46.3912 70.2539 46.3597 70.1461L46.2661 69.822L46.0786 69.1744L45.8783 68.5303L45.7779 68.2083L45.7517 68.1278L45.7255 68.0478L45.673 67.8879L45.4594 67.2479C45.4248 67.1412 45.3862 67.0353 45.3487 66.9293L45.2357 66.6116C45.1597 66.3997 45.0876 66.1868 45.0066 65.9768L44.769 65.3452C44.7302 65.2403 44.6883 65.1355 44.6469 65.0306L44.5226 64.716C44.3603 64.2965 44.1817 63.8827 44.0113 63.4669C43.8315 63.0542 43.6561 62.6397 43.4676 62.231C43.284 61.8201 43.0905 61.414 42.8978 61.0071L42.6018 60.4004C42.5019 60.1988 42.3994 59.9987 42.2985 59.7974C41.8891 58.9958 41.4609 58.2047 41.0138 57.4241C40.7888 57.035 40.5615 56.6472 40.3261 56.2657C40.2679 56.1698 40.2081 56.0751 40.1488 55.9802C40.0896 55.8853 40.0298 55.7906 39.9692 55.6965C39.9087 55.6024 39.8484 55.509 39.7875 55.4157C39.7267 55.3224 39.6638 55.2288 39.604 55.1436L39.9173 55.342L37.6888 54.9674C36.9455 54.8431 36.1985 54.7398 35.4537 54.6247C34.7088 54.5096 33.9681 54.3693 33.2319 54.2026C32.8649 54.1176 32.4978 54.0227 32.1341 53.9123C31.9522 53.8581 31.771 53.7994 31.5906 53.7361C31.4103 53.6727 31.2304 53.6051 31.0526 53.5264C31.0192 53.5116 30.9917 53.4861 30.9743 53.454C30.957 53.4218 30.9508 53.3848 30.9568 53.3487C30.9628 53.3127 30.9807 53.2797 31.0075 53.2549C31.0343 53.2301 31.0687 53.2149 31.1051 53.2118C31.2988 53.1958 31.4907 53.1913 31.6819 53.1905C31.873 53.1897 32.0636 53.1934 32.2532 53.2015C32.6328 53.2165 33.0101 53.2464 33.3855 53.2865C34.1356 53.3695 34.8814 53.4788 35.623 53.6142C36.3647 53.7493 37.1044 53.8958 37.8474 54.0217L40.0759 54.3971H40.0786C40.141 54.4077 40.2006 54.4307 40.254 54.4648C40.3073 54.4988 40.3533 54.5432 40.3893 54.5953C40.4593 54.6968 40.5203 54.7909 40.5856 54.8885C40.6509 54.986 40.7123 55.0817 40.7739 55.1787C40.8355 55.2757 40.8979 55.373 40.9574 55.4705C41.0169 55.568 41.0793 55.665 41.1388 55.7631C41.3801 56.1538 41.6108 56.5497 41.841 56.9456C42.2966 57.7402 42.7321 58.5453 43.1474 59.3611C43.5627 60.1768 43.959 61.0014 44.3362 61.8348C44.5276 62.2501 44.7059 62.6714 44.8889 63.0907C45.0629 63.5138 45.2433 63.9341 45.4088 64.361L45.5349 64.6801C45.5771 64.7865 45.6198 64.8924 45.6591 64.9999L45.9006 65.6423C45.9829 65.856 46.0566 66.0725 46.134 66.2878L46.2488 66.6113C46.2871 66.7191 46.3275 66.8268 46.3615 66.9356L46.5789 67.5869L46.6334 67.7497L46.6596 67.831L46.6859 67.9131L46.7881 68.2408L46.9921 68.8963L47.183 69.5559L47.2784 69.886C47.3104 69.9959 47.3379 70.107 47.3681 70.2174L47.5445 70.8815L47.5886 71.0475L47.6289 71.2145L47.7097 71.5485C47.7621 71.7711 47.8185 71.9943 47.8699 72.2166L48.0156 72.8886L48.0885 73.2244L48.1066 73.3083L48.1229 73.3928L48.1551 73.5616C48.2396 74.012 48.3329 74.4609 48.4021 74.9145L48.5135 75.5933L48.5274 75.678L48.539 75.7632L48.5623 75.9336L48.609 76.2744L48.6556 76.6153L48.679 76.7857L48.6905 76.8709L48.7002 76.9564L48.7742 77.6407C48.7983 77.8693 48.8266 78.0956 48.8442 78.3271C48.8617 78.5586 48.8798 78.7901 48.8916 79.0227C48.9144 79.4883 48.9205 79.9568 48.9003 80.4275C48.8916 80.6634 48.874 80.8994 48.8504 81.1354C48.8268 81.3713 48.7936 81.6073 48.754 81.8433C48.6693 82.3152 48.5523 82.7871 48.3722 83.246C48.3303 83.3616 48.2771 83.4743 48.228 83.5868L48.1452 83.7546C48.131 83.7827 48.119 83.8107 48.1027 83.8383L48.0566 83.9206L48.0104 84.0026C47.9947 84.0289 47.9797 84.0574 47.9622 84.0839L47.8602 84.2441C47.8437 84.2703 47.825 84.2966 47.8062 84.3228L47.7501 84.4014L47.694 84.4788C47.6753 84.505 47.6538 84.5286 47.6339 84.5538C47.593 84.603 47.5524 84.6529 47.5109 84.7016L47.3799 84.8427C47.3366 84.8907 47.2884 84.9337 47.2409 84.9777L47.1696 85.0438L47.1339 85.0766L47.0962 85.1072L46.9444 85.2289C46.9205 85.2491 46.8896 85.2695 46.8613 85.29L46.818 85.3204L46.7721 85.3492C46.6474 85.429 46.5144 85.495 46.3754 85.5459C46.2388 85.5951 46.0974 85.6303 45.9536 85.6507C45.8225 85.6695 45.6905 85.6807 45.5582 85.6843C45.306 85.6911 45.0734 85.6814 44.8448 85.6733C44.6162 85.6652 44.3933 85.6555 44.1705 85.6497C43.9476 85.6439 43.7263 85.6416 43.5045 85.6426C43.0612 85.6439 42.6178 85.662 42.1739 85.6909L41.8436 85.7152L41.5098 85.7477C41.2788 85.7703 41.0424 85.7884 40.8019 85.7976C40.6824 85.802 40.5615 85.8041 40.4401 85.8033C40.3187 85.8026 40.1955 85.7984 40.0715 85.79C39.8131 85.7748 39.5569 85.7343 39.3064 85.6691C39.1692 85.632 39.0355 85.5833 38.9066 85.5233C38.7628 85.4549 38.6292 85.3667 38.5099 85.2611L38.4633 85.2187C38.4481 85.2037 38.4334 85.1872 38.4184 85.1715C38.3889 85.1409 38.3614 85.1084 38.3361 85.0742C38.3115 85.0414 38.2871 85.0084 38.2635 84.9748C38.2399 84.9413 38.222 84.9059 38.2021 84.87C38.1279 84.7354 38.0713 84.592 38.0335 84.4431C38.0288 84.4253 38.0236 84.4072 38.0194 84.3907L38.0086 84.3382C38.0018 84.3031 37.9939 84.2677 37.9887 84.2334C37.9795 84.1641 37.9685 84.0939 37.9648 84.0262C37.9545 83.8932 37.9527 83.7597 37.9593 83.6264C37.9729 83.374 38.0067 83.123 38.0605 82.876C38.1116 82.6376 38.1752 82.402 38.2511 82.1702C38.2889 82.0554 38.3298 81.9416 38.3715 81.8294C38.3925 81.773 38.4148 81.7166 38.4376 81.66L38.4727 81.5748L38.4913 81.5315L38.5123 81.4843L38.8712 82.1555L38.8542 82.1527L38.8387 82.1495L38.8193 82.1451C38.8067 82.1422 38.7931 82.1388 38.7821 82.1359C38.7603 82.1296 38.7372 82.1236 38.7168 82.1167C38.6764 82.1031 38.6358 82.0892 38.5988 82.0732C38.5799 82.0653 38.5608 82.0577 38.5422 82.0494L38.4882 82.0231C38.4703 82.0142 38.4522 82.0056 38.4357 81.9969L38.3846 81.9676C38.2506 81.8905 38.1265 81.7974 38.0149 81.6904C37.802 81.4872 37.6292 81.2458 37.5052 80.9789C37.4892 80.9475 37.4749 80.9154 37.4622 80.8826L37.4224 80.7859C37.3962 80.7221 37.3734 80.657 37.354 80.5908L37.323 80.4928L37.3154 80.4684C37.3128 80.4597 37.3107 80.449 37.3083 80.4395L37.2947 80.3805C37.2777 80.3041 37.2652 80.2267 37.2572 80.1488C37.2543 80.1113 37.2522 80.0746 37.2501 80.0373L37.2472 79.9818V79.9277L37.2486 79.82L37.2554 79.7151L37.259 79.6627L37.2648 79.6118L37.2769 79.5103C37.2871 79.444 37.2973 79.3779 37.3096 79.3129C37.3597 79.0612 37.4266 78.8131 37.51 78.5704C37.5902 78.3323 37.6819 78.1024 37.7803 77.8772C37.8786 77.652 37.9837 77.4315 38.0949 77.2146C38.1505 77.1061 38.2076 76.9984 38.2664 76.8916C38.296 76.8392 38.3259 76.7849 38.3563 76.7314L38.4027 76.6512L38.4525 76.5676L38.3825 76.8009C38.3917 76.4991 38.3982 76.1911 38.4035 75.8856L38.41 75.426L38.414 74.9664C38.4171 74.6599 38.4168 74.3534 38.4166 74.0466C38.4163 73.7399 38.4134 73.4337 38.4103 73.1272C38.3938 71.9009 38.3416 70.6757 38.2742 69.4529L38.2202 68.5365L38.2076 68.3074C38.204 68.2308 38.1998 68.1545 38.194 68.0782L38.1646 67.6207C38.1439 67.3158 38.1316 67.0096 38.1075 66.7054C38.0834 66.4013 38.0658 66.0959 38.0461 65.7907C38.0424 65.7141 38.0348 65.6383 38.0293 65.5623L38.012 65.3339C38.0013 65.1816 37.9908 65.0293 37.9819 64.8767L37.9688 64.6475C37.9641 64.5712 37.9622 64.4944 37.9554 64.4187C37.9447 64.2663 37.9339 64.114 37.925 63.9611C37.9161 63.8083 37.9079 63.6552 37.9019 63.5018L37.8922 63.2713L37.8781 63.0419C37.8613 62.7354 37.8477 62.4276 37.8492 62.1153V62.1091C37.8494 62.0711 37.863 62.0345 37.8874 62.0056C37.9119 61.9766 37.9458 61.9572 37.9832 61.9508C38.0205 61.9443 38.0589 61.9512 38.0917 61.9702C38.1245 61.9892 38.1496 62.0192 38.1625 62.0548L38.1649 62.054Z" fill="#371A45"/>
<g opacity="0.35">
<path opacity="0.35" d="M41.7933 57.8277C41.5702 58.0191 41.3423 58.2032 41.1092 58.382C38.0086 60.7611 34.1852 62.0036 30.2784 61.9015C26.3715 61.7995 22.6182 60.3592 19.646 57.8214C19.9082 56.8894 20.1512 55.9599 20.3715 55.0305C22.9933 48.986 38.8308 51.422 39.6232 53.3703C39.861 53.956 40.0917 54.6186 40.3119 55.3453C40.6258 55.8301 41.1533 56.6765 41.7933 57.8277Z" fill="#371A45"/>
</g>
<path d="M47.3763 47.1618C47.2841 47.1641 47.1949 47.1298 47.1281 47.0663C47.0613 47.0029 47.0224 46.9155 47.02 46.8233L46.7633 36.8153C46.761 36.7232 46.7953 36.634 46.8587 36.5672C46.9221 36.5005 47.0095 36.4616 47.1015 36.4592C47.5802 36.4469 48.0566 36.529 48.5035 36.7008C48.9505 36.8727 49.3592 37.1308 49.7064 37.4606C50.0535 37.7904 50.3323 38.1854 50.5268 38.6229C50.7213 39.0605 50.8277 39.5321 50.84 40.0108L50.9275 43.4236C50.9522 44.3902 50.592 45.3271 49.926 46.0281C49.26 46.7292 48.3429 47.137 47.3763 47.1618Z" fill="white"/>
<path d="M47.3667 47.248C47.2538 47.2479 47.1453 47.2037 47.0644 47.1248C46.9835 47.0459 46.9366 46.9386 46.9336 46.8257L46.6769 36.8176C46.6753 36.7605 46.6849 36.7038 46.7053 36.6505C46.7256 36.5972 46.7563 36.5484 46.7956 36.507C46.8348 36.4656 46.8818 36.4323 46.934 36.4092C46.9861 36.386 47.0423 36.3733 47.0993 36.3719C47.5894 36.3591 48.0771 36.4431 48.5348 36.6189C48.9924 36.7947 49.4109 37.059 49.7663 37.3966C50.1218 37.7342 50.4073 38.1385 50.6064 38.5865C50.8056 39.0344 50.9146 39.5172 50.9271 40.0073L51.0147 43.4199C51.0275 43.91 50.9436 44.3978 50.7678 44.8554C50.592 45.3131 50.3278 45.7316 49.9902 46.0871C49.6525 46.4426 49.2482 46.7281 48.8002 46.9272C48.3522 47.1264 47.8694 47.2353 47.3793 47.2478H47.368L47.3667 47.248ZM47.3735 47.076L47.3759 47.162L47.3735 47.076C47.8409 47.0641 48.3014 46.9602 48.7286 46.7702C49.1559 46.5803 49.5415 46.3081 49.8635 45.9691C50.1855 45.6301 50.4376 45.2311 50.6054 44.7946C50.7732 44.3582 50.8534 43.8931 50.8414 43.4257L50.7541 40.0128C50.7421 39.5454 50.6382 39.0849 50.4483 38.6577C50.2584 38.2305 49.9861 37.8448 49.6472 37.5228C49.3082 37.2008 48.9091 36.9487 48.4727 36.7809C48.0363 36.6131 47.5712 36.5329 47.1038 36.5449C47.0345 36.5468 46.9687 36.5761 46.921 36.6264C46.8732 36.6767 46.8473 36.7438 46.8489 36.8131L47.1053 46.8212C47.1073 46.8905 47.1366 46.9562 47.1868 47.004C47.2371 47.0518 47.3042 47.0777 47.3735 47.076Z" fill="#371A45"/>
<g opacity="0.35">
<path opacity="0.35" d="M50.8863 41.8235L50.9274 43.4228C50.9521 44.3896 50.5917 45.3267 49.9256 46.0279C49.2595 46.7291 48.3421 47.137 47.3752 47.162C47.283 47.1643 47.1936 47.1298 47.1268 47.0662C47.06 47.0025 47.0212 46.915 47.0189 46.8228L46.9497 44.1624C46.9786 44.2228 47.0243 44.2736 47.0813 44.3087C47.1383 44.3438 47.2042 44.3618 47.2712 44.3603L47.5084 44.3538C48.2644 44.3346 48.9957 44.0807 49.6009 43.6273C50.2061 43.174 50.6553 42.5436 50.8863 41.8235Z" fill="#371A45"/>
</g>
<path d="M47.367 47.6408C47.1517 47.6404 46.945 47.5562 46.7908 47.4059C46.6366 47.2556 46.5472 47.0511 46.5414 46.8359L46.2849 36.828C46.2793 36.609 46.3609 36.3967 46.5117 36.2378C46.6626 36.079 46.8703 35.9865 47.0893 35.9808C48.1829 35.9528 49.2429 36.3604 50.036 37.1138C50.8292 37.8673 51.2905 38.905 51.3186 39.9986L51.4059 43.4115C51.434 44.5048 51.0267 45.5645 50.2735 46.3576C49.5204 47.1507 48.4831 47.6122 47.3898 47.6405H47.3683L47.367 47.6408ZM47.2451 36.9368L47.4946 46.6778C48.3103 46.6231 49.0733 46.2552 49.624 45.651C50.1746 45.0468 50.4704 44.2531 50.4494 43.4358L50.3619 40.0232C50.3409 39.206 50.0048 38.4286 49.424 37.8534C48.8431 37.2782 48.0624 36.9498 47.2451 36.9368Z" fill="#371A45"/>
<path d="M14.0674 37.3063C14.1596 37.3039 14.2489 37.3382 14.3158 37.4017C14.3827 37.4651 14.4216 37.5526 14.424 37.6447L14.6804 47.6528C14.6816 47.6985 14.6738 47.7439 14.6574 47.7865C14.641 47.8291 14.6164 47.868 14.585 47.9011C14.5536 47.9342 14.5159 47.9608 14.4742 47.9793C14.4325 47.9979 14.3876 48.008 14.3419 48.0091C13.8633 48.0214 13.3869 47.9393 12.9399 47.7675C12.493 47.5956 12.0843 47.3374 11.7371 47.0076C11.39 46.6778 11.1112 46.2829 10.9166 45.8454C10.7221 45.4078 10.6157 44.9363 10.6034 44.4576L10.5158 41.0448C10.5036 40.5661 10.5857 40.0897 10.7575 39.6427C10.9294 39.1958 11.1876 38.7871 11.5174 38.44C11.8472 38.0928 12.2421 37.814 12.6796 37.6195C13.1172 37.425 13.5887 37.3185 14.0674 37.3063Z" fill="white"/>
<path d="M14.2456 48.0965C13.2727 48.096 12.3385 47.7155 11.6421 47.0362C10.9456 46.357 10.5419 45.4326 10.517 44.46L10.4295 41.0471C10.377 38.99 12.0076 37.2732 14.065 37.2192C14.122 37.2176 14.1788 37.2272 14.2321 37.2476C14.2853 37.268 14.3341 37.2986 14.3755 37.3379C14.4169 37.3771 14.4501 37.4241 14.4733 37.4762C14.4966 37.5284 14.5092 37.5845 14.5107 37.6415L14.7674 47.6495C14.7689 47.7065 14.7592 47.7633 14.7388 47.8165C14.7184 47.8698 14.6877 47.9185 14.6485 47.9599C14.6093 48.0012 14.5623 48.0345 14.5102 48.0577C14.4581 48.081 14.402 48.0937 14.345 48.0952C14.3112 48.0963 14.2781 48.0965 14.2456 48.0965ZM14.0671 37.3065L14.0694 37.3922C12.1069 37.4425 10.5511 39.0802 10.6014 41.0426L10.689 44.4555C10.7134 45.3994 11.1117 46.2949 11.7963 46.9451C12.4808 47.5953 13.3957 47.9469 14.3395 47.9227C14.4088 47.9207 14.4744 47.8914 14.5221 47.8411C14.5698 47.7909 14.5957 47.7238 14.5941 47.6545L14.3377 37.6463C14.3357 37.577 14.3064 37.5112 14.2562 37.4635C14.2059 37.4157 14.1388 37.3898 14.0694 37.3914L14.0671 37.3065Z" fill="#371A45"/>
<g opacity="0.35">
<path opacity="0.35" d="M14.6099 44.8763L14.6807 47.6528C14.6829 47.745 14.6484 47.8344 14.5848 47.9012C14.5212 47.968 14.4336 48.0068 14.3414 48.0091C13.8628 48.0216 13.3863 47.9396 12.9394 47.7678C12.4924 47.5961 12.0837 47.338 11.7366 47.0082C11.3894 46.6784 11.1107 46.2834 10.9162 45.8459C10.7218 45.4083 10.6155 44.9368 10.6034 44.4581L10.5664 43.02C10.8721 43.6508 11.3531 44.1801 11.9517 44.5447C12.5504 44.9092 13.2414 45.0936 13.9421 45.0758L14.3073 45.0664C14.3701 45.0646 14.4313 45.0461 14.4846 45.0126C14.5378 44.9792 14.5811 44.9321 14.6099 44.8763Z" fill="#371A45"/>
</g>
<path d="M14.2456 48.4893C13.1704 48.4885 12.138 48.0679 11.3683 47.3172C10.5986 46.5664 10.1524 45.5448 10.1248 44.47L10.0375 41.0574C9.97905 38.7838 11.7816 36.8866 14.0553 36.8281C14.2743 36.8227 14.4864 36.9044 14.6452 37.0553C14.804 37.2061 14.8964 37.4138 14.9022 37.6328L15.1589 47.6409C15.1642 47.8598 15.0825 48.0719 14.9316 48.2307C14.7808 48.3894 14.5731 48.4819 14.3542 48.4877C14.318 48.4888 14.2818 48.4893 14.2456 48.4893ZM13.9489 37.7922C13.1336 37.8481 12.3714 38.2163 11.821 38.8203C11.2706 39.4242 10.9744 40.2172 10.9942 41.0341L11.0816 44.4469C11.1026 45.2641 11.4387 46.0416 12.0196 46.6168C12.6005 47.1919 13.3813 47.5202 14.1987 47.5331L13.9489 37.7922ZM14.0674 37.3079L14.0797 37.7862L14.0674 37.3079Z" fill="#371A45"/>
<path d="M30.7238 59.2945C40.1458 59.2945 47.7839 51.6564 47.7839 42.2344C47.7839 32.8124 40.1458 25.1743 30.7238 25.1743C21.3017 25.1743 13.6636 32.8124 13.6636 42.2344C13.6636 51.6564 21.3017 59.2945 30.7238 59.2945Z" fill="white"/>
<path d="M30.7436 59.38C30.4784 59.38 30.2126 59.374 29.9462 59.3619C26.5558 59.2099 23.2866 58.0557 20.5523 56.0453C17.8179 54.0349 15.7413 51.2586 14.5852 48.0678C13.4291 44.8769 13.2453 41.4148 14.0572 38.1195C14.8692 34.8242 16.6402 31.8438 19.1464 29.5553C21.6526 27.2667 24.7813 25.773 28.1366 25.2629C31.4919 24.7529 34.9231 25.2496 37.9961 26.69C41.0691 28.1305 43.6459 30.4501 45.4003 33.3553C47.1547 36.2605 48.008 39.6208 47.8522 43.0111L47.7665 43.0071L47.8522 43.0111C47.656 47.4172 45.7679 51.578 42.5811 54.627C39.3942 57.6761 35.1541 59.3786 30.7436 59.38ZM30.7053 25.2591C26.4626 25.2591 22.4312 26.8196 19.2776 29.6992C15.9298 32.7565 13.9726 36.9355 13.767 41.4639C13.5615 45.9924 15.1319 50.3315 18.1893 53.6796C21.2467 57.0277 25.4256 58.9847 29.9541 59.1902C30.2173 59.2023 30.4801 59.2082 30.7422 59.208C34.9849 59.208 39.0163 57.6478 42.1699 54.7679C45.518 51.7106 47.475 47.5317 47.6805 43.0032C47.8861 38.4748 46.3148 34.1364 43.2582 30.7883C40.2016 27.4402 36.0219 25.4832 31.4934 25.2777C31.2302 25.2656 30.9675 25.2597 30.7053 25.2599V25.2591Z" fill="#371A45"/>
<g opacity="0.35">
<path opacity="0.35" d="M47.7101 40.6414C47.7842 41.428 47.8031 42.2188 47.7668 43.0081C47.3383 52.4206 39.3621 59.7038 29.9499 59.2775C20.5377 58.8512 13.2531 50.8729 13.6805 41.4607C13.6925 41.1901 13.7112 40.9195 13.7363 40.6534C14.5087 49.0017 21.3371 55.7121 29.9491 56.1032C39.0905 56.5175 46.8761 49.6592 47.7101 40.6414Z" fill="#371A45"/>
</g>
<path d="M30.744 59.7731C30.4729 59.7731 30.2011 59.7669 29.9286 59.7547C26.4606 59.5991 23.1167 58.4184 20.3199 56.362C17.5231 54.3056 15.399 51.4658 14.2165 48.202C13.034 44.9381 12.8461 41.3968 13.6766 38.0262C14.5071 34.6555 16.3187 31.6069 18.8821 29.2661C21.4456 26.9252 24.6458 25.3973 28.0779 24.8756C31.5099 24.3539 35.0196 24.8618 38.1629 26.3352C41.3062 27.8086 43.9418 30.1812 45.7364 33.1528C47.531 36.1245 48.4039 39.5616 48.2446 43.0294L47.7666 43.0077L48.2446 43.0294C48.0438 47.5365 46.1124 51.7924 42.8525 54.9113C39.5927 58.0302 35.2555 59.7716 30.744 59.7731ZM30.706 25.6521C26.5614 25.6521 22.6234 27.1764 19.5427 29.9894C16.2719 32.9762 14.3601 37.0576 14.1595 41.4823C13.9589 45.9069 15.4927 50.1448 18.4795 53.4153C21.4663 56.6858 25.5475 58.5979 29.9721 58.7988C30.2291 58.8103 30.4863 58.8161 30.7419 58.8161C34.8865 58.8161 38.8245 57.2917 41.9052 54.4788C45.176 51.492 47.0878 47.4105 47.2884 42.9859C47.489 38.5613 45.9552 34.3236 42.9686 31.0528C39.9821 27.7821 35.9004 25.8705 31.4752 25.6696C31.2188 25.6578 30.9616 25.6521 30.706 25.6521Z" fill="#371A45"/>
<path d="M30.744 59.7731C30.4729 59.7731 30.2011 59.7669 29.9286 59.7547C26.4606 59.5991 23.1167 58.4184 20.3199 56.362C17.5231 54.3056 15.399 51.4658 14.2165 48.202C13.034 44.9381 12.8461 41.3968 13.6766 38.0262C14.5071 34.6555 16.3187 31.6069 18.8821 29.2661C21.4456 26.9252 24.6458 25.3973 28.0779 24.8756C31.5099 24.3539 35.0196 24.8618 38.1629 26.3352C41.3062 27.8086 43.9418 30.1812 45.7364 33.1528C47.531 36.1245 48.4039 39.5616 48.2446 43.0294L47.7666 43.0077L48.2446 43.0294C48.0438 47.5365 46.1124 51.7924 42.8525 54.9113C39.5927 58.0302 35.2555 59.7716 30.744 59.7731ZM30.706 25.6521C26.5614 25.6521 22.6234 27.1764 19.5427 29.9894C16.2719 32.9762 14.3601 37.0576 14.1595 41.4823C13.9589 45.9069 15.4927 50.1448 18.4795 53.4153C21.4663 56.6858 25.5475 58.5979 29.9721 58.7988C30.2291 58.8103 30.4863 58.8161 30.7419 58.8161C34.8865 58.8161 38.8245 57.2917 41.9052 54.4788C45.176 51.492 47.0878 47.4105 47.2884 42.9859C47.489 38.5613 45.9552 34.3236 42.9686 31.0528C39.9821 27.7821 35.9004 25.8705 31.4752 25.6696C31.2188 25.6578 30.9616 25.6521 30.706 25.6521Z" fill="#371A45"/>
<path d="M47.7614 43.1862C47.6605 46.523 46.4835 49.5882 44.5533 52.0955C43.1063 53.9751 37.2956 57.1654 30.2436 57.0154C23.705 56.8765 17.863 53.2111 16.5314 51.2474C14.7564 48.6281 13.7669 45.4974 13.8679 42.1603C14.135 33.3299 21.8325 29.899 31.1922 30.1821C40.5519 30.4653 48.0286 34.3558 47.7614 43.1862Z" fill="#371A45"/>
<path d="M30.6603 57.6309C30.497 57.6309 30.3328 57.6291 30.1669 57.6256C26.4297 57.547 23.2348 56.3672 21.2123 55.3908C18.9179 54.2838 16.9387 52.8361 16.1707 51.7026C14.2885 48.9251 13.3468 45.7107 13.4466 42.4066C13.513 40.2137 14.035 38.2609 14.9977 36.6032C15.9041 35.0429 17.2058 33.7328 18.867 32.7097C21.8997 30.8422 26.1421 29.935 31.1346 30.086C36.1271 30.237 40.3071 31.3993 43.2213 33.4467C44.8177 34.5683 46.0379 35.9548 46.8481 37.5669C47.7091 39.2801 48.1118 41.2606 48.0454 43.4538C47.9456 46.7573 46.8108 49.9093 44.7642 52.5678C43.9126 53.674 41.9198 54.9511 39.5633 55.901C37.5799 56.7007 34.4557 57.6309 30.6603 57.6309ZM30.0709 30.7756C25.6704 30.7756 21.9414 31.6458 19.2375 33.3109C15.9864 35.3132 14.2754 38.3805 14.153 42.4273C14.0575 45.5817 14.9576 48.6519 16.7557 51.3054C17.2897 52.0936 18.8579 53.4695 21.5195 54.7534C23.4786 55.6973 26.5718 56.8415 30.1821 56.9183C34.0805 57.0011 37.2917 56.0531 39.299 55.2448C41.9872 54.1614 43.6216 52.893 44.2045 52.136C46.1596 49.596 47.2437 46.5861 47.3391 43.4315L47.6923 43.4422L47.3391 43.4315C47.4616 39.3847 45.9393 36.2196 42.8151 34.0243C40.0142 32.0563 35.968 30.9384 31.1134 30.7916C30.762 30.7809 30.4146 30.7756 30.0709 30.7756Z" fill="#371A45"/>
<g opacity="0.5">
<path opacity="0.5" d="M44.3565 42.5281C44.7032 40.8971 44.0262 39.3713 42.8444 39.1201C41.6626 38.8689 40.4236 39.9874 40.0769 41.6184C39.7302 43.2494 40.4072 44.7752 41.589 45.0264C42.7708 45.2776 44.0098 44.1591 44.3565 42.5281Z" fill="white"/>
</g>
<g opacity="0.5">
<path opacity="0.5" d="M40.4821 48.383C40.7432 47.6636 40.4544 46.8988 39.8369 46.6747C39.2195 46.4506 38.5073 46.8521 38.2462 47.5714C37.9851 48.2908 38.2739 49.0556 38.8914 49.2797C39.5088 49.5038 40.221 49.1023 40.4821 48.383Z" fill="white"/>
</g>
<g opacity="0.35">
<path opacity="0.35" d="M44.6456 35.105C46.6573 37.1445 47.7989 39.8956 47.6919 43.4425C47.591 46.7801 46.4135 49.845 44.4846 52.3523C43.0373 54.2319 37.2257 57.4222 30.174 57.2727C27.6833 57.2203 25.2958 56.656 23.2183 55.8679C31.8905 55.8679 38.9701 51.9496 40.7645 49.6182C43.2143 46.4363 44.708 42.5455 44.8354 38.3112C44.8719 37.2389 44.8084 36.1655 44.6456 35.105Z" fill="#111A28"/>
</g>
<path d="M46.4691 36.0794C46.3653 36.0797 46.265 36.0416 46.1875 35.9725L46.1456 35.9358L46.1144 35.8891C43.3615 31.7728 37.8781 29.2917 31.0697 29.0857C24.2233 28.8785 18.6028 31.0974 15.6496 35.1728L15.638 35.1888L15.621 35.2082C15.5479 35.2912 15.4453 35.3423 15.3351 35.3507C15.2249 35.3591 15.1157 35.3241 15.0309 35.2532C14.9461 35.1823 14.8923 35.081 14.8811 34.971C14.8699 34.8611 14.902 34.751 14.9708 34.6644C15.7689 33.5654 16.7536 32.5819 17.8986 31.7413C19.0131 30.9228 20.2881 30.233 21.6879 29.6908C23.0589 29.1599 24.5583 28.7671 26.1451 28.5238C27.7182 28.2823 29.3828 28.1861 31.0957 28.238C34.4778 28.3405 37.6741 29.0201 40.3419 30.2044C41.7136 30.8132 42.9538 31.5557 44.0277 32.4115C45.1312 33.2911 46.0659 34.2958 46.8068 35.3983C46.8549 35.4611 46.8845 35.5361 46.8921 35.6148C46.8998 35.6935 46.8853 35.7728 46.8503 35.8437C46.8153 35.9147 46.7611 35.9744 46.694 36.0161C46.6268 36.0579 46.5493 36.08 46.4702 36.08L46.4691 36.0794ZM15.2812 34.9062L15.3043 34.9264L15.2812 34.9062Z" fill="#371A45"/>
<g opacity="0.5">
<path opacity="0.5" d="M17.446 47.7856C17.446 47.7856 14.9749 38.9916 19.7747 35.6624C24.5745 32.3332 31.3283 32.5516 31.1571 32.98C31.1571 32.98 23.6249 34.5638 20.5204 40.3867C18.1261 44.8772 17.446 47.7856 17.446 47.7856Z" fill="white"/>
</g>
<path d="M38.7786 69.5571C38.6968 69.5571 38.6176 69.5287 38.5544 69.4768C38.4912 69.4248 38.4479 69.3526 38.432 69.2724C38.4161 69.1921 38.4286 69.1089 38.4672 69.0368C38.5058 68.9647 38.5682 68.9082 38.6439 68.877C38.6931 68.8568 39.8669 68.3776 41.434 68.0905C42.3595 67.9208 43.2304 67.8545 44.022 67.8933C45.0292 67.9426 45.9131 68.1634 46.6485 68.5488C46.7294 68.5934 46.7897 68.668 46.8163 68.7565C46.8429 68.8451 46.8338 68.9405 46.7908 69.0224C46.7479 69.1043 46.6745 69.1661 46.5866 69.1945C46.4986 69.223 46.403 69.2158 46.3202 69.1746C44.852 68.4038 42.9289 68.5359 41.5748 68.7826C40.666 68.9484 39.7748 69.1986 38.9126 69.5301C38.8701 69.5476 38.8246 69.5568 38.7786 69.5571Z" fill="#371A45"/>
<path d="M39.6086 79.7622C39.6159 79.8115 39.6215 79.855 39.627 79.9009C39.6325 79.9468 39.6372 79.9916 39.6411 80.0367C39.6498 80.1274 39.6558 80.2181 39.66 80.3091C39.6681 80.4913 39.6684 80.6762 39.6582 80.8597C39.6468 81.0488 39.6229 81.2369 39.5866 81.4228C39.5452 81.6201 39.4825 81.8122 39.3996 81.9959C39.3792 82.0407 39.3497 82.0807 39.313 82.1134C39.2763 82.1461 39.2332 82.1709 39.1864 82.1861C39.1396 82.2012 39.0902 82.2065 39.0413 82.2016C38.9923 82.1966 38.945 82.1816 38.9022 82.1573C38.8594 82.1331 38.8221 82.1003 38.7926 82.0609C38.7632 82.0214 38.7423 81.9764 38.7313 81.9284C38.7202 81.8805 38.7192 81.8308 38.7284 81.7825C38.7376 81.7342 38.7567 81.6883 38.7845 81.6478C38.8678 81.5232 38.9376 81.39 38.9927 81.2506C39.0497 81.0991 39.0968 80.9441 39.1335 80.7865C39.17 80.625 39.198 80.4596 39.2187 80.2921C39.2292 80.2084 39.2376 80.124 39.2449 80.0396C39.2484 79.9974 39.2507 79.9552 39.2531 79.913C39.2554 79.8708 39.2567 79.8275 39.2578 79.7895V79.7824C39.2586 79.7379 39.2761 79.6954 39.3069 79.6633C39.3376 79.6311 39.3793 79.6118 39.4237 79.609C39.4681 79.6062 39.5119 79.6202 39.5464 79.6483C39.5809 79.6764 39.6036 79.7164 39.6099 79.7604L39.6086 79.7622Z" fill="#371A45"/>
<path d="M7.34882 72.5758C7.2481 72.5343 7.1423 72.5065 7.03421 72.493C6.92468 72.4784 6.81435 72.4707 6.70386 72.4699C6.59296 72.4683 6.481 72.4744 6.36932 72.4825C6.25763 72.4906 6.14568 72.5027 6.03425 72.5174C5.81087 72.5459 5.58854 72.5884 5.36752 72.6338C5.25688 72.6568 5.14668 72.6818 5.03691 72.7088C4.98203 72.722 4.9275 72.7359 4.87331 72.7502C4.82088 72.7643 4.76372 72.7795 4.71417 72.7945C4.64982 72.8134 4.5806 72.806 4.52165 72.7741C4.4627 72.7421 4.4188 72.6881 4.39955 72.6238C4.39133 72.5967 4.38779 72.5684 4.38907 72.5402L4.39116 72.5001L4.39431 72.4314L4.39693 72.3598L4.4006 72.2161C4.40244 72.1202 4.40244 72.0242 4.4006 71.9277C4.39725 71.7401 4.38333 71.5529 4.35892 71.3669C4.34633 71.2764 4.33008 71.1881 4.31041 71.1047C4.29305 71.0265 4.26893 70.9499 4.23831 70.8758C4.21855 70.8236 4.1887 70.7758 4.15048 70.735C4.13842 70.7243 4.13029 70.7219 4.12846 70.723C4.12662 70.724 4.13082 70.7282 4.12662 70.7298C4.12463 70.7302 4.12258 70.7302 4.12059 70.7298C4.11696 70.7306 4.11328 70.7311 4.10958 70.7314C4.10516 70.7317 4.10077 70.7324 4.09647 70.7335C4.09136 70.734 4.08628 70.7349 4.08126 70.7361C4.06973 70.739 4.05846 70.7408 4.04509 70.7453C4.03171 70.7497 4.01887 70.7539 4.00445 70.7586C3.94134 70.7825 3.8811 70.8134 3.82485 70.8507C3.69581 70.9355 3.58081 71.04 3.48402 71.1603C3.38219 71.286 3.29592 71.4235 3.22708 71.5698C3.15727 71.7202 3.10323 71.8774 3.06584 72.0389C3.05692 72.08 3.04644 72.1204 3.03962 72.1624L3.02835 72.2245C3.02494 72.2455 3.02232 72.2667 3.01917 72.2877C3.01603 72.3087 3.01288 72.3294 3.01052 72.3506L3.00423 72.4143L3.00082 72.4463L2.99898 72.462V72.4749L2.99741 72.5273C2.99463 72.6634 3.01675 72.7988 3.06269 72.9269C3.07606 72.9594 3.08891 72.9922 3.10281 73.0247L3.12693 73.0732C3.13467 73.0898 3.14342 73.1059 3.15315 73.1214C3.17255 73.1532 3.18801 73.1862 3.21056 73.2174L3.24176 73.2651C3.25173 73.2811 3.26457 73.2963 3.27584 73.312C3.37376 73.4424 3.48404 73.5631 3.60515 73.6723C3.8692 73.9061 4.15955 74.1085 4.47034 74.2753C4.50967 74.2972 4.549 74.3181 4.58832 74.3382C4.62739 74.3584 4.66698 74.3781 4.70394 74.3951L4.71653 74.4012L4.71941 74.4025H4.71758H4.71443L4.74747 74.4158L4.81459 74.4421L4.94961 74.4945C5.03928 74.5302 5.12947 74.5648 5.21834 74.5981C5.30722 74.6314 5.39531 74.6641 5.47738 74.6935L5.48603 74.6966C5.59979 74.7386 5.69342 74.8221 5.74803 74.9303C5.80265 75.0386 5.81419 75.1635 5.78033 75.2799C5.74647 75.3963 5.66973 75.4955 5.56558 75.5576C5.46143 75.6197 5.33763 75.6399 5.21913 75.6143C5.10954 75.5881 5.00938 75.5605 4.90766 75.5322C4.80593 75.5039 4.70945 75.4719 4.61192 75.4407C4.56289 75.425 4.51413 75.4095 4.46562 75.3927L4.39273 75.3665L4.35603 75.3537L4.33532 75.3458L4.31906 75.3393L4.2973 75.3303C4.24251 75.3078 4.19243 75.2855 4.14157 75.2622C4.0907 75.2388 4.04168 75.2155 3.99265 75.1909C3.89459 75.1424 3.79864 75.0899 3.70425 75.0336C3.60987 74.9772 3.51627 74.92 3.4245 74.8584C3.23766 74.7338 3.06053 74.5953 2.89464 74.4439C2.72088 74.2848 2.56437 74.1078 2.42769 73.9159C2.28131 73.7111 2.16741 73.485 2.09 73.2455C2.01095 72.9942 1.9806 72.7302 2.0006 72.4675L2.00951 72.37L2.01187 72.3459L2.01528 72.3247L2.02184 72.2825L2.03573 72.1983C2.04071 72.1702 2.04674 72.1422 2.05251 72.1141C2.05828 72.0861 2.06352 72.058 2.07008 72.0302L2.09053 71.9463C2.10337 71.8907 2.12068 71.8354 2.13667 71.7801C2.27169 71.3391 2.49927 70.9149 2.83197 70.5683C3.00109 70.3907 3.19727 70.2409 3.41323 70.1247C3.52951 70.0626 3.65271 70.0145 3.78028 69.9813C3.81436 69.9731 3.84819 69.9647 3.88515 69.9592C3.92212 69.9537 3.9583 69.9485 3.99632 69.9448C4.01467 69.9427 4.03591 69.9427 4.05557 69.9422C4.07601 69.9411 4.09649 69.9411 4.11692 69.9422C4.13816 69.9422 4.15966 69.9445 4.18089 69.9461C4.20213 69.9477 4.22599 69.9524 4.24854 69.9561C4.34716 69.9735 4.44135 70.0103 4.52566 70.0644C4.60258 70.1138 4.67064 70.1759 4.72702 70.2479C4.81436 70.3626 4.87994 70.4923 4.9205 70.6307C4.99418 70.8729 5.01279 71.0942 5.02013 71.3108C5.02529 71.5222 5.01837 71.7336 4.99942 71.9442C4.99086 72.0477 4.97993 72.1508 4.96665 72.2536C4.96009 72.306 4.95354 72.3561 4.94541 72.4075L4.93309 72.4846L4.9192 72.5633L4.59488 72.2688C4.65806 72.2583 4.71496 72.2502 4.77447 72.2426C4.83399 72.235 4.89219 72.2271 4.95092 72.2203C5.06838 72.2063 5.18601 72.1945 5.30381 72.1849C5.42162 72.1753 5.53969 72.1681 5.65802 72.1634C5.77626 72.1592 5.89398 72.1566 6.01354 72.1579C6.25232 72.1578 6.49075 72.1763 6.72667 72.2132C6.84624 72.2321 6.96427 72.2597 7.07983 72.2958C7.19806 72.3315 7.31067 72.3837 7.41437 72.4508C7.42842 72.4604 7.43841 72.4748 7.4424 72.4914C7.44639 72.5079 7.4441 72.5254 7.43597 72.5403C7.42784 72.5553 7.41446 72.5667 7.39841 72.5723C7.38236 72.5779 7.36478 72.5774 7.34909 72.5709L7.34882 72.5758Z" fill="#371A45"/>
<path d="M31.1535 38.5567C42.9363 38.5567 52.4881 36.255 52.4881 33.4158C52.4881 30.5766 42.9363 28.2749 31.1535 28.2749C19.3707 28.2749 9.81885 30.5766 9.81885 33.4158C9.81885 36.255 19.3707 38.5567 31.1535 38.5567Z" fill="#1F0D27"/>
<path d="M31.1535 38.0424C42.9363 38.0424 52.4881 35.6257 52.4881 32.6445C52.4881 29.6633 42.9363 27.2466 31.1535 27.2466C19.3707 27.2466 9.81885 29.6633 9.81885 32.6445C9.81885 35.6257 19.3707 38.0424 31.1535 38.0424Z" fill="#562B6A"/>
<path d="M35.061 10.4533C34.7815 9.70565 31.1 6.36212 31.1417 5.78194C31.1833 5.20176 32.9259 0.207396 32.5512 0.00403297C32.2419 -0.163443 28.3345 4.93859 28.168 5.34532C27.936 5.90158 29.185 11.183 28.7627 12.134C28.2691 13.2047 24.201 18.9886 24.1118 19.3116C22.1849 26.1003 20.6147 32.1115 20.6147 32.1354C20.6147 33.1343 25.337 33.9298 31.1535 33.9298C36.9701 33.9298 41.6923 33.1283 41.6923 32.1354C41.6923 32.1055 36.5597 19.3534 36.1613 18.9766C35.6498 18.4981 35.3524 11.2249 35.061 10.4533Z" fill="#562B6A"/>
<g style="mix-blend-mode:multiply">
<g style="mix-blend-mode:multiply">
<path d="M32.268 0.0723696C31.4848 0.675474 28.2403 4.99974 28.0872 5.3797C27.8575 5.94059 29.0941 11.266 28.676 12.2249C28.1873 13.3045 24.1596 19.1365 24.0713 19.4622C22.2046 26.1566 20.6795 32.0972 20.6147 32.3807C20.6442 32.4832 20.6736 32.5676 20.6854 32.6038C21.0328 33.1285 22.6404 33.5748 24.9663 33.8703C30.7547 34.6242 25.6317 28.1167 24.5777 19.5587C24.4952 18.9254 31.8558 13.7206 31.8087 11.9053C31.8087 10.9705 29.0293 12.1465 28.5524 5.42794C28.4935 4.60169 32.4388 0 32.4388 0L32.268 0.0723696Z" fill="#9256AF"/>
</g>
</g>
<g style="mix-blend-mode:soft-light">
<g style="mix-blend-mode:soft-light">
<path d="M34.9902 10.4819C34.7072 9.73194 30.9799 6.37796 31.0221 5.79597C31.0642 5.21397 32.8285 0.203999 32.4492 0C32.0493 1.2989 31.5728 2.57313 31.0221 3.81599C30.5343 4.69798 29.0711 5.23198 29.4023 6.06597C29.7997 7.03796 30.5042 7.79996 34.0569 10.7519C34.8156 11.3519 31.57 16.6559 32.4492 17.4899C33.3283 18.3239 35.1227 19.9499 34.7433 20.2679C34.1412 20.8079 31.4616 19.0019 32.0999 21.9299C32.7382 24.8579 34.1051 33.9298 34.1111 33.9298C36.0253 33.8679 37.9298 33.6329 39.8014 33.2278C40.4941 33.0152 41.1371 32.6664 41.6921 32.2018C41.6921 32.1718 36.4956 19.3799 36.0922 19.0019C35.5864 18.5519 35.2853 11.2559 34.9902 10.4819Z" fill="#F4F7FF"/>
</g>
</g>
<path d="M28.3467 5.54142C28.2509 5.84042 28.5121 7.6288 28.6905 9.25357L28.7732 9.05048C28.9517 8.54274 28.7384 6.72051 28.5469 5.14087C28.4722 5.26745 28.4053 5.40137 28.3467 5.54142Z" fill="#000013"/>
<path d="M31.1535 30.9756C26.5978 30.9756 22.732 30.4949 21.2571 29.8171C20.8527 31.2884 20.6147 32.1863 20.6147 32.1921C20.6147 33.1594 25.337 33.9298 31.1535 33.9298C36.9701 33.9298 41.6923 33.1536 41.6923 32.1921C41.6923 32.1921 41.3177 31.2711 40.7586 29.9388C39.1112 30.5528 35.4357 30.9756 31.1535 30.9756Z" fill="#1F0D27"/>
<g style="mix-blend-mode:multiply">
<g style="mix-blend-mode:multiply">
<path d="M32.6279 30.8452H29.6787C29.5926 30.8452 29.51 30.881 29.4491 30.9447C29.3882 31.0084 29.354 31.0949 29.354 31.185V34.1041C29.354 34.1942 29.3882 34.2806 29.4491 34.3443C29.51 34.408 29.5926 34.4438 29.6787 34.4438H32.6279C32.714 34.4438 32.7966 34.408 32.8575 34.3443C32.9184 34.2806 32.9526 34.1942 32.9526 34.1041V31.185C32.9526 31.0949 32.9184 31.0084 32.8575 30.9447C32.7966 30.881 32.714 30.8452 32.6279 30.8452ZM32.5616 33.7851C32.5599 33.8563 32.5322 33.9241 32.484 33.9744C32.4359 34.0247 32.3712 34.0538 32.3032 34.0555H30.0035C29.9355 34.0538 29.8707 34.0247 29.8226 33.9744C29.7745 33.9241 29.7467 33.8563 29.745 33.7851V31.5039C29.7467 31.4328 29.7745 31.365 29.8226 31.3147C29.8707 31.2643 29.9355 31.2353 30.0035 31.2335H32.2766C32.3447 31.2353 32.4094 31.2643 32.4576 31.3147C32.5057 31.365 32.5334 31.4328 32.5351 31.5039L32.5616 33.7851Z" fill="#CDDECC"/>
</g>
</g>
<path d="M32.6279 30.8452H29.6787C29.592 30.8468 29.5094 30.8787 29.4487 30.9342C29.388 30.9896 29.354 31.0642 29.354 31.1418V33.6391C29.354 33.7162 29.3882 33.7901 29.4491 33.8446C29.51 33.8991 29.5926 33.9297 29.6787 33.9297H32.6279C32.714 33.9297 32.7966 33.8991 32.8575 33.8446C32.9184 33.7901 32.9526 33.7162 32.9526 33.6391V31.1418C32.9526 31.0642 32.9186 30.9896 32.8579 30.9342C32.7972 30.8787 32.7146 30.8468 32.6279 30.8452ZM32.5616 33.3662C32.5599 33.4265 32.5319 33.4839 32.4836 33.526C32.4353 33.5681 32.3706 33.5916 32.3031 33.5916H30.0035C29.936 33.5916 29.8713 33.5681 29.823 33.526C29.7747 33.4839 29.7467 33.4265 29.745 33.3662V31.4147C29.7467 31.3538 29.7745 31.2958 29.8226 31.2528C29.8707 31.2097 29.9354 31.1848 30.0035 31.1833H32.3031C32.3712 31.1848 32.4359 31.2097 32.484 31.2528C32.5322 31.2958 32.5599 31.3538 32.5616 31.4147V33.3662Z" fill="white"/>
<path style="mix-blend-mode:soft-light" d="M32.6279 30.8452H29.6787C29.592 30.8468 29.5094 30.8787 29.4487 30.9342C29.388 30.9896 29.354 31.0642 29.354 31.1418V33.6391C29.354 33.7162 29.3882 33.7901 29.4491 33.8446C29.51 33.8991 29.5926 33.9297 29.6787 33.9297H32.6279C32.714 33.9297 32.7966 33.8991 32.8575 33.8446C32.9184 33.7901 32.9526 33.7162 32.9526 33.6391V31.1418C32.9526 31.0642 32.9186 30.9896 32.8579 30.9342C32.7972 30.8787 32.7146 30.8468 32.6279 30.8452ZM32.5616 33.3662C32.5599 33.4265 32.5319 33.4839 32.4836 33.526C32.4353 33.5681 32.3706 33.5916 32.3031 33.5916H30.0035C29.936 33.5916 29.8713 33.5681 29.823 33.526C29.7747 33.4839 29.7467 33.4265 29.745 33.3662V31.4147C29.7467 31.3538 29.7745 31.2958 29.8226 31.2528C29.8707 31.2097 29.9354 31.1848 30.0035 31.1833H32.3031C32.3712 31.1848 32.4359 31.2097 32.484 31.2528C32.5322 31.2958 32.5599 31.3538 32.5616 31.4147V33.3662Z" fill="url(#paint0_linear_1_162)"/>
<g style="mix-blend-mode:multiply">
<g style="mix-blend-mode:multiply">
<path d="M32.7467 32.391H31.6169C31.5915 32.3848 31.5655 32.3867 31.5407 32.3966C31.5159 32.4065 31.4929 32.4241 31.4733 32.4482C31.4537 32.4723 31.4379 32.5024 31.4271 32.5363C31.4163 32.5702 31.4106 32.6071 31.4106 32.6445C31.4106 32.6819 31.4163 32.7188 31.4271 32.7527C31.4379 32.7866 31.4537 32.8166 31.4733 32.8408C31.4929 32.8649 31.5159 32.8825 31.5407 32.8924C31.5655 32.9023 31.5915 32.9042 31.6169 32.898H32.7467C32.772 32.9042 32.798 32.9023 32.8228 32.8924C32.8476 32.8825 32.8706 32.8649 32.8902 32.8408C32.9099 32.8166 32.9257 32.7866 32.9365 32.7527C32.9473 32.7188 32.9529 32.6819 32.9529 32.6445C32.9529 32.6071 32.9473 32.5702 32.9365 32.5363C32.9257 32.5024 32.9099 32.4723 32.8902 32.4482C32.8706 32.4241 32.8476 32.4065 32.8228 32.3966C32.798 32.3867 32.772 32.3848 32.7467 32.391Z" fill="#B6AF99"/>
</g>
</g>
<path d="M32.7666 32.3875H31.597C31.5475 32.3875 31.5002 32.4145 31.4652 32.4627C31.4303 32.5109 31.4106 32.5763 31.4106 32.6445C31.4106 32.7127 31.4303 32.7781 31.4652 32.8263C31.5002 32.8745 31.5475 32.9015 31.597 32.9015H32.7666C32.816 32.9015 32.8634 32.8745 32.8983 32.8263C32.9333 32.7781 32.9529 32.7127 32.9529 32.6445C32.9529 32.5763 32.9333 32.5109 32.8983 32.4627C32.8634 32.4145 32.816 32.3875 32.7666 32.3875Z" fill="white"/>
<path style="mix-blend-mode:soft-light" d="M32.8418 32.3875H31.5217C31.4604 32.3875 31.4106 32.4785 31.4106 32.5907V32.6983C31.4106 32.8105 31.4604 32.9015 31.5217 32.9015H32.8418C32.9032 32.9015 32.9529 32.8105 32.9529 32.6983V32.5907C32.9529 32.4785 32.9032 32.3875 32.8418 32.3875Z" fill="url(#paint1_linear_1_162)"/>
</g>
<defs>
<linearGradient id="paint0_linear_1_162" x1="29.354" y1="32.3875" x2="32.9526" y2="32.3875" gradientUnits="userSpaceOnUse">
<stop stop-color="#878787"/>
<stop offset="0.23" stop-color="#8A8A8A"/>
<stop offset="0.4" stop-color="#949494"/>
<stop offset="0.57" stop-color="#A5A5A5"/>
<stop offset="0.72" stop-color="#BCBCBC"/>
<stop offset="0.86" stop-color="#DADADA"/>
<stop offset="1" stop-color="white"/>
</linearGradient>
<linearGradient id="paint1_linear_1_162" x1="414.247" y1="214.416" x2="417.886" y2="214.416" gradientUnits="userSpaceOnUse">
<stop stop-color="#878787"/>
<stop offset="0.23" stop-color="#8A8A8A"/>
<stop offset="0.4" stop-color="#949494"/>
<stop offset="0.57" stop-color="#A5A5A5"/>
<stop offset="0.72" stop-color="#BCBCBC"/>
<stop offset="0.86" stop-color="#DADADA"/>
<stop offset="1" stop-color="white"/>
</linearGradient>
<clipPath id="clip0_1_162">
<rect width="53" height="105" fill="white"/>
</clipPath>
</defs>
</svg>
