<svg width="66" height="105" viewBox="0 0 66 105" fill="none" xmlns="http://www.w3.org/2000/svg">
<g opacity="0.3">
<path opacity="0.3" d="M32.6123 105C50.6236 105 65.2247 102.08 65.2247 98.4774C65.2247 94.8752 50.6236 91.955 32.6123 91.955C14.601 91.955 0 94.8752 0 98.4774C0 102.08 14.601 105 32.6123 105Z" fill="#371A45"/>
</g>
<path d="M47.913 40.097H16.8596C14.3977 40.097 12.4019 42.0929 12.4019 44.5548V73.0489C12.4019 75.5109 14.3977 77.5067 16.8596 77.5067H47.913C50.375 77.5067 52.3708 75.5109 52.3708 73.0489V44.5548C52.3708 42.0929 50.375 40.097 47.913 40.097Z" fill="white"/>
<g opacity="0.35">
<path opacity="0.35" d="M52.3696 63.1871V73.0487C52.3697 74.231 51.9002 75.3649 51.0644 76.2011C50.2286 77.0373 49.0948 77.5072 47.9125 77.5076H16.8592C15.6769 77.5072 14.5432 77.0373 13.7073 76.2011C12.8715 75.3649 12.402 74.231 12.4021 73.0487V63.1871C12.402 63.7726 12.5171 64.3523 12.7411 64.8932C12.965 65.4341 13.2932 65.9257 13.7071 66.3397C14.121 66.7538 14.6124 67.0822 15.1532 67.3064C15.6941 67.5305 16.2737 67.6459 16.8592 67.646H47.9125C48.498 67.6459 49.0777 67.5305 49.6185 67.3064C50.1593 67.0822 50.6507 66.7538 51.0646 66.3397C51.4785 65.9257 51.8068 65.4341 52.0307 64.8932C52.2546 64.3523 52.3698 63.7726 52.3696 63.1871Z" fill="#371A45"/>
</g>
<path d="M47.9126 78.1486H16.8592C14.0472 78.1486 11.7595 75.8613 11.7595 73.0489V44.5549C11.7595 41.7429 14.0468 39.4552 16.8592 39.4552H47.9126C50.7246 39.4552 53.0122 41.7425 53.0122 44.5549V73.0489C53.0122 75.8609 50.7246 78.1486 47.9126 78.1486ZM16.8592 40.7404C15.8475 40.7416 14.8777 41.144 14.1623 41.8594C13.4469 42.5748 13.0445 43.5446 13.0433 44.5563V73.0489C13.0444 74.0606 13.4468 75.0306 14.1622 75.7459C14.8776 76.4613 15.8475 76.8637 16.8592 76.8648H47.9126C48.9243 76.8638 49.8943 76.4614 50.6097 75.746C51.3251 75.0306 51.7274 74.0607 51.7285 73.0489V44.5549C51.727 43.5434 51.3244 42.5739 50.6091 41.8588C49.8937 41.1437 48.924 40.7415 47.9126 40.7404H16.8592Z" fill="#371A45"/>
<path d="M8.40713 65.4185C8.40713 65.4185 7.54045 67.4886 8.9368 69.6072C8.9368 69.6072 7.10693 69.3663 6.81816 70.57C6.52938 71.7737 7.68484 73.7959 11.1033 73.7959C14.5218 73.7959 17.7956 71.3406 17.4106 67.4886C17.0257 63.6366 13.1255 61.663 8.40713 65.4185Z" fill="white"/>
<path d="M11.1032 74.3902C8.54462 74.3902 7.32982 73.3341 6.8334 72.7044C6.28695 72.011 6.065 71.1611 6.24013 70.4313C6.45456 69.5325 7.21475 69.1536 7.95777 69.0339C7.11217 67.0253 7.82339 65.273 7.85877 65.189C7.8975 65.0966 7.95897 65.0155 8.03747 64.9532C10.521 62.9771 13.1025 62.3317 15.1196 63.183C16.7508 63.8717 17.8001 65.4196 18.0024 67.4296C18.1811 69.208 17.6625 70.8248 16.5052 72.1029C15.2072 73.5353 13.1893 74.3902 11.1032 74.3902ZM8.57892 70.1844C8.18579 70.1844 7.50674 70.2523 7.39594 70.7087C7.32446 71.0014 7.38629 71.4856 7.76692 71.9685C8.13003 72.4288 9.04604 73.2015 11.1032 73.2015C12.8591 73.2015 14.5489 72.4928 15.6232 71.3052C16.5492 70.2823 16.9623 68.9821 16.819 67.5479C16.6625 65.9839 15.8744 64.7923 14.6568 64.278C13.0842 63.6147 10.9974 64.1626 8.9088 65.7791C8.73176 66.365 8.68693 66.9828 8.77753 67.5881C8.86813 68.1934 9.09192 68.7711 9.43274 69.2794C9.49527 69.3744 9.52923 69.4853 9.53062 69.599C9.532 69.7127 9.50074 69.8244 9.44054 69.9209C9.38034 70.0174 9.29373 70.0945 9.19099 70.1433C9.08826 70.192 8.9737 70.2102 8.86091 70.1958C8.85591 70.1958 8.7419 70.1844 8.57892 70.1844Z" fill="#371A45"/>
<path d="M9.2551 69.0177C9.29757 69.1002 9.34532 69.18 9.39806 69.2564C9.45167 69.3386 9.50849 69.4201 9.56782 69.4998C9.68649 69.6609 9.81504 69.8145 9.95274 69.9597C10.2315 70.2478 10.5503 70.5084 10.9588 70.6485C10.7388 70.6756 10.5161 70.6715 10.2973 70.6363C10.0729 70.5978 9.85229 70.5401 9.63787 70.4637C9.42174 70.3861 9.21059 70.2953 9.00564 70.1917C8.90199 70.1399 8.80049 70.0845 8.69935 70.0269C8.59259 69.9672 8.48915 69.9017 8.38949 69.8307L8.3223 69.7818C8.18846 69.6845 8.09873 69.5381 8.07286 69.3747C8.04699 69.2113 8.08709 69.0443 8.18434 68.9104C8.2816 68.7766 8.42803 68.6869 8.59144 68.661C8.75485 68.6351 8.92183 68.6752 9.05567 68.7725C9.1419 68.8359 9.21053 68.9203 9.2551 69.0177Z" fill="#371A45"/>
<g opacity="0.35">
<path opacity="0.35" d="M11.1035 73.7958C14.522 73.7958 17.7961 71.3412 17.4109 67.4888C17.235 65.7294 16.3265 64.362 14.9409 63.7555C14.806 63.6961 14.6678 63.6445 14.527 63.6011C12.9152 63.095 10.7637 63.5425 8.4077 65.4177C8.4077 65.4177 7.81442 66.8319 8.39734 68.5178C9.89053 68.749 11.1689 68.5932 12.2165 68.2712C12.8415 68.4238 13.7533 68.7147 13.9977 69.734C14.3083 71.0256 11.5646 73.7457 8.51349 71.0206C7.92522 70.4945 7.42594 70.2433 7.00349 70.1661C6.91367 70.2863 6.84977 70.4238 6.81586 70.5699C6.52923 71.7733 7.68541 73.7958 11.1035 73.7958Z" fill="#371A45"/>
</g>
<path d="M54.5986 96.7242C54.5826 96.7817 54.5629 96.8378 54.544 96.8925L54.5297 96.9311C54.5118 96.979 54.4939 97.0272 54.4736 97.0741C54.4685 97.0869 54.4621 97.0998 54.4575 97.1127C54.4382 97.1559 54.4189 97.1991 54.3981 97.241C54.3885 97.2617 54.3771 97.281 54.3674 97.3003C54.3417 97.35 54.3163 97.3982 54.2888 97.4465C54.2613 97.4947 54.2327 97.5408 54.2037 97.5859C54.1783 97.6216 54.154 97.6598 54.1301 97.6931L54.0804 97.7624C54.0161 97.8489 53.9485 97.9322 53.8763 98.0126C53.8542 98.0401 53.8299 98.0658 53.8049 98.0912C53.6262 98.2838 53.4295 98.459 53.2177 98.6144C53.1791 98.6448 53.139 98.6738 53.0987 98.7013C53.089 98.7091 53.0779 98.7156 53.0668 98.7234C52.9929 98.7749 52.9175 98.8232 52.842 98.8696C52.7892 98.9018 52.7348 98.9339 52.6798 98.9658C52.5726 99.0283 52.4618 99.0862 52.3496 99.1409C52.2931 99.168 52.237 99.1952 52.1809 99.2209C52.1344 99.2435 52.0879 99.2642 52.0397 99.2835C52.0236 99.2917 52.0061 99.2981 51.9868 99.306C51.8824 99.351 51.7749 99.3911 51.6691 99.4296C51.4939 99.494 51.3178 99.5501 51.1444 99.5998C51.093 99.6141 51.0415 99.6269 50.9904 99.6416C50.9393 99.6562 50.8796 99.6688 50.8249 99.6816C50.7398 99.7023 50.6566 99.7202 50.5747 99.7377C50.4929 99.7552 50.4207 99.7667 50.3453 99.7795C50.3006 99.7874 50.257 99.7938 50.2138 99.8003C50.1559 99.8099 50.0983 99.8178 50.0422 99.8242C43.2753 100.662 39.4465 98.2052 38.0859 95.8239C37.2417 94.3414 37.1038 92.5151 37.1567 91.3886C37.3636 86.9855 36.3786 81.4959 34.9087 80.2411C34.9087 80.2411 33.4948 80.4834 32.2082 80.4834H32.1835C30.8969 80.4834 29.4827 80.2411 29.4827 80.2411C28.0145 81.4959 27.0277 86.9855 27.2332 91.3886C27.2876 92.5151 27.1514 94.3414 26.304 95.8239C24.9434 98.2052 21.1146 100.662 14.3495 99.8242C14.2934 99.8178 14.2355 99.8099 14.1779 99.8003C14.1343 99.7938 14.0911 99.7874 14.0461 99.7795C13.9707 99.7667 13.8938 99.7538 13.8152 99.7377C13.7366 99.7216 13.6483 99.702 13.565 99.6816C13.5057 99.6688 13.4446 99.6527 13.3838 99.6366C13.337 99.6255 13.2923 99.6126 13.2459 99.6008C12.9706 99.5233 12.6999 99.4301 12.4353 99.3217C12.4113 99.3103 12.387 99.3006 12.3617 99.2896C12.2941 99.2606 12.2251 99.2302 12.1576 99.1981C12.1176 99.1805 12.079 99.1623 12.0389 99.142C11.9846 99.1162 11.9317 99.0891 11.877 99.0601C11.6812 98.9559 11.4915 98.8406 11.3088 98.7149C11.2544 98.6766 11.2016 98.638 11.1483 98.598C10.9455 98.447 10.7569 98.2778 10.585 98.0923C10.5611 98.0669 10.5372 98.0412 10.5136 98.0137C10.48 97.9754 10.446 97.9368 10.4139 97.8968C10.3817 97.8568 10.3424 97.8085 10.3099 97.762C10.3034 97.7524 10.2952 97.7428 10.2873 97.7313C10.2216 97.6384 10.159 97.5419 10.1011 97.4425C10.0654 97.38 10.0322 97.3174 9.99999 97.2531C9.97426 97.202 9.95031 97.1505 9.92851 97.0976C9.92851 97.0944 9.92851 97.0912 9.92529 97.0894C9.89956 97.0301 9.87573 96.9691 9.85381 96.9064C9.85218 96.9004 9.85003 96.8946 9.84738 96.8889C9.82808 96.8328 9.81164 96.7767 9.7927 96.7188C9.58577 96.0222 9.58756 95.1881 9.89992 94.1981C10.7008 91.6545 13.9742 89.9969 14.9546 89.1449C14.4782 85.2361 14.4975 81.7539 14.8116 78.6121C14.9762 76.9632 15.228 75.3241 15.5657 73.7018C15.9142 72.0089 16.333 70.4267 16.7741 68.9328C18.2551 67.4274 20.7311 66.1758 23.8122 65.3642C26.2819 64.7094 29.1396 64.3356 32.1853 64.3356C35.1667 64.3356 37.9683 64.693 40.4025 65.3206C43.5834 66.1408 46.1327 67.421 47.633 68.9696C48.0665 70.4395 48.4772 71.9978 48.8221 73.66C49.1705 75.3287 49.4288 77.015 49.5958 78.7114C49.8989 81.8261 49.9118 85.2761 49.4414 89.1449C50.4203 89.9969 53.6944 91.6545 54.4946 94.1981C54.8041 95.1931 54.8066 96.0294 54.5986 96.7242Z" fill="white"/>
<path d="M14.594 82.17C14.5462 84.5018 14.6657 86.8339 14.9514 89.1485C13.9711 90.0006 10.6984 91.6582 9.89677 94.2018C9.58405 95.1917 9.58226 96.0245 9.78955 96.7225C9.80742 96.7804 9.82528 96.8365 9.84423 96.8926C9.84688 96.8982 9.84903 96.9041 9.85066 96.9101C9.87318 96.973 9.89712 97.0338 9.92214 97.0931C9.92214 97.0931 9.92214 97.0981 9.92536 97.1013C9.94787 97.1542 9.97182 97.2053 9.99683 97.2568C10.029 97.3211 10.0626 97.3836 10.098 97.4462C10.1559 97.5455 10.2184 97.642 10.2842 97.735C10.292 97.7464 10.3003 97.7557 10.3067 97.7657C10.3403 97.8122 10.3757 97.8568 10.4107 97.9004C10.4457 97.9441 10.4768 97.9787 10.5104 98.0173C10.5329 98.0448 10.5569 98.0706 10.5819 98.0959C10.7538 98.2814 10.9423 98.4507 11.1451 98.6017C11.1966 98.6417 11.2524 98.6803 11.3056 98.7185C11.4883 98.8443 11.6781 98.9595 11.8739 99.0638C11.9282 99.0927 11.9811 99.1199 12.0358 99.1456C12.0758 99.1663 12.1144 99.1842 12.1544 99.2017C12.222 99.2339 12.291 99.2643 12.3585 99.2932C12.3839 99.3043 12.4082 99.3139 12.4321 99.3254C12.6968 99.4338 12.9674 99.527 13.2427 99.6045C13.2892 99.6174 13.3338 99.6302 13.3807 99.6402C13.4414 99.6563 13.5025 99.6724 13.5619 99.6853C13.6469 99.706 13.732 99.7239 13.812 99.7414C13.8921 99.7589 13.9675 99.7703 14.0429 99.7832C14.0879 99.7911 14.1312 99.7975 14.1748 99.8039C14.2323 99.8136 14.2902 99.8214 14.3463 99.8279C21.1115 100.666 24.9403 98.2089 26.3009 95.8276C27.1468 94.3451 27.283 92.5188 27.2301 91.3923C27.1279 89.205 27.3201 86.7497 27.7197 84.6786C21.3713 86.8391 16.7891 84.0567 14.594 82.17Z" fill="white"/>
<g opacity="0.6">
<path opacity="0.6" d="M27.5325 85.8077C27.5893 85.4235 27.6505 85.045 27.7209 84.6812C23.4278 86.1411 19.9439 85.3413 17.4583 84.0875C19.7173 85.5361 23.1526 86.8373 27.5325 85.8077Z" fill="white"/>
<path opacity="0.6" d="M11.8338 98.8107C11.8099 98.7853 11.786 98.7596 11.7624 98.7321C11.7288 98.6935 11.6948 98.6552 11.6627 98.6152C11.6305 98.5752 11.5912 98.5269 11.5587 98.4805C11.5522 98.4705 11.544 98.4612 11.5361 98.4497C11.4704 98.3568 11.4078 98.2603 11.3499 98.1609C11.3142 98.0984 11.281 98.0359 11.2488 97.9715C11.2231 97.9201 11.1991 97.869 11.1773 97.8161C11.1773 97.8128 11.1773 97.8096 11.1741 97.8078C11.1484 97.7485 11.1244 97.6878 11.1026 97.6249C11.101 97.6188 11.0988 97.613 11.0962 97.6073C11.0769 97.5512 11.0604 97.4951 11.0415 97.4372C10.8346 96.7407 10.8364 95.9065 11.1487 94.9165C11.9496 92.3729 15.223 90.7153 16.2034 89.8633C15.9279 87.629 15.8071 85.3784 15.8417 83.1275C15.4088 82.8306 14.9923 82.5105 14.594 82.1686C14.5462 84.5003 14.6657 86.8324 14.9514 89.1471C13.9711 89.9991 10.6984 91.6567 9.89677 94.2003C9.58405 95.1903 9.58226 96.023 9.78955 96.721C9.80742 96.7789 9.82528 96.835 9.84423 96.8911C9.84688 96.8968 9.84903 96.9026 9.85066 96.9086C9.87318 96.9715 9.89712 97.0323 9.92214 97.0916C9.92214 97.0916 9.92214 97.0966 9.92536 97.0998C9.94787 97.1527 9.97182 97.2038 9.99683 97.2553C10.029 97.3196 10.0626 97.3822 10.098 97.4447C10.1559 97.5441 10.2184 97.6406 10.2842 97.7335C10.292 97.7449 10.3003 97.7542 10.3067 97.7642C10.3403 97.8107 10.3757 97.8554 10.4107 97.899C10.4457 97.9426 10.4768 97.9773 10.5104 98.0159C10.5329 98.0434 10.5569 98.0691 10.5819 98.0945C10.7538 98.28 10.9423 98.4492 11.1451 98.6002C11.1966 98.6402 11.2524 98.6788 11.3056 98.7171C11.4883 98.8428 11.6781 98.9581 11.8739 99.0623C11.9282 99.0913 11.9811 99.1184 12.0358 99.1441C12.0758 99.1649 12.1144 99.1827 12.1544 99.2003C12.222 99.2324 12.291 99.2628 12.3585 99.2918L12.3785 99.3003C12.1827 99.1538 12.0004 98.9899 11.8338 98.8107Z" fill="white"/>
</g>
<path d="M54.4911 94.2016C53.6906 91.6581 50.4168 90.0005 49.4379 89.1484C49.7258 86.8174 49.8452 84.4688 49.7953 82.1206C47.6299 84.0016 43.0452 86.8382 36.6729 84.7003C37.0692 86.7671 37.2593 89.2131 37.1568 91.3932C37.1039 92.5197 37.2418 94.346 38.086 95.8285C39.4466 98.2098 43.2754 100.667 50.0423 99.8288C50.0984 99.8224 50.1559 99.8145 50.2138 99.8049C50.2571 99.7984 50.3007 99.792 50.3454 99.7842C50.4208 99.7713 50.4962 99.7584 50.5748 99.7423C50.6534 99.7263 50.7417 99.7066 50.825 99.6862C50.8797 99.6734 50.9358 99.6605 50.9905 99.6462C51.0451 99.6319 51.093 99.6187 51.1445 99.6044C51.3178 99.5547 51.494 99.4972 51.6692 99.4343C51.7764 99.3957 51.8836 99.3556 51.9869 99.3106C52.0062 99.3027 52.0226 99.2963 52.0398 99.2881C52.088 99.2688 52.1345 99.2481 52.1809 99.2255C52.2371 99.1998 52.2932 99.1726 52.3496 99.1455C52.4619 99.0908 52.5727 99.0329 52.6799 98.9704C52.7346 98.9386 52.7892 98.9064 52.8421 98.8742C52.9175 98.8278 52.993 98.7795 53.0669 98.7281C53.078 98.7202 53.0891 98.7138 53.0987 98.7059C53.1391 98.6784 53.1792 98.6494 53.2178 98.619C53.4295 98.4635 53.6262 98.2884 53.805 98.0958C53.8289 98.0704 53.8532 98.0447 53.8764 98.0172C53.9479 97.9354 54.0162 97.8521 54.0805 97.767L54.1302 97.6977C54.1541 97.6619 54.1781 97.6262 54.2038 97.5905C54.2327 97.5454 54.2617 97.499 54.2889 97.4507C54.316 97.4025 54.3418 97.3546 54.3675 97.3049C54.3771 97.2856 54.3886 97.2663 54.3982 97.2456C54.419 97.2038 54.4383 97.1605 54.4576 97.1173C54.4622 97.1044 54.4686 97.0915 54.4736 97.0787C54.4944 97.0304 54.5119 96.9822 54.5298 96.9357L54.544 96.8971C54.5633 96.8424 54.5826 96.7863 54.5987 96.7288C54.8067 96.0294 54.8042 95.1931 54.4911 94.2016Z" fill="white"/>
<g opacity="0.6">
<path opacity="0.6" d="M36.9969 85.8075C36.9401 85.4233 36.8786 85.0449 36.8086 84.681C41.1016 86.141 44.5852 85.3411 47.0708 84.0874C44.8121 85.5359 41.3768 86.8372 36.9969 85.8075Z" fill="white"/>
<path opacity="0.6" d="M52.6953 98.8103C52.7196 98.785 52.7436 98.7592 52.7668 98.7317C52.8004 98.6931 52.8343 98.6549 52.8661 98.6148C52.898 98.5748 52.9376 98.5266 52.9705 98.4801C52.9769 98.4701 52.9852 98.4608 52.993 98.4494C53.0588 98.3564 53.1213 98.2599 53.1792 98.1606C53.215 98.098 53.2482 98.0355 53.2804 97.9712C53.3061 97.9197 53.3301 97.8686 53.3519 97.8157C53.3519 97.8125 53.3518 97.8093 53.3551 97.8075C53.3808 97.7482 53.4047 97.6874 53.4265 97.6245C53.4282 97.6185 53.4303 97.6126 53.433 97.607C53.4523 97.5509 53.4687 97.4948 53.4873 97.4369C53.6946 96.7403 53.6928 95.9061 53.3801 94.9162C52.5792 92.3726 49.3058 90.715 48.3254 89.8629C48.6011 87.6287 48.7222 85.378 48.6878 83.1271C49.1207 82.8303 49.5372 82.5101 49.9355 82.1682C49.9833 84.4999 49.8638 86.8321 49.5781 89.1467C50.5584 89.9987 53.8311 91.6564 54.6328 94.1999C54.9455 95.1899 54.9473 96.0227 54.74 96.7206C54.7225 96.7785 54.7042 96.8347 54.6856 96.8908C54.683 96.8964 54.6808 96.9023 54.6792 96.9083C54.6567 96.9712 54.6328 97.0319 54.6077 97.0913C54.6059 97.0913 54.606 97.0963 54.6045 97.0995C54.582 97.1524 54.5581 97.2035 54.533 97.2549C54.5009 97.3193 54.4673 97.3818 54.4319 97.4444C54.374 97.5437 54.3115 97.6402 54.2457 97.7331C54.2378 97.7446 54.2296 97.7539 54.2232 97.7639C54.1896 97.8103 54.1542 97.855 54.1188 97.8986C54.0834 97.9422 54.0531 97.9769 54.0195 98.0155C53.9969 98.043 53.973 98.0687 53.948 98.0941C53.7763 98.2797 53.5879 98.449 53.3851 98.5998C53.3336 98.6399 53.2779 98.6785 53.2246 98.7167C53.0418 98.8424 52.8521 98.9576 52.6564 99.0619C52.6017 99.0909 52.5491 99.118 52.4945 99.1438C52.4541 99.1645 52.4158 99.1824 52.3754 99.1999C52.3083 99.2321 52.2393 99.2624 52.1717 99.2914L52.1517 99.3C52.3473 99.1534 52.5292 98.9896 52.6953 98.8103Z" fill="white"/>
</g>
<g opacity="0.35">
<path opacity="0.35" d="M54.5987 96.7243C54.5826 96.7818 54.5629 96.8379 54.544 96.8926L54.5297 96.9312C54.5118 96.9791 54.4939 97.0273 54.4736 97.0742C54.4686 97.087 54.4621 97.0999 54.4575 97.1128C54.4382 97.156 54.4189 97.1993 54.3982 97.2411C54.3885 97.2618 54.3771 97.2811 54.3674 97.3004C54.3417 97.3501 54.3163 97.3983 54.2888 97.4466C54.2613 97.4948 54.2327 97.5409 54.2037 97.586C54.1784 97.6217 54.1541 97.6599 54.1301 97.6932L54.0804 97.7625C54.0161 97.849 53.9486 97.9323 53.8764 98.0127C53.8542 98.0402 53.8299 98.0659 53.8049 98.0913C53.6262 98.2839 53.4296 98.4591 53.2177 98.6145C53.1791 98.6449 53.1391 98.6739 53.0987 98.7014C53.089 98.7093 53.078 98.7157 53.0669 98.7235C52.9929 98.775 52.9175 98.8233 52.8421 98.8697C52.7892 98.9019 52.7349 98.934 52.6798 98.9659C52.5726 99.0284 52.4618 99.0863 52.3496 99.141C52.2931 99.1681 52.237 99.1953 52.1809 99.221C52.1344 99.2436 52.088 99.2643 52.0397 99.2836C52.0236 99.2918 52.0061 99.2982 51.9868 99.3061C51.8825 99.3511 51.7749 99.3912 51.6691 99.4298C51.494 99.4941 51.3178 99.5502 51.1444 99.5999C51.093 99.6142 51.0415 99.627 50.9904 99.6417C50.9393 99.6563 50.8796 99.6689 50.8249 99.6817C50.7399 99.7024 50.6566 99.7203 50.5748 99.7378C50.4929 99.7553 50.4207 99.7668 50.3453 99.7796C50.3006 99.7875 50.257 99.7939 50.2138 99.8004C50.1559 99.81 50.0983 99.8179 50.0422 99.8243C43.2753 100.662 39.4465 98.2053 38.0859 95.824C37.2418 94.3415 37.1038 92.5152 37.1567 91.3887C37.3636 86.9856 36.3787 81.496 34.9087 80.2412C34.9087 80.2412 33.4948 80.4835 32.2082 80.4835H32.1835C30.8969 80.4835 29.4827 80.2412 29.4827 80.2412C28.0145 81.496 27.0278 86.9856 27.2333 91.3887C27.2876 92.5152 27.1514 94.3415 26.304 95.824C24.9434 98.2053 21.1147 100.662 14.3495 99.8243C14.2934 99.8179 14.2355 99.81 14.178 99.8004C14.1344 99.7939 14.0911 99.7875 14.0461 99.7796C13.9707 99.7668 13.8938 99.7539 13.8152 99.7378C13.7366 99.7218 13.6483 99.7021 13.565 99.6817C13.5057 99.6689 13.4446 99.6528 13.3838 99.6367C13.337 99.6256 13.2923 99.6127 13.2459 99.6009C12.9706 99.5234 12.7 99.4302 12.4353 99.3218C12.4114 99.3104 12.3871 99.3007 12.3617 99.2897C12.2941 99.2607 12.2252 99.2303 12.1576 99.1982C12.1176 99.1807 12.079 99.1624 12.039 99.1421C11.9846 99.1163 11.9317 99.0892 11.8771 99.0602C11.6812 98.956 11.4915 98.8407 11.3088 98.715C11.2545 98.6767 11.2016 98.6381 11.1483 98.5981C10.9455 98.4471 10.7569 98.2779 10.5851 98.0924C10.5611 98.067 10.5372 98.0413 10.5136 98.0138C10.48 97.9755 10.446 97.9369 10.4139 97.8969C10.3817 97.8569 10.3424 97.8086 10.3099 97.7622C10.3034 97.7525 10.2952 97.7429 10.2874 97.7314C10.2216 97.6385 10.1591 97.542 10.1012 97.4426C10.0654 97.3801 10.0322 97.3176 10 97.2532C9.97428 97.2021 9.95034 97.1506 9.92854 97.0978C9.92854 97.0945 9.92853 97.0913 9.92532 97.0895C9.89958 97.0302 9.87576 96.9692 9.85384 96.9066C9.85221 96.9005 9.85006 96.8947 9.84741 96.889C9.82811 96.8329 9.81167 96.7768 9.79272 96.7189C10.4003 96.9276 11.1183 97.9562 13.5139 98.1128C21.5149 98.6342 23.7965 95.245 25.3723 92.4866C26.353 90.7711 25.249 88.591 24.843 87.3487C24.5355 86.4205 24.352 85.4558 24.2973 84.4796C24.1639 81.9989 22.9606 79.7233 21.0092 78.2823C18.4771 77.1833 16.1615 77.9249 14.812 78.6115C14.9766 76.9626 15.2283 75.3235 15.5661 73.7012C15.9146 72.0082 16.3334 70.4261 16.7744 68.9321C18.2555 67.4268 20.7315 66.1752 23.8126 65.3635C26.2822 64.7088 29.14 64.335 32.1857 64.335C35.1671 64.335 37.9687 64.6924 40.4029 65.3199C43.5837 66.1402 46.133 67.4204 47.6334 68.969C48.0669 70.4389 48.4776 71.9972 48.8224 73.6594C49.1709 75.3281 49.4292 77.0144 49.5962 78.7108C48.341 78.0354 46.0802 77.2073 43.5673 78.1365C43.5673 78.1365 43.5673 78.1365 43.5641 78.1365C42.5568 78.8326 41.7192 79.7468 41.1136 80.811C40.508 81.8752 40.1499 83.0621 40.0659 84.2837C40.0019 85.219 39.8382 86.2379 39.5509 87.3469C39.2235 88.6114 38.0441 90.7679 39.023 92.4849C40.5988 95.2432 42.1424 99.9902 52.5905 97.7114C53.0998 97.6053 53.9904 96.9312 54.5987 96.7243Z" fill="#371A45"/>
</g>
<path d="M47.4309 100.64C42.0767 100.64 38.8373 98.4407 37.5285 96.148C36.4963 94.3403 36.4763 92.2006 36.5156 91.3647C36.7076 87.2718 35.8169 82.3272 34.6808 80.9312C34.1708 81.0056 33.1633 81.1321 32.2065 81.1321H32.1837C31.2273 81.1321 30.218 81.0056 29.7094 80.9312C28.5736 82.3272 27.6826 87.2718 27.8749 91.3647C27.9142 92.2006 27.8938 94.3403 26.862 96.148C25.5522 98.4389 22.3113 100.64 16.9586 100.64C16.0598 100.638 15.162 100.58 14.2703 100.468C12.6977 100.273 10.6542 99.5051 9.64344 97.9329C8.93401 96.8289 8.81357 95.5097 9.28604 94.0115C9.96903 91.8432 12.1566 90.3372 13.6041 89.3407C13.8571 89.1663 14.088 89.0073 14.2731 88.87C13.024 78.0156 15.5347 70.4531 17.5562 64.3627C17.9136 63.2845 18.2524 62.2655 18.5522 61.2809C18.5721 61.195 18.6095 61.1141 18.6619 61.0433C18.7144 60.9724 18.7808 60.9131 18.8572 60.869C18.9335 60.8249 19.0181 60.7969 19.1057 60.7869C19.1933 60.7769 19.282 60.7849 19.3663 60.8106C19.4507 60.8363 19.5288 60.879 19.596 60.9362C19.6631 60.9933 19.7178 61.0636 19.7566 61.1428C19.7954 61.2219 19.8175 61.3082 19.8216 61.3963C19.8257 61.4844 19.8116 61.5723 19.7802 61.6547C19.4757 62.6554 19.1369 63.6808 18.7745 64.7673C16.7731 70.8019 14.2785 78.3126 15.5898 89.0723C15.6027 89.1764 15.5899 89.282 15.5525 89.3799C15.5151 89.4779 15.4543 89.5652 15.3753 89.6342C15.122 89.8547 14.7563 90.1066 14.3328 90.3979C13.0305 91.295 11.0619 92.6495 10.5116 94.3972C10.1592 95.5144 10.231 96.4701 10.726 97.2388C11.4972 98.4389 13.2038 99.0419 14.4304 99.1938C20.7774 99.98 24.4375 97.8064 25.7487 95.5126C26.6379 93.9543 26.6208 91.9905 26.5943 91.4254C26.3863 86.9905 27.3299 81.2443 29.0661 79.759C29.138 79.6979 29.2223 79.6533 29.3133 79.6283C29.4042 79.6033 29.4995 79.5985 29.5925 79.6142C29.6061 79.6167 30.9714 79.849 32.1854 79.849H32.2094C33.427 79.849 34.7887 79.6167 34.8023 79.6142C34.8953 79.5983 34.9907 79.603 35.0816 79.628C35.1726 79.653 35.257 79.6977 35.3287 79.759C37.0653 81.2443 38.0092 86.9905 37.8008 91.4254C37.774 91.9905 37.7569 93.9543 38.6464 95.5126C39.9559 97.8071 43.6171 99.98 49.9644 99.1938C51.1914 99.0419 52.8976 98.4389 53.6688 97.2388C54.1628 96.4708 54.2346 95.5147 53.8833 94.3972C53.3329 92.6502 51.3643 91.295 50.0616 90.3979C49.6381 90.1066 49.2725 89.8547 49.0191 89.6342C48.9403 89.5651 48.8796 89.4778 48.8422 89.3798C48.8048 89.2819 48.792 89.1764 48.8047 89.0723C50.116 78.3126 47.6231 70.8019 45.6199 64.7673C45.2597 63.6808 44.9191 62.6547 44.6146 61.6547C44.5832 61.5723 44.5692 61.4844 44.5732 61.3963C44.5773 61.3082 44.5994 61.2219 44.6383 61.1428C44.6771 61.0636 44.7317 60.9933 44.7989 60.9362C44.866 60.879 44.9442 60.8363 45.0285 60.8106C45.1129 60.7849 45.2016 60.7769 45.2892 60.7869C45.3767 60.7969 45.4613 60.8249 45.5377 60.869C45.614 60.9131 45.6805 60.9724 45.7329 61.0433C45.7854 61.1141 45.8227 61.195 45.8426 61.2809C46.1424 62.2655 46.4805 63.2845 46.8387 64.3627C48.8601 70.4531 51.3704 78.0152 50.1213 88.87C50.3065 89.0073 50.5373 89.1663 50.7904 89.3407C52.2378 90.3372 54.4254 91.8425 55.1088 94.0115C55.5805 95.5097 55.4601 96.8289 54.7514 97.9329C53.741 99.5054 51.6989 100.273 50.1245 100.468C49.231 100.58 48.3314 100.638 47.4309 100.64Z" fill="#371A45"/>
<path d="M53.5914 73.7958C50.1733 73.7958 46.8988 71.3412 47.2844 67.4888C47.4603 65.7294 48.3684 64.362 49.7544 63.7555C49.8892 63.6961 50.0274 63.6445 50.1682 63.6011C51.7801 63.095 53.9316 63.5425 56.2876 65.4177C56.2876 65.4177 56.8808 66.8319 56.2976 68.5178C56.164 68.9018 55.9828 69.2677 55.7583 69.6067C55.7583 69.6067 57.1389 69.4259 57.6882 70.1664C57.7782 70.2865 57.8421 70.4241 57.8758 70.5703C58.166 71.7733 57.0099 73.7958 53.5914 73.7958Z" fill="white"/>
<path d="M53.5917 74.3901C51.5055 74.3901 49.4863 73.5352 48.19 72.1028C47.0327 70.824 46.5152 69.2079 46.6932 67.4295C46.8941 65.4195 47.9441 63.8716 49.576 63.1829C51.5931 62.3319 54.1746 62.9767 56.6581 64.9531C56.7366 65.0154 56.7981 65.0965 56.8368 65.189C56.8726 65.2729 57.5834 67.0252 56.7378 69.0338C57.4808 69.1535 58.2389 69.532 58.4555 70.4312C58.6306 71.161 58.4086 72.0109 57.8622 72.7043C57.3658 73.3347 56.151 74.3901 53.5917 74.3901ZM51.4594 64.0028C50.972 63.9982 50.4885 64.0919 50.0381 64.2783C48.8204 64.7922 48.0324 65.9838 47.8758 67.5478C47.7329 68.9827 48.1457 70.2822 49.0713 71.3051C50.146 72.4927 51.8358 73.2014 53.5917 73.2014C55.6485 73.2014 56.5648 72.4287 56.9279 71.9684C57.3086 71.4855 57.369 71.0013 57.2989 70.7086C57.1435 70.0624 55.8468 70.1946 55.8336 70.1964C55.7209 70.2107 55.6064 70.1924 55.5037 70.1436C55.4011 70.0948 55.3146 70.0177 55.2544 69.9213C55.1942 69.8248 55.1629 69.7132 55.1643 69.5996C55.1656 69.4859 55.1994 69.3751 55.2618 69.2801C55.6026 68.7717 55.8264 68.1941 55.917 67.5888C56.0076 66.9835 55.9627 66.3656 55.7857 65.7797C54.2796 64.6143 52.7725 64.0028 51.4602 64.0028H51.4594Z" fill="#371A45"/>
<g opacity="0.35">
<path opacity="0.35" d="M53.5914 73.7958C50.1733 73.7958 46.8988 71.3412 47.2844 67.4888C47.4603 65.7294 48.3684 64.362 49.7544 63.7555C49.8892 63.6961 50.0274 63.6445 50.1682 63.6011C51.7801 63.095 53.9316 63.5425 56.2876 65.4177C56.2876 65.4177 56.8808 66.8319 56.2976 68.5178C54.8047 68.749 53.526 68.5932 52.4788 68.2712C51.8541 68.4238 50.942 68.7147 50.6976 69.734C50.387 71.0256 53.1307 73.7457 56.1821 71.0206C56.7704 70.4945 57.2697 70.2433 57.6918 70.1661C57.7817 70.2862 57.8457 70.4237 57.8794 70.5699C58.166 71.7733 57.0099 73.7958 53.5914 73.7958Z" fill="#371A45"/>
</g>
<path d="M49.8408 55.7125C50.3005 56.115 50.6367 56.6396 50.8104 57.2254C50.9841 57.8112 50.9882 58.4342 50.8222 59.0223L50.131 61.4665L49.5592 63.4869C49.5592 63.4869 52.1421 66.5605 56.8143 65.8228C56.8143 65.8228 57.2503 65.0823 57.7764 63.9097C58.8536 61.5065 60.3075 57.2825 59.1502 53.8944C57.4283 48.8515 47.6103 40.0053 44.1571 44.3673C42.2486 46.7765 45.8358 52.1971 49.8408 55.7125Z" fill="#FF5555"/>
<path d="M56.3078 69.8323C56.2081 69.9032 56.1047 69.9687 55.998 70.0285C55.8967 70.0869 55.7946 70.1418 55.6917 70.1933C55.4867 70.2968 55.2756 70.3877 55.0595 70.4652C54.845 70.5416 54.6244 70.5994 54.4001 70.6379C54.1812 70.6731 53.9585 70.6771 53.7385 70.65C54.147 70.5099 54.4658 70.2494 54.7446 69.9613C54.8819 69.8155 55.01 69.6614 55.1284 69.4999C55.1878 69.4202 55.2446 69.3387 55.2982 69.2565C55.3508 69.18 55.3985 69.1003 55.4412 69.0178C55.4741 68.9416 55.522 68.8727 55.5819 68.8153C55.6418 68.7578 55.7126 68.7129 55.7901 68.6831C55.8676 68.6533 55.9503 68.6393 56.0332 68.6419C56.1162 68.6445 56.1979 68.6636 56.2734 68.6981C56.3489 68.7327 56.4167 68.7819 56.473 68.843C56.5292 68.9041 56.5727 68.9758 56.6008 69.0539C56.629 69.132 56.6413 69.2149 56.637 69.2978C56.6327 69.3807 56.612 69.4619 56.5759 69.5367C56.5319 69.6337 56.4635 69.7177 56.3775 69.7805L56.3078 69.8323Z" fill="#371A45"/>
<g opacity="0.6">
<path opacity="0.6" d="M58.868 60.9997C58.7379 52.364 53.6682 46.701 53.6682 46.701C54.6711 47.572 55.6043 48.52 56.4595 49.5364C56.7521 49.8845 57.027 50.2326 57.2843 50.5809C58.1489 51.746 58.8068 52.8958 59.1496 53.8943C59.9223 56.1538 59.5338 58.7842 58.868 60.9997Z" fill="white"/>
</g>
<g opacity="0.35">
<path opacity="0.35" d="M57.7775 63.9095C57.2514 65.0821 56.8154 65.8227 56.8154 65.8227C52.1418 66.561 49.5603 63.4867 49.5603 63.4867L50.1321 61.4664L51.0389 58.2598C51.0389 58.2598 53.2082 63.5689 56.4623 59.5514C58.2625 57.3302 57.9373 53.5325 57.2872 50.5808C58.1517 51.7459 58.8097 52.8957 59.1524 53.8942C60.3104 57.2823 58.8547 61.505 57.7775 63.9095Z" fill="#371A45"/>
</g>
<g opacity="0.35">
<path opacity="0.35" d="M56.4614 49.5361C55.8646 50.5847 54.8678 52.1226 53.7316 53.0314C52.7713 53.8006 50.9575 54.7684 49.5458 55.1043C49.4425 55.1276 49.3389 55.1486 49.2395 55.1658C45.4869 51.6569 42.3447 46.6544 44.1584 44.3664C44.2987 44.1884 44.4577 44.0261 44.6327 43.8821C47.4107 41.593 53.0083 45.4221 56.4614 49.5361Z" fill="#371A45"/>
</g>
<path d="M55.3695 66.5799C51.3709 66.5799 49.1701 64.021 49.0675 63.8995C49.0002 63.8191 48.9535 63.7236 48.9315 63.6211C48.9095 63.5187 48.9129 63.4124 48.9414 63.3115L50.2048 58.8473C50.3361 58.376 50.3321 57.8771 50.193 57.408C50.0539 56.9388 49.7855 56.5184 49.4185 56.1947C45.8949 53.1022 41.2148 47.0483 43.6559 43.9682C44.5744 42.8081 45.9493 42.3478 47.6322 42.6373C52.1197 43.4089 58.3698 49.6165 59.7594 53.6869C61.0031 57.327 59.4188 61.8183 58.3655 64.1718C57.8294 65.3634 57.3891 66.1167 57.3705 66.1482C57.3224 66.2298 57.2569 66.2997 57.1786 66.353C57.1003 66.4063 57.0113 66.4417 56.9177 66.4566C56.4057 66.5381 55.888 66.5793 55.3695 66.5799ZM50.2762 63.3087C50.9421 63.952 53.0468 65.6471 56.4109 65.2308C56.5778 64.9241 56.868 64.368 57.1918 63.6464C58.1697 61.4663 59.6454 57.3252 58.5439 54.1015C57.2873 50.4203 51.4446 44.5947 47.4139 43.9021C46.1884 43.6916 45.2881 43.9736 44.6619 44.7649C43.1108 46.722 46.3059 51.7559 50.2648 55.2294C50.8136 55.7135 51.2149 56.3424 51.4228 57.044C51.6306 57.7456 51.6367 58.4916 51.4403 59.1965L50.2762 63.3087Z" fill="#371A45"/>
<path d="M55.3683 66.4199C51.4449 66.4199 49.2905 63.9156 49.1904 63.7962C49.1398 63.7361 49.1046 63.6644 49.0881 63.5875C49.0716 63.5106 49.0742 63.4309 49.0957 63.3552L49.6675 61.3349C49.6906 61.2536 49.7347 61.1798 49.7953 61.121C49.856 61.0622 49.931 61.0203 50.013 60.9997C50.0949 60.9791 50.1808 60.9803 50.2621 61.0034C50.3433 61.0265 50.4171 61.0705 50.476 61.1311C50.4996 61.1551 52.9895 63.6354 57.7565 63.4285C57.8386 63.4245 57.9203 63.4417 57.9938 63.4786C58.0672 63.5155 58.1299 63.5707 58.1757 63.639C58.2217 63.707 58.2496 63.7856 58.2568 63.8674C58.2639 63.9492 58.25 64.0315 58.2164 64.1065C57.6857 65.2898 57.2482 66.0364 57.2297 66.0668C57.1936 66.128 57.1445 66.1804 57.0858 66.2204C57.0271 66.2604 56.9603 66.2869 56.8901 66.298C56.3868 66.3784 55.878 66.4191 55.3683 66.4199ZM50.096 63.357C50.7036 63.9678 52.9102 65.8588 56.5124 65.3802C56.6196 65.1829 56.8008 64.8459 57.0163 64.4024C53.5971 64.3613 51.3852 63.0643 50.3905 62.3166L50.096 63.357Z" fill="#371A45"/>
<path d="M50.2925 58.6883C50.4317 58.2663 50.5949 57.8526 50.7811 57.4492C50.9615 57.052 51.163 56.6648 51.3847 56.2891C51.6072 55.9161 51.8566 55.5599 52.131 55.2233C52.4058 54.894 52.719 54.5988 53.0641 54.3441C52.7949 54.663 52.5649 55.013 52.379 55.3866C52.2004 55.7574 52.0492 56.1407 51.9265 56.5335C51.806 56.9248 51.7066 57.3224 51.6288 57.7244C51.5503 58.1179 51.4937 58.5154 51.4594 58.9152V58.9174C51.4535 58.9958 51.4322 59.0722 51.3968 59.1424C51.3614 59.2126 51.3124 59.2751 51.2528 59.3264C51.1932 59.3777 51.1241 59.4167 51.0494 59.4412C50.9747 59.4658 50.8959 59.4754 50.8175 59.4695C50.7391 59.4636 50.6627 59.4424 50.5925 59.4069C50.5223 59.3715 50.4598 59.3225 50.4085 59.2629C50.3572 59.2033 50.3182 59.1342 50.2936 59.0595C50.2691 58.9848 50.2595 58.9061 50.2654 58.8276C50.2692 58.7803 50.2783 58.7336 50.2925 58.6883Z" fill="#371A45"/>
<path d="M14.8541 55.7125C14.3945 56.1151 14.0584 56.6397 13.8848 57.2255C13.7112 57.8113 13.7071 58.4343 13.873 59.0223L14.5642 61.4665L15.1361 63.4869C15.1361 63.4869 12.5532 66.5605 7.88095 65.8228C7.88095 65.8228 7.44493 65.0823 6.91884 63.9097C5.84165 61.5065 4.38777 57.2825 5.54501 53.8944C7.26695 48.8515 17.085 40.0053 20.5381 44.3673C22.4466 46.7765 18.8598 52.1971 14.8541 55.7125Z" fill="#FF5555"/>
<g opacity="0.6">
<path opacity="0.6" d="M5.82682 60.9997C5.95691 52.364 11.0269 46.701 11.0269 46.701H11.0255C10.0227 47.572 9.08945 48.5201 8.23423 49.5364C7.94141 49.8845 7.66657 50.2326 7.40972 50.5809C6.54518 51.746 5.88686 52.8958 5.54447 53.8943C4.77286 56.1538 5.16135 58.7842 5.82682 60.9997Z" fill="white"/>
</g>
<g opacity="0.35">
<path opacity="0.35" d="M6.91746 63.9095C7.44391 65.0821 7.87993 65.8227 7.87993 65.8227C12.5536 66.561 15.1351 63.4867 15.1351 63.4867L14.5632 61.4664L13.6565 58.2598C13.6565 58.2598 11.4871 63.5689 8.23267 59.5514C6.43247 57.3302 6.75771 53.5325 7.40817 50.5808C6.54363 51.7459 5.8853 52.8957 5.54292 53.8942C4.38674 57.2823 5.84063 61.505 6.91746 63.9095Z" fill="#371A45"/>
</g>
<g opacity="0.35">
<path opacity="0.35" d="M8.23364 49.5361C8.83049 50.5847 9.82727 52.1226 10.9638 53.0314C11.9241 53.8006 13.7379 54.7684 15.1496 55.1043C15.2529 55.1276 15.3562 55.1486 15.4559 55.1658C19.2085 51.6569 22.3508 46.6544 20.537 44.3664C20.3966 44.1884 20.2375 44.0261 20.0624 43.8821C17.2847 41.593 11.6868 45.4221 8.23364 49.5361Z" fill="#371A45"/>
</g>
<path d="M9.32593 66.5802C8.80813 66.5794 8.29119 66.538 7.77984 66.4565C7.68631 66.4416 7.59723 66.4062 7.51895 66.3529C7.44068 66.2996 7.37514 66.2296 7.32702 66.1481C7.30844 66.1166 6.8667 65.3618 6.33203 64.172C5.277 61.8182 3.69303 57.3268 4.93819 53.6868C6.32774 49.6164 12.5779 43.4088 17.0653 42.6372C18.7483 42.3477 20.1232 42.808 21.0417 43.9685C23.4827 47.0481 18.8026 53.1021 15.2791 56.1946C14.9121 56.5182 14.6436 56.9387 14.5046 57.4078C14.3655 57.877 14.3614 58.3758 14.4928 58.8472L15.7562 63.3114C15.7846 63.4123 15.788 63.5186 15.766 63.621C15.744 63.7235 15.6974 63.819 15.63 63.8993C15.5253 64.0216 13.3241 66.5802 9.32593 66.5802ZM8.28448 65.231C11.6472 65.6456 13.7526 63.954 14.4192 63.3089L13.2555 59.1967C13.0591 58.4918 13.0651 57.7458 13.273 57.0442C13.4809 56.3426 13.8822 55.7137 14.431 55.2296C18.3888 51.7561 21.585 46.7236 20.0339 44.7655C19.4073 43.9735 18.5067 43.6915 17.2819 43.9023C13.2512 44.5953 7.40851 50.4205 6.1519 54.1013C5.05041 57.3254 6.52609 61.4658 7.50357 63.6467C7.82701 64.3686 8.11758 64.9247 8.28448 65.2313V65.231Z" fill="#371A45"/>
<path d="M9.32708 66.4199C8.81729 66.4192 8.30835 66.3785 7.80494 66.2981C7.73475 66.287 7.66788 66.2605 7.60912 66.2205C7.55036 66.1805 7.50116 66.128 7.46506 66.0668C7.44683 66.0357 7.00938 65.2899 6.47865 64.1065C6.44471 64.0316 6.43055 63.9492 6.43752 63.8673C6.44449 63.7853 6.47237 63.7065 6.51847 63.6384C6.56457 63.5703 6.62737 63.5151 6.70086 63.4782C6.77435 63.4413 6.85609 63.4238 6.93826 63.4275C11.7066 63.6344 14.1934 61.1541 14.2198 61.1291C14.2789 61.0688 14.3527 61.0252 14.4339 61.0024C14.5151 60.9796 14.6008 60.9786 14.6825 60.9993C14.7643 61.02 14.8392 61.0618 14.8997 61.1205C14.9602 61.1792 15.0043 61.2528 15.0275 61.3338L15.5994 63.3542C15.6209 63.4298 15.6235 63.5096 15.607 63.5864C15.5906 63.6633 15.5556 63.735 15.505 63.7952C15.4046 63.9157 13.2502 66.4199 9.32708 66.4199ZM8.18342 65.3803C11.7849 65.8581 13.9915 63.9682 14.5997 63.3571L14.3052 62.3167C13.3106 63.0644 11.0983 64.361 7.67949 64.4024C7.89429 64.846 8.07441 65.183 8.18306 65.3803H8.18342Z" fill="#371A45"/>
<path d="M13.2356 58.9152C13.2013 58.5154 13.1446 58.1178 13.0658 57.7244C12.9879 57.3224 12.8887 56.9249 12.7685 56.5335C12.6458 56.1406 12.4945 55.7573 12.3156 55.3866C12.1299 55.013 11.9 54.663 11.6309 54.3441C11.9759 54.5988 12.2892 54.894 12.564 55.2233C12.8384 55.5599 13.0878 55.9161 13.3103 56.2891C13.532 56.6648 13.7335 57.052 13.9139 57.4492C14.1 57.8526 14.263 58.2663 14.4021 58.6883C14.4277 58.7634 14.438 58.8429 14.4326 58.9221C14.4272 59.0013 14.4061 59.0786 14.3705 59.1495C14.3349 59.2205 14.2855 59.2836 14.2253 59.3353C14.1651 59.3871 14.0952 59.4263 14.0196 59.4507C13.9441 59.4751 13.8645 59.4843 13.7854 59.4777C13.7063 59.471 13.6293 59.4487 13.5589 59.4121C13.4885 59.3754 13.4261 59.3251 13.3753 59.2641C13.3245 59.2031 13.2864 59.1326 13.2631 59.0567C13.2488 59.0124 13.2396 58.9666 13.2356 58.9202V58.9152Z" fill="#371A45"/>
<path d="M32.182 76.7C41.5343 76.7 49.1158 73.1826 49.1158 68.8437C49.1158 64.5048 41.5343 60.9874 32.182 60.9874C22.8298 60.9874 15.2483 64.5048 15.2483 68.8437C15.2483 73.1826 22.8298 76.7 32.182 76.7Z" fill="#FF5555"/>
<path d="M32.1833 77.3423C22.3278 77.3423 14.6077 73.6094 14.6077 68.8442C14.6077 64.0791 22.3274 60.3457 32.1833 60.3457C42.0392 60.3457 49.7589 64.0787 49.7589 68.8442C49.7589 73.6097 42.0374 77.3423 32.1833 77.3423ZM32.1833 61.6295C23.3524 61.6295 15.8914 64.9332 15.8914 68.8442C15.8914 72.7552 23.3524 76.0586 32.1833 76.0586C41.0142 76.0586 48.4755 72.7548 48.4755 68.8442C48.4755 64.9336 41.0131 61.6295 32.1833 61.6295Z" fill="#371A45"/>
<path d="M49.1159 68.8444C49.1159 73.1825 41.5352 76.6999 32.1818 76.6999C22.8284 76.6999 15.2495 73.1825 15.2495 68.8444C15.2496 68.4842 15.3014 68.1259 15.4035 67.7804C16.5229 63.9431 23.6076 60.9871 32.1818 60.9871C40.7561 60.9871 47.8425 63.9431 48.9619 67.7804C49.064 68.1259 49.1159 68.4842 49.1159 68.8444Z" fill="#FF5555"/>
<g opacity="0.35">
<path opacity="0.35" d="M49.1155 68.8445C49.1155 73.1826 41.5347 76.7001 32.1813 76.7001C22.8279 76.7001 15.249 73.1826 15.249 68.8445C15.2487 68.5924 15.2744 68.3409 15.3259 68.094C16.1368 72.0822 23.3723 75.2022 32.1813 75.2022C40.9904 75.2022 48.2284 72.0822 49.0386 68.094C49.09 68.3409 49.1158 68.5924 49.1155 68.8445Z" fill="#371A45"/>
</g>
<g opacity="0.6">
<path opacity="0.6" d="M48.9619 67.7804C47.8426 71.616 40.7579 74.5734 32.1818 74.5734C23.6058 74.5734 16.5229 71.616 15.4036 67.7804C16.5229 63.9431 23.6076 60.9871 32.1818 60.9871C40.7561 60.9871 47.8426 63.9431 48.9619 67.7804Z" fill="white"/>
</g>
<path d="M32.1833 77.3423C22.3278 77.3423 14.6077 73.6094 14.6077 68.8442C14.6077 64.0791 22.3274 60.3457 32.1833 60.3457C42.0392 60.3457 49.7589 64.0787 49.7589 68.8442C49.7589 73.6097 42.0374 77.3423 32.1833 77.3423ZM32.1833 61.6295C23.3524 61.6295 15.8914 64.9332 15.8914 68.8442C15.8914 72.7552 23.3524 76.0586 32.1833 76.0586C41.0142 76.0586 48.4755 72.7548 48.4755 68.8442C48.4755 64.9336 41.0131 61.6295 32.1833 61.6295Z" fill="#371A45"/>
<path d="M32.4335 73.3545C32.3499 73.3545 32.2666 73.3545 32.1833 73.3528C26.337 73.3209 20.4729 72.1115 17.1309 68.1141V68.1119C16.1917 66.9883 15.4511 65.6459 14.9661 64.0451C14.7368 63.2817 14.5708 62.5006 14.4697 61.7099C14.2653 60.1373 14.2631 58.3679 14.5055 56.3761C14.5173 56.2707 14.5312 56.1656 14.5469 56.0602C14.5769 55.806 14.6127 55.5558 14.6541 55.3096C15.4604 50.0609 17.4365 46.155 19.9404 43.3608C23.6341 39.2444 28.4753 37.5464 32.4353 37.5464C36.4585 37.5464 41.3912 39.2976 45.1028 43.5596C47.5095 46.3197 49.404 50.1356 50.2021 55.2082C50.2239 55.3454 50.2457 55.4823 50.2636 55.6195C50.3015 55.8675 50.3353 56.1197 50.3651 56.3761C52.022 70.1634 42.1525 73.3545 32.4335 73.3545Z" fill="#FF5555"/>
<path d="M32.4334 73.4349C32.349 73.4349 32.2651 73.4349 32.1811 73.4327C25.0439 73.3941 19.9581 71.6218 17.0693 68.1655L17.0504 68.1408C16.0815 66.9753 15.3545 65.6054 14.8892 64.0665C14.6582 63.2989 14.4909 62.5135 14.3889 61.7184C14.178 60.0976 14.1894 58.2963 14.4225 56.3646C14.4342 56.2574 14.4485 56.1527 14.4643 56.0465C14.4936 55.7964 14.53 55.5412 14.5715 55.2942C15.3181 50.4336 17.1029 46.4008 19.877 43.3057C23.1586 39.6482 27.8519 37.4645 32.4316 37.4645C37.107 37.4645 41.8651 39.7225 45.1595 43.5045C47.8146 46.5491 49.5365 50.4819 50.2778 55.1934C50.2996 55.331 50.3217 55.4686 50.3396 55.6066C50.3754 55.8503 50.4111 56.1069 50.4411 56.3643C51.0616 61.5183 50.1009 65.5693 47.5855 68.4056C44.6281 71.7437 39.5298 73.4349 32.4334 73.4349ZM17.2083 68.0847C20.0697 71.4885 25.1068 73.2337 32.1811 73.2723C32.2654 73.2744 32.348 73.2744 32.4312 73.2744C39.4809 73.2744 44.5394 71.6015 47.4654 68.302C49.949 65.5014 50.8964 61.4922 50.2814 56.3853C50.2513 56.1287 50.2174 55.875 50.1802 55.6312C50.1623 55.4933 50.1405 55.3571 50.1191 55.221C49.3825 50.5391 47.6731 46.6342 45.038 43.6124C41.7739 39.8644 37.0609 37.6267 32.4312 37.6267C27.8966 37.6267 23.2462 39.7904 19.996 43.4144C17.2441 46.4859 15.4714 50.4908 14.7295 55.3217C14.688 55.5673 14.6523 55.8182 14.6222 56.0694C14.6062 56.1766 14.5926 56.2806 14.5808 56.385C14.3492 58.3042 14.3377 60.0923 14.545 61.6995C14.6455 62.486 14.8106 63.263 15.0386 64.0225C15.5007 65.5486 16.2237 66.9074 17.188 68.0611L17.2083 68.0847Z" fill="#440203"/>
<g opacity="0.35">
<path opacity="0.35" d="M32.4335 73.0068C32.3499 73.0068 32.2666 73.0068 32.1833 73.005C26.337 72.9732 20.4729 71.7637 17.1309 67.7663V67.7641C16.1913 66.6401 15.4511 65.2981 14.9662 63.6973C14.7368 62.9339 14.5708 62.1528 14.4697 61.3621C14.291 59.9758 14.2671 58.435 14.4279 56.7253L14.4697 57.0648C14.5708 57.8555 14.7368 58.6366 14.9662 59.4C15.4508 61.0008 16.1913 62.3432 17.1309 63.4668V63.469C20.4729 67.4664 26.337 68.6759 32.1833 68.7077C32.2666 68.7077 32.3499 68.7077 32.4335 68.7077C40.8534 68.7077 49.3823 66.3149 50.4366 56.7174C51.6885 69.9228 41.9881 73.0068 32.4335 73.0068Z" fill="#371A45"/>
</g>
<g opacity="0.35">
<path opacity="0.35" d="M50.1989 55.208C50.0916 55.232 49.9844 55.2538 49.8811 55.2716C48.7017 55.4803 47.8876 55.1705 48.225 53.822C48.225 53.822 40.9491 60.7148 32.14 61.0979L32.0328 61.0922C24.5464 60.7226 18.1837 55.6708 16.4936 54.2141C16.2077 53.9661 16.0547 53.821 16.0547 53.821C16.1341 54.1369 16.1498 54.3949 16.1141 54.6033C16.0426 54.9986 15.7824 55.213 15.4014 55.2923C15.1848 55.3381 14.9325 55.3402 14.6509 55.3084C15.4572 50.0597 17.4332 46.1538 19.9371 43.3596C23.6308 39.2432 28.4721 37.5452 32.432 37.5452C36.4552 37.5452 41.388 39.2964 45.0995 43.5583C47.5062 46.3196 49.4008 50.1344 50.1989 55.208Z" fill="#371A45"/>
</g>
<path d="M32.4337 73.9963C32.3447 73.9963 32.255 73.9964 32.1674 73.9942C24.868 73.9545 19.6393 72.1147 16.6386 68.5261C16.6297 68.5153 16.6214 68.5049 16.6136 68.4938C14.1708 65.5521 13.2465 61.4495 13.8666 56.2995C14.629 49.9582 17.1336 44.7738 21.1092 41.3074C24.3179 38.5094 28.4455 36.9052 32.4337 36.9052C36.4219 36.9052 40.5494 38.5094 43.7581 41.3074C47.7334 44.7742 50.238 49.9582 51.0007 56.2995C51.6415 61.62 50.6344 65.8194 48.0079 68.7811C44.9375 72.2418 39.6974 73.9963 32.4337 73.9963ZM17.6475 67.7304C20.3995 70.9977 25.2901 72.6733 32.1867 72.7108C32.2775 72.713 32.3547 72.7133 32.4337 72.7126C39.3157 72.7126 44.2327 71.1042 47.0476 67.9291C49.4196 65.254 50.321 61.3927 49.7263 56.4524C49.0022 50.4317 46.6466 45.5291 42.9143 42.2747C39.9361 39.6778 36.1159 38.1882 32.4337 38.1882C28.7514 38.1882 24.9284 39.6778 21.9513 42.2747C18.2193 45.5291 15.8638 50.4317 15.1397 56.4524C14.5614 61.2548 15.3966 65.039 17.6218 67.7005C17.6304 67.7101 17.6375 67.7204 17.6461 67.7304H17.6475Z" fill="#371A45"/>
<path d="M32.3868 73.9142C32.2378 73.9142 32.0949 73.855 31.9895 73.7496C31.8841 73.6442 31.825 73.5013 31.825 73.3523V37.5463C31.8286 37.3998 31.8894 37.2606 31.9944 37.1582C32.0993 37.0559 32.24 36.9987 32.3866 36.9987C32.5332 36.9987 32.6739 37.0559 32.7788 37.1582C32.8838 37.2606 32.9446 37.3998 32.9482 37.5463V73.3523C32.9483 73.4261 32.9338 73.4991 32.9056 73.5673C32.8774 73.6355 32.8361 73.6974 32.7839 73.7496C32.7318 73.8018 32.6699 73.8431 32.6017 73.8714C32.5336 73.8996 32.4605 73.9142 32.3868 73.9142Z" fill="#371A45"/>
<path d="M38.5012 59.0561C38.3306 59.0561 38.1669 58.9884 38.0463 58.8677C37.9256 58.7471 37.8579 58.5834 37.8579 58.4128V47.9447C37.852 47.8568 37.8642 47.7687 37.8939 47.6857C37.9235 47.6027 37.9698 47.5267 38.03 47.4624C38.0901 47.3981 38.1629 47.3468 38.2437 47.3117C38.3245 47.2766 38.4117 47.2585 38.4998 47.2585C38.5878 47.2585 38.675 47.2766 38.7558 47.3117C38.8366 47.3468 38.9094 47.3981 38.9696 47.4624C39.0297 47.5267 39.0761 47.6027 39.1057 47.6857C39.1353 47.7687 39.1475 47.8568 39.1416 47.9447V58.4128C39.1416 58.583 39.0743 58.7462 38.9542 58.8667C38.8342 58.9873 38.6713 59.0554 38.5012 59.0561Z" fill="#371A45"/>
<path d="M39.8276 58.6331C39.9463 57.9022 39.45 57.2136 38.7192 57.095C37.9884 56.9764 37.2997 57.4726 37.1811 58.2035C37.0625 58.9343 37.5588 59.6229 38.2896 59.7415C39.0204 59.8602 39.709 59.3639 39.8276 58.6331Z" fill="#371A45"/>
<path d="M25.7991 59.0561C25.6285 59.0561 25.4648 58.9883 25.3442 58.8677C25.2235 58.747 25.1558 58.5834 25.1558 58.4128V47.9447C25.1666 47.7819 25.239 47.6292 25.3582 47.5178C25.4774 47.4063 25.6344 47.3442 25.7976 47.3442C25.9608 47.3442 26.1179 47.4063 26.2371 47.5178C26.3563 47.6292 26.4287 47.7819 26.4395 47.9447V58.4128C26.4395 58.5829 26.3721 58.7461 26.2521 58.8667C26.1321 58.9872 25.9692 59.0554 25.7991 59.0561Z" fill="#371A45"/>
<path d="M27.1248 58.6326C27.2434 57.9017 26.7471 57.2131 26.0163 57.0945C25.2855 56.9759 24.5969 57.4722 24.4782 58.203C24.3596 58.9338 24.8559 59.6224 25.5867 59.741C26.3175 59.8597 27.0061 59.3634 27.1248 58.6326Z" fill="#371A45"/>
<path d="M56.8462 31.8208C56.7803 31.8241 56.7144 31.8144 56.6523 31.7923C56.5901 31.7701 56.533 31.7359 56.4841 31.6917C56.4351 31.6475 56.3954 31.594 56.3672 31.5344C56.3389 31.4748 56.3227 31.4102 56.3194 31.3444L55.5928 16.8959C55.5892 16.83 55.5987 16.764 55.6208 16.7018C55.6428 16.6396 55.677 16.5823 55.7213 16.5333C55.7656 16.4844 55.8191 16.4447 55.8788 16.4165C55.9385 16.3883 56.0032 16.3722 56.0692 16.3691C56.7603 16.3342 57.4516 16.4358 58.1035 16.6681C58.7553 16.9004 59.3551 17.2588 59.8684 17.723C60.3817 18.1871 60.7986 18.7478 61.0952 19.373C61.3918 19.9982 61.5623 20.6758 61.597 21.367L61.8447 26.294C61.8794 26.9851 61.7777 27.6763 61.5453 28.3281C61.3129 28.9799 60.9544 29.5795 60.4902 30.0928C60.0261 30.606 59.4653 31.0227 58.8401 31.3192C58.2148 31.6157 57.5373 31.7862 56.8462 31.8208Z" fill="white"/>
<path d="M56.8202 31.9369C56.6619 31.9366 56.5098 31.8757 56.3952 31.7665C56.2805 31.6574 56.2121 31.5085 56.2041 31.3504L55.4778 16.902C55.4737 16.821 55.4856 16.7399 55.5129 16.6635C55.5401 16.5871 55.5821 16.5168 55.6365 16.4567C55.6909 16.3965 55.7566 16.3476 55.8299 16.3128C55.9032 16.2781 55.9826 16.2581 56.0636 16.254C59.03 16.1043 61.5621 18.3962 61.7105 21.3615L61.9581 26.2886C62.0296 27.7147 61.5316 29.1108 60.5738 30.1698C59.616 31.2287 58.2767 31.8639 56.8506 31.9354C56.8413 31.9365 56.8309 31.9369 56.8202 31.9369ZM56.3367 16.4774C56.2497 16.4774 56.1625 16.4796 56.075 16.4842C56.0243 16.4867 55.9745 16.4992 55.9286 16.521C55.8826 16.5427 55.8414 16.5734 55.8073 16.6111C55.7732 16.6488 55.7469 16.6928 55.7299 16.7407C55.7128 16.7886 55.7054 16.8394 55.708 16.8902L56.4342 31.3386C56.4395 31.4411 56.4852 31.5373 56.5613 31.6061C56.6374 31.6749 56.7377 31.7107 56.8402 31.7056C58.2051 31.6371 59.4868 31.0293 60.4035 30.0158C61.3203 29.0024 61.7969 27.6663 61.7287 26.3015L61.481 21.3744C61.3427 18.6221 59.0593 16.4774 56.3367 16.4774Z" fill="#371A45"/>
<g opacity="0.35">
<path opacity="0.35" d="M61.7278 23.9835L61.8446 26.2944C61.9142 27.6902 61.4268 29.0565 60.4894 30.093C59.552 31.1295 58.2415 31.7514 56.8457 31.8219C56.7126 31.8283 56.5823 31.7817 56.4836 31.6921C56.3848 31.6026 56.3256 31.4776 56.3189 31.3444L56.1245 27.5035C56.1684 27.5898 56.2362 27.6616 56.3198 27.7103C56.4034 27.7591 56.4992 27.7827 56.5959 27.7783L56.9387 27.7601C58.0302 27.7055 59.0776 27.3126 59.9358 26.6359C60.7939 25.9592 61.4202 25.0322 61.7278 23.9835Z" fill="#371A45"/>
</g>
<path d="M56.8203 32.4634C56.5268 32.4632 56.2446 32.3504 56.0319 32.1482C55.8191 31.9461 55.692 31.67 55.6767 31.3769L54.9504 16.9281C54.9428 16.7781 54.9649 16.6279 55.0153 16.4864C55.0658 16.3448 55.1436 16.2146 55.2444 16.1031C55.3452 15.9917 55.467 15.9012 55.6028 15.8368C55.7386 15.7724 55.8858 15.7355 56.0358 15.728C59.2881 15.5643 62.0723 18.0793 62.2359 21.3348L62.4836 26.2619C62.5623 27.8272 62.0161 29.3596 60.9652 30.5223C59.9142 31.685 58.4445 32.3827 56.8793 32.462C56.8589 32.4631 56.8396 32.4634 56.8203 32.4634ZM56.2424 17.005L56.9547 31.1707C58.1537 31.0739 59.2679 30.514 60.0611 29.6097C60.8543 28.7053 61.2642 27.5276 61.2038 26.3262L60.9561 21.3992C60.8296 18.8974 58.7338 16.9575 56.241 17.005H56.2424Z" fill="#371A45"/>
<path d="M8.37834 18.7661C8.44421 18.7628 8.51009 18.7725 8.57222 18.7947C8.63435 18.8168 8.69151 18.851 8.74043 18.8952C8.78935 18.9394 8.82907 18.9929 8.85733 19.0525C8.88559 19.1121 8.90184 19.1767 8.90514 19.2425L9.63208 33.6913C9.6354 33.7572 9.62571 33.8231 9.60356 33.8852C9.58142 33.9473 9.54725 34.0045 9.50301 34.0534C9.45877 34.1023 9.40532 34.1421 9.34573 34.1703C9.28613 34.1986 9.22155 34.2148 9.15567 34.2181C8.46453 34.253 7.7733 34.1514 7.12144 33.919C6.46958 33.6867 5.86987 33.3283 5.35656 32.8642C4.84324 32.4001 4.42637 31.8394 4.12975 31.2142C3.83313 30.589 3.66258 29.9115 3.62784 29.2203L3.38016 24.2933C3.31015 22.8976 3.79739 21.5312 4.7347 20.4947C5.67201 19.4582 6.98264 18.8364 8.37834 18.7661Z" fill="white"/>
<path d="M8.887 34.3401C6.0407 34.3401 3.65687 32.0999 3.51249 29.2261L3.26481 24.3001C3.19335 22.874 3.69131 21.4779 4.64915 20.4189C5.60698 19.36 6.94625 18.7248 8.37235 18.6533C8.45336 18.6492 8.53438 18.6611 8.61079 18.6883C8.6872 18.7155 8.75749 18.7575 8.81766 18.8119C8.87783 18.8663 8.9267 18.932 8.96147 19.0053C8.99624 19.0786 9.01623 19.158 9.02031 19.239L9.74653 33.6878C9.7547 33.8514 9.69758 34.0114 9.58773 34.1329C9.47789 34.2543 9.3243 34.3272 9.16076 34.3354C9.06891 34.3379 8.97742 34.3401 8.887 34.3401ZM8.4038 18.8809H8.38378C7.70782 18.9148 7.04517 19.0816 6.43366 19.3716C5.82215 19.6617 5.27376 20.0693 4.81982 20.5713C4.36587 21.0733 4.01526 21.6599 3.788 22.2974C3.56075 22.9349 3.4613 23.6109 3.49533 24.2869L3.74301 29.2139C3.88596 32.052 6.31089 34.2461 9.14897 34.1024C9.25141 34.097 9.34755 34.0513 9.41634 33.9752C9.48514 33.8991 9.52098 33.7988 9.51601 33.6964L8.78943 19.2476C8.7844 19.1486 8.7416 19.0554 8.66986 18.987C8.59811 18.9187 8.50289 18.8804 8.4038 18.8802V18.8809Z" fill="#371A45"/>
<g opacity="0.35">
<path opacity="0.35" d="M9.43034 29.6828L9.63155 33.6913C9.63797 33.8245 9.59129 33.9547 9.50177 34.0535C9.41225 34.1522 9.2872 34.2114 9.15407 34.2181C8.46302 34.2531 7.77184 34.1516 7.12003 33.9194C6.46822 33.6871 5.86855 33.3288 5.3553 32.8647C4.84205 32.4006 4.42526 31.84 4.12877 31.2148C3.83227 30.5896 3.66187 29.9121 3.62731 29.221L3.52295 27.1449C3.98682 28.0453 4.70032 28.7929 5.57806 29.2983C6.4558 29.8038 7.46059 30.0456 8.47216 29.9948L8.99932 29.9683C9.09015 29.9637 9.17807 29.9347 9.25389 29.8845C9.32971 29.8343 9.39065 29.7646 9.43034 29.6828Z" fill="#371A45"/>
</g>
<path d="M8.8867 34.8668C5.76235 34.8668 3.14514 32.4072 2.98682 29.2525L2.73914 24.3254C2.66048 22.7599 3.20691 21.2272 4.25824 20.0644C5.30956 18.9017 6.77969 18.2042 8.34525 18.1253C8.49528 18.1178 8.64532 18.1399 8.78682 18.1903C8.92832 18.2407 9.05849 18.3186 9.16991 18.4193C9.28132 18.5201 9.3718 18.6418 9.43616 18.7776C9.50052 18.9133 9.53751 19.0604 9.54502 19.2104L10.2713 33.6592C10.2789 33.8092 10.2568 33.9593 10.2064 34.1009C10.156 34.2424 10.0782 34.3726 9.97739 34.4841C9.87663 34.5955 9.75489 34.686 9.61913 34.7504C9.48337 34.8148 9.33626 34.8518 9.1862 34.8593C9.08649 34.8643 8.98606 34.8668 8.8867 34.8668ZM8.27091 19.4163C7.0717 19.513 5.95728 20.0729 5.16388 20.9773C4.37048 21.8817 3.96047 23.0595 4.02076 24.2611L4.26844 29.1882C4.39424 31.6899 6.49537 33.6327 8.98248 33.582L8.27091 19.4163Z" fill="#371A45"/>
<path d="M32.6152 49.9462C46.2305 49.9462 57.268 38.9088 57.268 25.2934C57.268 11.678 46.2305 0.640625 32.6152 0.640625C18.9998 0.640625 7.9624 11.678 7.9624 25.2934C7.9624 38.9088 18.9998 49.9462 32.6152 49.9462Z" fill="white"/>
<path d="M32.6229 50.0619C32.4485 50.0619 32.2759 50.0598 32.1011 50.0562C18.4486 49.7728 7.56917 38.4334 7.85258 24.7794C7.98982 18.1648 10.6949 11.9997 15.469 7.42003C20.2431 2.84037 26.5186 0.39507 33.1297 0.53088C46.7822 0.814295 57.6617 12.1534 57.3779 25.8077C57.0981 39.2872 46.0421 50.0619 32.6229 50.0619ZM32.6019 0.756039C26.2402 0.756039 20.2328 3.16989 15.6288 7.58622C10.899 12.1251 8.21927 18.2312 8.0831 24.7841C7.80219 38.3111 18.5787 49.5448 32.1058 49.8257C45.6328 50.1116 56.8665 39.3301 57.1474 25.803L57.2629 25.8055L57.1474 25.803C57.2836 19.2502 54.8601 13.0365 50.3212 8.30673C45.7822 3.57696 39.6761 0.897568 33.1233 0.761401C32.9503 0.757827 32.7755 0.756039 32.6019 0.756039Z" fill="#371A45"/>
<g opacity="0.35">
<path opacity="0.35" d="M57.0972 22.3883C57.2322 23.5221 57.2876 24.6639 57.263 25.8054C56.9771 39.4175 45.7149 50.223 32.1024 49.9417C18.4899 49.6604 7.68479 38.3935 7.96606 24.7811C7.97393 24.3879 7.99108 23.998 8.01788 23.6127C9.43031 35.6455 19.5335 45.0969 31.9884 45.3556C45.2095 45.6297 56.213 35.4457 57.0972 22.3883Z" fill="black"/>
<path opacity="0.35" d="M32.6198 50.0622C32.4464 50.0622 32.2745 50.0622 32.1005 50.0568C18.448 49.7709 7.56922 38.4318 7.85157 24.7793C7.85943 24.3862 7.87694 23.9898 7.90339 23.6053L8.13319 23.5996C9.5517 35.6838 19.8082 44.9875 31.9911 45.2409C32.1645 45.2445 32.3385 45.2463 32.5111 45.2463C45.4077 45.2463 56.1071 35.2985 56.982 22.3808L57.2114 22.3748C57.3466 23.5139 57.4024 24.661 57.3783 25.8079C57.0964 39.2871 46.0389 50.0615 32.6198 50.0622ZM8.08066 24.8594C7.84299 38.351 18.6049 49.5443 32.1051 49.8263C32.277 49.8299 32.4489 49.8317 32.6198 49.8317C45.9149 49.8317 56.8683 39.1577 57.1478 25.8033C57.1625 25.0774 57.1457 24.3519 57.0974 23.6349C55.6375 36.0651 45.1122 45.4768 32.5111 45.4768C32.3364 45.4768 32.162 45.4768 31.9865 45.4714C26.2268 45.3509 20.6892 43.2271 16.3262 39.4652C11.9632 35.7033 9.04747 30.5386 8.08066 24.8594Z" fill="#371A45"/>
</g>
<path d="M57.171 26.4367C57.1435 31.2616 55.5524 35.729 52.853 39.4213C50.8294 42.1879 42.5482 47.0034 32.3556 47.0374C22.905 47.0688 14.3354 41.9816 12.3433 39.1922C9.68604 35.4713 8.14531 30.9835 8.17247 26.1587C8.24395 13.3929 19.2428 8.16275 32.7738 8.23923C46.3048 8.31571 57.2432 13.6709 57.171 26.4367Z" fill="#371A45"/>
<path d="M32.2665 47.6792C22.5096 47.6792 13.9064 42.4855 11.8206 39.5663C8.98686 35.5992 7.50331 30.9616 7.5319 26.1572C7.56764 19.8945 10.1051 15.0779 15.0776 11.847C19.4139 9.0272 25.5325 7.56331 32.779 7.59941C40.0256 7.6355 46.127 9.17838 50.4308 12.0472C55.3653 15.3352 57.8496 20.179 57.8142 26.4416C57.7867 31.2461 56.251 35.8658 53.3725 39.8014C51.3761 42.5312 43.1628 47.6445 32.3577 47.6806L32.2665 47.6792ZM32.512 8.88103C25.2051 8.88103 8.90215 10.629 8.81423 26.1632C8.7885 30.6957 10.1895 35.072 12.8653 38.8186C14.7595 41.4708 23.0815 46.3954 32.2679 46.3954H32.3534C42.572 46.3596 50.5301 41.5098 52.335 39.0423C55.0512 35.3254 56.5033 30.9652 56.529 26.4331L57.1723 26.4366L56.529 26.4331C56.618 10.7138 39.9434 8.92248 32.7701 8.88174L32.512 8.88103Z" fill="#371A45"/>
<path d="M32.6226 50.5884C32.444 50.5884 32.2685 50.5884 32.0898 50.5826C18.1453 50.2931 7.03635 38.7128 7.32584 24.7683C7.46594 18.0136 10.2286 11.7173 15.1042 7.04152C19.9798 2.36572 26.3807 -0.133193 33.1402 0.00547624C39.8996 0.144146 46.1912 2.9086 50.8688 7.78419C55.5463 12.6598 58.0445 19.065 57.9044 25.8201C57.6185 39.5845 46.3273 50.5884 32.6226 50.5884ZM32.6019 1.28388C26.3782 1.28388 20.4966 3.64448 15.9934 7.96717C11.3651 12.4071 8.74292 18.3835 8.60961 24.7955C8.33477 38.0323 18.8801 49.0269 32.1169 49.2999C45.3538 49.573 56.3462 39.0295 56.621 25.7926L57.2643 25.8062L56.621 25.7926C56.7543 19.3806 54.3827 13.3002 49.9427 8.67339C45.5028 4.04655 39.5257 1.42076 33.1126 1.28781C32.9425 1.28519 32.7723 1.28388 32.6019 1.28388Z" fill="#371A45"/>
<g opacity="0.7">
<path opacity="0.7" d="M52.3194 25.2334C52.7622 22.8649 51.7298 20.6848 50.0135 20.3639C48.2972 20.043 46.5468 21.7029 46.104 24.0713C45.6612 26.4398 46.6936 28.6199 48.4099 28.9408C50.1262 29.2617 51.8766 27.6018 52.3194 25.2334Z" fill="white"/>
</g>
<g opacity="0.7">
<path opacity="0.7" d="M46.9293 33.8281C47.2809 32.7796 46.8366 31.6849 45.9368 31.3832C45.037 31.0814 44.0226 31.6868 43.6709 32.7353C43.3193 33.7839 43.7636 34.8786 44.6634 35.1804C45.5631 35.4821 46.5776 34.8767 46.9293 33.8281Z" fill="white"/>
</g>
<path d="M52.4732 14.5002C55.4517 17.3751 57.1987 21.3086 57.1704 26.4373C57.1429 31.2621 55.5507 35.732 52.8535 39.4225C50.8295 42.1891 42.5472 47.0043 32.355 47.0393C28.7561 47.0522 25.2861 46.3217 22.2568 45.257C34.7846 44.9471 44.8728 39.0383 47.3817 35.6052C50.8077 30.9211 52.827 25.2475 52.8606 19.126C52.8755 17.5754 52.7458 16.0268 52.4732 14.5002Z" fill="#220F2D"/>
<path d="M55.1246 15.8712C54.9797 15.8713 54.8391 15.8219 54.7261 15.7311L54.71 15.7179L54.6468 15.6646L54.5989 15.5967C50.6536 9.99775 42.897 6.8827 32.7581 6.82516H32.4754C22.2835 6.82337 14.5281 9.9513 10.6114 15.6442L10.5735 15.6939L9.59063 14.8683L10.0463 15.2558L9.55347 14.9169C13.7532 8.81013 22.0033 5.47885 32.7652 5.54139C43.3234 5.60143 51.4459 8.9052 55.6385 14.8448C55.7094 14.9404 55.7524 15.0538 55.7627 15.1723C55.7729 15.2909 55.7501 15.41 55.6967 15.5164C55.6434 15.6228 55.5615 15.7122 55.4603 15.7749C55.3591 15.8375 55.2425 15.8709 55.1235 15.8712H55.1246Z" fill="#371A45"/>
<g opacity="0.7">
<path opacity="0.7" d="M13.6313 33.7851C13.6313 33.7851 9.74857 21.1691 16.5641 16.1887C23.3796 11.2084 33.1444 11.2842 32.9124 11.9093C32.9124 11.9093 22.0873 14.465 17.8093 22.9886C14.5105 29.5589 13.6313 33.7851 13.6313 33.7851Z" fill="white"/>
</g>
<path d="M51.9442 62.2959C51.4381 64.3116 49.074 65.9489 45.5736 67.08C42.0733 68.2112 37.4315 68.8413 32.3858 68.8413C27.3401 68.8413 22.7003 68.2126 19.2 67.08C15.6997 65.9474 13.3352 64.3116 12.8291 62.2959C12.7229 61.8952 12.681 61.4801 12.7051 61.0661C12.7051 61.0208 12.7101 60.9757 12.7151 60.9321C12.7386 60.7092 12.7865 60.4895 12.858 60.277C12.8698 60.2384 12.8831 60.2016 12.8984 60.1644C12.9138 60.1273 12.9267 60.0908 12.9417 60.0572C13.3977 58.9947 14.3309 58.5562 14.3309 58.5562C14.3309 58.5562 17.3991 60.6591 22.6139 62.1001C29.0091 63.8651 35.7631 63.8651 42.1584 62.1001C47.3731 60.6591 50.4432 58.5562 50.4432 58.5562C50.4432 58.5562 51.3763 58.995 51.8306 60.0572C51.8488 60.1008 51.8663 60.1444 51.8842 60.1898C51.9725 60.4291 52.0305 60.6784 52.0568 60.9321C52.0618 60.9757 52.065 61.0193 52.0668 61.0644C52.0908 61.4788 52.0494 61.8944 51.9442 62.2959Z" fill="#FF5555"/>
<g opacity="0.6">
<path opacity="0.6" d="M12.8581 61.7066C12.8699 61.668 12.8831 61.6312 12.8984 61.594C12.9138 61.5568 12.9267 61.5204 12.9417 61.4868C13.3977 60.4243 14.3309 59.9857 14.3309 59.9857C14.3309 59.9857 17.3991 62.0886 22.6139 63.5297C29.0092 65.2947 35.7631 65.2947 42.1584 63.5297C47.3732 62.0886 50.4432 59.9857 50.4432 59.9857C50.4432 59.9857 51.3763 60.4246 51.8306 61.4889C51.8488 61.5322 51.8663 61.5758 51.8842 61.6212C51.943 61.7809 51.988 61.9453 52.0189 62.1126C52.0687 61.826 52.0848 61.5345 52.0668 61.2441C52.065 61.1991 52.0618 61.1555 52.0568 61.1119C52.0305 60.8582 51.9725 60.6088 51.8842 60.3696C51.8674 60.3242 51.8485 60.2806 51.8306 60.2373C51.3763 59.173 50.4432 58.7341 50.4432 58.7341C50.4432 58.7341 47.3732 60.837 42.1584 62.2781C35.7631 64.0431 29.0092 64.0431 22.6139 62.2781C17.3991 60.837 14.3309 58.7341 14.3309 58.7341C14.3309 58.7341 13.3977 59.173 12.9417 60.2352C12.9267 60.2709 12.9117 60.3067 12.8984 60.3424C12.8852 60.3781 12.8699 60.4164 12.8581 60.455C12.7865 60.6675 12.7386 60.8871 12.7151 61.1101C12.7101 61.1537 12.7069 61.1987 12.7051 61.2441C12.687 61.5366 12.7036 61.8301 12.7548 62.1187C12.7796 61.9791 12.8141 61.8414 12.8581 61.7066Z" fill="white"/>
</g>
<g opacity="0.35">
<path opacity="0.35" d="M51.9442 62.296C51.4381 64.3117 49.074 65.9489 45.5736 67.0801C42.0733 68.2112 37.4315 68.8413 32.3858 68.8413C27.3401 68.8413 22.7003 68.2127 19.2 67.0801C15.6997 65.9475 13.3352 64.3117 12.8291 62.296C12.7229 61.8952 12.681 61.4801 12.7051 61.0662C12.7051 61.0208 12.7101 60.9758 12.7151 60.9322C12.7386 60.7092 12.7865 60.4895 12.858 60.277C12.8698 60.2384 12.8831 60.2016 12.8984 60.1645C12.9138 60.1273 12.9267 60.0908 12.9417 60.0573C13.5646 61.7474 15.5238 63.1523 18.3601 64.193C20.101 64.8321 22.0413 63.9028 22.6028 62.1348C22.6063 62.123 22.6099 62.1115 22.6139 62.099C29.0091 63.864 35.7631 63.864 42.1584 62.099C42.1623 62.1107 42.1659 62.1226 42.1695 62.1348C42.7295 63.9025 44.6712 64.8317 46.4121 64.193C49.1755 63.1791 51.1054 61.8202 51.7798 60.1876L51.8838 60.1898C51.9725 60.4294 52.0306 60.6791 52.0568 60.9332C52.0618 60.9768 52.065 61.0203 52.0668 61.0654C52.0906 61.4794 52.0493 61.8948 51.9442 62.296Z" fill="#371A45"/>
</g>
<path d="M32.3867 69.4834C23.2199 69.4834 13.4248 67.309 12.2064 62.4517C11.5663 59.8988 13.1356 58.4056 14.0581 57.9724C14.1594 57.9247 14.2714 57.9043 14.383 57.9133C14.4946 57.9224 14.6019 57.9605 14.6942 58.0239C14.7632 58.0711 21.7789 62.7794 32.3853 62.7794C42.9917 62.7794 50.0088 58.0711 50.0785 58.0236C50.1709 57.9606 50.278 57.9227 50.3895 57.9138C50.5009 57.9048 50.6127 57.925 50.714 57.9724C51.6346 58.4056 53.2057 59.8988 52.5656 62.4517C51.3487 67.309 41.5536 69.4834 32.3867 69.4834ZM14.32 59.3102C13.8522 59.6526 13.0424 60.5074 13.4516 62.1393C14.3326 65.6511 22.2957 68.1997 32.3867 68.1997C42.4778 68.1997 50.4409 65.6511 51.3219 62.1393C51.7308 60.5089 50.923 59.6547 50.4527 59.3105C48.8677 60.2973 42.1765 64.0639 32.3867 64.0639C22.597 64.0639 15.9047 60.2969 14.32 59.3102Z" fill="#371A45"/>
<path d="M40.6015 60.7336C41.8105 67.5985 47.6443 68.1117 47.6443 68.1117V68.1139C44.2569 72.1113 38.3127 73.3208 32.3871 73.3526C26.4611 73.3208 20.5173 72.1113 17.1299 68.1139V68.1117C17.1299 68.1117 22.9636 67.5985 24.1727 60.7336C24.1727 60.7336 27.8625 61.9684 32.3871 61.9684C36.9117 61.9684 40.6015 60.7336 40.6015 60.7336Z" fill="#FF5555"/>
<path d="M32.3871 73.4326C25.1509 73.394 19.9969 71.6217 17.068 68.1656L17.0491 68.1431V68.0402L17.1206 68.032C17.1784 68.027 22.9075 67.4419 24.0915 60.7197L24.1076 60.6278L24.1959 60.6575C24.2316 60.67 27.9264 61.8883 32.3849 61.8883C36.8434 61.8883 40.5371 60.67 40.5739 60.6575L40.6622 60.6278L40.6783 60.7197C41.8623 67.4419 47.5917 68.027 47.6493 68.032L47.7225 68.0384V68.1413L47.7036 68.1656C44.7762 71.6217 39.6225 73.394 32.3871 73.4326ZM17.2853 68.1721C20.1984 71.5184 25.2781 73.2339 32.3871 73.2721C39.4953 73.2339 44.5742 71.5184 47.4884 68.1721C46.5681 68.0291 41.6672 66.9891 40.5385 60.838C39.9492 61.0224 36.4892 62.0488 32.3867 62.0488C28.2842 62.0488 24.8242 61.0224 24.2349 60.838C23.1055 66.9891 18.2052 68.0302 17.2853 68.1721Z" fill="#440203"/>
<path d="M40.6015 60.7336C41.8105 67.5985 47.6443 68.1117 47.6443 68.1117V68.1139C44.2569 72.1113 38.3127 73.3208 32.3871 73.3526C26.4611 73.3208 20.5173 72.1113 17.1299 68.1139V68.1117C17.1299 68.1117 22.9636 67.5985 24.1727 60.7336C24.1727 60.7336 27.8625 61.9684 32.3871 61.9684C36.9117 61.9684 40.6015 60.7336 40.6015 60.7336Z" fill="#FF5555"/>
<g opacity="0.6">
<path opacity="0.6" d="M44.149 66.7166C41.9574 66.1197 39.9517 64.8867 39.5143 62.405C39.5143 62.405 36.312 63.4771 32.386 63.4771C28.4601 63.4771 25.2596 62.405 25.2596 62.405C24.8221 64.8867 22.8164 66.1197 20.6245 66.7166C22.1077 65.6741 23.6206 63.8646 24.172 60.7345C24.172 60.7345 27.8618 61.9693 32.386 61.9693C36.9103 61.9693 40.6018 60.7345 40.6018 60.7345C41.1515 63.8639 42.6662 65.6741 44.149 66.7166Z" fill="white"/>
</g>
<path d="M32.39 73.9943C24.9762 73.955 19.6796 72.1158 16.6399 68.529C16.5638 68.4391 16.5138 68.33 16.4954 68.2137C16.477 68.0973 16.491 67.9782 16.5356 67.8692C16.5803 67.7602 16.6541 67.6656 16.7488 67.5956C16.8436 67.5257 16.9558 67.4831 17.0731 67.4725C17.2897 67.4521 22.434 66.896 23.542 60.6223C23.5582 60.5316 23.5938 60.4454 23.6463 60.3696C23.6988 60.2938 23.767 60.2301 23.8462 60.183C23.9255 60.1358 24.0139 60.1063 24.1056 60.0963C24.1973 60.0863 24.29 60.0962 24.3775 60.1252C24.4133 60.137 28.0301 61.3271 32.3886 61.3271C36.747 61.3271 40.3635 60.137 40.3996 60.1252C40.4871 60.0962 40.5798 60.0863 40.6715 60.0963C40.7632 60.1063 40.8516 60.1358 40.9309 60.183C41.0101 60.2301 41.0783 60.2938 41.1308 60.3696C41.1833 60.4454 41.2189 60.5316 41.2352 60.6223C42.3399 66.896 47.4857 67.4521 47.704 67.4729C47.8211 67.4838 47.933 67.5266 48.0275 67.5966C48.1219 67.6667 48.1954 67.7613 48.2399 67.8702C48.2843 67.979 48.2981 68.098 48.2797 68.2142C48.2613 68.3303 48.2114 68.4392 48.1354 68.529C45.094 72.1158 39.7959 73.955 32.39 73.9943ZM18.3672 68.4936C21.2546 71.2584 25.9644 72.6751 32.39 72.7109C38.8099 72.6751 43.5189 71.2588 46.4063 68.4936C44.5961 67.9504 41.2298 66.3156 40.1133 61.5498C38.8192 61.9104 35.8603 62.6105 32.3868 62.6105C28.9133 62.6105 25.9537 61.9104 24.6602 61.5498C23.5437 66.3156 20.1774 67.9504 18.3672 68.4936Z" fill="#371A45"/>
<g opacity="0.35">
<path opacity="0.35" d="M47.4629 68.0782C44.0319 71.8809 38.2063 73.007 32.4323 73.007C32.3486 73.007 32.2653 73.007 32.1821 73.0049C26.4827 72.9731 20.7654 71.8233 17.3877 68.0624C17.9556 67.9352 19.3855 67.536 20.9481 66.4617C24.1553 68.11 28.1725 68.6857 32.1821 68.7075C32.2653 68.7097 32.3486 68.7097 32.4323 68.7097C36.503 68.7097 40.5977 68.1518 43.8625 66.4874C45.489 67.5957 46.9622 67.9738 47.4629 68.0782Z" fill="#371A45"/>
</g>
<path d="M25.1604 78.3412C26.7036 79.1024 28.3873 79.4388 30.0788 79.7232H30.0814C30.2348 79.7523 30.3706 79.8404 30.4599 79.9685C30.5491 80.0967 30.5846 80.2547 30.5587 80.4087C30.5328 80.5626 30.4476 80.7003 30.3213 80.7922C30.1951 80.8841 30.0378 80.9228 29.8834 80.9001C29.8496 80.8942 29.8164 80.8856 29.784 80.8744C28.9531 80.5813 28.125 80.269 27.318 79.9001C26.511 79.5313 25.7276 79.0996 25.0167 78.5778C24.9898 78.5569 24.9716 78.5268 24.9654 78.4933C24.9593 78.4599 24.9656 78.4253 24.9832 78.3961C25.0008 78.367 25.0285 78.3454 25.0611 78.3353C25.0936 78.3252 25.1287 78.3275 25.1597 78.3416L25.1604 78.3412Z" fill="#371A45"/>
<path d="M39.5743 78.5774C38.8634 79.0999 38.0793 79.5324 37.273 79.8998C36.4667 80.2672 35.6372 80.581 34.807 80.8741C34.6577 80.9267 34.4937 80.9178 34.351 80.8495C34.2082 80.7812 34.0985 80.6589 34.0459 80.5097C33.9933 80.3604 34.0021 80.1964 34.0705 80.0537C34.1388 79.911 34.261 79.8012 34.4103 79.7486C34.4415 79.7376 34.4737 79.7292 34.5064 79.7236H34.5121C36.2037 79.4377 37.8874 79.1028 39.4306 78.3416C39.4616 78.3275 39.4967 78.3252 39.5292 78.3353C39.5617 78.3454 39.5894 78.367 39.607 78.3961C39.6247 78.4253 39.631 78.4599 39.6248 78.4933C39.6186 78.5268 39.6004 78.5569 39.5736 78.5778L39.5743 78.5774Z" fill="#371A45"/>
<path d="M15.4707 88.8593C15.4796 88.8668 15.5043 88.8972 15.5254 88.9218L15.5936 89.0008C15.6387 89.0555 15.6887 89.108 15.7405 89.1613C15.8367 89.2714 15.9521 89.3686 16.0572 89.4719C16.1741 89.5648 16.2806 89.6688 16.4042 89.7528L16.5829 89.8861L16.7727 90.0047C17.2942 90.3252 17.8674 90.5525 18.4667 90.6766C18.6219 90.7002 18.778 90.7252 18.9353 90.7542C19.094 90.7735 19.2569 90.7742 19.4171 90.786L19.6608 90.7999C19.7423 90.8021 19.8241 90.7942 19.9063 90.7921L20.4031 90.7714C20.7351 90.7438 21.0668 90.6845 21.4074 90.647C21.7391 90.5729 22.077 90.5039 22.4213 90.4401H22.4288C22.4488 90.4361 22.4695 90.4395 22.4872 90.4495C22.5049 90.4595 22.5185 90.4756 22.5254 90.4948C22.5322 90.5139 22.532 90.5349 22.5247 90.5539C22.5174 90.573 22.5036 90.5887 22.4857 90.5984C22.1794 90.7692 21.8649 90.9347 21.5453 91.0952C21.3809 91.1631 21.2133 91.2256 21.045 91.2885C20.8767 91.3514 20.7101 91.4254 20.5339 91.4672L20.0032 91.5973C19.9138 91.6173 19.8245 91.6434 19.7348 91.6588L19.4592 91.6906C19.2752 91.7095 19.0904 91.7381 18.9035 91.747C18.7155 91.747 18.5268 91.7449 18.337 91.7403C17.5818 91.6934 16.8041 91.5065 16.1187 91.1162C16.0336 91.0673 15.9457 91.0215 15.8628 90.969L15.6233 90.796C15.4585 90.6867 15.3167 90.548 15.1705 90.4161C15.028 90.2779 14.8954 90.1298 14.7738 89.9729C14.7108 89.8942 14.6521 89.8121 14.5979 89.727C14.5697 89.6849 14.5429 89.6423 14.5165 89.5941C14.49 89.5458 14.4653 89.5055 14.431 89.4379C14.3702 89.3181 14.3528 89.1809 14.3819 89.0497C14.411 88.9185 14.4847 88.8015 14.5905 88.7186C14.6963 88.6358 14.8275 88.5922 14.9619 88.5954C15.0962 88.5985 15.2253 88.6482 15.327 88.736L15.4707 88.8593Z" fill="#371A45"/>
<path d="M49.9311 89.4381C49.8954 89.5056 49.8725 89.5453 49.8457 89.5942C49.8189 89.6432 49.7924 89.685 49.7642 89.7272C49.7101 89.8123 49.6514 89.8944 49.5884 89.9731C49.4667 90.13 49.3342 90.2781 49.1917 90.4163C49.0455 90.5481 48.9036 90.6868 48.7392 90.7962L48.4994 90.9691C48.4165 91.0217 48.3285 91.0674 48.2435 91.1164C47.558 91.5067 46.7803 91.6936 46.0251 91.7404C45.8354 91.7451 45.6466 91.7483 45.4587 91.7472C45.2717 91.7383 45.087 91.7115 44.9029 91.6907L44.6277 91.6589C44.5369 91.6436 44.449 91.6175 44.359 91.5975L43.8282 91.4674C43.6524 91.4241 43.4869 91.3462 43.3171 91.2887C43.1474 91.2311 42.9816 91.1632 42.8168 91.0953C42.4973 90.9347 42.1838 90.7691 41.8765 90.5985C41.8586 90.5889 41.8447 90.5731 41.8374 90.5541C41.8301 90.5351 41.8299 90.5141 41.8368 90.4949C41.8437 90.4758 41.8572 90.4597 41.8749 90.4497C41.8926 90.4396 41.9133 90.4363 41.9333 90.4402H41.9408C42.2856 90.5038 42.6236 90.5728 42.9547 90.6471C43.2953 90.6829 43.627 90.744 43.9594 90.7715L44.4558 90.7922C44.538 90.7944 44.6199 90.8022 44.7013 90.8001L44.9451 90.7862C45.1066 90.7744 45.2667 90.7737 45.4269 90.7544C45.5841 90.7254 45.7403 90.7004 45.8954 90.6768C46.4947 90.5527 47.068 90.3253 47.5895 90.0049L47.7792 89.8862L47.9579 89.7529C48.0816 89.6689 48.1881 89.5649 48.305 89.472C48.41 89.3687 48.5255 89.2715 48.6216 89.1614C48.6734 89.1082 48.7235 89.0542 48.7685 89.001L48.8371 88.922C48.8578 88.8973 48.8829 88.8669 48.8914 88.8594L49.0344 88.7365C49.1361 88.6487 49.2652 88.5989 49.3995 88.5956C49.5339 88.5924 49.6652 88.6359 49.771 88.7187C49.8769 88.8016 49.9507 88.9186 49.9798 89.0498C50.0089 89.181 49.9916 89.3182 49.9308 89.4381H49.9311Z" fill="#371A45"/>
<path d="M23.1098 85.8276C16.4623 85.8276 14.2925 81.9677 14.1864 81.769C14.1281 81.6569 14.1162 81.5265 14.1532 81.4057C14.1903 81.2849 14.2733 81.1836 14.3844 81.1235C14.4955 81.0633 14.6257 81.0493 14.7471 81.0843C14.8684 81.1194 14.9711 81.2007 15.0331 81.3108C15.0413 81.3255 15.7657 82.6142 17.6496 83.6242C20.1653 84.9727 23.6041 85.2175 27.5937 84.3315C27.6554 84.3178 27.7193 84.3164 27.7815 84.3273C27.8438 84.3383 27.9033 84.3614 27.9566 84.3954C28.0099 84.4293 28.0561 84.4734 28.0924 84.5252C28.1286 84.577 28.1544 84.6354 28.1681 84.6971C28.1818 84.7588 28.1832 84.8227 28.1722 84.8849C28.1613 84.9472 28.1382 85.0067 28.1042 85.06C28.0703 85.1133 28.0261 85.1595 27.9744 85.1958C27.9226 85.232 27.8642 85.2578 27.8025 85.2715C26.0362 85.665 24.4772 85.8276 23.1098 85.8276Z" fill="#371A45"/>
<path d="M41.2849 85.8276C39.9175 85.8276 38.3603 85.6639 36.5926 85.2715C36.5309 85.2578 36.4725 85.232 36.4207 85.1958C36.369 85.1595 36.3248 85.1133 36.2909 85.06C36.2569 85.0067 36.2338 84.9472 36.2229 84.8849C36.2119 84.8227 36.2133 84.7588 36.227 84.6971C36.2407 84.6354 36.2665 84.577 36.3027 84.5252C36.339 84.4734 36.3851 84.4293 36.4385 84.3954C36.4918 84.3614 36.5513 84.3383 36.6136 84.3273C36.6758 84.3164 36.7396 84.3178 36.8014 84.3315C40.7913 85.2179 44.2298 84.973 46.7455 83.6242C48.6308 82.6135 49.3545 81.3237 49.362 81.3108C49.4239 81.2007 49.5267 81.1194 49.648 81.0843C49.7694 81.0493 49.8996 81.0633 50.0107 81.1235C50.1218 81.1836 50.2048 81.2849 50.2419 81.4057C50.2789 81.5265 50.267 81.6569 50.2087 81.769C50.1025 81.9663 47.9314 85.8276 41.2849 85.8276Z" fill="#371A45"/>
</svg>
