<svg width="56" height="105" viewBox="0 0 56 105" fill="none" xmlns="http://www.w3.org/2000/svg">
<g clip-path="url(#clip0_1_503)">
<path d="M40.6451 41.9941H14.9058C11.6813 41.9941 9.06738 44.6081 9.06738 47.8326V71.8564C9.06738 75.0809 11.6813 77.6948 14.9058 77.6948H40.6451C43.8696 77.6948 46.4836 75.0809 46.4836 71.8564V47.8326C46.4836 44.6081 43.8696 41.9941 40.6451 41.9941Z" fill="white"/>
<path d="M40.6451 41.9941C42.1935 41.9941 43.6784 42.6092 44.7732 43.704C45.8681 44.7989 46.4832 46.2838 46.4832 47.8322V71.8564C46.4832 72.623 46.3322 73.3822 46.0388 74.0905C45.7454 74.7988 45.3154 75.4424 44.7732 75.9845C44.2311 76.5266 43.5875 76.9567 42.8792 77.2501C42.1709 77.5435 41.4118 77.6945 40.6451 77.6945H14.9054C14.1388 77.6945 13.3796 77.5435 12.6713 77.2501C11.963 76.9567 11.3194 76.5266 10.7773 75.9845C10.2352 75.4424 9.80514 74.7988 9.51175 74.0905C9.21836 73.3822 9.06735 72.623 9.06735 71.8564V47.8322C9.06735 46.2838 9.68243 44.7989 10.7773 43.704C11.8721 42.6092 13.3571 41.9941 14.9054 41.9941H40.6451ZM40.6451 40.7593H14.9054C11.0056 40.7593 7.83252 43.9323 7.83252 47.8322V71.8564C7.83252 75.7562 11.0056 78.9293 14.9054 78.9293H40.6451C44.545 78.9293 47.718 75.7562 47.718 71.8564V47.8322C47.718 43.9323 44.545 40.7593 40.6451 40.7593Z" fill="#371A45"/>
<path d="M22.1912 97.6296C22.0752 97.6296 21.9616 97.5968 21.8636 97.5348C18.7126 95.5557 14.088 96.4307 14.0419 96.4399C13.8824 96.4688 13.7179 96.4338 13.584 96.3424C13.4501 96.2511 13.3574 96.1108 13.3261 95.9517C13.2948 95.7927 13.3272 95.6277 13.4165 95.4924C13.5057 95.3571 13.6446 95.2623 13.8031 95.2285C14.0113 95.1873 18.9492 94.2463 22.5201 96.4893C22.6337 96.5605 22.7209 96.6668 22.7687 96.792C22.8165 96.9172 22.8223 97.0546 22.7851 97.1833C22.748 97.3121 22.6699 97.4253 22.5628 97.5058C22.4556 97.5863 22.3252 97.6298 22.1912 97.6296Z" fill="#371A45"/>
<path d="M45.9748 100.966C45.9656 101.06 46.1848 104.722 36.4091 104.357C32.2652 104.201 29.4463 103.408 28.4374 101.227C27.5347 99.2729 27.6641 91.6316 27.6641 91.6316V79.3402H27.6502V91.6316C27.6502 91.6316 27.6982 94.4558 27.533 97.1092C27.4264 98.8207 27.2307 100.461 26.8772 101.227C25.8676 103.408 23.5109 104.201 19.367 104.357C9.59132 104.722 9.34904 101.06 9.33945 100.966C9.2904 100.492 9.34097 100.013 9.48794 99.56C10.3121 97.0225 13.9218 95.8342 13.9218 95.8342C13.9218 95.8342 11.6223 87.0909 10.829 79.6425C10.5803 77.3042 10.4571 74.9383 10.4322 72.5848C10.3306 62.8983 11.9125 53.3849 13.4095 46.6125C13.8678 44.546 14.3171 42.7339 14.7076 41.2525C15.439 38.4816 15.9683 36.8585 15.9683 36.8585H39.3459C39.3459 36.8585 39.9033 38.5687 40.6657 41.4732C41.0483 42.9297 41.4806 44.6881 41.9222 46.6807C43.4142 53.4513 44.9855 62.9431 44.8839 72.6033C44.859 74.9507 44.7339 77.3089 44.4856 79.6425C43.6938 87.0909 41.3925 95.8342 41.3925 95.8342C41.3925 95.8342 46.3283 97.4608 45.9748 100.966Z" fill="white"/>
<path fill-rule="evenodd" clip-rule="evenodd" d="M45.9744 100.982C45.9745 100.974 45.9746 100.969 45.9748 100.966C46.3283 97.4608 41.3925 95.8342 41.3925 95.8342C41.3925 95.8342 42.9289 89.9969 43.9229 83.7982C37.9575 87.1229 30.5981 85.6048 27.6641 84.4302V91.6316C27.6641 91.6316 27.5347 99.2729 28.4374 101.227C29.4463 103.408 32.2652 104.201 36.4091 104.357C45.9166 104.712 45.9701 101.258 45.9744 100.982ZM27.6502 84.434V91.6316C27.6502 91.6316 27.6982 94.4558 27.533 97.1092C27.4264 98.8207 27.2307 100.461 26.8772 101.227C25.8676 103.408 23.5109 104.201 19.367 104.357C9.68513 104.719 9.35457 101.13 9.3398 100.97L9.33945 100.966C9.2904 100.492 9.34097 100.013 9.48794 99.56C10.3121 97.0225 13.9218 95.8342 13.9218 95.8342C13.9218 95.8342 12.3865 89.9969 11.3922 83.7982C12.66 85.1458 17.686 87.1584 27.6502 84.434Z" fill="#4A8FFF"/>
<g opacity="0.3">
<path opacity="0.3" d="M45.9734 100.966C45.9642 101.06 45.7219 104.722 35.9459 104.357C31.802 104.201 29.4449 103.408 28.436 101.227C28.0825 100.461 27.8864 98.8208 27.7799 97.1092L27.6889 91.5901L27.533 97.1092C27.4264 98.8208 27.2307 100.461 26.8772 101.227C25.8676 103.408 23.5109 104.201 19.367 104.357C9.59132 104.722 9.34904 101.06 9.33945 100.966C9.2904 100.492 9.34097 100.013 9.48794 99.56C9.84106 100.142 10.8968 100.981 13.996 101.407C19.0259 102.097 24.4278 101.483 25.3447 98.139C26.0349 95.6196 27.1717 83.1388 23.3475 81.5047C17.4362 78.9782 15.2664 76.9473 16.9101 76.6201C17.7449 76.4531 19.946 77.1462 27.6566 77.1462C35.3672 77.1462 37.5679 76.4531 38.4031 76.6201C40.0468 76.9473 37.8766 78.9782 31.9657 81.5047C28.1426 83.1388 29.2786 95.6189 29.9685 98.1362C30.8854 101.481 36.2873 102.095 41.3168 101.404C44.416 100.978 45.4732 100.14 45.8253 99.5572C45.9725 100.011 46.023 100.491 45.9734 100.966Z" fill="#371A45"/>
</g>
<path d="M37.7474 105C37.309 105 36.855 104.991 36.3854 104.973C33.1171 104.851 29.1991 104.344 27.8776 101.487C27.7874 101.283 27.7137 101.073 27.6573 100.858C27.6013 101.073 27.5276 101.283 27.4371 101.487C26.3713 103.789 24.0409 104.799 19.3901 104.973C9.5949 105.342 8.78743 101.746 8.7249 101.021C8.39879 97.7869 11.8219 96.0245 13.1882 95.4543C12.6788 93.4294 10.8912 86.0627 10.2152 79.7081C9.22047 70.341 10.0567 59.6172 12.7768 46.924C12.7938 46.8446 12.8263 46.7695 12.8724 46.7027C12.9184 46.6359 12.9772 46.5789 13.0453 46.5348C13.1134 46.4908 13.1895 46.4606 13.2693 46.4459C13.349 46.4313 13.4309 46.4325 13.5102 46.4495C13.5895 46.4665 13.6647 46.499 13.7315 46.545C13.7983 46.5911 13.8553 46.6499 13.8993 46.718C13.9434 46.7861 13.9736 46.8622 13.9882 46.942C14.0029 47.0217 14.0017 47.1036 13.9847 47.1829C11.2923 59.7462 10.461 70.3424 11.4436 79.5777C12.2219 86.8919 14.4987 95.5904 14.5204 95.6774L14.6682 96.2391L14.1165 96.421C14.0724 96.4355 9.65565 97.9375 9.95476 100.904C9.95867 100.947 10.3356 104.078 19.3442 103.74C23.458 103.586 25.4783 102.783 26.3174 100.969C26.873 99.7674 27.0215 95.8309 27.0399 93.2447C27.0378 92.834 27.0399 92.4781 27.0399 92.1999C27.0399 91.9939 27.0364 91.8067 27.0339 91.6422V78.7223H28.2687L28.2815 79.3397V91.6312C28.2787 91.7985 28.2765 91.9896 28.2751 92.1996C28.2772 92.4767 28.2783 92.8319 28.2751 93.2422C28.2939 95.8355 28.4424 99.7674 28.998 100.968C29.8094 102.722 32.1018 103.577 36.4315 103.739C41.6867 103.936 43.8562 102.963 44.7532 102.112C45.3059 101.587 45.3553 101.106 45.3571 100.971L45.3599 100.908C45.6597 97.9368 41.2426 96.4348 41.1982 96.4199L40.6479 96.2373L40.795 95.6767C40.8177 95.5897 43.0935 86.8912 43.8714 79.577C44.8359 70.5122 44.0491 60.1163 41.4607 47.7954C41.4411 47.715 41.4378 47.6314 41.4511 47.5497C41.4644 47.468 41.494 47.3898 41.5381 47.3198C41.5822 47.2498 41.64 47.1893 41.7079 47.1421C41.7759 47.0948 41.8526 47.0617 41.9336 47.0447C42.0146 47.0276 42.0982 47.0271 42.1795 47.043C42.2607 47.059 42.3379 47.0911 42.4064 47.1375C42.475 47.1838 42.5335 47.2435 42.5786 47.313C42.6236 47.3824 42.6542 47.4602 42.6686 47.5417C45.2821 59.9909 46.0771 70.5126 45.0988 79.7074C44.4238 86.062 42.6355 93.4298 42.1258 95.4536C43.4888 96.022 46.8985 97.7784 46.5908 101.003C46.5827 101.349 46.4654 102.188 45.6029 103.007C44.21 104.332 41.5702 105 37.7474 105Z" fill="#371A45"/>
<path d="M41.2726 96.44C40.9703 96.3601 40.6196 96.2873 40.2847 96.2315C39.9497 96.1757 39.6033 96.1271 39.2591 96.0894C38.5685 96.0184 37.8739 95.9947 37.1802 96.0184C36.4824 96.0454 35.7885 96.1355 35.107 96.2873C34.419 96.4491 33.7528 96.6925 33.1226 97.0123C33.7106 96.5983 34.346 96.256 35.0153 95.9928C35.6948 95.7341 36.3963 95.5374 37.1113 95.4052C37.8303 95.2754 38.5574 95.1953 39.2875 95.1654C39.653 95.1508 40.02 95.1462 40.3887 95.1562C40.7575 95.1661 41.1163 95.1835 41.5131 95.2272C41.6735 95.2491 41.819 95.3328 41.9184 95.4606C42.0178 95.5883 42.0633 95.7499 42.0451 95.9107C42.0269 96.0716 41.9465 96.2189 41.821 96.3212C41.6956 96.4236 41.5351 96.4727 41.3738 96.4581C41.3451 96.4547 41.3166 96.4494 41.2886 96.4422L41.2726 96.44Z" fill="#371A45"/>
<path d="M13.876 95.2285C14.2728 95.1834 14.6277 95.1646 15 95.1575C15.3723 95.1504 15.735 95.1522 16.1013 95.1667C16.8314 95.1966 17.5585 95.2767 18.2775 95.4065C18.9925 95.5388 19.694 95.7355 20.3735 95.9941C21.0426 96.2574 21.6779 96.5997 22.2659 97.0136C21.6357 96.6938 20.9697 96.4504 20.2818 96.2886C19.6001 96.1368 18.9061 96.0468 18.2083 96.0197C17.5145 95.996 16.8199 96.0197 16.1294 96.0907C15.7855 96.1262 15.4427 96.1728 15.1038 96.2328C14.7649 96.2928 14.4185 96.3614 14.1162 96.4413L14.1052 96.4442C14.0258 96.4672 13.9427 96.4741 13.8607 96.4645C13.7786 96.455 13.6993 96.4291 13.6275 96.3884C13.5556 96.3477 13.4925 96.2931 13.4421 96.2277C13.3916 96.1623 13.3547 96.0875 13.3336 96.0077C13.3125 95.9278 13.3075 95.8445 13.319 95.7628C13.3306 95.681 13.3583 95.6023 13.4007 95.5314C13.4431 95.4605 13.4992 95.3988 13.5657 95.3499C13.6323 95.301 13.708 95.2659 13.7883 95.2467C13.8171 95.2384 13.8464 95.2324 13.876 95.2285Z" fill="#371A45"/>
<path d="M19.3231 69.9158C17.1369 70.8352 13.7532 70.6426 11.4463 70.3528C10.0629 70.1791 9.0917 68.8533 9.29561 67.4213C9.48141 66.115 10.5887 65.1648 11.8591 65.2266C14.0168 65.3332 17.2531 65.3808 19.3029 64.9069" fill="white"/>
<g opacity="0.35">
<path opacity="0.35" d="M19.3234 69.9154C17.1372 70.8348 13.7521 70.6436 11.4458 70.3527C10.0628 70.1797 9.09125 68.8536 9.29445 67.4205C9.33567 67.1244 9.42773 66.8376 9.56657 66.5729C9.93496 67.2809 10.6167 67.7978 11.4458 67.9026C13.7489 68.1917 17.1276 68.3846 19.3138 67.4688L19.3234 69.9154Z" fill="#371A45"/>
</g>
<path d="M14.975 71.2098C13.7078 71.2098 12.4478 71.1011 11.3693 70.9658C10.9645 70.9146 10.5742 70.7827 10.2213 70.578C9.86844 70.3733 9.56022 70.0998 9.31488 69.7739C9.05413 69.429 8.86415 69.0359 8.75587 68.6173C8.64759 68.1987 8.62315 67.7629 8.68397 67.3348C8.9163 65.7039 10.2943 64.533 11.889 64.6101C15.0624 64.7646 17.644 64.657 19.1637 64.3074C19.472 64.2363 20.2376 64.2253 20.698 65.6516C21.217 67.2595 21.1112 69.8339 19.5612 70.4851C18.2724 71.0276 16.6173 71.2098 14.975 71.2098ZM11.7423 65.8413C10.8254 65.8413 10.0449 66.5433 9.90743 67.5085C9.86792 67.7745 9.88214 68.0458 9.94926 68.3062C10.0164 68.5666 10.135 68.8109 10.2982 69.0247C10.4445 69.22 10.6284 69.384 10.8392 69.507C11.0499 69.6299 11.2832 69.7093 11.5252 69.7405C14.8141 70.154 17.4994 70.0141 19.0855 69.3469C19.3943 69.2172 19.6184 68.7682 19.7062 68.1149C19.8596 66.949 19.5285 65.8413 19.3047 65.5412C17.2202 65.9888 14.1029 65.954 11.8311 65.8435C11.7995 65.842 11.7703 65.8413 11.7412 65.8413H11.7423Z" fill="#371A45"/>
<g opacity="0.3">
<path opacity="0.3" d="M45.4452 72.3261C43.2324 72.6 40.1322 72.7911 37.7986 72.1549V73.3339C37.7986 74.9609 36.5179 76.291 34.9513 76.291H19.4093C17.8416 76.291 16.562 74.9609 16.562 73.3339V64.5654C16.562 62.9416 17.8409 61.6101 19.4093 61.6101H34.9513C36.2028 61.6101 37.2732 62.4584 37.6529 63.6297C37.7495 63.9322 37.7986 64.2478 37.7986 64.5654V66.5423C40.0068 66.8741 42.9688 66.8205 45.0299 66.72C45.0566 66.72 45.0814 66.72 45.1067 66.72C45.2758 68.5637 45.3955 70.4426 45.4452 72.3261Z" fill="#371A45"/>
</g>
<path d="M36.0454 69.9158C38.2319 70.8352 41.6157 70.6426 43.9223 70.3528C45.3059 70.1791 46.2768 68.8533 46.0733 67.4213C45.8871 66.115 44.7798 65.1648 43.5095 65.2266C41.3517 65.3332 38.1154 65.3808 36.066 64.9069" fill="white"/>
<g opacity="0.35">
<path opacity="0.35" d="M43.9233 70.3529C41.6142 70.6438 38.2319 70.8349 36.0454 69.9156L36.0554 67.474C38.2415 68.3898 41.6185 68.1969 43.9233 67.9077C44.7521 67.8029 45.4356 67.2828 45.8036 66.5748C45.9408 66.8395 46.0324 67.1255 46.0743 67.4207C46.2775 68.8537 45.3059 70.1799 43.9233 70.3529Z" fill="#371A45"/>
</g>
<path d="M40.3933 71.2098C38.751 71.2098 37.0963 71.0276 35.8064 70.4851C34.2575 69.8339 34.1513 67.2595 34.6696 65.6513C35.1314 64.2253 35.8959 64.2363 36.2035 64.3074C37.7215 64.657 40.3052 64.7649 43.4786 64.6101C45.0729 64.533 46.4513 65.7035 46.6833 67.3348C46.7441 67.7629 46.7198 68.1987 46.6115 68.6173C46.5033 69.0359 46.3134 69.429 46.0527 69.7739C45.8073 70.0998 45.4991 70.3732 45.1462 70.5779C44.7934 70.7826 44.403 70.9145 43.9983 70.9658C42.9209 71.1011 41.6604 71.2098 40.3933 71.2098ZM36.0657 65.5412C35.8437 65.8396 35.5108 66.9494 35.6643 68.1149C35.7502 68.7682 35.9765 69.2162 36.2849 69.3469C37.8714 70.0141 40.5563 70.154 43.8452 69.7405C44.0872 69.7094 44.3205 69.63 44.5313 69.507C44.742 69.3841 44.926 69.22 45.0722 69.0247C45.2355 68.811 45.3542 68.5666 45.4213 68.3062C45.4884 68.0458 45.5026 67.7745 45.463 67.5085C45.3209 66.5138 44.4953 65.7959 43.5408 65.8435C41.2675 65.954 38.1503 65.9888 36.0657 65.5412Z" fill="#371A45"/>
<path d="M36.8899 63.2535V71.2785C36.8899 72.7677 35.7176 73.9862 34.2845 73.9862H20.0545C18.6203 73.9862 17.4487 72.7677 17.4487 71.2785V63.2535C17.4487 61.7661 18.621 60.5476 20.0545 60.5476H34.2845C35.4288 60.5476 36.4082 61.3256 36.7556 62.3977C36.8445 62.6743 36.8898 62.963 36.8899 63.2535Z" fill="white"/>
<g opacity="0.3">
<path opacity="0.3" d="M36.8899 63.2538V71.2788C36.8899 72.7679 35.7176 73.9864 34.2845 73.9864H20.0545C18.6203 73.9864 17.4487 72.7679 17.4487 71.2788V68.5789C19.9038 69.9899 24.7668 72.1093 29.6493 70.3608C32.034 69.5057 34.7684 66.576 34.7684 66.576C34.7684 66.576 34.8749 69.65 35.3126 69.6016C36.5336 69.4666 36.5247 63.247 36.7556 62.399C36.8444 62.6753 36.8897 62.9636 36.8899 63.2538Z" fill="#371A45"/>
</g>
<path d="M34.2349 74.6026H20.1039C19.2363 74.6017 18.4044 74.2566 17.7908 73.6431C17.1773 73.0296 16.8321 72.1978 16.8311 71.3301V63.2032C16.8321 62.3355 17.1772 61.5036 17.7908 60.89C18.4044 60.2765 19.2362 59.9313 20.1039 59.9303H34.2349C35.1025 59.9313 35.9344 60.2765 36.5479 60.8901C37.1614 61.5036 37.5064 62.3355 37.5074 63.2032V71.3301C37.5064 72.1978 37.1614 73.0296 36.5478 73.6431C35.9343 74.2566 35.1025 74.6017 34.2349 74.6026ZM20.1039 61.1651C19.5636 61.1657 19.0455 61.3806 18.6634 61.7627C18.2814 62.1448 18.0665 62.6628 18.0659 63.2032V71.3301C18.0665 71.8705 18.2814 72.3885 18.6634 72.7706C19.0455 73.1527 19.5636 73.3676 20.1039 73.3682H34.2349C34.7752 73.3675 35.2932 73.1526 35.6753 72.7705C36.0573 72.3884 36.2722 71.8704 36.2729 71.3301V63.2032C36.2722 62.6629 36.0573 62.1448 35.6753 61.7628C35.2932 61.3807 34.7752 61.1658 34.2349 61.1651H20.1039Z" fill="#371A45"/>
<path d="M32.2107 69.6001C33.4518 69.6001 34.4579 68.5553 34.4579 67.2665C34.4579 65.9776 33.4518 64.9329 32.2107 64.9329C30.9695 64.9329 29.9634 65.9776 29.9634 67.2665C29.9634 68.5553 30.9695 69.6001 32.2107 69.6001Z" fill="#FF5555"/>
<path d="M34.458 67.2673C34.4581 67.4223 34.4434 67.5769 34.4139 67.7291C34.2061 66.6605 33.2978 65.8563 32.2114 65.8563C31.1251 65.8563 30.2149 66.6605 30.0089 67.7291C29.9793 67.577 29.9645 67.4223 29.9648 67.2673C29.9648 65.9785 30.9702 64.9326 32.2114 64.9326C33.4526 64.9326 34.458 65.9785 34.458 67.2673Z" fill="white"/>
<g opacity="0.35">
<path opacity="0.35" d="M34.4576 67.2659C34.4576 68.5558 33.4508 69.5995 32.2107 69.5995C30.9705 69.5995 29.9634 68.5558 29.9634 67.2659C29.9633 67.0549 29.9908 66.8448 30.0451 66.641C30.309 67.625 31.1797 68.3479 32.2121 68.3479C33.2444 68.3479 34.1133 67.625 34.3791 66.641C34.4323 66.845 34.4587 67.055 34.4576 67.2659Z" fill="#371A45"/>
</g>
<path d="M32.2107 70.0634C30.7161 70.0634 29.5005 68.8087 29.5005 67.2666C29.5005 65.7245 30.7161 64.4701 32.2107 64.4701C33.7052 64.4701 34.9208 65.7245 34.9208 67.2666C34.9208 68.8087 33.7048 70.0634 32.2107 70.0634ZM32.2107 65.3959C31.227 65.3959 30.4266 66.2353 30.4266 67.2666C30.4266 68.2979 31.227 69.1373 32.2107 69.1373C33.1943 69.1373 33.9947 68.2982 33.9947 67.2666C33.9947 66.2349 33.1943 65.3959 32.2107 65.3959Z" fill="#371A45"/>
<path d="M25.8422 74.6026C25.6785 74.6026 25.5215 74.5376 25.4057 74.4219C25.29 74.3062 25.2249 74.1492 25.2248 73.9855V69.8782C25.2248 69.0554 24.8489 68.2703 24.2198 67.7783L23.8581 67.4941C22.932 66.7698 22.3789 65.6213 22.3789 64.4216V60.5459C22.3789 60.3821 22.444 60.2251 22.5597 60.1093C22.6755 59.9935 22.8326 59.9285 22.9963 59.9285C23.1601 59.9285 23.3171 59.9935 23.4329 60.1093C23.5487 60.2251 23.6137 60.3821 23.6137 60.5459V64.4216C23.6137 65.2444 23.9892 66.0291 24.6187 66.5215L24.98 66.8039C25.9065 67.5279 26.4596 68.6767 26.4596 69.8764V73.9837C26.4598 74.0649 26.444 74.1454 26.413 74.2205C26.3821 74.2955 26.3366 74.3638 26.2793 74.4212C26.2219 74.4787 26.1538 74.5243 26.0788 74.5554C26.0038 74.5866 25.9234 74.6026 25.8422 74.6026Z" fill="#371A45"/>
<path d="M19.4003 86.2931C16.7761 86.2931 13.8745 85.8377 11.2183 84.4128C11.1202 84.3542 11.0485 84.26 11.018 84.1499C10.9876 84.0397 11.0007 83.9221 11.0548 83.8214C11.1089 83.7207 11.1997 83.6448 11.3084 83.6094C11.4171 83.574 11.5352 83.5818 11.6382 83.6313C18.4863 87.3052 27.42 84.0689 27.5095 84.0359C27.6196 83.9962 27.741 84.0016 27.8472 84.0509C27.9534 84.1002 28.0358 84.1895 28.0765 84.2993C28.1172 84.409 28.1129 84.5305 28.0645 84.6371C28.0161 84.7437 27.9276 84.8269 27.8182 84.8686C27.5784 84.9567 23.8959 86.2931 19.4003 86.2931Z" fill="#371A45"/>
<path d="M35.9208 86.2931C31.4245 86.2931 27.7427 84.9567 27.5015 84.8675C27.3911 84.8265 27.3014 84.7433 27.2523 84.6363C27.2032 84.5292 27.1987 84.407 27.2397 84.2966C27.2807 84.1862 27.3638 84.0966 27.4709 84.0475C27.5779 83.9984 27.7001 83.9938 27.8105 84.0348C27.8997 84.0678 36.8338 87.3031 43.6818 83.6302C43.7849 83.5807 43.903 83.5729 44.0116 83.6083C44.1203 83.6437 44.2111 83.7196 44.2652 83.8203C44.3193 83.921 44.3325 84.0386 44.302 84.1488C44.2716 84.2589 44.1998 84.3531 44.1017 84.4117C41.447 85.8387 38.5446 86.2931 35.9208 86.2931Z" fill="#371A45"/>
<path d="M21.395 79.0281C21.395 79.0281 23.9347 80.1631 27.6573 80.1631C31.3799 80.1631 33.9327 79.0281 33.9327 79.0281C33.9327 79.0281 32.246 77.6959 27.6573 77.6959C23.0686 77.6959 21.395 79.0281 21.395 79.0281Z" fill="white"/>
<g opacity="0.3">
<path opacity="0.3" d="M21.395 79.0281C21.395 79.0281 23.9347 80.1631 27.6573 80.1631C31.3799 80.1631 33.9327 79.0281 33.9327 79.0281C33.9327 79.0281 32.246 77.6959 27.6573 77.6959C23.0686 77.6959 21.395 79.0281 21.395 79.0281Z" fill="#371A45"/>
</g>
<path d="M20.5393 78.7422C21.7299 79.0218 22.9344 79.2379 24.1479 79.3898C25.3514 79.5412 26.5624 79.6253 27.7753 79.6416C28.99 79.6448 30.2038 79.5737 31.4098 79.4285C32.6245 79.2797 33.828 79.0504 35.0124 78.7422L35.0237 78.739C35.0721 78.7264 35.1235 78.7318 35.1682 78.7541C35.2129 78.7765 35.2481 78.8143 35.267 78.8605C35.286 78.9068 35.2876 78.9584 35.2715 79.0057C35.2554 79.0531 35.2226 79.093 35.1793 79.118C34.6131 79.4423 34.0276 79.6825 33.4255 79.8995C33.1264 80.0118 32.8216 80.1003 32.5139 80.1912L32.0521 80.3202L31.5857 80.4292C30.3349 80.7107 29.0577 80.8581 27.7757 80.869C26.4922 80.8795 25.2117 80.7462 23.9578 80.4718C23.333 80.3321 22.7179 80.1521 22.1163 79.9329C21.5152 79.7088 20.9304 79.4615 20.3716 79.118C20.3297 79.0922 20.2983 79.0523 20.2831 79.0055C20.2679 78.9586 20.2698 78.9079 20.2886 78.8623C20.3073 78.8168 20.3417 78.7794 20.3855 78.7569C20.4293 78.7343 20.4796 78.7281 20.5276 78.7393L20.5393 78.7422Z" fill="#371A45"/>
<path d="M50.1746 70.0474C48.5462 72.1728 46.6787 72.8581 44.884 72.6034C41.101 72.0645 37.6437 67.3372 37.4402 63.0789C35.5666 63.4803 32.5879 63.4448 31.2944 62.0433C29.5164 60.1158 31.0632 57.4873 31.0632 57.4873C31.0632 57.4873 27.5967 57.7051 27.5967 55.2216C27.5967 53.8574 32.8472 51.9483 37.6626 52.3032C38.7908 52.3849 40.7887 52.8095 42.3003 53.8034C42.0672 51.7398 41.544 49.7473 41.0686 48.0726C41.0686 48.0726 40.6274 48.1081 39.9205 48.1501C37.043 48.3149 29.7697 48.5359 30.0877 46.5355C30.4841 44.0445 40.4914 41.2509 40.4914 41.2509C40.5486 41.3251 40.6072 41.399 40.6644 41.4732C41.598 42.674 42.5273 43.9703 43.4285 45.3287C49.2176 54.0486 53.8063 65.3109 50.1746 70.0474Z" fill="white"/>
<path d="M40.6543 41.1242C42.2529 42.5807 43.5356 44.3111 44.7097 46.0976C45.8902 47.8855 46.9051 49.7762 47.8739 51.6863C48.3535 52.6445 48.8116 53.6139 49.2483 54.5943C49.6746 55.5794 50.0832 56.5738 50.4466 57.588C50.81 58.6022 51.1333 59.6328 51.4057 60.6825C51.669 61.7344 51.8793 62.8055 51.9937 63.8986C52.1081 64.9917 52.1251 66.1096 51.9475 67.2311C51.7699 68.3455 51.3791 69.4813 50.6562 70.4322C49.9723 71.3204 49.1141 72.1314 48.0576 72.6703C46.9847 73.2145 45.7623 73.3899 44.5797 73.1694C44.0039 73.0653 43.445 72.8829 42.9186 72.6273L42.7218 72.536L42.5331 72.4319C42.4084 72.3609 42.282 72.293 42.1587 72.2188C41.9225 72.06 41.6763 71.9125 41.456 71.7349C40.5466 71.055 39.7779 70.2258 39.1246 69.3232C38.4705 68.4189 37.9379 67.4328 37.5405 66.3899C37.1337 65.3382 36.8922 64.2299 36.8244 63.1042L37.5704 63.6783C36.5878 63.8809 35.5827 63.9525 34.5813 63.8915C34.0722 63.8592 33.5667 63.7826 33.0708 63.6627C32.5685 63.5387 32.063 63.3554 31.5877 63.0609C31.344 62.9122 31.1185 62.7355 30.9159 62.5344C30.8628 62.4868 30.8145 62.4341 30.7717 62.3771L30.6402 62.2136L30.5099 62.0492C30.4676 61.9934 30.4353 61.9295 30.398 61.8698C30.3291 61.7461 30.2463 61.63 30.1919 61.4989L30.0292 61.106L29.9187 60.6975C29.8857 60.561 29.874 60.4221 29.8523 60.2843C29.7983 59.7435 29.8357 59.1974 29.9628 58.669C30.0228 58.4123 30.0993 58.1598 30.1919 57.913C30.2399 57.7912 30.2875 57.669 30.3436 57.5489C30.3997 57.4288 30.452 57.317 30.5319 57.1745L31.1028 58.1035C30.9607 58.1109 30.8541 58.1102 30.7312 58.1084C30.6083 58.1067 30.4953 58.1006 30.3781 58.0917C30.1416 58.0752 29.9063 58.0451 29.6733 58.0015C29.204 57.912 28.7248 57.7685 28.2679 57.4971C28.0315 57.3574 27.8169 57.1837 27.631 56.9816C27.4373 56.7696 27.2824 56.5253 27.1731 56.2597C27.0717 56.0003 27.0102 55.7269 26.9905 55.4491L26.9819 55.2494V55.2242L26.9844 55.1841L26.9919 55.1009C26.9973 55.0465 27.0058 54.9924 27.0175 54.9389C27.0428 54.8456 27.0763 54.7546 27.1176 54.6672C27.1549 54.591 27.1979 54.5177 27.2462 54.448C27.4292 54.1851 27.6292 54.0125 27.8281 53.8579C28.02 53.7106 28.2218 53.5766 28.432 53.4569C28.8311 53.2331 29.2454 53.0375 29.6718 52.8718C30.5077 52.541 31.3607 52.3034 32.2225 52.1098C33.9469 51.7364 35.7142 51.5719 37.4897 51.6742C38.4016 51.7225 39.2876 51.9044 40.1491 52.1613C41.0102 52.4242 41.8628 52.7574 42.6607 53.2572L41.6507 53.8771C41.5885 53.4068 41.5164 52.9364 41.4415 52.4654L41.2088 51.0465C41.131 50.5716 41.055 50.0937 40.9956 49.6085C40.9282 49.1182 40.8863 48.6246 40.8702 48.13C40.8697 48.0831 40.8845 48.0374 40.9125 47.9999C40.9404 47.9624 40.98 47.9351 41.025 47.9223C41.0701 47.9094 41.1181 47.9118 41.1616 47.929C41.2052 47.9462 41.2418 47.9772 41.266 48.0173C41.5159 48.4505 41.7329 48.9017 41.9154 49.3673C42.1022 49.8287 42.2629 50.3003 42.3967 50.7797C42.5292 51.26 42.6454 51.746 42.7388 52.238C42.8323 52.73 42.9022 53.2277 42.9498 53.73L42.9523 53.7535C42.9639 53.8762 42.9403 53.9997 42.8843 54.1095C42.8283 54.2193 42.7421 54.3108 42.6359 54.3734C42.5297 54.436 42.4078 54.4671 42.2846 54.4629C42.1614 54.4587 42.042 54.4196 41.9402 54.3499C41.3036 53.9137 40.5633 53.578 39.7899 53.3425C39.0166 53.1069 38.2116 52.9471 37.4144 52.9066C35.7739 52.811 34.1028 52.9645 32.4854 53.3155C31.6786 53.4956 30.8797 53.7201 30.1248 54.0196C29.7537 54.1635 29.3931 54.3332 29.0456 54.5272C28.8849 54.6186 28.7306 54.7208 28.5837 54.8331C28.4445 54.9396 28.3223 55.0558 28.264 55.1464C28.2416 55.1713 28.2445 55.1851 28.2285 55.2032C28.2125 55.2214 28.226 55.2228 28.2161 55.2309C28.2161 55.2309 28.2203 55.2285 28.2193 55.227C28.2196 55.226 28.2196 55.2249 28.2193 55.2238C28.2193 55.2238 28.2193 55.2217 28.2193 55.2238V55.2388L28.2249 55.3592C28.2352 55.5086 28.2672 55.6557 28.3201 55.7958C28.4279 56.0563 28.6226 56.27 28.9042 56.437C29.4615 56.7727 30.306 56.8935 31.0278 56.8715C31.1943 56.8661 31.3561 56.9271 31.4776 57.041C31.5991 57.1549 31.6704 57.3125 31.6758 57.4789C31.6784 57.5904 31.6518 57.7006 31.5987 57.7987C31.5632 57.8626 31.5102 57.9663 31.4701 58.058C31.43 58.1496 31.3884 58.2505 31.3497 58.3479C31.2762 58.5436 31.2155 58.7439 31.1681 58.9475C31.0729 59.3395 31.0439 59.7446 31.0825 60.1461C31.0992 60.241 31.1046 60.3394 31.1276 60.4303L31.2015 60.7067L31.3113 60.9682C31.3468 61.0566 31.4058 61.1319 31.4498 61.2168C31.4724 61.2585 31.4971 61.2991 31.5237 61.3383L31.6154 61.4506L31.7053 61.5635L31.7497 61.6207L31.7998 61.6673C31.9322 61.7989 32.0793 61.9148 32.2381 62.0129C32.5667 62.2179 32.9593 62.3682 33.3749 62.4673C33.7982 62.5688 34.2294 62.6338 34.6637 62.6616C35.5516 62.715 36.4427 62.6519 37.3142 62.474C37.4753 62.4404 37.643 62.4721 37.7807 62.5622C37.9183 62.6523 38.0145 62.7933 38.0482 62.9543C38.0544 62.9832 38.0585 63.0126 38.0603 63.0421V63.0481C38.1729 65.018 38.9558 66.9743 40.1281 68.6034C40.7171 69.4177 41.407 70.1598 42.2003 70.7505C42.3928 70.9072 42.6042 71.0308 42.807 71.169L43.125 71.3484L43.2841 71.4372L43.4486 71.5129C43.8771 71.7219 44.3323 71.8711 44.8014 71.9562C45.7212 72.1304 46.6728 71.994 47.5066 71.5683C48.3428 71.1402 49.0746 70.4692 49.68 69.6798C50.2445 68.9338 50.5762 68.0102 50.7308 67.0361C50.8853 66.062 50.8729 65.0407 50.7663 64.0254C50.6597 63.0101 50.4615 61.993 50.21 60.9877C49.9503 59.9831 49.6352 58.9891 49.2864 58.0054C48.571 56.0354 47.7275 54.1142 46.7613 52.2543C46.2781 51.3222 45.7689 50.4038 45.2337 49.4991C44.7055 48.5911 44.1538 47.6973 43.6053 46.8013C43.0568 45.9054 42.4809 45.0251 41.9356 44.1239C41.3832 43.2261 40.8319 42.327 40.3313 41.3767V41.3743C40.3083 41.3308 40.3013 41.2807 40.3117 41.2326C40.322 41.1845 40.349 41.1417 40.3879 41.1116C40.4268 41.0815 40.4751 41.0661 40.5242 41.0682C40.5733 41.0702 40.6201 41.0895 40.6564 41.1227L40.6543 41.1242Z" fill="#371A45"/>
<path d="M46.8412 59.5604C46.5376 59.0294 46.2071 58.5142 45.8512 58.0168C45.4959 57.5195 45.1172 57.0367 44.7179 56.5799C44.3197 56.1304 43.8925 55.7075 43.439 55.3138C42.9949 54.9409 42.5132 54.6152 42.0017 54.3418L41.9882 54.3347C41.9148 54.2979 41.8495 54.2469 41.796 54.1846C41.7426 54.1223 41.7021 54.05 41.6768 53.9719C41.6516 53.8938 41.6422 53.8114 41.6492 53.7296C41.6562 53.6478 41.6794 53.5683 41.7174 53.4955C41.7555 53.4228 41.8076 53.3584 41.8708 53.306C41.9341 53.2536 42.0071 53.2144 42.0856 53.1906C42.1642 53.1667 42.2467 53.1588 42.3284 53.1672C42.41 53.1756 42.4892 53.2002 42.5612 53.2395C42.5758 53.247 42.5911 53.2558 42.6046 53.2644C43.1696 53.6262 43.6948 54.0469 44.1712 54.5194C44.6258 54.9836 45.0492 55.4773 45.4387 55.9973C45.821 56.515 46.1744 57.0478 46.4991 57.5959C46.827 58.144 47.1264 58.7086 47.3961 59.2875C47.4308 59.3599 47.4359 59.443 47.4103 59.5191C47.3848 59.5952 47.3305 59.6583 47.2592 59.695C47.1878 59.7317 47.1049 59.7392 47.0281 59.7158C46.9513 59.6923 46.8867 59.6399 46.848 59.5696L46.8412 59.5604Z" fill="#371A45"/>
<path d="M24.1326 57.4873C24.1326 57.4873 25.6789 60.1162 23.9009 62.0434C22.6093 63.4448 19.6305 63.4803 17.7552 63.0789C17.5545 67.291 14.1672 71.9643 10.4301 72.5849C8.59983 72.889 6.68612 72.2204 5.02073 70.0474C1.37059 65.2871 6.02537 53.9331 11.8546 45.1944C12.7839 43.8008 13.7424 42.475 14.7022 41.2512L14.7054 41.253L22.7155 45.744L15.0095 47.8339L14.125 48.073C13.6482 49.7476 13.1249 51.7402 12.8933 53.8038C14.4045 52.8091 16.4031 52.3853 17.5314 52.3036C22.3467 51.9484 27.5958 53.8578 27.5958 55.2219C27.5976 57.7051 24.1326 57.4873 24.1326 57.4873Z" fill="white"/>
<g opacity="0.3">
<path opacity="0.3" d="M24.1328 57.4872C24.1328 57.4872 25.6791 60.1161 23.9011 62.0433C22.6095 63.4447 19.6307 63.4802 17.7554 63.0788C17.5547 67.2909 14.1674 71.9642 10.4302 72.5848C8.60002 72.8889 6.68632 72.2203 5.02093 70.0473C3.871 68.5471 3.54524 66.3911 3.82162 63.8706C3.98361 65.087 4.36941 66.1442 5.02093 66.9929C6.68632 69.1659 8.60002 69.8348 10.4302 69.5304C14.1671 68.9098 16.2165 64.5175 16.4172 60.3054C18.2908 60.7068 21.2002 61.7346 22.4919 60.3331C24.2681 58.4055 21.4841 55.9746 21.4841 55.9746C21.4841 55.9746 25.4891 56.7235 27.4522 56.0226C26.795 57.6538 24.1328 57.4872 24.1328 57.4872Z" fill="#371A45"/>
</g>
<g opacity="0.3">
<path opacity="0.3" d="M30.9907 57.4872C30.9907 57.4872 29.4439 60.1161 31.2219 62.0433C32.514 63.4447 35.4927 63.4802 37.3677 63.0788C37.5684 67.2909 40.9556 71.9642 44.6925 72.5848C46.523 72.8889 48.4368 72.2203 50.1021 70.0473C51.2521 68.5471 51.5775 66.3911 51.3014 63.8706C51.1395 65.087 50.7533 66.1442 50.1021 66.9929C48.4368 69.1659 46.523 69.8348 44.6925 69.5304C40.956 68.9098 38.9066 64.5175 38.7059 60.3054C36.832 60.7068 33.9229 61.7346 32.6312 60.3331C30.855 58.4055 33.639 55.9746 33.639 55.9746C33.639 55.9746 29.6336 56.7235 27.6709 56.0226C28.3281 57.6538 30.9907 57.4872 30.9907 57.4872Z" fill="#371A45"/>
</g>
<path d="M14.8654 41.3785C14.3648 42.3287 13.8135 43.2279 13.2611 44.1256C12.7165 45.0282 12.136 45.9018 11.5914 46.803C11.0468 47.7043 10.4902 48.5928 9.96299 49.5008C9.42633 50.4038 8.91715 51.3222 8.43544 52.2561C7.4692 54.1159 6.62571 56.0371 5.91036 58.0071C5.56151 58.9908 5.2464 59.9848 4.98672 60.9894C4.73521 61.9947 4.53662 63.0104 4.43041 64.0271C4.32419 65.0438 4.31246 66.0627 4.46593 67.0378C4.6194 68.013 4.95226 68.9355 5.51674 69.6815C6.12066 70.4709 6.85389 71.142 7.69013 71.57C8.52392 71.9957 9.47553 72.1321 10.3953 71.9579C10.8644 71.8728 11.3196 71.7236 11.7481 71.5146L11.9126 71.4389L12.0717 71.3501L12.3914 71.1707C12.5943 71.0325 12.8057 70.9089 12.9982 70.7522C13.7897 70.1615 14.4814 69.4194 15.0704 68.6051C16.2427 66.976 17.0242 65.0197 17.1382 63.0498V63.0473C17.1429 62.966 17.1635 62.8864 17.1989 62.813C17.2343 62.7397 17.2838 62.674 17.3446 62.6198C17.4054 62.5656 17.4763 62.5239 17.5532 62.4971C17.6302 62.4703 17.7116 62.459 17.7929 62.4637C17.8236 62.4653 17.8542 62.4694 17.8842 62.4757C18.7557 62.6536 19.6466 62.7167 20.5344 62.6633C20.9689 62.6355 21.4002 62.5705 21.8236 62.469C22.2378 62.3685 22.6303 62.2203 22.9603 62.0146C23.1192 61.9165 23.2663 61.8006 23.3987 61.669L23.4488 61.6224L23.4932 61.5653L23.5831 61.4523L23.6747 61.34C23.7039 61.302 23.7231 61.2587 23.7486 61.2185C23.7927 61.1347 23.8534 61.0594 23.8872 60.9699L23.997 60.7084L24.0705 60.432C24.0939 60.3397 24.0993 60.2413 24.116 60.1478C24.1545 59.7463 24.1256 59.3412 24.0303 58.9492C23.983 58.7456 23.9223 58.5453 23.8488 58.3496C23.8101 58.2522 23.7724 58.1538 23.728 58.0597C23.6836 57.9656 23.6346 57.8643 23.5998 57.8004C23.5601 57.7281 23.535 57.6487 23.5261 57.5667C23.5171 57.4847 23.5243 57.4017 23.5474 57.3225C23.5705 57.2434 23.609 57.1695 23.6607 57.1052C23.7123 57.0409 23.7761 56.9874 23.8485 56.9478C23.9471 56.8942 24.0581 56.8677 24.1703 56.871C24.8918 56.8931 25.7366 56.7723 26.294 56.4366C26.5753 56.2682 26.77 56.0545 26.878 55.7954C26.9309 55.6553 26.963 55.5082 26.9732 55.3588L26.9789 55.2383V55.2234C26.9789 55.2216 26.9771 55.2234 26.9771 55.2234C26.9767 55.2245 26.9767 55.2256 26.9771 55.2266C26.9771 55.2266 26.981 55.2323 26.9803 55.2305C26.9704 55.2223 26.9803 55.2206 26.9679 55.2028C26.9554 55.1851 26.9558 55.1708 26.9323 55.146C26.873 55.0554 26.7508 54.9378 26.6126 54.8326C26.4658 54.7204 26.3115 54.6182 26.1508 54.5268C25.8033 54.3327 25.4427 54.1631 25.0716 54.0191C24.3167 53.7197 23.5177 53.4952 22.711 53.315C21.0935 52.9641 19.4225 52.8106 17.7819 52.9062C16.9844 52.9467 16.1833 53.1108 15.4064 53.342C14.6295 53.5733 13.8927 53.9133 13.2561 54.3495C13.1545 54.4192 13.035 54.4585 12.9118 54.4628C12.7887 54.467 12.6668 54.4361 12.5606 54.3735C12.4544 54.311 12.3682 54.2195 12.3121 54.1097C12.256 54 12.2324 53.8765 12.244 53.7538L12.2462 53.7296C12.2935 53.228 12.3646 52.7307 12.4593 52.2376C12.5524 51.7456 12.6689 51.2596 12.8014 50.7793C12.9352 50.2998 13.096 49.8283 13.2828 49.3668C13.4652 48.9013 13.6822 48.4501 13.9318 48.0169C13.9559 47.9766 13.9926 47.9454 14.0362 47.9281C14.0798 47.9108 14.1279 47.9084 14.1731 47.9212C14.2182 47.9341 14.2578 47.9614 14.2858 47.9991C14.3138 48.0368 14.3286 48.0826 14.3279 48.1295C14.3118 48.6242 14.2699 49.1177 14.2025 49.6081C14.1442 50.0933 14.0682 50.5711 13.9893 51.0461L13.7567 52.4649C13.6817 52.936 13.6096 53.4063 13.5474 53.8767L12.535 53.2568C13.3325 52.757 14.1854 52.4237 15.0462 52.1609C15.908 51.904 16.794 51.7221 17.7059 51.6738C19.4821 51.5715 21.2488 51.736 22.9731 52.1093C23.8346 52.3019 24.6879 52.5406 25.5238 52.8713C25.9502 53.0371 26.3645 53.2326 26.7636 53.4564C26.9738 53.5762 27.1756 53.7102 27.3675 53.8575C27.5661 54.012 27.7665 54.1847 27.9494 54.4476C27.9977 54.5173 28.0407 54.5905 28.078 54.6667C28.1193 54.7542 28.1528 54.8452 28.1782 54.9385C28.1899 54.9919 28.1983 55.046 28.2034 55.1005L28.2112 55.1836L28.2137 55.2238V55.249L28.2052 55.4486C28.1855 55.7265 28.1239 55.9998 28.0226 56.2593C27.9133 56.5248 27.7583 56.7691 27.5647 56.9812C27.3787 57.1833 27.164 57.357 26.9274 57.4966C26.4709 57.768 25.9916 57.9116 25.5224 58.0011C25.2894 58.0447 25.054 58.0748 24.8176 58.0913C24.7 58.1002 24.5828 58.1052 24.4645 58.108C24.3462 58.1108 24.2364 58.1105 24.0929 58.103L24.6637 57.1741C24.7437 57.3162 24.7962 57.4227 24.852 57.5485C24.9078 57.6742 24.9558 57.7908 25.0037 57.9126C25.0963 58.1594 25.1729 58.4119 25.2328 58.6686C25.36 59.197 25.3973 59.7431 25.3433 60.2839C25.3217 60.4217 25.3099 60.5606 25.2769 60.697L25.1664 61.1056L25.0034 61.4985C24.9494 61.6296 24.8666 61.7471 24.7977 61.8693C24.7621 61.929 24.7266 61.993 24.6858 62.0487L24.5554 62.2132L24.424 62.3766C24.3811 62.4336 24.3328 62.4863 24.2797 62.534C24.0778 62.7365 23.8528 62.9146 23.6094 63.0647C23.1341 63.3592 22.6285 63.5426 22.1262 63.6665C21.6303 63.7865 21.1249 63.863 20.6157 63.8953C19.6143 63.9564 18.6093 63.8847 17.6267 63.6822L18.3727 63.1081C18.3049 64.2337 18.0633 65.342 17.6565 66.3937C17.259 67.4365 16.7264 68.4227 16.0725 69.327C15.4192 70.2297 14.6515 71.0588 13.741 71.7388C13.5204 71.9164 13.2746 72.0638 13.038 72.2226C12.9151 72.2958 12.7893 72.3647 12.6639 72.4358L12.4753 72.5398L12.2785 72.6311C11.7521 72.8867 11.1932 73.0691 10.6174 73.1732C9.43473 73.3938 8.21238 73.2184 7.1395 72.6741C6.08301 72.1338 5.22473 71.3242 4.54089 70.4361C3.81867 69.4851 3.42613 68.3494 3.24957 67.235C3.07195 66.1135 3.09148 64.9944 3.20339 63.9024C3.31529 62.8104 3.52808 61.7383 3.79132 60.6864C4.06237 59.6366 4.3892 58.6071 4.75048 57.5918C5.11177 56.5766 5.52172 55.5833 5.94872 54.5982C6.38686 53.6184 6.84501 52.6491 7.32317 51.6902C8.29192 49.78 9.30685 47.889 10.4873 46.1014C11.6596 44.3131 12.9431 42.581 14.5428 41.128C14.5791 41.0952 14.6258 41.0762 14.6747 41.0744C14.7236 41.0725 14.7716 41.0878 14.8104 41.1177C14.8491 41.1476 14.8761 41.1902 14.8867 41.238C14.8973 41.2857 14.8907 41.3357 14.8682 41.3792L14.8654 41.3785Z" fill="#371A45"/>
<path d="M7.80136 59.288C8.07134 58.7092 8.37085 58.1447 8.69871 57.5966C9.02459 57.0493 9.37806 56.5165 9.75911 55.998C10.1487 55.4781 10.5721 54.9844 11.0266 54.5202C11.503 54.0476 12.0281 53.6269 12.5933 53.2651C12.6619 53.22 12.7389 53.189 12.8197 53.1739C12.9004 53.1589 12.9834 53.1601 13.0637 53.1774C13.144 53.1948 13.22 53.2281 13.2874 53.2752C13.3547 53.3223 13.4119 53.3824 13.4557 53.4519C13.4996 53.5214 13.5291 53.5989 13.5426 53.6799C13.5561 53.761 13.5534 53.8439 13.5344 53.9239C13.5155 54.0038 13.4809 54.0792 13.4325 54.1456C13.3841 54.212 13.3229 54.2681 13.2526 54.3106C13.2391 54.3195 13.2249 54.3277 13.2107 54.3351L13.1961 54.3426C12.6846 54.6159 12.203 54.9417 11.7588 55.3145C11.3054 55.7083 10.8782 56.1312 10.4799 56.5806C10.0806 57.0375 9.70263 57.5185 9.34668 58.0176C8.99071 58.515 8.66026 59.0302 8.35661 59.5611L8.35163 59.57C8.31278 59.6401 8.24821 59.6923 8.17157 59.7156C8.09492 59.739 8.01221 59.7316 7.9409 59.6951C7.8696 59.6585 7.81529 59.5957 7.78945 59.5199C7.76361 59.4441 7.76826 59.3611 7.80243 59.2887L7.80136 59.288Z" fill="#371A45"/>
<path d="M50.2977 31.1003C50.2355 31.1029 50.1734 31.0931 50.115 31.0716C50.0565 31.05 50.003 31.017 49.9574 30.9746C49.9118 30.9322 49.875 30.8811 49.8493 30.8244C49.8236 30.7677 49.8094 30.7064 49.8075 30.6442L49.1002 16.7161C49.0917 16.59 49.1332 16.4656 49.2158 16.37C49.2984 16.2743 49.4154 16.2151 49.5414 16.2052C52.2413 16.0461 54.5436 18.1886 54.6857 20.9904L54.9269 25.7396C55.0683 28.5415 52.9955 30.9415 50.2977 31.1003Z" fill="white"/>
<path d="M50.27 31.2124C50.1307 31.2124 49.9963 31.1606 49.8931 31.0671C49.8341 31.0143 49.7863 30.9501 49.7524 30.8785C49.7186 30.8069 49.6994 30.7292 49.6959 30.6501L48.989 16.722C48.9792 16.5667 49.0309 16.4139 49.1329 16.2965C49.235 16.1791 49.3792 16.1066 49.5343 16.0946C50.1782 16.0569 50.8232 16.1478 51.4315 16.3621C52.0399 16.5765 52.5995 16.9099 53.0775 17.343C54.1137 18.2712 54.7237 19.5647 54.7958 20.9849L55.037 25.7342C55.1823 28.5922 53.0587 31.049 50.3034 31.2114C50.2924 31.2121 50.281 31.2124 50.27 31.2124ZM49.8224 16.3081C49.7311 16.3081 49.6394 16.3106 49.5474 16.3163C49.4507 16.3246 49.3611 16.3706 49.298 16.4443C49.2349 16.5181 49.2034 16.6138 49.2103 16.7106L49.9176 30.6391C49.9196 30.6889 49.9316 30.7379 49.9528 30.783C49.9741 30.8282 50.0041 30.8686 50.0412 30.902C50.0746 30.9327 50.1138 30.9563 50.1565 30.9714C50.1993 30.9866 50.2446 30.9929 50.2899 30.9901C52.924 30.8348 54.9539 28.4824 54.8146 25.7456L54.5738 20.996C54.5027 19.6354 53.9205 18.3966 52.929 17.5082C52.0779 16.7371 50.9708 16.3094 49.8224 16.3081Z" fill="#371A45"/>
<g opacity="0.35">
<path opacity="0.35" d="M54.8129 23.5127L54.9265 25.7404C55.0686 28.5408 52.9958 30.9416 50.2966 31.1014C50.0394 31.1171 49.8199 30.9114 49.806 30.6442L49.6167 26.9419C49.6559 27.0238 49.7184 27.0923 49.7964 27.1389C49.8744 27.1854 49.9643 27.208 50.0551 27.2037L50.3748 27.1842C52.5063 27.0591 54.2487 25.5326 54.8129 23.5127Z" fill="#371A45"/>
</g>
<path d="M50.2691 31.7188C50.0053 31.7188 49.7509 31.6209 49.5551 31.4442C49.4462 31.3468 49.3578 31.2287 49.2951 31.0967C49.2324 30.9648 49.1966 30.8217 49.1899 30.6758L48.4829 16.7473C48.452 16.1434 48.9092 15.624 49.5043 15.5889C50.215 15.547 50.9269 15.6471 51.5984 15.8835C52.27 16.1198 52.8877 16.4877 53.4155 16.9655C54.5523 17.9846 55.2226 19.4028 55.3015 20.9588L55.5427 25.7084C55.7019 28.8427 53.3651 31.5383 50.333 31.7166C50.3117 31.7181 50.2904 31.7188 50.2691 31.7188ZM49.7224 16.8145L50.4158 30.4712C52.6972 30.2506 54.4301 28.1756 54.3097 25.7698L54.0684 21.0206C54.0063 19.7957 53.4816 18.6816 52.5913 17.8841C51.8075 17.173 50.7805 16.79 49.7224 16.8145Z" fill="#371A45"/>
<path d="M5.25227 18.8134C5.3145 18.8108 5.37663 18.8205 5.43506 18.8421C5.49349 18.8637 5.54706 18.8967 5.59266 18.9391C5.63826 18.9815 5.67498 19.0326 5.70071 19.0893C5.72643 19.146 5.74064 19.2073 5.74251 19.2695L6.4498 33.1976C6.45833 33.3238 6.41673 33.4482 6.33405 33.5438C6.25137 33.6395 6.13429 33.6987 6.00824 33.7085C3.30837 33.8676 1.00638 31.7251 0.863931 28.9237L0.623073 24.1741C0.481331 21.3722 2.55241 18.9722 5.25227 18.8134Z" fill="white"/>
<path d="M5.72731 33.828C4.52422 33.8269 3.36442 33.379 2.47291 32.5712C1.43666 31.6429 0.826708 30.3495 0.754593 28.9292L0.51338 24.1799C0.368085 21.322 2.49174 18.8651 5.24667 18.7027C5.32126 18.6987 5.39593 18.7094 5.46639 18.7342C5.53686 18.759 5.60174 18.7974 5.65733 18.8473C5.71626 18.9002 5.76405 18.9643 5.7979 19.0358C5.83176 19.1074 5.851 19.185 5.85449 19.264L6.56143 33.1921C6.57812 33.5193 6.33336 33.801 6.01613 33.8195C5.9195 33.8252 5.82323 33.828 5.72731 33.828ZM5.25981 18.9244C2.62567 19.0793 0.595797 21.4317 0.734697 24.1685L0.97591 28.9182C1.04696 30.2788 1.62921 31.5175 2.6207 32.406C3.56032 33.2479 4.76069 33.6717 6.00298 33.5978C6.09972 33.5896 6.18931 33.5436 6.2524 33.4698C6.31549 33.396 6.347 33.3003 6.34011 33.2035L5.63282 19.2754C5.63078 19.2256 5.6188 19.1766 5.59757 19.1315C5.57633 19.0863 5.54629 19.0459 5.50919 19.0125C5.47566 18.9821 5.4364 18.9586 5.39371 18.9435C5.35102 18.9284 5.30574 18.9219 5.26052 18.9244H5.25981Z" fill="#371A45"/>
<g opacity="0.35">
<path opacity="0.35" d="M6.25603 29.3338L6.45177 33.1978C6.45991 33.324 6.41809 33.4483 6.33534 33.544C6.2526 33.6396 6.13556 33.6989 6.00949 33.709C4.59313 33.7918 3.28405 33.2415 2.34052 32.2933C1.44963 31.3912 0.924434 30.1911 0.866248 28.9245L0.764648 26.9231C1.61972 28.634 3.38884 29.7565 5.36756 29.6404L5.85709 29.6116C5.94244 29.6055 6.02457 29.5765 6.09479 29.5276C6.16501 29.4787 6.22072 29.4117 6.25603 29.3338Z" fill="#371A45"/>
</g>
<path d="M5.72676 34.3343C4.39912 34.3337 3.11903 33.8399 2.13488 32.9488C0.998093 31.9296 0.327746 30.5115 0.248882 28.9555L0.00766928 24.2059C-0.151481 21.0715 2.18568 18.3759 5.21698 18.1976C5.35834 18.1891 5.49998 18.2088 5.63362 18.2557C5.76726 18.3025 5.89022 18.3755 5.99533 18.4704C6.10425 18.5678 6.19263 18.6859 6.25528 18.8178C6.31793 18.9498 6.35359 19.0929 6.36016 19.2388L7.06745 33.1669C7.09801 33.7708 6.64116 34.2906 6.04577 34.3254C5.9392 34.3314 5.83262 34.3343 5.72676 34.3343ZM5.13457 19.4435C2.85318 19.6637 1.11852 21.7387 1.24073 24.1441L1.48194 28.8937C1.5441 30.1186 2.0688 31.2326 2.95905 32.0301C3.74289 32.741 4.76972 33.1239 5.82765 33.0998L5.13457 19.4435Z" fill="#371A45"/>
<g opacity="0.3">
<path opacity="0.3" d="M43.4291 45.3285C42.9459 45.8021 42.4434 46.2528 41.9214 46.6805C41.2816 47.206 40.6139 47.6965 39.921 48.1498C36.2847 50.5299 31.9678 51.8817 27.3578 51.8138C22.7833 51.7428 18.5452 50.2862 15.0109 47.8351C14.4599 47.4521 13.9242 47.0446 13.4087 46.6141C12.8702 46.1641 12.3526 45.6914 11.856 45.1959C12.7853 43.8023 13.7437 42.4765 14.7036 41.2527L14.7068 41.2545C15.4382 38.4836 15.9676 36.8605 15.9676 36.8605H39.3452C39.3452 36.8605 39.9026 38.5706 40.6649 41.4751C41.5985 42.6737 42.5278 43.97 43.4291 45.3285Z" fill="#371A45"/>
</g>
<path d="M50.6428 26.1779C51.3414 13.0657 41.6726 1.89074 29.0468 1.21801C16.421 0.545272 5.61945 10.6295 4.92079 23.7417C4.22214 36.854 13.891 48.0289 26.5167 48.7016C39.1425 49.3744 49.9441 39.2902 50.6428 26.1779Z" fill="white"/>
<path d="M27.6911 48.8406C27.5792 48.8406 27.4687 48.8406 27.3565 48.8381C21.3745 48.7493 15.7499 46.2932 11.5186 41.9219C7.05423 37.3101 4.65953 31.1633 4.77498 24.6143C5.00731 11.4465 15.5105 0.888583 28.1991 1.07544C34.1815 1.16425 39.8061 3.62042 44.0374 7.99171C48.5014 12.6039 50.8965 18.7503 50.7806 25.2992L50.6698 25.2971L50.7806 25.2992C50.5504 38.3506 40.2238 48.8406 27.6911 48.8406ZM27.8648 1.29463C15.4519 1.29463 5.22508 11.687 4.99701 24.6186C4.88227 31.1079 7.25495 37.1985 11.6781 41.7677C15.8679 46.096 21.437 48.5284 27.36 48.6165C27.4702 48.6165 27.581 48.619 27.6911 48.619C40.1041 48.619 50.3305 38.227 50.559 25.2953C50.6737 18.8057 48.3007 12.7154 43.8779 8.14588C39.686 3.81758 34.1186 1.38521 28.1959 1.29711C28.0855 1.29569 27.975 1.29463 27.8648 1.29463Z" fill="#371A45"/>
<g opacity="0.35">
<path opacity="0.35" d="M50.5087 22.0034C50.6365 23.0966 50.6905 24.1972 50.6703 25.2976C50.4369 38.4253 40.0005 48.915 27.358 48.7281C14.7156 48.5413 4.65468 37.7443 4.88523 24.6166C4.89163 24.239 4.90655 23.8613 4.9307 23.4898C6.26962 35.0839 15.674 44.1348 27.2419 44.3071C39.5206 44.4883 49.7168 34.6001 50.5087 22.0034Z" fill="#371A45"/>
</g>
<path d="M27.6916 49.3473C27.5772 49.3473 27.4642 49.3473 27.3495 49.3448C21.2318 49.2538 15.4808 46.7426 11.1553 42.2754C6.5968 37.5659 4.15094 31.2912 4.26924 24.6066C4.50441 11.2792 15.0573 0.567505 27.8653 0.567505C27.9797 0.567505 28.0927 0.567503 28.2074 0.56999C34.3247 0.660932 40.0762 3.17216 44.4016 7.63937C48.9601 12.3489 51.4056 18.6235 51.2877 25.3082C51.0522 38.6356 40.4996 49.3473 27.6916 49.3473ZM27.8653 1.80127C15.7273 1.80127 5.72716 11.9719 5.50371 24.6275C5.39145 30.9815 7.71369 36.9435 12.0424 41.4154C16.138 45.6467 21.5807 48.0229 27.368 48.1103C27.4746 48.1103 27.584 48.1124 27.6912 48.1124C39.8296 48.1124 49.8298 37.9418 50.0532 25.2862C50.1655 18.9323 47.8432 12.9702 43.5142 8.49835C39.4186 4.26738 33.9762 1.89079 28.1889 1.8034C28.081 1.80198 27.9731 1.80127 27.8653 1.80127Z" fill="#371A45"/>
<path d="M50.5861 25.9064C50.5715 30.5601 49.1037 34.8785 46.6052 38.454C44.7324 41.1343 37.052 45.8293 27.5861 45.9255C18.8091 46.0154 10.8384 41.1621 8.98299 38.4842C6.42413 34.8046 5.06138 30.4259 5.08027 25.9441C5.11864 13.6334 15.3209 8.52143 27.887 8.51112C40.4531 8.50082 50.6245 13.5957 50.5861 25.9064Z" fill="#371A45"/>
<g opacity="0.5">
<path opacity="0.5" d="M46.0916 24.9043C46.4769 22.6141 45.4925 20.5393 43.8928 20.2702C42.2932 20.0011 40.684 21.6395 40.2987 23.9297C39.9134 26.2198 40.8979 28.2946 42.4975 28.5637C44.0972 28.8328 45.7063 27.1944 46.0916 24.9043Z" fill="white"/>
</g>
<g opacity="0.5">
<path opacity="0.5" d="M40.5459 33.341C40.8226 32.3192 40.3596 31.3047 39.5116 31.0751C38.6637 30.8454 37.7519 31.4876 37.4752 32.5094C37.1985 33.5312 37.6615 34.5457 38.5095 34.7753C39.3574 35.005 40.2691 34.3628 40.5459 33.341Z" fill="white"/>
</g>
<g opacity="0.35">
<path opacity="0.35" d="M46.1964 14.4254C48.9694 17.1789 50.6014 20.9619 50.5858 25.9059C50.5716 30.5596 49.1026 34.8787 46.607 38.4542C44.7335 41.1345 37.0509 45.8294 27.5865 45.9264C24.2443 45.9619 21.0198 45.2785 18.2041 44.2706C29.8384 43.8937 39.1945 38.1316 41.5171 34.8069C44.6883 30.269 46.5509 24.7854 46.5686 18.8823C46.5782 17.3885 46.4536 15.8969 46.1964 14.4254Z" fill="#111A28"/>
</g>
<path d="M6.82619 16.2376C6.71322 16.2375 6.60244 16.2064 6.50594 16.1476C6.40945 16.0889 6.33095 16.0048 6.27901 15.9044C6.22707 15.8041 6.20368 15.6914 6.2114 15.5787C6.21913 15.466 6.25767 15.3576 6.32281 15.2653C10.3637 9.12915 18.1784 5.60547 27.7665 5.59766H27.7981C37.3041 5.59766 45.0818 8.98989 49.1483 14.9101C49.2431 15.0315 49.289 15.1839 49.2772 15.3375C49.2653 15.4911 49.1964 15.6347 49.0841 15.7401C48.9718 15.8455 48.8242 15.9051 48.6701 15.9073C48.5161 15.9094 48.3669 15.8539 48.2517 15.7516L48.1948 15.7015L48.149 15.6362C44.322 10.0404 36.9055 6.83213 27.7984 6.83213H27.7675C18.5948 6.83995 11.1509 10.1661 7.34485 15.9584L7.31359 16.0017C7.2555 16.0754 7.18145 16.1349 7.09702 16.1757C7.01259 16.2166 6.91999 16.2377 6.82619 16.2376Z" fill="#371A45"/>
<g opacity="0.5">
<path opacity="0.5" d="M10.1665 33.4399C10.1665 33.4399 6.53233 21.2987 12.8507 16.4538C19.1691 11.609 28.2382 11.6225 28.0243 12.2264C28.0243 12.2264 17.9766 14.7582 14.0227 23.0028C10.9725 29.3602 10.1665 33.4399 10.1665 33.4399Z" fill="white"/>
</g>
<path d="M50.2821 59.4616C50.2054 59.4617 50.13 59.4419 50.0632 59.4042C49.9964 59.3664 49.9405 59.3121 49.901 59.2463C48.8143 57.4392 45.7148 57.3099 45.6835 57.3088C45.6252 57.307 45.5678 57.2936 45.5146 57.2696C45.4614 57.2456 45.4135 57.2113 45.3736 57.1688C45.3337 57.1262 45.3025 57.0762 45.282 57.0216C45.2614 56.967 45.2518 56.9089 45.2537 56.8505C45.2549 56.7921 45.2678 56.7345 45.2916 56.6811C45.3155 56.6277 45.3497 56.5796 45.3924 56.5397C45.4352 56.4998 45.4854 56.4688 45.5403 56.4486C45.5952 56.4284 45.6535 56.4194 45.7119 56.4221C45.8586 56.4267 49.324 56.5663 50.6608 58.7895C50.7215 58.8904 50.7395 59.0113 50.711 59.1256C50.6825 59.2398 50.6097 59.3381 50.5088 59.3987C50.4404 59.4399 50.362 59.4617 50.2821 59.4616Z" fill="#371A45"/>
<path d="M4.86204 59.4618C4.78347 59.4617 4.70632 59.4408 4.63848 59.4012C4.57064 59.3615 4.51453 59.3046 4.47589 59.2362C4.43724 59.1678 4.41744 59.0903 4.4185 59.0118C4.41956 58.9332 4.44145 58.8563 4.48193 58.789C5.81836 56.5659 9.28377 56.4262 9.43049 56.4216C9.54826 56.4177 9.66276 56.4608 9.7488 56.5413C9.83485 56.6218 9.88538 56.7332 9.88929 56.8509C9.8932 56.9687 9.85017 57.0832 9.76965 57.1693C9.68914 57.2553 9.57775 57.3058 9.45998 57.3097C9.41024 57.3097 6.32636 57.4454 5.24286 59.2473C5.20333 59.3129 5.14747 59.3671 5.08073 59.4047C5.01399 59.4423 4.93864 59.462 4.86204 59.4618Z" fill="#371A45"/>
</g>
<defs>
<clipPath id="clip0_1_503">
<rect width="56" height="105" fill="white"/>
</clipPath>
</defs>
</svg>
