<svg width="62" height="105" viewBox="0 0 62 105" fill="none" xmlns="http://www.w3.org/2000/svg">
<g clip-path="url(#clip0_1_579)">
<path d="M49.5311 53.9302C52.4898 57.7356 52.4785 72.4434 53.5169 83.3424C54.1423 89.9075 56.9758 94.5386 55.9062 96.1311C53.6161 99.5428 47.4194 95.176 35.9107 95.176H35.9153C24.4083 95.176 19.2413 99.6883 16.9499 96.2766C15.9754 94.8248 18.0322 91.3529 18.3321 85.6192C18.9068 74.6363 19.2619 58.3743 23.2008 53.3175L49.5311 53.9302Z" fill="#FF5555"/>
<g opacity="0.5">
<path opacity="0.5" d="M16.9515 96.2755C19.2413 99.6869 24.4089 95.1772 35.914 95.1752C47.419 95.1732 53.6177 99.5424 55.9061 96.1311C56.9745 94.5405 54.1422 89.9074 53.5152 83.3437C52.7584 75.4077 52.56 65.4519 51.3652 59.156C51.9031 65.7208 51.5779 75.5881 52.3903 82.1981C53.3751 90.211 55.6186 93.6223 54.9446 94.8387C52.7813 98.742 46.8765 93.7491 35.9383 93.7478C25 93.7464 20.088 98.9011 17.9107 95.0055C16.9848 93.3467 18.8076 91.2683 19.0932 84.7215C19.3787 78.1684 19.7382 68.0808 20.4244 60.9233C19.0146 68.1024 18.7237 78.0992 18.3307 85.6204C18.0338 91.3525 15.977 94.8231 16.9515 96.2755Z" fill="white"/>
</g>
<g opacity="0.25">
<path opacity="0.25" d="M48.0848 56.3019C50.717 59.6873 50.7071 72.7733 51.631 82.4698C52.1877 88.3107 54.7085 92.4317 53.7583 93.8471C51.7208 96.8827 46.2061 92.9974 35.9684 92.9974H35.9704C25.7326 92.9974 21.1345 97.0122 19.0966 93.9769C18.2313 92.6849 20.0595 89.5964 20.3281 84.495C20.8393 74.7229 21.1551 60.2551 24.6596 55.7565" fill="#371A45"/>
</g>
<path d="M19.5429 98.0614C20.7497 98.0614 22.2118 97.7146 23.9621 97.2992C26.8283 96.6189 30.7535 95.6877 35.9141 95.6874C40.9303 95.6874 44.8755 96.5154 48.0459 97.1807C52.1488 98.0421 54.8596 98.6118 56.3329 96.4153C57.0202 95.3912 56.5226 93.7338 55.7692 91.2254C55.1252 89.0807 54.3237 86.4119 54.0265 83.2934C53.7566 80.4595 53.5543 77.312 53.3582 74.2678C52.7725 65.1576 52.2194 56.5527 49.9352 53.6153C49.8518 53.508 49.7292 53.4383 49.5944 53.4215C49.4596 53.4046 49.3236 53.442 49.2164 53.5254C49.1091 53.6088 49.0394 53.7314 49.0226 53.8663C49.0057 54.0011 49.0431 54.1371 49.1265 54.2443C51.2169 56.9328 51.786 65.779 52.3358 74.3337C52.5322 77.3853 52.7352 80.541 53.0068 83.3906C53.3133 86.6099 54.131 89.3323 54.788 91.5199C55.3848 93.5065 55.9 95.2221 55.4823 95.8445C54.4399 97.3971 52.4011 97.0479 48.2559 96.1773C45.0399 95.5023 41.0378 94.6623 35.9168 94.6617C35.9152 94.662 35.9136 94.662 35.9121 94.6617C30.6327 94.6617 26.6402 95.6095 23.7254 96.3011C20.0528 97.1724 18.3867 97.4946 17.3767 95.9893C16.9923 95.4165 17.3151 94.0922 17.7241 92.4195C18.1588 90.6393 18.6996 88.4237 18.845 85.644C18.9043 84.5125 18.9608 83.3277 19.0198 82.1036C19.5333 71.3823 20.1723 58.0391 23.6063 53.6306C23.649 53.5777 23.6808 53.5168 23.6998 53.4514C23.7187 53.3861 23.7245 53.3176 23.7167 53.2501C23.7089 53.1825 23.6877 53.1171 23.6544 53.0578C23.6211 52.9985 23.5763 52.9464 23.5226 52.9046C23.4689 52.8628 23.4074 52.8321 23.3418 52.8143C23.2761 52.7965 23.2076 52.792 23.1401 52.801C23.0727 52.81 23.0077 52.8323 22.949 52.8667C22.8903 52.9011 22.839 52.9468 22.7982 53.0012C19.1645 57.6656 18.5169 71.1886 17.9963 82.056C17.9378 83.2784 17.8809 84.4629 17.822 85.5921C17.6815 88.2753 17.1533 90.4392 16.7287 92.1779C16.2234 94.247 15.8896 95.6138 16.526 96.5617C17.2715 97.6713 18.2649 98.0614 19.5429 98.0614Z" fill="#371A45"/>
<path d="M23.8232 53.9302C23.8232 53.9302 19.3575 63.3319 14.0478 65.4416C10.3036 66.9293 5.56103 66.9962 5.56103 66.9962V75.0666C5.56103 75.0666 11.6046 77.1403 16.6015 75.6577C20.7474 74.4262 22.8201 69.6464 22.8201 69.6464" fill="white"/>
<g opacity="0.35">
<path opacity="0.35" d="M5.56219 66.9236V74.9944C5.56219 74.9944 11.6054 77.0678 16.6027 75.5861C20.7479 74.3547 22.8213 69.5748 22.8213 69.5748L21.7633 65.4253C21.7633 65.4253 20.5522 70.5506 16.6922 72.4996C10.7348 75.5066 9.66013 70.4302 9.66013 70.4302L7.84562 66.7692C6.48807 66.91 5.56219 66.9236 5.56219 66.9236Z" fill="#371A45"/>
</g>
<path d="M12.5456 76.7071C13.9248 76.7071 15.3696 76.5566 16.7478 76.1476C21.0744 74.8643 23.202 70.0534 23.2906 69.8494C23.341 69.7254 23.3408 69.5866 23.2902 69.4627C23.2395 69.3387 23.1424 69.2396 23.0196 69.1863C22.8968 69.133 22.758 69.13 22.633 69.1777C22.5079 69.2254 22.4065 69.3202 22.3504 69.4417C22.3307 69.487 20.3175 74.0196 16.4566 75.1661C12.3393 76.3879 7.40766 75.0893 6.07273 74.6902V67.4914C7.41065 67.4302 11.1252 67.1536 14.2364 65.9175C19.6709 63.7579 24.0996 54.5413 24.2874 54.1499C24.3457 54.0271 24.3528 53.8863 24.3073 53.7583C24.2617 53.6303 24.1671 53.5256 24.0444 53.4673C23.9217 53.409 23.7808 53.4018 23.6528 53.4474C23.5248 53.4929 23.4201 53.5875 23.3618 53.7102C23.3182 53.8024 18.9197 62.9545 13.8596 64.9654C10.2502 66.3995 5.60148 66.483 5.55488 66.4837L5.05033 66.491V75.4301L5.39646 75.5489C5.58018 75.6134 8.82545 76.7071 12.5456 76.7071Z" fill="#371A45"/>
<path d="M6.48737 38.722C5.65251 38.722 4.97573 38.0452 4.97573 37.2104C4.97573 36.3755 5.65251 35.6987 6.48737 35.6987C7.32223 35.6987 7.99902 36.3755 7.99902 37.2104C7.99902 38.0452 7.32223 38.722 6.48737 38.722Z" fill="#FFD516"/>
<path d="M4.9764 37.2106C4.9764 37.5095 5.06504 37.8017 5.2311 38.0502C5.39717 38.2987 5.6332 38.4924 5.90936 38.6068C6.18552 38.7212 6.48939 38.7511 6.78255 38.6928C7.07572 38.6345 7.34501 38.4906 7.55637 38.2792C7.76773 38.0679 7.91167 37.7986 7.96998 37.5054C8.0283 37.2122 7.99837 36.9084 7.88398 36.6322C7.76959 36.356 7.57588 36.12 7.32735 35.9539C7.07882 35.7879 6.78662 35.6992 6.48771 35.6992C6.28894 35.6982 6.09195 35.7366 5.90811 35.8121C5.72427 35.8877 5.55725 35.999 5.4167 36.1395C5.27615 36.2801 5.16486 36.4471 5.08928 36.6309C5.01371 36.8148 4.97534 37.0118 4.9764 37.2106Z" fill="#FFD516"/>
<g opacity="0.35">
<path opacity="0.35" d="M5.14799 37.9113C5.27599 38.1559 5.4685 38.3607 5.70464 38.5036C5.94078 38.6466 6.21154 38.7221 6.48757 38.7221C6.7636 38.7221 7.03436 38.6466 7.2705 38.5036C7.50664 38.3607 7.69915 38.1559 7.82715 37.9113C7.69915 37.6667 7.50664 37.4619 7.2705 37.319C7.03436 37.176 6.7636 37.1005 6.48757 37.1005C6.21154 37.1005 5.94078 37.176 5.70464 37.319C5.4685 37.4619 5.27599 37.6667 5.14799 37.9113Z" fill="#371A45"/>
</g>
<path d="M6.48789 39.1534C6.87184 39.1534 7.24718 39.0395 7.56643 38.8262C7.88567 38.6129 8.13449 38.3097 8.28142 37.955C8.42836 37.6002 8.4668 37.2099 8.3919 36.8333C8.31699 36.4568 8.1321 36.1108 7.8606 35.8393C7.58911 35.5679 7.2432 35.383 6.86662 35.3081C6.49004 35.2331 6.09972 35.2716 5.74499 35.4185C5.39026 35.5655 5.08707 35.8143 4.87375 36.1335C4.66044 36.4528 4.54659 36.8281 4.54659 37.2121C4.54711 37.7268 4.75182 38.2202 5.11577 38.5842C5.47972 38.9481 5.97318 39.1528 6.48789 39.1534ZM6.48789 36.1304C6.70191 36.1303 6.91115 36.1938 7.08913 36.3126C7.26712 36.4315 7.40585 36.6005 7.48778 36.7982C7.56971 36.9959 7.59117 37.2135 7.54944 37.4234C7.5077 37.6333 7.40464 37.8261 7.2533 37.9775C7.10196 38.1288 6.90914 38.2319 6.69923 38.2736C6.48932 38.3153 6.27174 38.2939 6.07402 38.2119C5.8763 38.13 5.70732 37.9913 5.58845 37.8133C5.46959 37.6353 5.40618 37.4261 5.40624 37.2121C5.40615 36.925 5.52003 36.6497 5.72285 36.4465C5.92567 36.2434 6.20084 36.1291 6.48789 36.1287V36.1304Z" fill="#371A45"/>
<path d="M51.0752 68.6128C51.0635 68.6244 51.0519 68.6361 51.0419 68.648C44.5164 75.3146 48.3621 82.3237 53.4342 81.2893C58.5139 80.2533 56.9683 75.4341 56.9683 75.4341C69.8586 67.2283 51.0752 57.1253 51.0752 57.1253C47.5267 55.1664 43.8744 53.928 43.8744 53.928L46.1678 60.9397L47.9897 66.511C50.4518 67.5807 51.0752 68.6128 51.0752 68.6128Z" fill="white"/>
<g opacity="0.35">
<path opacity="0.35" d="M47.4462 61.9795L47.9897 66.5124C50.4525 67.5808 51.0752 68.6128 51.0752 68.6128C51.0636 68.6245 51.0519 68.6361 51.0419 68.6481C51.7019 68.1033 52.5875 67.4809 53.5171 67.1321C53.5171 67.1321 51.8031 66.1909 51.2313 65.518C48.7652 62.6152 49.4008 60.8919 47.0818 61.1881C46.7174 61.2347 47.2056 61.4813 47.4462 61.9795Z" fill="#371A45"/>
</g>
<path d="M52.4563 81.9009C52.819 81.9005 53.1807 81.8636 53.536 81.7908C55.204 81.4506 56.3948 80.6891 57.0751 79.5276C57.9298 78.0682 57.7155 76.4031 57.5557 75.6636C60.5966 73.6411 62.0903 71.3154 61.9958 68.7471C61.7628 62.3637 51.7451 56.9049 51.3188 56.6755C47.7753 54.7203 44.0764 53.4579 44.0394 53.4453C43.9108 53.4016 43.7701 53.4108 43.6482 53.471C43.5264 53.5311 43.4334 53.6371 43.3898 53.7658C43.3461 53.8944 43.3554 54.0351 43.4155 54.157C43.4756 54.2788 43.5816 54.3718 43.7103 54.4154C43.7466 54.4277 47.3626 55.6628 50.8285 57.5751C50.9327 57.6311 60.76 62.9874 60.972 68.7853C61.0549 71.0508 59.6155 73.1422 56.6934 75.0023L56.3606 75.2147L56.481 75.5907C56.4867 75.6087 57.0725 77.5134 56.1878 79.0161C55.6603 79.9127 54.6992 80.5087 53.3316 80.7876C51.4499 81.1707 49.6989 80.335 48.7604 78.6057C47.5919 76.4524 47.6824 72.7908 51.4416 68.9721L51.7211 68.6882L51.5144 68.3474C51.4509 68.2419 50.8285 67.2877 48.6752 66.2623C48.6145 66.2334 48.5486 66.2167 48.4814 66.2132C48.4142 66.2098 48.347 66.2196 48.2836 66.2421C48.2202 66.2646 48.1619 66.2994 48.1119 66.3445C48.0619 66.3895 48.0213 66.444 47.9924 66.5047C47.9635 66.5655 47.9469 66.6313 47.9434 66.6985C47.9399 66.7657 47.9497 66.8329 47.9723 66.8963C47.9948 66.9597 48.0296 67.0181 48.0746 67.068C48.1197 67.118 48.1741 67.1586 48.2349 67.1875C49.4214 67.7533 50.0694 68.2805 50.3859 68.593C46.5585 72.6923 46.5525 76.685 47.8598 79.0943C48.8233 80.8695 50.5566 81.9006 52.4563 81.9009Z" fill="#371A45"/>
<path d="M56.7544 75.0308C56.5548 75.1516 56.3477 75.2834 56.1444 75.4132L55.53 75.8056L54.909 76.1966C54.7003 76.3277 54.489 76.4542 54.2723 76.5857C54.5251 76.5762 54.777 76.5485 55.0258 76.5028C55.2744 76.4579 55.52 76.401 55.762 76.3341C56.0039 76.2672 56.2452 76.1963 56.4805 76.1114C56.7158 76.0265 56.9491 75.9423 57.1831 75.8352L56.7544 75.0308Z" fill="#371A45"/>
<g opacity="0.3">
<path opacity="0.3" d="M53.4341 81.2876C58.454 80.2655 57.0046 75.5465 56.9713 75.4347C56.9713 75.4347 56.0997 80.1061 51.5621 78.8247C48.6602 78.0037 48.9055 73.9141 49.4597 71.0735C49.4107 70.9611 49.3702 70.8451 49.3385 70.7267C45.3288 76.6837 48.8889 82.2158 53.4341 81.2876Z" fill="#421861"/>
</g>
<path d="M60.3591 72.7569C60.4608 72.7569 60.5583 72.7166 60.6303 72.6448C60.7023 72.573 60.7429 72.4756 60.7432 72.3739C60.7468 70.9381 59.552 69.4488 57.6996 68.5798C55.5942 67.592 52.3955 67.3294 49.73 69.5556C49.6518 69.6209 49.6027 69.7146 49.5936 69.8161C49.5845 69.9176 49.6161 70.0186 49.6814 70.0968C49.7467 70.175 49.8404 70.224 49.9419 70.2331C50.0434 70.2422 50.1443 70.2107 50.2225 70.1453C52.6108 68.1505 55.481 68.3878 57.3734 69.2754C58.9566 70.0182 59.9777 71.2337 59.9747 72.3705C59.9746 72.421 59.9844 72.471 60.0036 72.5177C60.0228 72.5643 60.051 72.6068 60.0866 72.6425C60.1222 72.6783 60.1645 72.7067 60.2111 72.7261C60.2577 72.7455 60.3076 72.7555 60.3581 72.7556L60.3591 72.7569Z" fill="#371A45"/>
<path d="M51.208 68.9735C51.3704 68.8011 51.5535 68.6233 51.7335 68.4539C51.9136 68.2845 52.1016 68.1168 52.2927 67.9547C52.6757 67.6329 53.0751 67.3277 53.5171 67.0741C53.0179 67.1859 52.531 67.3646 52.0527 67.566C51.8151 67.6681 51.5793 67.7761 51.3455 67.8902C51.1105 68.0053 50.8832 68.1205 50.6466 68.2563L51.208 68.9735Z" fill="#371A45"/>
<path d="M18.2985 101.511C18.3074 101.591 18.3178 101.669 18.3317 101.746C18.7468 104.086 21.6203 104.921 26.7929 104.278C29.1366 103.986 32.3742 103.64 33.2282 101.861C34.9329 98.3117 33.1949 90.2293 33.3946 85.6254V85.6178C34.7969 85.7664 36.211 85.7664 37.6134 85.6178C37.6134 85.6551 37.6157 85.6933 37.617 85.7306C37.7911 90.3381 36.0891 98.3373 37.7811 101.861C38.6351 103.64 41.8727 103.986 44.2164 104.278C49.3953 104.921 52.2705 104.085 52.6799 101.739C52.6929 101.664 52.7045 101.589 52.7132 101.511C53.0127 98.6521 48.8302 97.3242 48.8302 97.3242C48.8302 97.3242 49.7418 90.3601 50.3425 84.8853C50.6244 82.3126 50.664 79.4567 50.5422 76.5176C50.4756 74.9551 50.3668 73.3695 50.222 71.7893C49.8636 67.8348 49.2962 63.9196 48.7124 60.5132C48.6558 60.1841 48.5996 59.8589 48.5433 59.5401C48.3959 58.7081 48.2488 57.9136 48.1053 57.1605C47.5788 54.3981 47.0962 52.2045 46.8094 50.9518C46.6376 50.204 46.5351 49.7903 46.5351 49.7903H24.4772C24.4772 49.7903 24.3863 50.159 24.2325 50.8303C23.9663 51.9765 23.5167 54.0074 23.0148 56.593C22.8264 57.5715 22.6294 58.6308 22.4307 59.7501C22.3375 60.2839 22.2441 60.8312 22.1504 61.3919C21.6213 64.5832 21.1187 68.1663 20.7889 71.783C20.6455 73.3606 20.5343 74.9448 20.4701 76.5047C20.3473 79.4491 20.3855 82.3086 20.6698 84.8853C21.2715 90.3601 22.1821 97.3242 22.1821 97.3242C22.1821 97.3242 18.0009 98.6521 18.2985 101.511Z" fill="white"/>
<g opacity="0.35">
<path opacity="0.35" d="M42.8647 83.4993C42.8647 83.4993 38.9708 84.1256 35.9635 84.1256C32.9562 84.1256 28.1424 83.4993 28.1424 83.4993C28.1424 83.4993 31.0322 85.7135 35.6397 85.6183C40.3636 85.5205 42.8647 83.4993 42.8647 83.4993Z" fill="#371A45"/>
</g>
<path d="M21.4153 65.0359C21.1071 66.3582 20.8628 67.6928 20.6565 69.0334C20.4501 70.3739 20.2904 71.7218 20.1632 73.0737C19.9015 75.7833 19.8085 78.5066 19.8847 81.2277C19.9313 82.5889 20.0321 83.9608 20.1945 85.3113L20.6937 89.3384L21.6729 97.3925L22.0257 96.8377C21.7977 96.9136 21.6063 96.9901 21.403 97.0763C21.1996 97.1625 21.0066 97.2534 20.8126 97.3512C20.4206 97.5486 20.0445 97.7759 19.6877 98.0312C19.3192 98.2933 18.9821 98.5968 18.6829 98.9358C18.3834 99.2872 18.1198 99.6923 17.9573 100.154C17.7934 100.617 17.7374 101.112 17.7936 101.6C17.8221 101.839 17.8728 102.074 17.945 102.304C18.0217 102.537 18.1249 102.762 18.2525 102.972C18.5107 103.387 18.8568 103.739 19.2663 104.004C19.66 104.27 20.0857 104.447 20.511 104.585C21.3657 104.854 22.2294 104.951 23.0804 104.987C23.9251 105.017 24.7709 104.993 25.6128 104.917C26.0314 104.884 26.4471 104.836 26.8625 104.787L28.0939 104.63C28.9196 104.516 29.7536 104.382 30.5857 104.156C31.0097 104.044 31.4244 103.899 31.8261 103.723C32.2338 103.538 32.6381 103.307 33.0016 102.986C33.1865 102.821 33.351 102.634 33.4918 102.429C33.5632 102.324 33.6275 102.214 33.6842 102.1L33.8213 101.786C33.9848 101.375 34.1121 100.95 34.2017 100.517C34.5455 98.812 34.5212 97.1266 34.46 95.4645C34.3894 93.8004 34.2396 92.154 34.1085 90.5149C34.042 89.6955 33.981 88.8784 33.9384 88.0644C33.9181 87.6573 33.9018 87.2513 33.8958 86.8473C33.8865 86.4372 33.8939 86.0565 33.9078 85.6202L33.3354 86.1291C33.7078 86.17 34.0596 86.1956 34.422 86.2146C34.7845 86.2336 35.1429 86.2435 35.5047 86.2439C35.8664 86.2442 36.2276 86.2336 36.5873 86.2146C36.9471 86.1956 37.3019 86.17 37.674 86.1291L37.1019 85.6391C37.1614 87.2433 37.0286 88.8768 36.9022 90.5149C36.7757 92.153 36.6213 93.8011 36.5514 95.4648C36.4908 97.1272 36.4665 98.8123 36.81 100.517C36.8999 100.95 37.0272 101.375 37.1904 101.787L37.3278 102.1C37.3846 102.214 37.4488 102.324 37.5202 102.43C37.661 102.634 37.8255 102.821 38.0104 102.986C38.3739 103.307 38.7782 103.539 39.1859 103.723C39.5877 103.899 40.0024 104.044 40.4263 104.156C41.2584 104.382 42.0924 104.516 42.9185 104.63L44.1499 104.787C44.5652 104.836 44.9819 104.884 45.3996 104.917C46.2415 104.993 47.0872 105.016 47.932 104.987C48.783 104.949 49.6466 104.854 50.5013 104.584C50.9266 104.447 51.3523 104.269 51.746 104.004C52.1553 103.738 52.5014 103.386 52.7598 102.972C52.8869 102.761 52.99 102.537 53.067 102.303C53.139 102.074 53.1896 101.838 53.2181 101.6C53.2743 101.111 53.2182 100.616 53.054 100.153C52.8913 99.6916 52.627 99.2876 52.3281 98.9351C52.029 98.5954 51.6918 98.2911 51.3234 98.0282C50.9665 97.7732 50.5905 97.5461 50.1988 97.3489C50.0044 97.2511 49.8075 97.1594 49.608 97.074C49.4047 96.9878 49.2133 96.9113 48.9853 96.8354L49.3381 97.3902L50.4005 88.6581L50.6667 86.4752C50.7513 85.7453 50.8554 85.0264 50.9147 84.2826C51.0498 82.8053 51.1176 81.3275 51.118 79.8492C51.123 78.3728 51.0807 76.8981 51.0085 75.4267C50.926 73.956 50.8484 72.4846 50.7003 71.0203C50.5659 69.5559 50.3773 68.0973 50.1345 66.6444C49.8886 65.1943 49.5957 63.7523 49.187 62.3325C49.1753 62.2922 49.1493 62.2577 49.1138 62.2353C49.0784 62.2129 49.0361 62.2042 48.9947 62.2108C48.9533 62.2174 48.9158 62.2389 48.8891 62.2712C48.8624 62.3035 48.8485 62.3445 48.8499 62.3864C48.9021 63.8601 49.0329 65.3152 49.1717 66.7709C49.3165 68.2246 49.4556 69.6764 49.6107 71.1261C49.7518 72.5772 49.8896 74.0282 49.9728 75.4823C50.0657 76.936 50.0926 78.3914 50.0919 79.8442C50.0913 81.2969 50.0254 82.7477 49.8923 84.1874C49.8357 84.9043 49.7302 85.6358 49.6463 86.3607L49.3801 88.54L48.3194 97.2574L48.2681 97.6777L48.6725 97.8109C48.8352 97.8648 49.0273 97.9397 49.203 98.0149C49.3787 98.0901 49.5588 98.174 49.7325 98.2615C50.0781 98.4351 50.4097 98.6353 50.7243 98.8602C51.0279 99.0758 51.3062 99.3252 51.5537 99.6034C51.7866 99.8786 51.9783 100.177 52.0895 100.494C52.2014 100.81 52.2395 101.148 52.201 101.481C52.18 101.652 52.1441 101.82 52.0935 101.984C52.0413 102.142 51.9717 102.293 51.8862 102.436C51.5453 103.001 50.907 103.383 50.1888 103.606C49.4706 103.83 48.6811 103.928 47.889 103.962C47.0867 103.99 46.2834 103.967 45.4838 103.895C45.0808 103.864 44.6781 103.817 44.2753 103.77L43.0556 103.614C42.2502 103.504 41.4534 103.374 40.6949 103.167C39.9431 102.961 39.2059 102.674 38.6917 102.22C38.5695 102.111 38.4605 101.987 38.3669 101.853C38.3227 101.787 38.2829 101.72 38.2477 101.649L38.1376 101.397C37.9973 101.042 37.888 100.676 37.8108 100.302C37.4992 98.769 37.5112 97.1286 37.5735 95.5054C37.642 93.8763 37.7908 92.2402 37.9222 90.5951C38.0537 88.95 38.1885 87.2909 38.1253 85.5992L38.1053 85.0487L37.5532 85.1096C37.2253 85.1456 36.8745 85.1715 36.5337 85.1895C36.1929 85.2075 35.8468 85.2168 35.5043 85.2175C35.1619 85.2181 34.8184 85.2078 34.4753 85.1895C34.1321 85.1712 33.7834 85.1456 33.4555 85.1096L32.9031 85.0487L32.8831 85.6182C32.8694 86.0052 32.8615 86.4482 32.8711 86.8619C32.8774 87.2816 32.8941 87.6989 32.915 88.1146C32.9583 88.9467 33.0209 89.772 33.0868 90.5948C33.2199 92.2402 33.3673 93.8763 33.4359 95.5054C33.4988 97.1286 33.5111 98.769 33.1993 100.302C33.1223 100.675 33.0131 101.042 32.8728 101.396L32.7626 101.649C32.7274 101.719 32.6876 101.787 32.6435 101.852C32.5498 101.986 32.4407 102.109 32.3186 102.218C31.8048 102.672 31.0673 102.959 30.3154 103.165C29.5569 103.372 28.7602 103.502 27.9548 103.612L26.735 103.768C26.3323 103.815 25.9296 103.862 25.5269 103.894C24.7273 103.966 23.924 103.988 23.1216 103.96C22.3295 103.927 21.5408 103.833 20.8216 103.605C20.1023 103.377 19.4667 103 19.1259 102.434C19.0402 102.292 18.9706 102.141 18.9185 101.983C18.868 101.819 18.832 101.651 18.811 101.48C18.7722 101.147 18.8102 100.809 18.9222 100.493C19.033 100.176 19.2244 99.8773 19.4573 99.6021C19.7053 99.324 19.9841 99.0751 20.2884 98.8602C20.602 98.6362 20.9325 98.4367 21.2768 98.2635C21.4506 98.1758 21.627 98.0936 21.806 98.0169C21.9817 97.9416 22.1721 97.8668 22.3369 97.8129L22.7409 97.6797L22.6896 97.2594L21.7125 89.2192L21.2346 85.1978C21.0818 83.8646 21.0059 82.5377 20.9733 81.1984C20.9407 79.8592 20.9543 78.5202 20.9989 77.1797C21.0371 75.8389 21.1019 74.4975 21.1933 73.1556C21.2352 72.4846 21.2816 71.8137 21.3324 71.1427L21.4792 69.1279C21.579 67.784 21.6819 66.4381 21.7534 65.0852C21.7559 65.0423 21.7421 65.0001 21.7149 64.9668C21.6877 64.9336 21.649 64.9118 21.6065 64.9057C21.564 64.8997 21.5208 64.9098 21.4854 64.9341C21.4499 64.9584 21.4249 64.9951 21.4153 65.0369V65.0359Z" fill="#371A45"/>
<path d="M24.478 50.3026H46.5356C46.6715 50.3026 46.8018 50.2486 46.8978 50.1526C46.9939 50.0565 47.0479 49.9262 47.0479 49.7904C47.0479 49.6546 46.9939 49.5243 46.8978 49.4282C46.8018 49.3322 46.6715 49.2782 46.5356 49.2782H24.478C24.3422 49.2782 24.2119 49.3322 24.1158 49.4282C24.0198 49.5243 23.9658 49.6546 23.9658 49.7904C23.9658 49.9262 24.0198 50.0565 24.1158 50.1526C24.2119 50.2486 24.3422 50.3026 24.478 50.3026Z" fill="#371A45"/>
<g opacity="0.35">
<path opacity="0.35" d="M37.7827 101.862C38.6374 103.641 41.8743 103.986 44.2173 104.278C49.3969 104.922 52.2715 104.086 52.6812 101.738C48.4408 103.345 40.9661 102.427 39.6884 100.389C38.0333 97.7487 37.7651 95.1098 40.3391 91.8203C42.913 88.5307 43.1111 83.3422 43.1111 83.3422C41.8797 84.2075 39.3503 85.1444 37.6196 85.7304C37.7924 90.3379 36.0907 98.3375 37.7827 101.862Z" fill="#371A45"/>
</g>
<g opacity="0.35">
<path opacity="0.35" d="M18.3336 101.746C18.7477 104.087 21.6218 104.922 26.7945 104.278C29.1375 103.986 32.3761 103.641 33.2304 101.862C34.9351 98.3112 33.1948 90.2291 33.3968 85.6259C31.9634 85.1979 29.3095 84.323 27.9117 83.3422C27.9117 83.3422 27.2075 87.326 30.2051 91.5454C32.6237 94.9504 32.8011 97.6592 31.1447 100.298C29.9712 102.17 22.9947 102.939 18.3336 101.746Z" fill="#371A45"/>
</g>
<path d="M26.6568 93.9123C28.491 93.9123 30.8606 93.5702 33.8829 92.5844C34.0121 92.5422 34.1192 92.4505 34.1808 92.3294C34.2423 92.2082 34.2532 92.0676 34.2111 91.9384C34.1689 91.8092 34.0772 91.7021 33.956 91.6405C33.8349 91.579 33.6942 91.5681 33.5651 91.6102C24.6323 94.524 21.9029 91.5207 21.8763 91.4901C21.8332 91.4385 21.7803 91.3958 21.7207 91.3646C21.6611 91.3334 21.5959 91.3142 21.5289 91.3082C21.4619 91.3022 21.3944 91.3094 21.3302 91.3295C21.266 91.3496 21.2064 91.3821 21.1547 91.4252C21.1031 91.4683 21.0605 91.5212 21.0293 91.5808C20.998 91.6404 20.9789 91.7055 20.9729 91.7725C20.9668 91.8395 20.9741 91.9071 20.9941 91.9713C21.0142 92.0355 21.0467 92.0951 21.0898 92.1467C21.174 92.2486 22.6138 93.9123 26.6568 93.9123Z" fill="#371A45"/>
<path d="M44.8161 94.1304C46.7391 94.1304 48.5872 93.7866 49.771 92.7426C49.8224 92.6984 49.8645 92.6444 49.8949 92.5838C49.9253 92.5232 49.9433 92.4572 49.948 92.3896C49.9527 92.3219 49.9439 92.2541 49.9221 92.1899C49.9004 92.1257 49.8661 92.0664 49.8213 92.0156C49.7765 91.9647 49.722 91.9233 49.661 91.8936C49.6001 91.864 49.5338 91.8467 49.4662 91.8429C49.3985 91.839 49.3307 91.8486 49.2668 91.8711C49.2029 91.8937 49.1441 91.9287 49.0937 91.9741C46.1264 94.5904 37.5081 91.8975 37.4213 91.8703C37.2918 91.8292 37.1513 91.8412 37.0306 91.9037C36.91 91.9662 36.8192 92.0741 36.7781 92.2036C36.737 92.3331 36.749 92.4736 36.8116 92.5942C36.8741 92.7148 36.9819 92.8056 37.1114 92.8467C37.3567 92.9246 41.2167 94.1304 44.8161 94.1304Z" fill="#371A45"/>
<path d="M37.6972 86.1238C37.9758 86.0819 38.2191 86.0283 38.4734 85.9647C38.7276 85.9012 38.9726 85.8289 39.2162 85.7474C39.7059 85.588 40.1846 85.3968 40.6493 85.175C40.8823 85.0678 41.1112 84.9486 41.3376 84.8278C41.5595 84.697 41.7852 84.5756 42.0002 84.4344C42.4382 84.1682 42.8386 83.8291 43.1351 83.3778C43.1418 83.3676 43.1441 83.3551 43.1416 83.3432C43.1391 83.3313 43.132 83.3208 43.1218 83.3142C43.117 83.3109 43.1115 83.3086 43.1058 83.3075C43.1001 83.3063 43.0942 83.3064 43.0885 83.3075H43.0865C42.554 83.4114 42.1137 83.6114 41.6647 83.8068C41.2204 84.0064 40.7661 84.1782 40.3068 84.3393C40.0779 84.4198 39.8462 84.492 39.6166 84.5676L38.92 84.7719C38.687 84.8348 38.4541 84.8974 38.2211 84.955C37.9881 85.0125 37.7475 85.0688 37.5345 85.1137L37.5162 85.1177C37.3866 85.146 37.2729 85.2234 37.1993 85.3337C37.1256 85.4441 37.0976 85.5787 37.1212 85.7092C37.1448 85.8398 37.2181 85.9561 37.3258 86.0337C37.4334 86.1113 37.5669 86.144 37.6982 86.1251L37.6972 86.1238Z" fill="#371A45"/>
<path d="M33.4899 85.1122C33.2769 85.0673 33.0333 85.0094 32.803 84.9535C32.5727 84.8976 32.337 84.8333 32.1041 84.7704L31.4078 84.5661C31.1778 84.4905 30.9462 84.4183 30.7176 84.3378C30.2596 84.1777 29.804 84.0049 29.3594 83.8053C28.9104 83.6106 28.4697 83.4105 27.9376 83.306H27.9359C27.93 83.3049 27.9239 83.3049 27.918 83.3061C27.9121 83.3073 27.9064 83.3096 27.9014 83.313C27.8964 83.3164 27.8921 83.3207 27.8888 83.3257C27.8854 83.3307 27.8831 83.3364 27.882 83.3423C27.8801 83.3538 27.8824 83.3657 27.8886 83.3756C28.1852 83.8269 28.5876 84.1674 29.0239 84.4323C29.2389 84.5734 29.4645 84.6949 29.6865 84.8257C29.9128 84.9465 30.1411 85.0656 30.3748 85.1728C30.8395 85.3947 31.3182 85.5859 31.8079 85.7452C32.0522 85.8268 32.3004 85.8977 32.5507 85.9626C32.801 86.0275 33.0499 86.0797 33.3265 86.1216C33.4577 86.1407 33.5912 86.108 33.6989 86.0306C33.8065 85.9532 33.88 85.8371 33.9038 85.7067C33.9276 85.5762 33.8999 85.4416 33.8265 85.3312C33.7531 85.2208 33.6397 85.1431 33.5102 85.1145L33.4899 85.1122Z" fill="#371A45"/>
<path d="M48.9168 96.8198C48.5909 96.7611 48.2622 96.7189 47.932 96.6933C47.6065 96.666 47.281 96.6497 46.9545 96.6481C46.628 96.6464 46.3022 96.6481 45.9761 96.6717C45.6499 96.686 45.3241 96.7249 44.9996 96.7642C44.3484 96.8564 43.7065 97.0052 43.0812 97.2088C42.4599 97.4232 41.8561 97.7477 41.4098 98.2489C41.402 98.2578 41.3979 98.2694 41.3986 98.2813C41.3993 98.2931 41.4047 98.3042 41.4135 98.3121C41.4187 98.3167 41.4248 98.32 41.4314 98.3218C41.4381 98.3236 41.445 98.3238 41.4518 98.3224H41.4541C42.1048 98.1893 42.6785 98.0339 43.2729 97.8948C43.8716 97.7768 44.4776 97.7 45.0868 97.6648C45.3933 97.6575 45.6978 97.6415 46.005 97.6452C46.1578 97.6428 46.3112 97.6452 46.4646 97.6528C46.6181 97.6605 46.7708 97.6581 46.9242 97.6685C47.2304 97.6844 47.537 97.7034 47.8418 97.732C48.1467 97.7607 48.4585 97.7919 48.7404 97.8295L48.7571 97.8315C48.8912 97.8526 49.0282 97.8194 49.1378 97.7394C49.2475 97.6594 49.321 97.5392 49.342 97.405C49.363 97.2709 49.3299 97.1339 49.2499 97.0242C49.1699 96.9146 49.0496 96.8411 48.9155 96.8201L48.9168 96.8198Z" fill="#371A45"/>
<path d="M22.2686 97.8286C22.5515 97.791 22.8676 97.7571 23.1672 97.7311C23.4667 97.7052 23.7785 97.6835 24.0847 97.6675C24.2382 97.6572 24.3913 97.6556 24.5447 97.6519C24.6981 97.6482 24.8512 97.6419 25.0043 97.6443C25.3112 97.6406 25.6157 97.6566 25.9225 97.6639C26.5316 97.6991 27.1375 97.7759 27.736 97.8939C28.3305 98.033 28.9042 98.1887 29.5552 98.3215H29.5569C29.5626 98.3227 29.5686 98.3228 29.5743 98.3217C29.5801 98.3206 29.5856 98.3183 29.5905 98.3151C29.5954 98.3118 29.5996 98.3076 29.6028 98.3027C29.6061 98.2978 29.6083 98.2924 29.6095 98.2866C29.6108 98.2798 29.6106 98.2728 29.6088 98.2661C29.607 98.2594 29.6037 98.2532 29.5991 98.248C29.1528 97.7468 28.5491 97.4223 27.9277 97.2079C27.3025 97.0042 26.6606 96.8554 26.0094 96.7633C25.6849 96.724 25.3591 96.6851 25.0329 96.6708C24.7068 96.6471 24.3806 96.6421 24.0544 96.6471C23.7283 96.6521 23.4025 96.6651 23.0773 96.6924C22.747 96.718 22.4182 96.7602 22.0922 96.8189C21.9615 96.8435 21.8454 96.918 21.7687 97.0266C21.6919 97.1352 21.6604 97.2694 21.6808 97.4008C21.7012 97.5323 21.7719 97.6506 21.878 97.7308C21.9841 97.811 22.1172 97.8468 22.2493 97.8306L22.2686 97.8286Z" fill="#371A45"/>
<g opacity="0.35">
<path opacity="0.35" d="M35.5991 74.3848C35.4693 74.5845 35.3437 74.7794 35.2224 74.9695C35.3449 74.7781 35.4713 74.5821 35.5991 74.3848Z" fill="#371A45"/>
</g>
<g opacity="0.35">
<path opacity="0.35" d="M20.4707 76.5048C21.4285 76.6113 22.5491 76.6931 23.671 76.6828C23.7569 76.6828 23.8441 76.6828 23.9296 76.6788C24.0151 76.6748 24.1116 76.6738 24.2025 76.6698C24.2641 76.6698 24.3253 76.6675 24.3832 76.6648C24.4561 76.6612 24.5267 76.6559 24.5969 76.6522C24.6877 76.6469 24.7789 76.6405 24.8685 76.6342H24.8748C24.9633 76.6266 25.0542 76.6199 25.1437 76.6099C25.2026 76.6046 25.2615 76.5983 25.3194 76.592C25.3694 76.588 25.4193 76.5816 25.4679 76.5753C25.5447 76.5677 25.6226 76.556 25.6982 76.547C25.7737 76.538 25.8406 76.5254 25.9108 76.5137C25.9247 76.5124 25.9384 76.5098 25.9518 76.5061C26.0353 76.4958 26.1159 76.4805 26.1964 76.4652C26.2769 76.4498 26.3578 76.4342 26.436 76.4176C26.4437 76.4176 26.4487 76.4152 26.4563 76.4139L26.5894 76.3833C26.638 76.373 26.6866 76.36 26.7339 76.35H26.7366C26.7622 76.3423 26.7891 76.3357 26.8134 76.328V77.3142C26.8157 77.9709 27.0777 78.6001 27.5423 79.0644C28.0068 79.5287 28.6361 79.7904 29.2929 79.7923H42.8265C43.483 79.79 44.112 79.5282 44.5763 79.064C45.0405 78.5997 45.3023 77.9707 45.3046 77.3142V76.5267C47.0053 76.7853 48.9736 76.6881 50.5435 76.5191C50.4769 74.9565 50.3681 73.371 50.2233 71.7908C48.7672 71.8497 46.9118 71.8726 45.3046 71.7332V69.9646C45.3046 68.6021 44.1877 67.4891 42.8265 67.4891H29.2939C28.6375 67.4907 28.0083 67.7519 27.5438 68.2157C27.0793 68.6795 26.8171 69.3082 26.8144 69.9646V71.6217C26.5275 71.6641 26.228 71.6991 25.9158 71.7269C24.2431 71.8793 22.2882 71.8483 20.7905 71.7844C20.646 73.3607 20.5349 74.9449 20.4707 76.5048Z" fill="#371A45"/>
</g>
<path d="M42.9054 74.4939C44.8237 75.2703 47.7918 75.1079 49.8159 74.8643C50.104 74.8292 50.3821 74.7368 50.6339 74.5925C50.8857 74.4482 51.106 74.255 51.2819 74.0242C51.4578 73.7933 51.5857 73.5296 51.658 73.2486C51.7303 72.9676 51.7456 72.6749 51.703 72.3878C51.6247 71.8549 51.3512 71.3701 50.9356 71.0275C50.52 70.6849 49.9919 70.5089 49.4538 70.5337C47.5611 70.6226 44.7219 70.6638 42.9237 70.2651" fill="white"/>
<g opacity="0.35">
<path opacity="0.35" d="M42.9054 74.4943C44.8237 75.2705 47.7911 75.1077 49.816 74.8644C50.1613 74.8219 50.4914 74.6971 50.7785 74.5007C51.0657 74.3042 51.3016 74.0418 51.4664 73.7354C51.6312 73.429 51.7202 73.0875 51.7258 72.7396C51.7314 72.3917 51.6535 72.0475 51.4987 71.736C51.3385 72.0578 51.1009 72.3348 50.8072 72.542C50.5135 72.7492 50.1729 72.8802 49.816 72.9231C47.7938 73.1691 44.8317 73.3305 42.9131 72.557L42.9054 74.4943Z" fill="#371A45"/>
</g>
<path d="M46.7185 75.5776C47.8282 75.5776 48.9318 75.4861 49.8766 75.3716C50.5662 75.2872 51.1962 74.939 51.6346 74.4C52.0729 73.8611 52.2854 73.1733 52.2275 72.481C52.1695 71.7887 51.8457 71.1458 51.3239 70.6872C50.8021 70.2286 50.123 69.9899 49.429 70.0213C47.4567 70.1134 44.746 70.1437 43.034 69.764C42.7647 69.7041 42.0964 69.7028 41.7027 70.9691C41.3033 72.2554 41.3473 74.4161 42.7131 74.9689C43.838 75.4245 45.2835 75.5776 46.7185 75.5776ZM49.5565 71.0427C49.9793 71.0439 50.3859 71.2063 50.6932 71.4967C51.0006 71.7872 51.1856 72.1839 51.2107 72.606C51.2359 73.0282 51.0991 73.444 50.8284 73.7688C50.5576 74.0937 50.1732 74.3031 49.7535 74.3545C46.8603 74.705 44.495 74.5855 43.0972 74.0194C42.6845 73.853 42.5647 73.183 42.5314 72.9031C42.4179 71.9186 42.7168 71.0061 42.9048 70.7847C44.7286 71.1675 47.4757 71.1382 49.4756 71.0447C49.5035 71.0433 49.5302 71.0427 49.5565 71.0427Z" fill="#371A45"/>
<path d="M21.3244 74.8644C22.2739 74.9796 23.4328 75.0764 24.5926 75.0641C24.6725 75.0641 24.7514 75.0641 24.8313 75.0604C24.9111 75.0568 24.9997 75.0568 25.0832 75.0531C25.1401 75.0531 25.1957 75.0495 25.2496 75.0471L25.447 75.0361C25.5305 75.0315 25.6134 75.0255 25.6966 75.0192H25.7026C25.7848 75.0132 25.869 75.0059 25.9508 74.9975C26.0051 74.9925 26.0597 74.9866 26.1129 74.9806C26.1592 74.9769 26.2051 74.9709 26.2497 74.9659C26.3213 74.9576 26.3928 74.9479 26.4617 74.9383C26.5306 74.9286 26.5948 74.919 26.6581 74.908C26.6711 74.9071 26.684 74.9051 26.6967 74.902C26.7729 74.891 26.8481 74.8777 26.922 74.8631C26.9959 74.8484 27.0708 74.8351 27.1437 74.8195L27.1616 74.8158C27.2029 74.8062 27.2442 74.7978 27.2841 74.7882C27.324 74.7785 27.3736 74.7676 27.4172 74.7549C27.554 74.7216 27.6885 74.6824 27.8193 74.6411C27.8895 74.6195 27.9597 74.5952 28.0289 74.5709C28.0982 74.5466 28.1657 74.52 28.231 74.4933L28.2226 72.4632L28.213 70.2639C27.7008 70.3723 27.1822 70.4479 26.6604 70.4902C25.0233 70.6393 23.0916 70.5981 21.6835 70.5328C21.6502 70.5328 21.6169 70.5305 21.5807 70.5305C21.0271 70.5315 20.4948 70.7435 20.0922 71.1234C19.6897 71.5033 19.4471 72.0224 19.4141 72.5749C19.381 73.1274 19.5599 73.6718 19.9143 74.0969C20.2687 74.5221 20.7719 74.7961 21.3214 74.8631L21.3244 74.8644Z" fill="white"/>
<g opacity="0.35">
<path opacity="0.35" d="M21.3254 74.8644C22.2743 74.9796 23.4331 75.0757 24.5936 75.0641C24.6729 75.0641 24.7524 75.0641 24.8316 75.0604C24.9108 75.0568 24.998 75.0564 25.0839 75.0528C25.1405 75.0528 25.1967 75.0501 25.2503 75.0474L25.4473 75.0361C25.5305 75.0308 25.6137 75.0258 25.6973 75.0195H25.7036C25.7855 75.0128 25.87 75.0065 25.9519 74.9975C26.0058 74.9925 26.0607 74.9862 26.1133 74.9809C26.1595 74.9772 26.2055 74.9706 26.2504 74.9656C26.322 74.9579 26.3938 74.9476 26.4631 74.9386C26.5323 74.9296 26.5962 74.9193 26.6588 74.908C26.6718 74.9071 26.6847 74.905 26.6974 74.9017C26.7743 74.8914 26.8485 74.877 26.9227 74.8631C26.9969 74.8491 27.0711 74.8348 27.1443 74.8195L27.1623 74.8158C27.2033 74.8068 27.2442 74.7978 27.2851 74.7875C27.3261 74.7772 27.3747 74.7672 27.4182 74.7542C27.554 74.721 27.6885 74.681 27.8176 74.6401C27.8882 74.6184 27.9587 74.5941 28.0276 74.5699C28.0965 74.5456 28.1647 74.5186 28.23 74.493L28.221 72.5567C28.1584 72.5823 28.0945 72.6079 28.0276 72.6309C27.9607 72.6538 27.8882 72.6795 27.8176 72.7014C27.6872 72.7424 27.5514 72.7806 27.4182 72.8153C27.3733 72.8269 27.3287 72.8382 27.2851 72.8485C27.2415 72.8589 27.2033 72.8665 27.1623 72.8768L27.1443 72.8805C27.0711 72.8961 26.9982 72.9101 26.9227 72.9241C26.8471 72.9381 26.7743 72.951 26.6974 72.9627C26.6847 72.966 26.6718 72.9682 26.6588 72.969C26.5949 72.9793 26.5296 72.9897 26.4631 72.9983C26.3965 73.007 26.322 73.0176 26.2504 73.0266C26.2055 73.0319 26.1595 73.0382 26.1133 73.0406C26.0607 73.0472 26.0058 73.0536 25.9519 73.0585C25.8687 73.0662 25.7855 73.0742 25.7036 73.0805H25.6973C25.6151 73.0855 25.5309 73.0918 25.4473 73.0971C25.3808 73.1008 25.3169 73.1048 25.2503 73.1075C25.1964 73.1098 25.1401 73.1125 25.0839 73.1138C24.9997 73.1174 24.9152 73.1201 24.8316 73.1214C24.7481 73.1228 24.6729 73.1251 24.5936 73.1251C23.4331 73.1354 22.2743 73.0396 21.3254 72.9254C20.9683 72.8821 20.6275 72.7508 20.3336 72.5434C20.0397 72.336 19.8019 72.0589 19.6414 71.7369C19.5391 71.9415 19.4703 72.1612 19.4377 72.3876C19.3949 72.6747 19.4102 72.9675 19.4825 73.2487C19.5548 73.5298 19.6827 73.7936 19.8587 74.0245C20.0346 74.2554 20.2551 74.4487 20.507 74.5929C20.7589 74.7372 21.0372 74.8295 21.3254 74.8644Z" fill="#371A45"/>
</g>
<path d="M24.4222 75.5774C25.8573 75.5774 27.3024 75.4243 28.4279 74.9687C29.7925 74.4159 29.8381 72.2552 29.438 70.9693C29.0443 69.7019 28.3754 69.7046 28.1068 69.7638C26.3944 70.1439 23.684 70.1136 21.7117 70.0211C21.0178 69.9897 20.3386 70.2284 19.8168 70.687C19.295 71.1456 18.9712 71.7885 18.9133 72.4808C18.8554 73.1731 19.0679 73.8609 19.5062 74.3999C19.9445 74.9388 20.5746 75.287 21.2641 75.3714C22.208 75.4859 23.3116 75.5774 24.4222 75.5774ZM28.2346 70.7849C28.4223 71.0072 28.7215 71.9188 28.608 72.9032C28.5747 73.1831 28.4562 73.8521 28.0422 74.0195C26.6444 74.5853 24.2794 74.7048 21.3859 74.3546C20.9601 74.3015 20.5714 74.0858 20.301 73.7525C20.0306 73.4193 19.8996 72.9944 19.9354 72.5668C19.9712 72.1392 20.171 71.742 20.4929 71.4583C20.8149 71.1746 21.2341 71.0264 21.6628 71.0448C23.6627 71.1367 26.4098 71.1673 28.2336 70.7845L28.2346 70.7849Z" fill="#371A45"/>
<path d="M27.4932 68.8664V75.6448C27.4951 76.2508 27.7366 76.8315 28.1651 77.26C28.5937 77.6885 29.1743 77.9301 29.7803 77.9319H42.2639C42.8696 77.9297 43.4499 77.688 43.8781 77.2595C44.3063 76.831 44.5476 76.2506 44.5493 75.6448V68.8664C44.5475 68.2608 44.3061 67.6806 43.8779 67.2524C43.4497 66.8242 42.8694 66.5828 42.2639 66.5809H29.7803C29.1744 66.5822 28.5937 66.8234 28.1651 67.2517C27.7366 67.6799 27.495 68.2605 27.4932 68.8664Z" fill="white"/>
<g opacity="0.35">
<path opacity="0.35" d="M27.4932 68.8662V75.6453C27.4952 76.2513 27.7369 76.8318 28.1655 77.2601C28.5941 77.6884 29.1747 77.9298 29.7807 77.9314H42.2642C42.8697 77.9296 43.4498 77.6883 43.878 77.2601C44.3061 76.832 44.5475 76.2518 44.5493 75.6463V73.1096C43.2121 75.7096 38.6678 76.7323 34.931 76.3536C34.0959 76.269 33.4999 75.4756 33.6996 74.6602C33.7606 74.4086 33.7912 74.1506 33.7907 73.8917C33.7907 72.413 32.8113 71.2143 31.6028 71.2143C30.4343 71.2143 29.4775 72.3358 29.4159 73.7476C27.9182 71.7897 27.8367 69.1691 27.9625 67.4871C27.659 67.8828 27.4941 68.3675 27.4932 68.8662Z" fill="#371A45"/>
</g>
<path d="M29.9113 78.4437H42.1323C42.9087 78.4426 43.653 78.1337 44.2021 77.5847C44.7511 77.0357 45.06 76.2914 45.061 75.5149V68.9977C45.06 68.2213 44.7511 67.477 44.2021 66.928C43.653 66.3789 42.9087 66.07 42.1323 66.069H29.9113C29.1349 66.0701 28.3906 66.379 27.8416 66.928C27.2926 67.4771 26.9837 68.2213 26.9825 68.9977V75.5139C26.9834 76.2905 27.2922 77.035 27.8413 77.5843C28.3903 78.1335 29.1347 78.4425 29.9113 78.4437ZM42.1323 67.0927C42.6373 67.0933 43.1215 67.2942 43.4786 67.6514C43.8358 68.0085 44.0367 68.4927 44.0373 68.9977V75.5139C44.0368 76.019 43.8359 76.5033 43.4788 76.8605C43.1216 77.2177 42.6374 77.4187 42.1323 77.4193H29.9113C29.4061 77.4188 28.9218 77.2178 28.5646 76.8606C28.2074 76.5034 28.0065 76.0191 28.0059 75.5139V68.9977C28.0066 68.4926 28.2075 68.0084 28.5647 67.6512C28.9219 67.2941 29.4062 67.0932 29.9113 67.0927H42.1323Z" fill="#371A45"/>
<path d="M30.205 73.6499C29.4352 72.8801 29.4352 71.6319 30.205 70.8621C30.9749 70.0923 32.223 70.0923 32.9928 70.8621C33.7627 71.6319 33.7627 72.88 32.9928 73.6499C32.223 74.4197 30.9749 74.4197 30.205 73.6499Z" fill="#0AA9EF"/>
<path d="M29.6273 72.2564C29.627 72.3616 29.6356 72.4667 29.6529 72.5705C29.7274 72.1081 29.9643 71.6873 30.3209 71.3836C30.6775 71.0798 31.1306 70.913 31.599 70.913C32.0675 70.913 32.5206 71.0798 32.8772 71.3836C33.2338 71.6873 33.4706 72.1081 33.5452 72.5705C33.5625 72.4667 33.5711 72.3616 33.5708 72.2564C33.5641 71.7379 33.3534 71.2429 32.9843 70.8786C32.6153 70.5143 32.1176 70.3101 31.599 70.3101C31.0805 70.3101 30.5828 70.5143 30.2138 70.8786C29.8447 71.2429 29.634 71.7379 29.6273 72.2564Z" fill="white"/>
<g opacity="0.35">
<path opacity="0.35" d="M29.628 72.2557C29.628 72.7784 29.8356 73.2797 30.2052 73.6493C30.5749 74.0189 31.0762 74.2266 31.5989 74.2266C32.1216 74.2266 32.6229 74.0189 32.9925 73.6493C33.3622 73.2797 33.5698 72.7784 33.5698 72.2557C33.5703 72.0114 33.5245 71.7693 33.4347 71.5421C33.2909 71.9121 33.0387 72.23 32.7111 72.4541C32.3835 72.6783 31.9958 72.7982 31.5989 72.7982C31.202 72.7982 30.8143 72.6783 30.4867 72.4541C30.1591 72.23 29.9069 71.9121 29.7631 71.5421C29.6733 71.7693 29.6274 72.0114 29.628 72.2557Z" fill="#371A45"/>
</g>
<path d="M31.5986 74.6113C32.0645 74.6114 32.52 74.4733 32.9075 74.2145C33.2949 73.9557 33.5969 73.5878 33.7752 73.1573C33.9535 72.7269 34.0002 72.2532 33.9093 71.7962C33.8185 71.3392 33.5941 70.9195 33.2646 70.59C32.9352 70.2605 32.5154 70.0362 32.0584 69.9453C31.6014 69.8544 31.1278 69.9011 30.6973 70.0794C30.2668 70.2577 29.8989 70.5597 29.6401 70.9472C29.3813 71.3346 29.2432 71.7901 29.2433 72.256C29.2441 72.8804 29.4925 73.4791 29.934 73.9206C30.3755 74.3622 30.9742 74.6106 31.5986 74.6113ZM31.5986 70.6688C31.9125 70.6688 32.2194 70.7619 32.4804 70.9363C32.7414 71.1107 32.9448 71.3586 33.065 71.6486C33.1851 71.9387 33.2165 72.2578 33.1553 72.5657C33.094 72.8736 32.9429 73.1564 32.7209 73.3783C32.4989 73.6003 32.2161 73.7515 31.9082 73.8127C31.6004 73.874 31.2812 73.8425 30.9912 73.7224C30.7012 73.6023 30.4533 73.3988 30.2789 73.1378C30.1045 72.8768 30.0114 72.5699 30.0114 72.256C30.0118 71.8352 30.1792 71.4318 30.4768 71.1342C30.7743 70.8366 31.1778 70.6693 31.5986 70.6688Z" fill="#371A45"/>
<path d="M37.1853 78.4437C37.3212 78.4437 37.4515 78.3898 37.5475 78.2937C37.6436 78.1976 37.6975 78.0674 37.6975 77.9315V74.2559C37.6983 73.9757 37.7637 73.6994 37.8888 73.4487C38.0139 73.198 38.1953 72.9796 38.4188 72.8105L39.0657 72.3242C39.4156 72.0595 39.6996 71.7175 39.8955 71.3249C40.0914 70.9324 40.194 70.4998 40.1953 70.0611V66.5802C40.1953 66.4444 40.1414 66.3141 40.0453 66.218C39.9492 66.122 39.819 66.068 39.6831 66.068C39.5473 66.068 39.417 66.122 39.3209 66.218C39.2249 66.3141 39.1709 66.4444 39.1709 66.5802V70.0601C39.1703 70.3403 39.1048 70.6166 38.9797 70.8673C38.8546 71.1181 38.6732 71.3365 38.4497 71.5055L37.801 71.9921C37.4512 72.2569 37.1673 72.5989 36.9714 72.9914C36.7755 73.384 36.673 73.8165 36.6718 74.2552V77.9308C36.6717 77.9983 36.6849 78.0651 36.7107 78.1274C36.7365 78.1897 36.7743 78.2463 36.8221 78.2939C36.8698 78.3416 36.9264 78.3793 36.9888 78.405C37.0511 78.4307 37.1179 78.4439 37.1853 78.4437Z" fill="#371A45"/>
<path d="M5.5618 49.7903V103.562C5.5618 103.808 5.65934 104.043 5.83298 104.217C6.00662 104.391 6.24212 104.488 6.48768 104.488C6.73324 104.488 6.96875 104.391 7.14239 104.217C7.31603 104.043 7.41357 103.808 7.41357 103.562V49.7903H5.5618Z" fill="#FFD516"/>
<path d="M6.48768 105C6.86898 105 7.23456 104.848 7.50418 104.578C7.7738 104.309 7.92543 103.943 7.92578 103.562V49.2799H5.04959V103.562C5.05003 103.943 5.20169 104.309 5.47129 104.578C5.74089 104.848 6.10641 105 6.48768 105ZM6.90138 50.3026V103.562C6.90138 103.672 6.85779 103.777 6.78021 103.855C6.70263 103.932 6.5974 103.976 6.48768 103.976C6.37796 103.976 6.27274 103.932 6.19516 103.855C6.11758 103.777 6.074 103.672 6.074 103.562V50.3026H6.90138Z" fill="#371A45"/>
<g opacity="0.35">
<path opacity="0.35" d="M5.5618 49.7903H7.41357V51.865H5.5618V49.7903Z" fill="#371A45"/>
</g>
<path d="M7.54854 50.2074H5.42485C5.0142 50.2082 4.61294 50.0847 4.27389 49.853C3.93485 49.6213 3.67393 49.2923 3.52548 48.9095C3.38093 48.5362 3.21582 48.1712 3.03091 47.8162C2.21984 46.2489 0.532474 43.3737 1.26167 41.3013C1.81148 39.7371 3.83067 38.7609 5.19188 38.2654C6.02829 37.9612 6.9451 37.9612 7.78151 38.2654C9.14239 38.7609 11.1616 39.7371 11.7117 41.3013C12.4406 43.3737 10.7532 46.2489 9.94248 47.8162C9.75757 48.1712 9.59246 48.5362 9.44792 48.9095C9.29943 49.2923 9.03849 49.6212 8.69946 49.8529C8.36042 50.0846 7.95918 50.2082 7.54854 50.2074Z" fill="#FF5555"/>
<g opacity="0.5">
<path opacity="0.5" d="M1.125 43.0361C1.15329 42.85 1.19875 42.667 1.26079 42.4893C1.8116 40.9251 3.82979 39.9486 5.191 39.453C6.02752 39.1495 6.9441 39.1495 7.78063 39.453C9.14184 39.9486 11.1614 40.9244 11.7108 42.4893C11.773 42.6669 11.8185 42.85 11.8466 43.0361C11.9262 42.4277 11.8992 41.838 11.7108 41.3008C11.1614 39.7366 9.14184 38.7601 7.78063 38.2659C6.94433 37.961 6.02729 37.961 5.191 38.2659C3.82979 38.7601 1.8116 39.7372 1.26079 41.3008C1.07408 41.8376 1.04746 42.4277 1.125 43.0361Z" fill="white"/>
</g>
<path d="M5.42575 50.7192H7.54811C8.06179 50.718 8.56323 50.5623 8.98722 50.2723C9.4112 49.9822 9.7381 49.5713 9.9254 49.093C10.0635 48.7374 10.2209 48.3897 10.397 48.0513C10.4656 47.9182 10.5404 47.7764 10.62 47.6263C11.5419 45.8787 12.9354 43.2378 12.1945 41.1311C11.5928 39.4204 9.55765 38.3667 7.95614 37.784C7.00661 37.4389 5.96592 37.4389 5.01639 37.784C3.41488 38.3667 1.37939 39.4204 0.777996 41.1311C0.036818 43.2378 1.43031 45.8787 2.35254 47.6263C2.43175 47.7764 2.50697 47.9185 2.57553 48.0513C2.75157 48.3897 2.90889 48.7374 3.04679 49.093C3.23424 49.5716 3.56141 49.9826 3.98571 50.2727C4.41001 50.5627 4.91179 50.7183 5.42575 50.7192ZM6.48743 38.5498C6.86926 38.5496 7.24818 38.6163 7.60702 38.7468C8.74824 39.1618 10.7355 40.0681 11.2294 41.4712C11.8218 43.1556 10.5032 45.6547 9.71507 47.1481C9.63453 47.3008 9.55798 47.4456 9.48842 47.5807C9.29501 47.9526 9.12213 48.3348 8.97056 48.7256C8.85807 49.011 8.66244 49.256 8.40905 49.4288C8.15566 49.6017 7.85618 49.6945 7.54944 49.6951H5.42575C5.11895 49.6945 4.81941 49.6018 4.56595 49.4289C4.31249 49.2561 4.11681 49.011 4.0043 48.7256C3.85283 48.3348 3.68006 47.9526 3.48677 47.5807C3.41688 47.4476 3.34066 47.3012 3.26012 47.1481C2.47202 45.6547 1.15341 43.1543 1.74548 41.4712C2.23905 40.0681 4.22695 39.1618 5.36784 38.7468C5.72669 38.6164 6.1056 38.5497 6.48743 38.5498Z" fill="#371A45"/>
<path d="M5.42566 50.7188H7.54802C8.06172 50.7179 8.56324 50.5623 8.98726 50.2723C9.41128 49.9823 9.73815 49.5714 9.92532 49.093C10.064 48.7376 10.2216 48.3898 10.3976 48.0513C10.4641 47.9182 10.5404 47.7781 10.6189 47.629C11.5415 45.8803 12.9356 43.2381 12.1945 41.1311C11.6287 39.5233 9.78453 38.5018 8.33579 37.9291C8.20832 37.8771 8.07819 37.8292 7.95372 37.7836C7.00494 37.4382 5.96475 37.4382 5.01596 37.7836C4.89382 37.8272 4.76403 37.8762 4.63157 37.9301C3.18882 38.5008 1.34436 39.5216 0.777907 41.1297C0.0360631 43.2391 1.43255 45.8827 2.35678 47.6323C2.43466 47.7801 2.50854 47.9198 2.57611 48.0503C2.75196 48.3887 2.90928 48.7365 3.04737 49.092C3.23474 49.5705 3.56178 49.9816 3.98594 50.2717C4.41011 50.5619 4.91176 50.7176 5.42566 50.7188ZM6.48834 38.5498C6.86965 38.5497 7.24802 38.6165 7.60626 38.7471C7.72009 38.7877 7.83624 38.8313 7.95439 38.8803C9.72729 39.5818 10.8882 40.5014 11.229 41.4712C11.8217 43.1566 10.5021 45.6574 9.71398 47.1514C9.63377 47.3031 9.55822 47.4469 9.48867 47.5807C9.2958 47.9524 9.12293 48.3341 8.9708 48.7242C8.85879 49.0102 8.66323 49.2557 8.40962 49.4289C8.15601 49.6021 7.85611 49.6948 7.54902 49.6951H5.42566C5.11886 49.6945 4.81932 49.6018 4.56586 49.4289C4.3124 49.256 4.11672 49.011 4.00421 48.7256C3.85273 48.3351 3.68019 47.9531 3.48735 47.5814C3.41879 47.4482 3.34357 47.3065 3.26436 47.1564C2.47459 45.6614 1.15298 43.1593 1.74606 41.4725C2.08786 40.5021 3.24905 39.5825 5.0153 38.8833C5.13911 38.833 5.25493 38.7894 5.36609 38.7501C5.72562 38.6184 6.10543 38.5506 6.48834 38.5498Z" fill="#371A45"/>
<path d="M3.03251 47.8158C3.21707 48.1711 3.38205 48.5361 3.52673 48.9094C3.67522 49.2923 3.93616 49.6212 4.27519 49.8529C4.61423 50.0846 5.01547 50.2082 5.42611 50.2074H7.54847C7.95915 50.2085 8.36051 50.0851 8.69956 49.8533C9.03861 49.6216 9.2994 49.2925 9.44751 48.9094C9.5927 48.5361 9.75813 48.1711 9.94307 47.8158C10.7538 46.2496 12.4392 43.3731 11.7117 41.3009C11.2098 39.8718 9.48179 38.933 8.14754 38.4055C8.86741 39.2981 10.225 41.278 9.93176 43.204C9.70744 44.6767 8.33091 47.5865 7.96182 48.3483C7.93467 48.4045 7.89208 48.4518 7.83904 48.4847C7.786 48.5176 7.72469 48.5347 7.66229 48.534C7.61765 48.5342 7.57343 48.5253 7.53233 48.5079C7.49123 48.4904 7.4541 48.4648 7.42319 48.4326C7.39229 48.4004 7.36825 48.3623 7.35254 48.3205C7.33683 48.2787 7.32978 48.2341 7.33181 48.1895C7.40103 46.5518 7.62768 39.5746 6.48679 38.0387C5.34557 39.5753 5.57221 46.5524 5.64144 48.1895C5.6429 48.2647 5.61886 48.3382 5.57324 48.398C5.52761 48.4577 5.46308 48.5003 5.39017 48.5187C5.31726 48.5371 5.24026 48.5303 5.17173 48.4993C5.10319 48.4684 5.04716 48.4152 5.01276 48.3483C4.64366 47.5865 3.26581 44.6767 3.04183 43.204C2.74862 41.278 4.10683 39.2981 4.82571 38.4055C3.49245 38.933 1.76382 39.8718 1.2616 41.3009C0.53407 43.3731 2.22044 46.2496 3.03251 47.8158Z" fill="#FFD516"/>
<g opacity="0.35">
<path opacity="0.35" d="M3.03251 47.8158C3.21707 48.1711 3.38205 48.5361 3.52673 48.9094C3.67522 49.2923 3.93616 49.6212 4.27519 49.8529C4.61423 50.0846 5.01547 50.2082 5.42611 50.2074H7.54847C7.95915 50.2085 8.36051 50.085 8.69956 49.8533C9.03861 49.6216 9.2994 49.2925 9.44751 48.9094C9.5927 48.5361 9.75813 48.1711 9.94307 47.8158C10.7538 46.2496 12.4392 43.373 11.7117 41.3009C11.6094 41.0147 11.4635 40.7461 11.279 40.5045C11.9383 42.4016 10.3967 45.0328 9.65519 46.4659C9.48554 46.791 9.3341 47.1254 9.20156 47.4673C9.06528 47.8179 8.82612 48.119 8.51552 48.3312C8.20491 48.5433 7.83739 48.6565 7.46127 48.6558H5.51464C5.13851 48.6565 4.771 48.5433 4.46039 48.3312C4.14979 48.119 3.91063 47.8179 3.77435 47.4673C3.64189 47.1256 3.49101 46.7913 3.32239 46.4659C2.57955 45.0328 1.03894 42.4056 1.69592 40.5085C1.51187 40.7494 1.36594 41.0171 1.26326 41.3023C0.534063 43.373 2.22044 46.2496 3.03251 47.8158Z" fill="#371A45"/>
</g>
<path d="M5.42582 50.5505H7.54818C8.02788 50.5496 8.49621 50.4043 8.8922 50.1336C9.28819 49.8629 9.5935 49.4792 9.76839 49.0325C9.90915 48.6713 10.0693 48.3179 10.248 47.9738C10.3165 47.8407 10.3914 47.6999 10.4703 47.5505C11.3789 45.8278 12.7524 43.2239 12.0345 41.1867C11.4907 39.6391 9.68851 38.646 8.27372 38.0859C8.2033 38.0587 8.1259 38.0555 8.05346 38.0767C7.98103 38.0979 7.91758 38.1423 7.87291 38.2032C7.82824 38.264 7.80483 38.3379 7.80629 38.4133C7.80775 38.4888 7.834 38.5617 7.881 38.6207C8.48838 39.3739 9.87123 41.3232 9.59266 43.1517C9.42392 44.2606 8.49437 46.4555 7.67365 48.1562C7.78748 45.5436 7.91161 39.3782 6.76373 37.8323C6.73171 37.7893 6.69007 37.7543 6.64214 37.7302C6.5942 37.7061 6.54131 37.6936 6.48767 37.6936C6.43403 37.6936 6.38113 37.7061 6.3332 37.7302C6.28526 37.7543 6.24362 37.7893 6.2116 37.8323C5.06505 39.3765 5.18753 45.5306 5.29703 48.1579C4.88899 47.2992 3.59368 44.5388 3.38267 43.1517C3.10411 41.3232 4.48695 39.3739 5.09434 38.6207C5.14198 38.5616 5.16873 38.4884 5.17041 38.4125C5.17208 38.3366 5.14859 38.2623 5.1036 38.2012C5.05861 38.14 4.99464 38.0955 4.92168 38.0745C4.84872 38.0535 4.77088 38.0573 4.70028 38.0852C3.28515 38.645 1.48363 39.6378 0.939476 41.1861C0.221928 43.2259 1.59779 45.8305 2.50804 47.5538C2.58625 47.7019 2.66013 47.8417 2.72802 47.9725C2.90658 48.3169 3.06645 48.6706 3.20695 49.0322C3.38197 49.4785 3.68712 49.8619 4.0828 50.1327C4.47847 50.4034 4.94639 50.549 5.42582 50.5505ZM9.17897 39.2577C10.1441 39.7746 11.061 40.4871 11.3872 41.4147C12.0042 43.1696 10.6633 45.711 9.86224 47.2293C9.78237 47.3807 9.70682 47.5238 9.63759 47.6576C9.44726 48.0239 9.27672 48.4 9.12672 48.7845C9.00236 49.102 8.78526 49.3747 8.5037 49.5671C8.22214 49.7594 7.88917 49.8625 7.54818 49.8629H5.42482C5.08402 49.8622 4.75129 49.7592 4.4698 49.5671C4.18831 49.375 3.97107 49.1027 3.84628 48.7855C3.69703 48.4007 3.52693 48.0243 3.33674 47.658C3.26818 47.5248 3.1933 47.3841 3.11409 47.234C2.31167 45.7147 0.968437 43.1736 1.58614 41.4157C1.91263 40.4878 2.8302 39.7753 3.79403 39.2584C3.11376 40.3414 2.47974 41.7981 2.70173 43.2565C2.93004 44.7565 4.29126 47.6497 4.70328 48.499C4.75815 48.6134 4.84443 48.7098 4.95204 48.777C5.05965 48.8441 5.18415 48.8793 5.311 48.8784C5.40222 48.8785 5.4925 48.8601 5.57638 48.8242C5.66025 48.7884 5.73595 48.7358 5.79889 48.6698C5.86183 48.6038 5.91069 48.5256 5.9425 48.4402C5.97432 48.3547 5.98842 48.2636 5.98395 48.1725C5.84018 44.7728 5.90375 40.564 6.48584 38.8204C7.0676 40.5637 7.13083 44.7728 6.98738 48.1725C6.98147 48.3275 7.029 48.4797 7.122 48.6038C7.21499 48.7279 7.34781 48.8163 7.49819 48.8541C7.64858 48.892 7.80739 48.877 7.94804 48.8116C8.08868 48.7463 8.2026 48.6346 8.27072 48.4953C8.68208 47.6457 10.042 44.7555 10.2706 43.2532C10.4943 41.7971 9.86058 40.3407 9.17897 39.2577Z" fill="#371A45"/>
<path d="M8.66282 70.5013C8.66282 70.5013 10.2034 71.1167 10.5366 70.2567C10.8697 69.3967 11.2135 65.8206 10.5782 65.326C9.14174 64.2075 7.16382 66.2316 7.16382 66.2316L8.66282 70.5013Z" fill="white"/>
<path d="M7.16382 66.2314L7.4597 67.0727L8.66349 70.5007C8.66349 70.5007 9.54345 70.8528 10.1172 70.6518C10.2127 70.6221 10.3001 70.571 10.3729 70.5025C10.4457 70.4339 10.5019 70.3496 10.5372 70.2561C10.87 69.3968 11.2132 65.82 10.5782 65.3258C9.14241 64.2079 7.16382 66.2314 7.16382 66.2314Z" fill="white"/>
<g opacity="0.35">
<path opacity="0.35" d="M7.45924 67.0728L8.66303 70.5008C8.66303 70.5008 9.54299 70.8529 10.1168 70.6519C10.3088 69.2624 10.3624 67.2838 9.90143 66.9244C9.11232 66.311 8.15848 66.6438 7.45924 67.0728Z" fill="#371A45"/>
</g>
<path d="M9.70284 71.2254C9.93502 71.2302 10.1657 71.1875 10.3808 71.0999C10.5251 71.0385 10.6556 70.9486 10.7642 70.8356C10.8729 70.7225 10.9576 70.5886 11.0131 70.4419C11.2817 69.749 11.9087 65.7136 10.892 64.9222C9.11476 63.5384 6.88989 65.7779 6.79637 65.874L6.57372 66.1014L8.25543 70.8909L8.47176 70.9771C8.55663 71.0104 9.11776 71.2254 9.70284 71.2254ZM10.249 65.719C10.5738 66.1849 10.3911 69.2135 10.0593 70.0718C10.0525 70.0922 10.0412 70.1108 10.0261 70.1262C10.0111 70.1415 9.9927 70.1532 9.97243 70.1604C9.77274 70.2482 9.37136 70.186 9.06384 70.0968L7.75921 66.3809C8.25011 65.9596 9.4266 65.1006 10.249 65.719Z" fill="#371A45"/>
<g opacity="0.35">
<path opacity="0.35" d="M5.5618 67.9911V77.3488C6.16084 77.5386 6.79883 77.5699 7.41357 77.4397V68.4497C6.72964 68.1026 6.02274 67.9628 5.5618 67.9911Z" fill="#371A45"/>
</g>
<path d="M5.16524 65.5239C5.86415 65.1129 9.35572 65.9369 9.44026 68.9386C9.51181 71.4656 10.2177 73.2985 8.64482 74.3495C7.33986 75.2228 6.45857 75.8788 5.56196 75.4345C4.66536 74.9902 0.723498 68.1335 5.16524 65.5239Z" fill="white"/>
<g opacity="0.35">
<path opacity="0.35" d="M3.0938 69.4512C3.14738 72.2072 4.98519 75.1473 5.56162 75.4342C6.45789 75.8785 7.33885 75.2228 8.64415 74.3495C9.75675 73.6044 9.73012 72.4708 9.593 70.9765C9.48151 71.5526 9.21126 72.0328 8.64415 72.4119C7.33885 73.2852 6.77307 73.5797 5.85217 73.1867C4.78583 72.7307 3.61365 71.2121 3.0938 69.4512Z" fill="#371A45"/>
</g>
<path d="M6.16076 76.0938C6.9675 76.0938 7.76426 75.558 8.71012 74.9223L8.92911 74.7752C10.3765 73.8067 10.2351 72.319 10.071 70.5961C10.0207 70.0656 9.96849 69.5167 9.95185 68.9243C9.91092 67.4706 9.1481 66.2618 7.80453 65.5163C6.7545 64.9349 5.48049 64.7445 4.90505 65.0837C3.3152 66.0179 2.51245 67.5711 2.584 69.5767C2.68385 72.339 4.4654 75.4655 5.33405 75.8961C5.59036 76.0258 5.87352 76.0935 6.16076 76.0938ZM5.66819 65.9343C6.05592 65.9343 6.77647 66.0768 7.47538 66.5108C8.11771 66.9101 8.89117 67.6573 8.92778 68.9533C8.94542 69.5796 9.00166 70.1714 9.05125 70.6932C9.21766 72.4505 9.25893 73.3225 8.35933 73.9239L8.13868 74.072C6.97383 74.8544 6.34147 75.2495 5.789 74.9756C5.36267 74.7093 3.57412 71.8634 3.60441 69.2631C3.62172 67.7758 4.23277 66.6672 5.42058 65.9683C5.46784 65.9466 5.55337 65.9343 5.66819 65.9343Z" fill="#371A45"/>
<path d="M18.8673 61.6069C19.9656 61.8529 21.0995 61.7144 22.1509 61.3919C22.6829 61.2263 23.2014 61.0199 23.7018 60.7746C25.4407 59.9279 26.7008 58.814 26.7637 58.7231L23.0165 56.5931L21.4886 55.7251C21.3311 56.1707 21.0789 56.7815 20.7896 57.4398C19.9699 59.3235 18.8673 61.6069 18.8673 61.6069Z" fill="#FF5555"/>
<path d="M20.0467 62.2463C23.6168 62.2463 27.0122 59.2716 27.1889 59.007L27.4941 58.549L21.2099 54.9769L21.0053 55.553C20.4108 57.2284 18.4256 61.344 18.4056 61.3843L18.1247 61.9657L18.7551 62.1072C19.1792 62.2008 19.6124 62.2474 20.0467 62.2463ZM25.8846 58.813C24.782 59.6783 22.1218 61.3973 19.6277 61.2036C20.1409 60.1246 21.1823 57.9037 21.7544 56.4653L25.8846 58.813Z" fill="#371A45"/>
<path d="M46.288 58.7228C46.3316 58.7894 47.2368 59.1645 48.5445 59.5399C48.8593 59.6307 49.1974 59.7203 49.5522 59.8061C51.416 60.2568 53.749 60.5872 55.6211 60.1686C55.6211 60.1686 55.4124 59.9532 55.0859 59.6028C54.2266 58.6756 52.5452 56.8035 51.6716 55.419C51.4566 55.0772 51.2915 54.7657 51.1993 54.5044L48.1065 57.1606L46.288 58.7228Z" fill="#FF5555"/>
<path d="M53.6929 60.873C54.3919 60.873 55.0838 60.8141 55.7321 60.6687L56.623 60.469L55.9887 59.8127C55.9867 59.8107 55.782 59.5987 55.4612 59.2532C53.3977 57.032 51.9863 55.1929 51.6807 54.3322L51.4311 53.6283L45.6092 58.6292L45.8608 59.0066C46.186 59.4942 49.4525 60.3095 49.4852 60.3175C50.661 60.5994 52.1906 60.873 53.6929 60.873ZM54.5809 59.8103C51.9344 60.0486 48.6425 59.0981 47.2357 58.5826L51.0241 55.328C51.7899 56.6902 53.475 58.6119 54.5809 59.8103Z" fill="#371A45"/>
<g opacity="0.35">
<path opacity="0.35" d="M20.7895 57.4399C20.8228 57.5114 20.8561 57.5833 20.892 57.6539C21.2885 58.4314 21.8083 59.1394 22.4313 59.7506C22.8219 60.131 23.2474 60.474 23.702 60.775C26.3312 62.5229 29.8181 62.897 32.5858 62.7216C34.9821 62.5679 35.7705 61.0017 36.0218 59.7826C36.0601 59.5892 36.0857 59.4048 36.1037 59.2357C36.135 58.9353 36.1393 58.6327 36.1163 58.3315L36.0218 58.2586C35.1112 57.54 27.9317 51.9351 25.3245 50.9859C24.9758 50.8596 24.6045 50.8076 24.2345 50.8335C23.9682 51.9797 23.5186 54.0105 23.0167 56.5962L21.4888 55.7282C21.33 56.1708 21.0777 56.7816 20.7895 57.4399Z" fill="#371A45"/>
</g>
<g opacity="0.35">
<path opacity="0.35" d="M35.9397 59.2353C35.9563 59.4017 35.9819 59.5861 36.0205 59.7795C36.0205 59.7795 36.0205 59.7795 36.0205 59.7821C36.2715 61.0012 37.0616 62.5675 39.4565 62.7212C42.3557 62.9056 46.0463 62.4856 48.7118 60.5133C49.7351 59.762 50.5698 58.783 51.15 57.6538C51.5078 56.9642 51.6865 56.1957 51.6698 55.4189C51.4548 55.0771 51.2898 54.7656 51.1976 54.5044L48.1047 57.1606C47.5782 54.3982 47.0956 52.2046 46.8087 50.9519C46.7778 50.9609 46.7485 50.9712 46.7175 50.9829C44.1103 51.9317 36.9328 57.537 36.0205 58.2555L35.9257 58.3284C35.9022 58.6305 35.9069 58.9341 35.9397 59.2353Z" fill="#371A45"/>
</g>
<path d="M20.8849 55.9775C23.1287 60.3574 28.5037 61.2243 32.4186 60.9744C34.7816 60.8233 35.5614 59.277 35.807 58.0739C35.8456 57.8829 35.8712 57.7012 35.8878 57.5348C35.9192 57.2387 35.9235 56.9403 35.9005 56.6435C35.9005 56.6435 35.8672 56.6179 35.807 56.5703C34.9144 55.8674 27.8287 50.3337 25.2567 49.3974C23.9082 48.9069 22.3895 49.6201 21.4084 50.8951C20.3893 52.2214 19.9513 54.1537 20.8849 55.9775Z" fill="white"/>
<g opacity="0.35">
<path opacity="0.35" d="M20.8844 55.9775C23.1282 60.3574 28.5029 61.2244 32.4181 60.9744C34.7811 60.8233 35.5605 59.2771 35.8065 58.0739C35.8451 57.8829 35.8707 57.7012 35.8874 57.5348C35.9187 57.2387 35.923 56.9404 35.9 56.6435C35.9 56.6435 35.873 56.6215 35.8195 56.5806C35.8155 56.6036 35.8118 56.6265 35.8065 56.6498C35.5605 57.8523 34.7807 59.3992 32.4181 59.5503C28.5029 59.8002 23.1282 58.9333 20.8844 54.5534C20.6597 54.1177 20.5057 53.649 20.4281 53.1649C20.2761 54.1271 20.436 55.1127 20.8844 55.9775Z" fill="#371A45"/>
</g>
<path d="M31.1894 61.5251C31.6656 61.5251 32.0917 61.5081 32.4501 61.4851C33.7188 61.4042 34.7132 60.9476 35.4045 60.1279C36.6166 58.6915 36.4189 56.6746 36.4103 56.5894L36.3876 56.3751L36.2186 56.242C35.8934 55.9847 28.2243 49.9328 25.4304 48.9167C24.0412 48.4115 22.435 48.94 21.2369 50.2959C19.7612 51.968 19.4434 54.2897 20.4275 56.211C22.7762 60.7935 28.0603 61.5251 31.1894 61.5251ZM35.4008 56.9023C35.4101 57.3835 35.3532 58.6043 34.6174 59.4719C34.1125 60.067 33.3613 60.4005 32.3849 60.4627C29.8731 60.6231 23.769 60.4843 21.3407 55.7434C20.3802 53.868 21.0991 52.0019 22.0064 50.9735C22.905 49.9564 24.1104 49.5268 25.0799 49.8792C27.4935 50.7568 34.2067 55.9681 35.4008 56.9023Z" fill="#371A45"/>
<path d="M35.7256 57.5369C35.7422 57.7033 35.7678 57.8827 35.8061 58.0738C36.0534 59.2762 36.8318 60.8231 39.1962 60.9742C43.1097 61.2242 48.4847 60.3572 50.7282 55.9774C51.7476 53.9871 51.1329 51.8688 49.9138 50.5498C48.9393 49.4958 47.5778 48.9523 46.3573 49.3973C43.7847 50.3335 36.6987 55.8672 35.8071 56.5701C35.7459 56.6177 35.7136 56.6433 35.7136 56.6433C35.6897 56.9409 35.6937 57.2401 35.7256 57.5369Z" fill="white"/>
<g opacity="0.35">
<path opacity="0.35" d="M35.7261 57.5369C35.7428 57.7033 35.7684 57.8827 35.8067 58.0738C36.0539 59.2762 36.8324 60.8231 39.1967 60.9742C43.1103 61.2242 48.4852 60.3572 50.7288 55.9774C51.1814 55.1081 51.3413 54.1159 51.1847 53.1484C51.1062 53.6294 50.9523 54.095 50.7288 54.528C48.4852 58.9078 43.1103 59.7748 39.1967 59.5248C36.8337 59.3737 36.0539 57.8275 35.8067 56.6244C35.803 56.6077 35.8003 56.5911 35.7977 56.5754C35.7414 56.619 35.7132 56.642 35.7132 56.642C35.6895 56.9401 35.6939 57.2397 35.7261 57.5369Z" fill="#371A45"/>
</g>
<path d="M40.424 61.525C43.5525 61.525 48.8369 60.7928 51.1842 56.2106C52.1684 54.2896 51.8499 51.9676 50.3748 50.2955C49.1767 48.9396 47.5719 48.4111 46.1814 48.9163C43.3874 49.9324 35.7183 55.9843 35.3932 56.2416L35.2241 56.3747L35.2015 56.589C35.1925 56.6742 34.9951 58.6911 36.2069 60.1275C36.8988 60.9473 37.8929 61.4039 39.1616 61.4848C39.5214 61.5081 39.9477 61.525 40.424 61.525ZM47.2394 49.7577C48.0458 49.7577 48.9171 50.1924 49.6064 50.9735C50.5139 52.0019 51.2328 53.869 50.272 55.7434C47.8424 60.4843 41.7396 60.6231 39.2282 60.4627C38.2514 60.4004 37.5002 60.067 36.9953 59.4719C36.2595 58.6042 36.2026 57.3835 36.2119 56.9022C37.405 55.968 44.1196 50.7568 46.5328 49.8798C46.7594 49.798 46.9985 49.7567 47.2394 49.7577Z" fill="#371A45"/>
<path d="M17.4082 42.1786C17.5068 42.1858 17.6042 42.1537 17.6791 42.0891C17.754 42.0246 17.8002 41.933 17.8076 41.8345L18.6084 31.1178C18.6156 31.0192 18.5834 30.9217 18.5188 30.8468C18.4542 30.7719 18.3625 30.7258 18.2639 30.7184C17.2289 30.6414 16.2057 30.9786 15.4193 31.6559C14.6329 32.3332 14.1477 33.2952 14.0704 34.3301L13.7975 37.9845C13.7204 39.0194 14.0575 40.0426 14.7345 40.8291C15.4116 41.6156 16.3733 42.101 17.4082 42.1786Z" fill="white"/>
<path d="M17.4361 42.2717C17.5533 42.2714 17.6662 42.2269 17.7522 42.1471C17.8381 42.0673 17.8908 41.958 17.8997 41.841L18.6984 31.1244C18.7076 31.0013 18.6676 30.8796 18.5871 30.786C18.5067 30.6924 18.3925 30.6346 18.2694 30.6251C16.0688 30.4587 14.1405 32.1188 13.9761 34.3217L13.7029 37.9764C13.6238 39.0359 13.9689 40.0834 14.6621 40.8885C15.3553 41.6936 16.34 42.1904 17.3994 42.2697C17.4131 42.271 17.4247 42.2717 17.4361 42.2717ZM17.9686 30.7985C18.0637 30.7985 18.1596 30.8021 18.2561 30.8092C18.2929 30.8119 18.3289 30.8219 18.3618 30.8385C18.3948 30.8552 18.4242 30.8782 18.4483 30.9062C18.4724 30.9342 18.4907 30.9667 18.5022 31.0018C18.5137 31.0369 18.5182 31.0739 18.5154 31.1107L17.7149 41.8274C17.709 41.9016 17.674 41.9705 17.6175 42.019C17.561 42.0676 17.4877 42.0919 17.4134 42.0866C16.9128 42.0494 16.4244 41.9139 15.9762 41.6879C15.5279 41.4619 15.1286 41.1498 14.801 40.7695C14.4734 40.3891 14.2239 39.9479 14.0668 39.4711C13.9098 38.9943 13.8482 38.4913 13.8856 37.9907L14.1585 34.336C14.2317 33.3749 14.6649 32.4769 15.3715 31.8213C16.0781 31.1656 17.006 30.8008 17.9699 30.7995L17.9686 30.7985Z" fill="#371A45"/>
<g opacity="0.35">
<path opacity="0.35" d="M13.9247 36.2701L13.7962 37.9841C13.7192 39.0194 14.0564 40.0428 14.7338 40.8295C15.4111 41.6162 16.3731 42.1017 17.4083 42.1793C17.507 42.1863 17.6044 42.154 17.6793 42.0893C17.7542 42.0246 17.8003 41.9328 17.8076 41.8341L18.022 38.9869C17.9879 39.0501 17.9363 39.1022 17.8733 39.1368C17.8104 39.1715 17.7389 39.1872 17.6672 39.1823L17.4129 39.1626C16.6032 39.1022 15.8323 38.7913 15.2072 38.273C14.5822 37.7547 14.1339 37.0547 13.9247 36.2701Z" fill="#371A45"/>
</g>
<path d="M17.4376 42.6918C17.6607 42.6915 17.8755 42.6069 18.0389 42.455C18.2023 42.303 18.3023 42.0949 18.3189 41.8724L19.1196 31.1558C19.1283 31.0398 19.114 30.9233 19.0776 30.8129C19.0413 30.7024 18.9835 30.6002 18.9076 30.5121C18.8318 30.424 18.7393 30.3517 18.6354 30.2993C18.5316 30.247 18.4185 30.2156 18.3025 30.2069C15.8683 30.0249 13.7407 31.8574 13.5586 34.2912L13.2857 37.9455C13.1982 39.1162 13.5794 40.2737 14.3453 41.1634C15.1113 42.0531 16.1993 42.602 17.37 42.6895C17.3926 42.6911 17.4149 42.6918 17.4376 42.6918ZM18.0872 31.221L17.3078 41.6544C16.4355 41.5533 15.6361 41.1187 15.0769 40.4416C14.5177 39.7645 14.242 38.8975 14.3074 38.0218L14.5803 34.3671C14.7168 32.5436 16.274 31.1628 18.0872 31.221Z" fill="#371A45"/>
<path d="M53.638 33.36C53.5395 33.3528 53.442 33.3849 53.3672 33.4495C53.2923 33.514 53.2461 33.6056 53.2387 33.7041L52.4399 44.4208C52.4327 44.5194 52.4648 44.6168 52.5294 44.6917C52.5939 44.7665 52.6855 44.8127 52.784 44.8202C53.819 44.8971 54.8422 44.5598 55.6286 43.8825C56.4149 43.2053 56.9001 42.2434 56.9775 41.2084L57.2504 37.5541C57.3275 36.5189 56.9903 35.4955 56.3128 34.709C55.6354 33.9224 54.6732 33.4372 53.638 33.36Z" fill="white"/>
<path d="M53.0797 44.924C54.0894 44.9223 55.0612 44.5395 55.8007 43.8522C56.5403 43.1648 56.993 42.2236 57.0685 41.2168L57.3414 37.5622C57.4205 36.5027 57.0754 35.4552 56.3822 34.65C55.689 33.8449 54.7043 33.3481 53.6449 33.2689C53.5217 33.2597 53.4 33.2998 53.3064 33.3803C53.2128 33.4608 53.155 33.5751 53.1456 33.6982L52.3469 44.4148C52.3377 44.5379 52.3778 44.6597 52.4583 44.7533C52.5388 44.8469 52.6531 44.9047 52.7762 44.9141C52.8777 44.9204 52.9776 44.924 53.0797 44.924ZM53.6312 33.4516C54.1318 33.4889 54.6202 33.6244 55.0684 33.8505C55.5167 34.0765 55.916 34.3886 56.2436 34.769C56.5712 35.1494 56.8206 35.5906 56.9777 36.0674C57.1348 36.5442 57.1964 37.0473 57.159 37.5479L56.8861 41.2025C56.8489 41.7031 56.7135 42.1915 56.4875 42.6398C56.2615 43.088 55.9494 43.4874 55.569 43.815C55.1886 44.1426 54.7475 44.392 54.2707 44.5491C53.7939 44.7062 53.2908 44.7677 52.7902 44.7303C52.7162 44.7247 52.6474 44.6901 52.5988 44.634C52.5501 44.5779 52.5256 44.5049 52.5306 44.4308L53.3313 33.7142C53.337 33.6398 53.3718 33.5708 53.4283 33.5221C53.4847 33.4735 53.5582 33.4492 53.6325 33.4546L53.6312 33.4516Z" fill="#371A45"/>
<g opacity="0.35">
<path opacity="0.35" d="M52.6586 41.4497L52.4369 44.4227C52.4299 44.5214 52.4622 44.6189 52.5269 44.6938C52.5916 44.7686 52.6834 44.8148 52.782 44.8221C53.2945 44.8604 53.8095 44.7974 54.2976 44.6367C54.7857 44.4759 55.2374 44.2206 55.6268 43.8853C56.0162 43.5499 56.3357 43.1412 56.5672 42.6823C56.7986 42.2235 56.9373 41.7235 56.9755 41.2111L57.0903 39.6711C56.7295 40.3315 56.186 40.8739 55.525 41.2334C54.8639 41.5929 54.1132 41.7543 53.3628 41.6983L52.9717 41.669C52.9048 41.6636 52.8404 41.6404 52.7854 41.6019C52.7303 41.5633 52.6866 41.5108 52.6586 41.4497Z" fill="#371A45"/>
</g>
<path d="M53.0774 45.3437C55.3695 45.3437 57.3148 43.5694 57.4882 41.247L57.7612 37.5927C57.8485 36.422 57.4673 35.2646 56.7013 34.375C55.9352 33.4854 54.8472 32.9365 53.6765 32.8491C53.4425 32.8322 53.2114 32.9086 53.0336 33.0616C52.8558 33.2147 52.746 33.432 52.728 33.6659L51.9292 44.3825C51.9117 44.6166 51.9879 44.8481 52.1411 45.0261C52.2943 45.204 52.5118 45.3138 52.746 45.3313C52.8551 45.34 52.9666 45.3437 53.0774 45.3437ZM53.7391 33.8835C54.6112 33.9851 55.4103 34.4199 55.9693 35.0969C56.5282 35.774 56.8038 36.641 56.7384 37.5165L56.4655 41.1712C56.4 42.0468 55.9985 42.8633 55.3449 43.4497C54.6913 44.0361 53.8363 44.3471 52.9586 44.3176L53.7391 33.8835Z" fill="#371A45"/>
<g opacity="0.35">
<path opacity="0.35" d="M21.4073 50.8956C24.7597 55.3437 30.3084 57.5209 35.8202 57.4328C41.2783 57.3456 46.6972 55.0365 49.9146 50.5498C48.9401 49.4958 47.5785 48.9523 46.3581 49.3973C43.7854 50.3335 36.6995 55.8672 35.8079 56.5701C34.9153 55.8672 27.8296 50.3335 25.2576 49.3973C23.9071 48.9067 22.3884 49.6199 21.4073 50.8956Z" fill="#371A45"/>
</g>
<path d="M35.5209 56.0822C25.4068 56.0822 17.2077 47.8831 17.2077 37.7691C17.2077 27.655 25.4068 19.4559 35.5209 19.4559C45.6349 19.4559 53.834 27.655 53.834 37.7691C53.834 47.8831 45.6349 56.0822 35.5209 56.0822Z" fill="white"/>
<path d="M35.5228 56.1741C40.4152 56.1741 45.016 54.2771 48.489 50.8298C51.9775 47.3662 53.9095 42.751 53.9262 37.8347C53.9428 32.9183 52.0458 28.2899 48.5818 24.801C45.1179 21.3121 40.5027 19.3814 35.5867 19.3641H35.5202C25.4026 19.3641 17.1525 27.577 17.1155 37.7039C17.0982 42.6199 18.9959 47.2487 22.4599 50.7373C25.9238 54.2258 30.5389 56.1568 35.4549 56.1744L35.5228 56.1741ZM35.5198 19.5478H35.5864C40.4535 19.5652 45.0224 21.4782 48.4514 24.9305C51.8803 28.3827 53.7598 32.9669 53.7431 37.8337C53.7265 42.7004 51.8128 47.2697 48.3602 50.699C44.9075 54.1283 40.3177 56.0107 35.4569 55.9907C30.5899 55.9734 26.021 54.0604 22.5917 50.6081C19.1623 47.1558 17.2836 42.5716 17.2999 37.7049C17.3358 27.6792 25.5031 19.5478 35.5198 19.5478Z" fill="#371A45"/>
<g opacity="0.35">
<path opacity="0.35" d="M17.3923 35.1694C17.2716 36.0089 17.2099 36.8557 17.2075 37.7038C17.1726 47.8177 25.3419 56.0456 35.4558 56.0828C45.5697 56.1201 53.7975 47.9482 53.8345 37.8346C53.8345 37.5437 53.8301 37.2525 53.8172 36.9656C52.5525 45.8761 44.8771 52.7121 35.6232 52.6795C25.8005 52.6435 17.8133 44.882 17.3923 35.1694Z" fill="#371A45"/>
</g>
<path d="M35.5227 56.5946C40.5256 56.5946 45.2329 54.6549 48.7851 51.128C52.3532 47.5852 54.3284 42.8649 54.3461 37.8364C54.3833 27.4559 45.9685 18.9808 35.588 18.9438H35.5214C25.1709 18.9438 16.7343 27.3438 16.6974 37.702C16.6794 42.7304 18.6207 47.4647 22.1635 51.0332C25.7064 54.6016 30.427 56.5766 35.4552 56.5946H35.5227ZM35.5197 19.9683H35.5843C45.3997 20.0032 53.3566 28.0174 53.3217 37.8327C53.3047 42.5873 51.4373 47.0517 48.0632 50.4012C44.6891 53.7506 40.2114 55.5931 35.4575 55.5698C30.7036 55.5465 26.2385 53.6854 22.8888 50.3113C19.539 46.9372 17.7032 42.4605 17.7201 37.7056C17.7551 27.9119 25.734 19.9683 35.5197 19.9683Z" fill="#371A45"/>
<path d="M17.2645 38.1741C17.198 41.7572 18.2986 45.1054 20.2362 47.895C21.689 49.9861 27.7518 53.7116 35.3204 53.9213C42.3381 54.1153 48.7941 50.4933 50.324 48.4568C52.3645 45.7417 53.5896 42.4368 53.6568 38.8541C53.8339 29.3725 45.7608 25.2896 35.7111 25.1019C25.6614 24.9141 17.4416 28.6926 17.2645 38.1741Z" fill="#371A45"/>
<path d="M35.8759 54.4411C42.9285 54.4411 49.1652 50.8517 50.7337 48.7646C52.9143 45.8631 54.1025 42.4411 54.1694 38.8637C54.2562 34.1993 52.453 30.5679 48.8091 28.0702C45.634 25.8939 41.1084 24.6901 35.7211 24.5896C30.3338 24.4891 25.766 25.5215 22.512 27.5789C18.7775 29.9389 16.8395 33.5004 16.7527 38.1648C16.6861 41.7405 17.7451 45.2061 19.8146 48.1871C21.2513 50.2553 27.2696 54.2111 35.3051 54.4331C35.4964 54.4384 35.6866 54.4411 35.8759 54.4411ZM35.0056 25.6077C35.2365 25.6077 35.4685 25.61 35.7045 25.6143C41.0215 25.7142 53.365 27.2015 53.1476 38.8447C53.0847 42.2038 51.9678 45.4211 49.9193 48.1492C48.4639 50.0855 42.1771 53.6 35.339 53.4077C27.7635 53.198 21.9536 49.4612 20.6619 47.6011C18.7149 44.7984 17.7188 41.5415 17.7814 38.1824C17.8619 33.8844 19.6392 30.6079 23.0642 28.4436C26.0043 26.5841 30.1235 25.6077 35.0056 25.6077Z" fill="#371A45"/>
<g opacity="0.4">
<path opacity="0.9" d="M20.8851 37.3715C20.5989 35.6046 21.4048 34.0041 22.6851 33.7968C23.9654 33.5894 25.2352 34.8537 25.5214 36.6206C25.8076 38.3875 25.0017 39.9879 23.7214 40.1953C22.4412 40.4026 21.1713 39.1384 20.8851 37.3715Z" fill="white"/>
</g>
<g opacity="0.4">
<path opacity="0.9" d="M24.7412 43.8417C24.4991 43.0566 24.849 42.2517 25.5228 42.0439C26.1966 41.8361 26.9391 42.3041 27.1812 43.0893C27.4233 43.8744 27.0734 44.6793 26.3996 44.8871C25.7259 45.0949 24.9834 44.6269 24.7412 43.8417Z" fill="white"/>
</g>
<g opacity="0.35">
<path opacity="0.35" d="M20.9688 29.3949C18.7057 31.476 17.3365 34.3658 17.2646 38.1739C17.198 41.7576 18.2993 45.1054 20.2356 47.8951C21.689 49.9861 27.7522 53.7117 35.3208 53.922C37.9933 53.9966 40.5833 53.5166 42.8521 52.7808C33.5542 52.3242 26.1694 47.7526 24.3678 45.1593C21.9083 41.6188 20.5112 37.3691 20.5967 32.8226C20.614 31.6709 20.7385 30.5234 20.9688 29.3949Z" fill="#111A28"/>
</g>
<path d="M52.4375 31.2556C52.5316 31.2555 52.6239 31.2296 52.7042 31.1805C52.7845 31.1315 52.8498 31.0613 52.8929 30.9776C52.9359 30.894 52.9551 30.8 52.9484 30.7062C52.9416 30.6123 52.9091 30.5221 52.8545 30.4455C49.7211 25.6573 43.5277 22.8294 35.8587 22.6863C28.2352 22.5458 21.941 25.0539 18.5832 29.5719C18.5059 29.6706 18.4674 29.7944 18.4752 29.9196C18.483 30.0448 18.5365 30.1628 18.6255 30.2512C18.7145 30.3396 18.8329 30.3923 18.9582 30.3992C19.0834 30.4061 19.2069 30.3668 19.3051 30.2888L19.357 30.2471L19.399 30.1919C22.5554 25.9369 28.5514 23.5785 35.84 23.7103C43.1723 23.8475 49.0647 26.512 52.0065 31.0206L52.0504 31.0789C52.0985 31.1344 52.1579 31.1789 52.2247 31.2094C52.2915 31.2399 52.3641 31.2556 52.4375 31.2556ZM52.4555 30.7274L52.4372 30.7434L52.4555 30.7274Z" fill="#371A45"/>
<g opacity="0.4">
<path opacity="0.9" d="M49.4652 44.4181C49.4652 44.4181 52.5767 35.1196 47.6054 31.2979C42.6342 27.4762 35.3811 27.356 35.5419 27.8243C35.5419 27.8243 43.5348 29.918 46.5581 36.3241C48.8888 41.264 49.4652 44.4181 49.4652 44.4181Z" fill="white"/>
</g>
<path d="M31.0204 19.8949L32.2186 9.06714C31.7579 8.96128 31.3482 8.69892 31.0593 8.32479C30.7705 7.95066 30.6203 7.48792 30.6344 7.01546C30.6486 6.543 30.8261 6.09007 31.1369 5.73388C31.4476 5.37769 31.8722 5.14029 32.3384 5.06216C32.8046 4.98403 33.2834 5.07 33.6933 5.30541C34.1032 5.54083 34.4187 5.91112 34.5861 6.35315C34.7535 6.79518 34.7624 7.28159 34.6113 7.72946C34.4602 8.17733 34.1585 8.55894 33.7575 8.80921L38.4209 18.5011" fill="#FFD516"/>
<g opacity="0.35">
<path opacity="0.35" d="M31.0204 19.8949L32.2186 9.06714C31.7579 8.96128 31.3482 8.69892 31.0593 8.32479C30.7705 7.95066 30.6203 7.48792 30.6344 7.01546C30.6486 6.543 30.8261 6.09007 31.1369 5.73388C31.4476 5.37769 31.8722 5.14029 32.3384 5.06216C32.8046 4.98403 33.2834 5.07 33.6933 5.30541C34.1032 5.54083 34.4187 5.91112 34.5861 6.35315C34.7535 6.79518 34.7624 7.28159 34.6113 7.72946C34.4602 8.17733 34.1585 8.55894 33.7575 8.80921L38.4209 18.5011" fill="#371A45"/>
</g>
<path d="M31.021 20.4075C31.1473 20.4073 31.269 20.3604 31.3628 20.276C31.4567 20.1915 31.516 20.0754 31.5296 19.9499L32.7756 8.67048L32.3313 8.56798C31.9859 8.48884 31.6786 8.29234 31.4619 8.01199C31.2452 7.73163 31.1325 7.38478 31.1429 7.03058C31.1534 6.67638 31.2863 6.33677 31.5192 6.06967C31.752 5.80256 32.0703 5.62451 32.4198 5.56586C32.7693 5.50721 33.1283 5.57161 33.4356 5.74806C33.7428 5.92452 33.9794 6.2021 34.1049 6.53349C34.2304 6.86487 34.2371 7.22953 34.1238 7.56527C34.0104 7.90102 33.7842 8.18706 33.4835 8.37461L33.0944 8.6179L37.9592 18.7235C37.9884 18.7841 38.0292 18.8384 38.0794 18.8832C38.1295 18.9281 38.188 18.9626 38.2515 18.9848C38.315 19.0071 38.3822 19.0166 38.4494 19.0128C38.5166 19.0091 38.5824 18.9921 38.643 18.9629C38.7036 18.9338 38.7579 18.8929 38.8027 18.8428C38.8476 18.7926 38.8821 18.7341 38.9043 18.6707C38.9265 18.6072 38.9361 18.5399 38.9323 18.4727C38.9286 18.4056 38.9116 18.3398 38.8824 18.2792L34.3981 8.96303C34.8053 8.59104 35.0812 8.09727 35.1847 7.5555C35.2881 7.01373 35.2134 6.45304 34.9719 5.9572C34.7303 5.46136 34.3348 5.05698 33.8444 4.80449C33.3541 4.55199 32.7952 4.46493 32.2513 4.55632C31.7073 4.6477 31.2076 4.91262 30.8266 5.3115C30.4457 5.71037 30.2041 6.22179 30.1378 6.76935C30.0715 7.31691 30.1842 7.87121 30.459 8.34944C30.7338 8.82766 31.1559 9.20415 31.6623 9.42265L30.5115 19.8397C30.504 19.9066 30.5097 19.9743 30.5284 20.039C30.5471 20.1036 30.5784 20.164 30.6205 20.2165C30.6625 20.2691 30.7145 20.3128 30.7735 20.3452C30.8324 20.3777 30.8972 20.3982 30.9641 20.4055C30.983 20.4072 31.002 20.4078 31.021 20.4075Z" fill="#371A45"/>
<path d="M22.4746 23.336L20.3612 12.6493C19.89 12.687 19.4202 12.5601 19.0321 12.2902C18.6439 12.0203 18.3614 11.6241 18.2327 11.1692C18.1039 10.7143 18.137 10.2288 18.3262 9.79556C18.5154 9.36229 18.849 9.00805 19.2701 8.79324C19.6913 8.57843 20.1739 8.51634 20.6357 8.61757C21.0975 8.71879 21.5099 8.97706 21.8026 9.34834C22.0953 9.71962 22.2501 10.1809 22.2407 10.6536C22.2313 11.1263 22.0583 11.5811 21.7511 11.9404L29.1143 19.7835" fill="#FFD516"/>
<g opacity="0.35">
<path opacity="0.35" d="M22.4746 23.336L20.3612 12.6493C19.89 12.687 19.4202 12.5601 19.0321 12.2902C18.6439 12.0203 18.3614 11.6241 18.2327 11.1692C18.1039 10.7143 18.137 10.2288 18.3262 9.79556C18.5154 9.36229 18.849 9.00805 19.2701 8.79324C19.6913 8.57843 20.1739 8.51634 20.6357 8.61757C21.0975 8.71879 21.5099 8.97706 21.8026 9.34834C22.0953 9.71962 22.2501 10.1809 22.2407 10.6536C22.2313 11.1263 22.0583 11.5811 21.7511 11.9404L29.1143 19.7835" fill="#371A45"/>
</g>
<path d="M22.4742 23.8486C22.5499 23.8484 22.6246 23.8316 22.693 23.7992C22.7614 23.7668 22.8218 23.7197 22.8699 23.6613C22.918 23.6028 22.9526 23.5345 22.9712 23.4611C22.9897 23.3877 22.9919 23.3111 22.9774 23.2368L20.7752 12.1025L20.3205 12.1388C19.9674 12.1675 19.6152 12.0727 19.3241 11.8708C19.033 11.6688 18.8209 11.3722 18.7241 11.0314C18.6272 10.6906 18.6516 10.3267 18.793 10.0018C18.9344 9.67698 19.1841 9.41122 19.4995 9.24988C19.815 9.08853 20.1766 9.04158 20.5228 9.11704C20.869 9.1925 21.1782 9.3857 21.3979 9.66368C21.6176 9.94167 21.734 10.2872 21.7274 10.6415C21.7208 10.9957 21.5915 11.3367 21.3616 11.6063L21.062 11.9554L28.7404 20.1327C28.8341 20.2291 28.9619 20.2849 29.0963 20.288C29.2307 20.2911 29.3609 20.2412 29.4589 20.1492C29.5569 20.0572 29.6148 19.9303 29.6202 19.796C29.6256 19.6617 29.5779 19.5306 29.4876 19.4311L22.4099 11.8958C22.6864 11.4187 22.8011 10.8649 22.7369 10.3172C22.6726 9.76951 22.4329 9.25729 22.0535 8.85707C21.6742 8.45685 21.1755 8.19012 20.632 8.09673C20.0885 8.00333 19.5294 8.08828 19.0381 8.33889C18.5469 8.5895 18.15 8.99231 17.9066 9.48715C17.6632 9.98199 17.5864 10.5423 17.6877 11.0844C17.7891 11.6264 18.0631 12.1212 18.4688 12.4946C18.8745 12.8681 19.3902 13.1003 19.9388 13.1565L21.9723 23.4372C21.9956 23.5531 22.0584 23.6574 22.1498 23.7324C22.2413 23.8074 22.3559 23.8484 22.4742 23.8486Z" fill="#371A45"/>
<path d="M13.2594 13.3181C13.3947 13.7967 13.6998 14.2094 14.1177 14.479C14.5356 14.7486 15.0374 14.8565 15.5292 14.7825L20.9334 25.7701L21.4689 25.7211C24.6631 25.4341 27.8227 24.8434 30.9049 23.9572C33.9869 23.0722 36.9773 21.8948 39.8353 20.441L39.2286 8.11058C39.669 7.94437 40.0385 7.6312 40.2746 7.224C40.5107 6.8168 40.599 6.34056 40.5246 5.87577C40.4501 5.41099 40.2174 4.98618 39.8659 4.67315C39.5143 4.36013 39.0655 4.17808 38.5952 4.1578C38.1249 4.13751 37.6621 4.28023 37.2849 4.56182C36.9077 4.84341 36.6393 5.24661 36.5251 5.70325C36.4108 6.15989 36.4578 6.64197 36.658 7.06799C36.8582 7.49401 37.1993 7.83784 37.6238 8.04136L36.5787 12.6182C36.2416 14.0946 34.8877 14.8451 33.6167 14.6923C32.8512 14.6018 32.119 14.1845 31.6477 13.4037L26.1124 4.1827C26.4882 3.89645 26.7531 3.48871 26.8619 3.02901C26.9707 2.56931 26.9168 2.08609 26.7092 1.66172C26.5016 1.23735 26.1533 0.898105 25.7236 0.701805C25.2939 0.505505 24.8095 0.464303 24.3528 0.585222C23.8961 0.706142 23.4955 0.981697 23.2193 1.36492C22.943 1.74814 22.8082 2.21531 22.8379 2.68679C22.8675 3.15827 23.0597 3.60488 23.3818 3.95048C23.7039 4.29609 24.1358 4.51931 24.604 4.58208L24.4044 15.4734C24.3601 17.9113 21.3554 19.0392 19.7187 17.232L16.8232 14.037C17.0409 13.7633 17.1847 13.4382 17.2407 13.0929C17.2967 12.7476 17.2631 12.3938 17.1431 12.0652C17.0231 11.7367 16.8207 11.4444 16.5553 11.2166C16.29 10.9887 15.9705 10.8328 15.6276 10.7638C15.2847 10.6948 14.9298 10.7151 14.597 10.8226C14.2641 10.9302 13.9645 11.1214 13.7268 11.378C13.4891 11.6346 13.3213 11.9479 13.2394 12.288C13.1576 12.6281 13.1645 12.9835 13.2594 13.3201V13.3181Z" fill="#FFD516"/>
<g opacity="0.35">
<path opacity="0.35" d="M24.3923 22.9851C20.6611 22.6356 16.6008 16.9585 16.6008 16.9585L20.9344 25.7718L21.4712 25.7232C24.6652 25.4355 27.8246 24.8449 30.9068 23.9593C33.9886 23.0737 36.9788 21.8962 39.8369 20.4427L39.8036 19.7921C33.175 22.4879 28.1361 23.3359 24.3923 22.9851Z" fill="#371A45"/>
</g>
<g opacity="0.5">
<path opacity="0.5" d="M33.4551 14.6697C32.7482 14.5443 32.0822 14.1319 31.6456 13.405L26.1119 4.18174C26.4855 3.89769 26.7499 3.49365 26.8606 3.03757C26.9713 2.58149 26.9215 2.1012 26.7197 1.67748C26.5179 1.25377 26.1763 0.91248 25.7524 0.711031C25.3285 0.509582 24.8482 0.460261 24.3922 0.571363C24.7665 0.663763 25.107 0.860132 25.3745 1.1378C25.642 1.41547 25.8255 1.76312 25.9038 2.14061C25.9821 2.51811 25.9521 2.91006 25.8172 3.27123C25.6823 3.63239 25.448 3.94804 25.1414 4.18174L30.6751 13.406C31.1437 14.1871 31.8789 14.6042 32.6433 14.6944C32.9136 14.7273 33.1873 14.719 33.4551 14.6697Z" fill="white"/>
</g>
<g opacity="0.5">
<path opacity="0.5" d="M33.6154 14.6948L33.6334 15.1607L34.9999 15.2572C35.623 15.3011 36.2397 15.1084 36.727 14.7177C37.2143 14.327 37.5365 13.7669 37.6291 13.1492L38.4768 7.49134C38.4768 7.49134 37.3229 7.14322 37.5413 5.83759C37.7623 4.51664 39.4014 4.70901 39.4014 4.70901L39.2433 4.29665C38.7507 4.10541 38.2032 4.11253 37.7158 4.31652C37.2283 4.52051 36.839 4.90548 36.6294 5.39055C36.4199 5.87562 36.4065 6.42302 36.5922 6.91773C36.7778 7.41245 37.1479 7.81596 37.6248 8.04348L36.5798 12.6204C36.242 14.097 34.8881 14.8475 33.6154 14.6948Z" fill="white"/>
</g>
<g opacity="0.5">
<path opacity="0.5" d="M23.5898 17.3296L23.8208 17.7216L22.7505 18.5204C22.2628 18.8832 21.6564 19.0491 21.0519 18.9849C20.4475 18.9207 19.8894 18.6311 19.4889 18.1739L15.8193 13.9805C15.8193 13.9805 16.5824 13.0885 15.7171 12.133C14.8415 11.1659 13.5991 12.1853 13.5991 12.1853L13.5119 11.7643C13.8152 11.3485 14.2678 11.0665 14.7747 10.9775C15.2816 10.8885 15.8032 10.9994 16.23 11.287C16.6568 11.5746 16.9555 12.0164 17.0634 12.5196C17.1712 13.0228 17.0798 13.5482 16.8084 13.9855L20.07 17.1885C21.1227 18.2192 22.6273 18.124 23.5898 17.3296Z" fill="white"/>
</g>
<path d="M36.5213 6.677L36.9243 4.91309C36.7253 5.15592 36.5854 5.4416 36.5154 5.74766C36.4455 6.05373 36.4475 6.37184 36.5213 6.677Z" fill="#FFD516"/>
<path d="M20.6278 26.3129L21.5144 26.2334C27.9826 25.6588 34.2805 23.8484 40.0665 20.9004L40.3637 20.7486L39.7576 8.42848C40.7641 7.8627 41.2886 6.64892 40.9664 5.50837C40.8555 5.11438 40.6515 4.75281 40.3717 4.45411C40.0919 4.15541 39.7444 3.92832 39.3584 3.79195C38.9725 3.65559 38.5595 3.61396 38.1541 3.67055C37.7487 3.72714 37.3629 3.88031 37.0291 4.11715C36.6953 4.35399 36.4232 4.66757 36.2359 5.03149C36.0486 5.39541 35.9514 5.79902 35.9527 6.20832C35.9539 6.61762 36.0534 7.02064 36.2429 7.38343C36.4324 7.74623 36.7063 8.05818 37.0415 8.29303L36.08 12.5055C35.8384 13.5641 35.0014 14.0607 34.2981 14.1729C33.5949 14.285 32.6451 14.073 32.0866 13.1411L26.7672 4.27529C27.1385 3.86755 27.3679 3.35063 27.4212 2.80175C27.4744 2.25287 27.3487 1.7015 27.0627 1.22999C26.7767 0.758484 26.3458 0.39216 25.8345 0.185743C25.3231 -0.0206741 24.7587 -0.0561035 24.2255 0.0847466C23.6923 0.225597 23.219 0.535166 22.8763 0.967208C22.5336 1.39925 22.3399 1.93058 22.3241 2.48181C22.3083 3.03304 22.4713 3.57459 22.7887 4.02555C23.1061 4.47652 23.5608 4.81269 24.0851 4.98385L23.8937 15.4619C23.8737 16.5535 23.1502 17.2111 22.4799 17.4624C21.8096 17.7137 20.8325 17.6954 20.0993 16.885L17.47 13.9825C17.67 13.6146 17.7765 13.2033 17.7801 12.7846C17.7837 12.3659 17.6844 11.9527 17.4908 11.5815C17.2972 11.2102 17.0153 10.8922 16.67 10.6555C16.3246 10.4188 15.9263 10.2706 15.5102 10.224C15.0941 10.1774 14.673 10.2338 14.2838 10.3882C13.8946 10.5426 13.5494 10.7903 13.2784 11.1096C13.0075 11.4288 12.8192 11.8097 12.73 12.2188C12.6409 12.6279 12.6537 13.0527 12.7674 13.4557C12.9189 13.9905 13.2404 14.4614 13.6834 14.7973C14.1264 15.1331 14.6667 15.3156 15.2225 15.3171L20.6278 26.3129ZM39.307 20.1362C33.7179 22.9375 27.6508 24.6599 21.4235 25.213L21.2375 25.2296L15.8229 14.2211L15.4522 14.2774C15.0837 14.3324 14.7079 14.2513 14.395 14.0491C14.0821 13.8469 13.8537 13.5376 13.7525 13.1791C13.6922 12.984 13.6716 12.7788 13.6918 12.5757C13.7121 12.3725 13.7727 12.1754 13.8703 11.9961C13.9678 11.8167 14.1002 11.6586 14.2597 11.5312C14.4192 11.4038 14.6026 11.3095 14.7991 11.254C14.9956 11.1985 15.2012 11.1829 15.4038 11.208C15.6064 11.2332 15.802 11.2986 15.9789 11.4005C16.1559 11.5023 16.3107 11.6385 16.4342 11.8011C16.5578 11.9636 16.6475 12.1493 16.6982 12.347C16.7635 12.5805 16.7726 12.8261 16.7247 13.0638C16.6768 13.3014 16.5733 13.5243 16.4227 13.7142L16.1528 14.0547L19.3395 17.5726C20.241 18.5677 21.582 18.8932 22.8393 18.4212C24.0967 17.9493 24.8928 16.8237 24.9171 15.4802L25.1244 4.13118L24.6728 4.06994C24.3216 4.02317 23.9974 3.85601 23.7557 3.59696C23.5139 3.33792 23.3695 3.00303 23.347 2.64941C23.3246 2.29578 23.4255 1.94531 23.6325 1.65777C23.8396 1.37023 24.14 1.16341 24.4825 1.07259C24.825 0.981765 25.1884 1.01256 25.5107 1.15972C25.8331 1.30689 26.0944 1.5613 26.2501 1.87959C26.4058 2.19788 26.4463 2.56032 26.3646 2.90513C26.283 3.24993 26.0843 3.55574 25.8024 3.77041L25.4363 4.04798L31.2066 13.6663C31.8936 14.8112 33.1393 15.3916 34.4582 15.182C35.7772 14.9723 36.7803 14.0328 37.0775 12.7308L38.214 7.75886L37.8453 7.58214C37.5272 7.42978 37.2715 7.17227 37.1213 6.85313C36.9712 6.53399 36.9358 6.1728 37.0212 5.8306C37.1067 5.4884 37.3076 5.1862 37.5901 4.97506C37.8727 4.76393 38.2194 4.65682 38.5718 4.67183C38.9242 4.68685 39.2605 4.82307 39.5241 5.05747C39.7876 5.29188 39.9621 5.61008 40.0181 5.9583C40.0741 6.30653 40.0082 6.6634 39.8314 6.96861C39.6547 7.27382 39.378 7.50865 39.0481 7.63339L38.6986 7.76652L39.307 20.1362Z" fill="#371A45"/>
<path d="M29.9763 20.3535L30.9468 17.2217L28.3282 15.2488L27.358 18.3806L29.9763 20.3535Z" fill="#FF5555"/>
<g opacity="0.4">
<path opacity="0.4" d="M30.9468 17.2217L28.3282 15.2488L29.1519 17.7545L30.9468 17.2217Z" fill="white"/>
</g>
<path d="M30.2502 21.2012L31.5425 17.0294L28.0546 14.4001L26.7619 18.572L30.2502 21.2012ZM30.35 17.4141L29.702 19.5059L27.9531 18.1882L28.6011 16.0965L30.35 17.4141Z" fill="#371A45"/>
<path d="M34.9389 58.2078L34.6061 59.3531C34.5695 59.4787 34.4942 59.5895 34.3908 59.6697C34.2875 59.7499 34.1614 59.7954 34.0306 59.7997L32.8388 59.8376C32.2398 59.8569 32.0138 60.6327 32.5107 60.9692L33.4968 61.6388C33.6052 61.7123 33.6875 61.8183 33.7319 61.9414C33.7763 62.0646 33.7806 62.1987 33.7441 62.3244L33.4113 63.4693C33.2449 64.0461 33.9105 64.501 34.3864 64.1316L35.3283 63.3994C35.4317 63.3193 35.5579 63.2739 35.6887 63.2698C35.8195 63.2656 35.9482 63.303 36.0565 63.3765L37.0456 64.0477C37.5422 64.3849 38.1805 63.8897 37.9775 63.3249L37.5731 62.2033C37.529 62.0803 37.5248 61.9464 37.5613 61.8209C37.5978 61.6954 37.673 61.5846 37.7761 61.5044L38.718 60.7722C39.1923 60.4041 38.9177 59.6443 38.3186 59.6632L37.1272 59.7012C36.9963 59.7054 36.8675 59.668 36.7592 59.5945C36.6509 59.5209 36.5687 59.415 36.5244 59.2918L36.1201 58.1702C35.915 57.6054 35.1076 57.6311 34.9389 58.2078Z" fill="#FFDA00"/>
<path d="M34.9389 58.2078L34.6061 59.3531C34.5695 59.4787 34.4942 59.5895 34.3908 59.6697C34.2875 59.7499 34.1614 59.7954 34.0306 59.7997L32.8388 59.8376C32.2398 59.8569 32.0138 60.6327 32.5107 60.9692L33.4968 61.6388C33.6052 61.7123 33.6875 61.8183 33.7319 61.9414C33.7763 62.0646 33.7806 62.1987 33.7441 62.3244L33.4113 63.4693C33.2449 64.0461 33.9105 64.501 34.3864 64.1316L35.3283 63.3994C35.4317 63.3193 35.5579 63.2739 35.6887 63.2698C35.8195 63.2656 35.9482 63.303 36.0565 63.3765L37.0456 64.0477C37.5422 64.3849 38.1805 63.8897 37.9775 63.3249L37.5731 62.2033C37.529 62.0803 37.5248 61.9464 37.5613 61.8209C37.5978 61.6954 37.673 61.5846 37.7761 61.5044L38.718 60.7722C39.1923 60.4041 38.9177 59.6443 38.3186 59.6632L37.1272 59.7012C36.9963 59.7054 36.8675 59.668 36.7592 59.5945C36.6509 59.5209 36.5687 59.415 36.5244 59.2918L36.1201 58.1702C35.915 57.6054 35.1076 57.6311 34.9389 58.2078Z" fill="#FFDA00"/>
<g opacity="0.35">
<path opacity="0.35" d="M34.9389 58.2078L34.6061 59.3531C34.5695 59.4787 34.4942 59.5895 34.3908 59.6697C34.2875 59.7499 34.1614 59.7954 34.0306 59.7997L32.8388 59.8376C32.2398 59.8569 32.0138 60.6327 32.5107 60.9692L33.4968 61.6388C33.6052 61.7123 33.6875 61.8183 33.7319 61.9414C33.7763 62.0646 33.7806 62.1987 33.7441 62.3244L33.4113 63.4693C33.2449 64.0461 33.9105 64.501 34.3864 64.1316L35.3283 63.3994C35.4317 63.3193 35.5579 63.2739 35.6887 63.2698C35.8195 63.2656 35.9482 63.303 36.0565 63.3765L37.0456 64.0477C37.5422 64.3849 38.1805 63.8897 37.9775 63.3249L37.5731 62.2033C37.529 62.0803 37.5248 61.9464 37.5613 61.8209C37.5978 61.6954 37.673 61.5846 37.7761 61.5044L38.718 60.7722C39.1923 60.4041 38.9177 59.6443 38.3186 59.6632L37.1272 59.7012C36.9963 59.7054 36.8675 59.668 36.7592 59.5945C36.6509 59.5209 36.5687 59.415 36.5244 59.2918L36.1201 58.1702C35.915 57.6054 35.1076 57.6311 34.9389 58.2078Z" fill="#371A45"/>
</g>
<path d="M35.2584 58.4396L34.8856 59.7239C34.868 59.7845 34.8316 59.838 34.7818 59.8767C34.7319 59.9155 34.6711 59.9375 34.608 59.9396L33.2718 59.9818C33.2088 59.984 33.148 60.0061 33.0983 60.0448C33.0485 60.0836 33.0122 60.1371 32.9946 60.1976C32.977 60.2582 32.979 60.3228 33.0003 60.3821C33.0215 60.4415 33.061 60.4927 33.113 60.5283L34.2193 61.2795C34.2714 61.315 34.311 61.3661 34.3324 61.4254C34.3538 61.4848 34.3559 61.5493 34.3385 61.61L33.966 62.8943C33.9488 62.9549 33.9511 63.0194 33.9726 63.0786C33.9941 63.1378 34.0338 63.1887 34.0859 63.2241C34.138 63.2595 34.2 63.2775 34.2629 63.2757C34.3259 63.2738 34.3867 63.2522 34.4366 63.2138L35.4927 62.3937C35.5426 62.3551 35.6035 62.3332 35.6666 62.3313C35.7297 62.3293 35.7918 62.3473 35.8441 62.3828L36.9504 63.1336C37.0027 63.1687 37.0647 63.1864 37.1277 63.1843C37.1906 63.1821 37.2513 63.1602 37.3011 63.1215C37.3508 63.0829 37.3871 63.0296 37.4048 62.9691C37.4225 62.9087 37.4207 62.8442 37.3997 62.7848L36.9464 61.5271C36.925 61.4677 36.9229 61.403 36.9405 61.3423C36.9581 61.2816 36.9944 61.2281 37.0442 61.1893L38.1006 60.3696C38.1502 60.3307 38.1862 60.2772 38.2037 60.2167C38.2211 60.1561 38.219 60.0916 38.1976 60.0324C38.1763 59.9731 38.1368 59.922 38.0848 59.8865C38.0328 59.851 37.9709 59.8327 37.9079 59.8344L36.5713 59.877C36.5082 59.8789 36.446 59.8608 36.3938 59.8253C36.3416 59.7898 36.3019 59.7387 36.2804 59.6793L35.8271 58.4216C35.8055 58.3623 35.7658 58.3114 35.7136 58.2761C35.6613 58.2407 35.5993 58.2228 35.5362 58.2248C35.4732 58.2268 35.4124 58.2486 35.3625 58.2872C35.3126 58.3257 35.2762 58.3791 35.2584 58.4396Z" fill="#FFDA00"/>
<g opacity="0.4">
<path opacity="0.4" d="M33.2825 60.4867L34.6524 60.4438C34.7037 60.4425 34.7534 60.4256 34.795 60.3955C34.8365 60.3654 34.868 60.3234 34.8853 60.2751L35.305 59.0936C35.3222 59.0456 35.3533 59.0038 35.3945 58.9737C35.4356 58.9436 35.4849 58.9266 35.5358 58.9248C35.5868 58.923 35.6371 58.9365 35.6803 58.9637C35.7234 58.9908 35.7575 59.0302 35.7779 59.0769L36.2838 60.2315C36.3043 60.278 36.3383 60.3174 36.3813 60.3445C36.4244 60.3716 36.4746 60.3852 36.5255 60.3836L37.9286 60.3383C38.1872 60.33 38.2787 59.9686 38.0438 59.8611C38.0007 59.8418 37.9538 59.8328 37.9066 59.8348L36.5707 59.877C36.5077 59.8789 36.4456 59.8608 36.3935 59.8254C36.3413 59.79 36.3017 59.739 36.2802 59.6797L35.8269 58.422C35.8053 58.3627 35.7655 58.3118 35.7133 58.2764C35.6611 58.2411 35.599 58.2231 35.536 58.2251C35.4729 58.2271 35.4121 58.249 35.3622 58.2875C35.3123 58.3261 35.2759 58.3794 35.2581 58.4399L34.8857 59.7246C34.8679 59.7851 34.8315 59.8385 34.7816 59.8771C34.7317 59.9157 34.6708 59.9376 34.6078 59.9396L33.2719 59.9819C33.2246 59.983 33.1784 59.9952 33.1367 60.0175C32.9088 60.1403 33.0242 60.4944 33.2825 60.4867Z" fill="white"/>
</g>
<path d="M34.0103 64.7799C34.2618 64.7788 34.5057 64.6936 34.7032 64.538L35.6451 63.8058C35.663 63.7918 35.6849 63.7839 35.7077 63.7832C35.7304 63.7825 35.7528 63.789 35.7716 63.8018L36.7577 64.4717C36.9554 64.6064 37.1908 64.675 37.4299 64.6676C37.6691 64.6602 37.8997 64.5771 38.0887 64.4304C38.2777 64.2836 38.4153 64.0808 38.4818 63.8509C38.5483 63.6211 38.5402 63.3761 38.4587 63.1511L38.0543 62.0295C38.0466 62.0082 38.0458 61.9849 38.0521 61.963C38.0585 61.9412 38.0716 61.9219 38.0896 61.908L39.0311 61.1759C39.2202 61.0294 39.358 60.8268 39.4248 60.5971C39.4915 60.3675 39.4838 60.1225 39.4027 59.8976C39.3216 59.6726 39.1712 59.4791 38.9733 59.3448C38.7754 59.2106 38.54 59.1425 38.3009 59.1504L37.1095 59.1883C37.0869 59.1883 37.0648 59.1815 37.0461 59.1688C37.0274 59.1561 37.0129 59.1381 37.0046 59.1171L36.6006 57.9955C36.5198 57.7703 36.3697 57.5765 36.1718 57.442C35.974 57.3074 35.7386 57.2391 35.4995 57.2467C35.2604 57.2543 35.0298 57.3375 34.8409 57.4844C34.6521 57.6312 34.5146 57.8342 34.4483 58.064L34.1155 59.2093C34.1091 59.2311 34.0961 59.2503 34.0781 59.2643C34.0602 59.2782 34.0383 59.2861 34.0156 59.2868L32.8238 59.3247C32.5848 59.3323 32.3544 59.4153 32.1656 59.5619C31.9767 59.7086 31.8392 59.9112 31.7726 60.1409C31.7061 60.3705 31.714 60.6153 31.7952 60.8402C31.8765 61.065 32.0268 61.2584 32.2247 61.3925L33.2112 62.0625C33.23 62.0752 33.2443 62.0935 33.252 62.1149C33.2597 62.1363 33.2603 62.1595 33.2538 62.1813L32.921 63.3265C32.8514 63.5565 32.858 63.8027 32.9398 64.0286C33.0215 64.2545 33.174 64.448 33.3746 64.5802C33.5616 64.7092 33.7831 64.7788 34.0103 64.7799ZM35.711 62.7591C35.4594 62.7591 35.2151 62.8431 35.0167 62.9977L34.0752 63.7299C34.0573 63.7439 34.0354 63.7519 34.0126 63.7526C33.9899 63.7534 33.9675 63.7469 33.9487 63.7342C33.9298 63.7214 33.9155 63.703 33.9078 63.6816C33.9001 63.6602 33.8994 63.6369 33.9058 63.6151L34.2386 62.4702C34.3057 62.2406 34.2981 61.9956 34.217 61.7706C34.1359 61.5456 33.9854 61.3521 33.7873 61.2181L32.8008 60.5485C32.7821 60.5358 32.7678 60.5174 32.7601 60.496C32.7524 60.4747 32.7517 60.4515 32.758 60.4297C32.7643 60.4079 32.7774 60.3886 32.7953 60.3747C32.8132 60.3608 32.8351 60.3529 32.8578 60.3521L34.0496 60.3139C34.2886 60.3067 34.5192 60.2239 34.7082 60.0773C34.8971 59.9307 35.0346 59.7279 35.1009 59.4981L35.4337 58.3529C35.4401 58.3311 35.4531 58.3119 35.471 58.298C35.4889 58.284 35.5108 58.2761 35.5335 58.2754C35.5562 58.2746 35.5785 58.2811 35.5973 58.2938C35.6161 58.3066 35.6304 58.3249 35.6381 58.3463L36.0421 59.4678C36.1232 59.6928 36.2734 59.8864 36.4712 60.0206C36.6691 60.1549 36.9044 60.2231 37.1434 60.2154L38.3349 60.1774C38.3576 60.1766 38.38 60.1831 38.3988 60.1958C38.4176 60.2086 38.4319 60.2269 38.4396 60.2483C38.4474 60.2697 38.4481 60.2929 38.4418 60.3148C38.4355 60.3366 38.4224 60.3558 38.4044 60.3698L37.4626 61.102C37.2734 61.2483 37.1355 61.451 37.0688 61.6807C37.0022 61.9105 37.0103 62.1554 37.0918 62.3803L37.4962 63.5019C37.5039 63.5233 37.5046 63.5465 37.4983 63.5683C37.492 63.5901 37.479 63.6093 37.4611 63.6232C37.4431 63.6372 37.4213 63.6451 37.3986 63.6458C37.3759 63.6466 37.3536 63.6401 37.3348 63.6274L36.3483 62.9574C36.1608 62.8284 35.9386 62.7589 35.711 62.7581V62.7591Z" fill="#371A45"/>
<g opacity="0.5">
<path opacity="0.5" d="M4.36847 40.812C4.36847 40.812 3.80002 41.6131 3.83596 42.8971C3.85893 43.7268 4.32587 44.5096 4.48096 44.4234C4.65636 44.3259 4.52622 43.6789 4.65003 41.9729C4.69662 41.3206 4.99116 39.8329 4.36847 40.812Z" fill="white"/>
</g>
<g opacity="0.5">
<path opacity="0.5" d="M8.52641 40.812C8.52641 40.812 9.09486 41.6131 9.05891 42.8971C9.03595 43.7268 8.56901 44.5096 8.41392 44.4234C8.23853 44.3259 8.36865 43.6789 8.24485 41.9729C8.19825 41.3206 7.90371 39.8329 8.52641 40.812Z" fill="white"/>
</g>
</g>
<defs>
<clipPath id="clip0_1_579">
<rect width="62" height="105" fill="white"/>
</clipPath>
</defs>
</svg>
