<svg width="66" height="105" viewBox="0 0 66 105" fill="none" xmlns="http://www.w3.org/2000/svg">
<g clip-path="url(#clip0_0_3)">
<path d="M53.5871 70.7959L53.6589 71.9785C53.6648 72.0753 53.6501 72.1722 53.6157 72.2629C53.5812 72.3536 53.5278 72.4361 53.459 72.5048C53.3901 72.5736 53.3074 72.627 53.2163 72.6617C53.1251 72.6964 53.0276 72.7115 52.9302 72.7061C52.4484 72.6799 51.9698 72.6133 51.4993 72.5072C50.7001 72.3241 49.9272 72.0422 49.1985 71.6681C49.1985 72.0774 49.1931 72.4868 49.1845 72.9029C49.1826 73.0373 49.1791 73.1717 49.1738 73.3061C49.1687 73.5108 49.1615 73.7195 49.1529 73.9269C49.1529 73.946 49.1512 73.9634 49.1512 73.9829C49.1422 74.2131 49.1299 74.4434 49.1168 74.6753C49.1027 74.956 49.0849 75.2368 49.0657 75.5195C49.0554 75.6833 49.043 75.849 49.0289 76.0148C49.0217 76.1281 49.0114 76.2417 49.0025 76.3559C48.964 76.8392 48.9182 77.3241 48.8651 77.8107C48.4754 81.4264 47.7292 85.1469 46.5421 88.735C46.5421 88.7384 46.5421 88.7401 46.5421 88.7438C46.5246 88.7943 46.5077 88.8462 46.4912 88.8973C46.2332 88.7768 45.9631 88.6838 45.6853 88.62C45.6623 88.6128 45.6376 88.6077 45.6132 88.6023C45.4763 88.5722 45.3371 88.5542 45.197 88.5484H45.1898C45.1003 88.545 45.0106 88.5467 44.9213 88.5535C44.2108 88.6155 43.5051 88.7233 42.8087 88.8762C40.2013 89.4397 37.3934 90.6257 35.7884 92.206L35.0652 85.1871C33.3689 85.571 31.6732 85.5105 29.9782 85.0057L29.2372 92.206C27.1827 90.1843 23.1591 88.8066 20.103 88.5535C19.8712 88.5349 19.6379 88.5513 19.411 88.6023C19.3269 88.6217 19.2441 88.6425 19.1652 88.6633C17.8905 84.7809 17.1264 80.7446 16.7738 76.8611C16.758 76.6936 16.7439 76.5261 16.7298 76.3587C16.6982 75.9766 16.6718 75.5966 16.6471 75.218C16.591 74.2936 16.556 73.3825 16.542 72.4847C14.8999 72.4847 12.5068 72.1811 10.5893 71.4921C10.122 71.3238 9.70746 71.0363 9.38742 70.6585C9.15501 70.3847 8.98168 70.0665 8.87818 69.7235C7.35386 64.641 11.4313 57.2189 16.6045 53.4688C14.083 51.7698 13.4109 49.4537 14.8731 47.6257L43.0615 47.5943L50.7771 47.5854C52.2801 49.4203 51.6181 51.7558 49.079 53.4688C49.8093 53.8718 50.5111 54.2724 51.1844 54.6705C52.6067 55.5131 53.892 56.3467 55.0211 57.1684C62.016 62.256 63.0338 66.9097 53.5871 70.7959Z" fill="#FF5555"/>
<path d="M49.3318 71.2865C49.3227 71.3493 49.3283 71.4134 49.3483 71.4737C49.3739 71.5244 49.4115 71.5682 49.4578 71.6013C49.9042 71.9663 50.5223 72.0386 51.1013 72.0523C51.6802 72.0659 52.2791 72.04 52.8162 72.2569C52.9302 72.3026 53.0469 72.3593 53.1695 72.3494C53.4693 72.3228 53.5737 71.9462 53.6032 71.6487C53.6334 71.34 53.6592 71.0085 53.5036 70.7393C53.4202 70.5951 53.2918 70.4832 53.1654 70.3737C52.8951 70.1397 52.6249 69.9057 52.3478 69.6799C52.0367 69.4271 51.7111 69.1819 51.3379 69.0342C50.932 68.8735 49.7462 68.6051 49.386 68.9827C49.18 69.1989 49.3321 69.6966 49.3441 69.9592C49.3644 70.4015 49.3602 70.8446 49.3318 71.2865Z" fill="white"/>
<path d="M49.4214 53.972C48.5066 54.4786 47.5451 54.8292 46.574 55.0803C45.6105 55.3231 44.6281 55.4844 43.6373 55.5622C43.6163 55.5625 43.5959 55.5554 43.5798 55.5421C43.5636 55.5287 43.5528 55.5102 43.5492 55.4896C43.5456 55.4691 43.5494 55.4479 43.5601 55.43C43.5708 55.4121 43.5875 55.3985 43.6074 55.3917C44.5437 55.1467 45.4573 54.8231 46.3384 54.4243C47.2058 54.0256 48.0244 53.5412 48.7311 52.963C48.8584 52.8686 49.0173 52.8265 49.1749 52.8453C49.3326 52.8642 49.4769 52.9426 49.5779 53.0643C49.6789 53.1859 49.7289 53.3416 49.7176 53.4989C49.7062 53.6562 49.6343 53.8032 49.5168 53.9093C49.489 53.932 49.4592 53.9523 49.4279 53.97L49.4214 53.972Z" fill="#371A45"/>
<path d="M17.9249 91.9016C18.119 92.0081 18.3354 92.0685 18.557 92.0779C22.3975 92.2628 26.1182 93.7227 28.3502 96.0774C28.4661 96.201 28.6064 96.2995 28.7623 96.367C28.9055 96.4313 29.0602 96.4669 29.2173 96.4717C29.8011 96.4942 30.378 96.1142 30.4988 95.4566C30.722 94.2627 30.1898 93.1626 29.2173 92.2051C27.1628 90.1834 23.1393 88.8057 20.0831 88.5526C19.8507 88.534 19.6168 88.5504 19.3894 88.6014C19.0867 88.6674 18.7923 88.7664 18.5114 88.8964C17.8933 89.184 17.4946 89.594 17.2841 90.0633C16.9654 90.7749 17.2937 91.5598 17.9249 91.9016Z" fill="white"/>
<path d="M29.2637 96.5597C29.247 96.5597 29.2302 96.5597 29.2132 96.5597C29.0448 96.5547 28.879 96.5165 28.7256 96.4471C28.5597 96.3752 28.4106 96.2701 28.2874 96.1384C26.1083 93.8394 22.4697 92.3545 18.554 92.1659C18.3192 92.156 18.0898 92.0921 17.884 91.9793C17.1825 91.5997 16.8841 90.7431 17.2048 90.0285C17.4383 89.5094 17.8655 89.1024 18.4754 88.8183C18.7619 88.6858 19.0622 88.5849 19.3709 88.5174C19.6073 88.464 19.8505 88.447 20.0921 88.467C23.0493 88.7115 27.1546 90.0531 29.2792 92.1444C30.3602 93.2083 30.7997 94.3275 30.584 95.4732C30.4522 96.1937 29.8289 96.5597 29.2637 96.5597ZM19.898 88.6338C19.7338 88.6339 19.57 88.6521 19.4097 88.688C19.1138 88.7527 18.8259 88.8494 18.5513 88.9766C17.9805 89.2423 17.5819 89.6202 17.3662 90.1002C17.0826 90.7319 17.3473 91.4902 17.9692 91.8265C18.1515 91.9266 18.3548 91.9832 18.5629 91.9919C22.5233 92.1826 26.2065 93.6882 28.4159 96.019C28.5231 96.1338 28.6529 96.2254 28.7974 96.2881C28.9305 96.3483 29.0743 96.3815 29.2204 96.3857C29.7235 96.4079 30.2942 96.0876 30.413 95.4422C30.6156 94.3572 30.1926 93.2892 29.1555 92.2699C27.0608 90.2083 23.003 88.8845 20.0776 88.6423C20.0175 88.6338 19.9578 88.6338 19.898 88.6338Z" fill="#371A45"/>
<g opacity="0.3">
<path opacity="0.3" d="M30.4982 95.4558C30.3773 96.1134 29.7994 96.4934 29.2163 96.4709C29.0593 96.4661 28.9048 96.4305 28.7617 96.3662C28.6058 96.2986 28.4656 96.2001 28.3496 96.0766C27.7263 95.4189 26.987 94.8312 26.1636 94.3219C26.7326 94.3253 27.2892 93.9488 27.4067 93.3051C27.6127 92.2061 27.1769 91.1858 26.348 90.2839C27.4702 90.8246 28.4708 91.4734 29.2153 92.2044C30.1892 93.1625 30.7214 94.2619 30.4982 95.4558Z" fill="#371A45"/>
</g>
<g opacity="0.55">
<path opacity="0.55" d="M21.2742 88.9346C20.9715 89.0005 20.677 89.0993 20.3961 89.2293C19.778 89.5172 19.3793 89.9272 19.1688 90.3963C18.8667 91.0679 19.1424 91.8057 19.708 92.1721C19.3268 92.1284 18.9422 92.097 18.5576 92.0779C18.336 92.0685 18.1196 92.0081 17.9254 91.9016C17.2932 91.5605 16.9639 90.7759 17.2846 90.0633C17.4951 89.594 17.8938 89.184 18.5119 88.8964C18.7928 88.7664 19.0873 88.6674 19.39 88.6014C19.6174 88.5504 19.8513 88.534 20.0836 88.5526C20.8909 88.6238 21.6919 88.7526 22.4805 88.938C22.3068 88.9172 22.1371 88.8998 21.9678 88.8859C21.7355 88.8672 21.5016 88.8837 21.2742 88.9346Z" fill="white"/>
</g>
<path d="M28.7617 96.3668V96.3685C28.1645 98.2524 25.8961 99.7734 23.2551 100.703C19.234 102.117 14.3489 102.167 13.1758 100.049C13.0385 99.3965 13.0581 98.7371 13.3534 98.1112C13.5093 97.7843 13.6981 97.4739 13.9169 97.1847V97.183C15.1109 95.5798 17.118 94.2615 17.9239 91.9014C18.1181 92.0079 18.3345 92.0683 18.5561 92.0777C22.3966 92.2626 26.1172 93.7225 28.3489 96.0772C28.4651 96.2007 28.6056 96.2993 28.7617 96.3668Z" fill="#FF5555"/>
<g opacity="0.55">
<path opacity="0.55" d="M22.1542 92.6342C21.4205 92.5029 20.6791 92.419 19.9345 92.3831C19.7129 92.3737 19.4965 92.3133 19.3023 92.2068C18.3473 95.0039 15.7046 96.3372 14.73 98.4149C14.4351 99.0412 14.4155 99.7005 14.5525 100.353C14.8756 100.937 15.4831 101.356 16.277 101.626C14.8142 101.443 13.6672 100.936 13.1758 100.048C13.0385 99.3952 13.0581 98.7359 13.3534 98.11C14.3279 96.0292 16.9703 94.6962 17.9256 91.9019C18.1198 92.0084 18.3362 92.0688 18.5578 92.0782C19.7731 92.1361 20.9787 92.3225 22.1542 92.6342Z" fill="white"/>
</g>
<path d="M29.2159 96.4716V98.9886C29.2155 99.4983 29.1024 100.002 28.8846 100.463C28.6668 100.925 28.3495 101.333 27.9553 101.659C26.8506 102.573 25.4304 103.286 23.9095 103.754C19.8602 104.999 15.0929 104.498 13.6421 101.385C13.4401 100.951 13.2715 100.501 13.1768 100.049C13.2784 100.23 13.4048 100.395 13.5524 100.541C13.5823 100.571 13.6139 100.6 13.6455 100.63C13.9336 100.886 14.2979 101.096 14.7203 101.258C14.8607 101.312 15.0084 101.36 15.1609 101.406C15.9373 101.629 16.8662 101.725 17.8689 101.708L18.0495 101.702C18.0687 101.702 18.0883 101.702 18.1075 101.701C18.1762 101.701 18.2449 101.696 18.3136 101.692C18.5014 101.683 18.6913 101.671 18.886 101.654C18.9317 101.65 18.979 101.647 19.0264 101.641C19.1216 101.631 19.2163 101.622 19.3111 101.612L19.4849 101.591L19.6411 101.57C19.75 101.556 19.8605 101.54 19.9711 101.523L20.1713 101.492C20.2541 101.478 20.3382 101.464 20.4209 101.448C20.54 101.427 20.6594 101.404 20.7791 101.38C23.2076 100.895 25.6553 99.8939 27.2198 98.5349C27.2586 98.5008 27.297 98.4687 27.3341 98.4326C27.4715 98.3067 27.6061 98.1778 27.729 98.0451C27.7572 98.0174 27.7836 97.9878 27.8097 97.9581C28.0234 97.724 28.2145 97.4705 28.3804 97.2008C28.4086 97.1521 28.4367 97.105 28.4632 97.0562C28.4896 97.0074 28.514 96.9621 28.5387 96.915C28.5731 96.8451 28.6074 96.7738 28.6387 96.7004C28.6579 96.6568 28.6754 96.6114 28.6929 96.5661C28.7194 96.4999 28.7424 96.4334 28.7616 96.3672V96.3655C28.8836 96.4206 29.0143 96.4542 29.1479 96.4647C29.1703 96.4689 29.1931 96.4711 29.2159 96.4716Z" fill="white"/>
<path d="M19.7951 104.475C17.0541 104.475 14.5621 103.568 13.5611 101.422C13.3314 100.928 13.1772 100.484 13.0897 100.067L12.9712 99.5018L13.2524 100.007C13.3499 100.18 13.4714 100.339 13.6133 100.479C13.6429 100.508 13.6738 100.537 13.7047 100.566C13.9794 100.809 14.3303 101.015 14.7506 101.176C14.8825 101.227 15.0254 101.275 15.185 101.322C15.9343 101.538 16.8361 101.638 17.8659 101.62L18.0458 101.615C18.0651 101.615 18.0802 101.615 18.0984 101.615C18.1719 101.613 18.2395 101.61 18.3072 101.606C18.5132 101.597 18.6979 101.584 18.8762 101.568C18.9249 101.564 18.9699 101.561 19.0135 101.556L19.6261 101.485C19.7346 101.471 19.8445 101.455 19.9541 101.438L20.1872 101.401C20.2583 101.389 20.3304 101.377 20.4008 101.364C20.5208 101.342 20.6398 101.32 20.7579 101.295C23.3536 100.777 25.6866 99.7474 27.1588 98.4703C27.1983 98.4362 27.235 98.4048 27.27 98.3718C27.4208 98.2353 27.5482 98.1105 27.6611 97.9884C27.6903 97.9594 27.7154 97.9311 27.7408 97.9027C27.9507 97.6723 28.1387 97.423 28.3023 97.1581L28.3239 97.1199C28.3442 97.0858 28.3637 97.0517 28.3823 97.0176C28.4091 96.9702 28.4331 96.9238 28.4571 96.8774C28.4915 96.8092 28.5237 96.7409 28.5547 96.6686C28.5739 96.6256 28.5907 96.5816 28.6079 96.5373C28.6319 96.4766 28.6529 96.4165 28.6721 96.3565V96.2347L28.7961 96.2886C28.9089 96.3393 29.0297 96.3705 29.1532 96.3807C29.1735 96.3838 29.1941 96.3854 29.2147 96.3855H29.3026V98.9898C29.3027 99.5124 29.187 100.028 28.9636 100.502C28.7403 100.975 28.4148 101.393 28.0104 101.727C26.9307 102.621 25.5215 103.351 23.9343 103.838C22.5965 104.249 21.1645 104.475 19.7951 104.475ZM13.3819 100.489C13.4759 100.782 13.589 101.07 13.7205 101.349C15.1795 104.476 19.9379 104.884 23.8849 103.67C25.45 103.189 26.838 102.47 27.9001 101.592C28.2849 101.274 28.5946 100.876 28.807 100.426C29.0195 99.9763 29.1296 99.4855 29.1295 98.9885V96.552C29.0228 96.5429 28.9177 96.52 28.817 96.4837C28.8035 96.5226 28.7891 96.5615 28.7737 96.6004C28.7562 96.6461 28.7394 96.6928 28.7181 96.7368C28.6862 96.8109 28.6522 96.8839 28.6151 96.9552C28.5897 97.0039 28.5646 97.052 28.5378 97.0998C28.5189 97.1339 28.4983 97.1704 28.4774 97.2062L28.4547 97.2454C28.2855 97.5202 28.0908 97.7787 27.8734 98.0177C27.8462 98.0481 27.8188 98.0791 27.7892 98.1081C27.6752 98.2312 27.5441 98.3598 27.3912 98.4983C27.3569 98.5324 27.3167 98.5665 27.2779 98.5986C25.7811 99.8972 23.4189 100.941 20.7943 101.464C20.6746 101.488 20.5545 101.511 20.4341 101.532C20.3634 101.545 20.2902 101.558 20.2181 101.57L19.9829 101.607C19.8716 101.625 19.76 101.641 19.6505 101.655L19.0345 101.727C18.9874 101.732 18.9404 101.735 18.895 101.738C18.711 101.755 18.5228 101.768 18.3157 101.777C18.2471 101.781 18.1784 101.785 18.1097 101.786C18.0932 101.788 18.0712 101.788 18.0493 101.788L17.871 101.793C16.8237 101.811 15.9038 101.709 15.1363 101.488C14.9708 101.439 14.8245 101.39 14.6899 101.337C14.2493 101.168 13.8788 100.952 13.5883 100.693C13.5539 100.661 13.522 100.631 13.4918 100.601C13.4529 100.565 13.4162 100.528 13.3819 100.489Z" fill="#371A45"/>
<path d="M49.004 76.3539C48.9656 76.8371 48.9198 77.322 48.8667 77.8087C48.4718 81.4769 47.7077 85.2567 46.4911 88.8946C46.2102 88.7645 45.9157 88.6656 45.613 88.5995C45.3856 88.5486 45.1517 88.5321 44.9194 88.5508C41.8632 88.8039 37.841 90.1816 35.7852 92.2033L35.062 85.1844C33.3656 85.5683 31.6699 85.5078 29.975 85.0029L29.2339 92.2033C27.1794 90.1816 23.1559 88.8039 20.0997 88.5508C19.8679 88.5321 19.6346 88.5486 19.4078 88.5995C19.3236 88.619 19.2409 88.6398 19.1619 88.6606C17.8872 84.7781 17.1232 80.7419 16.7705 76.8584C16.7547 76.6909 16.7406 76.5234 16.7266 76.3559C27.4944 81.0282 38.2536 81.0275 49.004 76.3539Z" fill="#FF5555"/>
<g opacity="0.55">
<path opacity="0.55" d="M20.7648 88.605C20.5931 88.5838 20.4241 88.5664 20.2573 88.5524C20.0309 88.5327 19.8028 88.548 19.5811 88.5978C19.4918 88.6169 19.4039 88.6398 19.3194 88.6623C18.0448 84.7798 17.2811 80.7435 16.9281 76.86C16.9123 76.6926 16.8982 76.5251 16.8841 76.3576C16.8525 75.9756 16.8261 75.5956 16.8017 75.2169C16.7577 74.4983 16.7267 73.7884 16.7086 73.0871C16.7031 72.8848 16.6997 72.6842 16.6963 72.4837H16.6558V72.4557L16.7718 66.6249L18.4222 58.6604C18.8326 58.7967 19.1763 59.0813 19.3852 59.4578C19.5941 59.8342 19.6527 60.2749 19.5495 60.6924C18.5242 64.8927 18.1588 69.5918 18.2309 74.6152V74.6203C18.2398 74.8192 18.2518 75.0181 18.2652 75.2169C18.29 75.5956 18.3161 75.9756 18.348 76.3576C18.3617 76.5251 18.3758 76.6926 18.3916 76.86C18.7419 80.7244 19.5004 84.7396 20.7648 88.605Z" fill="white"/>
</g>
<g opacity="0.55">
<path opacity="0.55" d="M10.6697 69.7215C10.7732 70.0645 10.9465 70.3828 11.179 70.6565C11.499 71.0343 11.9135 71.3219 12.3808 71.4902C13.6363 71.9421 15.0971 72.228 16.4177 72.3712C16.5574 72.3864 16.6953 72.4144 16.8298 72.4548V72.4828C15.1894 72.4777 12.819 72.1741 10.9173 71.4902C10.4501 71.3217 10.0356 71.0342 9.71542 70.6565C9.48301 70.3828 9.30968 70.0645 9.20617 69.7215C7.6822 64.6391 11.7596 57.217 16.9325 53.4669C14.411 51.7678 13.7389 49.4517 15.2011 47.6237L51.1051 47.5835L16.6629 47.622C15.4301 49.1642 15.7152 51.0542 17.3497 52.6278C17.8377 53.0978 17.8305 53.8765 17.3154 54.3152C12.6734 58.257 9.25356 65.0006 10.6697 69.7215Z" fill="white"/>
</g>
<g opacity="0.55">
<path opacity="0.55" d="M20.7642 88.6057C20.8188 88.6109 20.873 88.6177 20.9276 88.6267L20.7817 88.6634C20.7748 88.6442 20.7697 88.6249 20.7642 88.6057Z" fill="white"/>
<path opacity="0.55" d="M20.7265 88.7671L20.6994 88.6921C20.6915 88.6709 20.6857 88.6498 20.6798 88.629L20.6455 88.5068L20.7722 88.5181C20.8285 88.5236 20.8849 88.5307 20.9412 88.5399L21.3618 88.6081L20.7265 88.7671Z" fill="#371A45"/>
</g>
<path d="M47.6248 51.112C46.0857 50.8855 44.5961 50.8391 43.1696 51.1025C42.4593 51.2308 41.7651 51.4351 41.099 51.7117C40.4349 51.9917 39.8092 52.3567 39.2124 52.7643C38.9148 52.9717 38.6278 53.1931 38.3515 53.4285C38.2121 53.5448 38.0768 53.6672 37.9429 53.7897L37.5308 54.1734C36.9841 54.6851 36.4663 55.2264 35.9636 55.7766C34.9725 56.8832 34.0577 58.0661 33.4334 59.347L33.4273 59.3599C33.3578 59.501 33.2364 59.6101 33.0881 59.6645C32.9398 59.719 32.7762 59.7146 32.631 59.6524C32.4859 59.5902 32.3705 59.4748 32.3087 59.3303C32.2469 59.1858 32.2435 59.0232 32.2992 58.8762C32.5943 58.1189 32.9745 57.397 33.4324 56.7242C33.8752 56.0618 34.3633 55.4304 34.8932 54.8345C35.4141 54.2376 35.9745 53.6802 36.5483 53.1395C36.6915 53.0031 36.8378 52.8725 36.9848 52.7411C37.1376 52.6091 37.2911 52.4761 37.4501 52.3499C37.7667 52.0951 38.095 51.8536 38.4353 51.6284C39.7982 50.7368 41.3802 50.116 43.0185 49.9659C44.6558 49.823 46.3089 50.1723 47.6828 50.9476C47.7008 50.9579 47.7147 50.974 47.722 50.9933C47.7293 51.0126 47.7296 51.0339 47.7229 51.0534C47.7161 51.0729 47.7027 51.0895 47.685 51.1002C47.6673 51.111 47.6464 51.1153 47.6258 51.1124L47.6248 51.112Z" fill="#371A45"/>
<path d="M18.0802 51.0283C18.0273 50.8618 18.0678 50.9809 18.0572 50.9434L18.0613 50.941L18.0692 50.9365L18.0857 50.928L18.12 50.9106L18.1856 50.8765L18.3174 50.8083C18.405 50.7609 18.4964 50.7257 18.5867 50.6838C18.7666 50.5999 18.9527 50.533 19.1402 50.4651C19.5145 50.3287 19.9039 50.2339 20.2974 50.1513C21.0945 49.9969 21.9097 49.9559 22.7184 50.0296C23.5322 50.0978 24.3323 50.2946 25.1042 50.5658C25.8762 50.8396 26.6137 51.2012 27.3019 51.6433C27.6451 51.865 27.9766 52.1041 28.295 52.3596C28.4551 52.4852 28.6099 52.6202 28.7624 52.7516C28.909 52.8826 29.0546 53.0142 29.1978 53.1496C29.7696 53.6893 30.3289 54.2456 30.8485 54.8419C31.3768 55.4367 31.8635 56.0669 32.3052 56.7278C32.7615 57.3998 33.1403 58.1206 33.4342 58.8768C33.4915 59.0238 33.4894 59.1872 33.4282 59.3327C33.367 59.4782 33.2515 59.5945 33.1059 59.6573C32.9603 59.7201 32.7959 59.7245 32.6471 59.6696C32.4983 59.6148 32.3766 59.5048 32.3076 59.3629L32.3 59.3475C31.6771 58.069 30.7644 56.8888 29.7764 55.784C29.2751 55.2355 28.7583 54.6962 28.213 54.1842L27.8026 53.8015C27.6673 53.6787 27.5358 53.5583 27.3964 53.4433C27.1218 53.2113 26.8352 52.9936 26.5379 52.7911C25.9397 52.3931 25.3106 52.0363 24.642 51.7678C23.9719 51.4981 23.2754 51.2978 22.5638 51.1702C21.8426 51.0377 21.1109 50.97 20.3775 50.9679C20.0056 50.9614 19.6316 50.9778 19.2539 51.002C19.0653 51.017 18.8761 51.0317 18.6849 51.0515L18.3981 51.0822L18.2543 51.0986L18.1818 51.1068L18.1454 51.1102L18.1272 51.1119H18.1183H18.1135C18.0984 51.074 18.1358 51.1941 18.0802 51.0283Z" fill="#371A45"/>
<path d="M22.9898 49.8265L22.8291 50.6762C26.8124 51.4099 30.0908 54.196 32.7916 58.658C35.3028 54.6405 38.4424 51.7544 42.6126 50.7243L42.3925 49.4557L37.8271 49.9332C34.0305 52.3892 30.7587 52.1504 27.8928 49.8251L22.9898 49.8265Z" fill="#371A45"/>
<path d="M16.645 75.2159C13.8481 75.2159 11.2016 74.6299 9.93929 73.4193C9.20169 72.7146 8.93487 71.7953 9.38437 70.6564C9.70441 71.0342 10.1189 71.3217 10.5862 71.49C12.5037 72.1791 14.8968 72.4826 16.5389 72.4826C16.5536 73.3791 16.589 74.2902 16.645 75.2159Z" fill="white"/>
<g opacity="0.55">
<path opacity="0.55" d="M13.2633 74.8966C11.8534 74.607 10.6663 74.1169 9.93929 73.4193C9.20169 72.7146 8.93487 71.7953 9.38437 70.6564C9.70441 71.0342 10.1189 71.3217 10.5862 71.49C10.6917 71.5286 10.7985 71.5651 10.9073 71.5982C10.6845 72.528 10.9708 73.2955 11.6065 73.9023C12.0237 74.3018 12.5906 74.6316 13.2633 74.8966Z" fill="white"/>
</g>
<path d="M16.6454 75.8266C13.4175 75.8266 10.8167 75.1103 9.51246 73.8588C8.53791 72.9276 8.29547 71.7439 8.81228 70.4338C8.85106 70.335 8.91505 70.248 8.99796 70.1812C9.08087 70.1145 9.17985 70.0704 9.28515 70.0531C9.39045 70.0359 9.49844 70.0463 9.5985 70.0831C9.69857 70.1199 9.78726 70.182 9.85585 70.2632C10.1067 70.5588 10.4314 70.7836 10.7974 70.9151C12.7603 71.6201 15.1176 71.8702 16.54 71.8702C16.7013 71.8702 16.8561 71.9333 16.971 72.0457C17.0859 72.1582 17.1518 72.311 17.1543 72.4712C17.1684 73.356 17.2034 74.2664 17.2573 75.1772C17.2625 75.2603 17.2505 75.3437 17.222 75.4221C17.1936 75.5005 17.1492 75.5723 17.0918 75.633C17.0343 75.6937 16.9649 75.7421 16.8879 75.7752C16.8109 75.8082 16.7279 75.8253 16.644 75.8253L16.6454 75.8266ZM9.77755 71.7804C9.79266 72.2266 9.98702 72.6185 10.3648 72.9794C11.33 73.9048 13.4522 74.5065 15.9964 74.5946C15.9706 74.0866 15.9514 73.5808 15.9387 73.0807C14.4061 73.02 12.2335 72.7308 10.3792 72.0642C10.1701 71.989 9.96872 71.8939 9.7779 71.7804H9.77755Z" fill="#371A45"/>
<path d="M9.3843 71.267C9.28487 71.267 9.18691 71.2431 9.09884 71.1972C9.01077 71.1514 8.93521 71.085 8.87865 71.0037C8.8221 70.9225 8.78622 70.8288 8.77411 70.7308C8.762 70.6328 8.77401 70.5333 8.80912 70.4408L8.82492 70.3992C8.85219 70.3226 8.89458 70.2522 8.9496 70.1921C9.00462 70.132 9.07116 70.0834 9.14533 70.0492C9.21949 70.0149 9.2998 69.9958 9.38152 69.9927C9.46325 69.9897 9.54476 70.0029 9.62129 70.0316C9.69781 70.0602 9.76781 70.1038 9.82717 70.1597C9.88654 70.2156 9.93408 70.2826 9.96702 70.357C9.99995 70.4314 10.0176 70.5115 10.019 70.5927C10.0203 70.674 10.0054 70.7546 9.97493 70.8301L9.95948 70.872C9.91529 70.9881 9.8366 71.088 9.73386 71.1586C9.63112 71.2291 9.5092 71.2669 9.3843 71.267Z" fill="#371A45"/>
<path d="M15.9255 72.4916C15.8495 71.2623 15.8448 70.0296 15.9114 68.7998C15.9421 68.1845 15.9899 67.5705 16.0549 66.9578C16.0893 66.6508 16.1191 66.3439 16.1579 66.0389L16.2929 65.123L16.4471 64.2099L16.6349 63.3022C16.7063 63.0014 16.7695 62.6991 16.8516 62.4007C16.9337 62.1022 17.0123 61.8037 17.1026 61.5073C17.4704 60.3268 17.9185 59.1612 18.5449 58.0912C18.5556 58.0732 18.5725 58.0596 18.5924 58.0528C18.6123 58.046 18.634 58.0464 18.6537 58.054C18.6733 58.0617 18.6896 58.0759 18.6996 58.0944C18.7096 58.1128 18.7127 58.1341 18.7083 58.1546C18.4394 59.3485 18.2066 60.5267 18.0267 61.7154C17.9759 62.0111 17.9381 62.3096 17.8934 62.6057L17.7729 63.4973C17.7022 64.0929 17.6325 64.6878 17.5703 65.284C17.5164 65.8813 17.4639 66.4779 17.4182 67.0762C17.3907 67.3747 17.3838 67.6748 17.3595 67.9736C17.3351 68.2725 17.3227 68.5726 17.3073 68.8721C17.2413 70.0704 17.2043 71.2701 17.1534 72.4738V72.4773C17.1472 72.6338 17.0806 72.782 16.9675 72.8912C16.8545 73.0004 16.7035 73.0623 16.5458 73.0642C16.3881 73.066 16.2357 73.0076 16.12 72.9011C16.0044 72.7945 15.9344 72.6479 15.9244 72.4916H15.9255Z" fill="#371A45"/>
<path d="M47.1876 58.0899C47.7693 59.1033 48.2058 60.1975 48.5574 61.3106C48.9044 62.4259 49.176 63.5629 49.3706 64.7141C49.5697 65.8622 49.7073 67.0199 49.7827 68.1825C49.8634 69.3427 49.8743 70.5067 49.8153 71.6682C49.807 71.8245 49.7386 71.9717 49.6243 72.0794C49.5099 72.1871 49.3584 72.2472 49.2008 72.2472C49.0432 72.2472 48.8916 72.1871 48.7773 72.0794C48.663 71.9717 48.5946 71.8245 48.5863 71.6682L48.3974 68.2698C48.3243 67.1394 48.2425 66.0103 48.1254 64.884C48.0084 63.7576 47.8679 62.6327 47.688 61.5139C47.508 60.395 47.29 59.2786 47.0245 58.1547C47.0194 58.134 47.022 58.1121 47.0319 58.0932C47.0418 58.0743 47.0582 58.0595 47.0782 58.0518C47.0981 58.044 47.1203 58.0436 47.1405 58.0508C47.1607 58.058 47.1776 58.0723 47.188 58.0909L47.1876 58.0899Z" fill="#371A45"/>
<path d="M22.0387 55.5622C21.048 55.4845 20.0658 55.3233 19.1027 55.0805C18.1315 54.8295 17.17 54.4788 16.2556 53.9716H16.2528C16.1773 53.935 16.1101 53.8834 16.0552 53.8201C16.0004 53.7568 15.9592 53.6831 15.9341 53.6034C15.9089 53.5237 15.9004 53.4398 15.909 53.3567C15.9177 53.2737 15.9433 53.1932 15.9843 53.1203C16.0252 53.0474 16.0808 52.9836 16.1475 52.9328C16.2141 52.8819 16.2906 52.8451 16.372 52.8246C16.4535 52.8041 16.5384 52.8003 16.6214 52.8135C16.7044 52.8266 16.7838 52.8565 16.8548 52.9012C16.8872 52.9193 16.918 52.9402 16.9468 52.9636C17.6522 53.5435 18.4708 54.0262 19.3379 54.4249C20.2189 54.8235 21.1324 55.147 22.0685 55.392C22.0797 55.3949 22.0902 55.4 22.0994 55.407C22.1086 55.4139 22.1164 55.4227 22.1222 55.4326C22.128 55.4426 22.1318 55.4535 22.1333 55.465C22.1348 55.4764 22.134 55.488 22.131 55.4991C22.1253 55.5185 22.1129 55.5354 22.0961 55.5469C22.0793 55.5584 22.059 55.5638 22.0387 55.5622Z" fill="#371A45"/>
<path d="M35.7869 92.8157C35.6348 92.8155 35.4881 92.7594 35.3753 92.6582C35.2624 92.557 35.1913 92.4178 35.1756 92.2675L34.5204 85.9124C33.1889 86.1246 31.8286 86.0782 30.5148 85.7759L29.8469 92.2661C29.8351 92.3807 29.7909 92.4897 29.7194 92.5804C29.6479 92.6711 29.552 92.7399 29.4429 92.7788C29.3337 92.8177 29.2157 92.8251 29.1024 92.8001C28.9892 92.7752 28.8854 92.719 28.803 92.6379C26.7972 90.6643 22.8815 89.3944 20.0499 89.1587C19.8803 89.1451 19.7096 89.1573 19.5438 89.1948C19.4692 89.2116 19.3937 89.231 19.3216 89.2501C19.1697 89.2904 19.008 89.2713 18.8699 89.1967C18.7318 89.1222 18.6277 88.9978 18.5792 88.8493C17.3546 85.12 16.5404 81.1035 16.1596 76.9106C16.1596 76.9042 16.1596 76.898 16.1596 76.8919C16.114 76.3945 16.0724 75.858 16.0333 75.2515C15.989 74.5215 15.9574 73.7933 15.9392 73.0773C14.4066 73.0166 12.234 72.7273 10.3797 72.0608C9.80976 71.856 9.30433 71.5055 8.91441 71.0447C8.6283 70.7081 8.41508 70.3165 8.28806 69.8944C6.71327 64.6438 10.7069 57.3667 15.5862 53.4689C14.4341 52.5199 13.7154 51.3963 13.5382 50.2451C13.3744 49.1819 13.669 48.1429 14.3901 47.2407C14.4476 47.1687 14.5207 47.1106 14.604 47.0707C14.6872 47.0307 14.7784 47.0099 14.8709 47.0097L50.7749 46.9695C50.8662 46.9695 50.9563 46.9898 51.0387 47.0287C51.1212 47.0676 51.1939 47.1243 51.2515 47.1946C51.9939 48.1013 52.3026 49.1478 52.1443 50.2212C51.9781 51.3469 51.2944 52.4473 50.1925 53.3853C57.8055 57.687 61.27 61.2594 61.078 64.5947C60.9334 67.1223 58.6907 69.2815 54.2263 71.1872L54.272 71.9377C54.2833 72.1206 54.2555 72.3039 54.1903 72.4753C54.1251 72.6468 54.024 72.8025 53.8938 72.9324C53.7635 73.0622 53.607 73.1631 53.4346 73.2284C53.2622 73.2937 53.0778 73.322 52.8936 73.3113C51.8323 73.2481 50.7887 73.0112 49.8051 72.61C49.776 74.3581 49.6678 76.1234 49.4779 77.8705C49.0531 81.812 48.2444 85.5849 47.0742 89.0847C47.0466 89.1667 47.0019 89.2421 46.9429 89.3057C46.8839 89.3693 46.8119 89.4198 46.7318 89.4537C46.6517 89.4876 46.5652 89.5043 46.4781 89.5025C46.391 89.5007 46.3053 89.4806 46.2267 89.4435C45.9867 89.3328 45.7352 89.2487 45.4767 89.1928C45.3108 89.1555 45.1401 89.1434 44.9705 89.157C42.14 89.3913 38.2249 90.6609 36.2192 92.6362C36.1045 92.7503 35.9491 92.8148 35.7869 92.8157ZM35.0637 84.5746C35.2158 84.5747 35.3625 84.6309 35.4754 84.7322C35.5883 84.8335 35.6594 84.9727 35.6749 85.1231L36.2793 90.9867C38.6178 89.2586 42.2004 88.164 44.8685 87.9433C45.1631 87.9192 45.4597 87.9399 45.748 88.0047C45.8709 88.0327 45.9902 88.0639 46.1058 88.0982C47.1421 84.8522 47.8653 81.3723 48.2561 77.7436C48.4738 75.7253 48.5834 73.697 48.5844 71.6672C48.5845 71.5629 48.6116 71.4603 48.6629 71.3693C48.7143 71.2783 48.7883 71.2019 48.8778 71.1474C48.9673 71.0929 49.0694 71.062 49.1744 71.0578C49.2793 71.0537 49.3836 71.0762 49.4772 71.1234C50.6214 71.7033 51.7944 72.0308 52.9633 72.0956C52.9742 72.0962 52.9851 72.0945 52.9952 72.0906C53.0054 72.0867 53.0146 72.0807 53.0223 72.073C53.0299 72.0653 53.0358 72.056 53.0395 72.0459C53.0433 72.0357 53.0448 72.0249 53.044 72.0141L52.9722 70.8318C52.9644 70.7051 52.9966 70.5791 53.0643 70.4714C53.1321 70.3637 53.2319 70.2797 53.35 70.2311C57.5445 68.5055 59.7312 66.5868 59.8493 64.5278C60.0125 61.6779 56.2867 58.1359 48.776 53.9996C48.6842 53.9491 48.6069 53.8761 48.5516 53.7875C48.4963 53.6989 48.4647 53.5976 48.46 53.4935C48.4552 53.3893 48.4774 53.2857 48.5245 53.1925C48.5715 53.0992 48.6418 53.0196 48.7286 52.961C49.9937 52.1082 50.7739 51.0723 50.9263 50.0466C51.0225 49.3954 50.8679 48.7732 50.4665 48.1934L15.181 48.2326C14.7967 48.8063 14.6518 49.4207 14.7507 50.063C14.908 51.0839 15.6875 52.113 16.9453 52.9623C17.0269 53.0173 17.0939 53.0909 17.1409 53.177C17.1878 53.2631 17.2132 53.3592 17.2149 53.457C17.2166 53.5549 17.1946 53.6518 17.1507 53.7395C17.1069 53.8271 17.0424 53.903 16.9628 53.9608C14.4804 55.7601 12.2261 58.4596 10.7766 61.3668C9.25986 64.4095 8.79319 67.315 9.46315 69.5479C9.54206 69.8108 9.67475 70.0546 9.85289 70.2642C10.1041 70.5609 10.4296 70.7865 10.7965 70.9184C12.7594 71.6235 15.1167 71.8735 16.5391 71.8735C16.7004 71.8736 16.8552 71.9367 16.9701 72.0491C17.0851 72.1615 17.1509 72.3144 17.1534 72.4746C17.1675 73.3594 17.2025 74.2698 17.2564 75.1806C17.2952 75.7799 17.3361 76.3106 17.3814 76.8011C17.3814 76.808 17.3814 76.8148 17.3814 76.8216C17.7368 80.7221 18.4748 84.4647 19.5764 87.9556C19.7661 87.9331 19.9577 87.9298 20.1481 87.9457C22.817 88.1664 26.4006 89.2614 28.7391 90.9891L29.361 84.944C29.3702 84.8546 29.3991 84.7683 29.4458 84.6913C29.4924 84.6143 29.5556 84.5485 29.6308 84.4986C29.7061 84.4487 29.7915 84.4159 29.8809 84.4025C29.9704 84.3892 30.0617 84.3956 30.1484 84.4214C31.7345 84.8925 33.3419 84.9501 34.9215 84.592C34.9681 84.5807 35.0158 84.5749 35.0637 84.5746Z" fill="#371A45"/>
<path d="M53.5872 71.408C53.5056 71.4081 53.4247 71.392 53.3494 71.3607C53.2741 71.3293 53.2059 71.2834 53.1487 71.2255C53.1247 71.2016 51.9469 70.0657 48.9439 69.2051C48.8663 69.1829 48.7939 69.1457 48.7308 69.0957C48.6677 69.0457 48.6152 68.9838 48.5761 68.9136C48.5371 68.8435 48.5124 68.7663 48.5034 68.6866C48.4943 68.6069 48.5012 68.5263 48.5236 68.4492C48.5459 68.3722 48.5834 68.3003 48.6337 68.2376C48.6841 68.1749 48.7463 68.1227 48.817 68.0839C48.8877 68.0452 48.9653 68.0206 49.0455 68.0116C49.1258 68.0027 49.207 68.0095 49.2845 68.0317C52.656 68.9974 53.9735 70.3171 54.0281 70.372C54.1121 70.4582 54.1687 70.567 54.1909 70.6849C54.2131 70.8027 54.1998 70.9245 54.1528 71.035C54.1058 71.1454 54.0271 71.2397 53.9265 71.306C53.826 71.3723 53.708 71.4078 53.5872 71.408Z" fill="#371A45"/>
<path d="M48.2319 64.3654C48.3885 64.0451 48.644 63.8353 48.8998 63.6607C49.1501 63.4894 49.4106 63.3335 49.68 63.1937C49.9437 63.0556 50.2105 62.9314 50.4815 62.8185C50.7524 62.7056 51.0254 62.6026 51.3035 62.5115C51.3227 62.5051 51.3434 62.5053 51.3625 62.512C51.3815 62.5187 51.3977 62.5315 51.4086 62.5484C51.4194 62.5653 51.4242 62.5854 51.4222 62.6053C51.4202 62.6253 51.4116 62.644 51.3976 62.6585L50.8005 63.2807C50.604 63.4854 50.4104 63.69 50.2249 63.8964C50.0395 64.1028 49.8637 64.3095 49.7057 64.5176C49.5478 64.7256 49.4111 64.9269 49.2387 65.0667L49.1803 65.1135C49.0708 65.2019 48.9342 65.2506 48.7931 65.2515C48.652 65.2524 48.5147 65.2054 48.4042 65.1182C48.2936 65.0311 48.2162 64.9092 48.1849 64.7725C48.1536 64.6358 48.1702 64.4925 48.2319 64.3665V64.3654Z" fill="#371A45"/>
<path d="M53.411 75.6522C53.2695 75.652 53.1324 75.6033 53.0229 75.5143C52.9133 75.4253 52.838 75.3015 52.8097 75.1638L52.636 74.3195C52.6033 74.1609 52.6355 73.996 52.7253 73.8609C52.8151 73.7258 52.9552 73.6317 53.1149 73.5993C53.2745 73.5669 53.4406 73.5988 53.5766 73.688C53.7125 73.7772 53.8073 73.9164 53.8399 74.075L54.014 74.9192C54.0321 75.008 54.0302 75.0996 54.0083 75.1876C53.9864 75.2755 53.9451 75.3575 53.8874 75.4276C53.8297 75.4978 53.757 75.5543 53.6746 75.5931C53.5922 75.632 53.5022 75.6522 53.411 75.6522Z" fill="#371A45"/>
<path d="M16.7717 76.8555V76.8589C16.7679 78.8492 15.9974 79.8801 15.0438 79.8627C15.2069 81.1568 14.9191 82.1109 14.1324 82.688C13.5335 83.1277 12.7417 83.215 12.0322 82.9899C7.78651 81.6504 8.22709 77.0206 9.93752 73.4192C11.1998 74.6298 13.8463 75.2158 16.6433 75.2158C16.6804 75.7598 16.7205 76.3043 16.7717 76.8555Z" fill="white"/>
<path d="M12.7998 83.2326C12.5265 83.2321 12.255 83.1896 11.9948 83.1067C10.5612 82.6544 9.56328 81.8075 9.02862 80.589C8.22509 78.7573 8.51628 76.125 9.8277 73.3672C9.83606 73.3496 9.84852 73.3342 9.86405 73.3224C9.87958 73.3105 9.89773 73.3025 9.91699 73.299C9.93626 73.2955 9.95609 73.2966 9.97484 73.3022C9.99358 73.3079 10.0107 73.3178 10.0248 73.3314C11.1759 74.4345 13.6507 75.0935 16.6454 75.0935C16.6767 75.0935 16.7068 75.1054 16.7297 75.1267C16.7525 75.148 16.7663 75.1771 16.7683 75.2081C16.8075 75.8143 16.8487 76.3495 16.8944 76.8454C16.8944 76.8492 16.8944 76.8529 16.8944 76.8567V76.8601C16.892 78.0843 16.5963 79.0452 16.0613 79.5661C15.8079 79.8127 15.506 79.9549 15.1808 79.9819C15.3148 81.2706 14.9868 82.2141 14.2049 82.7878C13.7964 83.0814 13.3039 83.2372 12.7998 83.2326ZM9.97982 73.6227C8.75906 76.2611 8.49396 78.7573 9.25458 80.4911C9.75936 81.642 10.7064 82.4433 12.0704 82.8734C12.7716 83.0955 13.515 82.9897 14.06 82.59C14.7914 82.0531 15.0816 81.1406 14.9223 79.8778C14.92 79.8605 14.9216 79.8428 14.9269 79.8261C14.9321 79.8094 14.941 79.794 14.9528 79.781C14.9638 79.7669 14.9781 79.7557 14.9946 79.7486C15.0111 79.7415 15.029 79.7387 15.0469 79.7404C15.3618 79.7455 15.6454 79.6282 15.8903 79.3901C16.3772 78.9159 16.6457 78.0178 16.6492 76.8611C16.6062 76.3969 16.5674 75.8975 16.5304 75.3381C13.6277 75.3217 11.2061 74.6855 9.97982 73.6227Z" fill="#371A45"/>
<g opacity="0.55">
<path opacity="0.55" d="M13.5775 82.9776C13.0776 83.1493 12.5348 83.1536 12.0322 82.9899C7.78651 81.6504 8.22709 77.0206 9.93752 73.4192C10.2607 73.7296 10.6768 73.9991 11.1631 74.2286C9.77235 77.6717 9.67929 81.7237 13.5775 82.9776Z" fill="white"/>
</g>
<path d="M12.7997 83.7218C12.4759 83.7215 12.1541 83.6714 11.8458 83.5731C10.2717 83.0765 9.17216 82.1384 8.57843 80.7856C7.71995 78.8246 8.01184 76.0443 9.38403 73.1602C9.42567 73.0725 9.48775 72.9959 9.56514 72.9367C9.64253 72.8776 9.73299 72.8376 9.82903 72.8202C9.92507 72.8027 10.0239 72.8082 10.1174 72.8363C10.2109 72.8643 10.2962 72.9141 10.3665 72.9815C11.4121 73.984 13.8182 74.6068 16.6457 74.6068C16.8019 74.6069 16.9522 74.6659 17.0661 74.772C17.18 74.8782 17.249 75.0234 17.259 75.1782C17.2978 75.7799 17.3387 76.3107 17.384 76.8012C17.384 76.8196 17.3864 76.8383 17.3864 76.8571V76.8605C17.384 78.2372 17.0451 79.2929 16.4064 79.9151C16.2061 80.1135 15.9654 80.2669 15.7004 80.365C15.7392 81.6203 15.336 82.5655 14.4985 83.1808C14.0051 83.5371 13.4097 83.7267 12.7997 83.7218ZM10.1831 74.3851C9.24633 76.6634 9.0633 78.8341 9.70545 80.2978C10.1519 81.3136 10.9966 82.0242 12.2187 82.4096C12.7709 82.5849 13.3492 82.5058 13.7674 82.1988C14.3536 81.7687 14.5716 81.0298 14.4343 79.94C14.4234 79.8532 14.4314 79.765 14.4578 79.6815C14.4841 79.598 14.5282 79.5211 14.5871 79.456C14.6465 79.3915 14.7189 79.3401 14.7996 79.3052C14.8803 79.2704 14.9675 79.2528 15.0555 79.2537C15.2358 79.2537 15.3968 79.1882 15.5459 79.0429C15.9298 78.6694 16.1519 77.8831 16.1574 76.8841C16.1269 76.5501 16.098 76.1988 16.0706 75.8201C13.5806 75.7512 11.5089 75.2427 10.1831 74.3838V74.3851Z" fill="#371A45"/>
<path d="M15.0439 80.4724C14.9632 80.4725 14.8833 80.4568 14.8088 80.4262C14.7342 80.3956 14.6665 80.3507 14.6094 80.2941C14.5523 80.2375 14.507 80.1703 14.4761 80.0963C14.4452 80.0223 14.4292 79.9429 14.4292 79.8628V79.8608C14.4294 79.7401 14.4656 79.6221 14.5333 79.5218C14.601 79.4216 14.697 79.3435 14.8094 79.2974C14.9217 79.2513 15.0453 79.2394 15.1644 79.2631C15.2836 79.2868 15.393 79.345 15.4789 79.4304C15.5647 79.5158 15.6232 79.6246 15.6468 79.7431C15.6704 79.8615 15.6582 79.9842 15.6117 80.0957C15.5651 80.2072 15.4863 80.3025 15.3853 80.3695C15.2842 80.4366 15.1654 80.4724 15.0439 80.4724Z" fill="#371A45"/>
<path d="M16.7719 77.4609C16.6915 77.4615 16.6117 77.4463 16.5372 77.4161C16.4628 77.386 16.395 77.3415 16.3379 77.2853C16.2808 77.2291 16.2354 77.1622 16.2044 77.0885C16.1734 77.0147 16.1574 76.9357 16.1572 76.8558V76.8452C16.1579 76.7246 16.1945 76.6069 16.2625 76.5069C16.3304 76.407 16.4267 76.3292 16.539 76.2835C16.6514 76.2379 16.7749 76.2262 16.8939 76.2502C17.0129 76.2741 17.1221 76.3326 17.2077 76.4181C17.2934 76.5036 17.3516 76.6124 17.375 76.7307C17.3984 76.8491 17.3861 76.9717 17.3394 77.0831C17.2928 77.1944 17.214 77.2896 17.113 77.3565C17.012 77.4235 16.8933 77.4592 16.7719 77.4592V77.4609Z" fill="#371A45"/>
<path d="M15.0318 80.4731C14.8149 80.4945 14.5959 80.4662 14.3917 80.3902C14.2046 80.3207 14.0305 80.2207 13.8767 80.0941C13.6 79.8683 13.3625 79.5989 13.1737 79.2966C12.9984 79.0199 12.8535 78.7253 12.7414 78.4179C12.6353 78.1212 12.5536 77.8164 12.4972 77.5065C12.4934 77.4868 12.4963 77.4665 12.5056 77.4486C12.5148 77.4308 12.5298 77.4166 12.5481 77.4083C12.5665 77.3999 12.5871 77.3979 12.6067 77.4026C12.6263 77.4073 12.6438 77.4185 12.6562 77.4342C12.8485 77.673 13.0395 77.9046 13.24 78.1185C13.4336 78.325 13.6422 78.5172 13.8639 78.6936C14.0796 78.858 14.3014 78.9954 14.5164 79.0746C14.6239 79.1145 14.7224 79.1428 14.8114 79.1697C14.8952 79.1899 14.9772 79.217 15.0565 79.2506L15.2331 79.3365C15.3766 79.4068 15.4862 79.5309 15.5377 79.6814C15.5892 79.8319 15.5784 79.9965 15.5078 80.1392C15.4628 80.2298 15.3956 80.3079 15.3125 80.3662C15.2294 80.4245 15.1329 80.4613 15.0318 80.4731Z" fill="#371A45"/>
<path d="M52.9305 78.3033C52.1562 79.3358 50.135 79.636 49.0938 78.1829C49.0083 78.0648 48.9325 77.94 48.8672 77.8097C48.9201 77.3229 48.9659 76.8379 49.0045 76.3549C49.0152 76.2417 49.0238 76.1281 49.031 76.0138C49.0451 75.848 49.0574 75.6823 49.0677 75.5185C49.087 75.2357 49.1048 74.955 49.1189 74.6743C49.1309 74.4423 49.1433 74.2121 49.1532 73.9818C49.1532 73.9624 49.1549 73.945 49.1549 73.9259C49.1635 73.7185 49.1707 73.5108 49.1759 73.3051C49.1814 73.1707 49.1849 73.0363 49.1865 72.9019C49.1951 72.4868 49.2006 72.0754 49.2006 71.6671C49.9292 72.0412 50.7022 72.323 51.5013 72.5062C51.9718 72.6123 52.4505 72.6788 52.9323 72.7051L53.2413 74.1964C58.136 73.932 55.9843 79.7022 52.9305 78.3033Z" fill="white"/>
<path d="M51.0324 79.299H51.0043C50.1839 79.2901 49.4696 78.9194 48.993 78.2542C48.9037 78.131 48.8247 78.0007 48.7568 77.8647C48.7461 77.8436 48.7418 77.8199 48.7444 77.7964C48.7969 77.3124 48.8429 76.8243 48.8817 76.3454C48.8924 76.2315 48.901 76.1192 48.9078 76.0074C48.9223 75.8395 48.9343 75.6748 48.9449 75.5117C48.9642 75.2293 48.9817 74.9492 48.9958 74.6692V74.6511C49.0078 74.426 49.0198 74.2019 49.0301 73.9781V73.927C49.0387 73.7148 49.0459 73.5081 49.051 73.3031C49.0565 73.1666 49.06 73.0346 49.0617 72.9016C49.071 72.4544 49.0758 72.0512 49.0758 71.6682C49.0758 71.6472 49.0812 71.6266 49.0915 71.6083C49.1018 71.59 49.1166 71.5747 49.1346 71.5637C49.1526 71.5528 49.1731 71.5466 49.1942 71.5457C49.2153 71.5449 49.2362 71.5495 49.255 71.559C49.9746 71.9279 50.7376 72.2062 51.5266 72.3875C51.9904 72.4921 52.4623 72.5577 52.9372 72.5837C52.9644 72.5852 52.9903 72.5957 53.011 72.6134C53.0316 72.6311 53.0457 72.6551 53.0512 72.6816L53.3373 74.0702C55.2153 74.002 55.8694 74.8206 56.093 75.3234C56.458 76.1438 56.1895 77.2606 55.4546 77.9789C54.7623 78.6553 53.8609 78.8259 52.9681 78.4538C52.5347 78.9715 51.7892 79.299 51.0324 79.299ZM48.9937 77.7866C49.0521 77.8996 49.1189 78.0081 49.1935 78.1113C49.3966 78.4023 49.6677 78.64 49.9835 78.8042C50.2994 78.9683 50.6505 79.054 51.007 79.0538C51.7281 79.0585 52.4492 78.7382 52.8314 78.23C52.8483 78.2074 52.8724 78.1913 52.8998 78.1844C52.9273 78.1775 52.9562 78.1802 52.9818 78.1921C53.806 78.5694 54.6435 78.4278 55.2826 77.8043C55.947 77.1562 56.1936 76.153 55.8687 75.4227C55.5195 74.6382 54.5875 74.2462 53.2456 74.3196C53.216 74.3216 53.1866 74.3128 53.1631 74.2948C53.1396 74.2769 53.1235 74.251 53.1178 74.222L52.8294 72.8235C52.3728 72.7935 51.9193 72.7281 51.473 72.6277C50.7293 72.4571 50.0078 72.2019 49.323 71.867C49.323 72.1928 49.3172 72.5349 49.3093 72.9067C49.3093 73.0411 49.3038 73.1765 49.2986 73.3116C49.2935 73.5163 49.2863 73.725 49.2773 73.9331V73.9839C49.2688 74.2135 49.2567 74.4386 49.2447 74.6661V74.6839C49.2306 74.9649 49.2131 75.2463 49.1935 75.5298C49.1832 75.6942 49.1709 75.8607 49.1568 76.0271C49.1496 76.139 49.141 76.2536 49.1304 76.3682C49.0895 76.8338 49.0445 77.3121 48.9937 77.7866Z" fill="#371A45"/>
<g opacity="0.55">
<path opacity="0.55" fill-rule="evenodd" clip-rule="evenodd" d="M24.129 65.0345C24.9537 64.0152 25.4486 62.7392 25.522 61.2431C25.5281 61.1088 25.5614 60.977 25.62 60.8558C25.6785 60.7345 25.761 60.6262 25.8627 60.5374C25.9643 60.4486 26.0829 60.381 26.2114 60.3387C26.3399 60.2965 26.4757 60.2804 26.6106 60.2914C31.6629 60.7239 36.7695 60.8079 41.4777 60.4599C41.4376 60.0378 41.4207 59.6139 41.4269 59.19C36.1136 59.6559 30.2416 59.5512 24.4819 59C24.567 60.1061 24.4391 61.1101 24.129 62V65.0345Z" fill="white"/>
</g>
<path d="M45.7835 77.616C37.3145 80.5273 28.7135 80.6914 19.957 77.616H45.7835Z" fill="#FF5555"/>
<path d="M51.035 79.7867C50.9427 79.7867 50.8506 79.7826 50.7583 79.7744C49.704 79.6823 48.8147 79.0663 48.3178 78.0835C48.2648 77.9788 48.2433 77.8611 48.256 77.7445C48.4736 75.7262 48.5832 73.6979 48.5843 71.668C48.5844 71.5637 48.6114 71.4612 48.6628 71.3702C48.7141 71.2792 48.7881 71.2028 48.8777 71.1483C48.9672 71.0937 49.0693 71.0629 49.1742 71.0587C49.2791 71.0545 49.3834 71.0771 49.4771 71.1243C50.6213 71.7042 51.7943 72.0317 52.9632 72.0965C53.0987 72.1039 53.2279 72.1558 53.3306 72.2439C53.4333 72.332 53.5037 72.4515 53.5308 72.5836L53.7368 73.5803C55.5881 73.6342 56.2855 74.5511 56.5413 75.1262C56.9929 76.1413 56.6873 77.4573 55.7979 78.3264C55.0524 79.0553 54.0696 79.2999 53.1016 79.0182C52.5679 79.5032 51.8128 79.7867 51.035 79.7867ZM49.4984 77.6841C49.8898 78.3373 50.4509 78.5215 50.8657 78.558C51.477 78.6116 52.1232 78.3564 52.4375 77.9379C52.5218 77.8257 52.6423 77.7457 52.7789 77.7113C52.9154 77.6768 53.0598 77.69 53.1878 77.7486C54.0462 78.1415 54.6523 77.7343 54.937 77.4559C55.4521 76.9518 55.6581 76.1621 55.4177 75.6194C55.1575 75.0341 54.3948 74.7448 53.2709 74.8065C53.1237 74.8146 52.9786 74.7698 52.8619 74.6804C52.7452 74.591 52.6648 74.4629 52.6352 74.3195L52.4203 73.2764C51.5219 73.1765 50.6417 72.9535 49.805 72.6136C49.7775 74.2986 49.6745 75.999 49.4984 77.6841Z" fill="#371A45"/>
<path d="M52.6729 78.8575C52.1898 78.5359 51.8368 78.1313 51.5545 77.7135C51.2722 77.2956 51.0593 76.8535 50.8791 76.4101C50.8713 76.3909 50.8705 76.3697 50.8768 76.35C50.8831 76.3303 50.8961 76.3134 50.9136 76.3023C50.9311 76.2911 50.952 76.2864 50.9726 76.2889C50.9933 76.2914 51.0124 76.3009 51.0267 76.316C51.3498 76.6571 51.6932 76.976 52.0607 77.2298C52.4281 77.4836 52.8161 77.6732 53.187 77.7479C53.2701 77.7621 53.3496 77.7927 53.4206 77.838C53.4916 77.8832 53.5528 77.9421 53.6005 78.0112C53.6482 78.0804 53.6814 78.1583 53.6983 78.2404C53.7151 78.3226 53.7152 78.4072 53.6985 78.4894C53.6818 78.5715 53.6487 78.6495 53.6012 78.7187C53.5536 78.7879 53.4926 78.847 53.4216 78.8923C53.3507 78.9377 53.2713 78.9685 53.1882 78.9828C53.1051 78.9972 53.0199 78.9948 52.9377 78.9759C52.8577 78.9602 52.7817 78.929 52.7138 78.8841L52.6729 78.8575Z" fill="#371A45"/>
<path d="M32.8791 80.458C27.4055 80.458 21.9277 79.2767 16.4836 76.9143C16.3372 76.8475 16.2231 76.7263 16.1658 76.5769C16.1084 76.4274 16.1124 76.2616 16.1769 76.115C16.2414 75.9684 16.3612 75.8528 16.5105 75.7931C16.6599 75.7333 16.8269 75.7342 16.9756 75.7954C27.5363 80.3785 38.2295 80.3785 48.7576 75.7954C48.8315 75.7633 48.911 75.7459 48.9917 75.7443C49.0724 75.7426 49.1526 75.7568 49.2278 75.786C49.3029 75.8152 49.3715 75.8588 49.4297 75.9143C49.4879 75.9698 49.5346 76.0362 49.5669 76.1096C49.5993 76.183 49.6168 76.262 49.6184 76.3422C49.6201 76.4223 49.6058 76.502 49.5764 76.5766C49.5471 76.6513 49.5032 76.7195 49.4473 76.7773C49.3914 76.8351 49.3246 76.8814 49.2507 76.9136C43.8234 79.2767 38.3531 80.458 32.8791 80.458Z" fill="#371A45"/>
<path d="M37.677 84.0731C36.9089 84.6445 36.1661 85.2557 35.2705 85.7609L35.2568 85.7688C35.1767 85.8139 35.0876 85.841 34.9958 85.848C34.904 85.8551 34.8117 85.8419 34.7256 85.8095C34.6395 85.7771 34.5616 85.7263 34.4975 85.6606C34.4334 85.5949 34.3847 85.516 34.3548 85.4295C34.3249 85.343 34.3145 85.251 34.3245 85.16C34.3344 85.0691 34.3644 84.9815 34.4124 84.9034C34.4603 84.8253 34.525 84.7586 34.6018 84.7081C34.6786 84.6577 34.7656 84.6246 34.8567 84.6114C35.7496 84.4821 36.6712 84.1802 37.5987 83.9166C37.6188 83.911 37.6402 83.9126 37.6592 83.9211C37.6782 83.9295 37.6936 83.9442 37.7029 83.9628C37.7122 83.9813 37.7146 84.0024 37.7099 84.0226C37.7052 84.0427 37.6936 84.0606 37.677 84.0731Z" fill="#371A45"/>
<path d="M23.2551 100.703C19.234 102.118 14.3489 102.167 13.1758 100.049C13.0385 99.3966 13.0581 98.7372 13.3534 98.1113C13.5093 97.7844 13.6981 97.474 13.9169 97.1848V97.1831L13.9485 97.1674C15.6586 94.9854 22.183 97.0419 23.2551 100.703Z" fill="white"/>
<path d="M17.6304 101.796C15.5251 101.796 13.7597 101.284 13.0976 100.091L13.0887 100.066C12.9342 99.3306 12.996 98.6603 13.2724 98.0736C13.427 97.7491 13.6136 97.4406 13.8294 97.1526V97.1277L13.8583 97.1134L13.8713 97.0964H13.8926C14.5495 96.2757 15.8949 95.9898 17.5892 96.3118C19.9421 96.7593 22.6714 98.4024 23.3379 100.678L23.3613 100.757L23.283 100.784C21.4685 101.425 19.426 101.796 17.6304 101.796ZM13.2587 100.018C14.4424 102.123 19.2887 101.984 23.1463 100.648C22.4595 98.4819 19.8302 96.9166 17.5569 96.4844C15.943 96.1774 14.6206 96.453 14.02 97.2209L14.0069 97.2369V97.271H13.9627C13.7578 97.5453 13.5806 97.8389 13.4335 98.1476C13.1704 98.704 13.1138 99.3159 13.2587 100.018Z" fill="#371A45"/>
<path d="M29.6687 85.5337C29.1959 85.0592 28.609 84.6263 28.0548 84.1601C28.0458 84.1524 28.0383 84.1431 28.0329 84.1326C28.0275 84.1221 28.0242 84.1107 28.0232 84.0989C28.0223 84.0871 28.0237 84.0753 28.0273 84.0641C28.031 84.0529 28.0368 84.0425 28.0445 84.0335C28.0552 84.0211 28.0691 84.0118 28.0847 84.0066C28.1003 84.0014 28.117 84.0004 28.1331 84.0038C28.8329 84.1543 29.541 84.2542 30.2814 84.4759L30.3044 84.4827C30.4653 84.5318 30.6002 84.6422 30.6794 84.7898C30.7587 84.9374 30.7759 85.1101 30.7273 85.2703C30.6786 85.4304 30.5682 85.5649 30.42 85.6444C30.2719 85.7239 30.0981 85.7418 29.9366 85.6943C29.8354 85.6634 29.7434 85.6082 29.6687 85.5337Z" fill="#371A45"/>
<path d="M29.2839 97.0841C29.0283 97.0839 28.7754 97.0316 28.541 96.9304C28.3066 96.8292 28.0955 96.6812 27.921 96.4957C25.8349 94.2932 22.3309 92.8698 18.5464 92.6873C18.207 92.6711 17.8767 92.5728 17.5842 92.4009C17.2917 92.2291 17.046 91.9888 16.8682 91.7012C16.694 91.4205 16.5914 91.1018 16.5694 90.7728C16.5474 90.4438 16.6068 90.1145 16.7422 89.8135C16.9987 89.238 17.6007 88.4671 18.9952 88.0738C19.0903 88.0486 19.1799 88.0261 19.2699 88.0056C19.5584 87.9403 19.8552 87.9194 20.15 87.9435C23.2028 88.196 27.4516 89.5918 29.6658 91.7707C30.8611 92.9472 31.3638 94.2608 31.1193 95.5672C31.0579 95.9039 30.9033 96.217 30.6728 96.4713C30.4424 96.7256 30.1451 96.9111 29.8144 97.007C29.6422 97.0578 29.4635 97.0838 29.2839 97.0841ZM19.9165 89.1555C19.7913 89.1556 19.6664 89.1695 19.5443 89.1971C19.4698 89.2138 19.3942 89.2333 19.3221 89.2524C18.5893 89.457 18.0828 89.8251 17.8661 90.3098C17.8116 90.4293 17.7876 90.5604 17.7965 90.6914C17.8054 90.8223 17.8468 90.949 17.9169 91.0602C17.9893 91.1792 18.0902 91.2785 18.2107 91.3493C18.3311 91.4201 18.4673 91.4601 18.6072 91.4658C22.7011 91.663 26.5175 93.2296 28.8162 95.6569C28.8971 95.7445 29.0013 95.8076 29.1167 95.839C29.2321 95.8704 29.3541 95.8688 29.4686 95.8343C29.5821 95.8029 29.6842 95.7399 29.763 95.6528C29.8418 95.5658 29.8939 95.4582 29.9133 95.3428C30.0823 94.4385 29.709 93.5281 28.8032 92.6365C26.7974 90.6632 22.8817 89.3932 20.0501 89.1589C20.0058 89.1572 19.9612 89.1555 19.9165 89.1555Z" fill="#371A45"/>
<path d="M19.8623 104.999C19.0395 105.004 18.2186 104.918 17.4147 104.743C15.3224 104.277 13.831 103.204 13.1017 101.641C12.4083 100.156 12.3143 98.9172 12.8142 97.8526C13.2816 96.857 14.0532 96.0601 14.8705 95.2166C15.8515 94.2035 16.8659 93.156 17.3618 91.7053C17.3877 91.6294 17.4284 91.5593 17.4816 91.499C17.5348 91.4387 17.5994 91.3895 17.6718 91.354C17.7442 91.3185 17.8229 91.2976 17.9034 91.2923C17.9839 91.2871 18.0647 91.2976 18.1411 91.3234C18.2175 91.3491 18.2881 91.3896 18.3487 91.4424C18.4094 91.4953 18.459 91.5595 18.4947 91.6314C18.5304 91.7033 18.5515 91.7814 18.5568 91.8614C18.5621 91.9414 18.5515 92.0216 18.5255 92.0975C17.9418 93.8065 16.7807 95.0054 15.7561 96.0632C15.0119 96.8314 14.309 97.5569 13.9282 98.3684C13.5848 99.0967 13.6779 99.9736 14.2166 101.128C14.9278 102.651 16.4947 103.287 17.6849 103.552C20.8472 104.258 25.1022 103.242 27.5804 101.19C27.9062 100.922 28.1685 100.585 28.3484 100.205C28.5284 99.8245 28.6217 99.4092 28.6216 98.9889V96.4725C28.6196 96.3912 28.6341 96.3102 28.6641 96.2345C28.6941 96.1587 28.7391 96.0897 28.7963 96.0315C28.8536 95.9733 28.922 95.927 28.9975 95.8954C29.073 95.8638 29.1541 95.8475 29.2361 95.8475C29.318 95.8475 29.3991 95.8638 29.4747 95.8954C29.5502 95.927 29.6186 95.9733 29.6758 96.0315C29.7331 96.0897 29.778 96.1587 29.808 96.2345C29.8381 96.3102 29.8525 96.3912 29.8506 96.4725V98.9889C29.8507 99.5881 29.7179 100.18 29.4615 100.722C29.2052 101.265 28.8316 101.744 28.3675 102.127C26.1856 103.933 22.8942 104.999 19.8623 104.999Z" fill="#371A45"/>
<path d="M17.6589 102.233C15.0148 102.233 13.1911 101.448 12.6073 100.042C12.5555 99.9143 12.5568 99.7712 12.6107 99.6441C12.6646 99.517 12.7669 99.4161 12.8952 99.3635C13.0236 99.3109 13.1676 99.3108 13.2961 99.3632C13.4245 99.4155 13.527 99.5162 13.5811 99.6432C14.0234 100.708 15.7576 101.28 18.2231 101.174C22.3782 100.995 27.4085 98.9565 28.278 96.211C28.3199 96.0786 28.4131 95.9682 28.537 95.904C28.6609 95.8398 28.8054 95.8272 28.9387 95.8689C29.0719 95.9105 29.1831 96.0031 29.2477 96.1261C29.3123 96.2492 29.325 96.3927 29.2831 96.5251C28.2484 99.7939 22.7586 102.026 18.2684 102.22C18.0621 102.228 17.856 102.233 17.6589 102.233Z" fill="#371A45"/>
<path d="M23.2567 101.231C23.1426 101.231 23.0316 101.194 22.9404 101.126C22.8492 101.058 22.7829 100.962 22.7512 100.853C22.1575 98.8135 19.6487 97.3273 17.4778 96.9132C16.0269 96.6366 14.8639 96.8511 14.3656 97.4876C14.3234 97.5426 14.2707 97.5887 14.2104 97.6234C14.1502 97.658 14.0836 97.6804 14.0146 97.6893C13.9456 97.6982 13.8755 97.6935 13.8083 97.6753C13.7412 97.6571 13.6783 97.6259 13.6234 97.5835C13.5684 97.5411 13.5225 97.4883 13.4882 97.4281C13.4539 97.3679 13.432 97.3016 13.4237 97.233C13.4154 97.1643 13.4208 97.0947 13.4398 97.0282C13.4587 96.9617 13.4907 96.8995 13.5339 96.8453C14.2914 95.8776 15.8003 95.5273 17.6762 95.8855C20.0858 96.3449 23.0187 98.0044 23.7632 100.562C23.7858 100.64 23.7899 100.722 23.7751 100.802C23.7603 100.882 23.727 100.957 23.6779 101.022C23.6288 101.087 23.5652 101.14 23.4921 101.176C23.419 101.212 23.3384 101.231 23.2567 101.231Z" fill="#371A45"/>
<path d="M21.3096 94.6572C21.2358 94.6572 21.1631 94.6389 21.0981 94.604C19.6559 93.8317 17.2981 93.9515 17.2744 93.9532C17.2158 93.9564 17.1571 93.9482 17.1017 93.9289C17.0463 93.9097 16.9952 93.8798 16.9514 93.8409C16.9076 93.802 16.872 93.755 16.8465 93.7024C16.821 93.6499 16.8062 93.5929 16.8029 93.5346C16.7997 93.4764 16.8079 93.4181 16.8273 93.363C16.8467 93.308 16.8769 93.2573 16.916 93.2138C16.9551 93.1703 17.0025 93.1349 17.0554 93.1096C17.1083 93.0843 17.1657 93.0696 17.2243 93.0663C17.3307 93.0602 19.8571 92.9299 21.5222 93.8222C21.6098 93.869 21.6792 93.9436 21.7193 94.0341C21.7595 94.1245 21.768 94.2257 21.7435 94.3216C21.7191 94.4174 21.6632 94.5024 21.5845 94.563C21.5059 94.6237 21.4091 94.6564 21.3096 94.6562V94.6572Z" fill="#371A45"/>
<path d="M20.1225 95.8737C20.0583 95.8737 19.9948 95.8598 19.9364 95.8331C18.4485 95.1537 16.1021 95.4238 16.0787 95.4265C15.9612 95.4406 15.8427 95.4078 15.7496 95.3352C15.6564 95.2626 15.596 95.1562 15.5818 95.0394C15.5676 94.9226 15.6007 94.805 15.6738 94.7124C15.7469 94.6198 15.854 94.5599 15.9716 94.5458C16.0777 94.5332 18.5899 94.2422 20.3093 95.0271C20.402 95.0693 20.4774 95.1417 20.5229 95.2323C20.5684 95.3229 20.5814 95.4263 20.5595 95.5252C20.5377 95.6242 20.4824 95.7127 20.4029 95.7761C20.3234 95.8395 20.2245 95.8739 20.1225 95.8737Z" fill="#371A45"/>
<path d="M47.0786 91.9016C46.8844 92.0081 46.668 92.0684 46.4464 92.0779C42.6059 92.2628 38.8853 93.7227 36.6532 96.0774C36.5373 96.2009 36.397 96.2995 36.2412 96.367C36.0979 96.4313 35.9433 96.4669 35.7862 96.4717C35.2024 96.4942 34.6255 96.1142 34.5046 95.4566C34.2814 94.2627 34.8137 93.1626 35.7862 92.2051C37.8407 90.1834 41.8642 88.8057 44.9204 88.5526C45.1528 88.534 45.3866 88.5504 45.614 88.6014C45.9167 88.6674 46.2112 88.7664 46.4921 88.8964C47.1102 89.184 47.5085 89.594 47.7194 90.0633C48.0401 90.7749 47.7098 91.5598 47.0786 91.9016Z" fill="white"/>
<path d="M35.7395 96.5595C35.1746 96.5595 34.5517 96.1935 34.4188 95.4721C34.2049 94.327 34.6444 93.2071 35.7254 92.1432C37.8503 90.0519 41.9555 88.7104 44.9125 88.4658C45.1541 88.4459 45.3972 88.463 45.6336 88.5163C45.9426 88.5837 46.2431 88.6847 46.5299 88.8175C47.1394 89.1013 47.5669 89.5082 47.8004 90.0274C48.1215 90.742 47.8231 91.5985 47.1215 91.9781C46.9156 92.091 46.6862 92.1549 46.4512 92.1647C42.5366 92.3534 38.8966 93.8382 36.7185 96.1369C36.5946 96.2691 36.4448 96.3746 36.2783 96.447C36.1251 96.5157 35.9597 96.5537 35.7917 96.5585C35.7736 96.5592 35.7562 96.5595 35.7395 96.5595ZM45.1058 88.6336C45.0461 88.6336 44.9863 88.636 44.9269 88.6408C42.0016 88.883 37.944 90.2068 35.8487 92.2684C34.8116 93.289 34.3886 94.357 34.5915 95.4407C34.7103 96.0864 35.2804 96.4012 35.7834 96.3845C35.929 96.3804 36.0724 96.3476 36.2051 96.288C36.3505 96.225 36.4812 96.1329 36.589 96.0175C38.7981 93.6871 42.4813 92.1814 46.4413 91.9908C46.6495 91.9821 46.8529 91.9255 47.0353 91.8253C47.6572 91.489 47.922 90.7307 47.6383 90.099C47.4227 89.6191 47.0244 89.2411 46.4536 88.9754C46.179 88.8483 45.8911 88.7515 45.5952 88.6868C45.4345 88.6512 45.2704 88.6333 45.1058 88.6336Z" fill="#371A45"/>
<g opacity="0.3">
<path opacity="0.3" d="M47.0789 91.9016C46.8847 92.0081 46.6683 92.0684 46.4467 92.0779C45.4939 92.1237 44.5466 92.2479 43.6144 92.4494C43.8312 92.2481 43.9795 91.9847 44.0386 91.6959C44.0978 91.407 44.0649 91.1071 43.9444 90.8377C43.7336 90.3683 43.3349 89.9586 42.7172 89.6707C42.4363 89.5408 42.1418 89.4419 41.8391 89.376C41.6117 89.3249 41.3778 89.3084 41.1455 89.3272L41.084 89.3324C42.394 88.9206 43.7302 88.6522 44.9207 88.5526C45.1531 88.534 45.3869 88.5504 45.6144 88.6014C45.9171 88.6674 46.2115 88.7664 46.4924 88.8964C47.1105 89.184 47.5088 89.594 47.7197 90.0633C48.0404 90.7749 47.7101 91.5598 47.0789 91.9016Z" fill="#371A45"/>
</g>
<path d="M51.8276 100.049C51.1288 101.311 49.1148 101.802 46.7491 101.696C45.6529 101.64 44.5646 101.48 43.4989 101.218H43.4955C40.1625 100.41 36.9669 98.6573 36.2417 96.3671V96.3654C36.3976 96.2979 36.5378 96.1994 36.6538 96.0758C38.4449 94.1851 41.1948 92.8718 44.1974 92.3325C44.9407 92.1979 45.6922 92.1123 46.447 92.0764C46.6686 92.0669 46.885 92.0065 47.0791 91.9C48.0341 94.6971 50.6769 96.0305 51.6514 98.1081C51.945 98.7371 51.9646 99.3965 51.8276 100.049Z" fill="#FF5555"/>
<path d="M51.8277 100.049C51.7329 100.501 51.5643 100.951 51.3624 101.385C50.075 104.143 46.1892 104.851 42.5029 104.111C40.4642 103.702 38.4886 102.852 37.0471 101.659C36.6528 101.333 36.3355 100.925 36.1176 100.463C35.8997 100.002 35.7866 99.4983 35.7861 98.9886V96.4715C35.9433 96.4667 36.0979 96.4311 36.2411 96.3668V96.3685C36.9664 98.6587 40.162 100.412 43.4949 101.219H43.4984C44.564 101.481 45.6523 101.641 46.7486 101.697C49.1145 101.802 51.1306 101.31 51.8277 100.049Z" fill="white"/>
<path d="M45.1423 104.465C44.2502 104.463 43.3605 104.373 42.4862 104.197C40.352 103.769 38.3998 102.892 36.9919 101.726C36.5874 101.392 36.2619 100.973 36.0385 100.5C35.8152 100.027 35.6995 99.5111 35.6997 98.9886V96.387L35.7845 96.3842C35.9299 96.3801 36.073 96.3472 36.2055 96.2877L36.3302 96.2311V96.3552C37.108 98.7808 40.5436 100.412 43.5071 101.131L43.5208 101.133C44.5811 101.392 45.6637 101.551 46.7542 101.607C49.3008 101.722 51.1238 101.138 51.7516 100.004L52.0338 99.4948L51.9143 100.064C51.8268 100.482 51.674 100.925 51.4429 101.419C50.4281 103.594 47.8444 104.465 45.1423 104.465ZM35.8748 96.5531V98.9886C35.8747 99.4855 35.9848 99.9764 36.1973 100.426C36.4098 100.876 36.7194 101.274 37.1042 101.592C38.4911 102.74 40.4148 103.604 42.5208 104.026C45.9397 104.712 49.9752 104.15 51.2828 101.348C51.4146 101.069 51.5278 100.781 51.6218 100.487C50.7914 101.419 49.0552 101.886 46.7456 101.784C45.6473 101.727 44.5569 101.568 43.4889 101.308L43.4748 101.305C40.4935 100.583 37.0341 98.9398 36.1873 96.4842C36.0866 96.5203 35.9815 96.5434 35.8748 96.5531Z" fill="#371A45"/>
<path d="M41.7646 100.703C45.7858 102.118 50.6709 102.167 51.8435 100.049C51.9809 99.3966 51.9613 98.7372 51.6664 98.1113C51.5103 97.7844 51.3214 97.474 51.1025 97.1848V97.1831L51.0709 97.1674C49.3608 94.9854 42.8357 97.0419 41.7646 100.703Z" fill="white"/>
<path d="M47.3877 101.796C45.5921 101.796 43.5499 101.424 41.7341 100.785L41.6558 100.758L41.6791 100.679C42.3446 98.4039 45.0749 96.7608 47.4282 96.3126C49.1221 95.9905 50.4679 96.2764 51.1248 97.0971H51.1461L51.1588 97.1141L51.1876 97.1285V97.1534C51.4037 97.4412 51.5904 97.7497 51.7449 98.0744C52.0197 98.6607 52.0828 99.331 51.9287 100.067L51.9197 100.091C51.2594 101.284 49.4937 101.796 47.3877 101.796ZM41.8718 100.648C45.7294 101.984 50.576 102.123 51.7594 100.018C51.9046 99.316 51.8476 98.704 51.5856 98.148C51.4386 97.8396 51.2616 97.5462 51.0571 97.2721H51.0139L51.0111 97.2363L50.9988 97.2209C50.3978 96.4531 49.0758 96.1778 47.4618 96.4845C45.1899 96.9166 42.5582 98.4816 41.8728 100.648H41.8718Z" fill="#371A45"/>
<path d="M29.2358 92.8162C29.1551 92.8164 29.0752 92.8007 29.0006 92.7701C28.926 92.7396 28.8583 92.6947 28.8012 92.6381C28.7441 92.5815 28.6988 92.5142 28.6679 92.4402C28.637 92.3662 28.6211 92.2868 28.6211 92.2067V92.205C28.6212 92.0843 28.6574 91.9663 28.725 91.866C28.7926 91.7656 28.8887 91.6875 29.001 91.6414C29.1133 91.5953 29.2369 91.5833 29.3561 91.6069C29.4753 91.6305 29.5848 91.6887 29.6706 91.7742C29.7565 91.8596 29.815 91.9684 29.8387 92.0868C29.8623 92.2052 29.8501 92.328 29.8036 92.4395C29.757 92.551 29.6783 92.6463 29.5772 92.7134C29.4761 92.7805 29.3573 92.8162 29.2358 92.8162Z" fill="#371A45"/>
<path d="M35.7319 97.0831C35.2956 97.0853 34.8726 96.9343 34.5376 96.6567C34.2025 96.3792 33.977 95.9929 33.9009 95.5662C33.6568 94.2608 34.1595 92.9479 35.3548 91.7714C37.569 89.5924 41.8171 88.1966 44.8688 87.9442C45.1634 87.9201 45.46 87.9408 45.7483 88.0056C46.0956 88.0816 46.4335 88.1954 46.7558 88.345C47.4697 88.6772 47.9982 89.1862 48.2804 89.8145C48.7121 90.7757 48.3148 91.9273 47.3736 92.4369C47.0971 92.5882 46.7892 92.674 46.4739 92.6876C42.6928 92.8694 39.1881 94.2932 37.0993 96.4957C36.9254 96.6805 36.7149 96.8276 36.4812 96.9279C36.268 97.0228 36.0382 97.0751 35.8047 97.0817C35.7813 97.0824 35.757 97.0831 35.7319 97.0831ZM45.1065 89.1551C45.0612 89.1551 45.0162 89.1572 44.9712 89.1609C42.1406 89.3953 38.2256 90.6649 36.2198 92.6402C35.3143 93.5315 34.9407 94.4419 35.1097 95.3462C35.1783 95.7166 35.4984 95.8739 35.7621 95.8626C35.8391 95.861 35.9149 95.8442 35.9853 95.8131C36.0687 95.7775 36.1436 95.725 36.2054 95.659C38.5061 93.233 42.3219 91.6663 46.4151 91.4692C46.5432 91.4637 46.6682 91.4287 46.7802 91.3668L46.7833 91.3651C47.1181 91.184 47.3492 90.7406 47.1569 90.3118C46.9944 89.9499 46.6823 89.6596 46.2297 89.4488C45.9886 89.3376 45.736 89.2531 45.4763 89.1967C45.355 89.1693 45.2309 89.1554 45.1065 89.1551Z" fill="#371A45"/>
<path d="M47.3876 102.323C46.9068 102.323 46.4014 102.297 45.8712 102.244C41.6615 101.828 36.6514 99.6917 35.657 96.5518C35.6111 96.4073 35.6208 96.251 35.6842 96.1132C35.7476 95.9754 35.8603 95.8658 36.0004 95.8058C36.0784 95.7708 36.1485 95.7204 36.2064 95.6578C38.5071 93.2318 42.3229 91.6651 46.4161 91.468C46.5442 91.4625 46.6691 91.4275 46.7812 91.3656C46.8598 91.3226 46.9471 91.2971 47.0367 91.2912C47.1264 91.2852 47.2163 91.2988 47.3 91.3311C47.3838 91.3633 47.4595 91.4134 47.5216 91.4779C47.5838 91.5423 47.631 91.6195 47.6599 91.704C48.1557 93.1547 49.1708 94.2016 50.1505 95.2143C50.9681 96.0582 51.7404 96.8554 52.2078 97.8521C52.533 98.5425 52.6078 99.3233 52.4296 100.172C52.4173 100.231 52.396 100.289 52.3664 100.342C51.6542 101.63 49.8748 102.323 47.3876 102.323ZM36.9952 96.5996C38.1284 98.9361 42.3346 100.668 45.992 101.029C48.6121 101.288 50.6089 100.83 51.2459 99.8298C51.3465 99.2772 51.2971 98.7987 51.0948 98.3699C50.7137 97.5567 50.0104 96.8308 49.2659 96.0623C48.3583 95.1253 47.3429 94.0778 46.718 92.6625C46.6375 92.6756 46.5563 92.6841 46.4748 92.6878C42.6938 92.8696 39.1891 94.2933 37.1002 96.4959C37.0656 96.532 37.0302 96.5668 36.9938 96.5996H36.9952Z" fill="#371A45"/>
<path d="M45.1597 105C42.1272 105 38.8358 103.934 36.6546 102.128C36.1908 101.745 35.8176 101.265 35.5615 100.723C35.3054 100.18 35.1727 99.5887 35.1729 98.9896V96.4726C35.1728 96.3142 35.2348 96.1621 35.3455 96.0483C35.4563 95.9344 35.6073 95.8677 35.7666 95.8623C35.8424 95.8604 35.9171 95.8436 35.9863 95.8129C36.0674 95.776 36.1555 95.757 36.2447 95.7573C36.3338 95.7577 36.4218 95.7773 36.5026 95.8148C36.5833 95.8523 36.6549 95.9068 36.7123 95.9746C36.7696 96.0424 36.8115 96.1218 36.8349 96.2072C37.659 98.7413 42.131 100.649 45.9918 101.03C48.6767 101.295 50.7069 100.807 51.2896 99.7557C51.3607 99.6278 51.4756 99.5294 51.6135 99.4784C51.7513 99.4275 51.903 99.4273 52.041 99.478C52.179 99.5287 52.2941 99.6269 52.3654 99.7547C52.4367 99.8825 52.4595 100.032 52.4297 100.175C52.3335 100.632 52.1673 101.112 51.9204 101.641C51.191 103.205 49.7004 104.277 47.6084 104.745C46.8041 104.919 45.9829 105.005 45.1597 105ZM36.4032 97.9526V98.9886C36.4032 99.4089 36.4963 99.8241 36.6761 100.205C36.8559 100.585 37.1178 100.922 37.4434 101.19C39.9223 103.242 44.1776 104.258 47.3403 103.552C48.3059 103.337 49.5201 102.877 50.3229 101.897C49.1753 102.296 47.6586 102.421 45.8716 102.244C42.3212 101.893 38.2029 100.32 36.4019 97.9526H36.4032Z" fill="#371A45"/>
<path d="M41.7645 101.231C41.6829 101.231 41.6023 101.212 41.5293 101.176C41.4563 101.14 41.3927 101.087 41.3436 101.022C41.2945 100.957 41.2613 100.882 41.2465 100.802C41.2317 100.723 41.2358 100.64 41.2584 100.562C42.0029 98.0041 44.9354 96.345 47.3453 95.8856C49.2203 95.5281 50.7302 95.8777 51.4877 96.8454C51.5734 96.955 51.6118 97.094 51.5944 97.2317C51.5771 97.3694 51.5053 97.4946 51.395 97.5798C51.2846 97.665 51.1447 97.7031 51.0061 97.6859C50.8674 97.6686 50.7414 97.5973 50.6556 97.4877C50.1577 96.8512 48.9943 96.635 47.5438 96.9133C45.3726 97.3274 42.8641 98.8136 42.2704 100.853C42.2387 100.962 42.1723 101.058 42.0811 101.126C41.9898 101.194 41.8787 101.231 41.7645 101.231Z" fill="#371A45"/>
<path d="M43.7133 94.6571C43.6138 94.6573 43.5171 94.6245 43.4386 94.5638C43.36 94.5032 43.3041 94.4182 43.2797 94.3224C43.2553 94.2266 43.2639 94.1254 43.304 94.0349C43.3441 93.9445 43.4135 93.8699 43.5011 93.8231C45.1662 92.9308 47.6922 93.0615 47.799 93.0673C47.9174 93.0739 48.0283 93.127 48.1073 93.2149C48.1863 93.3027 48.2269 93.4182 48.2202 93.5358C48.2135 93.6534 48.16 93.7635 48.0716 93.842C47.9831 93.9204 47.8669 93.9608 47.7485 93.9541C47.7245 93.9541 45.3661 93.8327 43.9252 94.605C43.86 94.6395 43.7872 94.6574 43.7133 94.6571Z" fill="#371A45"/>
<path d="M44.8977 95.8736C44.7958 95.8738 44.6969 95.8392 44.6174 95.7758C44.538 95.7124 44.4828 95.6239 44.461 95.5249C44.4392 95.426 44.4522 95.3227 44.4977 95.2321C44.5432 95.1415 44.6186 95.0691 44.7113 95.027C46.4303 94.2425 48.9429 94.5331 49.049 94.5457C49.1666 94.5598 49.2737 94.6197 49.3468 94.7123C49.4199 94.8049 49.4529 94.9225 49.4387 95.0393C49.4245 95.1561 49.3642 95.2625 49.271 95.3351C49.1778 95.4077 49.0594 95.4405 48.9418 95.4264C48.9181 95.4237 46.5724 95.1535 45.0842 95.833C45.0257 95.8598 44.9621 95.8736 44.8977 95.8736Z" fill="#371A45"/>
<path d="M19.958 78.2265C19.9118 78.2264 19.8657 78.2211 19.8207 78.2109C19.6619 78.1743 19.5242 78.0767 19.438 77.9393C19.3517 77.802 19.3238 77.6362 19.3605 77.4785L19.9196 75.0782C19.9408 74.9867 19.983 74.9013 20.043 74.8287C20.1029 74.7561 20.1789 74.6983 20.265 74.6596C22.8089 73.5176 24.0894 61.3209 23.8706 58.4737C23.8638 58.3849 23.8766 58.2957 23.9082 58.2124C23.9397 58.1291 23.9892 58.0536 24.0532 57.9913C24.1172 57.9289 24.1941 57.8813 24.2786 57.8516C24.3631 57.8219 24.4531 57.8109 24.5423 57.8194C30.483 58.387 36.3031 58.4529 41.3743 58.0094C41.4598 58.0019 41.5459 58.0122 41.627 58.0398C41.7082 58.0673 41.7827 58.1114 41.8457 58.1692C41.9086 58.227 41.9587 58.2973 41.9927 58.3756C42.0267 58.4538 42.0438 58.5382 42.0429 58.6234C42.0086 61.8445 43.1418 73.8764 45.71 75.2115C45.7919 75.2541 45.8631 75.3146 45.9182 75.3883C45.9734 75.462 46.0112 75.547 46.0287 75.6372L46.3889 77.5C46.4164 77.6577 46.3806 77.8198 46.289 77.9514C46.1975 78.0831 46.0576 78.1738 45.8994 78.204C45.7412 78.2343 45.5774 78.2016 45.4432 78.113C45.309 78.0245 45.2151 77.8872 45.1819 77.7306L44.8766 76.1516C42.2483 74.692 40.9475 62.4909 40.8229 59.2797C36.0384 59.6529 30.6399 59.5908 25.1233 59.0989C25.1171 62.0106 23.6622 74.3567 21.0497 75.6406L20.5562 77.7524C20.5252 77.887 20.4491 78.0071 20.3405 78.0932C20.2318 78.1793 20.097 78.2263 19.958 78.2265Z" fill="white"/>
<path d="M45.4432 78.113C45.309 78.0245 45.2151 77.8872 45.1819 77.7306L44.8766 76.1516C42.2483 74.692 40.9475 62.4909 40.8229 59.2797C36.0384 59.6529 30.6399 59.5908 25.1233 59.0989C25.1171 62.0106 23.6622 74.3567 21.0497 75.6406L20.5562 77.7524C20.5252 77.887 20.4491 78.0071 20.3405 78.0932C29.0128 80.8401 40.6891 79.251 45.4432 78.113Z" fill="white"/>
<path d="M39.2831 97.8504C39.8003 97.8504 40.2195 97.1867 40.2195 96.3679C40.2195 95.5492 39.8003 94.8855 39.2831 94.8855C38.7659 94.8855 38.3467 95.5492 38.3467 96.3679C38.3467 97.1867 38.7659 97.8504 39.2831 97.8504Z" fill="#FF5555"/>
<path d="M39.2836 97.9376C38.7187 97.9376 38.2593 97.2336 38.2593 96.3685C38.2593 95.5035 38.7187 94.7994 39.2836 94.7994C39.8485 94.7994 40.308 95.5035 40.308 96.3685C40.308 97.2336 39.8478 97.9376 39.2836 97.9376ZM39.2836 94.9727C38.8156 94.9727 38.4348 95.5986 38.4348 96.3678C38.4348 97.137 38.8156 97.7633 39.2836 97.7633C39.7517 97.7633 40.1321 97.1374 40.1321 96.3678C40.1321 95.5983 39.751 94.9727 39.2836 94.9727Z" fill="#371A45"/>
<path d="M39.2836 98.2055C38.5581 98.2055 37.9897 97.3984 37.9897 96.368C37.9897 95.3375 38.5581 94.5308 39.2836 94.5308C40.0092 94.5308 40.5772 95.3378 40.5772 96.368C40.5772 97.3981 40.0085 98.2055 39.2836 98.2055ZM39.2836 95.2406C39.0089 95.2406 38.7043 95.7226 38.7043 96.3662C38.7043 97.0099 39.01 97.4939 39.2836 97.4939C39.5573 97.4939 39.8629 97.012 39.8629 96.3662C39.8629 95.7205 39.5584 95.2406 39.2836 95.2406Z" fill="#371A45"/>
<path d="M35.7872 92.8162C35.7065 92.8163 35.6267 92.8006 35.5521 92.77C35.4776 92.7394 35.4099 92.6946 35.3528 92.638C35.2958 92.5813 35.2505 92.5141 35.2196 92.4401C35.1887 92.3661 35.1729 92.2868 35.1729 92.2067V92.205C35.173 92.0842 35.2092 91.9662 35.2768 91.8659C35.3444 91.7656 35.4405 91.6874 35.5529 91.6413C35.6652 91.5952 35.7888 91.5833 35.908 91.6069C36.0272 91.6306 36.1366 91.6888 36.2225 91.7743C36.3084 91.8597 36.3669 91.9686 36.3905 92.087C36.4141 92.2055 36.4018 92.3282 36.3552 92.4397C36.3086 92.5512 36.2298 92.6465 36.1287 92.7136C36.0276 92.7806 35.9087 92.8163 35.7872 92.8162Z" fill="#371A45"/>
<path d="M19.958 78.2265C19.9118 78.2264 19.8657 78.2211 19.8207 78.2109C19.6619 78.1743 19.5242 78.0767 19.438 77.9393C19.3517 77.802 19.3238 77.6362 19.3605 77.4785L19.9196 75.0782C19.9408 74.9867 19.983 74.9013 20.043 74.8287C20.1029 74.7561 20.1789 74.6983 20.265 74.6596C22.8089 73.5176 24.0894 61.3209 23.8706 58.4737C23.8638 58.3849 23.8766 58.2957 23.9082 58.2124C23.9397 58.1291 23.9892 58.0536 24.0532 57.9913C24.1172 57.9289 24.1941 57.8813 24.2786 57.8516C24.3631 57.8219 24.4531 57.8109 24.5423 57.8194C30.483 58.387 36.3031 58.4529 41.3743 58.0094C41.4598 58.0019 41.5459 58.0122 41.627 58.0398C41.7082 58.0673 41.7827 58.1114 41.8457 58.1692C41.9086 58.227 41.9587 58.2973 41.9927 58.3756C42.0267 58.4538 42.0438 58.5382 42.0429 58.6234C42.0086 61.8445 43.1418 73.8764 45.71 75.2115C45.7919 75.2541 45.8631 75.3146 45.9182 75.3883C45.9734 75.462 46.0112 75.547 46.0287 75.6372L46.3889 77.5C46.4164 77.6577 46.3806 77.8198 46.289 77.9514C46.1975 78.0831 46.0576 78.1738 45.8994 78.204C45.7412 78.2343 45.5774 78.2016 45.4432 78.113C45.309 78.0245 45.2151 77.8872 45.1819 77.7306L44.8766 76.1516C42.2483 74.692 40.9475 62.4909 40.8229 59.2797C36.0384 59.6529 30.6399 59.5908 25.1233 59.0989C25.1171 62.0106 23.6622 74.3567 21.0497 75.6406L20.5562 77.7524C20.5252 77.887 20.4491 78.0071 20.3405 78.0932C20.2318 78.1793 20.097 78.2263 19.958 78.2265Z" fill="#371A45"/>
<g opacity="0.3">
<path opacity="0.3" d="M29.2161 96.5169V98.9886C29.2157 99.4983 29.1026 100.002 28.8848 100.463C28.667 100.925 28.3497 101.333 27.9555 101.659C26.8508 102.573 25.4306 103.286 23.9097 103.754C23.6006 103.77 23.2775 103.773 22.9458 103.762C20.7281 103.694 19.8209 102.669 19.483 101.591V101.589C19.382 101.255 19.3243 100.91 19.3113 100.562C19.2928 100.172 19.4227 99.79 19.6751 99.4913C19.9276 99.1926 20.2841 98.9993 20.6735 98.95C23.4952 98.5987 25.5806 97.2558 26.7832 94.7186L29.1485 96.4661L29.2161 96.5169Z" fill="#371A45"/>
</g>
<path d="M25.7387 97.8504C26.2559 97.8504 26.6751 97.1867 26.6751 96.3679C26.6751 95.5492 26.2559 94.8855 25.7387 94.8855C25.2215 94.8855 24.8022 95.5492 24.8022 96.3679C24.8022 97.1867 25.2215 97.8504 25.7387 97.8504Z" fill="#FF5555"/>
<path d="M25.7387 97.9376C25.1738 97.9376 24.7144 97.2336 24.7144 96.3685C24.7144 95.5035 25.1738 94.7994 25.7387 94.7994C26.3036 94.7994 26.763 95.5035 26.763 96.3685C26.763 97.2336 26.3036 97.9376 25.7387 97.9376ZM25.7387 94.9727C25.2707 94.9727 24.8902 95.5986 24.8902 96.3678C24.8902 97.137 25.2707 97.7633 25.7387 97.7633C26.2067 97.7633 26.5876 97.1374 26.5876 96.3678C26.5876 95.5983 26.2067 94.9727 25.7387 94.9727Z" fill="#371A45"/>
<path d="M25.7384 98.2055C25.0128 98.2055 24.4448 97.3984 24.4448 96.368C24.4448 95.3375 25.0128 94.5308 25.7384 94.5308C26.464 94.5308 27.0323 95.3378 27.0323 96.368C27.0323 97.3981 26.464 98.2055 25.7384 98.2055ZM25.7384 95.2406C25.4637 95.2406 25.1591 95.7226 25.1591 96.3662C25.1591 97.0099 25.465 97.4939 25.7384 97.4939C26.0117 97.4939 26.3177 97.012 26.3177 96.3662C26.3177 95.7205 26.0117 95.2406 25.7384 95.2406Z" fill="#371A45"/>
<g opacity="0.3">
<path opacity="0.3" d="M51.8275 100.049C51.7327 100.501 51.5641 100.951 51.3622 101.385C50.0748 104.143 46.189 104.851 42.5027 104.111C39.0152 101.856 43.4948 101.219 43.4948 101.219H43.4982L46.7484 101.697C50.819 100.326 47.9214 96.4781 44.1953 92.3354C44.9386 92.2007 45.6901 92.1152 46.4448 92.0792C46.6664 92.0697 46.8828 92.0093 47.077 91.9028C48.032 94.6999 50.6747 96.0333 51.6493 98.1109C51.9449 98.7372 51.9645 99.3966 51.8275 100.049Z" fill="#371A45"/>
</g>
<g opacity="0.3">
<path opacity="0.3" d="M49.1148 67.4681C48.8113 75.2423 48.0332 82.4304 46.5442 88.734C46.5442 88.7374 46.5442 88.7391 46.5442 88.7428L45.6857 88.619L45.1974 88.5474H45.1902L42.8091 88.8752C45.3028 78.2631 45.719 67.1905 43.2291 55.4763L45.1202 55.157C45.1676 49.6922 38.9268 52.6853 38.9268 52.6853L41.9967 48.7586L43.0574 47.5916L50.7731 47.5828C52.2761 49.4176 51.614 51.7531 49.075 53.4661C49.8053 53.8691 50.5071 54.2697 51.1803 54.6678C51.133 54.7412 51.1065 54.7814 51.1065 54.7814C50.1835 55.2054 49.4606 55.9385 48.9177 56.9481C48.1815 58.3177 48.8772 60.0426 50.3624 60.5267C53.2943 61.4818 53.5151 63.5379 49.1148 67.4681Z" fill="#371A45"/>
</g>
<g opacity="0.3">
<path opacity="0.3" d="M53.5874 70.7959L53.6591 71.9785C53.6651 72.0753 53.6504 72.1722 53.6159 72.2629C53.5815 72.3536 53.5281 72.4361 53.4592 72.5048C53.3904 72.5735 53.3077 72.627 53.2166 72.6617C53.1254 72.6964 53.0279 72.7115 52.9305 72.7061L53.2395 74.1974C58.1387 73.9303 55.9867 79.7021 52.9305 78.3033C52.1561 79.3358 50.1349 79.636 49.0938 78.1829L49.1992 76.8137C49.933 78.1812 51.6785 77.3335 51.6785 77.3335C53.9857 77.2994 53.0603 75.7392 53.0603 75.7392C50.7884 74.6579 51.2887 72.9991 51.4996 72.5072C51.5196 72.4587 51.5426 72.4115 51.5682 72.3657L51.9422 72.2507C51.4086 70.7383 51.9422 69.8944 51.9422 69.8944C57.6823 66.7282 58.1126 62.3484 55.0186 57.1664C62.0163 62.256 63.0341 66.9097 53.5874 70.7959Z" fill="#371A45"/>
</g>
<g opacity="0.3">
<path opacity="0.3" d="M26.4136 90.0561L28.3565 84.2638L30.0865 85.1861L29.2352 92.4493L26.4136 90.0561Z" fill="#371A45"/>
</g>
<g opacity="0.3">
<path opacity="0.3" d="M37.1003 84.2638L38.9251 90.1571L35.7872 91.9015L35.123 85.1643L37.1003 84.2638Z" fill="#371A45"/>
</g>
<path d="M59.763 34.9098C59.6902 34.9135 59.6175 34.9028 59.5489 34.8785C59.4803 34.8542 59.4172 34.8167 59.3632 34.7682C59.3092 34.7197 59.2653 34.6611 59.2341 34.5957C59.2029 34.5303 59.1849 34.4595 59.1813 34.3872L58.3791 18.5368C58.3755 18.4645 58.3862 18.3923 58.4106 18.3241C58.4351 18.256 58.4728 18.1933 58.5217 18.1396C58.5705 18.086 58.6295 18.0424 58.6953 18.0114C58.7611 17.9804 58.8324 17.9626 58.9052 17.959C59.6684 17.9208 60.4317 18.0324 61.1514 18.2873C61.8712 18.5422 62.5334 18.9354 63.1002 19.4445C63.667 19.9536 64.1273 20.5686 64.4548 21.2544C64.7823 21.9402 64.9706 22.6834 65.009 23.4415L65.2837 28.8467C65.322 29.6049 65.2096 30.3632 64.9529 31.0782C64.6962 31.7933 64.3003 32.4511 63.7876 33.0141C63.275 33.5772 62.6557 34.0344 61.9651 34.3596C61.2746 34.6849 60.5263 34.8718 59.763 34.9098Z" fill="white"/>
<path d="M59.7342 35.0365C59.5594 35.0363 59.3914 34.9695 59.2647 34.8498C59.1381 34.73 59.0627 34.5666 59.054 34.3931L58.2518 18.5427C58.2429 18.3633 58.3061 18.1877 58.4274 18.0545C58.5486 17.9213 58.7182 17.8413 58.8988 17.8322C59.6786 17.7932 60.4586 17.9072 61.1941 18.1677C61.9296 18.4282 62.6063 18.83 63.1855 19.3503C63.7646 19.8705 64.235 20.499 64.5696 21.1999C64.9042 21.9007 65.0966 22.6601 65.1358 23.4348L65.4105 28.84C65.4895 30.4045 64.9397 31.9361 63.882 33.0981C62.8243 34.26 61.3453 34.957 59.7703 35.0358L59.7342 35.0365ZM59.2037 18.0774C59.1066 18.0774 59.0092 18.0798 58.9115 18.0846C58.7983 18.0904 58.692 18.1406 58.616 18.2241C58.54 18.3076 58.5004 18.4176 58.5059 18.5301L59.3081 34.3805C59.3109 34.4362 59.3247 34.4907 59.3488 34.5411C59.3728 34.5914 59.4066 34.6366 59.4482 34.674C59.4898 34.7113 59.5384 34.7402 59.5913 34.7589C59.6441 34.7776 59.7002 34.7858 59.7562 34.783C61.2638 34.7077 62.6794 34.0405 63.6918 32.9284C64.7042 31.8162 65.2304 30.3501 65.1547 28.8526L64.8799 23.4474C64.8067 22 64.1767 20.6358 63.1201 19.6365C62.0635 18.6372 60.6609 18.0791 59.202 18.0774H59.2037Z" fill="#371A45"/>
<g opacity="0.35">
<path opacity="0.35" d="M65.1542 26.3118L65.283 28.8469C65.444 32.0338 62.973 34.748 59.7626 34.9107C59.6156 34.9176 59.4718 34.8664 59.3627 34.7682C59.2537 34.6699 59.1883 34.5328 59.1809 34.3867L58.9663 30.1731C59.0147 30.2677 59.0895 30.3465 59.1817 30.3999C59.274 30.4534 59.3798 30.4793 59.4866 30.4746L59.8643 30.4545C61.0699 30.3949 62.2269 29.964 63.1748 29.2217C64.1227 28.4793 64.8145 27.4623 65.1542 26.3118Z" fill="#371A45"/>
</g>
<path d="M59.7337 35.6143C59.4096 35.6139 59.098 35.4897 58.8634 35.2675C58.6288 35.0453 58.489 34.7421 58.4731 34.4205L57.6709 18.5707C57.6546 18.2384 57.7716 17.9131 57.9962 17.6663C58.2209 17.4195 58.5349 17.2712 58.8694 17.254C59.7256 17.2113 60.5819 17.3364 61.3894 17.6224C62.1969 17.9083 62.9398 18.3495 63.5756 18.9207C64.2115 19.4918 64.7279 20.1818 65.0953 20.9512C65.4627 21.7206 65.6739 22.5543 65.717 23.4048L65.9917 28.81C66.1726 32.381 63.3949 35.4322 59.8 35.6116C59.777 35.6137 59.755 35.6143 59.7337 35.6143ZM59.7285 34.2059C59.7285 34.2059 59.7282 34.2059 59.7285 34.2059V34.2059ZM59.0946 18.6563L59.8814 34.196C61.2056 34.09 62.4363 33.4759 63.3124 32.4838C64.1885 31.4917 64.6412 30.1997 64.5745 28.8816L64.2998 23.4765C64.2331 22.1584 63.6522 20.9179 62.6803 20.0181C61.7084 19.1183 60.4219 18.6298 59.0936 18.6563H59.0946Z" fill="#371A45"/>
<path d="M6.23582 20.5884C6.30872 20.5846 6.38166 20.595 6.45048 20.6192C6.5193 20.6434 6.58264 20.6808 6.63687 20.7294C6.69109 20.7779 6.73515 20.8366 6.7665 20.9021C6.79786 20.9676 6.8159 21.0386 6.81959 21.111L7.62141 36.9615C7.62506 37.0337 7.61435 37.106 7.58989 37.1741C7.56543 37.2423 7.5277 37.3049 7.47885 37.3586C7.43 37.4123 7.37099 37.4558 7.30518 37.4868C7.23938 37.5178 7.16807 37.5357 7.09533 37.5393C6.33214 37.5774 5.56886 37.4659 4.84908 37.211C4.12929 36.9561 3.4671 36.5629 2.90031 36.0538C2.33352 35.5447 1.87323 34.9296 1.54572 34.2438C1.21821 33.558 1.0299 32.8148 0.991543 32.0567L0.71683 26.6516C0.639289 25.1206 1.17719 23.6217 2.2122 22.4846C3.24721 21.3475 4.69455 20.6655 6.23582 20.5884Z" fill="white"/>
<path d="M6.79893 37.6726C3.65587 37.6726 1.02309 35.2146 0.863753 32.0621L0.58904 26.6573C0.509912 25.0926 1.05971 23.5608 2.11751 22.3989C3.17531 21.2369 4.65446 20.5398 6.22959 20.4611C6.31908 20.4565 6.40861 20.4694 6.49304 20.4993C6.57747 20.5291 6.65515 20.5752 6.7216 20.6349C6.78806 20.6946 6.84199 20.7667 6.88031 20.8472C6.91862 20.9277 6.94057 21.0149 6.94488 21.1038L7.74704 36.9563C7.75592 37.1357 7.6928 37.3113 7.57152 37.4446C7.45024 37.5778 7.2807 37.6579 7.10009 37.6671C6.99879 37.6705 6.89817 37.6726 6.79893 37.6726ZM6.24332 20.7139C4.7357 20.7892 3.31994 21.4563 2.30747 22.5684C1.295 23.6806 0.768758 25.1467 0.844521 26.6443L1.11923 32.0495C1.2717 35.0669 3.7922 37.4191 6.80031 37.4195C6.89646 37.4195 6.99226 37.4171 7.08944 37.4123C7.2026 37.4065 7.30882 37.3563 7.38478 37.2728C7.46074 37.1893 7.50025 37.0793 7.49465 36.9668L6.69248 21.1167C6.69002 21.0611 6.67649 21.0065 6.65268 20.9561C6.62887 20.9056 6.59524 20.8604 6.55374 20.8229C6.51224 20.7855 6.46369 20.7566 6.41089 20.7379C6.35808 20.7191 6.30207 20.711 6.24607 20.7139H6.24332Z" fill="#371A45"/>
<g opacity="0.35">
<path opacity="0.35" d="M7.39841 32.5642L7.62059 36.9614C7.62759 37.1075 7.57601 37.2504 7.47714 37.3588C7.37827 37.4671 7.24018 37.5322 7.09314 37.5396C6.33001 37.5778 5.56677 37.4663 4.84703 37.2115C4.12729 36.9566 3.46515 36.5634 2.89842 36.0543C2.3317 35.5452 1.87149 34.9302 1.54411 34.2444C1.21672 33.5586 1.02856 32.8154 0.990379 32.0573L0.875 29.7798C1.38741 30.7675 2.17545 31.5877 3.14484 32.1422C4.11422 32.6966 5.2239 32.962 6.34111 32.9064L6.92316 32.877C7.02328 32.8718 7.12018 32.8401 7.20376 32.785C7.28734 32.73 7.35455 32.6538 7.39841 32.5642Z" fill="#371A45"/>
</g>
<path d="M6.7988 38.2524C3.3484 38.2524 0.458419 35.5543 0.282946 32.0934L0.0082325 26.6883C-0.078647 24.9707 0.524917 23.2892 1.68615 22.0136C2.84738 20.7381 4.47116 19.973 6.20027 19.8867C6.53475 19.8709 6.86191 19.9873 7.11023 20.2104C7.35855 20.4336 7.50783 20.7453 7.52542 21.0775L8.32759 36.9276C8.34403 37.26 8.2271 37.5852 8.00243 37.8321C7.77776 38.0789 7.4637 38.2271 7.12915 38.2443C7.01789 38.2486 6.90777 38.2513 6.7988 38.2524ZM6.11889 21.3033C4.79459 21.4092 3.56389 22.0233 2.68776 23.0154C1.81163 24.0075 1.35897 25.2996 1.42575 26.6177L1.70047 32.0228C1.83782 34.767 4.15641 36.9006 6.90663 36.843L6.11889 21.3033Z" fill="#371A45"/>
<path d="M33.0027 54.7933C48.0391 54.7933 60.2285 42.6851 60.2285 27.7488C60.2285 12.8126 48.0391 0.704346 33.0027 0.704346C17.9663 0.704346 5.77686 12.8126 5.77686 27.7488C5.77686 42.6851 17.9663 54.7933 33.0027 54.7933Z" fill="white"/>
<path d="M33.0177 54.9199C32.8234 54.9199 32.6293 54.9179 32.434 54.9138C25.1293 54.7634 18.3206 51.7958 13.2627 46.5584C8.20492 41.3211 5.50209 34.4407 5.65455 27.1837C5.80702 19.9267 8.7935 13.1643 14.0676 8.14049C19.3418 3.1167 26.269 0.431528 33.5723 0.582978C48.6517 0.894066 60.6659 13.3331 60.3517 28.3124C60.1999 35.5684 57.2128 42.3318 51.9403 47.3556C46.8066 52.2467 40.1077 54.9199 33.0177 54.9199ZM32.9875 0.830621C25.9638 0.830621 19.3274 3.47862 14.2431 8.32367C9.01945 13.3011 6.0601 20.0014 5.91003 27.1898C5.75997 34.3783 8.43637 41.1946 13.4475 46.3835C18.4586 51.5723 25.2045 54.5116 32.4401 54.6597C39.6757 54.8077 46.5384 52.1498 51.7621 47.1724C56.9858 42.195 59.9451 35.4947 60.0952 28.3063C60.2453 21.1178 57.5689 14.3015 52.5577 9.11264C47.5466 3.92376 40.8021 0.984458 33.5651 0.835054C33.3724 0.833349 33.1795 0.830621 32.9875 0.830621Z" fill="#371A45"/>
<g opacity="0.35">
<path opacity="0.35" d="M60.0401 24.563C60.189 25.8068 60.2502 27.0594 60.2231 28.3117C59.9089 43.2443 47.4699 55.098 32.4373 54.7893C17.4046 54.4806 5.47104 42.121 5.78181 27.1885C5.7904 26.759 5.80963 26.3292 5.83916 25.9066C7.39885 39.1063 18.5567 49.4759 32.3129 49.759C46.9116 50.0592 59.0632 38.887 60.0401 24.563Z" fill="#3B3943"/>
<path opacity="0.35" d="M33.0079 54.9207C32.8163 54.9207 32.6268 54.919 32.4345 54.9149C17.3561 54.6018 5.34257 42.162 5.65437 27.1848C5.6633 26.7506 5.68253 26.317 5.71206 25.8968C5.71427 25.8654 5.7282 25.8359 5.75113 25.8141C5.77405 25.7924 5.80432 25.7799 5.83602 25.7791C5.86736 25.7798 5.89745 25.7914 5.9211 25.8118C5.94474 25.8322 5.96044 25.8603 5.96548 25.891C7.53204 39.1473 18.8595 49.3535 32.3139 49.6319C32.5049 49.636 32.6978 49.6377 32.8881 49.6377C47.1306 49.6377 58.9467 38.725 59.913 24.5538C59.9154 24.5226 59.9293 24.4933 59.9522 24.4717C59.9751 24.45 60.0052 24.4376 60.0368 24.4368C60.0683 24.436 60.0991 24.4469 60.123 24.4673C60.147 24.4877 60.1624 24.5163 60.1664 24.5474C60.3158 25.797 60.3773 27.0554 60.3505 28.3135C60.0394 43.1001 47.8273 54.9197 33.0079 54.9207ZM5.90608 27.2725C5.64235 42.074 17.5278 54.3524 32.4382 54.6632C47.3758 54.9674 59.7822 43.1478 60.0943 28.3094C60.1111 27.5126 60.0923 26.7165 60.039 25.9295C59.274 32.3822 56.2274 38.3086 51.3694 42.7385C46.1557 47.4931 39.3871 50.0279 32.3074 49.886C25.9463 49.7539 19.8304 47.4238 15.0119 43.2965C10.1933 39.1693 6.97342 33.503 5.90608 27.2725Z" fill="#371A45"/>
</g>
<path d="M60.121 29.0028C60.0908 34.2951 58.3354 39.1985 55.3527 43.247C53.1179 46.2829 43.9724 51.5649 32.716 51.602C22.2789 51.6362 12.8147 46.0557 10.6146 42.9956C7.67998 38.914 5.97881 33.9905 6.00869 28.6989C6.08835 14.6942 18.2334 8.95679 33.1778 9.0407C48.1222 9.12461 60.2007 14.9984 60.121 29.0028Z" fill="#371A45"/>
<path d="M32.6173 52.3061C21.8433 52.3061 12.341 46.6096 10.0375 43.4032C6.90786 39.0501 5.26953 33.9635 5.29872 28.6931C5.33787 21.8229 8.14166 16.5409 13.6318 12.9944C18.4204 9.9013 25.1777 8.29537 33.1808 8.33494C41.1818 8.37997 47.9219 10.0671 52.6751 13.2127C58.1244 16.8206 60.8677 22.1337 60.8286 29.0038C60.7987 34.2743 59.1027 39.3424 55.9236 43.6598C54.594 45.4656 51.442 47.5852 47.6973 49.1921C44.4172 50.5995 39.1558 52.2819 32.7172 52.303L32.6173 52.3061ZM32.8549 9.7437C25.2725 9.7437 18.8991 11.2739 14.4058 14.1764C9.34045 17.4486 6.75368 22.3356 6.71728 28.7023C6.68912 33.6746 8.2361 38.4756 11.1913 42.5853C13.2829 45.4949 22.4738 50.897 32.619 50.897H32.7134C43.9986 50.8594 52.7874 45.5372 54.7804 42.8305C57.782 38.7536 59.3836 33.9703 59.4121 28.998C59.5103 11.7538 41.0956 9.78839 33.1735 9.7437H32.8549Z" fill="#371A45"/>
<path d="M33.0182 55.4974C32.8197 55.4974 32.6215 55.4974 32.4227 55.4913C24.9642 55.3374 18.0095 52.306 12.8425 46.9582C7.6755 41.6103 4.91772 34.5829 5.07259 27.1741C5.22746 19.7653 8.27953 12.8552 13.6643 7.72364C19.049 2.59206 26.1194 -0.147695 33.5834 0.00614361C41.0473 0.159982 47.9966 3.19036 53.1622 8.53922C58.3278 13.8881 61.087 20.9145 60.9321 28.325C60.7773 35.7355 57.7262 42.6422 52.3418 47.7731C47.1003 52.7672 40.2582 55.4974 33.0182 55.4974ZM32.9948 1.40808C18.6269 1.40808 6.79093 12.8661 6.49149 27.2017C6.18793 41.7229 17.8337 53.782 32.4519 54.0835C39.532 54.2271 46.248 51.6276 51.3594 46.7569C56.4708 41.8863 59.3666 35.3299 59.5136 28.2957C59.6605 21.2614 57.0412 14.5914 52.1379 9.5141C47.2346 4.43675 40.6342 1.56022 33.5528 1.41388C33.3667 1.41013 33.1802 1.40808 32.9948 1.40808Z" fill="#371A45"/>
<g opacity="0.5">
<path opacity="0.5" d="M54.7637 27.6835C55.2528 25.0852 54.1127 22.6936 52.2174 22.3416C50.3221 21.9896 48.3892 23.8105 47.9001 26.4088C47.4111 29.007 48.5511 31.3986 50.4464 31.7506C52.3418 32.1026 54.2747 30.2817 54.7637 27.6835Z" fill="white"/>
</g>
<g opacity="0.5">
<path opacity="0.5" d="M48.8103 37.1111C49.1987 35.9608 48.7079 34.76 47.7141 34.4289C46.7203 34.0978 45.5998 34.7619 45.2115 35.9122C44.8231 37.0624 45.3139 38.2633 46.3077 38.5943C47.3015 38.9254 48.422 38.2613 48.8103 37.1111Z" fill="white"/>
</g>
<path d="M54.9333 15.9102C58.2229 19.064 60.1528 23.3803 60.1209 29.0038C60.091 34.2971 58.3325 39.2001 55.3536 43.2487C53.1181 46.2845 43.9715 51.5662 32.7155 51.6057C28.7411 51.6197 24.9088 50.8185 21.5635 49.6505C35.3991 49.3094 46.5401 42.8284 49.3112 39.062C53.0947 33.9239 55.3251 27.6994 55.3625 20.9834C55.3784 19.2827 55.2347 17.5843 54.9333 15.9102Z" fill="#220F2D"/>
<path d="M8.11487 17.4725C7.9833 17.4726 7.85431 17.4362 7.74235 17.3676C7.63038 17.299 7.53985 17.2008 7.4809 17.0839C7.42194 16.9671 7.39689 16.8363 7.40855 16.7061C7.42021 16.5759 7.46811 16.4515 7.5469 16.3469C12.1902 9.66052 21.2805 6.0182 33.1691 6.08062C44.8368 6.14646 53.8114 9.77581 58.44 16.3001L57.8644 16.7094L57.4129 17.2521C57.363 17.2112 57.3186 17.1639 57.281 17.1116C52.9241 10.9693 44.3578 7.55317 33.1608 7.48904C21.7499 7.42082 13.0662 10.8609 8.70241 17.1638C8.69142 17.1798 8.67941 17.1955 8.66807 17.2105L8.65262 17.2286C8.58603 17.3054 8.50348 17.367 8.41065 17.4091C8.31782 17.4512 8.21691 17.4728 8.11487 17.4725ZM8.08053 16.7401L8.11487 16.7685L8.08053 16.7401Z" fill="#371A45"/>
<g opacity="0.5">
<path opacity="0.5" d="M12.0375 37.0643C12.0375 37.0643 7.74956 23.2243 15.2764 17.7608C22.8032 12.2973 33.5874 12.3805 33.3312 13.0658C33.3312 13.0658 21.3764 15.8697 16.6517 25.2191C13.0083 32.4283 12.0375 37.0643 12.0375 37.0643Z" fill="white"/>
</g>
</g>
<defs>
<clipPath id="clip0_0_3">
<rect width="66" height="105" fill="white"/>
</clipPath>
</defs>
</svg>
