<svg width="79" height="105" viewBox="0 0 79 105" fill="none" xmlns="http://www.w3.org/2000/svg">
<g clip-path="url(#clip0_1_291)">
<g opacity="0.3">
<path opacity="0.3" d="M32.7826 105C50.6318 105 65.1014 102.765 65.1014 100.007C65.1014 97.2494 50.6318 95.0139 32.7826 95.0139C14.9335 95.0139 0.463867 97.2494 0.463867 100.007C0.463867 102.765 14.9335 105 32.7826 105Z" fill="#371A45"/>
</g>
<path d="M12.9242 45.8015C12.6075 43.013 9.43559 35.888 6.40308 32.5134C6.40308 32.5134 16.2676 37.2269 24.9377 37.2269" fill="#FF5555"/>
<g opacity="0.7">
<path opacity="0.7" d="M22.493 38.9713C15.6683 37.9294 9.98345 34.7952 9.66426 35.0654C9.34507 35.3356 12.7433 41.4257 13.3708 45.1685L12.9234 45.8021C12.6067 43.0122 9.4373 35.8886 6.40479 32.5151C6.5573 32.5878 16.3343 37.2268 24.9369 37.2268L22.493 38.9713Z" fill="white"/>
</g>
<g opacity="0.35">
<path opacity="0.35" d="M20.4362 40.4395L15.1232 44.2313C13.9248 41.8836 11.75 37.452 11.9327 36.8506C12.1153 36.2493 14.3377 39.1576 20.4362 40.4395Z" fill="#371A45"/>
</g>
<path d="M12.9234 46.4004C12.7764 46.4002 12.6346 46.346 12.5251 46.248C12.4155 46.1501 12.3458 46.0152 12.3293 45.8691C12.0348 43.2782 8.99941 36.2973 5.95745 32.9137C5.86494 32.8106 5.81099 32.6787 5.8048 32.5404C5.7986 32.4021 5.84054 32.2659 5.92347 32.155C6.0064 32.0441 6.1252 31.9654 6.25965 31.9322C6.39409 31.8991 6.53586 31.9135 6.66084 31.9731C6.75852 32.0196 16.5072 36.6281 24.9376 36.6281C25.0965 36.6281 25.2489 36.6913 25.3613 36.8036C25.4737 36.916 25.5368 37.0684 25.5368 37.2273C25.5368 37.3862 25.4737 37.5386 25.3613 37.651C25.2489 37.7633 25.0965 37.8265 24.9376 37.8265C18.597 37.8265 11.7392 35.3982 8.32398 34.0038C10.9781 37.8316 13.2495 43.3635 13.5189 45.7348C13.5279 45.8129 13.5213 45.892 13.4997 45.9676C13.478 46.0432 13.4416 46.1138 13.3927 46.1753C13.3437 46.2368 13.2831 46.2881 13.2143 46.3261C13.1455 46.3642 13.0698 46.3883 12.9917 46.3971C12.969 46.3996 12.9462 46.4007 12.9234 46.4004Z" fill="#371A45"/>
<path d="M51.0074 45.8015C51.324 43.013 54.496 35.888 57.5285 32.5134C57.5285 32.5134 47.664 37.2269 38.9939 37.2269" fill="#FF5555"/>
<g opacity="0.7">
<path opacity="0.7" d="M41.4389 38.9713C48.2632 37.9294 53.948 34.7952 54.2676 35.0654C54.5872 35.3356 51.1882 41.4257 50.5607 45.1685L51.0081 45.8021C51.3248 43.0122 54.4942 35.8886 57.5267 32.5151C57.3742 32.5878 47.5972 37.2268 38.9946 37.2268L41.4389 38.9713Z" fill="white"/>
</g>
<g opacity="0.35">
<path opacity="0.35" d="M43.4951 40.4395L48.8081 44.2313C50.0064 41.8836 52.1812 37.452 51.9986 36.8506C51.8159 36.2493 49.5957 39.1576 43.4951 40.4395Z" fill="#371A45"/>
</g>
<path d="M51.0082 46.4001C50.9853 46.4002 50.9625 46.3989 50.9399 46.3961C50.8618 46.3873 50.7861 46.3632 50.7173 46.3252C50.6485 46.2871 50.5879 46.2358 50.5389 46.1743C50.4899 46.1128 50.4536 46.0422 50.4319 45.9666C50.4102 45.891 50.4037 45.8119 50.4126 45.7338C50.6821 43.3622 52.9546 37.8302 55.6076 34.0028C52.1942 35.3972 45.3346 37.8255 38.9939 37.8255C38.835 37.8255 38.6826 37.7624 38.5703 37.65C38.4579 37.5376 38.3948 37.3852 38.3948 37.2263C38.3948 37.0674 38.4579 36.915 38.5703 36.8027C38.6826 36.6903 38.835 36.6272 38.9939 36.6272C47.4244 36.6272 57.1734 32.0186 57.2707 31.9722C57.3957 31.9125 57.5375 31.8981 57.6719 31.9312C57.8064 31.9644 57.9252 32.0431 58.0081 32.154C58.091 32.2649 58.133 32.4011 58.1268 32.5394C58.1206 32.6777 58.0666 32.8096 57.9741 32.9127C54.9322 36.296 51.8967 43.2768 51.6022 45.8685C51.5858 46.0146 51.5161 46.1495 51.4065 46.2476C51.297 46.3456 51.1552 46.3999 51.0082 46.4001Z" fill="#371A45"/>
<g opacity="0.6">
<path opacity="0.6" d="M77.7816 34.9248C77.128 36.4137 76.0386 37.4348 74.8958 38.1324C75.7477 36.7888 76.3171 35.2015 75.9304 33.5867C75.2404 30.715 70.556 29.573 67.2305 28.9143C67.7149 28.6659 69.2542 27.8772 69.4187 27.8053C71.3273 26.9748 79.6496 30.6624 77.7816 34.9248Z" fill="white"/>
</g>
<path d="M77.5491 35.105C77.5128 35.1864 77.4765 35.2674 77.4362 35.3458C77.406 35.4094 77.3766 35.4707 77.3436 35.5292C77.3185 35.5808 77.2916 35.6301 77.263 35.6788C77.2179 35.7601 77.1714 35.8389 77.1253 35.9159C77.0847 35.9787 77.0462 36.0423 77.004 36.1029C76.9314 36.2119 76.8588 36.3168 76.7814 36.4181C76.7404 36.4748 76.6972 36.5307 76.6543 36.5848C76.5955 36.6607 76.5338 36.7301 76.4728 36.8027C76.4118 36.8753 76.3529 36.9389 76.2912 37.0053C76.2295 37.0718 76.1659 37.136 76.1017 37.2C75.9455 37.3532 75.7846 37.4988 75.6194 37.6357C75.5715 37.6757 75.5235 37.7156 75.4742 37.7534C75.3765 37.8307 75.2781 37.9033 75.1775 37.9756C75.1285 38.0119 75.0773 38.0461 75.0261 38.0809C74.9371 38.1412 74.8445 38.2008 74.7552 38.2585L74.6651 38.314C74.4799 38.4263 74.2925 38.5319 74.1073 38.6263C74.063 38.6503 74.0169 38.6735 73.9733 38.6953C73.9512 38.707 73.9272 38.7186 73.9058 38.7284C73.9058 38.7284 73.9036 38.7284 73.9058 38.7284C73.8916 38.7338 73.8793 38.7415 73.8651 38.7465C73.5037 38.9221 73.1322 39.0761 72.7525 39.2077C72.7031 39.2259 72.6566 39.244 72.6072 39.2567C72.3211 39.3537 72.0498 39.4325 71.7993 39.4971C71.7172 39.5182 71.6351 39.5393 71.5563 39.557C71.4775 39.5748 71.3907 39.5966 71.3141 39.613C71.2488 39.6271 71.1856 39.6402 71.1253 39.6515C70.7985 39.7154 70.5479 39.7495 70.3958 39.7691C70.374 39.7691 70.3562 39.7724 70.3388 39.7749C70.2727 39.7826 70.236 39.7847 70.236 39.7847L58.3627 47.3346L43.7804 56.6054L41.7468 42.6466C41.7468 42.6466 46.6789 39.9739 52.3695 36.9091C54.6137 35.7006 56.9751 34.4304 59.1997 33.2415C60.2858 32.6604 61.3392 32.0961 62.3313 31.566C62.4403 31.5086 62.5492 31.4487 62.6581 31.3909C63.907 30.7249 65.0472 30.12 66.0175 29.6116C66.1351 29.5495 66.2477 29.4885 66.3577 29.43C67.0114 29.0872 67.5789 28.7916 68.0343 28.5585C68.0902 28.5309 68.1433 28.5011 68.1974 28.4753L68.2024 28.4721C68.2898 28.4287 68.3726 28.3864 68.4508 28.345C68.587 28.2767 68.7079 28.2179 68.814 28.1656C68.855 28.1453 68.8942 28.1249 68.9305 28.1079C69.0395 28.0545 69.1255 28.0149 69.188 27.9869C71.093 27.1554 79.4167 30.843 77.5491 35.105Z" fill="white"/>
<path d="M77.5493 35.105C77.513 35.1864 77.4767 35.2674 77.4364 35.3458C77.4063 35.4094 77.3769 35.4707 77.3438 35.5292C77.3188 35.5808 77.2919 35.6301 77.2632 35.6788C77.2182 35.7601 77.1717 35.8389 77.1256 35.9159C77.0849 35.9787 77.0464 36.0423 77.0043 36.1029C76.9317 36.2119 76.859 36.3168 76.7817 36.4181C76.7406 36.4748 76.6974 36.5307 76.6546 36.5848C76.5958 36.6607 76.534 36.7301 76.473 36.8027C76.412 36.8753 76.3532 36.9389 76.2915 37.0053C76.2297 37.0718 76.1662 37.136 76.1019 37.2C75.9458 37.3532 75.7849 37.4988 75.6197 37.6357C75.5717 37.6757 75.5238 37.7156 75.4744 37.7534C75.3767 37.8307 75.2783 37.9033 75.1777 37.9756C75.1287 38.0119 75.0775 38.0461 75.0263 38.0809C74.9373 38.1412 74.8447 38.2008 74.7554 38.2585L74.6654 38.314C74.4802 38.4263 74.2928 38.5319 74.1076 38.6263C74.0633 38.6503 74.0172 38.6735 73.9736 38.6953C73.9514 38.707 73.9275 38.7186 73.906 38.7284C73.8919 38.7338 73.8795 38.7415 73.8654 38.7465C73.5039 38.9221 73.1324 39.0761 72.7527 39.2077C72.7033 39.2259 72.6569 39.244 72.6075 39.2567C72.3213 39.3537 72.0501 39.4325 71.7995 39.4971C71.7174 39.5182 71.6354 39.5393 71.5566 39.557C71.4778 39.5748 71.391 39.5966 71.3144 39.613C71.249 39.6271 71.1858 39.6402 71.1255 39.6515C70.7987 39.7154 70.5482 39.7495 70.396 39.7691C70.3742 39.7691 70.3564 39.7724 70.339 39.7749C70.2729 39.7826 70.2362 39.7847 70.2362 39.7847L58.3629 47.3346L43.7806 56.6054L41.7471 42.6466C41.7471 42.6466 46.6791 39.9739 52.3698 36.9091C54.6139 35.7006 56.9754 34.4304 59.1999 33.2415C60.286 32.6604 61.3395 32.0961 62.3316 31.566C62.4405 31.5086 62.5494 31.4487 62.6584 31.3909C63.9072 30.7249 65.0474 30.12 66.0177 29.6116C66.1354 29.5495 66.248 29.4885 66.358 29.43C67.0116 29.0872 67.5792 28.7916 68.0346 28.5585C68.0905 28.5309 68.1435 28.5011 68.1976 28.4753L68.2027 28.4721C68.2901 28.4287 68.3729 28.3864 68.4511 28.345C68.5872 28.2767 68.7082 28.2179 68.8142 28.1656C68.8552 28.1453 68.8945 28.1249 68.9308 28.1079C69.0397 28.0545 69.1258 28.0149 69.1882 27.9869C71.0932 27.1554 79.4169 30.843 77.5493 35.105Z" fill="#FF5555"/>
<path d="M77.5493 35.1051C77.513 35.1864 77.4767 35.2674 77.4364 35.3458C77.4062 35.4094 77.3768 35.4708 77.3438 35.5292C77.3187 35.5808 77.2918 35.6302 77.2632 35.6788C77.2181 35.7602 77.1717 35.839 77.1255 35.916C77.0849 35.9788 77.0464 36.0423 77.0042 36.103C76.9316 36.2119 76.859 36.3169 76.7816 36.4182C76.7406 36.4748 76.6974 36.5308 76.6545 36.5849C76.5957 36.6608 76.534 36.7301 76.473 36.8027C76.412 36.8754 76.3531 36.9389 76.2914 37.0054C76.2297 37.0718 76.1661 37.1361 76.1019 37.2C75.9457 37.3532 75.7848 37.4989 75.6196 37.6358C75.5717 37.6757 75.5238 37.7157 75.4744 37.7534C75.3767 37.8308 75.2783 37.9034 75.1777 37.9757C75.1287 38.012 75.0775 38.0461 75.0263 38.081C74.9369 38.1431 74.8447 38.2008 74.7554 38.2585L74.6653 38.3141C74.4801 38.4263 74.2927 38.532 74.1075 38.6264C74.0632 38.6504 74.0171 38.6736 73.9735 38.6954C73.9514 38.707 73.9274 38.7186 73.906 38.7284C73.8926 38.7358 73.8788 38.7425 73.8646 38.7484C73.5032 38.924 73.1316 39.078 72.752 39.2096C72.7026 39.2277 72.6561 39.2459 72.6067 39.2586C72.3206 39.3556 72.0493 39.4344 71.7987 39.499C71.7141 39.5215 71.6328 39.5408 71.5558 39.5589C71.4716 39.5796 71.3902 39.5985 71.3136 39.6148C71.2482 39.629 71.1851 39.6421 71.1248 39.6533C70.798 39.7172 70.5474 39.7514 70.3952 39.771C70.3735 39.771 70.3557 39.7742 70.3382 39.7768C70.2721 39.7844 70.2355 39.7866 70.2355 39.7866L58.3629 47.3347C57.4303 45.8574 56.9325 44.3682 56.7288 42.9408C55.9749 37.6753 59.1981 33.2408 59.1981 33.2408C60.2842 32.6598 61.3376 32.0955 62.3297 31.5653C62.4387 31.5079 62.5476 31.448 62.6565 31.3903C63.9053 30.7243 65.0456 30.1193 66.0159 29.6109C66.1335 29.5488 66.2461 29.4878 66.3561 29.4293C67.0098 29.0865 67.5773 28.791 68.0327 28.5578C68.0886 28.5302 68.1416 28.5004 68.1957 28.4747L68.2008 28.4714C68.2882 28.4281 68.371 28.3857 68.4492 28.3443C68.5854 28.276 68.7063 28.2172 68.8123 28.1649C68.8534 28.1446 68.8926 28.1242 68.9289 28.1072C69.0378 28.0538 69.1239 28.0142 69.1864 27.9863C71.0932 27.1554 79.4169 30.843 77.5493 35.1051Z" fill="white"/>
<path d="M43.7806 57.2039C43.6368 57.2038 43.4978 57.152 43.3889 57.0579C43.2801 56.9639 43.2088 56.8338 43.188 56.6915L41.1544 42.7327C41.1368 42.6114 41.1568 42.4875 41.2118 42.378C41.2668 42.2684 41.3542 42.1784 41.462 42.1201C42.5053 41.5547 67.0367 28.2677 68.9467 27.4365C70.5467 26.74 74.6534 28.3316 76.7929 30.477C78.333 32.021 78.796 33.7499 78.0969 35.3455C76.2668 39.5215 71.3874 40.2616 70.4349 40.3672L44.102 57.1102C44.0059 57.1713 43.8945 57.2038 43.7806 57.2039ZM42.4007 42.9738L44.2403 55.6035L69.9138 39.28C69.9967 39.2273 70.0914 39.1959 70.1894 39.1885C70.2395 39.1845 75.3034 38.7393 77.0014 34.8647C77.5032 33.7194 77.1466 32.5279 75.9465 31.3227C73.845 29.2165 70.2849 28.1609 69.4257 28.5346C67.6859 29.2914 45.5414 41.2733 42.4003 42.9738H42.4007Z" fill="#371A45"/>
<path d="M68.9167 32.7521C69.7751 32.8247 70.5994 33.0462 71.4001 33.3629C71.8064 33.5241 72.198 33.7202 72.5705 33.949C72.95 34.1821 73.3218 34.4527 73.6497 34.8329C73.8298 35.0334 73.9729 35.2643 74.0724 35.5148C74.1885 35.8036 74.2234 36.1187 74.1734 36.4259C74.1552 36.5019 74.1353 36.5773 74.1138 36.6521C74.093 36.7156 74.0687 36.7779 74.0412 36.8388C74.0173 36.8992 73.9899 36.9581 73.9591 37.0153C73.9304 37.0753 73.8978 37.1335 73.8614 37.1892C73.716 37.4294 73.5239 37.638 73.2964 37.8025C73.0654 37.9657 72.8028 38.0785 72.5255 38.1337C72.2705 38.1834 72.0098 38.1962 71.7513 38.1719C71.5102 38.1503 71.2718 38.1052 71.0395 38.0371C70.9259 38.0041 70.814 37.9681 70.7033 37.9282C70.5925 37.8882 70.4919 37.8468 70.3608 37.7829L71.143 37.3061C71.143 37.4292 71.1376 37.5139 71.1299 37.6148C71.1223 37.7158 71.1125 37.8073 71.1005 37.9028C71.0765 38.0936 71.0423 38.2831 70.9981 38.4703C70.911 38.8538 70.7768 39.2251 70.5987 39.5757C70.4107 39.9412 70.1612 40.2716 69.8612 40.5525C69.5552 40.8375 69.1968 41.0603 68.8059 41.2087C68.4213 41.3649 68.0164 41.4197 67.6272 41.4426C67.2379 41.4655 66.8551 41.4164 66.4869 41.346C66.3054 41.2995 66.1238 41.2556 65.9517 41.1957C65.7789 41.1363 65.6092 41.0683 65.4433 40.9919C65.1125 40.8416 64.7987 40.6562 64.5075 40.4389C64.4918 40.4272 64.4803 40.4108 64.4747 40.392C64.4691 40.3733 64.4698 40.3532 64.4765 40.3348C64.4832 40.3165 64.4957 40.3008 64.5121 40.2901C64.5285 40.2794 64.5479 40.2743 64.5674 40.2755C65.2842 40.3252 65.9557 40.4117 66.6035 40.4276C67.2455 40.4338 67.8676 40.3964 68.3828 40.1633C68.8981 39.9385 69.3052 39.5521 69.5903 39.0376C69.7346 38.7734 69.8471 38.493 69.9254 38.2024C69.9662 38.0532 69.9992 37.9021 70.0242 37.7495C70.0369 37.6733 70.0474 37.5967 70.0551 37.5208C70.0627 37.4449 70.0696 37.3603 70.0714 37.3098V37.2876C70.0737 37.2176 70.0898 37.1487 70.1187 37.0849C70.1476 37.0211 70.1889 36.9636 70.24 36.9157C70.2912 36.8678 70.3513 36.8305 70.4169 36.8058C70.4824 36.7811 70.5522 36.7697 70.6223 36.772C70.7027 36.775 70.7815 36.7959 70.8529 36.833C70.9077 36.862 71.0021 36.9056 71.0813 36.9361C71.1604 36.9666 71.2494 36.9989 71.3355 37.0244C71.5012 37.0751 71.6714 37.1096 71.8439 37.1271C72.1765 37.1584 72.4728 37.0999 72.6685 36.9416C72.7747 36.8579 72.8622 36.7528 72.9253 36.6333C72.9448 36.6015 72.9615 36.5681 72.9754 36.5334C72.9926 36.4981 73.0076 36.4617 73.02 36.4245C73.0345 36.3901 73.0467 36.3548 73.0564 36.3188C73.0601 36.2934 73.0657 36.2682 73.0731 36.2436C73.0801 36.1382 73.0613 36.0326 73.0182 35.936C72.9586 35.8026 72.8787 35.6791 72.7815 35.57C72.6673 35.4377 72.5439 35.3137 72.4122 35.1989C72.2709 35.0809 72.1264 34.961 71.9695 34.8477C71.6579 34.6219 71.3246 34.4062 70.9818 34.1941C70.2965 33.7711 69.579 33.3662 68.8633 32.9162H68.8607C68.8436 32.9056 68.8306 32.8895 68.8237 32.8706C68.8169 32.8516 68.8167 32.8309 68.8231 32.8118C68.8296 32.7927 68.8423 32.7763 68.8592 32.7653C68.8761 32.7544 68.8962 32.7495 68.9163 32.7514L68.9167 32.7521Z" fill="#371A45"/>
<path d="M71.6059 31.3548C71.7243 31.8268 71.8238 32.2695 71.94 32.6875C71.9952 32.8966 72.0653 33.0967 72.1139 33.2946C72.1626 33.4925 72.2171 33.6821 72.2272 33.8909L72.2298 33.9486C72.2354 34.0671 72.2012 34.1841 72.1327 34.281C72.0642 34.3778 71.9653 34.449 71.8517 34.4832C71.7381 34.5174 71.6163 34.5126 71.5057 34.4696C71.3951 34.4267 71.3021 34.348 71.2413 34.246C71.1117 34.0193 71.0283 33.7691 70.9959 33.51C70.963 33.2568 70.963 33.0005 70.9959 32.7474C71.0236 32.4982 71.0747 32.2523 71.1487 32.0128C71.2222 31.7717 71.3259 31.541 71.4574 31.3261C71.4687 31.3085 71.4865 31.2961 71.5068 31.2915C71.5272 31.2869 71.5486 31.2905 71.5663 31.3014C71.5753 31.3066 71.5831 31.3135 71.5893 31.3217C71.5955 31.3299 71.6001 31.3393 71.6027 31.3493L71.6059 31.3548Z" fill="#371A45"/>
<path d="M58.3624 47.7832C58.2864 47.7833 58.2117 47.7642 58.1452 47.7275C58.0787 47.6909 58.0226 47.6379 57.9822 47.5737C56.1251 44.6323 55.685 41.1702 56.7112 37.5661C57.4799 34.8626 58.781 33.0509 58.8377 32.975C58.9096 32.8839 59.0139 32.8241 59.1289 32.8082C59.2439 32.7923 59.3606 32.8215 59.4545 32.8897C59.5484 32.958 59.6122 33.0599 59.6326 33.1742C59.6531 33.2884 59.6284 33.4062 59.564 33.5027C59.5135 33.572 54.589 40.5137 58.7422 47.0943C58.7853 47.1623 58.8094 47.2406 58.8119 47.321C58.8145 47.4014 58.7953 47.4811 58.7566 47.5516C58.7178 47.6221 58.6608 47.6809 58.5915 47.7218C58.5222 47.7628 58.4432 47.7843 58.3627 47.7843L58.3624 47.7832Z" fill="#371A45"/>
<path d="M45.7678 42.826C38.5459 42.8126 31.3769 41.0808 31.3769 41.0808H31.0864C31.0864 41.0808 23.9095 42.7381 16.6875 42.7C16.6875 42.7 12.9952 66.1525 2.34888 84.5746C2.34888 84.5746 12.2722 87.0461 22.8658 83.3911C22.8658 83.3911 26.6061 85.9051 31.1264 85.9214C35.6466 85.9378 39.3989 83.4521 39.3989 83.4521C49.9758 87.183 59.9108 84.7827 59.9108 84.7827C49.3512 66.2818 45.7678 42.826 45.7678 42.826Z" fill="white"/>
<path d="M59.911 84.779C59.911 84.779 58.8449 85.0361 57.0423 85.2511C53.3383 85.6934 46.5147 85.957 39.4006 83.4485C39.4006 83.4485 35.6491 85.9363 31.1292 85.9203C26.6093 85.9044 22.8686 83.3893 22.8686 83.3893C15.7549 85.843 8.94325 85.5358 5.23676 85.0681C3.4211 84.8397 2.35059 84.5728 2.35059 84.5728C12.9973 66.1514 16.6892 42.6986 16.6892 42.6986C23.9108 42.737 31.0889 41.0793 31.0889 41.0793H31.3794C31.3794 41.0793 38.548 42.8111 45.771 42.8224C45.7685 42.826 49.3511 66.2818 59.911 84.779Z" fill="#FF5555"/>
<g opacity="0.7">
<path opacity="0.7" d="M59.9112 84.779C59.9112 84.779 59.5753 84.8607 58.9595 84.97C49.4494 69.6924 45.6064 51.4893 45.6064 51.4893C38.4636 51.478 31.3738 50.0146 31.3738 50.0146H31.0876C31.0876 50.0146 23.9899 51.4152 16.8489 51.3829C16.8489 51.3829 13.0538 69.5842 3.47326 84.8037C2.74699 84.6752 2.34937 84.5757 2.34937 84.5757C12.996 66.1544 16.688 42.7015 16.688 42.7015C23.9096 42.74 31.0876 41.0823 31.0876 41.0823H31.3781C31.3781 41.0823 38.5467 42.8141 45.7698 42.8253C45.7687 42.826 49.3514 66.2818 59.9112 84.779Z" fill="white"/>
</g>
<g opacity="0.35">
<path opacity="0.35" d="M57.0396 85.2514C53.3357 85.6937 46.5121 85.9573 39.398 83.4488C39.398 83.4488 35.6464 85.9366 31.1265 85.9207C26.6066 85.9047 22.866 83.3896 22.866 83.3896C15.7523 85.8433 8.94062 85.5361 5.23413 85.0684C14.7667 70.7279 18.0708 52.5681 18.0708 52.5681C24.5963 52.6 31.0797 51.3105 31.0797 51.3105H31.3437C31.3437 51.3105 37.8205 52.6643 44.346 52.6774C44.3471 52.6781 47.571 70.8438 57.0396 85.2514Z" fill="#371A45"/>
</g>
<path d="M31.1717 86.5187H31.1252C27.1042 86.5046 23.7286 84.625 22.7884 84.0494C12.255 87.586 2.61316 85.2568 2.20427 85.1548L1.43262 84.9627L1.83206 84.2746C12.2979 66.1644 16.061 42.8412 16.0977 42.6059L16.178 42.0975L16.6925 42.1C23.754 42.1309 30.8823 40.5128 30.9534 40.4961L31.021 40.4805H31.4506L31.5188 40.4972C31.5896 40.5142 38.7063 42.2126 45.7703 42.2257H46.2838L46.3611 42.7341C46.3974 42.9676 50.0513 66.2963 60.4332 84.4812L60.8279 85.1729L60.0537 85.36C59.6445 85.4591 49.9924 87.7203 39.4754 84.1072C38.5338 84.6762 35.1719 86.5187 31.1717 86.5187ZM22.9533 82.7265L23.2009 82.8928C23.2372 82.9168 26.854 85.3062 31.1296 85.3215H31.1709C35.4283 85.3215 39.0335 82.9735 39.0694 82.9495L39.3178 82.7857L39.5989 82.8845C48.2051 85.9203 56.4576 84.8131 58.9851 84.3555C49.6402 67.5901 45.848 46.8963 45.2587 43.4207C38.6006 43.3358 32.053 41.8531 31.3064 41.6777H31.1524C30.4098 41.8433 23.8535 43.2599 17.194 43.2969C16.5868 46.7761 12.6988 67.4583 3.27733 84.1562C5.80255 84.6304 14.0598 85.7957 22.6715 82.8246L22.9533 82.7265Z" fill="#371A45"/>
<g opacity="0.35">
<path opacity="0.35" d="M73.904 38.7284C73.904 38.7284 73.9018 38.7284 73.904 38.7284C73.8898 38.7339 73.8775 38.7415 73.8633 38.7466C73.5019 38.9222 73.1303 39.0762 72.7507 39.2078C72.7013 39.2259 72.6548 39.2441 72.6054 39.2568C72.3193 39.3537 72.048 39.4325 71.7974 39.4972C71.7128 39.5197 71.6315 39.5389 71.5545 39.5571C71.4703 39.5778 71.3889 39.5967 71.3123 39.613C71.2469 39.6272 71.1838 39.6403 71.1235 39.6515C70.7967 39.7154 70.5461 39.7496 70.3939 39.7692C70.3722 39.7692 70.3544 39.7724 70.3369 39.775C70.2708 39.7826 70.2342 39.7848 70.2342 39.7848L58.3627 47.3347L43.7804 56.6054L42.8987 50.5516L46.5405 47.3347C49.7292 45.519 52.9317 46.0971 55.8294 45.0331C56.4707 44.7978 57.059 44.5709 57.4999 44.3795C60.8715 42.9197 63.2624 41.3506 63.2624 41.3506C61.641 40.4588 63.2827 38.5618 63.2827 38.5618C68.2246 39.3697 68.8978 35.7689 69.5874 35.567C70.277 35.3651 73.5786 36.5148 73.5786 36.5148C74.3376 37.0355 74.2795 37.8754 73.904 38.7284Z" fill="#371A45"/>
</g>
<path d="M52.8537 96.6185C52.8439 96.7118 52.8312 96.8033 52.8134 96.8934C52.3293 99.6289 48.9703 100.605 42.9242 99.8522C40.1858 99.5112 36.4005 99.1078 35.4019 97.0285C33.4094 92.8783 35.4437 84.4797 35.2073 79.0992V79.0898C33.5684 79.2631 31.9159 79.2631 30.277 79.0898C30.277 79.133 30.2737 79.178 30.2723 79.2216C30.0697 84.6068 32.0589 92.9088 30.0809 97.0285C29.0823 99.1078 25.2988 99.5112 22.5601 99.8522C16.506 100.605 13.147 99.6271 12.6677 96.884C12.6517 96.7971 12.6388 96.7086 12.6292 96.6185C12.2802 93.2777 17.1683 91.7253 17.1683 91.7253C17.1683 91.7253 16.1022 84.6326 15.3995 78.2342C13.6565 62.3388 19.8504 43.2021 19.8504 43.2021H45.6328C45.6328 43.2021 51.83 62.3392 50.0837 78.2342C49.381 84.6326 48.3167 91.7253 48.3167 91.7253C48.3167 91.7253 53.2026 93.277 52.8537 96.6185Z" fill="#FF5555"/>
<path d="M16.4224 86.4624C16.8374 89.5215 17.1686 91.7253 17.1686 91.7253C17.1686 91.7253 12.2801 93.277 12.6294 96.6185C12.6391 96.7086 12.652 96.7971 12.6679 96.884C13.1473 99.6271 16.5062 100.605 22.5604 99.8522C25.2991 99.5112 29.0826 99.1078 30.0812 97.0285C31.3478 94.3903 30.989 90.0375 30.6179 85.8335C23.7464 88.2719 18.8081 87.294 16.4224 86.4624Z" fill="white"/>
<path d="M48.3161 91.7252C48.3161 91.7252 48.6825 89.2831 49.1273 85.9728C46.9278 86.808 41.9518 88.0002 34.8885 85.5767C34.5112 89.8594 34.11 94.3372 35.402 97.0284C36.4006 99.1077 40.1859 99.5111 42.9243 99.8521C48.9704 100.605 52.3294 99.6288 52.8135 96.8933C52.8313 96.8032 52.844 96.7117 52.8538 96.6184C53.2027 93.2769 48.3161 91.7252 48.3161 91.7252Z" fill="white"/>
<g opacity="0.35">
<path opacity="0.35" d="M24 76.9999C24 76.9999 28.5515 77.7319 32.0663 77.7319C35.581 77.7319 41.2074 76.9999 41.2074 76.9999C41.2074 76.9999 37.8302 79.5883 32.4443 79.4768C26.925 79.3624 24 76.9999 24 76.9999Z" fill="#371A45"/>
</g>
<g opacity="0.35">
<path opacity="0.35" fill-rule="evenodd" clip-rule="evenodd" d="M22.8262 99.8193C25.5382 99.4838 29.1143 99.0414 30.081 97.0286C31.3309 94.4246 30.9967 90.1515 30.6324 86L27.9467 86.5C30.0164 89.7961 29.5815 92.5501 27.8539 95.3066C26.36 97.6895 17.6238 98.7622 12.6677 96.8841C13.1471 99.6272 16.506 100.605 22.5602 99.8523C22.6478 99.8414 22.7365 99.8304 22.8262 99.8193Z" fill="#371A45"/>
</g>
<g opacity="0.35">
<path opacity="0.35" fill-rule="evenodd" clip-rule="evenodd" d="M42.9243 99.8522C48.9705 100.605 52.3295 99.6289 52.8135 96.8934C47.3655 98.2878 39.2102 97.3887 37.8398 95.2005C36.196 92.5794 36.0977 89.8993 37.8398 86.711L34.8952 85.5001C34.8913 85.5444 34.8874 85.5886 34.8835 85.6329C34.5077 89.8986 34.1156 94.349 35.4021 97.0285C36.3686 99.041 39.9456 99.4836 42.6573 99.8191C42.7473 99.8302 42.8364 99.8412 42.9243 99.8522Z" fill="#371A45"/>
</g>
<path fill-rule="evenodd" clip-rule="evenodd" d="M20.0412 43.2639L19.9376 43.7267C19.5257 45.5667 19.1139 47.4062 18.7256 49.2469L18.7214 49.2659C18.6139 49.7581 18.5064 50.2497 18.4107 50.7434L18.0992 52.2398C18.0305 52.5959 17.9602 52.9514 17.8898 53.307C17.7624 53.9505 17.6351 54.594 17.5181 55.24L17.2509 56.7434L17.1162 57.4951L16.9989 58.2493C16.9587 58.5044 16.9173 58.7593 16.8759 59.0142C16.7542 59.7638 16.6325 60.5133 16.5417 61.2669C16.5158 61.4631 16.4895 61.6592 16.4632 61.8552C16.3543 62.6673 16.2454 63.4792 16.1687 64.2944L16.0082 65.8108C15.9716 66.1379 15.9503 66.4661 15.9289 66.7944C15.9173 66.973 15.9058 67.1517 15.8917 67.3301L15.7889 68.8502C15.7713 69.0589 15.7662 69.2676 15.7611 69.4752L15.7577 69.611L15.7377 70.3736L15.6974 71.8951C15.6887 72.0797 15.6926 72.2643 15.6966 72.4481C15.698 72.5174 15.6995 72.5865 15.7003 72.6555L15.7181 73.4152L15.7544 74.9349C15.7544 75.1309 15.7704 75.3251 15.7864 75.5193C15.7911 75.577 15.7958 75.6347 15.8002 75.6924L15.8597 76.4488L15.9788 77.9616C16.0084 78.3096 16.049 78.6597 16.0896 79.0097C16.1078 79.1672 16.1261 79.3247 16.1433 79.482C16.4351 81.9894 16.7562 84.4964 17.0996 87C17.3119 88.5476 17.5327 90.0938 17.7604 91.6378L17.833 92.1364L17.3486 92.2973C17.1626 92.359 16.9433 92.4447 16.7425 92.5301C16.5417 92.6154 16.3358 92.7116 16.1372 92.8104C15.7429 93.0073 15.364 93.2334 15.0035 93.4869C14.2954 93.9866 13.6846 94.6126 13.3973 95.3327C13.2524 95.6874 13.1913 96.0708 13.219 96.453C13.2398 96.8405 13.3416 97.2194 13.5179 97.5653C13.8665 98.2334 14.5495 98.7098 15.3535 98.9935C16.1575 99.2771 17.0512 99.4136 17.9525 99.4695C18.8665 99.5175 19.7826 99.5063 20.6952 99.4361C21.5428 99.3798 22.3911 99.2729 23.2502 99.1646L23.4677 99.1372C24.393 99.0178 25.3077 98.8831 26.1912 98.6779C27.0747 98.4727 27.9317 98.1938 28.6209 97.7479C28.9637 97.526 29.2506 97.2591 29.4398 96.9526C29.4644 96.9151 29.4867 96.876 29.5066 96.8357C29.5309 96.7937 29.5522 96.75 29.5705 96.705L29.698 96.4127C29.7125 96.372 29.7273 96.3314 29.7421 96.2907C29.801 96.1289 29.86 95.967 29.9053 95.7972C29.9507 95.6556 29.9849 95.5088 30.0191 95.3618C30.035 95.2935 30.0509 95.2252 30.068 95.1573C30.0802 95.0898 30.0931 95.0226 30.1061 94.9554C30.1354 94.804 30.1647 94.6526 30.1846 94.4971C30.255 94.0541 30.2935 93.6006 30.3247 93.1459C30.3781 92.2341 30.3737 91.3099 30.3403 90.3829C30.2919 89.1457 30.107 87.7472 30 86.5L31.2142 86.1719C31.3237 87.4416 31.4825 89.0478 31.5325 90.3357C31.5666 91.2892 31.5717 92.2497 31.5151 93.2171C31.4809 93.7012 31.4424 94.1867 31.3636 94.6733C31.3411 94.8491 31.3071 95.025 31.2732 95.2008C31.2601 95.2683 31.2471 95.3357 31.2347 95.4032C31.2202 95.463 31.2063 95.5229 31.1923 95.5828C31.1496 95.7658 31.107 95.9485 31.0495 96.1294C30.994 96.3371 30.919 96.5422 30.8442 96.7468L30.8062 96.851L30.6515 97.2058C30.6248 97.2695 30.5944 97.3315 30.5604 97.3917C30.5274 97.4567 30.491 97.52 30.4515 97.5812C30.1443 98.0769 29.7154 98.4575 29.2713 98.7462C28.3718 99.3221 27.4066 99.6126 26.4592 99.8399C25.5078 100.062 24.5571 100.199 23.6166 100.321L23.3884 100.35C22.5284 100.458 21.6568 100.568 20.7754 100.626C19.8107 100.701 18.8421 100.712 17.8758 100.661C16.9019 100.598 15.9124 100.462 14.9406 100.116C14.4391 99.9418 13.9668 99.6926 13.54 99.3769C13.0894 99.0434 12.7184 98.6141 12.4539 98.1198C12.1988 97.6253 12.0504 97.0828 12.0181 96.5274C11.9792 95.967 12.0688 95.4051 12.28 94.8846C12.4861 94.3834 12.7795 93.9227 13.1464 93.524C13.4934 93.1428 13.8821 92.8017 14.3052 92.5072C14.7147 92.2189 15.1452 91.9619 15.5932 91.7381C15.8152 91.6262 16.0403 91.5219 16.2686 91.425C16.3462 91.3923 16.4222 91.3608 16.4987 91.3301C16.2143 89.3875 15.9413 87.4448 15.6826 85.5C15.4221 83.5416 15.176 81.5812 14.9472 79.6167C14.9288 79.4462 14.9091 79.2763 14.8894 79.1064C14.8501 78.7671 14.8109 78.4279 14.7816 78.0843L14.6592 76.5355L14.5982 75.761C14.5937 75.699 14.5886 75.637 14.5836 75.575C14.5677 75.3789 14.5517 75.1829 14.5517 74.9864L14.5154 73.4362L14.4969 72.6609L14.4931 72.5232C14.487 72.3108 14.481 72.0983 14.4896 71.886L14.5216 70.338L14.5379 69.5634C14.539 69.515 14.5399 69.4666 14.5409 69.4182C14.5449 69.2086 14.549 68.9989 14.5655 68.7903L14.661 67.2459C14.6745 67.055 14.6849 66.8637 14.6953 66.6723C14.7128 66.3485 14.7304 66.0246 14.7631 65.7022L14.9083 64.1633L14.9809 63.3934C15.0031 63.1367 15.0303 62.8803 15.0652 62.6254L15.2653 61.093C15.5296 59.0496 15.8801 57.0197 16.282 55.0011C16.3431 54.6742 16.4152 54.3495 16.4872 54.0249C16.5267 53.8472 16.5661 53.6696 16.6038 53.4915C16.6405 53.3275 16.676 53.1631 16.7116 52.9987C16.7848 52.6604 16.858 52.3219 16.9411 51.9856C16.9808 51.8251 17.0203 51.6644 17.0598 51.5038C17.2657 50.6656 17.4716 49.8277 17.7117 48.9982C18.2666 47.0173 18.8817 45.0545 19.6548 43.1397C19.6738 43.0934 19.7095 43.0559 19.7548 43.0346C19.8001 43.0133 19.8517 43.0098 19.8995 43.0247C19.9473 43.0396 19.9878 43.0719 20.0129 43.1152C20.0381 43.1585 20.0461 43.2096 20.0354 43.2585L20.0412 43.2639ZM34.2422 86.0641C34.1181 87.478 33.9991 88.8999 33.9444 90.3357C33.9103 91.2892 33.9052 92.2497 33.9619 93.2171C33.996 93.7012 34.0359 94.1867 34.1133 94.6733C34.1359 94.8491 34.1698 95.025 34.2038 95.2009C34.2168 95.2683 34.2298 95.3357 34.2422 95.4032C34.2582 95.4683 34.2734 95.5337 34.2887 95.5991C34.33 95.7759 34.3715 95.9531 34.4274 96.1294C34.483 96.3371 34.5579 96.5422 34.6327 96.7469L34.6707 96.851L34.8254 97.2058C34.8522 97.2695 34.8828 97.3315 34.9169 97.3917C34.9498 97.4568 34.9861 97.52 35.0258 97.5812C35.3345 98.0769 35.7619 98.4557 36.206 98.7462C37.1055 99.3221 38.0707 99.6126 39.0181 99.8399C39.9695 100.062 40.9202 100.199 41.8611 100.321L42.0874 100.35C42.9477 100.458 43.8199 100.568 44.7018 100.626C45.6666 100.701 46.6352 100.712 47.6015 100.661C48.5757 100.6 49.5649 100.463 50.5366 100.116C51.0382 99.9418 51.5104 99.6926 51.9373 99.3769C52.388 99.0435 52.759 98.6141 53.0234 98.1198C53.2785 97.6253 53.4269 97.0828 53.4591 96.5274C53.4981 95.967 53.4085 95.4051 53.1973 94.8846C52.9912 94.3834 52.6978 93.9227 52.3309 93.524C51.9839 93.1429 51.5954 92.8018 51.1725 92.5072C50.7629 92.2189 50.3322 91.9619 49.8841 91.7381C49.6626 91.6262 49.4414 91.5231 49.209 91.425C49.1317 91.3924 49.0559 91.361 48.9795 91.3304C49.2445 89.5358 49.4973 87.739 49.7378 85.94C49.528 86.692 48.7779 86.7312 48.4291 86.6567C48.2034 88.3189 47.9682 89.9793 47.7235 91.6378L47.6508 92.1364L48.1353 92.2973C48.3212 92.359 48.5354 92.4429 48.7413 92.5301C48.9472 92.6172 49.1484 92.7105 49.3467 92.8104C49.7409 93.0073 50.1199 93.2334 50.4804 93.4869C51.1885 93.9866 51.7993 94.6123 52.0865 95.3327C52.2315 95.6874 52.2925 96.0708 52.2648 96.453C52.244 96.8405 52.1422 97.2194 51.9659 97.5653C51.6173 98.2334 50.9339 98.7051 50.1303 98.9935C49.3267 99.2818 48.4327 99.4136 47.5314 99.4695C46.6174 99.5175 45.7012 99.5063 44.7886 99.4361C43.9417 99.38 43.0965 99.2734 42.2397 99.1654L42.0161 99.1372C41.0898 99.0178 40.17 98.8841 39.2926 98.6779C38.4153 98.4716 37.5529 98.1938 36.8629 97.7479C36.5205 97.526 36.2332 97.2591 36.0441 96.9526C36.0194 96.9151 35.9971 96.876 35.9772 96.8357C35.9529 96.7937 35.9317 96.75 35.9137 96.705L35.7859 96.4127C35.7704 96.3694 35.7547 96.3262 35.739 96.283C35.6811 96.1237 35.6232 95.9643 35.5789 95.7972C35.5309 95.6484 35.495 95.4938 35.459 95.3393C35.4449 95.2785 35.4307 95.2177 35.4158 95.1573C35.4038 95.0906 35.391 95.0242 35.3782 94.9578C35.3488 94.8055 35.3194 94.6532 35.2996 94.4971C35.2288 94.0538 35.1914 93.6006 35.1595 93.1459C35.1072 92.2348 35.1101 91.3099 35.1435 90.3829C35.1944 89.0676 35.3848 87.3266 35.5 86L34.2422 86.0641Z" fill="#371A45"/>
<path d="M49.5355 77.6573C49.4523 78.5822 49.3325 79.5219 49.2261 80.4534C48.9752 82.5239 48.7095 84.5917 48.4291 86.6567C48.7779 86.7312 49.528 86.692 49.7378 85.94C49.9758 84.1595 50.2018 82.3769 50.4157 80.5921C50.5229 79.652 50.642 78.7223 50.7277 77.7716C50.7676 77.2967 50.8235 76.8224 50.85 76.3471L50.9346 74.9207C51.0123 73.019 51.0011 71.1169 50.9216 69.2195C50.8969 68.7456 50.882 68.2696 50.8489 67.7975L50.7513 66.3773C50.6692 65.4331 50.586 64.489 50.4836 63.5449C50.2759 61.6602 50.0428 59.7785 49.7334 57.909C49.4327 56.0342 49.0562 54.1898 48.5935 52.3339C48.3499 51.4173 48.0757 50.5113 47.7761 49.6104C47.4704 48.7116 47.1454 47.8162 46.7296 46.9515C46.7082 46.9073 46.6715 46.8725 46.6262 46.8536C46.5809 46.8346 46.5303 46.833 46.4838 46.8488C46.4374 46.8647 46.3984 46.897 46.3741 46.9397C46.3499 46.9824 46.3421 47.0324 46.3523 47.0805V47.0852C46.7434 48.919 47.1022 50.7641 47.4805 52.5982C47.8201 54.4233 48.1545 56.2811 48.4737 58.1226C49.1103 61.8131 49.5798 65.5377 49.7251 69.2736C49.8031 71.1409 49.814 73.0092 49.7378 74.8717L49.6553 76.2665C49.6295 76.7316 49.5744 77.1935 49.5355 77.6573Z" fill="#371A45"/>
<path d="M24.3054 64.9951C22.0791 65.8964 18.634 65.7079 16.2853 65.4236C15.951 65.3829 15.6282 65.2757 15.3359 65.1083C15.0437 64.9408 14.788 64.7165 14.5838 64.4486C14.3797 64.1807 14.2313 63.8746 14.1474 63.5485C14.0635 63.2223 14.0458 62.8826 14.0953 62.5494C14.1862 61.931 14.5036 61.3684 14.9859 60.9709C15.4682 60.5733 16.0811 60.3691 16.7055 60.3979C18.9024 60.5006 22.1978 60.5489 24.2844 60.0859" fill="#FF5555"/>
<g opacity="0.7">
<path opacity="0.7" d="M16.7055 61.5203C18.9025 61.6234 22.1979 61.6714 24.2844 61.2088L24.3015 65.184H24.3055L24.2844 60.2744C22.1979 60.7374 18.9025 60.6891 16.7055 60.5863C16.0811 60.5575 15.4683 60.7618 14.986 61.1593C14.5036 61.5569 14.1862 62.1195 14.0953 62.7379C14.0545 63.017 14.0609 63.3009 14.1142 63.5778C14.2251 62.9799 14.5485 62.4422 15.0247 62.0641C15.501 61.6859 16.098 61.4928 16.7055 61.5203Z" fill="white"/>
</g>
<g opacity="0.35">
<path opacity="0.35" d="M24.3056 64.9948C22.0789 65.8976 18.6335 65.7073 16.2851 65.4248C15.8804 65.3746 15.4938 65.2272 15.1583 64.9951C14.8229 64.763 14.5486 64.4532 14.359 64.0921C14.1693 63.731 14.0698 63.3294 14.0691 62.9215C14.0684 62.5136 14.1664 62.1117 14.3547 61.7499C14.5439 62.1123 14.8186 62.4233 15.1549 62.6557C15.4913 62.8882 15.8792 63.0352 16.2851 63.084C18.6299 63.3684 22.0691 63.5561 24.2958 62.6603L24.3056 64.9948Z" fill="#371A45"/>
</g>
<path d="M19.8791 66.2574C18.5908 66.2574 17.31 66.151 16.2115 66.0181C15.4131 65.9163 14.6848 65.5102 14.1785 64.8845C13.6722 64.2587 13.4271 63.4617 13.4943 62.6596C13.5615 61.8575 13.9357 61.1123 14.539 60.5795C15.1423 60.0467 15.928 59.7674 16.7322 59.7998C19.9681 59.9512 22.6034 59.8452 24.1539 59.5013C24.4662 59.432 25.2455 59.4287 25.7038 60.903C26.1686 62.3973 26.1163 64.9076 24.5287 65.5511C23.2232 66.0791 21.5452 66.2574 19.8791 66.2574ZM16.587 60.9938C16.0966 60.9942 15.625 61.1818 15.2682 61.5182C14.9115 61.8546 14.6966 62.3145 14.6674 62.804C14.6383 63.2935 14.7971 63.7756 15.1114 64.152C15.4257 64.5284 15.8718 64.7706 16.3586 64.8292C19.7154 65.2355 22.4592 65.0975 24.082 64.4403C24.557 64.2478 24.6961 63.4776 24.7357 63.1555C24.8693 62.0153 24.524 60.9557 24.3057 60.6946C22.1879 61.1387 19.0007 61.1045 16.68 60.996C16.6465 60.9945 16.616 60.9938 16.587 60.9938Z" fill="#371A45"/>
<path d="M41.3328 64.9951C43.5588 65.8964 47.0038 65.7079 49.3525 65.4236C49.6869 65.383 50.0097 65.2758 50.302 65.1084C50.5942 64.9409 50.85 64.7166 51.0541 64.4487C51.2583 64.1808 51.4067 63.8747 51.4906 63.5485C51.5745 63.2223 51.5921 62.8826 51.5426 62.5494C51.4517 61.931 51.1343 61.3684 50.6519 60.9709C50.1696 60.5733 49.5568 60.3691 48.9324 60.3979C46.7354 60.5006 43.4404 60.5489 41.3535 60.0859" fill="#FF5555"/>
<g opacity="0.7">
<path opacity="0.7" d="M41.3527 61.2087C43.4397 61.6714 46.7347 61.6234 48.9317 61.5203C49.5221 61.4933 50.1032 61.6746 50.5735 62.0327C51.0437 62.3907 51.3731 62.9027 51.5041 63.479C51.5913 63.1002 51.5897 62.7063 51.4993 62.3282C51.4089 61.9501 51.2322 61.598 50.9831 61.2996C50.7339 61.0012 50.4191 60.7645 50.0632 60.608C49.7073 60.4516 49.32 60.3797 48.9317 60.3979C46.7347 60.5006 43.4397 60.5489 41.3527 60.0859L41.332 64.9951H41.3368L41.3527 61.2087Z" fill="white"/>
</g>
<g opacity="0.35">
<path opacity="0.35" d="M49.3518 65.4248C47.0034 65.7073 43.558 65.8969 41.3313 64.9949L41.3411 62.6385C43.5678 63.5354 47.006 63.347 49.3518 63.0626C49.7559 63.0143 50.1422 62.8686 50.4775 62.6379C50.8127 62.4072 51.0869 62.0984 51.2764 61.7383C51.4682 62.0999 51.5692 62.5028 51.5705 62.9122C51.5719 63.3215 51.4736 63.7251 51.2842 64.088C51.0947 64.4509 50.8198 64.7622 50.4831 64.9951C50.1465 65.228 49.7582 65.3755 49.3518 65.4248Z" fill="#371A45"/>
</g>
<path d="M45.758 66.2574C44.0923 66.2574 42.4143 66.0794 41.1077 65.5503C39.5201 64.9076 39.4678 62.3973 39.9322 60.9023C40.3909 59.4279 41.1705 59.4316 41.4828 59.5006C43.033 59.8445 45.6676 59.9501 48.9042 59.7991C49.7083 59.7668 50.4939 60.0462 51.0971 60.579C51.7003 61.1119 52.0745 61.857 52.1416 62.6591C52.2087 63.4611 51.9636 64.2581 51.4574 64.8838C50.9511 65.5094 50.2229 65.9155 49.4245 66.0173C48.3279 66.1506 47.0464 66.257 45.758 66.2574ZM41.335 60.6945C41.1172 60.9556 40.7714 62.0153 40.9051 63.1555C40.9414 63.478 41.0819 64.2478 41.5587 64.4403C43.1819 65.0975 45.925 65.2359 49.2822 64.8292C49.7767 64.7694 50.2288 64.5202 50.5434 64.134C50.8581 63.7478 51.0107 63.2546 50.9692 62.7582C50.9277 62.2618 50.6954 61.8008 50.321 61.4722C49.9467 61.1435 49.4595 60.9728 48.9619 60.9959C46.64 61.1045 43.4528 61.1387 41.335 60.6945Z" fill="#371A45"/>
<path d="M43.2808 87.736C41.1558 87.736 38.4011 87.3365 34.8711 86.1847C34.7221 86.1338 34.5992 86.0263 34.5289 85.8855C34.4586 85.7447 34.4465 85.5819 34.4954 85.4323C34.5442 85.2826 34.65 85.1583 34.7898 85.086C34.9296 85.0138 35.0923 84.9995 35.2426 85.0463C45.6699 88.4474 48.7231 84.9515 48.7511 84.9155C48.8518 84.794 48.9962 84.7169 49.1532 84.7008C49.3103 84.6847 49.4673 84.7309 49.5906 84.8295C49.7133 84.9276 49.7922 85.0703 49.8102 85.2264C49.8283 85.3824 49.7839 85.5393 49.6869 85.6629C49.5935 85.7827 47.9754 87.736 43.2808 87.736Z" fill="#371A45"/>
<path d="M21.731 87.992C19.4912 87.992 17.3371 87.59 15.9536 86.3699C15.8344 86.2648 15.7619 86.1168 15.7519 85.9583C15.7419 85.7998 15.7953 85.6438 15.9004 85.5247C16.0054 85.4055 16.1534 85.333 16.3119 85.323C16.4704 85.3131 16.6264 85.3664 16.7456 85.4715C20.2167 88.5316 30.2334 85.3825 30.3339 85.3502C30.4094 85.3245 30.4891 85.314 30.5686 85.3195C30.6481 85.325 30.7257 85.3463 30.7969 85.3822C30.868 85.4181 30.9313 85.4678 30.983 85.5284C31.0347 85.589 31.0737 85.6594 31.0979 85.7353C31.1221 85.8112 31.1308 85.8912 31.1237 85.9706C31.1166 86.0499 31.0937 86.1271 31.0563 86.1975C31.019 86.2679 30.968 86.3301 30.9063 86.3805C30.8446 86.4309 30.7735 86.4686 30.6971 86.4912C30.4127 86.5819 25.923 87.992 21.731 87.992Z" fill="#371A45"/>
<path d="M10.5871 73.9265C4.36155 72.6556 6.16014 66.8044 6.2019 66.6657V66.6635C5.94771 66.5019 5.70332 66.3367 5.46729 66.1766C5.46729 66.1766 13.8854 65.1507 15.5184 61.2547C15.5789 61.1152 15.6291 60.9715 15.6688 60.8247C20.6397 68.2148 16.224 75.0758 10.5871 73.9265Z" fill="white"/>
<path fill-rule="evenodd" clip-rule="evenodd" d="M13.5117 58.205C13.5117 58.205 14.2851 56.9249 17.3387 55.5991L19.5981 48.6895L22.4425 39.9932C22.4425 39.9932 17.9128 41.5289 13.5117 43.9586C13.5117 43.9586 -5.32055 54.0864 2.5 63.5272C2.5 57.149 9.84111 57.3214 13.5117 58.205Z" fill="white"/>
<path d="M13.5534 58.2482C13.5407 58.2337 13.5262 58.2191 13.5117 58.205C9.84111 57.3214 2.5 57.149 2.5 63.5272C3.37747 64.5865 4.59048 65.6371 6.20327 66.6638C6.20327 66.6638 4.28666 72.6416 10.5866 73.9264C16.8772 75.2094 21.6465 66.5167 13.5534 58.2482Z" fill="white"/>
<path fill-rule="evenodd" clip-rule="evenodd" d="M13.5119 58.205C13.5119 58.205 14.2854 56.9249 17.339 55.5991L19.5984 48.6895L22.4428 39.9932C22.4428 39.9932 17.9131 41.5289 13.5119 43.9586C13.5119 43.9586 -5.32031 54.0864 2.50024 63.5272C2.50024 57.149 9.84135 57.3214 13.5119 58.205Z" fill="#FF5555"/>
<g opacity="0.35">
<path opacity="0.35" d="M18.0129 49.9778L17.339 55.5998C14.2854 56.9249 13.5119 58.2049 13.5119 58.2049C13.5265 58.2191 13.541 58.2336 13.5537 58.2481C12.7352 57.5727 11.6371 56.801 10.4841 56.3685C10.4841 56.3685 12.6099 55.2011 13.3191 54.3666C16.3774 50.7661 15.588 47.7783 18.4632 48.145C18.915 48.2028 18.3114 49.3601 18.0129 49.9778Z" fill="#371A45"/>
</g>
<path d="M11.799 74.6484C11.3519 74.648 10.9058 74.6025 10.4678 74.5126C8.40956 74.0932 6.9407 73.1545 6.10259 71.7226C5.03934 69.907 5.31858 67.8309 5.51649 66.9322C1.7421 64.4266 -0.112057 61.5495 0.0052351 58.3717C0.295741 50.4758 12.7 43.7153 13.228 43.4314C17.6219 41.0075 22.2046 39.4431 22.2503 39.4275C22.4 39.3791 22.5628 39.3915 22.7034 39.4622C22.844 39.5328 22.9511 39.6559 23.0017 39.8049C23.0522 39.954 23.042 40.1169 22.9734 40.2584C22.9048 40.4 22.7832 40.5089 22.6349 40.5615C22.5899 40.5768 18.1023 42.1092 13.8006 44.4834C13.6721 44.5527 1.46539 51.2049 1.19994 58.4175C1.09681 61.2405 2.88778 63.8456 6.52309 66.1598L6.91273 66.4078L6.77184 66.8479C6.76457 66.8705 6.03323 69.2468 7.13824 71.1253C7.79841 72.2466 8.9982 72.9918 10.7056 73.3404C13.0548 73.8193 15.2423 72.7753 16.4141 70.6169C17.8699 67.9348 17.7577 63.376 13.0831 58.6259L12.7563 58.294L12.9977 57.8946C13.0762 57.7649 13.8424 56.5898 16.503 55.3229C16.5742 55.2874 16.6518 55.2664 16.7312 55.2612C16.8105 55.256 16.8902 55.2667 16.9654 55.2926C17.0406 55.3185 17.1099 55.3591 17.1692 55.4121C17.2285 55.4651 17.2767 55.5294 17.3109 55.6012C17.3451 55.673 17.3647 55.751 17.3684 55.8304C17.3722 55.9099 17.3601 55.9893 17.3328 56.064C17.3055 56.1387 17.2636 56.2073 17.2096 56.2656C17.1555 56.324 17.0904 56.371 17.018 56.4039C15.5106 57.1218 14.7012 57.7922 14.3152 58.1793C19.0722 63.2584 19.0849 68.205 17.4668 71.187C16.2797 73.3767 14.1423 74.6484 11.799 74.6484Z" fill="#371A45"/>
<path d="M13.1841 58.6245C12.98 58.4121 12.7516 58.1939 12.5261 57.9854C12.3006 57.777 12.0656 57.5718 11.8274 57.3724C11.3488 56.9774 10.8502 56.6033 10.3022 56.2939C10.9174 56.4392 11.5198 56.664 12.1074 56.9182C12.4008 57.0472 12.6913 57.1833 12.9789 57.3263C13.2694 57.4716 13.5486 57.6168 13.8399 57.7839L13.1841 58.6245Z" fill="#371A45"/>
<path d="M6.4556 66.1942C6.70398 66.3438 6.96181 66.5058 7.21491 66.6663L7.98148 67.1463L8.75531 67.6239C9.01532 67.7836 9.27895 67.9369 9.54912 68.0959C9.23672 68.0801 8.92583 68.0423 8.61878 67.9826C8.31193 67.9242 8.00908 67.8497 7.71095 67.7648C7.41281 67.6798 7.11468 67.5883 6.82345 67.4819C6.53222 67.3755 6.24462 67.2691 5.95557 67.1358L6.4556 66.1942Z" fill="#371A45"/>
<g opacity="0.3">
<path opacity="0.3" d="M10.5871 73.9265C4.36154 72.6556 6.16014 66.8044 6.2019 66.6657V66.6635C6.2019 66.6635 7.28294 72.4569 12.9108 70.8679C16.5098 69.8511 16.2055 64.7774 15.5184 61.2547C15.5789 61.1152 15.6291 60.9715 15.6687 60.8247C20.6397 68.2148 16.224 75.0758 10.5871 73.9265Z" fill="#421861"/>
</g>
<path d="M32.1166 48.8235V50.7063C32.1166 50.7063 23.7758 51.9047 19.3122 43.6423C18.6833 42.4803 18.1335 41.1338 17.6926 39.5691L22.2594 40.2863C22.2594 40.2863 24.0877 43.3239 26.6929 45.7841C28.2895 47.2944 30.1789 48.5857 32.1166 48.8235Z" fill="#FF5555"/>
<g opacity="0.35">
<path opacity="0.35" d="M32.1167 48.8235V50.7063C32.1167 50.7063 23.7759 51.9047 19.3123 43.6423C20.438 44.8628 23.6488 48.1964 25.1347 48.1143C26.4936 48.0417 23.5438 45.9479 23.6822 45.4271C23.8205 44.9064 27.1203 49.0407 27.8262 47.8282C28.0194 47.4952 26.3904 46.9566 26.6911 45.7859C28.2896 47.2944 30.179 48.5857 32.1167 48.8235Z" fill="#371A45"/>
</g>
<path d="M30.9817 51.2175C29.3089 51.213 27.6505 50.9085 26.0852 50.3184C23.1075 49.189 19.1566 46.4289 17.2611 39.6913L17.0715 39.0173L22.5363 39.8751L22.6452 40.0566C22.6917 40.1336 27.3543 47.787 32.1727 48.38L32.5671 48.4286V51.0973L32.1818 51.1525C32.1357 51.1572 31.693 51.2175 30.9817 51.2175ZM18.3262 40.1234C19.8186 44.8652 22.5323 48.0114 26.4037 49.477C28.7404 50.3627 30.8339 50.3485 31.6691 50.2951V49.2057C26.9484 48.3066 22.736 41.889 21.9865 40.6957L18.3262 40.1234Z" fill="#371A45"/>
<path d="M41.9744 40.2863C41.9744 40.2863 37.2126 48.1967 32.1165 48.8235V50.7056C32.1165 50.7056 42.9679 52.2635 46.5404 39.5691L41.9744 40.2863Z" fill="#FF5555"/>
<path d="M33.2521 51.2175C32.5393 51.2175 32.0977 51.1572 32.0537 51.1507L31.6685 51.0955V48.4268L32.0628 48.3782C36.8812 47.7852 41.5442 40.1318 41.5907 40.0548L41.6996 39.8732L47.1626 39.0188L46.973 39.6928C45.0764 46.4303 41.1266 49.1905 38.1489 50.3198C36.5835 50.9096 34.9249 51.2136 33.2521 51.2175ZM32.5658 50.2959C33.4068 50.3485 35.5235 50.3612 37.8675 49.4639C41.7189 47.9903 44.4209 44.8496 45.9072 40.1234L42.2483 40.6979C41.5006 41.8912 37.2854 48.3088 32.5647 49.2079L32.5658 50.2959Z" fill="#371A45"/>
<path d="M18.5457 48.1662C18.3805 49.6838 18.1826 51.1828 17.9691 52.6814C17.8602 53.4298 17.7574 54.1793 17.6205 54.9219C17.4836 55.6645 17.3391 56.4064 17.1375 57.1338V57.136C17.0977 57.2816 17.0045 57.407 16.8764 57.487C16.7484 57.567 16.5949 57.5959 16.4465 57.5678C16.2981 57.5397 16.1658 57.4568 16.0758 57.3355C15.9858 57.2142 15.9448 57.0635 15.961 56.9134C16.0405 56.153 16.1857 55.4093 16.347 54.667C16.5082 53.9248 16.7083 53.1909 16.9131 52.4581C17.1179 51.7253 17.3405 50.9965 17.5802 50.272C17.8198 49.5476 18.0788 48.8282 18.3791 48.1227C18.3871 48.1034 18.4018 48.0877 18.4205 48.0784C18.4392 48.0692 18.4607 48.067 18.4808 48.0723C18.501 48.0776 18.5186 48.0901 18.5303 48.1073C18.5421 48.1246 18.5472 48.1455 18.5447 48.1662H18.5457Z" fill="#371A45"/>
<path d="M1.99852 63.3172C1.87964 63.3172 1.7656 63.2701 1.6814 63.1862C1.59721 63.1022 1.54971 62.9884 1.54933 62.8695C1.54497 61.0992 3.02037 59.2621 5.30811 58.1887C7.91104 56.9671 11.8674 56.6425 15.1631 59.395C15.2546 59.4714 15.3121 59.5809 15.3228 59.6996C15.3335 59.8182 15.2967 59.9363 15.2203 60.0278C15.144 60.1193 15.0345 60.1767 14.9158 60.1874C14.7971 60.1982 14.6791 60.1613 14.5876 60.085C11.6157 57.603 8.04285 57.8978 5.69084 59.0025C3.71795 59.9281 2.44517 61.4453 2.4488 62.8677C2.449 62.9266 2.43756 62.9851 2.41516 63.0396C2.39276 63.0942 2.35982 63.1438 2.31824 63.1856C2.27666 63.2274 2.22725 63.2606 2.17283 63.2833C2.1184 63.306 2.06003 63.3178 2.00106 63.3179L1.99852 63.3172Z" fill="#371A45"/>
<g opacity="0.35">
<path opacity="0.35" d="M32.1165 48.8235V50.7063C32.1165 50.7063 40.4572 51.9047 44.9212 43.6423C43.7955 44.8628 40.5843 48.1964 39.0984 48.1143C37.7396 48.0417 40.6893 45.9479 40.5509 45.4271C40.4126 44.9064 37.1124 49.0407 36.4065 47.8282C36.2137 47.4952 37.8423 46.9566 37.5416 45.7859C35.9435 47.2944 34.0534 48.5857 32.1165 48.8235Z" fill="#371A45"/>
</g>
<path d="M31.107 47.9136L31.7534 46.5479C31.7826 46.486 31.8286 46.4336 31.8861 46.3966C31.9436 46.3595 32.0103 46.3393 32.0787 46.3382C32.1471 46.3371 32.2145 46.3552 32.2731 46.3904C32.3318 46.4256 32.3794 46.4765 32.4106 46.5374L33.1006 47.881C33.1277 47.9338 33.1674 47.9792 33.216 48.0133C33.2647 48.0474 33.3209 48.0692 33.3798 48.0767L34.8781 48.2695C34.946 48.2782 35.01 48.3057 35.0631 48.3489C35.1161 48.3921 35.156 48.4492 35.1782 48.5139C35.2004 48.5786 35.2041 48.6483 35.1888 48.7149C35.1735 48.7816 35.1398 48.8427 35.0916 48.8912L34.0273 49.9635C33.9853 50.0058 33.9542 50.0576 33.9368 50.1145C33.9193 50.1715 33.916 50.2318 33.9271 50.2903L34.207 51.7748C34.2198 51.842 34.2134 51.9115 34.1887 51.9753C34.164 52.0391 34.1219 52.0947 34.0672 52.1358C34.0125 52.177 33.9474 52.2019 33.8793 52.208C33.8111 52.214 33.7426 52.2008 33.6816 52.1699L32.3329 51.489C32.2799 51.4622 32.2212 51.4487 32.1618 51.4497C32.1023 51.4506 32.0441 51.466 31.9919 51.4945L30.6665 52.2207C30.6065 52.2536 30.5385 52.2691 30.4702 52.2653C30.4018 52.2615 30.3359 52.2387 30.2799 52.1994C30.2239 52.1601 30.18 52.1059 30.1532 52.0429C30.1264 51.9799 30.1178 51.9107 30.1283 51.8431L30.3593 50.3503C30.3686 50.2916 30.3636 50.2316 30.3446 50.1754C30.3257 50.1192 30.2933 50.0684 30.2504 50.0274L29.1515 48.9889C29.1018 48.9419 29.0662 48.882 29.0488 48.8159C29.0313 48.7498 29.0327 48.6801 29.0527 48.6147C29.0728 48.5493 29.1107 48.4909 29.1623 48.4459C29.2138 48.401 29.2769 48.3713 29.3443 48.3603L30.8357 48.1184C30.8941 48.1088 30.9493 48.0851 30.9965 48.0494C31.0438 48.0137 31.0817 47.9671 31.107 47.9136Z" fill="#FF5555"/>
<g opacity="0.7">
<path opacity="0.7" d="M35.0915 48.8915L34.6703 49.316C34.6514 49.247 34.6125 49.1852 34.5583 49.1385C34.5042 49.0918 34.4373 49.0623 34.3664 49.0538L32.8677 48.8606C32.8085 48.8536 32.752 48.832 32.7032 48.7978C32.6544 48.7635 32.6149 48.7178 32.5881 48.6645L31.8981 47.3209C31.8599 47.2458 31.797 47.1862 31.7199 47.1522C31.6428 47.1182 31.5563 47.1119 31.4751 47.1343L31.7533 46.5474C31.7825 46.4856 31.8285 46.4331 31.8859 46.396C31.9434 46.3589 32.0102 46.3386 32.0786 46.3375C32.147 46.3363 32.2144 46.3543 32.2731 46.3894C32.3318 46.4245 32.3796 46.4754 32.4109 46.5362L33.1008 47.8798C33.1281 47.9326 33.1678 47.9779 33.2166 48.0118C33.2654 48.0457 33.3218 48.067 33.3808 48.0741L34.8795 48.2672C34.9476 48.2759 35.012 48.3035 35.0652 48.347C35.1185 48.3905 35.1584 48.448 35.1805 48.5131C35.2026 48.5782 35.206 48.6481 35.1903 48.715C35.1745 48.7819 35.1403 48.8431 35.0915 48.8915Z" fill="white"/>
</g>
<g opacity="0.35">
<path opacity="0.35" d="M31.604 51.7053L30.6664 52.218C30.6064 52.2509 30.5384 52.2663 30.4702 52.2625C30.4019 52.2587 30.3361 52.2359 30.2801 52.1965C30.2242 52.1572 30.1804 52.103 30.1538 52.04C30.1271 51.9771 30.1186 51.9079 30.1293 51.8403L30.3591 50.3479C30.3684 50.2892 30.3633 50.2292 30.3443 50.1729C30.3253 50.1166 30.2931 50.0658 30.2502 50.0247L29.1514 48.9894C29.1017 48.9424 29.0661 48.8824 29.0487 48.8162C29.0313 48.7501 29.0327 48.6804 29.0528 48.615C29.0729 48.5496 29.1108 48.4911 29.1624 48.4461C29.2139 48.4011 29.277 48.3715 29.3446 48.3604L30.0792 48.2417C30.0932 48.3176 30.1314 48.3869 30.1881 48.4392L31.2866 49.4763C31.3298 49.5169 31.3623 49.5675 31.3813 49.6236C31.4003 49.6797 31.4052 49.7396 31.3955 49.7981L31.1657 51.292C31.156 51.3507 31.1609 51.4109 31.1799 51.4673C31.199 51.5236 31.2316 51.5744 31.2749 51.6153C31.3181 51.6561 31.3708 51.6856 31.4282 51.7013C31.4856 51.717 31.5459 51.7184 31.604 51.7053Z" fill="#371A45"/>
</g>
<path d="M30.4908 52.7134C30.3732 52.7131 30.257 52.6874 30.1502 52.6381C30.0435 52.5888 29.9486 52.517 29.8721 52.4276C29.7957 52.3382 29.7394 52.2334 29.7072 52.1203C29.6749 52.0072 29.6675 51.8885 29.6854 51.7722L29.9098 50.3222L28.8422 49.3153C28.7311 49.2109 28.6516 49.0775 28.6125 48.9302C28.5734 48.7829 28.5764 48.6276 28.6211 48.4819C28.6657 48.3362 28.7504 48.2059 28.8653 48.1058C28.9802 48.0058 29.1209 47.9399 29.2714 47.9157L30.7199 47.6812L31.3474 46.3546C31.4126 46.2171 31.5148 46.1006 31.6427 46.0182C31.7706 45.9358 31.919 45.8908 32.0711 45.8883C32.2233 45.8858 32.3731 45.9259 32.5036 46.0041C32.6341 46.0823 32.7402 46.1954 32.8098 46.3307L33.4808 47.6358L34.9363 47.8228C35.0872 47.8422 35.2297 47.9035 35.3476 47.9997C35.4655 48.0959 35.5542 48.2231 35.6035 48.367C35.6529 48.511 35.661 48.6659 35.627 48.8142C35.5929 48.9625 35.5181 49.0983 35.4109 49.2063L34.3774 50.2478L34.649 51.6898C34.6772 51.8393 34.6629 51.9938 34.6078 52.1356C34.5528 52.2775 34.4591 52.4011 34.3375 52.4926C34.2158 52.584 34.071 52.6396 33.9195 52.653C33.7679 52.6664 33.6156 52.6372 33.4797 52.5685L32.1703 51.9102L30.8826 52.6143C30.7624 52.6797 30.6277 52.7138 30.4908 52.7134ZM29.5801 48.7767L30.5576 49.6987C30.6536 49.7894 30.7262 49.9021 30.7691 50.027C30.812 50.1519 30.8239 50.2854 30.8038 50.4159L30.5983 51.7442L31.777 51.0997C31.893 51.0363 32.0227 51.002 32.1549 50.9998C32.2871 50.9975 32.4179 51.0275 32.536 51.087L33.7343 51.6927L33.4855 50.3723C33.4608 50.2423 33.4682 50.1082 33.507 49.9817C33.5458 49.8551 33.6148 49.7399 33.7081 49.6461L34.6548 48.6925L33.3221 48.5211C33.191 48.5043 33.0659 48.4558 32.9577 48.3799C32.8494 48.304 32.7613 48.2029 32.7008 48.0853L32.0864 46.8906L31.5119 48.1057C31.4554 48.2252 31.3706 48.3292 31.2648 48.4086C31.1591 48.4881 31.0357 48.5406 30.9051 48.5618L29.5801 48.7767Z" fill="#371A45"/>
<path d="M55.3758 28.975C55.2526 28.9841 55.1308 28.9439 55.0372 28.8633C54.9436 28.7827 54.8858 28.6682 54.8765 28.545L53.8768 15.1611C53.8722 15.1001 53.8797 15.0388 53.8989 14.9806C53.918 14.9225 53.9484 14.8688 53.9883 14.8224C54.0283 14.776 54.0769 14.738 54.1316 14.7104C54.1862 14.6829 54.2457 14.6663 54.3067 14.6618C54.9469 14.6139 55.5903 14.6927 56.2 14.8935C56.8098 15.0943 57.374 15.4133 57.8605 15.8322C58.3469 16.2512 58.7461 16.7618 59.0352 17.335C59.3243 17.9082 59.4976 18.5328 59.5453 19.173L59.8863 23.7365C59.9828 25.0293 59.5618 26.3074 58.716 27.2899C57.8701 28.2723 56.6686 28.8784 55.3758 28.975Z" fill="white"/>
<path d="M55.3403 29.0837C55.1958 29.0835 55.0566 29.0288 54.9507 28.9304C54.8448 28.832 54.7799 28.6973 54.7691 28.5531L53.7694 15.1703C53.7581 15.0185 53.8075 14.8685 53.9068 14.7532C54.0061 14.6379 54.1471 14.5668 54.2989 14.5555C54.9532 14.5064 55.6108 14.5868 56.234 14.7919C56.8573 14.997 57.4341 15.3229 57.9314 15.751C58.4287 16.179 58.8368 16.7008 59.1325 17.2866C59.4281 17.8724 59.6054 18.5107 59.6543 19.1651L59.9949 23.7286C60.2001 26.4753 58.1324 28.877 55.3857 29.0822C55.3694 29.0833 55.3545 29.0837 55.3403 29.0837ZM54.6794 14.7567C54.5584 14.7567 54.4373 14.7611 54.3163 14.7701C54.2215 14.7772 54.1334 14.8217 54.0714 14.8937C54.0094 14.9658 53.9785 15.0595 53.9855 15.1543L54.9852 28.5372C54.9924 28.6319 55.0369 28.7199 55.109 28.7818C55.181 28.8438 55.2746 28.8746 55.3694 28.8676C57.9977 28.6711 59.9764 26.3732 59.78 23.7445L59.4365 19.1811C59.3467 17.9799 58.8069 16.857 57.9249 16.0367C57.043 15.2164 55.8839 14.7593 54.6794 14.7567Z" fill="#371A45"/>
<g opacity="0.35">
<path opacity="0.35" d="M59.727 21.5967L59.8871 23.737C59.9834 25.0298 59.5623 26.3079 58.7164 27.2904C57.8705 28.2728 56.6691 28.879 55.3763 28.9759C55.253 28.9849 55.1312 28.9446 55.0376 28.8638C54.944 28.7831 54.8862 28.6685 54.877 28.5452L54.6101 24.9865C54.6527 25.0656 54.7172 25.1306 54.7958 25.1739C54.8745 25.2172 54.9639 25.2369 55.0535 25.2305L55.3705 25.2058C56.3814 25.1308 57.3439 24.743 58.1246 24.0963C58.9052 23.4496 59.4652 22.576 59.727 21.5967Z" fill="#371A45"/>
</g>
<path d="M55.3395 29.5748C55.0711 29.5745 54.8128 29.4727 54.6163 29.2899C54.4198 29.1072 54.2996 28.8569 54.2798 28.5893L53.2801 15.2068C53.2696 15.0673 53.2866 14.9272 53.3303 14.7943C53.374 14.6615 53.4434 14.5386 53.5347 14.4326C53.6259 14.3266 53.7371 14.2397 53.862 14.1767C53.9869 14.1138 54.1229 14.0761 54.2624 14.0658C54.9809 14.0121 55.7029 14.1004 56.3873 14.3257C57.0717 14.5511 57.7049 14.909 58.2509 15.3791C58.7969 15.8492 59.245 16.4223 59.5695 17.0655C59.894 17.7088 60.0886 18.4097 60.1422 19.1282L60.4832 23.6917C60.7084 26.7086 58.4373 29.3464 55.4208 29.5719C55.3936 29.5737 55.3663 29.5748 55.3395 29.5748ZM54.4843 15.2518L55.4647 28.3656C56.5725 28.247 57.5909 27.7024 58.3047 26.847C59.0185 25.9916 59.3719 24.8922 59.2903 23.7811L58.9494 19.2176C58.8662 18.1062 58.3538 17.0707 57.5206 16.3305C56.6874 15.5903 55.5988 15.2034 54.4854 15.2518H54.4843Z" fill="#371A45"/>
<path d="M10.1332 17.9624C10.2564 17.9536 10.378 17.994 10.4714 18.0747C10.5648 18.1554 10.6223 18.2699 10.6314 18.393L11.6311 31.7759C11.6357 31.8369 11.6282 31.8982 11.609 31.9564C11.5899 32.0145 11.5595 32.0682 11.5196 32.1146C11.4796 32.161 11.431 32.199 11.3763 32.2266C11.3217 32.2541 11.2622 32.2707 11.2012 32.2752C10.5611 32.3231 9.91784 32.2444 9.30817 32.0436C8.6985 31.8428 8.13435 31.5239 7.64793 31.1051C7.16151 30.6863 6.76236 30.1758 6.47325 29.6027C6.18415 29.0296 6.01076 28.4052 5.963 27.7651L5.62202 23.2016C5.57412 22.5614 5.65282 21.918 5.85362 21.3082C6.05442 20.6983 6.37339 20.134 6.79231 19.6475C7.21123 19.161 7.72189 18.7618 8.29513 18.4726C8.86837 18.1835 9.49295 18.0101 10.1332 17.9624Z" fill="white"/>
<path d="M10.8305 32.396C9.57125 32.394 8.35914 31.9166 7.43673 31.0593C6.51431 30.202 5.94962 29.0281 5.85564 27.7723L5.51502 23.2088C5.30985 20.4621 7.37752 18.0603 10.1243 17.8551C10.1993 17.8495 10.2748 17.8587 10.3463 17.8822C10.4179 17.9058 10.4841 17.9432 10.5411 17.9923C10.5982 18.0415 10.645 18.1014 10.6789 18.1686C10.7128 18.2358 10.7331 18.3091 10.7387 18.3842L11.7384 31.7671C11.7496 31.9187 11.7002 32.0686 11.601 32.1838C11.5018 32.299 11.3609 32.3701 11.2093 32.3815C11.0829 32.3914 10.9567 32.3963 10.8305 32.396ZM10.1689 18.0687C10.1595 18.0687 10.1504 18.0687 10.1413 18.0687C7.51297 18.2647 5.53427 20.563 5.73036 23.1917L6.07134 27.7552C6.11809 28.3812 6.28769 28.9919 6.57045 29.5524C6.85322 30.1128 7.2436 30.6121 7.71932 31.0217C8.19505 31.4313 8.74678 31.7432 9.34304 31.9396C9.93929 32.1359 10.5684 32.2129 11.1944 32.1662C11.2891 32.1589 11.3771 32.1144 11.4391 32.0424C11.501 31.9704 11.5319 31.8767 11.5249 31.782L10.5255 18.3991C10.5187 18.3091 10.4782 18.225 10.4121 18.1636C10.346 18.1021 10.2592 18.0679 10.1689 18.0676V18.0687Z" fill="#371A45"/>
<g opacity="0.35">
<path opacity="0.35" d="M11.358 28.0625L11.635 31.7751C11.6439 31.8985 11.6036 32.0203 11.5227 32.1139C11.4419 32.2075 11.3273 32.2652 11.204 32.2744C10.564 32.3224 9.92079 32.2438 9.31117 32.0431C8.70155 31.8424 8.13744 31.5236 7.65106 31.1048C7.16469 30.686 6.76559 30.1756 6.47655 29.6025C6.18752 29.0295 6.01421 28.4051 5.96654 27.7651L5.82129 25.8423C6.27197 26.6667 6.95059 27.3438 7.77598 27.7927C8.60138 28.2415 9.5386 28.4431 10.4755 28.3733L10.964 28.337C11.0482 28.3307 11.1292 28.3019 11.1985 28.2536C11.2678 28.2053 11.3229 28.1393 11.358 28.0625Z" fill="#371A45"/>
</g>
<path d="M10.8294 32.8872C9.44641 32.885 8.11527 32.3607 7.10229 31.4192C6.08931 30.4776 5.46921 29.1883 5.36607 27.8092L5.02545 23.2457C4.79995 20.2288 7.07098 17.591 10.0879 17.3655C10.2273 17.3551 10.3674 17.3723 10.5002 17.416C10.633 17.4598 10.7559 17.5293 10.8619 17.6205C10.9678 17.7117 11.0548 17.823 11.1177 17.9478C11.1807 18.0727 11.2184 18.2087 11.2288 18.3481L12.2293 31.7306C12.2501 32.0122 12.1583 32.2905 11.974 32.5044C11.7898 32.7184 11.5282 32.8504 11.2466 32.8716C11.1075 32.8821 10.9681 32.8872 10.8294 32.8872ZM10.0454 18.5715C8.93758 18.6902 7.91928 19.2348 7.20553 20.0903C6.49177 20.9458 6.13844 22.0452 6.22016 23.1564L6.56114 27.7198C6.64425 28.8313 7.15665 29.8667 7.98986 30.6069C8.82307 31.3471 9.91165 31.734 11.0251 31.6856L10.0454 18.5715Z" fill="#371A45"/>
<path d="M32.7574 46.3373C45.3876 46.3373 55.6264 36.0985 55.6264 23.4683C55.6264 10.8382 45.3876 0.599365 32.7574 0.599365C20.1272 0.599365 9.88843 10.8382 9.88843 23.4683C9.88843 36.0985 20.1272 46.3373 32.7574 46.3373Z" fill="white"/>
<path d="M32.7551 46.4449C26.6494 46.4449 20.9039 44.0772 16.5688 39.773C12.2134 35.4489 9.80294 29.6863 9.78115 23.5494C9.73612 10.8801 20.0062 0.536246 32.6755 0.490491C38.8186 0.461804 44.591 2.83814 48.946 7.16232C53.3011 11.4865 55.7119 17.249 55.7326 23.3863C55.7533 29.5236 53.3853 35.3018 49.0611 39.6572C44.737 44.0126 38.9755 46.4227 32.8382 46.4449H32.7551ZM32.7598 0.70837H32.6763C20.1257 0.753036 9.95146 10.9999 9.99649 23.5494C10.0179 29.6289 12.4059 35.3363 16.7202 39.6202C21.0146 43.884 26.7064 46.2292 32.7551 46.2292H32.8386C38.9185 46.2074 44.6259 43.8194 48.9094 39.505C53.1929 35.1907 55.5401 29.4666 55.5184 23.3867C55.4966 17.3068 53.109 11.5998 48.7946 7.31737C44.5002 3.05239 38.8081 0.70837 32.7598 0.70837Z" fill="#371A45"/>
<g opacity="0.35">
<path opacity="0.35" d="M55.3956 20.2219C55.5463 21.2703 55.6235 22.3279 55.6266 23.387C55.6702 36.0167 45.4683 46.2915 32.8386 46.3369C20.2089 46.3823 9.93406 36.179 9.88867 23.5493C9.88867 23.1862 9.89412 22.823 9.91046 22.4646C11.4919 33.5914 21.0742 42.1282 32.6302 42.0872C44.8961 42.0433 54.8702 32.3505 55.3956 20.2219Z" fill="#371A45"/>
</g>
<path d="M32.7549 46.9352C26.5189 46.9352 20.6503 44.5171 16.2226 40.1206C11.7742 35.7039 9.31222 29.8193 9.2897 23.5513C9.24358 10.6111 19.7334 0.0461178 32.6754 0H32.7615C38.9979 0 44.8661 2.4181 49.2938 6.81454C53.7421 11.2309 56.2042 17.1155 56.2267 23.3839C56.2488 29.6523 53.83 35.5543 49.4125 40.0026C44.995 44.451 39.1112 46.913 32.8428 46.9352H32.7549ZM32.7596 1.19725H32.6776C20.3997 1.24228 10.4434 11.2684 10.4862 23.5495C10.5073 29.4979 12.844 35.0822 17.0651 39.2731C21.2861 43.464 26.8929 45.7539 32.8355 45.7397C38.7844 45.7183 44.3686 43.3819 48.5592 39.1605C52.7497 34.9391 55.0465 29.3385 55.0255 23.3901C55.0044 17.4416 52.668 11.8574 48.4466 7.66644C44.2466 3.49333 38.6772 1.19834 32.7596 1.19834V1.19725Z" fill="#371A45"/>
<path d="M55.5549 23.9744C55.6384 28.4489 54.2636 32.63 51.844 36.1131C50.0284 38.7248 42.4585 43.3758 33.0073 43.6387C24.2438 43.8813 16.1816 39.357 14.2697 36.8151C11.7216 33.4245 10.1917 29.2982 10.1078 24.8234C9.88667 12.9831 19.9679 7.88435 32.5178 7.65013C45.0676 7.41591 55.333 12.1341 55.5549 23.9744Z" fill="#371A45"/>
<path d="M32.3135 44.2481C23.5206 44.2481 15.7471 39.7761 13.7938 37.1757C11.0757 33.5593 9.59524 29.2921 9.51208 24.8358C9.40314 19.0257 11.6498 14.5025 16.1879 11.3915C20.146 8.67857 25.7898 7.1792 32.5096 7.05247C39.2293 6.92573 44.9251 8.21449 48.9816 10.7793C53.633 13.7185 56.0464 18.1545 56.1549 23.9646C56.2381 28.421 54.9177 32.7408 52.337 36.4564C50.5471 39.0346 43.0444 43.9616 33.0249 44.2386C32.7867 44.2437 32.5492 44.2481 32.3135 44.2481ZM33.4029 8.24173C33.1146 8.24173 32.8241 8.24439 32.5314 8.24971C25.8795 8.3739 10.4366 10.2368 10.709 24.8133C10.7874 29.0165 12.1851 33.0426 14.7506 36.4564C16.5725 38.8803 24.4412 43.28 32.9915 43.0414C42.4663 42.7792 49.7355 38.1028 51.3532 35.7729C53.7895 32.2654 55.0358 28.19 54.9573 23.9868C54.8567 18.6052 52.6311 14.5021 48.3414 11.7913C44.6571 9.46221 39.5053 8.24063 33.4018 8.24063L33.4029 8.24173Z" fill="#371A45"/>
<g opacity="0.7">
<path opacity="0.7" d="M51.0346 22.972C51.3919 20.7656 50.3855 18.767 48.7867 18.5081C47.1879 18.2491 45.6021 19.8279 45.2447 22.0343C44.8874 24.2407 45.8938 26.2392 47.4926 26.4982C49.0914 26.7571 50.6772 25.1784 51.0346 22.972Z" fill="white"/>
</g>
<g opacity="0.7">
<path opacity="0.7" d="M46.2186 31.0524C46.5209 30.0721 46.084 29.0671 45.2427 28.8076C44.4013 28.5482 43.4742 29.1325 43.1719 30.1128C42.8696 31.093 43.3065 32.098 44.1479 32.3575C44.9892 32.617 45.9163 32.0327 46.2186 31.0524Z" fill="white"/>
</g>
<g opacity="0.35">
<path opacity="0.35" d="M50.9293 13.011C53.7567 15.6099 55.4652 19.2184 55.5549 23.9736C55.6384 28.4488 54.2625 32.6299 51.8444 36.1131C50.0287 38.7247 42.4582 43.3757 33.0069 43.6394C29.6697 43.7327 26.4342 43.1335 23.6018 42.2148C35.213 41.6443 44.4347 35.9355 46.6847 32.6967C49.756 28.2756 51.5005 22.9684 51.3938 17.2909C51.3722 15.8529 51.2167 14.4201 50.9293 13.011Z" fill="#111A28"/>
</g>
<path d="M11.6324 15.2937C11.523 15.2934 11.4157 15.2633 11.3222 15.2064C11.2287 15.1495 11.1526 15.0682 11.1021 14.9711C11.0516 14.874 11.0286 14.765 11.0357 14.6558C11.0427 14.5466 11.0796 14.4414 11.1422 14.3517C15.0466 8.38072 22.7704 4.85325 32.3364 4.67423C41.8261 4.49593 49.6767 7.61923 53.865 13.2416C53.9619 13.356 54.0124 13.5027 54.0064 13.6525C54.0004 13.8023 53.9384 13.9445 53.8327 14.0508C53.7269 14.1571 53.5851 14.2199 53.4353 14.2268C53.2855 14.2336 53.1386 14.184 53.0236 14.0877L52.9594 14.0376L52.9231 13.982C48.9733 8.65742 41.4746 5.70262 32.3589 5.87147C23.1887 6.04287 15.8182 9.37715 12.1368 15.0188L12.1056 15.0623C12.0496 15.1345 11.9779 15.1928 11.8958 15.2329C11.8138 15.273 11.7237 15.2938 11.6324 15.2937ZM11.5935 14.6644L11.6328 14.6949L11.5935 14.6644Z" fill="#371A45"/>
<g opacity="0.7">
<path opacity="0.7" d="M15.3443 31.7718C15.3443 31.7718 11.4588 20.1596 17.6683 15.3873C23.8779 10.615 32.9337 10.4647 32.7329 11.0493C32.7329 11.0493 22.7514 13.6639 18.9763 21.664C16.064 27.8344 15.3443 31.7718 15.3443 31.7718Z" fill="white"/>
</g>
<path d="M17.0727 91.1719C17.4495 91.0834 17.8319 91.021 18.2173 90.9853C18.4068 90.9631 18.5971 90.949 18.7878 90.9406C18.9784 90.9323 19.1687 90.9228 19.3593 90.9217C20.1238 90.9165 20.8875 90.9737 21.6427 91.0928C22.3995 91.2159 23.1433 91.4087 23.8647 91.6687C24.5793 91.9497 25.2624 92.3125 25.8561 92.7795C25.8711 92.7916 25.8812 92.8086 25.8848 92.8276C25.8883 92.8465 25.885 92.866 25.8754 92.8827C25.8659 92.8994 25.8507 92.9122 25.8325 92.9187C25.8144 92.9252 25.7946 92.925 25.7766 92.9182H25.7733C25.0985 92.6495 24.399 92.4471 23.6849 92.314C22.9769 92.1976 22.2621 92.1267 21.545 92.1015C20.8278 92.083 20.1114 92.1088 19.3956 92.1404C18.6799 92.172 17.954 92.2315 17.2648 92.2795H17.2419C17.1012 92.2892 16.962 92.2456 16.8519 92.1575C16.7418 92.0693 16.6689 91.943 16.6476 91.8036C16.6263 91.6642 16.6581 91.5218 16.7369 91.4048C16.8156 91.2878 16.9355 91.2047 17.0727 91.1719Z" fill="#371A45"/>
<path d="M48.2209 92.278C47.531 92.2301 46.8007 92.1731 46.0901 92.1389C45.3794 92.1048 44.6579 92.0816 43.9404 92.1001C43.2234 92.1253 42.5087 92.1962 41.8008 92.3125C41.0867 92.4457 40.3873 92.648 39.7124 92.9168H39.7091C39.6911 92.9237 39.6712 92.9241 39.6529 92.9176C39.6347 92.9112 39.6193 92.8984 39.6097 92.8817C39.6 92.8649 39.5967 92.8452 39.6003 92.8262C39.6039 92.8072 39.6141 92.7901 39.6292 92.778C40.2233 92.311 40.906 91.9483 41.6207 91.6672C42.3421 91.4073 43.0861 91.2145 43.843 91.0913C44.5982 90.9722 45.3619 90.915 46.1264 90.9203C46.317 90.9203 46.5077 90.9257 46.698 90.9391C46.8883 90.9526 47.0785 90.9617 47.2685 90.9838C47.6538 91.0196 48.0363 91.0819 48.413 91.1704C48.5502 91.2032 48.6701 91.2863 48.7488 91.4033C48.8276 91.5204 48.8595 91.6627 48.8382 91.8021C48.8169 91.9415 48.7439 92.0678 48.6338 92.156C48.5237 92.2442 48.3845 92.2877 48.2438 92.278H48.2209Z" fill="#371A45"/>
</g>
<defs>
<clipPath id="clip0_1_291">
<rect width="79" height="105" fill="white"/>
</clipPath>
</defs>
</svg>
