<svg width="75" height="105" viewBox="0 0 75 105" fill="none" xmlns="http://www.w3.org/2000/svg">
<g clip-path="url(#clip0_1_404)">
<g opacity="0.35">
<path opacity="0.35" d="M35.9013 105C55.729 105 71.8025 103.083 71.8025 100.718C71.8025 98.3524 55.729 96.4351 35.9013 96.4351C16.0735 96.4351 0 98.3524 0 100.718C0 103.083 16.0735 105 35.9013 105Z" fill="#371A45"/>
</g>
<path d="M17.2578 45.094V69.2257C17.2571 70.5638 17.6027 71.8794 18.2611 73.0445C19.6054 75.4283 22.1642 77.0454 25.0808 77.0454H47.5562C50.3664 77.0454 52.8438 75.5442 54.2232 73.3042C54.9801 72.0785 55.3804 70.6662 55.3792 69.2257V45.094C55.3797 44.5745 55.3275 44.0563 55.2235 43.5473C54.8605 41.7803 53.9001 40.1921 52.5039 39.0495C51.1076 37.9069 49.3605 37.2797 47.5562 37.2732H25.0816C21.7261 37.2732 18.8443 39.4125 17.7411 42.3946C17.4212 43.2587 17.2576 44.1727 17.2578 45.094Z" fill="white"/>
<path d="M47.5572 77.6293H25.0811C20.446 77.6293 16.6753 73.8595 16.6753 69.2254V45.0942C16.6753 40.4601 20.446 36.6903 25.0811 36.6903H47.5572C52.1924 36.6903 55.9634 40.4601 55.9634 45.0942V69.2254C55.9634 73.8595 52.1943 77.6293 47.5572 77.6293ZM25.0811 37.8579C21.09 37.8579 17.8428 41.104 17.8428 45.0942V69.2254C17.8428 73.2156 21.09 76.4621 25.0811 76.4621H47.5572C51.5483 76.4621 54.7956 73.2156 54.7956 69.2254V45.0942C54.7956 41.104 51.5483 37.8579 47.5572 37.8579H25.0811Z" fill="#371A45"/>
<path d="M22.2789 39.5577C22.2789 39.5577 12.5449 50.6243 12.5449 59.8668C12.5449 67.7771 22.2789 70.4983 22.2789 70.4983L35.7699 47.6552L22.2789 39.5577Z" fill="white"/>
<path d="M12.5449 59.866C12.5449 67.7779 22.2789 70.4984 22.2789 70.4984L22.6119 69.9356L35.7703 47.6552L25.5996 41.5498L22.2793 39.557C22.2793 39.557 12.5449 50.6266 12.5449 59.866Z" fill="white"/>
<path fill-rule="evenodd" clip-rule="evenodd" d="M13.5667 54.1778C14.0424 55.9993 17.9593 59.26 29.8205 57.7298L35.7703 47.6553L25.5996 41.5499L22.2793 39.5571C22.2793 39.5571 16.0649 46.624 13.5667 54.1778Z" fill="#4A8FFF"/>
<g opacity="0.35">
<path opacity="0.35" d="M16.625 60.9484C16.625 65.5163 19.8703 68.3538 22.6121 69.9357L35.7705 47.6553L25.5998 41.5499C23.3085 44.379 16.625 53.289 16.625 60.9484Z" fill="#371A45"/>
</g>
<path d="M22.5533 71.1812L22.1216 71.0607C22.0183 71.0316 19.5662 70.3338 17.0817 68.6303C13.7315 66.3349 11.9609 63.3022 11.9609 59.8668C11.9609 50.5114 21.4367 39.6289 21.8404 39.1721L22.1618 38.8068L36.5673 47.4528L22.5533 71.1812ZM22.4033 40.3133C20.7487 42.2996 13.1288 51.881 13.1288 59.8668C13.1288 66.3322 20.193 69.175 22.013 69.8001L34.9724 47.8576L22.4033 40.3133Z" fill="#371A45"/>
<path fill-rule="evenodd" clip-rule="evenodd" d="M62.0128 56.9954C55.4066 58.1362 51.2823 52.9715 51.2823 52.9715L49.0483 38.8035C50.2747 39.3591 51.5838 40.5182 52.8031 41.5978C54.2007 42.8352 55.4803 43.9681 56.382 43.9681C54.5753 48.7033 53.172 57.9379 62.0128 56.9954Z" fill="#4A8FFF"/>
<g opacity="0.35">
<path opacity="0.35" d="M49.7451 43.2345L51.2815 52.972C51.2815 52.972 55.4054 58.1348 62.0127 56.9959C68.8623 55.8137 67.6504 44.4147 67.6504 44.4147L62.8626 46.9829C66.0938 47.5594 65.6878 53.4349 60.7863 54.2808C54.1805 55.4216 50.2231 45.0073 50.2231 45.0073L49.7451 43.2345Z" fill="#371A45"/>
</g>
<path d="M60.0929 57.7464C54.4207 57.7464 50.9856 53.5351 50.8261 53.3357C50.7327 53.2145 50.6907 53.0615 50.709 52.9097C50.7273 52.7578 50.8045 52.6192 50.924 52.5237C51.0435 52.4281 51.1957 52.3833 51.3479 52.3988C51.5001 52.4143 51.6402 52.4889 51.7379 52.6066C51.7762 52.6555 55.7382 57.4851 61.9135 56.4204C67.5003 55.4563 67.2229 46.7031 67.0978 44.8286L57.942 41.3043C58.0089 42.1919 57.9779 43.4085 57.4307 44.063C57.3042 44.2187 57.1441 44.3436 56.9624 44.4285C56.7806 44.5134 56.582 44.556 56.3815 44.5531C55.2591 44.5531 53.942 43.3867 52.4172 42.037C51.206 40.9658 49.9536 39.8563 48.8072 39.3372C48.6679 39.2722 48.5599 39.1549 48.5065 39.0108C48.4532 38.8667 48.4588 38.7073 48.5222 38.5673C48.5856 38.4273 48.7017 38.318 48.8452 38.263C48.9888 38.208 49.1482 38.2118 49.2889 38.2736C50.5961 38.8655 51.9155 40.0334 53.192 41.1628C54.3691 42.2045 55.7026 43.3851 56.383 43.3855C56.4125 43.3881 56.4421 43.3829 56.4689 43.3705C56.4958 43.358 56.5189 43.3388 56.5361 43.3147C56.8942 42.8863 56.8269 41.3897 56.6689 40.5132L56.4844 39.4921L68.1937 43.9995L68.232 44.3542C68.2836 44.842 69.4182 56.3114 62.1129 57.5719C61.4458 57.6876 60.77 57.7459 60.0929 57.7464Z" fill="#371A45"/>
<g opacity="0.35">
<path opacity="0.35" d="M43.8686 82.8352C43.8043 82.8639 43.7404 82.8911 43.6772 82.9182C43.7404 82.8926 43.8043 82.8639 43.8686 82.8352Z" fill="#371A45"/>
</g>
<g opacity="0.35">
<path opacity="0.35" d="M35.7703 64.9576C35.6068 65.2084 35.4485 65.4543 35.2954 65.6954C35.4496 65.4539 35.6084 65.2068 35.7703 64.9576Z" fill="#371A45"/>
</g>
<path d="M15.6915 96.4171C15.7007 96.5162 15.7145 96.6157 15.7324 96.7102C16.2276 99.6407 19.6612 100.689 25.8407 99.879C28.6387 99.5156 32.5077 99.0833 33.5279 96.8567C35.5655 92.4101 33.4866 83.4129 33.728 77.6472V77.6361C35.4026 77.8192 37.0922 77.8192 38.7669 77.6361C38.7669 77.6832 38.7699 77.7291 38.7714 77.7765C38.9777 83.5456 36.9462 92.4419 38.967 96.8548C39.9871 99.0829 43.8547 99.5152 46.6542 99.8771C52.8414 100.686 56.2749 99.6372 56.7655 96.6991C56.7804 96.6046 56.7942 96.5113 56.8038 96.4152C57.1596 92.8344 52.1637 91.1714 52.1637 91.1714C52.1637 91.1714 53.2527 83.5728 53.9721 76.7168C54.2744 73.8338 54.3433 70.8513 54.2488 67.8844C54.2258 67.1162 54.1916 66.3492 54.1462 65.5833C54.0822 64.4945 54.0003 63.4144 53.9006 62.3429C53.8133 61.4146 53.715 60.4973 53.6055 59.5911C53.1991 56.1863 52.6527 52.9669 52.0891 50.1344C51.5847 47.5934 51.067 45.3626 50.6227 43.5925C50.5232 43.2015 50.4314 42.8335 50.3399 42.4884C49.7977 40.4007 49.4216 39.1853 49.4216 39.1853H23.0718C23.0718 39.1853 22.693 40.4095 22.1492 42.5083C21.8282 43.7375 21.4512 45.2689 21.0586 47.031C20.9056 47.7196 20.7507 48.4424 20.5941 49.1994C19.9635 52.258 19.3386 55.8236 18.8867 59.6183C18.7811 60.5038 18.6853 61.4007 18.5993 62.3089C18.4956 63.4183 18.4103 64.54 18.346 65.6682C18.2985 66.4685 18.2633 67.2713 18.2404 68.0765C18.2253 68.6095 18.2152 69.143 18.2101 69.6768C18.1887 72.0487 18.2817 74.4168 18.5232 76.7179C19.241 83.5739 20.3301 91.1725 20.3301 91.1725C20.3301 91.1725 15.3356 92.8363 15.6915 96.4171Z" fill="white"/>
<path fill-rule="evenodd" clip-rule="evenodd" d="M18.8867 59.6183L53.6055 59.5911C53.1991 56.1863 52.6527 52.9669 52.089 50.1344C51.5847 47.5934 51.067 45.3626 50.6227 43.5925C50.5975 43.4934 50.5728 43.3958 50.5484 43.2997C50.4767 43.0164 50.4082 42.746 50.3399 42.4884C49.7977 40.4007 49.4216 39.1853 49.4216 39.1853H23.0718C23.0718 39.1853 22.693 40.4095 22.1492 42.5083C21.8282 43.7375 21.4512 45.2689 21.0586 47.031C20.9056 47.7196 20.7507 48.4424 20.5941 49.1994C19.9635 52.258 19.3386 55.8236 18.8867 59.6183Z" fill="#4A8FFF"/>
<g opacity="0.35">
<path opacity="0.35" d="M38.9673 96.8555C39.9878 99.0828 43.8549 99.5155 46.6541 99.8804C52.842 100.687 56.2752 99.6394 56.765 96.7002C51.6994 98.7125 42.7701 97.5632 41.2433 95.0103C39.2661 91.7042 38.9474 88.3999 42.0209 84.2805C45.0944 80.161 45.3324 74.7863 45.3324 74.7863C43.8634 75.8682 40.8408 77.0434 38.7713 77.7772C38.9787 83.5467 36.9457 92.4414 38.9673 96.8555Z" fill="#371A45"/>
</g>
<g opacity="0.35">
<path opacity="0.35" d="M15.7319 96.7105C16.2267 99.641 19.6599 100.687 25.8398 99.8804C28.6386 99.5155 32.5076 99.0828 33.5282 96.8555C35.5647 92.4089 33.4853 83.4105 33.7271 77.646C32.0144 77.1104 28.8441 76.0147 27.1741 74.7863C27.1741 74.7863 26.3323 78.6502 29.914 83.9361C32.8034 88.1999 33.0135 91.5921 31.0367 94.8963C29.6346 97.2411 21.3004 98.2044 15.7319 96.7105Z" fill="#371A45"/>
</g>
<path d="M50.8107 43.5453C51.4483 45.4512 51.9702 47.3924 52.434 49.3465C52.6636 50.3244 52.8801 51.306 53.0719 52.2923C53.1668 52.7854 53.2666 53.2782 53.3558 53.7725L53.6064 55.2591C53.6929 55.7542 53.7687 56.2515 53.8418 56.7488L54.0626 58.2409C54.1291 58.7392 54.1918 59.2383 54.2504 59.7382C54.3151 60.2356 54.3652 60.7379 54.4131 61.2387C54.6354 63.2391 54.7479 65.2522 54.834 67.2649C54.8792 69.2795 54.914 71.2971 54.7999 73.3148L54.7644 74.0711L54.7471 74.4495L54.7158 74.8271L54.5899 76.3382C54.5034 77.3444 54.3821 78.3345 54.2734 79.3322C53.816 83.3155 53.3058 87.29 52.7428 91.2557L52.3494 90.6191C52.6207 90.7136 52.8469 90.8104 53.0906 90.9164C53.3344 91.0224 53.5617 91.1371 53.792 91.2584C54.2562 91.504 54.7006 91.7854 55.121 92.1001C55.5539 92.421 55.9489 92.7901 56.2984 93.2003C56.6632 93.6285 56.9519 94.1161 57.1518 94.6418C57.3507 95.1839 57.4329 95.7618 57.3928 96.3378C57.3593 96.9092 57.2127 97.4684 56.9616 97.9828C56.6997 98.5017 56.3262 98.9562 55.8679 99.3138C55.4299 99.6551 54.9407 99.9251 54.4184 100.114C53.4048 100.491 52.3659 100.634 51.3442 100.698C50.3209 100.755 49.3069 100.721 48.3024 100.643C47.8008 100.6 47.2999 100.552 46.8028 100.488L45.325 100.297C44.3366 100.158 43.3382 99.9978 42.3429 99.7319C41.837 99.5996 41.3414 99.4304 40.8601 99.2258C40.3722 99.0127 39.8901 98.748 39.4497 98.3883C39.2265 98.2031 39.0232 97.9951 38.8432 97.7678C38.6618 97.5352 38.5118 97.2797 38.397 97.008C38.1735 96.5168 38.0273 96.0091 37.8995 95.503C37.6581 94.4877 37.5551 93.4685 37.5084 92.4585C37.4618 91.4485 37.4759 90.4435 37.5161 89.4458C37.598 87.4496 37.784 85.4747 37.9443 83.5103C38.1046 81.5458 38.2539 79.5859 38.1827 77.6638L38.8374 78.2186C38.3931 78.2691 37.9726 78.3008 37.5398 78.3249C37.107 78.349 36.6788 78.3601 36.2464 78.3609C35.814 78.3616 35.3832 78.3483 34.9531 78.3249C34.523 78.3016 34.1001 78.2691 33.6559 78.2186L34.3106 77.6638C34.239 79.5859 34.3921 81.5481 34.549 83.5103C34.7059 85.4725 34.8934 87.4507 34.9768 89.4458C35.0173 90.4435 35.0319 91.4474 34.9844 92.4585C34.937 93.4697 34.8352 94.4861 34.5934 95.503C34.4663 96.0091 34.3205 96.5168 34.0959 97.008C33.9808 97.2797 33.8307 97.5351 33.6493 97.7678C33.4694 97.9952 33.2661 98.2032 33.0428 98.3883C32.6024 98.748 32.1203 99.0127 31.6327 99.2258C31.1524 99.4292 30.6578 99.5975 30.153 99.7292C29.1581 99.9951 28.1594 100.156 27.171 100.294L25.6928 100.485C25.1953 100.549 24.6948 100.597 24.1931 100.641C23.1887 100.717 22.175 100.752 21.1514 100.695C20.1301 100.631 19.0912 100.488 18.0771 100.111C17.5548 99.9224 17.0656 99.6524 16.6276 99.3111C16.1694 98.9535 15.7959 98.499 15.534 97.9801C15.2828 97.4657 15.1364 96.9066 15.1031 96.3351C15.0631 95.7592 15.1451 95.1813 15.3438 94.6392C15.544 94.1136 15.8326 93.626 16.1971 93.1977C16.5458 92.7874 16.94 92.4181 17.3723 92.097C17.7927 91.7823 18.237 91.5009 18.7012 91.2554C18.9308 91.134 19.1646 91.0199 19.4026 90.9133C19.6441 90.8062 19.8722 90.7106 20.1439 90.6161L19.7512 91.2554C19.1882 87.2539 18.6748 83.2482 18.2111 79.2381C18.1012 78.2323 17.9795 77.2358 17.8923 76.2193C17.8514 75.7116 17.7943 75.2047 17.7672 74.6966L17.6811 73.1721C17.6015 71.1384 17.6126 69.105 17.6933 67.0763C17.7741 65.0475 17.9317 63.0233 18.1422 61.0068C18.1885 60.5022 18.2478 59.9988 18.3063 59.4953C18.3649 58.9918 18.4211 58.4884 18.4889 57.9861C18.6136 56.9803 18.7498 55.976 18.9067 54.9749C19.2159 52.9679 19.5917 50.9885 20.062 48.9999C20.1852 48.5069 20.3166 48.0172 20.4561 47.5308C20.5923 47.0423 20.7389 46.5572 20.8923 46.0733C21.2027 45.1069 21.534 44.144 21.9584 43.2113C21.9785 43.1678 22.0139 43.1332 22.0578 43.114C22.1017 43.0949 22.1512 43.0924 22.1967 43.1072C22.2423 43.122 22.2809 43.153 22.3051 43.1943C22.3294 43.2356 22.3377 43.2844 22.3284 43.3314V43.3341C21.924 45.3009 21.5524 47.2783 21.161 49.2455C20.8104 51.205 20.4607 53.194 20.1362 55.1704C19.4773 59.1276 19.0143 63.1213 18.8608 67.1237C18.7812 69.1242 18.7705 71.1261 18.8486 73.1231C18.9266 75.1202 19.144 77.0999 19.372 79.1065C19.8289 83.1056 20.3409 87.1 20.908 91.0897L20.975 91.566L20.5158 91.7263C20.3206 91.7944 20.0918 91.8881 19.8825 91.9818C19.6732 92.0756 19.4585 92.1804 19.2519 92.2879C18.8417 92.5041 18.4491 92.752 18.0775 93.0293C17.3463 93.5768 16.7286 94.2589 16.4405 95.0409C16.2979 95.4292 16.2393 95.8433 16.2687 96.2559C16.2917 96.6733 16.3973 97.082 16.5794 97.4583C16.9395 98.1852 17.647 98.7108 18.4904 99.0188C19.3322 99.3337 20.2728 99.4718 21.2195 99.5299C22.1662 99.5881 23.1355 99.5517 24.1009 99.4767C24.5834 99.435 25.0667 99.3891 25.5493 99.3264L27.0106 99.1351C27.9788 99.0005 28.9354 98.8444 29.8503 98.5995C30.7572 98.3535 31.6488 98.0192 32.3032 97.4828C32.46 97.352 32.6034 97.2058 32.731 97.0463L32.819 96.9269L32.8955 96.8026C32.9209 96.7611 32.9439 96.7182 32.9644 96.674L32.9981 96.6098L33.0302 96.5313C33.2173 96.1228 33.3463 95.6763 33.4596 95.2256C33.6761 94.3174 33.7764 93.3625 33.8192 92.4C33.8621 91.4375 33.8514 90.4634 33.8116 89.4875C33.7316 87.5364 33.5476 85.5738 33.3865 83.6002C33.2254 81.6265 33.0708 79.6394 33.145 77.6095L33.1683 76.9825L33.7997 77.0548C34.1916 77.0996 34.6106 77.1313 35.0181 77.1539C35.4256 77.1764 35.8389 77.1879 36.248 77.1883C36.657 77.1887 37.0676 77.1764 37.4778 77.1539C37.888 77.1313 38.3044 77.0996 38.6962 77.0548L39.328 76.9825L39.3509 77.6095C39.4256 79.6394 39.2664 81.6265 39.1095 83.6002C38.9526 85.5738 38.7651 87.5349 38.6847 89.4875C38.6465 90.4634 38.6312 91.4386 38.6767 92.4C38.7222 93.3614 38.8198 94.3174 39.0368 95.2256C39.1516 95.6763 39.2786 96.1228 39.4657 96.5313L39.4983 96.6098L39.5316 96.674C39.5553 96.7169 39.5725 96.762 39.6004 96.8026L39.677 96.9269L39.7654 97.0463C39.8929 97.2059 40.0362 97.3521 40.1932 97.4828C40.8483 98.0184 41.7387 98.3535 42.646 98.5995C43.5609 98.8444 44.5176 99.0005 45.4853 99.1351L46.9467 99.3264C47.4296 99.3891 47.9125 99.435 48.3954 99.4767C49.3605 99.5533 50.3263 99.5827 51.2764 99.5299C52.2266 99.4771 53.1645 99.3337 54.0059 99.0188C54.8478 98.7108 55.5565 98.1871 55.9169 97.4583C56.0989 97.0819 56.2045 96.6733 56.2276 96.2559C56.2568 95.8433 56.1983 95.4292 56.0558 95.0409C55.7673 94.2589 55.1497 93.5768 54.4188 93.0293C54.0471 92.752 53.6543 92.5041 53.2441 92.2879C53.0374 92.179 52.8273 92.077 52.6138 91.9818C52.4045 91.8881 52.1757 91.7944 51.9805 91.7263L51.5213 91.566L51.5883 91.0897C52.1452 87.1355 52.6532 83.1723 53.1124 79.2002C53.2207 78.2094 53.342 77.2132 53.427 76.2258L53.5502 74.746L53.5812 74.3761L53.5965 74.005L53.6271 73.262C53.7258 71.2826 53.691 69.2955 53.6225 67.3115C53.4312 63.3432 53.0034 59.3843 52.4229 55.4447C51.8317 51.5042 51.1165 47.5863 50.4331 43.6397C50.4252 43.5914 50.4357 43.5419 50.4626 43.5011C50.4895 43.4602 50.5307 43.4309 50.5782 43.419C50.6257 43.4071 50.6759 43.4135 50.7189 43.4369C50.7619 43.4602 50.7946 43.4989 50.8104 43.5453H50.8107Z" fill="#371A45"/>
<path d="M25.4692 86.8435C20.683 86.8435 19.0368 84.7596 18.9403 84.6319C18.8466 84.5086 18.8057 84.3531 18.8266 84.1997C18.8476 84.0463 18.9286 83.9074 19.0519 83.8137C19.1752 83.72 19.3307 83.6791 19.4842 83.7001C19.6376 83.721 19.7765 83.802 19.8702 83.9253C19.9215 83.9891 23.0558 87.7127 33.6922 84.0748C33.7647 84.05 33.8415 84.0398 33.918 84.0446C33.9945 84.0495 34.0693 84.0694 34.1382 84.1031C34.207 84.1369 34.2685 84.1839 34.3192 84.2414C34.3699 84.299 34.4087 84.3659 34.4335 84.4385C34.4583 84.511 34.4686 84.5877 34.4638 84.6642C34.4589 84.7408 34.439 84.8156 34.4052 84.8844C34.3715 84.9532 34.3245 85.0147 34.2669 85.0654C34.2094 85.1161 34.1424 85.1549 34.0698 85.1797C30.4595 86.4146 27.6404 86.8435 25.4692 86.8435Z" fill="#371A45"/>
<path d="M47.5042 87.1169C43.2185 87.1169 38.6285 85.6057 38.3365 85.5078C38.192 85.4568 38.0733 85.3512 38.0061 85.2135C37.9388 85.0759 37.9283 84.9173 37.9769 84.772C38.0255 84.6267 38.1293 84.5064 38.2659 84.4369C38.4024 84.3674 38.5609 84.3544 38.7069 84.4006C38.8103 84.4351 49.0544 87.8055 52.6054 84.5257C52.7197 84.4242 52.8693 84.3716 53.022 84.3791C53.1747 84.3866 53.3183 84.4537 53.4221 84.5659C53.5259 84.6782 53.5815 84.8267 53.5769 84.9794C53.5724 85.1322 53.5081 85.2771 53.3979 85.3831C51.9871 86.6869 49.7895 87.1169 47.5042 87.1169Z" fill="#371A45"/>
<path d="M14.2474 32.4972C14.306 32.4892 14.3625 32.4698 14.4137 32.4399C14.4648 32.4101 14.5095 32.3704 14.5453 32.3233C14.5811 32.2761 14.6072 32.2224 14.6222 32.1651C14.6372 32.1079 14.6408 32.0482 14.6327 31.9896L12.8664 19.1295C12.8501 19.0111 12.7875 18.904 12.6923 18.8318C12.597 18.7595 12.477 18.7281 12.3586 18.7443C11.7433 18.8287 11.1507 19.0335 10.6146 19.347C10.0785 19.6604 9.60944 20.0763 9.23414 20.571C8.85883 21.0657 8.58467 21.6295 8.4273 22.2301C8.26993 22.8307 8.23243 23.4564 8.31695 24.0716L8.91925 28.4569C9.00373 29.072 9.20856 29.6644 9.52204 30.2003C9.83553 30.7363 10.2515 31.2052 10.7463 31.5804C11.2411 31.9556 11.8049 32.2296 12.4056 32.3869C13.0063 32.5443 13.6322 32.5817 14.2474 32.4972Z" fill="white"/>
<path d="M13.5947 32.6459C12.4283 32.6431 11.3023 32.2189 10.4241 31.4514C9.54591 30.684 8.97481 29.625 8.81605 28.4698L8.21337 24.0844C8.12702 23.4556 8.16544 22.8159 8.32641 22.2019C8.48738 21.5879 8.76776 21.0116 9.15153 20.506C9.5353 20.0004 10.0149 19.5753 10.5631 19.255C11.1112 18.9347 11.7171 18.7255 12.3461 18.6393C12.492 18.6193 12.64 18.658 12.7574 18.7471C12.8748 18.8361 12.952 18.9681 12.9721 19.1141L14.7384 31.9741C14.7583 32.12 14.7194 32.2679 14.6304 32.3852C14.5414 32.5025 14.4095 32.5798 14.2636 32.6C14.0419 32.6305 13.8184 32.6458 13.5947 32.6459ZM12.4211 18.8436C12.4051 18.8436 12.3891 18.8448 12.3732 18.8471C11.1584 19.014 10.0596 19.6565 9.31847 20.6333C8.57735 21.61 8.25459 22.8411 8.42115 24.0557L9.02384 28.4411C9.10629 29.0428 9.30651 29.6223 9.61307 30.1466C9.91963 30.6709 10.3265 31.1297 10.8105 31.4967C11.2944 31.8638 11.846 32.1319 12.4336 32.2857C13.0213 32.4396 13.6335 32.4762 14.2352 32.3934C14.3261 32.3808 14.4082 32.3327 14.4637 32.2596C14.5191 32.1865 14.5433 32.0945 14.531 32.0036L12.7647 19.1435C12.7532 19.0609 12.7122 18.9852 12.6494 18.9303C12.5866 18.8754 12.506 18.8451 12.4226 18.8448L12.4211 18.8436Z" fill="#371A45"/>
<g opacity="0.35">
<path opacity="0.35" d="M8.63672 26.4003L8.91874 28.4573C9.08983 29.6995 9.74724 30.8229 10.7465 31.5807C11.7457 32.3384 13.005 32.6685 14.2476 32.4984C14.3661 32.4819 14.4733 32.419 14.5455 32.3237C14.6177 32.2283 14.6492 32.1081 14.633 31.9896L14.1646 28.5706C14.1403 28.654 14.0925 28.7287 14.0269 28.7856C13.9613 28.8425 13.8806 28.8793 13.7946 28.8916L13.4884 28.9325C12.5169 29.066 11.5278 28.894 10.6585 28.4403C9.78913 27.9865 9.08254 27.2736 8.63672 26.4003Z" fill="#371A45"/>
</g>
<path d="M13.593 33.1261C12.311 33.1227 11.0734 32.6562 10.1082 31.8126C9.14299 30.969 8.51527 29.805 8.34067 28.5352L7.73837 24.1499C7.64344 23.4588 7.68559 22.7559 7.86241 22.0811C8.03922 21.4064 8.34725 20.7731 8.76889 20.2174C9.19052 19.6617 9.71752 19.1944 10.3198 18.8423C10.922 18.4902 11.5878 18.2602 12.279 18.1653C12.4136 18.1466 12.5507 18.1547 12.6822 18.189C12.8137 18.2234 12.9372 18.2833 13.0455 18.3655C13.1538 18.4476 13.2449 18.5503 13.3134 18.6677C13.3819 18.785 13.4266 18.9148 13.4449 19.0495L15.2113 31.9095C15.2482 32.1812 15.1759 32.4565 15.0101 32.6749C14.8443 32.8934 14.5986 33.0372 14.327 33.0748C14.0838 33.1086 13.8385 33.1257 13.593 33.1261ZM12.3061 19.3429C11.2452 19.5235 10.2961 20.1096 9.65963 20.9772C9.02313 21.8448 8.7491 22.9259 8.89552 23.9919L9.49783 28.3772C9.64419 29.4433 10.1996 30.4107 11.0466 31.0747C11.8936 31.7387 12.9657 32.0473 14.0361 31.9351L12.3061 19.3429Z" fill="#371A45"/>
<path d="M54.8168 12.9153C54.7581 12.9233 54.7016 12.9428 54.6505 12.9726C54.5994 13.0025 54.5546 13.0421 54.5189 13.0893C54.4831 13.1364 54.4569 13.1901 54.4419 13.2474C54.4269 13.3047 54.4234 13.3643 54.4315 13.423L56.1978 26.283C56.2141 26.4014 56.2767 26.5085 56.3719 26.5808C56.4671 26.653 56.5872 26.6845 56.7056 26.6682C57.3209 26.5838 57.9135 26.379 58.4495 26.0656C58.9856 25.7521 59.4547 25.3362 59.83 24.8415C60.2053 24.3468 60.4795 23.7831 60.6369 23.1824C60.7942 22.5818 60.8317 21.9561 60.7472 21.341L60.1449 16.956C59.9743 15.7138 59.3171 14.5902 58.3179 13.8324C57.3187 13.0746 56.0593 12.7447 54.8168 12.9153Z" fill="white"/>
<path d="M56.6432 26.7773C56.509 26.7772 56.3795 26.7285 56.2784 26.6402C56.1774 26.552 56.1118 26.4301 56.0937 26.2972L54.3273 13.4372C54.3075 13.2913 54.3463 13.1434 54.4354 13.0261C54.5244 12.9088 54.6563 12.8315 54.8022 12.8113C55.4312 12.7249 56.0711 12.7633 56.6852 12.9242C57.2994 13.0851 57.8758 13.3654 58.3816 13.7491C58.8873 14.1328 59.3125 14.6124 59.6329 15.1604C59.9532 15.7084 60.1624 16.3142 60.2486 16.943L60.8509 21.3284C60.9373 21.9573 60.8989 22.597 60.7379 23.211C60.577 23.825 60.2966 24.4013 59.9128 24.9069C59.5291 25.4126 59.0494 25.8377 58.5012 26.158C57.9531 26.4782 57.3472 26.6874 56.7182 26.7735C56.6933 26.7766 56.6682 26.7779 56.6432 26.7773ZM54.8309 13.0202C54.7401 13.0328 54.658 13.0809 54.6026 13.1539C54.5472 13.2269 54.5229 13.3188 54.5351 13.4096L56.3015 26.2701C56.3075 26.3151 56.3224 26.3586 56.3453 26.3979C56.3682 26.4371 56.3986 26.4715 56.4349 26.499C56.4711 26.5264 56.5124 26.5464 56.5565 26.5578C56.6005 26.5692 56.6464 26.5718 56.6914 26.5654C57.9063 26.3985 59.0051 25.756 59.7462 24.7792C60.4872 23.8024 60.8099 22.5713 60.6431 21.3567L60.0408 16.9714C59.874 15.7567 59.2314 14.658 58.2543 13.917C57.2773 13.1761 56.0459 12.8535 54.8309 13.0202Z" fill="#371A45"/>
<g opacity="0.35">
<path opacity="0.35" d="M55.707 22.7156L56.1972 26.2831C56.2137 26.4016 56.2766 26.5087 56.372 26.5809C56.4674 26.6531 56.5876 26.6845 56.7061 26.6683C57.3214 26.5841 57.914 26.3795 58.4501 26.0662C58.9862 25.7529 59.4553 25.337 59.8305 24.8424C60.2058 24.3478 60.4799 23.7841 60.6371 23.1835C60.7944 22.5829 60.8317 21.9572 60.747 21.3422L60.4933 19.4944C60.2341 20.3654 59.7293 21.1434 59.0394 21.7351C58.3495 22.3269 57.5037 22.7074 56.6032 22.8311L56.1337 22.8954C56.053 22.9064 55.9708 22.8955 55.8957 22.8639C55.8207 22.8323 55.7555 22.7811 55.707 22.7156Z" fill="#371A45"/>
</g>
<path d="M56.6434 27.2565C56.3936 27.2559 56.1523 27.1651 55.9641 27.0009C55.7759 26.8366 55.6534 26.6099 55.6191 26.3625L53.8527 13.5024C53.8158 13.2308 53.8881 12.9555 54.0538 12.7371C54.2195 12.5187 54.465 12.3748 54.7366 12.3371C55.4278 12.2422 56.1309 12.2843 56.8058 12.4611C57.4807 12.6379 58.1142 12.9458 58.67 13.3674C59.2259 13.7889 59.6932 14.3158 60.0454 14.9179C60.3976 15.5201 60.6277 16.1856 60.7226 16.8767L61.3252 21.2621C61.5169 22.6574 61.1464 24.0718 60.2952 25.1941C59.444 26.3164 58.1818 27.0548 56.7862 27.2469C56.7389 27.2534 56.6912 27.2566 56.6434 27.2565ZM55.0278 13.4795L56.7578 26.0717C57.8188 25.8911 58.7679 25.305 59.4044 24.4374C60.0409 23.5698 60.3149 22.4887 60.1685 21.4227L59.5662 17.0373C59.4198 15.9713 58.8644 15.0039 58.0174 14.3399C57.1704 13.6759 56.0983 13.3673 55.0278 13.4795Z" fill="#371A45"/>
<g opacity="0.35">
<path opacity="0.35" d="M17.7412 42.3957C18.1323 42.805 18.5366 43.1986 18.9542 43.5763C23.1752 47.3994 28.6552 49.5367 34.3506 49.5811C40.046 49.6256 45.5587 47.5741 49.8388 43.8173C50.0712 43.6133 50.2988 43.4042 50.5215 43.1899C51.1752 42.5678 51.7913 41.9075 52.3667 41.2124C52.7238 40.7847 53.0629 40.3444 53.3838 39.8914C52.652 39.0692 51.7545 38.411 50.7503 37.9601C49.7461 37.5092 48.6579 37.2757 47.5571 37.275H25.0817C21.7262 37.275 18.8456 39.4136 17.7412 42.3957Z" fill="#371A45"/>
</g>
<path d="M34.5294 44.8274C46.749 44.8274 56.655 34.9237 56.655 22.7069C56.655 10.4901 46.749 0.586426 34.5294 0.586426C22.3098 0.586426 12.4038 10.4901 12.4038 22.7069C12.4038 34.9237 22.3098 44.8274 34.5294 44.8274Z" fill="white"/>
<path d="M34.4844 44.9391C30.2189 44.9391 26.0411 43.7065 22.3848 41.3223C17.4102 38.0793 13.9985 33.0937 12.7755 27.2844C11.5525 21.4751 12.6653 15.5395 15.9091 10.5661C19.1529 5.59273 24.1396 2.18099 29.9503 0.957916C41.945 -1.56704 53.7577 6.13674 56.2828 18.1291C58.808 30.1215 51.1028 41.931 39.1073 44.4556C37.5872 44.7762 36.0379 44.9383 34.4844 44.9391ZM34.5345 0.688586C33.0085 0.689123 31.4866 0.848235 29.9935 1.16335C24.2376 2.37457 19.2983 5.75417 16.0851 10.6797C12.8719 15.6053 11.7691 21.4869 12.9806 27.2411C14.1921 32.9953 17.5725 37.9339 22.4992 41.1467C27.4259 44.3595 33.3092 45.4613 39.0648 44.2501C50.9467 41.7496 58.5803 30.0511 56.0777 18.172C53.8973 7.81737 44.7235 0.688586 34.5345 0.688586Z" fill="#371A45"/>
<g opacity="0.35">
<path opacity="0.35" d="M12.4551 24.223C12.5244 25.245 12.665 26.2609 12.876 27.2633C15.3946 39.2174 27.1277 46.8684 39.0853 44.3534C51.043 41.8384 58.695 30.105 56.1794 18.1505C56.107 17.8062 56.0263 17.4642 55.9391 17.129C56.6979 27.9729 49.3623 37.989 38.4218 40.2916C26.8101 42.7343 15.41 35.588 12.4551 24.223Z" fill="#371A45"/>
</g>
<path d="M34.4835 45.4184C30.1262 45.4184 25.8584 44.159 22.1237 41.7232C17.0432 38.4106 13.5568 33.3174 12.3074 27.383C11.058 21.4486 12.1949 15.383 15.5087 10.3036C18.8225 5.22429 23.9161 1.73871 29.8519 0.48924C42.1045 -2.08889 54.1724 5.77978 56.7526 18.0304C59.3329 30.281 51.4609 42.3453 39.2078 44.9249C37.6544 45.2524 36.0711 45.4178 34.4835 45.4184ZM34.5348 1.16753C33.042 1.168 31.5532 1.32365 30.0925 1.63197C24.4617 2.81793 19.6299 6.12294 16.4864 10.9414C13.3429 15.7598 12.2646 21.5133 13.4496 27.1428C14.6359 32.7719 17.9417 37.603 22.7612 40.7454C27.5808 43.8878 33.3363 44.9663 38.9664 43.7814C50.5899 41.3357 58.0556 29.8915 55.6093 18.2706C53.4763 8.13984 44.503 1.16753 34.5348 1.16753Z" fill="#371A45"/>
<path d="M13.0651 27.8041C13.8928 32.0529 16.0406 35.729 19.0346 38.5332C21.28 40.6354 29.3854 43.502 38.3798 41.8344C46.7194 40.2881 53.4297 34.3743 54.7219 31.5846C56.4439 27.8615 57.0561 23.6483 56.2288 19.3995C54.0385 8.15577 43.4683 5.37603 31.5474 7.69707C19.6265 10.0181 10.8748 16.5604 13.0651 27.8041Z" fill="#371A45"/>
<path d="M32.8197 42.9283C25.8672 42.9283 20.3952 40.6073 18.635 38.9584C15.4398 35.9668 13.316 32.1487 12.4906 27.9148C11.4154 22.3963 12.7998 17.7102 16.6057 13.9863C19.9245 10.7394 25.0529 8.36597 31.436 7.12301C37.8191 5.88004 43.4633 6.15588 47.7586 7.92067C52.6841 9.94407 55.7263 13.7682 56.8011 19.2868C57.6262 23.5199 57.0901 27.8563 55.2514 31.8285C53.8933 34.7617 47.1299 40.8047 38.486 42.4073C36.6171 42.7538 34.7204 42.9282 32.8197 42.9283ZM13.6375 27.6926C14.4146 31.6835 16.4194 35.2846 19.4339 38.1072C21.4356 39.9818 29.2594 42.9322 38.2737 41.2607C46.4074 39.7527 52.9604 34 54.1922 31.3396C55.9272 27.5904 56.4334 23.5015 55.6559 19.5113C54.6609 14.4025 51.8545 10.8653 47.3139 9.0018C43.2302 7.32386 37.8168 7.07098 31.6583 8.27033C25.4998 9.46969 20.5769 11.7349 17.4235 14.8222C13.916 18.2535 12.6422 22.5845 13.6375 27.6926Z" fill="#371A45"/>
<g opacity="0.7">
<path opacity="0.7" d="M21.2018 28.56C22.6619 27.9912 23.2091 25.8971 22.424 23.8827C21.6388 21.8684 19.8187 20.6966 18.3586 21.2654C16.8985 21.8343 16.3513 23.9284 17.1365 25.9427C17.9216 27.9571 19.7417 29.1289 21.2018 28.56Z" fill="white"/>
</g>
<g opacity="0.7">
<path opacity="0.7" d="M25.5518 33.4323C26.295 33.0165 26.5046 31.9774 26.0198 31.1113C25.5351 30.2453 24.5397 29.8803 23.7964 30.2961C23.0532 30.7119 22.8436 31.751 23.3284 32.6171C23.8131 33.4831 24.8085 33.8481 25.5518 33.4323Z" fill="white"/>
</g>
<g opacity="0.35">
<path opacity="0.35" d="M15.219 16.4978C13.0708 19.5285 12.1857 23.2876 13.0647 27.8035C13.8928 32.053 16.0414 35.7287 19.0341 38.5334C21.2799 40.6356 29.3861 43.5018 38.3805 41.8353C41.5566 41.2473 44.4946 40.0254 46.9903 38.5835C35.8906 40.3968 26.0092 36.8657 23.2246 34.2582C19.4233 30.7003 16.6972 26.0329 15.648 20.6414C15.3765 19.2765 15.2329 17.8893 15.219 16.4978Z" fill="#111A28"/>
</g>
<path d="M12.9992 18.1669C12.8985 18.1669 12.7995 18.1408 12.7118 18.0912C12.6241 18.0416 12.5508 17.9701 12.4989 17.8838C12.447 17.7975 12.4184 17.6992 12.4157 17.5985C12.4131 17.4978 12.4365 17.3982 12.4838 17.3092C15.3067 11.1411 22.0961 6.59731 31.1192 4.84094C40.2134 3.07041 48.2412 4.84591 53.1445 9.7118L52.7366 10.1284L52.3685 10.5818L52.7366 10.1284L52.3681 10.5814L52.3222 10.5404C47.6974 5.94962 40.0512 4.29118 31.3423 5.98788C22.682 7.67424 16.1914 11.9877 13.5346 17.8226L13.5074 17.8789L13.4504 17.9554C13.3955 18.0218 13.3266 18.0752 13.2485 18.1118C13.1705 18.1483 13.0854 18.1672 12.9992 18.1669Z" fill="#371A45"/>
<g opacity="0.7">
<path opacity="0.7" d="M52.6857 27.0318C52.6857 27.0318 54.0081 15.2621 47.1681 12.0061C40.3281 8.75003 31.7291 10.4433 32.0379 10.9556C32.0379 10.9556 42.0099 11.4062 47.2026 18.2075C51.2067 23.4525 52.6857 27.0318 52.6857 27.0318Z" fill="white"/>
</g>
<path d="M38.669 77.0622L39.491 76.8511C39.7695 76.7746 40.0504 76.7 40.3286 76.615C40.8875 76.4551 41.4426 76.2766 41.9939 76.0794C42.548 75.8881 43.0887 75.6651 43.6413 75.4493C44.1938 75.2336 44.7395 74.9937 45.3318 74.7871C44.9404 75.269 44.4877 75.6978 43.9853 76.0626C43.7377 76.2484 43.4809 76.4216 43.2158 76.5814C42.9479 76.7344 42.68 76.8874 42.4015 77.0263C41.8491 77.3079 41.2778 77.5508 40.6917 77.7532C40.0986 77.9525 39.5166 78.1189 38.8646 78.2122C38.7175 78.2321 38.5685 78.1952 38.4476 78.1091C38.3268 78.023 38.2433 77.8941 38.2141 77.7487C38.1849 77.6033 38.2121 77.4522 38.2903 77.3261C38.3684 77.2 38.4917 77.1084 38.635 77.0699L38.669 77.0622Z" fill="#371A45"/>
<path d="M33.6421 78.2122C32.9916 78.1193 32.408 77.9529 31.8149 77.7532C31.2288 77.5509 30.6575 77.308 30.1052 77.0263C29.8281 76.8886 29.5595 76.7328 29.2909 76.5814C29.0258 76.4216 28.7689 76.2484 28.5214 76.0626C28.0189 75.6978 27.5662 75.269 27.1748 74.7871C27.7672 74.9937 28.3082 75.2389 28.8654 75.4493C29.4225 75.6598 29.9586 75.8889 30.5127 76.0794C31.0668 76.2699 31.619 76.454 32.178 76.615C32.4562 76.7 32.7371 76.7726 33.0157 76.8511L33.8376 77.0622L33.8698 77.0707C34.0153 77.107 34.1413 77.1981 34.2215 77.3249C34.3016 77.4517 34.3299 77.6045 34.3003 77.7515C34.2708 77.8986 34.1857 78.0287 34.0628 78.1147C33.9398 78.2007 33.7885 78.236 33.6402 78.2134L33.6421 78.2122Z" fill="#371A45"/>
<path d="M52.0599 91.747C51.7201 91.706 51.3435 91.6678 50.9819 91.6364C50.6203 91.605 50.2507 91.5767 49.8837 91.5622C49.1505 91.5239 48.4174 91.5196 47.6842 91.5492C46.9523 91.5921 46.2234 91.6754 45.5007 91.7986C44.764 91.9414 44.0379 92.1345 43.3276 92.3767C43.8859 91.8376 44.5751 91.4287 45.3021 91.1241C46.0342 90.8326 46.8041 90.6494 47.5793 90.5239C48.3546 90.4112 49.1374 90.3586 49.9208 90.3666C50.3115 90.3743 50.7022 90.3884 51.0917 90.4286C51.4872 90.4624 51.8803 90.5191 52.2692 90.5985C52.416 90.6293 52.5453 90.7154 52.6303 90.839C52.7154 90.9626 52.7495 91.1142 52.7257 91.2623C52.702 91.4104 52.6221 91.5437 52.5027 91.6345C52.3833 91.7253 52.2335 91.7667 52.0844 91.75L52.0599 91.747Z" fill="#371A45"/>
<path d="M20.2232 90.5985C20.6121 90.5191 21.0052 90.4624 21.4007 90.4286C21.7902 90.3904 22.1809 90.3743 22.5716 90.3666C23.355 90.3586 24.1378 90.4112 24.9131 90.5239C25.6883 90.6494 26.4586 90.8326 27.1906 91.1241C27.9177 91.4302 28.6065 91.8376 29.1652 92.3767C28.4548 92.1346 27.7288 91.9415 26.992 91.7986C26.2694 91.6755 25.5404 91.5922 24.8086 91.5492C24.0759 91.5193 23.3426 91.5237 22.6087 91.5622C22.2421 91.5767 21.8755 91.6069 21.5105 91.6364C21.1454 91.6658 20.7723 91.706 20.4325 91.747L20.4103 91.75C20.2607 91.7681 20.1098 91.7276 19.9893 91.637C19.8689 91.5465 19.7881 91.4128 19.7639 91.264C19.7397 91.1153 19.774 90.9629 19.8597 90.8389C19.9453 90.7148 20.0755 90.6287 20.2232 90.5985Z" fill="#371A45"/>
<g opacity="0.35">
<path opacity="0.35" d="M45.0388 74.9832C45.0388 74.9832 40.3869 75.767 36.7941 75.767C33.2014 75.767 27.4512 74.9832 27.4512 74.9832C27.4512 74.9832 30.9035 77.756 36.408 77.6363C42.0495 77.5138 45.0388 74.9832 45.0388 74.9832Z" fill="#371A45"/>
</g>
<path d="M44.811 63.2221C47.0688 64.194 50.5629 63.9908 52.945 63.6839C53.2841 63.6401 53.6115 63.5245 53.9079 63.3439C54.2043 63.1633 54.4636 62.9213 54.6707 62.6324C54.8777 62.3434 55.0283 62.0133 55.1134 61.6615C55.1985 61.3097 55.2165 60.9433 55.1663 60.5839C55.074 59.9169 54.7521 59.3101 54.2629 58.8812C53.7737 58.4523 53.1522 58.232 52.5189 58.2629C50.2908 58.3738 46.9477 58.4258 44.8321 57.9264" fill="white"/>
<path d="M21.808 63.6847C25.0443 63.8287 28.9952 63.9506 32.9503 63.9365C33.2223 63.9365 33.4902 63.9365 33.7632 63.932C34.0363 63.9274 34.3372 63.9274 34.6217 63.9228C34.8161 63.9228 35.0054 63.9183 35.1915 63.9152L35.8649 63.9016C36.1493 63.8955 36.4337 63.8879 36.715 63.8803H36.7357C37.016 63.8727 37.3015 63.8636 37.5818 63.853C37.7679 63.8469 37.9531 63.8393 38.1351 63.8317C38.2923 63.8271 38.4454 63.8195 38.6015 63.8135C38.8446 63.8028 39.0887 63.7907 39.3255 63.7785C39.5624 63.7664 39.7765 63.7546 39.9947 63.7405C40.0394 63.7396 40.0838 63.7371 40.1271 63.7329C40.3867 63.7193 40.6442 63.7026 40.8945 63.6843C41.1448 63.6661 41.4024 63.6494 41.6506 63.6296L41.7116 63.6251C41.8523 63.6129 41.9929 63.6023 42.1253 63.5901C42.2774 63.5784 42.4356 63.5647 42.5835 63.5495C43.05 63.507 43.5081 63.4583 43.9539 63.4071C44.1928 63.3797 44.4328 63.3493 44.6676 63.3189C44.9024 63.2886 45.134 63.2551 45.3574 63.2221L45.3285 60.6796L45.2954 57.9264C43.7264 58.0555 41.9226 58.1463 40.003 58.2101C34.4179 58.3966 27.8368 58.3449 23.0409 58.2629C22.925 58.2629 22.8092 58.2599 22.6903 58.2599C20.8049 58.2622 18.9928 58.5282 17.6226 59.0037C16.2524 59.4793 15.427 60.1287 15.3145 60.8198C15.202 61.5109 15.8107 62.1918 17.0168 62.724C18.2229 63.2561 19.9358 63.5995 21.807 63.6843L21.808 63.6847Z" fill="white"/>
<g opacity="0.35">
<path opacity="0.35" d="M17.7654 63.7511C18.9627 63.8961 47.7483 64.0189 49.2115 64.0048C49.3126 64.0048 49.4117 64.0048 49.5123 64.0002C49.613 63.9956 49.7247 63.9956 49.8303 63.991C49.9019 63.991 49.9723 63.9864 50.0412 63.9833L50.2899 63.9696C50.3955 63.9634 50.5007 63.9558 50.6044 63.9481H50.6121C50.7162 63.9405 50.8214 63.9313 50.9255 63.9206C50.994 63.9145 51.0628 63.9068 51.1298 63.8992C51.188 63.8946 51.2446 63.8869 51.3024 63.8808C51.3927 63.8701 51.4826 63.8578 51.5702 63.846C51.6579 63.8341 51.7367 63.8215 51.8178 63.8077C51.8342 63.8068 51.8505 63.8042 51.8664 63.8001C51.9629 63.7863 52.0578 63.7695 52.1507 63.7511C52.2437 63.7328 52.3386 63.7159 52.4301 63.696L52.453 63.6914C52.5051 63.6792 52.5567 63.6689 52.6061 63.6566C52.6627 63.6444 52.7209 63.6306 52.7756 63.6153C52.9482 63.5725 53.1177 63.5235 53.2826 63.4718C53.3714 63.4443 53.4598 63.4137 53.5471 63.3831C53.6343 63.3525 53.7196 63.3188 53.8023 63.2855L53.7916 60.8405C53.712 60.8727 53.6309 60.9048 53.5471 60.9339C53.4632 60.9629 53.3714 60.9947 53.2826 61.0223C53.1177 61.0743 52.9482 61.1232 52.7756 61.1661C52.7194 61.181 52.6608 61.1948 52.6061 61.207C52.5556 61.2193 52.5039 61.23 52.453 61.2422L52.4301 61.2468C52.3386 61.2667 52.2453 61.2851 52.1507 61.3019C52.0562 61.3187 51.9629 61.3371 51.8664 61.3505C51.8505 61.3547 51.8342 61.3572 51.8178 61.3581C51.7367 61.3719 51.6544 61.3842 51.5702 61.3964C51.4861 61.4086 51.3931 61.4209 51.3024 61.4316C51.2461 61.4377 51.1876 61.4454 51.1298 61.45C51.0628 61.4576 50.994 61.4653 50.9255 61.4714C50.8214 61.4821 50.7162 61.4913 50.6121 61.4989H50.6044C50.5007 61.5066 50.3955 61.5142 50.2899 61.5204L50.0412 61.5337C49.9723 61.5368 49.9019 61.5399 49.8303 61.5414C49.7247 61.546 49.6179 61.549 49.5123 61.5506C49.4067 61.5521 49.3126 61.5552 49.2115 61.5552C47.7483 61.5689 18.9627 61.4469 17.7654 61.3019C17.3154 61.2478 16.886 61.0827 16.5157 60.8214C16.1453 60.5602 15.8458 60.211 15.644 59.8053C15.4484 60.1982 15.3499 60.6322 15.3568 61.0709C15.3637 61.5097 15.4757 61.9404 15.6835 62.327C15.8914 62.7135 16.1889 63.0445 16.5511 63.2923C16.9134 63.5402 17.3298 63.6975 17.7654 63.7511Z" fill="#371A45"/>
</g>
<path d="M21.6726 64.5904C20.2752 64.5904 18.8858 64.4756 17.6953 64.331C16.8404 64.228 16.0587 63.7975 15.5147 63.1301C14.9707 62.4627 14.7069 61.6104 14.7787 60.7524C14.8504 59.8945 15.2523 59.0978 15.8996 58.53C16.5469 57.9622 17.3892 57.6675 18.2494 57.708C20.7409 57.8227 51.4894 57.861 53.6557 57.3824C53.9782 57.3112 54.7803 57.3112 55.2628 58.8595C55.7603 60.4594 55.7113 63.1443 54.0245 63.8271C52.6129 64.3991 23.475 64.5904 21.6726 64.5904ZM18.0917 58.8717C17.5426 58.8734 17.0147 59.0842 16.6156 59.4613C16.2165 59.8384 15.9761 60.3534 15.9435 60.9014C15.9108 61.4494 16.0883 61.9893 16.4397 62.4111C16.7912 62.8329 17.2903 63.105 17.8354 63.1718C20.4244 63.4851 51.3119 63.6653 53.5856 62.7449C54.1726 62.5073 54.3154 61.5566 54.3509 61.1587C54.4596 59.8921 54.059 58.7719 53.8279 58.5401C51.5338 59.0294 20.7286 58.9926 18.1966 58.874C18.1602 58.8721 18.1258 58.8717 18.0917 58.8717Z" fill="#371A45"/>
<path d="M32.4827 62.2212C33.4537 61.2504 33.4537 59.6764 32.4827 58.7056C31.5116 57.7347 29.9373 57.7347 28.9662 58.7056C27.9952 59.6764 27.9952 61.2504 28.9662 62.2212C29.9373 63.192 31.5116 63.192 32.4827 62.2212Z" fill="#FF4444"/>
<path d="M28.2376 60.4645C28.2372 60.5971 28.248 60.7296 28.2697 60.8604C28.3649 60.2781 28.664 59.7486 29.1137 59.3665C29.5634 58.9844 30.1343 58.7746 30.7245 58.7746C31.3146 58.7746 31.8856 58.9844 32.3353 59.3665C32.7849 59.7486 33.0841 60.2781 33.1792 60.8604C33.201 60.7296 33.2117 60.5971 33.2114 60.4645C33.2114 59.805 32.9493 59.1725 32.4829 58.7061C32.0164 58.2398 31.3838 57.9778 30.7241 57.9778C30.0644 57.9778 29.4318 58.2398 28.9653 58.7061C28.4989 59.1725 28.2368 59.805 28.2368 60.4645H28.2376Z" fill="white"/>
<g opacity="0.35">
<path opacity="0.35" d="M28.2401 60.463C28.2292 60.7963 28.2854 61.1283 28.4054 61.4394C28.5254 61.7505 28.7067 62.0343 28.9387 62.2739C29.1706 62.5135 29.4483 62.704 29.7554 62.8341C30.0624 62.9642 30.3925 63.0313 30.726 63.0313C31.0595 63.0313 31.3896 62.9642 31.6967 62.8341C32.0038 62.704 32.2815 62.5135 32.5134 62.2739C32.7453 62.0343 32.9267 61.7505 33.0467 61.4394C33.1667 61.1283 33.2229 60.7963 33.212 60.463C33.2127 60.1551 33.1547 59.8499 33.0413 59.5636C32.8598 60.0299 32.5417 60.4305 32.1286 60.7129C31.7155 60.9954 31.2267 61.1465 30.7262 61.1465C30.2258 61.1465 29.737 60.9954 29.3239 60.7129C28.9108 60.4305 28.5927 60.0299 28.4112 59.5636C28.2978 59.8499 28.2397 60.1551 28.2401 60.463Z" fill="#371A45"/>
</g>
<path d="M30.724 63.3872C30.1455 63.3872 29.58 63.2157 29.0991 62.8944C28.6181 62.5731 28.2433 62.1165 28.0219 61.5821C27.8006 61.0478 27.7427 60.4599 27.8555 59.8927C27.9684 59.3255 28.247 58.8045 28.6561 58.3956C29.0651 57.9867 29.5863 57.7082 30.1536 57.5954C30.721 57.4827 31.309 57.5406 31.8434 57.762C32.3778 57.9834 32.8346 58.3582 33.1559 58.8391C33.4772 59.32 33.6487 59.8853 33.6486 60.4637C33.6477 61.2388 33.3393 61.982 32.791 62.5301C32.2427 63.0782 31.4993 63.3864 30.724 63.3872ZM30.724 58.4139C30.3188 58.4139 29.9227 58.534 29.5857 58.759C29.2488 58.9841 28.9862 59.304 28.8312 59.6783C28.6761 60.0526 28.6355 60.4644 28.7146 60.8617C28.7936 61.2591 28.9888 61.624 29.2753 61.9105C29.5618 62.1969 29.9269 62.392 30.3243 62.471C30.7217 62.5501 31.1336 62.5095 31.508 62.3545C31.8823 62.1995 32.2023 61.9369 32.4274 61.6001C32.6526 61.2632 32.7727 60.8672 32.7727 60.4621C32.7718 59.9193 32.5556 59.399 32.1715 59.0153C31.7875 58.6316 31.2669 58.4159 30.724 58.4154V58.4139Z" fill="#371A45"/>
<path d="M56.9327 41.9966C58.3102 47.7145 64.0807 47.1816 65.6687 46.7952C68.9814 45.9887 70.1179 42.8678 70.1179 42.8678L67.4462 39.3374L66.258 37.428L64.8391 37.0014C63.7241 34.9696 61.3489 32.6654 59.9851 33.4784C59.9851 33.4776 55.7445 37.068 56.9327 41.9966Z" fill="white"/>
<g opacity="0.35">
<path opacity="0.35" d="M70.6098 41.0219C70.6098 42.8036 68.2756 44.4199 63.2506 43.8342C61.4808 43.628 60.0244 42.39 60.0244 40.6084C60.0244 39.7529 60.3643 38.9325 60.9693 38.3275C61.5743 37.7226 62.3949 37.3827 63.2506 37.3826C65.0326 37.3826 70.6098 39.2403 70.6098 41.0219Z" fill="#371A45"/>
</g>
<path d="M70.4324 35.2568C69.1133 36.5804 67.9581 37.5564 67.9581 37.5564L64.2559 41.3438L61.7571 35.2434C61.7571 35.2434 61.7426 34.0123 61.8386 32.3825C62.0258 29.1559 62.6403 24.3696 64.6347 24.4932C68.2217 24.7162 65.8485 34.1603 65.8485 34.1603C65.8485 34.1603 71.5746 26.5277 73.8678 28.6957C75.2102 29.9647 72.5993 33.0807 70.4324 35.2568Z" fill="white"/>
<g opacity="0.35">
<path opacity="0.35" d="M70.4324 35.2566C69.1133 36.5802 67.9581 37.5562 67.9581 37.5562L64.2559 41.3436L61.7571 35.2432C61.7571 35.2432 61.7426 34.0121 61.8386 32.3823C62.7999 33.1421 64.5938 34.5213 65.2206 35.3426C66.3008 36.7578 68.9848 34.9769 70.4324 35.2566Z" fill="#371A45"/>
</g>
<path d="M64.2553 41.9287C64.1395 41.9283 64.0264 41.8936 63.9302 41.8291C63.8341 41.7646 63.7592 41.673 63.715 41.566L61.2166 35.464C61.1888 35.3958 61.174 35.323 61.173 35.2494C61.163 34.3584 61.1366 26.4836 63.2776 24.451C63.6828 24.0662 64.1677 23.8802 64.6728 23.9108C65.3715 23.9545 65.9623 24.2804 66.3817 24.8539C67.5274 26.4201 67.2595 29.7002 66.8903 31.9696C68.4209 30.2282 70.7999 27.8949 72.663 27.7361C73.2848 27.683 73.8428 27.8693 74.2702 28.2744C74.6448 28.6287 74.8346 29.1096 74.8189 29.6654C74.7405 32.4831 69.107 37.3501 68.3574 37.9855L64.6732 41.7512C64.6189 41.8071 64.5539 41.8517 64.4822 41.8822C64.4104 41.9127 64.3333 41.9285 64.2553 41.9287ZM62.3401 35.1258L64.4592 40.3012L67.5404 37.1477C67.5534 37.1347 67.5672 37.1221 67.5813 37.1095C69.9022 35.1476 73.6024 31.3824 73.651 29.6306C73.6591 29.3403 73.5569 29.2052 73.467 29.1207C73.2795 28.9431 73.0545 28.872 72.7606 28.8972C70.8056 29.0633 67.4447 33.006 66.3147 34.5114C66.2338 34.6191 66.118 34.6955 65.9871 34.7276C65.8562 34.7597 65.7182 34.7456 65.5966 34.6876C65.4749 34.6295 65.3771 34.5312 65.3197 34.4093C65.2623 34.2874 65.2488 34.1494 65.2816 34.0187C65.7331 32.2206 66.6415 27.1891 65.4369 25.5421C65.2203 25.246 64.954 25.098 64.5985 25.0758C64.4837 25.0685 64.3047 25.0838 64.0804 25.2969C62.6026 26.7017 62.324 32.7608 62.3401 35.1258Z" fill="#371A45"/>
<path d="M70.7952 42.2075C69.9151 43.6357 66.1869 44.3021 64.8024 43.229C63.6246 42.315 64.8024 41.1505 65.1361 40.8544C65.1882 40.8073 65.2207 40.7828 65.2207 40.7828C65.2207 40.7828 63.7876 40.3437 63.537 39.1378C63.52 39.0569 63.5091 38.9748 63.5045 38.8922C63.4165 37.5 67.1351 36.2984 68.8234 36.57C70.0862 36.7731 70.5672 37.2869 70.6858 37.8367C70.8128 38.4224 70.5281 39.0483 70.3379 39.3834C70.2499 39.5364 70.1849 39.6275 70.1849 39.6275C70.1849 39.6275 71.4997 41.0644 70.7952 42.2075Z" fill="white"/>
<g opacity="0.35">
<path opacity="0.35" d="M70.3379 39.3827C69.3407 39.8935 67.3413 40.7619 65.1338 40.8545C65.1858 40.8074 65.2184 40.7829 65.2184 40.7829C65.2184 40.7829 63.7853 40.3437 63.5347 39.1379C64.8571 39.4275 68.5092 39.9795 70.6838 37.8372C70.8128 38.4229 70.5281 39.0476 70.3379 39.3827Z" fill="#371A45"/>
</g>
<g opacity="0.35">
<path opacity="0.35" d="M70.7954 42.2076C69.9153 43.6357 66.1871 44.3022 64.8026 43.2291C64.2237 42.7799 64.2137 42.2726 64.3928 41.8335C64.4619 41.9093 64.5376 41.979 64.619 42.0416C66.0015 43.1151 69.7316 42.4482 70.6102 41.022C70.6972 40.8825 70.7578 40.7282 70.7889 40.5668C71.0086 41.0561 71.1291 41.6644 70.7954 42.2076Z" fill="#371A45"/>
</g>
<path d="M66.8295 44.3442C65.8441 44.3442 64.9973 44.1189 64.4451 43.6908C63.8356 43.2179 63.707 42.6823 63.7062 42.3162C63.7062 41.7867 63.9645 41.3112 64.2389 40.9566C63.6649 40.5973 62.9876 39.9592 62.9222 38.929C62.9004 38.5915 62.9987 38.0762 63.5899 37.5395C64.8355 36.4082 67.5232 35.7686 68.9165 35.992C70.0997 36.1833 70.855 36.6565 71.1608 37.4014C71.4998 38.2262 71.1608 39.0965 70.8929 39.5866C71.3112 40.1769 71.977 41.4019 71.2916 42.514C70.7988 43.3143 69.6225 43.9525 68.1454 44.2206C67.7113 44.3009 67.2709 44.3423 66.8295 44.3442ZM68.279 37.1137C67.0862 37.1137 65.204 37.6516 64.3759 38.4048C64.1846 38.5774 64.0809 38.7419 64.0881 38.8559C64.1501 39.8222 65.3819 40.2224 65.3945 40.2262C65.496 40.2582 65.5868 40.3172 65.6572 40.397C65.7276 40.4767 65.775 40.5741 65.7941 40.6788C65.8133 40.7834 65.8036 40.8912 65.766 40.9908C65.7284 41.0903 65.6644 41.1776 65.5809 41.2435C65.3513 41.426 64.8726 41.9321 64.8749 42.3147C64.8749 42.4141 64.9055 42.5691 65.1615 42.7676C65.6666 43.1594 66.7824 43.2814 67.9384 43.0737C69.0428 42.8732 69.9914 42.4031 70.2986 41.9038C70.7548 41.1635 69.7629 40.033 69.7522 40.022C69.6618 39.9222 69.6086 39.7942 69.6016 39.6598C69.5947 39.5253 69.6343 39.3926 69.7139 39.284C69.8716 39.0648 70.2814 38.3276 70.0817 37.8448C69.9049 37.4186 69.2505 37.2296 68.7332 37.1466C68.5829 37.1233 68.431 37.112 68.279 37.1129V37.1137Z" fill="#371A45"/>
<path d="M65.6883 41.3803C65.523 41.3803 65.3554 41.3757 65.1863 41.3653C65.1085 41.3626 65.0321 41.3443 64.9615 41.3116C64.8909 41.2789 64.8276 41.2324 64.7752 41.1749C64.7228 41.1174 64.6824 41.05 64.6565 40.9766C64.6305 40.9033 64.6195 40.8255 64.624 40.7478C64.6286 40.6702 64.6486 40.5942 64.6829 40.5244C64.7172 40.4546 64.7652 40.3923 64.8239 40.3413C64.8826 40.2903 64.951 40.2515 65.0249 40.2272C65.0988 40.203 65.1769 40.1937 65.2544 40.2C67.7635 40.3469 69.8662 39.1361 69.8869 39.1239C70.0201 39.0489 70.1774 39.0292 70.325 39.0689C70.4726 39.1086 70.5988 39.2046 70.6764 39.3363C70.754 39.4679 70.7768 39.6248 70.74 39.7731C70.7032 39.9215 70.6097 40.0495 70.4796 40.1296C70.3881 40.1824 68.3279 41.3803 65.6883 41.3803Z" fill="#371A45"/>
<path d="M59.9849 33.4781C61.7953 32.3989 65.3838 36.8064 65.4496 38.7862C65.5001 40.2962 63.7108 41.5564 61.5725 39.6279C59.4059 37.6768 57.1418 35.1733 59.9849 33.4781Z" fill="white"/>
<path d="M70.1179 42.8686C70.1179 42.8686 68.981 45.9885 65.6695 46.7949C64.0811 47.1821 58.311 47.715 56.9327 41.9964C55.7445 37.0681 59.9855 33.4781 59.9855 33.4781C61.7959 32.3989 65.3844 36.8064 65.4502 38.7862C65.5007 40.2962 63.2553 41.1528 61.3749 38.4951C61.3749 38.4951 62.3656 40.9091 60.2503 42.5564L65.2344 45.4257L69.0036 44.69L70.1179 42.8686Z" fill="white"/>
<path d="M61.2352 41.3992L61.1357 41.3425C61.2123 41.2836 61.2789 41.2277 61.3439 41.1665C61.3114 41.243 61.2758 41.3211 61.2352 41.3992Z" fill="white"/>
<g opacity="0.35">
<path opacity="0.35" d="M61.4551 38.0475C61.1899 37.0715 63.9932 39.5559 65.4519 38.9174C65.3819 40.1417 63.7682 40.8559 62.1546 39.3876C62.0566 38.6018 61.4551 38.0475 61.4551 38.0475Z" fill="#371A45"/>
</g>
<g opacity="0.35">
<path opacity="0.35" d="M68.368 44.8148L69.004 44.6912C68.3011 45.5271 67.2243 46.4166 65.6692 46.7953C64.08 47.1825 58.3099 47.7135 56.932 41.996C56.1238 38.6428 57.83 35.907 59.0029 34.5038C58.0482 36.026 57.2006 38.2246 57.8167 40.7829C59.1942 46.5011 64.9643 45.9694 66.5539 45.5822C67.1963 45.4267 67.8091 45.1675 68.368 44.8148Z" fill="#371A45"/>
</g>
<path d="M70.1164 42.8712C70.0329 43.0841 69.9351 43.2911 69.8237 43.4907L69.7261 43.5103L70.1164 42.8712Z" fill="white"/>
<path d="M69.8887 43.4775C69.8367 43.5395 69.7831 43.6031 69.7261 43.6647C69.7605 43.6046 69.793 43.546 69.8237 43.4905L69.8887 43.4775Z" fill="white"/>
<path d="M59.2479 45.9594C58.9272 45.8915 58.6229 45.7616 58.3521 45.5769C58.0802 45.3982 57.8362 45.1803 57.6281 44.9303C57.2103 44.437 56.8878 43.8704 56.6772 43.2593C56.27 42.0653 56.0534 40.7902 56.1728 39.5227C56.2838 38.2576 56.7013 37.0429 57.3009 35.956C57.6004 35.4136 57.9437 34.8964 58.3272 34.4097C58.5177 34.1664 58.7179 33.9306 58.9276 33.7023C59.0332 33.5876 59.1396 33.4762 59.2509 33.3661C59.3623 33.2559 59.469 33.1526 59.6068 33.0328C59.6278 33.0147 59.6502 32.9982 59.6738 32.9835L59.6848 32.977C60.0614 32.7501 60.519 32.695 60.8963 32.7474C61.25 32.8 61.592 32.9125 61.9077 33.0803C62.1958 33.2296 62.4695 33.4052 62.7254 33.6048C62.9737 33.7941 63.21 33.9985 63.433 34.2169C63.8721 34.644 64.2745 35.1074 64.6357 35.6022C65.0018 36.099 65.3204 36.6293 65.5869 37.186C65.7259 37.4793 65.839 37.7841 65.9252 38.0969C65.972 38.2675 66.0038 38.4418 66.0205 38.618L66.0316 38.7584C66.0316 38.8077 66.0285 38.8597 66.0259 38.9114C66.0167 39.0128 66.0213 39.1145 65.9941 39.2151C65.9267 39.6245 65.6914 40.0082 65.3818 40.2798C65.0776 40.5484 64.6991 40.7186 64.2962 40.768C64.2016 40.785 64.1054 40.7918 64.0093 40.7883C63.9148 40.7923 63.8201 40.7893 63.7261 40.7795C63.5436 40.7512 63.3561 40.7297 63.1904 40.667C63.105 40.6391 63.0186 40.6131 62.9351 40.5821L62.6994 40.4696C62.5447 40.3962 62.3968 40.3091 62.2575 40.2094C61.6999 39.8269 61.2698 39.3399 60.8967 38.8322L61.9138 38.2736C61.9562 38.3832 61.9927 38.495 62.0233 38.6084C62.0527 38.7136 62.0772 38.8188 62.0975 38.9244C62.1393 39.1356 62.1672 39.3492 62.1809 39.564C62.2045 40.0025 62.172 40.4422 62.0841 40.8724C62.0458 41.0928 61.9613 41.304 61.8744 41.5106C61.822 41.61 61.7631 41.7068 61.7072 41.8036C61.6513 41.9004 61.5713 41.9819 61.5032 42.0714C61.2181 42.4185 60.8136 42.6469 60.369 42.7118C60.34 42.7158 60.3104 42.714 60.282 42.7066C60.2536 42.6991 60.227 42.6861 60.2036 42.6683C60.1803 42.6506 60.1607 42.6284 60.1459 42.603C60.1311 42.5776 60.1215 42.5496 60.1176 42.5205C60.114 42.4935 60.1151 42.4661 60.1211 42.4394L60.1299 42.4035C60.1819 42.182 60.2695 42.0244 60.335 41.8587C60.4004 41.693 60.4812 41.5549 60.5412 41.4084C60.68 41.136 60.7989 40.854 60.8971 40.5645C60.999 40.2654 61.0393 39.9487 61.0153 39.6337C61.0048 39.4727 60.9838 39.3126 60.9526 39.1543C60.9373 39.0747 60.9189 38.9967 60.8975 38.9202C60.8787 38.8483 60.8493 38.7595 60.8336 38.7178L60.8305 38.7094C60.7812 38.5771 60.7815 38.4315 60.8311 38.2994C60.8808 38.1673 60.9766 38.0576 61.1008 37.9905C61.2251 37.9235 61.3693 37.9036 61.5071 37.9345C61.6448 37.9654 61.7667 38.0451 61.8503 38.1589C62.1626 38.5828 62.5138 38.9707 62.9137 39.2438C63.3078 39.5116 63.7586 39.6712 64.1359 39.6119C64.3121 39.5944 64.4782 39.5218 64.6108 39.4045C64.7302 39.2955 64.8247 39.1604 64.8477 38.9936C64.8633 38.9554 64.8522 38.9087 64.8595 38.867L64.8653 38.8024L64.858 38.7258C64.8471 38.6138 64.8264 38.5029 64.796 38.3945C64.7274 38.1493 64.6378 37.9105 64.5281 37.6807C64.0712 36.7242 63.3936 35.8107 62.6214 35.0578C62.2349 34.6832 61.8105 34.3458 61.375 34.1205C61.1794 34.0151 60.9676 33.9429 60.7483 33.907C60.5542 33.8825 60.4073 33.907 60.2826 33.9801L60.361 33.9242C60.2768 33.9973 60.1697 34.0998 60.074 34.1943C59.9783 34.2888 59.8808 34.3921 59.7862 34.4939C59.598 34.6982 59.4174 34.9113 59.2456 35.1308C58.9011 35.568 58.5927 36.0325 58.3234 36.5196C57.7876 37.4894 57.4299 38.5472 57.3353 39.6283C57.2316 40.7141 57.4027 41.8085 57.8328 42.8109C58.0419 43.3001 58.2889 43.7723 58.5717 44.223C58.8575 44.6721 59.1625 45.0987 59.4709 45.6427V45.6457C59.491 45.6812 59.5006 45.7217 59.4984 45.7624C59.4962 45.8031 59.4824 45.8424 59.4586 45.8755C59.4348 45.9086 59.402 45.9342 59.3641 45.9493C59.3263 45.9644 59.2848 45.9683 59.2448 45.9606L59.2479 45.9594Z" fill="#371A45"/>
<path d="M70.6662 43.0684C70.6162 43.208 70.5591 43.3451 70.4952 43.4789C70.4347 43.6063 70.3708 43.7302 70.3019 43.8507C70.2331 43.9713 70.1584 44.0883 70.0865 44.2069C70.0146 44.3255 69.9281 44.4342 69.8485 44.547L69.5913 44.873L69.312 45.179C69.1214 45.3801 68.9168 45.5675 68.6998 45.7399C68.4854 45.9145 68.2605 46.0758 68.0263 46.2227C67.7814 46.3531 67.5487 46.4989 67.2916 46.5995C66.792 46.8434 66.2294 46.9278 65.6802 46.8413C65.6664 46.8389 65.6541 46.8312 65.646 46.8198C65.6379 46.8084 65.6346 46.7943 65.637 46.7805C65.6389 46.7682 65.6452 46.7571 65.6546 46.7491L65.6572 46.7468C66.0874 46.3753 66.5083 46.1561 66.9089 45.8837C67.1167 45.7644 67.2977 45.6029 67.4879 45.4629C67.6616 45.298 67.8491 45.1542 68.0079 44.9763C68.0906 44.8913 68.174 44.8083 68.2482 44.7154C68.3225 44.6224 68.407 44.5401 68.4778 44.4476L68.6929 44.166L68.8968 43.876C69.0242 43.6767 69.1513 43.4777 69.2634 43.2715C69.3189 43.1679 69.3782 43.0665 69.4272 42.962C69.4762 42.8576 69.5336 42.7474 69.5676 42.6698L69.5829 42.6338C69.6426 42.4932 69.7551 42.3817 69.8962 42.3232C70.0373 42.2647 70.1957 42.2638 70.3375 42.3209C70.4792 42.3779 70.5928 42.4882 70.654 42.6282C70.7152 42.7681 70.719 42.9264 70.6647 43.0692L70.6662 43.0684Z" fill="#371A45"/>
<path d="M61.0476 57.5389C59.9658 57.5389 56.2908 57.2505 55.1106 53.4367C53.412 47.9483 55.9035 43.9038 56.0106 43.7343C56.0741 43.6394 56.172 43.573 56.2837 43.5492C56.3954 43.5254 56.5119 43.5461 56.6085 43.6069C56.7051 43.6678 56.7742 43.7639 56.801 43.8749C56.8277 43.9859 56.8101 44.1029 56.7519 44.2011C56.7228 44.247 54.374 48.0941 55.9483 53.1777C57.12 56.9651 61.1057 56.672 61.2745 56.659C61.3902 56.6489 61.5052 56.6851 61.5941 56.7597C61.6831 56.8343 61.7388 56.9412 61.749 57.0569C61.7591 57.1726 61.7229 57.2875 61.6483 57.3765C61.5736 57.4655 61.4667 57.5211 61.351 57.5313C61.3426 57.5305 61.2332 57.5389 61.0476 57.5389Z" fill="#371A45"/>
<path d="M19.0634 58.7632C19.0246 58.7632 18.9859 58.7579 18.9486 58.7475C14.4986 57.5321 13.3759 53.9237 13.3304 53.7707C13.2971 53.6595 13.3094 53.5396 13.3645 53.4374C13.4196 53.3353 13.513 53.2592 13.6243 53.2259C13.7355 53.1926 13.8554 53.2049 13.9576 53.26C14.0598 53.3151 14.1359 53.4085 14.1692 53.5197C14.2117 53.6586 15.2177 56.8205 19.1793 57.9028C19.2814 57.9309 19.3699 57.995 19.4284 58.0833C19.4869 58.1716 19.5114 58.2781 19.4974 58.3831C19.4834 58.488 19.4318 58.5844 19.3522 58.6543C19.2727 58.7242 19.1704 58.7629 19.0645 58.7632H19.0634Z" fill="#371A45"/>
</g>
<defs>
<clipPath id="clip0_1_404">
<rect width="75" height="105" fill="white"/>
</clipPath>
</defs>
</svg>
