<svg width="54" height="28" viewBox="0 0 54 28" fill="none" xmlns="http://www.w3.org/2000/svg">
<path d="M24.437 20.2905C27.4834 20.2905 29.293 17.9082 29.293 13.8657C29.293 9.89795 27.3672 7.72314 24.5034 7.72314C21.897 7.72314 20.0542 9.47461 20.0542 11.9233C20.0542 14.2227 21.7144 15.8994 23.9971 15.8994C25.3999 15.8994 26.5371 15.252 27.1016 14.1147H27.2427C27.2178 16.9287 26.2134 18.5391 24.4619 18.5391C23.4326 18.5391 22.6108 17.9746 22.3535 17.0615H20.2202C20.5688 19.0122 22.2456 20.2905 24.437 20.2905ZM24.5117 14.2476C23.1172 14.2476 22.1543 13.2681 22.1543 11.8569C22.1543 10.5039 23.167 9.46631 24.52 9.46631C25.873 9.46631 26.8857 10.5205 26.8857 11.8984C26.8857 13.2598 25.8979 14.2476 24.5117 14.2476Z" fill="white"/>
<path d="M50.1883 18.8138C51.7001 23.0469 48.5619 27.5 44.067 27.5H7C3.41015 27.5 0.5 24.5899 0.5 21V7C0.5 3.41015 3.41015 0.5 7 0.5H39.067C41.814 0.5 44.2644 2.22686 45.1883 4.81381L50.1883 18.8138Z" stroke="white"/>
</svg>
