<svg width="165" height="67" viewBox="0 0 165 67" fill="none" xmlns="http://www.w3.org/2000/svg">
<path d="M0 16C0 10.3995 0 7.59921 1.08993 5.46009C2.04867 3.57847 3.57847 2.04867 5.46009 1.08993C7.59921 0 10.3995 0 16 0H149C154.601 0 157.401 0 159.54 1.08993C161.422 2.04867 162.951 3.57847 163.91 5.46009C165 7.59921 165 10.3995 165 16V23.7244C165 34.1055 165 39.2961 163.043 43.3887C161.319 46.9927 158.555 49.9979 155.108 52.017C151.194 54.3099 146.021 54.744 135.676 55.6123L17.3382 65.5447C11.3202 66.0499 8.31122 66.3024 5.98986 65.2862C3.95032 64.3934 2.26705 62.8455 1.20678 60.8878C0 58.6595 0 55.64 0 49.6008V16Z" fill="#FF5555"/>
<path d="M38.8613 38C41.8691 38 43.7051 36.4766 43.7051 33.9961C43.7051 32.1602 42.3965 30.793 40.502 30.6172V30.4414C41.918 30.2168 43.0117 28.9082 43.0117 27.4238C43.0117 25.2559 41.4004 23.9082 38.7246 23.9082H32.8359V38H38.8613ZM35.3555 25.8711H38.1094C39.6328 25.8711 40.5215 26.6035 40.5215 27.8633C40.5215 29.1523 39.5742 29.8457 37.7871 29.8457H35.3555V25.8711ZM35.3555 36.0371V31.6328H38.1875C40.1113 31.6328 41.127 32.3848 41.127 33.8203C41.127 35.2656 40.1406 36.0371 38.2852 36.0371H35.3555ZM54.6914 33.3906L58.2461 38H61.1855L56.6641 32.2676L60.9805 27.3262H58.1875L54.6719 31.6133H54.1348V27.3262H51.7129V38H54.1348V33.3906H54.6914ZM67.4844 38.2148C70.6777 38.2148 72.6211 36.125 72.6211 32.6582C72.6211 29.2109 70.668 27.1211 67.4844 27.1211C64.3105 27.1211 62.3477 29.2207 62.3477 32.6582C62.3477 36.125 64.2812 38.2148 67.4844 38.2148ZM67.4844 36.2324C65.7949 36.2324 64.8281 34.9238 64.8281 32.668C64.8281 30.4121 65.7949 29.1035 67.4844 29.1035C69.1641 29.1035 70.1309 30.4121 70.1309 32.668C70.1309 34.9238 69.1738 36.2324 67.4844 36.2324ZM81.0781 27.1504C79.6133 27.1504 78.373 27.8828 77.7578 29.0938H77.5918V27.3262H75.2578V41.5449H77.6797V36.3789H77.8457C78.3926 37.5117 79.5742 38.1758 81.1074 38.1758C83.8027 38.1758 85.4824 36.0566 85.4824 32.668C85.4824 29.25 83.7832 27.1504 81.0781 27.1504ZM80.3164 36.1641C78.666 36.1641 77.6406 34.8262 77.6309 32.668C77.6406 30.5098 78.6758 29.1719 80.3262 29.1719C81.9863 29.1719 82.9922 30.4805 82.9922 32.668C82.9922 34.8555 81.9961 36.1641 80.3164 36.1641ZM91.9473 38.2051C94.6914 38.2051 96.4395 36.8379 96.4395 34.8555C96.4395 33.6445 95.7266 32.7949 94.2324 32.502V32.3359C95.3848 32.0723 96.0977 31.2031 96.0977 30.0703C96.0977 28.2539 94.5352 27.1113 92.0059 27.1113C89.3594 27.1113 87.8555 28.4102 87.6406 30.3145H89.9453C90.0723 29.5234 90.8047 29.0156 91.9277 29.0156C93.1387 29.0156 93.7246 29.5918 93.7246 30.3633C93.7246 31.252 93.1387 31.7598 91.8984 31.7598H90.375V33.4004H91.9082C93.2949 33.4004 94.0273 33.8691 94.0273 34.8262C94.0273 35.7148 93.2461 36.3105 91.918 36.3105C90.7461 36.3105 89.9355 35.8418 89.7207 34.9727H87.3574C87.5625 37.1016 89.4863 38.2051 91.9473 38.2051ZM101.508 38L106.059 30.8125H106.225V38H108.617V27.3262H106.225L101.674 34.4746H101.508V27.3262H99.1152V38H101.508ZM118.715 38H121.137V27.3262H118.715V31.5547H114.193V27.3262H111.771V38H114.193V33.4492H118.715V38ZM125.473 41.8672C127.865 41.8672 129.008 40.998 129.916 38.3711L133.773 27.3262H131.215L128.725 35.7051H128.559L126.059 27.3262H123.402L127.221 38.0391L127.094 38.5371C126.781 39.543 126.205 39.9336 125.18 39.9336C125.014 39.9336 124.652 39.9238 124.516 39.9043V41.8281C124.672 41.8574 125.326 41.8672 125.473 41.8672Z" fill="white"/>
</svg>
