<svg width="255" height="67" viewBox="0 0 255 67" fill="none" xmlns="http://www.w3.org/2000/svg">
<path d="M0 16C0 10.3995 0 7.59921 1.08993 5.46009C2.04867 3.57847 3.57847 2.04867 5.46009 1.08993C7.59921 0 10.3995 0 16 0H239C244.601 0 247.401 0 249.54 1.08993C251.422 2.04867 252.951 3.57847 253.91 5.46009C255 7.59921 255 10.3995 255 16V22.8418C255 33.5056 255 38.8376 252.966 42.9964C251.175 46.6572 248.308 49.6836 244.75 51.6703C240.708 53.9273 235.383 54.2164 224.735 54.7947L16.8677 66.0839C10.9952 66.4028 8.05892 66.5623 5.80169 65.5182C3.81766 64.6004 2.18901 63.0578 1.16501 61.1265C0 58.9292 0 55.9886 0 50.1075V16Z" fill="white"/>
<path d="M33.5547 38V23.9082H21.8359V38H24.3652V26.0469H31.0449V38H33.5547ZM41.582 38.2148C44.7754 38.2148 46.7188 36.125 46.7188 32.6582C46.7188 29.2109 44.7656 27.1211 41.582 27.1211C38.4082 27.1211 36.4453 29.2207 36.4453 32.6582C36.4453 36.125 38.3789 38.2148 41.582 38.2148ZM41.582 36.2324C39.8926 36.2324 38.9258 34.9238 38.9258 32.668C38.9258 30.4121 39.8926 29.1035 41.582 29.1035C43.2617 29.1035 44.2285 30.4121 44.2285 32.668C44.2285 34.9238 43.2715 36.2324 41.582 36.2324ZM58.584 30.8906C58.3301 28.6836 56.6699 27.1211 53.9258 27.1211C50.7129 27.1211 48.8281 29.1816 48.8281 32.6387C48.8281 36.1348 50.7227 38.2148 53.9355 38.2148C56.6406 38.2148 58.3203 36.7109 58.584 34.5039H56.2793C56.0254 35.627 55.1855 36.2227 53.9258 36.2227C52.2754 36.2227 51.2793 34.9043 51.2793 32.6387C51.2793 30.4121 52.2656 29.1035 53.9258 29.1035C55.2539 29.1035 56.0547 29.8555 56.2793 30.8906H58.584ZM63.3984 38V30.7148H63.584L66.5234 37.5215H68.2617L71.2109 30.7148H71.3867V38H73.7109V27.3262H70.6836L67.5098 34.7578H67.334L64.1699 27.3262H61.084V38H63.3984ZM81.4844 38.2148C84.6777 38.2148 86.6211 36.125 86.6211 32.6582C86.6211 29.2109 84.668 27.1211 81.4844 27.1211C78.3105 27.1211 76.3477 29.2207 76.3477 32.6582C76.3477 36.125 78.2812 38.2148 81.4844 38.2148ZM81.4844 36.2324C79.7949 36.2324 78.8281 34.9238 78.8281 32.668C78.8281 30.4121 79.7949 29.1035 81.4844 29.1035C83.1641 29.1035 84.1309 30.4121 84.1309 32.668C84.1309 34.9238 83.1738 36.2324 81.4844 36.2324ZM96.7773 27.3262H87.7734V29.2207H91.0645V38H93.4863V29.2207H96.7773V27.3262ZM104.902 27.1504C103.438 27.1504 102.197 27.8828 101.582 29.0938H101.416V27.3262H99.082V41.5449H101.504V36.3789H101.67C102.217 37.5117 103.398 38.1758 104.932 38.1758C107.627 38.1758 109.307 36.0566 109.307 32.668C109.307 29.25 107.607 27.1504 104.902 27.1504ZM104.141 36.1641C102.49 36.1641 101.465 34.8262 101.455 32.668C101.465 30.5098 102.5 29.1719 104.15 29.1719C105.811 29.1719 106.816 30.4805 106.816 32.668C106.816 34.8555 105.82 36.1641 104.141 36.1641ZM118.896 35.0801C118.545 35.8809 117.715 36.3301 116.514 36.3301C114.922 36.3301 113.896 35.1973 113.838 33.3906V33.2637H121.299V32.4922C121.299 29.1426 119.473 27.1211 116.426 27.1211C113.33 27.1211 111.406 29.2793 111.406 32.707C111.406 36.125 113.301 38.2148 116.445 38.2148C118.965 38.2148 120.752 37.0039 121.191 35.0801H118.896ZM116.416 29.0059C117.871 29.0059 118.828 30.0312 118.877 31.6523H113.848C113.955 30.0508 114.971 29.0059 116.416 29.0059ZM131.504 27.3262H122.5V29.2207H125.791V38H128.213V29.2207H131.504V27.3262ZM133.799 38H138.34C140.83 38 142.422 36.5547 142.422 34.2793C142.422 32.0039 140.83 30.5488 138.34 30.5488H136.221V27.3262H133.799V38ZM138.047 32.4238C139.238 32.4238 140.01 33.1562 140.01 34.2695C140.01 35.373 139.248 36.1152 138.047 36.1152H136.221V32.4238H138.047ZM153.242 33.3906L156.797 38H159.736L155.215 32.2676L159.531 27.3262H156.738L153.223 31.6133H152.686V27.3262H150.264V38H152.686V33.3906H153.242ZM166.035 38.2148C169.229 38.2148 171.172 36.125 171.172 32.6582C171.172 29.2109 169.219 27.1211 166.035 27.1211C162.861 27.1211 160.898 29.2207 160.898 32.6582C160.898 36.125 162.832 38.2148 166.035 38.2148ZM166.035 36.2324C164.346 36.2324 163.379 34.9238 163.379 32.668C163.379 30.4121 164.346 29.1035 166.035 29.1035C167.715 29.1035 168.682 30.4121 168.682 32.668C168.682 34.9238 167.725 36.2324 166.035 36.2324ZM179.629 27.1504C178.164 27.1504 176.924 27.8828 176.309 29.0938H176.143V27.3262H173.809V41.5449H176.23V36.3789H176.396C176.943 37.5117 178.125 38.1758 179.658 38.1758C182.354 38.1758 184.033 36.0566 184.033 32.668C184.033 29.25 182.334 27.1504 179.629 27.1504ZM178.867 36.1641C177.217 36.1641 176.191 34.8262 176.182 32.668C176.191 30.5098 177.227 29.1719 178.877 29.1719C180.537 29.1719 181.543 30.4805 181.543 32.668C181.543 34.8555 180.547 36.1641 178.867 36.1641ZM190.498 38.2051C193.242 38.2051 194.99 36.8379 194.99 34.8555C194.99 33.6445 194.277 32.7949 192.783 32.502V32.3359C193.936 32.0723 194.648 31.2031 194.648 30.0703C194.648 28.2539 193.086 27.1113 190.557 27.1113C187.91 27.1113 186.406 28.4102 186.191 30.3145H188.496C188.623 29.5234 189.355 29.0156 190.479 29.0156C191.689 29.0156 192.275 29.5918 192.275 30.3633C192.275 31.252 191.689 31.7598 190.449 31.7598H188.926V33.4004H190.459C191.846 33.4004 192.578 33.8691 192.578 34.8262C192.578 35.7148 191.797 36.3105 190.469 36.3105C189.297 36.3105 188.486 35.8418 188.271 34.9727H185.908C186.113 37.1016 188.037 38.2051 190.498 38.2051ZM200.059 38L204.609 30.8125H204.775V38H207.168V27.3262H204.775L200.225 34.4746H200.059V27.3262H197.666V38H200.059ZM217.266 38H219.688V27.3262H217.266V31.5547H212.744V27.3262H210.322V38H212.744V33.4492H217.266V38ZM224.023 41.8672C226.416 41.8672 227.559 40.998 228.467 38.3711L232.324 27.3262H229.766L227.275 35.7051H227.109L224.609 27.3262H221.953L225.771 38.0391L225.645 38.5371C225.332 39.543 224.756 39.9336 223.73 39.9336C223.564 39.9336 223.203 39.9238 223.066 39.9043V41.8281C223.223 41.8574 223.877 41.8672 224.023 41.8672Z" fill="#3B3943"/>
</svg>
