<svg width="24" height="18" viewBox="0 0 24 18" fill="none" xmlns="http://www.w3.org/2000/svg">
<path d="M17.625 0.5625V15.0938C17.625 15.3526 17.4151 15.5625 17.1562 15.5625H13.875L12.4688 17.4375H17.625C18.6605 17.4375 19.5 16.598 19.5 15.5625V0.5625H17.625Z" fill="white"/>
<path d="M15.75 15.5625V17.4375H12.4688L13.875 15.5625H15.75Z" fill="white"/>
<path d="M21.375 6.65625H23.5312V10.4062H21.375V6.65625Z" fill="white"/>
<path d="M0.46875 6.65625H2.625V10.4062H0.46875V6.65625Z" fill="white"/>
<path d="M20.4375 13.2188H13.5169C13.1618 13.2188 12.8372 13.0181 12.6784 12.7005L12.2096 11.763C11.9362 11.2072 11.126 11.2077 10.8529 11.763L10.3841 12.7005C10.2253 13.0181 9.9007 13.2188 9.54558 13.2188H3.5625C3.04472 13.2188 2.625 12.799 2.625 12.2812V4.78125C2.625 4.26347 3.04472 3.84375 3.5625 3.84375H20.4375C20.9553 3.84375 21.375 4.26347 21.375 4.78125V12.2812C21.375 12.799 20.9553 13.2188 20.4375 13.2188Z" fill="white"/>
<path d="M23.5312 6.1875H21.8438V4.78125C21.8438 4.00584 21.2129 3.375 20.4375 3.375H19.9688V0.5625C19.9688 0.303656 19.7588 0.09375 19.5 0.09375H17.625C17.3662 0.09375 17.1562 0.303656 17.1562 0.5625V3.375H3.5625C2.78709 3.375 2.15625 4.00584 2.15625 4.78125V6.1875H0.46875C0.209906 6.1875 0 6.39741 0 6.65625V10.4062C0 10.6651 0.209906 10.875 0.46875 10.875H2.15625V12.2812C2.15625 13.0567 2.78709 13.6875 3.5625 13.6875H9.54562C10.0817 13.6875 10.5636 13.3897 10.8034 12.9101L11.2722 11.9726C11.3712 11.7614 11.6914 11.7615 11.7904 11.9726L12.2592 12.9102C12.4989 13.3897 12.9809 13.6875 13.5169 13.6875H17.1562V15.0938H13.875C13.7275 15.0938 13.5885 15.1632 13.5 15.2812L12.0938 17.1562C11.9873 17.2983 11.9701 17.4883 12.0495 17.6471C12.1289 17.8059 12.2912 17.9062 12.4688 17.9062H17.625C18.9173 17.9062 19.9688 16.8548 19.9688 15.5625V13.6875H20.4375C21.2129 13.6875 21.8438 13.0567 21.8438 12.2812V10.875H23.5312C23.7901 10.875 24 10.6651 24 10.4062V6.65625C24 6.39741 23.7901 6.1875 23.5312 6.1875ZM18.0938 1.03125H19.0312V3.375H18.0938V1.03125ZM0.9375 9.9375V7.125H2.15625V9.9375H0.9375ZM19.0312 15.5625C19.0312 16.3379 18.4004 16.9688 17.625 16.9688H13.4062L14.1094 16.0312H17.1562C17.6732 16.0312 18.0938 15.6107 18.0938 15.0938V13.6875H19.0312V15.5625ZM20.9062 12.2812C20.9062 12.5397 20.696 12.75 20.4375 12.75H13.5169C13.3382 12.75 13.1775 12.6507 13.0976 12.4909L12.6289 11.5534C12.1892 10.6535 10.8731 10.6538 10.4336 11.5534L9.96492 12.4908C9.88495 12.6507 9.72427 12.75 9.54562 12.75H3.5625C3.30403 12.75 3.09375 12.5397 3.09375 12.2812V4.78125C3.09375 4.52278 3.30403 4.3125 3.5625 4.3125H20.4375C20.696 4.3125 20.9062 4.52278 20.9062 4.78125V12.2812ZM23.0625 9.9375H21.8438V7.125H23.0625V9.9375Z" fill="#3B3943"/>
<path d="M19.5 11.8125H13.6743C13.5082 11.8125 13.3545 11.7246 13.2703 11.5814L12.9441 11.0268C12.6496 10.5262 12.1121 10.2188 11.5312 10.2188C10.9504 10.2188 10.4129 10.5262 10.1184 11.0268L9.79219 11.5815C9.70795 11.7246 9.55425 11.8125 9.38817 11.8125H4.5C4.24111 11.8125 4.03125 11.6027 4.03125 11.3438V5.71875C4.03125 5.45986 4.24111 5.25 4.5 5.25H19.5C19.7589 5.25 19.9688 5.45986 19.9688 5.71875V11.3438C19.9688 11.6026 19.7589 11.8125 19.5 11.8125Z" fill="white"/>
</svg>
