<svg width="26" height="28" viewBox="0 0 26 28" fill="none" xmlns="http://www.w3.org/2000/svg">
<path d="M18.6309 14.9042C18.4043 14.9042 18.2206 15.0878 18.2206 15.3145V24.5928C18.2206 26.0191 17.0603 27.1796 15.634 27.1796H4.16203C2.73572 27.1796 1.57535 26.0191 1.57535 24.5928V9.25473C1.57535 7.82842 2.73572 6.66801 4.16203 6.66801H5.53396C5.76052 6.66801 5.9442 6.48438 5.9442 6.25777C5.9442 6.03116 5.76052 5.84753 5.53396 5.84753H4.16203C2.28331 5.84753 0.754883 7.37596 0.754883 9.25473V24.5928C0.754883 26.4716 2.28331 28 4.16203 28H15.634C17.5127 28 19.0411 26.4716 19.0411 24.5928V15.3145C19.0411 15.0879 18.8575 14.9042 18.6309 14.9042Z" fill="#3B3943"/>
<path d="M9.89819 26.4835C12.0487 26.4835 13.7983 24.7339 13.7983 22.5834C13.7983 20.4328 12.0488 18.6832 9.89819 18.6832C7.74762 18.6832 5.99805 20.4328 5.99805 22.5834C5.99805 24.7339 7.74762 26.4835 9.89819 26.4835ZM9.89819 19.5037C11.5963 19.5037 12.9779 20.8852 12.9779 22.5834C12.9779 24.2815 11.5964 25.663 9.89819 25.663C8.20003 25.663 6.81852 24.2815 6.81852 22.5834C6.81852 20.8852 8.20003 19.5037 9.89819 19.5037Z" fill="#3B3943"/>
<path d="M9.89803 22.1087C10.1246 22.1087 10.3083 21.9251 10.3083 21.6985V20.6467C10.3083 20.4201 10.1246 20.2365 9.89803 20.2365C9.67147 20.2365 9.48779 20.4201 9.48779 20.6467V21.6985C9.48779 21.9251 9.67147 22.1087 9.89803 22.1087Z" fill="#3B3943"/>
<path d="M9.89821 24.8512C11.1487 24.8512 12.166 23.8338 12.166 22.5833C12.166 22.0711 11.9893 21.5684 11.6685 21.1678C11.5268 20.9911 11.2687 20.9624 11.0918 21.1041C10.915 21.2457 10.8864 21.504 11.0281 21.6807C11.2357 21.9401 11.3455 22.2521 11.3455 22.5833C11.3455 23.3814 10.6963 24.0307 9.89821 24.0307C9.10011 24.0307 8.45084 23.3814 8.45084 22.5833C8.45084 22.2521 8.56062 21.9401 8.76831 21.6807C8.90992 21.504 8.88137 21.2457 8.70453 21.1041C8.52769 20.9624 8.26952 20.9911 8.12791 21.1678C7.80705 21.5684 7.63037 22.0711 7.63037 22.5833C7.63037 23.8338 8.6477 24.8512 9.89821 24.8512Z" fill="#3B3943"/>
<path d="M9.74178 17.0078C9.51522 17.0078 9.33154 17.1914 9.33154 17.418C9.33154 17.6447 9.51522 17.8283 9.74178 17.8283H10.0621C10.2887 17.8283 10.4723 17.6447 10.4723 17.418C10.4723 17.1914 10.2887 17.0078 10.0621 17.0078H9.74178Z" fill="#3B3943"/>
<path d="M6.89559 17.8283H7.2159C7.44246 17.8283 7.62614 17.6447 7.62614 17.418C7.62614 17.1914 7.44246 17.0078 7.2159 17.0078H6.89559C6.66903 17.0078 6.48535 17.1914 6.48535 17.418C6.48535 17.6447 6.66903 17.8283 6.89559 17.8283Z" fill="#3B3943"/>
<path d="M12.6021 17.8283H12.9224C13.149 17.8283 13.3327 17.6447 13.3327 17.418C13.3327 17.1914 13.149 17.0078 12.9224 17.0078H12.6021C12.3756 17.0078 12.1919 17.1914 12.1919 17.418C12.1919 17.6447 12.3755 17.8283 12.6021 17.8283Z" fill="#3B3943"/>
<path d="M10.6186 8.12221C10.3231 8.03239 10.0154 8.16033 9.87048 8.43311L8.29677 11.3939C8.18633 11.6017 8.19273 11.8462 8.31394 12.0479C8.43515 12.2496 8.64798 12.37 8.88329 12.37H9.28254L8.82936 13.6942C8.72664 13.9944 8.85622 14.319 9.13753 14.4659C9.23243 14.5154 9.33406 14.5393 9.43427 14.5393C9.63113 14.5393 9.82257 14.4473 9.94695 14.2778L12.2228 11.1744C12.3716 10.9714 12.3934 10.7059 12.2797 10.4813C12.1659 10.2568 11.9388 10.1173 11.6871 10.1173H10.9351L11.068 8.79636C11.0989 8.48901 10.9141 8.21186 10.6186 8.12221ZM11.3788 10.9377L9.99323 12.8271L10.2446 12.0926C10.2875 11.9673 10.2673 11.8289 10.1902 11.7212C10.1132 11.6134 9.98891 11.5495 9.85643 11.5495H9.14311L10.1585 9.6392L10.0732 10.4864C10.0616 10.6017 10.0993 10.7166 10.1771 10.8026C10.2549 10.8886 10.3654 10.9377 10.4814 10.9377H11.3788Z" fill="#3B3943"/>
<path d="M24.603 15.8522V4.91276C24.603 2.20384 22.3992 0 19.6902 0C16.9812 0 14.7774 2.20384 14.7774 4.91276V5.8475H7.28231C7.05575 5.8475 6.87207 6.03112 6.87207 6.25773C6.87207 6.48435 7.05575 6.66797 7.28231 6.66797H15.634C17.0604 6.66797 18.2207 7.82839 18.2207 9.2547V13.5662C18.2207 13.7928 18.4044 13.9764 18.631 13.9764C18.8575 13.9764 19.0412 13.7928 19.0412 13.5662V9.2547C19.0412 7.95589 18.3105 6.82484 17.2388 6.25013V4.91276C17.2388 3.56106 18.3385 2.46141 19.6902 2.46141C21.0419 2.46141 22.1416 3.56106 22.1416 4.91276V15.8522C21.7578 16.0799 21.4998 16.4983 21.4998 16.976V17.0325C21.4998 17.2592 21.6835 17.4428 21.91 17.4428C22.1366 17.4428 22.3203 17.2592 22.3203 17.0325V16.976C22.3203 16.7082 22.5381 16.4905 22.8058 16.4905H23.9389C24.2066 16.4905 24.4244 16.7082 24.4244 16.976V19.1208H24.3669H22.3778H22.3202V18.7808C22.3202 18.5542 22.1365 18.3706 21.91 18.3706C21.6834 18.3706 21.4998 18.5542 21.4998 18.7808V19.3985C21.4998 19.6723 21.7037 19.8988 21.9675 19.9354V21.0334C21.9675 21.3967 22.2631 21.6923 22.6263 21.6923H24.1183C24.4815 21.6923 24.777 21.3967 24.777 21.0334V19.9354C25.0409 19.8988 25.2448 19.6723 25.2448 19.3985V16.976C25.2448 16.4983 24.9868 16.0799 24.603 15.8522ZM23.7825 12.0429H22.9621V10.6495H23.7825V12.0429ZM23.7825 9.82903H22.9621V8.43554H23.7825V9.82903ZM23.7825 12.8634V15.6701H22.9621V12.8634H23.7825ZM19.6902 1.64094C17.8861 1.64094 16.4183 3.10871 16.4183 4.91276V5.93961C16.1663 5.87999 15.9039 5.84744 15.634 5.84744H15.5978V4.91276C15.5978 2.6563 17.4337 0.820471 19.6902 0.820471C21.9467 0.820471 23.7825 2.6563 23.7825 4.91276V7.61507H22.9621V4.91276C22.9621 3.10871 21.4943 1.64094 19.6902 1.64094ZM23.9566 20.8718H22.788V19.9412H23.9566V20.8718Z" fill="#3B3943"/>
</svg>
