<svg width="24" height="24" fill="none" xmlns="http://www.w3.org/2000/svg"><g clip-path="url(#a)"><path d="M15.47 3.643a.4.4 0 0 1-.512.239A8.655 8.655 0 0 0 4.85 7.138a.4.4 0 1 1-.66-.451A9.455 9.455 0 0 1 15.232 3.13a.4.4 0 0 1 .239.512ZM3.53 8.527h6.468a2.04 2.04 0 0 1 1.997-1.638 2.04 2.04 0 0 1 2.038 2.037 2.04 2.04 0 0 1-2.038 2.038 2.04 2.04 0 0 1-1.997-1.638H3.774c-1.821 5.588 2.367 11.326 8.221 11.326 5.506 0 9.663-5.125 8.433-10.562a.4.4 0 0 1 .78-.177c1.343 5.938-3.195 11.538-9.213 11.538-6.521 0-11.115-6.503-8.882-12.663a.4.4 0 0 1 .417-.261Zm7.228.4a1.24 1.24 0 0 0 1.237 1.237 1.24 1.24 0 0 0 0-2.475 1.24 1.24 0 0 0-1.237 1.237Zm3.626 7.726c0 .737-.6 1.336-1.336 1.336h-2.105c-.737 0-1.336-.6-1.336-1.336 0-.736.6-1.335 1.336-1.335h2.105c.736 0 1.335.599 1.335 1.335Zm-.8 0a.537.537 0 0 0-.536-.536h-2.105a.537.537 0 0 0 0 1.072h2.105c.296 0 .536-.24.536-.536Zm1.443-7.727c0 .221.179.4.4.4h2.715a.4.4 0 0 0 0-.8h-2.716a.4.4 0 0 0-.4.4Zm7.942-.691a.4.4 0 0 0-.266.499c2.198 7.2-3.22 14.466-10.708 14.466C5.823 23.2.801 18.18.801 12.006c0-8.262 8.707-13.697 16.124-10.053a.4.4 0 0 0 .352-.717C9.37-2.65.002 3.09.002 12.006.002 18.636 5.366 24 11.995 24c8.058 0 13.826-7.792 11.473-15.5a.4.4 0 0 0-.499-.265Zm-2.941-.481a.75.75 0 1 1 1.06-1.06.75.75 0 1 1-1.06 1.06Zm2.367-1.802a.4.4 0 0 0 0-.566 2.597 2.597 0 0 0-3.674 0 .4.4 0 1 0 .565.566 1.798 1.798 0 0 1 2.544 0 .4.4 0 0 0 .566 0Zm-5.159-1.485a.4.4 0 0 0 .566 0 3.896 3.896 0 0 1 5.512 0 .4.4 0 1 0 .566-.565 4.695 4.695 0 0 0-6.644 0 .4.4 0 0 0 0 .565Z" fill="#3B3943"/></g><defs><clipPath id="a"><path fill="#fff" d="M0 0h24v24H0z"/></clipPath></defs></svg>