<svg width="24" height="24" viewBox="0 0 24 24" fill="none" xmlns="http://www.w3.org/2000/svg">
<path d="M12.1399 20.0582C9.4056 20.0721 6.68608 19.6571 4.0804 18.8284L1.94764 19.3843C1.7995 19.4229 1.64388 19.4225 1.49592 19.3832C1.34797 19.3438 1.21273 19.2668 1.10337 19.1597C0.994007 19.0525 0.91425 18.9189 0.871861 18.7718C0.829472 18.6247 0.825896 18.4691 0.861481 18.3202L1.3804 16.1527C-0.130303 12.5699 1.1164 8.43865 1.35251 7.72611L0.752508 5.65789C0.708546 5.50644 0.705758 5.346 0.74443 5.19311C0.783102 5.04022 0.861837 4.9004 0.972523 4.78807C1.08321 4.67573 1.22184 4.59493 1.37414 4.554C1.52645 4.51306 1.68691 4.51348 1.83899 4.55519L4.08397 5.17141C5.0151 4.85065 12.1502 2.57389 19.9185 5.17303L22.1796 4.586C22.3312 4.54651 22.4905 4.54791 22.6414 4.59003C22.7922 4.63216 22.9292 4.71352 23.0384 4.82582C23.1475 4.93812 23.225 5.07735 23.2628 5.22932C23.3007 5.3813 23.2976 5.54059 23.2538 5.69097L22.6502 7.77411C22.8863 8.48762 24.133 12.6182 22.6223 16.2014L23.1332 18.351C23.1687 18.5008 23.1646 18.6572 23.1214 18.805C23.0781 18.9528 22.9971 19.0867 22.8864 19.1937C22.7756 19.3006 22.639 19.3769 22.4898 19.4151C22.3406 19.4532 22.1841 19.4519 22.0356 19.4112L19.9136 18.8287C17.4055 19.6547 14.7804 20.0699 12.1399 20.0582ZM4.09662 18.1651C4.1356 18.1653 4.17425 18.1723 4.21078 18.1859C4.28505 18.2141 11.7027 20.9319 19.8027 18.1823C19.864 18.1615 19.9302 18.1596 19.9927 18.1768L22.2079 18.7849C22.2474 18.7962 22.2893 18.7968 22.3292 18.7866C22.3691 18.7764 22.4056 18.7558 22.4349 18.7269C22.4648 18.6981 22.4865 18.662 22.4979 18.6221C22.5093 18.5822 22.51 18.54 22.4998 18.4998L21.964 16.2458C21.9476 16.1773 21.954 16.1054 21.9821 16.0408C23.5713 12.4061 22.0181 7.93465 22.0022 7.88989C21.9795 7.82578 21.9773 7.75615 21.9961 7.69076L22.6282 5.50935C22.6406 5.46908 22.6418 5.42619 22.6317 5.38528C22.6216 5.34438 22.6005 5.30699 22.5708 5.27714C22.5416 5.24662 22.5048 5.22451 22.4642 5.2131C22.4236 5.20168 22.3806 5.2014 22.3399 5.21227L19.9853 5.82362C19.9241 5.83983 19.8596 5.83757 19.7998 5.81714C11.6988 3.06719 4.28213 5.7847 4.20786 5.81357C4.14379 5.83763 4.07374 5.84081 4.00775 5.82265L1.66613 5.18146C1.6253 5.1701 1.58217 5.16986 1.54121 5.18077C1.50026 5.19168 1.46296 5.21334 1.43319 5.24351C1.40342 5.27367 1.38226 5.31125 1.37189 5.35235C1.36153 5.39344 1.36234 5.43657 1.37424 5.47724L2.00245 7.64373C2.02127 7.70901 2.01912 7.77855 1.99629 7.84254C1.9804 7.8873 0.425914 12.3588 2.0164 15.9935C2.04469 16.0582 2.05106 16.1304 2.03456 16.1991L1.49229 18.4693C1.48271 18.5094 1.48365 18.5512 1.49504 18.5907C1.50643 18.6302 1.52787 18.6661 1.55727 18.6949C1.58667 18.7237 1.62303 18.7444 1.6628 18.7549C1.70257 18.7655 1.74439 18.7655 1.78418 18.7551L4.01326 18.1742C4.04 18.1676 4.06747 18.1646 4.09499 18.1651H4.09662Z" fill="#3B3943"/>
<path d="M18.6754 7.6298C18.6399 7.62969 18.6048 7.62377 18.5713 7.61229C16.4869 6.91476 14.3022 6.56415 12.1042 6.57445C9.86166 6.56317 7.63134 6.90565 5.49547 7.58926C5.4147 7.61885 5.32549 7.61514 5.24745 7.57895C5.16942 7.54276 5.10895 7.47705 5.07936 7.39629C5.04977 7.31552 5.05348 7.2263 5.08967 7.14826C5.12586 7.07023 5.19157 7.00977 5.27234 6.98018C7.47811 6.26346 9.78501 5.90711 12.1042 5.92482C14.3726 5.91495 16.6273 6.27761 18.7782 6.99834C18.851 7.02303 18.9126 7.07276 18.9521 7.13868C18.9917 7.20459 19.0065 7.2824 18.994 7.35823C18.9815 7.43407 18.9425 7.503 18.8839 7.55273C18.8253 7.60247 18.7509 7.62978 18.6741 7.6298H18.6754Z" fill="#3B3943"/>
</svg>
