<svg width="24" height="24" viewBox="0 0 24 24" fill="none" xmlns="http://www.w3.org/2000/svg">
<path fill-rule="evenodd" clip-rule="evenodd" d="M8.36567 2.54927C8.4011 2.36862 8.57627 2.25089 8.75693 2.28632L10.9818 2.7227C11.1624 2.75813 11.2802 2.9333 11.2447 3.11395C11.2093 3.29461 11.0341 3.41233 10.8535 3.3769L8.62862 2.94053C8.44796 2.90509 8.33024 2.72992 8.36567 2.54927Z" fill="white"/>
<path fill-rule="evenodd" clip-rule="evenodd" d="M4.70112 1.83027C4.73655 1.64962 4.91173 1.5319 5.09238 1.56733L7.34743 2.00965C7.52808 2.04508 7.64581 2.22026 7.61037 2.40091C7.57494 2.58156 7.39977 2.69929 7.21911 2.66385L4.96406 2.22153C4.78341 2.1861 4.66569 2.01092 4.70112 1.83027Z" fill="white"/>
<path fill-rule="evenodd" clip-rule="evenodd" d="M3.62041 19.32C2.54139 19.32 1.66667 20.1947 1.66667 21.2737C1.66667 22.3527 2.54139 23.2275 3.62041 23.2275C4.69943 23.2275 5.57414 22.3527 5.57414 21.2737C5.57414 20.1947 4.69943 19.32 3.62041 19.32ZM1 21.2737C1 19.8265 2.1732 18.6533 3.62041 18.6533C5.06762 18.6533 6.24081 19.8265 6.24081 21.2737C6.24081 22.7209 5.06762 23.8941 3.62041 23.8941C2.1732 23.8941 1 22.7209 1 21.2737Z" fill="white"/>
<path fill-rule="evenodd" clip-rule="evenodd" d="M20.324 19.32C19.245 19.32 18.3703 20.1947 18.3703 21.2737C18.3703 22.3527 19.245 23.2275 20.324 23.2275C21.403 23.2275 22.2778 22.3527 22.2778 21.2737C22.2778 20.1947 21.403 19.32 20.324 19.32ZM17.7036 21.2737C17.7036 19.8265 18.8768 18.6533 20.324 18.6533C21.7712 18.6533 22.9444 19.8265 22.9444 21.2737C22.9444 22.7209 21.7712 23.8941 20.324 23.8941C18.8768 23.8941 17.7036 22.7209 17.7036 21.2737Z" fill="white"/>
<path fill-rule="evenodd" clip-rule="evenodd" d="M7.67723 3.68658C7.85662 3.72796 7.96849 3.90693 7.92711 4.08631L3.94533 21.3491C3.90396 21.5285 3.72501 21.6404 3.54562 21.599C3.36623 21.5576 3.25434 21.3787 3.29571 21.1993L7.2775 3.93646C7.31888 3.75708 7.49785 3.6452 7.67723 3.68658Z" fill="white"/>
<path fill-rule="evenodd" clip-rule="evenodd" d="M7.37891 19.9015C7.37891 19.7259 7.52128 19.5835 7.69691 19.5835H18.0368C18.2124 19.5835 18.3548 19.7259 18.3548 19.9015V20.1682C18.3548 21.0729 17.6805 21.8584 16.788 21.8584H8.94565C8.05267 21.8584 7.37891 21.0728 7.37891 20.1682V19.9015ZM8.01596 20.2195C8.04 20.804 8.47279 21.2224 8.94565 21.2224H16.788C17.2605 21.2224 17.6936 20.804 17.7177 20.2195H8.01596Z" fill="white"/>
<path fill-rule="evenodd" clip-rule="evenodd" d="M7.4677 2.04552C7.63236 2.12785 7.6991 2.32807 7.61677 2.49273C7.61147 2.50334 7.6068 2.51585 7.60354 2.52956L7.40048 3.45861C7.40048 3.45862 7.40049 3.45859 7.40048 3.45861C7.39349 3.49071 7.3995 3.52432 7.41721 3.55199C7.4349 3.57961 7.4628 3.5991 7.49481 3.60621C7.49488 3.60623 7.49473 3.60619 7.49481 3.60621L7.97921 3.71178C8.01135 3.71879 8.04503 3.71277 8.07272 3.69502C8.10039 3.67728 8.11989 3.64928 8.12694 3.61718C8.12694 3.61716 8.12693 3.61719 8.12694 3.61718L8.33033 2.68705C8.33035 2.68698 8.33032 2.68712 8.33033 2.68705C8.33318 2.67379 8.33388 2.65994 8.33232 2.64647C8.31109 2.46361 8.44213 2.29816 8.625 2.27693C8.80787 2.25571 8.97332 2.38675 8.99454 2.56962C9.00456 2.65592 9.00028 2.74328 8.98189 2.82819L8.7782 3.75967C8.73334 3.96441 8.609 4.1431 8.43255 4.25623C8.25611 4.36937 8.04196 4.40782 7.83718 4.36314L7.35172 4.25734C7.14712 4.21231 6.96876 4.08792 6.85579 3.9115C6.74281 3.73507 6.70447 3.52102 6.74917 3.31635L6.9535 2.3815C6.96853 2.31613 6.99119 2.25318 7.02049 2.19459C7.10282 2.02993 7.30304 1.96319 7.4677 2.04552Z" fill="white"/>
<path fill-rule="evenodd" clip-rule="evenodd" d="M7.75165 2.43275C7.72496 2.42688 7.69707 2.42998 7.67233 2.44158C7.64758 2.45318 7.62735 2.47263 7.61479 2.4969C7.53017 2.6604 7.32904 2.72434 7.16554 2.63972C7.00205 2.55511 6.9381 2.35397 7.02272 2.19047C7.10278 2.03579 7.23167 1.91186 7.38938 1.83793C7.54702 1.76405 7.72464 1.74425 7.89468 1.78161L8.37835 1.88767C8.53926 1.92287 8.68544 2.0075 8.79596 2.12965C8.90655 2.25186 8.97618 2.40557 8.99513 2.56929C9.0163 2.75217 8.88521 2.91757 8.70233 2.93874C8.51946 2.9599 8.35405 2.82881 8.33289 2.64594C8.32991 2.62025 8.31899 2.59613 8.30163 2.57695C8.28428 2.55778 8.26137 2.5445 8.2361 2.53898L7.75165 2.43275Z" fill="white"/>
<path fill-rule="evenodd" clip-rule="evenodd" d="M5.24324 14.0411C5.41304 13.97 5.60834 14.05 5.67946 14.2198L8.00495 19.7728C8.07606 19.9426 7.99605 20.1379 7.82625 20.209C7.65644 20.2801 7.46114 20.2001 7.39003 20.0303L5.06453 14.4773C4.99342 14.3075 5.07343 14.1122 5.24324 14.0411Z" fill="white"/>
<path fill-rule="evenodd" clip-rule="evenodd" d="M11.4899 2.79251C11.4592 2.78685 11.4275 2.79353 11.4017 2.81111C11.376 2.82867 11.3582 2.8557 11.3522 2.88631L11.2381 3.4902C11.2381 3.49028 11.2381 3.49012 11.2381 3.4902C11.2324 3.52089 11.2391 3.55281 11.2567 3.5786C11.2742 3.60439 11.3013 3.62219 11.3319 3.62813C11.332 3.62815 11.3318 3.62811 11.3319 3.62813L13.2206 3.98604C13.2207 3.98606 13.2205 3.98602 13.2206 3.98604C13.2513 3.99168 13.2833 3.98505 13.309 3.96749C13.3348 3.94993 13.3526 3.92292 13.3585 3.89233C13.3586 3.89221 13.3586 3.8921 13.3586 3.89198L13.4727 3.28793C13.4727 3.28786 13.4727 3.28801 13.4727 3.28793C13.4783 3.25724 13.4717 3.22533 13.4541 3.19954C13.4365 3.17376 13.4095 3.15596 13.3789 3.15001C13.3788 3.14999 13.379 3.15003 13.3789 3.15001L11.4899 2.79251C11.4898 2.79249 11.49 2.79252 11.4899 2.79251ZM13.7852 3.34629L14.0979 3.40466C14.1345 3.20864 14.092 3.00609 13.9796 2.84131C13.8673 2.67654 13.6943 2.56294 13.4985 2.52535L11.6076 2.1675L11.6069 2.16736C11.4108 2.13076 11.2083 2.17327 11.0435 2.28559C10.8787 2.39791 10.7651 2.5709 10.7276 2.76675L10.613 3.37279L10.6129 3.37347C10.5763 3.5695 10.6188 3.77205 10.7311 3.93682C10.8435 4.1016 11.0165 4.2152 11.2123 4.25278L11.213 4.25292L13.1031 4.61108L13.1039 4.61123C13.2999 4.64783 13.5025 4.60533 13.6673 4.49301C13.832 4.38069 13.9456 4.20769 13.9832 4.01185L13.9834 4.01092L14.0977 3.4053L13.7852 3.34629Z" fill="white"/>
<path fill-rule="evenodd" clip-rule="evenodd" d="M2.57617 0.986597C2.5456 0.980952 2.51404 0.987601 2.48835 1.00511C2.46268 1.0226 2.44494 1.04953 2.43901 1.08002C2.43899 1.08012 2.43903 1.07992 2.43901 1.08002L2.32444 1.68528C2.31887 1.7158 2.32556 1.74729 2.34307 1.77292C2.3606 1.7986 2.38757 1.81631 2.4181 1.8222C2.41817 1.82222 2.41804 1.82219 2.4181 1.8222L4.30123 2.17872C4.30135 2.17874 4.30147 2.17876 4.30159 2.17879C4.3321 2.18436 4.36358 2.17769 4.38921 2.16021C4.41486 2.14271 4.43257 2.11581 4.43851 2.08534C4.43853 2.08525 4.43849 2.08544 4.43851 2.08534L4.55193 1.48663C4.55227 1.48457 4.55263 1.48251 4.55301 1.48046C4.5587 1.44984 4.55205 1.41821 4.5345 1.39248C4.51701 1.36683 4.49012 1.34912 4.45966 1.34318C4.45956 1.34316 4.45977 1.3432 4.45966 1.34318L2.57617 0.986597C2.57609 0.986582 2.57625 0.986613 2.57617 0.986597ZM2.13023 0.479515C2.29494 0.367292 2.49737 0.324852 2.69328 0.361472L2.694 0.361607L4.57944 0.71856C4.775 0.756164 4.94774 0.869614 5.05994 1.03414C5.17048 1.19623 5.21342 1.39492 5.17987 1.58799C5.17933 1.59141 5.17875 1.59482 5.1781 1.59822L5.06329 2.20429L5.06313 2.20515C5.02552 2.40071 4.91207 2.57345 4.74755 2.68565C4.58303 2.79785 4.3808 2.8404 4.18501 2.80401L4.18396 2.80382L2.29884 2.44692C2.10314 2.4095 1.93021 2.29613 1.81785 2.13158C1.70548 1.96704 1.66282 1.76471 1.69919 1.5688L1.6994 1.56771L1.81437 0.960333C1.85197 0.764611 1.96553 0.591738 2.13023 0.479515Z" fill="white"/>
</svg>
