<svg width="24" height="24" fill="none" xmlns="http://www.w3.org/2000/svg"><path d="M7.502 9.005a.375.375 0 0 1-.362-.474L9.392.277a.375.375 0 0 1 .723.197L7.863 8.728a.375.375 0 0 1-.361.277ZM16.505 9.004a.375.375 0 0 1-.362-.276L13.891.474a.375.375 0 1 1 .724-.197l2.252 8.254a.375.375 0 0 1-.362.473Z" fill="#fff"/><path d="M14.253.75h-4.5a.375.375 0 0 1 0-.75h4.5a.375.375 0 1 1 0 .75ZM16.503 9.002h-9a.375.375 0 1 1 0-.75h9a.375.375 0 1 1 0 .75ZM16.127 24H7.88a.375.375 0 1 1 0-.75h8.248a.375.375 0 1 1 0 .75Z" fill="#fff"/><path d="M8.63 23.25a.375.375 0 0 1-.376-.376c0-.62.505-1.124 1.125-1.124a.375.375 0 1 1 0 .75.375.375 0 0 0-.375.374.375.375 0 0 1-.375.375ZM15.377 23.25a.375.375 0 0 1-.375-.376.375.375 0 0 0-.375-.374.375.375 0 1 1 0-.75c.62 0 1.125.504 1.125 1.124a.374.374 0 0 1-.375.375Z" fill="#fff"/><path d="M14.627 22.5H9.38a.375.375 0 1 1 0-.75h5.248a.375.375 0 1 1 0 .75ZM8.63 24a.375.375 0 0 1-.376-.375v-.75a.375.375 0 1 1 .75 0v.75A.375.375 0 0 1 8.63 24ZM15.377 24a.375.375 0 0 1-.375-.375v-.75a.375.375 0 1 1 .75 0v.75a.375.375 0 0 1-.375.375ZM14.253 12.375a.375.375 0 0 1-.375-.375V8.625a.375.375 0 1 1 .75 0V12a.375.375 0 0 1-.375.375Z" fill="#fff"/><path d="M12.753 22.125a.375.375 0 0 1-.375-.375.375.375 0 0 0-.75 0 .375.375 0 1 1-.75 0c0-.62.505-1.125 1.125-1.125s1.125.505 1.125 1.125a.375.375 0 0 1-.375.375Z" fill="#fff"/><path d="M12.003 21.375a.375.375 0 0 1-.375-.375V8.63a.375.375 0 0 1 .75 0V21a.375.375 0 0 1-.375.375ZM11.253 22.5a.375.375 0 0 1-.375-.375v-.375a.375.375 0 1 1 .75 0v.375a.375.375 0 0 1-.375.374ZM12.753 22.5a.375.375 0 0 1-.375-.375v-.375a.375.375 0 1 1 .75 0v.375a.374.374 0 0 1-.375.374Z" fill="#fff"/></svg>