<?xml version="1.0" encoding="UTF-8"?>
<svg xmlns="http://www.w3.org/2000/svg" xmlns:xlink="http://www.w3.org/1999/xlink" width="20px" height="20px" viewBox="0 0 20 20" version="1.1">
<g id="surface1">
<path style=" stroke:none;fill-rule:nonzero;fill:rgb(10.980392%,60%,34.117647%);fill-opacity:1;" d="M 17.5 16.25 L 17.5 3.75 C 17.5 3.058594 16.941406 2.5 16.25 2.5 L 3.75 2.5 C 3.058594 2.5 2.5 3.058594 2.5 3.75 L 2.5 16.25 C 2.5 16.941406 3.058594 17.5 3.75 17.5 L 16.25 17.5 C 16.941406 17.5 17.5 16.941406 17.5 16.25 Z M 17.5 16.25 "/>
<path style=" stroke:none;fill-rule:nonzero;fill:rgb(24.313725%,48.235294%,94.509804%);fill-opacity:1;" d="M 3.75 17.5 L 16.25 17.5 C 16.941406 17.5 10 10.832031 10 10.832031 C 10 10.832031 3.058594 17.5 3.75 17.5 Z M 3.75 17.5 "/>
<path style=" stroke:none;fill-rule:nonzero;fill:rgb(79.607843%,80%,78.823529%);fill-opacity:1;" d="M 17.5 16.25 L 17.5 3.75 C 17.5 3.058594 10.832031 10 10.832031 10 C 10.832031 10 17.5 16.941406 17.5 16.25 Z M 17.5 16.25 "/>
<path style=" stroke:none;fill-rule:nonzero;fill:rgb(93.72549%,93.72549%,93.72549%);fill-opacity:1;" d="M 16.25 17.5 C 16.941406 17.5 17.5 16.941406 17.5 16.25 L 17.5 16.148438 L 10.933594 9.582031 L 9.582031 10.933594 L 16.148438 17.5 Z M 16.25 17.5 "/>
<path style=" stroke:none;fill-rule:nonzero;fill:rgb(100%,84.313725%,23.921569%);fill-opacity:1;" d="M 17.5 3.75 C 17.5 3.058594 16.941406 2.5 16.25 2.5 L 16.148438 2.5 L 2.5 16.148438 L 2.5 16.25 C 2.5 16.941406 3.058594 17.5 3.75 17.5 L 3.851562 17.5 L 17.5 3.851562 Z M 17.5 3.75 "/>
<path style=" stroke:none;fill-rule:nonzero;fill:rgb(84.313725%,24.705882%,20.784314%);fill-opacity:1;" d="M 15 0.832031 C 12.699219 0.832031 10.832031 2.699219 10.832031 5 C 10.832031 7.839844 14.027344 8.871094 14.722656 13.269531 C 14.765625 13.554688 14.769531 13.75 15 13.75 C 15.230469 13.75 15.234375 13.554688 15.277344 13.269531 C 15.972656 8.871094 19.167969 7.839844 19.167969 5 C 19.167969 2.699219 17.300781 0.832031 15 0.832031 Z M 15 0.832031 "/>
<path style=" stroke:none;fill-rule:nonzero;fill:rgb(45.882353%,14.901961%,13.333333%);fill-opacity:1;" d="M 15 3.542969 C 14.195312 3.542969 13.542969 4.195312 13.542969 5 C 13.542969 5.804688 14.195312 6.457031 15 6.457031 C 15.804688 6.457031 16.457031 5.804688 16.457031 5 C 16.457031 4.195312 15.804688 3.542969 15 3.542969 Z M 15 3.542969 "/>
<path style=" stroke:none;fill-rule:nonzero;fill:rgb(100%,100%,100%);fill-opacity:1;" d="M 6.039062 5.222656 L 6.039062 6.097656 L 7.285156 6.097656 C 7.121094 6.628906 6.679688 7.007812 6.039062 7.007812 C 5.273438 7.007812 4.65625 6.386719 4.65625 5.625 C 4.65625 4.859375 5.277344 4.242188 6.039062 4.242188 C 6.382812 4.242188 6.695312 4.367188 6.9375 4.574219 L 7.582031 3.929688 C 7.175781 3.558594 6.632812 3.332031 6.039062 3.332031 C 4.773438 3.332031 3.746094 4.359375 3.746094 5.625 C 3.746094 6.890625 4.773438 7.917969 6.039062 7.917969 C 8.042969 7.917969 8.386719 6.117188 8.199219 5.222656 Z M 6.039062 5.222656 "/>
</g>
</svg>
