<svg width="120" height="120" viewBox="0 0 120 120" fill="none" xmlns="http://www.w3.org/2000/svg">
<g opacity="0.3">
<path opacity="0.3" d="M60.4077 117C79.9628 117 95.8153 113.829 95.8153 109.918C95.8153 106.007 79.9628 102.837 60.4077 102.837C40.8526 102.837 25 106.007 25 109.918C25 113.829 40.8526 117 60.4077 117Z" fill="#371A45"/>
</g>
<path d="M77.0188 46.5339H43.3038C40.6308 46.5339 38.4639 48.7008 38.4639 51.3738V82.3102C38.4639 84.9832 40.6308 87.1501 43.3038 87.1501H77.0188C79.6918 87.1501 81.8587 84.9832 81.8587 82.3102V51.3738C81.8587 48.7008 79.6918 46.5339 77.0188 46.5339Z" fill="white"/>
<g opacity="0.35">
<path opacity="0.35" d="M81.8591 71.6033V82.3102C81.8592 83.5938 81.3495 84.8249 80.442 85.7327C79.5345 86.6406 78.3036 87.1508 77.02 87.1512H43.3049C42.0213 87.1508 40.7904 86.6406 39.8829 85.7327C38.9755 84.8249 38.4657 83.5938 38.4658 82.3102V71.6033C38.4657 72.2389 38.5907 72.8683 38.8338 73.4556C39.0769 74.0429 39.4333 74.5765 39.8827 75.0261C40.3321 75.4756 40.8656 75.8322 41.4528 76.0756C42.0399 76.3189 42.6693 76.4442 43.3049 76.4443H77.02C77.6556 76.4442 78.285 76.3189 78.8722 76.0756C79.4594 75.8322 79.9929 75.4756 80.4422 75.0261C80.8916 74.5765 81.248 74.0429 81.4911 73.4556C81.7342 72.8683 81.8593 72.2389 81.8591 71.6033Z" fill="#371A45"/>
</g>
<path d="M77.0195 87.8471H43.3044C40.2514 87.8471 37.7676 85.3637 37.7676 82.3103V51.3739C37.7676 48.3209 40.251 45.8371 43.3044 45.8371H77.0195C80.0725 45.8371 82.5562 48.3205 82.5562 51.3739V82.3103C82.5562 85.3633 80.0725 87.8471 77.0195 87.8471ZM43.3044 47.2324C42.206 47.2338 41.153 47.6707 40.3763 48.4474C39.5996 49.224 39.1627 50.2771 39.1614 51.3754V82.3103C39.1626 83.4087 39.5995 84.4618 40.3762 85.2385C41.1529 86.0152 42.206 86.4521 43.3044 86.4533H77.0195C78.1179 86.4522 79.171 86.0153 79.9477 85.2386C80.7245 84.4619 81.1613 83.4087 81.1624 82.3103V51.3739C81.1608 50.2757 80.7237 49.2231 79.9471 48.4467C79.1704 47.6704 78.1176 47.2337 77.0195 47.2324H43.3044Z" fill="#371A45"/>
<path d="M34.1278 74.0259C34.1278 74.0259 33.1868 76.2734 34.7028 78.5736C34.7028 78.5736 32.7161 78.3121 32.4026 79.619C32.0891 80.9258 33.3436 83.1213 37.0551 83.1213C40.7666 83.1213 44.3209 80.4556 43.903 76.2734C43.4851 72.0912 39.2505 69.9485 34.1278 74.0259Z" fill="white"/>
<path d="M37.0556 83.7665C34.2777 83.7665 32.9588 82.6199 32.4198 81.9362C31.8265 81.1834 31.5855 80.2606 31.7757 79.4683C32.0085 78.4924 32.8338 78.0811 33.6405 77.9511C32.7225 75.7704 33.4947 73.8679 33.5331 73.7767C33.5751 73.6763 33.6419 73.5882 33.7271 73.5206C36.4235 71.3752 39.2262 70.6744 41.4163 71.5987C43.1872 72.3464 44.3265 74.027 44.5461 76.2092C44.7401 78.1401 44.1771 79.8955 42.9207 81.2831C41.5113 82.8383 39.3205 83.7665 37.0556 83.7665ZM34.3149 79.2002C33.8881 79.2002 33.1509 79.2739 33.0306 79.7694C32.953 80.0872 33.0201 80.613 33.4333 81.1372C33.8276 81.637 34.8221 82.4759 37.0556 82.4759C38.962 82.4759 40.7966 81.7064 41.963 80.417C42.9684 79.3065 43.4169 77.8948 43.2613 76.3377C43.0914 74.6397 42.2358 73.346 40.9138 72.7876C39.2064 72.0674 36.9407 72.6623 34.6731 74.4173C34.4809 75.0534 34.4322 75.7242 34.5306 76.3814C34.6289 77.0386 34.8719 77.6657 35.2419 78.2177C35.3098 78.3208 35.3467 78.4412 35.3482 78.5647C35.3497 78.6881 35.3158 78.8094 35.2504 78.9141C35.1851 79.0188 35.091 79.1026 34.9795 79.1555C34.8679 79.2084 34.7436 79.2282 34.6211 79.2126C34.6157 79.2126 34.4919 79.2002 34.3149 79.2002V79.2002Z" fill="#371A45"/>
<path d="M35.0487 77.9335C35.0948 78.0231 35.1467 78.1097 35.204 78.1927C35.2622 78.2819 35.3239 78.3704 35.3883 78.4569C35.5171 78.6319 35.6567 78.7986 35.8062 78.9563C36.1088 79.2691 36.455 79.5519 36.8985 79.704C36.6596 79.7335 36.4178 79.7291 36.1802 79.6908C35.9366 79.6491 35.6971 79.5864 35.4643 79.5034C35.2297 79.4192 35.0004 79.3206 34.7779 79.2081C34.6654 79.1519 34.5552 79.0917 34.4454 79.0293C34.3294 78.9644 34.2171 78.8933 34.1089 78.8162L34.036 78.7631C33.8907 78.6575 33.7933 78.4985 33.7652 78.3211C33.7371 78.1437 33.7806 77.9624 33.8862 77.8171C33.9918 77.6717 34.1508 77.5743 34.3282 77.5462C34.5056 77.5181 34.6869 77.5617 34.8322 77.6673C34.9258 77.7362 35.0004 77.8278 35.0487 77.9335V77.9335Z" fill="#371A45"/>
<g opacity="0.35">
<path opacity="0.35" d="M37.0562 83.1211C40.7677 83.1211 44.3224 80.4561 43.9041 76.2736C43.7132 74.3633 42.7268 72.8787 41.2225 72.2202C41.076 72.1557 40.926 72.0997 40.7731 72.0526C39.0231 71.5031 36.6872 71.9889 34.1293 74.0249C34.1293 74.0249 33.4852 75.5604 34.118 77.3907C35.7392 77.6418 37.1272 77.4726 38.2645 77.123C38.9432 77.2887 39.933 77.6045 40.1985 78.7112C40.5356 80.1135 37.5567 83.0668 34.2441 80.1081C33.6054 79.5369 33.0634 79.2641 32.6047 79.1803C32.5072 79.3108 32.4378 79.4601 32.401 79.6188C32.0898 80.9253 33.3451 83.1211 37.0562 83.1211Z" fill="#371A45"/>
</g>
<path d="M84.2786 108.015C84.2611 108.077 84.2398 108.138 84.2192 108.197L84.2037 108.239C84.1843 108.291 84.1649 108.344 84.1428 108.395C84.1373 108.409 84.1304 108.423 84.1253 108.437C84.1044 108.483 84.0834 108.53 84.0609 108.576C84.0504 108.598 84.038 108.619 84.0275 108.64C83.9996 108.694 83.972 108.747 83.9422 108.799C83.9123 108.851 83.8812 108.901 83.8498 108.95C83.8223 108.989 83.7959 109.031 83.7699 109.067L83.7159 109.142C83.6461 109.236 83.5728 109.326 83.4944 109.414C83.4703 109.443 83.4439 109.471 83.4168 109.499C83.2227 109.708 83.0093 109.898 82.7792 110.067C82.7373 110.1 82.6939 110.131 82.65 110.161C82.6395 110.17 82.6275 110.177 82.6155 110.185C82.5352 110.241 82.4533 110.294 82.3714 110.344C82.314 110.379 82.255 110.414 82.1953 110.448C82.0788 110.516 81.9586 110.579 81.8367 110.639C81.7754 110.668 81.7145 110.698 81.6536 110.726C81.6031 110.75 81.5527 110.772 81.5003 110.793C81.4828 110.802 81.4638 110.809 81.4429 110.818C81.3296 110.867 81.2128 110.91 81.0979 110.952C80.9078 111.022 80.7165 111.083 80.5283 111.137C80.4724 111.152 80.4165 111.166 80.361 111.182C80.3055 111.198 80.2408 111.212 80.1814 111.226C80.089 111.248 79.9986 111.268 79.9098 111.287C79.8209 111.306 79.7425 111.318 79.6606 111.332C79.6121 111.341 79.5648 111.348 79.5178 111.355C79.455 111.365 79.3925 111.374 79.3316 111.381C71.9846 112.29 67.8277 109.623 66.3505 107.037C65.4339 105.428 65.2842 103.445 65.3416 102.222C65.5663 97.4413 64.4969 91.4812 62.9009 90.1188C62.9009 90.1188 61.3658 90.3819 59.9689 90.3819H59.9422C58.5453 90.3819 57.0098 90.1188 57.0098 90.1188C55.4158 91.4812 54.3445 97.4413 54.5676 102.222C54.6266 103.445 54.4787 105.428 53.5587 107.037C52.0815 109.623 47.9245 112.29 40.5795 111.381C40.5186 111.374 40.4557 111.365 40.3932 111.355C40.3459 111.348 40.299 111.341 40.2501 111.332C40.1682 111.318 40.0848 111.304 39.9994 111.287C39.914 111.269 39.8182 111.248 39.7278 111.226C39.6634 111.212 39.597 111.194 39.531 111.177C39.4802 111.165 39.4317 111.151 39.3813 111.138C39.0824 111.054 38.7886 110.953 38.5012 110.835C38.4752 110.823 38.4488 110.812 38.4213 110.8C38.3479 110.769 38.2731 110.736 38.1997 110.701C38.1563 110.682 38.1144 110.662 38.0709 110.64C38.0119 110.612 37.9545 110.582 37.8951 110.551C37.6825 110.438 37.4765 110.313 37.2782 110.176C37.2192 110.135 37.1617 110.093 37.1039 110.049C36.8837 109.885 36.679 109.701 36.4924 109.5C36.4664 109.473 36.4404 109.445 36.4148 109.415C36.3783 109.373 36.3414 109.331 36.3065 109.288C36.2716 109.244 36.2289 109.192 36.1936 109.142C36.1866 109.131 36.1777 109.121 36.1692 109.108C36.0978 109.007 36.0299 108.903 35.967 108.795C35.9282 108.727 35.8921 108.659 35.8572 108.589C35.8293 108.534 35.8033 108.478 35.7796 108.42C35.7796 108.417 35.7796 108.413 35.7761 108.411C35.7482 108.347 35.7223 108.281 35.6985 108.213C35.6967 108.206 35.6944 108.2 35.6915 108.194C35.6705 108.133 35.6527 108.072 35.6321 108.009C35.4075 107.253 35.4094 106.347 35.7485 105.272C36.6181 102.511 40.1721 100.711 41.2364 99.7858C40.7192 95.5419 40.7401 91.7614 41.0812 88.3502C41.26 86.56 41.5333 84.7804 41.9 83.0191C42.2783 81.181 42.7331 79.4632 43.2119 77.8412C44.8199 76.2068 47.5082 74.8479 50.8534 73.9667C53.5346 73.2559 56.6373 72.85 59.9441 72.85C63.181 72.85 66.2228 73.238 68.8657 73.9194C72.3191 74.8099 75.0869 76.1998 76.7159 77.8812C77.1866 79.4771 77.6324 81.1689 78.0069 82.9737C78.3852 84.7854 78.6656 86.6162 78.8469 88.4581C79.176 91.8397 79.19 95.5854 78.6793 99.7858C79.7421 100.711 83.2969 102.511 84.1657 105.272C84.5017 106.352 84.5044 107.26 84.2786 108.015Z" fill="white"/>
<path d="M40.8448 92.2131C40.7929 94.7447 40.9226 97.2768 41.2328 99.7898C40.1685 100.715 36.6153 102.515 35.7449 105.276C35.4054 106.351 35.4035 107.255 35.6285 108.013C35.6479 108.076 35.6673 108.137 35.6879 108.198C35.6908 108.204 35.6931 108.21 35.6949 108.217C35.7193 108.285 35.7453 108.351 35.7725 108.415C35.7725 108.415 35.7725 108.421 35.776 108.424C35.8004 108.482 35.8264 108.537 35.8536 108.593C35.8885 108.663 35.925 108.731 35.9634 108.799C36.0262 108.907 36.0941 109.011 36.1655 109.112C36.1741 109.125 36.183 109.135 36.19 109.146C36.2265 109.196 36.2649 109.245 36.3029 109.292C36.3409 109.339 36.3747 109.377 36.4112 109.419C36.4356 109.449 36.4616 109.477 36.4888 109.504C36.6754 109.705 36.8801 109.889 37.1003 110.053C37.1562 110.097 37.2167 110.139 37.2745 110.18C37.4729 110.317 37.6789 110.442 37.8915 110.555C37.9505 110.586 38.0079 110.616 38.0673 110.644C38.1107 110.666 38.1526 110.686 38.1961 110.705C38.2694 110.74 38.3443 110.773 38.4177 110.804C38.4452 110.816 38.4716 110.827 38.4976 110.839C38.7849 110.957 39.0788 111.058 39.3777 111.142C39.4281 111.156 39.4766 111.17 39.5274 111.181C39.5934 111.198 39.6597 111.216 39.7242 111.23C39.8165 111.252 39.9089 111.272 39.9958 111.291C40.0827 111.31 40.1646 111.322 40.2464 111.336C40.2953 111.345 40.3423 111.352 40.3896 111.359C40.4521 111.369 40.515 111.378 40.5759 111.384C47.9209 112.294 52.0778 109.627 53.5551 107.041C54.4735 105.432 54.6214 103.449 54.564 102.226C54.453 99.8511 54.6617 97.1853 55.0955 94.9367C48.203 97.2823 43.2281 94.2615 40.8448 92.2131Z" fill="white"/>
<g opacity="0.6">
<path opacity="0.6" d="M54.8919 96.1627C54.9536 95.7456 55.0199 95.3346 55.0964 94.9396C50.4354 96.5247 46.6528 95.6563 43.9541 94.2951C46.4068 95.8678 50.1366 97.2806 54.8919 96.1627Z" fill="white"/>
<path opacity="0.6" d="M37.848 110.28C37.822 110.253 37.796 110.225 37.7704 110.195C37.734 110.153 37.6971 110.111 37.6622 110.068C37.6272 110.024 37.5846 109.972 37.5493 109.922C37.5423 109.911 37.5333 109.901 37.5248 109.888C37.4534 109.787 37.3855 109.683 37.3226 109.575C37.2838 109.507 37.2478 109.439 37.2128 109.369C37.1849 109.313 37.1589 109.258 37.1352 109.2C37.1352 109.197 37.1352 109.193 37.1317 109.191C37.1038 109.127 37.0778 109.061 37.0541 108.993C37.0524 108.986 37.05 108.98 37.0471 108.974C37.0262 108.913 37.0083 108.852 36.9878 108.789C36.7631 108.033 36.765 107.127 37.1042 106.052C37.9738 103.291 41.5277 101.491 42.5921 100.566C42.293 98.1401 42.1618 95.6966 42.1994 93.2527C41.7294 92.9304 41.2772 92.5829 40.8448 92.2116C40.7929 94.7432 40.9226 97.2752 41.2328 99.7883C40.1685 100.713 36.6153 102.513 35.7449 105.275C35.4054 106.349 35.4035 107.254 35.6285 108.011C35.6479 108.074 35.6673 108.135 35.6879 108.196C35.6908 108.202 35.6931 108.209 35.6949 108.215C35.7193 108.283 35.7453 108.349 35.7725 108.414C35.7725 108.414 35.7725 108.419 35.776 108.423C35.8004 108.48 35.8264 108.536 35.8536 108.591C35.8885 108.661 35.925 108.729 35.9634 108.797C36.0262 108.905 36.0941 109.01 36.1655 109.111C36.1741 109.123 36.183 109.133 36.19 109.144C36.2265 109.194 36.2649 109.243 36.3029 109.29C36.3409 109.338 36.3747 109.375 36.4112 109.417C36.4356 109.447 36.4616 109.475 36.4888 109.503C36.6754 109.704 36.8801 109.888 37.1003 110.052C37.1562 110.095 37.2167 110.137 37.2745 110.179C37.4729 110.315 37.6789 110.44 37.8915 110.553C37.9505 110.585 38.0079 110.614 38.0673 110.642C38.1107 110.665 38.1526 110.684 38.1961 110.703C38.2694 110.738 38.3443 110.771 38.4177 110.802L38.4394 110.812C38.2268 110.653 38.0288 110.475 37.848 110.28V110.28Z" fill="white"/>
</g>
<path d="M84.162 105.276C83.2928 102.514 79.7385 100.715 78.6756 99.7897C78.9882 97.259 79.1178 94.709 79.0637 92.1595C76.7126 94.2017 71.735 97.2815 64.8164 94.9603C65.2467 97.2043 65.4532 99.86 65.3418 102.227C65.2844 103.45 65.4341 105.433 66.3507 107.042C67.8279 109.628 71.9849 112.295 79.3318 111.386C79.3927 111.379 79.4552 111.37 79.5181 111.36C79.565 111.353 79.6123 111.346 79.6608 111.337C79.7427 111.323 79.8246 111.309 79.91 111.292C79.9953 111.274 80.0912 111.253 80.1816 111.231C80.241 111.217 80.3019 111.203 80.3612 111.187C80.4206 111.172 80.4726 111.157 80.5285 111.142C80.7167 111.088 80.908 111.026 81.0981 110.957C81.2145 110.915 81.3309 110.872 81.4431 110.823C81.464 110.814 81.4819 110.807 81.5005 110.799C81.5529 110.778 81.6033 110.755 81.6538 110.731C81.7147 110.703 81.7756 110.673 81.8369 110.644C81.9588 110.584 82.079 110.521 82.1955 110.454C82.2548 110.419 82.3142 110.384 82.3716 110.349C82.4535 110.299 82.5354 110.246 82.6157 110.19C82.6277 110.182 82.6397 110.175 82.6502 110.166C82.6941 110.137 82.7375 110.105 82.7794 110.072C83.0094 109.903 83.2228 109.713 83.417 109.504C83.443 109.477 83.4694 109.449 83.4946 109.419C83.5722 109.33 83.6463 109.239 83.7161 109.147L83.7701 109.072C83.7961 109.033 83.8221 108.994 83.85 108.955C83.8814 108.906 83.9129 108.856 83.9424 108.804C83.9719 108.751 83.9998 108.699 84.0277 108.645C84.0382 108.624 84.0506 108.603 84.0611 108.581C84.0836 108.536 84.1046 108.489 84.1255 108.442C84.1306 108.428 84.1375 108.414 84.143 108.4C84.1655 108.347 84.1845 108.295 84.2039 108.245L84.2194 108.203C84.2404 108.143 84.2613 108.082 84.2788 108.02C84.5046 107.26 84.5019 106.352 84.162 105.276Z" fill="white"/>
<g opacity="0.6">
<path opacity="0.6" d="M65.1674 96.1625C65.1057 95.7454 65.0389 95.3344 64.9629 94.9394C69.6239 96.5245 73.406 95.6561 76.1048 94.2949C73.6524 95.8676 69.9227 97.2804 65.1674 96.1625Z" fill="white"/>
<path opacity="0.6" d="M82.2112 110.28C82.2376 110.252 82.2636 110.224 82.2888 110.195C82.3253 110.153 82.3622 110.111 82.3967 110.068C82.4312 110.024 82.4743 109.972 82.51 109.921C82.517 109.91 82.5259 109.9 82.5345 109.888C82.6059 109.787 82.6738 109.682 82.7366 109.574C82.7754 109.507 82.8115 109.439 82.8464 109.369C82.8744 109.313 82.9004 109.257 82.924 109.2C82.924 109.197 82.924 109.193 82.9275 109.191C82.9555 109.127 82.9815 109.061 83.0051 108.992C83.0069 108.986 83.0093 108.98 83.0121 108.973C83.0331 108.912 83.0509 108.852 83.0711 108.789C83.2962 108.032 83.2942 107.127 82.9547 106.052C82.0851 103.29 78.5312 101.491 77.4668 100.566C77.7661 98.1398 77.8976 95.6963 77.8603 93.2524C78.3303 92.9301 78.7825 92.5825 79.2149 92.2113C79.2667 94.7429 79.1371 97.2749 78.8268 99.788C79.8912 100.713 83.4444 102.513 84.3147 105.274C84.6543 106.349 84.6562 107.253 84.4311 108.011C84.4121 108.074 84.3923 108.135 84.3722 108.196C84.3693 108.202 84.367 108.208 84.3652 108.215C84.3407 108.283 84.3147 108.349 84.2876 108.413C84.2856 108.413 84.2856 108.419 84.2841 108.422C84.2596 108.48 84.2336 108.535 84.2065 108.591C84.1716 108.661 84.1351 108.729 84.0967 108.797C84.0338 108.905 83.9659 109.009 83.8945 109.11C83.886 109.123 83.877 109.133 83.8701 109.144C83.8336 109.194 83.7952 109.243 83.7568 109.29C83.7183 109.337 83.6854 109.375 83.6489 109.417C83.6244 109.447 83.5984 109.475 83.5713 109.502C83.3849 109.704 83.1803 109.888 82.9601 110.051C82.9043 110.095 82.8437 110.137 82.7859 110.178C82.5875 110.315 82.3815 110.44 82.1689 110.553C82.1096 110.584 82.0525 110.614 81.9932 110.642C81.9493 110.664 81.9078 110.684 81.8639 110.703C81.791 110.738 81.7161 110.771 81.6428 110.802L81.621 110.811C81.8334 110.652 82.0309 110.474 82.2112 110.28V110.28Z" fill="white"/>
</g>
<g opacity="0.35">
<path opacity="0.35" d="M84.2793 108.015C84.2618 108.077 84.2405 108.138 84.2199 108.198L84.2044 108.24C84.185 108.292 84.1656 108.344 84.1435 108.395C84.138 108.409 84.131 108.423 84.126 108.437C84.105 108.484 84.0841 108.531 84.0616 108.576C84.0511 108.599 84.0387 108.619 84.0282 108.64C84.0003 108.694 83.9727 108.747 83.9428 108.799C83.913 108.851 83.8819 108.902 83.8505 108.95C83.8229 108.989 83.7966 109.031 83.7706 109.067L83.7166 109.142C83.6468 109.236 83.5734 109.326 83.4951 109.414C83.471 109.444 83.4446 109.472 83.4175 109.499C83.2234 109.708 83.01 109.898 82.7799 110.067C82.738 110.1 82.6946 110.132 82.6507 110.161C82.6402 110.17 82.6282 110.177 82.6162 110.186C82.5359 110.241 82.454 110.294 82.3721 110.344C82.3147 110.379 82.2557 110.414 82.1959 110.449C82.0795 110.517 81.9592 110.579 81.8374 110.639C81.7761 110.668 81.7152 110.698 81.6542 110.726C81.6038 110.75 81.5534 110.773 81.501 110.794C81.4835 110.803 81.4645 110.809 81.4436 110.818C81.3302 110.867 81.2134 110.91 81.0986 110.952C80.9085 111.022 80.7172 111.083 80.529 111.137C80.4731 111.153 80.4172 111.166 80.3617 111.182C80.3062 111.198 80.2414 111.212 80.1821 111.226C80.0897 111.248 79.9993 111.268 79.9104 111.287C79.8216 111.306 79.7432 111.318 79.6613 111.332C79.6128 111.341 79.5655 111.348 79.5185 111.355C79.4557 111.365 79.3932 111.374 79.3323 111.381C71.9853 112.29 67.8284 109.623 66.3511 107.037C65.4346 105.428 65.2848 103.445 65.3423 102.222C65.5669 97.4415 64.4975 91.4814 62.9016 90.119C62.9016 90.119 61.3665 90.3821 59.9696 90.3821H59.9428C58.5459 90.3821 57.0105 90.119 57.0105 90.119C55.4165 91.4814 54.3451 97.4415 54.5683 102.222C54.6272 103.445 54.4794 105.428 53.5594 107.037C52.0821 109.623 47.9252 112.29 40.5802 111.381C40.5193 111.374 40.4564 111.365 40.3939 111.355C40.3466 111.348 40.2996 111.341 40.2507 111.332C40.1689 111.318 40.0855 111.304 40.0001 111.287C39.9147 111.269 39.8189 111.248 39.7285 111.226C39.6641 111.212 39.5977 111.194 39.5317 111.177C39.4809 111.165 39.4324 111.151 39.382 111.138C39.0831 111.054 38.7892 110.953 38.5019 110.835C38.4759 110.823 38.4495 110.812 38.422 110.8C38.3486 110.769 38.2737 110.736 38.2004 110.701C38.1569 110.682 38.115 110.662 38.0716 110.64C38.0126 110.612 37.9552 110.583 37.8958 110.551C37.6832 110.438 37.4772 110.313 37.2788 110.176C37.2199 110.135 37.1624 110.093 37.1046 110.049C36.8844 109.885 36.6797 109.702 36.4931 109.5C36.4671 109.473 36.4411 109.445 36.4155 109.415C36.379 109.373 36.3421 109.331 36.3072 109.288C36.2723 109.245 36.2296 109.192 36.1943 109.142C36.1873 109.131 36.1784 109.121 36.1698 109.108C36.0984 109.007 36.0305 108.903 35.9677 108.795C35.9289 108.727 35.8928 108.659 35.8579 108.589C35.8299 108.534 35.8039 108.478 35.7803 108.42C35.7803 108.417 35.7803 108.413 35.7768 108.411C35.7488 108.347 35.723 108.281 35.6992 108.213C35.6974 108.206 35.6951 108.2 35.6922 108.194C35.6712 108.133 35.6534 108.072 35.6328 108.009C36.2925 108.236 37.072 109.352 39.673 109.522C48.3598 110.089 50.837 106.409 52.5478 103.414C53.6125 101.552 52.4139 99.1845 51.9731 97.8357C51.6393 96.828 51.4401 95.7806 51.3806 94.7206C51.2359 92.0273 49.9294 89.5567 47.8107 87.9922C45.0615 86.799 42.5475 87.6042 41.0823 88.3496C41.261 86.5593 41.5343 84.7798 41.901 83.0185C42.2794 81.1804 42.7341 79.4626 43.213 77.8406C44.821 76.2062 47.5092 74.8473 50.8544 73.9661C53.5357 73.2552 56.6384 72.8494 59.9452 72.8494C63.1821 72.8494 66.2239 73.2374 68.8667 73.9188C72.3202 74.8093 75.088 76.1992 76.717 77.8806C77.1876 79.4765 77.6335 81.1683 78.0079 82.9731C78.3862 84.7848 78.6667 86.6156 78.848 88.4575C77.4853 87.7241 75.0306 86.825 72.3024 87.8339C72.3024 87.8339 72.3024 87.8339 72.2989 87.8339C71.2052 88.5897 70.2959 89.5822 69.6383 90.7376C68.9808 91.893 68.592 93.1817 68.5008 94.508C68.4314 95.5235 68.2537 96.6297 67.9417 97.8338C67.5862 99.2066 66.3058 101.548 67.3686 103.412C69.0794 106.407 70.7553 111.561 82.0989 109.087C82.6519 108.971 83.6188 108.24 84.2793 108.015Z" fill="#371A45"/>
</g>
<path d="M76.4956 112.266C70.6826 112.266 67.1655 109.878 65.7445 107.389C64.6239 105.427 64.6021 103.103 64.6448 102.196C64.8532 97.7522 63.8862 92.3838 62.6527 90.8681C62.099 90.9488 61.0051 91.0862 59.9664 91.0862H59.9415C58.9032 91.0862 57.8074 90.9488 57.2552 90.8681C56.022 92.3838 55.0547 97.7522 55.2634 102.196C55.3061 103.103 55.284 105.427 54.1638 107.389C52.7416 109.877 49.223 112.266 43.4115 112.266C42.4356 112.264 41.4609 112.201 40.4927 112.079C38.7854 111.868 36.5666 111.034 35.4693 109.327C34.6991 108.128 34.5683 106.696 35.0813 105.07C35.8228 102.715 38.1979 101.08 39.7694 99.9985C40.0442 99.8091 40.2948 99.6364 40.4958 99.4874C39.1397 87.7026 41.8656 79.4919 44.0603 72.8795C44.4483 71.7088 44.8161 70.6025 45.1417 69.5335C45.1633 69.4403 45.2038 69.3524 45.2608 69.2755C45.3177 69.1986 45.3899 69.1342 45.4728 69.0863C45.5556 69.0384 45.6475 69.0081 45.7426 68.9972C45.8377 68.9863 45.934 68.995 46.0256 69.0229C46.1171 69.0508 46.202 69.0972 46.2749 69.1592C46.3478 69.2212 46.4071 69.2976 46.4493 69.3836C46.4914 69.4695 46.5154 69.5632 46.5199 69.6588C46.5243 69.7544 46.509 69.8499 46.475 69.9394C46.1444 71.0259 45.7765 72.1391 45.3831 73.3187C43.2101 79.8706 40.5016 88.025 41.9253 99.7071C41.9393 99.82 41.9255 99.9347 41.8849 100.041C41.8443 100.147 41.7782 100.242 41.6925 100.317C41.4174 100.556 41.0204 100.83 40.5606 101.146C39.1466 102.12 37.0094 103.591 36.4118 105.488C36.0292 106.701 36.1072 107.739 36.6446 108.574C37.482 109.877 39.3348 110.531 40.6666 110.696C47.5576 111.55 51.5314 109.19 52.9551 106.699C53.9205 105.008 53.9018 102.875 53.8731 102.262C53.6473 97.4468 54.6717 91.208 56.5567 89.5954C56.6348 89.5291 56.7264 89.4806 56.8251 89.4535C56.9239 89.4263 57.0273 89.4211 57.1283 89.4382C57.1431 89.441 58.6253 89.6932 59.9435 89.6932H59.9695C61.2915 89.6932 62.7699 89.441 62.7846 89.4382C62.8856 89.4209 62.9891 89.426 63.0879 89.4532C63.1867 89.4803 63.2783 89.5289 63.3562 89.5954C65.2416 91.208 66.2664 97.4468 66.0402 102.262C66.0111 102.875 65.9925 105.008 66.9583 106.699C68.38 109.19 72.355 111.55 79.2464 110.696C80.5785 110.531 82.4309 109.877 83.2683 108.574C83.8045 107.74 83.8825 106.702 83.5011 105.488C82.9035 103.592 80.7663 102.12 79.3519 101.146C78.8921 100.83 78.4951 100.556 78.22 100.317C78.1345 100.242 78.0685 100.147 78.028 100.041C77.9874 99.9346 77.9734 99.82 77.9872 99.7071C79.4109 88.025 76.7044 79.8706 74.5295 73.3187C74.1383 72.1391 73.7686 71.0251 73.438 69.9394C73.4039 69.8499 73.3886 69.7544 73.3931 69.6588C73.3975 69.5632 73.4215 69.4695 73.4637 69.3836C73.5058 69.2976 73.5652 69.2212 73.6381 69.1592C73.7109 69.0972 73.7958 69.0508 73.8874 69.0229C73.9789 68.995 74.0753 68.9863 74.1704 68.9972C74.2655 69.0081 74.3573 69.0384 74.4402 69.0863C74.5231 69.1342 74.5952 69.1986 74.6522 69.2755C74.7091 69.3524 74.7496 69.4403 74.7712 69.5335C75.0968 70.6025 75.4639 71.7088 75.8527 72.8795C78.0474 79.4919 80.7729 87.7022 79.4167 99.4874C79.6177 99.6364 79.8684 99.8091 80.1431 99.9985C81.7146 101.08 84.0897 102.715 84.8317 105.07C85.3439 106.696 85.2131 108.128 84.4436 109.327C83.3467 111.034 81.1295 111.868 79.4202 112.079C78.4501 112.201 77.4734 112.264 76.4956 112.266Z" fill="#371A45"/>
<path d="M83.1859 83.1211C79.4748 83.1211 75.9197 80.4561 76.3384 76.2736C76.5293 74.3633 77.5152 72.8787 79.02 72.2202C79.1664 72.1557 79.3165 72.0997 79.4694 72.0526C81.2194 71.5031 83.5553 71.9889 86.1132 74.0249C86.1132 74.0249 86.7573 75.5604 86.1241 77.3907C85.979 77.8077 85.7823 78.2049 85.5385 78.573C85.5385 78.573 87.0375 78.3767 87.6339 79.1807C87.7316 79.3111 87.801 79.4604 87.8376 79.6192C88.1527 80.9253 86.8974 83.1211 83.1859 83.1211Z" fill="white"/>
<path d="M83.1852 83.7664C80.9202 83.7664 78.7279 82.8382 77.3205 81.283C76.0641 79.8946 75.5022 78.14 75.6954 76.2091C75.9135 74.0269 77.0535 72.3463 78.8253 71.5986C81.0153 70.6747 83.818 71.3747 86.5145 73.5205C86.5997 73.5881 86.6664 73.6762 86.7085 73.7766C86.7473 73.8678 87.5191 75.7703 86.601 77.951C87.4077 78.081 88.2307 78.4919 88.4659 79.4682C88.656 80.2605 88.415 81.1833 87.8217 81.9361C87.2828 82.6205 85.9638 83.7664 83.1852 83.7664ZM80.8702 72.4887C80.3409 72.4837 79.8161 72.5855 79.327 72.7879C78.005 73.3459 77.1494 74.6396 76.9794 76.3376C76.8242 77.8955 77.2724 79.3064 78.2774 80.4169C79.4442 81.7063 81.2788 82.4758 83.1852 82.4758C85.4183 82.4758 86.4132 81.6369 86.8074 81.1371C87.2207 80.6129 87.2862 80.0871 87.2102 79.7693C87.0414 79.0677 85.6336 79.2113 85.6193 79.2132C85.4969 79.2287 85.3726 79.2088 85.2611 79.1559C85.1497 79.103 85.0557 79.0192 84.9904 78.9145C84.9251 78.8098 84.8911 78.6886 84.8925 78.5653C84.894 78.4419 84.9307 78.3215 84.9984 78.2183C85.3685 77.6664 85.6114 77.0393 85.7098 76.3821C85.8082 75.7249 85.7595 75.0541 85.5673 74.418C83.9321 73.1526 82.2958 72.4887 80.871 72.4887H80.8702Z" fill="#371A45"/>
<g opacity="0.35">
<path opacity="0.35" d="M83.1859 83.1211C79.4748 83.1211 75.9197 80.4561 76.3384 76.2736C76.5293 74.3633 77.5152 72.8787 79.02 72.2202C79.1664 72.1557 79.3165 72.0997 79.4694 72.0526C81.2194 71.5031 83.5553 71.9889 86.1132 74.0249C86.1132 74.0249 86.7573 75.5604 86.1241 77.3907C84.5033 77.6418 83.1149 77.4726 81.978 77.123C81.2997 77.2887 80.3094 77.6045 80.044 78.7112C79.7068 80.1135 82.6857 83.0668 85.9987 80.1081C86.6374 79.5369 87.1795 79.2641 87.6378 79.1803C87.7354 79.3107 87.8048 79.46 87.8415 79.6188C88.1527 80.9253 86.8974 83.1211 83.1859 83.1211Z" fill="#371A45"/>
</g>
<path d="M79.1127 63.4877C79.6118 63.9248 79.9768 64.4943 80.1654 65.1303C80.354 65.7664 80.3584 66.4428 80.1782 67.0813L79.4277 69.735L78.8069 71.9285C78.8069 71.9285 81.6112 75.2656 86.6839 74.4647C86.6839 74.4647 87.1573 73.6607 87.7285 72.3876C88.898 69.7785 90.4765 65.1924 89.2201 61.5138C87.3505 56.0387 76.691 46.4342 72.9418 51.1701C70.8698 53.7858 74.7644 59.6711 79.1127 63.4877Z" fill="#FF5555"/>
<path d="M86.1343 78.818C86.026 78.8949 85.9137 78.966 85.7978 79.031C85.6879 79.0944 85.5771 79.154 85.4653 79.2099C85.2428 79.3223 85.0135 79.4209 84.7789 79.5052C84.5461 79.5881 84.3066 79.6508 84.063 79.6926C83.8254 79.7308 83.5836 79.7352 83.3447 79.7058C83.7882 79.5537 84.1344 79.2708 84.437 78.958C84.5861 78.7997 84.7252 78.6324 84.8538 78.4571C84.9182 78.3706 84.9799 78.2821 85.0381 78.1928C85.0952 78.1098 85.147 78.0232 85.1933 77.9336C85.2291 77.8509 85.281 77.7762 85.3461 77.7138C85.4111 77.6514 85.488 77.6026 85.5721 77.5703C85.6563 77.5379 85.746 77.5227 85.8361 77.5255C85.9262 77.5283 86.0149 77.5491 86.0968 77.5866C86.1788 77.6241 86.2525 77.6775 86.3135 77.7439C86.3746 77.8102 86.4218 77.888 86.4524 77.9728C86.483 78.0576 86.4963 78.1476 86.4917 78.2377C86.487 78.3277 86.4644 78.4159 86.4253 78.4971C86.3775 78.6024 86.3033 78.6935 86.2099 78.7617L86.1343 78.818Z" fill="#371A45"/>
<g opacity="0.6">
<path opacity="0.6" d="M88.914 69.2283C88.7727 59.8523 83.2686 53.704 83.2686 53.704C84.3574 54.6495 85.3706 55.6787 86.2991 56.7822C86.6167 57.1602 86.9153 57.5382 87.1946 57.9164C88.1333 59.1814 88.8476 60.4297 89.2198 61.5138C90.0587 63.967 89.6369 66.8229 88.914 69.2283Z" fill="white"/>
</g>
<g opacity="0.35">
<path opacity="0.35" d="M87.7302 72.3875C87.159 73.6606 86.6856 74.4646 86.6856 74.4646C81.6113 75.2663 78.8086 71.9284 78.8086 71.9284L79.4294 69.7349L80.4139 66.2535C80.4139 66.2535 82.7692 72.0177 86.3022 67.6559C88.2567 65.2443 87.9036 61.1211 87.1978 57.9163C88.1364 59.1813 88.8508 60.4296 89.2229 61.5137C90.4801 65.1923 88.8997 69.7768 87.7302 72.3875Z" fill="#371A45"/>
</g>
<g opacity="0.35">
<path opacity="0.35" d="M86.3003 56.7821C85.6523 57.9205 84.57 59.5902 83.3365 60.577C82.2939 61.412 80.3246 62.4628 78.7919 62.8276C78.6798 62.8528 78.5672 62.8757 78.4594 62.8943C74.385 59.0846 70.9735 53.6534 72.9427 51.1692C73.095 50.976 73.2677 50.7997 73.4577 50.6434C76.4738 48.1581 82.5511 52.3155 86.3003 56.7821Z" fill="#371A45"/>
</g>
<path d="M85.1149 75.2868C80.7736 75.2868 78.3841 72.5085 78.2728 72.3765C78.1997 72.2894 78.149 72.1856 78.1251 72.0744C78.1012 71.9631 78.1049 71.8477 78.1358 71.7382L79.5075 66.8914C79.6501 66.3796 79.6457 65.838 79.4947 65.3286C79.3437 64.8193 79.0523 64.3628 78.6538 64.0114C74.8282 60.6538 69.747 54.081 72.3972 50.7369C73.3945 49.4774 74.8872 48.9776 76.7145 49.2919C81.5865 50.1297 88.3724 56.8693 89.8811 61.2886C91.2314 65.2407 89.5113 70.1171 88.3677 72.6722C87.7857 73.9659 87.3076 74.7839 87.2875 74.818C87.2352 74.9066 87.1641 74.9825 87.0791 75.0404C86.9941 75.0983 86.8974 75.1367 86.7958 75.1529C86.2399 75.2414 85.6778 75.2861 85.1149 75.2868V75.2868ZM79.5851 71.7351C80.308 72.4336 82.5931 74.274 86.2456 73.822C86.4268 73.489 86.7419 72.8852 87.0935 72.1018C88.1551 69.7348 89.7573 65.2387 88.5614 61.7387C87.1971 57.742 80.8536 51.4171 76.4774 50.6651C75.1468 50.4366 74.1694 50.7427 73.4895 51.6018C71.8055 53.7267 75.2745 59.1921 79.5727 62.9633C80.1685 63.4889 80.6042 64.1717 80.8299 64.9335C81.0556 65.6952 81.0622 66.5051 80.8489 67.2705L79.5851 71.7351Z" fill="#371A45"/>
<path d="M85.1144 75.113C80.8546 75.113 78.5155 72.394 78.4069 72.2644C78.3519 72.1991 78.3137 72.1213 78.2958 72.0378C78.2779 71.9543 78.2807 71.8677 78.3041 71.7856L78.9249 69.5921C78.95 69.5038 78.9978 69.4238 79.0637 69.3599C79.1295 69.296 79.211 69.2506 79.2999 69.2282C79.3889 69.2058 79.4822 69.2072 79.5704 69.2322C79.6586 69.2573 79.7387 69.3051 79.8026 69.3709C79.8282 69.3969 82.5316 72.0898 87.7072 71.8651C87.7963 71.8608 87.885 71.8795 87.9648 71.9196C88.0445 71.9596 88.1126 72.0196 88.1623 72.0937C88.2123 72.1675 88.2426 72.2529 88.2504 72.3417C88.2581 72.4305 88.243 72.5199 88.2066 72.6012C87.6303 73.886 87.1554 74.6966 87.1352 74.7296C87.0961 74.796 87.0427 74.853 86.979 74.8964C86.9153 74.9398 86.8427 74.9686 86.7666 74.9806C86.2202 75.0679 85.6677 75.1121 85.1144 75.113V75.113ZM79.3901 71.7875C80.0498 72.4507 82.4455 74.5037 86.3564 73.9842C86.4728 73.77 86.6696 73.4041 86.9036 72.9225C83.1913 72.8779 80.7898 71.4697 79.7099 70.658L79.3901 71.7875Z" fill="#371A45"/>
<path d="M79.6036 66.7187C79.7547 66.2606 79.9318 65.8114 80.134 65.3734C80.3299 64.9422 80.5487 64.5217 80.7894 64.1139C81.0309 63.709 81.3017 63.3222 81.5996 62.9568C81.898 62.5992 82.2381 62.2787 82.6128 62.0022C82.3204 62.3484 82.0707 62.7284 81.8689 63.1341C81.675 63.5366 81.5108 63.9528 81.3777 64.3793C81.2468 64.8041 81.1389 65.2357 81.0544 65.6722C80.9692 66.0994 80.9078 66.531 80.8705 66.9651V66.9674C80.8641 67.0526 80.841 67.1356 80.8025 67.2118C80.764 67.288 80.7109 67.3558 80.6462 67.4115C80.5815 67.4672 80.5065 67.5096 80.4254 67.5362C80.3443 67.5629 80.2587 67.5733 80.1736 67.5669C80.0885 67.5605 80.0054 67.5374 79.9292 67.4989C79.8531 67.4605 79.7852 67.4074 79.7295 67.3426C79.6738 67.2779 79.6315 67.2029 79.6048 67.1218C79.5781 67.0407 79.5677 66.9552 79.5741 66.87C79.5783 66.8187 79.5882 66.7679 79.6036 66.7187V66.7187Z" fill="#371A45"/>
<path d="M41.1267 63.4877C40.6278 63.9249 40.2629 64.4944 40.0744 65.1304C39.8859 65.7665 39.8814 66.4429 40.0616 67.0813L40.812 69.735L41.4329 71.9285C41.4329 71.9285 38.6286 75.2656 33.5559 74.4647C33.5559 74.4647 33.0825 73.6607 32.5113 72.3876C31.3418 69.7785 29.7633 65.1924 31.0197 61.5138C32.8893 56.0387 43.5488 46.4342 47.2979 51.1701C49.37 53.7858 45.4758 59.6711 41.1267 63.4877Z" fill="#FF5555"/>
<g opacity="0.6">
<path opacity="0.6" d="M31.3265 69.2283C31.4677 59.8523 36.9723 53.704 36.9723 53.704H36.9708C35.882 54.6496 34.8688 55.6788 33.9402 56.7822C33.6223 57.1602 33.3239 57.5382 33.0451 57.9164C32.1064 59.1814 31.3917 60.4297 31.0199 61.5138C30.1822 63.967 30.604 66.8229 31.3265 69.2283Z" fill="white"/>
</g>
<g opacity="0.35">
<path opacity="0.35" d="M32.5104 72.3875C33.082 73.6606 33.5554 74.4646 33.5554 74.4646C38.6296 75.2663 41.4324 71.9284 41.4324 71.9284L40.8115 69.7349L39.8271 66.2535C39.8271 66.2535 37.4718 72.0177 33.9384 67.6559C31.9839 65.2443 32.337 61.1211 33.0432 57.9163C32.1046 59.1813 31.3898 60.4296 31.0181 61.5137C29.7628 65.1923 31.3413 69.7768 32.5104 72.3875Z" fill="#371A45"/>
</g>
<g opacity="0.35">
<path opacity="0.35" d="M33.9395 56.7821C34.5875 57.9205 35.6697 59.5902 36.9036 60.577C37.9462 61.412 39.9155 62.4628 41.4482 62.8276C41.5603 62.8528 41.6725 62.8757 41.7807 62.8943C45.8551 59.0846 49.2666 53.6534 47.2974 51.1692C47.1449 50.976 46.9722 50.7997 46.7821 50.6434C43.7663 48.1581 37.6886 52.3155 33.9395 56.7821Z" fill="#371A45"/>
</g>
<path d="M35.1247 75.287C34.5625 75.2861 34.0013 75.2412 33.4461 75.1527C33.3445 75.1365 33.2478 75.0981 33.1628 75.0402C33.0779 74.9823 33.0067 74.9064 32.9545 74.8178C32.9343 74.7837 32.4547 73.9642 31.8742 72.6724C30.7287 70.1169 29.009 65.2405 30.3609 61.2884C31.8695 56.8692 38.6554 50.1295 43.5275 49.2917C45.3547 48.9774 46.8474 49.4772 47.8447 50.7371C50.4949 54.0808 45.4137 60.6536 41.5881 64.0112C41.1896 64.3626 40.8982 64.8191 40.7472 65.3285C40.5962 65.8378 40.5918 66.3794 40.7344 66.8912L42.1061 71.7381C42.137 71.8476 42.1407 71.963 42.1168 72.0742C42.0929 72.1854 42.0422 72.2892 41.9691 72.3764C41.8555 72.5091 39.4656 75.287 35.1247 75.287ZM33.994 73.8222C37.6449 74.2723 39.9308 72.4357 40.6545 71.7353L39.3911 67.2707C39.1778 66.5053 39.1844 65.6954 39.4101 64.9337C39.6358 64.1719 40.0715 63.4891 40.6673 62.9635C44.9643 59.1923 48.4345 53.7284 46.7504 51.6024C46.0702 50.7426 45.0924 50.4364 43.7626 50.6653C39.3864 51.4177 33.0429 57.7422 31.6786 61.7385C30.4827 65.239 32.0849 69.7343 33.1461 72.102C33.4973 72.8858 33.8128 73.4896 33.994 73.8225V73.8222Z" fill="#371A45"/>
<path d="M35.1264 75.113C34.5729 75.1122 34.0204 75.068 33.4738 74.9807C33.3976 74.9686 33.325 74.9399 33.2612 74.8965C33.1974 74.8531 33.144 74.7961 33.1048 74.7296C33.085 74.6959 32.6101 73.8861 32.0338 72.6013C31.997 72.52 31.9816 72.4305 31.9892 72.3415C31.9968 72.2526 32.027 72.167 32.0771 72.0931C32.1271 72.0191 32.1953 71.9592 32.2751 71.9191C32.3549 71.879 32.4436 71.8601 32.5328 71.864C37.7099 72.0887 40.4098 69.3958 40.4385 69.3686C40.5026 69.3033 40.5828 69.2558 40.6709 69.2311C40.7591 69.2064 40.8522 69.2052 40.9409 69.2277C41.0297 69.2502 41.111 69.2956 41.1767 69.3593C41.2424 69.4231 41.2903 69.5029 41.3155 69.591L41.9363 71.7845C41.9597 71.8666 41.9625 71.9532 41.9447 72.0366C41.9268 72.1201 41.8888 72.1979 41.8339 72.2633C41.7249 72.3941 39.3858 75.113 35.1264 75.113ZM33.8847 73.9842C37.7949 74.503 40.1906 72.4511 40.851 71.7876L40.5313 70.658C39.4514 71.4698 37.0495 72.8776 33.3376 72.9226C33.5708 73.4041 33.7664 73.77 33.8843 73.9842H33.8847Z" fill="#371A45"/>
<path d="M39.3702 66.9651C39.333 66.531 39.2714 66.0994 39.1859 65.6722C39.1013 65.2358 38.9936 64.8042 38.863 64.3793C38.7299 63.9527 38.5656 63.5365 38.3714 63.1341C38.1697 62.7284 37.9201 62.3484 37.6279 62.0022C38.0026 62.2787 38.3427 62.5992 38.6411 62.9568C38.9389 63.3222 39.2097 63.709 39.4513 64.1139C39.692 64.5217 39.9108 64.9422 40.1067 65.3734C40.3087 65.8114 40.4857 66.2606 40.6367 66.7187C40.6645 66.8003 40.6757 66.8866 40.6698 66.9726C40.6639 67.0585 40.641 67.1425 40.6024 67.2195C40.5637 67.2965 40.5101 67.3651 40.4448 67.4212C40.3794 67.4774 40.3035 67.52 40.2215 67.5465C40.1395 67.573 40.053 67.583 39.9671 67.5758C39.8813 67.5686 39.7977 67.5444 39.7212 67.5046C39.6448 67.4648 39.577 67.4102 39.5219 67.3439C39.4668 67.2777 39.4253 67.2011 39.4001 67.1188C39.3845 67.0706 39.3745 67.0209 39.3702 66.9705V66.9651Z" fill="#371A45"/>
<path d="M59.9399 86.2743C70.0938 86.2743 78.3251 82.4554 78.3251 77.7446C78.3251 73.0338 70.0938 69.215 59.9399 69.215C49.786 69.215 41.5547 73.0338 41.5547 77.7446C41.5547 82.4554 49.786 86.2743 59.9399 86.2743Z" fill="#FF5555"/>
<path d="M59.9415 86.9716C49.2412 86.9716 40.8594 82.9187 40.8594 77.7451C40.8594 72.5715 49.2408 68.5181 59.9415 68.5181C70.6422 68.5181 79.0236 72.5711 79.0236 77.7451C79.0236 82.9191 70.6402 86.9716 59.9415 86.9716ZM59.9415 69.9119C50.3537 69.9119 42.2532 73.4989 42.2532 77.7451C42.2532 81.9913 50.3537 85.5778 59.9415 85.5778C69.5293 85.5778 77.6302 81.9909 77.6302 77.7451C77.6302 73.4993 69.5281 69.9119 59.9415 69.9119Z" fill="#371A45"/>
<path d="M78.3269 77.7454C78.3269 82.4553 70.0964 86.2742 59.9413 86.2742C49.7862 86.2742 41.5576 82.4553 41.5576 77.7454C41.5577 77.3543 41.614 76.9652 41.7249 76.5902C42.9402 72.4239 50.6321 69.2145 59.9413 69.2145C69.2505 69.2145 76.9443 72.4239 78.1596 76.5902C78.2705 76.9652 78.3268 77.3543 78.3269 77.7454V77.7454Z" fill="#FF5555"/>
<g opacity="0.35">
<path opacity="0.35" d="M78.3249 77.7455C78.3249 82.4554 70.0944 86.2743 59.9393 86.2743C49.7842 86.2743 41.5557 82.4554 41.5557 77.7455C41.5553 77.4717 41.5833 77.1986 41.6391 76.9306C42.5195 81.2606 50.3752 84.6481 59.9393 84.6481C69.5035 84.6481 77.3618 81.2606 78.2415 76.9306C78.2973 77.1986 78.3253 77.4717 78.3249 77.7455V77.7455Z" fill="#371A45"/>
</g>
<g opacity="0.6">
<path opacity="0.6" d="M78.1584 76.5902C76.9431 80.7545 69.2512 83.9655 59.9401 83.9655C50.6289 83.9655 42.9389 80.7545 41.7236 76.5902C42.9389 72.4239 50.6308 69.2145 59.9401 69.2145C69.2493 69.2145 76.9431 72.4239 78.1584 76.5902Z" fill="white"/>
</g>
<path d="M59.9415 86.9716C49.2412 86.9716 40.8594 82.9187 40.8594 77.7451C40.8594 72.5715 49.2408 68.5181 59.9415 68.5181C70.6422 68.5181 79.0236 72.5711 79.0236 77.7451C79.0236 82.9191 70.6402 86.9716 59.9415 86.9716ZM59.9415 69.9119C50.3537 69.9119 42.2532 73.4989 42.2532 77.7451C42.2532 81.9913 50.3537 85.5778 59.9415 85.5778C69.5293 85.5778 77.6302 81.9909 77.6302 77.7451C77.6302 73.4993 69.5281 69.9119 59.9415 69.9119Z" fill="#371A45"/>
<path d="M60.2141 82.642C60.1233 82.642 60.0329 82.642 59.9425 82.6401C53.5951 82.6055 47.2283 81.2924 43.5999 76.9523V76.95C42.5801 75.7301 41.7761 74.2726 41.2496 72.5346C41.0006 71.7057 40.8203 70.8577 40.7106 69.9992C40.4886 68.2919 40.4863 66.3708 40.7494 64.2083C40.7622 64.0938 40.7773 63.9797 40.7944 63.8653C40.827 63.5893 40.8658 63.3176 40.9108 63.0504C41.7862 57.3518 43.9316 53.111 46.6502 50.0774C50.6604 45.6081 55.9167 43.7646 60.2161 43.7646C64.5841 43.7646 69.9397 45.6659 73.9694 50.2932C76.5823 53.2899 78.6393 57.4329 79.5058 62.9402C79.5294 63.0892 79.5531 63.2378 79.5725 63.3868C79.6136 63.6561 79.6504 63.9299 79.6827 64.2083C81.4816 79.1773 70.7662 82.642 60.2141 82.642Z" fill="#FF5555"/>
<path d="M60.2141 82.7293C60.1225 82.7293 60.0314 82.7293 59.9402 82.727C52.1912 82.6851 46.6696 80.7608 43.5331 77.0082L43.5126 76.9814C42.4606 75.7161 41.6714 74.2288 41.1662 72.5579C40.9154 71.7245 40.7337 70.8718 40.6229 70.0085C40.394 68.2488 40.4064 66.2932 40.6594 64.1959C40.6722 64.0795 40.6877 63.9658 40.7048 63.8505C40.7366 63.5789 40.7762 63.3019 40.8212 63.0337C41.6318 57.7565 43.5696 53.378 46.5815 50.0177C50.1444 46.0466 55.24 43.6757 60.2122 43.6757C65.2884 43.6757 70.4542 46.1273 74.0311 50.2334C76.9137 53.539 78.7833 57.8089 79.588 62.9243C79.6117 63.0737 79.6358 63.2231 79.6552 63.3729C79.694 63.6375 79.7328 63.9161 79.7654 64.1955C80.439 69.7913 79.396 74.1896 76.665 77.269C73.4541 80.8932 67.9188 82.7293 60.2141 82.7293ZM43.6841 76.9205C46.7906 80.6161 52.2595 82.5109 59.9402 82.5528C60.0317 82.5551 60.1214 82.5551 60.2118 82.5551C67.8657 82.5551 73.3578 80.7387 76.5346 77.1564C79.231 74.1158 80.2597 69.7629 79.5919 64.2184C79.5593 63.9398 79.5225 63.6643 79.4821 63.3996C79.4627 63.2499 79.439 63.102 79.4157 62.9542C78.616 57.871 76.7601 53.6314 73.8991 50.3506C70.3553 46.2813 65.2383 43.8519 60.2118 43.8519C55.2885 43.8519 50.2394 46.201 46.7107 50.1356C43.7229 53.4704 41.7983 57.8186 40.9927 63.0636C40.9477 63.3302 40.9089 63.6026 40.8763 63.8754C40.8588 63.9918 40.8441 64.1047 40.8313 64.218C40.5798 66.3017 40.5674 68.243 40.7925 69.988C40.9016 70.842 41.0808 71.6856 41.3284 72.5102C41.8301 74.1671 42.6151 75.6423 43.662 76.8949L43.6841 76.9205Z" fill="#440203"/>
<g opacity="0.35">
<path opacity="0.35" d="M60.2136 82.2645C60.1228 82.2645 60.0324 82.2645 59.942 82.2626C53.5946 82.228 47.2278 80.9149 43.5993 76.5748V76.5725C42.5792 75.3522 41.7756 73.8951 41.2491 72.1571C41.0001 71.3282 40.8198 70.4802 40.7101 69.6217C40.5161 68.1166 40.4901 66.4438 40.6647 64.5875L40.7101 64.9561C40.8198 65.8146 41 66.6626 41.2491 67.4915C41.7752 69.2295 42.5792 70.6869 43.5993 71.9068V71.9092C47.2278 76.2493 53.5946 77.5624 59.942 77.5969C60.0324 77.5969 60.1228 77.5969 60.2136 77.5969C69.3552 77.5969 78.6151 74.9991 79.7598 64.5789C81.1191 78.9162 70.5872 82.2645 60.2136 82.2645Z" fill="#371A45"/>
</g>
<g opacity="0.35">
<path opacity="0.35" d="M79.5012 62.9401C79.3848 62.9661 79.2684 62.9898 79.1562 63.0092C77.8757 63.2358 76.9918 62.8994 77.3581 61.4353C77.3581 61.4353 69.4586 68.9189 59.8945 69.3348L59.7781 69.3286C51.65 68.9274 44.7419 63.4426 42.9069 61.861C42.5965 61.5917 42.4304 61.4342 42.4304 61.4342C42.5166 61.7772 42.5336 62.0573 42.4948 62.2836C42.4172 62.7127 42.1348 62.9455 41.7211 63.0317C41.486 63.0813 41.212 63.0837 40.9062 63.0491C41.7816 57.3505 43.9271 53.1098 46.6456 50.0762C50.6559 45.6068 55.9121 43.7633 60.2115 43.7633C64.5795 43.7633 69.9351 45.6646 73.9648 50.2919C76.5778 53.2898 78.6347 57.4316 79.5012 62.9401Z" fill="#371A45"/>
</g>
<path d="M60.214 83.3389C60.1174 83.3389 60.02 83.3389 59.9249 83.3366C51.9998 83.2935 46.323 81.296 43.0651 77.3998C43.0554 77.3881 43.0464 77.3769 43.0379 77.3648C40.3857 74.171 39.3823 69.7168 40.0555 64.1253C40.8832 57.2405 43.6025 51.6117 47.9189 47.8482C51.4026 44.8103 55.884 43.0685 60.214 43.0685C64.544 43.0685 69.0254 44.8103 72.5091 47.8482C76.8252 51.6121 79.5445 57.2405 80.3725 64.1253C81.0683 69.9019 79.9748 74.4612 77.1232 77.6768C73.7896 81.4341 68.1003 83.3389 60.214 83.3389ZM44.1605 76.536C47.1483 80.0834 52.4581 81.9025 59.9459 81.9432C60.0444 81.9455 60.1283 81.9459 60.214 81.9451C67.6859 81.9451 73.0244 80.199 76.0805 76.7518C78.6559 73.8474 79.6345 69.6551 78.9888 64.2914C78.2027 57.7546 75.6452 52.4316 71.593 48.8982C68.3595 46.0788 64.2119 44.4615 60.214 44.4615C56.2162 44.4615 52.0654 46.0788 48.8331 48.8982C44.7813 52.4316 42.2238 57.7546 41.4377 64.2914C40.8098 69.5053 41.7167 73.6138 44.1325 76.5034C44.1418 76.5139 44.1496 76.5251 44.1589 76.536H44.1605Z" fill="#371A45"/>
<path d="M60.1627 83.2497C60.0009 83.2497 59.8458 83.1854 59.7314 83.071C59.617 82.9566 59.5527 82.8015 59.5527 82.6397V43.7646C59.5567 43.6055 59.6228 43.4543 59.7367 43.3432C59.8506 43.2322 60.0034 43.17 60.1625 43.17C60.3216 43.17 60.4745 43.2322 60.5884 43.3432C60.7023 43.4543 60.7683 43.6055 60.7723 43.7646V82.6397C60.7724 82.7198 60.7566 82.7991 60.726 82.8731C60.6954 82.9471 60.6505 83.0143 60.5939 83.071C60.5373 83.1276 60.4701 83.1726 60.3961 83.2032C60.3221 83.2339 60.2428 83.2497 60.1627 83.2497V83.2497Z" fill="#371A45"/>
<path d="M66.8016 67.1181C66.6163 67.1181 66.4387 67.0445 66.3077 66.9135C66.1767 66.7825 66.1031 66.6049 66.1031 66.4196V55.0543C66.0967 54.9588 66.11 54.8631 66.1422 54.773C66.1743 54.6829 66.2246 54.6004 66.2899 54.5306C66.3553 54.4607 66.4343 54.405 66.522 54.367C66.6097 54.3289 66.7044 54.3093 66.8 54.3093C66.8957 54.3093 66.9903 54.3289 67.078 54.367C67.1658 54.405 67.2447 54.4607 67.3101 54.5306C67.3754 54.6004 67.4257 54.6829 67.4579 54.773C67.49 54.8631 67.5033 54.9588 67.4969 55.0543V66.4196C67.4969 66.6043 67.4238 66.7815 67.2934 66.9124C67.1631 67.0433 66.9863 67.1173 66.8016 67.1181V67.1181Z" fill="#371A45"/>
<path d="M68.2414 66.6587C68.3702 65.8652 67.8313 65.1176 67.0379 64.9888C66.2444 64.86 65.4968 65.3988 65.368 66.1923C65.2392 66.9857 65.778 67.7334 66.5715 67.8622C67.3649 67.991 68.1126 67.4522 68.2414 66.6587Z" fill="#371A45"/>
<path d="M53.011 67.1181C52.8257 67.1181 52.6481 67.0445 52.5171 66.9135C52.3861 66.7825 52.3125 66.6049 52.3125 66.4196V55.0543C52.3243 54.8775 52.4029 54.7118 52.5323 54.5907C52.6617 54.4697 52.8322 54.4023 53.0094 54.4023C53.1866 54.4023 53.3571 54.4697 53.4865 54.5907C53.6159 54.7118 53.6945 54.8775 53.7063 55.0543V66.4196C53.7063 66.6043 53.6331 66.7815 53.5028 66.9124C53.3725 67.0433 53.1957 67.1173 53.011 67.1181V67.1181Z" fill="#371A45"/>
<path d="M54.4503 66.6583C54.5791 65.8648 54.0403 65.1172 53.2469 64.9884C52.4534 64.8596 51.7058 65.3984 51.577 66.1918C51.4482 66.9853 51.987 67.733 52.7804 67.8617C53.5739 67.9905 54.3215 67.4517 54.4503 66.6583Z" fill="#371A45"/>
<path d="M86.7181 37.5482C86.6465 37.5518 86.575 37.5413 86.5075 37.5173C86.4401 37.4932 86.378 37.4561 86.3249 37.4081C86.2718 37.3601 86.2287 37.302 86.198 37.2373C86.1673 37.1726 86.1497 37.1025 86.1461 37.031L85.3572 21.3441C85.3534 21.2725 85.3637 21.2009 85.3877 21.1333C85.4116 21.0658 85.4487 21.0036 85.4968 20.9505C85.5449 20.8973 85.603 20.8542 85.6678 20.8236C85.7326 20.793 85.8029 20.7755 85.8745 20.7722V20.7722C86.6249 20.7343 87.3754 20.8446 88.0831 21.0968C88.7909 21.349 89.442 21.7381 89.9993 22.242C90.5567 22.7459 91.0093 23.3547 91.3313 24.0335C91.6533 24.7124 91.8385 25.448 91.8761 26.1984L92.145 31.5478C92.1828 32.2981 92.0723 33.0485 91.82 33.7562C91.5677 34.4639 91.1784 35.1149 90.6745 35.6721C90.1705 36.2293 89.5617 36.6818 88.8829 37.0037C88.204 37.3256 87.4684 37.5107 86.7181 37.5482V37.5482Z" fill="white"/>
<path d="M86.6907 37.6744C86.5189 37.6741 86.3537 37.6079 86.2292 37.4895C86.1048 37.371 86.0305 37.2093 86.0218 37.0377L85.2333 21.3508C85.2288 21.2628 85.2418 21.1749 85.2713 21.0919C85.3009 21.009 85.3465 20.9326 85.4055 20.8673C85.4646 20.802 85.536 20.7489 85.6155 20.7112C85.6951 20.6734 85.7813 20.6517 85.8693 20.6473C89.0899 20.4847 91.8391 22.9732 92.0001 26.1926L92.269 31.542C92.3466 33.0903 91.806 34.6061 90.766 35.7558C89.7261 36.9056 88.272 37.5952 86.7237 37.6729V37.6729C86.7136 37.674 86.7024 37.6744 86.6907 37.6744ZM86.1657 20.8898C86.0713 20.8898 85.9766 20.8923 85.8817 20.8972C85.8265 20.8999 85.7725 20.9135 85.7226 20.9371C85.6728 20.9608 85.628 20.994 85.591 21.035C85.554 21.0759 85.5254 21.1237 85.5069 21.1757C85.4884 21.2277 85.4803 21.2829 85.4832 21.338L86.2716 37.0249C86.2774 37.1361 86.327 37.2406 86.4096 37.3153C86.4923 37.39 86.6012 37.4289 86.7124 37.4234V37.4234C88.1943 37.349 89.5859 36.689 90.5812 35.5887C91.5765 34.4884 92.094 33.0378 92.0199 31.556L91.751 26.2066C91.6008 23.2184 89.1217 20.8898 86.1657 20.8898V20.8898Z" fill="#371A45"/>
<g opacity="0.35">
<path opacity="0.35" d="M92.0191 29.0392L92.146 31.5482C92.2215 33.0636 91.6923 34.547 90.6746 35.6724C89.6569 36.7977 88.2339 37.4729 86.7186 37.5495C86.574 37.5565 86.4326 37.5058 86.3254 37.4086C86.2182 37.3114 86.1539 37.1756 86.1466 37.0311L85.9355 32.8609C85.9832 32.9546 86.0568 33.0326 86.1475 33.0855C86.2383 33.1384 86.3424 33.164 86.4474 33.1593L86.8195 33.1396C88.0045 33.0803 89.1418 32.6537 90.0735 31.919C91.0052 31.1843 91.6852 30.1778 92.0191 29.0392V29.0392Z" fill="#371A45"/>
</g>
<path d="M86.6909 38.2459C86.3723 38.2457 86.0659 38.1232 85.8349 37.9037C85.6039 37.6843 85.4658 37.3845 85.4492 37.0663L84.6608 21.3791C84.6525 21.2161 84.6764 21.0531 84.7312 20.8995C84.786 20.7458 84.8705 20.6044 84.9799 20.4833C85.0894 20.3623 85.2216 20.2641 85.369 20.1942C85.5165 20.1243 85.6763 20.0842 85.8392 20.0761C89.3703 19.8984 92.393 22.6289 92.5707 26.1635L92.8397 31.5129C92.9251 33.2123 92.3321 34.8761 91.191 36.1384C90.05 37.4007 88.4544 38.1583 86.755 38.2444C86.7328 38.2455 86.7119 38.2459 86.6909 38.2459ZM86.0635 21.4625L86.8368 36.8424C88.1386 36.7374 89.3483 36.1295 90.2095 35.1476C91.0707 34.1657 91.5157 32.8871 91.4501 31.5827L91.1812 26.2333C91.0439 23.5171 88.7684 21.4109 86.0619 21.4625H86.0635Z" fill="#371A45"/>
<path d="M34.0959 23.3747C34.1674 23.371 34.2389 23.3816 34.3064 23.4056C34.3739 23.4297 34.4359 23.4668 34.489 23.5148C34.5421 23.5628 34.5853 23.6208 34.6159 23.6856C34.6466 23.7503 34.6643 23.8204 34.6678 23.8919L35.4571 39.5791C35.4607 39.6507 35.4502 39.7222 35.4261 39.7896C35.4021 39.8571 35.365 39.9192 35.317 39.9723C35.2689 40.0254 35.2109 40.0685 35.1462 40.0992C35.0815 40.1299 35.0114 40.1475 34.9399 40.1511V40.1511C34.1895 40.1889 33.439 40.0786 32.7313 39.8264C32.0235 39.5742 31.3724 39.185 30.8151 38.6811C30.2578 38.1772 29.8052 37.5685 29.4831 36.8897C29.1611 36.2109 28.9759 35.4753 28.9382 34.7249L28.6693 29.3755C28.5933 27.8602 29.1223 26.3767 30.1399 25.2514C31.1576 24.126 32.5806 23.451 34.0959 23.3747V23.3747Z" fill="white"/>
<path d="M34.6485 40.2834C31.5583 40.2834 28.9701 37.8512 28.8133 34.7311L28.5444 29.3829C28.4669 27.8345 29.0075 26.3188 30.0474 25.169C31.0874 24.0193 32.5414 23.3297 34.0898 23.252C34.1777 23.2476 34.2657 23.2605 34.3486 23.2901C34.4316 23.3196 34.5079 23.3652 34.5733 23.4243C34.6386 23.4833 34.6916 23.5547 34.7294 23.6343C34.7671 23.7138 34.7888 23.8 34.7933 23.888L35.5817 39.5752C35.5906 39.7528 35.5286 39.9266 35.4093 40.0585C35.2901 40.1903 35.1233 40.2694 34.9458 40.2783C34.846 40.2811 34.7467 40.2834 34.6485 40.2834ZM34.1239 23.4992H34.1022C33.3683 23.536 32.6488 23.7171 31.9849 24.032C31.321 24.3469 30.7256 24.7895 30.2327 25.3345C29.7399 25.8795 29.3592 26.5163 29.1125 27.2085C28.8657 27.9006 28.7578 28.6346 28.7947 29.3685L29.0636 34.7179C29.2188 37.7992 31.8516 40.1813 34.933 40.0254C35.0442 40.0195 35.1486 39.9699 35.2232 39.8873C35.2979 39.8046 35.3369 39.6958 35.3315 39.5846L34.5426 23.8973C34.5371 23.7899 34.4907 23.6886 34.4128 23.6144C34.3349 23.5402 34.2315 23.4987 34.1239 23.4984V23.4992Z" fill="#371A45"/>
<g opacity="0.35">
<path opacity="0.35" d="M35.2389 35.2271L35.4574 39.5792C35.4644 39.7238 35.4137 39.8652 35.3165 39.9724C35.2193 40.0796 35.0835 40.1439 34.939 40.1512C34.1887 40.1892 33.4383 40.079 32.7306 39.8268C32.0229 39.5747 31.3718 39.1856 30.8146 38.6817C30.2574 38.1779 29.8049 37.5692 29.4829 36.8904C29.161 36.2116 28.976 35.4761 28.9385 34.7257L28.8252 32.4717C29.3288 33.4492 30.1035 34.261 31.0565 34.8097C32.0094 35.3585 33.1003 35.621 34.1986 35.5658L34.771 35.5371C34.8696 35.5321 34.965 35.5006 35.0474 35.4461C35.1297 35.3916 35.1958 35.3159 35.2389 35.2271V35.2271Z" fill="#371A45"/>
</g>
<path d="M34.6484 40.8554C31.2563 40.8554 28.4147 38.185 28.2428 34.7598L27.9739 29.4105C27.8885 27.7107 28.4818 26.0466 29.6232 24.7842C30.7647 23.5219 32.3608 22.7646 34.0605 22.6789C34.2234 22.6707 34.3863 22.6947 34.54 22.7495C34.6936 22.8042 34.8349 22.8887 34.9559 22.9981C35.0769 23.1075 35.1751 23.2397 35.245 23.387C35.3148 23.5344 35.355 23.6941 35.3632 23.857L36.1516 39.5442C36.1599 39.7072 36.136 39.8701 36.0812 40.0238C36.0265 40.1775 35.942 40.3188 35.8326 40.4398C35.7232 40.5609 35.591 40.6591 35.4436 40.729C35.2962 40.7989 35.1365 40.8391 34.9736 40.8472C34.8653 40.8527 34.7563 40.8554 34.6484 40.8554ZM33.9798 24.0805C32.6778 24.1855 31.4679 24.7934 30.6065 25.7753C29.7451 26.7572 29.2999 28.036 29.3654 29.3406L29.6343 34.69C29.7709 37.4062 32.0521 39.5155 34.7524 39.4604L33.9798 24.0805Z" fill="#371A45"/>
<path d="M60.4104 57.2272C75.1928 57.2272 87.1763 45.2437 87.1763 30.4614C87.1763 15.679 75.1928 3.6955 60.4104 3.6955C45.628 3.6955 33.6445 15.679 33.6445 30.4614C33.6445 45.2437 45.628 57.2272 60.4104 57.2272Z" fill="white"/>
<path d="M60.4189 57.353C60.2296 57.353 60.0422 57.3506 59.8524 57.3468C45.0297 57.0391 33.2177 44.7277 33.5254 29.9034C33.6744 22.7218 36.6114 16.0282 41.7947 11.056C46.978 6.08383 53.7914 3.42893 60.9692 3.57638C75.7919 3.88409 87.6039 16.1951 87.2958 31.0198C86.992 45.6547 74.9883 57.353 60.4189 57.353ZM60.396 3.82084C53.4891 3.82084 46.9667 6.44159 41.9682 11.2365C36.833 16.1644 33.9235 22.7939 33.7757 29.9084C33.4707 44.595 45.1709 56.7915 59.8575 57.0965C74.544 57.4069 86.7405 45.7012 87.0455 31.0147L87.1708 31.0174L87.0455 31.0147C87.1933 23.9002 84.5621 17.1539 79.6342 12.0187C74.7062 6.88356 68.0767 3.9745 60.9622 3.82666C60.7744 3.82278 60.5846 3.82084 60.396 3.82084Z" fill="#371A45"/>
<g opacity="0.35">
<path opacity="0.35" d="M86.9918 27.3074C87.1383 28.5383 87.1985 29.778 87.1718 31.0173C86.8614 45.7962 74.6338 57.5279 59.8546 57.2225C45.0753 56.9171 33.344 44.6845 33.6494 29.9052C33.6579 29.4784 33.6765 29.0551 33.7056 28.6368C35.2391 41.7009 46.2083 51.9624 59.7308 52.2433C74.0851 52.5409 86.0318 41.484 86.9918 27.3074Z" fill="black"/>
<path opacity="0.35" d="M60.4166 57.3533C60.2284 57.3533 60.0417 57.3533 59.8528 57.3475C45.0301 57.037 33.2188 44.726 33.5254 29.9033C33.5339 29.4765 33.5529 29.0462 33.5816 28.6287L33.8311 28.6224C35.3712 41.7425 46.5069 51.8437 59.734 52.1188C59.9222 52.1227 60.1112 52.1246 60.2986 52.1246C74.3006 52.1246 85.9171 41.3242 86.867 27.2993L87.1161 27.2927C87.2629 28.5294 87.3234 29.7749 87.2973 31.0201C86.9911 45.6546 74.9859 57.3525 60.4166 57.3533ZM33.7741 29.9902C33.5161 44.6383 45.2004 56.791 59.8578 57.0972C60.0445 57.1011 60.2311 57.103 60.4166 57.103C74.8513 57.103 86.7436 45.5141 87.047 31.015C87.0629 30.2269 87.0447 29.4392 86.9923 28.6609C85.4072 42.1565 73.9797 52.3749 60.2986 52.3749C60.1089 52.3749 59.9195 52.3749 59.729 52.3691C53.4757 52.2382 47.4634 49.9323 42.7264 45.848C37.9894 41.7637 34.8238 36.1562 33.7741 29.9902V29.9902Z" fill="#371A45"/>
</g>
<path d="M87.0709 31.7026C87.041 36.941 85.3135 41.7914 82.3827 45.8001C80.1857 48.8039 71.1947 54.0322 60.1285 54.069C49.8678 54.1032 40.5636 48.58 38.4008 45.5514C35.5158 41.5116 33.843 36.6392 33.8725 31.4008C33.9501 17.5407 45.8917 11.8623 60.5824 11.9454C75.2732 12.0284 87.1493 17.8426 87.0709 31.7026Z" fill="#371A45"/>
<path d="M60.0319 54.7659C49.4387 54.7659 40.0981 49.1271 37.8335 45.9577C34.7569 41.6505 33.1462 36.6155 33.1772 31.3992C33.216 24.5997 35.971 19.3703 41.3697 15.8625C46.0776 12.8009 52.7207 11.2116 60.5884 11.2508C68.456 11.29 75.0805 12.9651 79.7531 16.0798C85.1106 19.6497 87.8078 24.9086 87.7694 31.7081C87.7395 36.9243 86.0722 41.94 82.947 46.213C80.7795 49.1767 71.8622 54.7283 60.1309 54.7675L60.0319 54.7659ZM60.2985 12.6422C52.3652 12.6422 34.6649 14.5401 34.5694 31.4058C34.5415 36.3268 36.0626 41.0782 38.9678 45.1459C41.0243 48.0255 50.0596 53.3721 60.0335 53.3721H60.1262C71.2208 53.3333 79.861 48.0678 81.8205 45.3888C84.7696 41.3533 86.3461 36.6193 86.3741 31.6987L87.0725 31.7026L86.3741 31.6987C86.4707 14.6321 68.3668 12.6873 60.5787 12.643L60.2985 12.6422Z" fill="#371A45"/>
<path d="M60.4194 57.9245C60.2253 57.9245 60.0348 57.9245 59.8408 57.9183C44.7011 57.604 32.6399 45.0311 32.9542 29.8913C33.1064 22.5576 36.1058 15.7217 41.3993 10.6451C46.6928 5.56849 53.6424 2.85539 60.9812 3.00595C68.32 3.1565 75.1509 6.15791 80.2294 11.4514C85.3079 16.7449 88.0203 23.6992 87.8682 31.0333C87.5577 45.9775 75.2987 57.9245 60.4194 57.9245ZM60.3968 4.39393C53.6397 4.39393 47.2539 6.95686 42.3647 11.6501C37.3398 16.4706 34.4928 22.9592 34.3481 29.9208C34.0497 44.2923 45.4988 56.2292 59.8703 56.5257C74.2417 56.8221 86.1763 45.3749 86.4747 31.0034L87.1732 31.0182L86.4747 31.0034C86.6195 24.0418 84.0445 17.4402 79.224 12.4168C74.4035 7.39339 67.9141 4.54254 60.9513 4.39819C60.7666 4.39535 60.5818 4.39393 60.3968 4.39393Z" fill="#371A45"/>
<g opacity="0.7">
<path opacity="0.7" d="M81.8051 30.3962C82.2859 27.8248 81.165 25.4578 79.3016 25.1094C77.4381 24.761 75.5378 26.5632 75.057 29.1346C74.5763 31.706 75.6971 34.073 77.5606 34.4214C79.424 34.7698 81.3243 32.9677 81.8051 30.3962Z" fill="white"/>
</g>
<g opacity="0.7">
<path opacity="0.7" d="M75.9516 39.7277C76.3334 38.5893 75.851 37.4008 74.8741 37.0732C73.8972 36.7456 72.7958 37.4029 72.414 38.5413C72.0322 39.6797 72.5146 40.8682 73.4915 41.1958C74.4684 41.5234 75.5698 40.8662 75.9516 39.7277Z" fill="white"/>
</g>
<path d="M81.9714 18.7432C85.2052 21.8645 87.1019 26.1351 87.0712 31.7033C87.0413 36.9417 85.3127 41.7948 82.3842 45.8016C80.1868 48.8053 71.1946 54.0333 60.1288 54.0713C56.2214 54.0853 52.454 53.2921 49.165 52.1362C62.7666 51.7998 73.7195 45.3845 76.4435 41.6571C80.1631 36.5716 82.3555 30.4116 82.392 23.7654C82.4082 22.0819 82.2674 20.4005 81.9714 18.7432V18.7432Z" fill="#220F2D"/>
<path d="M84.8503 20.2316C84.6929 20.2317 84.5403 20.1781 84.4176 20.0795L84.4002 20.0651L84.3315 20.0073L84.2795 19.9336C79.996 13.8547 71.5746 10.4727 60.5666 10.4102H60.2597C49.1943 10.4082 40.774 13.8043 36.5216 19.9852L36.4805 20.0391L35.4134 19.1428L35.9081 19.5634L35.373 19.1956C39.9328 12.5653 48.89 8.94848 60.5744 9.01638C72.0375 9.08157 80.8563 12.6685 85.4083 19.1172C85.4852 19.221 85.5319 19.3441 85.543 19.4728C85.5542 19.6016 85.5294 19.7309 85.4715 19.8464C85.4135 19.9619 85.3247 20.059 85.2148 20.127C85.1049 20.195 84.9783 20.2312 84.8491 20.2316H84.8503Z" fill="#371A45"/>
<g opacity="0.7">
<path opacity="0.7" d="M39.8002 39.681C39.8002 39.681 35.5846 25.9835 42.9843 20.5764C50.3841 15.1692 60.9858 15.2514 60.734 15.9301C60.734 15.9301 48.9809 18.7049 44.3362 27.959C40.7547 35.0925 39.8002 39.681 39.8002 39.681Z" fill="white"/>
</g>
<path d="M81.3968 70.6356C80.8473 72.8241 78.2805 74.6016 74.4801 75.8298C70.6798 77.0579 65.6401 77.742 60.1619 77.742C54.6837 77.742 49.6463 77.0594 45.8459 75.8298C42.0456 74.6001 39.4783 72.8241 38.9289 70.6356C38.8136 70.2005 38.7682 69.7498 38.7943 69.3004C38.7943 69.2511 38.7997 69.2022 38.8051 69.1549C38.8306 68.9128 38.8827 68.6743 38.9603 68.4436C38.9731 68.4017 38.9875 68.3617 39.0042 68.3214C39.0209 68.281 39.0348 68.2415 39.0511 68.205C39.5463 67.0514 40.5594 66.5753 40.5594 66.5753C40.5594 66.5753 43.8906 68.8584 49.5524 70.423C56.4958 72.3393 63.8287 72.3393 70.7721 70.423C76.4339 68.8584 79.767 66.5753 79.767 66.5753C79.767 66.5753 80.7802 67.0518 81.2734 68.205C81.2932 68.2523 81.3122 68.2997 81.3316 68.3489C81.4275 68.6087 81.4904 68.8795 81.519 69.1549C81.5244 69.2022 81.5279 69.2496 81.5299 69.2984C81.5559 69.7484 81.5109 70.1996 81.3968 70.6356Z" fill="#FF5555"/>
<g opacity="0.6">
<path opacity="0.6" d="M38.9609 69.9957C38.9737 69.9538 38.9881 69.9139 39.0047 69.8735C39.0214 69.8331 39.0354 69.7936 39.0517 69.7571C39.5468 68.6035 40.56 68.1274 40.56 68.1274C40.56 68.1274 43.8912 70.4105 49.5529 71.9751C56.4964 73.8914 63.8292 73.8914 70.7727 71.9751C76.4344 70.4105 79.7676 68.1274 79.7676 68.1274C79.7676 68.1274 80.7807 68.6039 81.2739 69.7594C81.2937 69.8064 81.3127 69.8537 81.3321 69.903C81.3959 70.0764 81.4449 70.2549 81.4784 70.4365C81.5324 70.1253 81.5499 69.8089 81.5304 69.4936C81.5285 69.4447 81.525 69.3974 81.5196 69.3501C81.491 69.0746 81.428 68.8039 81.3321 68.5441C81.3139 68.4948 81.2933 68.4475 81.2739 68.4005C80.7807 67.245 79.7676 66.7685 79.7676 66.7685C79.7676 66.7685 76.4344 69.0517 70.7727 70.6162C63.8292 72.5325 56.4964 72.5325 49.5529 70.6162C43.8912 69.0517 40.56 66.7685 40.56 66.7685C40.56 66.7685 39.5468 67.245 39.0517 68.3982C39.0354 68.437 39.0191 68.4758 39.0047 68.5146C38.9904 68.5534 38.9737 68.595 38.9609 68.6369C38.8832 68.8675 38.8312 69.106 38.8057 69.3481C38.8002 69.3955 38.7968 69.4443 38.7948 69.4936C38.7751 69.8111 38.7932 70.1299 38.8487 70.4431C38.8757 70.2916 38.9131 70.1421 38.9609 69.9957V69.9957Z" fill="white"/>
</g>
<g opacity="0.35">
<path opacity="0.35" d="M81.3968 70.6356C80.8473 72.8241 78.2805 74.6017 74.4801 75.8298C70.6798 77.0579 65.6401 77.742 60.1619 77.742C54.6837 77.742 49.6463 77.0595 45.8459 75.8298C42.0455 74.6001 39.4783 72.8241 38.9289 70.6356C38.8136 70.2005 38.7682 69.7498 38.7943 69.3004C38.7943 69.2511 38.7997 69.2023 38.8051 69.1549C38.8306 68.9129 38.8827 68.6743 38.9603 68.4437C38.9731 68.4017 38.9875 68.3618 39.0042 68.3214C39.0209 68.2811 39.0348 68.2415 39.0511 68.205C39.7275 70.04 41.8546 71.5653 44.934 72.6953C46.8241 73.3891 48.9307 72.3802 49.5403 70.4606C49.5442 70.4478 49.5481 70.4354 49.5524 70.4218C56.4958 72.3382 63.8287 72.3382 70.7721 70.4218C70.7764 70.4346 70.7803 70.4474 70.7842 70.4606C71.3922 72.3798 73.5004 73.3887 75.3905 72.6953C78.3907 71.5945 80.4861 70.1192 81.2183 68.3466L81.3312 68.349C81.4274 68.609 81.4905 68.8802 81.519 69.1561C81.5244 69.2034 81.5279 69.2508 81.5299 69.2996C81.5557 69.7492 81.5108 70.2 81.3968 70.6356Z" fill="#371A45"/>
</g>
<path d="M60.162 78.4392C50.2094 78.4392 39.5747 76.0784 38.2519 70.8047C37.557 68.033 39.2608 66.4118 40.2623 65.9416C40.3723 65.8897 40.4939 65.8676 40.6151 65.8774C40.7363 65.8872 40.8528 65.9286 40.953 65.9974C41.0279 66.0487 48.6449 71.1605 60.1604 71.1605C71.676 71.1605 79.2946 66.0487 79.3702 65.997C79.4705 65.9287 79.5868 65.8876 79.7078 65.8778C79.8288 65.8681 79.9502 65.8901 80.0601 65.9416C81.0597 66.4118 82.7655 68.033 82.0705 70.8047C80.7493 76.0784 70.1145 78.4392 60.162 78.4392ZM40.5467 67.394C40.0388 67.7657 39.1595 68.6938 39.6038 70.4656C40.5603 74.2784 49.206 77.0454 60.162 77.0454C71.118 77.0454 79.7637 74.2784 80.7202 70.4656C81.1641 68.6954 80.2871 67.768 79.7765 67.3943C78.0556 68.4657 70.7909 72.5551 60.162 72.5551C49.5331 72.5551 42.2672 68.4653 40.5467 67.394V67.394Z" fill="#371A45"/>
<path d="M69.0821 68.9395C70.3948 76.3927 76.7286 76.9499 76.7286 76.9499V76.9523C73.0508 81.2924 66.5971 82.6055 60.1636 82.64C53.7297 82.6055 47.2764 81.2924 43.5986 76.9523V76.9499C43.5986 76.9499 49.9324 76.3927 51.2451 68.9395C51.2451 68.9395 55.2511 70.2801 60.1636 70.2801C65.076 70.2801 69.0821 68.9395 69.0821 68.9395Z" fill="#FF5555"/>
<path d="M60.1624 82.7268C52.306 82.6849 46.7102 80.7607 43.5303 77.0085L43.5098 76.984V76.8723L43.5874 76.8633C43.6502 76.8579 49.8703 76.2227 51.1559 68.9243L51.1733 68.8245L51.2692 68.8567C51.308 68.8703 55.3194 70.1931 60.1601 70.1931C65.0008 70.1931 69.011 68.8703 69.051 68.8567L69.1469 68.8245L69.1643 68.9243C70.4499 76.2227 76.6704 76.8579 76.7328 76.8633L76.8124 76.8703V76.9821L76.7918 77.0085C73.6135 80.7607 68.0181 82.6849 60.1624 82.7268ZM43.7663 77.0154C46.9291 80.6486 52.4441 82.5111 60.1624 82.5526C67.8799 82.5111 73.3942 80.6486 76.5582 77.0154C75.559 76.8602 70.238 75.7311 69.0126 69.0527C68.3727 69.2529 64.6162 70.3673 60.162 70.3673C55.7078 70.3673 51.9513 69.2529 51.3115 69.0527C50.0853 75.7311 44.765 76.8614 43.7663 77.0154V77.0154Z" fill="#440203"/>
<path d="M69.0821 68.9395C70.3948 76.3927 76.7286 76.9499 76.7286 76.9499V76.9523C73.0508 81.2924 66.5971 82.6055 60.1636 82.64C53.7297 82.6055 47.2764 81.2924 43.5986 76.9523V76.9499C43.5986 76.9499 49.9324 76.3927 51.2451 68.9395C51.2451 68.9395 55.2511 70.2801 60.1636 70.2801C65.076 70.2801 69.0821 68.9395 69.0821 68.9395Z" fill="#FF5555"/>
<g opacity="0.6">
<path opacity="0.6" d="M72.9334 75.4351C70.554 74.7871 68.3764 73.4484 67.9015 70.754C67.9015 70.754 64.4247 71.918 60.1622 71.918C55.8997 71.918 52.4249 70.754 52.4249 70.754C51.95 73.4484 49.7724 74.7871 47.3926 75.4351C49.0029 74.3033 50.6454 72.3387 51.2442 68.9403C51.2442 68.9403 55.2502 70.281 60.1622 70.281C65.0743 70.281 69.0823 68.9403 69.0823 68.9403C69.679 72.3379 71.3235 74.3033 72.9334 75.4351Z" fill="white"/>
</g>
<path d="M60.1659 83.3365C52.1166 83.2939 46.366 81.2971 43.0658 77.4028C42.9832 77.3052 42.9289 77.1868 42.909 77.0605C42.889 76.9342 42.9041 76.8048 42.9526 76.6865C43.0011 76.5681 43.0812 76.4654 43.1841 76.3894C43.287 76.3135 43.4088 76.2673 43.5361 76.2558C43.7713 76.2337 49.3566 75.6299 50.5595 68.8184C50.5771 68.7199 50.6158 68.6263 50.6728 68.544C50.7298 68.4617 50.8038 68.3926 50.8898 68.3414C50.9759 68.2902 51.0719 68.2581 51.1714 68.2473C51.271 68.2365 51.3716 68.2472 51.4667 68.2787C51.5055 68.2915 55.4323 69.5836 60.1644 69.5836C64.8964 69.5836 68.8228 68.2915 68.862 68.2787C68.9571 68.2472 69.0577 68.2365 69.1573 68.2473C69.2568 68.2581 69.3528 68.2902 69.4389 68.3414C69.5249 68.3926 69.5989 68.4617 69.6559 68.544C69.7129 68.6263 69.7516 68.7199 69.7692 68.8184C70.9686 75.6299 76.5555 76.2337 76.7926 76.2562C76.9197 76.268 77.0412 76.3145 77.1437 76.3905C77.2463 76.4666 77.3261 76.5693 77.3744 76.6875C77.4226 76.8057 77.4376 76.9349 77.4176 77.061C77.3976 77.1871 77.3434 77.3053 77.2609 77.4028C73.9588 81.2971 68.2067 83.2939 60.1659 83.3365ZM44.9412 77.3644C48.0761 80.3662 53.1895 81.9043 60.1659 81.9431C67.1361 81.9043 72.2487 80.3666 75.3836 77.3644C73.4183 76.7746 69.7634 74.9997 68.5512 69.8254C67.1462 70.2169 63.9337 70.977 60.1624 70.977C56.3912 70.977 53.1779 70.2169 51.7736 69.8254C50.5614 74.9997 46.9066 76.7746 44.9412 77.3644Z" fill="#371A45"/>
<g opacity="0.35">
<path opacity="0.35" d="M76.531 76.9134C72.8059 81.0421 66.481 82.2648 60.212 82.2648C60.1212 82.2648 60.0308 82.2648 59.9404 82.2624C53.7525 82.2279 47.5452 80.9796 43.8779 76.8964C44.4945 76.7582 46.047 76.3248 47.7435 75.1584C51.2257 76.948 55.5871 77.5731 59.9404 77.5968C60.0308 77.5991 60.1212 77.5991 60.212 77.5991C64.6317 77.5991 69.0773 76.9934 72.622 75.1863C74.3879 76.3896 75.9874 76.8001 76.531 76.9134Z" fill="#371A45"/>
</g>
<path d="M52.3167 88.0562C53.9922 88.8827 55.8202 89.2478 57.6567 89.5567H57.6595C57.826 89.5883 57.9736 89.6839 58.0704 89.823C58.1673 89.9621 58.2058 90.1337 58.1777 90.3008C58.1496 90.468 58.0571 90.6175 57.92 90.7173C57.7829 90.817 57.6122 90.8591 57.4445 90.8344C57.4078 90.828 57.3718 90.8187 57.3366 90.8065C56.4345 90.4883 55.5354 90.1492 54.6592 89.7487C53.783 89.3483 52.9325 88.8796 52.1607 88.313C52.1315 88.2903 52.1117 88.2577 52.105 88.2213C52.0983 88.185 52.1052 88.1474 52.1243 88.1158C52.1435 88.0842 52.1736 88.0607 52.2089 88.0498C52.2442 88.0388 52.2823 88.0413 52.3159 88.0565L52.3167 88.0562Z" fill="#371A45"/>
<path d="M67.9658 88.3126C67.194 88.8799 66.3427 89.3495 65.4673 89.7483C64.5919 90.1472 63.6913 90.4879 62.7899 90.8061C62.6279 90.8632 62.4498 90.8536 62.2948 90.7795C62.1399 90.7053 62.0207 90.5726 61.9636 90.4105C61.9065 90.2485 61.9161 90.0704 61.9903 89.9154C62.0645 89.7605 62.1972 89.6413 62.3592 89.5842C62.3932 89.5722 62.4281 89.5631 62.4636 89.5571H62.4698C64.3063 89.2466 66.1343 88.8831 67.8098 88.0565C67.8435 88.0413 67.8816 88.0388 67.9169 88.0498C67.9522 88.0607 67.9823 88.0842 68.0014 88.1158C68.0205 88.1474 68.0274 88.185 68.0207 88.2213C68.014 88.2577 67.9942 88.2903 67.9651 88.313L67.9658 88.3126Z" fill="#371A45"/>
<path d="M41.7966 99.4758C41.8063 99.4839 41.8331 99.5169 41.856 99.5437L41.9301 99.6295C41.979 99.6888 42.0333 99.7459 42.0896 99.8037C42.194 99.9232 42.3193 100.029 42.4334 100.141C42.5603 100.242 42.6759 100.355 42.8102 100.446L43.0042 100.591L43.2102 100.719C43.7764 101.067 44.3988 101.314 45.0495 101.449C45.2179 101.475 45.3875 101.502 45.5582 101.533C45.7305 101.554 45.9074 101.555 46.0813 101.568L46.3459 101.583C46.4344 101.585 46.5232 101.577 46.6125 101.574L47.1518 101.552C47.5123 101.522 47.8724 101.457 48.2422 101.417C48.6023 101.336 48.9692 101.261 49.343 101.192H49.3512C49.3729 101.188 49.3954 101.191 49.4146 101.202C49.4338 101.213 49.4485 101.231 49.456 101.251C49.4635 101.272 49.4632 101.295 49.4553 101.316C49.4474 101.336 49.4323 101.353 49.4129 101.364C49.0803 101.549 48.7389 101.729 48.392 101.903C48.2135 101.977 48.0315 102.045 47.8487 102.113C47.666 102.182 47.4852 102.262 47.2939 102.307L46.7176 102.448C46.6206 102.47 46.5236 102.499 46.4262 102.515L46.1271 102.55C45.9272 102.57 45.7266 102.601 45.5237 102.611C45.3196 102.611 45.1147 102.609 44.9086 102.604C44.0887 102.553 43.2444 102.35 42.5001 101.926C42.4078 101.873 42.3123 101.823 42.2223 101.766L41.9623 101.579C41.7835 101.46 41.6294 101.309 41.4707 101.166C41.316 101.016 41.1721 100.855 41.04 100.685C40.9716 100.599 40.9078 100.51 40.8491 100.418C40.8184 100.372 40.7893 100.326 40.7606 100.274C40.7319 100.221 40.7051 100.177 40.6679 100.104C40.6018 99.9739 40.583 99.825 40.6145 99.6825C40.6461 99.5401 40.7262 99.4131 40.841 99.3231C40.9558 99.2331 41.0984 99.1858 41.2442 99.1893C41.39 99.1927 41.5302 99.2467 41.6407 99.3419L41.7966 99.4758Z" fill="#371A45"/>
<path d="M79.2115 100.104C79.1727 100.178 79.1479 100.221 79.1188 100.274C79.0897 100.327 79.061 100.372 79.0303 100.418C78.9715 100.51 78.9078 100.6 78.8394 100.685C78.7073 100.855 78.5634 101.016 78.4087 101.166C78.25 101.309 78.0959 101.46 77.9174 101.579L77.6571 101.766C77.567 101.824 77.4716 101.873 77.3792 101.926C76.635 102.35 75.7907 102.553 74.9707 102.604C74.7647 102.609 74.5598 102.612 74.3557 102.611C74.1528 102.602 73.9522 102.572 73.7523 102.55L73.4535 102.515C73.355 102.499 73.2595 102.47 73.1617 102.449L72.5855 102.307C72.3946 102.26 72.215 102.176 72.0306 102.113C71.8463 102.051 71.6663 101.977 71.4874 101.903C71.1405 101.729 70.8002 101.549 70.4665 101.364C70.447 101.354 70.432 101.336 70.4241 101.316C70.4162 101.295 70.4159 101.272 70.4234 101.252C70.4309 101.231 70.4455 101.213 70.4648 101.202C70.484 101.192 70.5065 101.188 70.5282 101.192H70.5363C70.9107 101.261 71.2776 101.336 71.6372 101.417C72.007 101.456 72.3671 101.522 72.7279 101.552L73.2669 101.574C73.3561 101.577 73.445 101.585 73.5335 101.583L73.7981 101.568C73.9735 101.555 74.1473 101.554 74.3212 101.533C74.4919 101.502 74.6615 101.475 74.8299 101.449C75.4806 101.314 76.103 101.067 76.6691 100.72L76.8752 100.591L77.0692 100.446C77.2035 100.355 77.3191 100.242 77.446 100.141C77.5601 100.029 77.6854 99.9233 77.7898 99.8038C77.846 99.746 77.9004 99.6874 77.9493 99.6296L78.0238 99.5438C78.0463 99.5171 78.0734 99.4841 78.0827 99.4759L78.2379 99.3425C78.3484 99.2471 78.4885 99.193 78.6344 99.1895C78.7803 99.186 78.9228 99.2332 79.0377 99.3232C79.1526 99.4131 79.2327 99.5402 79.2644 99.6826C79.296 99.825 79.2772 99.9741 79.2111 100.104H79.2115Z" fill="#371A45"/>
<path d="M50.0901 96.1842C42.8727 96.1842 40.517 91.9935 40.4017 91.7778C40.3385 91.6561 40.3255 91.5145 40.3657 91.3833C40.406 91.2522 40.4961 91.1422 40.6167 91.0769C40.7373 91.0116 40.8787 90.9964 41.0105 91.0344C41.1422 91.0725 41.2538 91.1608 41.321 91.2803C41.3299 91.2962 42.1165 92.6955 44.1618 93.792C46.8931 95.2561 50.6267 95.5219 54.9583 94.5599C55.0253 94.5451 55.0946 94.5435 55.1622 94.5554C55.2298 94.5673 55.2944 94.5924 55.3523 94.6293C55.4102 94.6661 55.4603 94.714 55.4996 94.7703C55.539 94.8265 55.567 94.8899 55.5818 94.9569C55.5967 95.0239 55.5983 95.0932 55.5864 95.1608C55.5745 95.2284 55.5494 95.293 55.5125 95.3509C55.4756 95.4088 55.4277 95.4589 55.3715 95.4983C55.3153 95.5377 55.2519 95.5656 55.1849 95.5805C53.2673 96.0077 51.5747 96.1842 50.0901 96.1842Z" fill="#371A45"/>
<path d="M69.8241 96.1842C68.3395 96.1842 66.6489 96.0065 64.7297 95.5805C64.6627 95.5656 64.5993 95.5377 64.5431 95.4983C64.4868 95.4589 64.4389 95.4088 64.4021 95.3509C64.3652 95.293 64.3401 95.2284 64.3282 95.1608C64.3163 95.0932 64.3179 95.0239 64.3327 94.9569C64.3476 94.8899 64.3756 94.8265 64.4149 94.7703C64.4543 94.714 64.5044 94.6661 64.5623 94.6293C64.6202 94.5924 64.6848 94.5673 64.7524 94.5554C64.82 94.5435 64.8893 94.5451 64.9563 94.5599C69.2883 95.5223 73.0215 95.2565 75.7528 93.792C77.7997 92.6947 78.5854 91.2943 78.5936 91.2803C78.6608 91.1608 78.7724 91.0725 78.9041 91.0344C79.0359 90.9964 79.1773 91.0116 79.2979 91.0769C79.4185 91.1422 79.5086 91.2522 79.5488 91.3833C79.5891 91.5145 79.5761 91.6561 79.5128 91.7778C79.3976 91.992 77.0403 96.1842 69.8241 96.1842Z" fill="#371A45"/>
</svg>
