<svg width="120" height="120" fill="none" xmlns="http://www.w3.org/2000/svg"><path opacity=".3" d="M60.408 117c19.555 0 35.407-3.171 35.407-7.082s-15.852-7.081-35.407-7.081c-19.555 0-35.408 3.17-35.408 7.081C25 113.829 40.853 117 60.408 117Z" fill="#371A45"/><path d="M77.019 46.534H43.304a4.84 4.84 0 0 0-4.84 4.84V82.31a4.84 4.84 0 0 0 4.84 4.84h33.715a4.84 4.84 0 0 0 4.84-4.84V51.374a4.84 4.84 0 0 0-4.84-4.84Z" fill="#fff"/><path opacity=".35" d="M81.86 71.603V82.31a4.84 4.84 0 0 1-4.84 4.841H43.305a4.84 4.84 0 0 1-4.84-4.84V71.602a4.841 4.841 0 0 0 4.84 4.841H77.02a4.84 4.84 0 0 0 4.84-4.84Z" fill="#371A45"/><path d="M77.02 87.847H43.303a5.543 5.543 0 0 1-5.536-5.537V51.374a5.543 5.543 0 0 1 5.536-5.537H77.02a5.543 5.543 0 0 1 5.537 5.537V82.31a5.543 5.543 0 0 1-5.537 5.537ZM43.303 47.232a4.148 4.148 0 0 0-4.143 4.143V82.31a4.148 4.148 0 0 0 4.143 4.143H77.02a4.147 4.147 0 0 0 4.143-4.143V51.374a4.148 4.148 0 0 0-4.143-4.142H43.304Z" fill="#371A45"/><path d="M34.128 74.026s-.941 2.247.575 4.548c0 0-1.987-.262-2.3 1.045-.314 1.307.94 3.502 4.652 3.502s7.266-2.665 6.848-6.848c-.418-4.182-4.652-6.325-9.775-2.247Z" fill="#fff"/><path d="M37.056 83.766c-2.778 0-4.097-1.146-4.636-1.83-.594-.753-.835-1.675-.644-2.468.232-.976 1.058-1.387 1.865-1.517-.919-2.18-.146-4.083-.108-4.174a.645.645 0 0 1 .194-.256c2.697-2.146 5.5-2.847 7.69-1.922 1.77.747 2.91 2.428 3.13 4.61.193 1.931-.37 3.686-1.626 5.074-1.41 1.555-3.6 2.483-5.865 2.483ZM34.315 79.2c-.427 0-1.164.074-1.284.57-.078.317-.01.843.402 1.367.395.5 1.39 1.339 3.623 1.339 1.906 0 3.74-.77 4.907-2.059 1.005-1.11 1.454-2.522 1.298-4.08-.17-1.697-1.025-2.991-2.347-3.55-1.708-.72-3.973-.125-6.24 1.63a4.491 4.491 0 0 0 .568 3.8.645.645 0 0 1-.62.996c-.006 0-.13-.013-.307-.013Z" fill="#371A45"/><path d="M35.049 77.933c.046.09.098.177.155.26a5.245 5.245 0 0 0 .602.764c.303.312.649.595 1.093.747a2.55 2.55 0 0 1-.719-.013 4.284 4.284 0 0 1-.716-.188 6.053 6.053 0 0 1-1.019-.474 3.655 3.655 0 0 1-.336-.213l-.073-.053a.677.677 0 1 1 1.013-.83Z" fill="#371A45"/><path opacity=".35" d="M37.056 83.121c3.712 0 7.266-2.665 6.848-6.847-.19-1.91-1.177-3.395-2.682-4.054a4.14 4.14 0 0 0-.449-.167c-1.75-.55-4.086-.064-6.644 1.972 0 0-.644 1.535-.011 3.366 1.621.25 3.01.082 4.146-.268.68.166 1.669.481 1.934 1.588.338 1.403-2.641 4.356-5.954 1.397-.639-.571-1.18-.844-1.64-.928-.097.13-.166.28-.203.439-.311 1.306.944 3.502 4.655 3.502Z" fill="#371A45"/><path d="M84.279 108.015c-.018.062-.04.123-.06.182l-.015.042-.061.156-.018.042c-.02.046-.042.093-.064.139-.01.022-.023.043-.034.064a4.143 4.143 0 0 1-.177.31c-.028.039-.054.081-.08.117l-.054.075a3.924 3.924 0 0 1-.3.357 4.527 4.527 0 0 1-.766.662c-.01.009-.023.016-.035.024a4.795 4.795 0 0 1-.42.263 5.734 5.734 0 0 1-.358.191l-.183.087c-.05.024-.101.046-.154.067-.017.009-.036.016-.057.025a8.174 8.174 0 0 1-.915.319c-.056.015-.112.029-.167.045-.056.016-.12.03-.18.044-.092.022-.182.042-.271.061-.09.019-.167.031-.25.045-.048.009-.095.016-.142.023a4.35 4.35 0 0 1-.186.026c-7.347.909-11.504-1.758-12.981-4.344-.917-1.609-1.067-3.592-1.01-4.815.225-4.78-.844-10.74-2.44-12.103 0 0-1.535.263-2.932.263h-.027c-1.397 0-2.932-.263-2.932-.263-1.594 1.362-2.666 7.322-2.442 12.103.059 1.223-.09 3.206-1.01 4.815-1.477 2.586-5.633 5.253-12.978 4.344a4.29 4.29 0 0 1-.187-.026 4.07 4.07 0 0 1-.143-.023c-.082-.014-.165-.028-.25-.045a9.2 9.2 0 0 1-.272-.061c-.065-.014-.131-.032-.197-.049l-.15-.039a8.053 8.053 0 0 1-.88-.303l-.08-.035a5.377 5.377 0 0 1-.35-.16c-.06-.028-.116-.058-.176-.089a6.224 6.224 0 0 1-.791-.502 4.514 4.514 0 0 1-.69-.634c-.036-.042-.073-.084-.108-.127-.034-.044-.077-.096-.112-.146l-.025-.034a4.234 4.234 0 0 1-.202-.313 4.146 4.146 0 0 1-.187-.375c0-.003 0-.007-.004-.009a2.858 2.858 0 0 1-.085-.217l-.059-.185c-.224-.756-.223-1.662.117-2.737.87-2.761 4.423-4.561 5.487-5.486-.517-4.244-.496-8.025-.155-11.436.179-1.79.452-3.57.819-5.33a63.18 63.18 0 0 1 1.312-5.179c1.608-1.634 4.296-2.993 7.641-3.874 2.682-.711 5.784-1.117 9.091-1.117 3.237 0 6.279.388 8.922 1.07 3.453.89 6.22 2.28 7.85 3.961.47 1.596.916 3.288 1.29 5.093.38 1.811.66 3.642.84 5.484.33 3.382.344 7.127-.167 11.328 1.063.925 4.618 2.725 5.487 5.486.336 1.08.338 1.988.113 2.743Z" fill="#fff"/><path d="M40.845 92.213a52.983 52.983 0 0 0 .388 7.577c-1.064.925-4.618 2.725-5.488 5.486-.34 1.075-.341 1.979-.116 2.737a7.175 7.175 0 0 0 .066.204 3.708 3.708 0 0 0 .47.895l.025.034c.037.05.075.099.113.146.038.047.072.085.108.127a4.514 4.514 0 0 0 .69.634c.055.044.116.086.174.127a6.237 6.237 0 0 0 1.143.624l.08.035c.287.118.58.219.88.303.05.014.099.028.15.039.065.017.132.035.196.049.093.022.185.042.272.061.087.019.169.031.25.045.05.009.096.016.144.023.062.01.125.019.186.025 7.345.91 11.502-1.757 12.98-4.343.918-1.609 1.065-3.592 1.008-4.815-.111-2.375.098-5.04.532-7.29-6.893 2.346-11.868-.675-14.251-2.723Z" fill="#fff"/><g opacity=".6" fill="#fff"><path opacity=".6" d="M54.892 96.163a28.1 28.1 0 0 1 .204-1.223c-4.66 1.585-8.443.716-11.142-.645 2.453 1.573 6.183 2.986 10.938 1.868ZM37.848 110.28a1.905 1.905 0 0 1-.078-.085c-.036-.042-.073-.084-.108-.127-.035-.044-.077-.096-.113-.146l-.024-.034a4.234 4.234 0 0 1-.202-.313 4.23 4.23 0 0 1-.188-.375c0-.003 0-.007-.003-.009a2.808 2.808 0 0 1-.085-.217l-.06-.185c-.224-.756-.222-1.662.117-2.737.87-2.761 4.424-4.561 5.488-5.486a53.09 53.09 0 0 1-.393-7.313c-.47-.323-.922-.67-1.354-1.041a52.983 52.983 0 0 0 .388 7.576c-1.064.925-4.618 2.725-5.488 5.487-.34 1.074-.341 1.979-.116 2.736a7.175 7.175 0 0 0 .066.204 4.112 4.112 0 0 0 .159.376 4.22 4.22 0 0 0 .312.52l.024.033c.037.05.075.099.113.146.038.048.072.085.108.127a4.514 4.514 0 0 0 .69.635c.055.043.116.085.174.127a6.425 6.425 0 0 0 1.143.623l.021.01a4.4 4.4 0 0 1-.591-.532Z"/></g><path d="M84.162 105.276c-.87-2.762-4.424-4.561-5.486-5.486.312-2.531.442-5.081.388-7.63-2.351 2.042-7.329 5.121-14.248 2.8.43 2.244.637 4.9.526 7.267-.058 1.223.092 3.206 1.009 4.815 1.477 2.586 5.634 5.253 12.98 4.344.062-.007.124-.016.187-.026.047-.007.094-.014.143-.023.082-.014.164-.028.249-.045.085-.018.181-.039.272-.061.059-.014.12-.028.18-.044l.166-.045a8.742 8.742 0 0 0 .915-.319l.058-.024a2.67 2.67 0 0 0 .153-.068l.183-.087c.122-.06.242-.123.358-.19.06-.035.12-.07.177-.105.082-.05.163-.103.244-.159.012-.008.024-.015.034-.024a4.538 4.538 0 0 0 1.066-1.019l.054-.075c.026-.039.052-.078.08-.117a3.279 3.279 0 0 0 .178-.31c.01-.021.023-.042.033-.064.023-.045.044-.092.064-.139l.018-.042c.022-.053.041-.105.06-.155l.016-.042c.021-.06.042-.121.06-.183.226-.76.223-1.668-.117-2.744Z" fill="#fff"/><g opacity=".6" fill="#fff"><path opacity=".6" d="M65.167 96.162a28.88 28.88 0 0 0-.204-1.223c4.66 1.586 8.443.717 11.142-.644-2.453 1.573-6.182 2.985-10.938 1.867ZM82.211 110.28a2.83 2.83 0 0 0 .078-.085c.036-.042.073-.084.108-.127.034-.044.077-.096.113-.147l.024-.033a4.22 4.22 0 0 0 .312-.519c.028-.056.054-.112.078-.169 0-.003 0-.007.003-.009a2.571 2.571 0 0 0 .085-.218c.021-.061.039-.121.06-.184.224-.757.222-1.662-.117-2.737-.87-2.762-4.424-4.561-5.488-5.486.3-2.426.43-4.87.393-7.314.47-.322.922-.67 1.355-1.04a52.983 52.983 0 0 1-.388 7.576c1.064.925 4.617 2.725 5.488 5.486.34 1.075.341 1.979.116 2.737a7.592 7.592 0 0 1-.066.204c-.024.068-.05.134-.077.198-.002 0-.002.006-.004.009a3.606 3.606 0 0 1-.39.688l-.024.034a3.409 3.409 0 0 1-.221.273 4.37 4.37 0 0 1-.689.634c-.056.044-.116.086-.174.127a6.237 6.237 0 0 1-.617.375c-.06.031-.117.061-.176.089a2.511 2.511 0 0 1-.13.061 5.13 5.13 0 0 1-.22.099l-.022.009c.212-.159.41-.337.59-.531Z"/></g><path opacity=".35" d="M84.28 108.015c-.018.062-.04.123-.06.183l-.016.042c-.019.052-.038.104-.06.155l-.018.042c-.021.047-.042.094-.064.139-.01.023-.023.043-.034.064a4.01 4.01 0 0 1-.178.31c-.027.039-.053.081-.08.117l-.053.075a3.953 3.953 0 0 1-.3.357 4.527 4.527 0 0 1-.766.662c-.01.009-.023.016-.035.025a5.563 5.563 0 0 1-.42.263 5.72 5.72 0 0 1-.359.19l-.183.087c-.05.024-.1.047-.153.068-.017.009-.037.015-.057.024a8.174 8.174 0 0 1-.915.319c-.056.016-.112.029-.167.045-.056.016-.12.03-.18.044-.092.022-.183.042-.272.061-.088.019-.167.031-.249.045-.048.009-.096.016-.142.023a4.35 4.35 0 0 1-.187.026c-7.347.909-11.504-1.758-12.98-4.344-.917-1.609-1.067-3.592-1.01-4.815.225-4.78-.844-10.74-2.44-12.103 0 0-1.535.263-2.932.263h-.027c-1.397 0-2.932-.263-2.932-.263-1.595 1.362-2.666 7.323-2.443 12.103.06 1.223-.089 3.206-1.009 4.815-1.477 2.586-5.634 5.253-12.979 4.344a4.29 4.29 0 0 1-.186-.026 4.074 4.074 0 0 1-.143-.023c-.082-.014-.165-.028-.25-.045a9.2 9.2 0 0 1-.273-.061c-.064-.014-.13-.032-.196-.049-.051-.012-.1-.026-.15-.039a8.046 8.046 0 0 1-.88-.303l-.08-.035a5.318 5.318 0 0 1-.35-.16 6.237 6.237 0 0 1-.967-.591 4.448 4.448 0 0 1-.69-.634c-.036-.042-.073-.084-.108-.127a2.862 2.862 0 0 1-.113-.146l-.024-.034a4.2 4.2 0 0 1-.202-.313 4.146 4.146 0 0 1-.188-.375c0-.003 0-.007-.003-.009a2.808 2.808 0 0 1-.085-.217l-.06-.185c.66.227 1.44 1.343 4.041 1.513 8.687.567 11.164-3.113 12.875-6.108 1.064-1.862-.134-4.23-.575-5.578a12.055 12.055 0 0 1-.592-3.115c-.145-2.694-1.452-5.164-3.57-6.729-2.75-1.193-5.264-.388-6.729.358.179-1.79.452-3.57.819-5.331a63.18 63.18 0 0 1 1.312-5.178c1.608-1.635 4.296-2.994 7.641-3.875 2.682-.71 5.784-1.117 9.091-1.117 3.237 0 6.279.388 8.922 1.07 3.453.89 6.221 2.28 7.85 3.962.47 1.596.916 3.287 1.29 5.092.38 1.812.66 3.643.841 5.484-1.363-.733-3.817-1.632-6.546-.623H72.3a8.852 8.852 0 0 0-3.798 6.674 18.222 18.222 0 0 1-.56 3.326c-.355 1.373-1.635 3.714-.572 5.578 1.71 2.995 3.386 8.149 14.73 5.675.553-.116 1.52-.847 2.18-1.072Z" fill="#371A45"/><path d="M76.496 112.266c-5.813 0-9.33-2.388-10.751-4.877-1.121-1.962-1.143-4.286-1.1-5.193.208-4.444-.759-9.812-1.992-11.328-.554.08-1.648.218-2.687.218h-.025c-1.038 0-2.134-.137-2.686-.218-1.233 1.516-2.2 6.884-1.992 11.328.043.907.021 3.231-1.1 5.193-1.421 2.488-4.94 4.877-10.752 4.877a23.736 23.736 0 0 1-2.918-.187c-1.708-.211-3.926-1.045-5.024-2.752-.77-1.199-.9-2.631-.388-4.257.742-2.355 3.117-3.99 4.688-5.071.275-.19.526-.363.727-.512-1.356-11.784 1.37-19.995 3.564-26.608.388-1.17.756-2.276 1.082-3.346a.698.698 0 1 1 1.333.406c-.33 1.087-.699 2.2-1.092 3.38-2.173 6.552-4.881 14.706-3.458 26.388a.696.696 0 0 1-.232.61c-.276.239-.673.513-1.132.829-1.414.974-3.552 2.445-4.15 4.342-.382 1.213-.304 2.251.234 3.086.837 1.303 2.69 1.957 4.022 2.122 6.89.854 10.864-1.506 12.288-3.997.965-1.691.947-3.824.918-4.437-.226-4.815.799-11.054 2.684-12.667a.702.702 0 0 1 .571-.157c.015.003 1.497.255 2.816.255h.025c1.322 0 2.8-.252 2.816-.255a.698.698 0 0 1 .571.157c1.886 1.613 2.91 7.852 2.684 12.667-.029.613-.047 2.746.918 4.437 1.422 2.491 5.397 4.851 12.288 3.997 1.333-.165 3.185-.819 4.022-2.122.537-.834.614-1.872.233-3.086-.598-1.896-2.735-3.368-4.15-4.342-.459-.316-.856-.59-1.131-.829a.7.7 0 0 1-.233-.61c1.424-11.682-1.283-19.836-3.457-26.388-.392-1.18-.761-2.294-1.092-3.38a.696.696 0 0 1 .45-.916.698.698 0 0 1 .883.51c.326 1.07.693 2.176 1.082 3.346 2.194 6.613 4.92 14.823 3.564 26.608.2.15.451.322.726.512 1.572 1.081 3.947 2.716 4.689 5.071.512 1.626.381 3.058-.388 4.257-1.097 1.707-3.315 2.541-5.024 2.752a23.83 23.83 0 0 1-2.924.187Z" fill="#371A45"/><path d="M83.186 83.121c-3.711 0-7.266-2.665-6.848-6.847.191-1.91 1.177-3.395 2.682-4.054.146-.064.297-.12.45-.167 1.75-.55 4.085-.064 6.643 1.972 0 0 .644 1.535.011 3.366a5.289 5.289 0 0 1-.585 1.182s1.498-.196 2.095.608c.098.13.167.28.204.438.315 1.306-.94 3.502-4.652 3.502Z" fill="#fff"/><path d="M83.185 83.766c-2.265 0-4.457-.928-5.865-2.483-1.256-1.388-1.818-3.143-1.625-5.074.219-2.182 1.359-3.863 3.13-4.61 2.19-.924 4.993-.224 7.69 1.921a.645.645 0 0 1 .194.257c.038.09.81 1.993-.108 4.174.807.13 1.63.54 1.865 1.517.19.792-.051 1.715-.644 2.468-.54.684-1.858 1.83-4.637 1.83ZM80.87 72.49a3.938 3.938 0 0 0-1.543.299c-1.322.558-2.178 1.852-2.348 3.55-.155 1.558.293 2.968 1.298 4.079 1.167 1.29 3.002 2.059 4.908 2.059 2.233 0 3.228-.84 3.622-1.339.414-.524.48-1.05.403-1.368-.169-.701-1.576-.558-1.59-.556a.646.646 0 0 1-.622-.995 4.49 4.49 0 0 0 .57-3.8c-1.636-1.265-3.272-1.93-4.697-1.93Z" fill="#371A45"/><path opacity=".35" d="M83.186 83.121c-3.711 0-7.266-2.665-6.848-6.847.191-1.91 1.177-3.395 2.682-4.054.146-.064.297-.12.45-.167 1.75-.55 4.085-.064 6.643 1.972 0 0 .644 1.535.011 3.366-1.62.25-3.01.082-4.146-.268-.678.166-1.669.481-1.934 1.588-.337 1.403 2.642 4.356 5.955 1.397.638-.571 1.18-.844 1.639-.928.097.13.167.28.203.439.312 1.306-.944 3.502-4.655 3.502Z" fill="#371A45"/><path d="M79.113 63.488a3.51 3.51 0 0 1 1.065 3.593l-.75 2.654-.621 2.194s2.804 3.337 7.877 2.536c0 0 .473-.804 1.044-2.077 1.17-2.61 2.749-7.196 1.492-10.874-1.87-5.475-12.529-15.08-16.278-10.344-2.072 2.616 1.822 8.501 6.17 12.318Z" fill="#F55"/><path d="M86.134 78.818c-.108.077-.22.148-.336.213a6.333 6.333 0 0 1-1.02.474 4.304 4.304 0 0 1-.715.188c-.238.038-.48.042-.718.013.443-.152.79-.435 1.092-.748a5.32 5.32 0 0 0 .601-.765c.057-.083.109-.17.155-.26a.677.677 0 1 1 1.232.564.671.671 0 0 1-.215.265l-.076.056Z" fill="#371A45"/><path opacity=".6" d="M88.914 69.228c-.141-9.376-5.645-15.524-5.645-15.524a27.676 27.676 0 0 1 3.03 3.078c.318.378.616.756.896 1.134.938 1.265 1.653 2.514 2.025 3.598.839 2.453.417 5.309-.306 7.714Z" fill="#fff"/><path opacity=".35" d="M87.73 72.388c-.571 1.273-1.044 2.077-1.044 2.077-5.075.801-7.877-2.537-7.877-2.537l.62-2.193.985-3.481s2.355 5.764 5.888 1.402c1.955-2.412 1.602-6.535.896-9.74.938 1.265 1.653 2.514 2.025 3.598 1.257 3.678-.323 8.263-1.493 10.873ZM86.3 56.782c-.648 1.139-1.73 2.808-2.963 3.795-1.043.835-3.012 1.886-4.545 2.25a6.815 6.815 0 0 1-.333.067c-4.074-3.81-7.486-9.24-5.516-11.725.152-.193.325-.37.515-.526 3.016-2.485 9.093 1.672 12.842 6.14Z" fill="#371A45"/><path d="M85.115 75.287c-4.341 0-6.73-2.779-6.842-2.91a.698.698 0 0 1-.137-.639l1.371-4.847a2.828 2.828 0 0 0-.853-2.88c-3.826-3.357-8.907-9.93-6.257-13.274.997-1.26 2.49-1.76 4.317-1.445 4.873.838 11.658 7.577 13.167 11.997 1.35 3.952-.37 8.828-1.513 11.383a24.334 24.334 0 0 1-1.08 2.146.699.699 0 0 1-.492.335c-.556.088-1.118.133-1.681.134Zm-5.53-3.552c.723.699 3.008 2.539 6.66 2.087.182-.333.497-.937.849-1.72 1.061-2.367 2.663-6.863 1.467-10.363-1.364-3.997-7.707-10.322-12.084-11.074-1.33-.228-2.308.078-2.987.937-1.684 2.125 1.785 7.59 6.083 11.361a4.23 4.23 0 0 1 1.276 4.307l-1.264 4.465Z" fill="#371A45"/><path d="M85.114 75.113c-4.26 0-6.599-2.719-6.707-2.849a.522.522 0 0 1-.103-.478l.62-2.194a.522.522 0 0 1 .879-.221c.025.026 2.729 2.719 7.904 2.494a.518.518 0 0 1 .543.477.524.524 0 0 1-.043.26 23.331 23.331 0 0 1-1.072 2.128.523.523 0 0 1-.368.25c-.547.088-1.1.132-1.653.133Zm-5.724-3.326c.66.664 3.055 2.717 6.966 2.197.117-.214.314-.58.548-1.061-3.713-.045-6.114-1.453-7.194-2.265l-.32 1.13ZM79.604 66.719c.15-.458.328-.908.53-1.346.196-.43.415-.851.655-1.26.242-.404.513-.79.81-1.156a5.822 5.822 0 0 1 1.014-.955 5.662 5.662 0 0 0-.744 1.132 9.15 9.15 0 0 0-.491 1.245c-.131.425-.24.857-.324 1.293-.085.427-.146.859-.183 1.293v.002a.65.65 0 1 1-1.267-.248Z" fill="#371A45"/><path d="M41.127 63.488a3.51 3.51 0 0 0-1.065 3.593l.75 2.654.62 2.194s-2.803 3.337-7.876 2.536c0 0-.473-.804-1.045-2.077-1.17-2.61-2.748-7.196-1.491-10.874 1.87-5.475 12.529-15.08 16.278-10.344 2.072 2.616-1.822 8.501-6.171 12.318Z" fill="#F55"/><path opacity=".6" d="M31.326 69.228c.142-9.376 5.646-15.524 5.646-15.524h-.001a27.703 27.703 0 0 0-3.03 3.078c-.319.378-.617.756-.896 1.134-.939 1.265-1.653 2.514-2.025 3.598-.838 2.453-.416 5.309.306 7.714Z" fill="#fff"/><path opacity=".35" d="M32.51 72.388a23.374 23.374 0 0 0 1.045 2.077c5.075.801 7.877-2.537 7.877-2.537l-.62-2.193-.985-3.481s-2.355 5.764-5.889 1.402c-1.954-2.412-1.601-6.535-.895-9.74-.938 1.265-1.653 2.514-2.025 3.598-1.255 3.678.323 8.263 1.492 10.873ZM33.94 56.782c.648 1.139 1.73 2.808 2.964 3.795 1.042.835 3.011 1.886 4.544 2.25.112.026.224.049.333.067 4.074-3.81 7.486-9.24 5.516-11.725a3.44 3.44 0 0 0-.515-.526c-3.016-2.485-9.093 1.672-12.842 6.14Z" fill="#371A45"/><path d="M35.125 75.287c-.563 0-1.124-.046-1.679-.134a.698.698 0 0 1-.491-.335c-.02-.034-.5-.854-1.08-2.146-1.146-2.555-2.866-7.431-1.514-11.384 1.508-4.419 8.294-11.158 13.167-11.996 1.827-.315 3.32.185 4.317 1.445 2.65 3.344-2.431 9.917-6.257 13.274a2.828 2.828 0 0 0-.854 2.88l1.372 4.847a.698.698 0 0 1-.137.638c-.114.133-2.503 2.911-6.844 2.911Zm-1.131-1.465c3.65.45 5.937-1.386 6.66-2.087l-1.263-4.464a4.23 4.23 0 0 1 1.276-4.307c4.297-3.772 7.767-9.236 6.083-11.362-.68-.86-1.658-1.166-2.987-.937-4.377.753-10.72 7.077-12.084 11.074-1.196 3.5.406 7.995 1.467 10.363.351.784.667 1.388.848 1.72Z" fill="#371A45"/><path d="M35.126 75.113c-.553 0-1.106-.045-1.652-.132a.524.524 0 0 1-.37-.251c-.019-.034-.494-.844-1.07-2.129a.522.522 0 0 1 .499-.737c5.177.225 7.877-2.468 7.905-2.495a.524.524 0 0 1 .877.222l.621 2.194a.522.522 0 0 1-.102.478c-.11.131-2.448 2.85-6.708 2.85Zm-1.241-1.129c3.91.519 6.306-1.533 6.966-2.196l-.32-1.13c-1.08.812-3.481 2.22-7.193 2.265.233.481.428.847.546 1.061ZM39.37 66.965a11.661 11.661 0 0 0-.184-1.293 12.493 12.493 0 0 0-.323-1.293 9.103 9.103 0 0 0-.492-1.245 5.665 5.665 0 0 0-.743-1.132c.375.277.715.597 1.013.955.298.365.569.752.81 1.157.241.408.46.828.656 1.26.202.437.379.887.53 1.345a.65.65 0 1 1-1.237.4.665.665 0 0 1-.03-.148v-.006Z" fill="#371A45"/><path d="M59.94 86.274c10.154 0 18.385-3.819 18.385-8.53 0-4.71-8.231-8.529-18.385-8.529-10.154 0-18.385 3.819-18.385 8.53 0 4.71 8.231 8.53 18.385 8.53Z" fill="#F55"/><path d="M59.941 86.972c-10.7 0-19.082-4.053-19.082-9.227s8.382-9.227 19.082-9.227c10.701 0 19.083 4.053 19.083 9.227s-8.384 9.227-19.083 9.227Zm0-17.06c-9.587 0-17.688 3.587-17.688 7.833s8.1 7.833 17.688 7.833 17.69-3.587 17.69-7.833-8.103-7.833-17.69-7.833Z" fill="#371A45"/><path d="M78.327 77.745c0 4.71-8.23 8.53-18.386 8.53-10.155 0-18.383-3.82-18.383-8.53 0-.39.056-.78.167-1.155 1.215-4.166 8.907-7.376 18.216-7.376 9.31 0 17.003 3.21 18.219 7.376.11.375.167.764.167 1.155Z" fill="#F55"/><path opacity=".35" d="M78.325 77.746c0 4.71-8.23 8.528-18.386 8.528-10.155 0-18.383-3.819-18.383-8.528 0-.274.027-.547.083-.815.88 4.33 8.736 7.717 18.3 7.717 9.565 0 17.423-3.387 18.303-7.717.055.268.083.54.083.815Z" fill="#371A45"/><path opacity=".6" d="M78.158 76.59c-1.215 4.164-8.907 7.376-18.218 7.376S42.94 80.754 41.724 76.59c1.215-4.166 8.907-7.376 18.216-7.376 9.31 0 17.003 3.21 18.218 7.376Z" fill="#fff"/><path d="M59.941 86.972c-10.7 0-19.082-4.053-19.082-9.227s8.382-9.227 19.082-9.227c10.701 0 19.083 4.053 19.083 9.227s-8.384 9.227-19.083 9.227Zm0-17.06c-9.587 0-17.688 3.587-17.688 7.833s8.1 7.833 17.688 7.833 17.69-3.587 17.69-7.833-8.103-7.833-17.69-7.833Z" fill="#371A45"/><path d="M60.214 82.642c-.09 0-.181 0-.271-.002-6.348-.034-12.715-1.348-16.343-5.688v-.002c-1.02-1.22-1.824-2.677-2.35-4.415a15.753 15.753 0 0 1-.54-2.536c-.221-1.707-.224-3.628.04-5.79.012-.115.027-.23.044-.344.033-.276.072-.547.117-.815.875-5.698 3.02-9.939 5.74-12.973 4.01-4.469 9.266-6.312 13.565-6.312 4.368 0 9.724 1.9 13.753 6.528 2.613 2.997 4.67 7.14 5.537 12.647.023.15.047.298.067.447.04.27.077.543.11.821 1.799 14.97-8.917 18.434-19.469 18.434Z" fill="#F55"/><path d="M60.214 82.73c-.091 0-.183 0-.274-.003-7.749-.042-13.27-1.966-16.407-5.719l-.02-.027c-1.052-1.265-1.842-2.752-2.347-4.423a15.848 15.848 0 0 1-.543-2.55c-.229-1.76-.217-3.715.036-5.812.013-.117.029-.23.046-.346.032-.271.071-.548.116-.816.81-5.277 2.749-9.656 5.76-13.016 3.563-3.971 8.659-6.342 13.631-6.342 5.076 0 10.242 2.451 13.82 6.557 2.882 3.306 4.751 7.576 5.556 12.691.024.15.048.3.067.449.039.265.078.543.11.822.674 5.596-.369 9.995-3.1 13.074-3.21 3.624-8.746 5.46-16.45 5.46Zm-16.53-5.81c3.107 3.696 8.576 5.59 16.256 5.633.092.002.181.002.272.002 7.654 0 13.146-1.816 16.323-5.399 2.696-3.04 3.725-7.393 3.057-12.938a23.75 23.75 0 0 0-.11-.818c-.02-.15-.043-.298-.066-.446-.8-5.083-2.656-9.323-5.517-12.603-3.544-4.07-8.66-6.5-13.687-6.5-4.924 0-9.973 2.35-13.501 6.285-2.988 3.334-4.913 7.683-5.718 12.928-.045.266-.084.539-.117.811-.017.117-.032.23-.045.343-.251 2.084-.264 4.025-.039 5.77.11.854.289 1.698.536 2.522.502 1.657 1.287 3.132 2.334 4.385l.022.026Z" fill="#440203"/><path opacity=".35" d="m60.214 82.264-.272-.001c-6.347-.035-12.714-1.348-16.343-5.688v-.002c-1.02-1.22-1.823-2.678-2.35-4.416a15.753 15.753 0 0 1-.539-2.535c-.194-1.505-.22-3.178-.045-5.034l.045.368c.11.859.29 1.707.54 2.535.525 1.739 1.33 3.196 2.35 4.416v.002c3.628 4.34 9.995 5.653 16.342 5.688h.272c9.141 0 18.401-2.598 19.546-13.018 1.36 14.337-9.173 17.686-19.546 17.686Z" fill="#371A45"/><path opacity=".35" d="M79.501 62.94c-.116.026-.233.05-.345.07-1.28.226-2.164-.11-1.798-1.575 0 0-7.9 7.484-17.464 7.9l-.116-.006c-8.128-.402-15.036-5.886-16.871-7.468-.31-.27-.477-.427-.477-.427.087.343.104.623.065.85-.078.429-.36.662-.774.748a2.59 2.59 0 0 1-.815.017c.876-5.699 3.021-9.94 5.74-12.973 4.01-4.47 9.266-6.313 13.566-6.313 4.367 0 9.723 1.902 13.753 6.529 2.613 2.998 4.67 7.14 5.536 12.648Z" fill="#371A45"/><path d="M60.214 83.339c-.097 0-.194 0-.29-.002C52 83.293 46.324 81.296 43.066 77.4a.55.55 0 0 1-.027-.035c-2.652-3.194-3.656-7.648-2.982-13.24.827-6.885 3.547-12.513 7.863-16.277 3.484-3.038 7.965-4.78 12.295-4.78s8.811 1.742 12.295 4.78c4.316 3.764 7.035 9.392 7.864 16.277.695 5.777-.398 10.336-3.25 13.552-3.333 3.757-9.023 5.662-16.909 5.662Zm-16.053-6.803c2.987 3.547 8.297 5.367 15.785 5.407.098.002.182.003.268.002 7.472 0 12.81-1.746 15.867-5.193 2.575-2.905 3.553-7.097 2.908-12.46-.786-6.537-3.344-11.86-7.396-15.394-3.234-2.82-7.381-4.437-11.379-4.437-3.998 0-8.149 1.618-11.38 4.437-4.053 3.534-6.61 8.857-7.396 15.393-.628 5.214.279 9.323 2.694 12.212.01.01.018.022.027.033h.002Z" fill="#371A45"/><path d="M60.163 83.25a.61.61 0 0 1-.61-.61V43.765a.61.61 0 0 1 1.22 0V82.64a.609.609 0 0 1-.61.61ZM66.802 67.118a.698.698 0 0 1-.699-.698V55.054a.697.697 0 0 1 1.207-.523.7.7 0 0 1 .187.523V66.42a.698.698 0 0 1-.695.698Z" fill="#371A45"/><path d="M68.241 66.659a1.456 1.456 0 1 0-2.873-.467 1.456 1.456 0 0 0 2.873.467ZM53.011 67.118a.698.698 0 0 1-.699-.698V55.054a.699.699 0 0 1 1.394 0V66.42a.699.699 0 0 1-.695.698Z" fill="#371A45"/><path d="M54.45 66.658a1.455 1.455 0 1 0-2.873-.466 1.455 1.455 0 0 0 2.873.466Z" fill="#371A45"/><path d="M86.718 37.548a.546.546 0 0 1-.572-.517l-.789-15.687a.544.544 0 0 1 .517-.572 5.72 5.72 0 0 1 6.002 5.426l.269 5.35a5.72 5.72 0 0 1-5.427 6Z" fill="#fff"/><path d="M86.69 37.674a.671.671 0 0 1-.668-.636l-.789-15.687a.67.67 0 0 1 .636-.704A5.85 5.85 0 0 1 92 26.193l.269 5.349a5.845 5.845 0 0 1-5.545 6.13.31.31 0 0 1-.033.002Zm-.524-16.784c-.095 0-.19.002-.284.007a.42.42 0 0 0-.399.441l.789 15.687a.421.421 0 0 0 .44.398 5.595 5.595 0 0 0 5.308-5.867l-.269-5.35a5.604 5.604 0 0 0-5.585-5.316Z" fill="#371A45"/><path opacity=".35" d="m92.02 29.04.126 2.508a5.724 5.724 0 0 1-5.427 6.002.546.546 0 0 1-.572-.519l-.212-4.17a.548.548 0 0 0 .512.298l.373-.02a5.717 5.717 0 0 0 5.2-4.1Z" fill="#371A45"/><path d="M86.69 38.246a1.244 1.244 0 0 1-1.24-1.18l-.79-15.687a1.24 1.24 0 0 1 1.18-1.303 6.426 6.426 0 0 1 6.73 6.087l.27 5.35a6.417 6.417 0 0 1-6.15 6.733Zm-.626-16.784.773 15.38a5.023 5.023 0 0 0 4.613-5.26l-.269-5.349a5.03 5.03 0 0 0-5.12-4.77h.002Z" fill="#371A45"/><path d="M34.096 23.375a.544.544 0 0 1 .572.517l.79 15.687a.544.544 0 0 1-.518.572 5.722 5.722 0 0 1-6.002-5.426l-.269-5.35a5.722 5.722 0 0 1 5.427-6Z" fill="#fff"/><path d="M34.648 40.283a5.853 5.853 0 0 1-5.835-5.552l-.269-5.348a5.846 5.846 0 0 1 5.546-6.131.67.67 0 0 1 .703.636l.789 15.687a.67.67 0 0 1-.636.703c-.1.003-.2.005-.297.005ZM34.124 23.5h-.022a5.595 5.595 0 0 0-5.307 5.87l.269 5.349a5.602 5.602 0 0 0 5.869 5.307.421.421 0 0 0 .398-.44l-.788-15.688a.42.42 0 0 0-.42-.399v.001Z" fill="#371A45"/><path opacity=".35" d="m35.239 35.227.218 4.352a.546.546 0 0 1-.518.572 5.717 5.717 0 0 1-6-5.425l-.114-2.254a5.722 5.722 0 0 0 5.374 3.094l.572-.029a.552.552 0 0 0 .468-.31Z" fill="#371A45"/><path d="M34.648 40.855a6.425 6.425 0 0 1-6.405-6.095l-.27-5.35a6.418 6.418 0 0 1 6.087-6.731 1.242 1.242 0 0 1 1.303 1.178l.789 15.687a1.24 1.24 0 0 1-1.178 1.303 6.428 6.428 0 0 1-.326.008Zm-.668-16.774a5.025 5.025 0 0 0-4.615 5.26l.27 5.349a5.03 5.03 0 0 0 5.117 4.77l-.772-15.38Z" fill="#371A45"/><path d="M60.41 57.227c14.783 0 26.766-11.983 26.766-26.766 0-14.782-11.983-26.765-26.766-26.765-14.782 0-26.765 11.983-26.765 26.765 0 14.783 11.983 26.766 26.765 26.766Z" fill="#fff"/><path d="M60.419 57.353c-.19 0-.377-.002-.567-.006-14.822-.308-26.634-12.62-26.327-27.444.15-7.181 3.086-13.875 8.27-18.847 5.183-4.972 11.996-7.627 19.174-7.48 14.823.308 26.635 12.62 26.327 27.444-.304 14.635-12.308 26.333-26.877 26.333Zm-.023-53.532c-6.907 0-13.43 2.62-18.428 7.415-5.135 4.928-8.045 11.558-8.192 18.672-.305 14.687 11.395 26.883 26.081 27.188 14.687.31 26.883-11.395 27.189-26.081l.125.002-.126-.002c.148-7.115-2.483-13.861-7.41-18.996-4.929-5.135-11.558-8.045-18.673-8.192a27.488 27.488 0 0 0-.566-.006Z" fill="#371A45"/><g opacity=".35"><path opacity=".35" d="M86.992 27.307c.146 1.231.206 2.471.18 3.71-.31 14.78-12.538 26.51-27.317 26.205-14.78-.305-26.511-12.538-26.206-27.317.009-.427.027-.85.057-1.268C35.239 41.7 46.208 51.962 59.73 52.243c14.354.298 26.3-10.759 27.26-24.936Z" fill="#000"/><path opacity=".35" d="M60.417 57.353c-.189 0-.375 0-.564-.006-14.823-.31-26.634-12.621-26.328-27.444.009-.426.028-.857.057-1.274l.25-.007c1.54 13.12 12.675 23.222 25.902 23.497.188.004.377.006.565.006 14.002 0 25.618-10.8 26.568-24.826l.25-.006c.146 1.236.206 2.482.18 3.727-.306 14.635-12.311 26.332-26.88 26.333ZM33.774 29.99C33.516 44.638 45.2 56.791 59.858 57.097c.187.004.373.006.559.006 14.434 0 26.327-11.589 26.63-26.088a26.99 26.99 0 0 0-.055-2.354C85.407 42.156 73.98 52.375 60.3 52.375c-.19 0-.38 0-.57-.006A26.9 26.9 0 0 1 33.774 29.99Z" fill="#371A45"/></g><path d="M87.07 31.703c-.029 5.238-1.756 10.088-4.687 14.097-2.197 3.004-11.188 8.232-22.254 8.269-10.261.034-19.565-5.489-21.728-8.518-2.885-4.04-4.558-8.912-4.529-14.15.078-13.86 12.02-19.539 26.71-19.456 14.691.083 26.567 5.898 26.489 19.758Z" fill="#371A45"/><path d="M60.032 54.766c-10.593 0-19.934-5.639-22.198-8.808-3.077-4.307-4.688-9.343-4.657-14.559.039-6.8 2.794-12.029 8.193-15.537 4.708-3.061 11.35-4.65 19.218-4.611 7.868.039 14.492 1.714 19.165 4.829 5.358 3.57 8.055 8.829 8.016 15.628-.03 5.216-1.697 10.232-4.822 14.505-2.168 2.964-11.085 8.515-22.816 8.554l-.1-.001Zm.267-42.124c-7.934 0-25.634 1.898-25.73 18.764-.028 4.92 1.494 9.672 4.399 13.74 2.056 2.88 11.092 8.226 21.065 8.226h.093c11.095-.039 19.735-5.304 21.694-7.983 2.95-4.036 4.526-8.77 4.554-13.69l.699.004-.699-.004c.097-17.067-18.007-19.012-25.795-19.056h-.28Z" fill="#371A45"/><path d="M60.42 57.925c-.195 0-.385 0-.58-.007-15.139-.314-27.2-12.887-26.886-28.027.152-7.333 3.152-14.17 8.445-19.246 5.294-5.077 12.243-7.79 19.582-7.639 7.339.15 14.17 3.152 19.248 8.445 5.079 5.294 7.791 12.248 7.64 19.582-.311 14.944-12.57 26.892-27.45 26.892Zm-.023-53.531a25.879 25.879 0 0 0-18.032 7.256c-5.025 4.82-7.872 11.31-8.017 18.27-.298 14.372 11.15 26.31 25.522 26.606 14.372.296 26.306-11.151 26.605-25.523l.698.015-.698-.015c.145-6.961-2.43-13.563-7.251-18.586-4.82-5.024-11.31-7.874-18.273-8.019-.184-.003-.37-.004-.554-.004Z" fill="#371A45"/><path opacity=".7" d="M81.805 30.396c.48-2.571-.64-4.938-2.503-5.287-1.864-.348-3.764 1.454-4.245 4.026-.48 2.571.64 4.938 2.504 5.286 1.863.349 3.763-1.453 4.244-4.025ZM75.952 39.728c.381-1.139-.101-2.327-1.078-2.655-.977-.327-2.078.33-2.46 1.468-.382 1.139.1 2.327 1.078 2.655.976.327 2.078-.33 2.46-1.468Z" fill="#fff"/><path d="M81.971 18.743c3.234 3.122 5.13 7.392 5.1 12.96-.03 5.239-1.758 10.092-4.687 14.099-2.197 3.003-11.19 8.231-22.255 8.27-3.908.013-7.675-.78-10.964-1.936 13.602-.336 24.554-6.752 27.279-10.479 3.72-5.085 5.912-11.245 5.948-17.892a27.082 27.082 0 0 0-.42-5.022Z" fill="#220F2D"/><path d="M84.85 20.232a.69.69 0 0 1-.432-.152l-.018-.015-.069-.058-.052-.073c-4.283-6.08-12.704-9.461-23.712-9.524h-.307c-11.066-.002-19.486 3.394-23.738 9.575l-.041.054-1.068-.896.495.42-.535-.367c4.56-6.63 13.517-10.248 25.201-10.18 11.463.066 20.282 3.652 24.834 10.101a.698.698 0 0 1-.559 1.115h.001Z" fill="#371A45"/><path opacity=".7" d="M39.8 39.681s-4.215-13.697 3.184-19.105c7.4-5.407 18.002-5.325 17.75-4.646 0 0-11.753 2.775-16.398 12.029-3.581 7.134-4.536 11.722-4.536 11.722Z" fill="#fff"/><path d="M81.397 70.636c-.55 2.188-3.117 3.966-6.917 5.194-3.8 1.228-8.84 1.912-14.318 1.912s-10.516-.683-14.316-1.912c-3.8-1.23-6.368-3.006-6.917-5.194a4.25 4.25 0 0 1-.124-1.481 3.323 3.323 0 0 1 .2-.834c.016-.04.03-.08.046-.116.495-1.154 1.508-1.63 1.508-1.63s3.332 2.283 8.993 3.848a39.88 39.88 0 0 0 21.22 0c5.662-1.565 8.995-3.848 8.995-3.848a3.389 3.389 0 0 0 1.565 1.774 3.317 3.317 0 0 1 .198.95c.026.45-.02.9-.133 1.337Z" fill="#F55"/><path opacity=".6" d="M38.96 69.996c.014-.042.028-.082.045-.122.016-.04.03-.08.047-.117.495-1.154 1.508-1.63 1.508-1.63s3.331 2.284 8.993 3.848a39.88 39.88 0 0 0 21.22 0c5.661-1.564 8.995-3.848 8.995-3.848a3.387 3.387 0 0 0 1.564 1.776c.064.173.113.352.146.533a4.052 4.052 0 0 0 .042-1.086 3.316 3.316 0 0 0-.188-.806c-.018-.05-.039-.096-.058-.144-.493-1.155-1.506-1.632-1.506-1.632s-3.334 2.284-8.995 3.848a39.88 39.88 0 0 1-21.22 0c-5.662-1.564-8.993-3.847-8.993-3.847s-1.013.476-1.508 1.63c-.017.038-.033.077-.047.116a3.315 3.315 0 0 0-.21.979c-.02.317-.002.636.054.95.027-.152.064-.302.112-.448Z" fill="#fff"/><path opacity=".35" d="M81.397 70.636c-.55 2.188-3.117 3.966-6.917 5.194-3.8 1.228-8.84 1.912-14.318 1.912s-10.516-.683-14.316-1.912c-3.8-1.23-6.368-3.006-6.917-5.194a4.25 4.25 0 0 1-.124-1.481 3.322 3.322 0 0 1 .2-.834c.016-.04.03-.08.046-.116.676 1.835 2.804 3.36 5.883 4.49 1.89.694 3.997-.315 4.606-2.234l.012-.04a39.879 39.879 0 0 0 21.22 0 1.1 1.1 0 0 1 .012.04c.608 1.919 2.716 2.928 4.606 2.234 3-1.1 5.096-2.576 5.828-4.348l.113.002a3.304 3.304 0 0 1 .199.95c.026.45-.02.901-.133 1.337Z" fill="#371A45"/><path d="M60.162 78.44c-9.953 0-20.587-2.362-21.91-7.635-.695-2.772 1.009-4.393 2.01-4.863a.695.695 0 0 1 .691.055c.075.052 7.692 5.163 19.207 5.163 11.516 0 19.135-5.111 19.21-5.163a.7.7 0 0 1 .69-.055c1 .47 2.706 2.091 2.01 4.863-1.32 5.273-11.955 7.634-21.908 7.634ZM40.547 67.393c-.508.372-1.387 1.3-.943 3.072.956 3.812 9.602 6.58 20.558 6.58s19.602-2.768 20.558-6.58c.444-1.77-.433-2.698-.944-3.072-1.72 1.072-8.985 5.161-19.614 5.161-10.629 0-17.895-4.09-19.615-5.161Z" fill="#371A45"/><path d="M69.082 68.94c1.313 7.453 7.647 8.01 7.647 8.01v.002c-3.678 4.34-10.132 5.654-16.565 5.688-6.434-.034-12.888-1.348-16.565-5.688v-.002s6.333-.557 7.646-8.01c0 0 4.006 1.34 8.919 1.34 4.912 0 8.918-1.34 8.918-1.34Z" fill="#F55"/><path d="M60.162 82.727c-7.856-.042-13.452-1.966-16.632-5.719l-.02-.024v-.112l.077-.009c.063-.005 6.283-.64 7.569-7.939l.017-.1.096.033c.039.013 4.05 1.336 8.891 1.336 4.84 0 8.851-1.323 8.891-1.336l.096-.032.017.1c1.286 7.298 7.506 7.933 7.569 7.938l.08.007v.112l-.021.026c-3.178 3.753-8.774 5.677-16.63 5.719Zm-16.396-5.712c3.163 3.634 8.678 5.496 16.396 5.538 7.718-.042 13.232-1.904 16.396-5.538-.999-.155-6.32-1.284-7.545-7.962-.64.2-4.397 1.314-8.851 1.314-4.454 0-8.21-1.114-8.85-1.314-1.227 6.678-6.547 7.808-7.546 7.962Z" fill="#440203"/><path d="M69.082 68.94c1.313 7.453 7.647 8.01 7.647 8.01v.002c-3.678 4.34-10.132 5.654-16.565 5.688-6.434-.034-12.888-1.348-16.565-5.688v-.002s6.333-.557 7.646-8.01c0 0 4.006 1.34 8.919 1.34 4.912 0 8.918-1.34 8.918-1.34Z" fill="#F55"/><path opacity=".6" d="M72.933 75.435c-2.379-.648-4.557-1.987-5.032-4.681 0 0-3.476 1.164-7.739 1.164-4.262 0-7.737-1.164-7.737-1.164-.475 2.694-2.653 4.033-5.032 4.681 1.61-1.132 3.252-3.096 3.851-6.495 0 0 4.006 1.341 8.918 1.341 4.912 0 8.92-1.34 8.92-1.34.597 3.397 2.242 5.362 3.851 6.494Z" fill="#fff"/><path d="M60.166 83.337c-8.05-.043-13.8-2.04-17.1-5.934a.698.698 0 0 1 .47-1.147c.235-.022 5.82-.626 7.023-7.438a.698.698 0 0 1 .908-.54c.038.013 3.965 1.306 8.697 1.306 4.732 0 8.659-1.293 8.698-1.305a.699.699 0 0 1 .907.54c1.2 6.81 6.786 7.415 7.024 7.437a.698.698 0 0 1 .468 1.147c-3.302 3.894-9.054 5.89-17.095 5.933ZM44.94 77.364c3.135 3.002 8.248 4.54 15.225 4.58 6.97-.04 12.083-1.577 15.218-4.58-1.966-.59-5.62-2.364-6.833-7.539-1.405.392-4.617 1.152-8.389 1.152-3.77 0-6.984-.76-8.388-1.152-1.213 5.175-4.867 6.95-6.833 7.54Z" fill="#371A45"/><path opacity=".35" d="M76.531 76.913c-3.725 4.13-10.05 5.352-16.319 5.352-.09 0-.181 0-.272-.003-6.188-.034-12.395-1.282-16.062-5.366.617-.138 2.169-.571 3.865-1.738 3.483 1.79 7.844 2.415 12.197 2.439.09.002.181.002.272.002 4.42 0 8.865-.606 12.41-2.413 1.766 1.204 3.365 1.614 3.909 1.727Z" fill="#371A45"/><path d="M52.317 88.056c1.675.827 3.503 1.192 5.34 1.5h.003a.648.648 0 1 1-.323 1.25 32.116 32.116 0 0 1-2.678-1.057c-.876-.4-1.727-.87-2.498-1.436a.15.15 0 0 1 .155-.257ZM67.966 88.313c-.772.567-1.623 1.037-2.499 1.435-.875.4-1.776.74-2.677 1.058a.648.648 0 1 1-.326-1.249h.006c1.836-.31 3.664-.674 5.34-1.5a.151.151 0 0 1 .155.256ZM41.797 99.476c.01.008.036.04.059.068l.074.085c.049.06.103.117.16.175.104.12.23.225.343.337.127.101.243.214.377.305l.194.145.206.128a5.74 5.74 0 0 0 1.84.73c.168.026.338.053.508.084.172.021.35.022.523.035l.265.015c.088.002.177-.006.267-.009l.539-.022c.36-.03.72-.095 1.09-.135.36-.081.727-.156 1.101-.225h.008a.093.093 0 0 1 .064.01c.019.011.034.029.041.049a.094.094 0 0 1 0 .065.097.097 0 0 1-.043.048c-.333.185-.674.365-1.021.539-.178.074-.36.142-.543.21-.183.069-.364.149-.555.194l-.576.141c-.097.022-.194.051-.292.067l-.299.035c-.2.02-.4.051-.603.061-.204 0-.41-.002-.615-.007-.82-.051-1.665-.254-2.409-.678-.092-.053-.188-.103-.278-.16l-.26-.187c-.179-.119-.333-.27-.491-.413a4.61 4.61 0 0 1-.622-.748 1.966 1.966 0 0 1-.088-.144c-.03-.053-.056-.097-.093-.17a.63.63 0 0 1 .973-.762l.156.134ZM79.212 100.104l-.093.17c-.03.053-.058.098-.089.144a4.61 4.61 0 0 1-.622.748c-.158.143-.312.294-.49.413l-.26.187c-.091.058-.186.107-.279.16-.744.424-1.588.627-2.408.678-.206.005-.411.008-.615.007-.203-.009-.404-.039-.604-.061l-.298-.035c-.099-.016-.194-.045-.292-.066l-.577-.142c-.19-.047-.37-.131-.554-.194a8.606 8.606 0 0 1-.544-.21 27.96 27.96 0 0 1-1.02-.539.092.092 0 0 1-.002-.162c.019-.01.041-.014.063-.01h.008c.375.069.742.144 1.101.225.37.039.73.105 1.09.135l.54.022c.09.003.178.011.267.009l.264-.015c.175-.013.35-.014.523-.035.17-.031.34-.058.509-.084a5.759 5.759 0 0 0 1.84-.729l.205-.129.194-.145c.135-.091.25-.204.377-.305.114-.112.24-.218.344-.337.056-.058.11-.117.16-.174l.074-.086c.022-.027.05-.06.059-.068l.155-.133a.63.63 0 0 1 .973.761ZM50.09 96.184c-7.217 0-9.573-4.19-9.688-4.406a.523.523 0 0 1 .919-.498c.009.016.796 1.415 2.84 2.512 2.732 1.464 6.466 1.73 10.797.768a.524.524 0 0 1 .555.79.524.524 0 0 1-.328.23c-1.918.428-3.61.604-5.095.604ZM69.824 96.184c-1.484 0-3.175-.177-5.094-.603a.523.523 0 0 1 .226-1.021c4.332.962 8.066.697 10.797-.768 2.047-1.097 2.832-2.498 2.84-2.512a.523.523 0 0 1 .92.498c-.115.214-2.473 4.406-9.689 4.406Z" fill="#371A45"/></svg>