<svg width="110" height="110" viewBox="0 0 110 110" fill="none" xmlns="http://www.w3.org/2000/svg">
<path d="M88.5189 38.1384H87.9959C87.8624 38.1388 87.7342 38.086 87.6395 37.9916C87.5448 37.8971 87.4913 37.7688 87.4907 37.6348L87.457 21.6521C87.4568 21.5182 87.5095 21.3897 87.6035 21.2947C87.6975 21.1997 87.8252 21.1459 87.9586 21.1453H88.4817C89.176 21.1438 89.8637 21.2796 90.5057 21.545C91.1477 21.8104 91.7313 22.2001 92.2233 22.692C92.7152 23.1839 93.1059 23.7683 93.3729 24.4118C93.6399 25.0553 93.778 25.7453 93.7795 26.4424L93.7927 32.8201C93.7955 34.2275 93.2415 35.5783 92.2525 36.5756C91.2635 37.573 89.9206 38.1351 88.5189 38.1384V38.1384Z" fill="white"/>
<path d="M87.9948 38.2508C87.8321 38.2506 87.6762 38.1857 87.561 38.0704C87.4459 37.955 87.3809 37.7986 87.3804 37.6352L87.3467 21.6526C87.3467 21.4893 87.4111 21.3327 87.5259 21.217C87.6406 21.1013 87.7964 21.0359 87.959 21.0353H88.4821H88.4939C89.9233 21.0352 91.2943 21.6045 92.3061 22.6183C93.3178 23.6321 93.8877 25.0076 93.8905 26.4428L93.9041 32.8209C93.9102 35.8089 91.4944 38.245 88.5182 38.2529H87.9952L87.9948 38.2508ZM88.4964 21.2551H88.4849H87.9618C87.8576 21.2556 87.7578 21.2975 87.6843 21.3716C87.6108 21.4458 87.5695 21.5461 87.5695 21.6508L87.6028 37.6331C87.6028 37.738 87.6444 37.8387 87.7183 37.9129C87.7922 37.9871 87.8924 38.0288 87.9969 38.0288V38.0288H88.52C91.374 38.0227 93.6913 35.6866 93.6852 32.8206L93.672 26.4425C93.6694 25.0658 93.123 23.7465 92.1527 22.774C91.1824 21.8014 89.8674 21.2552 88.4964 21.2551V21.2551Z" fill="#371A45"/>
<g opacity="0.35">
<path opacity="0.35" d="M93.7886 29.7987L93.7943 32.3402C93.7966 33.8751 93.192 35.3481 92.1133 36.4357C91.0347 37.5233 89.5702 38.1365 88.0415 38.1406C87.8957 38.1407 87.7558 38.0827 87.6525 37.9793C87.5493 37.8759 87.4911 37.7355 87.4909 37.5891L87.4805 33.3644C87.5239 33.4615 87.5943 33.544 87.6833 33.6019C87.7723 33.6597 87.876 33.6906 87.982 33.6907H88.3575C89.5531 33.6882 90.7183 33.3122 91.6915 32.6148C92.6647 31.9174 93.3976 30.9332 93.7886 29.7987V29.7987Z" fill="#371A45"/>
</g>
<path d="M87.9946 38.7568C87.6986 38.7563 87.4148 38.6382 87.2052 38.4282C86.9957 38.2182 86.8775 37.9335 86.8765 37.6362L86.8428 21.6536C86.8424 21.5061 86.871 21.36 86.927 21.2236C86.9829 21.0872 87.065 20.9632 87.1686 20.8587C87.2722 20.7542 87.3954 20.6712 87.5309 20.6144C87.6665 20.5577 87.8119 20.5283 87.9588 20.528H88.4819H88.4951C90.058 20.5279 91.557 21.1504 92.6633 22.2589C93.7695 23.3674 94.3925 24.8713 94.3955 26.4406L94.4091 32.8187C94.4159 36.0858 91.774 38.7496 88.5202 38.7564H87.9971L87.9946 38.7568ZM88.072 21.7618L88.1053 37.5222H88.5177C91.0937 37.5168 93.1853 35.408 93.1799 32.8212L93.1666 26.4431C93.1642 25.2008 92.6711 24.0102 91.7955 23.1325C90.92 22.2548 89.7334 21.7616 88.4962 21.7611H88.4858L88.072 21.7618Z" fill="#371A45"/>
<path d="M35.2883 21.2568H35.8117C35.9451 21.2566 36.0732 21.3094 36.1678 21.4038C36.2625 21.4982 36.3159 21.6265 36.3165 21.7605L36.3502 37.7431C36.3505 37.8771 36.2978 38.0057 36.2038 38.1007C36.1097 38.1957 35.982 38.2494 35.8486 38.25H35.3255C34.6312 38.2517 33.9434 38.1161 33.3013 37.8508C32.6592 37.5856 32.0754 37.1959 31.5833 36.7041C31.0911 36.2124 30.7003 35.6281 30.4331 34.9846C30.1659 34.3411 30.0276 33.6511 30.026 32.954L30.0127 26.5762C30.0112 25.8791 30.1465 25.1886 30.4108 24.5439C30.6751 23.8993 31.0633 23.3133 31.5532 22.8194C32.0431 22.3254 32.6251 21.9332 33.2659 21.6651C33.9068 21.397 34.594 21.2583 35.2883 21.2568Z" fill="white"/>
<path d="M35.3136 38.3618C32.3428 38.3618 29.923 35.9386 29.9166 32.9543L29.9033 26.5762C29.8969 23.5882 32.3131 21.1521 35.2889 21.1442H35.812C35.8925 21.1441 35.9723 21.1599 36.0468 21.1908C36.1213 21.2217 36.189 21.267 36.246 21.3242C36.303 21.3813 36.3483 21.4492 36.3792 21.5239C36.4101 21.5987 36.426 21.6788 36.426 21.7597L36.4597 37.742C36.4599 37.823 36.4442 37.9032 36.4135 37.9781C36.3828 38.053 36.3377 38.1211 36.2807 38.1785C36.2238 38.2359 36.1562 38.2815 36.0817 38.3126C36.0072 38.3438 35.9274 38.3599 35.8467 38.36H35.3233L35.3136 38.3618ZM35.2892 21.3676C32.4349 21.3737 30.1179 23.7102 30.124 26.5758L30.1373 32.9539C30.1434 35.8159 32.466 38.1398 35.3136 38.1402H35.3243H35.8478C35.9523 38.1402 36.0525 38.0985 36.1265 38.0243C36.2004 37.9501 36.2419 37.8494 36.2419 37.7445L36.2082 21.7622C36.2082 21.6572 36.1667 21.5566 36.0928 21.4824C36.0189 21.4082 35.9186 21.3665 35.8141 21.3665L35.2892 21.3676Z" fill="#371A45"/>
<g opacity="0.35">
<path opacity="0.35" d="M36.3425 33.289L36.3514 37.6975C36.3513 37.8439 36.2934 37.9844 36.1904 38.088C36.0874 38.1916 35.9477 38.2501 35.8018 38.2504C35.0449 38.2522 34.295 38.1042 33.595 37.8149C32.895 37.5256 32.2586 37.1006 31.7223 36.5642C31.186 36.0279 30.7601 35.3907 30.4692 34.689C30.1782 33.9873 30.0278 33.235 30.0265 32.4749L30.0215 30.1917C30.4813 31.2039 31.2217 32.0617 32.1542 32.6626C33.0867 33.2635 34.1718 33.582 35.2798 33.58H35.8574C35.9568 33.5794 36.0542 33.5521 36.1395 33.5009C36.2248 33.4497 36.2949 33.3766 36.3425 33.289V33.289Z" fill="#371A45"/>
</g>
<path d="M35.3132 38.8684C32.0651 38.8684 29.4189 36.2186 29.4117 32.9554L29.3985 26.5773C29.3916 23.3102 32.0335 20.6467 35.2874 20.6395H35.8104H35.813C36.1092 20.6395 36.3933 20.7576 36.603 20.9677C36.8126 21.1779 36.9306 21.463 36.9311 21.7605L36.9648 37.7428C36.9652 37.8903 36.9367 38.0364 36.8808 38.1728C36.8249 38.3092 36.7428 38.4332 36.6392 38.5377C36.5355 38.6422 36.4123 38.7252 36.2767 38.7819C36.1411 38.8386 35.9957 38.8678 35.8488 38.868H35.3257L35.3132 38.8684ZM35.2899 21.8738C32.7135 21.8792 30.6223 23.9883 30.6277 26.5748L30.6409 32.9529C30.6467 35.5362 32.7415 37.6338 35.3132 37.6341H35.3228H35.7356L35.7023 21.8738H35.2899Z" fill="#371A45"/>
<path d="M34.6789 33.0288L34.0082 37.6161L33.8767 38.5155C33.8303 38.8342 33.6638 39.1229 33.4115 39.3219C33.1591 39.5208 32.8403 39.6148 32.5209 39.5845C32.2015 39.5541 31.906 39.4018 31.6953 39.1588C31.4846 38.9159 31.3749 38.601 31.3889 38.2791L31.4695 36.3578L31.6289 32.5806L34.6789 33.0288Z" fill="#FF5555"/>
<path d="M34.6791 33.0288L34.0084 37.6161C32.9136 37.4845 32.0738 36.9384 31.4697 36.3571L31.6292 32.5798L34.6791 33.0288Z" fill="#BB2828"/>
<path d="M32.6413 40.2065C32.5495 40.2066 32.4577 40.1998 32.3669 40.1864V40.1864C31.9099 40.1197 31.4938 39.8851 31.1993 39.5279C30.9049 39.1707 30.753 38.7164 30.7733 38.2531L31.0133 32.5546C31.017 32.4682 31.0386 32.3836 31.0769 32.3063C31.1152 32.2289 31.1692 32.1604 31.2355 32.1053C31.3018 32.0502 31.3789 32.0097 31.4618 31.9864C31.5446 31.9631 31.6315 31.9575 31.7166 31.97L34.7662 32.419C34.8461 32.4307 34.9228 32.4581 34.9921 32.4997C35.0614 32.5412 35.1218 32.5961 35.17 32.6611C35.2182 32.7261 35.2531 32.8 35.2729 32.8786C35.2926 32.9571 35.2967 33.0388 35.285 33.119L34.4839 38.6042C34.4189 39.0487 34.1971 39.4549 33.859 39.749C33.5208 40.043 33.0887 40.2054 32.6413 40.2065ZM32.5449 38.9654C32.7121 38.99 32.8821 38.947 33.0176 38.8458C33.1532 38.7447 33.2432 38.5936 33.2679 38.4258L33.9798 33.5507L32.2125 33.2906L32.0011 38.3057C31.9941 38.4638 32.0459 38.6189 32.1464 38.7409C32.2469 38.8629 32.3889 38.943 32.5449 38.9658V38.9654Z" fill="#371A45"/>
<path d="M37.0128 30.6217C36.7208 32.6212 35.3249 35.6728 32.9235 35.3192C30.522 34.9655 28.9144 32.3564 29.3328 29.4915C29.7513 26.6265 32.0371 24.5897 34.4386 24.9433C36.8401 25.297 37.303 28.622 37.0128 30.6217Z" fill="#FF5555"/>
<g opacity="0.5">
<path opacity="0.5" d="M37.058 28.8054C36.6882 27.6424 35.9667 26.6808 34.7356 26.4991C32.3352 26.1466 30.0469 28.182 29.6296 31.0473C29.5695 31.4566 29.5498 31.8708 29.5708 32.284C29.2714 31.3857 29.1893 30.4287 29.3315 29.4921C29.7489 26.6272 32.035 24.59 34.4376 24.944C36.1927 25.2001 36.9136 27.0474 37.058 28.8054Z" fill="white"/>
</g>
<path d="M36.632 26.8943C37.1042 28.0706 37.1694 29.5398 37.0114 30.6215C36.7183 32.622 35.3228 35.6729 32.921 35.3204C30.7946 35.0059 29.291 32.9263 29.2666 30.4639C29.8663 31.8838 31.0261 32.9191 32.4778 33.1335C34.8782 33.4861 36.2755 30.4355 36.5682 28.435C36.6394 27.9248 36.6607 27.4087 36.632 26.8943V26.8943Z" fill="#BB2828"/>
<path d="M33.3239 35.9533C33.1643 35.953 33.0049 35.941 32.8471 35.9174C30.1142 35.5148 28.2705 32.5862 28.7373 29.3885C28.9609 27.8593 29.6746 26.4909 30.7472 25.5354C31.8496 24.5537 33.196 24.122 34.5406 24.3195C37.4107 24.7422 37.961 28.4565 37.6339 30.6983C37.4523 31.9427 36.9435 33.2524 36.2725 34.1978C35.4553 35.3551 34.4432 35.9533 33.3239 35.9533ZM33.9072 25.5081C33.0796 25.5081 32.2613 25.8372 31.5627 26.4592C30.7064 27.2222 30.1349 28.3262 29.9537 29.5684C29.585 32.0927 30.9629 34.3932 33.0255 34.6968C33.8595 34.8198 34.6141 34.4115 35.2711 33.4834C35.9343 32.5481 36.2983 31.3387 36.4176 30.5203C36.6358 29.0266 36.4201 25.8437 34.3622 25.5415C34.2115 25.5197 34.0594 25.5088 33.9072 25.5092V25.5081Z" fill="#371A45"/>
<path d="M89.1348 33.0288L89.8051 37.6161L89.9366 38.5155C89.983 38.8342 90.1495 39.1229 90.4018 39.3219C90.6542 39.5208 90.973 39.6148 91.2924 39.5845C91.6118 39.5541 91.9073 39.4018 92.118 39.1588C92.3287 38.9159 92.4384 38.601 92.4244 38.2791L92.3438 36.3578L92.1844 32.5806L89.1348 33.0288Z" fill="#FF5555"/>
<path d="M89.1348 33.0288L89.8051 37.6161C90.9 37.4845 91.7398 36.9384 92.3438 36.3571L92.1844 32.5798L89.1348 33.0288Z" fill="#BB2828"/>
<path d="M91.1736 40.2065C90.7259 40.2056 90.2933 40.0433 89.9547 39.7493C89.616 39.4553 89.3937 39.0489 89.3281 38.6042L88.527 33.119C88.5153 33.0388 88.5194 32.9571 88.5391 32.8786C88.5589 32.8 88.5938 32.7261 88.642 32.6611C88.6902 32.5961 88.7506 32.5412 88.8199 32.4997C88.8892 32.4581 88.966 32.4307 89.0458 32.419L92.0954 31.97C92.1806 31.9575 92.2674 31.9631 92.3503 31.9864C92.4331 32.0097 92.5102 32.0502 92.5765 32.1053C92.6428 32.1604 92.6968 32.2289 92.7351 32.3063C92.7734 32.3836 92.795 32.4682 92.7987 32.5546L93.0387 38.2531C93.059 38.7164 92.9072 39.1707 92.6127 39.5279C92.3182 39.8851 91.9022 40.1197 91.4452 40.1864C91.3552 40.1998 91.2645 40.2065 91.1736 40.2065ZM89.8322 33.5503L90.5444 38.4251C90.5693 38.5926 90.6593 38.7435 90.7947 38.8446C90.93 38.9457 91.0997 38.9889 91.2667 38.9647C91.4228 38.9421 91.5649 38.862 91.6655 38.74C91.766 38.618 91.8177 38.4628 91.8106 38.3046L91.5996 33.2895L89.8322 33.5503Z" fill="#371A45"/>
<path d="M86.8031 30.6217C87.0951 32.6212 88.4909 35.6728 90.8924 35.3192C93.2939 34.9655 94.9018 32.3564 94.4834 29.4915C94.0649 26.6265 91.7788 24.5897 89.3773 24.9433C86.9758 25.297 86.5111 28.622 86.8031 30.6217Z" fill="#FF5555"/>
<g opacity="0.5">
<path opacity="0.5" d="M86.7559 28.8054C87.1256 27.6424 87.8475 26.6808 89.0782 26.4991C91.4786 26.1466 93.7672 28.182 94.1843 31.0473C94.2445 31.4566 94.2642 31.8708 94.243 32.284C94.5426 31.3857 94.6247 30.4286 94.4824 29.4921C94.0653 26.6272 91.7788 24.59 89.3763 24.944C87.6211 25.2001 86.9006 27.0474 86.7559 28.8054Z" fill="white"/>
</g>
<path d="M87.181 26.8943C86.7091 28.0706 86.6435 29.5398 86.8019 30.6215C87.0946 32.622 88.4901 35.6729 90.8923 35.3204C93.0183 35.0059 94.5219 32.9263 94.5467 30.4639C93.9469 31.8838 92.7872 32.9191 91.3358 33.1335C88.9354 33.4861 87.5382 30.4355 87.2454 28.435C87.174 27.9248 87.1524 27.4088 87.181 26.8943V26.8943Z" fill="#BB2828"/>
<path d="M90.5047 35.9642C89.3854 35.9642 88.3736 35.3649 87.5557 34.2094C86.885 33.2622 86.3766 31.9542 86.1943 30.7099C85.8668 28.4681 86.4171 24.7538 89.2872 24.3311C90.6326 24.1336 91.9786 24.5653 93.081 25.547C94.1533 26.5025 94.867 27.8709 95.0905 29.4001C95.5563 32.5978 93.7137 35.5264 90.9812 35.929C90.8234 35.9521 90.6641 35.9639 90.5047 35.9642V35.9642ZM87.411 30.5322C87.5306 31.3506 87.8943 32.5586 88.5574 33.4954C89.2142 34.4231 89.9694 34.8314 90.8031 34.7087C92.8657 34.4051 94.2425 32.1046 93.8749 29.5804C93.6936 28.3382 93.1225 27.2342 92.2659 26.4712C91.4397 25.7352 90.4445 25.4085 89.4664 25.5535C87.4085 25.8564 87.1928 29.0386 87.411 30.5322Z" fill="#371A45"/>
<path d="M79.324 55.869V82.8649C79.324 83.5317 79.244 84.196 79.0858 84.8435C78.1947 88.4811 74.9101 91.1993 71.0246 91.1993H46.0287C41.7699 91.1993 38.2349 87.9365 37.7784 83.7776C37.7444 83.4743 37.7274 83.1694 37.7275 82.8642V55.869C37.7275 53.2789 38.9231 50.9511 40.7865 49.4189C42.2637 48.1999 44.1166 47.5336 46.0287 47.5339H71.0239C72.1381 47.5331 73.2409 47.7593 74.2656 48.1987C75.3947 48.6857 76.4032 49.4162 77.2197 50.3383C78.0362 51.2605 78.6406 52.3517 78.9901 53.5347C79.2116 54.2928 79.3241 55.0789 79.324 55.869V55.869Z" fill="white"/>
<path d="M71.0237 47.5348C75.5891 47.5348 79.3241 51.2854 79.3241 55.8688V82.8654C79.3241 87.4492 75.5891 91.1998 71.0237 91.1998H46.0281C41.463 91.1998 37.728 87.4492 37.728 82.8654V55.8688C37.728 51.2854 41.463 47.5348 46.0281 47.5348H71.0237V47.5348ZM71.0237 46.3009H46.0281C40.7737 46.3009 36.498 50.5929 36.498 55.8698V82.8665C36.498 88.1424 40.7729 92.4354 46.0281 92.4354H71.0237C76.2781 92.4354 80.5537 88.1431 80.5537 82.8665V55.8688C80.5537 50.5929 76.2784 46.2998 71.0237 46.2998V46.3009Z" fill="#371A45"/>
<path d="M79.0857 84.8442C78.7525 90.4179 78.098 93.9196 78.098 93.9196H38.5175C38.5175 93.9196 37.8185 89.9625 37.7802 83.7783C37.7694 82.1595 37.8049 80.386 37.9091 78.4931C38.3179 71.1056 39.785 61.8636 43.7612 52.6123C44.1237 51.7703 44.5068 50.9285 44.9105 50.087C45.3189 49.2342 45.7511 48.3828 46.2071 47.5328C46.3776 47.2182 46.5502 46.9045 46.7248 46.5918C47.6176 44.9967 48.5978 43.4165 49.6655 41.8512H71.5201C72.5487 43.9158 73.4663 46.0343 74.2687 48.1976C75.1361 50.5427 75.8819 52.9313 76.5033 55.3538C76.7643 56.3657 77.0032 57.3741 77.2198 58.3792C79.4207 68.5338 79.4837 78.174 79.0857 84.8442Z" fill="white"/>
<path d="M78.0978 94.5359H38.5177C38.3732 94.536 38.2334 94.485 38.1227 94.3918C38.0121 94.2987 37.9376 94.1693 37.9125 94.0265C37.8996 93.9546 36.6511 86.7131 37.4135 76.6826C38.1175 67.4205 40.7271 53.7985 49.1598 41.5031C49.2055 41.4363 49.264 41.3793 49.3317 41.3353C49.3994 41.2912 49.4751 41.261 49.5545 41.2463C49.6338 41.2316 49.7153 41.2328 49.7942 41.2497C49.8731 41.2666 49.948 41.299 50.0144 41.345C50.0809 41.3909 50.1377 41.4496 50.1815 41.5176C50.2254 41.5856 50.2555 41.6616 50.2702 41.7413C50.2848 41.821 50.2836 41.9028 50.2668 41.982C50.2499 42.0613 50.2177 42.1364 50.1719 42.2031C41.8958 54.2719 39.3316 67.6659 38.6391 76.7765C38.0032 85.1432 38.7824 91.5084 39.0436 93.302H77.579C77.8685 91.517 78.7831 85.149 78.6474 76.7736C78.5001 67.6792 77.048 54.2866 70.9689 42.1312C70.9326 42.0588 70.911 41.9799 70.9051 41.8991C70.8992 41.8183 70.9092 41.7371 70.9346 41.6602C70.9858 41.5049 71.0964 41.3764 71.242 41.3029C71.3877 41.2294 71.5564 41.217 71.7111 41.2685C71.8658 41.3199 71.9938 41.431 72.067 41.5772C78.2554 53.9521 79.7297 67.5536 79.8773 76.7852C80.0364 86.779 78.7154 93.9629 78.7022 94.0341C78.6754 94.1753 78.6003 94.3027 78.49 94.3943C78.3797 94.486 78.2409 94.536 78.0978 94.5359V94.5359Z" fill="#371A45"/>
<g opacity="0.35">
<path opacity="0.35" d="M29.3809 93.6088V93.5219C30.0483 93.5522 29.3809 93.6088 29.3809 93.6088Z" fill="#371A45"/>
</g>
<path d="M97.2955 80.6671C97.2955 80.6671 92.9604 101.437 91.5456 101.899C89.5224 102.56 84.6589 101.863 84.6589 101.863C84.6589 101.863 67.7366 99.5611 58.0751 99.5611C48.4136 99.5611 31.4913 101.863 31.4913 101.863C31.4913 101.863 26.6256 102.559 24.6024 101.899C23.1887 101.437 18.8525 80.6671 18.8525 80.6671C21.4321 76.9211 27.3923 77.3179 30.2331 83.927C31.3351 82.1762 32.9559 80.5962 35.327 79.735C35.6677 79.6112 36.0077 79.5058 36.3459 79.4184C41.0393 78.1863 45.3192 80.2793 48.3355 82.5618C48.611 82.7694 48.8729 82.9787 49.1237 83.1863C49.1491 83.2082 49.1745 83.228 49.1996 83.25C49.3992 83.4154 49.5912 83.5813 49.7761 83.745C50.6805 84.5411 51.6908 85.207 52.778 85.7235C52.9325 85.7954 53.0883 85.8656 53.2477 85.9311C54.7753 86.5793 56.4167 86.9135 58.0751 86.9139C61.1333 86.9139 64.0754 85.7746 66.3723 83.7482C68.9193 81.5002 72.8603 78.9065 77.363 79.063C78.5447 79.1043 79.7125 79.3322 80.8236 79.7382C83.1964 80.5994 84.8137 82.1794 85.9175 83.9302C88.7575 77.3179 94.7159 76.9211 97.2955 80.6671Z" fill="white"/>
<g opacity="0.35">
<path opacity="0.35" d="M95.7757 79.1631C94.3856 85.2527 92.4137 93.2039 91.5456 93.4874C89.522 94.1478 84.6571 93.4514 84.6571 93.4514C84.6571 93.4514 67.7359 88.8497 58.0733 88.8497C48.4107 88.8497 31.4895 93.4514 31.4895 93.4514C31.4895 93.4514 26.6259 94.1475 24.6028 93.4874C23.7347 93.2039 21.7624 85.2527 20.3723 79.1631C19.8744 79.4949 19.4334 79.9055 19.0664 80.379C19.9538 84.5336 23.3771 100.206 24.6028 100.607C26.6259 101.269 31.4895 100.573 31.4895 100.573C31.4895 100.573 48.4121 98.2708 58.0733 98.2708C67.7344 98.2708 84.6571 100.573 84.6571 100.573C84.6571 100.573 89.522 101.269 91.5456 100.607C92.7709 100.206 96.1945 84.5336 97.0816 80.379C97.1532 80.4725 97.2249 80.5675 97.2965 80.6668C97.2965 80.6668 92.9614 101.436 91.5473 101.899C92.9604 101.437 97.2965 80.6668 97.2965 80.6668C96.8904 80.0722 96.374 79.5617 95.7757 79.1631V79.1631Z" fill="#371A45"/>
</g>
<path d="M69.0425 81.4501C69.6797 80.9553 70.3538 80.5103 71.0589 80.1191C71.238 80.0248 71.4143 79.9234 71.5963 79.8349L72.147 79.5709C72.5221 79.4126 72.8993 79.2518 73.2881 79.1237C74.834 78.5812 76.5175 78.3478 78.1821 78.4999C79.0118 78.5801 79.8398 78.7337 80.633 78.9938C81.0354 79.1141 81.4293 79.2614 81.8121 79.4345C82.0073 79.5151 82.1929 79.6176 82.3831 79.7086C82.5673 79.8126 82.7572 79.9068 82.9352 80.0212C84.3859 80.9015 85.5865 82.1602 86.4685 83.5769L85.3145 83.6679C85.5748 83.0781 85.8729 82.5059 86.207 81.9548C86.5496 81.4008 86.9374 80.8763 87.3664 80.3867C88.2327 79.4097 89.3168 78.5805 90.5775 78.1028C91.8315 77.6182 93.2646 77.534 94.5755 77.9294C95.8864 78.3247 97.0358 79.2046 97.7999 80.3184V80.3205C97.847 80.3892 97.8796 80.4667 97.8958 80.5484C97.9121 80.6301 97.9117 80.7142 97.8945 80.7958C96.9272 85.3583 95.9104 89.9021 94.7611 94.4297C94.4716 95.5607 94.1721 96.6903 93.8479 97.8173C93.6852 98.3807 93.5164 98.9437 93.3344 99.5059C93.1524 100.068 92.9608 100.629 92.7197 101.197C92.6591 101.341 92.595 101.482 92.519 101.628C92.4384 101.792 92.3434 101.949 92.2353 102.096C92.1962 102.143 92.1654 102.184 92.1174 102.234C92.0887 102.262 92.059 102.289 92.0289 102.315C91.9932 102.348 91.9537 102.376 91.9114 102.4C91.8571 102.432 91.8004 102.459 91.7419 102.482C91.7125 102.491 91.6989 102.494 91.6767 102.5L91.5556 102.533C91.3984 102.579 91.2384 102.615 91.0766 102.641C90.4482 102.754 89.8438 102.787 89.2448 102.795C88.0463 102.811 86.8723 102.727 85.7015 102.609C85.1164 102.55 84.5278 102.467 83.9603 102.393L82.2405 102.173L78.794 101.756C76.4953 101.489 74.1944 101.244 71.8911 101.021C69.5889 100.798 67.2845 100.601 64.9797 100.451C62.675 100.302 60.3688 100.185 58.073 100.179C55.7768 100.185 53.4699 100.302 51.1658 100.451C48.8618 100.6 46.5567 100.798 44.2544 101.021C41.9521 101.244 39.6506 101.489 37.3516 101.756L33.9054 102.173L32.1856 102.393C31.6185 102.467 31.0295 102.55 30.4444 102.609C29.2736 102.727 28.0996 102.811 26.9015 102.795C26.3021 102.787 25.6977 102.754 25.0693 102.641C24.9075 102.615 24.7476 102.579 24.5903 102.533L24.4692 102.5C24.447 102.494 24.4334 102.491 24.404 102.482C24.3455 102.459 24.289 102.432 24.2349 102.4C24.1925 102.376 24.153 102.348 24.1174 102.315C24.0869 102.289 24.0572 102.262 24.0285 102.234C23.9805 102.184 23.9497 102.143 23.911 102.096C23.8026 101.949 23.7075 101.792 23.6269 101.628C23.5513 101.481 23.4872 101.338 23.4263 101.197C23.1851 100.628 22.9963 100.067 22.8115 99.5059C22.6266 98.9444 22.4607 98.3807 22.2984 97.8173C21.976 96.6903 21.6747 95.5607 21.3848 94.4297C20.2358 89.9035 19.2201 85.3597 18.2517 80.7958C18.2345 80.7146 18.2338 80.6308 18.2498 80.5494C18.2658 80.4681 18.2982 80.3908 18.3449 80.3223L18.3477 80.3184C19.1119 79.2032 20.2573 78.3201 21.5722 77.9294C22.8842 77.5337 24.318 77.6197 25.5676 78.1093C26.8255 78.5902 27.9072 79.4201 28.7674 80.3997C29.1927 80.8906 29.5768 81.416 29.9156 81.9706C30.2458 82.5223 30.54 83.0949 30.7963 83.6848L29.7129 83.5992C30.5931 82.1998 31.7722 80.9494 33.2028 80.0659C33.9116 79.619 34.6729 79.2623 35.4692 79.0039C36.252 78.7276 37.075 78.5661 37.9001 78.4676C38.1072 78.4478 38.3146 78.4269 38.522 78.4132L39.1458 78.4057C39.354 78.3974 39.561 78.4186 39.7681 78.4287C39.9752 78.4388 40.1823 78.4535 40.3869 78.4855C41.2109 78.5715 42.0159 78.7733 42.793 79.0295C43.1828 79.1568 43.5583 79.3172 43.9341 79.4734L44.483 79.7389C44.665 79.8277 44.8412 79.9281 45.0204 80.0266C45.7218 80.4215 46.3871 80.8779 47.0084 81.3904C47.0474 81.4224 47.0734 81.4676 47.0815 81.5175C47.0896 81.5674 47.0792 81.6186 47.0523 81.6613C47.0255 81.7041 46.9839 81.7355 46.9356 81.7497C46.8873 81.7639 46.8354 81.7598 46.7899 81.7383V81.7383C45.369 81.0749 43.9474 80.4792 42.4774 80.1227C41.0163 79.7471 39.5148 79.6173 38.0448 79.7827C37.3111 79.8673 36.5809 80.0094 35.8773 80.2504C35.1704 80.4606 34.4927 80.7594 33.8602 81.1397C33.2307 81.5237 32.6496 81.9827 32.1298 82.5067C31.87 82.7715 31.6247 83.0502 31.3949 83.3416C31.1671 83.6361 30.9521 83.9413 30.75 84.2571C30.69 84.351 30.6059 84.4269 30.5065 84.4768C30.407 84.5266 30.296 84.5486 30.1852 84.5403C30.0744 84.532 29.9679 84.4938 29.8769 84.4297C29.7859 84.3656 29.7139 84.278 29.6684 84.1762L29.6663 84.1715C29.4329 83.635 29.1655 83.1141 28.8655 82.6121C28.5643 82.119 28.223 81.6518 27.8452 81.2152C27.0903 80.3547 26.1649 79.6565 25.1305 79.2611C24.1009 78.8586 22.9605 78.7985 21.9247 79.1097C20.889 79.4209 19.9818 80.113 19.357 81.0188L19.4527 80.5411C20.4168 85.0834 21.4321 89.6251 22.5736 94.12C22.8602 95.2427 23.1579 96.3626 23.4771 97.4713C23.6369 98.0256 23.8024 98.5771 23.9787 99.1217C24.155 99.6664 24.3409 100.206 24.5519 100.708C24.6046 100.833 24.6594 100.955 24.7171 101.066C24.7641 101.163 24.8189 101.256 24.8808 101.344C24.8889 101.353 24.8964 101.363 24.9034 101.373C24.9019 101.369 24.8993 101.366 24.8959 101.364C24.8923 101.364 24.8937 101.364 24.8651 101.344C24.8432 101.329 24.819 101.319 24.7934 101.313L24.8328 101.323L24.922 101.346C25.0426 101.383 25.1656 101.41 25.29 101.43C25.8023 101.523 26.3598 101.558 26.9183 101.564C28.0386 101.579 29.1808 101.499 30.3155 101.384C30.8837 101.327 31.4426 101.248 32.0244 101.171L33.7524 100.951L37.2101 100.533C39.5159 100.264 41.8248 100.019 44.1369 99.7951C46.4485 99.5718 48.7636 99.3728 51.0852 99.2221C53.4068 99.0714 55.732 98.9534 58.0715 98.9476C60.4118 98.9534 62.7373 99.0724 65.0578 99.2221C67.3784 99.3717 69.6942 99.5718 72.0062 99.7951C74.3181 100.019 76.6279 100.263 78.933 100.533L82.3903 100.951L84.1183 101.171C84.7001 101.248 85.259 101.327 85.8272 101.384C86.9619 101.499 88.1044 101.579 89.2244 101.564C89.7833 101.558 90.3404 101.523 90.8527 101.43C90.9771 101.41 91.1 101.383 91.2206 101.346L91.3099 101.323L91.3493 101.313C91.3237 101.319 91.2994 101.329 91.2776 101.344C91.249 101.365 91.25 101.363 91.2468 101.364C91.2433 101.366 91.2406 101.369 91.2389 101.373C91.2411 101.37 91.2532 101.352 91.2615 101.344C91.3234 101.256 91.3782 101.163 91.4252 101.066C91.4822 100.955 91.5377 100.833 91.5907 100.708C91.8036 100.205 91.9895 99.6649 92.164 99.1217C92.3385 98.5785 92.5054 98.0256 92.6656 97.4713C92.9848 96.3626 93.2818 95.2409 93.5695 94.12C94.7106 89.6251 95.7259 85.0834 96.69 80.5411L96.786 81.0188C96.1609 80.113 95.2559 79.4191 94.2179 79.1097C93.18 78.8003 92.0414 78.86 91.0143 79.2665C89.9828 79.6655 89.0603 80.3644 88.3115 81.2274C87.9373 81.6655 87.5998 82.1338 87.3022 82.6275C87.0063 83.1299 86.743 83.6509 86.514 84.1873L86.5119 84.1916C86.464 84.3006 86.3875 84.3945 86.2906 84.4632C86.1937 84.532 86.08 84.573 85.9617 84.5819C85.8434 84.5908 85.7248 84.5672 85.6188 84.5138C85.5128 84.4603 85.4232 84.3789 85.3597 84.2783C84.5589 83.0103 83.5081 81.917 82.2449 81.1533C82.0915 81.0512 81.9263 80.9684 81.7673 80.8749C81.6014 80.794 81.4416 80.7015 81.2711 80.6296C80.9344 80.4718 80.5872 80.3377 80.2321 80.2281C79.527 79.9763 78.7925 79.8241 78.0516 79.7342C77.3107 79.6349 76.5576 79.6367 75.8081 79.6953C75.0558 79.7414 74.3088 79.8881 73.5689 80.0734C72.0878 80.4454 70.6605 81.0749 69.2639 81.7944C69.2184 81.8184 69.1655 81.8244 69.1157 81.8111C69.066 81.7979 69.023 81.7664 68.9952 81.7229C68.9675 81.6794 68.9569 81.627 68.9658 81.5761C68.9746 81.5252 69.0021 81.4795 69.0429 81.448L69.0425 81.4501Z" fill="#371A45"/>
<path d="M90.2875 101.899H91.5446C92.2666 101.899 92.9733 101.69 93.5792 101.296C94.1851 100.901 94.6642 100.339 94.9586 99.6772C96.8399 95.4471 100.27 86.1512 97.057 80.481C96.9636 80.3156 96.8638 80.1564 96.7575 80.0037C96.7575 80.0037 93.6731 77.1866 91.4572 81.1717C89.3889 84.8943 85.0441 100.812 90.2875 101.899Z" fill="#AFAFB2"/>
<g opacity="0.7">
<path opacity="0.7" d="M90.3232 83.8248C90.3788 83.7355 90.434 83.651 90.4881 83.5729C93.2127 79.5878 97.0054 82.4045 97.0054 82.4045C97.136 82.5574 97.2588 82.7169 97.3733 82.8823C97.7477 83.4208 98.0572 84.002 98.2955 84.6137C98.1418 83.124 97.7581 81.7156 97.0577 80.4807C96.9643 80.3152 96.8645 80.1561 96.7582 80.0033C96.7582 80.0033 93.6738 77.1862 91.4579 81.1714C91.1225 81.7746 90.7281 82.6963 90.3232 83.8248Z" fill="white"/>
</g>
<path d="M98.2799 85.072C98.2456 85.072 98.2115 85.0691 98.1778 85.0634L90.4685 83.773C90.3077 83.7461 90.1642 83.6561 90.0694 83.5229C89.9747 83.3897 89.9366 83.2241 89.9635 83.0627C89.9903 82.9013 90.0799 82.7572 90.2126 82.6621C90.3453 82.567 90.5101 82.5287 90.6709 82.5557L98.3802 83.845C98.5324 83.8702 98.6695 83.9521 98.7644 84.0742C98.8592 84.1963 98.9049 84.3498 98.8923 84.5042C98.8796 84.6585 98.8096 84.8025 98.6962 84.9074C98.5827 85.0123 98.4341 85.0706 98.2799 85.0706V85.072Z" fill="#371A45"/>
<path d="M98.2302 89.2543C98.2026 89.2543 98.1751 89.2525 98.1478 89.2489L89.1294 88.0312C89.0494 88.0204 88.9723 87.9939 88.9025 87.9532C88.8327 87.9125 88.7716 87.8584 88.7227 87.794C88.6737 87.7295 88.6379 87.6561 88.6172 87.5777C88.5965 87.4994 88.5914 87.4178 88.6022 87.3375C88.6129 87.2571 88.6393 87.1798 88.6798 87.1097C88.7204 87.0396 88.7743 86.9783 88.8384 86.9291C88.9026 86.8799 88.9758 86.844 89.0538 86.8232C89.1318 86.8024 89.2131 86.7973 89.2931 86.8081L98.3126 88.0258C98.4672 88.0465 98.6081 88.1254 98.7069 88.2465C98.8057 88.3677 98.8549 88.522 98.8446 88.6783C98.8342 88.8345 98.7651 88.981 98.6512 89.0879C98.5373 89.1949 98.3872 89.2544 98.2313 89.2543H98.2302Z" fill="#371A45"/>
<path d="M97.4354 93.351C97.4101 93.3508 97.3849 93.3493 97.3598 93.3463L88.2049 92.2211C88.0431 92.2012 87.8958 92.1176 87.7954 91.9886C87.6951 91.8597 87.6498 91.696 87.6696 91.5336C87.6894 91.3712 87.7727 91.2233 87.9011 91.1225C88.0295 91.0217 88.1925 90.9763 88.3543 90.9962L97.5092 92.1214C97.6649 92.14 97.8076 92.2176 97.9081 92.3384C98.0086 92.4592 98.0594 92.614 98.05 92.7712C98.0405 92.9283 97.9716 93.0759 97.8574 93.1836C97.7431 93.2914 97.5922 93.3513 97.4354 93.351V93.351Z" fill="#371A45"/>
<path d="M95.9842 97.8182C95.966 97.8182 95.9484 97.8182 95.9283 97.8153L87.744 97.0739C87.5816 97.0592 87.4318 96.9803 87.3273 96.8547C87.2229 96.729 87.1724 96.5669 87.1871 96.4039C87.2017 96.2409 87.2802 96.0904 87.4053 95.9855C87.5305 95.8806 87.692 95.83 87.8543 95.8447L96.0394 96.5864C96.1977 96.5997 96.3447 96.674 96.4496 96.7938C96.5545 96.9136 96.6091 97.0694 96.602 97.2288C96.5949 97.3881 96.5267 97.5385 96.4116 97.6483C96.2964 97.7582 96.1434 97.8191 95.9846 97.8182H95.9842Z" fill="#371A45"/>
<g opacity="0.35">
<path opacity="0.35" d="M90.2876 101.899H91.5447C92.2667 101.899 92.9734 101.69 93.5793 101.296C94.1851 100.901 94.6643 100.339 94.9587 99.6773C95.4452 98.5808 96.0364 97.1469 96.5896 95.522C95.835 96.781 94.3024 97.5764 92.6192 97.5764H91.1213C88.9895 97.2059 88.1877 95.1065 88.1558 92.3549C87.4361 96.9987 87.6342 101.348 90.2876 101.899Z" fill="#371A45"/>
</g>
<path d="M91.5464 102.515H90.2878C90.2462 102.515 90.2046 102.511 90.1638 102.503C89.137 102.29 88.3617 101.622 87.8587 100.518C85.7091 95.7989 89.2234 83.923 90.9208 80.8703C91.7037 79.4626 92.6907 78.6525 93.8544 78.4619C95.6393 78.169 97.1096 79.49 97.1713 79.5461C97.2051 79.5773 97.2355 79.612 97.2619 79.6497C97.3783 79.8173 97.4894 79.9943 97.5919 80.1756C100.864 85.9519 97.6994 95.0305 95.52 99.928C95.1768 100.698 94.6191 101.352 93.914 101.811C93.209 102.27 92.3867 102.515 91.5464 102.515V102.515ZM90.3566 101.281H91.5464C92.1496 101.281 92.7399 101.106 93.2462 100.777C93.7524 100.447 94.1529 99.9779 94.3993 99.4251C96.0764 95.6536 99.6412 86.2875 96.5246 80.7854C96.4529 80.6598 96.3781 80.5372 96.2989 80.4199C96.0778 80.24 95.1001 79.5037 94.0468 79.681C93.2743 79.8105 92.5843 80.4127 91.9957 81.4718C90.2201 84.6651 87.1515 95.9953 88.9779 100.005C89.3033 100.72 89.7547 101.138 90.3566 101.282V101.281Z" fill="#371A45"/>
<path d="M25.8574 101.899H24.6006C23.8785 101.899 23.1718 101.69 22.5658 101.296C21.9599 100.901 21.4807 100.339 21.1863 99.6772C19.305 95.4471 15.8752 86.1512 19.0879 80.481C19.1812 80.3156 19.2811 80.1564 19.3874 80.0037C19.3874 80.0037 22.4717 77.1866 24.6876 81.1717C26.7577 84.8943 31.1007 100.812 25.8574 101.899Z" fill="#AFAFB2"/>
<g opacity="0.7">
<path opacity="0.7" d="M25.8232 83.8248C25.7677 83.7356 25.7121 83.651 25.6584 83.573C22.9327 79.5882 19.1407 82.406 19.1407 82.406C19.0101 82.5588 18.8874 82.7182 18.7731 82.8837C18.3987 83.4223 18.089 84.0035 17.8506 84.6151C18.0043 83.1255 18.388 81.7171 19.0884 80.4821C19.1818 80.3167 19.2816 80.1575 19.3879 80.0048C19.3879 80.0048 22.4723 77.1877 24.6882 81.1728C25.0243 81.7747 25.4191 82.6963 25.8232 83.8248Z" fill="white"/>
</g>
<path d="M17.8674 85.0721C17.7131 85.0721 17.5645 85.0138 17.4511 84.9089C17.3376 84.804 17.2676 84.66 17.255 84.5057C17.2424 84.3513 17.288 84.1978 17.3829 84.0757C17.4777 83.9536 17.6149 83.8717 17.7671 83.8465L25.4764 82.5539C25.556 82.5406 25.6374 82.5432 25.716 82.5614C25.7947 82.5797 25.8689 82.6134 25.9346 82.6605C26.0003 82.7076 26.0561 82.7672 26.0988 82.8359C26.1415 82.9047 26.1703 82.9812 26.1836 83.0611C26.1969 83.1411 26.1943 83.2229 26.1761 83.3018C26.1579 83.3807 26.1244 83.4553 26.0775 83.5213C26.0306 83.5872 25.9712 83.6432 25.9027 83.6861C25.8343 83.729 25.758 83.7579 25.6784 83.7713L17.9691 85.0634C17.9355 85.0692 17.9015 85.072 17.8674 85.0721V85.0721Z" fill="#371A45"/>
<path d="M17.9164 89.2542C17.7605 89.2543 17.6104 89.1948 17.4965 89.0878C17.3826 88.9809 17.3135 88.8344 17.3031 88.6782C17.2928 88.5219 17.342 88.3676 17.4408 88.2464C17.5396 88.1253 17.6805 88.0464 17.8351 88.0257L26.8539 86.8084C26.9339 86.7976 27.0152 86.8027 27.0932 86.8235C27.1712 86.8442 27.2444 86.8802 27.3085 86.9294C27.3727 86.9785 27.4266 87.0399 27.4671 87.1099C27.5077 87.18 27.5341 87.2574 27.5448 87.3377C27.5556 87.418 27.5505 87.4997 27.5298 87.578C27.5091 87.6563 27.4733 87.7298 27.4243 87.7942C27.3754 87.8586 27.3142 87.9127 27.2445 87.9534C27.1747 87.9942 27.0976 88.0207 27.0176 88.0315L17.9988 89.2492C17.9715 89.2526 17.944 89.2543 17.9164 89.2542V89.2542Z" fill="#371A45"/>
<path d="M18.7118 93.351C18.555 93.3514 18.4039 93.2916 18.2896 93.1838C18.1753 93.0761 18.1063 92.9285 18.0968 92.7713C18.0873 92.6142 18.1381 92.4593 18.2386 92.3385C18.3391 92.2177 18.4819 92.14 18.6376 92.1214L27.7925 90.9962C27.9543 90.9763 28.1173 91.0217 28.2457 91.1225C28.3741 91.2233 28.4574 91.3712 28.4772 91.5336C28.497 91.696 28.4517 91.8597 28.3514 91.9886C28.251 92.1176 28.1037 92.2012 27.9419 92.2211L18.787 93.3463C18.762 93.3493 18.7369 93.3508 18.7118 93.351Z" fill="#371A45"/>
<path d="M20.1635 97.8182C20.0047 97.819 19.8518 97.7581 19.7368 97.6482C19.6217 97.5383 19.5535 97.3879 19.5465 97.2286C19.5395 97.0693 19.5941 96.9135 19.699 96.7938C19.8039 96.674 19.9508 96.5997 20.1091 96.5864L28.2938 95.8447C28.4561 95.8299 28.6177 95.8805 28.7428 95.9854C28.868 96.0902 28.9466 96.2407 28.9613 96.4037C28.9759 96.5667 28.9255 96.7289 28.8211 96.8546C28.7167 96.9803 28.5669 97.0591 28.4045 97.0739L20.2194 97.8153C20.2004 97.8171 20.1822 97.8182 20.1635 97.8182Z" fill="#371A45"/>
<g opacity="0.35">
<path opacity="0.35" d="M25.8577 101.899H24.6008C23.8788 101.9 23.172 101.69 22.5661 101.296C21.9602 100.901 21.481 100.339 21.1865 99.6773C20.7 98.5808 20.1088 97.1469 19.5557 95.522C20.3102 96.781 21.8429 97.5764 23.526 97.5764H25.024C27.1557 97.2059 27.9579 95.1065 27.9894 92.3549C28.7106 96.9987 28.5125 101.348 25.8577 101.899Z" fill="#371A45"/>
</g>
<path d="M25.8576 102.515H24.6008C23.7599 102.515 22.9369 102.271 22.2312 101.812C21.5256 101.353 20.9673 100.698 20.624 99.9276C18.4471 95.0327 15.2818 85.953 18.5539 80.1756C18.656 79.9957 18.7688 79.8159 18.8838 79.65C18.91 79.6122 18.9403 79.5775 18.9741 79.5464C19.0361 79.4903 20.5068 78.169 22.291 78.4622C23.455 78.6529 24.4406 79.463 25.2242 80.8706C26.922 83.9233 30.4367 95.7996 28.2867 100.519C27.7851 101.622 27.0084 102.29 25.9819 102.503C25.941 102.511 25.8994 102.515 25.8576 102.515ZM19.848 80.4202C19.7688 80.5375 19.6932 80.6598 19.6226 80.785C16.5056 86.2889 20.0704 95.6536 21.7479 99.425C21.9942 99.9779 22.3947 100.447 22.9009 100.777C23.4072 101.106 23.9976 101.281 24.6008 101.281H25.7906C26.3922 101.137 26.8436 100.719 27.1689 100.005C28.9961 95.995 25.9271 84.6651 24.1512 81.4717C23.5625 80.4127 22.8725 79.8105 22.1001 79.681C21.0467 79.5047 20.0722 80.2375 19.848 80.421V80.4202Z" fill="#371A45"/>
<path d="M40.0445 101.297C39.9653 101.297 39.8874 101.276 39.8184 101.237C39.7494 101.198 39.6916 101.142 39.6506 101.074C39.6096 101.006 39.5867 100.928 39.5842 100.849C39.5818 100.769 39.5997 100.69 39.6364 100.62C41.8577 96.3601 41.8896 91.5716 39.7342 86.3875C38.1116 82.4837 35.7886 79.813 35.7653 79.7867C35.6902 79.6939 35.6538 79.5755 35.6637 79.4563C35.6736 79.3372 35.7291 79.2265 35.8184 79.1474C35.9078 79.0684 36.0242 79.0271 36.1432 79.0323C36.2622 79.0375 36.3745 79.0887 36.4568 79.1752C36.5553 79.2871 38.8905 81.9682 40.5744 86.0058C42.819 91.3889 42.777 96.5907 40.4529 101.049C40.4139 101.124 40.3552 101.187 40.2832 101.23C40.2112 101.274 40.1286 101.297 40.0445 101.297V101.297Z" fill="#371A45"/>
<path d="M76.3171 101.297C76.2329 101.297 76.1503 101.274 76.0783 101.23C76.0063 101.186 75.9476 101.123 75.9087 101.048C73.5846 96.5899 73.5441 91.3882 75.7876 86.0051C77.4715 81.9674 79.8067 79.2863 79.9052 79.1744C79.9447 79.1271 79.9932 79.0882 80.0479 79.06C80.1026 79.0318 80.1623 79.0149 80.2236 79.0102C80.2849 79.0056 80.3465 79.0133 80.4048 79.0329C80.4631 79.0525 80.5169 79.0836 80.563 79.1245C80.6092 79.1653 80.6467 79.2149 80.6734 79.2705C80.7001 79.3261 80.7155 79.3865 80.7186 79.4482C80.7217 79.5098 80.7124 79.5715 80.6915 79.6295C80.6705 79.6875 80.6381 79.7407 80.5963 79.786C80.573 79.8122 78.2504 82.484 76.6274 86.3868C74.4724 91.5709 74.5054 96.3593 76.7252 100.619C76.7619 100.689 76.7799 100.768 76.7774 100.848C76.7749 100.927 76.7521 101.005 76.7111 101.073C76.6701 101.141 76.6123 101.197 76.5433 101.237C76.4743 101.276 76.3964 101.296 76.3171 101.296V101.297Z" fill="#371A45"/>
<g opacity="0.35">
<path opacity="0.35" d="M49.3411 80.2599C49.3411 80.6196 49.254 80.9664 49.1533 81.3114L49.3092 80.4351L49.3411 80.2599Z" fill="#371A45"/>
</g>
<path d="M30.925 83.9615C31.1461 84.5331 31.2858 85.1062 31.4051 85.6926C31.518 86.2791 31.5999 86.8712 31.6505 87.4664C31.7057 88.0618 31.7283 88.6614 31.7261 89.26C31.7207 89.8597 31.6701 90.4581 31.5749 91.0501C31.5716 91.0686 31.562 91.0854 31.5476 91.0974C31.5332 91.1095 31.5151 91.1161 31.4963 91.1161C31.4776 91.1161 31.4594 91.1095 31.445 91.0974C31.4307 91.0854 31.421 91.0686 31.4177 91.0501V91.0501C31.3073 90.4673 31.1998 89.8953 31.0727 89.3269C30.9455 88.7586 30.8125 88.1952 30.6703 87.634C30.5281 87.0729 30.3733 86.5156 30.2375 85.9548C30.1017 85.394 29.9627 84.8296 29.8664 84.272L29.8638 84.2583C29.84 84.1223 29.8675 83.9823 29.9408 83.8655C30.0142 83.7487 30.1282 83.6635 30.2607 83.6265C30.3932 83.5895 30.5346 83.6034 30.6575 83.6654C30.7804 83.7274 30.8759 83.8331 30.9254 83.9619L30.925 83.9615Z" fill="#371A45"/>
<path d="M86.4003 84.2715C86.3036 84.8291 86.1653 85.3961 86.0288 85.9544C85.8923 86.5127 85.7375 87.0721 85.596 87.6336C85.4545 88.1952 85.3209 88.7585 85.1937 89.3265C85.0665 89.8945 84.9594 90.4669 84.849 91.0497C84.8457 91.0682 84.836 91.0849 84.8216 91.097C84.8073 91.1091 84.7891 91.1157 84.7704 91.1157C84.7516 91.1157 84.7335 91.1091 84.7191 91.097C84.7047 91.0849 84.695 91.0682 84.6917 91.0497C84.5963 90.4577 84.5456 89.8593 84.5402 89.2596C84.538 88.661 84.5606 88.0613 84.6158 87.466C84.6664 86.8708 84.7484 86.2787 84.8612 85.6921C84.9805 85.1058 85.1206 84.5327 85.3416 83.9611C85.3912 83.8324 85.4867 83.7268 85.6095 83.6648C85.7323 83.6029 85.8736 83.5891 86.0061 83.626C86.1385 83.6629 86.2525 83.748 86.3259 83.8646C86.3993 83.9813 86.4268 84.1212 86.4032 84.2571L86.4003 84.2715Z" fill="#371A45"/>
<path d="M19.8262 53.0796C19.8262 53.0796 20.192 66.9866 31.3926 68.9216C34.6027 69.4763 37.0404 68.4788 38.7132 67.2812C40.5515 65.9689 41.4654 64.4163 41.4654 64.4163L43.4048 57.3216L45.4734 49.7474C44.4106 50.6994 43.2723 51.563 42.0699 52.3296C41.1441 52.9192 40.0943 53.4966 39.0045 53.9275C35.4662 55.3229 31.5137 55.1506 30.0624 48.6876L19.8262 53.0796Z" fill="white"/>
<g opacity="0.35">
<path opacity="0.35" d="M31.3926 68.922C38.1281 70.0861 41.4647 64.4164 41.4647 64.4164C41.6797 63.5814 40.7152 62.9415 40.0417 63.4775C38.3682 64.8085 35.7865 66.0478 32.2883 65.443C24.3759 64.0761 20.1741 55.9561 28.2542 52.2231L19.8262 53.0793C19.8262 53.0793 20.1916 66.987 31.3926 68.922Z" fill="#371A45"/>
</g>
<path d="M45.6129 49.8989C44.6098 51.3331 43.2329 52.3811 41.7716 53.2872C41.0298 53.7379 40.2515 54.1249 39.4449 54.4441C38.6309 54.7596 37.7843 55.0258 36.8933 55.1571C36.0073 55.2938 35.0643 55.296 34.1518 55.0435C33.2389 54.7985 32.3963 54.2772 31.7496 53.6045C31.4276 53.2747 31.1422 52.9108 30.8984 52.5192C30.7705 52.3296 30.668 52.1292 30.5555 51.9332C30.4584 51.7314 30.3498 51.5332 30.266 51.3274C29.9077 50.5115 29.653 49.6687 29.462 48.8215L30.3029 49.2532L20.0664 53.647L20.439 53.0635C20.4511 53.3714 20.4802 53.7157 20.5146 54.0437C20.549 54.3718 20.5927 54.7082 20.6425 55.0395C20.7423 55.7026 20.8701 56.3606 21.0258 57.0134C21.3305 58.315 21.7586 59.5845 22.3041 60.8042C22.8616 62.0083 23.5273 63.1648 24.3678 64.1728C25.2018 65.1829 26.1763 66.0736 27.287 66.751C28.4041 67.4274 29.6254 67.9128 30.9009 68.1874C32.176 68.4849 33.4783 68.5497 34.7412 68.3256C35.3715 68.2128 35.9873 68.0295 36.577 67.7791C37.1681 67.5302 37.7206 67.1935 38.239 66.8143C39.2862 66.0589 40.1991 65.1642 41.2882 64.3124L41.3033 64.3009C41.3479 64.2663 41.4042 64.2507 41.4602 64.2574C41.5162 64.2642 41.5672 64.2927 41.6024 64.3368C41.6222 64.3626 41.6359 64.3925 41.6426 64.4244C41.6492 64.4562 41.6486 64.4891 41.6408 64.5207C41.4552 65.2606 41.0675 65.8826 40.6075 66.4431C40.137 67 39.5909 67.4879 38.9853 67.8925C37.7618 68.6806 36.4 69.2854 34.9561 69.5393C33.5123 69.7933 32.028 69.7163 30.6365 69.3915C29.2274 69.0873 27.8784 68.5502 26.6446 67.8022C25.4107 67.0492 24.3309 66.0618 23.4184 64.9559C22.4987 63.8505 21.781 62.6026 21.1856 61.3147C20.6071 60.0227 20.1532 58.678 19.8303 57.299C19.6676 56.6126 19.5332 55.9206 19.4272 55.223C19.3749 54.874 19.3283 54.524 19.2921 54.1718C19.2559 53.8196 19.2251 53.4746 19.2104 53.0951C19.2056 52.9727 19.2378 52.8518 19.3028 52.7482C19.3679 52.6445 19.4627 52.5632 19.5748 52.5149L19.583 52.5113L29.8185 48.1189C29.9683 48.0545 30.1374 48.0525 30.2887 48.1132C30.4399 48.1739 30.561 48.2924 30.6254 48.4427C30.6403 48.4776 30.6522 48.5137 30.6612 48.5506C30.8403 49.3388 31.0736 50.1083 31.3895 50.827C31.4634 51.0101 31.5579 51.1795 31.6403 51.3558C31.7371 51.5224 31.8245 51.6965 31.932 51.8537C32.1305 52.1743 32.3635 52.4722 32.6267 52.7419C33.1319 53.2726 33.7707 53.6563 34.4753 53.8524C35.1779 54.0466 35.9443 54.0563 36.7045 53.934C37.4796 53.7982 38.2353 53.568 38.9548 53.2484C39.6864 52.9297 40.3987 52.5494 41.1009 52.1451C41.4534 51.9447 41.8006 51.7332 42.1492 51.5209L43.1882 50.8659C43.8839 50.4309 44.5904 49.9946 45.3342 49.5956L45.3428 49.5913C45.3844 49.5693 45.4321 49.5619 45.4783 49.5704C45.5246 49.5788 45.5666 49.6027 45.5977 49.638C45.6289 49.6734 45.6473 49.7182 45.6499 49.7653C45.6526 49.8124 45.6395 49.8591 45.6126 49.8978L45.6129 49.8989Z" fill="#371A45"/>
<path d="M29.2859 68.5631C28.9369 68.5613 28.5889 68.5252 28.2469 68.4551C28.1298 68.4285 28.0276 68.357 27.9622 68.2559C27.8967 68.1547 27.8731 68.032 27.8965 67.9136C27.9198 67.7953 27.9882 67.6908 28.0871 67.6224C28.186 67.554 28.3076 67.527 28.4261 67.5472C29.6213 67.786 30.5757 67.554 31.3413 66.8381C34.445 63.9387 33.2989 54.4053 33.2871 54.3093C33.2796 54.249 33.2839 54.1878 33.3 54.1292C33.316 54.0706 33.3434 54.0157 33.3805 53.9677C33.4177 53.9197 33.4638 53.8796 33.5165 53.8495C33.5691 53.8195 33.627 53.8001 33.6871 53.7925C33.8084 53.7773 33.9308 53.811 34.0273 53.8863C34.1238 53.9617 34.1866 54.0724 34.2018 54.1942C34.253 54.6054 35.4167 64.2941 31.9697 67.5155C31.2242 68.2123 30.3245 68.5631 29.2859 68.5631Z" fill="#371A45"/>
<path d="M32.0037 48.2791C30.6552 55.2327 23.714 54.8982 21.7905 54.5176C17.7778 53.7229 16.252 50.0277 16.252 50.0277L19.2661 45.639L20.5885 43.2769L22.2663 42.6884C23.4948 40.1843 26.2187 37.2856 27.8958 38.1917C27.8958 38.1899 33.1667 42.2848 32.0037 48.2791Z" fill="white"/>
<g opacity="0.35">
<path opacity="0.35" d="M15.5655 47.8326C15.6597 49.9763 18.542 51.7976 24.5316 50.826C26.6414 50.4835 28.321 48.9165 28.2268 46.7728C28.2044 46.2631 28.0823 45.7627 27.8673 45.3003C27.6523 44.838 27.3487 44.4227 26.9739 44.0781C26.599 43.7336 26.1602 43.4666 25.6826 43.2923C25.205 43.118 24.6978 43.04 24.1901 43.0625C22.0552 43.1589 15.4712 45.6889 15.5655 47.8326Z" fill="#371A45"/>
</g>
<path d="M15.4729 40.8855C17.1238 42.4086 18.559 43.5212 18.559 43.5212L23.1958 47.8827L25.8667 40.4092C25.8667 40.4092 25.819 38.9267 25.6181 36.9708C25.224 33.0979 24.233 27.3709 21.8501 27.6256C17.5641 28.0843 20.9075 39.3228 20.9075 39.3228C20.9075 39.3228 13.6428 30.4427 11.0092 33.1731C9.46822 34.7711 12.7615 38.3821 15.4729 40.8855Z" fill="white"/>
<g opacity="0.35">
<path opacity="0.35" d="M15.4727 40.8853C17.1236 42.4085 18.5588 43.5211 18.5588 43.5211L23.1956 47.8825L25.8665 40.4091C25.8665 40.4091 25.8188 38.9266 25.6178 36.9707C24.5072 37.9359 22.4292 39.6907 21.722 40.7119C20.5024 42.4725 17.1927 40.472 15.4727 40.8853Z" fill="#371A45"/>
</g>
<path d="M23.1958 48.5006C23.0397 48.5005 22.8894 48.4408 22.7755 48.3336L18.1595 43.9909C17.2445 43.2794 10.2475 37.7351 10.0067 34.382C9.96048 33.7388 10.1543 33.1726 10.5667 32.7445C11.0414 32.2524 11.6716 32.0082 12.4003 32.0376C14.6965 32.1319 17.7844 34.9936 19.6904 37.0175C19.1068 34.3195 18.5271 30.1937 19.8488 28.1996C20.3063 27.5093 20.9756 27.0985 21.7835 27.0125C22.3667 26.9492 22.9299 27.142 23.4186 27.5676C26.0616 29.876 26.4449 39.319 26.4797 40.3882C26.4822 40.4659 26.47 40.5434 26.4439 40.6166L23.7733 48.0919C23.7305 48.2116 23.652 48.3151 23.5484 48.3883C23.4449 48.4615 23.3213 48.5008 23.1947 48.5009L23.1958 48.5006ZM12.2781 33.2694C11.9331 33.2694 11.6691 33.3773 11.4498 33.6032C11.3423 33.7137 11.2048 33.9054 11.2327 34.2932C11.405 36.6955 16.8504 41.4159 18.9356 43.0322C18.9511 43.0442 18.9661 43.0569 18.9803 43.0704L22.9324 46.7922L25.2472 40.3126C25.1426 37.4664 24.4838 30.1343 22.6118 28.4997C22.3065 28.2331 22.0665 28.2245 21.9139 28.2407C21.4617 28.2889 21.1303 28.4925 20.8713 28.8846C19.4955 30.9606 20.8555 36.9977 21.4958 39.1485C21.5366 39.2851 21.529 39.4317 21.4743 39.5633C21.4196 39.6949 21.3213 39.8034 21.1959 39.8704C21.0705 39.9374 20.9259 39.9587 20.7866 39.9307C20.6474 39.9027 20.5221 39.8272 20.4321 39.7169C18.9914 37.9574 14.7319 33.3694 12.3491 33.2723C12.3276 33.2697 12.3018 33.2694 12.2781 33.2694V33.2694Z" fill="#371A45"/>
<path d="M15.4062 49.2689C16.534 50.9406 21.0386 51.5449 22.6404 50.1797C24.0019 49.0174 22.533 47.6785 22.1152 47.34C22.0504 47.286 22.0102 47.2583 22.0102 47.2583C22.0102 47.2583 23.7041 46.654 23.9406 45.1884C23.9564 45.0901 23.965 44.9908 23.9664 44.8913C23.9979 43.2113 19.4787 41.9626 17.4699 42.3792C15.9683 42.6908 15.4184 43.3347 15.3052 44.0027C15.1844 44.7139 15.5585 45.4521 15.8042 45.8453C15.8655 45.9436 15.9316 46.0388 16.0024 46.1305C16.0024 46.1305 14.5016 47.9306 15.4062 49.2689Z" fill="white"/>
<g opacity="0.35">
<path opacity="0.35" d="M15.8026 45.8453C17.0243 46.4069 19.466 47.3458 22.1136 47.34C22.0488 47.2861 22.0086 47.2584 22.0086 47.2584C22.0086 47.2584 23.7025 46.654 23.939 45.1885C22.3694 45.6072 18.0211 46.4648 15.3046 44.0013C15.1839 44.714 15.5579 45.4522 15.8026 45.8453Z" fill="#371A45"/>
</g>
<g opacity="0.35">
<path opacity="0.35" d="M15.406 49.269C16.5338 50.9407 21.0384 51.545 22.6402 50.1798C23.3106 49.6089 23.2952 48.996 23.0576 48.479C22.9787 48.5737 22.8918 48.6615 22.7979 48.7413C21.1978 50.1083 16.6933 49.5021 15.5654 47.8326C15.4536 47.6689 15.3727 47.486 15.3268 47.293C15.0897 47.8948 14.9789 48.6333 15.406 49.269Z" fill="#371A45"/>
</g>
<path d="M19.9199 51.4881C19.5139 51.4872 19.1083 51.4587 18.7061 51.4029C16.9635 51.1647 15.559 50.4834 14.9492 49.5808C14.0829 48.2991 14.8797 46.7893 15.3269 46.1209C14.998 45.5888 14.4982 44.5463 14.8532 43.556C15.1617 42.6955 16.0044 42.117 17.3576 41.8364C18.9744 41.5015 22.2172 42.1494 23.6972 43.3833C24.3879 43.9589 24.5241 44.5276 24.5169 44.9025C24.4925 46.1702 23.6381 46.9602 22.972 47.3846C23.3389 47.7857 23.7291 48.3635 23.757 49.0283C23.7742 49.4359 23.656 50.0395 22.9964 50.6014C22.3211 51.178 21.2161 51.4881 19.9199 51.4881ZM17.5808 42.9211C16.9276 43.0567 16.1043 43.3412 15.8922 43.9283C15.6536 44.5877 16.2025 45.4924 16.4339 45.7856C16.513 45.8857 16.5553 46.01 16.5537 46.1377C16.5522 46.2654 16.5068 46.3887 16.4253 46.4867C16.4142 46.5008 15.2036 47.9843 15.8621 48.9585C16.286 49.5859 17.4607 50.1143 18.8548 50.305C20.3133 50.5046 21.6583 50.2895 22.2827 49.7575C22.6686 49.4287 22.6582 49.1639 22.655 49.0772C22.6328 48.5146 21.9323 47.8847 21.6876 47.7102C21.6061 47.6511 21.5422 47.5708 21.5028 47.4779C21.4634 47.385 21.4501 47.2831 21.4642 47.1831C21.4782 47.0831 21.5192 46.9889 21.5828 46.9106C21.6463 46.8324 21.7298 46.773 21.8245 46.7389C21.8381 46.7339 23.388 46.1543 23.4127 44.8838C23.4174 44.6453 23.1859 44.401 22.991 44.2362C21.7862 43.2311 18.9211 42.6433 17.5811 42.9214L17.5808 42.9211Z" fill="#371A45"/>
<path d="M21.0083 47.7715C18.1307 47.7715 15.8915 46.5948 15.7869 46.539C15.6792 46.4815 15.5987 46.3835 15.5631 46.2664C15.5274 46.1493 15.5395 46.0228 15.5968 45.9147C15.654 45.8066 15.7517 45.7258 15.8683 45.69C15.9849 45.6542 16.1109 45.6664 16.2186 45.7238C16.2544 45.7433 18.8906 47.1175 21.9628 46.7995C22.084 46.7869 22.2053 46.8233 22.2999 46.9005C22.3945 46.9777 22.4547 47.0896 22.4672 47.2113C22.4797 47.3331 22.4435 47.4549 22.3666 47.5499C22.2896 47.6449 22.1783 47.7053 22.057 47.7179C21.7086 47.7538 21.3586 47.7717 21.0083 47.7715V47.7715Z" fill="#371A45"/>
<path d="M27.8959 38.1907C25.6696 36.9877 21.6032 42.4838 21.629 44.8681C21.6487 46.688 23.8589 48.1093 26.3192 45.6768C28.8117 43.2122 31.3923 40.0789 27.8959 38.1907Z" fill="white"/>
<path d="M16.252 50.0299C16.252 50.0299 17.7796 53.7237 21.7898 54.5183C23.7137 54.8997 30.6556 55.2342 32.0045 48.2795C33.1671 42.2859 27.8958 38.1918 27.8958 38.1918C25.6695 36.9888 21.6031 42.4849 21.6289 44.8692C21.6486 46.6891 24.384 47.6006 26.4964 44.3026C26.4964 44.3026 25.4373 47.26 28.0588 49.1299L22.2387 52.8485L17.6836 52.165L16.252 50.0299Z" fill="white"/>
<path d="M26.8178 47.7894L26.9335 47.7173C26.8407 47.6505 26.7543 47.5856 26.6748 47.5164C26.7178 47.6051 26.7658 47.6974 26.8178 47.7894Z" fill="white"/>
<g opacity="0.35">
<path opacity="0.35" d="M26.3789 43.7669C26.6447 42.5798 23.4174 45.7167 21.6357 45.026C21.7844 46.498 23.7578 47.2693 25.6126 45.4166C25.6849 44.4662 26.3789 43.7669 26.3789 43.7669Z" fill="#371A45"/>
</g>
<g opacity="0.35">
<path opacity="0.35" d="M18.4515 52.2774L17.6826 52.1623C18.569 53.1311 19.9064 54.1441 21.7895 54.5175C23.7145 54.8992 30.656 55.2323 32.0042 48.2783C32.7956 44.2 30.6069 40.9987 29.1265 39.3719C30.3511 41.1534 31.4833 43.7542 30.8799 46.8652C29.5314 53.8196 22.5899 53.4843 20.6652 53.1048C19.8874 52.9517 19.1397 52.6722 18.4515 52.2774V52.2774Z" fill="#371A45"/>
</g>
<path d="M16.2539 50.0316C16.3657 50.2831 16.4938 50.527 16.6376 50.7615L16.7555 50.7799L16.2539 50.0316Z" fill="white"/>
<path d="M16.5586 50.7493C16.6245 50.8214 16.6922 50.8936 16.7635 50.9657C16.7195 50.8936 16.6772 50.8261 16.6374 50.7608L16.5586 50.7493Z" fill="white"/>
<path d="M29.1721 52.8231C29.5397 52.1814 29.9001 51.6526 30.2286 51.0935C30.5528 50.5323 30.8285 49.9441 31.0527 49.3355C31.2839 48.7154 31.4368 48.0686 31.5077 47.4102C31.5762 46.7542 31.5663 46.0922 31.4783 45.4385C31.3885 44.7818 31.2267 44.1371 30.996 43.5161C30.7597 42.8905 30.4658 42.2883 30.1183 41.7174C29.7675 41.1415 29.3706 40.5952 28.9317 40.0839C28.7124 39.8274 28.4838 39.5802 28.2456 39.341C28.1259 39.2226 28.0055 39.1054 27.8823 38.9935C27.7591 38.8816 27.6276 38.7661 27.519 38.6791L27.6036 38.7345C27.4312 38.6446 27.2313 38.6197 26.9866 38.6625C26.7419 38.7054 26.4779 38.8154 26.2185 38.9633C25.9494 39.1192 25.6952 39.2999 25.4593 39.5029C25.2115 39.7115 24.9767 39.9353 24.7564 40.1731C23.8632 41.1292 23.0958 42.2674 22.5931 43.4582C22.4726 43.7455 22.3767 44.0426 22.3065 44.3464C22.275 44.483 22.2555 44.6221 22.2481 44.7622C22.2383 44.8783 22.2474 44.9951 22.275 45.1083C22.3242 45.3186 22.4423 45.5062 22.6103 45.641C22.7918 45.7818 23.0104 45.8658 23.2391 45.8828C23.7256 45.931 24.2781 45.7187 24.7467 45.3594C25.2243 45.0029 25.632 44.5079 25.9817 43.9694C26.063 43.8439 26.1869 43.7524 26.3303 43.7119C26.4738 43.6713 26.627 43.6844 26.7615 43.7488C26.896 43.8132 27.0027 43.9245 27.0616 44.0619C27.1206 44.1994 27.1278 44.3536 27.0819 44.496L27.0766 44.5118C27.0579 44.5701 27.0275 44.6787 27.0078 44.769C26.9881 44.8593 26.9676 44.9611 26.9533 45.0597C26.9239 45.2558 26.9069 45.4536 26.9024 45.6518C26.8909 46.0413 26.9558 46.4293 27.0934 46.7936C27.1507 46.9757 27.2421 47.1404 27.3134 47.3142C27.4065 47.4768 27.4764 47.6538 27.5817 47.8156C27.6673 47.9908 27.7795 48.1523 27.8744 48.3434C27.9178 48.4427 27.9783 48.5308 28.0313 48.6312C28.0878 48.7384 28.1372 48.8491 28.1793 48.9628L28.1911 48.9988C28.2109 49.0561 28.2073 49.1188 28.181 49.1734C28.1548 49.228 28.108 49.2698 28.051 49.2898C28.0165 49.3017 27.9797 49.3053 27.9436 49.3003C27.4243 49.2186 26.9498 48.9572 26.6022 48.5614C26.4155 48.3747 26.2758 48.1473 26.1415 47.9185C26.0813 47.8005 26.0304 47.6775 25.981 47.5545C25.9299 47.4324 25.8897 47.3062 25.8606 47.1771C25.7322 46.6736 25.6698 46.1554 25.675 45.6356C25.68 45.3803 25.7018 45.1255 25.7402 44.873C25.7588 44.7471 25.7821 44.6212 25.8118 44.4953C25.8418 44.3606 25.8786 44.2276 25.9222 44.0967L27.0174 44.6392C26.6094 45.2658 26.1246 45.8691 25.4855 46.3494C25.16 46.599 24.7989 46.7978 24.4142 46.939C24.0173 47.0778 23.5791 47.1588 23.127 47.1134C22.6586 47.0741 22.2121 46.8975 21.8429 46.6055C21.4639 46.2995 21.197 45.8757 21.0841 45.4007C21.0296 45.1744 21.0094 44.941 21.0243 44.7086C21.0346 44.5003 21.0629 44.2933 21.1088 44.0899C21.1943 43.7137 21.312 43.3456 21.4606 42.9898C21.7487 42.3107 22.0998 41.6603 22.5093 41.0472C22.9132 40.4365 23.3676 39.861 23.8679 39.327C24.1214 39.0548 24.3914 38.7984 24.6761 38.5593C24.9684 38.3089 25.2828 38.0859 25.6155 37.8931C25.9598 37.6988 26.3396 37.5283 26.7824 37.4488C26.8952 37.4269 27.0097 37.4149 27.1246 37.4128C27.2442 37.4069 27.3641 37.4119 27.4828 37.4279C27.6032 37.4351 27.725 37.4776 27.845 37.506C27.9629 37.5475 28.0783 37.5955 28.1908 37.6499C28.2139 37.6601 28.2355 37.6733 28.2553 37.6891L28.2757 37.7053C28.4426 37.8387 28.5734 37.9546 28.7142 38.083C28.855 38.2114 28.9851 38.3377 29.1169 38.4679C29.3796 38.7293 29.6304 39.0007 29.8693 39.282C30.3517 39.8439 30.7876 40.4444 31.1727 41.0774C31.5609 41.7154 31.889 42.3884 32.1525 43.0876C32.4151 43.7947 32.5992 44.5287 32.7014 45.2763C32.8025 46.0277 32.8138 46.7885 32.7351 47.5426C32.652 48.298 32.5201 49.0326 32.2937 49.76C32.1805 50.1253 32.0389 50.4811 31.8702 50.8241C31.6957 51.1679 31.4905 51.4952 31.2572 51.8019C31.0263 52.1114 30.7533 52.3869 30.4461 52.6203C30.1394 52.8523 29.8012 53.0444 29.4261 53.1534C29.3839 53.1654 29.339 53.1645 29.2973 53.1508C29.2556 53.1371 29.219 53.1112 29.192 53.0764C29.1651 53.0416 29.1491 52.9995 29.1461 52.9556C29.1431 52.9116 29.1533 52.8677 29.1753 52.8296L29.1721 52.8231Z" fill="#371A45"/>
<path d="M16.762 49.8162C16.8082 49.9194 16.8756 50.0583 16.9412 50.1795C17.0067 50.3007 17.0816 50.4292 17.1561 50.5522C17.2306 50.6752 17.3141 50.7936 17.3926 50.9152L17.6487 51.2648C18.0017 51.7216 18.4041 52.1376 18.8486 52.5052C19.0636 52.6959 19.3029 52.8531 19.5404 53.011C19.7944 53.1412 20.042 53.2811 20.2996 53.3963C20.7969 53.6776 21.3028 53.9028 21.8258 54.3359L21.8387 54.3467C21.8677 54.3707 21.8893 54.4023 21.9012 54.4381C21.9131 54.4738 21.9148 54.5122 21.906 54.5488C21.8972 54.5855 21.8784 54.6189 21.8516 54.6453C21.8248 54.6717 21.7912 54.69 21.7545 54.6981C21.0817 54.8478 20.3931 54.7442 19.7916 54.4607C19.19 54.1772 18.6573 53.7686 18.1435 53.3581C17.6374 52.939 17.1793 52.4647 16.7774 51.944L16.4872 51.5483C16.3977 51.4109 16.3034 51.2767 16.2185 51.136C16.1336 50.9954 16.0483 50.8544 15.9706 50.7076C15.8929 50.5608 15.8198 50.4198 15.7409 50.2399C15.7115 50.1735 15.6954 50.1019 15.6935 50.0292C15.6917 49.9565 15.7041 49.8841 15.7301 49.8163C15.7561 49.7484 15.7951 49.6863 15.845 49.6336C15.8948 49.5809 15.9546 49.5385 16.0208 49.509C16.0869 49.4794 16.1583 49.4632 16.2307 49.4614C16.303 49.4595 16.3751 49.472 16.4427 49.498C16.5103 49.5241 16.5721 49.5633 16.6246 49.6134C16.6772 49.6635 16.7193 49.7235 16.7488 49.7899L16.762 49.8162Z" fill="#371A45"/>
<g opacity="0.35">
<path opacity="0.35" d="M78.9907 53.5347C78.1965 54.1877 77.366 54.7949 76.5033 55.3535C70.8774 58.9893 64.1063 60.3954 57.5057 59.2984C50.905 58.2014 44.9462 54.6798 40.7871 49.4179C42.2643 48.1988 44.1172 47.5326 46.0293 47.5328H46.206C46.3765 47.2182 46.5491 46.9045 46.7237 46.5918C47.6165 44.9967 48.5967 43.4165 49.6644 41.8512H71.519C72.5476 43.9158 73.4652 46.0343 74.2676 48.1976C75.3966 48.6849 76.4049 49.4156 77.2212 50.338C78.0374 51.2603 78.6415 52.3517 78.9907 53.5347V53.5347Z" fill="#371A45"/>
</g>
<path d="M61.9072 56.7774C76.8021 56.7774 88.8768 44.6534 88.8768 29.6977C88.8768 14.7419 76.8021 2.61792 61.9072 2.61792C47.0122 2.61792 34.9375 14.7419 34.9375 29.6977C34.9375 44.6534 47.0122 56.7774 61.9072 56.7774Z" fill="white"/>
<path d="M61.9254 56.889C61.3012 56.889 60.675 56.8677 60.043 56.8238C45.1464 55.7918 33.8633 42.7834 34.8923 27.8263C35.9212 12.8693 48.8792 1.53906 63.7719 2.57294C78.6645 3.60682 89.9519 16.613 88.9226 31.5704C87.9384 45.8929 76.0151 56.889 61.9254 56.889ZM61.8895 2.72798C47.9137 2.72798 36.0889 13.6344 35.1126 27.8414C34.0933 42.6769 45.2843 55.5792 60.0595 56.6026C60.6853 56.6463 61.3076 56.6678 61.9264 56.6674C75.9026 56.6674 87.7277 45.7609 88.7037 31.5539C89.723 16.7184 78.532 3.81618 63.7568 2.79274C63.1301 2.74957 62.5072 2.72798 61.8881 2.72798H61.8895Z" fill="#371A45"/>
<g opacity="0.35">
<path opacity="0.35" d="M88.8118 27.8041C88.899 29.0551 88.899 30.3108 88.8118 31.5618C87.7846 46.4815 74.9083 57.7419 60.049 56.7142C45.1897 55.6864 33.9768 42.7539 35.0004 27.8343C35.0294 27.4051 35.0692 26.9763 35.1186 26.5551C36.029 39.8314 46.5712 50.735 60.1672 51.6775C74.5991 52.6758 87.1584 42.0834 88.8118 27.8041Z" fill="#371A45"/>
</g>
<path d="M61.9263 57.3954C61.2904 57.3954 60.6527 57.3735 60.0089 57.3289C44.835 56.2777 33.3416 43.0272 34.3885 27.7914C35.4353 12.5555 48.6287 1.01596 63.8058 2.06639C78.9829 3.11682 90.4731 16.368 89.428 31.6039C88.4248 46.1933 76.2794 57.3954 61.9263 57.3954ZM61.8905 3.23409C48.1769 3.23409 36.5743 13.9358 35.6163 27.8759C34.616 42.433 45.597 55.0927 60.0948 56.0971C60.7089 56.1398 61.3195 56.161 61.9267 56.1608C75.6406 56.1608 87.2436 45.4591 88.2013 31.519C89.2016 16.9619 78.2205 4.30214 63.7227 3.29776C63.1077 3.25531 62.4965 3.23409 61.8891 3.23409H61.8905Z" fill="#371A45"/>
<path d="M88.6787 32.2492C88.3953 37.5409 86.4216 42.361 83.2777 46.2673C80.9207 49.1959 71.6185 54.0419 60.4791 53.5404C50.1505 53.0757 41.0539 47.0415 39.024 43.8754C36.3162 39.6529 34.868 34.6479 35.1525 29.3565C35.9049 15.3535 48.1957 10.1963 62.9773 10.9953C77.7589 11.7943 89.4296 18.2465 88.6787 32.2492Z" fill="#371A45"/>
<path d="M62.1378 54.1949C61.5817 54.1949 61.0197 54.1829 60.4517 54.1589C49.7795 53.6787 40.6303 47.5229 38.5072 44.2115C35.6296 39.7238 34.2574 34.5764 34.539 29.325C34.9055 22.4871 37.9186 17.3627 43.4936 14.0942C48.3661 11.2382 55.1145 9.95434 63.0109 10.381C70.9072 10.8076 77.4797 12.8117 82.0179 16.1763C87.2129 20.0255 89.6595 25.4463 89.293 32.2845C89.0114 37.5367 87.0964 42.5057 83.7559 46.657C81.5522 49.3939 73.0998 54.1949 62.1378 54.1949ZM60.0895 11.5329C53.6675 11.5329 48.1859 12.7707 44.1134 15.1583C38.9185 18.2041 36.1093 22.9922 35.7657 29.3897C35.4981 34.38 36.8047 39.2738 39.5401 43.5417C41.4844 46.5743 50.3993 52.4693 60.5058 52.9243C71.7083 53.4301 80.688 48.5032 82.7993 45.8796C85.9765 41.9315 87.7972 37.2068 88.0659 32.2162C88.4088 25.819 86.1287 20.7557 81.2881 17.1674C76.9437 13.9463 70.6009 12.0253 62.9446 11.6116C61.9739 11.5591 61.0222 11.5329 60.0895 11.5329Z" fill="#371A45"/>
<g opacity="0.7">
<path opacity="0.7" d="M83.4452 30.6767C84.0539 28.1014 83.0408 25.6548 81.1823 25.212C79.3239 24.7692 77.324 26.4978 76.7153 29.0731C76.1067 31.6483 77.1198 34.0949 78.9782 34.5378C80.8366 34.9806 82.8366 33.2519 83.4452 30.6767Z" fill="white"/>
</g>
<g opacity="0.7">
<path opacity="0.7" d="M77.0916 39.8076C77.5309 38.6756 77.1028 37.4511 76.1355 37.0726C75.1681 36.6941 74.0278 37.3049 73.5884 38.4369C73.1491 39.5689 73.5772 40.7934 74.5445 41.1719C75.5119 41.5504 76.6522 40.9396 77.0916 39.8076Z" fill="white"/>
</g>
<g opacity="0.35">
<path opacity="0.35" d="M84.174 18.9048C87.2778 22.2143 88.9795 26.6243 88.679 32.2484C88.3952 37.5408 86.4218 42.3606 83.2787 46.2673C80.9213 49.1959 71.6177 54.0415 60.4786 53.5415C56.5455 53.3656 52.7923 52.3806 49.5381 51.0525C63.2438 51.3763 74.5784 45.4223 77.5009 41.79C81.4909 36.8322 83.9963 30.7134 84.3553 23.999C84.4526 22.299 84.3919 20.5935 84.174 18.9048Z" fill="#3B3943"/>
</g>
<path d="M87.0356 20.4625C86.8883 20.4628 86.7458 20.4095 86.6347 20.3125C86.6271 20.3064 86.6164 20.2963 86.6092 20.2895C86.5727 20.2547 86.5405 20.2156 86.5136 20.1729C82.3067 13.5207 73.7164 9.37151 62.9457 8.7891C52.1159 8.20345 43.1333 11.5231 38.3016 17.8951C38.2915 17.9087 38.2808 17.9218 38.2694 17.9343C38.2622 17.9422 38.2514 17.9537 38.2439 17.9613C38.1322 18.0738 37.9815 18.1387 37.8233 18.1425C37.665 18.1462 37.5115 18.0885 37.3946 17.9814C37.2777 17.8742 37.2064 17.726 37.1957 17.5674C37.185 17.4088 37.2357 17.2523 37.3371 17.1303C42.4207 10.4392 51.7755 6.94978 63.0116 7.55701C74.1679 8.16029 83.1025 12.5059 87.5321 19.4808C87.5992 19.5728 87.6395 19.6817 87.6487 19.7954C87.6578 19.9091 87.6355 20.023 87.584 20.1247C87.5326 20.2264 87.4541 20.3118 87.3573 20.3714C87.2605 20.431 87.1491 20.4626 87.0356 20.4625V20.4625ZM37.8011 17.5166L37.8097 17.5249L37.8011 17.5166Z" fill="#371A45"/>
<g opacity="0.7">
<path opacity="0.7" d="M40.7162 38.0115C40.7162 38.0115 37.1375 23.9642 44.8468 18.8603C52.5561 13.7564 63.2225 14.355 62.9363 15.0277C62.9363 15.0277 50.9729 17.2602 45.8496 26.3845C41.8989 33.4213 40.7162 38.0115 40.7162 38.0115Z" fill="white"/>
</g>
<path d="M61.2944 60.9536C54.2289 60.9536 46.9044 57.3005 40.1126 50.3896C35.0158 45.2033 31.9558 39.9375 31.9257 39.8853C31.8458 39.7438 31.8247 39.5764 31.8671 39.4194C31.9095 39.2623 32.012 39.1285 32.1522 39.047C32.2924 38.9654 32.459 38.9428 32.6157 38.984C32.7725 39.0252 32.9067 39.1269 32.9891 39.2669C33.0188 39.3184 36.0144 44.468 41.0076 49.5435C45.5748 54.1841 52.8019 59.7197 61.2944 59.7197C69.7962 59.7197 77.3593 54.1798 82.2071 49.5291C87.5041 44.4493 90.8056 39.2957 90.8386 39.2443C90.9263 39.1064 91.065 39.0091 91.2241 38.9738C91.3832 38.9386 91.5498 38.9683 91.6871 39.0563C91.8245 39.1444 91.9214 39.2836 91.9565 39.4434C91.9916 39.6032 91.9621 39.7704 91.8743 39.9084C91.841 39.9609 88.4736 45.2209 83.0759 50.4025C75.8847 57.3051 68.3527 60.9536 61.2944 60.9536Z" fill="#371A45"/>
<path d="M61.8536 60.3367H60.7355C60.4005 60.3367 60.1289 60.6093 60.1289 60.9457V65.446C60.1289 65.7823 60.4005 66.055 60.7355 66.055H61.8536C62.1886 66.055 62.4602 65.7823 62.4602 65.446V60.9457C62.4602 60.6093 62.1886 60.3367 61.8536 60.3367Z" fill="#371A45"/>
<path d="M67.0153 107C63.3742 107 59.1692 106.342 55.4714 105.445C53.1161 104.873 52.443 104.6 52.5207 103.891C52.5984 103.181 53.4995 103.121 54.4525 103.063C55.2977 103.011 56.4398 102.991 57.7622 102.967C61.3553 102.904 66.7849 102.809 68.4488 101.852C68.4855 101.831 68.5196 101.811 68.5509 101.792C68.059 101.672 66.9899 101.529 64.6729 101.494C62.3083 101.458 59.2881 101.538 56.3671 101.615C52.2008 101.726 48.2655 101.831 45.9815 101.629C44.7723 101.521 44.1185 101.106 44.0347 100.391C43.8358 98.67 47.7345 96.9081 49.8236 96.2177C52.9838 95.1774 55.7355 93.1605 57.6852 90.4553C59.6349 87.7501 60.6829 84.4952 60.6793 81.156V66.0547C60.6831 65.8936 60.7496 65.7404 60.8644 65.6278C60.9793 65.5153 61.1334 65.4523 61.2939 65.4523C61.4544 65.4523 61.6085 65.5153 61.7233 65.6278C61.8382 65.7404 61.9046 65.8936 61.9085 66.0547V81.1545C61.9125 84.7538 60.783 88.2621 58.6813 91.1778C56.5797 94.0935 53.6136 96.2673 50.2073 97.3883C47.2297 98.3736 45.4527 99.7172 45.2696 100.21C45.3513 100.259 45.5713 100.354 46.0883 100.399C48.3028 100.594 52.386 100.486 56.3349 100.381C66.8072 100.103 69.6923 100.206 70.042 101.46C70.257 102.235 69.3878 102.735 69.0603 102.924C67.1224 104.039 61.9447 104.13 57.7841 104.203C57.1098 104.215 56.4019 104.227 55.758 104.246H55.7606C63.8933 106.22 71.1021 106.252 73.6964 104.326C74.3864 103.813 74.7447 103.184 74.7912 102.401C74.8912 100.731 74.6504 98.1045 74.3717 95.0623C73.8443 89.3065 73.1876 82.1478 74.429 76.9773C74.4468 76.8975 74.4803 76.822 74.5274 76.7553C74.5745 76.6886 74.6344 76.6319 74.7035 76.5886C74.7727 76.5454 74.8497 76.5163 74.9301 76.5032C75.0105 76.4901 75.0927 76.4931 75.1719 76.5122C75.2512 76.5313 75.3258 76.566 75.3916 76.6143C75.4573 76.6627 75.5128 76.7236 75.5549 76.7937C75.5969 76.8637 75.6247 76.9415 75.6365 77.0224C75.6484 77.1034 75.6441 77.1859 75.6239 77.2651C74.4301 82.2356 75.0764 89.2838 75.5956 94.9475C75.879 98.0391 76.1237 100.709 76.0183 102.472C75.9495 103.626 75.4139 104.583 74.4269 105.314C72.8007 106.525 70.1115 107 67.0153 107Z" fill="#371A45"/>
<g opacity="0.35">
<path opacity="0.35" d="M58.4854 75.7401C58.6645 76.0157 58.838 76.2862 59.0059 76.5517C58.8368 76.2862 58.6627 76.0139 58.4854 75.7401Z" fill="#371A45"/>
</g>
<g opacity="0.35">
<path opacity="0.35" d="M79.3471 78.5251C78.1899 78.633 76.9191 78.7028 75.6469 78.692C75.5233 78.692 75.3993 78.6902 75.2753 78.6848C75.1446 78.6848 75.0117 78.6798 74.8812 78.6744C74.7928 78.6744 74.7043 78.669 74.6211 78.6654C74.5165 78.66 74.4141 78.6532 74.3112 78.6478C74.1823 78.6388 74.0511 78.6316 73.9239 78.6212H73.9132C73.7856 78.6122 73.6549 78.6014 73.5255 78.5873L73.2726 78.5607C73.201 78.5553 73.1293 78.5445 73.0576 78.5377C72.9477 78.5251 72.8362 78.5093 72.7284 78.4949C72.6205 78.4805 72.5231 78.4647 72.4221 78.447C72.4016 78.4462 72.3814 78.4426 72.3619 78.4362C72.2436 78.4204 72.1251 78.4003 72.0118 78.3758C71.8986 78.3513 71.7782 78.3334 71.6647 78.3082L71.6349 78.3031C71.5712 78.2888 71.5074 78.2747 71.4454 78.2585C71.3766 78.2445 71.3057 78.2265 71.2365 78.2089L71.1215 78.1787V79.6018C71.1215 81.5721 69.5168 83.1819 67.5542 83.1819H48.0854C46.1267 83.1819 44.5216 81.5721 44.5216 79.6018V78.4647C42.3874 78.7884 39.9615 78.724 37.8789 78.5409C38.0065 76.2084 38.2221 73.9003 38.4966 71.6581C40.3879 71.7114 42.5809 71.706 44.5216 71.539V68.9849C44.5216 67.0161 46.1267 65.4084 48.0854 65.4084H67.5549C68.4997 65.4098 69.4055 65.7868 70.0741 66.4571C70.7426 67.1274 71.1195 68.0363 71.1223 68.9849V71.3782C71.5346 71.4401 71.9699 71.4901 72.4178 71.5308C74.4438 71.7157 76.7618 71.7139 78.7294 71.6516C79.0024 73.8878 79.2174 76.1958 79.3471 78.5251Z" fill="#371A45"/>
</g>
<path d="M48.3905 75.892C45.7393 76.9691 41.6389 76.7439 38.8429 76.4039C38.4449 76.3554 38.0606 76.2272 37.7127 76.0271C37.3648 75.8269 37.0603 75.5588 36.8173 75.2386C36.5743 74.9184 36.3977 74.5525 36.2978 74.1626C36.1979 73.7727 36.1768 73.3667 36.2358 72.9685V72.9685C36.344 72.2292 36.7218 71.5567 37.296 71.0815C37.8702 70.6062 38.5997 70.362 39.3431 70.3964C41.9584 70.5194 45.8815 70.5762 48.3658 70.0237" fill="white"/>
<g opacity="0.35">
<path opacity="0.35" d="M48.3909 75.8918C45.7396 76.9685 41.6385 76.743 38.8429 76.4037C38.3506 76.3431 37.8809 76.1611 37.4758 75.8739C37.0706 75.5867 36.7425 75.2032 36.5209 74.7577C36.2992 74.3122 36.1908 73.8185 36.2054 73.3207C36.22 72.823 36.3571 72.3366 36.6044 71.9049C36.8357 72.3116 37.1587 72.6582 37.5474 72.9171C37.9361 73.176 38.3798 73.3399 38.8429 73.3956C41.6349 73.7352 45.7278 73.9608 48.3787 72.8877L48.3909 75.8918Z" fill="#371A45"/>
</g>
<path d="M43.1232 77.3017C41.5938 77.3017 40.0722 77.1747 38.7692 77.0164C37.8374 76.9059 36.9848 76.4363 36.3912 75.7066C35.7977 74.9769 35.5096 74.0443 35.5878 73.1055C35.666 72.1667 36.1043 71.295 36.8102 70.6745C37.5162 70.0539 38.4346 69.7329 39.3718 69.7793C42.1022 69.9081 45.8565 69.9502 48.2329 69.4196C48.5801 69.3422 49.4421 69.3451 49.9634 71.0279C50.5054 72.7791 50.4542 75.7174 48.6213 76.4624C47.08 77.0909 45.0948 77.3017 43.1232 77.3017ZM39.2002 71.0099C38.5923 71.0121 38.0082 71.2468 37.5666 71.6661C37.1249 72.0854 36.859 72.6579 36.8229 73.2672C36.7868 73.8764 36.9832 74.4765 37.3722 74.9455C37.7612 75.4145 38.3135 75.717 38.9168 75.7915C41.7561 76.1362 45.6641 76.3344 48.1602 75.3199C48.8334 75.0462 48.9842 73.9483 49.0172 73.4892C49.1204 72.0658 48.6768 70.8765 48.4221 70.6427C45.9117 71.1841 42.0914 71.143 39.3144 71.0125C39.2761 71.0107 39.2381 71.0099 39.2002 71.0099Z" fill="#371A45"/>
<path d="M78.2085 76.4038C76.8969 76.5635 75.2958 76.6977 73.6943 76.6826C73.5836 76.6826 73.475 76.6808 73.3647 76.6776C73.249 76.6758 73.1318 76.6725 73.0164 76.6675C72.938 76.6657 72.861 76.6624 72.7857 76.6592L72.5127 76.6441C72.3974 76.6373 72.282 76.629 72.1681 76.6204H72.1587C72.0448 76.6121 71.9295 76.602 71.8159 76.5901C71.7406 76.5837 71.665 76.575 71.5916 76.5668C71.5278 76.5617 71.4644 76.5535 71.4024 76.5466C71.3039 76.5347 71.205 76.5214 71.1097 76.5078C71.0144 76.4941 70.9274 76.4811 70.8385 76.466C70.8205 76.4649 70.8026 76.462 70.7851 76.4574C70.6798 76.4423 70.5759 76.4239 70.4738 76.4038C70.3717 76.3836 70.2681 76.3649 70.1675 76.3434L70.1424 76.3383C70.0858 76.3247 70.0288 76.3131 69.9736 76.2995C69.9115 76.2863 69.8496 76.2712 69.7877 76.2541C69.5985 76.207 69.413 76.1534 69.232 76.0962C69.1349 76.066 69.0378 76.0325 68.9425 75.9987C68.8472 75.9649 68.7537 75.9268 68.6631 75.8908L68.6749 73.0734L68.6882 70.0225C69.3241 70.1664 70.0553 70.266 70.8335 70.3365C73.0956 70.543 75.7644 70.4862 77.7102 70.3952C77.7571 70.3952 77.8037 70.3919 77.8535 70.3919C78.6181 70.3935 79.3534 70.6878 79.9095 71.2149C80.4656 71.7419 80.8006 72.462 80.8462 73.2284C80.8919 73.9948 80.6448 74.7499 80.1553 75.3398C79.6658 75.9296 78.9708 76.3099 78.2118 76.4031L78.2085 76.4038Z" fill="white"/>
<g opacity="0.35">
<path opacity="0.35" d="M78.2088 76.4039C76.8975 76.5636 75.296 76.697 73.6946 76.6826C73.5845 76.6826 73.4747 76.6809 73.3653 76.6773C73.2485 76.6755 73.1317 76.6722 73.0167 76.6668C72.939 76.6668 72.8609 76.6632 72.7867 76.6596L72.5123 76.6438C72.3973 76.6366 72.2823 76.6294 72.169 76.6204H72.159C72.0458 76.6118 71.929 76.6028 71.8154 76.5902C71.7413 76.5834 71.6653 76.5744 71.5908 76.5672C71.527 76.5618 71.4636 76.5532 71.4016 76.546C71.3042 76.5352 71.2053 76.5211 71.1096 76.51C71.014 76.4988 70.9273 76.4834 70.8388 76.4675C70.8208 76.4666 70.803 76.4636 70.7857 76.4585C70.6783 76.4441 70.5751 76.4247 70.4744 76.4053C70.3737 76.3859 70.2673 76.3661 70.1681 76.3449L70.1416 76.3395C70.085 76.3272 70.0284 76.3146 69.9735 76.3003C69.9116 76.288 69.8496 76.2718 69.7876 76.256C69.5984 76.2082 69.4125 76.1546 69.2323 76.0977C69.1348 76.0675 69.0374 76.034 68.9439 76.0002C68.8504 75.9664 68.7543 75.9283 68.6641 75.8923L68.6748 73.0745V72.8882C68.7615 72.9241 68.8518 72.9601 68.9439 72.9911C69.036 73.022 69.1348 73.0587 69.2323 73.0889C69.4114 73.1457 69.5984 73.199 69.7876 73.2468C69.8496 73.263 69.9116 73.2788 69.9735 73.2914C70.0284 73.3055 70.085 73.3181 70.1416 73.3303L70.1681 73.3357C70.2673 73.3569 70.3698 73.3785 70.4744 73.3961C70.579 73.4137 70.6797 73.4353 70.7857 73.4494C70.803 73.4544 70.8208 73.4574 70.8388 73.4583C70.9273 73.4727 71.0179 73.4868 71.1096 73.5012C71.2013 73.5155 71.3042 73.5278 71.4016 73.5371C71.4636 73.5443 71.527 73.5533 71.5908 73.5587C71.6653 73.5656 71.7413 73.5745 71.8154 73.5817C71.929 73.594 72.0458 73.603 72.159 73.612H72.1676C72.2808 73.6206 72.3958 73.6278 72.5108 73.635L72.7853 73.6508C72.8594 73.6544 72.9375 73.6562 73.0153 73.658C73.1303 73.6634 73.2471 73.667 73.3639 73.6688C73.4735 73.6724 73.5833 73.6742 73.6931 73.6742C75.296 73.6882 76.8975 73.5551 78.2074 73.395C78.6708 73.3394 79.1147 73.1756 79.5038 72.9167C79.8928 72.6579 80.216 72.3111 80.4476 71.9043C80.6937 72.3363 80.8297 72.8226 80.8436 73.3201C80.8574 73.8176 80.7487 74.3108 80.527 74.7559C80.3054 75.2011 79.9776 75.5843 79.573 75.8717C79.1683 76.1591 78.6992 76.3416 78.2074 76.4031L78.2088 76.4039Z" fill="#371A45"/>
</g>
<path d="M73.9285 77.3018C71.958 77.3018 69.9731 77.091 68.4308 76.4639C66.5979 75.7189 66.5463 72.7806 67.0887 71.0294C67.61 69.3462 68.472 69.3441 68.8191 69.421C71.1952 69.9502 74.9495 69.9081 77.6799 69.7808C78.6163 69.7356 79.5336 70.0571 80.2386 70.6776C80.9436 71.298 81.3812 72.169 81.4594 73.107C81.5376 74.045 81.2501 74.9769 80.6576 75.7063C80.0651 76.4358 79.2137 76.9059 78.2829 77.0176C76.9799 77.1748 75.4579 77.3018 73.9285 77.3018ZM68.63 70.6427C68.3749 70.8765 67.9317 72.0658 68.0349 73.4893C68.0682 73.9483 68.2183 75.0462 68.8919 75.32C71.3876 76.3344 75.296 76.1362 78.1353 75.7916C78.7479 75.7153 79.3073 75.4039 79.6965 74.9228C80.0856 74.4416 80.2742 73.8279 80.2228 73.2102C80.1714 72.5926 79.884 72.0188 79.4207 71.6092C78.9575 71.1995 78.3543 70.9857 77.7376 71.0125C74.9614 71.1435 71.1404 71.1841 68.63 70.6427Z" fill="#371A45"/>
<path d="M69.6874 68.0843V77.4885C69.6874 79.2335 68.265 80.6617 66.5274 80.6617H49.277C47.5415 80.6617 46.1191 79.2335 46.1191 77.4885V68.0843C46.1191 66.3392 47.5415 64.9136 49.277 64.9136H66.526C67.3631 64.9154 68.1655 65.2499 68.7576 65.8441C69.3498 66.4383 69.6836 67.2437 69.6859 68.0843H69.6874Z" fill="white"/>
<g opacity="0.35">
<path opacity="0.35" d="M69.6874 68.0842V77.4891C69.6874 79.2335 68.2657 80.6609 66.5281 80.6609H49.2766C48.4399 80.6584 47.6383 80.3236 47.0467 79.7296C46.455 79.1356 46.1216 78.3306 46.1191 77.4906V73.9713C47.9671 77.5783 54.2458 78.9971 59.411 78.4719C60.565 78.3546 61.3901 77.2539 61.115 76.1225C61.0304 75.7734 60.9879 75.4155 60.9885 75.0562C60.9885 73.0057 62.3421 71.342 64.012 71.342C65.2731 71.342 66.9118 72.4212 67.1028 74.4771C67.1494 74.9807 67.8487 75.0638 67.9985 74.581C68.7623 72.0956 69.1664 67.8238 69.0428 66.1708C69.4608 66.7204 69.6873 67.3927 69.6874 68.0842Z" fill="#371A45"/>
</g>
<path d="M66.7849 81.2781H49.0189C48.087 81.2771 47.1935 80.9049 46.5346 80.2433C45.8756 79.5816 45.5049 78.6845 45.5039 77.7488V67.8248C45.5049 66.889 45.8756 65.9919 46.5346 65.3303C47.1935 64.6686 48.087 64.2965 49.0189 64.2954H66.7849C67.7168 64.2965 68.6103 64.6686 69.2692 65.3303C69.9282 65.9919 70.2989 66.889 70.2999 67.8248V77.7488C70.2989 78.6845 69.9282 79.5816 69.2692 80.2433C68.6103 80.9049 67.7168 81.2771 66.7849 81.2781ZM49.0193 65.5297C48.4132 65.5303 47.8322 65.7723 47.4037 66.2026C46.9752 66.6329 46.7342 67.2163 46.7335 67.8248V77.7488C46.7342 78.3573 46.9752 78.9407 47.4037 79.3709C47.8322 79.8012 48.4132 80.0432 49.0193 80.0439H66.7849C67.3909 80.0432 67.9719 79.8012 68.4005 79.3709C68.829 78.9407 69.07 78.3573 69.0707 77.7488V67.8248C69.07 67.2163 68.829 66.6329 68.4005 66.2026C67.9719 65.7723 67.3909 65.5303 66.7849 65.5297H49.0193Z" fill="#371A45"/>
<path d="M65.9385 74.7207C67.0023 73.6526 67.0023 71.9209 65.9385 70.8528C64.8747 69.7847 63.15 69.7847 62.0863 70.8528C61.0225 71.9209 61.0225 73.6526 62.0863 74.7207C63.15 75.7888 64.8747 75.7888 65.9385 74.7207Z" fill="#FF5555"/>
<path d="M66.7368 72.7877C66.737 72.9337 66.725 73.0794 66.701 73.2234C66.5991 72.5809 66.2724 71.9959 65.7795 71.5735C65.2866 71.1512 64.6599 70.9192 64.0119 70.9192C63.364 70.9192 62.7373 71.1512 62.2444 71.5735C61.7515 71.9959 61.4248 72.5809 61.3229 73.2234C61.2988 73.0794 61.2869 72.9337 61.2871 72.7877C61.2871 72.0622 61.5742 71.3664 62.0851 70.8534C62.596 70.3403 63.289 70.0521 64.0116 70.0521C64.7342 70.0521 65.4272 70.3403 65.9381 70.8534C66.449 71.3664 66.7361 72.0622 66.7361 72.7877H66.7368Z" fill="white"/>
<g opacity="0.35">
<path opacity="0.35" d="M66.7358 72.7864C66.7358 73.5115 66.4489 74.2069 65.9383 74.7196C65.4276 75.2323 64.7351 75.5204 64.0129 75.5204C63.2908 75.5204 62.5982 75.2323 62.0876 74.7196C61.5769 74.2069 61.29 73.5115 61.29 72.7864C61.2892 72.4476 61.3526 72.1118 61.4767 71.7968C61.676 72.3094 62.0247 72.7498 62.4772 73.0603C62.9298 73.3707 63.4652 73.5368 64.0133 73.5368C64.5614 73.5368 65.0967 73.3707 65.5493 73.0603C66.0019 72.7498 66.3506 72.3094 66.5498 71.7968C66.6737 72.1118 66.7368 72.4477 66.7358 72.7864V72.7864Z" fill="#371A45"/>
</g>
<path d="M64.0126 75.9848C63.3826 75.9849 62.7668 75.7974 62.2429 75.446C61.7191 75.0947 61.3108 74.5952 61.0697 74.0109C60.8286 73.4265 60.7655 72.7835 60.8883 72.1631C61.0112 71.5427 61.3145 70.9728 61.7599 70.5256C62.2053 70.0783 62.7728 69.7736 63.3907 69.6502C64.0085 69.5268 64.649 69.5901 65.231 69.8321C65.813 70.0742 66.3104 70.4841 66.6604 71.01C67.0104 71.5359 67.1972 72.1543 67.1972 72.7868C67.1963 73.6346 66.8605 74.4474 66.2634 75.047C65.6664 75.6465 64.8569 75.9838 64.0126 75.9848ZM64.0126 70.5147C63.5649 70.5146 63.1273 70.6479 62.755 70.8975C62.3828 71.1472 62.0927 71.5021 61.9213 71.9174C61.75 72.3326 61.7051 72.7895 61.7925 73.2304C61.8798 73.6712 62.0953 74.0762 62.4119 74.394C62.7284 74.7118 63.1317 74.9283 63.5707 75.0159C64.0098 75.1036 64.4649 75.0586 64.8784 74.8865C65.292 74.7145 65.6455 74.4232 65.8941 74.0494C66.1428 73.6757 66.2755 73.2363 66.2754 72.7868C66.2747 72.1844 66.0361 71.6069 65.6119 71.1809C65.1877 70.755 64.6125 70.5154 64.0126 70.5147V70.5147Z" fill="#371A45"/>
<path d="M56.2933 81.2781C56.1302 81.2781 55.9739 81.2131 55.8586 81.0973C55.7433 80.9816 55.6785 80.8246 55.6785 80.6608V75.5616C55.6775 75.1583 55.5838 74.7608 55.4045 74.3999C55.2253 74.039 54.9655 73.7246 54.6452 73.4812L53.7521 72.8064C53.28 72.4477 52.897 71.9844 52.6327 71.4525C52.3684 70.9207 52.2302 70.3347 52.2287 69.7404V64.9127C52.2267 64.8304 52.2411 64.7486 52.2711 64.672C52.3011 64.5953 52.3461 64.5255 52.4034 64.4666C52.4606 64.4077 52.5291 64.3609 52.6046 64.3289C52.6802 64.297 52.7613 64.2805 52.8433 64.2805C52.9253 64.2805 53.0065 64.297 53.082 64.3289C53.1576 64.3609 53.226 64.4077 53.2833 64.4666C53.3405 64.5255 53.3855 64.5953 53.4155 64.672C53.4455 64.7486 53.4599 64.8304 53.4579 64.9127V69.7404C53.459 70.1436 53.5528 70.5412 53.7321 70.9021C53.9114 71.263 54.1713 71.5773 54.4915 71.8207L55.3844 72.4956C55.8564 72.8542 56.2396 73.3175 56.5038 73.8494C56.7681 74.3812 56.9063 74.9672 56.9077 75.5616V80.6608C56.9077 80.8245 56.843 80.9815 56.7278 81.0972C56.6126 81.213 56.4563 81.278 56.2933 81.2781V81.2781Z" fill="#371A45"/>
<path d="M88.6039 57.5271L87.0844 63.5156L86.6849 65.0938L83.8625 76.2118L83.7611 76.6143C83.7371 76.708 83.7079 76.8002 83.6737 76.8906C83.4658 77.4222 83.0719 77.8593 82.5658 78.12C82.0597 78.3807 81.4763 78.447 80.925 78.3065L71.3627 75.8603C71.0659 75.7844 70.7869 75.6506 70.5416 75.4664C70.2963 75.2822 70.0896 75.0512 69.9332 74.7868C69.7768 74.5223 69.6739 74.2295 69.6302 73.9251C69.5866 73.6207 69.6031 73.3106 69.6788 73.0126L74.5216 53.9255C74.5971 53.6274 74.7304 53.3472 74.9138 53.1008C75.0972 52.8545 75.3272 52.6469 75.5906 52.4899C75.854 52.3328 76.1457 52.2295 76.4489 52.1857C76.7521 52.1419 77.0609 52.1586 77.3577 52.2347L86.92 54.6809C87.519 54.8344 88.0329 55.2204 88.3486 55.7541C88.6644 56.2878 88.7562 56.9255 88.6039 57.5271V57.5271Z" fill="#FF5555"/>
<path d="M83.9577 75.8361L83.7599 76.615C83.6842 76.913 83.5508 77.1931 83.3673 77.4394C83.1838 77.6857 82.9538 77.8932 82.6904 78.0502C82.427 78.2072 82.1354 78.3106 81.8322 78.3545C81.5291 78.3983 81.2203 78.3817 80.9234 78.3057L71.3615 75.8595C70.7622 75.7061 70.2482 75.3199 69.9324 74.786C69.6166 74.252 69.525 73.614 69.6776 73.0122L69.875 72.2334C69.7226 72.8352 69.8143 73.4731 70.1301 74.007C70.4458 74.5409 70.9597 74.9271 71.5589 75.0807L81.1208 77.5269C81.7203 77.6804 82.356 77.5885 82.888 77.2714C83.42 76.9544 83.8048 76.4381 83.9577 75.8361Z" fill="white"/>
<path d="M88.604 57.5268L83.7598 76.6143C83.6619 77.0014 83.4668 77.3568 83.1931 77.6465C82.9193 77.9363 82.5761 78.1506 82.1963 78.2691C82.5178 78.1329 82.8036 77.9237 83.031 77.6579C83.2585 77.3922 83.4215 77.077 83.5072 76.7373L88.2077 58.211C88.3559 57.6269 88.2669 57.0075 87.9603 56.4893C87.6537 55.971 87.1547 55.5963 86.5729 55.4475L77.2915 53.0733C77.0035 52.9995 76.7038 52.9835 76.4096 53.0261C76.1154 53.0686 75.8324 53.169 75.5768 53.3214C75.3213 53.4738 75.0981 53.6752 74.9201 53.9143C74.742 54.1533 74.6126 54.4251 74.5393 54.7144L69.8387 73.2407C69.7523 73.5811 69.7458 73.9371 69.8199 74.2805C69.8939 74.6239 70.0464 74.9452 70.2654 75.2193C69.9866 74.9326 69.7858 74.5787 69.6826 74.1916C69.5794 73.8045 69.5772 73.3973 69.6761 73.009L74.5192 53.9212C74.6721 53.3193 75.0568 52.8031 75.5887 52.486C76.1207 52.1689 76.7562 52.077 77.3557 52.2304L86.9176 54.6766C87.2148 54.7523 87.4943 54.8861 87.74 55.0704C87.9857 55.2546 88.1928 55.4858 88.3495 55.7505C88.5061 56.0152 88.6092 56.3084 88.6529 56.6132C88.6966 56.918 88.6799 57.2284 88.604 57.5268V57.5268Z" fill="white"/>
<path d="M81.3666 78.9561C81.1063 78.9562 80.8471 78.9234 80.5949 78.8586L71.3845 76.5024C70.9863 76.4006 70.6121 76.221 70.2831 75.974C69.9541 75.727 69.6767 75.4173 69.4669 75.0626C69.2571 74.7079 69.119 74.3153 69.0603 73.907C69.0017 73.4987 69.0237 73.0828 69.1252 72.6831L73.8787 53.951C73.9801 53.5512 74.1589 53.1754 74.405 52.8451C74.651 52.5147 74.9594 52.2363 75.3127 52.0256C75.6659 51.815 76.057 51.6762 76.4636 51.6174C76.8702 51.5585 77.2844 51.5806 77.6825 51.6825L86.893 54.0387C87.6965 54.2452 88.3857 54.7632 88.8092 55.4793C89.2328 56.1953 89.3561 57.0508 89.1522 57.858L84.399 76.592C84.2261 77.2678 83.8344 77.8668 83.2855 78.2947C82.7366 78.7227 82.0616 78.9554 81.3666 78.9561V78.9561ZM80.898 77.6629C81.3862 77.7871 81.9035 77.7118 82.3365 77.4536C82.7695 77.1954 83.0828 76.7753 83.2078 76.2855L87.961 57.5516C88.0847 57.0614 88.0097 56.542 87.7525 56.1073C87.4954 55.6726 87.077 55.3581 86.5892 55.2327L77.3787 52.8768C77.137 52.8149 76.8855 52.8014 76.6387 52.8371C76.3918 52.8729 76.1543 52.957 75.9399 53.0849C75.7254 53.2128 75.5381 53.3819 75.3888 53.5824C75.2394 53.783 75.1308 54.0112 75.0693 54.2539L70.3161 72.9878C70.2544 73.2304 70.241 73.4829 70.2766 73.7308C70.3122 73.9787 70.396 74.2171 70.5234 74.4325C70.6507 74.6478 70.8191 74.8359 71.0189 74.9858C71.2186 75.1358 71.4458 75.2448 71.6876 75.3066L80.898 77.6629Z" fill="#371A45"/>
<path d="M78.2349 57.2854C78.9609 56.8524 79.1999 55.9103 78.7686 55.1813C78.3374 54.4523 77.3991 54.2123 76.6731 54.6454C75.947 55.0784 75.708 56.0204 76.1393 56.7495C76.5706 57.4785 77.5088 57.7185 78.2349 57.2854Z" fill="#371A45"/>
<path d="M77.6068 56.5385C77.9079 56.4496 78.0803 56.1325 77.9918 55.8302C77.9033 55.5279 77.5874 55.3549 77.2864 55.4437C76.9853 55.5326 76.813 55.8497 76.9015 56.152C76.99 56.4543 77.3058 56.6273 77.6068 56.5385Z" fill="#21091D"/>
<path d="M77.4559 57.7385C77.1876 57.7386 76.9228 57.6771 76.6818 57.5588C76.4407 57.4405 76.2298 57.2685 76.065 57.0559C75.9002 56.8433 75.7859 56.5957 75.7309 56.3321C75.6758 56.0684 75.6814 55.7956 75.7473 55.5344V55.5344C75.8289 55.2144 75.9982 54.9237 76.236 54.6955C76.4738 54.4672 76.7706 54.3105 77.0927 54.2431C77.4147 54.1757 77.7492 54.2003 78.058 54.3142C78.3668 54.4281 78.6376 54.6266 78.8397 54.8873C79.0418 55.148 79.167 55.4604 79.2012 55.7889C79.2353 56.1175 79.177 56.449 79.0329 56.746C78.8888 57.0429 78.6646 57.2934 78.3858 57.4688C78.1071 57.6443 77.7849 57.7377 77.4559 57.7385V57.7385ZM76.1948 55.6488C76.1313 55.8988 76.143 56.162 76.2285 56.4053C76.3141 56.6485 76.4695 56.8608 76.6753 57.0153C76.881 57.1698 77.1278 57.2595 77.3844 57.2731C77.6409 57.2867 77.8957 57.2236 78.1166 57.0917C78.3374 56.9599 78.5143 56.7652 78.6248 56.5323C78.7354 56.2995 78.7747 56.0389 78.7377 55.7837C78.7007 55.5284 78.5892 55.2898 78.4171 55.0983C78.2451 54.9067 78.0203 54.7707 77.7712 54.7074C77.4379 54.623 77.0848 54.6747 76.7894 54.8512C76.4939 55.0276 76.2801 55.3144 76.1948 55.6488Z" fill="#E0E0E0"/>
<path d="M80.3688 66.6014C80.1577 66.8303 79.8768 66.982 79.5702 67.0326C79.2637 67.0832 78.9491 67.0298 78.6762 66.8808C78.4033 66.7318 78.1876 66.4958 78.0632 66.2099C77.9388 65.9241 77.9128 65.6048 77.9894 65.3025C78.0659 65.0002 78.2406 64.7322 78.4858 64.5407C78.731 64.3492 79.0328 64.2453 79.3435 64.2452C79.6541 64.2452 79.9559 64.3491 80.2012 64.5406C80.4464 64.732 80.6211 65.0001 80.6977 65.3024L80.6766 65.2966C80.5049 65.2527 80.3229 65.2791 80.1706 65.37C80.0184 65.4608 79.9082 65.6087 79.8645 65.781C79.8208 65.9534 79.8471 66.1361 79.9376 66.289C80.028 66.4419 80.1753 66.5525 80.347 66.5964L80.3688 66.6014Z" fill="white"/>
<path d="M83.7642 77.0579C83.7258 77.0578 83.6875 77.053 83.6503 77.0435L69.5677 73.4411C69.4512 73.409 69.3518 73.3323 69.2911 73.2274C69.2303 73.1226 69.213 72.9979 69.2428 72.8804C69.2726 72.7628 69.3472 72.6617 69.4505 72.5987C69.5538 72.5358 69.6776 72.5161 69.7952 72.5439L83.8778 76.1467C83.9866 76.1746 84.0815 76.2414 84.1448 76.3345C84.208 76.4277 84.2352 76.5408 84.2213 76.6527C84.2073 76.7646 84.1532 76.8675 84.0691 76.9422C83.9849 77.0168 83.8765 77.0581 83.7642 77.0582V77.0579Z" fill="#371A45"/>
<g opacity="0.35">
<path opacity="0.35" d="M87.0825 63.5157L86.683 65.0938L83.8606 76.2118C83.0863 73.2238 82.7897 73.0587 80.2639 70.5085C77.5202 67.7386 78.3683 63.1951 80.2424 60.9997C81.8818 59.0808 84.8655 60.7176 87.0825 63.5157Z" fill="#371A45"/>
</g>
<path d="M84.222 74.7936C84.222 74.7936 87.9681 73.491 89.5069 69.7832C91.8049 64.2433 89.1454 58.8922 84.2615 58.2501C80.5877 57.767 77.7122 64.7009 80.2649 67.6514C82.4436 70.1692 84.9049 71.398 84.222 74.7936Z" fill="white"/>
<g opacity="0.35">
<path opacity="0.35" d="M89.9115 68.6418C89.7979 69.0295 89.6631 69.4107 89.5077 69.7836C87.9671 73.4889 84.2225 74.794 84.2225 74.794C84.9032 71.4002 82.4433 70.1692 80.2646 67.6514C78.6499 65.7848 79.2077 62.3248 80.7662 60.156C80.3069 61.9187 79.8895 64.6782 80.9357 65.8877C82.2695 67.4288 83.718 68.2767 84.8025 69.2584C86.3198 70.6318 88.6876 70.3984 89.8595 68.7188C89.8764 68.6929 89.8939 68.6677 89.9115 68.6418Z" fill="#371A45"/>
</g>
<path d="M84.2214 75.4107C84.1304 75.4108 84.0405 75.3906 83.9582 75.3515C83.8759 75.3124 83.8033 75.2554 83.7456 75.1847C83.688 75.114 83.6467 75.0313 83.6248 74.9425C83.603 74.8538 83.601 74.7613 83.6191 74.6718C84.0795 72.3817 82.9273 71.2399 81.3323 69.6592C80.8307 69.1635 80.3148 68.652 79.8003 68.0562C78.0892 66.0777 78.5546 62.8509 79.7111 60.6889C80.8576 58.5481 82.587 57.4066 84.3403 57.6383C86.6895 57.9473 88.6364 59.255 89.8219 61.3206C91.246 63.8027 91.3377 66.9727 90.0727 70.0207C88.4469 73.9386 84.5854 75.32 84.4217 75.3768C84.3572 75.3991 84.2895 75.4105 84.2214 75.4107ZM83.8989 58.8434C82.5733 58.8434 81.438 60.0665 80.7931 61.2727C79.7996 63.1307 79.4578 65.7791 80.7275 67.2468C81.2108 67.8055 81.711 68.3016 82.1964 68.7811C83.6245 70.1963 84.9845 71.5435 84.9516 73.776C86.0919 73.1584 87.9875 71.8406 88.9395 69.5459C90.0558 66.8558 89.9896 64.0822 88.7578 61.9368C87.7679 60.2119 86.1424 59.1201 84.1816 58.8621C84.0882 58.8497 83.994 58.8434 83.8997 58.8434H83.8989Z" fill="#371A45"/>
</svg>
