<svg width="120" height="120" fill="none" xmlns="http://www.w3.org/2000/svg"><path d="m72.678 98.331-7.811-1.074a1.332 1.332 0 0 1-1.134-1.495 1.332 1.332 0 0 1 1.496-1.134l7.811 1.074a1.333 1.333 0 0 1 1.133 1.496 1.333 1.333 0 0 1-1.495 1.133Z" fill="#371A45"/><path d="M69.63 72.139s6.784 2.857 7.558 9.344c.774 6.487-4.228 10.33-4.228 10.33s3.163 1.552 2.591 3.626c-.714 2.59-6.839 1.522-9.256.655-3.72-1.335-1.017-6.083-.119-7.945 1.547-3.214-2.202-7.916-2.202-7.916l5.655-8.094Z" fill="#fff"/><path d="M71.897 97.159c-2.096 0-4.482-.572-5.63-.984-.87-.313-1.46-.837-1.75-1.558-.736-1.827.576-4.47 1.36-6.05.082-.166.158-.319.224-.456 1.505-3.128-2.156-7.779-2.193-7.825a.087.087 0 0 1-.003-.103l5.654-8.094a.087.087 0 0 1 .106-.03c.07.029 6.839 2.951 7.61 9.413.708 5.94-3.443 9.722-4.157 10.324.583.311 3.045 1.755 2.518 3.665-.14.508-.487.908-1.03 1.19-.71.368-1.675.508-2.71.508ZM64.082 80.23c.42.544 3.657 4.874 2.174 7.956-.066.137-.142.29-.225.456-.771 1.554-2.061 4.154-1.354 5.91.27.673.826 1.164 1.65 1.46 1.883.676 6.22 1.512 8.2.486.498-.259.816-.623.943-1.083.546-1.982-2.515-3.51-2.546-3.526a.087.087 0 0 1-.048-.07.085.085 0 0 1 .033-.076c.05-.039 4.954-3.892 4.195-10.252-.72-6.029-6.756-8.936-7.444-9.247l-5.578 7.986Z" fill="#371A45"/><path opacity=".3" d="M72.94 82.736c-1.704 5.153-5.832 7.448-8.082 8.344.41-1.16.989-2.244 1.32-2.932 1.547-3.214-2.202-7.915-2.202-7.915l5.654-8.095s1.282.54 2.796 1.683c.994 2.432 1.615 5.583.514 8.915Z" fill="#371A45"/><path d="M71.9 97.663c-2.184 0-4.628-.581-5.807-1.004-1.017-.365-1.707-.987-2.054-1.85-.822-2.041.554-4.814 1.376-6.471l.221-.45c1.367-2.84-2.096-7.237-2.131-7.28a.6.6 0 0 1-.023-.719l5.655-8.094a.6.6 0 0 1 .725-.21c.29.122 7.116 3.07 7.922 9.826.64 5.363-2.416 8.966-3.806 10.303 1.02.676 2.65 2.076 2.152 3.884-.18.652-.613 1.16-1.29 1.51-.775.403-1.824.555-2.94.555ZM64.716 80.22c.877 1.215 3.449 5.184 2.002 8.19-.067.14-.143.293-.227.462-.685 1.38-1.959 3.947-1.338 5.489.217.538.657.92 1.346 1.167 2.12.762 6.114 1.382 7.789.514.372-.193.596-.442.684-.763.428-1.55-2.25-2.913-2.276-2.927a.601.601 0 0 1-.102-1.017c.047-.035 4.72-3.727 3.997-9.782-.611-5.126-5.3-7.905-6.762-8.653l-5.113 7.32Z" fill="#371A45"/><path d="M64.388 93.355c.224.513.401 1.087.43 1.654-.316-.478-.438-1.047-.43-1.654Z" fill="#fff"/><path d="M64.819 95.095a.087.087 0 0 1-.072-.038c-.304-.46-.453-1.034-.444-1.703a.087.087 0 0 1 .069-.082.086.086 0 0 1 .096.049c.263.604.41 1.17.436 1.683a.085.085 0 0 1-.059.086.09.09 0 0 1-.026.005Zm-.313-1.2c.03.228.089.452.175.666a4.742 4.742 0 0 0-.175-.667ZM78.358 99.2H52.427a.55.55 0 0 1 0-1.098h25.93a.55.55 0 0 1 0 1.098Z" fill="#371A45"/><path d="M65.392 112.045a.427.427 0 0 1-.43-.429V85.687a.43.43 0 1 1 .86 0v25.93a.429.429 0 0 1-.43.428Z" fill="#371A45"/><path d="M65.392 112.045a.427.427 0 0 1-.43-.429V85.687a.43.43 0 1 1 .86 0v25.93a.429.429 0 0 1-.43.428Z" fill="#371A45"/><path d="M78.357 99.08h-25.93a.429.429 0 0 1 0-.858h25.93a.43.43 0 0 1 0 .859Z" fill="#371A45"/><path d="M56.225 108.248a.43.43 0 0 1-.304-.733l18.337-18.337a.43.43 0 0 1 .607.607l-18.337 18.337a.432.432 0 0 1-.303.126Z" fill="#371A45"/><path d="M74.56 108.248a.421.421 0 0 1-.303-.126L55.92 89.785a.429.429 0 1 1 .606-.607l18.337 18.337a.43.43 0 0 1-.303.733Z" fill="#371A45"/><path d="M56.225 108.248a.43.43 0 0 1-.304-.733l18.337-18.337a.43.43 0 0 1 .607.607l-18.337 18.337a.432.432 0 0 1-.303.126Z" fill="#371A45"/><path d="M74.56 108.248a.421.421 0 0 1-.303-.126L55.92 89.785a.429.429 0 1 1 .606-.607l18.337 18.337a.43.43 0 0 1-.303.733Z" fill="#371A45"/><path d="M60.723 111.177a.423.423 0 0 1-.354-.187.425.425 0 0 1-.046-.397l9.338-24.192a.428.428 0 1 1 .8.309l-9.338 24.192a.429.429 0 0 1-.4.275Z" fill="#371A45"/><path d="M77.488 103.749a.429.429 0 0 1-.155-.029l-24.19-9.338a.43.43 0 0 1 .309-.8l24.192 9.338a.43.43 0 0 1-.155.829h-.001Z" fill="#371A45"/><path d="M60.723 111.177a.423.423 0 0 1-.354-.187.425.425 0 0 1-.046-.397l9.338-24.192a.428.428 0 1 1 .8.309l-9.338 24.192a.429.429 0 0 1-.4.275Z" fill="#371A45"/><path d="M77.488 103.749a.429.429 0 0 1-.155-.029l-24.19-9.338a.43.43 0 0 1 .309-.8l24.192 9.338a.43.43 0 0 1-.155.829h-.001Z" fill="#371A45"/><path d="M53.538 104.331a.425.425 0 0 1-.421-.339.43.43 0 0 1 .246-.482l23.71-10.502a.427.427 0 0 1 .576.213.428.428 0 0 1-.229.57l-23.708 10.503a.433.433 0 0 1-.174.037Z" fill="#371A45"/><path d="M70.644 110.934a.431.431 0 0 1-.392-.255L59.75 86.97a.43.43 0 0 1 .784-.347l10.502 23.708a.433.433 0 0 1-.082.47.428.428 0 0 1-.31.133Z" fill="#371A45"/><path d="M53.538 104.331a.425.425 0 0 1-.421-.339.43.43 0 0 1 .246-.482l23.71-10.502a.427.427 0 0 1 .576.213.428.428 0 0 1-.229.57l-23.708 10.503a.433.433 0 0 1-.174.037Z" fill="#371A45"/><path d="M70.644 110.934a.431.431 0 0 1-.392-.255L59.75 86.97a.43.43 0 0 1 .784-.347l10.502 23.708a.433.433 0 0 1-.082.47.428.428 0 0 1-.31.133Z" fill="#371A45"/><path d="M65.393 111.182c-6.885 0-12.487-5.602-12.487-12.487S58.508 86.21 65.393 86.21s12.486 5.601 12.486 12.486c0 6.884-5.601 12.487-12.486 12.487Zm0-23.875c-6.28 0-11.389 5.109-11.389 11.388 0 6.28 5.11 11.388 11.389 11.388 6.28 0 11.388-5.108 11.388-11.388s-5.108-11.388-11.388-11.388Z" fill="#371A45"/><path d="M65.393 111.182c-6.885 0-12.487-5.602-12.487-12.487S58.508 86.21 65.393 86.21s12.486 5.601 12.486 12.486c0 6.884-5.601 12.487-12.486 12.487Zm0-23.875c-6.28 0-11.389 5.109-11.389 11.388 0 6.28 5.11 11.388 11.389 11.388 6.28 0 11.388-5.108 11.388-11.388s-5.108-11.388-11.388-11.388Z" fill="#371A45"/><path d="M65.392 84.186c-8.013 0-14.51 6.495-14.51 14.51 0 8.013 6.497 14.509 14.51 14.509s14.51-6.497 14.51-14.51-6.497-14.51-14.51-14.51Zm0 26.446c-6.591 0-11.937-5.344-11.937-11.937 0-6.593 5.344-11.937 11.937-11.937 6.593 0 11.937 5.345 11.937 11.937 0 6.591-5.344 11.937-11.937 11.937Z" fill="#fff"/><path fill-rule="evenodd" clip-rule="evenodd" d="M50.797 98.695c0-8.061 6.535-14.595 14.595-14.595s14.595 6.535 14.595 14.595-6.535 14.595-14.595 14.595-14.595-6.534-14.595-14.595Zm14.595-14.424c-7.965 0-14.424 6.457-14.424 14.424s6.458 14.424 14.424 14.424c7.966 0 14.424-6.458 14.424-14.424 0-7.965-6.458-14.424-14.424-14.424Zm0 2.573c-6.545 0-11.852 5.306-11.852 11.851 0 6.546 5.308 11.852 11.852 11.852 6.546 0 11.851-5.308 11.851-11.852 0-6.544-5.305-11.851-11.851-11.851Zm0 23.874c-6.639 0-12.023-5.383-12.023-12.023s5.383-12.023 12.023-12.023 12.023 5.384 12.023 12.023c0 6.639-5.383 12.023-12.023 12.023Z" fill="#371A45"/><path d="M65.392 84.186c-8.013 0-14.51 6.495-14.51 14.51 0 8.013 6.497 14.509 14.51 14.509s14.51-6.497 14.51-14.51-6.497-14.51-14.51-14.51Zm0 26.446c-6.591 0-11.937-5.344-11.937-11.937 0-6.593 5.344-11.937 11.937-11.937 6.593 0 11.937 5.345 11.937 11.937 0 6.591-5.344 11.937-11.937 11.937Z" fill="#fff"/><path d="M65.392 113.291c-8.048 0-14.595-6.548-14.595-14.596S57.344 84.1 65.392 84.1c8.048 0 14.595 6.548 14.595 14.595 0 8.048-6.547 14.596-14.595 14.596Zm0-29.02c-7.953 0-14.424 6.47-14.424 14.424s6.47 14.424 14.424 14.424 14.424-6.47 14.424-14.424c0-7.953-6.47-14.423-14.424-14.423Zm0 26.447c-6.63 0-12.023-5.393-12.023-12.023s5.394-12.023 12.023-12.023c6.63 0 12.023 5.394 12.023 12.023 0 6.63-5.392 12.023-12.023 12.023Zm0-23.874c-6.535 0-11.85 5.317-11.85 11.85 0 6.535 5.316 11.851 11.85 11.851s11.851-5.316 11.851-11.85-5.316-11.85-11.85-11.85v-.001Z" fill="#371A45"/><path fill-rule="evenodd" clip-rule="evenodd" d="M50.334 98.695c0-8.317 6.742-15.058 15.058-15.058 8.317 0 15.059 6.742 15.059 15.058 0 8.316-6.742 15.059-15.058 15.059-8.317 0-15.059-6.742-15.059-15.059Zm15.058-13.96c-7.71 0-13.96 6.25-13.96 13.96 0 7.711 6.25 13.961 13.96 13.961 7.71 0 13.96-6.251 13.96-13.96 0-7.71-6.25-13.961-13.96-13.961Zm0 2.572c-6.29 0-11.388 5.098-11.388 11.388s5.1 11.388 11.389 11.388c6.29 0 11.387-5.1 11.387-11.388 0-6.289-5.098-11.388-11.388-11.388Zm0 23.875c-6.894 0-12.486-5.591-12.486-12.487s5.59-12.486 12.486-12.486c6.897 0 12.487 5.591 12.487 12.486 0 6.894-5.59 12.487-12.487 12.487Z" fill="#371A45"/><path d="M65.392 84.186c-8.013 0-14.51 6.495-14.51 14.51 0 8.013 6.497 14.509 14.51 14.509s14.51-6.497 14.51-14.51-6.497-14.51-14.51-14.51Zm0 26.446c-6.591 0-11.937-5.344-11.937-11.937 0-6.593 5.344-11.937 11.937-11.937 6.593 0 11.937 5.345 11.937 11.937 0 6.591-5.344 11.937-11.937 11.937Z" fill="#777082"/><path opacity=".6" d="M77.317 98.842c-.255 6.365-5.498 11.447-11.927 11.447-6.428 0-11.67-5.082-11.924-11.447a9.482 9.482 0 0 0-.01.491c0 6.592 5.343 11.938 11.935 11.938 6.592 0 11.938-5.344 11.938-11.938 0-.165-.003-.329-.012-.49Z" fill="#fff"/><path opacity=".6" d="M65.392 84.185c-8.013 0-14.51 6.496-14.51 14.51 0 .164.004.329.01.491.257-7.788 6.65-14.02 14.5-14.02s14.244 6.233 14.502 14.02c.005-.162.008-.327.008-.49 0-8.015-6.498-14.51-14.51-14.51Z" fill="#fff"/><path opacity=".3" d="M65.392 86.024c-6.592 0-11.937 5.344-11.937 11.936 0 .21.006.419.017.626.325-6.304 5.538-11.314 11.92-11.314 6.383 0 11.597 5.01 11.922 11.314.01-.207.016-.416.016-.626 0-6.593-5.345-11.936-11.938-11.936ZM79.888 98.07c-.328 7.723-6.694 13.884-14.496 13.884-7.803 0-14.169-6.161-14.495-13.884-.01.207-.014.416-.014.624 0 8.013 6.496 14.51 14.509 14.51 8.012 0 14.51-6.497 14.51-14.51 0-.208-.004-.417-.014-.624Z" fill="#371A45"/><path d="M65.393 113.754c-8.304 0-15.059-6.756-15.059-15.059 0-8.303 6.755-15.058 15.059-15.058 8.303 0 15.058 6.755 15.058 15.058s-6.755 15.059-15.058 15.059Zm0-29.02c-7.698 0-13.96 6.263-13.96 13.961s6.262 13.961 13.96 13.961c7.698 0 13.959-6.263 13.959-13.961s-6.261-13.96-13.96-13.96Z" fill="#371A45"/><path d="M65.392 100.883a2.188 2.188 0 1 0 0-4.376 2.188 2.188 0 0 0 0 4.376Z" fill="#fff"/><path d="M65.392 100.969a2.273 2.273 0 1 1-.001-4.546 2.273 2.273 0 0 1 .001 4.546Zm0-4.377a2.104 2.104 0 1 0 0 4.21 2.104 2.104 0 0 0 0-4.21Z" fill="#371A45"/><path d="M65.392 100.883a2.188 2.188 0 1 0 0-4.376 2.188 2.188 0 0 0 0 4.376Z" fill="#B5B5B5"/><path d="M65.393 101.432a2.734 2.734 0 0 1-2.528-1.691 2.737 2.737 0 1 1 2.528 1.691Zm0-4.377a1.639 1.639 0 1 0-.001 3.278 1.639 1.639 0 0 0 0-3.278Z" fill="#371A45"/><path d="M65.392 87.856c5.977 0 10.84 4.863 10.84 10.84 0 5.976-4.863 10.838-10.84 10.838-5.976 0-10.839-4.862-10.839-10.84 0-5.976 4.863-10.838 10.84-10.838Zm0-1.099c-6.591 0-11.937 5.345-11.937 11.938 0 6.593 5.345 11.937 11.937 11.937 6.593 0 11.937-5.344 11.937-11.937 0-6.593-5.344-11.938-11.937-11.938Z" fill="#371A45"/><path d="M63.191 102.782h-7.885a1.327 1.327 0 0 0 0 2.654h7.885a1.327 1.327 0 1 0 0-2.654Z" fill="#371A45"/><path d="M78.805 60.482c-1.908 1.083-4.858 1.107-7.258.88a30.93 30.93 0 0 1-4.002-.647l-2.515-2.393-2.525-2.4-3.82-3.634-1.11-1.056s2.43.689 5.72 1.178c1.744.258 3.732.46 5.728.47.424.003.848-.004 1.27-.019 1.397-.052 2.773-.214 4.045-.53 1.075-.265 2.076-.64 2.956-1.154 0 0 6.447-5.027 8.724-1.71 1.79 2.608-1.487 7.762-7.213 11.015Z" fill="#fff"/><path opacity=".3" d="M78.805 60.482c-3.687 2.093-11.262.233-11.262.233l-9.968-9.483s1.718.487 4.217.932l5.75 5.472s7.576 1.858 11.263-.235c3.779-2.146 6.491-5.119 7.384-7.646 1.384 2.682-1.86 7.59-7.384 10.727Z" fill="#371A45"/><path d="M73.82 62.078c-3.186 0-6.22-.73-6.42-.78a.6.6 0 0 1 .286-1.166c.073.018 7.387 1.779 10.822-.173 3.761-2.136 6.69-5.32 7.291-7.924.209-.905.115-1.655-.277-2.227-.325-.473-.767-.748-1.351-.838-2.096-.323-5.41 1.826-6.51 2.682a.583.583 0 0 1-.066.045c-6.656 3.886-19.634.269-20.184.113a.601.601 0 0 1 .328-1.157c.129.035 12.99 3.621 19.218.025.44-.337 4.465-3.348 7.398-2.896.917.14 1.643.596 2.158 1.345.583.849.741 1.947.458 3.176-.681 2.958-3.77 6.373-7.868 8.7-1.438.816-3.388 1.075-5.284 1.075ZM49.945 75.989s-5.934.574-6.422 2.491c-.526 2.069 3.085 3.62 9.58 2.384 6.494-1.236-3.158-4.875-3.158-4.875Z" fill="#371A45"/><path d="M48.856 81.847c-2.475 0-4.383-.52-5.322-1.518-.532-.565-.725-1.27-.544-1.984.555-2.181 5.846-2.8 6.901-2.903a.542.542 0 0 1 .246.033c.959.37 1.897.791 2.811 1.262 2.087 1.091 3.022 2.023 2.945 2.933-.095 1.11-1.578 1.52-2.687 1.73-1.57.3-3.04.447-4.35.447Zm1.014-5.299c-2.239.235-5.553 1.036-5.815 2.069-.09.352 0 .666.28.96.953 1.013 4.003 1.637 8.666.747 1.447-.275 1.788-.63 1.8-.746.048-.586-2.287-2.017-4.93-3.03Z" fill="#371A45"/><path d="M49.6 52.22s-6.94-.015-9.666 2.127c-2.214 1.74-4.857 19.307 1.236 22.72 3.308 1.853 11.788 1.701 11.788 1.701L49.6 52.221Z" fill="#fff"/><path opacity=".3" d="m52.324 73.753.634 5.014s-8.48.153-11.789-1.701c-3.433-1.922-4.093-8.337-3.62-13.885.241 3.935 1.284 7.513 3.7 8.866 2.727 1.53 8.966 1.695 11.075 1.706Z" fill="#371A45"/><path d="M52.438 79.373c-1.943 0-8.602-.125-11.561-1.783-2.835-1.587-3.724-5.706-3.972-8.881-.456-5.837.911-13.464 2.658-14.834 2.857-2.246 9.74-2.26 10.039-2.255a.6.6 0 0 1 .596.526l3.358 26.548a.602.602 0 0 1-.585.676c-.049 0-.235.003-.532.003ZM49.073 52.83c-1.638.048-6.655.328-8.767 1.988-1.044.82-2.688 7.574-2.203 13.797.225 2.883.99 6.599 3.361 7.927 2.604 1.458 8.77 1.616 10.814 1.627l-3.205-25.339Z" fill="#371A45"/><path d="M47.064 56.516a.55.55 0 0 1-.258-.065c-.018-.01-1.907-1.004-4.182-1.227-1.964-.194-2.993.42-3.004.428a.553.553 0 0 1-.754-.175.546.546 0 0 1 .168-.753c.053-.035 1.326-.826 3.697-.593 2.5.246 4.508 1.308 4.594 1.353a.549.549 0 0 1-.26 1.034v-.002Z" fill="#371A45"/><path d="M39.68 67.946c.182-.206 5.088.134 5.357.35.27.217 1.134 6.16-.13 6.834-1.252.666-3.094.329-3.984-.522-1.313-1.253-1.427-6.456-1.243-6.662Z" fill="#fff"/><path d="M43.393 75.568c-.987 0-1.973-.365-2.53-.897-1.262-1.206-1.524-6.471-1.248-6.781.135-.152 1.552-.09 2.716-.012.424.028 2.545.18 2.76.353.25.201.709 3.381.528 5.283-.088.933-.315 1.502-.672 1.693-.472.251-1.013.361-1.554.361Zm-3.65-7.561c-.163.411-.012 5.345 1.238 6.54.82.783 2.618 1.185 3.886.508.233-.124.404-.47.509-1.028.366-1.953-.227-5.47-.396-5.665-.284-.199-4.86-.507-5.237-.355Z" fill="#371A45"/><path opacity=".3" d="M44.908 75.13c-1.252.667-3.094.329-3.986-.521-.392-.375-.677-1.102-.879-1.943.97.539 2.401.671 3.432.121.779-.416.749-2.83.55-4.675.547.062.942.128 1.013.185.269.218 1.134 6.16-.13 6.834Z" fill="#371A45"/><path d="M43.389 76c-1.099 0-2.186-.411-2.823-1.02-.652-.623-1.102-1.981-1.337-4.037-.035-.296-.32-2.905.065-3.339.17-.19.303-.34 3.067-.154 2.668.18 2.884.354 3 .447.116.094.342.276.579 2.255.09.748.222 2.184.105 3.4-.105 1.117-.392 1.762-.898 2.032-.538.29-1.15.415-1.758.415Zm-3.261-7.603c-.056 1.148.201 4.934 1.149 5.84.712.68 2.314 1.013 3.387.44.14-.075.479-.74.379-2.899-.066-1.402-.275-2.624-.39-3.062-.786-.156-3.572-.35-4.524-.319h-.001Z" fill="#371A45"/><path d="M72.63 73.12c-1.424 7.857-7.837 8.623-7.837 8.623 2.753 6.912-2.519 17.084-2.519 17.084s2.688.926 2.857 2.679c.152 1.597-3.878 3.53-9.19 2.191-8.154-2.056 1.546-14.06-6.963-23.702-1.922-2.177-2.98-4.787-3.467-7.525a21.757 21.757 0 0 1-.28-2.353c-.165-2.474.057-4.98.46-7.309.39-2.23.945-4.295 1.489-6.008a50.048 50.048 0 0 1 1.296-3.597c.305-.751.502-1.172.502-1.172l4.787.126 1.164.031 3.756.1 4.61.121 5.612.148.117.323.223.634c.206.596.491 1.443.809 2.464a82.428 82.428 0 0 1 1.49 5.383c.46 1.922.864 3.969 1.095 5.937.12.99.186 1.984.2 2.98.01 1.018-.054 1.978-.21 2.843Z" fill="#fff"/><path opacity=".3" d="M72.84 70.28c-.123.017-.245.033-.366.047-1.311.158-.35-.089-1.184-.097l.145 1.56a1.219 1.219 0 0 1-1.099 1.325l-14.813 1.466a1.222 1.222 0 0 1-1.325-1.1l-.098-1.05c-.032.024-.4-.005-.912.034a64.45 64.45 0 0 1-2.93.14c-1.37.04-2.233 1.5-1.597 2.716a13.727 13.727 0 0 0 1.875 2.735c8.51 9.642-1.19 21.646 6.963 23.701 3.226.814 5.982.421 7.613-.373.007.04.013.081.017.122.152 1.598-3.878 3.531-9.191 2.191-8.153-2.055 1.547-14.06-6.963-23.701-1.922-2.177-2.98-4.787-3.466-7.526a21.751 21.751 0 0 1-.28-2.353 1.46 1.46 0 0 1 1.048-.385c.179.007.407.01.67.008 1.969-.007 5.987-.203 7.099-.358.297-.042.599.007.867.14l-.254-2.717a1.222 1.222 0 0 1 1.1-1.325l11.652-1.087a1.22 1.22 0 0 1 1.325 1.099l.196 2.094c.028 0 .057-.002.085 0 1.33.049 2.497-.124 3.622-.286.12.989.187 1.984.201 2.98Z" fill="#371A45"/><path opacity=".3" d="M46.79 68.177a22.4 22.4 0 0 0 .159 1.561c-.264 0-.49 0-.67-.008a1.46 1.46 0 0 0-1.049.385c-.586-8.83 3.748-18.086 3.748-18.086l.745.02c-1.223 3.184-3.355 9.767-2.932 16.128Z" fill="#371A45"/><path d="M59.418 104.743a14.864 14.864 0 0 1-3.624-.464c-4.456-1.124-4.165-4.901-3.825-9.276.34-4.39.762-9.85-3.44-14.61-3.624-4.107-4.782-10.374-3.348-18.123 1.07-5.79 3.166-10.304 3.254-10.494a.591.591 0 0 1 .561-.345l19.93.526a.6.6 0 0 1 .546.39c.208.556 5.056 13.69 3.752 20.88-.774 4.267-2.99 6.516-4.714 7.651a9.913 9.913 0 0 1-2.916 1.31c1.974 6.13-1.446 14.11-2.499 16.331.907.431 2.49 1.396 2.636 2.928.04.423-.075 1.068-.855 1.738-1.013.87-2.976 1.558-5.458 1.558ZM49.363 52.642c-.512 1.177-2.135 5.136-3.007 9.87-.947 5.135-1.182 12.266 3.072 17.085 4.538 5.141 4.093 10.884 3.736 15.497-.363 4.694-.397 7.183 2.924 8.02 3.985 1.005 6.97.048 8.004-.84.295-.253.46-.519.441-.712-.107-1.116-1.808-1.943-2.454-2.168a.6.6 0 0 1-.337-.844c.052-.1 5.113-10.013 2.495-16.585a.6.6 0 0 1 .487-.819c.242-.03 5.993-.832 7.317-8.134 1.126-6.21-2.77-17.642-3.559-19.866l-19.12-.504Z" fill="#371A45"/><path d="m55.505 51.432-.577.756-2.32 3.04-2.265 2.967-3.185 4.173s-.564.188-1.467.44c-2.276.636-6.709 1.674-9.692 1.103-7.797-1.492-10.213-6.882-8.857-9.74 1.43-3.01 6.584-.82 8.313.022a7.62 7.62 0 0 0 1.734.607c2.213.476 4.717.377 7.148 0a37.804 37.804 0 0 0 3.826-.808c.362-.094.716-.193 1.06-.291a51.575 51.575 0 0 0 4.541-1.543c1.063-.417 1.706-.71 1.74-.726Z" fill="#fff"/><path opacity=".3" d="M47.158 62.368S40.164 64.708 36 63.91c-7.797-1.492-10.213-6.881-8.857-9.74a2.472 2.472 0 0 1 1.059-1.139c.093 2.91 2.875 6.697 9.212 7.909 2.368.453 5.65-.108 8.041-.677 1.227-.292 2.244.965 1.704 2.104Z" fill="#371A45"/><path d="M37.974 64.677c-.735 0-1.441-.052-2.087-.175-4.253-.814-7.523-2.92-8.972-5.78-.852-1.683-.967-3.436-.316-4.808a3.085 3.085 0 0 1 1.83-1.638c2.254-.79 5.535.526 7.29 1.379.508.25 1.044.437 1.597.559 7.206 1.552 17.834-3.278 17.94-3.328a.603.603 0 0 1 .808.29.6.6 0 0 1-.306.802c-.45.206-11.102 5.044-18.696 3.41a8.257 8.257 0 0 1-1.869-.654c-.997-.484-4.4-2.014-6.367-1.325-.53.186-.904.52-1.141 1.02-.485 1.02-.372 2.42.301 3.75 1.28 2.524 4.243 4.4 8.126 5.143 3.962.758 10.787-1.5 10.855-1.523a.6.6 0 0 1 .381 1.139c-.247.081-5.254 1.74-9.374 1.74Z" fill="#371A45"/><path d="M80.838 37.046c.368 3.681-.987 6.83-3.027 7.033l-3.125.312c.558-.056 1.067-.333 1.501-.782.59-.608 1.044-1.53 1.314-2.643.256-1.064.342-2.302.21-3.609-.132-1.306-.459-2.503-.92-3.494-.485-1.04-1.113-1.854-1.81-2.333-.515-.355-1.069-.526-1.627-.47l3.125-.312c2.04-.204 3.991 2.616 4.36 6.298Z" fill="#fff"/><path d="M74.686 44.477a.086.086 0 0 1-.009-.171c.526-.053 1.015-.308 1.448-.757.578-.596 1.024-1.495 1.292-2.604.263-1.087.335-2.325.21-3.579-.124-1.254-.44-2.454-.911-3.467-.482-1.034-1.097-1.83-1.78-2.298-.515-.355-1.042-.51-1.57-.456a.089.089 0 0 1-.094-.077.086.086 0 0 1 .077-.094l3.125-.312c2.086-.205 4.08 2.652 4.453 6.375.179 1.794-.04 3.522-.618 4.863-.584 1.358-1.467 2.163-2.486 2.264l-3.124.312h-.01l-.003.001Zm-.469-13.415c.29.09.565.224.814.4.708.486 1.344 1.304 1.838 2.366.48 1.031.802 2.25.929 3.523.127 1.273.053 2.53-.214 3.636-.275 1.139-.737 2.066-1.335 2.683-.209.22-.451.407-.718.552l2.272-.226c.954-.096 1.788-.863 2.346-2.162.565-1.315.78-3.012.604-4.778-.363-3.629-2.273-6.418-4.264-6.221l-2.272.226Z" fill="#371A45"/><path opacity=".3" d="M80.915 37.594c.077 3.112-1.117 5.626-2.91 5.86l-3.116.405c.556-.073 1.057-.365 1.477-.827.571-.625.998-1.56 1.234-2.682.147-.723.216-1.46.205-2.199l.079.04c.99.498 2.173.266 2.949-.528a.377.377 0 0 1 .082-.069Z" fill="#371A45"/><path d="M74.685 44.992a.601.601 0 0 1-.059-1.198c.403-.04.782-.243 1.128-.602.507-.523.919-1.362 1.162-2.367.249-1.032.317-2.21.198-3.408-.12-1.198-.421-2.338-.868-3.3-.437-.938-1.007-1.68-1.606-2.092-.412-.284-.824-.408-1.227-.367a.601.601 0 0 1-.119-1.196l3.126-.311c2.403-.238 4.607 2.762 5.013 6.836.188 1.88-.045 3.698-.657 5.12-.661 1.537-1.694 2.451-2.907 2.572l-3.126.312a.589.589 0 0 1-.058 0Zm1.118-13.573c.588.539 1.112 1.285 1.533 2.19.505 1.083.841 2.359.974 3.689s.055 2.647-.225 3.808c-.235.97-.6 1.805-1.07 2.45l.735-.074c.76-.076 1.443-.734 1.924-1.853.532-1.236.733-2.843.565-4.523-.328-3.29-2.024-5.929-3.7-5.76l-.736.073Z" fill="#371A45"/><g opacity=".35"><path opacity=".35" d="M71.67 23.025c-6.394-6.643-15.637-5.377-15.637-5.377s-9.31.585-14.267 8.362c-3.902 6.122-3.639 12.843-2.651 17.568.976 4.68 3.92 8.695 8.072 10.856 3.126 1.627 7.411 2.931 12.75 2.4h.007c5.338-.534 9.283-2.662 12.028-4.874 3.643-2.94 5.739-7.458 5.77-12.24.033-4.828-1.037-11.466-6.072-16.695Z" fill="#fff"/><path opacity=".35" d="M57.52 57.042c-3.66 0-7.138-.848-10.371-2.53-4.165-2.168-7.123-6.149-8.118-10.917-.966-4.621-1.288-11.432 2.665-17.632 4.921-7.723 14.239-8.395 14.332-8.4.087-.013 9.353-1.195 15.704 5.403 5.097 5.294 6.129 12.033 6.097 16.755-.033 4.87-2.147 9.356-5.802 12.306-3.463 2.792-7.525 4.438-12.074 4.893-.819.081-1.63.122-2.432.122Zm.308-39.398c-1.089 0-1.758.086-1.783.09-.099.006-9.33.674-14.206 8.323-3.92 6.15-3.6 12.914-2.64 17.504.984 4.718 3.91 8.654 8.03 10.799 3.91 2.036 8.184 2.84 12.7 2.39 4.523-.452 8.555-2.086 11.99-4.856 3.616-2.918 5.707-7.355 5.739-12.173.031-4.69-.992-11.384-6.049-16.635-4.614-4.794-10.783-5.443-13.78-5.443v.001Z" fill="#371A45"/></g><path d="M58.634 54.284c-3.073 0-5.99-.65-8.7-1.944-3.601-1.714-6.146-4.898-6.981-8.734-.8-3.666-1.03-9.08 2.412-14.049 4.234-6.11 11.847-6.76 12.376-6.798.526-.068 8.119-.934 13.477 4.218 4.352 4.186 5.198 9.539 5.142 13.293-.058 3.922-1.925 7.546-5.122 9.944-2.98 2.233-6.46 3.564-10.343 3.954l-.024.003c-.754.075-1.5.113-2.237.113Zm.804-30.51a13.744 13.744 0 0 0-1.604.08c-.075.004-7.578.575-11.565 6.329-3.218 4.645-2.995 9.736-2.242 13.19.762 3.5 3.088 6.408 6.381 7.976 3.171 1.513 6.649 2.095 10.339 1.73l.023-.002c3.688-.368 6.99-1.627 9.81-3.742 2.923-2.192 4.629-5.502 4.683-9.08.053-3.537-.736-8.573-4.803-12.486-3.644-3.501-8.546-3.995-11.022-3.995Z" fill="#371A45"/><path d="M43.49 43.49c.787 3.618 3.225 6.709 6.68 8.355 2.604 1.242 6.178 2.224 10.646 1.78h.007c4.468-.446 7.778-2.119 10.086-3.849 3.065-2.299 4.847-5.81 4.902-9.513.056-3.738-.797-8.87-4.973-12.889-5.307-5.102-13.043-4.067-13.043-4.067s-7.787.514-11.98 6.565c-3.3 4.763-3.122 9.967-2.326 13.618Z" fill="#371A45"/><g opacity=".3"><path opacity=".3" d="M73.325 37.72c.523-2.076-.396-5.807-2.957-8.083-3.646-3.24-6.931-3.418-7.752-2.94-1.364.795-1.094 3.437 2.41 5.534 2.816 1.686 4.05 4.69 4.775 5.722.725 1.032 3.001 1.843 3.524-.233Z" fill="#fff"/><path opacity=".3" d="M71.828 39.613c-1.007 0-2.03-.62-2.518-1.315-.169-.24-.353-.561-.566-.93-.771-1.343-1.938-3.372-4.026-4.622-2.18-1.304-3.476-3.033-3.466-4.625.005-.844.392-1.552 1.061-1.942 1.068-.622 4.644-.378 8.454 3.009 2.689 2.39 3.723 6.365 3.14 8.678-.322 1.28-1.178 1.62-1.66 1.71a2.322 2.322 0 0 1-.419.037Zm-8.187-12.514c-.36 0-.61.052-.723.118-.381.222-.463.618-.465.912-.005.897.749 2.31 2.882 3.587 2.356 1.41 3.667 3.69 4.45 5.053.199.345.37.643.508.838.325.463 1.136.898 1.735.787.132-.024.532-.098.715-.821.433-1.72-.29-5.28-2.774-7.487-2.73-2.426-5.136-2.987-6.328-2.987Z" fill="#371A45"/></g><g opacity=".3"><path opacity=".3" d="M58.986 26.108c-.9-.95-2.809-1.206-4.55-.793-2.81.668-3.267 2.538-3.146 3.082.179.806 1.371 1.613 3.44.96 1.637-.514 2.867-.752 3.524-.7 1.346.107 1.503-1.737.733-2.55Z" fill="#fff"/><path opacity=".3" d="M53.314 30.194c-.61 0-1.16-.131-1.613-.393-.52-.3-.883-.765-.996-1.273-.195-.877.44-3.047 3.593-3.797 2.056-.488 4.116-.101 5.126.964.636.671.818 1.803.42 2.633-.304.638-.915.986-1.636.928-.276-.02-1.15 0-3.296.675-.56.176-1.1.263-1.598.263Zm2.733-4.468c-.496.001-.99.06-1.473.175-2.463.586-2.748 2.111-2.7 2.368.04.178.199.362.425.493.306.177 1.006.415 2.25.024 1.186-.373 2.8-.802 3.752-.726.23.018.366-.056.458-.248.178-.372.078-.987-.21-1.29-.484-.513-1.433-.796-2.502-.796Z" fill="#371A45"/></g><path d="M58.634 54.284c-3.073 0-5.99-.65-8.7-1.944-3.601-1.714-6.146-4.898-6.981-8.734-.8-3.666-1.03-9.08 2.412-14.049 4.234-6.11 11.847-6.76 12.377-6.798.526-.068 8.118-.934 13.477 4.218 4.351 4.186 5.197 9.539 5.141 13.293-.058 3.922-1.925 7.546-5.121 9.943-2.98 2.234-6.46 3.565-10.344 3.955l-.024.003c-.754.075-1.5.113-2.237.113Zm.804-30.51a13.757 13.757 0 0 0-1.604.08c-.076.004-7.578.575-11.566 6.329-3.217 4.645-2.994 9.736-2.241 13.19.762 3.5 3.088 6.408 6.38 7.976 3.172 1.513 6.65 2.095 10.34 1.73l.023-.002c3.688-.368 6.99-1.627 9.81-3.742 2.923-2.192 4.629-5.502 4.683-9.081.053-3.536-.736-8.573-4.803-12.485-3.644-3.501-8.546-3.995-11.022-3.995Z" fill="#371A45"/><path opacity=".3" d="M70.293 52.861c-.33.223-.68.44-1.046.654-1.805 1.047-4.039 1.953-6.743 2.406-.472.08-.958.146-1.458.195h-.007c-3.311.328-6.132-.126-8.43-.89a18.941 18.941 0 0 1-2.215-.89c-.401-.191-.792-.404-1.17-.637a11.275 11.275 0 0 1-.748-.497c-.096.232-.2.495-.312.788-1.26.335-2.538.605-3.826.808a14.877 14.877 0 0 0 2.84 1.999c.077.045.154.085.232.126.946.492 1.926.916 2.932 1.27 2.705.948 5.991 1.511 9.816 1.131h.01c1.65-.162 3.28-.498 4.859-1.003a22.1 22.1 0 0 0 5.027-2.344 22.516 22.516 0 0 0 2.139-1.528 14.964 14.964 0 0 0 2.143-2.12c-1.27.318-2.646.48-4.043.532Z" fill="#371A45"/><path d="M39.115 43.578c.977 4.68 3.92 8.695 8.072 10.856 3.127 1.627 7.412 2.931 12.749 2.401h.01c5.337-.534 9.282-2.663 12.025-4.873 3.644-2.94 5.739-7.46 5.772-12.24.032-4.827-1.04-11.465-6.074-16.695-6.395-6.645-15.634-5.38-15.634-5.38s-9.31.587-14.27 8.364c-3.9 6.121-3.638 12.842-2.65 17.567Zm6.701-13.709c4.193-6.05 11.98-6.564 11.98-6.564s7.735-1.035 13.043 4.067c4.177 4.018 5.03 9.15 4.974 12.889-.056 3.702-1.838 7.214-4.903 9.513-2.308 1.73-5.618 3.403-10.086 3.849h-.007c-4.468.444-8.04-.538-10.645-1.78-3.458-1.649-5.894-4.737-6.682-8.356-.797-3.648-.974-8.852 2.326-13.618Z" fill="#fff"/><path d="M57.523 57.042a22.22 22.22 0 0 1-10.375-2.53c-4.164-2.168-7.122-6.148-8.118-10.916-.966-4.622-1.288-11.43 2.663-17.632 4.925-7.724 14.242-8.396 14.335-8.401.087-.012 9.351-1.194 15.703 5.404C76.83 28.26 77.861 35 77.83 39.72c-.035 4.873-2.149 9.358-5.803 12.306-3.465 2.792-7.526 4.438-12.072 4.893-.819.081-1.63.122-2.431.122Zm.307-39.398c-1.09 0-1.76.086-1.785.09-.099.005-9.33.674-14.207 8.323-3.92 6.151-3.599 12.914-2.64 17.504.985 4.718 3.912 8.654 8.03 10.799 3.911 2.034 8.184 2.84 12.7 2.39 4.523-.451 8.553-2.085 11.991-4.856 3.614-2.915 5.706-7.352 5.74-12.173.031-4.69-.993-11.381-6.05-16.635-4.615-4.794-10.782-5.443-13.779-5.443Zm.804 36.177c-3.006 0-5.855-.636-8.5-1.898-3.472-1.653-5.926-4.72-6.729-8.415-.78-3.576-1.007-8.854 2.34-13.686 4.169-6.015 11.967-6.597 12.046-6.602.07-.01 7.83-.981 13.106 4.092 4.232 4.07 5.055 9.29 5 12.95-.056 3.78-1.856 7.27-4.937 9.581-2.915 2.186-6.323 3.487-10.129 3.867a22.29 22.29 0 0 1-2.197.11ZM45.886 29.92c-3.312 4.782-3.085 10.009-2.314 13.552.793 3.642 3.212 6.666 6.635 8.296 3.253 1.552 6.82 2.15 10.6 1.772 3.78-.377 7.16-1.667 10.05-3.833 3.038-2.28 4.812-5.722 4.868-9.446.054-3.628-.76-8.798-4.947-12.826-5.217-5.015-12.894-4.054-12.973-4.044-.083.006-7.8.583-11.92 6.529h.002Z" fill="#371A45"/><path opacity=".3" d="M39.115 43.578c.976 4.68 3.921 8.695 8.073 10.857 3.125 1.626 7.41 2.93 12.748 2.4h.008c5.338-.533 9.283-2.662 12.027-4.874 3.644-2.94 5.738-7.459 5.77-12.24a30.148 30.148 0 0 0-.062-2.186 15.965 15.965 0 0 1-2.093 4.844c-.567 2.897-2.205 5.542-4.678 7.397-2.309 1.731-5.618 3.404-10.086 3.85h-.007c-4.467.445-8.042-.538-10.646-1.781a12.194 12.194 0 0 1-5.743-5.654c-2.465-2.236-4.192-5.264-4.896-8.638-.312-1.479-.509-2.98-.588-4.49-.776 3.86-.442 7.575.173 10.515Z" fill="#371A45"/><path d="M57.52 57.557c-3.741 0-7.3-.868-10.61-2.59-4.3-2.24-7.356-6.346-8.383-11.266-.986-4.715-1.312-11.668 2.732-18.014 4.994-7.83 14.083-8.594 14.715-8.638.628-.082 9.689-1.13 16.128 5.56 5.218 5.42 6.275 12.298 6.241 17.114-.035 5.028-2.22 9.658-5.995 12.703-3.541 2.855-7.692 4.538-12.336 5.004l-.018.002c-.832.083-1.657.125-2.474.125Zm.31-39.398a14.784 14.784 0 0 0-1.759.088c-.09.006-9.07.67-13.799 8.087-3.826 6.005-3.51 12.625-2.57 17.122.954 4.566 3.783 8.373 7.763 10.446 3.819 1.987 7.992 2.773 12.403 2.336l.017-.002c4.412-.44 8.351-2.037 11.71-4.744 3.494-2.818 5.516-7.11 5.548-11.776.031-4.593-.968-11.145-5.906-16.274-4.484-4.658-10.5-5.283-13.407-5.283Z" fill="#371A45"/><path d="M58.634 54.284c-3.073 0-5.99-.65-8.7-1.944-3.601-1.714-6.146-4.898-6.981-8.734-.8-3.666-1.03-9.08 2.412-14.049 4.234-6.11 11.847-6.76 12.377-6.798.526-.068 8.118-.934 13.477 4.218 4.351 4.186 5.197 9.539 5.141 13.293-.058 3.922-1.925 7.546-5.121 9.943-2.98 2.234-6.46 3.565-10.344 3.955l-.024.003c-.754.075-1.5.113-2.237.113Zm.804-30.51a13.757 13.757 0 0 0-1.604.08c-.076.004-7.578.575-11.566 6.329-3.217 4.645-2.994 9.736-2.241 13.19.762 3.5 3.088 6.408 6.38 7.976 3.172 1.513 6.65 2.095 10.34 1.73l.023-.002c3.688-.368 6.99-1.627 9.81-3.742 2.923-2.192 4.629-5.502 4.683-9.081.053-3.536-.736-8.573-4.803-12.485-3.644-3.501-8.546-3.995-11.022-3.995Z" fill="#371A45"/><path d="M68.922 69.135c1.54.028 3.08-.081 4.601-.328a1.491 1.491 0 0 0 1.209-1.839 1.49 1.49 0 0 0-1.651-1.105c-1.26.175-2.56.405-4.062.35a1.464 1.464 0 0 0-1.508 1.679 1.46 1.46 0 0 0 1.411 1.243Z" fill="#fff"/><path d="M69.419 69.226c-.179 0-.345-.002-.499-.006a1.548 1.548 0 1 1 .102-3.093c1.3.048 2.444-.118 3.551-.278.166-.025.331-.048.496-.07a1.574 1.574 0 0 1 .468 3.114c-1.362.22-2.739.33-4.118.333Zm-.456-2.929a1.382 1.382 0 0 0-1.365 1.16 1.374 1.374 0 0 0 1.325 1.592c1.535.028 3.07-.081 4.586-.327a1.41 1.41 0 0 0 1.165-1.155 1.402 1.402 0 0 0-1.582-1.62l-.495.07c-1.115.162-2.268.328-3.583.281h-.05Z" fill="#371A45"/><path opacity=".3" d="M74.682 66.811a1.488 1.488 0 0 1-1.16 1.995c-1.52.248-3.06.358-4.6.329a1.46 1.46 0 0 1-1.41-1.245 1.442 1.442 0 0 1 .119-.831 1.459 1.459 0 0 0 1.274.81c1.54.03 3.08-.08 4.602-.327a1.492 1.492 0 0 0 1.121-.858c.02.043.038.085.054.127Z" fill="#371A45"/><path d="M69.418 69.666c-.182 0-.351-.002-.508-.006a1.987 1.987 0 1 1 .128-3.973c1.26.046 2.384-.117 3.47-.274.168-.024.333-.048.498-.07a2.015 2.015 0 0 1 .6 3.984 26.473 26.473 0 0 1-4.188.339Zm-.454-2.928a.947.947 0 0 0-.707.315.935.935 0 0 0 .676 1.556c1.509.028 3.017-.08 4.506-.322a.963.963 0 0 0-.286-1.904l-.492.07c-1.134.165-2.306.334-3.661.285h-.036Z" fill="#371A45"/><path d="M46.183 71.28c1.045.022 6.385-.017 8.31-.329a1.492 1.492 0 0 0 1.208-1.838 1.49 1.49 0 0 0-1.651-1.106c-1.26.175-6.265.405-7.768.35a1.465 1.465 0 0 0-1.508 1.679 1.46 1.46 0 0 0 1.41 1.243Z" fill="#fff"/><path opacity=".3" d="M55.65 68.956a1.49 1.49 0 0 1-1.16 1.995c-1.923.312-7.262.35-8.307.328a1.46 1.46 0 0 1-1.291-2.075 1.458 1.458 0 0 0 1.274.81c1.045.023 6.385-.016 8.31-.327a1.492 1.492 0 0 0 1.121-.858l.053.127Z" fill="#371A45"/><path d="M46.934 71.81c-.33 0-.593-.001-.764-.005a1.986 1.986 0 1 1 .128-3.973c1.468.053 6.419-.17 7.676-.346a2.015 2.015 0 0 1 .6 3.985c-1.659.268-5.753.34-7.64.34Zm-.71-2.928a.945.945 0 0 0-.706.316.934.934 0 0 0 .676 1.555c1.087.024 6.36-.022 8.212-.321a.963.963 0 0 0-.286-1.904c-1.29.18-6.36.41-7.86.354h-.035Z" fill="#371A45"/><path d="m56.6 73.11 11.652-1.086a1.22 1.22 0 0 0 1.1-1.325l-.614-6.58a1.221 1.221 0 0 0-1.325-1.099L55.76 64.107a1.22 1.22 0 0 0-1.099 1.325l.613 6.581a1.222 1.222 0 0 0 1.326 1.098Z" fill="#fff"/><path d="M56.485 73.202a1.306 1.306 0 0 1-1.297-1.183l-.613-6.579a1.305 1.305 0 0 1 1.176-1.418l11.653-1.087a1.306 1.306 0 0 1 1.418 1.176l.614 6.58a1.305 1.305 0 0 1-1.177 1.418l-11.652 1.087c-.04.004-.081.006-.122.006Zm11.041-10.1c-.035 0-.07 0-.105.004l-11.652 1.087a1.134 1.134 0 0 0-1.022 1.232l.614 6.579a1.135 1.135 0 0 0 1.232 1.022l11.652-1.087a1.133 1.133 0 0 0 1.022-1.232l-.614-6.579a1.135 1.135 0 0 0-1.126-1.026Z" fill="#371A45"/><path d="M56.485 73.642a1.746 1.746 0 0 1-1.734-1.582l-.614-6.579a1.746 1.746 0 0 1 1.574-1.898l11.652-1.087a1.746 1.746 0 0 1 1.898 1.574l.614 6.58a1.746 1.746 0 0 1-1.574 1.897l-11.653 1.087a1.72 1.72 0 0 1-.163.008Zm11.04-10.1c-.02 0-.042 0-.064.002L55.81 64.631a.692.692 0 0 0-.624.753l.613 6.58a.693.693 0 0 0 .753.624L68.203 71.5a.693.693 0 0 0 .625-.753l-.614-6.579a.696.696 0 0 0-.688-.627Z" fill="#371A45"/><path opacity=".3" d="m69.218 69.278.133 1.42a1.222 1.222 0 0 1-1.1 1.327L56.6 73.112a1.22 1.22 0 0 1-1.325-1.099l-.614-6.58a1.224 1.224 0 0 1 .701-1.217l.481 5.16a1.222 1.222 0 0 0 1.326 1.098l11.652-1.087c.138-.013.272-.05.397-.109Z" fill="#371A45"/><path d="m58.93 72.97 11.652-1.088a1.222 1.222 0 0 0 1.099-1.325l-.614-6.58a1.22 1.22 0 0 0-1.325-1.098L58.09 63.965a1.221 1.221 0 0 0-1.1 1.326l.614 6.579a1.221 1.221 0 0 0 1.325 1.1Z" fill="#fff"/><path d="M58.815 73.06a1.305 1.305 0 0 1-1.297-1.182l-.613-6.58a1.306 1.306 0 0 1 1.176-1.418l11.653-1.087a1.307 1.307 0 0 1 1.418 1.177l.614 6.579a1.305 1.305 0 0 1-1.177 1.419l-11.652 1.087c-.04.004-.081.005-.122.005Zm11.04-10.1c-.034 0-.07 0-.104.005L58.099 64.05a1.135 1.135 0 0 0-1.022 1.232l.613 6.58a1.133 1.133 0 0 0 1.232 1.021l11.652-1.087a1.133 1.133 0 0 0 1.022-1.231l-.613-6.58a1.136 1.136 0 0 0-1.127-1.026Z" fill="#371A45"/><path d="M58.815 73.5a1.745 1.745 0 0 1-1.734-1.581l-.614-6.58a1.747 1.747 0 0 1 1.574-1.897l11.652-1.087a1.746 1.746 0 0 1 1.898 1.574l.614 6.579a1.745 1.745 0 0 1-1.575 1.898l-11.652 1.087a1.72 1.72 0 0 1-.163.007Zm11.04-10.1a.66.66 0 0 0-.064.003L58.14 64.49a.694.694 0 0 0-.625.752l.614 6.58a.69.69 0 0 0 .753.624l11.652-1.087a.693.693 0 0 0 .624-.753l-.613-6.579a.696.696 0 0 0-.689-.627Z" fill="#371A45"/><path d="M43.697 26.768c-.016.079-.035.157-.053.234a7.183 7.183 0 0 1-.79 1.943 7.108 7.108 0 0 1-13.026-2 7.08 7.08 0 0 1-.037-3.078 7.086 7.086 0 0 1 .934-2.324l.013-.02a7.076 7.076 0 0 1 .689-.916 7.106 7.106 0 0 1 12.422 4.728 7.088 7.088 0 0 1-.152 1.433Z" fill="#37DBD0"/><path d="M43.863 25.35a4.645 4.645 0 0 0-.914-.54c-.55-.25-1.14-.412-1.74-.532a19.82 19.82 0 0 0-1.827-.26c-.615-.063-1.235-.112-1.856-.166a48.7 48.7 0 0 1-1.868-.191c-.627-.08-1.25-.191-1.866-.334a18.053 18.053 0 0 1-1.826-.526 15.076 15.076 0 0 1-1.55-.634l-.014-.006c.035-.07.07-.143.11-.21.072-.134.148-.264.228-.391l.013-.02.185.094a13.64 13.64 0 0 0 1.255.54 17.3 17.3 0 0 0 1.747.554c.592.155 1.192.28 1.797.373.609.094 1.224.169 1.84.24.618.07 1.238.137 1.859.218.621.081 1.243.175 1.858.316.616.14 1.23.327 1.808.608.261.126.512.274.748.442.01.14.014.283.013.426ZM41.156 30.914a7.103 7.103 0 0 1-10.795-2.492l2.283.93c1.431.581 2.962.879 4.508.876a11.877 11.877 0 0 1 4.004.685ZM43.032 22.002l-.846-.413a12.624 12.624 0 0 0-4.885-1.26 12.602 12.602 0 0 1-4.069-.897l-.262-.105a7.105 7.105 0 0 1 10.062 2.676ZM43.806 23.871a8.95 8.95 0 0 0-.253-.105 10.23 10.23 0 0 0-1.066-.372l-.226-.062a39.643 39.643 0 0 0-.456-.122 26.598 26.598 0 0 0-1.832-.419 62.912 62.912 0 0 0-1.87-.31c-.63-.097-1.26-.19-1.892-.282a20.257 20.257 0 0 1-1.899-.374 15.544 15.544 0 0 1-.932-.258 39.21 39.21 0 0 1-1.834-.625c-.129-.05-.258-.097-.388-.147.107-.14.218-.275.334-.405a8.28 8.28 0 0 0 1.1.517c.293.112.592.21.896.294.304.083.61.16.916.227.615.13 1.238.221 1.865.274.635.055 1.27.103 1.906.155.318.025.638.052.957.082.32.03.64.065.961.105.642.087 1.284.204 1.911.35l.47.111.117.028c.039.01.077.018.119.03a7.296 7.296 0 0 1 .834.275c.113.337.2.683.262 1.033ZM42.869 28.962a6.631 6.631 0 0 1-.276.427 9.274 9.274 0 0 0-.86-.38 10.872 10.872 0 0 0-.994-.326 18.85 18.85 0 0 0-1.017-.251 16.722 16.722 0 0 0-2.069-.304c-.703-.062-1.407-.114-2.113-.172a85.124 85.124 0 0 1-1.06-.091 22.504 22.504 0 0 1-3.184-.507c-.175-.04-.348-.08-.52-.123l-.131-.03c-.044-.011-.085-.02-.132-.034a7.268 7.268 0 0 1-.672-.209 6.99 6.99 0 0 1-.168-1.087 11.335 11.335 0 0 0 1.086.375l.25.07c.169.046.338.092.507.135.677.176 1.348.338 2.03.464.683.127 1.378.237 2.075.345.697.107 1.396.21 2.096.312.354.054.707.114 1.059.182.35.07.7.149 1.047.234.346.085.691.18 1.033.285.341.106.68.217 1.019.333.333.113.664.23.994.352ZM43.659 27.02c-.07.288-.159.572-.264.849-.49-.249-.99-.488-1.492-.707-.145-.061-.288-.126-.435-.184l-.218-.089-.22-.085c-.146-.058-.294-.107-.441-.161a7.649 7.649 0 0 0-.446-.145 10.567 10.567 0 0 0-1.823-.395c-.62-.08-1.256-.108-1.901-.153a23.187 23.187 0 0 1-1.936-.207c-.64-.1-1.276-.233-1.904-.397a28.708 28.708 0 0 1-1.858-.547c-.306-.1-.611-.206-.914-.315l-.095-.035a5.93 5.93 0 0 1 .037-.26l.14.045a30.292 30.292 0 0 0 2.778.737c.62.134 1.247.236 1.878.306.631.07 1.262.103 1.901.12.639.015 1.285.015 1.942.07a11.36 11.36 0 0 1 1.954.333c.16.04.318.087.476.132.158.045.316.095.47.149l.233.078.232.082c.155.054.306.114.46.17.49.19.97.395 1.446.608Z" fill="#17BBB0"/><path opacity=".3" d="M43.713 26.784c-.016.078-.035.156-.053.234a7.118 7.118 0 0 1-1.065 2.37 7.108 7.108 0 0 1-12.75-2.426 7.082 7.082 0 0 1-.038-3.078c.085-.409.206-.809.36-1.196a7.141 7.141 0 0 0 .186 1.838 7.108 7.108 0 0 0 13.026 2c.186-.314.347-.641.483-.98-.013.416-.063.83-.15 1.238Z" fill="#371A45"/><path opacity=".6" d="M43.68 24.694c.015.132.026.265.034.399.008.125.012.253.011.38v.043a7.057 7.057 0 0 1-.394 2.312 6.981 6.981 0 0 0 .12-1.267v-.044a6.87 6.87 0 0 0-.046-.779 7.117 7.117 0 0 0-2.699-4.803 7.105 7.105 0 0 0-10.125 1.456l-.014.019a6.563 6.563 0 0 0-.374.581c-.224.389-.41.798-.557 1.222a6.562 6.562 0 0 1 .133-.584 7.098 7.098 0 0 1 1.074-2.264l.014-.02a7.36 7.36 0 0 1 .744-.874 7.107 7.107 0 0 1 11.88 3.174c.093.343.16.694.198 1.049Z" fill="#fff"/><path d="M36.775 32.922a7.585 7.585 0 1 1 7.41-6.039 7.592 7.592 0 0 1-7.409 6.04Zm-.029-14.21a6.621 6.621 0 0 0-2.098 12.899 6.622 6.622 0 1 0 2.098-12.9Z" fill="#371A45"/><path d="M87.656 23.374a7.002 7.002 0 0 1 .849 2.108 6.919 6.919 0 0 1-10.58 7.254 6.897 6.897 0 0 1-2.077-2.163 6.896 6.896 0 0 1-.885-2.273 6.665 6.665 0 0 1-.125-1.132 6.918 6.918 0 0 1 12.818-3.794Z" fill="#BD89E5"/><path d="M86.83 22.257a4.517 4.517 0 0 0-1.01.224 7.834 7.834 0 0 0-1.59.781c-.505.314-.99.668-1.47 1.033-.48.364-.951.742-1.428 1.117a45.97 45.97 0 0 1-1.454 1.108 17.66 17.66 0 0 1-3.196 1.847 15.254 15.254 0 0 1-1.298.51 5.28 5.28 0 0 1-.224.07l-.014.004a6.383 6.383 0 0 1-.162-.653l-.003-.022a12.933 12.933 0 0 0 1.445-.509 17.522 17.522 0 0 0 3.135-1.698 45.42 45.42 0 0 0 1.466-1.056c.485-.36.97-.726 1.465-1.082.495-.355 1-.7 1.532-1.013a8.045 8.045 0 0 1 1.688-.771c.27-.084.546-.146.826-.184.1.094.197.193.291.294ZM88.61 28.011a6.912 6.912 0 0 1-9.323 5.418l2.238-.86a11.583 11.583 0 0 0 3.786-2.38 11.559 11.559 0 0 1 3.3-2.178ZM84.01 20.433l-.877.27a12.276 12.276 0 0 0-4.308 2.358c-1.039.88-2.217 1.58-3.486 2.072l-.257.1a6.914 6.914 0 0 1 8.927-4.8ZM85.803 21.244a9.937 9.937 0 0 0-1.255.538l-.202.106c-.137.072-.272.144-.406.217-.54.294-1.066.593-1.578.923-.511.329-1.024.675-1.535 1.025-.511.35-1.022.703-1.53 1.058a19.139 19.139 0 0 1-3.284 1.835c-.287.13-.575.255-.867.378-.124.051-.248.105-.373.154a6.713 6.713 0 0 1-.033-.51 8.023 8.023 0 0 0 1.125-.364c.283-.117.56-.247.832-.389.272-.142.54-.292.802-.449a14.759 14.759 0 0 0 1.508-1.046c.487-.384.97-.772 1.456-1.16.243-.193.487-.386.734-.578a19.759 19.759 0 0 1 2.344-1.587c.135-.08.271-.158.407-.235l.102-.056c.035-.02.066-.039.105-.058a6.74 6.74 0 0 1 .775-.36c.305.163.596.35.873.558ZM88.527 25.483a7 7 0 0 1 .09.487 8.923 8.923 0 0 0-.865.303 10.47 10.47 0 0 0-.923.43c-.3.16-.596.324-.888.498-.58.352-1.139.74-1.671 1.16-.54.425-1.075.857-1.615 1.286-.269.215-.54.428-.813.641-.276.21-.552.421-.836.626-.569.405-1.161.787-1.763 1.134-.15.088-.3.174-.451.26l-.113.064c-.038.022-.074.043-.116.065a7.384 7.384 0 0 1-.616.299 6.83 6.83 0 0 1-.841-.66 10.366 10.366 0 0 0 1.02-.457l.222-.118.45-.24a29.24 29.24 0 0 0 1.752-1.024 67.685 67.685 0 0 0 1.701-1.136c.567-.389 1.133-.78 1.697-1.174a19.944 19.944 0 0 1 1.772-1.107c.304-.17.611-.332.924-.485.313-.152.627-.299.947-.442.308-.14.62-.277.936-.41ZM87.795 23.578c.142.251.269.511.379.778-.516.151-1.028.312-1.53.491-.144.053-.29.102-.432.159l-.214.082-.212.086c-.143.057-.28.12-.421.18-.14.06-.277.126-.413.193-.545.265-1.067.577-1.557.934-.493.356-.965.76-1.453 1.157-.488.397-.99.785-1.511 1.141-.522.356-1.065.687-1.617.989-.552.302-1.115.584-1.683.849-.284.132-.57.26-.86.386l-.09.038c-.05-.07-.098-.14-.146-.21l.13-.063c.281-.135.56-.274.836-.417a28.06 28.06 0 0 0 1.626-.908c.53-.318 1.043-.663 1.538-1.033.495-.37.966-.768 1.43-1.18.462-.414.922-.845 1.425-1.244a11.116 11.116 0 0 1 1.61-1.064c.14-.078.282-.15.425-.223.143-.074.287-.143.433-.207l.217-.1.22-.096c.145-.065.293-.123.44-.185.472-.193.95-.368 1.43-.534Z" fill="#945CC6"/><path opacity=".3" d="M88.539 28.582a7.095 7.095 0 0 1-.342 1.045 6.924 6.924 0 0 1-.828 1.454 6.918 6.918 0 0 1-11.883-6.909 6.87 6.87 0 0 0 .123 1.793 6.918 6.918 0 0 0 13.113 1.415 6.917 6.917 0 0 1-.183 1.203Z" fill="#371A45"/><path opacity=".41" d="M88.589 28.008a6.942 6.942 0 0 1-.584 1.915 6.933 6.933 0 0 0 .067-3.25 6.91 6.91 0 0 0-.85-2.107 6.887 6.887 0 0 0-1.14-1.415l-.03-.029a6.202 6.202 0 0 0-.582-.488 6.917 6.917 0 0 0-10.405 2.578 6.92 6.92 0 0 1 11.42-3.28l.03.028a6.907 6.907 0 0 1 1.636 2.394 6.947 6.947 0 0 1 .442 1.614c.1.677.098 1.364-.004 2.04Z" fill="#fff"/><path d="M81.788 34.375a7.452 7.452 0 0 1-4.377-1.422 7.348 7.348 0 0 1-1.952-2.127c-2.123-3.481-1.017-8.042 2.465-10.165a7.396 7.396 0 0 1 10.165 2.465c2.124 3.482 1.017 8.042-2.464 10.165a7.349 7.349 0 0 1-3.837 1.084Zm-.025-13.834a6.44 6.44 0 0 0-5.48 9.783 6.432 6.432 0 0 0 8.84 2.143 6.44 6.44 0 0 0 .446-10.69 6.39 6.39 0 0 0-2.279-1.052 6.476 6.476 0 0 0-1.528-.184Z" fill="#371A45"/><path d="M67.381 10.375a8.297 8.297 0 0 1-12.029 7.985c1.927-.832 4.115-2.024 6.341-3.502 2.226-1.478 4.174-3.032 5.688-4.483Z" fill="#FFB200"/><path d="M59.116 19.74a8.845 8.845 0 0 1-3.981-.95.483.483 0 0 1 .026-.873c1.969-.85 4.137-2.048 6.265-3.462 2.128-1.413 4.073-2.945 5.621-4.43a.482.482 0 0 1 .815.316 8.784 8.784 0 0 1-8.746 9.398Zm-2.564-1.394a7.818 7.818 0 0 0 10.349-6.871c-1.433 1.282-3.122 2.577-4.943 3.786-1.821 1.21-3.667 2.261-5.406 3.085ZM60.88 6.989c-.081 0-.16-.02-.231-.06a5.646 5.646 0 0 0-.456-.223.482.482 0 0 1 .386-.884c.182.08.362.167.534.262a.482.482 0 0 1-.233.905Z" fill="#371A45"/><path d="M61.692 14.858c2.226-1.477 4.173-3.032 5.689-4.484.024.339.026.678.008 1.017-1.156 1.168-3.063 2.686-5.325 4.188-2.167 1.438-4.221 2.57-5.73 3.202a8.282 8.282 0 0 1-.982-.42c1.926-.833 4.115-2.025 6.34-3.503Z" fill="#D66B09"/><path d="M66.017 6.37c.19.288.364.587.518.896-1.157 1.294-3.541 3.23-6.454 5.163-2.913 1.933-5.623 3.38-7.264 3.944a8.384 8.384 0 0 1-1.364-2.203l-.016-.04a8.298 8.298 0 0 1 13.598-8.977 8.236 8.236 0 0 1 .92 1.128c.02.027.041.059.062.09Z" fill="#FFB200"/><path d="m65.954 6.28.062.09c.19.288.364.587.518.896-1.157 1.294-3.541 3.23-6.454 5.163-2.913 1.933-5.623 3.38-7.264 3.944a8.386 8.386 0 0 1-.651-.866c1.572-.437 4.34-1.861 7.307-3.832 3.086-2.048 5.543-4.126 6.482-5.395ZM51.02 12.993l-.07-.645c1.118-.123 3.878-1.523 6.711-3.404 3.378-2.244 5.475-4.203 5.8-4.98l.598.25c-.436 1.044-2.863 3.163-6.039 5.271-2.957 1.963-5.771 3.373-7 3.508ZM50.983 10.14l-.197-.62c1.221-.389 3.272-1.489 5.351-2.87 2.179-1.446 4.022-2.95 4.81-3.923l.505.409c-.827 1.021-2.726 2.575-4.956 4.056-2.126 1.411-4.238 2.54-5.513 2.947Z" fill="#D66B09"/><path d="m51.487 14.453-.101-.642c1.276-.201 4.127-1.66 7.095-3.63 3.112-2.067 5.651-4.23 6.175-5.263l.579.294c-.578 1.14-3.148 3.354-6.395 5.51-3.086 2.049-5.972 3.513-7.353 3.731ZM57.683 19.285l-.037-.158-.105-.123.03-.026.038-.01c1.091-.259 3.09-1.284 5.088-2.611 2.01-1.335 3.684-2.735 4.367-3.656l.26.194c-.703.946-2.408 2.378-4.447 3.732-2.06 1.367-4.05 2.386-5.194 2.658Z" fill="#D66B09"/><path d="M59.1 19.736a8.779 8.779 0 0 1-3.966-.946.481.481 0 0 1 .027-.873c1.97-.85 4.137-2.047 6.265-3.461 2.128-1.414 4.073-2.945 5.622-4.43a.482.482 0 0 1 .814.315 8.778 8.778 0 0 1-8.761 9.396Zm-2.547-1.389a7.815 7.815 0 0 0 10.349-6.872c-1.434 1.283-3.123 2.577-4.944 3.787-1.82 1.209-3.667 2.26-5.405 3.084v.001Z" fill="#371A45"/><path opacity=".3" d="M67.381 10.375a8.297 8.297 0 0 1-12.029 7.985c1.927-.832 4.115-2.024 6.341-3.502 2.226-1.478 4.174-3.032 5.688-4.483Z" fill="#371A45"/><path d="M70.588 4.746c.672 1.013-.649 3.175-3.207 5.628-1.514 1.452-3.463 3.007-5.688 4.484-2.226 1.478-4.414 2.67-6.34 3.502-3.254 1.406-5.76 1.784-6.432.772-.61-.92.422-2.787 2.532-4.96.137.326.294.642.471.947-.575.65-.832 1.134-.677 1.367.154.234.72.182 1.57-.11 1.64-.566 4.352-2.014 7.263-3.947 2.912-1.933 5.298-3.869 6.454-5.163.598-.67.867-1.167.71-1.404-.157-.237-.7-.184-1.522.094a8.26 8.26 0 0 0-.688-.801c2.822-1.101 4.943-1.329 5.554-.409Z" fill="#FFD766"/><path d="M51.286 17.566c-.505 0-.77-.156-.904-.357-.336-.506.049-1.354 1.177-2.594l.36.328c-1.049 1.151-1.265 1.795-1.131 1.996.17.256 1.334.329 4.523-1.232 1.553-.76 3.286-1.767 5.01-2.913 1.726-1.145 3.327-2.351 4.629-3.488 2.676-2.333 3.061-3.436 2.891-3.691-.133-.201-.81-.252-2.279.268l-.163-.46c1.58-.558 2.511-.584 2.847-.077.332.5.086 1.657-2.976 4.327-1.32 1.15-2.938 2.37-4.681 3.527-1.742 1.157-3.495 2.174-5.067 2.945-2.184 1.071-3.478 1.42-4.236 1.42Z" fill="#FFEC90"/><path d="M50.793 18.767c-.79 0-1.15-.26-1.314-.509-.631-.948.698-2.683 1.924-3.97l.353.335c-1.17 1.227-2.275 2.758-1.872 3.366.327.493 1.926.51 5.356-1.06 1.778-.815 3.746-1.93 5.69-3.219 1.945-1.29 3.734-2.672 5.174-3.994 2.78-2.552 3.384-4.032 3.057-4.523-.403-.608-2.242-.183-3.828.418l-.172-.456c1.662-.63 3.776-1.18 4.406-.232.35.528.41 1.9-3.133 5.154-1.46 1.34-3.27 2.737-5.234 4.041-1.966 1.305-3.957 2.428-5.757 3.253-2.318 1.062-3.759 1.396-4.65 1.396Z" fill="#FFEC90"/><path d="M50.44 20.184c-.842 0-1.543-.216-1.92-.786-.945-1.422.886-3.81 2.588-5.562a.48.48 0 0 1 .79.148c.128.306.277.603.443.89a.482.482 0 0 1-.055.561c-.304.344-.456.57-.529.709.162-.015.442-.068.903-.227 1.655-.568 4.396-2.058 7.153-3.89 2.757-1.83 5.195-3.778 6.361-5.083.325-.364.483-.601.561-.744-.156.014-.423.065-.858.21a.481.481 0 0 1-.539-.166 7.796 7.796 0 0 0-.648-.755.482.482 0 0 1 .17-.786c2.275-.888 5.186-1.648 6.13-.226 1.096 1.65-1.581 4.62-3.274 6.243-1.59 1.526-3.581 3.095-5.755 4.54-2.174 1.445-4.395 2.67-6.416 3.541-1.41.61-3.513 1.383-5.105 1.383Zm.88-5.167c-1.814 1.992-2.325 3.354-2 3.847.392.59 2.385.546 5.84-.946 1.969-.851 4.137-2.048 6.265-3.462 2.128-1.413 4.073-2.945 5.621-4.43 2.715-2.604 3.53-4.424 3.139-5.014-.328-.493-1.782-.551-4.32.347l.029.035c.686-.2 1.42-.297 1.75.2.388.585-.198 1.372-.752 1.992-1.235 1.382-3.681 3.342-6.546 5.244-2.866 1.902-5.621 3.396-7.374 3.997-.787.27-1.74.505-2.128-.08-.33-.497.043-1.136.495-1.691l-.02-.039Z" fill="#371A45"/><path opacity=".3" d="M66.535 7.266c-1.157 1.294-3.541 3.23-6.454 5.163-2.913 1.933-5.623 3.38-7.264 3.944a8.428 8.428 0 0 1-.624-.825l-.027-.04a8.306 8.306 0 0 1-.713-1.338l-.016-.04a8.303 8.303 0 0 1 1.984-9.218 8.326 8.326 0 0 0-.526 5.056c.105.5.257.99.453 1.462l.017.04.028.063c.64 1.342 2.25 1.69 3.692 1.327 2.748-.695 8.268-4.914 9.431-5.87.124.204-.086.067.019.276Z" fill="#371A45"/><path opacity=".6" d="M66.534 7.61c-.135.15-.285.309-.453.476a8.381 8.381 0 0 0-.362-.6l-.061-.09a8.347 8.347 0 0 0-.92-1.125l-.09-.089a8.301 8.301 0 0 0-13.427 2.529 8.294 8.294 0 0 1 14.733-2.09 8.394 8.394 0 0 1 .58.988Z" fill="#fff"/><path d="M52.817 16.856a.482.482 0 0 1-.365-.168 8.859 8.859 0 0 1-1.443-2.328 8.782 8.782 0 0 1 14.37-9.541 8.83 8.83 0 0 1 1.587 2.232.483.483 0 0 1-.072.536c-1.235 1.382-3.682 3.343-6.547 5.244-2.865 1.902-5.62 3.396-7.373 3.997a.481.481 0 0 1-.157.028Zm6.288-13.711a7.817 7.817 0 0 0-6.132 12.661c1.674-.637 4.25-2.056 6.841-3.776 2.591-1.72 4.899-3.543 6.136-4.838a7.8 7.8 0 0 0-.611-.942 7.788 7.788 0 0 0-6.234-3.102v-.003Z" fill="#371A45"/><path opacity=".3" d="M61.556 14.949c-2.178 1.438-4.317 2.595-6.204 3.411-3.253 1.406-5.759 1.783-6.431.772-.61-.92.423-2.787 2.532-4.96.137.325.294.642.471.947-.575.65-.831 1.134-.677 1.367.154.234.72.182 1.57-.109 1.089-.374 2.648-1.137 4.425-2.174-.005.254.051.476.174.66.503.756 2.036.736 4.14.086Z" fill="#371A45"/><path d="M58.634 54.336c-3.08 0-6.005-.653-8.722-1.95-3.616-1.72-6.17-4.917-7.01-8.769-.802-3.676-1.032-9.104 2.42-14.089 4.242-6.123 11.868-6.781 12.413-6.82.542-.07 8.147-.932 13.518 4.232 4.365 4.199 5.214 9.567 5.158 13.33-.06 3.939-1.934 7.578-5.143 9.985-2.987 2.239-6.475 3.573-10.368 3.964l-.026.004c-.755.075-1.501.113-2.24.113ZM46.31 30.213c-3.207 4.628-2.985 9.706-2.234 13.148.759 3.486 3.075 6.381 6.353 7.942 3.162 1.507 6.631 2.09 10.31 1.726l.025-.003c3.679-.367 6.971-1.623 9.786-3.733 2.91-2.182 4.61-5.477 4.664-9.041.053-3.526-.737-8.547-4.79-12.447-5.027-4.833-12.47-3.914-12.546-3.905a.47.47 0 0 1-.04.004c-.074.005-7.553.576-11.525 6.308l-.003.001Z" fill="#371A45"/><path d="M40.863 41.036c.13 1.306.045 2.544-.21 3.608-.27 1.113-.724 2.035-1.314 2.643-.433.45-.942.727-1.501.782-2.038.204-3.989-2.615-4.356-6.296-.367-3.682.987-6.832 3.025-7.035.559-.056 1.113.115 1.627.47.697.479 1.326 1.294 1.81 2.333.46.992.789 2.189.92 3.495Z" fill="#fff"/><path d="M37.628 48.166c-.947 0-1.884-.61-2.665-1.74-.831-1.2-1.388-2.85-1.566-4.645-.18-1.794.04-3.522.617-4.864.584-1.359 1.466-2.163 2.485-2.264.569-.057 1.135.105 1.682.485.709.486 1.345 1.305 1.84 2.367.48 1.03.8 2.249.928 3.522.127 1.274.053 2.531-.214 3.637-.275 1.138-.736 2.066-1.335 2.683-.462.479-.986.751-1.555.806a1.848 1.848 0 0 1-.217.013Zm-.912-13.353a1.96 1.96 0 0 0-.203.01c-.953.095-1.786.863-2.344 2.162-.566 1.315-.78 3.013-.604 4.779.176 1.766.722 3.387 1.536 4.565.805 1.162 1.773 1.75 2.726 1.654.526-.052 1.015-.307 1.448-.756.577-.596 1.024-1.495 1.292-2.604.262-1.087.335-2.325.21-3.579-.125-1.254-.44-2.454-.912-3.467-.481-1.034-1.097-1.83-1.78-2.298-.45-.31-.909-.466-1.369-.466Z" fill="#371A45"/><path opacity=".3" d="M40.863 41.036c.13 1.306.044 2.544-.21 3.608-.27 1.113-.725 2.035-1.314 2.643-.433.45-.943.726-1.502.782-2.037.204-3.988-2.615-4.355-6.297-.04-.395-.059-.784-.06-1.164.518 2.174 2.2 3.7 4.022 3.518a3.056 3.056 0 0 0 1.52-.596c.605-.446 1.087-1.11 1.387-1.904a5.447 5.447 0 0 0 .344-1.736c.072.37.128.754.168 1.146Z" fill="#371A45"/><path d="M43.988 40.724c.368 3.681-.987 6.83-3.027 7.033l-3.125.312c.558-.055 1.068-.332 1.501-.782.59-.608 1.045-1.53 1.314-2.643.256-1.064.342-2.302.21-3.608-.132-1.307-.459-2.503-.92-3.495-.485-1.04-1.113-1.854-1.81-2.333-.515-.355-1.069-.526-1.627-.47l3.125-.312c2.04-.204 3.992 2.616 4.36 6.298Z" fill="#fff"/><path d="M37.836 48.155a.087.087 0 0 1-.086-.081.086.086 0 0 1 .078-.09c.526-.053 1.015-.307 1.448-.757.577-.596 1.024-1.495 1.292-2.604.262-1.087.335-2.325.21-3.579-.125-1.254-.441-2.454-.912-3.467-.481-1.034-1.097-1.829-1.78-2.298-.514-.355-1.041-.508-1.567-.456h-.003a.086.086 0 0 1-.09-.077.086.086 0 0 1 .073-.094l3.124-.312c2.083-.203 4.08 2.652 4.453 6.375.373 3.723-1.02 6.92-3.103 7.127l-3.126.313h-.01Zm-.468-13.417c.29.09.565.225.813.4.708.486 1.344 1.305 1.839 2.367.48 1.03.801 2.249.928 3.522.128 1.274.054 2.53-.214 3.637-.275 1.138-.736 2.066-1.335 2.683a2.88 2.88 0 0 1-.717.551l2.271-.226c1.989-.198 3.312-3.311 2.95-6.94-.362-3.629-2.276-6.418-4.264-6.22l-2.27.226Z" fill="#371A45"/><path opacity=".3" d="M44.01 40.969c.283 3.576-1.056 6.589-3.051 6.788l-3.126.312c.559-.056 1.068-.333 1.502-.782.589-.608 1.044-1.53 1.313-2.644.148-.611.16-3.143.185-3.85l.413.461c.768.86 2.158.736 2.745-.258l.018-.027Z" fill="#371A45"/><path d="M37.624 48.68c-1.118 0-2.205-.687-3.086-1.96-.88-1.274-1.467-3.008-1.654-4.888-.188-1.88.045-3.697.656-5.119.662-1.538 1.694-2.452 2.907-2.573.684-.07 1.385.13 2.027.574.783.538 1.48 1.428 2.013 2.573.505 1.083.842 2.358.974 3.689.133 1.33.055 2.647-.225 3.809-.297 1.227-.804 2.237-1.466 2.92-.541.56-1.19.894-1.873.962-.091.009-.182.014-.273.013Zm-.91-13.352c-.05 0-.1.003-.149.008-.758.075-1.441.733-1.922 1.852-.532 1.237-.733 2.844-.565 4.523.168 1.68.682 3.216 1.448 4.323.693 1.002 1.491 1.512 2.25 1.438.403-.04.783-.243 1.13-.602.506-.523.918-1.363 1.161-2.367.25-1.032.318-2.21.198-3.407-.12-1.198-.42-2.34-.867-3.301-.437-.938-1.007-1.68-1.606-2.091-.361-.25-.723-.376-1.078-.376Z" fill="#371A45"/><path d="M37.835 48.67a.6.6 0 0 1-.059-1.198c.403-.04.782-.244 1.128-.602.507-.523.919-1.363 1.162-2.367.249-1.032.318-2.21.198-3.407-.12-1.198-.42-2.34-.868-3.301-.436-.938-1.006-1.68-1.605-2.092-.411-.284-.823-.407-1.227-.368a.6.6 0 1 1-.12-1.195l3.126-.312c2.405-.24 4.608 2.762 5.014 6.837.406 4.072-1.16 7.45-3.565 7.69l-3.125.312a.566.566 0 0 1-.059.003Zm1.118-13.573c.588.538 1.112 1.285 1.533 2.19.505 1.083.842 2.359.974 3.69.133 1.33.055 2.646-.225 3.808-.235.97-.6 1.804-1.07 2.448l.735-.073c1.678-.168 2.818-3.088 2.49-6.377-.328-3.289-2.023-5.925-3.7-5.76l-.737.074ZM68.382 72.081a.438.438 0 0 1-.435-.395l-.357-3.597c-.011-.123-.152-.214-.322-.206-.635.033-1.181-.41-1.236-1l-.303-3.25a.439.439 0 1 1 .873-.081l.303 3.25c.011.123.151.215.322.206.637-.03 1.177.407 1.236.994l.356 3.598a.437.437 0 0 1-.437.481Z" fill="#371A45"/><path d="M62.793 68.27c.019.192-.105 1.776-.105 1.776l-1.1.105c-.756.073-1.445-.652-1.538-1.62-.092-.966.447-1.808 1.204-1.88l1.099-.106s.41 1.41.44 1.725Z" fill="#33AEF1"/><path d="M61.483 70.505c-.426 0-.835-.186-1.165-.534-.345-.362-.561-.862-.615-1.407a2.36 2.36 0 0 1 .336-1.499c.287-.448.707-.72 1.182-.765l1.1-.105a.35.35 0 0 1 .37.251c.07.24.42 1.459.45 1.788.02.202-.065 1.352-.102 1.837a.35.35 0 0 1-.316.322l-1.1.105c-.046.007-.093.007-.14.007Zm.614-3.584-.809.077c-.256.024-.49.183-.658.445-.185.29-.267.664-.229 1.054.037.39.188.742.425.991.215.226.474.337.73.312l.807-.076c.048-.659.09-1.312.082-1.424-.019-.174-.2-.85-.348-1.378v-.001Z" fill="#371A45"/><path d="M62.683 70.053c.757-.073 1.295-.915 1.203-1.882-.092-.966-.78-1.691-1.538-1.619-.757.072-1.296.915-1.203 1.881.092.967.78 1.692 1.538 1.62Z" fill="#33AEF1"/><path d="M62.586 70.4c-.893 0-1.679-.839-1.784-1.941-.11-1.157.57-2.174 1.518-2.264.476-.046.94.14 1.306.526.344.362.561.862.615 1.407a2.36 2.36 0 0 1-.337 1.499c-.286.448-.706.72-1.182.766-.045.007-.091.007-.136.007Zm-.128-3.51c-.024 0-.047 0-.07.003-.564.054-.962.727-.888 1.499.074.772.592 1.36 1.157 1.304.256-.025.49-.183.658-.445.185-.29.267-.664.23-1.054a1.67 1.67 0 0 0-.426-.992c-.196-.204-.428-.314-.661-.314v-.001Z" fill="#371A45"/><path opacity=".2" d="M62.106 116.727c17.302 0 31.328-1.545 31.328-3.451 0-1.905-14.026-3.45-31.328-3.45s-31.328 1.545-31.328 3.45c0 1.906 14.026 3.451 31.328 3.451Z" fill="#371A45"/></svg>