<svg width="120" height="120" viewBox="0 0 120 120" fill="none" xmlns="http://www.w3.org/2000/svg">
<g opacity="0.35">
<path opacity="0.35" d="M82.5992 34.2735C70.1827 28.1464 56.6259 26.1831 44.4263 28.7433C32.1092 31.3291 22.6412 38.2073 17.7668 48.1122C7.7607 68.444 20.5639 95.3181 46.3074 108.019C47.488 108.601 48.6781 109.146 49.8778 109.653C61.2903 114.48 73.4407 115.866 84.4808 113.549C96.7979 110.963 106.266 104.085 111.143 94.1799C121.145 73.849 108.343 46.9749 82.5992 34.2735Z" fill="#371A45"/>
</g>
<path d="M110.73 81.5978C110.3 83.9735 109.6 86.2922 108.644 88.5091C108.436 88.9918 108.215 89.4705 107.981 89.9453C103.202 99.6561 93.9242 106.02 82.736 108.496C78.6944 109.391 74.4029 109.777 69.9855 109.633C61.8078 109.363 53.1933 107.269 44.9153 103.181C38.7703 100.149 33.3789 96.301 28.8827 91.9292C25.3783 88.5229 22.417 84.7973 20.0656 80.8925C13.104 69.3239 11.4983 56.1772 16.9763 45.0459C26.675 25.3367 54.9111 19.4086 80.0403 31.8086C101.752 42.5222 114.042 63.4056 110.73 81.5978Z" fill="#FF5555"/>
<g opacity="0.35">
<path opacity="0.35" d="M94.7949 41.8581C105.759 54.8408 109.454 71.191 102.85 84.6125C98.7293 92.9856 91.2615 98.8713 82.1078 101.92C72.2011 105.22 61.4384 104.567 51.7875 100.58C50.4603 100.031 49.1393 99.4332 47.8246 98.7856C32.8476 91.3976 22.3555 79.1661 18.3749 66.3173C16.4116 59.9814 16.6532 53.1174 19.4109 47.0868C19.5302 46.8258 19.6536 46.5657 19.7808 46.3067C24.3153 37.0963 33.1802 30.6835 44.7432 28.2568C54.9466 26.1153 66.1662 27.2954 76.8 31.5632C76.5654 31.4602 76.3317 31.3529 76.0961 31.2534C65.1431 26.6236 53.5052 25.2853 42.9541 27.5003C31.3906 29.927 22.5257 36.3378 17.9917 45.5501C17.9661 45.5994 17.9425 45.6541 17.9179 45.7058C18.4277 43.9669 19.086 42.2752 19.8856 40.6494C20.0887 40.2357 20.3037 39.8304 20.5251 39.4284C19.1483 41.1717 17.9591 43.0555 16.9774 45.0487C9.79535 59.644 14.7927 77.7037 28.0741 91.1277L28.1075 91.1612C28.4548 91.5119 28.8075 91.8591 29.1656 92.2029L29.1873 92.2236C29.9202 92.9263 30.6763 93.6149 31.4555 94.2893L31.4998 94.3272C31.7069 94.5065 31.9115 94.6902 32.124 94.8631C32.3365 95.036 32.5421 95.2079 32.7502 95.3768C33.1034 95.6654 33.4607 95.9509 33.8221 96.2333C33.8556 96.2599 33.889 96.287 33.9205 96.3131C34.7115 96.9281 35.5227 97.5275 36.354 98.1114C36.4312 98.166 36.509 98.2197 36.5867 98.2734C36.9168 98.5019 37.2478 98.729 37.5819 98.9516C37.693 99.0265 37.8042 99.0994 37.9164 99.1747C38.28 99.4141 38.6467 99.6504 39.0163 99.8835C39.0709 99.918 39.125 99.9534 39.1801 99.9879C39.6064 100.255 40.0373 100.518 40.4729 100.776C40.5712 100.834 40.6696 100.89 40.768 100.947C41.1019 101.144 41.4383 101.338 41.7774 101.528C41.9181 101.607 42.0603 101.686 42.2024 101.764C42.5176 101.939 42.8352 102.111 43.1553 102.281C43.2906 102.352 43.4249 102.425 43.5606 102.496C44.0089 102.73 44.4605 102.96 44.9154 103.185C45.304 103.378 45.6936 103.565 46.0842 103.748C46.2116 103.808 46.3395 103.864 46.4669 103.923C46.7296 104.044 46.9918 104.166 47.2539 104.283C47.4138 104.354 47.5737 104.422 47.7336 104.491C47.9653 104.593 48.197 104.695 48.4291 104.793C48.5998 104.864 48.7705 104.933 48.9412 105.003C49.1636 105.095 49.384 105.188 49.6078 105.276C49.7859 105.347 49.9639 105.415 50.142 105.484C50.3575 105.568 50.5724 105.653 50.7879 105.734C50.9714 105.803 51.1558 105.869 51.3398 105.936C51.5499 106.013 51.7599 106.091 51.9705 106.166C52.1579 106.232 52.3453 106.295 52.5327 106.359C52.7398 106.431 52.9469 106.503 53.154 106.572C53.3439 106.635 53.5338 106.695 53.7237 106.756C53.9293 106.822 54.1344 106.889 54.3395 106.953C54.5319 107.012 54.7242 107.069 54.9166 107.127C55.1192 107.187 55.3219 107.249 55.5241 107.307C55.7263 107.366 55.9176 107.418 56.1109 107.472C56.3043 107.526 56.5099 107.584 56.7091 107.637C56.9083 107.69 57.1026 107.74 57.3033 107.791C57.504 107.842 57.6969 107.893 57.8936 107.939C58.0904 107.985 58.2931 108.037 58.4928 108.082C58.6925 108.126 58.8829 108.174 59.0777 108.218C59.2725 108.262 59.4806 108.306 59.6818 108.35C59.8741 108.391 60.0665 108.433 60.2588 108.472C60.4629 108.514 60.6671 108.553 60.8707 108.593C61.0601 108.629 61.249 108.666 61.4384 108.701C61.644 108.739 61.8492 108.775 62.0548 108.81C62.2422 108.843 62.4291 108.875 62.6161 108.906C62.8241 108.94 63.0317 108.971 63.2393 109.004C63.4223 109.032 63.6053 109.06 63.7878 109.086C63.9989 109.117 64.2099 109.145 64.4209 109.172C64.6 109.196 64.779 109.221 64.9581 109.241C65.1711 109.267 65.3836 109.29 65.5976 109.315C65.7737 109.335 65.9498 109.354 66.1254 109.372C66.3409 109.394 66.5562 109.415 66.7713 109.433C66.943 109.448 67.1156 109.464 67.2858 109.478C67.5038 109.496 67.7212 109.512 67.9381 109.527C68.1064 109.539 68.2746 109.55 68.4423 109.56C68.6617 109.574 68.881 109.586 69.1 109.596C69.2643 109.604 69.4286 109.612 69.592 109.618C69.8143 109.627 70.0362 109.635 70.2575 109.641C70.4169 109.645 70.5763 109.649 70.7357 109.652C70.96 109.656 71.1841 109.659 71.4081 109.661C71.5632 109.661 71.718 109.661 71.8725 109.661C72.1001 109.661 72.3275 109.659 72.5548 109.656C72.7024 109.656 72.8499 109.651 73 109.647C73.2315 109.643 73.4625 109.636 73.6931 109.628C73.8357 109.623 73.9784 109.617 74.1211 109.611C74.3559 109.601 74.59 109.589 74.8235 109.576C74.9603 109.568 75.097 109.559 75.2338 109.55C75.4719 109.535 75.7095 109.519 75.9466 109.501C76.0764 109.491 76.2063 109.48 76.3367 109.469C76.578 109.448 76.8194 109.426 77.0608 109.402C77.1842 109.389 77.3067 109.376 77.4307 109.363C77.6766 109.336 77.9226 109.309 78.1651 109.279C78.2817 109.264 78.3978 109.249 78.5134 109.234C78.7636 109.201 79.0129 109.167 79.2611 109.132C79.3698 109.116 79.4776 109.099 79.5853 109.083C79.8401 109.044 80.0944 109.004 80.3473 108.961C80.4456 108.945 80.5465 108.927 80.6459 108.909C80.9049 108.864 81.1634 108.817 81.4211 108.768C81.5131 108.751 81.6046 108.732 81.6961 108.714C81.9603 108.661 82.2244 108.608 82.4866 108.551C82.5673 108.534 82.648 108.516 82.7286 108.497C82.9997 108.437 83.2698 108.376 83.5393 108.312L83.7489 108.26C84.0273 108.192 84.3048 108.122 84.5807 108.049L84.7529 108.002C85.0402 107.924 85.3261 107.845 85.6108 107.763L85.7382 107.725C86.0334 107.637 86.3319 107.548 86.6261 107.455L86.7083 107.428C87.0165 107.329 87.3233 107.228 87.6286 107.123L87.6552 107.114C96.618 104.026 103.922 98.1946 107.981 89.9481C115.528 74.6086 109.626 55.4461 94.7949 41.8581Z" fill="#371A45"/>
</g>
<path d="M71.7534 110.461C62.7194 110.461 53.3582 108.227 44.5681 103.891C32.2568 97.8167 22.5301 88.3369 17.1756 77.1988C11.7915 65.9951 11.4693 54.4536 16.27 44.6989C21.0706 34.9443 30.4072 28.168 42.5605 25.6172C54.643 23.0811 68.0778 25.0291 80.3891 31.103C92.7003 37.177 102.427 46.6563 107.782 57.7949C113.166 68.9981 113.488 80.5401 108.687 90.2942L107.981 89.946L108.687 90.2942C103.887 100.046 94.5499 106.826 82.3966 109.376C78.8957 110.104 75.329 110.467 71.7534 110.461V110.461ZM53.2081 26.1087C49.7404 26.1018 46.2812 26.4538 42.8857 27.1593C31.2164 29.6092 22.266 36.0855 17.6842 45.3954C8.19021 64.684 20.5649 90.2903 45.2656 102.477C57.2625 108.396 70.3353 110.298 82.0754 107.834C93.7452 105.384 102.695 98.9082 107.277 89.5978C111.859 80.2889 111.535 69.2355 106.365 58.4781C101.164 47.6556 91.6924 38.4359 79.6955 32.5166C71.1208 28.2877 61.9982 26.1087 53.2062 26.1087H53.2081Z" fill="#371A45"/>
<g opacity="0.6">
<path opacity="0.6" d="M17.3628 47.0419C21.8968 37.8315 30.7616 31.4188 42.3251 28.9915C52.8763 26.7751 64.5141 28.1143 75.4672 32.7447C76.6232 33.2336 77.771 33.7589 78.9106 34.3208C102.461 45.9396 114.737 69.8132 107.354 88.6182C116.016 69.6019 103.718 44.7561 79.5403 32.8279C78.4016 32.2657 77.2538 31.7404 76.0968 31.2518C65.1438 26.622 53.506 25.2838 42.9548 27.4987C31.3913 29.9254 22.5264 36.3362 17.9924 45.5486C17.6166 46.312 17.2796 47.0863 16.9727 47.8684C17.0986 47.5916 17.2286 47.3161 17.3628 47.0419Z" fill="#FEFEFE"/>
</g>
<g opacity="0.6">
<path opacity="0.6" d="M102.667 79.3924C102.667 79.3924 90.377 111.903 46.0566 100.337C46.0566 100.337 84.2915 109.194 102.667 79.3924Z" fill="#FEFEFE"/>
</g>
<g opacity="0.35">
<path opacity="0.35" d="M105.164 76.0069C101.25 61.0338 92.3936 61.0653 89.1647 61.619C86.3607 55.9312 81.4416 50.7064 74.9266 47.04L66.8513 38.3123C63.3882 34.569 57.5501 34.3424 53.8095 37.8099L47.5543 43.6065C42.0694 45.4427 37.5934 48.9751 35.1225 53.999C34.6775 54.9039 34.3044 55.8427 34.0069 56.8064C34.0066 56.8094 34.0066 56.8123 34.0069 56.8153C32.8771 58.8873 32.5796 61.3128 33.175 63.597V63.6014C33.2195 64.5532 33.3249 65.5011 33.4908 66.4394C30.1232 73.0812 23.5575 76.9619 20.0684 80.8913C22.4197 84.7961 25.3811 88.5216 28.8855 91.928C33.1701 90.018 37.6461 85.5891 40.603 80.4303C41.1362 81.0292 41.6964 81.6137 42.2834 82.1837C44.9889 84.8119 48.2277 87.1248 51.925 88.9472C53.581 89.7665 55.2931 90.4669 57.0483 91.0429C56.0704 94.6345 55.6159 102.844 69.1987 108.122C69.4355 108.639 69.6982 109.143 69.9858 109.633C74.4032 109.781 78.6927 109.391 82.7363 108.496C82.5395 104.806 79.8497 100.61 77.6873 97.7315C76.1092 95.6314 75.3359 93.7834 75.1214 92.0359C74.9364 90.5386 75.1647 89.1161 75.6487 87.676C76.0659 86.4429 76.7962 85.3396 77.7679 84.4745L81.4317 81.2041C82.8406 79.9471 84.6725 79.2241 86.5615 79.2832C87.7578 79.3246 88.9069 79.6575 90.1348 80.3451C91.2819 80.9893 92.4999 81.9448 93.8871 83.2628C97.6709 86.8583 104.086 91.8822 108.645 88.5054L110.73 81.5942C109.223 78.3887 105.164 76.0069 105.164 76.0069Z" fill="#371A45"/>
</g>
<path d="M84.8625 69.4226L64.9265 87.9044C60.7796 91.7462 54.305 91.4999 50.4641 87.3473L32.7432 68.1838C28.9033 64.0318 29.1522 57.5491 33.2996 53.7034L53.2351 35.222C57.3824 31.3773 63.857 31.6265 67.6975 35.7791L85.4188 54.9421C89.2582 59.0971 89.0093 65.5778 84.8625 69.4226Z" fill="white"/>
<path d="M57.9772 91.4143C56.4581 91.4173 54.9549 91.105 53.5623 90.4971C52.1698 89.8891 50.9183 88.9989 49.8866 87.8824L32.1658 68.7189C31.1824 67.6557 30.4179 66.409 29.9158 65.05C29.4137 63.691 29.184 62.2462 29.2396 60.7983C29.2952 59.3503 29.6352 57.9275 30.2401 56.6112C30.845 55.2948 31.7029 54.1106 32.7649 53.1262L52.7004 34.6444C53.7622 33.6598 55.0074 32.8942 56.3648 32.3915C57.7221 31.8887 59.1651 31.6586 60.6113 31.7143C62.0575 31.77 63.4786 32.1105 64.7934 32.7161C66.1082 33.3218 67.2909 34.1809 68.274 35.2443L85.9954 54.4073C90.1236 58.8716 89.855 65.8666 85.3963 70.0004L65.4593 88.4818C63.425 90.3709 60.7518 91.4187 57.9772 91.4143V91.4143ZM60.179 33.2825C57.8012 33.2779 55.5103 34.1777 53.7698 35.7999L33.8343 54.2817C32.9239 55.1255 32.1883 56.1406 31.6697 57.269C31.1512 58.3975 30.8597 59.6171 30.812 60.8584C30.7643 62.0996 30.9613 63.3381 31.3918 64.5031C31.8223 65.6681 32.4777 66.7368 33.3208 67.6481L51.0417 86.8111C54.58 90.6376 60.5691 90.8686 64.3908 87.3253L84.3268 68.8435C88.1485 65.3002 88.3788 59.3041 84.8404 55.4776L67.119 36.3146C66.2785 35.4003 65.2652 34.6621 64.1377 34.1426C63.0103 33.6231 61.7912 33.3326 60.5509 33.288C60.4265 33.2845 60.3025 33.2825 60.179 33.2825Z" fill="#371A45"/>
<path d="M33.9824 55.3184C32.8864 72.0906 12.5127 75.3674 16.7682 84.8182C22.5542 97.6674 41.4832 80.772 42.379 66.657" fill="white"/>
<g opacity="0.35">
<path opacity="0.35" d="M42.3787 66.6565C41.4972 80.5518 23.1447 97.1404 17.0508 85.4003C19.4366 87.3897 19.0062 76.6904 22.2258 74.9537C29.2818 71.1464 32.8871 91.1088 40.3953 64.1012L33.9767 55.4287C33.9806 55.3913 33.9826 55.3558 33.9846 55.3184L42.3787 66.6565Z" fill="#371A45"/>
</g>
<path d="M23.1011 90.1729C19.9996 90.1729 17.5321 88.4298 16.0515 85.1417C13.7813 80.1001 17.6856 76.7085 22.2063 72.7791C27.0995 68.5285 32.6453 63.7105 33.1973 55.2651C33.203 55.1611 33.2293 55.0592 33.2746 54.9654C33.3199 54.8717 33.3833 54.7878 33.4611 54.7187C33.539 54.6496 33.6298 54.5967 33.7282 54.5629C33.8266 54.5292 33.9307 54.5153 34.0346 54.5221C34.1384 54.5289 34.2398 54.5563 34.333 54.6026C34.4262 54.6489 34.5093 54.7132 34.5775 54.7919C34.6457 54.8705 34.6976 54.962 34.7303 55.0609C34.763 55.1597 34.7758 55.2641 34.768 55.368C34.1737 64.4715 28.1099 69.7392 23.2379 73.9715C18.4225 78.1551 15.7809 80.7064 17.4864 84.494C18.9351 87.7112 21.284 89.048 24.4662 88.4682C27.9431 87.8343 32.0688 84.9126 35.5019 80.6522C39.0895 76.2007 41.31 71.0813 41.5938 66.6071C41.6111 66.4018 41.708 66.2114 41.8638 66.0768C42.0196 65.9421 42.2219 65.8739 42.4273 65.8868C42.6327 65.8997 42.8249 65.9926 42.9627 66.1457C43.1005 66.2987 43.173 66.4997 43.1645 66.7056C42.861 71.4975 40.5146 76.941 36.7273 81.6407C33.0635 86.1863 28.5855 89.3179 24.7481 90.0173C24.2049 90.1187 23.6537 90.1708 23.1011 90.1729V90.1729Z" fill="#371A45"/>
<path d="M23.4808 82.7682L22.8414 83.2499C22.7146 83.3448 22.5555 83.3857 22.3988 83.3634C22.242 83.3412 22.1005 83.2577 22.0051 83.1312L11.1632 68.7108C11.0684 68.5839 11.0277 68.4246 11.0499 68.2677C11.0721 68.1108 11.1555 67.969 11.2818 67.8735L11.9213 67.3918C12.0479 67.2967 12.207 67.2558 12.3638 67.2779C12.5205 67.3001 12.6621 67.3835 12.7575 67.51L23.5979 81.929C23.6935 82.0558 23.7349 82.2155 23.7129 82.3729C23.691 82.5302 23.6075 82.6725 23.4808 82.7682V82.7682Z" fill="#FFDF00"/>
<path d="M12.2798 67.2691C12.3727 67.269 12.4643 67.2905 12.5473 67.3319C12.6304 67.3734 12.7027 67.4337 12.7585 67.508L23.5974 81.9289C23.6922 82.0558 23.7329 82.2151 23.7107 82.372C23.6885 82.529 23.6051 82.6707 23.4788 82.7662L22.8393 83.2479C22.7125 83.3427 22.5535 83.3834 22.3968 83.3612C22.2401 83.3389 22.0986 83.2555 22.0031 83.1292L11.1627 68.7108C11.0679 68.5839 11.0271 68.4245 11.0493 68.2676C11.0716 68.1107 11.1549 67.969 11.2812 67.8735L11.9207 67.3918C12.0243 67.3134 12.1505 67.271 12.2803 67.2711L12.2798 67.2691ZM12.2803 65.9738C11.8692 65.9728 11.4692 66.1069 11.1415 66.3555L10.502 66.8372C10.1013 67.14 9.83685 67.5896 9.76667 68.0873C9.6965 68.5851 9.82632 69.0904 10.1277 69.4924L20.9681 83.9133C21.1451 84.1476 21.3738 84.3378 21.6364 84.4689C21.899 84.6001 22.1883 84.6687 22.4817 84.6694C22.8925 84.6704 23.2923 84.5367 23.62 84.2886L24.2595 83.8064C24.6608 83.5039 24.9257 83.0542 24.9959 82.5562C25.0661 82.0582 24.9359 81.5526 24.6339 81.1507L13.7935 66.7278C13.6164 66.4936 13.3877 66.3034 13.1251 66.1723C12.8625 66.0412 12.5732 65.9725 12.2798 65.9718L12.2803 65.9738Z" fill="#371A45"/>
<g opacity="0.5">
<path opacity="0.5" d="M23.4961 82.3838L12.6562 67.9624C12.5606 67.8354 12.4185 67.7516 12.2612 67.7295C12.104 67.7073 11.9443 67.7486 11.8174 67.8442L11.178 68.3259C11.1303 68.3623 11.0885 68.4059 11.054 68.4549C11.0337 68.3459 11.0442 68.2334 11.0843 68.1301C11.1244 68.0267 11.1924 67.9366 11.2808 67.8698L11.9203 67.3881C12.0469 67.293 12.206 67.252 12.3628 67.2742C12.5195 67.2964 12.6611 67.3798 12.7565 67.5063L23.5979 81.9287C23.6743 82.0308 23.716 82.1547 23.7169 82.2822C23.7178 82.4098 23.6778 82.5343 23.6028 82.6374C23.5877 82.5456 23.5511 82.4587 23.4961 82.3838V82.3838Z" fill="white"/>
</g>
<path d="M15.5367 77.7412L15.5032 77.7146L15.763 77.4191L15.9893 77.096L16.0227 77.1221L20.5823 71.9116C20.6994 72.0948 29.2799 80.425 32.3726 83.4255C32.6735 83.7173 32.8557 84.1104 32.884 84.5288C32.9124 84.9473 32.7848 85.3614 32.5261 85.6912L27.7692 91.7587C27.5107 92.0886 27.1393 92.3109 26.7266 92.3827C26.314 92.4544 25.8894 92.3706 25.5349 92.1473C21.8898 89.8521 11.7701 83.4851 11.5645 83.4147L15.5367 77.7412Z" fill="#8CDBFF"/>
<path d="M15.427 83.9443C17.0759 84.9535 22.9932 88.6765 25.3264 90.1458C25.5885 90.3107 25.9023 90.3726 26.2073 90.3196C26.5123 90.2666 26.787 90.1024 26.9782 89.8586L30.4954 85.3721C30.6865 85.1283 30.7807 84.8222 30.7597 84.513C30.7387 84.2037 30.6041 83.9132 30.3818 83.6975C28.4028 81.7766 23.3852 76.9065 22.0143 75.5421C21.9699 75.4977 21.9165 75.4632 21.8578 75.441C21.7991 75.4187 21.7363 75.4092 21.6736 75.4132C21.611 75.4171 21.5499 75.4343 21.4943 75.4637C21.4388 75.493 21.3902 75.5339 21.3517 75.5835L15.3094 83.2902C15.2705 83.3395 15.2424 83.3965 15.2272 83.4575C15.2119 83.5184 15.2097 83.5819 15.2209 83.6438C15.232 83.7056 15.2561 83.7644 15.2916 83.8162C15.3272 83.868 15.3733 83.9117 15.427 83.9443V83.9443Z" fill="#FF5555"/>
<g opacity="0.6">
<path opacity="0.6" d="M31.3845 87.1218C31.6433 86.792 31.7708 86.3779 31.7424 85.9595C31.7141 85.541 31.5319 85.148 31.231 84.8562C28.1383 81.8557 19.5578 73.5254 19.4407 73.3422L15.3086 78.0617L15.5344 77.7391L15.5009 77.7125L15.7607 77.4169L15.987 77.0938L16.0204 77.1199L20.58 71.9094C20.6971 72.0926 29.2776 80.4229 32.3703 83.4234C32.6712 83.7152 32.8534 84.1083 32.8817 84.5267C32.9101 84.9451 32.7825 85.3592 32.5238 85.689L27.7669 91.7566C27.7354 91.7965 27.6981 91.8285 27.6641 91.8649L31.3845 87.1218Z" fill="#FEFEFE"/>
</g>
<path d="M26.4366 93.0567C25.9951 93.0566 25.5628 92.9312 25.1895 92.6952C16.9027 87.4773 11.7193 84.2349 11.2914 84.002C11.2054 83.962 11.1293 83.9037 11.0683 83.8311C11.0073 83.7585 10.9629 83.6735 10.9383 83.5818C10.9137 83.4902 10.9094 83.3944 10.9258 83.3009C10.9422 83.2075 10.9788 83.1188 11.0331 83.041L14.874 77.5562C14.8992 77.4568 14.9476 77.3648 15.0152 77.2878L15.2518 77.0174L15.4579 76.7218C15.5168 76.6378 15.5946 76.569 15.6852 76.5209L20.0943 71.4827C20.1567 71.4113 20.234 71.3544 20.3207 71.3161C20.4075 71.2779 20.5016 71.2592 20.5964 71.2613C20.6912 71.2635 20.7843 71.2865 20.8693 71.3287C20.9542 71.3708 21.0288 71.4312 21.0879 71.5054C21.4136 71.864 25.8974 76.2401 32.8222 82.9578C33.2389 83.3606 33.4915 83.904 33.5307 84.4826C33.57 85.0612 33.3932 85.6338 33.0347 86.0893L28.2778 92.1569C28.0593 92.437 27.7799 92.6636 27.4609 92.8195C27.1418 92.9754 26.7916 93.0565 26.4366 93.0567V93.0567ZM12.4936 83.2149C13.6742 83.9335 16.8865 85.9347 25.8792 91.5973C26.0979 91.7348 26.3596 91.7864 26.614 91.742C26.8684 91.6976 27.0973 91.5604 27.2566 91.357L32.0134 85.2895C32.1737 85.0861 32.2528 84.8303 32.2354 84.5718C32.2179 84.3134 32.1052 84.0706 31.919 83.8907C24.2893 76.4889 21.5848 73.8395 20.6078 72.8628L16.5072 77.5488C16.4704 77.5906 16.4286 77.6277 16.3827 77.6591L16.2902 77.7906C16.2769 77.8099 16.2625 77.8283 16.247 77.8458L16.1412 77.967C16.1218 78.0193 16.0959 78.069 16.064 78.1147L12.4936 83.2149Z" fill="#371A45"/>
<path d="M11.7514 83.5119L20.722 72.0698C20.8182 71.9476 20.8893 71.8076 20.9313 71.6578C20.9733 71.5079 20.9853 71.3513 20.9667 71.1968C20.9481 71.0423 20.8993 70.893 20.8229 70.7575C20.7465 70.622 20.6442 70.5029 20.5218 70.407L20.1568 70.1204C20.0347 70.0241 19.8949 69.9528 19.7453 69.9107C19.5957 69.8686 19.4392 69.8565 19.2849 69.8751C19.1307 69.8937 18.9815 69.9426 18.8462 70.019C18.7108 70.0954 18.5918 70.1978 18.4961 70.3204L9.52839 81.7629C9.43229 81.8851 9.36122 82.0251 9.31926 82.1749C9.27731 82.3246 9.26528 82.4812 9.28388 82.6357C9.30248 82.7901 9.35134 82.9393 9.42765 83.0748C9.50396 83.2103 9.60623 83.3294 9.7286 83.4252L10.0936 83.7123C10.2156 83.8082 10.3552 83.879 10.5046 83.9208C10.6539 83.9626 10.81 83.9745 10.964 83.9559C11.1179 83.9373 11.2667 83.8885 11.4018 83.8123C11.5369 83.7361 11.6557 83.634 11.7514 83.5119V83.5119Z" fill="white"/>
<path d="M10.8179 84.6134C10.4088 84.6129 10.0119 84.4741 9.69145 84.2194L9.32645 83.9327C8.94506 83.6323 8.69824 83.1927 8.64014 82.7104C8.58204 82.228 8.71741 81.7423 9.01654 81.3597L17.9896 69.9196C18.138 69.7303 18.3221 69.572 18.5316 69.4539C18.7411 69.3359 18.9717 69.2603 19.2104 69.2315C19.449 69.2027 19.691 69.2214 19.9225 69.2863C20.154 69.3512 20.3704 69.4611 20.5594 69.6098L20.9244 69.8965C21.3058 70.197 21.5527 70.6366 21.6108 71.1191C21.6688 71.6015 21.5335 72.0873 21.2343 72.47L12.2612 83.912C12.1133 84.1021 11.9293 84.2608 11.7197 84.3792C11.5101 84.4976 11.2792 84.5731 11.0403 84.6016C10.9665 84.6099 10.8922 84.6139 10.8179 84.6134V84.6134ZM19.4265 70.5161C19.3453 70.5158 19.2652 70.5341 19.1921 70.5695C19.1191 70.6049 19.0551 70.6566 19.0049 70.7205L10.0358 82.163C9.99232 82.2183 9.96017 82.2817 9.94118 82.3494C9.9222 82.4172 9.91675 82.488 9.92516 82.5579C9.93357 82.6278 9.95567 82.6953 9.99018 82.7566C10.0247 82.8179 10.071 82.8718 10.1263 82.9151L10.4913 83.2018C10.6029 83.2894 10.7446 83.3291 10.8854 83.3121C11.0262 83.2951 11.1544 83.2228 11.242 83.1112V83.1112L20.2126 71.6691C20.3001 71.5573 20.3398 71.4153 20.3228 71.2743C20.3059 71.1333 20.2337 71.0048 20.1221 70.917L19.7571 70.6299C19.6631 70.5559 19.547 70.5159 19.4275 70.5161H19.4265Z" fill="#371A45"/>
<g opacity="0.35">
<path opacity="0.35" d="M10.8035 80.3053C10.8035 80.3053 12.6127 81.0692 20.6167 71.1392L20.7186 71.9864L11.5453 83.6865L10.6785 83.9875L9.28245 82.9447C9.28245 82.9447 8.84661 82.3833 9.05961 82.1124C9.27261 81.8415 10.8035 80.3053 10.8035 80.3053Z" fill="#371A45"/>
</g>
<g opacity="0.35">
<path opacity="0.35" d="M21.305 72.7758L17.318 78.3907C16.0533 80.1726 16.6952 82.6718 18.6683 83.6071C22.8177 85.5738 29.4231 87.8389 32.627 84.3035L32.6201 85.4363L27.1888 92.3638L25.8021 92.256L11.752 83.512L20.7482 72.2291L21.305 72.7758Z" fill="#371A45"/>
</g>
<g opacity="0.35">
<path opacity="0.35" d="M11.0533 68.4551C11.0533 68.4551 15.2749 73.1075 16.3449 71.7432L16.8648 72.152C16.8648 72.152 14.8391 74.9151 14.8204 74.76C14.8017 74.6049 10.8438 68.722 10.8438 68.722L11.0533 68.4551Z" fill="#371A45"/>
</g>
<path d="M13.5014 84.7887C13.5014 84.7887 17.8391 79.4009 22.352 82.5782C26.5225 85.5142 25.8908 91.2335 24.1008 92.1029C21.3691 93.4297 13.1462 92.8358 13.5014 84.7887Z" fill="white"/>
<g opacity="0.35">
<path opacity="0.35" d="M23.165 83.4892C23.5256 85.6736 22.8881 87.6757 21.8861 88.1624C20.1388 89.011 16.1469 89.0691 13.5879 86.8975C14.4886 93.1616 21.5968 93.5645 24.0997 92.3489C25.7619 91.5411 26.424 86.5488 23.165 83.4892Z" fill="#371A45"/>
</g>
<path d="M21.2244 93.4416C19.4899 93.4416 17.5597 93.0013 16.0101 91.9822C14.4069 90.9267 12.5337 88.8157 12.7143 84.7533C12.7216 84.5853 12.7825 84.4242 12.8879 84.2933C14.5481 82.2306 18.7565 79.0833 22.8035 81.9331C25.6168 83.9135 26.4245 87.0333 26.2425 89.2915C26.1033 91.0154 25.4308 92.3319 24.4436 92.8112C23.6147 93.2146 22.47 93.4416 21.2244 93.4416ZM14.279 85.0887C14.2299 87.6218 15.1025 89.4969 16.8769 90.6652C19.1672 92.1733 22.3991 92.0532 23.7573 91.3932C24.1386 91.2085 24.5759 90.3835 24.6743 89.1649C24.8218 87.3401 24.1696 84.8208 21.8989 83.222C18.4402 80.7865 15.0637 84.2032 14.279 85.0887V85.0887Z" fill="#371A45"/>
<path d="M111.562 84.0585C106.519 91.5175 97.9047 84.884 93.0938 80.3113C89.8865 77.2635 87.4898 75.9495 84.9043 75.8628C82.7891 75.7938 80.7446 76.6016 79.1685 78.0082L75.0738 81.6628C73.9867 82.6292 73.1696 83.8622 72.7028 85.2406C71.532 88.7258 71.7052 92.1223 74.9833 96.4822C78.9718 101.79 84.5698 111.114 76.5948 115.281C74.9912 116.119 73.4957 116.095 72.1617 115.587C68.1201 114.054 65.4912 108.1 65.4912 108.1C45.5941 100.367 52.6423 87.0118 52.6423 87.0118C42.3179 75.1102 32.7314 54.3075 32.7314 54.3075L56.0582 33.4773C56.0582 33.4773 59.2006 35.278 63.6534 38.182C69.4502 41.9568 77.4626 47.5992 83.6607 53.5668C84.6485 54.5144 85.5891 55.4739 86.4647 56.4333C86.4647 56.4333 100.297 51.5218 105.699 72.1944C105.699 72.1944 111.446 75.5673 112.406 79.8365C112.711 81.1802 112.536 82.6144 111.562 84.0585Z" fill="white"/>
<g opacity="0.35">
<path opacity="0.35" d="M111.562 84.0587C106.519 91.5176 97.9048 84.8842 93.0938 80.3115C89.8865 77.2637 87.4899 75.9496 84.9044 75.8629C82.7891 75.794 80.7447 76.6017 79.1686 78.0084L75.0739 81.663C73.9868 82.6293 73.1696 83.8623 72.7028 85.2408C71.5321 88.7259 71.7052 92.1224 74.9834 96.4824C78.9718 101.79 84.5699 111.115 76.5949 115.281C74.9912 116.119 73.4958 116.095 72.1617 115.587C75.0443 114.777 80.4928 112.312 78.6472 105.46C76.1738 96.2775 70.4675 101.548 67.4983 91.8663C64.5291 82.1851 76.8753 70.2081 84.9806 70.8031C95.516 71.5759 94.3748 78.5935 97.5821 81.9506C101.289 85.8279 110.834 87.1774 112.407 79.8387C112.712 81.1803 112.536 82.6146 111.562 84.0587Z" fill="#371A45"/>
</g>
<path d="M56.189 33.2456C59.0914 34.6143 61.8604 36.2111 64.5777 37.8966C67.2885 39.5919 69.938 41.3835 72.5261 43.2716C75.1028 45.1723 77.6293 47.1459 80.0653 49.2357C82.4929 51.3368 84.8438 53.5355 87.0446 55.9016L86.201 55.6913C86.3864 55.6293 86.5261 55.5898 86.6841 55.5485C86.842 55.5071 86.9905 55.4726 87.143 55.4386C87.449 55.3721 87.755 55.3199 88.0614 55.2746C88.6745 55.1901 89.2922 55.1445 89.911 55.1382C91.1462 55.1382 92.3883 55.2746 93.5852 55.6027C95.9818 56.2479 98.1861 57.5684 99.9078 59.3109C100.775 60.1688 101.554 61.112 102.232 62.1263C102.589 62.6188 102.883 63.1468 103.196 63.664C103.358 63.9196 103.483 64.1934 103.626 64.4584L104.041 65.2602C105.082 67.4274 105.854 69.6975 106.463 71.9952L106.1 71.5149C106.641 71.8425 107.117 72.1725 107.605 72.5281C108.092 72.8837 108.555 73.2536 109.009 73.6461C109.918 74.4288 110.771 75.2937 111.515 76.2758C112.245 77.2608 112.885 78.3813 113.171 79.6683C113.202 79.8299 113.246 79.988 113.263 80.1525L113.317 80.6475C113.325 80.9805 113.337 81.3159 113.289 81.6488C113.277 81.8159 113.252 81.9817 113.214 82.1448C113.177 82.3073 113.147 82.4733 113.101 82.6329C112.995 82.9481 112.895 83.2668 112.743 83.5584C112.614 83.8637 112.435 84.1332 112.268 84.4114C112.094 84.6794 111.903 84.9183 111.72 85.1724C111.519 85.4128 111.315 85.6521 111.1 85.8836L110.756 86.2146L110.584 86.3796L110.397 86.5313L110.02 86.8313C109.891 86.9273 109.751 87.0101 109.616 87.0997C109.352 87.2864 109.052 87.4194 108.764 87.5701C108.166 87.8242 107.54 88.037 106.895 88.1192C106.26 88.2147 105.617 88.2312 104.979 88.1685C104.661 88.1503 104.354 88.0882 104.044 88.0399C103.741 87.9734 103.434 87.9119 103.138 87.8242C101.969 87.4843 100.843 87.011 99.7824 86.4136C97.6804 85.2507 95.8057 83.7948 94.0402 82.2463C93.6014 81.8557 93.1656 81.4626 92.7401 81.0593C92.3146 80.6559 91.9097 80.2811 91.4832 79.9072C90.6366 79.165 89.7517 78.4823 88.8214 77.9159C87.8868 77.3618 86.9054 76.9308 85.8798 76.758C84.8516 76.5763 83.7959 76.6245 82.7886 76.8993C81.7757 77.1821 80.8308 77.668 80.0112 78.3277C79.9079 78.4089 79.8105 78.4976 79.7096 78.5818L79.3874 78.8685L78.7415 79.4472L77.4473 80.6027L76.1536 81.7577L75.5165 82.329C74.5453 83.2199 73.8214 84.3477 73.4155 85.6024C73.081 86.647 72.8479 87.7114 72.8385 88.7753L72.8351 89.1737L72.8587 89.5707C72.8641 89.8367 72.9197 90.0977 72.9472 90.3617C72.9964 90.6228 73.0456 90.8853 73.112 91.1439C73.1888 91.4005 73.2448 91.6615 73.3437 91.9137C73.693 92.9318 74.2011 93.9095 74.8023 94.8389C74.9498 95.0728 75.1018 95.3048 75.2691 95.5284C75.4363 95.752 75.5864 95.9766 75.7669 96.218C76.1186 96.6869 76.4595 97.1656 76.7965 97.6463C78.1316 99.58 79.3618 101.612 80.2739 103.837C80.7451 104.96 81.0863 106.133 81.2907 107.334C81.3438 107.638 81.3699 107.95 81.4013 108.26C81.4136 108.574 81.4402 108.886 81.422 109.205C81.4124 109.847 81.3233 110.485 81.1569 111.105C81.0019 111.736 80.72 112.334 80.3993 112.9C80.2173 113.169 80.051 113.452 79.8356 113.694C79.7313 113.818 79.6334 113.948 79.5227 114.065L79.1823 114.406L79.0106 114.574L78.8276 114.727L78.4597 115.03C78.2058 115.217 77.9446 115.393 77.6834 115.566C77.4109 115.718 77.1517 115.881 76.8663 116.024C76.5712 116.158 76.2834 116.305 75.9652 116.399C75.6587 116.517 75.3311 116.58 75.0064 116.649C74.8426 116.677 74.6744 116.688 74.5086 116.707C74.3425 116.726 74.1753 116.732 74.0083 116.725C73.6723 116.734 73.3413 116.684 73.0117 116.638L72.5266 116.529C72.3648 116.492 72.2133 116.43 72.0564 116.381C70.8123 115.948 69.7748 115.185 68.8791 114.346C67.9892 113.494 67.2287 112.547 66.5557 111.554C66.2183 111.058 65.9018 110.549 65.6063 110.027C65.3112 109.502 65.0362 108.99 64.773 108.414L65.2079 108.83C62.9942 107.962 60.8298 106.931 58.8031 105.633L58.0583 105.121C57.8124 104.948 57.5566 104.787 57.3205 104.594C56.8443 104.221 56.3597 103.858 55.9155 103.441C55.6927 103.234 55.4526 103.047 55.2451 102.822L54.6056 102.168C54.394 101.949 54.2042 101.706 54.003 101.475C53.9046 101.358 53.8032 101.243 53.7078 101.124L53.4348 100.752C51.9487 98.7949 50.9664 96.4027 50.7165 93.9262C50.5977 92.6906 50.6392 91.4448 50.8399 90.2199C50.9444 89.6099 51.0854 89.0068 51.262 88.4138C51.3525 88.1182 51.4504 87.8227 51.5621 87.5312C51.6172 87.3834 51.6752 87.2396 51.7382 87.0938C51.8011 86.948 51.8616 86.8116 51.9487 86.6392L52.0505 87.5257C50.7755 86.0481 49.5575 84.531 48.3966 82.9742C47.2233 81.4257 46.1141 79.8333 45.0471 78.2159C43.9908 76.5908 42.9945 74.9308 42.0582 73.2359C41.1304 71.5371 40.2647 69.8044 39.5283 68.0061C39.5033 67.9464 39.5011 67.8795 39.5221 67.8182C39.5431 67.757 39.5858 67.7055 39.6422 67.6737C39.6985 67.6419 39.7646 67.6319 39.8278 67.6456C39.8911 67.6593 39.9471 67.6957 39.9853 67.748C41.1393 69.3044 42.2117 70.9003 43.2772 72.4961L46.4525 77.286C47.5072 78.8821 48.5907 80.4557 49.7031 82.0069C50.8261 83.5495 51.9935 85.0606 53.239 86.4924C53.341 86.61 53.406 86.7553 53.4256 86.9098C53.4452 87.0644 53.4186 87.2213 53.3492 87.3607L53.3408 87.377C53.2966 87.4656 53.2346 87.5991 53.1839 87.7183C53.1332 87.8375 53.0811 87.967 53.0329 88.0946C52.9345 88.3492 52.8489 88.6098 52.7682 88.8728C52.6114 89.401 52.4859 89.9379 52.3924 90.4809C52.2148 91.5672 52.1777 92.6719 52.2822 93.7676C52.5056 95.951 53.359 98.0487 54.6985 99.8144L54.9445 100.15C55.0316 100.258 55.124 100.362 55.2136 100.468C55.3971 100.677 55.5668 100.898 55.7611 101.098L56.3474 101.696C56.5359 101.903 56.7607 102.075 56.9653 102.266C57.3731 102.651 57.8261 102.988 58.2694 103.336C58.4858 103.516 58.7269 103.667 58.9581 103.829L59.6551 104.312C61.5667 105.535 63.6396 106.528 65.776 107.365C65.9671 107.44 66.1217 107.586 66.207 107.772L66.2114 107.782C66.4293 108.258 66.6989 108.77 66.9719 109.25C67.2449 109.731 67.5435 110.21 67.8574 110.67C68.4806 111.592 69.1796 112.456 69.9613 113.204C70.7484 113.943 71.6235 114.569 72.5724 114.894C73.035 115.065 73.5242 115.151 74.0172 115.15C74.1386 115.157 74.2605 115.153 74.3812 115.137C74.5022 115.122 74.6237 115.117 74.7442 115.096C74.9838 115.041 75.2263 115.001 75.46 114.908C75.6995 114.841 75.9263 114.72 76.1575 114.617C76.3887 114.502 76.6204 114.356 76.8526 114.228C77.072 114.081 77.2919 113.933 77.5034 113.779L77.8039 113.531L77.955 113.406L78.0917 113.27L78.3647 112.999C78.4528 112.906 78.5276 112.802 78.6107 112.703C78.7834 112.514 78.9058 112.292 79.051 112.085C79.2969 111.646 79.5183 111.19 79.6373 110.693C79.7709 110.195 79.8418 109.682 79.8484 109.166C79.8651 108.906 79.84 108.64 79.8316 108.378C79.8036 108.113 79.7824 107.848 79.7357 107.582C79.5505 106.499 79.2419 105.442 78.8158 104.429C77.9722 102.367 76.796 100.413 75.5042 98.5437C75.1776 98.0778 74.8475 97.6138 74.5051 97.1572C74.3374 96.9356 74.1608 96.6805 73.9852 96.4401C73.8096 96.1997 73.6408 95.9476 73.4795 95.6934C72.8262 94.6818 72.2556 93.5938 71.8562 92.422C71.7445 92.1339 71.6751 91.8285 71.5886 91.5305C71.5103 91.2296 71.4547 90.9213 71.3957 90.6149C71.3608 90.3041 71.2973 89.9958 71.2905 89.682L71.2634 89.2132L71.2668 88.7438C71.2796 87.4893 71.5507 86.2663 71.9216 85.1118C72.3092 83.903 72.946 82.7891 73.7909 81.8424C74 81.6059 74.2215 81.3807 74.4545 81.1676L75.1087 80.581L76.4025 79.4255L77.6962 78.2705L78.3431 77.6928L78.6682 77.4032C78.7888 77.3017 78.9058 77.1963 79.0298 77.0988C80.0175 76.3036 81.1567 75.7182 82.3778 75.3784C83.6094 75.0431 84.8997 74.9841 86.1567 75.2055C87.417 75.4193 88.5853 75.9403 89.6341 76.5644C90.6794 77.2002 91.6303 77.9386 92.5216 78.7197C92.9644 79.1078 93.4071 79.5191 93.8223 79.9112C94.2375 80.3032 94.6585 80.6849 95.0841 81.0632C96.7915 82.5615 98.5959 83.9539 100.544 85.0286C101.5 85.5676 102.513 85.9951 103.566 86.3028C103.824 86.3801 104.086 86.4308 104.345 86.4889C104.606 86.5274 104.867 86.5825 105.127 86.5958C105.639 86.6479 106.157 86.6358 106.667 86.5599C107.173 86.4983 107.651 86.3284 108.115 86.1353C108.337 86.0151 108.57 85.9181 108.778 85.7679C108.884 85.697 108.995 85.6344 109.097 85.5576L109.398 85.3167L109.548 85.196L109.689 85.0601L109.97 84.7892C110.147 84.5966 110.319 84.3952 110.489 84.1933C110.642 83.977 110.814 83.7633 110.955 83.5465C111.083 83.3279 111.229 83.1161 111.322 82.8856C111.441 82.6634 111.509 82.4275 111.591 82.196C111.626 82.0788 111.644 81.9581 111.673 81.8394C111.702 81.7212 111.721 81.6005 111.728 81.4789C111.785 80.9887 111.755 80.4923 111.639 80.0126C111.423 79.0315 110.901 78.0873 110.261 77.2224C109.607 76.3595 108.83 75.566 107.987 74.841C107.566 74.4775 107.13 74.1303 106.679 73.7993C106.233 73.4728 105.756 73.1462 105.308 72.8753L105.301 72.8709C105.125 72.7641 104.998 72.5935 104.945 72.3946C104.355 70.1738 103.614 67.9978 102.63 65.9488L102.237 65.1943C102.102 64.9455 101.985 64.6855 101.833 64.4476C101.54 63.9654 101.265 63.4699 100.935 63.0158C100.314 62.0854 99.6008 61.2204 98.8059 60.4339C97.2436 58.8534 95.2966 57.6984 93.1818 57.1261C92.1252 56.8355 91.0247 56.7143 89.9268 56.7148C89.3778 56.7207 88.8297 56.761 88.2857 56.8355C88.0147 56.8759 87.7446 56.9217 87.48 56.9793C87.3476 57.0088 87.2158 57.0389 87.0864 57.0734C86.9571 57.1078 86.8213 57.1472 86.7293 57.1773L86.7165 57.1812C86.572 57.2286 86.417 57.2335 86.2697 57.1955C86.1225 57.1574 85.9892 57.078 85.8857 56.9665C83.7473 54.6639 81.4205 52.5258 79.0155 50.4769C77.7916 49.4755 76.5766 48.4649 75.3148 47.5074C74.0786 46.5223 72.7967 45.5865 71.5271 44.6393C68.973 42.7638 66.3742 40.9453 63.7626 39.1427C61.151 37.34 58.5296 35.5413 55.9288 33.7017L55.9254 33.6992C55.8722 33.6609 55.8351 33.6042 55.8214 33.54C55.8078 33.4759 55.8185 33.4089 55.8516 33.3523C55.8846 33.2956 55.9375 33.2534 56 33.2337C56.0625 33.2141 56.1301 33.2185 56.1895 33.2461L56.189 33.2456Z" fill="#371A45"/>
<path d="M57.1628 74.8759C55.7559 77.5026 52.3237 80.0573 49.8602 81.6507C49.5094 81.8772 49.1167 82.0312 48.7055 82.1033C48.2943 82.1755 47.8727 82.1645 47.4658 82.071C47.0589 81.9774 46.6748 81.8032 46.3363 81.5586C45.9977 81.314 45.7114 81.004 45.4944 80.6469V80.6469C45.0909 79.9846 44.9475 79.1959 45.0919 78.4337C45.2363 77.6715 45.6584 76.9902 46.2761 76.5219C48.4514 74.8764 51.6296 72.3063 53.251 70.2081" fill="white"/>
<g opacity="0.35">
<path opacity="0.35" d="M57.1638 74.8745C55.757 77.5032 52.3234 80.0565 49.8613 81.6508C49.4358 81.9242 48.9506 82.0904 48.447 82.1352C47.9434 82.1801 47.4365 82.1022 46.9695 81.9083C46.5025 81.7144 46.0893 81.4102 45.7652 81.0217C45.4411 80.6331 45.2158 80.1719 45.1084 79.6772C45.576 79.873 46.0843 79.9517 46.5892 79.9064C47.094 79.8612 47.5803 79.6934 48.0058 79.4176C50.4654 77.8282 53.8921 75.2804 55.3034 72.6547L57.1638 74.8745Z" fill="#371A45"/>
</g>
<path d="M48.1758 82.9402C47.879 82.9405 47.5832 82.9075 47.2938 82.8417C46.5681 82.6748 45.9049 82.3042 45.382 81.7734C44.8591 81.2426 44.4982 80.5735 44.3415 79.8446C44.1849 79.1157 44.239 78.3572 44.4976 77.6581C44.7561 76.9589 45.2084 76.348 45.8013 75.897C49.0017 73.4757 51.4259 71.2859 52.6287 69.73C52.8795 69.4049 53.64 68.7636 55.2767 69.8285C56.9133 70.8933 58.8731 73.356 57.8563 75.2542C56.3874 77.9976 52.9292 80.61 50.2871 82.3186C49.6581 82.7256 48.9248 82.9415 48.1758 82.9402ZM53.7684 70.8239C52.0959 72.928 49.0421 75.4163 46.7507 77.15C46.2677 77.516 45.9452 78.0552 45.851 78.6544C45.7568 79.2535 45.8982 79.8659 46.2454 80.3628C46.5927 80.8597 47.1189 81.2025 47.7133 81.3192C48.3078 81.4358 48.9242 81.3172 49.4331 80.9883C52.9479 78.7153 55.4469 76.4122 56.4676 74.5031C56.747 73.9815 56.3112 73.1841 56.1109 72.8654C55.3662 71.6794 54.2043 70.9234 53.7684 70.8244V70.8239Z" fill="#371A45"/>
<path d="M73.388 61.3596C76.2239 60.4524 79.3574 57.5381 81.3704 55.4C81.6569 55.0957 81.8797 54.7371 82.0255 54.3452C82.1713 53.9534 82.2373 53.5362 82.2194 53.1184C82.2015 52.7006 82.1002 52.2906 81.9214 51.9127C81.7426 51.5347 81.49 51.1965 81.1785 50.9179V50.9179C80.6016 50.3999 79.853 50.115 79.0781 50.1184C78.3032 50.1219 77.5572 50.4135 76.9849 50.9366C74.9735 52.7787 71.869 55.4404 69.5156 56.6555" fill="white"/>
<g opacity="0.35">
<path opacity="0.35" d="M81.3706 55.4032C79.3567 57.5368 76.2247 60.4531 73.3873 61.3599L71.5283 59.1041C74.3613 58.1919 77.4894 55.282 79.4974 53.1493C79.8443 52.7826 80.0969 52.3369 80.2335 51.8507C80.3701 51.3644 80.3866 50.8522 80.2815 50.3582C80.751 50.551 81.1665 50.8552 81.4923 51.2447C81.8181 51.6342 82.0443 52.0972 82.1515 52.5938C82.2587 53.0904 82.2437 53.6056 82.1076 54.0951C81.9716 54.5845 81.7186 55.0335 81.3706 55.4032V55.4032Z" fill="#371A45"/>
</g>
<path d="M72.9143 62.2217C71.1168 62.2217 69.4301 60.1831 68.7684 58.5839C68.0227 56.7792 68.7906 56.1468 69.1556 55.9587C70.9014 55.0583 73.4933 53.0695 76.4542 50.3591C77.2017 49.6707 78.1871 49.3001 79.2024 49.3254C80.2176 49.3508 81.1833 49.7702 81.8956 50.4951C82.6078 51.22 83.0109 52.1937 83.0196 53.2105C83.0284 54.2274 82.6422 55.2078 81.9425 55.9449C79.784 58.2352 76.5885 61.1657 73.6291 62.1119C73.398 62.1856 73.1568 62.2226 72.9143 62.2217V62.2217ZM70.0272 57.2806C70.0445 57.7278 70.5757 59.0094 71.6058 59.96C71.8818 60.2151 72.5852 60.788 73.1485 60.6092C75.2091 59.9497 77.926 57.9086 80.7978 54.8618C81.2125 54.4205 81.4404 53.8354 81.4337 53.2295C81.427 52.6235 81.1861 52.0437 80.7617 51.6117C80.3372 51.1798 79.7622 50.9291 79.1572 50.9125C78.5522 50.8958 77.9642 51.1144 77.5167 51.5224C75.396 53.463 72.3953 56.0173 70.0272 57.2806V57.2806Z" fill="#371A45"/>
<path d="M69.0303 54.4448L75.2678 61.951C75.8232 62.6239 76.0902 63.4894 76.0105 64.3587C75.9308 65.228 75.5108 66.0304 74.8423 66.5907L61.0356 78.0918C60.3636 78.6474 59.4995 78.9142 58.6318 78.8342C57.764 78.7542 56.9631 78.3339 56.4037 77.6648L50.1667 70.1586C49.6108 69.4866 49.3434 68.6214 49.423 67.7525C49.5025 66.8836 49.9226 66.0815 50.5912 65.5219L64.3979 54.0207C65.069 53.4636 65.9333 53.1954 66.8015 53.2749C67.6698 53.3544 68.4712 53.775 69.0303 54.4448V54.4448Z" fill="white"/>
<path d="M58.9354 79.639C58.3369 79.6402 57.7455 79.5091 57.2033 79.2551C56.6612 79.0012 56.1817 78.6306 55.799 78.1697L49.561 70.6626C48.8713 69.8298 48.5395 68.7573 48.6382 67.68C48.7368 66.6027 49.2579 65.6085 50.0873 64.9152L63.8945 53.414C64.7265 52.7244 65.7974 52.3928 66.873 52.4915C67.9485 52.5903 68.9413 53.1114 69.6342 53.941L75.8722 61.4482C76.5609 62.2814 76.8922 63.3537 76.7936 64.4307C76.6949 65.5077 76.1744 66.5018 75.3458 67.1956L61.5387 78.6968C60.8081 79.3067 59.8867 79.6402 58.9354 79.639V79.639ZM66.4923 54.0499C65.9103 54.0485 65.3464 54.2523 64.8995 54.6257L51.0953 66.1268C50.5876 66.5533 50.2688 67.1633 50.2084 67.824C50.1479 68.4848 50.3507 69.1426 50.7725 69.6543L57.0106 77.1615C57.4352 77.6717 58.0447 77.9923 58.7053 78.053C59.3658 78.1137 60.0234 77.9094 60.5337 77.4851L74.3404 65.984C74.8488 65.558 75.1681 64.9479 75.2287 64.287C75.2893 63.626 75.0861 62.9679 74.6636 62.4564L68.4255 54.9493C68.2156 54.6967 67.9577 54.4883 67.6668 54.3361C67.3759 54.184 67.0578 54.091 66.7309 54.0627C66.6502 54.0533 66.5715 54.0499 66.4923 54.0499Z" fill="#371A45"/>
<path d="M70.2218 61.6042C70.3002 60.0357 69.0938 58.7007 67.5273 58.6223C65.9608 58.5438 64.6274 59.7518 64.549 61.3202C64.4707 62.8887 65.6771 64.2237 67.2436 64.3022C68.8101 64.3806 70.1435 63.1727 70.2218 61.6042Z" fill="#FF5555"/>
<g opacity="0.35">
<path opacity="0.35" d="M75.8549 63.009C76.0646 63.639 76.0802 64.3176 75.8996 64.9565C75.7189 65.5955 75.3504 66.1652 74.842 66.5917L61.0349 78.0909C60.3632 78.6467 59.4992 78.9139 58.6314 78.8341C57.7637 78.7543 56.9627 78.3339 56.4035 77.6648L54.0713 74.8574C58.623 74.6052 65.9083 71.0205 67.4219 64.8141C67.0377 64.7895 66.6626 64.6865 66.3195 64.5114C65.9765 64.3364 65.6729 64.0929 65.4272 63.7961C65.202 63.5263 65.0299 63.2163 64.9201 62.8824C65.3589 63.1265 65.8546 63.2494 66.3564 63.2385C66.8583 63.2277 67.3482 63.0836 67.7761 62.8208C67.8605 61.8481 67.6387 60.8733 67.142 60.0331C65.4459 57.1592 66.5444 52.9337 68.5903 50.146C69.0654 49.4957 69.3392 48.72 69.3778 47.9152C69.4164 47.1104 69.218 46.312 68.8072 45.6191C68.0339 44.308 66.9699 42.7654 65.6727 41.5281L54.4191 36.6594C54.4191 36.6594 58.502 36.6594 63.6106 37.3352C69.6351 41.2641 77.9657 47.1307 84.4079 53.3351C83.9725 57.9866 80.8976 62.2081 75.8549 63.009Z" fill="#371A45"/>
</g>
<path d="M67.6148 65.4119C67.509 65.4119 67.4023 65.407 67.2955 65.3972C66.4077 65.3142 65.5874 64.8868 65.0102 64.2063C64.4329 63.5258 64.1445 62.6462 64.2065 61.7555C64.2685 60.8648 64.6761 60.0338 65.342 59.4401C66.008 58.8463 66.8796 58.537 67.7703 58.5782C68.6611 58.6195 69.5004 59.008 70.1088 59.6607C70.7172 60.3134 71.0465 61.1786 71.0262 62.0712C71.0059 62.9638 70.6376 63.813 70.0001 64.4373C69.3626 65.0616 68.5065 65.4114 67.6148 65.4119V65.4119ZM67.605 59.732C67.0941 59.7327 66.5988 59.9077 66.2006 60.2281C65.8025 60.5485 65.5253 60.9952 65.4147 61.4946C65.3041 61.9939 65.3668 62.516 65.5924 62.9749C65.818 63.4338 66.1931 63.802 66.6557 64.0188C67.1184 64.2356 67.641 64.288 68.1374 64.1675C68.6339 64.047 69.0745 63.7607 69.3866 63.3558C69.6987 62.9509 69.8636 62.4516 69.8542 61.9402C69.8449 61.4288 69.6617 60.9359 69.335 60.5428V60.5428C69.147 60.3151 68.9158 60.1271 68.6547 59.9896C68.3936 59.852 68.1079 59.7677 67.814 59.7414C67.7442 59.737 67.6738 59.732 67.605 59.732V59.732Z" fill="#371A45"/>
<path d="M66.6522 74.0041C66.5656 74.0041 66.4799 73.985 66.4015 73.9481C66.323 73.9113 66.2536 73.8576 66.1982 73.7908L61.9392 68.665L57.7421 68.8694C57.6508 68.874 57.5597 68.8573 57.476 68.8204C57.3923 68.7836 57.3183 68.7276 57.26 68.6571L52.9921 63.5215C52.892 63.401 52.8437 63.2456 52.8579 63.0894C52.8722 62.9333 52.9478 62.7892 53.0681 62.6889C53.1885 62.5885 53.3437 62.5402 53.4997 62.5545C53.6556 62.5687 53.7995 62.6444 53.8997 62.765L57.9792 67.6745L62.1758 67.4696C62.2671 67.4652 62.3583 67.482 62.442 67.5188C62.5258 67.5557 62.5998 67.6115 62.6583 67.6819L67.1058 73.0358C67.1776 73.1221 67.2233 73.2271 67.2377 73.3385C67.252 73.4499 67.2343 73.5631 67.1867 73.6648C67.1392 73.7665 67.0636 73.8525 66.9689 73.9128C66.8743 73.973 66.7644 74.0051 66.6522 74.0051V74.0041Z" fill="#371A45"/>
<path d="M75.4201 62.5941C65.5325 62.0326 68.1593 51.8076 72.382 48.4308L72.2678 48.352L66.5419 44.4058L66.4652 44.3467L57.1738 37.134C57.1738 37.134 76.3016 37.134 82.9425 44.1359C89.3473 50.8875 85.4729 63.1615 75.4201 62.5941Z" fill="white"/>
<g opacity="0.35">
<path opacity="0.35" d="M75.038 45.164C74.3001 46.8623 73.1766 47.8237 72.2675 48.3498L66.5416 44.4055L66.4648 44.3464C67.8343 44.6026 69.741 44.9788 70.9374 45.302C73.0723 45.8792 74.9534 45.1936 75.038 45.164Z" fill="#371A45"/>
</g>
<g opacity="0.35">
<path opacity="0.35" d="M75.4203 62.594C71.538 62.3734 69.5861 60.6633 68.9033 58.4627C69.9737 59.6113 71.6915 60.3993 74.2416 60.5431C82.8423 61.0298 86.9213 52.1169 83.9088 45.3041C88.9008 52.2016 84.9182 63.1299 75.4203 62.594Z" fill="#371A45"/>
</g>
<path d="M57.1726 36.8717C57.9365 36.6816 58.6975 36.6013 59.46 36.5486C60.2204 36.5036 60.9827 36.5 61.7435 36.5377C63.2646 36.6003 64.7809 36.7502 66.2849 36.9869C69.293 37.4548 72.3006 38.0183 75.2339 38.9571C76.6988 39.4279 78.1455 39.9914 79.5332 40.7134C80.9209 41.4355 82.2521 42.3235 83.3938 43.4771C83.5448 43.6125 83.6668 43.7726 83.8031 43.9203C83.9393 44.0681 84.0751 44.2159 84.1966 44.3799C84.4382 44.702 84.6885 45.0167 84.8991 45.3649C85.3467 46.0358 85.7014 46.7647 86.002 47.5109C86.3025 48.2571 86.5047 49.0417 86.6621 49.8302C86.7986 50.623 86.8645 51.4264 86.8589 52.2309C86.8375 53.8455 86.5021 55.4404 85.8716 56.9267C85.238 58.4092 84.2891 59.777 83.0593 60.8522C82.4481 61.3956 81.7704 61.859 81.0424 62.2313C80.8642 62.3313 80.6799 62.4199 80.4905 62.4967L79.9258 62.7332C79.5372 62.8538 79.1555 63.004 78.756 63.0824C77.9689 63.2912 77.1573 63.3567 76.353 63.3971C75.5467 63.3917 74.7538 63.3621 73.9578 63.2173C73.5594 63.1651 73.1634 63.0523 72.7674 62.9568C72.3739 62.8258 71.9803 62.707 71.602 62.5209C70.841 62.1761 70.1135 61.69 69.5198 61.0551C68.9266 60.4202 68.4782 59.664 68.2053 58.8387C67.9431 58.0378 67.8162 57.1986 67.83 56.3558C67.8502 54.7004 68.289 53.1164 68.9698 51.6659C69.6639 50.2208 70.598 48.8772 71.8928 47.8099L71.9375 49.0811C70.9591 48.4182 69.9413 47.8128 68.9963 47.1016C68.5184 46.7501 68.0586 46.3743 67.619 45.9757C67.4001 45.7728 67.1851 45.5639 66.9819 45.3378C66.7707 45.1138 66.5754 44.8751 66.3975 44.6237C66.365 44.577 66.3474 44.5216 66.3471 44.4647C66.3468 44.4078 66.3638 44.3521 66.3958 44.3052C66.4278 44.2582 66.4734 44.222 66.5264 44.2016C66.5795 44.1812 66.6375 44.1774 66.6927 44.1907C66.991 44.2667 67.2834 44.364 67.5678 44.4818C67.8517 44.5907 68.1237 44.7168 68.3908 44.8493C68.9201 45.1179 69.4352 45.4138 69.9339 45.7358C70.9355 46.3643 71.8642 47.0996 72.8323 47.7779H72.8358C72.9366 47.8484 73.0197 47.9415 73.0784 48.0498C73.137 48.1581 73.1697 48.2786 73.1738 48.4018C73.1778 48.5249 73.1532 48.6473 73.1018 48.7592C73.0504 48.8712 72.9736 48.9696 72.8776 49.0466C71.8308 49.8879 70.9965 51.0764 70.3904 52.3407C69.7913 53.6124 69.4169 55.0048 69.4027 56.3676C69.3884 57.7305 69.7819 59.0485 70.6659 59.975C71.1182 60.4454 71.6579 60.8229 72.2548 61.0861C72.55 61.2339 72.8815 61.3324 73.2027 61.4407C73.5387 61.5191 73.8673 61.6176 74.2166 61.6614C74.9053 61.789 75.621 61.8131 76.3181 61.82C77.0151 61.7821 77.7146 61.7294 78.3841 61.5486C78.7255 61.4846 79.0462 61.3516 79.3768 61.2531L79.853 61.0526C80.013 60.9887 80.1684 60.914 80.3183 60.829C80.9328 60.5157 81.5046 60.1249 82.0199 59.6661C83.0593 58.7574 83.8749 57.5886 84.4234 56.3036C84.9732 55.007 85.2656 53.6157 85.2843 52.2072C85.2887 51.5037 85.2316 50.8011 85.1136 50.1075C84.9744 49.418 84.8012 48.7363 84.5375 48.0852C84.2739 47.4341 83.9684 46.8017 83.5778 46.2195C83.3982 45.9176 83.1764 45.6457 82.9673 45.3644C82.8645 45.2226 82.7386 45.0985 82.6259 44.9645C82.5133 44.8305 82.4016 44.6936 82.2708 44.5779C81.2904 43.5874 80.0906 42.7806 78.8101 42.1118C77.5297 41.4429 76.1562 40.907 74.7552 40.4573C71.9483 39.5649 69.0209 38.9738 66.066 38.63L61.6254 38.1375C60.1428 37.9779 58.6611 37.7799 57.1751 37.3948C57.1167 37.3801 57.0649 37.3463 57.0278 37.2988C56.9908 37.2513 56.9707 37.1928 56.9707 37.1325C56.9707 37.0722 56.9908 37.0137 57.0278 36.9662C57.0649 36.9186 57.1167 36.8849 57.1751 36.8702L57.1726 36.8717Z" fill="#371A45"/>
<path d="M71.9528 47.7686C72.002 47.709 72.0885 47.6277 72.1609 47.5553L72.3955 47.3337C72.5519 47.1843 72.7105 47.0365 72.8712 46.8904C73.186 46.5914 73.5107 46.2969 73.8058 45.9708C74.1098 45.6434 74.3853 45.2906 74.6293 44.9163C74.8969 44.54 75.0863 44.1204 75.3077 43.6712L75.3121 43.6623C75.323 43.6401 75.3407 43.622 75.3627 43.6106C75.3846 43.5992 75.4096 43.5951 75.434 43.5988C75.4584 43.6026 75.481 43.6141 75.4984 43.6317C75.5159 43.6492 75.5273 43.6718 75.531 43.6963C75.6137 44.2136 75.6044 44.7416 75.5034 45.2557C75.4025 45.78 75.2276 46.2873 74.984 46.7623C74.7485 47.2427 74.4488 47.6887 74.0931 48.0882C73.9146 48.2864 73.7202 48.4696 73.5117 48.6359C73.4078 48.7211 73.2994 48.8007 73.187 48.8743C73.0666 48.9539 72.9412 49.0258 72.8117 49.0895C72.6525 49.1683 72.4714 49.1907 72.2979 49.153C72.1245 49.1152 71.9689 49.0196 71.8568 48.8818C71.7446 48.744 71.6826 48.5722 71.6807 48.3945C71.6788 48.2167 71.7373 48.0436 71.8465 47.9035L71.9528 47.7686Z" fill="#371A45"/>
<path d="M62.0745 20.4617C62.0156 20.5136 61.947 20.5533 61.8727 20.5786C61.7985 20.604 61.7199 20.6144 61.6416 20.6093C61.5633 20.6042 61.4868 20.5838 61.4164 20.5491C61.346 20.5143 61.2831 20.4661 61.2314 20.407L49.8744 7.46916C49.8226 7.41023 49.7829 7.34165 49.7576 7.26733C49.7322 7.19302 49.7218 7.11444 49.7268 7.03608C49.7318 6.95772 49.7522 6.88112 49.7869 6.81066C49.8215 6.7402 49.8696 6.67727 49.9285 6.62545V6.62545C51.1766 5.52742 52.8091 4.97067 54.4671 5.07763C56.1251 5.18459 57.6728 5.9465 58.7698 7.19581L62.6427 11.6079C63.186 12.2266 63.6023 12.9464 63.8678 13.7262C64.1333 14.506 64.2428 15.3305 64.19 16.1526C64.1372 16.9748 63.9233 17.7785 63.5603 18.5178C63.1973 19.2572 62.6924 19.9177 62.0745 20.4617V20.4617Z" fill="white"/>
<path d="M61.681 20.7524C61.6648 20.7524 61.6486 20.7524 61.6318 20.7524C61.535 20.7463 61.4403 20.7211 61.3532 20.6782C61.266 20.6354 61.1882 20.5757 61.1242 20.5027L49.7673 7.56289C49.7031 7.49 49.654 7.40517 49.6226 7.31324C49.5913 7.22132 49.5783 7.1241 49.5845 7.02716C49.5907 6.93022 49.616 6.83545 49.6588 6.74829C49.7017 6.66113 49.7612 6.58329 49.8342 6.51921C51.1105 5.39594 52.7802 4.82634 54.476 4.9357C56.1718 5.04507 57.7547 5.82444 58.8766 7.10237L62.7495 11.5145C63.8713 12.7924 64.4402 14.4642 64.331 16.1621C64.2218 17.86 63.4434 19.445 62.167 20.5682C62.0329 20.6869 61.86 20.7524 61.681 20.7524ZM54.0563 5.20562C52.5705 5.2037 51.1355 5.74689 50.0226 6.73248C49.9775 6.77203 49.9408 6.82009 49.9143 6.87389C49.8879 6.92769 49.8723 6.98618 49.8685 7.04602C49.8646 7.10585 49.8726 7.16586 49.892 7.2226C49.9113 7.27935 49.9417 7.33172 49.9812 7.37671L61.3382 20.3146C61.418 20.4055 61.5307 20.4609 61.6513 20.4687C61.772 20.4764 61.8908 20.4359 61.9816 20.356V20.356C62.5857 19.8244 63.0793 19.1789 63.4342 18.4563C63.7892 17.7337 63.9984 16.9481 64.0502 16.1445C64.1019 15.3409 63.995 14.535 63.7356 13.7728C63.4762 13.0106 63.0694 12.307 62.5384 11.7021L58.6656 7.29003C58.1358 6.68389 57.4913 6.18896 56.7693 5.83388C56.0473 5.4788 55.2621 5.27062 54.4592 5.22139C54.3239 5.20957 54.1896 5.20562 54.0558 5.20562H54.0563Z" fill="#371A45"/>
<g opacity="0.35">
<path opacity="0.35" d="M60.8279 9.53851L62.6451 11.6072C63.7417 12.8573 64.2977 14.4923 64.1908 16.1527C64.0838 17.8131 63.3228 19.3631 62.075 20.4619C61.9557 20.5665 61.7999 20.6195 61.6417 20.6091C61.4835 20.5988 61.3359 20.526 61.2313 20.4068L58.2109 16.9684C58.3152 17.0159 58.4309 17.0324 58.5442 17.016C58.6576 16.9996 58.7639 16.9509 58.8504 16.8758L59.1559 16.6049C60.1327 15.7465 60.8185 14.6051 61.1181 13.3388C61.4177 12.0726 61.3163 10.7444 60.8279 9.53851V9.53851Z" fill="#371A45"/>
</g>
<path d="M61.6824 21.3984C61.6519 21.3984 61.6214 21.3974 61.5909 21.3954C61.4091 21.3842 61.2313 21.3368 61.0679 21.2562C60.9045 21.1755 60.7587 21.0631 60.6391 20.9255L49.2831 7.98962C49.1631 7.85289 49.0711 7.69383 49.0125 7.52151C48.9538 7.3492 48.9296 7.167 48.9413 6.98532C48.953 6.80365 49.0004 6.62607 49.0806 6.46271C49.1609 6.29936 49.2725 6.15343 49.4091 6.03327C50.1046 5.42088 50.9138 4.95166 51.7904 4.6524C52.667 4.35315 53.594 4.22973 54.5183 4.28919C55.4425 4.34864 56.3461 4.58982 57.1773 4.99893C58.0085 5.40805 58.751 5.97709 59.3625 6.67357L63.2354 11.0857C63.847 11.782 64.3157 12.5922 64.6145 13.4699C64.9134 14.3476 65.0367 15.2756 64.9773 16.201C64.9179 17.1264 64.677 18.0311 64.2684 18.8632C63.8598 19.6954 63.2915 20.4389 62.5959 21.0511C62.3443 21.2752 62.0192 21.3988 61.6824 21.3984ZM50.5931 7.09419L61.6952 19.7434C62.7288 18.7683 63.3437 17.4294 63.4105 16.009C63.4772 14.5886 62.9904 13.1978 62.0528 12.1299L58.1795 7.71577C57.2419 6.64794 55.9268 5.98633 54.5115 5.87037C53.0961 5.75442 51.6911 6.19319 50.5926 7.09419H50.5931Z" fill="#371A45"/>
<path d="M7.27767 44.1599C7.39668 44.0552 7.55234 44.0021 7.71044 44.0122C7.86854 44.0224 8.01614 44.095 8.12081 44.214L19.4777 57.1519C19.5296 57.2109 19.5693 57.2795 19.5946 57.3539C19.62 57.4282 19.6304 57.5068 19.6254 57.5852C19.6204 57.6636 19.6 57.7403 19.5653 57.8108C19.5307 57.8813 19.4826 57.9443 19.4236 57.9961V57.9961C18.1754 59.0945 16.5426 59.6514 14.8843 59.5445C13.226 59.4375 11.678 58.6754 10.5809 57.4258L6.70803 53.0136C6.16479 52.3948 5.7486 51.675 5.48323 50.8951C5.21786 50.1153 5.1085 49.2908 5.1614 48.4686C5.21429 47.6465 5.42841 46.8428 5.79152 46.1035C6.15463 45.3642 6.65962 44.7037 7.27767 44.1599Z" fill="white"/>
<path d="M15.2908 59.6964C14.3794 59.6981 13.4782 59.5047 12.6475 59.1293C11.8168 58.7538 11.0759 58.2049 10.4744 57.5194L6.60151 53.1072C4.26933 50.4476 4.53054 46.3886 7.18395 44.0535C7.33142 43.9245 7.5237 43.8589 7.71915 43.8708C7.81609 43.8768 7.91087 43.902 7.99801 43.9449C8.08515 43.9879 8.16292 44.0477 8.22681 44.121L19.5837 57.0588C19.6479 57.1317 19.697 57.2166 19.7284 57.3085C19.7597 57.4004 19.7727 57.4976 19.7665 57.5946C19.7602 57.6915 19.735 57.7863 19.6922 57.8734C19.6493 57.9606 19.5898 58.0384 19.5168 58.1025C18.3492 59.1317 16.8464 59.6985 15.2908 59.6964V59.6964ZM7.67094 44.1525C7.56038 44.1524 7.45362 44.1928 7.37088 44.2663V44.2663C6.15257 45.3409 5.40973 46.8556 5.30534 48.4779C5.20095 50.1002 5.74352 51.6978 6.81402 52.9201L10.6869 57.3322C11.7602 58.552 13.273 59.2958 14.8933 59.4003C16.5136 59.5048 18.1091 58.9616 19.3299 57.8897C19.4207 57.8098 19.476 57.697 19.4838 57.5762C19.4915 57.4554 19.451 57.3364 19.3712 57.2455L8.01431 44.3076C7.97482 44.2625 7.9268 44.2257 7.87302 44.1992C7.81924 44.1727 7.76076 44.1572 7.70095 44.1535L7.67094 44.1525Z" fill="#371A45"/>
<g opacity="0.35">
<path opacity="0.35" d="M16.3265 53.5616L19.4748 57.1512C19.5793 57.2707 19.6322 57.4268 19.6219 57.5852C19.6116 57.7437 19.5388 57.8916 19.4197 57.9964C18.8019 58.5404 18.083 58.9571 17.3042 59.2228C16.5255 59.4886 15.702 59.598 14.881 59.545C14.0599 59.492 13.2574 59.2776 12.5191 58.9139C11.7809 58.5502 11.1214 58.0445 10.5785 57.4256L8.94629 55.5667C10.0441 56.063 11.2614 56.2321 12.4526 56.0538C13.6438 55.8755 14.7586 55.3574 15.6634 54.5615L16.1347 54.1463C16.2161 54.075 16.2768 53.9831 16.3106 53.8803C16.3443 53.7774 16.3498 53.6674 16.3265 53.5616Z" fill="#371A45"/>
</g>
<path d="M15.2899 60.3425C14.2867 60.3445 13.2946 60.1316 12.3803 59.7183C11.466 59.3049 10.6505 58.7006 9.98847 57.9459L6.1156 53.5338C3.54828 50.6091 3.83605 46.1384 6.75509 43.5678C7.03098 43.3253 7.39174 43.2024 7.7581 43.226C8.12447 43.2497 8.46648 43.418 8.70899 43.6939L20.0679 56.6343C20.1879 56.771 20.2799 56.93 20.3386 57.1024C20.3972 57.2747 20.4214 57.4569 20.4097 57.6385C20.398 57.8202 20.3507 57.9978 20.2704 58.1612C20.1901 58.3245 20.0785 58.4704 19.9419 58.5906C18.6562 59.7225 17.002 60.3455 15.2899 60.3425V60.3425ZM7.65579 44.877C6.62376 45.8531 6.00987 47.1919 5.94318 48.6118C5.87649 50.0317 6.36218 51.4222 7.29817 52.4911L11.1706 56.9032C12.1092 57.9695 13.4241 58.63 14.839 58.7459C16.2539 58.8619 17.6586 58.4241 18.7579 57.5248L7.65579 44.877Z" fill="#371A45"/>
<path d="M34.6782 61.6609C50.8689 61.6609 63.9941 48.5193 63.9941 32.3084C63.9941 16.0974 50.8689 2.95581 34.6782 2.95581C18.4875 2.95581 5.3623 16.0974 5.3623 32.3084C5.3623 48.5193 18.4875 61.6609 34.6782 61.6609Z" fill="white"/>
<path d="M34.7145 61.7912C25.8167 61.7912 17.0187 57.7825 11.2303 50.1596C1.39735 37.2133 3.9204 18.6729 16.849 8.82958C29.7776 -1.01371 48.2969 1.51102 58.1298 14.4573C62.8921 20.7287 64.9301 28.4822 63.8685 36.2883C62.807 44.0945 58.7693 51.0195 52.5067 55.7877C47.3938 59.6879 41.1422 61.7974 34.7145 61.7912V61.7912ZM34.6456 3.10831C28.2779 3.10115 22.0846 5.19095 17.0202 9.05565C4.21555 18.8034 1.7171 37.166 11.4531 49.9882C21.1892 62.8103 39.5294 65.3104 52.3355 55.5617C58.5386 50.8397 62.5344 43.9812 63.5857 36.2499C64.6369 28.5186 62.6186 20.84 57.9021 14.6277C52.1702 7.07961 43.4549 3.10831 34.6437 3.10831H34.6456Z" fill="#371A45"/>
<g opacity="0.35">
<path opacity="0.35" d="M55.3352 11.4785C56.2989 12.4361 57.1946 13.46 58.0157 14.5426C67.8127 27.447 65.3084 45.8628 52.4211 55.6755C39.5338 65.4883 21.14 62.9773 11.34 50.0739C11.0581 49.7031 10.7846 49.3253 10.5244 48.946C20.7352 59.1228 37.1323 60.4595 48.9255 51.4831C61.4424 41.9531 64.1632 24.311 55.3352 11.4785Z" fill="#371A45"/>
</g>
<path d="M34.7147 62.4373C25.6221 62.4373 16.6313 58.3404 10.7159 50.5505C0.668515 37.3205 3.24518 18.3738 16.4586 8.31672C29.672 -1.74033 48.5956 0.838087 58.6416 14.068C63.5081 20.4769 65.5909 28.4008 64.5058 36.3768C63.4206 44.3529 59.2983 51.4311 52.8965 56.3038C47.6715 60.2891 41.283 62.4443 34.7147 62.4373V62.4373ZM34.6458 3.75438C28.4198 3.74792 22.3644 5.79129 17.4124 9.56972C4.88868 19.1032 2.44483 37.0585 11.9674 49.5969C21.4899 62.1354 39.4223 64.5803 51.9446 55.0473C58.011 50.4293 61.9183 43.7225 62.9464 36.1626C63.9745 28.6027 62.0004 21.094 57.3877 15.0196C51.7842 7.638 43.2608 3.75438 34.6443 3.75438H34.6458Z" fill="#371A45"/>
<path d="M58.3962 15.1997C61.9381 19.7192 63.7582 25.0656 63.9726 30.5052C64.133 34.5834 59.9787 45.2039 50.5098 52.7795C41.7295 59.8035 29.9865 61.4018 26.0688 60.2749C20.8432 58.7712 16.0908 55.7263 12.5504 51.2069C3.18282 39.2476 9.55907 26.2295 22.2201 16.2857C34.8811 6.34197 49.0267 3.23999 58.3962 15.1997Z" fill="#371A45"/>
<path d="M29.0967 61.3924C27.7686 61.3924 26.6593 61.2649 25.8501 61.0319C20.2727 59.4277 15.4588 56.1982 11.9288 51.693C7.32885 45.8195 6.13398 39.4446 8.37713 32.7403C10.333 26.8964 14.9516 20.9919 21.7332 15.6661C28.5148 10.3403 35.3421 7.25411 41.4764 6.74385C48.5108 6.15921 54.4138 8.83958 59.0152 14.7135C62.5442 19.2182 64.5306 24.6681 64.7589 30.4746C64.9173 34.5026 61.0439 45.3605 51.0004 53.3957C43.6831 59.2494 34.5413 61.3924 29.0967 61.3924ZM43.3722 8.218C35.0386 8.218 26.8929 13.6142 22.7038 16.9048C16.1652 22.0405 11.7266 27.6913 9.86863 33.2397C7.80257 39.4082 8.91381 45.289 13.1684 50.7197C16.4918 54.9619 21.0278 58.0038 26.2849 59.5164C30.0166 60.5901 41.4572 59.011 50.017 52.1628C59.5037 44.5729 63.3279 34.1681 63.1847 30.5352C62.9698 25.0627 61.0995 19.9275 57.7736 15.6853C53.4526 10.1665 48.3785 8.218 43.3722 8.218Z" fill="#371A45"/>
<g opacity="0.7">
<path opacity="0.7" d="M52.1014 24.0205C53.9378 23.0507 54.3406 20.2084 53.0012 17.6722C51.6617 15.136 49.0872 13.8662 47.2508 14.836C45.4144 15.8059 45.0116 18.6481 46.3511 21.1843C47.6906 23.7206 50.2651 24.9904 52.1014 24.0205Z" fill="white"/>
</g>
<g opacity="0.7">
<path opacity="0.7" d="M53.1536 32.6189C54.2146 32.2351 54.7118 30.9207 54.2641 29.683C53.8164 28.4454 52.5934 27.7532 51.5324 28.1369C50.4714 28.5207 49.9742 29.8351 50.4219 31.0728C50.8696 32.3104 52.0926 33.0026 53.1536 32.6189Z" fill="white"/>
</g>
<g opacity="0.35">
<path opacity="0.35" d="M45.1972 7.54419C50.0967 8.02047 54.6317 10.3965 58.3954 15.1991C61.9372 19.7196 63.7573 25.0666 63.9733 30.5051C64.1331 34.5833 59.9779 45.2043 50.51 52.7804C47.1674 55.4564 43.3948 57.3433 39.7861 58.5923C51.2267 49.0308 56.2546 36.052 56.0553 30.9942C55.7843 24.0899 53.4708 17.3018 48.9771 11.5697C47.8447 10.1133 46.5793 8.76564 45.1972 7.54419V7.54419Z" fill="#111A28"/>
</g>
<path d="M6.28883 40.4407H6.25242C6.05439 40.4317 5.86703 40.3483 5.72778 40.2071C5.58852 40.0658 5.50763 39.8771 5.50126 39.6787C4.88637 30.5368 10.0687 20.9472 19.7226 13.3646C29.3081 5.83627 39.7526 2.96923 48.3857 5.49347C48.574 5.537 48.7398 5.64839 48.8514 5.80641C48.9629 5.96443 49.0125 6.15803 48.9907 6.35031C48.9689 6.5426 48.8772 6.72012 48.733 6.84904C48.5889 6.97796 48.4024 7.04928 48.2091 7.04938C48.185 7.04938 48.156 7.04938 48.1324 7.04593C48.0812 7.04132 48.0307 7.03176 47.9814 7.01737C39.8342 4.61676 29.8886 7.38332 20.6942 14.6024C11.4476 21.8653 6.48412 30.9732 7.07344 39.5926C7.07344 39.6108 7.07344 39.6285 7.07344 39.6462C7.07344 39.664 7.07344 39.6753 7.07344 39.6871C7.06458 39.8897 6.97809 40.081 6.83197 40.2214C6.68584 40.3617 6.49131 40.4403 6.28883 40.4407ZM6.27308 39.6526H6.28833H6.27308Z" fill="#371A45"/>
<g opacity="0.7">
<path opacity="0.7" d="M23.2725 54.2784C23.2725 54.2784 10.3297 45.3857 12.9968 35.6965C15.664 26.0074 24.8157 18.8519 25.0616 19.605C25.0616 19.605 16.8678 30.0009 19.1822 41.1159C20.9674 49.6865 23.2725 54.2784 23.2725 54.2784Z" fill="white"/>
</g>
<path d="M100.665 79.822C101.272 79.3068 101.843 78.7504 102.374 78.1568C102.89 77.5883 103.352 76.9721 103.752 76.3167C104.124 75.6939 104.415 75.026 104.617 74.3293C104.817 73.653 104.89 72.9714 104.919 72.2606V72.2276C104.927 72.0323 105.006 71.8467 105.142 71.7067C105.279 71.5667 105.462 71.4822 105.657 71.4696C105.852 71.4569 106.044 71.5169 106.197 71.6381C106.351 71.7593 106.454 71.933 106.486 72.1257C106.642 73.028 106.541 73.9825 106.243 74.8455C105.953 75.7158 105.456 76.4822 104.899 77.1495C104.34 77.8006 103.699 78.3763 102.992 78.8621C102.294 79.3369 101.566 79.7408 100.772 80.0185C100.747 80.0276 100.72 80.0275 100.695 80.0183C100.67 80.0091 100.649 79.9914 100.635 79.9683C100.622 79.9452 100.617 79.9181 100.622 79.8918C100.626 79.8655 100.64 79.8417 100.661 79.8245L100.665 79.822Z" fill="#371A45"/>
<path d="M73.371 103.16C73.0812 103.948 72.6665 104.673 72.1815 105.364C71.6855 106.064 71.1006 106.697 70.4416 107.246C69.7662 107.796 68.9929 108.28 68.1192 108.556C67.253 108.841 66.2991 108.927 65.3999 108.757C65.2082 108.721 65.0366 108.615 64.9182 108.46C64.7997 108.305 64.7428 108.112 64.7584 107.917C64.774 107.722 64.8609 107.54 65.0025 107.406C65.1442 107.272 65.3304 107.195 65.5253 107.19H65.5593C66.2677 107.171 66.9495 107.11 67.6278 106.92C68.3269 106.727 68.9985 106.446 69.626 106.082C70.2868 105.693 70.9092 105.242 71.4849 104.735C72.0863 104.213 72.6509 103.649 73.1747 103.049L73.1791 103.044C73.1966 103.024 73.2206 103.011 73.2468 103.007C73.2731 103.003 73.2999 103.008 73.3227 103.022C73.3455 103.035 73.3628 103.057 73.3716 103.082C73.3804 103.107 73.3802 103.134 73.371 103.159V103.16Z" fill="#371A45"/>
<path d="M84.9916 47.7375C84.8359 47.7375 84.6865 47.6759 84.576 47.5661C80.3248 43.3402 74.6358 47.1504 74.3962 47.3145C74.267 47.3995 74.1097 47.4305 73.958 47.4007C73.8063 47.3708 73.6723 47.2826 73.5849 47.1549C73.4975 47.0273 73.4636 46.8704 73.4904 46.7179C73.5173 46.5655 73.6029 46.4297 73.7287 46.3397C73.7956 46.2939 80.4601 41.8084 85.4078 46.7269C85.4909 46.8094 85.5476 46.9147 85.5707 47.0295C85.5939 47.1444 85.5824 47.2635 85.5378 47.3718C85.4932 47.4801 85.4175 47.5727 85.3203 47.6378C85.223 47.7029 85.1086 47.7376 84.9916 47.7375V47.7375Z" fill="#371A45"/>
<path d="M36.8829 80.7466C36.7735 80.7467 36.6661 80.7164 36.5729 80.659C36.4797 80.6016 36.4043 80.5193 36.3551 80.4215C34.0578 75.8547 26.1837 70.5708 26.1045 70.5176C25.974 70.4308 25.8833 70.2956 25.8524 70.1418C25.8215 69.988 25.8529 69.8282 25.9397 69.6976C26.0264 69.5669 26.1615 69.4762 26.3151 69.4452C26.4687 69.4143 26.6282 69.4457 26.7587 69.5326C27.0932 69.7552 34.9737 75.0425 37.4097 79.8886C37.4551 79.9787 37.4766 80.0789 37.4723 80.1796C37.4681 80.2804 37.4381 80.3784 37.3853 80.4643C37.3325 80.5503 37.2586 80.6212 37.1706 80.6704C37.0827 80.7197 36.9836 80.7455 36.8829 80.7456V80.7466Z" fill="#371A45"/>
<path d="M89.4901 77.9944C89.3531 77.9943 89.2205 77.9465 89.1149 77.8593C89.0093 77.772 88.9372 77.6507 88.9111 77.5162C88.8457 77.1788 87.3404 69.1766 90.8064 63.3371C94.4363 57.2238 100.268 60.046 100.326 60.0751C100.462 60.1472 100.565 60.2699 100.612 60.4168C100.659 60.5637 100.647 60.7232 100.578 60.8612C100.509 60.9993 100.389 61.105 100.244 61.1557C100.098 61.2063 99.9387 61.198 99.7992 61.1325C99.6024 61.034 94.8825 58.7841 91.8218 63.94C88.5889 69.3864 90.0548 77.2108 90.07 77.2876C90.0998 77.4414 90.0673 77.6008 89.9798 77.7306C89.8922 77.8605 89.7568 77.9502 89.6032 77.9801C89.5661 77.9888 89.5282 77.9935 89.4901 77.9944V77.9944Z" fill="#371A45"/>
</svg>
