<svg width="85" height="105" viewBox="0 0 85 105" fill="none" xmlns="http://www.w3.org/2000/svg">
<g opacity="0.35">
<path opacity="0.35" d="M42.5 105C65.9721 105 85 103.532 85 101.722C85 99.9117 65.9721 98.4441 42.5 98.4441C19.0279 98.4441 0 99.9117 0 101.722C0 103.532 19.0279 105 42.5 105Z" fill="#371A45"/>
</g>
<path d="M67.9867 93.2032H14.6305C14.6305 93.2032 14.5722 87.7225 15.6211 79.5828C15.8082 78.1222 16.0321 76.5742 16.3011 74.9563C17.4785 67.8234 19.48 59.3412 22.8887 50.9079C23.401 49.6396 23.946 48.3741 24.5238 47.1114C24.9837 46.1096 25.465 45.1133 25.9678 44.1227C26.3344 43.3971 26.7139 42.6751 27.1062 41.9564H55.5097C55.9018 42.6753 56.2813 43.3974 56.6482 44.1227C57.1586 45.1245 57.6451 46.1326 58.1077 47.1471C58.7681 48.5913 59.3866 50.0402 59.963 51.4939C63.2291 59.7322 65.1668 67.9883 66.316 74.9547C66.5851 76.5778 66.809 78.1313 66.998 79.5971C68.0449 87.7296 67.9867 93.2032 67.9867 93.2032Z" fill="white"/>
<g opacity="0.35">
<path opacity="0.35" d="M67.9867 93.2033H14.6305C14.6305 93.2033 14.5722 87.7225 15.6211 79.5828C15.8082 78.1222 16.0321 76.5742 16.3011 74.9563C16.808 71.8854 17.4686 68.5617 18.3281 65.1025C21.115 74.054 30.0937 80.8694 41.0918 80.8694H41.5673C52.5357 80.8694 61.489 74.0897 64.3034 65.1725C65.1549 68.607 65.8092 71.9056 66.3109 74.9551C66.5799 76.5782 66.8038 78.1318 66.9928 79.5975C68.0449 87.7297 67.9867 93.2033 67.9867 93.2033Z" fill="#371A45"/>
</g>
<path d="M68.614 93.8387H14.0036L13.9969 93.2093C13.9969 93.1394 13.9402 86.0768 15.4535 76.2501C16.8504 67.177 19.9096 53.8093 26.5491 41.651C26.5882 41.576 26.6417 41.5097 26.7066 41.4557C26.7716 41.4018 26.8466 41.3614 26.9273 41.3369C27.008 41.3124 27.0927 41.3042 27.1766 41.313C27.2605 41.3217 27.3417 41.3471 27.4157 41.3877C27.4896 41.4284 27.5548 41.4833 27.6073 41.5495C27.6598 41.6157 27.6986 41.6917 27.7214 41.773C27.7443 41.8544 27.7507 41.9395 27.7403 42.0234C27.73 42.1073 27.703 42.1883 27.6611 42.2617C16.1692 63.3039 15.3256 88.3082 15.2669 92.5668H67.3491C67.3253 90.6421 67.1482 84.4724 65.9063 76.4177C64.5241 67.4524 61.5018 54.2495 54.9542 42.2617C54.8734 42.1138 54.8545 41.9397 54.9017 41.7779C54.9489 41.6161 55.0583 41.4796 55.2058 41.3987C55.3533 41.3177 55.5269 41.2988 55.6883 41.3461C55.8497 41.3934 55.9857 41.5031 56.0665 41.651C62.7072 53.8093 65.7664 67.177 67.1621 76.2501C68.675 86.0768 68.6192 93.1394 68.6188 93.2093L68.614 93.8387Z" fill="#371A45"/>
<path d="M57.3403 91.4749H25.2773C19.6035 91.4749 14.9873 86.8464 14.9873 81.1579V55.4208C14.9873 49.7319 19.6035 45.1038 25.2773 45.1038H57.3403C63.0141 45.1038 67.6302 49.7319 67.6302 55.4208V81.1579C67.6302 86.8464 63.0141 91.4749 57.3403 91.4749ZM25.2773 46.3752C20.3025 46.3752 16.2554 50.4331 16.2554 55.4208V81.1579C16.2554 86.1456 20.3025 90.2035 25.2773 90.2035H57.3403C62.3151 90.2035 66.3618 86.1456 66.3618 81.1579V55.4208C66.3618 50.4331 62.3151 46.3752 57.3403 46.3752H25.2773Z" fill="#371A45"/>
<path d="M25.2773 46.3752C20.3025 46.3752 16.2554 50.4331 16.2554 55.4208V81.1579C16.2554 86.1456 20.3025 90.2035 25.2773 90.2035H57.3403C62.3151 90.2035 66.3618 86.1456 66.3618 81.1579V55.4208C66.3618 50.4331 62.3151 46.3752 57.3403 46.3752H25.2773Z" fill="white"/>
<path d="M82.3167 78.8557C82.3167 78.8557 77.915 99.9142 76.4805 100.381C74.4262 101.051 69.4887 100.346 69.4887 100.346C69.4887 100.346 59.2221 98.9527 50.0286 98.3201C47.3308 98.1346 44.725 98.0134 42.4995 98.0134C39.9475 98.0134 36.8946 98.1723 33.7768 98.4059C24.9114 99.0703 15.5119 100.346 15.5119 100.346C15.5119 100.346 10.5728 101.051 8.51852 100.381C7.08243 99.9142 2.68066 78.8557 2.68066 78.8557C5.29922 75.0588 11.3511 75.4609 14.2343 82.1619C14.3088 82.0427 14.3865 81.9235 14.4657 81.8087C15.5753 80.1752 17.1572 78.7254 19.4064 77.9117C19.752 77.7865 20.0975 77.6796 20.4399 77.5906C25.2063 76.3414 29.5494 78.4647 32.6118 80.7772C32.8923 80.987 33.157 81.2 33.4122 81.4097C33.4392 81.432 33.4645 81.4527 33.4915 81.4749C33.6944 81.6434 33.8893 81.8108 34.0764 81.9771C34.9949 82.7836 36.0207 83.4581 37.1245 83.9813C37.283 84.0528 37.4383 84.1243 37.6 84.1911C39.1504 84.8484 40.8166 85.1871 42.4999 85.1872C45.6051 85.1872 48.5914 84.0317 50.923 81.9767C53.5099 79.6981 57.5106 77.0673 62.082 77.2263C63.2814 77.2685 64.4668 77.4997 65.5945 77.9113C67.4316 78.5772 68.8218 79.6659 69.8743 80.931C70.1984 81.3201 70.496 81.7307 70.7651 82.1599C73.6495 75.4605 79.6982 75.0584 82.3167 78.8557Z" fill="white"/>
<g opacity="0.35">
<path opacity="0.35" d="M82.3166 78.8557C82.3166 78.8557 77.9149 99.9142 76.4804 100.38C74.4261 101.052 69.487 100.346 69.487 100.346C69.487 100.346 59.2236 98.9526 50.0301 98.3201C49.6925 98.2962 49.357 98.2741 49.0236 98.2537C48.8143 98.2406 48.6067 98.2263 48.3991 98.214C47.9854 98.1875 47.5759 98.1647 47.1706 98.1456L46.5667 98.117C46.4082 98.1091 46.2497 98.1027 46.0912 98.0964C45.9327 98.09 45.7742 98.0821 45.6188 98.0773C45.4635 98.0725 45.3066 98.0646 45.1528 98.0598L44.6931 98.0455C44.3888 98.0376 44.0892 98.0296 43.7944 98.0249C43.3521 98.0169 42.9226 98.0121 42.5041 98.0121C42.3203 98.0121 42.1348 98.0121 41.9462 98.0153C41.6625 98.0153 41.374 98.0217 41.0791 98.0264C41.0585 98.0264 41.0395 98.0264 41.0189 98.0264C40.7811 98.0312 40.5434 98.0376 40.3056 98.0439C40.0679 98.0503 39.8206 98.0598 39.5733 98.0678C38.6397 98.1011 37.6665 98.1472 36.6742 98.2076C36.484 98.2188 36.2938 98.2299 36.102 98.2426C35.72 98.2664 35.3353 98.2919 34.9481 98.3189C34.5608 98.3459 34.1724 98.374 33.783 98.4031C24.9192 99.0675 15.5149 100.344 15.5149 100.344C15.5149 100.344 10.5774 101.049 8.52315 100.377C7.0839 99.9142 2.68213 78.8557 2.68213 78.8557C3.09413 78.2533 3.61771 77.7358 4.22441 77.3315C5.63513 83.5044 7.63868 91.5655 8.5184 91.8531C10.5727 92.5222 15.5102 91.817 15.5102 91.817C15.5102 91.817 16.4014 91.5746 17.8934 91.2011C19.8161 90.7195 20.4691 88.3097 19.0529 86.9203C17.3885 85.2884 15.8316 83.5775 14.4656 81.8086C15.5752 80.1752 17.1571 78.7254 19.4063 77.9116C19.7519 77.7865 20.0974 77.6796 20.4398 77.5906C25.2061 76.3414 29.5493 78.4647 32.6116 80.7772C32.8922 80.987 33.1569 81.1999 33.4121 81.4097C33.4391 81.432 33.4644 81.4526 33.4914 81.4749C33.6943 81.6433 33.8892 81.8108 34.0763 81.9771C34.9948 82.7835 36.0206 83.458 37.1244 83.9812C37.2829 84.0528 37.4382 84.1243 37.5999 84.191C39.1503 84.8483 40.8165 85.1871 42.4998 85.1871C45.6049 85.1871 48.5912 84.0317 50.9229 81.9767C53.5098 79.698 57.5105 77.0673 62.0819 77.2262C63.2813 77.2685 64.4666 77.4996 65.5944 77.9112C67.4315 78.5771 68.8216 79.6658 69.8741 80.9309C68.4206 82.8906 66.7182 84.7914 64.8843 86.6052L64.8506 86.6386C63.4296 88.0392 64.0822 90.4565 66.018 90.9297C68.1531 91.4522 69.4858 91.8146 69.4858 91.8146C69.4858 91.8146 74.4249 92.5199 76.4792 91.8508C77.3605 91.5631 79.3624 83.5021 80.7747 77.3291C81.3816 77.7341 81.9051 78.2524 82.3166 78.8557Z" fill="#371A45"/>
</g>
<path d="M11.1657 101.305C10.0958 101.305 9.05441 101.225 8.3225 100.987C7.8018 100.817 7.08891 100.584 4.44658 89.5939C3.17851 84.3234 2.07332 79.0416 2.06222 78.9892L2.00635 78.7218L2.16129 78.4973C3.45907 76.6148 5.56922 75.6222 7.79863 75.8451C10.4386 76.107 12.779 77.9319 14.3371 80.9035C15.6218 79.2236 17.2497 78.0185 19.1882 77.3156C23.1264 75.8853 27.2662 76.5293 31.4928 79.2272C31.6347 79.3178 31.7349 79.4611 31.7713 79.6258C31.8078 79.7904 31.7775 79.9628 31.6872 80.1051C31.5969 80.2474 31.4539 80.3478 31.2897 80.3844C31.1255 80.4209 30.9535 80.3906 30.8116 80.3C26.9345 77.825 23.1692 77.2235 19.6198 78.512C17.6146 79.2391 15.9832 80.5821 14.7702 82.5036L14.1279 83.5207L13.6523 82.4154C12.305 79.288 10.1255 77.3546 7.67341 77.111C5.99243 76.9433 4.40061 77.649 3.3608 79.0051C5.35166 88.4929 7.89334 98.7027 8.80199 99.8057C10.4204 100.277 14.112 99.9062 15.4197 99.7195C15.596 99.6953 32.7577 97.3808 42.4977 97.3808C52.2376 97.3808 69.3989 99.6953 69.5712 99.7187C70.8849 99.9062 74.5765 100.278 76.1953 99.8057C77.1039 98.7027 79.6452 88.4929 81.6365 79.0051C80.5971 77.649 79.0033 76.9441 77.3239 77.111C74.8702 77.3546 72.6907 79.288 71.3449 82.4154L70.8694 83.5207L70.2271 82.5036C69.0145 80.5821 67.3826 79.2391 65.3775 78.512C61.7972 77.2127 57.9994 77.8365 54.089 80.3628C53.9476 80.4525 53.7766 80.4826 53.6132 80.4465C53.4498 80.4104 53.3073 80.311 53.2167 80.17C53.1261 80.029 53.0947 79.8578 53.1295 79.6937C53.1642 79.5296 53.2623 79.3859 53.4022 79.2939C57.6027 76.5794 61.8927 75.8952 65.809 77.3164C67.7476 78.0197 69.3755 79.2236 70.6602 80.9043C72.2191 77.9331 74.5595 76.1078 77.1986 75.8459C79.43 75.6234 81.5382 76.6155 82.836 78.4981L82.9909 78.7226L82.9351 78.99C82.924 79.0424 81.818 84.3241 80.5507 89.5947C77.9084 100.585 77.1955 100.818 76.6748 100.988C74.5048 101.697 69.6041 101.008 69.3965 100.978C69.2293 100.956 52.1516 98.6527 42.4973 98.6527C32.8429 98.6527 15.7653 100.957 15.5941 100.979C15.4621 100.995 13.2644 101.305 11.1657 101.305Z" fill="#371A45"/>
<path d="M75.2052 100.381H76.4812C77.2142 100.381 77.9317 100.169 78.5468 99.769C79.1619 99.3692 79.6482 98.7993 79.947 98.1282C81.857 93.8398 85.3391 84.4175 82.0774 78.6678C81.9825 78.4998 81.8812 78.3384 81.7734 78.1834C81.7734 78.1834 78.6429 75.3278 76.3925 79.3679C74.291 83.1417 69.8821 99.2785 75.2052 100.381Z" fill="#AFAFB2"/>
<g opacity="0.7">
<path opacity="0.7" d="M75.2407 82.0574C75.297 81.9668 75.3533 81.8814 75.4079 81.8023C78.1743 77.7627 82.0257 80.6183 82.0257 80.6183C82.1576 80.7732 82.2832 80.9361 82.3994 81.1022C82.7793 81.6483 83.0936 82.2376 83.3357 82.8576C83.1796 81.3478 82.7901 79.9198 82.0788 78.6678C81.9839 78.4998 81.8826 78.3384 81.7748 78.1834C81.7748 78.1834 78.6443 75.3278 76.3939 79.3679C76.0519 79.9794 75.6513 80.9135 75.2407 82.0574Z" fill="white"/>
</g>
<path d="M83.3157 83.332C83.2803 83.332 83.2451 83.3291 83.2103 83.3233L75.3839 82.0121C75.3009 81.9994 75.2212 81.9702 75.1495 81.9263C75.0778 81.8825 75.0155 81.8248 74.9662 81.7566C74.917 81.6883 74.8817 81.611 74.8625 81.529C74.8433 81.447 74.8405 81.362 74.8544 81.2789C74.8682 81.1959 74.8984 81.1164 74.9431 81.0451C74.9878 80.9738 75.0462 80.9122 75.1149 80.8637C75.1836 80.8152 75.2612 80.781 75.3433 80.7628C75.4253 80.7447 75.5101 80.7431 75.5928 80.7581L83.4195 82.0693C83.5763 82.0956 83.7175 82.1801 83.8151 82.3059C83.9127 82.4317 83.9597 82.5897 83.9466 82.7485C83.9335 82.9074 83.8614 83.0555 83.7446 83.1636C83.6277 83.2717 83.4746 83.3318 83.3157 83.332Z" fill="#371A45"/>
<path d="M83.2676 87.572C83.2391 87.5719 83.2107 87.57 83.1824 87.5664L74.0266 86.3319C73.862 86.3071 73.7137 86.2183 73.6138 86.0849C73.5138 85.9514 73.4703 85.7838 73.4925 85.6184C73.5147 85.453 73.6009 85.303 73.7325 85.2007C73.8641 85.0985 74.0305 85.0522 74.1958 85.072L83.3496 86.3061C83.5091 86.3274 83.6545 86.4087 83.7565 86.5335C83.8584 86.6583 83.9092 86.8173 83.8986 86.9782C83.8879 87.1392 83.8167 87.2901 83.6992 87.4003C83.5818 87.5106 83.4269 87.5719 83.266 87.572H83.2676Z" fill="#371A45"/>
<path d="M82.4598 91.7248C82.4333 91.7249 82.4068 91.7233 82.3805 91.7201L73.0864 90.5793C72.9215 90.5565 72.7722 90.4696 72.6707 90.3374C72.5692 90.2051 72.5236 90.0381 72.5437 89.8725C72.5639 89.7068 72.6483 89.5558 72.7786 89.4519C72.9089 89.3481 73.0747 89.2998 73.2402 89.3174L82.5359 90.4577C82.696 90.4775 82.8426 90.5577 82.9457 90.6821C83.0489 90.8064 83.101 90.9655 83.0913 91.1269C83.0816 91.2884 83.0109 91.4401 82.8936 91.5511C82.7762 91.6621 82.6211 91.7241 82.4598 91.7244V91.7248Z" fill="#371A45"/>
<path d="M80.9858 96.2535C80.9666 96.2536 80.9475 96.2527 80.9284 96.2508L72.619 95.499C72.4525 95.4826 72.2992 95.4009 72.1925 95.2717C72.0859 95.1426 72.0344 94.9763 72.0494 94.8093C72.0644 94.6423 72.1447 94.4879 72.2727 94.3799C72.4006 94.2719 72.566 94.219 72.7327 94.2327L81.0421 94.9845C81.205 94.9986 81.3562 95.0754 81.464 95.1987C81.5718 95.322 81.6279 95.4822 81.6207 95.646C81.6134 95.8098 81.5433 95.9645 81.425 96.0777C81.3067 96.1909 81.1493 96.2539 80.9858 96.2535Z" fill="#371A45"/>
<g opacity="0.35">
<path opacity="0.35" d="M75.2052 100.381H76.4812C77.2142 100.381 77.9317 100.169 78.5467 99.769C79.1618 99.3693 79.6482 98.7993 79.947 98.1282C80.4411 97.0157 81.0411 95.563 81.603 93.9165C80.837 95.1911 79.2809 95.9993 77.5721 95.9993H76.0516C73.8872 95.6234 73.0733 93.4961 73.04 90.7057C72.3089 95.4129 72.5098 99.8224 75.2052 100.381Z" fill="#371A45"/>
</g>
<path d="M76.4813 101.016H75.1403L75.0773 101.003C74.0315 100.787 73.2417 100.108 72.7298 98.9856C70.5459 94.1982 74.1167 82.1539 75.8389 79.0579C76.635 77.6275 77.6395 76.805 78.8244 76.6111C80.6401 76.3139 82.1372 77.6561 82.2002 77.7133L82.2529 77.7614L82.2926 77.8198C82.4114 77.9903 82.524 78.1699 82.6278 78.3538C85.9513 84.2137 82.7368 93.4206 80.5248 98.3876C80.1755 99.1702 79.6079 99.8347 78.8905 100.301C78.173 100.768 77.3363 101.016 76.4813 101.016ZM75.2746 99.7449H76.4813C77.0916 99.7449 77.6889 99.5678 78.2012 99.2351C78.7134 98.9023 79.1186 98.428 79.3681 97.8695C81.072 94.0472 84.6884 84.5558 81.5266 78.982C81.4548 78.8553 81.3784 78.7317 81.2987 78.6133C81.0728 78.4289 80.0845 77.6891 79.0213 77.8671C78.2407 77.9978 77.5425 78.6069 76.9461 79.6777C75.1442 82.9136 72.0299 94.394 73.8829 98.4567C74.2118 99.1775 74.6675 99.5995 75.2746 99.7449Z" fill="#371A45"/>
<path d="M9.79461 100.381H8.51861C7.78562 100.381 7.06817 100.169 6.45308 99.769C5.83799 99.3692 5.35163 98.7993 5.05284 98.1282C3.14281 93.8398 -0.339216 84.4175 2.92249 78.6678C3.01733 78.4998 3.11864 78.3384 3.22643 78.1834C3.22643 78.1834 6.35696 75.3278 8.60738 79.3679C10.7088 83.1417 15.1177 99.2785 9.79461 100.381Z" fill="#AFAFB2"/>
<g opacity="0.7">
<path opacity="0.7" d="M9.75956 82.0574C9.70329 81.9668 9.64702 81.8814 9.59234 81.8023C6.82597 77.7627 2.97462 80.6183 2.97462 80.6183C2.84266 80.7732 2.71705 80.9361 2.60094 81.1022C2.22097 81.6483 1.90667 82.2376 1.66455 82.8576C1.82068 81.3478 2.21021 79.9198 2.92152 78.6678C3.01636 78.4998 3.11767 78.3384 3.22546 78.1834C3.22546 78.1834 6.356 75.3278 8.60642 79.3679C8.9484 79.9794 9.34903 80.9135 9.75956 82.0574Z" fill="white"/>
</g>
<path d="M1.68435 83.332C1.52538 83.3318 1.3723 83.2717 1.25544 83.1636C1.13858 83.0555 1.06648 82.9074 1.05341 82.7485C1.04035 82.5897 1.08729 82.4317 1.18492 82.3059C1.28254 82.1801 1.42374 82.0956 1.58053 82.0693L9.40726 80.7581C9.48992 80.7431 9.57472 80.7447 9.65674 80.7628C9.73877 80.781 9.81639 80.8152 9.88509 80.8637C9.95379 80.9122 10.0122 80.9738 10.0569 81.0451C10.1017 81.1164 10.1318 81.1959 10.1457 81.2789C10.1595 81.362 10.1567 81.447 10.1375 81.529C10.1183 81.611 10.083 81.6883 10.0338 81.7566C9.98451 81.8248 9.92222 81.8825 9.85052 81.9263C9.77881 81.9702 9.69913 81.9994 9.6161 82.0121L1.78936 83.3233C1.75466 83.3291 1.71954 83.332 1.68435 83.332Z" fill="#371A45"/>
<path d="M1.7325 87.5719C1.57157 87.572 1.41664 87.5107 1.2991 87.4005C1.18157 87.2903 1.11023 87.1394 1.09954 86.9784C1.08886 86.8174 1.13963 86.6583 1.24157 86.5335C1.3435 86.4086 1.48897 86.3273 1.64849 86.306L10.8043 85.0719C10.8875 85.0594 10.9723 85.0635 11.0538 85.0842C11.1353 85.1048 11.2119 85.1415 11.2792 85.1921C11.3464 85.2427 11.403 85.3062 11.4455 85.3789C11.4881 85.4517 11.5157 85.5322 11.527 85.6157C11.5382 85.6993 11.5327 85.7842 11.5109 85.8656C11.489 85.9471 11.4513 86.0233 11.3998 86.0899C11.3483 86.1566 11.2841 86.2123 11.2109 86.2538C11.1377 86.2953 11.057 86.3219 10.9735 86.3318L1.8177 87.5663C1.78944 87.5699 1.76098 87.5718 1.7325 87.5719Z" fill="#371A45"/>
<path d="M2.53985 91.7248C2.37853 91.7244 2.22342 91.6624 2.1061 91.5514C1.98878 91.4404 1.91807 91.2887 1.90837 91.1273C1.89868 90.9658 1.95072 90.8067 2.05391 90.6824C2.15709 90.5581 2.30366 90.4779 2.46376 90.4581L11.7579 89.3174C11.8412 89.3058 11.9259 89.311 12.0072 89.3327C12.0885 89.3543 12.1647 89.3919 12.2313 89.4434C12.298 89.4948 12.3537 89.559 12.3954 89.6323C12.437 89.7055 12.4637 89.7863 12.4739 89.87C12.4841 89.9537 12.4776 90.0386 12.4548 90.1198C12.4319 90.2009 12.3932 90.2767 12.3409 90.3427C12.2886 90.4087 12.2237 90.4636 12.15 90.5042C12.0763 90.5449 11.9953 90.5704 11.9116 90.5793L2.61791 91.72C2.59201 91.7232 2.56594 91.7248 2.53985 91.7248Z" fill="#371A45"/>
<path d="M4.01437 96.2536C3.85085 96.2539 3.6935 96.1909 3.5752 96.0777C3.4569 95.9645 3.3868 95.8099 3.37953 95.6461C3.37227 95.4823 3.42841 95.322 3.53622 95.1987C3.64404 95.0754 3.79519 94.9987 3.9581 94.9845L12.2675 94.2324C12.4342 94.2187 12.5996 94.2716 12.7275 94.3796C12.8555 94.4876 12.9358 94.6419 12.9508 94.8089C12.9658 94.976 12.9143 95.1422 12.8076 95.2714C12.701 95.4006 12.5477 95.4823 12.3812 95.4986L4.07183 96.2504C4.05274 96.2524 4.03357 96.2535 4.01437 96.2536Z" fill="#371A45"/>
<g opacity="0.35">
<path opacity="0.35" d="M9.79476 100.381H8.51877C7.78577 100.381 7.06832 100.169 6.45323 99.769C5.83814 99.3693 5.35178 98.7993 5.05299 98.1282C4.55884 97.0157 3.95888 95.563 3.39697 93.9165C4.16296 95.1911 5.71912 95.9993 7.42783 95.9993H8.94833C11.1128 95.6234 11.9267 93.4961 11.96 90.7057C12.6911 95.4129 12.4902 99.8224 9.79476 100.381Z" fill="#371A45"/>
</g>
<path d="M9.8598 101.016H8.51882C7.66347 101.016 6.82644 100.768 6.10869 100.301C5.39094 99.8348 4.82311 99.1701 4.47369 98.3873C2.26211 93.4207 -0.952832 84.2137 2.37148 78.3535C2.47451 78.1707 2.58745 77.9911 2.70633 77.8199L2.74595 77.7615L2.79866 77.7134C2.86167 77.6562 4.35957 76.3132 6.17449 76.6112C7.35934 76.8051 8.36388 77.6284 9.15959 79.058C10.8838 82.154 14.453 94.1962 12.2691 98.9856C11.7571 100.108 10.9674 100.787 9.92202 101.003L9.8598 101.016ZM3.70097 78.6138C3.62171 78.733 3.54523 78.8553 3.4743 78.9809C0.311665 84.5558 3.92961 94.0472 5.63199 97.8692C5.88128 98.4278 6.28651 98.9022 6.79876 99.2351C7.31102 99.5679 7.90841 99.745 8.51882 99.745H9.72586C10.3326 99.5995 10.7883 99.1776 11.1168 98.4568C12.9701 94.3945 9.85584 82.9137 8.0536 79.6778C7.45919 78.6074 6.75938 77.9979 5.97873 77.8672C4.91752 77.6896 3.93041 78.427 3.70097 78.6138Z" fill="#371A45"/>
<path d="M24.1964 99.7779C24.1147 99.7778 24.0343 99.7566 23.963 99.7163C23.8918 99.676 23.8322 99.6179 23.7898 99.5477C23.7475 99.4776 23.724 99.3976 23.7215 99.3156C23.719 99.2337 23.7376 99.1524 23.7756 99.0798C26.0284 94.764 26.0617 89.9122 23.8751 84.6587C22.2278 80.7021 19.8704 77.9959 19.847 77.9689C19.8057 77.9219 19.774 77.8672 19.7537 77.808C19.7335 77.7488 19.7251 77.6861 19.729 77.6236C19.7329 77.5611 19.749 77.5 19.7765 77.4437C19.8039 77.3875 19.8422 77.3372 19.889 77.2958C19.9358 77.2544 19.9903 77.2226 20.0494 77.2023C20.1085 77.182 20.171 77.1735 20.2333 77.1774C20.2957 77.1814 20.3566 77.1975 20.4127 77.2251C20.4688 77.2526 20.5189 77.2909 20.5603 77.3379C20.6605 77.4515 23.0318 80.1705 24.7417 84.2649C27.0215 89.7243 26.9791 95 24.6185 99.5224C24.5781 99.5996 24.5175 99.6642 24.4431 99.7093C24.3687 99.7543 24.2834 99.7781 24.1964 99.7779Z" fill="#371A45"/>
<path d="M61.0211 99.7779C60.9343 99.778 60.849 99.7541 60.7747 99.709C60.7004 99.6639 60.6398 99.5993 60.5995 99.522C58.2393 95 58.1965 89.7243 60.4763 84.2646C62.1862 80.1721 64.5579 77.4512 64.6577 77.3375C64.699 77.2906 64.7492 77.2522 64.8053 77.2247C64.8614 77.1972 64.9223 77.181 64.9847 77.1771C65.047 77.1732 65.1095 77.1816 65.1686 77.2019C65.2277 77.2222 65.2822 77.254 65.329 77.2954C65.3758 77.3368 65.4141 77.3871 65.4415 77.4434C65.469 77.4996 65.4851 77.5607 65.489 77.6232C65.4929 77.6857 65.4845 77.7484 65.4643 77.8076C65.444 77.8669 65.4123 77.9215 65.371 77.9685C65.3472 77.9955 62.9898 80.7017 61.3429 84.6583C59.1563 89.9118 59.1896 94.7636 61.442 99.0794C61.48 99.1521 61.4986 99.2333 61.4961 99.3153C61.4936 99.3972 61.4701 99.4772 61.4278 99.5474C61.3854 99.6176 61.3258 99.6756 61.2546 99.7159C61.1833 99.7563 61.1029 99.7775 61.0211 99.7775V99.7779Z" fill="#371A45"/>
<g opacity="0.35">
<path opacity="0.35" d="M43.1338 74.9003C43.3285 75.1996 43.5171 75.4935 43.6997 75.7819C43.5162 75.4935 43.3268 75.1979 43.1338 74.9003Z" fill="#371A45"/>
</g>
<path d="M32.1541 75.0651C29.2712 76.2353 24.8104 75.9905 21.769 75.6214C21.3361 75.5686 20.918 75.4294 20.5396 75.212C20.1612 74.9946 19.83 74.7034 19.5657 74.3556C19.3013 74.0077 19.1091 73.6103 19.0005 73.1868C18.8918 72.7633 18.8688 72.3222 18.9329 71.8897C19.0507 71.0867 19.4617 70.3561 20.0863 69.8399C20.7109 69.3236 21.5045 69.0584 22.3131 69.0957C25.1579 69.2296 29.425 69.2919 32.1271 68.6912" fill="white"/>
<g opacity="0.35">
<path opacity="0.35" d="M32.1548 75.0647C29.2711 76.2365 24.8099 75.9893 21.7689 75.621C21.2447 75.556 20.744 75.3648 20.3095 75.0635C19.8751 74.7623 19.5198 74.36 19.2742 73.8911C19.0285 73.4223 18.8998 72.9007 18.8989 72.3711C18.8981 71.8415 19.0251 71.3195 19.2693 70.8499C19.5142 71.3205 19.8699 71.7241 20.3054 72.0259C20.741 72.3277 21.2433 72.5185 21.7689 72.5818C24.8048 72.9513 29.2585 73.1957 32.1421 72.0315L32.1548 75.0647Z" fill="#371A45"/>
</g>
<path d="M26.4256 76.5623C24.7633 76.5623 23.1093 76.4245 21.6926 76.2524C20.6901 76.1307 19.7737 75.6241 19.136 74.839C18.4984 74.0538 18.1892 73.0514 18.2734 72.0424C18.3576 71.0334 18.8287 70.0965 19.5876 69.4285C20.3465 68.7606 21.3341 68.4137 22.3429 68.4608C25.3149 68.6006 29.402 68.6459 31.9897 68.0706C32.3574 67.9911 33.2732 67.9911 33.8319 69.7942C34.418 71.6839 34.3653 74.8534 32.3919 75.6544C30.7188 76.3335 28.5659 76.5623 26.4256 76.5623ZM22.1574 69.7283C21.4871 69.73 20.8427 69.9879 20.3554 70.4495C19.8682 70.9111 19.5748 71.5415 19.535 72.2124C19.4951 72.8834 19.7119 73.5443 20.1412 74.0605C20.5704 74.5767 21.1798 74.9094 21.8452 74.9909C24.9361 75.366 29.1944 75.5813 31.916 74.4763C32.695 74.1585 32.8472 72.887 32.8761 72.3562C32.9609 70.8086 32.4684 69.5495 32.1985 69.3265C29.4726 69.9174 25.3078 69.8733 22.2834 69.7314C22.2414 69.7291 22.199 69.7279 22.1574 69.7279V69.7283Z" fill="#371A45"/>
<path d="M64.5877 75.621C63.1612 75.7946 61.4176 75.9389 59.674 75.9242C59.5551 75.9242 59.4362 75.9242 59.3173 75.9186C59.1985 75.913 59.0645 75.913 58.9389 75.9075C58.8533 75.9075 58.7697 75.9023 58.6877 75.8983L58.3913 75.882C58.2656 75.8749 58.14 75.8658 58.0164 75.8566H58.0073C57.8832 75.8475 57.758 75.8363 57.634 75.8236C57.5523 75.8165 57.4703 75.8073 57.3903 75.7982C57.3209 75.7926 57.252 75.7835 57.1846 75.7764C57.0772 75.7636 56.9698 75.7489 56.8676 75.7342C56.7654 75.7195 56.6695 75.7052 56.5728 75.6885C56.5531 75.6876 56.5336 75.6845 56.5145 75.6794C56.4 75.6631 56.2871 75.6429 56.1761 75.621C56.0652 75.5991 55.9522 75.5793 55.8428 75.5554L55.8159 75.5499C55.7537 75.5356 55.6919 75.5225 55.632 75.5082C55.5647 75.4936 55.4973 75.4772 55.4299 75.4589C55.2243 75.4076 55.0226 75.3492 54.826 75.2872C54.7202 75.2543 54.6148 75.2177 54.511 75.1816C54.4072 75.1454 54.3053 75.1049 54.207 75.0647L54.2197 72.0053L54.2344 68.6912C54.9259 68.8465 55.7212 68.9558 56.5676 69.0325C59.0281 69.257 61.9307 69.195 64.0476 69.0964C64.0983 69.0945 64.1495 69.0929 64.2022 69.0929C65.0333 69.0955 65.8323 69.4156 66.4364 69.988C67.0405 70.5604 67.4044 71.342 67.4541 72.174C67.5037 73.0059 67.2353 73.8255 66.7036 74.466C66.1718 75.1065 65.4166 75.5198 64.5917 75.6218L64.5877 75.621Z" fill="white"/>
<g opacity="0.35">
<path opacity="0.35" d="M64.5875 75.621C63.161 75.7946 61.4194 75.9388 59.6758 75.9241C59.5569 75.9241 59.438 75.9241 59.3171 75.9186C59.1963 75.913 59.0643 75.913 58.9387 75.9074C58.8531 75.9074 58.7695 75.9023 58.6875 75.8983L58.3907 75.882C58.2651 75.8749 58.1398 75.8657 58.0158 75.8566H58.0067C57.8831 75.8474 57.7574 75.8363 57.6338 75.8236C57.5518 75.8165 57.4697 75.8073 57.3897 75.7982C57.3207 75.7926 57.2514 75.7835 57.184 75.7763C57.0766 75.7632 56.9693 75.7489 56.867 75.7342C56.7648 75.7195 56.6689 75.7052 56.5722 75.6885C56.5525 75.6876 56.533 75.6845 56.5139 75.6794C56.399 75.6631 56.2865 75.6428 56.1751 75.621C56.0638 75.5991 55.9516 75.5792 55.8423 75.5554L55.8149 75.5499C55.7531 75.5351 55.6913 75.5224 55.6311 75.5081C55.5637 75.4934 55.4963 75.4767 55.4289 75.4589C55.2233 75.4076 55.0212 75.3492 54.8246 75.2872C54.7192 75.2542 54.6134 75.2177 54.51 75.1811C54.4066 75.1446 54.3043 75.1048 54.2061 75.0643L54.2187 72.0049V71.784C54.3119 71.8237 54.4101 71.8606 54.5084 71.8952C54.6067 71.9298 54.7176 71.9683 54.8231 72.0009C55.0212 72.0633 55.2217 72.1201 55.4274 72.1725C55.4947 72.1908 55.5621 72.2072 55.6295 72.2218C55.6897 72.2365 55.7515 72.2492 55.8133 72.2639L55.8407 72.2695C55.95 72.2931 56.061 72.3149 56.1735 72.335C56.2849 72.3569 56.3974 72.3772 56.5124 72.3935C56.5314 72.3984 56.5509 72.4015 56.5706 72.4026C56.6669 72.4189 56.7652 72.4336 56.8654 72.4483C56.9657 72.463 57.0762 72.4773 57.1824 72.49C57.2498 72.4976 57.3192 72.5067 57.3881 72.5119C57.4674 72.521 57.5502 72.5301 57.6322 72.5377C57.7559 72.5504 57.8815 72.5611 58.0051 72.5703H58.0142C58.1382 72.5794 58.2635 72.5885 58.3891 72.5961L58.6859 72.6124C58.7679 72.616 58.8515 72.6195 58.9371 72.6215C59.0627 72.6271 59.19 72.6307 59.3156 72.6323C59.4412 72.6338 59.5533 72.6378 59.6742 72.6378C61.4178 72.6545 63.1594 72.5083 64.586 72.335C65.0882 72.2748 65.5694 72.0979 65.9915 71.8185C66.4136 71.5391 66.7649 71.1648 67.0175 70.7255C67.2878 71.1945 67.4381 71.7234 67.4548 72.2648C67.4716 72.8063 67.3543 73.3435 67.1135 73.8284C66.8726 74.3133 66.5157 74.7308 66.0747 75.0437C65.6336 75.3566 65.1222 75.5551 64.586 75.6214L64.5875 75.621Z" fill="#371A45"/>
</g>
<path d="M59.931 76.5623C57.7911 76.5623 55.6382 76.3338 53.9648 75.6544C51.9909 74.8533 51.9386 71.6838 52.5247 69.7937C53.0835 67.9934 53.9992 67.9887 54.3666 68.0705C56.9542 68.6463 61.0414 68.6006 64.0138 68.4607C65.0225 68.4136 66.0101 68.7605 66.7691 69.4285C67.528 70.0964 67.9991 71.0334 68.0833 72.0424C68.1675 73.0513 67.8583 74.0538 67.2206 74.8389C66.583 75.624 65.6666 76.1307 64.6641 76.2523C63.2478 76.4244 61.593 76.5623 59.931 76.5623ZM54.1581 69.3261C53.8883 69.549 53.3953 70.8081 53.4805 72.3561C53.5095 72.8882 53.6616 74.1596 54.4407 74.4759C57.1623 75.5805 61.4194 75.3655 64.5115 74.9904C65.1864 74.9062 65.8027 74.5635 66.2313 74.034C66.66 73.5045 66.8677 72.8293 66.8111 72.1497C66.7544 71.4701 66.4378 70.8388 65.9275 70.388C65.4172 69.9372 64.7527 69.7017 64.0732 69.731C61.0477 69.8728 56.8845 69.9157 54.1581 69.3261Z" fill="#371A45"/>
<path d="M55.317 66.5846V76.7995C55.317 78.6944 53.7696 80.246 51.8794 80.246H33.1176C31.2301 80.246 29.6831 78.6964 29.6831 76.7995V66.5846C29.6858 65.672 30.0485 64.7977 30.692 64.1524C31.3355 63.5071 32.2075 63.1433 33.1176 63.1405H51.8794C52.7898 63.1431 53.6623 63.5067 54.3063 64.152C54.9504 64.7972 55.3137 65.6717 55.317 66.5846Z" fill="white"/>
<g opacity="0.35">
<path opacity="0.35" d="M55.317 66.5849V76.7999C55.317 78.694 53.7716 80.2451 51.879 80.2451H33.1176C32.2076 80.2425 31.3356 79.8789 30.6921 79.2338C30.0486 78.5886 29.6858 77.7143 29.6831 76.8019V72.9788C31.693 76.8972 38.5223 78.4381 44.141 77.8659C45.396 77.7384 46.2936 76.5428 45.9944 75.3143C45.9025 74.9351 45.8563 74.5463 45.8569 74.1561C45.8569 71.9278 47.3294 70.1216 49.1459 70.1216C50.9022 70.1216 52.3399 71.811 52.4326 73.9391C54.6842 70.9881 54.8059 67.0395 54.6168 64.5045C55.0714 65.1023 55.3174 65.8332 55.317 66.5849Z" fill="#371A45"/>
</g>
<path d="M51.8807 80.8821H33.1181C32.0392 80.881 31.0049 80.4507 30.242 79.6858C29.4791 78.9209 29.05 77.8837 29.0488 76.8019V66.5846C29.05 65.5028 29.4791 64.4656 30.2419 63.7006C31.0048 62.9356 32.0392 62.5053 33.1181 62.504H51.8807C52.9597 62.5053 53.994 62.9356 54.7569 63.7006C55.5198 64.4656 55.9489 65.5028 55.95 66.5846V76.8008C55.9492 77.8827 55.5202 78.9202 54.7573 79.6854C53.9944 80.4506 52.9598 80.881 51.8807 80.8821ZM33.1181 63.7767C32.3754 63.7776 31.6634 64.0739 31.1383 64.6005C30.6131 65.1271 30.3177 65.8411 30.3169 66.5858V76.8019C30.3177 77.5466 30.6131 78.2605 31.1383 78.7871C31.6634 79.3136 32.3755 79.6098 33.1181 79.6107H51.8807C52.6234 79.6098 53.3354 79.3136 53.8606 78.7871C54.3857 78.2605 54.6811 77.5466 54.682 76.8019V66.5846C54.6811 65.8399 54.3857 65.126 53.8606 64.5993C53.3355 64.0727 52.6234 63.7764 51.8807 63.7755L33.1181 63.7767Z" fill="#371A45"/>
<path d="M51.2413 73.7933C52.3984 72.6331 52.3984 70.7521 51.2413 69.5919C50.0843 68.4317 48.2082 68.4317 47.0512 69.5919C45.8941 70.7521 45.8941 72.6331 47.0512 73.7933C48.2082 74.9535 50.0843 74.9535 51.2413 73.7933Z" fill="#22A7F0"/>
<path d="M52.1097 71.6934C52.1098 71.852 52.0965 72.0103 52.07 72.1666C51.9581 71.4696 51.6023 70.8353 51.0663 70.3775C50.5304 69.9197 49.8493 69.6682 49.1452 69.6682C48.4411 69.6682 47.76 69.9197 47.224 70.3775C46.688 70.8353 46.3322 71.4696 46.2203 72.1666C46.1938 72.0103 46.1806 71.852 46.1807 71.6934C46.1807 70.9054 46.4929 70.1496 47.0486 69.5924C47.6043 69.0352 48.3581 68.7222 49.144 68.7222C49.9299 68.7222 50.6836 69.0352 51.2394 69.5924C51.7951 70.1496 52.1073 70.9054 52.1073 71.6934H52.1097Z" fill="white"/>
<g opacity="0.35">
<path opacity="0.35" d="M52.1078 71.6918C52.1078 72.4795 51.7958 73.235 51.2403 73.7919C50.6847 74.3489 49.9313 74.6619 49.1457 74.6619C48.3601 74.6619 47.6067 74.3489 47.0512 73.7919C46.4957 73.235 46.1836 72.4795 46.1836 71.6918C46.1829 71.3245 46.2519 70.9605 46.3869 70.619C46.603 71.1765 46.9821 71.6555 47.4744 71.9933C47.9668 72.331 48.5494 72.5117 49.1459 72.5117C49.7425 72.5117 50.3251 72.331 50.8174 71.9933C51.3098 71.6555 51.6888 71.1765 51.905 70.619C52.0396 70.9605 52.1084 71.3246 52.1078 71.6918Z" fill="#371A45"/>
</g>
<path d="M49.1464 75.1399C48.4664 75.1399 47.8016 74.9377 47.2361 74.5588C46.6707 74.18 46.2299 73.6415 45.9697 73.0115C45.7095 72.3815 45.6414 71.6883 45.7741 71.0195C45.9068 70.3507 46.2343 69.7364 46.7152 69.2543C47.1962 68.7721 47.8089 68.4438 48.4759 68.3108C49.1429 68.1778 49.8343 68.2462 50.4626 68.5072C51.0908 68.7682 51.6278 69.2101 52.0056 69.7772C52.3834 70.3442 52.585 71.0108 52.5849 71.6927C52.5837 72.6066 52.2211 73.4828 51.5765 74.1291C50.9319 74.7753 50.058 75.1388 49.1464 75.1399ZM49.1464 69.1986C48.6545 69.1985 48.1735 69.3447 47.7644 69.6187C47.3553 69.8927 47.0364 70.2822 46.8481 70.738C46.6598 71.1937 46.6105 71.6952 46.7064 72.179C46.8023 72.6628 47.0392 73.1072 47.3871 73.4561C47.7349 73.8049 48.1781 74.0425 48.6606 74.1388C49.1432 74.235 49.6433 74.1856 50.0978 73.9969C50.5524 73.8081 50.9409 73.4885 51.2142 73.0783C51.4875 72.6682 51.6334 72.186 51.6334 71.6927C51.6323 71.0318 51.3698 70.3984 50.9037 69.9312C50.4375 69.4641 49.8055 69.2013 49.1464 69.2006V69.1986Z" fill="#371A45"/>
<path d="M40.7503 80.7232C40.6242 80.7232 40.5032 80.673 40.414 80.5836C40.3248 80.4941 40.2747 80.3729 40.2747 80.2464V73.199L36.7123 70.5098C36.6533 70.4654 36.6055 70.4079 36.5726 70.3417C36.5396 70.2756 36.5225 70.2027 36.5225 70.1288V63.1398C36.5225 63.0133 36.5726 62.892 36.6617 62.8026C36.7509 62.7132 36.8719 62.663 36.998 62.663C37.1241 62.663 37.2451 62.7132 37.3342 62.8026C37.4234 62.892 37.4735 63.0133 37.4735 63.1398V69.8912L41.036 72.5803C41.0948 72.6248 41.1426 72.6823 41.1755 72.7485C41.2083 72.8146 41.2254 72.8875 41.2254 72.9614V80.2464C41.2254 80.3728 41.1754 80.494 41.0863 80.5834C40.9972 80.6728 40.8763 80.7231 40.7503 80.7232Z" fill="#371A45"/>
<path d="M68.7584 34.5185C68.6117 34.5294 68.4666 34.4815 68.3552 34.3852C68.2437 34.289 68.1749 34.1522 68.164 34.0051L66.9752 18.0249C66.9642 17.8778 67.0121 17.7324 67.1081 17.6206C67.2041 17.5088 67.3404 17.4399 67.4872 17.4289C68.2494 17.3719 69.0155 17.4659 69.7415 17.7057C70.4676 17.9454 71.1394 18.3263 71.7187 18.8264C72.2979 19.3265 72.7733 19.9361 73.1176 20.6205C73.4619 21.3048 73.6683 22.0504 73.7252 22.8147L74.1314 28.2637C74.1883 29.0282 74.0945 29.7964 73.8552 30.5245C73.616 31.2526 73.2361 31.9263 72.7371 32.5071C72.2382 33.0879 71.63 33.5645 70.9473 33.9096C70.2646 34.2547 69.5208 34.4616 68.7584 34.5185Z" fill="white"/>
<path d="M68.7162 34.6328C68.5477 34.6324 68.3856 34.5683 68.2622 34.4532C68.1388 34.3382 68.0632 34.1807 68.0505 34.0122L66.8617 18.0316C66.8486 17.8543 66.9062 17.6791 67.0219 17.5444C67.1376 17.4097 67.3019 17.3265 67.4787 17.3132C68.2559 17.2549 69.037 17.3507 69.7773 17.5951C70.5176 17.8394 71.2026 18.2277 71.7933 18.7375C72.3839 19.2474 72.8686 19.869 73.2196 20.5667C73.5707 21.2644 73.7812 22.0246 73.8392 22.8039L74.245 28.2533C74.3033 29.0329 74.2079 29.8163 73.9641 30.5589C73.7204 31.3014 73.3331 31.9886 72.8244 32.581C72.3157 33.1734 71.6956 33.6596 70.9995 34.0116C70.3034 34.3637 69.5449 34.5748 68.7674 34.6328C68.7503 34.6328 68.7333 34.6328 68.7162 34.6328ZM67.9281 17.5246C67.7838 17.5246 67.6392 17.5298 67.4941 17.5409C67.3776 17.5496 67.2692 17.6044 67.1929 17.6932C67.1166 17.782 67.0785 17.8976 67.0872 18.0145L68.276 33.9951C68.2848 34.1121 68.3395 34.2207 68.4282 34.2972C68.5168 34.3737 68.6321 34.4118 68.7487 34.4032C69.4961 34.3473 70.2253 34.1443 70.8945 33.8059C71.5636 33.4674 72.1597 33.0001 72.6488 32.4305C73.1378 31.861 73.5101 31.2005 73.7445 30.4867C73.9789 29.7729 74.0707 29.0198 74.0148 28.2704L73.6086 22.821C73.5017 21.3826 72.8569 20.0377 71.8033 19.0556C70.7497 18.0736 69.365 17.5267 67.9265 17.5246H67.9281Z" fill="#371A45"/>
<g opacity="0.35">
<path opacity="0.35" d="M73.9394 25.708L74.1304 28.264C74.2444 29.8076 73.7427 31.3334 72.7355 32.5063C71.7283 33.6793 70.2979 34.4034 68.7586 34.5196C68.6857 34.525 68.6125 34.5159 68.5431 34.4929C68.4737 34.4698 68.4096 34.4332 68.3543 34.3852C68.2991 34.3372 68.2538 34.2787 68.2212 34.2132C68.1886 34.1476 68.1692 34.0762 68.1642 34.0031L67.8472 29.7552C67.8978 29.8496 67.9746 29.9273 68.0682 29.9789C68.1619 30.0306 68.2684 30.054 68.375 30.0465L68.753 30.017C69.9566 29.9272 71.1024 29.4641 72.0317 28.692C72.961 27.9199 73.6277 26.877 73.9394 25.708Z" fill="#371A45"/>
</g>
<path d="M68.7151 35.1557C68.4155 35.1553 68.127 35.0413 67.9075 34.8367C67.6881 34.6321 67.5537 34.352 67.5315 34.0524L66.3427 18.0721C66.3192 17.7569 66.4216 17.4452 66.6273 17.2057C66.833 16.9661 67.1251 16.8183 67.4395 16.7947C69.1468 16.6669 70.8348 17.2243 72.1322 18.3443C73.4295 19.4643 74.2301 21.0552 74.3576 22.767L74.7634 28.216C74.8909 29.9278 74.335 31.6203 73.218 32.9211C72.101 34.222 70.5143 35.0247 68.8071 35.1526C68.7754 35.1545 68.7452 35.1557 68.7151 35.1557ZM67.6115 18.057L68.79 33.8779C70.1464 33.7554 71.4003 33.1029 72.2811 32.0613C73.1618 31.0198 73.5986 29.6727 73.4973 28.3109L73.0919 22.8616C72.9907 21.4997 72.3592 20.2325 71.334 19.3335C70.3087 18.4345 68.9719 17.976 67.6123 18.057H67.6115Z" fill="#371A45"/>
<path d="M14.8799 21.3688C15.0266 21.3579 15.1717 21.4058 15.2831 21.5021C15.3946 21.5984 15.4634 21.7351 15.4743 21.8822L16.6631 37.8624C16.674 38.0095 16.6262 38.1549 16.5302 38.2667C16.4342 38.3785 16.2978 38.4474 16.1511 38.4584C15.3888 38.5155 14.6228 38.4215 13.8967 38.1818C13.1706 37.9421 12.4988 37.5613 11.9195 37.0612C11.3402 36.5611 10.8648 35.9515 10.5205 35.2672C10.1761 34.5829 9.96959 33.8373 9.91265 33.073L9.50687 27.6236C9.44996 26.8592 9.5438 26.0909 9.78304 25.3629C10.0223 24.6348 10.4022 23.9611 10.9012 23.3802C11.4001 22.7994 12.0083 22.3228 12.691 21.9777C13.3737 21.6326 14.1175 21.4257 14.8799 21.3688Z" fill="white"/>
<path d="M15.7142 38.589C12.6408 38.589 10.0329 36.205 9.80029 33.0816L9.39411 27.6323C9.15041 24.3602 11.6073 21.4991 14.8706 21.2547C15.0472 21.2427 15.2213 21.3009 15.3555 21.4167C15.4896 21.5325 15.5729 21.6965 15.5874 21.8734L16.7762 37.8536C16.7828 37.9414 16.772 38.0297 16.7445 38.1134C16.717 38.197 16.6734 38.2744 16.616 38.3412C16.5587 38.4079 16.4888 38.4627 16.4104 38.5024C16.3319 38.542 16.2465 38.5658 16.1588 38.5723C16.011 38.5835 15.862 38.589 15.7142 38.589ZM14.8872 21.4812C11.7495 21.7164 9.38698 24.4675 9.62118 27.614L10.0274 33.0634C10.2619 36.2098 13.0089 38.5767 16.1434 38.3435C16.2012 38.3391 16.2575 38.3235 16.3092 38.2973C16.3609 38.2711 16.407 38.235 16.4448 38.191C16.4826 38.147 16.5114 38.0959 16.5295 38.0408C16.5476 37.9856 16.5547 37.9274 16.5504 37.8695L15.3615 21.8892C15.3526 21.7724 15.2979 21.6638 15.2093 21.5873C15.1206 21.5108 15.0054 21.4726 14.8888 21.4812H14.8872Z" fill="#371A45"/>
<g opacity="0.35">
<path opacity="0.35" d="M16.3352 33.429L16.6649 37.8624C16.6702 37.9355 16.6612 38.0089 16.6382 38.0785C16.6152 38.148 16.5787 38.2124 16.5308 38.2677C16.483 38.3231 16.4246 38.3685 16.3592 38.4012C16.2938 38.4339 16.2226 38.4533 16.1497 38.4584C15.3875 38.5157 14.6215 38.4218 13.8955 38.1822C13.1695 37.9425 12.4977 37.5618 11.9184 37.0618C11.3392 36.5617 10.8639 35.9522 10.5197 35.2679C10.1755 34.5836 9.96914 33.838 9.9124 33.0738L9.74121 30.7776C10.2784 31.7619 11.0869 32.5703 12.0702 33.106C13.0535 33.6418 14.1699 33.8822 15.2858 33.7985L15.8676 33.7548C15.9674 33.7472 16.0634 33.7131 16.1456 33.6558C16.2279 33.5985 16.2933 33.5202 16.3352 33.429Z" fill="#371A45"/>
</g>
<path d="M15.712 39.1108C12.3691 39.1108 9.53256 36.5162 9.27974 33.1202L8.87356 27.6712C8.60885 24.112 11.2805 21.0005 14.8299 20.7347C14.9856 20.723 15.1421 20.7421 15.2905 20.7911C15.4388 20.8401 15.5761 20.9178 15.6944 21.02C15.8128 21.1222 15.9099 21.2467 15.9802 21.3866C16.0506 21.5264 16.0927 21.6787 16.1043 21.8349L17.2931 37.8151C17.3047 37.9712 17.2856 38.1281 17.2367 38.2768C17.1879 38.4255 17.1103 38.5631 17.0084 38.6817C16.9065 38.8003 16.7823 38.8976 16.6429 38.9681C16.5034 39.0386 16.3515 39.0809 16.1958 39.0925C16.0352 39.1049 15.8739 39.111 15.712 39.1108ZM14.8454 22.0093C13.4894 22.1329 12.2362 22.7857 11.3558 23.8271C10.4754 24.8684 10.0382 26.2148 10.1385 27.5763L10.5442 33.0257C10.7554 35.859 13.202 38.001 16.0243 37.8298L14.8454 22.0093Z" fill="#371A45"/>
<path d="M41.8218 55.2511C56.8632 55.2511 69.0567 43.0251 69.0567 27.9434C69.0567 12.8618 56.8632 0.635742 41.8218 0.635742C26.7804 0.635742 14.5869 12.8618 14.5869 27.9434C14.5869 43.0251 26.7804 55.2511 41.8218 55.2511Z" fill="white"/>
<path d="M41.8203 55.3652C26.7843 55.3652 14.5272 43.1274 14.4733 28.0412C14.4198 12.9208 26.6444 0.575765 41.7244 0.521729H41.8239C56.8596 0.521729 69.117 12.7595 69.1705 27.8457C69.2244 42.9661 56.9995 55.3115 41.9194 55.3652H41.8203ZM41.8239 0.749795H41.7252C26.7708 0.803038 14.6477 13.0456 14.6996 28.04C14.7531 43.0015 26.9095 55.1379 41.8188 55.1379H41.917C56.8715 55.0843 68.9946 42.8417 68.9427 27.8473C68.8916 12.8846 56.7332 0.749795 41.8239 0.749795Z" fill="#371A45"/>
<g opacity="0.35">
<path opacity="0.35" d="M68.7823 24.0667C68.9618 25.3185 69.0537 26.5814 69.0574 27.8461C69.1089 42.9271 56.9596 55.1963 41.9192 55.2519C26.8787 55.3075 14.6423 43.1218 14.5864 28.0407C14.5864 27.6073 14.5932 27.173 14.6126 26.7455C16.4957 40.0322 27.9079 50.2276 41.6699 50.1768C56.278 50.1236 68.1566 38.5493 68.7823 24.0667Z" fill="#371A45"/>
</g>
<path d="M41.8202 55.8864C26.4984 55.8864 14.008 43.4182 13.9533 28.0431C13.8982 12.6351 26.3566 0.0552289 41.7223 0H41.8238C57.1456 0 69.6356 12.4686 69.6907 27.8437C69.7454 43.2514 57.2875 55.8316 41.9213 55.8864H41.8202ZM41.8238 1.27146H41.7271C27.0596 1.3239 15.1691 13.3316 15.2214 28.0384C15.2737 42.713 27.1967 54.6154 41.8202 54.6154H41.9165C56.5845 54.5629 68.4746 42.5552 68.4226 27.8485C68.3703 13.1735 56.4485 1.27146 41.8238 1.27146Z" fill="#371A45"/>
<path d="M68.9709 28.5473C69.0704 33.8902 67.433 38.883 64.5513 43.0423C62.3908 46.1605 53.3745 51.716 42.1184 52.0283C31.6818 52.318 22.0806 46.9155 19.8056 43.8803C16.771 39.8315 14.9489 34.9038 14.8495 29.5609C14.586 15.4227 26.5918 9.33441 41.5375 9.05469C56.4832 8.77497 68.7086 14.4087 68.9709 28.5473Z" fill="#371A45"/>
<path d="M41.2922 52.6756C30.847 52.6756 21.619 47.3557 19.2992 44.2621C16.0724 39.9574 14.3146 34.878 14.2159 29.5728C14.0871 22.6636 16.752 17.285 22.1322 13.5866C26.8339 10.356 33.5404 8.56796 41.5272 8.41896C49.5141 8.26997 56.282 9.80405 61.1002 12.8567C66.6155 16.3532 69.4774 21.6266 69.6058 28.5358C69.7048 33.8409 68.1376 38.9828 65.0732 43.4055C62.9496 46.4709 54.0415 52.3343 42.1375 52.6632C41.8553 52.6716 41.5724 52.6756 41.2922 52.6756ZM42.5001 9.68049C42.1696 9.68049 41.8526 9.68366 41.549 9.68923C33.6034 9.83823 15.1574 12.0732 15.4828 29.5486C15.5767 34.5843 17.2466 39.4079 20.3121 43.4976C22.4333 46.3278 31.4097 51.4045 41.3069 51.4045C41.5712 51.4045 41.8351 51.4009 42.0994 51.3938C53.411 51.0799 62.0953 45.4736 64.0291 42.6803C66.9401 38.4786 68.4277 33.5958 68.3353 28.56C68.025 11.7466 50.876 9.68049 42.5001 9.68049Z" fill="#371A45"/>
<g opacity="0.7">
<path opacity="0.7" d="M63.5903 27.3479C64.017 24.7134 62.8193 22.3277 60.9152 22.0193C59.0111 21.7109 57.1217 23.5966 56.695 26.2311C56.2683 28.8656 57.4659 31.2513 59.37 31.5597C61.2741 31.8681 63.1636 29.9824 63.5903 27.3479Z" fill="white"/>
</g>
<g opacity="0.7">
<path opacity="0.7" d="M57.8551 36.9969C58.2161 35.8265 57.6963 34.6271 56.6941 34.318C55.6919 34.0089 54.5868 34.7072 54.2259 35.8777C53.8649 37.0481 54.3847 38.2475 55.3869 38.5566C56.3891 38.8657 57.4942 38.1674 57.8551 36.9969Z" fill="white"/>
</g>
<g opacity="0.35">
<path opacity="0.35" d="M63.463 15.4562C66.8313 18.5593 68.8649 22.8684 68.9711 28.5466C69.071 33.8907 67.4324 38.8828 64.5527 43.0424C62.3914 46.1606 53.3743 51.7161 42.1186 52.0296C38.1444 52.1409 34.2927 51.4253 30.9185 50.3282C44.7459 49.6472 55.7285 42.8302 58.4077 38.9646C62.0653 33.6857 64.1433 27.3483 64.0158 20.5682C63.9905 18.8507 63.8054 17.1392 63.463 15.4562Z" fill="#3B3943"/>
</g>
<path d="M16.663 18.0999C16.5471 18.0994 16.4334 18.067 16.3345 18.0063C16.2357 17.9455 16.1553 17.8588 16.1022 17.7554C16.049 17.652 16.0252 17.536 16.0333 17.42C16.0413 17.304 16.081 17.1925 16.1479 17.0975C20.7842 9.99083 29.9567 5.79343 41.321 5.58046C52.6147 5.36869 61.9421 9.09326 66.9101 15.7994C67.0054 15.922 67.0527 16.0753 67.0429 16.2305C67.0331 16.3856 66.9669 16.5318 66.8569 16.6413C66.7469 16.7509 66.6007 16.8162 66.446 16.825C66.2912 16.8338 66.1385 16.7854 66.0169 16.689L65.9527 16.6374L65.9 16.5682C61.1808 10.1895 52.2287 6.64888 41.3447 6.85152C30.3978 7.05694 21.5962 11.0513 17.198 17.8103L17.1516 17.8723C17.0918 17.9437 17.017 18.0012 16.9325 18.0405C16.8481 18.0798 16.7561 18.1001 16.663 18.0999Z" fill="#371A45"/>
<g opacity="0.7">
<path opacity="0.7" d="M21.0845 37.8584C21.0845 37.8584 16.4576 23.9916 23.8509 18.2939C31.2441 12.5962 42.0306 12.4158 41.7912 13.1139C41.7912 13.1139 29.9031 16.2361 25.4086 25.7887C21.942 33.1548 21.0845 37.8584 21.0845 37.8584Z" fill="white"/>
</g>
<g opacity="0.3">
<path opacity="0.3" d="M46.2279 93.3805C46.2057 93.3948 46.1835 93.4091 46.1613 93.4202H38.8177C38.7955 93.4075 38.7733 93.3932 38.7495 93.3805H46.2279Z" fill="#390075"/>
</g>
<g opacity="0.35">
<path opacity="0.35" d="M9.24504 64.1747C9.17925 64.7817 9.14635 65.3918 9.1465 66.0024V66.1121C9.1465 66.0755 9.1465 66.039 9.1465 66.0024C9.1456 65.3918 9.17849 64.7816 9.24504 64.1747Z" fill="#371A45"/>
</g>
<g opacity="0.35">
<path opacity="0.35" d="M9.56674 69.499C9.51271 69.2813 9.46662 69.0619 9.42529 68.8462C9.4682 69.0635 9.51589 69.2801 9.56674 69.499Z" fill="#371A45"/>
</g>
<g opacity="0.35">
<path opacity="0.35" d="M9.90954 70.7466C9.82371 70.4764 9.74425 70.2062 9.67432 69.9344C9.74743 70.2046 9.82583 70.4753 9.90954 70.7466Z" fill="#371A45"/>
</g>
<g opacity="0.35">
<path opacity="0.35" d="M11.3892 74.2812C11.0064 73.554 10.6646 72.8058 10.3652 72.0403C10.6666 72.805 11.0084 73.553 11.3892 74.2812Z" fill="#371A45"/>
</g>
<g opacity="0.35">
<path opacity="0.35" d="M13.9109 78.2895C13.1138 77.2123 12.3858 76.0853 11.7314 74.9154C12.3873 76.0844 13.1152 77.2113 13.9109 78.2895Z" fill="#371A45"/>
</g>
<g opacity="0.35">
<path opacity="0.35" d="M74.677 66.0008C74.6772 66.4669 74.6528 66.9327 74.604 67.3962C74.4186 69.2287 73.8733 71.0596 73.0522 72.8667C74.0461 70.6146 74.6167 68.3133 74.6167 66.0008C74.6173 65.121 74.5484 64.2425 74.4107 63.3737C74.4233 63.3232 74.4344 63.2703 74.4455 63.2195C74.5999 64.1385 74.6773 65.0688 74.677 66.0008Z" fill="#371A45"/>
</g>
<path d="M43.8888 58.8302C43.7805 58.8304 43.674 58.8027 43.5793 58.7498C43.4847 58.697 43.4052 58.6207 43.3483 58.5282C42.4706 57.1006 41.4121 55.6532 41.4014 55.6389C41.3019 55.503 41.2602 55.333 41.2856 55.1663C41.311 54.9996 41.4014 54.8499 41.537 54.75C41.6725 54.6502 41.842 54.6084 42.0083 54.6339C42.1745 54.6594 42.3238 54.75 42.4234 54.8859C42.4682 54.9467 43.5235 56.3898 44.4277 57.8607C44.487 57.957 44.5195 58.0674 44.522 58.1804C44.5245 58.2935 44.4969 58.4052 44.4419 58.504C44.387 58.6028 44.3068 58.6851 44.2096 58.7424C44.1124 58.7998 44.0016 58.8301 43.8888 58.8302Z" fill="#371A45"/>
<path d="M13.9041 58.9489C14.374 59.6125 14.3308 60.3894 14.2777 61.1291L13.2866 74.9572C12.9301 79.9344 12.5622 84.96 10.6501 89.7607C10.4576 90.2427 10.2716 90.8099 10.7145 91.2029C11.1061 91.5507 11.8191 91.6015 12.4513 91.6212C31.1019 92.2087 49.7639 90.1835 68.4194 90.6842C69.0141 90.7 69.5386 90.55 70.0819 90.3741C70.9621 90.0888 70.8821 89.1997 70.604 88.729C67.5914 83.6323 65.8082 78.2018 66.4053 72.702C67.0024 67.2023 71.0273 56.4699 69.5215 56.3154C67.9234 56.4164 66.4673 56.9768 64.9116 57.2412C63.3111 57.5141 61.6486 57.5191 59.9975 57.5231C52.7977 57.5389 45.5774 57.5535 38.4257 56.9706C32.7432 56.5071 27.1226 55.671 21.4066 55.41C19.2106 55.3102 15.1661 54.8496 13.1447 55.5791C10.7488 56.444 13.1569 57.8929 13.9041 58.9489Z" fill="#FF5555"/>
<path d="M15.173 59.3729C15.6265 60.006 15.5808 60.748 15.5344 61.4533C15.2146 65.8509 14.8951 70.2484 14.5758 74.646C14.2316 79.396 13.8759 84.1916 12.0282 88.7718C11.8422 89.2319 11.6628 89.7731 12.0902 90.148C12.4687 90.4801 13.1581 90.5286 13.7691 90.5478C31.7907 91.1082 49.8254 89.1755 67.8536 89.653C68.4246 89.6682 69.0895 89.6609 69.4598 89.357C69.9134 88.9855 69.6474 88.4256 69.3782 87.9763C66.4676 83.113 65.3304 77.7424 65.9072 72.4946C66.4839 67.2468 70.3735 57.005 68.9182 56.8584C67.3739 56.9542 65.9667 57.4887 64.4641 57.7413C62.9142 58.0017 61.3072 58.0063 59.7156 58.0102C52.758 58.0249 45.7817 58.039 38.8715 57.4825C33.3798 57.0405 27.9493 56.2422 22.425 55.9935C20.3041 55.8982 16.3958 55.459 14.4421 56.1553C12.1237 56.983 14.451 58.3654 15.173 59.3729Z" fill="#FF5555"/>
<path d="M67.704 89.7855C68.275 89.8007 68.9399 89.7934 69.3102 89.4901C69.7638 89.118 69.4979 88.5581 69.2287 88.1088C66.3181 83.2455 65.1809 77.8748 65.7576 72.627C66.3344 67.3793 70.2239 57.1374 68.7686 56.9908C67.3434 57.0794 66.0342 57.5417 64.6588 57.8106C65.3093 57.8555 65.9634 57.8698 66.6166 57.8534C67.1542 57.8394 67.8296 57.8602 68.0385 58.2024C68.1372 58.3654 68.0866 58.5514 68.0385 58.7239C67.04 62.056 66.0418 65.388 65.0438 68.72C63.8896 72.5735 62.6969 76.5003 59.8866 79.9214C59.345 80.5805 58.7283 81.2576 58.6997 82.0147C58.6434 83.502 60.7628 84.5264 62.6333 85.2627C61.8224 86.3734 59.4176 85.8463 57.8114 85.2847C51.5072 83.0814 44.1695 82.8041 37.1132 83.0392C30.0569 83.2743 22.9933 83.9677 15.9566 83.5392C17.9218 78.8761 15.2445 73.8882 15.7935 69.0498C16.1695 65.7403 18.0572 62.5008 17.5637 59.1987C17.518 58.8903 17.4291 58.5548 17.0864 58.353C16.6296 58.0857 15.9517 58.1759 15.3546 58.1461C14.5307 58.1049 13.7631 57.774 13.2964 57.306C13.3919 58.0254 14.5527 58.8457 15.025 59.5048C15.4786 60.1385 15.4378 60.8799 15.3864 61.5857C15.0666 65.9833 14.7471 70.3809 14.4279 74.7785C14.0836 79.5279 13.728 84.3235 11.8803 88.9043C11.6943 89.3643 11.5148 89.905 11.9423 90.2805C12.3208 90.612 13.0101 90.6605 13.6211 90.6797C31.6444 91.2406 49.6775 89.3057 67.704 89.7855Z" fill="#ED473E"/>
<path opacity="0.15" d="M16.0535 57.6934C16.6303 57.8135 17.247 57.7661 17.8482 57.7594C19.5499 57.7408 21.4538 58.1816 22.1521 59.2545C21.0973 59.2743 20.1543 59.7755 19.6102 60.4007C19.0661 61.026 18.8614 61.7623 18.7292 62.4868C18.2424 65.1757 18.6449 67.9059 19.9063 70.4717C19.983 70.6262 20.0695 70.788 20.253 70.8906C20.4978 71.0288 20.8485 71.0254 21.1585 70.9854C22.985 70.7486 24.2217 69.5127 24.6663 68.2668C25.1108 67.0208 24.9714 65.7128 25.1631 64.4358C25.3548 63.1588 25.9862 61.8063 27.5165 61.0784C28.8299 60.4537 30.5299 60.4137 32.1247 60.4188C36.5579 60.4339 40.986 60.6303 45.3856 61.0068C46.9804 61.1432 48.6747 61.2938 50.1325 60.8258C49.1921 60.6943 48.309 60.4133 47.5531 60.005C48.8827 59.5968 50.4131 59.8426 51.8545 59.9779C54.6006 60.233 57.3946 60.0549 60.0268 59.4569C56.8894 58.8232 53.5472 59.0409 50.281 59.1254C43.4229 59.303 36.5624 58.8655 29.7957 58.1146C26.4275 57.7408 23.078 57.2892 19.7424 56.7947C18.8573 56.6622 16.6629 55.9857 15.7876 56.1954C14.5403 56.4931 14.9449 57.4628 16.0535 57.6934Z" fill="white"/>
<path d="M67.8508 89.8503C68.4219 89.8655 69.0867 89.8582 69.4571 89.5543C69.9106 89.1828 69.6447 88.6229 69.3755 88.1736C66.8989 84.0353 65.7046 79.5295 65.7617 75.0446C65.1624 76.6851 64.9734 78.3845 65.2029 80.0691C65.2845 80.6244 65.402 81.1967 65.1703 81.7311C64.9386 82.2656 64.2281 82.751 63.4254 82.6896C64.3605 83.0936 65.1695 83.6226 65.8048 84.2456C66.44 84.8686 66.8889 85.573 67.1248 86.3176C67.3769 87.1345 66.9233 88.3016 65.7185 88.2345C48.6745 87.2803 31.5235 87.8518 14.6914 89.9349C13.6521 90.0634 12.652 89.7048 11.9619 89.1399C11.8077 89.5582 11.7171 90.0149 12.0908 90.3442C12.4644 90.6734 13.1586 90.7247 13.7696 90.7433C31.7912 91.3049 49.8243 89.3728 67.8508 89.8503Z" fill="#CE3A3A"/>
<path d="M20.2649 49.8745C20.2649 49.8745 5.71029 56.3224 7.85847 68.9177C9.90639 80.9239 23.3344 78.2625 23.8515 70.9191C24.3477 63.8808 21.3824 62.9264 17.6979 61.8902C14.9672 61.1221 13.8144 58.9003 14.0831 57.2275C14.6307 53.8299 20.2649 49.8745 20.2649 49.8745Z" fill="white"/>
<g opacity="0.35">
<path opacity="0.35" d="M23.851 70.9182C23.3358 78.2628 9.90541 80.9229 7.85748 68.9172C7.59726 67.4312 7.57212 65.9133 7.78298 64.4194C7.80517 64.5784 7.83053 64.7405 7.85748 64.9026C9.84676 76.5682 22.5829 74.3861 23.7765 67.5154C23.9147 68.4579 23.9461 69.5784 23.851 70.9182Z" fill="#371A45"/>
</g>
<g opacity="0.35">
<path opacity="0.35" d="M73.0525 72.8667C72.0365 75.1776 70.5782 77.436 68.8409 79.6054C68.8045 79.6118 68.768 79.6165 68.73 79.6229C70.5065 77.4392 72.0044 75.1728 73.0525 72.8667Z" fill="#371A45"/>
</g>
<path d="M63.4959 49.8745C63.4959 49.8745 78.0509 56.3224 75.9024 68.9177C73.8544 80.9239 60.4264 78.2625 59.9093 70.9191C59.4136 63.8808 62.3788 62.9264 66.063 61.8902C68.7937 61.1221 69.9464 58.9003 69.6777 57.2275C69.1293 53.8299 63.4959 49.8745 63.4959 49.8745Z" fill="white"/>
<g opacity="0.35">
<path opacity="0.35" d="M59.9091 70.9182C60.4243 78.2628 73.8547 80.9229 75.9026 68.9172C76.1628 67.4312 76.188 65.9133 75.9771 64.4194C75.9549 64.5784 75.9295 64.7405 75.9026 64.9026C73.9133 76.5682 61.1772 74.3861 59.9836 67.5154C59.8457 68.4579 59.814 69.5784 59.9091 70.9182Z" fill="#371A45"/>
</g>
<path d="M16.2411 77.8123C12.53 77.8123 8.34184 75.5221 7.23348 69.0249C6.3177 63.655 8.24951 58.5322 12.8209 54.2101C16.2288 50.9858 19.8559 49.3603 20.0084 49.2927C20.1525 49.2291 20.3149 49.2215 20.4642 49.2713C20.6136 49.3211 20.7391 49.4248 20.8164 49.5623C20.8937 49.6997 20.9172 49.8611 20.8824 50.015C20.8476 50.1689 20.757 50.3043 20.6282 50.3949C20.5743 50.4347 15.2068 54.2367 14.7087 57.3287C14.4801 58.748 15.51 60.6147 17.8686 61.2782C21.3867 62.2671 25.0244 63.2903 24.4839 70.9639C24.224 74.6543 20.8723 77.5937 16.6877 77.8012C16.5403 77.8087 16.3905 77.8123 16.2411 77.8123ZM14.9568 54.0194C14.5268 54.3738 14.0933 54.7536 13.6653 55.1593C9.37571 59.2276 7.63212 63.8211 8.48331 68.8104C9.49657 74.7505 13.3527 76.6958 16.6255 76.5313C19.6371 76.3819 22.9745 74.3484 23.219 70.8741C23.687 64.2347 20.9686 63.4703 17.5266 62.5024C14.4599 61.6398 13.1411 59.0885 13.4573 57.1261C13.6245 56.0887 14.2062 55.019 14.9568 54.0194Z" fill="#371A45"/>
<path d="M67.5196 77.8123C67.3698 77.8123 67.2208 77.8086 67.0726 77.8011C62.8884 77.5937 59.5368 74.6543 59.2768 70.9639C58.7363 63.2902 62.3737 62.2671 65.8918 61.2782C68.2508 60.6146 69.2803 58.748 69.052 57.3287C68.5539 54.2367 63.1872 50.433 63.1321 50.3949C63.003 50.3044 62.9122 50.1689 62.8773 50.0148C62.8424 49.8608 62.866 49.6992 62.9434 49.5616C63.0208 49.4241 63.1465 49.3203 63.296 49.2706C63.4456 49.2209 63.6082 49.2288 63.7523 49.2927C63.9049 49.3603 67.5295 50.9857 70.9398 54.2101C75.5112 58.5322 77.443 63.655 76.5273 69.0249C75.4193 75.5217 71.2295 77.8123 67.5196 77.8123ZM68.8043 54.0193C69.5545 55.019 70.1362 56.0855 70.3038 57.1261C70.6208 59.0885 69.3009 61.6397 66.2341 62.5023C62.7925 63.4702 60.0741 64.2347 60.5417 70.8741C60.7866 74.3483 64.1216 76.3819 67.1356 76.5313C70.4096 76.697 74.2642 74.7504 75.2774 68.8104C76.1286 63.8203 74.385 59.2276 70.0954 55.1593C69.6674 54.7536 69.2343 54.3738 68.8043 54.0193Z" fill="#371A45"/>
<path d="M75.5324 62.883C75.4453 62.883 75.3598 62.8591 75.2853 62.8137C75.2108 62.7684 75.1502 62.7034 75.11 62.6259C73.2138 58.9665 69.5075 57.496 69.4703 57.4816C69.3526 57.4362 69.2577 57.3458 69.2065 57.2302C69.1553 57.1146 69.152 56.9834 69.1973 56.8654C69.2426 56.7474 69.3328 56.6522 69.448 56.6009C69.5633 56.5495 69.6942 56.5462 69.8119 56.5916C69.9771 56.6552 73.8871 58.1968 75.9541 62.186C75.9918 62.2587 76.0102 62.3399 76.0075 62.4217C76.0048 62.5036 75.9812 62.5834 75.9388 62.6534C75.8964 62.7235 75.8368 62.7814 75.7656 62.8216C75.6944 62.8618 75.6141 62.8829 75.5324 62.883Z" fill="#371A45"/>
<path d="M8.20386 62.883C8.12216 62.883 8.04186 62.8619 7.97068 62.8217C7.8995 62.7815 7.83984 62.7236 7.79747 62.6535C7.7551 62.5835 7.73144 62.5037 7.72877 62.4218C7.7261 62.3399 7.74451 62.2588 7.78223 62.1861C9.84917 58.1969 13.7588 56.6553 13.9244 56.5917C14.0417 56.5483 14.1713 56.553 14.2851 56.6047C14.399 56.6564 14.488 56.751 14.5328 56.868C14.5776 56.985 14.5748 57.1149 14.5247 57.2298C14.4747 57.3447 14.3816 57.4352 14.2656 57.4817C14.2284 57.496 10.522 58.9665 8.62628 62.626C8.58613 62.7035 8.52548 62.7685 8.45099 62.8138C8.37649 62.8592 8.291 62.8831 8.20386 62.883Z" fill="#371A45"/>
</svg>
