<svg width="120" height="120" fill="none" xmlns="http://www.w3.org/2000/svg"><g clip-path="url(#a)"><path fill="#fff" d="M0 0h120v120H0z"/><path d="M43.623 47.698s-3.574 8.747-12.455 9.771c0 0-.293 9.365 6.745 10.78 3.775.76 8.181 1.068 10.54-2.301 2.358-3.369-4.83-18.25-4.83-18.25Z" fill="#fff"/><path opacity=".35" d="M37.913 68.25c3.776.76 8.182 1.069 10.54-2.302.693-.99.563-2.973.03-5.283l-.03.046c-2.36 3.366-6.765 3.06-10.54 2.302-3.399-.684-5.088-3.221-5.925-5.663-.267.046-.541.086-.82.118 0 0-.293 9.366 6.745 10.782Z" fill="#371A45"/><path d="M42.13 69.412c2.59 0 5.202-.683 6.879-3.075 1.128-1.61.654-5.21-1.45-11.006a96.273 96.273 0 0 0-3.327-7.927l-.659-1.367-.576 1.406c-.045.108-3.554 8.392-11.906 9.355l-.58.067-.019.583c-.003.1-.067 2.487.765 5.086 1.134 3.542 3.39 5.747 6.522 6.378 1.313.264 2.829.5 4.35.5Zm1.481-20.156c2.625 5.708 5.734 14.249 4.292 16.306-2.182 3.114-6.413 2.718-9.855 2.026-5.43-1.093-6.111-7.561-6.193-9.53 6.752-1.056 10.387-6.31 11.754-8.802h.002Z" fill="#371A45"/><path d="M59.17 107.071c-2.923 6.765-15.444 5.652-18.603 2.851-3.237-2.871 2.615-6.454 2.615-6.454-2.611-4.427-2.688-12.879-2.415-18.308.149-2.975.405-5.042.405-5.042l18.455-9.97c-.013 3.75-.64 6.957-1.205 9.526-1.197 5.463-1.12 9.666-.635 13.098.9 6.367 3.201 10.093 1.383 14.299Z" fill="#fff"/><path opacity=".35" d="M59.17 107.071c-2.923 6.765-15.444 5.652-18.603 2.851-1.02-.904-1.138-1.879-.82-2.79 4.269 2.512 15.146 4.413 17.254-1.982 1.03-3.131-.988-5.295-2.087-9.521-.464-1.783-1.877-3.166-3.664-3.627-3.788-.976-8.447-3.016-10.37-6.611a2.752 2.752 0 0 1-.114-.23c.149-2.976.404-5.043.404-5.043l16.52-8.927 1.936-1.045c-.013 3.75-.64 6.957-1.204 9.527a44.077 44.077 0 0 0-.45 2.325c-.03.187-.06.37-.088.555a38.07 38.07 0 0 0-.265 2.136 33.898 33.898 0 0 0-.106 5.421l.038.545.03.354c.01.104.018.204.03.305a31.155 31.155 0 0 0 .173 1.454c.903 6.37 3.204 10.097 1.386 14.303Z" fill="#371A45"/><path d="M48.884 112.789c1.33.005 2.656-.134 3.956-.415 3.453-.765 5.857-2.507 6.95-5.037 1.315-3.042.642-5.771-.21-9.227-1.064-4.312-2.389-9.678-.498-18.293.625-2.856 1.207-6.004 1.219-9.671a.675.675 0 0 0-.675-.678.677.677 0 0 0-.676.673c-.012 3.54-.577 6.604-1.188 9.387-1.956 8.92-.59 14.456.506 18.903.823 3.336 1.416 5.745.282 8.37-1.155 2.672-3.901 3.788-6.001 4.253-4.435.984-9.746-.054-11.532-1.638-.55-.487-.792-.998-.741-1.562.137-1.566 2.401-3.282 3.262-3.81l.565-.347-.336-.571c-3.88-6.58-1.942-22.763-1.921-22.926a.675.675 0 0 0-1.085-.606.675.675 0 0 0-.258.442c-.082.665-1.915 15.973 1.79 23.213-1.05.74-3.187 2.475-3.364 4.486-.062.691.095 1.721 1.19 2.692 1.503 1.334 5.027 2.361 8.765 2.362Z" fill="#371A45"/><path d="M54.08 98.214c2.903 0 5.05-.23 5.257-.253a.508.508 0 1 0-.112-1.007c-.118.014-11.873 1.27-18.031-2.186a.508.508 0 0 0-.734.578c.036.129.12.239.237.305 3.76 2.11 9.313 2.563 13.383 2.563ZM52.323 103.632c-.285-.317-.628-.551-.985-.753-.18-.1-.365-.186-.553-.269a10.307 10.307 0 0 0-3.008-.671 9.1 9.1 0 0 0-2.498.136c-.832.135-1.627.435-2.388.784a.675.675 0 0 0 .528 1.24l.048-.019c.682-.269 1.363-.541 2.083-.686.354-.096.72-.132 1.082-.195.183-.02.368-.029.552-.044.184-.018.37-.027.554-.025.75-.014 1.499.048 2.236.185.74.143 1.479.305 2.291.415h.004c.012.002.024 0 .035-.006a.055.055 0 0 0 .025-.025.058.058 0 0 0-.008-.067h.002Z" fill="#371A45"/><path d="M84.765 80.649c-3.64 4.739-13.12 3.096-13.12 3.096l-.083-32.023-.017-6.468s5.408.144 9.517 1.839c1.98.815 3.658 1.992 4.285 3.685 2.184 5.883 2.41 25.976-.582 29.87Z" fill="#fff"/><path opacity=".35" d="M86.982 64.139c.127 7.022-.538 14.322-2.218 16.509-3.64 4.74-13.12 3.097-13.12 3.097l-.099-38.49s.101.002.286.012l.076 30.009s9.48 1.642 13.12-3.097c.986-1.283 1.623-4.326 1.955-8.04Z" fill="#371A45"/><path d="M75.371 84.703c3.206 0 7.605-.617 9.93-3.644 2.065-2.689 2.346-11.103 2.37-14.595.048-6.668-.632-13.066-1.691-15.92-2.069-5.573-13.914-5.952-14.417-5.966a.679.679 0 0 0-.71.657.675.675 0 0 0 .674.693c.114.004 11.432.364 13.184 5.085 2.218 5.973 2.282 25.623-.484 29.224-3.347 4.358-12.378 2.858-12.468 2.843a.678.678 0 0 0-.776.814.674.674 0 0 0 .545.518c.16.026 1.746.29 3.843.29Z" fill="#371A45"/><path d="m86.286 67.09-6.46.485a1.27 1.27 0 0 0-1.156 1.037c-.377 2.081-.998 6.932 1.03 8.534 1.682 1.33 4.414 1.174 6.015-.179 1.791-1.513 1.966-6.271 1.935-8.627a1.268 1.268 0 0 0-1.364-1.25Z" fill="#fff"/><path opacity=".35" d="M78.67 68.613c-.377 2.08-.997 6.932 1.03 8.533 1.683 1.33 4.415 1.174 6.017-.179 1.1-.931 1.59-3.09 1.798-5.16-.291 1.034-.749 1.874-1.318 2.424-3.256 3.16-5.687-.565-5.687-.565s-.422.904-.758.956c-1.406.214-1.115-4.18-.912-6.451a1.23 1.23 0 0 0-.17.442Z" fill="#371A45"/><path d="M82.545 78.744c1.3 0 2.616-.424 3.607-1.261 1.872-1.58 2.215-5.85 2.174-9.15a1.943 1.943 0 0 0-2.093-1.915l-6.46.484a1.947 1.947 0 0 0-1.771 1.59c-.484 2.672-.962 7.416 1.276 9.184.905.714 2.08 1.068 3.267 1.068Zm3.837-10.98a.595.595 0 0 1 .593.585c.05 4.132-.584 7.162-1.696 8.103-1.406 1.188-3.769 1.264-5.159.165-1.211-.958-1.505-3.906-.782-7.885a.59.59 0 0 1 .54-.483l6.458-.486h.046Z" fill="#371A45"/><path d="M80.751 69.88c-.136.784-.268 1.552-.326 2.348a9.782 9.782 0 0 0 .1 2.428c.145.817.435 1.667 1.004 2.388.287.36.634.668 1.026.91.386.236.807.41 1.247.512a.618.618 0 0 0 .695-.886.617.617 0 0 0-.353-.298l-.018-.005c-.643-.213-1.2-.538-1.619-1.035-.425-.488-.717-1.131-.919-1.828-.2-.696-.308-1.447-.42-2.21a17.244 17.244 0 0 0-.082-.575 18.202 18.202 0 0 0-.087-.581 8.497 8.497 0 0 0-.248-1.168ZM82.465 50.22c-.62-.236-1.244-.279-1.86-.266-.617.012-1.236.034-1.854.088-.617.048-1.232.124-1.845.227-.615.099-1.224.231-1.823.398a.618.618 0 0 0 .295 1.197l.01-.002 1.747-.385.879-.184.884-.172c.59-.109 1.184-.22 1.78-.314.596-.093 1.19-.215 1.788-.484a.055.055 0 0 0 .033-.052.055.055 0 0 0-.005-.021.056.056 0 0 0-.03-.03Z" fill="#371A45"/><path opacity=".35" d="M79.907 47.092a27.27 27.27 0 0 1-9.5 4.63l-.016-6.468s5.407.143 9.516 1.838ZM56.855 79.756Z" fill="#371A45"/><path d="M40.512 81.507c2.584 4.83 10.392 6.689 13.636 6.915.732.05 1.442.072 2.132.062a26.87 26.87 0 0 0 10.528-2.287c3.195-1.42 5.827-3.723 7.592-6.715a16.839 16.839 0 0 0 1.439-3.134c.576-1.707.906-3.905.974-6.508.135-5.035-.7-11.574-2.572-18.956-.279-1.097-.58-2.21-.903-3.343-.955-3.33-2.11-6.804-3.471-10.364l-25.26-1.363c-1.136 5.943-2.102 11.401-2.882 16.33-.144.91-.28 1.805-.412 2.682-2.117 14.135-2.532 23.444-.801 26.68Z" fill="#fff"/><path opacity=".35" d="M75.783 76.513c-1.573 4.451-4.79 7.824-8.976 9.683a26.829 26.829 0 0 1-12.66 2.225c-3.243-.226-11.052-2.085-13.636-6.915-.803-1.5-1.145-4.307-1.067-8.296.064 2.369.412 4.082 1.067 5.085 2.584 3.963 10.393 5.487 13.636 5.673 6.267.362 11.03-1.23 12.66-1.825 4.185-1.524 7.403-4.292 8.976-7.943.656-1.521 1.006-3.535 1.04-5.95.042 3.39-.313 6.201-1.04 8.263ZM40.144 63.656c-.412 3.689-.65 6.886-.7 9.554-.066-2.485.176-5.691.7-9.554Z" fill="#371A45"/><path opacity=".35" d="M76.823 68.25a53.407 53.407 0 0 0-.266-4.601c.2 1.656.288 3.196.266 4.6Z" fill="#371A45"/><path d="M56.001 89.163a27.444 27.444 0 0 0 11.08-2.349c4.42-1.963 7.737-5.542 9.34-10.077 2.67-7.557.29-23.552-5.922-39.8a.674.674 0 0 0-.879-.405.677.677 0 0 0-.385.886c7.053 18.446 8.05 32.814 5.91 38.87-1.477 4.181-4.536 7.481-8.613 9.292a26.048 26.048 0 0 1-12.307 2.171l-3.29-.538c-2.142-.511-6.073-1.743-8.528-4.275a7.869 7.869 0 0 1-1.3-1.752c-2.192-4.1-.791-19.32 4.164-45.246a.672.672 0 0 0-.535-.804.676.676 0 0 0-.793.55c-5.086 26.606-6.403 41.696-4.028 46.136.409.752.92 1.444 1.52 2.055 2.703 2.786 6.93 4.111 9.21 4.654l.047.01 3.408.557c.648.044 1.282.065 1.901.065Z" fill="#371A45"/><path d="M55.666 84.723s-2.8 13.966 3.01 20.747c0 0-5.853 3.583-2.615 6.454 7.7 0 10.093 1.225 18.603-2.852 2.8-6.475-4.165-11.806-.748-27.396.564-2.57 1.191-5.777 1.203-9.529L55.666 84.723Z" fill="#fff"/><path opacity=".35" d="M73.916 81.714c-3.417 15.59 3.547 20.924.748 27.397 0 3.44-14.642 2.852-18.603 2.852-.849-.752-1.07-1.553-.94-2.326 4.249 2.239 14.899 2.623 17.565-3.547.963-2.228-4.856-6.559-4.895-11.4-.032-4.058 1.106-8.204 2.297-11.412.96-2.583-.872-5.335-3.626-5.48l-.075-.005a33.192 33.192 0 0 1-5.085-.68s-2.95-3.726.337-5.828c0 0 9.997 1.371 15.175-1.445-.074 2.754-.42 5.082-1.03 6.888-.299.095-.635.193-1.006.288-.236 1.742-.559 3.313-.862 4.698Z" fill="#371A45"/><path d="M71.64 111.64a8.155 8.155 0 0 1-.55.333l-.299.011-11.601.398-.994.034-.028-.011-.056-.023a6.59 6.59 0 0 1-1.32-.706l.239-.009 15.357-.598a7.293 7.293 0 0 1-.749.571Z" fill="#371A45"/><path fill-rule="evenodd" clip-rule="evenodd" d="M54.705 87.365c.18-.896.393-1.784.74-2.647v.005a.229.229 0 0 1 .388-.062c.034.04.053.092.054.145v.005c.01 1.418-.042 2.818-.095 4.212-.014.377-.028.755-.04 1.132-.043 1.768-.057 3.534.075 5.287.063.874.174 1.745.332 2.607.152.857.363 1.702.632 2.53.274.82.582 1.63.988 2.382.395.751.868 1.459 1.41 2.112l.502.597-.662.418c-.255.16-.532.356-.794.556a11.2 11.2 0 0 0-.757.627c-.478.437-.923.915-1.246 1.422-.323.506-.516 1.052-.46 1.521.055.468.349.922.804 1.298.069.056.14.111.215.164.385.276.844.51 1.321.706h-2.59l-.045-.046-.07-.069c-.05-.048-.1-.096-.146-.149a3.714 3.714 0 0 1-.383-.507 2.98 2.98 0 0 1-.45-1.251 3.133 3.133 0 0 1 .14-1.301c.126-.386.301-.753.522-1.094.422-.662.94-1.202 1.482-1.699a12.612 12.612 0 0 1 1.126-.908 13.47 13.47 0 0 1-1.116-1.773c-.448-.832-.782-1.707-1.076-2.594-.294-.886-.503-1.79-.68-2.695-.077-.372-.135-.745-.194-1.12l-.038-.243a95.879 95.879 0 0 0-.038-.297c-.047-.357-.094-.715-.126-1.073a30.007 30.007 0 0 1-.075-5.485c.062-.91.179-1.817.35-2.713Zm18.688 24.619c.245-.221.477-.456.695-.703a8.016 8.016 0 0 0 1.207-1.93c.591-1.373.814-2.919.696-4.374-.104-1.462-.435-2.845-.761-4.196l-.199-.815c-.262-1.072-.522-2.134-.73-3.202-.535-2.672-.768-5.385-.639-8.101.064-1.359.198-2.713.401-4.058.188-1.201.435-2.372.692-3.585l.097-.46.15-.732c.233-1.127.468-2.261.573-3.416.128-1.406.137-2.83-.23-4.226a.234.234 0 0 0-.45-.004c-.344 1.236-.515 2.446-.687 3.658l-.057.403c-.047.328-.092.656-.136.985-.14 1.021-.278 2.044-.489 3.06l-.11.528c-.248 1.17-.503 2.379-.69 3.584a41.023 41.023 0 0 0-.415 4.205 33.856 33.856 0 0 0 .072 4.234 36.74 36.74 0 0 0 .591 4.187c.235 1.205.527 2.39.816 3.563l.126.513c.328 1.34.635 2.663.726 3.967.102 1.304-.09 2.574-.59 3.752a6.689 6.689 0 0 1-.988 1.58 7.382 7.382 0 0 1-1.973 1.572l-.019.011h2.32Z" fill="#371A45"/><path d="M71.072 111.984h2.32a8.781 8.781 0 0 1-.475.398h-2.652c.276-.121.546-.253.807-.398Z" fill="#371A45"/><path d="m59.19 112.382 11.601-.398h.281a9.582 9.582 0 0 1-.807.398H59.19ZM64.31 98.787c5.05 0 9.185-1.28 9.455-1.366a.507.507 0 1 0-.306-.966c-.102.032-10.268 3.174-18.016-.437a.508.508 0 0 0-.429.918c3.012 1.404 6.314 1.85 9.297 1.85Z" fill="#371A45"/><path d="M37.565 71.486a3.136 3.136 0 0 1 0-4.44 3.148 3.148 0 0 1 4.447 0 3.136 3.136 0 0 1 0 4.44 3.148 3.148 0 0 1-4.447 0Z" fill="#fff"/><path opacity=".35" d="M36.645 69.347a3.135 3.135 0 0 0 2.01 2.878 3.148 3.148 0 0 0 4.08-1.825c.145-.389.212-.802.197-1.217a3.098 3.098 0 0 0-.337-1.334 3.14 3.14 0 0 1-2.794 1.869 3.15 3.15 0 0 1-2.888-1.721c-.189.424-.28.886-.267 1.35Z" fill="#371A45"/><path d="M39.787 73.081h.1a3.826 3.826 0 0 0 3.468-2.446 3.81 3.81 0 0 0-.936-4.134 3.823 3.823 0 0 0-6.45 2.866l.676-.018-.676.018a3.816 3.816 0 0 0 1.154 2.63 3.829 3.829 0 0 0 2.664 1.084Zm.003-6.28a2.47 2.47 0 0 1 2.271 1.51 2.46 2.46 0 0 1-.508 2.675 2.47 2.47 0 0 1-4.233-1.656 2.464 2.464 0 0 1 2.402-2.527l.068-.001Z" fill="#371A45"/><path opacity=".35" d="M39.654 72.133c.49-3.209.654-6.46.49-9.701a48.768 48.768 0 0 1-.512 5.279c-.327 2.152-.427 4.398-.227 6.606.055-.733.14-1.464.249-2.184Z" fill="#371A45"/><path d="m42.68 78.213 16.42.842a3.548 3.548 0 0 0 3.718-3.349l.449-8.724a3.548 3.548 0 0 0-3.355-3.712l-16.418-.842a3.546 3.546 0 0 0-3.717 3.349l-.357 6.91-.094 1.814a3.547 3.547 0 0 0 3.354 3.712Z" fill="#fff"/><path opacity=".35" d="m42.68 78.213 16.42.842a3.548 3.548 0 0 0 3.718-3.349l.449-8.724a3.548 3.548 0 0 0-2.652-3.604c-.964.57-1.577.936-1.577.936-1.16 6.962-3.337 10.351-12.054 10.047-3.763-.133-6.106-.827-7.564-1.675l-.094 1.815a3.547 3.547 0 0 0 3.354 3.712Z" fill="#371A45"/><path d="M59.285 79.736a4.232 4.232 0 0 0 2.899-1.162 4.219 4.219 0 0 0 1.309-2.832l.449-8.725a4.21 4.21 0 0 0-1.081-3.035 4.224 4.224 0 0 0-2.913-1.386l-16.42-.843c-2.323-.115-4.307 1.67-4.427 3.987l-.45 8.726a4.211 4.211 0 0 0 1.082 3.035 4.225 4.225 0 0 0 2.912 1.386l16.42.843c.073.004.147.006.22.006ZM43.31 63.098c.05 0 .099 0 .148.004l16.418.842a2.86 2.86 0 0 1 2.713 3.003l-.448 8.726a2.869 2.869 0 0 1-.944 1.972 2.878 2.878 0 0 1-2.062.737l-16.419-.843a2.876 2.876 0 0 1-1.976-.942 2.867 2.867 0 0 1-.737-2.059l.448-8.727a2.877 2.877 0 0 1 2.859-2.713Z" fill="#371A45"/><path d="M42.024 78.115c.215.055.435.088.656.098l16.42.843a3.552 3.552 0 0 0 3.324-1.91c.233-.446.367-.936.392-1.439l.2-3.875.067-1.28.184-3.569a3.548 3.548 0 0 0-3.355-3.712l-3.548-.18a3.55 3.55 0 0 1 2.704 3.613l-.242 4.712-.206 4.014a3.55 3.55 0 0 1-3.717 3.35l-12.879-.665Z" fill="#fff"/><path opacity=".35" d="M42.025 78.115c.214.055.434.088.656.098l16.42.842a3.55 3.55 0 0 0 2.55-.908 3.539 3.539 0 0 0 1.165-2.44l.267-5.155c-.46.89-1.259 1.97-2.453 2.026-.654.032-1.271-.469-1.803-1.163l-.206 4.014a3.55 3.55 0 0 1-3.718 3.35l-12.878-.664Z" fill="#371A45"/><path d="M59.288 79.736a4.229 4.229 0 0 0 2.898-1.162 4.216 4.216 0 0 0 1.307-2.832l.45-8.726a4.217 4.217 0 0 0-1.084-3.033 4.23 4.23 0 0 0-2.91-1.388l-3.547-.181-.195 1.33a2.867 2.867 0 0 1 2.186 2.925l-.451 8.725a2.876 2.876 0 0 1-3.006 2.71l-12.879-.663-.201 1.33c.26.065.525.104.792.116l16.417.844c.076.003.15.005.223.005ZM58.82 63.89l1.058.054a2.86 2.86 0 0 1 2.713 3l-.45 8.73a2.866 2.866 0 0 1-.943 1.972 2.875 2.875 0 0 1-2.062.736l-1.177-.06a4.173 4.173 0 0 0 1.334-2.859l.45-8.725a4.196 4.196 0 0 0-.923-2.848Z" fill="#371A45"/><path d="M52.365 70.805c-.015.323.32 2.95.32 2.95l1.842.081c1.268.058 2.356-1.206 2.43-2.823.072-1.617-.895-2.975-2.163-3.033l-1.841-.082s-.564 2.38-.588 2.907Z" fill="#F55"/><path opacity=".35" d="M52.365 70.805c-.015.323.32 2.95.32 2.95l1.842.081c1.268.058 2.356-1.206 2.43-2.823.072-1.617-.895-2.975-2.163-3.033l-1.841-.082s-.564 2.38-.588 2.907Z" fill="#371A45"/><path d="M54.61 74.345c1.5 0 2.77-1.458 2.854-3.308.041-.895-.197-1.753-.671-2.418-.501-.703-1.202-1.11-1.974-1.144l-1.286-.058a1.174 1.174 0 0 0-1.2.91c-.3 1.32-.46 2.145-.474 2.454-.004.082-.014.304.254 2.476a1.17 1.17 0 0 0 1.111 1.028l1.28.058.106.002Zm-1.13-5.917h.007l1.285.059c.453.02.879.276 1.194.72.343.48.515 1.114.484 1.783-.06 1.336-.915 2.385-1.9 2.341l-1.278-.058a.16.16 0 0 1-.152-.14c-.24-1.943-.247-2.26-.247-2.307.004-.09.05-.52.45-2.273a.16.16 0 0 1 .156-.125Z" fill="#371A45"/><path d="M52.692 73.758c-1.268-.058-2.236-1.415-2.162-3.032.073-1.617 1.161-2.882 2.43-2.824 1.268.058 2.236 1.416 2.162 3.033-.074 1.617-1.162 2.88-2.43 2.823Z" fill="#F55"/><path d="M52.768 74.261c1.5 0 2.77-1.458 2.854-3.308.042-.895-.197-1.753-.67-2.418-.502-.703-1.203-1.11-1.977-1.144-.774-.034-1.508.306-2.07.96-.533.618-.85 1.452-.89 2.346-.04.895.198 1.754.672 2.418.5.702 1.202 1.11 1.976 1.144l.105.002Zm.102-5.86h.06c.453.021.879.277 1.194.72.343.481.516 1.115.485 1.784-.061 1.336-.914 2.385-1.9 2.341-.453-.021-.879-.276-1.194-.72-.343-.48-.515-1.114-.484-1.784.03-.67.26-1.285.645-1.733.339-.393.761-.607 1.194-.607ZM47.788 78.919a.508.508 0 0 0 .507-.494l.176-6.33-2.718-1.906.366-7.624a.506.506 0 0 0-1.013-.048l-.393 8.18 2.73 1.915-.161 5.786a.506.506 0 0 0 .494.52h.012Z" fill="#371A45"/><path d="M77.523 66.834s1.519 1.207 1.586 3.07c.078 2.154-1.272 3.027-1.272 3.027s-5.906 3.019-15.38 1.013c0 0-2.79-3.52.317-5.505 0 0 10 1.37 14.749-1.605Z" fill="#fff"/><path opacity=".35" d="M79.108 69.905c.078 2.151-1.271 3.025-1.271 3.025s-5.905 3.02-15.382 1.013c0 0-.917-1.16-1.111-2.52.044.067.073.102.073.102 6.926 1.467 11.944.246 14.143-.514 1.527-.53 2.548-1.914 2.511-3.46v-.064a.603.603 0 0 0-.008-.107c.442.528 1.006 1.41 1.045 2.525Z" fill="#371A45"/><path d="M68.875 75.313c5.7 0 9.084-1.686 9.27-1.78l.06-.035c.068-.045 1.67-1.11 1.58-3.618-.077-2.148-1.77-3.517-1.84-3.576l-.376-.298-.406.254c-4.488 2.814-14.2 1.521-14.297 1.509l-.247-.035-.21.135c-.98.626-1.562 1.453-1.73 2.455-.336 2.01 1.183 3.956 1.248 4.038l.151.191.24.05c2.427.516 4.625.71 6.557.71Zm8.615-2.964c-.517.244-6.077 2.728-14.638.986-.31-.456-1.03-1.667-.838-2.792.094-.553.398-1.013.93-1.403 1.605.194 9.847 1.04 14.477-1.467.383.418.976 1.227 1.012 2.254.057 1.577-.776 2.294-.943 2.422Z" fill="#371A45"/><path opacity=".35" d="M41.726 52.142c.096.064.192.129.288.191.76.495 1.548.948 2.36 1.357.396.2.804.39 1.216.575 1.223.533 2.488.962 3.783 1.282a23.069 23.069 0 0 0 8.684.47c5.819-.793 11.266-3.778 15.28-8.475-.955-3.33-2.11-6.803-3.471-10.364l-25.26-1.362c-1.135 5.942-2.1 11.4-2.88 16.326Z" fill="#371A45"/><path d="M31.94 40.22a26.246 26.246 0 0 0 9.375 9.538 27.035 27.035 0 0 0 3.85 1.9 27.113 27.113 0 0 0 13.43 1.71c9.326-1.185 17.776-7.159 21.592-16.356 5.623-13.549-.942-28.957-14.658-34.417A27.02 27.02 0 0 0 56.516.693a26.972 26.972 0 0 0-2.536.023 27.43 27.43 0 0 0-12.673 3.952c-.785.478-1.545.996-2.276 1.552a26.556 26.556 0 0 0-8.523 11.024c-3.238 7.794-2.439 16.201 1.432 22.977Z" fill="#fff"/><path d="M55.19 53.654c.624 0 1.249-.022 1.874-.065a30.414 30.414 0 0 0 1.54-.151c9.665-1.228 17.96-7.51 21.646-16.398 2.718-6.542 2.699-13.725-.047-20.225-2.77-6.55-7.972-11.623-14.65-14.281A27.084 27.084 0 0 0 56.517.626a27.149 27.149 0 0 0-2.543.023 27.501 27.501 0 0 0-12.702 3.96c-.787.48-1.549 1-2.282 1.557a26.726 26.726 0 0 0-8.547 11.052c-3.134 7.552-2.61 15.95 1.441 23.038a26.41 26.41 0 0 0 9.4 9.563 27.234 27.234 0 0 0 13.906 3.835Zm.3-52.91a27.05 27.05 0 0 1 1.968.07c2.76.2 5.474.822 8.043 1.847 6.644 2.645 11.82 7.69 14.575 14.208 2.734 6.465 2.75 13.61.048 20.12-3.667 8.841-11.92 15.093-21.537 16.314a27.091 27.091 0 0 1-14.703-2.267c-.868-.4-1.714-.845-2.534-1.334A26.278 26.278 0 0 1 32 40.19l-.06.033.06-.033c-4.028-7.053-4.55-15.406-1.431-22.919A26.589 26.589 0 0 1 39.07 6.274a26.99 26.99 0 0 1 3.864-2.446A27.369 27.369 0 0 1 53.982.786a26.178 26.178 0 0 1 1.507-.043Z" fill="#371A45"/><path opacity=".35" d="M80.187 37.015C76.372 46.214 67.92 52.188 58.594 53.37c-.51.065-1.021.116-1.535.152a27.166 27.166 0 0 1-11.895-1.86 27.394 27.394 0 0 1-3.85-1.901 26.271 26.271 0 0 1-7.671-6.931 26.225 26.225 0 0 1-4.399-9.35 26.236 26.236 0 0 0 9.065 9.01c.822.492 1.67.939 2.54 1.339a27.082 27.082 0 0 0 14.74 2.272c9.326-1.184 17.776-7.157 21.592-16.357a25.983 25.983 0 0 0 1.257-16.237c4.14 6.865 5.069 15.51 1.749 23.508Z" fill="#371A45"/><path d="M55.19 54.11a27.83 27.83 0 0 0 3.47-.22c9.828-1.248 18.262-7.638 22.011-16.675 2.763-6.657 2.745-13.964-.049-20.576-2.817-6.664-8.108-11.824-14.901-14.527A27.546 27.546 0 0 0 53.949.194 27.949 27.949 0 0 0 41.033 4.22a27.61 27.61 0 0 0-2.321 1.583 27.177 27.177 0 0 0-8.69 11.24c-3.19 7.682-2.656 16.225 1.463 23.437a26.866 26.866 0 0 0 9.562 9.73c.838.5 1.702.954 2.59 1.362.4.186.837.374 1.331.575a27.775 27.775 0 0 0 7.775 1.855c.808.072 1.626.107 2.447.107Zm.3-52.911a26.762 26.762 0 0 1 1.933.07c2.715.195 5.383.807 7.91 1.815 6.53 2.6 11.617 7.558 14.323 13.962 2.685 6.352 2.701 13.372.047 19.768-3.605 8.692-11.718 14.837-21.174 16.037-.497.062-1.005.112-1.508.149a26.647 26.647 0 0 1-11.662-1.825 27.983 27.983 0 0 1-1.283-.553 26.525 26.525 0 0 1-2.492-1.31 25.82 25.82 0 0 1-9.188-9.35c-3.958-6.928-4.47-15.136-1.406-22.517a26.13 26.13 0 0 1 8.358-10.807 26.437 26.437 0 0 1 3.797-2.405A26.909 26.909 0 0 1 54.007 1.24 25.3 25.3 0 0 1 55.49 1.2Z" fill="#371A45"/><path d="M55.19 54.26c.638 0 1.276-.02 1.916-.064.526-.039 1.055-.09 1.574-.155 9.881-1.255 18.363-7.68 22.133-16.768 2.778-6.694 2.76-14.043-.05-20.693-2.832-6.7-8.152-11.89-14.986-14.61A27.69 27.69 0 0 0 56.534.02a27.691 27.691 0 0 0-2.594.023A28.104 28.104 0 0 0 40.954 4.09 27.501 27.501 0 0 0 29.88 16.984c-3.207 7.729-2.67 16.318 1.473 23.571a27.021 27.021 0 0 0 9.615 9.784 27.867 27.867 0 0 0 3.945 1.947 27.938 27.938 0 0 0 10.278 1.975Zm.3-52.91a26.089 26.089 0 0 1 1.921.07c2.7.194 5.353.802 7.867 1.804 6.492 2.585 11.548 7.514 14.238 13.88 2.668 6.315 2.685 13.294.046 19.65C75.978 45.396 67.911 51.505 58.51 52.7a26.488 26.488 0 0 1-13.094-1.666c-.473-.192-.891-.37-1.276-.55a26.295 26.295 0 0 1-2.479-1.304 25.66 25.66 0 0 1-9.133-9.293c-3.934-6.888-4.444-15.046-1.4-22.385A26.148 26.148 0 0 1 43.213 4.365 26.762 26.762 0 0 1 54.014 1.39c.49-.026.982-.04 1.475-.04Z" fill="#371A45"/><path d="M36.048 45.636C51.936 56.14 73.213 47.988 74.062 29.28 74.64 16.553 62.44 6.242 49.998 6.55c-9.054.224-17.818 4.344-21.39 18.282 0 0-.614 6.405 1.208 10.624s4.32 8.016 4.32 8.016l1.912 2.163Z" fill="#371A45"/><path d="M74.061 29.28c-.848 18.708-22.126 26.86-38.014 16.357l-.387-.44c17.35 2.691 34.44-7.865 35.655-26.766 1.887 3.225 2.924 6.922 2.746 10.85Z" fill="#220F2D"/><path d="M51.131 53.6c6.889 0 13.47-2.396 18.297-6.71 4.964-4.438 7.755-10.48 8.074-17.471.291-6.423-2.235-12.698-7.113-17.67-5.419-5.524-13.106-8.713-20.568-8.525-4.145.103-7.864.923-11.057 2.44l-.057.027-.05.038a27.274 27.274 0 0 0-8.722 11.28c-3.2 7.71-2.665 16.282 1.47 23.519a26.956 26.956 0 0 0 9.592 9.763 27.67 27.67 0 0 0 2.599 1.366c.402.187.84.375 1.336.576 1.354.539 2.748.97 4.17 1.29l.096.014c.646.044 1.291.062 1.933.062ZM50.44 4.448c6.938 0 14.025 3.024 19.067 8.163 4.636 4.724 7.037 10.672 6.76 16.75-.302 6.654-2.952 12.398-7.663 16.607-5.02 4.488-12.043 6.796-19.277 6.339a26.46 26.46 0 0 1-3.933-1.221 26.565 26.565 0 0 1-3.76-1.857 25.72 25.72 0 0 1-9.155-9.315c-3.943-6.903-4.454-15.081-1.4-22.436A26.038 26.038 0 0 1 39.355 6.75c3.021-1.424 6.553-2.196 10.499-2.294.194-.005.39-.007.586-.007Z" fill="#371A45"/><path d="M51.201 50.953c3.972 0 7.89-.89 11.446-2.693 7.308-3.709 11.715-10.615 12.093-18.95.261-5.75-1.998-11.366-6.364-15.815-4.845-4.938-11.72-7.787-18.392-7.622-11.495.285-18.906 6.607-22.027 18.79l-.018.104c-.026.268-.61 6.627 1.26 10.955 1.824 4.225 4.27 7.962 4.374 8.119l.058.076 1.972 2.23.074.05c4.762 3.15 10.19 4.756 15.524 4.756Zm-.666-43.734c6.14 0 12.411 2.676 16.873 7.223 4.1 4.178 6.223 9.436 5.98 14.808-.357 7.834-4.495 14.324-11.356 17.806-7.864 3.992-17.642 3.248-25.536-1.934l-1.82-2.06c-.267-.411-2.56-3.985-4.239-7.873-1.646-3.816-1.21-9.641-1.159-10.242 2.961-11.492 9.938-17.455 20.738-17.722.172-.004.346-.006.52-.006Z" fill="#371A45"/><path d="M85.949 27.875c.401 5.2-2.38 9.81-6.212 10.298-3.833.488-7.266-3.333-7.667-8.533a1.666 1.666 0 0 1-.007-.1c-.36-5.159 2.412-9.714 6.217-10.198 2.962-.376 5.682 1.818 6.954 5.233.39 1.062.63 2.172.715 3.3Z" fill="#fff"/><path opacity=".35" d="M85.949 27.875c.401 5.2-2.38 9.81-6.212 10.298-3.833.487-7.266-3.333-7.667-8.533a1.666 1.666 0 0 1-.007-.1c.463.48 1.16.922 2.034.632 1.532-.509 4.067-4.207 4.067-4.207s3.063-.623 7.071-1.39c.39 1.061.63 2.172.714 3.3Z" fill="#371A45"/><path d="M79.07 38.89c.252 0 .504-.016.754-.048 4.178-.53 7.23-5.474 6.8-11.017-.246-3.2-1.576-6.001-3.648-7.687-1.441-1.171-3.092-1.678-4.776-1.463-4.179.531-7.23 5.474-6.801 11.02.247 3.2 1.577 6.001 3.65 7.687 1.221.993 2.6 1.508 4.02 1.508Zm-.127-18.914c1.112 0 2.2.41 3.178 1.207 1.76 1.431 2.94 3.952 3.155 6.744.374 4.838-2.149 9.133-5.623 9.575-1.308.164-2.607-.238-3.753-1.17-1.76-1.432-2.939-3.953-3.155-6.745-.374-4.838 2.15-9.134 5.624-9.575.19-.024.382-.036.574-.036Z" fill="#371A45"/><path d="M81.098 36.838c-3.14-.063-5.617-3.475-5.534-7.62.083-4.147 2.695-7.457 5.834-7.394 3.14.062 5.617 3.474 5.534 7.62-.083 4.146-2.695 7.457-5.834 7.394Z" fill="#fff"/><path d="M81.257 36.944a4.554 4.554 0 0 0 2.051-.502c1.658-.831 2.923-2.58 3.474-4.797.986-3.979-.658-8.242-3.668-9.505-1.251-.524-2.564-.475-3.796.143-1.659.83-2.924 2.58-3.474 4.797-.989 3.978.658 8.242 3.668 9.504a4.49 4.49 0 0 0 1.745.36Zm.112-15.022c.58.002 1.154.12 1.688.349 2.947 1.236 4.556 5.426 3.585 9.34-.54 2.178-1.779 3.892-3.4 4.705-1.194.598-2.466.646-3.678.137-2.947-1.236-4.556-5.426-3.586-9.34.54-2.178 1.78-3.892 3.4-4.704a4.414 4.414 0 0 1 1.99-.487Z" fill="#371A45"/><path opacity=".35" d="M76.204 32.963c-.457-1.346-.54-2.823-.309-4.234 1.305 2.982 4.236 4.005 6.788 2.261 1.65-1.127 2.758-3.151 3.116-5.336.082.188.159.386.229.59 1.162 3.429-.094 7.713-2.808 9.569-2.713 1.856-5.853.578-7.016-2.85Z" fill="#371A45"/><path d="M81.396 37.552c.196 0 .39-.014.584-.041 3.235-.437 5.593-4.522 5.258-9.104-.2-2.717-1.318-5.15-2.993-6.506-1.085-.88-2.32-1.255-3.571-1.085-3.235.436-5.594 4.521-5.258 9.104.2 2.716 1.318 5.148 2.993 6.505.916.744 1.938 1.127 2.987 1.127ZM81.25 22.13c.741 0 1.474.28 2.141.822 1.391 1.127 2.324 3.204 2.496 5.556.285 3.884-1.55 7.324-4.09 7.667-.872.118-1.749-.157-2.537-.796-1.39-1.126-2.323-3.203-2.496-5.555-.284-3.885 1.55-7.325 4.09-7.667a2.9 2.9 0 0 1 .396-.027Z" fill="#371A45"/><path opacity=".7" d="M56.637 11.408s-11.866 1.04-18.269 7.94l-.02.021a11.07 11.07 0 0 0-2.691 5.157c-.555 2.539-.561 4.366-.503 5.975.178 4.892 1.191 7.147 1.191 7.147-2.92-2.469-4.619-5.338-4.809-9.413a17.737 17.737 0 0 1-.01-1.243c0-.098.007-.195.012-.293-.002 0 0-.003 0-.006.106-1.093.278-2.178.515-3.25.84-3.8 2.829-8.792 7.535-11.264 8.795-4.622 17.44-1.299 17.049-.771ZM62.152 24.108c-.695-2.166.272-4.412 2.16-5.017 1.889-.604 3.982.662 4.677 2.827.695 2.166-.273 4.412-2.16 5.017-1.889.604-3.983-.662-4.677-2.827ZM66.847 30.735c-.37-.864-.058-1.825.694-2.146.753-.32 1.662.12 2.031.984.37.864.058 1.825-.695 2.146-.752.32-1.661-.12-2.03-.984Z" fill="#fff"/><path d="M68.8 106.075c-.615-.701-1.442-1.139-2.297-1.433a10.937 10.937 0 0 0-2.672-.585 6.582 6.582 0 0 0-.688-.041c-.23 0-.46-.022-.69 0l-.69.037c-.23.016-.457.062-.686.092-.46.05-.902.181-1.35.288-.227.047-.438.141-.656.213l-.647.237a.674.674 0 0 0 .183 1.311.68.68 0 0 0 .261-.036l.058-.019.589-.195c.196-.063.387-.144.589-.188.4-.099.794-.224 1.2-.284.807-.171 1.632-.22 2.46-.221.833.008 1.663.107 2.475.295.818.193 1.624.417 2.498.627h.005a.058.058 0 0 0 .063-.027.058.058 0 0 0-.006-.068v-.003Z" fill="#371A45"/><path d="M72.156 63.219s-2.941 8.371-12.969 9.117c-10.028.746-15.344-5.882-16.922-9.117h29.891Z" fill="#fff"/><path opacity=".35" d="M42.266 63.219c1.577 3.235 6.89 9.863 16.92 9.117 7.416-.552 10.956-5.273 12.297-7.694-2.008 1.717-4.84 3.795-8.852 4.102-6.817.522-7.45-2.617-8.642-5.525H42.266Z" fill="#371A45"/><path d="M71.943 63.145c-.586.558-1.015 1.159-1.434 1.767-.43.598-.84 1.209-1.302 1.785a11.646 11.646 0 0 1-1.547 1.58c-.558.48-1.156.915-1.787 1.297-.63.382-1.29.716-1.971.998-.686.275-1.391.502-2.11.678-1.44.349-2.937.478-4.433.468-1.493-.032-2.981-.22-4.411-.623a16.02 16.02 0 0 1-4.072-1.765 16.614 16.614 0 0 1-3.448-2.804c-.254-.27-.5-.549-.737-.835a10.62 10.62 0 0 1-.64-.91 9.012 9.012 0 0 0-.666-.886c-.26-.308-.57-.57-.918-.774l-.006-.003a.267.267 0 0 0-.4.2c-.053.466.05.877.2 1.258.16.372.366.723.615 1.043.247.322.517.617.77.93.258.308.521.61.797.903a17.938 17.938 0 0 0 3.728 3.03c1.375.84 2.86 1.484 4.414 1.914 1.55.436 3.155.64 4.754.672 1.595.011 3.202-.126 4.772-.505a16.872 16.872 0 0 0 2.306-.74 15.713 15.713 0 0 0 2.163-1.096c.693-.42 1.35-.896 1.962-1.424a20.403 20.403 0 0 0 1.73-1.698c.548-.595 1.046-1.24 1.434-1.951.388-.712.7-1.473.665-2.358a.24.24 0 0 0-.286-.227.243.243 0 0 0-.122.062l-.02.014Z" fill="#371A45"/><path d="m29.07 91.466-1.03 7.551c6.39 4.036 9.345 14.051 9.345 14.051h7.23S41.714 99.72 29.07 91.466Z" fill="#fff" stroke="#371A45" stroke-width=".75" stroke-miterlimit="10"/><path d="M37.385 113.053h5.983c-.721-2.628-4.152-13.154-14.458-20.346l-.858 6.304c6.377 4.036 9.333 14.042 9.333 14.042Z" fill="#fff" stroke="#371A45" stroke-width=".75" stroke-miterlimit="10"/><path d="M37.385 113.053h5.983c-.721-2.628-4.152-13.154-14.458-20.346l-.858 6.304c6.377 4.036 9.333 14.042 9.333 14.042Z" fill="#E7E3E8" stroke="#fff" stroke-width=".75" stroke-linecap="round" stroke-linejoin="round"/><path d="M96.472 117.91a7.122 7.122 0 0 1-7.766 1.545 7.124 7.124 0 0 1-4.4-6.579 7.117 7.117 0 0 1 4.4-6.579 7.128 7.128 0 0 1 9.852 6.579c0 1.888-.75 3.699-2.086 5.034Z" fill="#414141" stroke="#282828" stroke-width=".75" stroke-miterlimit="10"/><path d="M95.981 108.332a6.438 6.438 0 0 0-7.008-1.392 6.433 6.433 0 0 0-3.97 5.938 6.423 6.423 0 0 0 3.97 5.938 6.432 6.432 0 0 0 8.893-5.938 6.425 6.425 0 0 0-1.885-4.546Zm-8.77 8.915a6.012 6.012 0 0 1 .913-9.253 6.02 6.02 0 0 1 8.904 2.698 6.012 6.012 0 0 1-3.257 7.859 6.01 6.01 0 0 1-4.607 0 6.007 6.007 0 0 1-1.953-1.304Z" fill="#B5B5B5" style="mix-blend-mode:screen" opacity=".5"/><path style="mix-blend-mode:multiply" d="M96.472 107.842a7.127 7.127 0 0 0-12.165 5.034 7.118 7.118 0 0 0 4.399 6.579 7.129 7.129 0 0 0 7.766-1.545 7.12 7.12 0 0 0 0-10.068Zm-9.887 9.826a6.85 6.85 0 0 1 4.848-11.697 6.86 6.86 0 0 1 6.334 4.23 6.847 6.847 0 0 1-1.487 7.467 6.858 6.858 0 0 1-9.695 0Z" fill="url(#b)"/><path style="mix-blend-mode:multiply" d="M95.24 116.676a5.388 5.388 0 0 1-8.29-.807 5.376 5.376 0 0 1 2.42-7.964 5.387 5.387 0 0 1 5.87 1.175 5.378 5.378 0 0 1 0 7.596Z" fill="url(#c)"/><path d="M94.94 116.386a4.972 4.972 0 0 1-5.412 1.077 4.97 4.97 0 0 1-3.066-4.585 4.958 4.958 0 0 1 3.066-4.585 4.962 4.962 0 0 1 5.412 1.077 4.959 4.959 0 0 1 0 7.016v0Z" fill="#fff" stroke="#fff" stroke-width=".75" stroke-linecap="round" stroke-linejoin="round"/><g style="mix-blend-mode:multiply"><path d="M94.94 109.37a4.972 4.972 0 0 0-5.412-1.077 4.963 4.963 0 0 0 2.87 9.452 4.96 4.96 0 0 0 2.543-8.375Zm-6.88 6.875a4.759 4.759 0 0 1 .722-7.326 4.762 4.762 0 0 1 5.295 0 4.762 4.762 0 1 1-6.017 7.326Z" fill="#fff"/><path d="M94.94 109.37a4.972 4.972 0 0 0-5.412-1.077 4.963 4.963 0 0 0 2.87 9.452 4.96 4.96 0 0 0 2.543-8.375v0Zm-6.88 6.875a4.759 4.759 0 0 1 .722-7.326 4.762 4.762 0 0 1 5.295 0 4.762 4.762 0 1 1-6.017 7.326v0Z" stroke="#fff" stroke-width=".75" stroke-linecap="round" stroke-linejoin="round"/></g><g style="mix-blend-mode:multiply"><path d="M94.187 115.627a3.894 3.894 0 0 1-4.238.841 3.886 3.886 0 1 1 4.238-6.339 3.893 3.893 0 0 1 1.14 2.749 3.888 3.888 0 0 1-1.14 2.749Z" fill="#fff"/><path d="M94.187 115.627a3.894 3.894 0 0 1-4.238.841 3.886 3.886 0 1 1 4.238-6.339 3.893 3.893 0 0 1 1.14 2.749 3.888 3.888 0 0 1-1.14 2.749v0Z" stroke="#fff" stroke-width=".75" stroke-linecap="round" stroke-linejoin="round"/></g><path d="M94.025 115.465a3.672 3.672 0 0 1-3.994.795 3.666 3.666 0 0 1-2.262-3.384 3.658 3.658 0 0 1 2.262-3.383 3.663 3.663 0 0 1 3.994 5.972Z" fill="#fff" stroke="#fff" stroke-width=".75" stroke-linecap="round" stroke-linejoin="round"/><g style="mix-blend-mode:multiply"><path d="M94.025 110.299a3.663 3.663 0 0 0-3.994-.794 3.659 3.659 0 0 0-2.262 3.383 3.659 3.659 0 0 0 2.262 3.384 3.671 3.671 0 0 0 3.994-.795 3.663 3.663 0 0 0 0-5.178Zm-5.128 5.115a3.584 3.584 0 0 1 .54-5.521 3.589 3.589 0 1 1-.54 5.521Z" fill="#fff"/><path d="M94.025 110.299a3.663 3.663 0 0 0-3.994-.794 3.659 3.659 0 0 0-2.262 3.383 3.659 3.659 0 0 0 2.262 3.384 3.671 3.671 0 0 0 3.994-.795 3.663 3.663 0 0 0 0-5.178v0Zm-5.128 5.115a3.584 3.584 0 0 1 .54-5.521 3.589 3.589 0 1 1-.54 5.521v0Z" stroke="#fff" stroke-width=".75" stroke-linecap="round" stroke-linejoin="round"/></g><path d="M92.472 113.916a1.466 1.466 0 0 1-1.6.317 1.468 1.468 0 1 1 2.031-1.355 1.464 1.464 0 0 1-.43 1.038Z" fill="#39F" stroke="#3B3943" stroke-miterlimit="10"/><g style="mix-blend-mode:multiply"><path d="M92.768 116.278a1.633 1.633 0 0 1 1.178-2.119c.298-.069.609-.054.898.045a3.673 3.673 0 0 0 0-2.67c-.29.098-.6.114-.898.045a1.643 1.643 0 0 1-1.222-1.222 1.636 1.636 0 0 1 .044-.898 3.686 3.686 0 0 0-2.671 0 1.636 1.636 0 0 1-2.076 2.075 3.664 3.664 0 0 0 0 2.667 1.643 1.643 0 0 1 1.683.395 1.638 1.638 0 0 1 .393 1.682 3.676 3.676 0 0 0 2.671 0Z" fill="#fff"/><path d="M92.768 116.278a1.633 1.633 0 0 1 1.178-2.119c.298-.069.609-.054.898.045a3.673 3.673 0 0 0 0-2.67c-.29.098-.6.114-.898.045a1.643 1.643 0 0 1-1.222-1.222 1.636 1.636 0 0 1 .044-.898 3.686 3.686 0 0 0-2.671 0 1.636 1.636 0 0 1-2.076 2.075 3.664 3.664 0 0 0 0 2.667 1.643 1.643 0 0 1 1.683.395 1.638 1.638 0 0 1 .393 1.682 3.676 3.676 0 0 0 2.671 0v0Z" stroke="#fff" stroke-width=".75" stroke-linecap="round" stroke-linejoin="round"/></g><path d="M92.984 114.428a1.474 1.474 0 0 1 1.849-.188 3.643 3.643 0 0 0 0-2.727 1.463 1.463 0 0 1-.96.24 1.468 1.468 0 0 1-1.077-2.276 3.707 3.707 0 0 0-2.726 0 1.47 1.47 0 0 1-.183 1.853c-.24.241-.556.39-.894.423a1.463 1.463 0 0 1-.96-.24 3.673 3.673 0 0 0 0 2.727c.283-.186.622-.269.959-.235a1.473 1.473 0 0 1 1.078 2.273c.875.347 1.85.347 2.725 0a1.47 1.47 0 0 1 .189-1.85Z" fill="#414141"/><path d="M92.646 109.779c.038-.105.089-.205.15-.299a3.697 3.697 0 0 0-2.726 0c.061.094.111.194.15.299a3.33 3.33 0 0 1 2.426 0ZM92.846 111.468a1.341 1.341 0 0 0 1.57.236 1.463 1.463 0 0 1-1.413-.381 1.469 1.469 0 0 1-.382-1.412 1.338 1.338 0 0 0 .225 1.557ZM94.533 114.09c.105.038.206.088.3.149a3.643 3.643 0 0 0 0-2.726 1.29 1.29 0 0 1-.3.153 3.326 3.326 0 0 1 0 2.424ZM94.413 114.051a1.336 1.336 0 0 0-1.794 1.794 1.466 1.466 0 0 1 1.794-1.794ZM88.452 111.704a1.336 1.336 0 0 0 1.795-1.793 1.466 1.466 0 0 1-1.795 1.793ZM90.22 115.979a1.472 1.472 0 0 1-.15.299c.876.347 1.85.347 2.726 0a1.472 1.472 0 0 1-.15-.299 3.33 3.33 0 0 1-2.426 0ZM90.023 114.287a1.34 1.34 0 0 0-1.57-.236 1.474 1.474 0 0 1 1.412.381 1.472 1.472 0 0 1 .382 1.413 1.335 1.335 0 0 0-.224-1.558ZM88.332 111.666a1.293 1.293 0 0 1-.3-.153 3.674 3.674 0 0 0 0 2.726c.094-.061.194-.111.3-.149a3.326 3.326 0 0 1 0-2.424Z" fill="#414141" style="mix-blend-mode:multiply"/><path d="M88.436 113.1a.266.266 0 1 1 0-.376.27.27 0 0 1 0 .376Z" fill="#414141"/><path d="M88.41 113.056a.242.242 0 0 1-.341 0 .244.244 0 0 1 .016-.325.24.24 0 0 1 .324-.016.238.238 0 0 1 0 .341Z" fill="#F55"/><path d="M88.36 112.99a.169.169 0 0 1-.119.049.169.169 0 0 1-.168-.166.16.16 0 0 1 .05-.116.164.164 0 0 1 .118-.049.164.164 0 0 1 .165.165.167.167 0 0 1-.047.117Z" fill="#F55"/><path d="M91.566 116.245a.261.261 0 0 1-.405-.041.262.262 0 0 1 .118-.388.263.263 0 0 1 .287.429Z" fill="#414141"/><path d="M91.554 116.197a.244.244 0 0 1-.17.072.244.244 0 0 1-.17-.072.24.24 0 0 1 .015-.324.24.24 0 0 1 .325-.016.235.235 0 0 1 .053.262.23.23 0 0 1-.053.078Z" fill="#F55"/><path d="M91.503 116.144a.167.167 0 0 1-.118.048.167.167 0 0 1-.168-.165.163.163 0 0 1 .05-.117.167.167 0 0 1 .118-.048c.044 0 .086.017.118.048a.169.169 0 0 1 0 .234Z" fill="#F55"/><path d="M91.604 109.896a.266.266 0 0 1-.445-.135.265.265 0 0 1 .112-.269.261.261 0 0 1 .292 0 .262.262 0 0 1 .041.404Z" fill="#414141"/><path d="M91.605 109.866a.241.241 0 0 1-.341 0 .244.244 0 0 1 .016-.325.243.243 0 0 1 .325-.016.242.242 0 0 1 0 .341Z" fill="#F55"/><path d="M91.55 109.812a.169.169 0 0 1-.118.049.168.168 0 0 1-.166-.167c0-.044.017-.087.048-.118a.173.173 0 0 1 .118-.048c.044 0 .087.018.118.048a.167.167 0 0 1 0 .236Z" fill="#F55"/><path d="M94.748 113.05a.267.267 0 0 1-.367 0 .27.27 0 0 1 0-.371.263.263 0 0 1 .425.086.264.264 0 0 1-.058.285Z" fill="#414141"/><path d="M94.748 113.008a.25.25 0 0 1-.344 0 .243.243 0 1 1 .344 0Z" fill="#F55"/><path d="M94.695 112.954a.169.169 0 0 1-.118.049.169.169 0 0 1-.119-.049.167.167 0 0 1 0-.233.17.17 0 0 1 .113-.035c.04.003.079.02.108.048a.17.17 0 0 1 .049.107.166.166 0 0 1-.033.113Z" fill="#F55"/><path d="M92.448 113.426a.9.9 0 0 1-.897.897H37.307a.898.898 0 0 1-.635-1.531.898.898 0 0 1 .635-.262h54.24a.898.898 0 0 1 .897.896h.003Z" fill="#414141" stroke="#282828" stroke-width=".75" stroke-miterlimit="10"/><path d="M37.308 112.939h54.24a.897.897 0 0 1 .873.694.805.805 0 0 0 .027-.207.897.897 0 0 0-.897-.896H37.307a.898.898 0 0 0-.874 1.103.898.898 0 0 1 .874-.694Z" fill="#fff" style="mix-blend-mode:screen" opacity=".8"/><path d="M91.548 113.779h-54.24a.897.897 0 0 1-.856-.628.896.896 0 0 0 .852 1.172h54.244a.895.895 0 0 0 .85-1.172.897.897 0 0 1-.85.628Z" fill="#414141" style="mix-blend-mode:multiply" opacity=".5"/><path d="M82.032 112.524a9.508 9.508 0 0 1 8.426-9.453 9.517 9.517 0 0 1 10.357 7.288.735.735 0 0 1-1.433.335 8.047 8.047 0 0 0-13.842-3.524 8.037 8.037 0 0 0-2.036 5.354h-1.472Z" fill="#F55" stroke="#F55" stroke-width=".75" stroke-miterlimit="10"/><path d="M82.077 112.625V111.953c0-.169.012-.338.036-.506.027-.185.054-.394.087-.621.033-.228.102-.464.158-.724.033-.128.054-.263.102-.397.048-.135.096-.269.144-.41.047-.14.092-.299.155-.43l.204-.434c.065-.153.137-.303.218-.448.09-.147.177-.299.266-.446l.138-.23c.048-.075.105-.146.155-.221l.33-.449c.053-.077.113-.15.179-.218l.188-.215.195-.215c.062-.077.13-.149.203-.216.287-.282.593-.545.916-.786a9.362 9.362 0 0 1 2.186-1.255l.599-.224c.097-.037.197-.068.299-.093l.317-.081a9.26 9.26 0 0 1 1.29-.245c.218-.027.436-.024.654-.039l.33-.015c.109-.006.219-.006.328 0 .216 0 .428.015.643.036l.65.084c.833.138 1.647.378 2.423.714.716.328 1.392.738 2.013 1.223.146.117.299.242.422.359l.203.179.188.191.362.371.317.386c.2.242.385.495.554.759.083.118.158.242.224.371.07.122.135.242.2.355.211.406.391.827.539 1.259.102.275.185.557.248.843l.078.299s-.033-.102-.093-.299a6.895 6.895 0 0 0-.281-.828 9.273 9.273 0 0 0-.58-1.226 10.075 10.075 0 0 0-1.005-1.435l-.323-.373-.365-.359-.186-.182-.203-.171c-.14-.113-.275-.233-.422-.344a10.855 10.855 0 0 0-1.99-1.163 10.119 10.119 0 0 0-2.362-.678l-.623-.078c-.212-.018-.427-.018-.643-.03a2.794 2.794 0 0 0-.317 0l-.317.018a5.05 5.05 0 0 0-.637.042 9.345 9.345 0 0 0-1.253.227l-.3.078a1.738 1.738 0 0 0-.299.09l-.598.212c-.764.3-1.483.703-2.139 1.196-.313.234-.613.487-.897.756-.07.064-.138.132-.2.203l-.195.21-.192.206a1.755 1.755 0 0 0-.179.209l-.332.434c-.05.068-.108.137-.159.212l-.137.221-.27.433c-.083.142-.159.288-.227.437-.069.143-.14.299-.21.421-.068.123-.107.284-.164.419-.056.134-.104.272-.155.403a3.86 3.86 0 0 0-.114.386c-.066.254-.146.487-.185.712-.04.224-.072.427-.105.612a3.33 3.33 0 0 0-.057.5c0 .146-.02.272-.027.373v.317Z" fill="#fff" style="mix-blend-mode:overlay"/><path d="M100.097 110.53a8.761 8.761 0 0 0-3.495-5.164 8.775 8.775 0 0 0-11.585 1.334 8.764 8.764 0 0 0-2.228 5.824h.715a8.037 8.037 0 0 1 7.122-7.993 8.041 8.041 0 0 1 8.756 6.163.728.728 0 0 0 .596.557.728.728 0 0 0 .287-.01.726.726 0 0 0 .299-.158.8.8 0 0 1-.467-.553Z" fill="#F55" style="mix-blend-mode:multiply" opacity=".5"/><path d="M91.844 113.767a.417.417 0 0 1-.454.093.411.411 0 0 1-.258-.384.417.417 0 0 1 .258-.385.414.414 0 0 1 .454.093.417.417 0 0 1 0 .583Z" fill="#414141"/><path d="M91.825 113.695a.374.374 0 0 1-.532 0 .37.37 0 0 1 0-.532.379.379 0 0 1 .52.012.378.378 0 0 1 .012.52Z" fill="#F55"/><path d="M91.742 113.612a.262.262 0 0 1-.284.056.261.261 0 0 1 0-.481.266.266 0 0 1 .284.057.26.26 0 0 1 0 .368Z" fill="#371A45"/><path d="M42.396 111.612c-1.09-.09-2.367-.204-3.324-.787a4.544 4.544 0 0 1-1.696-2.047c-.523-1.091-1.026-2.192-1.597-3.262a32.151 32.151 0 0 0-2.313-3.766c-.7-.963-1.606-1.794-2.255-2.778-1.197-1.844-.673-4.167-.422-6.316a39.556 39.556 0 0 0-1.72-1.196l-1.029 7.551c6.39 4.036 9.345 14.05 9.345 14.05h7.23s-.107-.502-.377-1.369c-.613-.015-1.229-.027-1.842-.08Z" fill="#371A45" style="mix-blend-mode:multiply"/><path d="M27.334 107.071c1.592-14.271 3.62-32.534 3.73-33.816a14.18 14.18 0 0 1 .572-3.013l5.31-8.625-1.496-.917-5.402 8.776-.03.081a14.903 14.903 0 0 0-.691 3.546c-.11 1.246-2.133 19.463-3.722 33.711.578.102 1.155.197 1.73.257Z" fill="#F55" stroke="#371A45" stroke-width=".75" stroke-miterlimit="10"/><path d="M36.553 61.378s-5.824 8.116-5.982 8.992c-.117.63-2.615 23.772-3.997 36.596.257.039.512.072.769.105 1.591-14.271 3.62-32.534 3.73-33.816.078-1.022.267-2.032.563-3.013l5.31-8.625-.318-.406-.075.167Z" fill="#C7C3D2" style="mix-blend-mode:multiply" opacity=".5"/><path d="m28.187 99.475 1.092-9.83c-.599 0-1.197.075-1.774.084-.332 2.99-.685 6.182-1.038 9.351.568.159 1.143.281 1.72.395ZM26.273 100.823c-.225 2.036-.45 4.051-.668 5.979.578.102 1.155.185 1.735.257.216-1.934.44-3.946.665-5.979-.575-.072-1.15-.203-1.732-.257Z" fill="#C7C3D2" style="mix-blend-mode:multiply" opacity=".5"/><path d="M32.797 112.876a7.115 7.115 0 0 1-4.397 6.581 7.129 7.129 0 0 1-7.766-1.542 7.116 7.116 0 0 1 1.078-10.956 7.126 7.126 0 0 1 11.085 5.917Z" fill="#414141" stroke="#282828" stroke-width=".75" stroke-miterlimit="10"/><path d="M25.67 106.449a6.432 6.432 0 0 0-6.294 7.695 6.427 6.427 0 0 0 5.061 5.043 6.44 6.44 0 0 0 6.601-2.739 6.43 6.43 0 0 0-.809-8.122 6.432 6.432 0 0 0-4.558-1.877Z" fill="#B5B5B5" style="mix-blend-mode:screen" opacity=".5"/><path style="mix-blend-mode:multiply" d="M25.671 105.759a7.125 7.125 0 0 0-6.988 8.511 7.13 7.13 0 0 0 9.717 5.187 7.118 7.118 0 0 0 2.31-11.615 7.13 7.13 0 0 0-5.039-2.083Zm-.035 13.93a6.861 6.861 0 0 1-6.337-4.228 6.85 6.85 0 0 1 4.997-9.344 6.863 6.863 0 0 1 7.038 2.916 6.846 6.846 0 0 1-.853 8.649 6.86 6.86 0 0 1-4.846 2.007Z" fill="url(#d)"/><path style="mix-blend-mode:multiply" d="M31.047 112.876a5.381 5.381 0 0 1-6.435 5.278 5.385 5.385 0 0 1-4.23-4.228 5.377 5.377 0 0 1 2.29-5.524 5.389 5.389 0 0 1 6.798.669 5.38 5.38 0 0 1 1.577 3.805Z" fill="url(#e)"/><path d="M30.625 112.876a4.962 4.962 0 0 1-5.943 4.86 4.97 4.97 0 0 1-3.895-3.907 4.958 4.958 0 0 1 2.123-5.091 4.968 4.968 0 0 1 7.715 4.138v0Z" fill="#fff" stroke="#fff" stroke-width=".75" stroke-linecap="round" stroke-linejoin="round"/><path d="M25.671 107.908a4.968 4.968 0 0 0-4.596 3.054 4.958 4.958 0 0 0 1.066 5.411 4.97 4.97 0 0 0 7.643-.74 4.962 4.962 0 0 0-4.113-7.725v0Z" fill="#fff" stroke="#fff" stroke-width=".75" stroke-linecap="round" stroke-linejoin="round"/><path d="M29.339 112.876a3.663 3.663 0 0 1-2.262 3.388 3.67 3.67 0 0 1-5.002-2.669 3.663 3.663 0 0 1 3.596-4.381 3.668 3.668 0 0 1 3.668 3.662Z" fill="#fff" stroke="#fff" stroke-width=".75" stroke-linecap="round" stroke-linejoin="round"/><g style="mix-blend-mode:multiply"><path d="M25.671 109.214a3.668 3.668 0 0 0-3.596 4.381 3.668 3.668 0 0 0 7.264-.719 3.668 3.668 0 0 0-3.667-3.662Zm0 7.25a3.594 3.594 0 0 1-3.316-2.215 3.585 3.585 0 0 1 2.616-4.891 3.592 3.592 0 0 1 4.29 3.518 3.586 3.586 0 0 1-3.59 3.588Z" fill="#fff"/><path d="M25.671 109.214a3.668 3.668 0 0 0-3.596 4.381 3.668 3.668 0 0 0 7.264-.719 3.668 3.668 0 0 0-3.667-3.662v0Zm0 7.25a3.594 3.594 0 0 1-3.316-2.215 3.585 3.585 0 0 1 2.616-4.891 3.592 3.592 0 0 1 4.29 3.518 3.586 3.586 0 0 1-3.59 3.588v0Z" stroke="#fff" stroke-width=".75" stroke-linecap="round" stroke-linejoin="round"/></g><path d="M27.144 112.876a1.47 1.47 0 0 1-1.757 1.446 1.467 1.467 0 0 1-1.158-1.155 1.47 1.47 0 0 1 1.443-1.759 1.473 1.473 0 0 1 1.472 1.468Z" fill="#39F" stroke="#3B3943" stroke-miterlimit="10"/><g style="mix-blend-mode:multiply"><path d="M29.028 114.347a1.646 1.646 0 0 1-.91-1.469 1.637 1.637 0 0 1 .91-1.47 3.66 3.66 0 0 0-1.887-1.883 1.632 1.632 0 0 1-1.468.912 1.638 1.638 0 0 1-1.467-.912 3.678 3.678 0 0 0-1.89 1.883 1.64 1.64 0 0 1 0 2.939 3.678 3.678 0 0 0 1.89 1.883 1.639 1.639 0 0 1 2.331-.665c.26.161.468.392.604.665a3.657 3.657 0 0 0 1.887-1.883Z" fill="#fff"/><path d="M29.028 114.347a1.646 1.646 0 0 1-.91-1.469 1.637 1.637 0 0 1 .91-1.47 3.66 3.66 0 0 0-1.887-1.883 1.632 1.632 0 0 1-1.468.912 1.638 1.638 0 0 1-1.467-.912 3.678 3.678 0 0 0-1.89 1.883 1.64 1.64 0 0 1 0 2.939 3.678 3.678 0 0 0 1.89 1.883 1.639 1.639 0 0 1 2.331-.665c.26.161.468.392.604.665a3.657 3.657 0 0 0 1.887-1.883v0Z" stroke="#fff" stroke-width=".75" stroke-linecap="round" stroke-linejoin="round"/></g><path d="M27.867 112.876a1.463 1.463 0 0 1 1.175-1.438 3.677 3.677 0 0 0-1.93-1.928 1.468 1.468 0 0 1-2.88 0 3.689 3.689 0 0 0-1.93 1.928 1.468 1.468 0 0 1 0 2.879 3.682 3.682 0 0 0 1.93 1.928 1.468 1.468 0 0 1 2.88 0 3.67 3.67 0 0 0 1.93-1.928 1.468 1.468 0 0 1-1.175-1.441Z" fill="#414141"/><path d="M24.343 109.83a1.338 1.338 0 0 1-.105-.32 3.689 3.689 0 0 0-1.93 1.928c.11.021.217.056.318.105a3.35 3.35 0 0 1 1.717-1.713ZM25.672 110.897a1.34 1.34 0 0 0 1.28-.944 1.469 1.469 0 0 1-2.558 0 1.336 1.336 0 0 0 1.278.944ZM28.723 111.543c.102-.048.21-.083.32-.105a3.677 3.677 0 0 0-1.93-1.928 1.48 1.48 0 0 1-.104.32 3.33 3.33 0 0 1 1.714 1.713ZM28.61 111.6a1.34 1.34 0 0 0-.945 1.278 1.337 1.337 0 0 0 .946 1.278 1.472 1.472 0 0 1-.746-1.278 1.469 1.469 0 0 1 .746-1.278ZM22.734 114.156a1.34 1.34 0 0 0 .946-1.278 1.337 1.337 0 0 0-.946-1.278 1.465 1.465 0 0 1 .546 2.018c-.13.224-.32.41-.546.538ZM27.009 115.926c.047.102.082.209.104.319a3.67 3.67 0 0 0 1.93-1.928 1.498 1.498 0 0 1-.32-.104 3.33 3.33 0 0 1-1.714 1.713ZM25.672 114.87a1.34 1.34 0 0 0-1.277.942 1.474 1.474 0 0 1 2.557 0 1.345 1.345 0 0 0-1.28-.942ZM22.62 114.213a1.413 1.413 0 0 1-.317.104 3.682 3.682 0 0 0 1.93 1.928c.02-.11.055-.218.104-.319a3.35 3.35 0 0 1-1.717-1.713Z" fill="#414141" style="mix-blend-mode:multiply"/><path d="M23.712 115.151a.266.266 0 1 1-.532.007.266.266 0 0 1 .532-.007Z" fill="#414141"/><path d="M23.661 115.139a.243.243 0 0 1-.148.226.242.242 0 1 1-.091-.465.239.239 0 0 1 .239.239Z" fill="#F55"/><path d="M23.586 115.139a.169.169 0 0 1-.096.175.165.165 0 0 1-.139 0 .168.168 0 0 1-.097-.175.167.167 0 0 1 .04-.132.171.171 0 0 1 .057-.043.182.182 0 0 1 .139 0 .171.171 0 0 1 .09.105.165.165 0 0 1 .006.07Z" fill="#F55"/><path d="M28.147 115.163a.265.265 0 1 1-.263-.263.265.265 0 0 1 .263.263Z" fill="#414141"/><path d="M28.11 115.139a.241.241 0 0 1-.243.242.241.241 0 1 1 0-.484.244.244 0 0 1 .242.242Z" fill="#F55"/><path d="M28.034 115.139a.169.169 0 0 1-.049.119.169.169 0 0 1-.286-.119.167.167 0 0 1 .168-.167.166.166 0 0 1 .167.167Z" fill="#F55"/><path d="M23.681 110.649a.267.267 0 0 1-.163.244.26.26 0 0 1-.358-.194.265.265 0 0 1 .114-.27.272.272 0 0 1 .248-.023.28.28 0 0 1 .084.057.267.267 0 0 1 .075.186Z" fill="#414141"/><path d="M23.661 110.628a.242.242 0 1 1-.147-.223c.03.012.056.03.078.052a.239.239 0 0 1 .069.171Z" fill="#F55"/><path d="M23.587 110.628a.168.168 0 0 1-.104.155.162.162 0 0 1-.097.009.166.166 0 0 1-.058-.304.165.165 0 0 1 .094-.027.17.17 0 0 1 .117.05c.03.031.048.073.048.117Z" fill="#F55"/><path d="M28.14 110.655a.262.262 0 0 1-.161.24.258.258 0 0 1-.284-.056.26.26 0 1 1 .444-.184Z" fill="#414141"/><path d="M27.867 110.867a.242.242 0 1 0 0-.484.242.242 0 0 0 0 .484Z" fill="#F55"/><path d="M28.034 110.628a.169.169 0 0 1-.049.119.169.169 0 0 1-.286-.119.167.167 0 0 1 .168-.167.166.166 0 0 1 .167.167Z" fill="#F55"/><path d="M28.393 103.295c.084-.777-.58-1.495-1.495-1.593-.916-.099-1.715.445-1.795 1.22l-1.06 9.323c-.086.775.578 1.495 1.496 1.591h.186c.828 0 1.534-.508 1.615-1.229l1.053-9.312Z" fill="#fff" stroke="#371A45" stroke-width=".75" stroke-miterlimit="10"/><path d="M26.904 101.702a1.995 1.995 0 0 0-.524 0c.823.164 1.406.837 1.325 1.566l-1.05 9.324a1.46 1.46 0 0 1-1.277 1.196l.162.024h.185c.828 0 1.534-.508 1.615-1.229l1.053-9.324c.084-.732-.58-1.452-1.49-1.557Z" fill="#C7C3D2" style="mix-blend-mode:multiply" opacity=".5"/><path d="M26.093 102.757c.05-.457.299-1.04.766-1.061a1.894 1.894 0 0 0-.65.057 1.364 1.364 0 0 0-.649.995l-1.085 9.644a1.465 1.465 0 0 0 .816 1.42c.195.051.398.067.598.048-.526-.066-.963-.855-.897-1.459l1.1-9.644Z" fill="#fff" style="mix-blend-mode:screen" opacity=".5"/><path d="M24.717 106.312v-.042a.27.27 0 0 1 .05-.111.679.679 0 0 1 .375-.212 3.721 3.721 0 0 1 1.28-.036c.117 0 .227.03.34.051.115.021.225.042.333.069.197.044.387.114.565.209a.727.727 0 0 1 .32.299.252.252 0 0 1 .027.116v.042-.039a.258.258 0 0 0-.05-.101.759.759 0 0 0-.333-.207 3.688 3.688 0 0 0-.556-.149l-.332-.063c-.108-.018-.227-.03-.335-.045a5.64 5.64 0 0 0-1.238-.045.658.658 0 0 0-.371.135.298.298 0 0 0-.075.129ZM24.483 108.344a.23.23 0 0 1 .045-.155c.1-.108.23-.182.374-.212a3.722 3.722 0 0 1 1.28-.036c.12 0 .23.03.345.048.113.018.224.044.332.071.195.045.384.116.562.21a.72.72 0 0 1 .323.299.255.255 0 0 1 .027.119v.039-.039a.323.323 0 0 0-.05-.102.778.778 0 0 0-.336-.206 3.648 3.648 0 0 0-.553-.149l-.323-.051-.335-.048a5.604 5.604 0 0 0-1.242-.042.664.664 0 0 0-.368.135.247.247 0 0 0-.08.119Z" fill="#3B3943" style="mix-blend-mode:multiply" opacity=".4"/><path d="M30.568 91.37c.072-.645-4.218-1.135-4.29-.49l-.765 6.837c-.072.643 4.223 1.088 4.29.487l.765-6.833Z" fill="#414141" stroke="#282828" stroke-width=".75" stroke-miterlimit="10"/><path d="M30.568 91.37c.072-.645-4.218-1.135-4.29-.49l-.765 6.837c-.072.643 4.223 1.088 4.29.487l.765-6.833Z" fill="#fff" stroke="#371A45" stroke-width=".75" stroke-miterlimit="10"/><path d="M27.607 90.57c1.059.122 2.094.403 2.07.72l-.754 6.753c-.04.338-1.427.34-2.603.161 1.23.332 3.434.437 3.482 0l.766-6.833c.057-.413-1.684-.76-2.961-.801Z" fill="#C7C3D2" style="mix-blend-mode:multiply" opacity=".5"/><path d="M26.036 93.05a.11.11 0 0 1 0-.05.263.263 0 0 1 .105-.105c.159-.079.332-.126.508-.137.245-.023.49-.03.736-.021.266 0 .554.03.838.063.284.032.568.071.835.128.24.048.479.112.711.191.168.055.325.138.464.245a.259.259 0 0 1 .08.126.097.097 0 0 1 0 .05.147.147 0 0 0 0-.047.279.279 0 0 0-.092-.102 1.775 1.775 0 0 0-.473-.179 13.42 13.42 0 0 0-1.534-.248c-.281-.033-.566-.06-.829-.08a7.084 7.084 0 0 0-.724-.034 1.496 1.496 0 0 0-.496.072.228.228 0 0 0-.11.084.102.102 0 0 0-.019.045ZM25.839 94.754a.483.483 0 0 1 0-.053.245.245 0 0 1 .104-.105c.158-.079.33-.126.506-.138.244-.022.49-.03.736-.02.269 0 .556.032.84.062.285.03.569.075.832.129.242.044.48.108.712.191.169.053.326.137.464.248.04.031.07.074.083.123a.109.109 0 0 1 0 .05.097.097 0 0 0 0-.047.267.267 0 0 0-.095-.102 1.75 1.75 0 0 0-.47-.18 13.486 13.486 0 0 0-1.535-.244c-.299-.036-.565-.066-.828-.084a5.737 5.737 0 0 0-.724-.03 1.46 1.46 0 0 0-.5.069.236.236 0 0 0-.107.084.255.255 0 0 0-.018.047Z" fill="#3B3943" style="mix-blend-mode:multiply" opacity=".4"/><path d="m26.763 97.89.792-7.093c.01-.074.026-.147.048-.219a6.336 6.336 0 0 0-.702.024.68.68 0 0 0-.039.159l-.792 7.094a.73.73 0 0 0 .027.278c.246.078.498.14.753.185a.81.81 0 0 1-.087-.427ZM27.7 98.043l.795-7.094c.014-.101.037-.201.069-.299a4.745 4.745 0 0 0-.544-.05c-.026.109-.046.22-.06.331l-.793 7.094c-.009.117.001.236.03.35.198.033.398.053.598.06a.7.7 0 0 1-.095-.392Z" fill="#fff" style="mix-blend-mode:screen" opacity=".5"/><path opacity=".35" d="M41.767 67.28h3.563l3.156-4.061h-3.703l-2.17 2.853c-.303.392-.586.794-.846 1.209Z" fill="#371A45"/><path d="M24.913 62.586a2.029 2.029 0 0 0 2.033 2.03h23.84v-4.062h-23.84a2.037 2.037 0 0 0-1.879 1.254c-.102.247-.154.51-.154.778Z" fill="#F55"/><path opacity=".7" d="M24.913 62.586c0 .181.025.362.073.537a2.029 2.029 0 0 1 1.961-1.494h23.84v-1.074h-23.84a2.035 2.035 0 0 0-1.88 1.254c-.102.246-.154.51-.154.777Z" fill="#fff"/><path opacity=".35" d="M24.913 62.586a2.025 2.025 0 0 0 1.256 1.875c.247.102.511.154.778.154h23.84v-1.794h-23.84a2.033 2.033 0 0 1-1.824-1.133c-.138.28-.21.587-.21.898Z" fill="#371A45"/><path d="M26.947 65.291h23.838a.677.677 0 0 0 .677-.675v-4.061a.675.675 0 0 0-.677-.676H26.947a2.712 2.712 0 0 0-2.677 2.706 2.704 2.704 0 0 0 2.677 2.706Zm23.163-1.35H26.947a1.36 1.36 0 0 1-1.359-1.357 1.356 1.356 0 0 1 1.359-1.357H50.11v2.713Z" fill="#371A45"/><path d="M50.786 64.616a2.032 2.032 0 0 1-2.034-2.03c0-1.122.91-2.031 2.034-2.031 1.123 0 2.033.909 2.033 2.03 0 1.122-.91 2.03-2.033 2.03Z" fill="#F55"/><path opacity=".35" d="M48.752 62.586a2.028 2.028 0 0 0 1.535 1.966 2.036 2.036 0 0 0 2.53-1.856 2.028 2.028 0 0 0-.147-.875 2.03 2.03 0 0 1-1.883 1.266 2.036 2.036 0 0 1-1.884-1.266c-.1.242-.151.503-.15.765Z" fill="#371A45"/><path d="M50.786 65.29a2.713 2.713 0 0 0 2.504-1.67 2.702 2.702 0 0 0-.588-2.948 2.711 2.711 0 0 0-4.626 1.913 2.707 2.707 0 0 0 2.71 2.706Zm0-4.06a1.36 1.36 0 0 1 1.333 1.621 1.356 1.356 0 0 1-1.068 1.066 1.36 1.36 0 0 1-1.624-1.33 1.355 1.355 0 0 1 1.36-1.357Z" fill="#371A45"/><path d="M35.687 60.554s-.824.538-1.403 2.953c-.33 1.382-8.246 2.255-9.84-.129-1.457-2.176-.408-6.159 2.694-7.346 2.914-1.116 11.739-1.116 13.635 4.363l-5.086.16Z" fill="#fff"/><path opacity=".35" d="M23.909 62.11c.099.452.28.881.535 1.268 1.594 2.384 9.51 1.51 9.84.13.577-2.416 1.404-2.953 1.404-2.953l2.947-.093c-1.26-.882-2.778-1.727-3.68-1.455-1.154.347-1.057 1.15-1.89 3.313-.548 1.42-6.826 1.508-9.156-.21Z" fill="#371A45"/><path d="M29.192 65.543c.913 0 1.824-.077 2.723-.233 1.825-.33 2.844-.88 3.026-1.645.272-1.136.594-1.797.815-2.152a.636.636 0 0 1 .52-.3l2.305-.073a1.986 1.986 0 0 0 1.771-1.219 1.978 1.978 0 0 0-.381-2.114c-3.324-3.522-10.383-3.436-13.078-2.405-1.647.63-2.913 2.01-3.479 3.789-.523 1.644-.349 3.348.465 4.563.902 1.346 3.168 1.79 5.313 1.79Zm4.444-2.236c-.302.347-2.257.928-4.701.884-1.96-.038-3.465-.494-3.931-1.188-.576-.863-.693-2.167-.3-3.404.441-1.384 1.415-2.454 2.674-2.936 2.122-.812 8.63-1.088 11.61 2.07a.611.611 0 0 1 .12.663.627.627 0 0 1-.566.394l-2.306.072a1.99 1.99 0 0 0-1.624.935c-.398.63-.725 1.475-.976 2.51Z" fill="#371A45"/><path d="M53.972 63.642s-.342-3.823-3.343-3.936c-3-.112-2.884 3.345-3.534 4.216-.65.87-5.866 1.002-7.736.617-2.409-.494-4.51-6.262 3.362-8.329 8.368-2.197 15.14 4.104 19.886 2.777 3.558-.994 4.38-6.213 4.38-6.213l4.609 10.436-17.624.432Z" fill="#fff"/><path opacity=".35" d="M37.17 61.303c0 1.622 1.063 3.007 2.189 3.238 1.87.383 7.087.251 7.736-.62.65-.871.535-4.327 3.534-4.215 2.998.11 3.343 3.937 3.343 3.937.378-.01.33-.327.223-.69-.644-2.216-1.564-4.8-3.84-4.732-3.001.088-3.54 2.628-4.188 3.5-.648.87-5.464 1.29-7.334.907-.634-.13-1.248-.626-1.662-1.325Z" fill="#371A45"/><path d="M66.765 52.74c-.566 1.124-1.049 2.227-1.647 3.216-.612.974-1.366 1.825-2.337 2.236-.477.21-1.027.3-1.587.305-.56.005-1.144-.077-1.726-.2-1.168-.25-2.34-.658-3.52-1.07-1.182-.41-2.38-.84-3.608-1.201-1.23-.356-2.491-.662-3.788-.819-2.584-.344-5.292-.06-7.74.927-.63.246-1.23.56-1.791.935a6.533 6.533 0 0 0-1.54 1.42c-.45.58-.76 1.256-.905 1.975a4.447 4.447 0 0 0 .136 2.193c.227.702.62 1.356 1.204 1.867.304.27.659.476 1.044.605.1.028.216.062.304.08a9.335 9.335 0 0 0 .76.11c1.313.128 2.587.123 3.88.044a16.232 16.232 0 0 0 1.955-.233c.352-.063.698-.159 1.033-.286.188-.084.383-.16.623-.382.102-.103.188-.22.255-.348.05-.093.095-.189.133-.288.14-.356.216-.662.305-.962.088-.3.17-.58.27-.845.196-.531.458-.99.808-1.265.341-.282.797-.392 1.317-.374.485.017.95.2 1.318.515.365.305.679.722.955 1.202.285.477.549 1.012.87 1.563l.01.018a.24.24 0 0 0 .439-.059c.095-.353.106-.69.088-1.036a3.931 3.931 0 0 0-.206-1.02c-.233-.66-.633-1.322-1.259-1.797a3.484 3.484 0 0 0-1.037-.542 4.142 4.142 0 0 0-2.268-.072c-.393.105-.76.292-1.076.547a3.464 3.464 0 0 0-.766.878c-.185.307-.34.631-.464.968-.12.322-.215.64-.303.945-.088.305-.168.605-.26.832-.018.048-.039.095-.064.14-.017.04-.04.06-.017.034a1.02 1.02 0 0 1-.184.094 4.554 4.554 0 0 1-.782.21c-.59.107-1.187.177-1.786.212-1.214.074-2.461.078-3.648-.042a8.073 8.073 0 0 1-.434-.056c-.072-.01-.138-.023-.206-.036-.068-.012-.1-.028-.152-.04a1.66 1.66 0 0 1-.571-.34 2.822 2.822 0 0 1-.805-1.26 3.098 3.098 0 0 1-.094-1.525c.104-.515.328-.999.652-1.413.33-.427.749-.8 1.22-1.118a7.978 7.978 0 0 1 1.544-.804c2.217-.889 4.669-1.156 7.063-.837 1.201.145 2.392.433 3.573.774 1.182.349 2.354.763 3.541 1.181 1.187.418 2.397.837 3.689 1.114a9.52 9.52 0 0 0 2.01.232c.694-.002 1.413-.095 2.1-.361a5.304 5.304 0 0 0 1.812-1.168c.248-.248.477-.514.685-.796.2-.279.38-.57.542-.872.317-.59.557-1.218.712-1.869.143-.647.23-1.296.165-1.973a.233.233 0 0 0-.44-.082l-.004.02Z" fill="#371A45"/></g><defs><radialGradient id="b" cx="0" cy="0" r="1" gradientUnits="userSpaceOnUse" gradientTransform="rotate(44.981 -90.602 166.86) scale(7.12013)"><stop offset=".7" stop-color="#0F0F0F"/><stop offset=".86" stop-color="#4A4A4A"/><stop offset=".9" stop-color="#434343"/><stop offset=".96" stop-color="#2F2F2F"/><stop offset="1" stop-color="#1B1B1B"/></radialGradient><radialGradient id="c" cx="0" cy="0" r="1" gradientUnits="userSpaceOnUse" gradientTransform="matrix(193.519 0 0 193.39 998.823 3406.1)"><stop offset=".7" stop-color="#0F0F0F"/><stop offset=".86" stop-color="#4A4A4A"/><stop offset=".9" stop-color="#434343"/><stop offset=".96" stop-color="#2F2F2F"/><stop offset="1" stop-color="#1B1B1B"/></radialGradient><radialGradient id="d" cx="0" cy="0" r="1" gradientUnits="userSpaceOnUse" gradientTransform="matrix(339.316 0 0 339.09 423.844 2720.78)"><stop offset=".7" stop-color="#0F0F0F"/><stop offset=".86" stop-color="#4A4A4A"/><stop offset=".9" stop-color="#434343"/><stop offset=".96" stop-color="#2F2F2F"/><stop offset="1" stop-color="#1B1B1B"/></radialGradient><radialGradient id="e" cx="0" cy="0" r="1" gradientUnits="userSpaceOnUse" gradientTransform="matrix(193.519 0 0 193.39 326.549 2083.69)"><stop offset=".7" stop-color="#0F0F0F"/><stop offset=".86" stop-color="#4A4A4A"/><stop offset=".9" stop-color="#434343"/><stop offset=".96" stop-color="#2F2F2F"/><stop offset="1" stop-color="#1B1B1B"/></radialGradient><clipPath id="a"><path fill="#fff" d="M0 0h120v120H0z"/></clipPath></defs></svg>