<svg width="88" height="105" viewBox="0 0 88 105" fill="none" xmlns="http://www.w3.org/2000/svg">
<path d="M72.8182 19.6027C76.6376 21.6032 85.3278 33.929 84.4166 43.3259C84.0475 47.1301 76.0063 50.6299 73.8113 50.9082C72.0682 51.1289 47.4704 18.7051 49.3789 18.4594C57.4091 17.4258 68.127 17.146 72.8182 19.6027Z" fill="white"/>
<g opacity="0.35">
<path opacity="0.35" d="M84.415 43.3271C84.047 47.1316 76.0054 50.6314 73.8097 50.9101C72.4735 51.0791 57.7191 32.0786 51.7529 23.0787C64.4743 29.0931 73.1932 37.1398 74.235 38.0497C77.3745 40.7861 81.7227 40.8279 84.1718 38.643C84.4605 40.243 84.5612 41.822 84.415 43.3271Z" fill="#371A45"/>
</g>
<path d="M73.7405 51.5485C73.3029 51.5485 72.5153 51.1315 68.8398 46.7762C66.5606 44.0736 63.6172 40.3671 60.5512 36.3403C58.6128 33.7944 48.9294 20.9819 48.6469 18.7644C48.5768 18.2167 48.9191 17.8829 49.2935 17.8331C57.6373 16.76 68.2747 16.5113 73.1076 19.0422C77.0511 21.1084 85.989 33.6204 85.0418 43.3883C84.6207 47.7244 76.1334 51.2518 73.8863 51.5366C73.838 51.5438 73.7893 51.5478 73.7405 51.5485V51.5485ZM50.0413 19.0147C50.807 20.7278 54.6739 26.5015 61.1443 35.0303C68.1376 44.2491 72.8438 49.6844 73.8469 50.2638C76.0028 49.9005 83.4667 46.5425 83.7845 43.266C84.6681 34.1535 76.1441 22.06 72.5222 20.1633C68.0599 17.825 57.7647 18.0711 50.0413 19.0147V19.0147Z" fill="#371A45"/>
<path d="M65.1537 28.4817C65.0461 28.4817 64.9403 28.4541 64.8463 28.4016C64.7524 28.3491 64.6733 28.2734 64.6168 28.1818C64.5602 28.0902 64.528 27.9856 64.5231 27.878C64.5182 27.7704 64.5409 27.6633 64.589 27.5669C64.7873 27.1695 69.4984 17.858 74.1732 19.78C74.2499 19.8116 74.3197 19.858 74.3786 19.9165C74.4374 19.9751 74.4842 20.0446 74.5161 20.1213C74.5481 20.1979 74.5647 20.2801 74.5649 20.3632C74.5652 20.4462 74.5491 20.5285 74.5176 20.6054C74.486 20.6822 74.4397 20.752 74.3812 20.8109C74.3227 20.8698 74.2532 20.9166 74.1766 20.9486C74.1001 20.9807 74.018 20.9973 73.935 20.9975C73.852 20.9978 73.7698 20.9816 73.6931 20.9501C70.7067 19.7237 66.9252 25.7185 65.7196 28.1322C65.667 28.2374 65.5862 28.3257 65.4863 28.3875C65.3863 28.4492 65.2711 28.4819 65.1537 28.4817Z" fill="#371A45"/>
<path d="M75.588 38.0715C75.495 36.0483 81.233 32.5952 82.6963 33.4671C84.1596 34.339 85.6929 39.3271 85.1006 41.2107C84.5084 43.0944 81.3838 45.5825 80.0132 45.1521C77.7317 44.4362 75.6646 39.744 75.588 38.0715Z" fill="white"/>
<g opacity="0.35">
<path opacity="0.35" d="M85.1003 41.2107C84.5087 43.0944 81.3838 45.5828 80.0128 45.1528C77.8121 44.4603 75.812 40.074 75.6045 38.2623C76.2971 40.7397 77.8504 42.0182 78.6425 41.7035C79.1261 41.5119 79.2107 39.9245 79.2107 39.9245C79.2107 39.9245 82.1844 42.0458 83.8931 40.0556C84.4103 39.4531 84.856 38.5938 83.9084 35.0392C84.8591 36.9194 85.5245 39.8605 85.1003 41.2107Z" fill="#371A45"/>
</g>
<path d="M80.3328 45.7557C80.168 45.7572 80.0039 45.7337 79.8462 45.686C77.2745 44.8788 75.1109 39.8843 75.029 38.0976C74.9647 36.6968 76.7764 35.0971 78.4932 34.0669C79.2302 33.625 81.7318 32.2403 82.983 32.9858C84.6492 33.9788 86.3097 39.2328 85.6351 41.379C85.0409 43.268 82.1556 45.7557 80.3328 45.7557ZM76.1477 38.0447C76.217 39.5524 78.1953 43.9927 80.1812 44.6163C81.1533 44.9206 84.0251 42.764 84.5669 41.0413C85.0845 39.3933 83.6534 34.6886 82.4102 33.9477C82.0986 33.7615 80.8206 33.9761 79.069 35.027C77.1348 36.1874 76.1209 37.4476 76.1477 38.0447V38.0447Z" fill="#371A45"/>
<path d="M81.404 36.3204C81.0113 36.5089 80.6354 36.7306 80.2804 36.9831C79.9296 37.2333 79.5985 37.5196 79.3615 37.8542L79.275 37.9799C79.2497 38.0232 79.2298 38.0684 79.2068 38.1121C79.1543 38.1976 79.1371 38.2919 79.1061 38.3804C79.096 38.4249 79.0899 38.4701 79.0877 38.5157C79.0801 38.5589 79.0776 38.6029 79.0805 38.6468C79.0892 38.7398 79.1066 38.8318 79.1325 38.9216C79.2439 39.3094 79.4254 39.7007 79.6195 40.0786C80.0152 40.8363 80.4703 41.5614 80.9806 42.247C81.2277 42.5835 81.4948 42.9049 81.7804 43.2094C81.9138 43.3521 82.0562 43.486 82.2069 43.6103C82.3455 43.7252 82.5017 43.8184 82.576 43.8348C82.6639 43.8545 82.7467 43.8925 82.819 43.9463C82.8912 44.0002 82.9513 44.0688 82.9952 44.1475C83.0391 44.2263 83.0659 44.3134 83.0738 44.4033C83.0817 44.4931 83.0706 44.5836 83.0412 44.6688C83.0117 44.754 82.9646 44.8321 82.9029 44.8978C82.8412 44.9635 82.7663 45.0155 82.6832 45.0502C82.6 45.0849 82.5105 45.1017 82.4204 45.0994C82.3304 45.097 82.2418 45.0757 82.1606 45.0367L82.0966 45.0053C81.7689 44.8455 81.5817 44.6604 81.3995 44.4779C81.2321 44.3023 81.0762 44.116 80.9328 43.9203C80.6612 43.5509 80.4123 43.1655 80.1873 42.766C79.7412 41.9868 79.3579 41.1732 79.041 40.3331C78.886 39.9115 78.7435 39.4838 78.6681 39.0162C78.6481 38.8922 78.6408 38.7665 78.6463 38.641C78.6501 38.5761 78.661 38.5119 78.6788 38.4494C78.6903 38.3866 78.707 38.325 78.729 38.2651C78.7814 38.1501 78.8247 38.0351 78.8982 37.9378C78.9323 37.8879 78.9641 37.8366 78.9997 37.7894L79.1145 37.6572C79.4292 37.3123 79.8075 37.0643 80.1954 36.8524C80.5823 36.6408 80.9867 36.4629 81.404 36.3204Z" fill="#371A45"/>
<g opacity="0.2">
<path opacity="0.2" d="M25.0788 57.4315C25.357 57.043 25.514 56.5807 25.5298 56.103C25.5456 55.6253 25.4196 55.1536 25.1677 54.7475C24.9158 54.3415 24.5493 54.0193 24.1145 53.8217C23.6797 53.6241 23.1962 53.5599 22.725 53.6373L15.3924 54.8503C14.7946 54.9495 14.2558 55.2701 13.8831 55.7484C13.5103 56.2266 13.3308 56.8277 13.3801 57.4323C13.4294 58.0369 13.7039 58.6009 14.1492 59.0124C14.5945 59.4238 15.1781 59.6527 15.7841 59.6535C15.9162 59.6535 16.0481 59.6426 16.1784 59.621L23.5129 58.4099C23.8256 58.3584 24.1249 58.2454 24.3937 58.0775C24.6624 57.9096 24.8953 57.69 25.0788 57.4315Z" fill="#371A45"/>
<path opacity="0.2" d="M68.0167 65.7798C67.7165 65.6776 67.399 65.6361 67.0826 65.6574C66.7661 65.6788 66.4571 65.7627 66.1733 65.9043L59.5168 69.2164C59.0886 69.4286 58.733 69.7633 58.4951 70.178C58.2572 70.5928 58.1477 71.069 58.1805 71.5461C58.2133 72.0233 58.3869 72.4799 58.6794 72.8581C58.9718 73.2363 59.3699 73.5191 59.8231 73.6706C60.0728 73.755 60.3345 73.7982 60.598 73.7986C60.9689 73.7984 61.3347 73.7119 61.6666 73.546L68.3234 70.2343C68.7517 70.0222 69.1075 69.6875 69.3455 69.2727C69.5835 68.8579 69.693 68.3816 69.6602 67.9044C69.6274 67.4272 69.4537 66.9704 69.1612 66.5922C68.8686 66.2139 68.4704 65.9312 68.0171 65.7798H68.0167Z" fill="#371A45"/>
<path opacity="0.2" d="M39.799 59.6785C40.191 59.9375 40.6502 60.0758 41.1199 60.0763C41.2858 60.0762 41.4513 60.0591 41.6138 60.0253L48.8912 58.5092C49.5137 58.374 50.0577 57.9981 50.4047 57.4634C50.7516 56.9286 50.8735 56.2783 50.7437 55.6541C50.614 55.0298 50.2431 54.4821 49.7118 54.1303C49.1806 53.7785 48.532 53.651 47.9073 53.7756L40.6294 55.2918C40.1615 55.3885 39.7328 55.6221 39.3977 55.9631C39.0626 56.304 38.8362 56.7369 38.7473 57.2069C38.6583 57.6768 38.7108 58.1626 38.898 58.6026C39.0853 59.0426 39.3989 59.4171 39.799 59.6785V59.6785Z" fill="#371A45"/>
<path opacity="0.2" d="M65.8665 59.6508C66.1912 59.6507 66.5126 59.5846 66.811 59.4565L73.6478 56.5354C73.946 56.4153 74.2173 56.2368 74.4458 56.0104C74.6742 55.7841 74.8552 55.5143 74.9781 55.217C75.1011 54.9197 75.1635 54.6008 75.1617 54.279C75.1599 53.9572 75.094 53.639 74.9677 53.3431C74.8415 53.0472 74.6575 52.7794 74.4266 52.5556C74.1957 52.3318 73.9224 52.1563 73.6228 52.0396C73.3233 51.9228 73.0035 51.8671 72.6821 51.8757C72.3608 51.8843 72.0444 51.9571 71.7515 52.0897L64.9147 55.0112C64.4027 55.2301 63.982 55.6193 63.7238 56.1131C63.4655 56.6068 63.3856 57.1747 63.4976 57.7206C63.6096 58.2665 63.9065 58.757 64.3382 59.1089C64.7699 59.4609 65.3098 59.6527 65.8665 59.652V59.6508Z" fill="#371A45"/>
</g>
<g opacity="0.3">
<path opacity="0.3" d="M33.5955 70.5578C21.4384 70.5578 12.2371 65.1283 13.4152 64.4771C16.8115 62.5992 24.5691 61.2881 33.5955 61.2881C43.6671 61.2881 52.159 62.9211 54.7758 65.1509C55.3176 65.6123 45.7533 70.5578 33.5955 70.5578Z" fill="#371A45"/>
</g>
<g opacity="0.4">
<path opacity="0.4" d="M60.2432 59.8088C60.2432 61.4633 59.6019 63.0438 58.433 64.4952C56.4751 66.9266 53.0389 68.9904 48.67 70.4168C44.5734 71.7559 39.6567 72.5366 34.3701 72.5366C34.0301 72.5366 33.6901 72.5328 33.3532 72.5251C29.1314 72.4458 25.1691 71.8701 21.7019 70.9093C13.8192 68.7278 8.49316 64.5745 8.49316 59.8088C8.49316 58.2842 10.3481 62.3019 14.0673 65.0502C16.1435 66.5832 18.7432 67.9506 21.6097 68.9559C25.189 70.2118 29.1521 70.2294 33.0645 69.9937C33.1411 69.9899 33.5358 69.9995 33.6113 69.9937C38.5242 69.6515 42.2498 69.607 45.5325 68.7006C51.1571 67.145 54.632 65.0115 56.779 63.1581C60.1417 60.2534 60.2432 58.0347 60.2432 59.8088Z" fill="white"/>
</g>
<path d="M8.45608 59.0928C8.66052 59.6102 9.01544 60.0728 9.39065 60.5304C9.76585 60.988 10.1717 61.4287 10.5905 61.8607C11.4452 62.7279 12.3531 63.5409 13.3089 64.2951C13.7938 64.6719 14.2932 65.0296 14.807 65.3682L15.1964 65.6169L15.3909 65.7411C15.4506 65.7794 15.5103 65.8124 15.5746 65.8503C15.8331 65.9975 16.1049 66.1381 16.3787 66.2749C17.4838 66.819 18.6218 67.2934 19.7861 67.6953C24.4571 69.3333 29.4488 70.0082 34.4042 69.9155C39.368 69.8089 44.3039 68.9025 49.0426 67.3906L50.811 66.7939C51.3957 66.5812 51.9761 66.3554 52.5588 66.1366L52.9953 65.9714L53.4099 65.7909L53.8234 65.6096C53.9609 65.5487 54.0914 65.4728 54.225 65.4054L54.6251 65.1973C54.7584 65.1279 54.8832 65.044 55.0126 64.9673L55.3981 64.7339C55.5241 64.6523 55.6447 64.563 55.7687 64.4783C56.75 63.7923 57.662 62.9836 58.3596 62.0186C58.4484 61.8998 58.538 61.7817 58.6306 61.6664C58.7133 61.5445 58.7999 61.4253 58.8887 61.3076C59.0583 61.0681 59.2333 60.8289 59.3864 60.5837C59.7111 60.0946 60.035 59.6194 60.3053 59.0936L60.3256 59.0553C60.3453 59.0165 60.3762 58.9846 60.4143 58.9636C60.4524 58.9427 60.4959 58.9337 60.5392 58.9379C60.5825 58.942 60.6235 58.959 60.6569 58.9868C60.6904 59.0146 60.7147 59.0518 60.7268 59.0936C60.7798 59.2708 60.8066 59.4548 60.8064 59.6397C60.8098 59.8181 60.7961 59.9963 60.7655 60.1721C60.7085 60.5121 60.6098 60.8438 60.4718 61.1597C60.2025 61.7753 59.8454 62.3487 59.4117 62.8617C59.3091 62.9923 59.1995 63.1173 59.0836 63.2362L58.744 63.5991L58.3879 63.944C58.2707 64.059 58.1547 64.1774 58.0288 64.2836C57.7822 64.502 57.5425 64.7285 57.2795 64.9267L56.8928 65.2333C56.76 65.3302 56.6248 65.4222 56.4893 65.5169C56.3537 65.6115 56.2213 65.7085 56.0831 65.7963L55.6619 66.0523C55.5206 66.1355 55.3836 66.2267 55.2381 66.3029L54.8016 66.5306C54.655 66.6046 54.5122 66.6866 54.3625 66.7532L53.9122 66.9514L53.462 67.1465L53.0163 67.3155C52.4217 67.5385 51.8295 67.7693 51.233 67.9862L49.4266 68.5952C44.5853 70.1404 39.5277 71.071 34.4287 71.1802C29.3366 71.2748 24.2017 70.5842 19.3673 68.8891C18.1531 68.4699 16.9663 67.9749 15.8139 67.4071C15.5245 67.2614 15.2396 67.1131 14.9498 66.9491C14.8786 66.9073 14.8009 66.864 14.7278 66.8173L14.5248 66.6881L14.1186 66.4298C13.579 66.0815 13.0476 65.7185 12.5244 65.3406C11.4784 64.5875 10.4818 63.7443 9.62457 62.7494C9.1996 62.2512 8.79414 61.7242 8.48441 61.1237C8.40783 60.9704 8.33892 60.8151 8.27039 60.6611C8.2099 60.4978 8.15323 60.3361 8.10538 60.169C8.02038 59.8298 7.95874 59.4661 8.03684 59.094C8.04632 59.0492 8.06992 59.0086 8.10415 58.9782C8.13839 58.9479 8.18146 58.9293 8.22702 58.9253C8.27259 58.9212 8.31824 58.932 8.35727 58.9558C8.3963 58.9797 8.42664 59.0155 8.44383 59.0579L8.45608 59.0928Z" fill="#371A45"/>
<path d="M45.8852 38.8544C46.2964 39.1338 46.5804 39.5648 46.6751 40.0531C46.7698 40.5414 46.6675 41.0475 46.3906 41.4605L42.2315 47.6282C41.9524 48.0397 41.5219 48.3239 41.034 48.4187C40.5462 48.5135 40.0407 48.4112 39.6281 48.1341V48.1341C39.2169 47.8547 38.9329 47.4238 38.8382 46.9354C38.7435 46.4471 38.8458 45.9411 39.1227 45.528L43.2809 39.3599C43.5601 38.9482 43.9908 38.6638 44.4788 38.5691C44.9669 38.4744 45.4725 38.577 45.8852 38.8544Z" fill="white"/>
<path d="M45.8852 38.8544C46.2964 39.1338 46.5804 39.5648 46.6751 40.0531C46.7698 40.5414 46.6675 41.0475 46.3906 41.4605L42.2315 47.6282C41.9524 48.0397 41.5219 48.3239 41.034 48.4187C40.5462 48.5135 40.0407 48.4112 39.6281 48.1341V48.1341C39.2169 47.8547 38.9329 47.4238 38.8382 46.9354C38.7435 46.4471 38.8458 45.9411 39.1227 45.528L43.2809 39.3599C43.5601 38.9482 43.9908 38.6638 44.4788 38.5691C44.9669 38.4744 45.4725 38.577 45.8852 38.8544Z" fill="white"/>
<g opacity="0.6">
<path opacity="0.6" d="M43.2824 39.3604L39.1241 45.5284C38.8652 45.9153 38.7586 46.3844 38.8249 46.8453C38.8912 47.3062 39.1258 47.7262 39.4833 48.0241C39.397 47.7546 39.3729 47.469 39.4127 47.1887C39.4525 46.9085 39.5551 46.6409 39.713 46.4061L43.8705 40.2369C44.1496 39.8252 44.5801 39.541 45.068 39.4462C45.5558 39.3514 46.0613 39.4538 46.474 39.731C46.5246 39.7652 46.5736 39.8019 46.6206 39.841C46.5147 39.5045 46.3162 39.2049 46.0477 38.9765C45.7792 38.748 45.4517 38.6001 45.103 38.5498C44.7542 38.4995 44.3984 38.5487 44.0764 38.6919C43.7544 38.8351 43.4793 39.0664 43.2828 39.3592L43.2824 39.3604Z" fill="white"/>
</g>
<g opacity="0.35">
<path opacity="0.35" d="M46.3907 41.4599L42.2324 47.6302C41.9491 48.0308 41.5204 48.3044 41.0381 48.3925C40.5557 48.4807 40.0581 48.3763 39.6517 48.1017C39.2453 47.8271 38.9625 47.4042 38.8637 46.9235C38.7649 46.4428 38.858 45.9425 39.1232 45.5296L39.3877 45.1391C39.4853 45.2492 39.5966 45.3463 39.7189 45.4281C40.1314 45.7054 40.6368 45.8079 41.1247 45.7134C41.6125 45.6188 42.0431 45.3347 42.3224 44.9233L46.2165 39.1447C46.5003 39.4553 46.6717 39.8523 46.7033 40.2721C46.7349 40.6919 46.6248 41.1102 46.3907 41.4599Z" fill="#371A45"/>
</g>
<path d="M40.6743 48.9953C40.2364 48.9948 39.8068 48.8751 39.4316 48.6489C39.0563 48.4227 38.7497 48.0987 38.5444 47.7114C38.3391 47.3241 38.2429 46.8882 38.2661 46.4504C38.2893 46.0126 38.4311 45.5894 38.6762 45.226L42.8344 39.058C43.1932 38.5271 43.7477 38.1604 44.3762 38.0383C45.0048 37.9161 45.656 38.0485 46.1872 38.4064V38.4064C46.717 38.766 47.0829 39.321 47.2049 39.95C47.3269 40.579 47.195 41.2307 46.838 41.7626L42.6801 47.9306C42.4586 48.259 42.1598 48.5279 41.81 48.7136C41.4602 48.8992 41.0702 48.996 40.6743 48.9953V48.9953ZM44.8383 39.0741C44.6192 39.0733 44.4033 39.1266 44.2096 39.2293C44.0159 39.332 43.8505 39.4809 43.728 39.6627L39.5713 45.8323C39.4733 45.9778 39.4048 46.1412 39.3698 46.3132C39.3349 46.4852 39.3341 46.6624 39.3676 46.8347C39.401 47.007 39.4681 47.171 39.5648 47.3173C39.6616 47.4637 39.7862 47.5895 39.9316 47.6876C40.0769 47.7858 40.2402 47.8543 40.412 47.8893C40.5838 47.9243 40.7608 47.9251 40.9329 47.8916C41.105 47.8581 41.2688 47.791 41.4151 47.6941C41.5613 47.5973 41.687 47.4725 41.785 47.327L45.9429 41.1567C46.1407 40.8628 46.2138 40.5023 46.1464 40.1545C46.0789 39.8066 45.8763 39.4998 45.583 39.3013V39.3013C45.3631 39.1528 45.1037 39.0736 44.8383 39.0741V39.0741Z" fill="#371A45"/>
<path d="M24.5952 54.7847C24.6746 55.2757 24.5566 55.7782 24.2671 56.1825C23.9776 56.5868 23.54 56.86 23.0499 56.9424L15.7158 58.1534C15.2253 58.233 14.7233 58.1151 14.3194 57.8253C13.9155 57.5355 13.6426 57.0976 13.5603 56.607V56.607C13.4809 56.116 13.5988 55.6136 13.8883 55.2093C14.1777 54.805 14.6152 54.5318 15.1052 54.4493L22.4397 53.2382C22.9302 53.1587 23.4322 53.2766 23.8361 53.5664C24.24 53.8562 24.5129 54.2941 24.5952 54.7847V54.7847Z" fill="white"/>
<path d="M24.5952 54.7847C24.6746 55.2757 24.5566 55.7782 24.2671 56.1825C23.9776 56.5868 23.54 56.86 23.0499 56.9424L15.7158 58.1534C15.2253 58.233 14.7233 58.1151 14.3194 57.8253C13.9155 57.5355 13.6426 57.0976 13.5603 56.607V56.607C13.4809 56.116 13.5988 55.6136 13.8883 55.2093C14.1777 54.805 14.6152 54.5318 15.1052 54.4493L22.4397 53.2382C22.9302 53.1587 23.4322 53.2766 23.8361 53.5664C24.24 53.8562 24.5129 54.2941 24.5952 54.7847V54.7847Z" fill="white"/>
<g opacity="0.6">
<path opacity="0.6" d="M22.4399 53.2383L15.1054 54.4493C14.6466 54.5267 14.2327 54.7714 13.9436 55.1363C13.6545 55.5011 13.5107 55.9602 13.5398 56.425C13.6762 56.177 13.867 55.9632 14.0977 55.7996C14.3285 55.636 14.5933 55.5268 14.8722 55.4803L22.2067 54.2692C22.6972 54.1896 23.1992 54.3076 23.6031 54.5974C24.007 54.8871 24.2799 55.3251 24.3622 55.8156C24.3722 55.8766 24.3787 55.9371 24.3825 55.9977C24.5543 55.6896 24.6356 55.3393 24.6171 54.987C24.5987 54.6347 24.4812 54.2948 24.2781 54.0064C24.0751 53.718 23.7949 53.4929 23.4696 53.357C23.1444 53.2211 22.7875 53.18 22.4399 53.2383V53.2383Z" fill="white"/>
</g>
<g opacity="0.35">
<path opacity="0.35" d="M23.0495 56.942L15.7139 58.1542C15.2285 58.2232 14.7354 58.0992 14.3402 57.8088C13.9449 57.5184 13.679 57.0847 13.5992 56.6005C13.5195 56.1162 13.6322 55.62 13.9134 55.2179C14.1946 54.8159 14.6218 54.54 15.1036 54.4493L15.5688 54.3727C15.5562 54.5194 15.5621 54.6671 15.5864 54.8123C15.6686 55.3027 15.9414 55.7407 16.3451 56.0306C16.7488 56.3205 17.2507 56.4387 17.7412 56.3595L24.6112 55.2231C24.5814 55.6435 24.4111 56.0416 24.1278 56.3533C23.8446 56.6651 23.4648 56.8725 23.0495 56.942V56.942Z" fill="#371A45"/>
</g>
<path d="M15.4081 58.7191C14.8018 58.7188 14.2178 58.4903 13.772 58.0788C13.3263 57.6674 13.0515 57.1032 13.0022 56.4983C12.9528 55.8934 13.1326 55.292 13.5058 54.8136C13.8789 54.3353 14.4182 54.0149 15.0164 53.9162L22.3509 52.7051C22.9793 52.6088 23.6204 52.7643 24.1349 53.138C24.6495 53.5117 24.9961 54.0735 25.0996 54.7014C25.203 55.3293 25.055 55.9727 24.6876 56.492C24.3202 57.0114 23.763 57.3647 23.1369 57.4755L15.8024 58.6865C15.6721 58.7083 15.5402 58.7192 15.4081 58.7191V58.7191ZM22.7426 53.7537C22.6699 53.7537 22.5973 53.7596 22.5255 53.7713L15.191 54.9828C14.8416 55.0405 14.5294 55.2348 14.3231 55.5229C14.1168 55.811 14.0332 56.1693 14.0909 56.5191C14.1485 56.8688 14.3425 57.1813 14.6304 57.3879C14.9182 57.5944 15.2762 57.678 15.6256 57.6203L22.9612 56.41C23.3104 56.3521 23.6224 56.1578 23.8286 55.8698C24.0348 55.5818 24.1185 55.2236 24.0612 54.874V54.874C24.0083 54.562 23.8473 54.2787 23.6063 54.074C23.3653 53.8693 23.0598 53.7563 22.7437 53.7549L22.7426 53.7537Z" fill="#371A45"/>
<path d="M33.3643 48.2786C33.1387 48.7217 32.7471 49.0575 32.275 49.2126C31.803 49.3677 31.2888 49.3295 30.8447 49.1064L24.2112 45.7476C23.7686 45.5218 23.4332 45.1297 23.2783 44.6572C23.1234 44.1846 23.1616 43.6699 23.3846 43.2254V43.2254C23.6102 42.7823 24.0017 42.4466 24.4738 42.2916C24.9458 42.1365 25.4599 42.1748 25.9039 42.398L32.5373 45.7557C32.9803 45.9814 33.3159 46.3736 33.4709 46.8463C33.6259 47.3191 33.5875 47.834 33.3643 48.2786V48.2786Z" fill="#FF5555"/>
<g opacity="0.35">
<path opacity="0.35" d="M30.8454 49.1065L24.2119 45.748C23.769 45.5222 23.4334 45.1301 23.2784 44.6574C23.1234 44.1846 23.1615 43.6697 23.3845 43.2251C23.6107 42.7823 24.0024 42.4468 24.4744 42.2917C24.9465 42.1366 25.4606 42.1744 25.9049 42.3969L26.7361 42.8185C26.5899 42.9625 26.468 43.1294 26.3751 43.3125C26.1517 43.757 26.1133 44.272 26.2684 44.7448C26.4235 45.2175 26.7593 45.6095 27.2024 45.835L33.0043 48.7707C32.7241 49.0446 32.3655 49.2241 31.9785 49.2843C31.5915 49.3445 31.1954 49.2823 30.8454 49.1065V49.1065Z" fill="#371A45"/>
</g>
<path d="M31.6845 49.8484C31.3081 49.8483 30.937 49.7593 30.6014 49.5886L23.9686 46.2302C23.3971 45.9408 22.9637 45.436 22.764 44.8268C22.5642 44.2176 22.6144 43.5539 22.9035 42.9817C23.1926 42.4096 23.6969 41.9758 24.3055 41.7758C24.9141 41.5759 25.5771 41.6261 26.1487 41.9155L32.7821 45.2739C33.3531 45.5639 33.7859 46.0688 33.9855 46.6778C34.1851 47.2868 34.1353 47.9501 33.8469 48.5224V48.5224C33.7042 48.8059 33.5068 49.0582 33.2661 49.2649C33.0254 49.4715 32.7461 49.6283 32.4445 49.7262C32.1992 49.8069 31.9427 49.8482 31.6845 49.8484V49.8484ZM25.0633 42.7372C24.9202 42.7373 24.778 42.7602 24.6421 42.805C24.391 42.887 24.1699 43.0417 24.0068 43.2495C23.8437 43.4574 23.746 43.7091 23.726 43.9727C23.7059 44.2362 23.7646 44.4998 23.8944 44.73C24.0243 44.9602 24.2195 45.1465 24.4553 45.2655L31.0899 48.6239C31.4061 48.7826 31.7722 48.8097 32.1083 48.6993C32.4444 48.5889 32.7232 48.3499 32.884 48.0345V48.0345C33.0434 47.7181 33.071 47.3513 32.9606 47.0146C32.8502 46.678 32.6109 46.3988 32.2951 46.2386L25.6605 42.8813C25.4755 42.7869 25.2709 42.7375 25.0633 42.7372V42.7372Z" fill="#371A45"/>
<path d="M68.5535 66.298C68.7734 66.744 68.8079 67.2591 68.6497 67.7306C68.4914 68.2021 68.1532 68.5917 67.7089 68.8144L61.052 72.1265C60.6064 72.3465 60.0919 72.381 59.6209 72.2226C59.1499 72.0642 58.7607 71.7257 58.5382 71.281C58.3188 70.8351 58.2846 70.3205 58.4428 69.8493C58.601 69.3782 58.9389 68.9888 59.3827 68.7661L66.0396 65.4548C66.4849 65.2347 66.9992 65.1999 67.4701 65.3578C67.941 65.5158 68.3305 65.8537 68.5535 66.298V66.298Z" fill="#FFD2D2"/>
<g opacity="0.35">
<path opacity="0.35" d="M68.7249 66.8452C68.7857 67.2393 68.7199 67.6425 68.5371 67.9967C68.3543 68.3509 68.0638 68.6379 67.7076 68.8163L61.0511 72.1272C60.6058 72.3476 60.0914 72.3826 59.6203 72.2246C59.1492 72.0667 58.7597 71.7285 58.5369 71.284C58.4987 71.2089 58.4661 71.131 58.4393 71.051C58.2952 70.6204 58.3113 70.1523 58.4845 69.7326C58.6578 69.313 58.9766 68.97 59.3822 68.7668L59.5607 68.6787C59.5766 68.7851 59.6022 68.8897 59.6372 68.9914C59.6643 69.0713 59.697 69.1491 59.7349 69.2244C59.9574 69.6693 60.3467 70.008 60.8179 70.1666C61.289 70.3251 61.8037 70.2906 62.2495 70.0707L68.7249 66.8452Z" fill="#371A45"/>
</g>
<path d="M60.2257 72.8642C59.9622 72.8639 59.7005 72.8208 59.4508 72.7365C58.9987 72.5838 58.6019 72.3005 58.3105 71.9223C58.0191 71.5442 57.8461 71.088 57.8133 70.6115C57.7806 70.135 57.8895 69.6595 58.1264 69.2449C58.3633 68.8303 58.7176 68.4953 59.1445 68.282L65.801 64.9703C66.3747 64.6849 67.0382 64.6393 67.6455 64.8436C68.2528 65.0479 68.7541 65.4852 69.0392 66.0595C69.3244 66.6338 69.3699 67.298 69.1659 67.9059C68.9618 68.5138 68.5249 69.0157 67.9512 69.3011L61.2943 72.6127C60.9624 72.7783 60.5966 72.8643 60.2257 72.8642V72.8642ZM66.8696 65.7997C66.6652 65.7996 66.4636 65.8471 66.2807 65.9384L59.6239 69.249C59.313 69.4101 59.0777 69.6871 58.9689 70.0202C58.86 70.3533 58.8862 70.7159 59.0419 71.0298C59.1975 71.3438 59.4702 71.5839 59.801 71.6986C60.1319 71.8132 60.4945 71.7932 60.8108 71.6427L67.4676 68.3307C67.7844 68.1727 68.0257 67.8952 68.1385 67.5593C68.2513 67.2234 68.2263 66.8565 68.0691 66.539V66.539C67.9911 66.3819 67.8829 66.2417 67.7505 66.1268C67.6182 66.0118 67.4644 65.9242 67.298 65.8691C67.1599 65.8229 67.0152 65.7995 66.8696 65.7997V65.7997Z" fill="#371A45"/>
<path d="M61.3449 53.4751C61.0916 53.903 60.6793 54.2131 60.1982 54.3377C59.7171 54.4623 59.2064 54.3912 58.7775 54.1401L52.3722 50.3646C51.9446 50.1111 51.6348 49.6984 51.5102 49.2168C51.3857 48.7353 51.4566 48.2239 51.7075 47.7946V47.7946C51.961 47.3667 52.3732 47.0567 52.8543 46.9321C53.3353 46.8075 53.8461 46.8785 54.275 47.1296L60.6807 50.905C61.1081 51.1587 61.4178 51.5714 61.5423 52.0529C61.6667 52.5345 61.5958 53.0458 61.3449 53.4751V53.4751Z" fill="#FFD2D2"/>
<g opacity="0.35">
<path opacity="0.35" d="M60.9824 53.919C60.6858 54.1851 60.3124 54.35 59.9162 54.39C59.5199 54.43 59.1212 54.3431 58.7775 54.1417L52.3726 50.3655C51.9456 50.112 51.6361 49.6998 51.5114 49.2188C51.3868 48.7378 51.4571 48.227 51.7072 47.7977C51.7495 47.7248 51.797 47.655 51.8492 47.5889C52.1309 47.2329 52.5315 46.9908 52.9774 46.907C53.4232 46.8232 53.8843 46.9034 54.2758 47.1328L54.4473 47.234C54.3669 47.3053 54.2931 47.3838 54.2268 47.4685C54.1746 47.5348 54.1273 47.6047 54.0851 47.6778C53.8341 48.1072 53.763 48.6186 53.8874 49.1002C54.0118 49.5819 54.3216 49.9948 54.749 50.2486L60.9824 53.919Z" fill="#371A45"/>
</g>
<path d="M59.7248 54.9396C59.2951 54.9399 58.8733 54.8246 58.5034 54.6058L52.0978 50.8304C51.8203 50.6715 51.577 50.459 51.3822 50.2053C51.1874 49.9516 51.0448 49.6616 50.9627 49.3523C50.8807 49.0431 50.8608 48.7205 50.9042 48.4035C50.9477 48.0864 51.0535 47.7812 51.2157 47.5054C51.3779 47.2296 51.5932 46.9888 51.8491 46.797C52.1049 46.6051 52.3963 46.466 52.7063 46.3877C53.0163 46.3095 53.3387 46.2936 53.6549 46.341C53.971 46.3885 54.2746 46.4982 54.5481 46.664L60.9534 50.4394C61.5047 50.7653 61.9045 51.2967 62.0649 51.9172C62.2253 52.5377 62.1333 53.1965 61.8091 53.7492V53.7492C61.5953 54.1121 61.2905 54.4128 60.9249 54.6216C60.5594 54.8304 60.1457 54.94 59.7248 54.9396ZM53.3252 47.4106C53.0321 47.4103 52.7471 47.5064 52.514 47.6843C52.2809 47.8622 52.1128 48.1119 52.0355 48.3949C51.9582 48.6779 51.9761 48.9785 52.0863 49.2503C52.1966 49.5221 52.3931 49.7501 52.6456 49.8991L59.0513 53.6745C59.3565 53.8543 59.7205 53.9055 60.0633 53.8167C60.4061 53.7279 60.6996 53.5064 60.8793 53.201C61.059 52.8955 61.1101 52.5311 61.0214 52.188C60.9327 51.8448 60.7114 51.551 60.4063 51.3711L54.0006 47.5953C53.796 47.4744 53.5628 47.4106 53.3252 47.4106V47.4106Z" fill="#371A45"/>
<path d="M49.8616 54.8258C49.9614 55.3132 49.8644 55.8203 49.5918 56.2363C49.3192 56.6524 48.8931 56.9434 48.4067 57.0459L41.1289 58.5621C40.642 58.662 40.1355 58.5649 39.7199 58.292C39.3044 58.0191 39.0137 57.5926 38.9114 57.1057C38.8116 56.6183 38.9086 56.1112 39.1812 55.6951C39.4538 55.2791 39.8799 54.9881 40.3662 54.8855L47.6437 53.3694C48.1306 53.2695 48.6372 53.3666 49.0528 53.6395C49.4684 53.9124 49.7592 54.3389 49.8616 54.8258V54.8258Z" fill="#FFD2D2"/>
<g opacity="0.35">
<path opacity="0.35" d="M49.8912 55.3975C49.85 55.7939 49.6843 56.1671 49.4179 56.4632C49.1514 56.7594 48.7979 56.9632 48.4083 57.0455L41.1309 58.5605C40.6439 58.6605 40.1372 58.5634 39.7215 58.2905C39.3058 58.0176 39.015 57.5911 38.9126 57.1041C38.8947 57.0217 38.8829 56.938 38.8773 56.8538C38.8467 56.4008 38.9807 55.9518 39.2545 55.5898C39.5283 55.2277 39.9235 54.9767 40.3674 54.8832L40.5623 54.8448C40.5504 54.9517 40.5485 55.0595 40.5566 55.1668C40.5623 55.2509 40.5741 55.3346 40.5918 55.417C40.6945 55.9043 40.9858 56.331 41.4019 56.6039C41.818 56.8768 42.3251 56.9737 42.8124 56.8734L49.8912 55.3975Z" fill="#371A45"/>
</g>
<path d="M40.7466 59.1422C40.1497 59.1407 39.5744 58.918 39.1318 58.5171C38.6892 58.1161 38.4105 57.5654 38.3496 56.9709C38.2886 56.3765 38.4496 55.7806 38.8016 55.298C39.1536 54.8153 39.6716 54.4803 40.2558 54.3573L47.5336 52.8412C47.8452 52.7735 48.1672 52.7683 48.4808 52.8258C48.7945 52.8834 49.0936 53.0025 49.361 53.1764C49.6285 53.3502 49.8588 53.5754 50.0389 53.8388C50.2189 54.1023 50.3451 54.3988 50.41 54.7113C50.475 55.0238 50.4775 55.3461 50.4174 55.6596C50.3572 55.973 50.2357 56.2715 50.0598 56.5377C49.8838 56.8039 49.657 57.0326 49.3923 57.2106C49.1276 57.3886 48.8303 57.5124 48.5176 57.5747L41.2401 59.0928C41.0778 59.1263 40.9124 59.1428 40.7466 59.1422V59.1422ZM48.026 53.8714C47.9345 53.8714 47.8433 53.8808 47.7538 53.8994L40.4759 55.4159C40.3043 55.4516 40.1413 55.5209 39.9964 55.6197C39.8515 55.7185 39.7274 55.8449 39.6313 55.9917C39.5352 56.1384 39.4689 56.3027 39.4362 56.4752C39.4036 56.6476 39.4051 56.8248 39.4408 56.9966C39.4766 57.1684 39.5457 57.3315 39.6444 57.4766C39.7431 57.6216 39.8694 57.7458 40.016 57.842C40.1627 57.9382 40.3268 58.0046 40.4991 58.0373C40.6713 58.07 40.8483 58.0685 41.02 58.0327L48.2978 56.5166C48.6202 56.4481 48.9059 56.2627 49.1 55.996C49.2941 55.7294 49.3827 55.4003 49.349 55.0721C49.3153 54.7439 49.1615 54.4398 48.9173 54.2183C48.673 53.9967 48.3556 53.8735 48.026 53.8721V53.8714Z" fill="#371A45"/>
<path fill-rule="evenodd" clip-rule="evenodd" d="M72.6428 64.5818V49.3351L62.4619 54.7345V69.9813L72.6428 64.5818Z" fill="#371A45"/>
<path fill-rule="evenodd" clip-rule="evenodd" d="M21.2343 91.5101V76.2633L11.042 81.6628V96.9095L21.2343 91.5101Z" fill="#1A2830"/>
<path fill-rule="evenodd" clip-rule="evenodd" d="M87.9777 66.5765V81.8462C87.9777 87.7729 83.6832 93.6997 75.0941 98.2164C57.916 107.261 30.0645 107.261 12.8864 98.2164L12.726 98.1361C12.4626 98.0024 12.2423 97.797 12.0904 97.5435C11.9384 97.29 11.8611 96.9987 11.8671 96.7032V82.4309C12.1763 82.6143 12.497 82.7862 12.8177 82.9467C29.9958 91.9916 57.8473 91.9916 75.0254 82.9467C83.6145 78.43 87.909 72.5033 87.909 66.588L87.9777 66.5765ZM10.596 96.898C3.55293 92.5762 0.0256851 87.2112 0.0371372 81.8462V67.6656C0.506673 72.8472 4.27443 77.9829 11.3289 82.0525V96.451C11.3303 96.5381 11.3075 96.6239 11.263 96.6988C11.2185 96.7737 11.1541 96.8347 11.077 96.8751C11.0047 96.9198 10.9214 96.9434 10.8364 96.9434C10.7515 96.9434 10.6683 96.9198 10.596 96.8751V96.898Z" fill="#371A45"/>
<path fill-rule="evenodd" clip-rule="evenodd" d="M12.8858 50.2063C29.1935 41.62 55.1325 41.1844 72.4366 48.8994C72.5187 48.9403 72.5877 49.0032 72.6359 49.0812C72.6842 49.1592 72.7097 49.2491 72.7097 49.3408C72.7097 49.4325 72.6842 49.5224 72.6359 49.6004C72.5877 49.6784 72.5187 49.7413 72.4366 49.7822L70.6959 50.6993C54.8806 43.3052 30.6136 43.6032 15.4968 51.582C0.380098 59.5607 -0.215407 72.3771 13.9623 80.7113L11.3512 82.0869C-4.2809 73.0076 -3.76556 58.9646 12.8858 50.2063V50.2063ZM74.727 50L75.1164 50.2063C92.2945 59.2397 92.2945 73.9018 75.1164 82.9352C57.9383 91.9686 30.0868 91.9801 12.9087 82.9352C12.588 82.7747 12.2674 82.5913 11.9582 82.4193L14.5692 81.0437L15.5197 81.571C31.2549 89.8478 56.7473 89.8478 72.5053 81.571C88.2634 73.2942 88.2405 59.8588 72.5053 51.582C72.1274 51.3756 71.7495 51.1922 71.3601 50.9973L73.2383 50.0114C73.4676 49.89 73.7232 49.8265 73.9827 49.8265C74.2421 49.8265 74.4977 49.89 74.727 50.0114V50Z" fill="#371A45"/>
<path fill-rule="evenodd" clip-rule="evenodd" d="M15.4398 51.6163C31.175 43.328 56.6673 43.328 72.4254 51.6163C88.1835 59.9045 88.1606 73.3171 72.4254 81.6053C56.6902 89.8936 31.1979 89.8821 15.4398 81.6053C-0.318222 73.3285 -0.295317 59.8931 15.4398 51.6163Z" fill="#D8D2DA"/>
<path style="mix-blend-mode:screen" opacity="0.5" fill-rule="evenodd" clip-rule="evenodd" d="M14.9708 81.4221C30.706 89.6989 56.1983 89.6989 71.9564 81.4221C75.4843 79.698 78.5801 77.2024 81.015 74.1197C56.6119 63.6335 29.2271 62.4108 3.98828 70.6806C5.51141 74.6126 9.16462 78.3727 14.9708 81.4221Z" fill="white"/>
<path opacity="0.2" fill-rule="evenodd" clip-rule="evenodd" d="M32.0458 46.7328L56.5189 59.641C60.3897 61.67 60.3897 64.9945 56.5189 67.035L43.9216 73.6496C41.7149 74.6526 39.3193 75.1714 36.8958 75.1714C34.4722 75.1714 32.0767 74.6526 29.8699 73.6496L5.20215 60.6727L5.39681 60.3402C5.39681 60.3402 10.8366 54.4364 15.406 52.0291C20.6251 49.3969 26.231 47.6167 32.0115 46.7558L32.0458 46.7328Z" fill="white"/>
<path fill-rule="evenodd" clip-rule="evenodd" d="M32.0445 46.3087L56.5176 59.1825C60.3884 61.223 60.3884 64.5475 56.5176 66.588L43.9203 73.1912C41.7152 74.1999 39.319 74.722 36.8945 74.722C34.4699 74.722 32.0738 74.1999 29.8686 73.1912L5.39551 60.3174C7.2622 57.119 10.5948 54.1041 15.4047 51.5821C20.6238 48.9499 26.2297 47.1697 32.0102 46.3087H32.0445Z" fill="#371A45"/>
<path fill-rule="evenodd" clip-rule="evenodd" d="M15.4398 51.6163C11.5209 53.4904 8.15782 56.3551 5.68262 59.9275L30.4306 72.9503C32.4694 73.8798 34.6836 74.3608 36.9239 74.3608C39.1642 74.3608 41.3784 73.8798 43.4172 72.9503L56.0145 66.3357C59.5876 64.4557 59.5876 61.3834 56.0145 59.4575L31.2093 46.4462C25.7174 47.3432 20.3977 49.0873 15.4398 51.6163Z" fill="#FF5555"/>
<path fill-rule="evenodd" clip-rule="evenodd" d="M72.4368 81.5711C56.7016 89.8479 31.2093 89.8479 15.4512 81.5711L14.4893 81.0438L11.8896 82.4194C12.1989 82.6028 12.5195 82.7748 12.8402 82.9353C30.0183 91.9802 57.8698 91.9802 75.0479 82.9353C83.6369 78.4186 87.9315 72.4919 87.9315 66.5766C87.9315 60.6613 83.6369 54.7231 75.0479 50.2064L74.6585 50.0001C74.4292 49.8786 74.1736 49.8151 73.9141 49.8151C73.6547 49.8151 72.7298 49.3786 72.5005 49.5L71.3031 50.9859C71.681 51.1808 72.0589 51.3643 72.4483 51.5706C80.3159 55.709 84.2439 61.1313 84.2439 66.5651C84.2439 71.9989 80.3159 77.4098 72.4483 81.5597L72.4368 81.5711Z" fill="#371A45"/>
<path fill-rule="evenodd" clip-rule="evenodd" d="M12.7265 98.1362L12.8868 98.2164C30.0649 107.261 57.9164 107.261 75.0945 98.2164C83.6836 93.6997 87.9781 87.773 87.9781 81.8462V66.5766H87.9208C87.9208 72.4918 83.6263 78.4186 75.0373 82.9353C57.8591 91.9802 30.0077 91.9802 12.8296 82.9353C12.5089 82.7748 12.1882 82.6028 11.879 82.4194V96.6917C11.8756 96.9868 11.9541 97.277 12.1058 97.53C12.2574 97.783 12.4763 97.9889 12.7379 98.1247L12.7265 98.1362Z" fill="#371A45"/>
<path style="mix-blend-mode:screen" opacity="0.8" fill-rule="evenodd" clip-rule="evenodd" d="M21.2341 83.4396C19.3389 82.7522 17.4911 81.9404 15.7027 81.0093C15.1301 80.6998 14.5575 80.3903 14.0422 80.0693C5.70508 75.1399 2.48704 68.6056 4.37664 62.5183C2.08622 68.7202 5.10958 75.3577 13.4009 80.4132L13.9048 80.7113L14.4888 81.0437L15.4394 81.571C17.3106 82.5442 19.2468 83.3869 21.2341 84.0931C36.9235 89.7332 58.4992 88.8964 72.4249 81.571C75.4376 80.0453 78.1527 77.9914 80.4414 75.5067C78.2337 77.7357 75.6816 79.5937 72.883 81.0093C58.8084 88.4034 36.9578 89.2173 21.1883 83.4396H21.2341Z" fill="white"/>
<path style="mix-blend-mode:multiply" opacity="0.4" fill-rule="evenodd" clip-rule="evenodd" d="M71.7496 51.6163C87.4848 59.8931 87.4848 73.3171 71.7496 81.6053C65.7121 84.6097 59.1905 86.5193 52.4872 87.2455C59.4261 86.5639 66.1826 84.6215 72.4253 81.5136C88.1605 73.2254 88.1605 59.8014 72.4253 51.5246C62.1872 46.1366 47.8262 44.2566 34.7021 45.8729C47.6316 44.3941 61.6833 46.3086 71.7496 51.6048V51.6163Z" fill="#371A45"/>
<path fill-rule="evenodd" clip-rule="evenodd" d="M11.2937 93.734V82.0869L11.0418 81.9493C6.23193 79.0949 3.02534 75.7704 1.29607 72.2854C1.11284 79.6222 2.21225 87.6812 11.0418 93.5735C11.1299 93.6203 11.2141 93.6739 11.2937 93.734V93.734Z" fill="#FF5555" style="mix-blend-mode:screen"/>
<path fill-rule="evenodd" clip-rule="evenodd" d="M75.0371 82.9353C57.859 91.9802 30.0076 91.9802 12.8294 82.9353C12.5088 82.7748 12.1881 82.6029 11.8789 82.4194V94.0895C12.4744 94.4564 13.1157 94.8232 13.78 95.1671C29.9274 103.673 56.1527 103.673 72.2658 95.1671C83.0536 89.4926 84.5309 83.7034 84.5538 75.4724C81.9355 78.5887 78.6986 81.1262 75.0486 82.9239L75.0371 82.9353Z" fill="#FF5555" style="mix-blend-mode:screen"/>
<path style="mix-blend-mode:screen" opacity="0.75" fill-rule="evenodd" clip-rule="evenodd" d="M11.2943 82.6717V82.087C6.12945 79.0835 2.71675 75.5412 1.0791 71.7697C2.52206 75.6903 5.93477 79.4504 11.2943 82.6143V82.6717Z" fill="#FF5555"/>
<path style="mix-blend-mode:screen" opacity="0.75" fill-rule="evenodd" clip-rule="evenodd" d="M12.3711 84.7234L11.8672 92.2436V82.4307C11.8672 82.4307 12.7261 82.9007 12.8177 82.9466C29.9959 91.9914 57.8473 91.9914 75.0255 82.9466C79.0918 80.9937 82.6275 78.0876 85.3323 74.4749C73.1015 93.1837 33.0192 94.3873 13.6766 84.0127C13.4132 83.8751 12.8864 83.7261 12.7147 83.8293C12.5429 83.9324 12.4398 84.4139 12.4169 84.7234H12.3711Z" fill="white"/>
<path style="mix-blend-mode:screen" fill-rule="evenodd" clip-rule="evenodd" d="M43.4173 72.916L55.2587 66.6912C43.3504 64.8571 31.2223 64.9888 19.3564 67.081L30.4421 72.916C32.4809 73.8455 34.6951 74.3265 36.9354 74.3265C39.1757 74.3265 41.3899 73.8455 43.4287 72.916H43.4173Z" fill="#FF5555"/>
<path fill-rule="evenodd" clip-rule="evenodd" d="M27.7731 64.536L40.1185 58.0476C40.2571 57.9852 40.4074 57.953 40.5594 57.953C40.7114 57.953 40.8616 57.9852 41.0003 58.0476L49.7497 62.633C49.9902 62.7591 49.9902 62.9655 49.7497 63.0916L37.4158 69.5801C37.2787 69.6478 37.1278 69.683 36.9749 69.683C36.822 69.683 36.6711 69.6478 36.534 69.5801L27.7731 64.9946C27.5326 64.8685 27.5326 64.6507 27.7731 64.5246V64.536Z" fill="#FF5555"/>
<path fill-rule="evenodd" clip-rule="evenodd" d="M28.0263 64.8685C30.8018 66.5318 33.6694 68.0359 36.6153 69.3737C36.8177 69.4536 37.0428 69.4536 37.2452 69.3737C41.5054 67.379 45.5709 65.2468 49.4073 62.977C49.4242 62.9683 49.4383 62.9551 49.4481 62.939C49.458 62.9228 49.4632 62.9042 49.4632 62.8853C49.4632 62.8663 49.458 62.8477 49.4481 62.8316C49.4383 62.8154 49.4242 62.8022 49.4073 62.7935C46.6444 61.1148 43.7796 59.6102 40.8297 58.2883C40.7289 58.2427 40.6196 58.2191 40.509 58.2191C40.3985 58.2191 40.2892 58.2427 40.1884 58.2883C35.9168 60.2715 31.9314 62.4496 28.0377 64.6736C28.0205 64.6848 28.0063 64.7001 27.9963 64.7181C27.9863 64.736 27.9809 64.7562 27.9805 64.7768C27.9734 64.791 27.9697 64.8067 27.9697 64.8226C27.9697 64.8385 27.9734 64.8542 27.9805 64.8685H28.0263Z" fill="#4A8FFF"/>
<path fill-rule="evenodd" clip-rule="evenodd" d="M19.5507 53.7371C20.9888 53.0806 22.551 52.7409 24.1316 52.7409C25.7121 52.7409 27.2743 53.0806 28.7124 53.7371C31.2319 55.0669 31.2319 57.1762 28.7124 58.5404C27.2759 59.2028 25.7131 59.5458 24.1316 59.5458C22.55 59.5458 20.9872 59.2028 19.5507 58.5404C17.0313 57.2221 17.0313 55.1013 19.5507 53.7371Z" fill="#4A8FFF"/>
<path fill-rule="evenodd" clip-rule="evenodd" d="M20.1579 54.0582C21.3987 53.4863 22.7485 53.1901 24.1146 53.1901C25.4806 53.1901 26.8305 53.4863 28.0713 54.0582C30.2586 55.2046 30.2586 57.0732 28.0713 58.231C26.8291 58.7978 25.4798 59.0911 24.1146 59.0911C22.7494 59.0911 21.4001 58.7978 20.1579 58.231C17.9591 57.0847 17.9591 55.2046 20.1579 54.0582Z" fill="white"/>
<path style="mix-blend-mode:screen" fill-rule="evenodd" clip-rule="evenodd" d="M24.1089 56.2018L18.7035 56.9584C18.1882 55.9496 18.7035 54.8605 20.1579 54.1154L24.1089 56.2018Z" fill="white"/>
<path style="mix-blend-mode:screen" fill-rule="evenodd" clip-rule="evenodd" d="M24.1084 56.2019L29.5252 55.4339C30.0406 56.4541 29.5253 57.5432 28.0708 58.2883L24.1084 56.2019Z" fill="white"/>
<g style="mix-blend-mode:screen" opacity="0.5">
<path fill-rule="evenodd" clip-rule="evenodd" d="M37.2442 69.3736C39.5346 68.3036 41.7563 67.1954 43.9093 66.0491C42.0083 65.9574 40.0843 65.9001 38.1833 65.9001C35.5378 65.9001 32.9268 65.9918 30.3271 66.1866C32.2855 67.2757 34.3697 68.3533 36.6372 69.3736C36.8396 69.4534 37.0647 69.4534 37.2671 69.3736H37.2442Z" fill="#FF5555"/>
</g>
<path style="mix-blend-mode:screen" fill-rule="evenodd" clip-rule="evenodd" d="M58.2122 84.1504C48.1916 78.8771 33.9681 77.169 21.2334 79.0261C19.424 79.2898 17.6375 79.6222 15.9082 80.0349L17.0534 80.6883C18.398 81.3897 19.7779 82.021 21.1876 82.5798C32.3305 86.959 47.012 87.7041 59.3574 84.8726C58.968 84.6433 58.5672 84.4255 58.2122 84.2077V84.1504Z" fill="white"/>
<g opacity="0.3">
<path opacity="0.3" d="M52.1377 37.776C51.9846 37.9063 51.8364 38.042 51.6852 38.1865C51.4937 38.1424 51.2996 38.1018 51.1059 38.0616C46.0307 36.9919 40.4462 36.4174 34.3798 36.4174C32.0349 36.4174 29.7632 36.5025 27.5648 36.6727L25.1405 35.063C24.616 35.5723 24.0915 36.2545 23.5915 37.0701C23.3644 37.0969 23.137 37.1268 22.91 37.1582C23.0034 37.3522 23.1014 37.5461 23.2006 37.7366C23.6553 38.6134 24.1669 39.4595 24.732 40.2695C21.7074 46.3563 20.05 57.0471 25.1068 61.8914C29.2264 65.8389 35.7504 62.6686 36.1291 58.0711C36.3511 55.3784 36.5043 52.5906 36.8688 50.1075C36.9211 49.7498 36.9783 49.3997 37.0403 49.0571C39.6588 49.8013 42.39 50.0667 45.1026 49.8404C51.5634 49.3081 57.3431 46.0079 61.1335 41.0486C62.9295 38.7036 64.2438 36.0256 65.0004 33.1694C61.4329 31.58 56.1513 34.313 52.1377 37.776Z" fill="#371A45"/>
</g>
<path d="M36.6239 42.6839C35.756 44.1341 35.2613 46.1167 34.934 48.3457C34.5695 50.8288 34.4163 53.6165 34.1943 56.3093C33.816 60.9083 27.2916 64.0774 23.172 60.1299C17.8943 55.074 19.9311 43.6501 23.2004 37.7373C23.3305 37.5073 23.4592 37.2843 23.5913 37.0712C24.0913 36.2552 24.6158 35.5731 25.1403 35.0637L27.5646 36.6734L36.6239 42.6839Z" fill="white"/>
<g opacity="0.35">
<path opacity="0.35" d="M37.4541 36.4683L36.6249 42.6839C35.7569 44.1341 35.2622 46.1167 34.9349 48.3457C34.5704 50.8288 34.4173 53.6165 34.1952 56.3093C33.8169 60.9083 27.2926 64.0774 23.173 60.1299C21.8441 58.856 20.978 57.1789 20.4814 55.2856C20.8803 55.9555 21.3671 56.5689 21.9287 57.1095C26.0479 61.057 32.5723 57.8867 32.9524 53.2889C33.1056 51.4194 33.2269 49.5035 33.4084 47.6761C29.0257 45.5505 25.4463 42.0644 23.2032 37.7373C23.1029 37.5457 23.006 37.354 22.9126 37.159C23.1397 37.1275 23.3671 37.0976 23.5941 37.0712C24.0941 36.2552 24.6187 35.5731 25.1432 35.0637L27.5675 36.6734C29.7661 36.5042 32.0378 36.4192 34.3824 36.4181C34.8508 36.4181 35.3156 36.4222 35.7768 36.4304C36.3404 36.4353 36.8995 36.4479 37.4541 36.4683Z" fill="#371A45"/>
</g>
<path d="M27.5581 62.5548C25.784 62.5548 24.0856 61.881 22.7341 60.5872C20.5027 58.4498 19.3166 55.0634 19.3029 50.7943C19.2814 44.0533 22.0874 37.1448 24.6993 34.61L25.0642 34.2559L37.4751 42.4896L37.1657 43.0078C35.6442 45.556 35.305 50.0443 34.9773 54.385C34.9275 55.0457 34.8773 55.7064 34.8241 56.3614C34.6212 58.8326 32.8064 61.0685 30.2018 62.0577C29.358 62.3826 28.4622 62.5511 27.5581 62.5548V62.5548ZM25.2323 35.8839C22.9029 38.518 20.5491 44.8784 20.5678 50.7905C20.5766 53.5219 21.1111 57.2801 23.6089 59.6735C25.2633 61.2586 27.5608 61.7078 29.7539 60.875C31.9056 60.0579 33.4018 58.2455 33.5653 56.2576C33.6189 55.606 33.6686 54.9476 33.7184 54.2896C34.0366 50.0738 34.3651 45.7258 35.7916 42.8894L25.2323 35.8839Z" fill="#371A45"/>
<path d="M21.904 41.6932L21.332 40.9551C21.5028 40.8221 25.5608 37.7319 29.7167 40.2097L29.2389 41.0122C25.6369 38.8637 22.0549 41.5782 21.904 41.6932Z" fill="#371A45"/>
<path d="M78.9858 53.6889C78.8467 53.5395 78.7063 53.3932 78.5646 53.2501C71.5724 46.0358 65.3597 46.5099 65.3597 46.5099C60.9797 48.085 59.7913 54.8168 58.5976 59.9838C57.4199 65.0784 50.7462 67.0276 46.7181 61.9664C44.1338 58.7183 43.9699 54.2036 45.0986 49.8422C46.292 45.2198 48.9345 40.7718 51.6838 38.1883C51.837 38.0439 51.9848 37.9082 52.1364 37.7779C56.1499 34.3148 61.4315 31.5818 64.9964 33.1712C65.2042 33.2635 65.4054 33.3701 65.5986 33.4901C77.1254 40.7028 78.9858 53.6889 78.9858 53.6889Z" fill="white"/>
<g opacity="0.35">
<path opacity="0.35" d="M78.986 53.689C71.8226 46.0163 65.3618 46.5099 65.3618 46.5099C60.9818 48.0851 59.7934 54.8169 58.5997 59.9839C57.422 65.0784 50.7483 67.0277 46.7202 61.9664C45.4476 60.3664 44.7626 58.4597 44.5283 56.417C44.8576 57.1451 45.3438 57.7852 45.7837 58.4754C49.0763 63.6455 56.6953 62.0013 57.8742 56.9064C58.705 53.3142 59.5258 48.3541 61.3532 45.4211C62.4157 43.7168 64.536 43.0089 66.4174 43.708C69.3872 44.8121 74.9705 47.1955 78.2252 50.5348C78.8102 52.4518 78.986 53.689 78.986 53.689Z" fill="#371A45"/>
</g>
<path d="M52.3924 65.5552C50.0952 65.5552 47.8704 64.4231 46.2283 62.3585C43.6486 59.117 43.1084 54.3355 44.7072 48.8953C46.0323 44.3863 48.7878 39.8337 51.727 37.2973C56.0258 33.5878 62.0161 30.4988 65.9354 32.952C72.0229 36.7619 75.4155 42.1661 77.1916 46.0289C79.1139 50.2117 79.5944 53.4605 79.614 53.5966L79.8996 55.5895L78.527 54.1197C72.1056 47.2419 66.2371 47.1227 65.4894 47.1377C61.8388 48.5316 60.5937 54.045 59.4938 58.9138C59.4011 59.3247 59.3096 59.7298 59.2181 60.1253C58.6055 62.7697 56.5913 64.7837 53.9591 65.3804C53.445 65.497 52.9195 65.5556 52.3924 65.5552ZM52.1378 37.7764L52.5505 38.2554C46.9795 43.0633 42.1784 55.2407 47.2154 61.5701C48.921 63.7129 51.3361 64.6745 53.6769 64.1456C55.8324 63.657 57.4826 62.0071 57.9837 59.839C58.0749 59.4454 58.1656 59.0426 58.2583 58.6337C59.3801 53.6671 60.776 47.4857 65.1475 45.9132L65.2279 45.884L65.3133 45.8775C65.5698 45.858 71.2519 45.5073 77.8941 51.7007C76.8394 47.7972 73.6716 39.2875 65.2639 34.0247C61.923 31.9329 56.3271 34.997 52.5505 38.2554L52.1378 37.7764Z" fill="#371A45"/>
<path d="M61.9725 48.9259C60.1681 41.6675 48.204 44.2081 48.0834 44.2346L47.8828 43.3224C48.0134 43.2933 51.1176 42.6211 54.5174 42.9089C59.1424 43.2998 62.0338 45.3027 62.8784 48.7002L61.9725 48.9259Z" fill="#371A45"/>
<path d="M66.2171 31.8778C66.1551 31.8758 66.0941 31.8616 66.0376 31.836C65.981 31.8104 65.9301 31.7739 65.8876 31.7286C65.8452 31.6833 65.8121 31.6301 65.7902 31.572C65.7683 31.5139 65.758 31.452 65.76 31.3899L66.1949 17.7688C66.1969 17.7067 66.2111 17.6456 66.2367 17.589C66.2622 17.5324 66.2987 17.4814 66.3439 17.4389C66.3892 17.3964 66.4424 17.3633 66.5004 17.3413C66.5585 17.3194 66.6203 17.3092 66.6823 17.3112V17.3112C67.3333 17.3317 67.9739 17.4805 68.5674 17.7489C69.161 18.0173 69.6959 18.4002 70.1416 18.8756C70.5873 19.351 70.9351 19.9097 71.165 20.5196C71.395 21.1296 71.5027 21.779 71.4819 22.4306L71.3333 27.0753C71.3126 27.7269 71.1637 28.3681 70.8953 28.9621C70.6269 29.5562 70.2443 30.0915 69.7692 30.5375C69.2941 30.9835 68.7358 31.3314 68.1264 31.5614C67.5169 31.7913 66.8681 31.8989 66.2171 31.8778Z" fill="white"/>
<path d="M66.3786 31.997C66.3238 31.997 66.2691 31.997 66.2139 31.9944C66.0578 31.9892 65.91 31.9222 65.8032 31.8081C65.6963 31.694 65.639 31.5421 65.6438 31.3858L66.0788 17.7646C66.0811 17.6871 66.0987 17.6109 66.1305 17.5402C66.1624 17.4695 66.2078 17.4059 66.2643 17.3529C66.3208 17.2998 66.3872 17.2585 66.4597 17.2312C66.5322 17.204 66.6094 17.1913 66.6868 17.194C69.484 17.2832 71.6869 19.6341 71.5974 22.4341L71.4488 27.0788C71.3611 29.824 69.1026 31.997 66.3786 31.997ZM66.668 17.4274C66.5756 17.4275 66.4869 17.4635 66.4205 17.5279C66.3542 17.5922 66.3154 17.6799 66.3123 17.7723L65.877 31.393C65.8741 31.4875 65.9088 31.5792 65.9734 31.6481C66.038 31.717 66.1272 31.7575 66.2216 31.7606V31.7606C66.2737 31.7625 66.3265 31.7629 66.3782 31.7629C67.6344 31.7608 68.8408 31.2705 69.7431 30.3954C70.6453 29.5203 71.1728 28.3287 71.2145 27.0719L71.3627 22.4269C71.448 19.756 69.3465 17.5136 66.6783 17.4277L66.668 17.4274Z" fill="#371A45"/>
<g opacity="0.35">
<path opacity="0.35" d="M71.4015 24.8972L71.3326 27.076C71.2901 28.3918 70.7274 29.6368 69.7681 30.5374C68.8089 31.438 67.5316 31.9204 66.2171 31.8785C66.0918 31.8743 65.9733 31.8205 65.8876 31.7289C65.8019 31.6373 65.756 31.5153 65.76 31.3899L65.8749 27.7685C65.9093 27.853 65.9674 27.9257 66.0421 27.9779C66.1168 28.0301 66.205 28.0596 66.296 28.0629L66.6188 28.0725C67.6466 28.1055 68.6592 27.8175 69.5162 27.2486C70.3731 26.6796 71.032 25.8579 71.4015 24.8972V24.8972Z" fill="#371A45"/>
</g>
<path d="M66.378 32.5313C66.3178 32.5313 66.2574 32.5313 66.1965 32.5286C65.8988 32.5188 65.6173 32.3912 65.4135 32.1737C65.2098 31.9563 65.1006 31.6668 65.1099 31.3689L65.5448 17.7481C65.5546 17.4502 65.6821 17.1683 65.8994 16.9644C66.1166 16.7605 66.4057 16.6512 66.7034 16.6605C69.7942 16.7593 72.2289 19.3574 72.1301 22.4514L71.9815 27.0964C71.8847 30.1298 69.3884 32.5313 66.378 32.5313ZM66.8374 17.9712L66.4155 31.2305C67.5274 31.2188 68.5918 30.7777 69.3866 29.9994C70.1815 29.2211 70.6455 28.1656 70.6817 27.0531L70.8299 22.4085C70.864 21.2965 70.4681 20.2143 69.7247 19.3874C68.9812 18.5605 67.9476 18.0527 66.8393 17.97L66.8374 17.9712Z" fill="#371A45"/>
<path d="M21.7683 15.8732C21.8934 15.8774 22.0117 15.9309 22.0974 16.0222C22.1831 16.1135 22.2292 16.2351 22.2254 16.3604L21.7905 29.9811C21.7888 30.0434 21.7748 30.1048 21.7493 30.1616C21.7238 30.2185 21.6874 30.2698 21.6421 30.3125C21.5967 30.3552 21.5434 30.3886 21.4852 30.4106C21.427 30.4327 21.365 30.443 21.3027 30.441V30.441C20.6519 30.4202 20.0116 30.2713 19.4183 30.0027C18.825 29.7342 18.2903 29.3513 17.8448 28.8759C17.3994 28.4005 17.0518 27.8419 16.822 27.2321C16.5922 26.6222 16.4846 25.973 16.5055 25.3215L16.6536 20.6765C16.6956 19.3607 17.2581 18.1154 18.2172 17.2146C19.1764 16.3138 20.4538 15.8313 21.7683 15.8732V15.8732Z" fill="white"/>
<path d="M21.3177 30.5575H21.299C18.5018 30.4678 16.2988 28.1174 16.3884 25.3173L16.5369 20.6723C16.5582 20.0055 16.7104 19.3494 16.985 18.7415C17.2595 18.1336 17.651 17.5858 18.1371 17.1294C18.6232 16.6729 19.1943 16.3168 19.8179 16.0814C20.4415 15.8459 21.1053 15.7357 21.7714 15.7571C21.8488 15.7596 21.9249 15.7772 21.9954 15.8091C22.066 15.841 22.1296 15.8865 22.1825 15.9429C22.2355 15.9994 22.2768 16.0658 22.3042 16.1383C22.3315 16.2108 22.3443 16.2879 22.3419 16.3653L21.907 29.9865C21.9017 30.1395 21.8374 30.2845 21.7275 30.391C21.6176 30.4975 21.4707 30.5572 21.3177 30.5575V30.5575ZM21.6053 15.9878C20.3488 15.9891 19.1419 16.4792 18.2398 17.3547C17.3376 18.2302 16.8107 19.4225 16.7705 20.6796L16.6223 25.3242C16.5827 26.6086 17.0536 27.8562 17.9318 28.7934C18.81 29.7306 20.0237 30.2808 21.3066 30.3234C21.3534 30.3249 21.4 30.3173 21.4438 30.3008C21.4876 30.2843 21.5277 30.2593 21.5618 30.2273C21.5959 30.1952 21.6234 30.1567 21.6426 30.114C21.6618 30.0713 21.6724 30.0252 21.6738 29.9784L22.1087 16.3573C22.1103 16.3105 22.1026 16.2639 22.0861 16.2201C22.0696 16.1762 22.0446 16.1361 22.0126 16.102C21.9806 16.0678 21.9422 16.0404 21.8995 16.0211C21.8569 16.0018 21.8109 15.9912 21.7642 15.9898V15.9898C21.7094 15.9886 21.6581 15.9878 21.6053 15.9878Z" fill="#371A45"/>
<g opacity="0.35">
<path opacity="0.35" d="M21.9129 26.2038L21.7915 29.9826C21.7872 30.1081 21.7334 30.2268 21.6418 30.3126C21.5502 30.3983 21.4283 30.4443 21.303 30.4402C20.6522 30.4195 20.0119 30.2707 19.4187 30.0022C18.8254 29.7337 18.2908 29.3509 17.8454 28.8756C17.4 28.4002 17.0525 27.8417 16.8227 27.2319C16.593 26.6221 16.4855 25.9729 16.5065 25.3215L16.5689 23.3643C16.9345 24.2453 17.546 25.0023 18.3302 25.5447C19.1143 26.0871 20.0379 26.3919 20.9906 26.4226L21.4883 26.4383C21.5735 26.4406 21.6578 26.4201 21.7325 26.3789C21.8071 26.3376 21.8694 26.2772 21.9129 26.2038Z" fill="#371A45"/>
</g>
<path d="M21.3185 31.0914H21.2802C18.189 30.9925 15.7547 28.3944 15.8535 25.3001L16.002 20.6554C16.0255 19.9185 16.1937 19.1934 16.4972 18.5215C16.8006 17.8497 17.2333 17.2443 17.7705 16.7398C18.3077 16.2354 18.9389 15.8418 19.6281 15.5816C20.3173 15.3214 21.0509 15.1996 21.7871 15.2232V15.2232C22.0848 15.2327 22.3665 15.3602 22.5702 15.5776C22.774 15.795 22.8832 16.0846 22.8737 16.3826L22.4406 30.0041C22.4306 30.2955 22.3081 30.5716 22.0988 30.7744C21.8895 30.9772 21.6098 31.0908 21.3185 31.0914V31.0914ZM21.5696 16.5221C20.4579 16.5325 19.3932 16.9727 18.5982 17.7506C17.8032 18.5286 17.3394 19.5841 17.3038 20.6964L17.1556 25.3414C17.1213 26.4535 17.5171 27.5359 18.2606 28.3629C19.0041 29.1899 20.0378 29.6976 21.1462 29.7803L21.5696 16.5221Z" fill="#371A45"/>
<path d="M43.9955 47.0986C56.8082 47.0986 67.195 36.7012 67.195 23.8755C67.195 11.0497 56.8082 0.652344 43.9955 0.652344C31.1827 0.652344 20.7959 11.0497 20.7959 23.8755C20.7959 36.7012 31.1827 47.0986 43.9955 47.0986Z" fill="white"/>
<path d="M44.0395 47.2186C43.2246 47.2185 42.4101 47.1763 41.5995 47.0921C28.8119 45.7695 19.4812 34.2785 20.8024 21.4771C22.1237 8.67572 33.6042 -0.663349 46.3918 0.659251C59.1794 1.98185 68.5098 13.4729 67.1886 26.2743C66.5484 32.4756 63.5345 38.0565 58.7012 41.9876C54.5047 45.4023 49.3732 47.2186 44.0395 47.2186ZM43.9783 0.768477C32.3067 0.768477 22.2604 9.63079 21.0348 21.5024C19.727 34.1757 28.9628 45.5518 41.6233 46.861C47.7575 47.496 53.7688 45.7009 58.5538 41.8086C63.3389 37.9163 66.3225 32.3909 66.9562 26.252L67.071 26.2639L66.9562 26.252C68.2644 13.5787 59.0286 2.2026 46.3681 0.893034C45.5741 0.810466 44.7765 0.768764 43.9783 0.768094V0.768477Z" fill="#371A45"/>
<g opacity="0.35">
<path opacity="0.35" d="M67.181 23.042C67.2198 24.1163 67.1836 25.192 67.0727 26.2613C65.7541 39.0186 54.3555 48.2921 41.6123 46.9752C28.8691 45.6584 19.6038 34.2452 20.9194 21.489C20.9576 21.1223 21.0032 20.7559 21.0579 20.396C21.4531 31.8019 30.1984 41.4564 41.8597 42.6629C54.2361 43.9422 65.3429 35.232 67.181 23.042Z" fill="#371A45"/>
</g>
<path d="M44.0406 47.7524C43.207 47.7524 42.3739 47.7094 41.5447 47.6237C28.4634 46.2704 18.9206 34.5165 20.2721 21.4219C21.6236 8.32735 33.366 -1.22519 46.4469 0.127689C59.5278 1.48057 69.071 13.2349 67.7195 26.3294C67.0648 32.6726 63.9816 38.3808 59.0377 42.403C54.7454 45.8948 49.4968 47.7524 44.0406 47.7524ZM43.979 1.30235C32.5773 1.30235 22.763 9.95962 21.5662 21.5557C20.2882 33.9347 29.3107 45.049 41.6783 46.3283C54.046 47.6076 65.1478 38.5759 66.4258 26.1953C67.7034 13.8163 58.6813 2.70199 46.3133 1.42308C45.5378 1.34265 44.7586 1.30236 43.979 1.30235V1.30235Z" fill="#371A45"/>
<path d="M66.9366 26.848C66.5385 31.375 64.7007 35.4481 61.8828 38.7043C59.7714 41.1452 51.6325 45.0256 42.0705 44.2694C33.2041 43.5681 25.5599 38.129 23.9071 35.3562C21.7022 31.6574 20.6041 27.3255 21.0023 22.7985C22.0563 10.8189 32.7753 6.75909 45.4599 7.87742C58.1446 8.99575 67.9907 14.8687 66.9366 26.848Z" fill="#371A45"/>
<path d="M44.5838 44.929C43.7489 44.929 42.897 44.8954 42.0282 44.8282C32.8567 44.1027 25.16 38.5487 23.4283 35.6436C21.0817 31.7068 20.0511 27.2481 20.447 22.7491C20.9623 16.888 23.7078 12.5761 28.6061 9.9328C32.8831 7.62524 38.729 6.72153 45.5111 7.31902C52.2931 7.91651 57.8906 9.8297 61.6997 12.8505C66.0612 16.3101 68.0112 21.036 67.4954 26.8974C67.0996 31.3964 65.3058 35.606 62.3084 39.071C60.4083 41.2674 53.4895 44.929 44.5838 44.929ZM41.5423 8.26029C36.6306 8.26029 32.3919 9.16246 29.1376 10.9197C24.5914 13.3725 22.0427 17.3859 21.5622 22.8476C21.1874 27.1101 22.1652 31.3362 24.3901 35.0691C25.9705 37.7204 33.4513 43.025 42.1166 43.7107C51.7188 44.4695 59.5751 40.5201 61.4615 38.3375C64.3043 35.0515 66.0046 31.0615 66.3798 26.7989L66.9376 26.848L66.3798 26.7989C67.6815 12.0085 52.1507 9.02985 45.4131 8.43581C44.0832 8.31854 42.793 8.26003 41.5423 8.26029Z" fill="#371A45"/>
<g opacity="0.5">
<path opacity="0.5" d="M62.4818 25.3423C63.0806 23.1532 62.2813 21.0271 60.6965 20.5936C59.1116 20.16 57.3414 21.5831 56.7425 23.7722C56.1437 25.9613 56.943 28.0873 58.5278 28.5209C60.1127 28.9545 61.8829 27.5313 62.4818 25.3423Z" fill="white"/>
</g>
<g opacity="0.5">
<path opacity="0.5" d="M56.7646 32.9964C57.1758 32.0393 56.8438 30.9776 56.023 30.625C55.2022 30.2724 54.2036 30.7624 53.7924 31.7194C53.3812 32.6765 53.7132 33.7382 54.534 34.0908C55.3547 34.4434 56.3534 33.9534 56.7646 32.9964Z" fill="white"/>
</g>
<g opacity="0.35">
<path opacity="0.35" d="M63.4537 15.2784C66.0254 18.2076 67.3589 22.0359 66.9377 26.8473C66.5395 31.3754 64.701 35.4482 61.8862 38.7043C59.774 41.1452 51.6343 45.0257 42.0723 44.2699C38.6958 44.0039 35.4982 43.0496 32.7393 41.8171C44.5127 42.495 54.4311 37.7262 57.0511 34.6986C60.6262 30.5663 62.9586 25.3955 63.4632 19.6513C63.5957 18.1966 63.5925 16.7326 63.4537 15.2784V15.2784Z" fill="white"/>
</g>
<path d="M65.8865 16.8202C65.801 16.8201 65.7165 16.8031 65.6376 16.7702C65.5588 16.7373 65.4872 16.6892 65.427 16.6285L65.3589 16.5645L65.3233 16.4955C61.9211 10.705 54.6915 6.91847 45.4879 6.10674C36.2341 5.29118 28.4532 7.85629 24.1406 13.144L24.0966 13.1927C23.9768 13.3096 23.8167 13.3759 23.6494 13.3778C23.4822 13.3797 23.3206 13.3171 23.1982 13.2029C23.0759 13.0887 23.0021 12.9317 22.9923 12.7645C22.9825 12.5973 23.0374 12.4328 23.1456 12.3051C27.7372 6.68814 35.9217 3.95632 45.6005 4.8102C55.2103 5.65757 62.799 9.66408 66.4244 15.8042C66.4903 15.9021 66.5284 16.0162 66.5346 16.1342C66.5408 16.2522 66.5148 16.3696 66.4594 16.4739C66.404 16.5783 66.3213 16.6656 66.2202 16.7265C66.1191 16.7874 66.0033 16.8196 65.8853 16.8198L65.8865 16.8202Z" fill="#371A45"/>
<g opacity="0.5">
<path opacity="0.5" d="M25.5348 30.3797C25.5348 30.3797 22.8681 18.2352 29.6452 14.0865C36.4222 9.9378 45.5742 10.7641 45.3085 11.3328C45.3085 11.3328 34.9585 12.8954 30.2876 20.5657C26.6868 26.4801 25.5348 30.3797 25.5348 30.3797Z" fill="white"/>
</g>
<g opacity="0.6">
<path opacity="0.6" d="M9.08636 70.1389L1.75185 71.35C1.29309 71.4273 0.879216 71.672 0.590106 72.0369C0.300996 72.4017 0.157146 72.8609 0.186324 73.3256C0.322714 73.0777 0.513447 72.8639 0.744205 72.7002C0.974962 72.5366 1.23975 72.4274 1.51869 72.3809L8.85319 71.1699C9.34364 71.0903 9.84563 71.2083 10.2494 71.498C10.6533 71.7878 10.9261 72.2258 11.0083 72.7163C11.0183 72.7772 11.0252 72.8378 11.029 72.8983C11.2006 72.5902 11.2818 72.2399 11.2633 71.8877C11.2447 71.5355 11.1272 71.1956 10.9242 70.9073C10.7212 70.619 10.4411 70.3939 10.1159 70.258C9.79078 70.122 9.4339 70.0808 9.08636 70.1389V70.1389Z" fill="white"/>
</g>
</svg>
