<svg width="30" height="30" viewBox="0 0 30 30" fill="none" xmlns="http://www.w3.org/2000/svg">
<path d="M26 0H4C1.79086 0 0 1.79086 0 4V26C0 28.2091 1.79086 30 4 30H26C28.2091 30 30 28.2091 30 26V4C30 1.79086 28.2091 0 26 0Z" fill="#FF5555"/>
<path fill-rule="evenodd" clip-rule="evenodd" d="M19.2855 5H22.5521C23.9036 5 25 6.1059 25 7.47018V10.7641C25 12.1274 23.9036 13.2343 22.5521 13.2343H19.2855C17.9329 13.2343 16.8365 12.1274 16.8365 10.7641V7.47018C16.8365 6.1059 17.9329 5 19.2855 5Z" stroke="white" stroke-width="1.5" stroke-linecap="round" stroke-linejoin="round"/>
<path fill-rule="evenodd" clip-rule="evenodd" d="M7.44892 5H10.7145C12.067 5 13.1634 6.1059 13.1634 7.47018V10.7641C13.1634 12.1274 12.067 13.2343 10.7145 13.2343H7.44892C6.09638 13.2343 5 12.1274 5 10.7641V7.47018C5 6.1059 6.09638 5 7.44892 5Z" stroke="white" stroke-width="1.5" stroke-linecap="round" stroke-linejoin="round"/>
<path fill-rule="evenodd" clip-rule="evenodd" d="M7.44892 16.7656H10.7145C12.067 16.7656 13.1634 17.8715 13.1634 19.2368V22.5297C13.1634 23.894 12.067 24.9999 10.7145 24.9999H7.44892C6.09638 24.9999 5 23.894 5 22.5297V19.2368C5 17.8715 6.09638 16.7656 7.44892 16.7656Z" stroke="white" stroke-width="1.5" stroke-linecap="round" stroke-linejoin="round"/>
<path fill-rule="evenodd" clip-rule="evenodd" d="M19.2855 16.7656H22.5521C23.9036 16.7656 25 17.8715 25 19.2368V22.5297C25 23.894 23.9036 24.9999 22.5521 24.9999H19.2855C17.9329 24.9999 16.8365 23.894 16.8365 22.5297V19.2368C16.8365 17.8715 17.9329 16.7656 19.2855 16.7656Z" stroke="white" stroke-width="1.5" stroke-linecap="round" stroke-linejoin="round"/>
</svg>
