<svg width="166" height="31" viewBox="0 0 166 31" fill="none" xmlns="http://www.w3.org/2000/svg">
<path d="M66.8444 30.9736C66.1205 30.7626 65.5905 30.288 65.1122 29.6946C63.9876 28.2706 62.7983 26.9124 61.6995 25.4752C61.3763 25.0533 61.1436 24.4467 61.1436 23.9325C61.0919 20.135 61.1178 16.3244 61.1178 12.5269C61.1178 11.2347 61.958 10.3513 63.1215 10.3645C64.3108 10.3776 65.1381 11.2347 65.151 12.5269C65.1639 15.5992 65.1252 18.6846 65.1769 21.7568C65.1898 22.3238 65.4613 22.9172 65.7198 23.4446C65.9525 23.9061 66.3144 24.3017 66.6505 24.7104C67.4391 25.6598 68.7835 25.7125 69.5979 24.7895C70.5674 23.6951 71.2655 22.5612 71.1879 20.9262C71.0457 18.1176 71.1491 15.3091 71.1491 12.4873C71.1491 11.4457 71.7567 10.6282 72.6228 10.4172C73.5406 10.193 74.5101 10.5359 74.8979 11.3666C75.1048 11.8017 75.1953 12.3291 75.1953 12.8302C75.2211 15.8233 75.2211 18.8033 75.1953 21.7964C75.1953 22.4425 75.3504 22.9963 75.7511 23.4974C76.0614 23.8797 76.3458 24.3149 76.656 24.6972C77.4833 25.7257 78.9182 25.7257 79.7455 24.7104C80.1463 24.2226 80.5729 23.7347 80.8443 23.1677C81.0641 22.7194 81.1804 22.1656 81.1934 21.6645C81.2192 18.6055 81.2063 15.5596 81.2063 12.5005C81.2063 11.6566 81.5424 10.9974 82.2663 10.6018C82.9644 10.2194 83.74 10.2062 84.3346 10.7468C84.7224 11.0897 84.9422 11.6566 85.1749 12.1445C85.2783 12.3687 85.2266 12.6588 85.2266 12.9225C85.2266 16.4562 85.2136 20.0032 85.2395 23.5369C85.2395 24.394 85.0197 25.106 84.4639 25.7521C83.3651 27.0179 82.318 28.3365 81.2839 29.6551C80.8056 30.2748 80.2626 30.7758 79.4999 30.9736C78.6338 30.9736 77.7806 30.9736 76.9145 30.9736C76.4621 30.6967 75.9709 30.4726 75.5701 30.1429C75.2082 29.8397 74.9626 29.4177 74.6394 29.0617C74.006 28.3629 73.0623 28.1519 72.2996 28.6134C71.886 28.8639 71.5369 29.2463 71.2396 29.6287C70.7484 30.2616 70.2054 30.7758 69.4169 30.9736C68.5637 30.9736 67.7105 30.9736 66.8444 30.9736Z" fill="#231F20"/>
<path d="M151.13 30.9737C150.509 30.7232 149.85 30.5649 149.294 30.2221C148.35 29.6288 147.885 28.719 147.898 27.5586C147.911 26.9916 147.885 26.4115 147.898 25.8445C147.911 25.1588 148.26 24.8028 148.945 24.7896C149.591 24.7765 150.238 24.7896 150.884 24.7896C151.466 24.7896 151.802 25.0929 151.905 25.6731C152.06 26.5697 152.319 26.7807 153.198 26.7807C155.693 26.7807 158.201 26.7807 160.696 26.7807C161.639 26.7807 161.962 26.4378 161.975 25.4621C161.975 25.0006 161.975 24.5391 161.975 24.0776C161.975 23.0491 161.639 22.7063 160.605 22.7063C158.886 22.7063 157.154 22.7063 155.434 22.7063C154.077 22.7063 152.72 22.7327 151.362 22.6931C150.793 22.6799 150.199 22.5744 149.669 22.3767C148.299 21.8624 147.911 21.2295 147.911 19.7527C147.911 17.9727 147.833 16.1926 147.937 14.4125C147.988 13.5423 148.273 12.6588 148.635 11.8545C149.126 10.7733 150.018 10.3118 151.259 10.325C154.84 10.3777 158.407 10.3118 161.988 10.3777C162.79 10.3909 163.656 10.6283 164.38 10.9843C165.478 11.5249 166.06 12.5138 165.996 13.8324C165.97 14.3334 165.996 14.8477 165.996 15.3487C165.983 16.1399 165.659 16.4959 164.91 16.509C164.289 16.5222 163.656 16.5222 163.035 16.509C162.428 16.509 162.079 16.1926 161.988 15.5729C161.859 14.729 161.575 14.4785 160.747 14.4785C158.201 14.4785 155.667 14.4785 153.12 14.4785C152.319 14.4785 151.944 14.8477 151.918 15.6784C151.905 16.2058 151.905 16.7332 151.918 17.2606C151.931 18.1968 152.306 18.5792 153.224 18.5792C156.43 18.5792 159.648 18.6056 162.854 18.566C163.824 18.5528 164.509 18.9352 165.039 19.7C165.659 20.5834 165.983 21.5592 165.983 22.6536C165.983 24.4336 165.97 26.2137 165.996 27.9937C166.008 28.6926 165.737 29.2068 165.233 29.6551C164.38 30.4199 163.333 30.7232 162.247 30.9605C158.537 30.9737 154.84 30.9737 151.13 30.9737Z" fill="#231F20"/>
<path d="M0.0129278 11.4587C0.38781 10.628 1.02123 10.3379 1.92612 10.3379C5.95933 10.3774 9.97962 10.3643 14.0128 10.3511C15.2409 10.3511 16.3397 10.6939 17.2834 11.5378C17.8521 12.0388 18.1495 12.6454 18.1365 13.4365C18.1107 16.2319 18.1107 19.014 18.1365 21.8094C18.1495 22.4819 17.9556 22.9961 17.4643 23.4312C17.2187 23.6554 16.9731 23.9455 16.8438 24.2619C16.5853 24.8685 16.7533 25.4486 17.2446 25.8574C17.9426 26.4376 18.227 27.1496 18.1236 28.0594C18.0848 28.389 18.0848 28.7187 18.1236 29.0483C18.2399 30.0241 17.8263 30.6438 16.9472 30.9734C16.4302 30.9734 15.9131 30.9734 15.396 30.9734C14.5945 30.7229 14.1421 30.2087 14.0904 29.312C14.0775 29.0351 13.9223 28.7055 13.7284 28.5077C12.6684 27.3869 11.5955 26.2793 10.4838 25.2113C10.2252 24.974 9.79864 24.8157 9.43668 24.8025C8.14399 24.7498 6.85129 24.7762 5.57152 24.7894C4.67956 24.8025 4.1237 25.3563 4.11078 26.2661C4.09785 27.1628 4.08492 28.0594 4.11078 28.9692C4.14956 29.9581 3.81345 30.6702 2.84393 30.9866C2.32685 30.9866 1.80977 30.9866 1.2927 30.9866C0.672202 30.802 0.258539 30.3933 0 29.7999C0.012927 23.6818 0.0129278 17.5636 0.0129278 11.4587ZM9.11351 14.4782C7.92423 14.4782 6.74787 14.465 5.55859 14.4782C4.66663 14.4914 4.1237 15.0452 4.11078 15.9682C4.09785 17.023 4.09785 18.0779 4.11078 19.1327C4.1237 20.0821 4.65371 20.6622 5.58445 20.6754C7.92423 20.7018 10.2769 20.7018 12.6167 20.6754C13.5345 20.6622 14.0904 20.0953 14.1162 19.1327C14.1421 18.0779 14.1421 17.023 14.1162 15.9682C14.0904 15.0056 13.5345 14.4914 12.5909 14.4782C11.4404 14.4782 10.2769 14.4782 9.11351 14.4782Z" fill="#231F20"/>
<path d="M22.7651 30.9731C21.3044 30.3665 20.9941 29.8786 20.9941 28.2436C20.9941 23.1671 20.9941 18.0907 20.9941 13.0274C20.9941 12.7637 21.0071 12.5 21.0458 12.2363C21.201 11.0627 21.912 10.3639 23.0754 10.3639C27.4059 10.3507 31.7364 10.3507 36.0541 10.3639C37.2821 10.3639 38.1353 11.221 38.1482 12.3945C38.1482 13.5812 37.2692 14.4778 36.0282 14.4778C33.0291 14.491 30.043 14.4778 27.044 14.491C26.0486 14.491 25.2471 15.2162 25.092 16.1656C24.9239 17.1809 25.441 18.1302 26.3847 18.4731C26.6432 18.5654 26.9276 18.5917 27.212 18.5917C29.7974 18.6049 32.3828 18.5785 34.9682 18.6049C36.5711 18.6181 37.5665 20.0553 36.9719 21.4794C36.6099 22.3365 35.9377 22.732 35.0328 22.732C32.5508 22.732 30.0818 22.732 27.5998 22.732C27.3413 22.732 27.0827 22.732 26.8242 22.7716C25.7254 22.9298 25.0015 23.8264 25.0661 24.9208C25.1308 25.9757 25.9581 26.7932 27.031 26.7932C30.0042 26.8064 32.9774 26.7932 35.9506 26.8064C36.8426 26.8064 37.5536 27.1492 37.9414 28.0063C38.3033 28.7974 38.2258 29.5886 37.6441 30.2083C37.308 30.5643 36.7909 30.7357 36.3514 30.9994C31.814 30.9731 27.2896 30.9731 22.7651 30.9731Z" fill="#231F20"/>
<path d="M43.8348 30.973C43.4082 30.828 42.9557 30.7357 42.5679 30.5379C41.4045 29.9182 40.7323 28.9293 40.7323 27.5843C40.7064 22.943 40.7064 18.3148 40.7323 13.6735C40.7323 11.9593 42.0508 10.4562 43.7443 10.4034C46.4072 10.3243 49.0831 10.3639 51.7461 10.3902C52.5605 10.4034 53.2327 10.799 53.8014 11.3792C55.1717 12.7768 56.542 14.1745 57.8993 15.5854C58.5586 16.2842 58.83 17.1545 58.83 18.117C58.83 21.1497 58.843 24.1824 58.83 27.2019C58.8171 29.193 57.8476 30.4061 55.9085 30.8807C55.8439 30.8939 55.7922 30.9335 55.7405 30.973C51.759 30.973 47.8033 30.973 43.8348 30.973ZM44.7526 20.6091C44.7526 21.5321 44.7396 22.4551 44.7526 23.3781C44.7784 25.2373 46.2133 26.7404 48.0231 26.78C49.1865 26.8064 50.3499 26.8064 51.5134 26.78C53.1163 26.7404 54.5254 25.5933 54.6934 23.9583C54.8485 22.4815 54.8485 20.9651 54.7193 19.4883C54.5641 17.8269 51.5651 14.8074 49.9492 14.5305C49.3675 14.425 48.747 14.4778 48.1394 14.4778C46.265 14.491 44.7784 15.981 44.7526 17.9061C44.7396 18.8027 44.7526 19.7125 44.7526 20.6091Z" fill="#231F20"/>
<path d="M129.023 30.9734C127.511 30.4064 127.227 29.9713 127.227 28.2967C127.227 23.0225 127.227 17.7614 127.227 12.4872C127.227 10.9181 128.649 9.91595 130.032 10.5225C130.781 10.8521 131.221 11.4455 131.234 12.3026C131.247 13.5816 131.234 14.8474 131.234 16.1264C131.247 17.8142 131.997 18.5921 133.638 18.5921C134.517 18.5921 135.409 18.5789 136.288 18.5921C136.935 18.6053 137.465 18.4075 137.917 17.946C138.835 17.0098 139.74 16.0868 140.658 15.1507C141.11 14.6892 141.33 14.1485 141.304 13.4893C141.291 13.0937 141.291 12.6981 141.317 12.3026C141.382 11.1422 142.222 10.3379 143.346 10.3511C144.445 10.3643 145.298 11.2213 145.311 12.3685C145.324 13.4893 145.376 14.61 145.286 15.7308C145.247 16.2319 144.988 16.7857 144.678 17.1812C144.161 17.8405 143.502 18.4075 142.92 19.014C141.873 20.1085 141.886 21.2161 142.933 22.2841C143.515 22.8774 144.07 23.484 144.652 24.0642C145.105 24.5257 145.337 25.0531 145.324 25.7124C145.311 26.5694 145.324 27.4265 145.324 28.2836C145.324 29.9581 145.027 30.4064 143.527 30.9602C143.398 30.9602 143.269 30.9602 143.14 30.9602C141.64 30.4064 141.317 29.945 141.317 28.2836C141.317 28.1517 141.304 28.0198 141.317 27.888C141.369 27.1364 141.084 26.5299 140.554 26.0156C139.701 25.1717 138.861 24.3411 138.034 23.4708C137.516 22.9302 136.909 22.6928 136.185 22.6928C135.319 22.706 134.466 22.6928 133.6 22.6928C132.048 22.706 131.26 23.4972 131.234 25.0794C131.221 26.1475 131.234 27.2287 131.234 28.2967C131.234 29.9713 130.937 30.4064 129.411 30.9471C129.282 30.9734 129.153 30.9734 129.023 30.9734Z" fill="#231F20"/>
<path d="M89.5972 30.9737C88.1106 30.3803 87.8262 29.9452 87.8262 28.2574C87.8262 24.5918 87.8262 20.913 87.8262 17.2474C87.8262 17.0101 87.8262 16.7727 87.8262 16.509C89.2094 16.509 90.5021 16.509 91.8077 16.509C92.1955 18.1704 92.7255 18.5792 94.4189 18.5792C96.875 18.5792 99.3312 18.566 101.787 18.5792C103.364 18.5924 104.321 19.9769 103.791 21.4141C103.494 22.2316 102.796 22.6931 101.813 22.7063C99.357 22.7195 96.9009 22.7063 94.4448 22.7063C94.225 22.7063 94.0182 22.6931 93.7984 22.7195C92.6091 22.8381 91.8594 23.682 91.8982 24.8687C91.9369 25.9763 92.7643 26.7807 93.9536 26.7807C96.888 26.7938 99.8095 26.7807 102.744 26.7807C103.662 26.7807 104.386 27.1235 104.773 28.0069C105.252 29.0881 104.735 30.354 103.662 30.7759C103.507 30.8418 103.339 30.8946 103.183 30.9605C98.646 30.9737 94.1216 30.9737 89.5972 30.9737Z" fill="#231F20"/>
<path d="M109.246 30.9737C107.902 30.5517 107.475 29.6024 107.501 28.2179C107.553 24.6314 107.514 21.0581 107.514 17.4716C107.514 17.2079 107.514 16.9441 107.514 16.6277C108.858 16.6277 110.151 16.6277 111.418 16.6277C111.651 17.0892 111.793 17.6562 112.155 17.9594C112.543 18.3023 113.137 18.5528 113.641 18.566C116.227 18.6187 118.812 18.5792 121.398 18.5923C122.742 18.5923 123.595 19.4099 123.595 20.6361C123.595 21.8888 122.807 22.7063 121.514 22.7063C119.032 22.7195 116.563 22.7063 114.081 22.7063C113.822 22.7063 113.564 22.7195 113.305 22.759C112.207 22.9304 111.483 23.827 111.56 24.9083C111.638 25.9499 112.465 26.7674 113.551 26.7674C116.524 26.7806 119.497 26.7674 122.471 26.7806C124.151 26.7938 125.133 28.3761 124.397 29.8265C124.061 30.499 123.466 30.7495 122.82 30.9605C118.295 30.9737 113.771 30.9737 109.246 30.9737Z" fill="#231F20"/>
<path d="M107.527 10.3904C107.876 10.3772 108.044 10.3508 108.212 10.3508C112.944 10.3508 117.675 10.3508 122.406 10.3508C123.738 10.3508 124.578 11.1156 124.63 12.3023C124.668 13.4758 123.88 14.4384 122.742 14.4516C119.084 14.5043 115.426 14.5175 111.78 14.5307C111.664 14.5307 111.522 14.4911 111.431 14.412C110.164 13.1198 108.898 11.8144 107.527 10.3904Z" fill="#231F20"/>
<path d="M88.0077 10.3904C88.1887 10.3772 88.3826 10.3508 88.5636 10.3508C93.2819 10.3508 98.0003 10.3508 102.719 10.3508C104.296 10.3508 105.278 11.5903 104.852 13.0275C104.593 13.8714 103.882 14.4647 102.964 14.4647C99.3705 14.4911 95.7639 14.4911 92.1702 14.4779C91.9763 14.4779 91.7565 14.3725 91.6143 14.2406C90.3733 13.0275 89.1453 11.8012 87.9043 10.575C87.9431 10.5222 87.9689 10.4563 88.0077 10.3904Z" fill="#231F20"/>
<path d="M63.3477 0.0599944H64.1543V3.36827L66.8851 0.0599944H67.6161V4.60245H66.8095V1.29417L64.0871 4.60245H63.3477V0.0599944Z" fill="#231F20"/>
<path d="M70.6943 0.0599944H71.5009V1.9884H74.0385V0.0599944H74.8451V4.60245H74.0385V2.69976H71.5009V4.60245H70.6943V0.0599944Z" fill="#231F20"/>
<path d="M81.245 0.779931H79.6149V4.60245H78.8083V0.779931H77.1782V0.0599944H81.245V0.779931Z" fill="#231F20"/>
<path d="M87.4102 2.35693C87.4102 2.41979 87.4046 2.50264 87.3934 2.60548H83.7803C83.8307 3.00545 84.0016 3.32828 84.2929 3.57397C84.5897 3.81395 84.9567 3.93394 85.3936 3.93394C85.9257 3.93394 86.3543 3.7511 86.6792 3.38541L87.1245 3.9168C86.9228 4.15677 86.6708 4.33962 86.3683 4.46532C86.0714 4.59102 85.7381 4.65387 85.3684 4.65387C84.8978 4.65387 84.4805 4.55674 84.1164 4.36247C83.7523 4.16249 83.4694 3.88537 83.2677 3.53112C83.0717 3.17686 82.9737 2.7769 82.9737 2.33122C82.9737 1.89126 83.0689 1.49415 83.2593 1.1399C83.4554 0.785645 83.7215 0.511383 84.0576 0.317115C84.3993 0.117132 84.783 0.0171411 85.2087 0.0171411C85.6345 0.0171411 86.0126 0.117132 86.3431 0.317115C86.6792 0.511383 86.9397 0.785645 87.1245 1.1399C87.315 1.49415 87.4102 1.89983 87.4102 2.35693ZM85.2087 0.711365C84.8222 0.711365 84.4973 0.831355 84.234 1.07133C83.9764 1.31131 83.8251 1.62557 83.7803 2.01411H86.6372C86.5923 1.63128 86.4383 1.31988 86.175 1.0799C85.9173 0.834212 85.5952 0.711365 85.2087 0.711365Z" fill="#231F20"/>
<path d="M92.5351 0.0171411C92.9665 0.0171411 93.353 0.114275 93.6947 0.308544C94.0364 0.502812 94.3025 0.774217 94.4929 1.12276C94.689 1.4713 94.787 1.87412 94.787 2.33122C94.787 2.78832 94.689 3.194 94.4929 3.54826C94.3025 3.8968 94.0364 4.1682 93.6947 4.36247C93.353 4.55674 92.9665 4.65387 92.5351 4.65387C92.2158 4.65387 91.9218 4.59102 91.6529 4.46532C91.3896 4.33962 91.1655 4.15677 90.9807 3.9168V6.26516H90.174V0.0599944H90.9471V0.779931C91.1263 0.528525 91.3532 0.33997 91.6277 0.214267C91.9022 0.0828496 92.2046 0.0171411 92.5351 0.0171411ZM92.4679 3.93394C92.7536 3.93394 93.0085 3.86823 93.2326 3.73681C93.4622 3.59968 93.6415 3.41113 93.7703 3.17115C93.9048 2.92546 93.972 2.64548 93.972 2.33122C93.972 2.01696 93.9048 1.73985 93.7703 1.49987C93.6415 1.25417 93.4622 1.06562 93.2326 0.934203C93.0085 0.802786 92.7536 0.737077 92.4679 0.737077C92.1878 0.737077 91.933 0.805643 91.7033 0.942774C91.4792 1.07419 91.3 1.25989 91.1655 1.49987C91.0367 1.73985 90.9723 2.01696 90.9723 2.33122C90.9723 2.64548 91.0367 2.92546 91.1655 3.17115C91.2944 3.41113 91.4736 3.59968 91.7033 3.73681C91.933 3.86823 92.1878 3.93394 92.4679 3.93394Z" fill="#231F20"/>
<path d="M97.4714 0.0599944H98.2781V1.9884H100.816V0.0599944H101.622V4.60245H100.816V2.69976H98.2781V4.60245H97.4714V0.0599944Z" fill="#231F20"/>
<path d="M108.728 2.35693C108.728 2.41979 108.722 2.50264 108.711 2.60548H105.098C105.149 3.00545 105.319 3.32828 105.611 3.57397C105.908 3.81395 106.274 3.93394 106.711 3.93394C107.244 3.93394 107.672 3.7511 107.997 3.38541L108.442 3.9168C108.241 4.15677 107.989 4.33962 107.686 4.46532C107.389 4.59102 107.056 4.65387 106.686 4.65387C106.216 4.65387 105.798 4.55674 105.434 4.36247C105.07 4.16249 104.787 3.88537 104.586 3.53112C104.389 3.17686 104.291 2.7769 104.291 2.33122C104.291 1.89126 104.387 1.49415 104.577 1.1399C104.773 0.785645 105.039 0.511383 105.375 0.317115C105.717 0.117132 106.101 0.0171411 106.527 0.0171411C106.952 0.0171411 107.33 0.117132 107.661 0.317115C107.997 0.511383 108.257 0.785645 108.442 1.1399C108.633 1.49415 108.728 1.89983 108.728 2.35693ZM106.527 0.711365C106.14 0.711365 105.815 0.831355 105.552 1.07133C105.294 1.31131 105.143 1.62557 105.098 2.01411H107.955C107.91 1.63128 107.756 1.31988 107.493 1.0799C107.235 0.834212 106.913 0.711365 106.527 0.711365Z" fill="#231F20"/>
<path d="M114.622 0.779931H112.992V4.60245H112.185V0.779931H110.555V0.0599944H114.622V0.779931Z" fill="#231F20"/>
<path d="M116.501 1.89412H118.761V2.60548H116.501V1.89412Z" fill="#231F20"/>
<path d="M126.666 0.0599944V4.60245H125.935V1.2856L124.272 4.08821H123.919L122.272 1.27703V4.60245H121.533V0.0599944H122.364L124.112 3.12829L125.91 0.0599944H126.666Z" fill="#231F20"/>
<path d="M131.337 0.0171411C131.953 0.0171411 132.424 0.171413 132.749 0.479957C133.079 0.788501 133.244 1.24846 133.244 1.85984V4.60245H132.48V4.0025C132.345 4.21391 132.152 4.37676 131.9 4.49103C131.654 4.59959 131.359 4.65387 131.018 4.65387C130.519 4.65387 130.119 4.53103 129.816 4.28533C129.519 4.03964 129.371 3.71681 129.371 3.31685C129.371 2.91688 129.514 2.59691 129.799 2.35693C130.085 2.11124 130.539 1.9884 131.161 1.9884H132.438V1.82555C132.438 1.4713 132.337 1.19989 132.135 1.01134C131.934 0.822784 131.637 0.728507 131.245 0.728507C130.981 0.728507 130.724 0.774217 130.472 0.865637C130.219 0.951344 130.007 1.06848 129.833 1.21704L129.497 0.599947C129.727 0.411392 130.001 0.268548 130.32 0.171413C130.64 0.0685652 130.979 0.0171411 131.337 0.0171411ZM131.152 4.01964C131.46 4.01964 131.726 3.95108 131.95 3.81395C132.174 3.6711 132.337 3.47112 132.438 3.214V2.57977H131.194C130.511 2.57977 130.169 2.81404 130.169 3.28257C130.169 3.51112 130.256 3.6911 130.43 3.82252C130.603 3.95394 130.844 4.01964 131.152 4.01964Z" fill="#231F20"/>
<path d="M139.486 0.779931H137.016V4.60245H136.209V0.0599944H139.486V0.779931Z" fill="#231F20"/>
<path d="M143.413 0.0171411C144.029 0.0171411 144.499 0.171413 144.824 0.479957C145.155 0.788501 145.32 1.24846 145.32 1.85984V4.60245H144.555V4.0025C144.421 4.21391 144.228 4.37676 143.976 4.49103C143.729 4.59959 143.435 4.65387 143.093 4.65387C142.595 4.65387 142.194 4.53103 141.892 4.28533C141.595 4.03964 141.447 3.71681 141.447 3.31685C141.447 2.91688 141.589 2.59691 141.875 2.35693C142.161 2.11124 142.614 1.9884 143.236 1.9884H144.513V1.82555C144.513 1.4713 144.413 1.19989 144.211 1.01134C144.009 0.822784 143.712 0.728507 143.32 0.728507C143.057 0.728507 142.799 0.774217 142.547 0.865637C142.295 0.951344 142.082 1.06848 141.909 1.21704L141.573 0.599947C141.802 0.411392 142.077 0.268548 142.396 0.171413C142.715 0.0685652 143.054 0.0171411 143.413 0.0171411ZM143.228 4.01964C143.536 4.01964 143.802 3.95108 144.026 3.81395C144.25 3.6711 144.413 3.47112 144.513 3.214V2.57977H143.27C142.586 2.57977 142.245 2.81404 142.245 3.28257C142.245 3.51112 142.332 3.6911 142.505 3.82252C142.679 3.95394 142.92 4.01964 143.228 4.01964Z" fill="#231F20"/>
<path d="M150.623 2.23694C150.92 2.31694 151.149 2.4455 151.312 2.62262C151.474 2.79975 151.555 3.01973 151.555 3.28257C151.555 3.55111 151.466 3.79109 151.287 4.0025C151.107 4.2082 150.858 4.37104 150.539 4.49103C150.225 4.60531 149.872 4.66244 149.48 4.66244C149.149 4.66244 148.825 4.61959 148.505 4.53388C148.192 4.44246 147.912 4.3139 147.665 4.1482L147.909 3.52255C148.122 3.65968 148.365 3.76824 148.64 3.84823C148.914 3.92251 149.191 3.95965 149.472 3.95965C149.852 3.95965 150.155 3.89394 150.379 3.76252C150.609 3.62539 150.724 3.44255 150.724 3.214C150.724 3.00259 150.631 2.83975 150.446 2.72547C150.267 2.6112 150.012 2.55406 149.682 2.55406H148.867V1.96268H149.623C149.925 1.96268 150.163 1.9084 150.337 1.79984C150.511 1.69128 150.598 1.54272 150.598 1.35417C150.598 1.14847 150.494 0.988484 150.287 0.874208C150.085 0.759933 149.81 0.702795 149.463 0.702795C149.021 0.702795 148.553 0.819927 148.06 1.05419L147.841 0.419963C148.385 0.139988 148.953 0 149.547 0C149.906 0 150.228 0.0514239 150.513 0.154272C150.799 0.25712 151.023 0.402821 151.186 0.591376C151.348 0.779931 151.429 0.994197 151.429 1.23418C151.429 1.45701 151.357 1.657 151.211 1.83412C151.065 2.01125 150.869 2.14552 150.623 2.23694Z" fill="#231F20"/>
<path d="M154.294 0.0599944H155.101V3.36827L157.832 0.0599944H158.563V4.60245H157.756V1.29417L155.034 4.60245H154.294V0.0599944Z" fill="#231F20"/>
<path d="M161.641 0.0599944H162.447V1.9884H164.985V0.0599944H165.792V4.60245H164.985V2.69976H162.447V4.60245H161.641V0.0599944Z" fill="#231F20"/>
</svg>
