<svg width="166" height="31" viewBox="0 0 166 31" fill="none" xmlns="http://www.w3.org/2000/svg">
<path d="M66.8444 30.9735C66.1205 30.7626 65.5905 30.2879 65.1122 29.6945C63.9876 28.2705 62.7983 26.9124 61.6995 25.4751C61.3763 25.0532 61.1436 24.4467 61.1436 23.9324C61.0919 20.135 61.1178 16.3243 61.1178 12.5269C61.1178 11.2347 61.958 10.3513 63.1215 10.3645C64.3108 10.3776 65.1381 11.2347 65.151 12.5269C65.1639 15.5991 65.1252 18.6846 65.1769 21.7568C65.1898 22.3238 65.4613 22.9171 65.7198 23.4446C65.9525 23.9061 66.3144 24.3016 66.6505 24.7104C67.4391 25.6597 68.7835 25.7125 69.5979 24.7895C70.5674 23.6951 71.2655 22.5611 71.1879 20.9261C71.0457 18.1176 71.1491 15.309 71.1491 12.4873C71.1491 11.4457 71.7567 10.6282 72.6228 10.4172C73.5406 10.193 74.5101 10.5359 74.8979 11.3666C75.1048 11.8017 75.1953 12.3291 75.1953 12.8302C75.2211 15.8233 75.2211 18.8032 75.1953 21.7964C75.1953 22.4425 75.3504 22.9962 75.7511 23.4973C76.0614 23.8797 76.3458 24.3148 76.656 24.6972C77.4833 25.7257 78.9182 25.7257 79.7455 24.7104C80.1463 24.2225 80.5729 23.7346 80.8443 23.1677C81.0641 22.7194 81.1804 22.1656 81.1934 21.6645C81.2192 18.6054 81.2063 15.5596 81.2063 12.5005C81.2063 11.6566 81.5424 10.9974 82.2663 10.6018C82.9644 10.2194 83.74 10.2062 84.3346 10.7468C84.7224 11.0897 84.9422 11.6566 85.1749 12.1445C85.2783 12.3687 85.2266 12.6587 85.2266 12.9225C85.2266 16.4562 85.2136 20.0031 85.2395 23.5369C85.2395 24.3939 85.0197 25.1059 84.4639 25.752C83.3651 27.0179 82.318 28.3364 81.2839 29.655C80.8056 30.2747 80.2626 30.7758 79.4999 30.9735C78.6338 30.9735 77.7806 30.9735 76.9145 30.9735C76.4621 30.6966 75.9709 30.4725 75.5701 30.1428C75.2082 29.8396 74.9626 29.4176 74.6394 29.0616C74.006 28.3628 73.0623 28.1518 72.2996 28.6133C71.886 28.8638 71.5369 29.2462 71.2396 29.6286C70.7484 30.2615 70.2054 30.7758 69.4169 30.9735C68.5637 30.9735 67.7105 30.9735 66.8444 30.9735Z" fill="white"/>
<path d="M151.13 30.9736C150.509 30.7231 149.85 30.5649 149.294 30.222C148.35 29.6287 147.885 28.7189 147.898 27.5586C147.911 26.9916 147.885 26.4114 147.898 25.8444C147.911 25.1588 148.26 24.8028 148.945 24.7896C149.591 24.7764 150.238 24.7896 150.884 24.7896C151.466 24.7896 151.802 25.0928 151.905 25.673C152.06 26.5696 152.319 26.7806 153.198 26.7806C155.693 26.7806 158.201 26.7806 160.696 26.7806C161.639 26.7806 161.962 26.4378 161.975 25.462C161.975 25.0006 161.975 24.5391 161.975 24.0776C161.975 23.0491 161.639 22.7063 160.605 22.7063C158.886 22.7063 157.154 22.7063 155.434 22.7063C154.077 22.7063 152.72 22.7326 151.362 22.6931C150.793 22.6799 150.199 22.5744 149.669 22.3766C148.299 21.8624 147.911 21.2295 147.911 19.7527C147.911 17.9726 147.833 16.1926 147.937 14.4125C147.988 13.5423 148.273 12.6588 148.635 11.8545C149.126 10.7733 150.018 10.3118 151.259 10.325C154.84 10.3777 158.407 10.3118 161.988 10.3777C162.79 10.3909 163.656 10.6283 164.38 10.9843C165.478 11.5249 166.06 12.5138 165.996 13.8324C165.97 14.3334 165.996 14.8476 165.996 15.3487C165.983 16.1398 165.659 16.4958 164.91 16.509C164.289 16.5222 163.656 16.5222 163.035 16.509C162.428 16.509 162.079 16.1926 161.988 15.5729C161.859 14.729 161.575 14.4784 160.747 14.4784C158.201 14.4784 155.667 14.4784 153.12 14.4784C152.319 14.4784 151.944 14.8476 151.918 15.6783C151.905 16.2058 151.905 16.7332 151.918 17.2606C151.931 18.1968 152.306 18.5792 153.224 18.5792C156.43 18.5792 159.648 18.6055 162.854 18.566C163.824 18.5528 164.509 18.9352 165.039 19.6999C165.659 20.5834 165.983 21.5591 165.983 22.6535C165.983 24.4336 165.97 26.2136 165.996 27.9937C166.008 28.6925 165.737 29.2068 165.233 29.6551C164.38 30.4198 163.333 30.7231 162.247 30.9604C158.537 30.9736 154.84 30.9736 151.13 30.9736Z" fill="white"/>
<path d="M0.0129278 11.4589C0.38781 10.6282 1.02123 10.3381 1.92612 10.3381C5.95933 10.3777 9.97962 10.3645 14.0128 10.3513C15.2409 10.3513 16.3397 10.6941 17.2834 11.538C17.8521 12.0391 18.1495 12.6456 18.1365 13.4367C18.1107 16.2321 18.1107 19.0143 18.1365 21.8096C18.1495 22.4821 17.9556 22.9963 17.4643 23.4314C17.2187 23.6556 16.9731 23.9457 16.8438 24.2621C16.5853 24.8687 16.7533 25.4488 17.2446 25.8576C17.9426 26.4377 18.227 27.1498 18.1236 28.0596C18.0848 28.3892 18.0848 28.7189 18.1236 29.0485C18.2399 30.0242 17.8263 30.644 16.9472 30.9736C16.4302 30.9736 15.9131 30.9736 15.396 30.9736C14.5945 30.7231 14.1421 30.2088 14.0904 29.3122C14.0775 29.0353 13.9223 28.7057 13.7284 28.5079C12.6684 27.3871 11.5955 26.2795 10.4838 25.2115C10.2252 24.9741 9.79864 24.8159 9.43668 24.8027C8.14399 24.75 6.85129 24.7764 5.57152 24.7895C4.67956 24.8027 4.1237 25.3565 4.11078 26.2663C4.09785 27.163 4.08492 28.0596 4.11078 28.9694C4.14956 29.9583 3.81345 30.6703 2.84393 30.9868C2.32685 30.9868 1.80977 30.9868 1.2927 30.9868C0.672202 30.8022 0.258539 30.3934 0 29.8001C0.012927 23.682 0.0129278 17.5638 0.0129278 11.4589ZM9.11351 14.4784C7.92423 14.4784 6.74787 14.4652 5.55859 14.4784C4.66663 14.4916 4.1237 15.0454 4.11078 15.9684C4.09785 17.0232 4.09785 18.0781 4.11078 19.1329C4.1237 20.0823 4.65371 20.6625 5.58445 20.6756C7.92423 20.702 10.2769 20.702 12.6167 20.6756C13.5345 20.6625 14.0904 20.0955 14.1162 19.1329C14.1421 18.0781 14.1421 17.0232 14.1162 15.9684C14.0904 15.0058 13.5345 14.4916 12.5909 14.4784C11.4404 14.4784 10.2769 14.4784 9.11351 14.4784Z" fill="white"/>
<path d="M22.7651 30.9737C21.3044 30.3672 20.9941 29.8793 20.9941 28.2443C20.9941 23.1678 20.9941 18.0914 20.9941 13.0281C20.9941 12.7644 21.0071 12.5007 21.0458 12.237C21.201 11.0635 21.912 10.3646 23.0754 10.3646C27.4059 10.3514 31.7364 10.3514 36.0541 10.3646C37.2821 10.3646 38.1353 11.2217 38.1482 12.3952C38.1482 13.5819 37.2692 14.4785 36.0282 14.4785C33.0291 14.4917 30.043 14.4785 27.044 14.4917C26.0486 14.4917 25.2471 15.2169 25.092 16.1663C24.9239 17.1816 25.441 18.1309 26.3847 18.4738C26.6432 18.5661 26.9276 18.5924 27.212 18.5924C29.7974 18.6056 32.3828 18.5793 34.9682 18.6056C36.5711 18.6188 37.5665 20.056 36.9719 21.4801C36.6099 22.3371 35.9377 22.7327 35.0328 22.7327C32.5508 22.7327 30.0818 22.7327 27.5998 22.7327C27.3413 22.7327 27.0827 22.7327 26.8242 22.7723C25.7254 22.9305 25.0015 23.8271 25.0661 24.9215C25.1308 25.9764 25.9581 26.7939 27.031 26.7939C30.0042 26.8071 32.9774 26.7939 35.9506 26.8071C36.8426 26.8071 37.5536 27.1499 37.9414 28.0069C38.3033 28.7981 38.2258 29.5892 37.6441 30.2089C37.308 30.565 36.7909 30.7364 36.3514 31.0001C31.814 30.9737 27.2896 30.9737 22.7651 30.9737Z" fill="white"/>
<path d="M43.8348 30.9737C43.4082 30.8286 42.9557 30.7364 42.5679 30.5386C41.4045 29.9188 40.7323 28.9299 40.7323 27.585C40.7064 22.9437 40.7064 18.3155 40.7323 13.6742C40.7323 11.9601 42.0508 10.4569 43.7443 10.4042C46.4072 10.325 49.0831 10.3646 51.7461 10.391C52.5605 10.4042 53.2327 10.7997 53.8014 11.3799C55.1717 12.7776 56.542 14.1752 57.8993 15.5861C58.5586 16.2849 58.83 17.1552 58.83 18.1177C58.83 21.1504 58.843 24.1831 58.83 27.2026C58.8171 29.1936 57.8476 30.4067 55.9085 30.8814C55.8439 30.8946 55.7922 30.9341 55.7405 30.9737C51.759 30.9737 47.8033 30.9737 43.8348 30.9737ZM44.7526 20.6098C44.7526 21.5328 44.7396 22.4558 44.7526 23.3788C44.7784 25.238 46.2133 26.7411 48.0231 26.7807C49.1865 26.807 50.3499 26.807 51.5134 26.7807C53.1163 26.7411 54.5254 25.594 54.6934 23.959C54.8485 22.4822 54.8485 20.9658 54.7193 19.489C54.5641 17.8276 51.5651 14.8081 49.9492 14.5313C49.3675 14.4258 48.747 14.4785 48.1394 14.4785C46.265 14.4917 44.7784 15.9817 44.7526 17.9068C44.7396 18.8034 44.7526 19.7132 44.7526 20.6098Z" fill="white"/>
<path d="M129.023 30.9736C127.511 30.4066 127.227 29.9715 127.227 28.2969C127.227 23.0227 127.227 17.7616 127.227 12.4874C127.227 10.9183 128.649 9.9162 130.032 10.5227C130.781 10.8524 131.221 11.4457 131.234 12.3028C131.247 13.5818 131.234 14.8476 131.234 16.1266C131.247 17.8144 131.997 18.5923 133.638 18.5923C134.517 18.5923 135.409 18.5791 136.288 18.5923C136.935 18.6055 137.465 18.4077 137.917 17.9462C138.835 17.0101 139.74 16.0871 140.658 15.1509C141.11 14.6894 141.33 14.1488 141.304 13.4895C141.291 13.0939 141.291 12.6984 141.317 12.3028C141.382 11.1425 142.222 10.3381 143.346 10.3513C144.445 10.3645 145.298 11.2216 145.311 12.3687C145.324 13.4895 145.376 14.6103 145.286 15.731C145.247 16.2321 144.988 16.7859 144.678 17.1815C144.161 17.8407 143.502 18.4077 142.92 19.0143C141.873 20.1087 141.886 21.2163 142.933 22.2843C143.515 22.8776 144.07 23.4842 144.652 24.0643C145.105 24.5258 145.337 25.0533 145.324 25.7125C145.311 26.5696 145.324 27.4267 145.324 28.2837C145.324 29.9583 145.027 30.4066 143.527 30.9604C143.398 30.9604 143.269 30.9604 143.14 30.9604C141.64 30.4066 141.317 29.9451 141.317 28.2837C141.317 28.1519 141.304 28.02 141.317 27.8882C141.369 27.1366 141.084 26.53 140.554 26.0158C139.701 25.1719 138.861 24.3412 138.034 23.471C137.516 22.9304 136.909 22.693 136.185 22.693C135.319 22.7062 134.466 22.693 133.6 22.693C132.048 22.7062 131.26 23.4974 131.234 25.0796C131.221 26.1477 131.234 27.2289 131.234 28.2969C131.234 29.9715 130.937 30.4066 129.411 30.9472C129.282 30.9736 129.153 30.9736 129.023 30.9736Z" fill="white"/>
<path d="M89.5972 30.9736C88.1106 30.3803 87.8262 29.9452 87.8262 28.2574C87.8262 24.5918 87.8262 20.913 87.8262 17.2474C87.8262 17.0101 87.8262 16.7727 87.8262 16.509C89.2094 16.509 90.5021 16.509 91.8077 16.509C92.1955 18.1704 92.7255 18.5792 94.4189 18.5792C96.875 18.5792 99.3312 18.566 101.787 18.5792C103.364 18.5924 104.321 19.9768 103.791 21.4141C103.494 22.2316 102.796 22.6931 101.813 22.7063C99.357 22.7194 96.9009 22.7063 94.4448 22.7063C94.225 22.7063 94.0182 22.6931 93.7984 22.7194C92.6091 22.8381 91.8594 23.682 91.8982 24.8687C91.9369 25.9763 92.7643 26.7806 93.9536 26.7806C96.888 26.7938 99.8095 26.7806 102.744 26.7806C103.662 26.7806 104.386 27.1234 104.773 28.0069C105.252 29.0881 104.735 30.3539 103.662 30.7758C103.507 30.8418 103.339 30.8945 103.183 30.9604C98.646 30.9736 94.1216 30.9736 89.5972 30.9736Z" fill="white"/>
<path d="M109.246 30.9736C107.902 30.5517 107.475 29.6023 107.501 28.2178C107.553 24.6313 107.514 21.058 107.514 17.4716C107.514 17.2079 107.514 16.9441 107.514 16.6277C108.858 16.6277 110.151 16.6277 111.418 16.6277C111.651 17.0892 111.793 17.6562 112.155 17.9594C112.543 18.3023 113.137 18.5528 113.641 18.566C116.227 18.6187 118.812 18.5792 121.398 18.5923C122.742 18.5923 123.595 19.4098 123.595 20.6361C123.595 21.8887 122.807 22.7062 121.514 22.7062C119.032 22.7194 116.563 22.7062 114.081 22.7062C113.822 22.7062 113.564 22.7194 113.305 22.759C112.207 22.9304 111.483 23.827 111.56 24.9082C111.638 25.9499 112.465 26.7674 113.551 26.7674C116.524 26.7806 119.497 26.7674 122.471 26.7806C124.151 26.7938 125.133 28.376 124.397 29.8265C124.061 30.4989 123.466 30.7495 122.82 30.9604C118.295 30.9736 113.771 30.9736 109.246 30.9736Z" fill="white"/>
<path d="M107.527 10.3909C107.876 10.3777 108.044 10.3513 108.212 10.3513C112.944 10.3513 117.675 10.3513 122.406 10.3513C123.738 10.3513 124.578 11.1161 124.63 12.3028C124.668 13.4763 123.88 14.4389 122.742 14.452C119.084 14.5048 115.426 14.518 111.78 14.5311C111.664 14.5311 111.522 14.4916 111.431 14.4125C110.164 13.1203 108.898 11.8149 107.527 10.3909Z" fill="white"/>
<path d="M88.0077 10.3909C88.1887 10.3777 88.3826 10.3513 88.5636 10.3513C93.2819 10.3513 98.0003 10.3513 102.719 10.3513C104.296 10.3513 105.278 11.5908 104.852 13.028C104.593 13.8719 103.882 14.4652 102.964 14.4652C99.3705 14.4916 95.7639 14.4916 92.1702 14.4784C91.9763 14.4784 91.7565 14.3729 91.6143 14.2411C90.3733 13.028 89.1453 11.8017 87.9043 10.5755C87.9431 10.5227 87.9689 10.4568 88.0077 10.3909Z" fill="white"/>
<path d="M63.3477 0.0599942H64.1543V3.36826L66.8851 0.0599942H67.6161V4.60243H66.8095V1.29417L64.0871 4.60243H63.3477V0.0599942Z" fill="white"/>
<path d="M70.6943 0.0599942H71.5009V1.98839H74.0385V0.0599942H74.8451V4.60243H74.0385V2.69975H71.5009V4.60243H70.6943V0.0599942Z" fill="white"/>
<path d="M81.245 0.779928H79.6149V4.60243H78.8083V0.779928H77.1782V0.0599942H81.245V0.779928Z" fill="white"/>
<path d="M87.4102 2.35692C87.4102 2.41978 87.4046 2.50263 87.3934 2.60547H83.7803C83.8307 3.00544 84.0016 3.32826 84.2929 3.57396C84.5897 3.81393 84.9567 3.93392 85.3936 3.93392C85.9257 3.93392 86.3543 3.75108 86.6792 3.3854L87.1245 3.91678C86.9228 4.15676 86.6708 4.3396 86.3683 4.4653C86.0714 4.591 85.7381 4.65386 85.3684 4.65386C84.8978 4.65386 84.4805 4.55672 84.1164 4.36245C83.7523 4.16247 83.4694 3.88536 83.2677 3.5311C83.0717 3.17685 82.9737 2.77689 82.9737 2.33121C82.9737 1.89125 83.0689 1.49415 83.2593 1.13989C83.4554 0.785642 83.7215 0.511381 84.0576 0.317114C84.3993 0.117132 84.783 0.0171411 85.2087 0.0171411C85.6345 0.0171411 86.0126 0.117132 86.3431 0.317114C86.6792 0.511381 86.9397 0.785642 87.1245 1.13989C87.315 1.49415 87.4102 1.89982 87.4102 2.35692ZM85.2087 0.711363C84.8222 0.711363 84.4973 0.831352 84.234 1.07133C83.9764 1.31131 83.8251 1.62556 83.7803 2.0141H86.6372C86.5923 1.63128 86.4383 1.31988 86.175 1.0799C85.9173 0.834209 85.5952 0.711363 85.2087 0.711363Z" fill="white"/>
<path d="M92.5351 0.0171411C92.9665 0.0171411 93.353 0.114275 93.6947 0.308543C94.0364 0.502811 94.3025 0.774214 94.4929 1.12275C94.689 1.47129 94.787 1.87411 94.787 2.33121C94.787 2.78831 94.689 3.19399 94.4929 3.54824C94.3025 3.89678 94.0364 4.16819 93.6947 4.36245C93.353 4.55672 92.9665 4.65386 92.5351 4.65386C92.2158 4.65386 91.9218 4.591 91.6529 4.4653C91.3896 4.3396 91.1655 4.15676 90.9807 3.91678V6.26514H90.174V0.0599942H90.9471V0.779928C91.1263 0.528523 91.3532 0.339968 91.6277 0.214266C91.9022 0.0828493 92.2046 0.0171411 92.5351 0.0171411ZM92.4679 3.93392C92.7536 3.93392 93.0085 3.86821 93.2326 3.7368C93.4622 3.59967 93.6415 3.41111 93.7703 3.17114C93.9048 2.92544 93.972 2.64547 93.972 2.33121C93.972 2.01696 93.9048 1.73984 93.7703 1.49986C93.6415 1.25417 93.4622 1.06562 93.2326 0.934199C93.0085 0.802783 92.7536 0.737074 92.4679 0.737074C92.1878 0.737074 91.933 0.80564 91.7033 0.94277C91.4792 1.07419 91.3 1.25988 91.1655 1.49986C91.0367 1.73984 90.9723 2.01696 90.9723 2.33121C90.9723 2.64547 91.0367 2.92544 91.1655 3.17114C91.2944 3.41111 91.4736 3.59967 91.7033 3.7368C91.933 3.86821 92.1878 3.93392 92.4679 3.93392Z" fill="white"/>
<path d="M97.4714 0.0599942H98.2781V1.98839H100.816V0.0599942H101.622V4.60243H100.816V2.69975H98.2781V4.60243H97.4714V0.0599942Z" fill="white"/>
<path d="M108.728 2.35692C108.728 2.41978 108.722 2.50263 108.711 2.60547H105.098C105.149 3.00544 105.319 3.32826 105.611 3.57396C105.908 3.81393 106.274 3.93392 106.711 3.93392C107.244 3.93392 107.672 3.75108 107.997 3.3854L108.442 3.91678C108.241 4.15676 107.989 4.3396 107.686 4.4653C107.389 4.591 107.056 4.65386 106.686 4.65386C106.216 4.65386 105.798 4.55672 105.434 4.36245C105.07 4.16247 104.787 3.88536 104.586 3.5311C104.389 3.17685 104.291 2.77689 104.291 2.33121C104.291 1.89125 104.387 1.49415 104.577 1.13989C104.773 0.785642 105.039 0.511381 105.375 0.317114C105.717 0.117132 106.101 0.0171411 106.527 0.0171411C106.952 0.0171411 107.33 0.117132 107.661 0.317114C107.997 0.511381 108.257 0.785642 108.442 1.13989C108.633 1.49415 108.728 1.89982 108.728 2.35692ZM106.527 0.711363C106.14 0.711363 105.815 0.831352 105.552 1.07133C105.294 1.31131 105.143 1.62556 105.098 2.0141H107.955C107.91 1.63128 107.756 1.31988 107.493 1.0799C107.235 0.834209 106.913 0.711363 106.527 0.711363Z" fill="white"/>
<path d="M114.622 0.779928H112.992V4.60243H112.185V0.779928H110.555V0.0599942H114.622V0.779928Z" fill="white"/>
<path d="M116.501 1.89411H118.761V2.60547H116.501V1.89411Z" fill="white"/>
<path d="M126.666 0.0599942V4.60243H125.935V1.2856L124.272 4.08819H123.919L122.272 1.27702V4.60243H121.533V0.0599942H122.364L124.112 3.12828L125.91 0.0599942H126.666Z" fill="white"/>
<path d="M131.337 0.0171411C131.953 0.0171411 132.424 0.171412 132.749 0.479955C133.079 0.788498 133.244 1.24846 133.244 1.85983V4.60243H132.48V4.00249C132.345 4.2139 132.152 4.37674 131.9 4.49101C131.654 4.59958 131.359 4.65386 131.018 4.65386C130.519 4.65386 130.119 4.53101 129.816 4.28532C129.519 4.03963 129.371 3.7168 129.371 3.31684C129.371 2.91687 129.514 2.5969 129.799 2.35692C130.085 2.11123 130.539 1.98839 131.161 1.98839H132.438V1.82555C132.438 1.47129 132.337 1.19989 132.135 1.01133C131.934 0.822781 131.637 0.728504 131.245 0.728504C130.981 0.728504 130.724 0.774214 130.472 0.865634C130.219 0.95134 130.007 1.06847 129.833 1.21703L129.497 0.599945C129.727 0.411391 130.001 0.268547 130.32 0.171413C130.64 0.0685649 130.979 0.0171411 131.337 0.0171411ZM131.152 4.01963C131.46 4.01963 131.726 3.95106 131.95 3.81393C132.174 3.67109 132.337 3.47111 132.438 3.21399V2.57976H131.194C130.511 2.57976 130.169 2.81403 130.169 3.28255C130.169 3.5111 130.256 3.69109 130.43 3.8225C130.603 3.95392 130.844 4.01963 131.152 4.01963Z" fill="white"/>
<path d="M139.486 0.779928H137.016V4.60243H136.209V0.0599942H139.486V0.779928Z" fill="white"/>
<path d="M143.413 0.0171411C144.029 0.0171411 144.499 0.171412 144.824 0.479955C145.155 0.788498 145.32 1.24846 145.32 1.85983V4.60243H144.555V4.00249C144.421 4.2139 144.228 4.37674 143.976 4.49101C143.729 4.59958 143.435 4.65386 143.093 4.65386C142.595 4.65386 142.194 4.53101 141.892 4.28532C141.595 4.03963 141.447 3.7168 141.447 3.31684C141.447 2.91687 141.589 2.5969 141.875 2.35692C142.161 2.11123 142.614 1.98839 143.236 1.98839H144.513V1.82555C144.513 1.47129 144.413 1.19989 144.211 1.01133C144.009 0.822781 143.712 0.728504 143.32 0.728504C143.057 0.728504 142.799 0.774214 142.547 0.865634C142.295 0.95134 142.082 1.06847 141.909 1.21703L141.573 0.599945C141.802 0.411391 142.077 0.268547 142.396 0.171413C142.715 0.0685649 143.054 0.0171411 143.413 0.0171411ZM143.228 4.01963C143.536 4.01963 143.802 3.95106 144.026 3.81393C144.25 3.67109 144.413 3.47111 144.513 3.21399V2.57976H143.27C142.586 2.57976 142.245 2.81403 142.245 3.28255C142.245 3.5111 142.332 3.69109 142.505 3.8225C142.679 3.95392 142.92 4.01963 143.228 4.01963Z" fill="white"/>
<path d="M150.623 2.23694C150.92 2.31693 151.149 2.44549 151.312 2.62261C151.474 2.79974 151.555 3.01972 151.555 3.28255C151.555 3.5511 151.466 3.79108 151.287 4.00249C151.107 4.20818 150.858 4.37102 150.539 4.49101C150.225 4.60529 149.872 4.66243 149.48 4.66243C149.149 4.66243 148.825 4.61957 148.505 4.53387C148.192 4.44245 147.912 4.31389 147.665 4.14819L147.909 3.52253C148.122 3.65966 148.365 3.76822 148.64 3.84822C148.914 3.92249 149.191 3.95963 149.472 3.95963C149.852 3.95963 150.155 3.89393 150.379 3.76251C150.609 3.62538 150.724 3.44254 150.724 3.21399C150.724 3.00258 150.631 2.83974 150.446 2.72546C150.267 2.61119 150.012 2.55405 149.682 2.55405H148.867V1.96268H149.623C149.925 1.96268 150.163 1.90839 150.337 1.79983C150.511 1.69127 150.598 1.54271 150.598 1.35416C150.598 1.14847 150.494 0.98848 150.287 0.874205C150.085 0.75993 149.81 0.702792 149.463 0.702792C149.021 0.702792 148.553 0.819924 148.06 1.05419L147.841 0.419961C148.385 0.139987 148.953 0 149.547 0C149.906 0 150.228 0.0514237 150.513 0.154271C150.799 0.257119 151.023 0.40282 151.186 0.591374C151.348 0.779928 151.429 0.994194 151.429 1.23417C151.429 1.45701 151.357 1.65699 151.211 1.83412C151.065 2.01124 150.869 2.14552 150.623 2.23694Z" fill="white"/>
<path d="M154.294 0.0599942H155.101V3.36826L157.832 0.0599942H158.563V4.60243H157.756V1.29417L155.034 4.60243H154.294V0.0599942Z" fill="white"/>
<path d="M161.641 0.0599942H162.447V1.98839H164.985V0.0599942H165.792V4.60243H164.985V2.69975H162.447V4.60243H161.641V0.0599942Z" fill="white"/>
</svg>
