<svg width="166" height="31" fill="none" xmlns="http://www.w3.org/2000/svg"><path d="M66.844 30.974c-.723-.211-1.253-.686-1.732-1.28-1.124-1.423-2.314-2.782-3.412-4.219-.324-.422-.556-1.028-.556-1.543-.052-3.797-.026-7.608-.026-11.405 0-1.292.84-2.176 2.003-2.162 1.19.013 2.017.87 2.03 2.162.013 3.072-.026 6.158.026 9.23.013.567.284 1.16.543 1.688.233.461.594.857.93 1.265.79.95 2.133 1.002 2.948.08.97-1.095 1.668-2.229 1.59-3.864-.142-2.808-.039-5.617-.039-8.439 0-1.041.608-1.859 1.474-2.07.918-.224 1.887.119 2.275.95.207.435.297.962.297 1.463.026 2.993.026 5.973 0 8.966 0 .646.155 1.2.556 1.701.31.383.595.818.905 1.2.827 1.029 2.262 1.029 3.09.013.4-.487.827-.975 1.098-1.542a3.76 3.76 0 0 0 .35-1.503c.025-3.06.012-6.105.012-9.164 0-.844.336-1.504 1.06-1.9.698-.382 1.474-.395 2.069.146.387.343.607.91.84 1.398.103.224.052.514.052.777 0 3.534-.013 7.081.013 10.615 0 .857-.22 1.569-.776 2.215-1.099 1.266-2.146 2.585-3.18 3.903-.478.62-1.021 1.12-1.784 1.319h-2.585c-.453-.277-.944-.501-1.345-.831-.362-.303-.607-.725-.93-1.081-.634-.7-1.578-.91-2.34-.449-.414.25-.763.633-1.06 1.016-.492.633-1.035 1.147-1.823 1.345h-2.573ZM151.13 30.974c-.621-.25-1.28-.41-1.836-.752-.944-.593-1.409-1.503-1.396-2.663.013-.567-.013-1.148 0-1.715.013-.685.362-1.041 1.047-1.054.646-.014 1.293 0 1.939 0 .582 0 .918.303 1.021.883.155.897.414 1.108 1.293 1.108h7.498c.943 0 1.266-.343 1.279-1.319v-1.384c0-1.029-.336-1.372-1.37-1.372h-5.171c-1.357 0-2.714.027-4.072-.013a5.28 5.28 0 0 1-1.693-.316c-1.37-.515-1.758-1.147-1.758-2.624 0-1.78-.078-3.56.026-5.34.051-.87.336-1.754.698-2.559.491-1.08 1.383-1.542 2.624-1.529 3.581.053 7.148-.013 10.729.053.802.013 1.668.25 2.392.606 1.098.54 1.68 1.53 1.616 2.848-.026.501 0 1.016 0 1.517-.013.79-.337 1.147-1.086 1.16-.621.013-1.254.013-1.875 0-.607 0-.956-.316-1.047-.936-.129-.844-.413-1.095-1.241-1.095h-7.627c-.801 0-1.176.37-1.202 1.2a32.1 32.1 0 0 0 0 1.583c.013.936.388 1.318 1.306 1.318 3.206 0 6.424.027 9.63-.013.97-.013 1.655.37 2.185 1.134.62.883.944 1.86.944 2.954 0 1.78-.013 3.56.013 5.34.012.699-.259 1.213-.763 1.661-.853.765-1.9 1.068-2.986 1.305-3.71.014-7.407.014-11.117.014ZM.013 11.459c.375-.831 1.008-1.121 1.913-1.121 4.033.04 8.054.026 12.087.013 1.228 0 2.327.343 3.27 1.187.57.5.866 1.107.854 1.899a452.887 452.887 0 0 0 0 8.372c.012.673-.181 1.187-.673 1.622-.245.224-.49.514-.62.83-.259.608-.09 1.188.4 1.596.699.58.983 1.293.88 2.202-.04.33-.04.66 0 .99.116.975-.298 1.595-1.177 1.924h-1.551c-.802-.25-1.254-.764-1.306-1.661a1.35 1.35 0 0 0-.362-.804 96.533 96.533 0 0 0-3.244-3.297c-.259-.237-.685-.395-1.047-.409-1.293-.052-2.586-.026-3.865-.013-.892.013-1.448.567-1.461 1.477-.013.897-.026 1.793 0 2.703.039.99-.298 1.701-1.267 2.018H1.293C.673 30.802.259 30.393 0 29.8c.013-6.118.013-12.236.013-18.341Zm9.1 3.02c-1.189 0-2.365-.014-3.554 0-.892.012-1.435.566-1.448 1.49-.013 1.054-.013 2.109 0 3.164.013.95.543 1.53 1.473 1.542 2.34.027 4.693.027 7.033 0 .917-.013 1.473-.58 1.5-1.542a64.45 64.45 0 0 0 0-3.165c-.027-.962-.583-1.477-1.526-1.49H9.114ZM22.765 30.973c-1.46-.607-1.77-1.094-1.77-2.73V13.028c0-.263.012-.527.05-.79.156-1.174.867-1.873 2.03-1.873 4.33-.013 8.661-.013 12.98 0 1.227 0 2.08.857 2.093 2.03 0 1.187-.879 2.084-2.12 2.084-2.999.013-5.985 0-8.984.013-.995 0-1.797.725-1.952 1.675-.168 1.015.349 1.964 1.293 2.307.258.092.543.119.827.119 2.585.013 5.17-.014 7.756.013 1.603.013 2.598 1.45 2.004 2.874-.362.858-1.034 1.253-1.94 1.253H27.6c-.259 0-.517 0-.776.04-1.099.158-1.823 1.054-1.758 2.149.065 1.055.892 1.872 1.965 1.872 2.973.013 5.946 0 8.92.013.892 0 1.603.343 1.99 1.2.362.791.285 1.583-.297 2.202-.336.356-.853.528-1.293.791-4.537-.026-9.061-.026-13.586-.026ZM43.835 30.973c-.427-.145-.88-.237-1.267-.435-1.163-.62-1.836-1.609-1.836-2.954-.026-4.641-.026-9.27 0-13.91 0-1.715 1.319-3.218 3.012-3.27 2.663-.08 5.34-.04 8.002-.014.814.013 1.487.409 2.055.99a618.26 618.26 0 0 1 4.098 4.205c.66.7.931 1.57.931 2.532 0 3.033.013 6.065 0 9.085-.013 1.991-.982 3.204-2.922 3.679-.064.013-.116.052-.168.092H43.835Zm.918-10.364c0 .923-.013 1.846 0 2.77.025 1.858 1.46 3.361 3.27 3.401 1.163.026 2.327.026 3.49 0 1.603-.04 3.012-1.187 3.18-2.822.156-1.476.156-2.993.026-4.47-.155-1.661-3.154-4.68-4.77-4.957-.581-.106-1.202-.053-1.81-.053-1.874.013-3.36 1.503-3.386 3.428-.013.897 0 1.806 0 2.703ZM129.023 30.973c-1.512-.567-1.796-1.002-1.796-2.676v-15.81c0-1.569 1.422-2.571 2.805-1.964.749.33 1.189.922 1.202 1.78.013 1.279 0 2.544 0 3.823.013 1.688.763 2.466 2.404 2.466.879 0 1.771-.013 2.65 0 .647.013 1.177-.184 1.629-.646l2.741-2.795c.452-.462.672-1.002.646-1.662-.013-.395-.013-.79.013-1.186.065-1.16.905-1.965 2.029-1.952 1.099.013 1.952.87 1.965 2.017.013 1.121.065 2.242-.025 3.363-.039.5-.298 1.055-.608 1.45-.517.66-1.176 1.226-1.758 1.833-1.047 1.095-1.034 2.202.013 3.27.582.593 1.137 1.2 1.719 1.78.453.462.685.99.672 1.648-.013.857 0 1.715 0 2.572 0 1.674-.297 2.122-1.797 2.676h-.387c-1.5-.554-1.823-1.015-1.823-2.676 0-.132-.013-.264 0-.396.052-.752-.233-1.358-.763-1.872-.853-.844-1.693-1.675-2.52-2.545-.518-.54-1.125-.778-1.849-.778-.866.013-1.719 0-2.585 0-1.552.013-2.34.804-2.366 2.386-.013 1.069 0 2.15 0 3.218 0 1.674-.297 2.11-1.823 2.65-.129.026-.258.026-.388.026ZM89.597 30.974c-1.486-.594-1.77-1.029-1.77-2.717V16.51h3.98c.388 1.661.918 2.07 2.612 2.07 2.456 0 4.912-.013 7.368 0 1.577.013 2.534 1.398 2.004 2.835-.297.818-.995 1.28-1.978 1.292-2.456.014-4.912 0-7.368 0-.22 0-.427-.013-.647.014-1.189.118-1.939.962-1.9 2.149.039 1.107.866 1.912 2.056 1.912 2.934.013 5.856 0 8.79 0 .918 0 1.642.343 2.029 1.226.479 1.081-.038 2.347-1.111 2.769-.155.066-.323.119-.479.184-4.537.014-9.061.014-13.586.014ZM109.246 30.974c-1.344-.422-1.771-1.372-1.745-2.756.052-3.587.013-7.16.013-10.746v-.844h3.904c.233.461.375 1.028.737 1.331.388.343.982.594 1.486.607 2.586.053 5.171.013 7.757.026 1.344 0 2.197.818 2.197 2.044 0 1.253-.788 2.07-2.081 2.07-2.482.014-4.951 0-7.433 0-.259 0-.517.014-.776.053-1.098.171-1.822 1.068-1.745 2.15.078 1.04.905 1.858 1.991 1.858 2.973.014 5.946 0 8.92.014 1.68.013 2.662 1.595 1.926 3.046-.336.672-.931.922-1.577 1.133-4.525.014-9.049.014-13.574.014ZM107.527 10.39c.349-.013.517-.04.685-.04h14.194c1.332 0 2.172.766 2.224 1.952.038 1.174-.75 2.136-1.888 2.15-3.658.052-7.316.066-10.962.079a.562.562 0 0 1-.349-.119 609.157 609.157 0 0 1-3.904-4.022ZM88.008 10.39c.18-.013.375-.04.556-.04h14.155c1.577 0 2.559 1.24 2.133 2.678-.259.843-.97 1.437-1.888 1.437-3.593.026-7.2.026-10.794.013a.887.887 0 0 1-.556-.237c-1.24-1.213-2.469-2.44-3.71-3.666.04-.053.065-.119.104-.185ZM63.348.06h.806v3.308L66.885.06h.731v4.542h-.806V1.294l-2.723 3.308h-.74V.06ZM70.694.06h.807v1.928h2.537V.06h.807v4.542h-.806V2.7H71.5v1.902h-.807V.06ZM81.245.78h-1.63v3.822h-.807V.78h-1.63V.06h4.067v.72ZM87.41 2.357c0 .063-.005.146-.017.248H83.78c.05.4.222.723.513.969.297.24.664.36 1.1.36.533 0 .961-.183 1.286-.549l.445.532c-.201.24-.453.423-.756.548-.297.126-.63.189-1 .189-.47 0-.887-.097-1.252-.292a2.144 2.144 0 0 1-.848-.83 2.437 2.437 0 0 1-.294-1.2c0-.44.095-.838.285-1.192.196-.354.463-.629.799-.823.341-.2.725-.3 1.15-.3.427 0 .805.1 1.135.3.336.194.597.469.781.823.191.354.286.76.286 1.217ZM85.21.71c-.387 0-.712.12-.975.36-.258.24-.409.555-.454.943h2.857a1.446 1.446 0 0 0-.462-.934c-.258-.246-.58-.369-.966-.369ZM92.535.017c.431 0 .818.097 1.16.292.341.194.608.465.798.814.196.348.294.751.294 1.208 0 .457-.098.863-.294 1.217-.19.349-.457.62-.798.814a2.304 2.304 0 0 1-1.16.292c-.32 0-.613-.063-.882-.189a1.842 1.842 0 0 1-.672-.548v2.348h-.807V.06h.773v.72c.18-.251.406-.44.68-.566.275-.131.578-.197.908-.197Zm-.067 3.917c.286 0 .54-.066.765-.197.23-.137.408-.326.537-.566a1.72 1.72 0 0 0 .202-.84c0-.314-.067-.591-.202-.831a1.366 1.366 0 0 0-.537-.566 1.483 1.483 0 0 0-.765-.197 1.463 1.463 0 0 0-1.303.763c-.128.24-.193.517-.193.831 0 .314.065.594.194.84.128.24.308.429.537.566.23.131.485.197.765.197ZM97.471.06h.807v1.928h2.538V.06h.806v4.542h-.806V2.7h-2.538v1.902h-.807V.06ZM108.728 2.357c0 .063-.006.146-.017.248h-3.613c.051.4.221.723.513.969.297.24.663.36 1.1.36.533 0 .961-.183 1.286-.549l.445.532c-.201.24-.453.423-.756.548-.297.126-.63.189-1 .189a2.62 2.62 0 0 1-1.252-.292 2.138 2.138 0 0 1-.848-.83 2.426 2.426 0 0 1-.295-1.2c0-.44.096-.838.286-1.192.196-.354.462-.629.798-.823.342-.2.726-.3 1.152-.3.425 0 .803.1 1.134.3.336.194.596.469.781.823.191.354.286.76.286 1.217ZM106.527.71c-.387 0-.712.12-.975.36-.258.24-.409.555-.454.943h2.857a1.447 1.447 0 0 0-.462-.934 1.346 1.346 0 0 0-.966-.369ZM114.622.78h-1.63v3.822h-.807V.78h-1.63V.06h4.067v.72ZM116.501 1.894h2.26v.711h-2.26v-.71ZM126.666.06v4.542h-.731V1.286l-1.663 2.802h-.353l-1.647-2.811v3.325h-.739V.06h.831l1.748 3.068L125.91.06h.756ZM131.337.017c.616 0 1.087.154 1.412.463.33.309.495.768.495 1.38v2.742h-.764v-.6a1.308 1.308 0 0 1-.58.489 2.178 2.178 0 0 1-.882.163c-.499 0-.899-.123-1.202-.369a1.195 1.195 0 0 1-.445-.968c0-.4.143-.72.428-.96.286-.246.74-.369 1.362-.369h1.277v-.162c0-.355-.101-.626-.303-.815-.201-.188-.498-.282-.89-.282-.264 0-.521.045-.773.137a1.918 1.918 0 0 0-.639.351L129.497.6a2.37 2.37 0 0 1 .823-.429c.32-.102.659-.154 1.017-.154Zm-.185 4.003c.308 0 .574-.069.798-.206.224-.143.387-.343.488-.6V2.58h-1.244c-.683 0-1.025.234-1.025.703a.64.64 0 0 0 .261.54c.173.13.414.197.722.197ZM139.486.78h-2.47v3.822h-.807V.06h3.277v.72ZM143.413.017c.616 0 1.086.154 1.411.463.331.309.496.768.496 1.38v2.742h-.765v-.6a1.3 1.3 0 0 1-.579.489 2.183 2.183 0 0 1-.883.163c-.498 0-.899-.123-1.201-.369a1.195 1.195 0 0 1-.445-.968c0-.4.142-.72.428-.96.286-.246.739-.369 1.361-.369h1.277v-.162c0-.355-.1-.626-.302-.815-.202-.188-.499-.282-.891-.282-.263 0-.521.045-.773.137a1.913 1.913 0 0 0-.638.351L141.573.6a2.36 2.36 0 0 1 .823-.429 3.294 3.294 0 0 1 1.017-.154Zm-.185 4.003c.308 0 .574-.069.798-.206.224-.143.387-.343.487-.6V2.58h-1.243c-.684 0-1.025.234-1.025.703 0 .228.087.408.26.54.174.13.415.197.723.197ZM150.623 2.237c.297.08.526.208.689.386a.941.941 0 0 1 .243.66c0 .268-.089.508-.268.72-.18.205-.429.368-.748.488a3.08 3.08 0 0 1-1.059.171c-.331 0-.655-.042-.975-.128a3.013 3.013 0 0 1-.84-.386l.244-.625c.213.137.456.245.731.325.274.075.551.112.832.112.38 0 .683-.066.907-.197.23-.138.345-.32.345-.549a.543.543 0 0 0-.278-.489c-.179-.114-.434-.17-.764-.17h-.815v-.592h.756c.302 0 .54-.055.714-.163a.502.502 0 0 0 .261-.446c0-.206-.104-.366-.311-.48-.202-.114-.477-.171-.824-.171-.442 0-.91.117-1.403.351l-.219-.634a3.678 3.678 0 0 1 1.706-.42c.359 0 .681.051.966.154.286.103.51.249.673.437a.96.96 0 0 1 .243.643.917.917 0 0 1-.218.6 1.353 1.353 0 0 1-.588.403ZM154.294.06h.807v3.308L157.832.06h.731v4.542h-.807V1.294l-2.722 3.308h-.74V.06ZM161.641.06h.806v1.928h2.538V.06h.807v4.542h-.807V2.7h-2.538v1.902h-.806V.06Z" fill="#231F20"/></svg>