<svg width="1120" height="556" viewBox="0 0 1120 556" fill="none" xmlns="http://www.w3.org/2000/svg">
<path d="M0 32C0 20.7989 0 15.1984 2.17987 10.9202C4.09734 7.15695 7.15695 4.09734 10.9202 2.17987C15.1984 0 20.799 0 32 0H1088C1099.2 0 1104.8 0 1109.08 2.17987C1112.84 4.09734 1115.9 7.15695 1117.82 10.9202C1120 15.1984 1120 20.799 1120 32V426.73C1120 437.061 1120 442.226 1118.06 446.307C1116.34 449.9 1113.6 452.902 1110.17 454.926C1106.28 457.225 1101.14 457.684 1090.85 458.603L34.8459 552.889C22.7578 553.968 16.7137 554.508 12.0479 552.486C7.94886 550.71 4.5625 547.612 2.42877 543.687C0 539.22 0 533.152 0 521.016V32Z" fill="url(#paint0_linear_2_413)"/>
<mask id="mask0_2_413" style="mask-type:alpha" maskUnits="userSpaceOnUse" x="0" y="0" width="1120" height="554">
<path d="M0 32C0 20.7989 0 15.1984 2.17987 10.9202C4.09734 7.15695 7.15695 4.09734 10.9202 2.17987C15.1984 0 20.799 0 32 0H1088C1099.2 0 1104.8 0 1109.08 2.17987C1112.84 4.09734 1115.9 7.15695 1117.82 10.9202C1120 15.1984 1120 20.799 1120 32V426.73C1120 437.061 1120 442.226 1118.06 446.307C1116.34 449.9 1113.6 452.902 1110.17 454.926C1106.28 457.225 1101.14 457.684 1090.85 458.603L34.8459 552.889C22.7578 553.968 16.7137 554.508 12.0479 552.486C7.94886 550.71 4.5625 547.612 2.42877 543.687C0 539.22 0 533.152 0 521.016V32Z" fill="url(#paint1_linear_2_413)"/>
</mask>
<g mask="url(#mask0_2_413)">
<g filter="url(#filter0_f_2_413)">
<path d="M76.5 657C162.933 657 233 586.933 233 500.5C233 414.067 162.933 344 76.5 344C-9.93256 344 -80 414.067 -80 500.5C-80 586.933 -9.93256 657 76.5 657Z" fill="#FF94E1" fill-opacity="0.8"/>
</g>
<g opacity="0.7" filter="url(#filter1_f_2_413)">
<path opacity="0.7" d="M1037.5 242C1123.93 242 1194 171.933 1194 85.5C1194 -0.932564 1123.93 -71 1037.5 -71C951.067 -71 881 -0.932564 881 85.5C881 171.933 951.067 242 1037.5 242Z" fill="#A157FF"/>
</g>
</g>
<defs>
<filter id="filter0_f_2_413" x="-504" y="-80" width="1161" height="1161" filterUnits="userSpaceOnUse" color-interpolation-filters="sRGB">
<feFlood flood-opacity="0" result="BackgroundImageFix"/>
<feBlend mode="normal" in="SourceGraphic" in2="BackgroundImageFix" result="shape"/>
<feGaussianBlur stdDeviation="212" result="effect1_foregroundBlur_2_413"/>
</filter>
<filter id="filter1_f_2_413" x="457" y="-495" width="1161" height="1161" filterUnits="userSpaceOnUse" color-interpolation-filters="sRGB">
<feFlood flood-opacity="0" result="BackgroundImageFix"/>
<feBlend mode="normal" in="SourceGraphic" in2="BackgroundImageFix" result="shape"/>
<feGaussianBlur stdDeviation="212" result="effect1_foregroundBlur_2_413"/>
</filter>
<linearGradient id="paint0_linear_2_413" x1="560" y1="0" x2="560" y2="546.071" gradientUnits="userSpaceOnUse">
<stop stop-color="#3D3B44"/>
<stop offset="1" stop-color="#2F2C3C"/>
</linearGradient>
<linearGradient id="paint1_linear_2_413" x1="560" y1="0" x2="560" y2="546.071" gradientUnits="userSpaceOnUse">
<stop stop-color="#3D3B44"/>
<stop offset="1" stop-color="#2F2C3C"/>
</linearGradient>
</defs>
</svg>
