<svg width="28" height="18" viewBox="0 0 28 18" fill="none" xmlns="http://www.w3.org/2000/svg">
<path d="M27 0H1C0.447715 0 0 0.447715 0 1C0 1.55228 0.447715 2 1 2H27C27.5523 2 28 1.55228 28 1C28 0.447715 27.5523 0 27 0Z" fill="white"/>
<path d="M27 8H1C0.447715 8 0 8.44772 0 9C0 9.55228 0.447715 10 1 10H27C27.5523 10 28 9.55228 28 9C28 8.44772 27.5523 8 27 8Z" fill="white"/>
<path d="M16 16H1C0.447715 16 0 16.4477 0 17C0 17.5523 0.447715 18 1 18H16C16.5523 18 17 17.5523 17 17C17 16.4477 16.5523 16 16 16Z" fill="white"/>
</svg>
