<svg width="165" height="67" viewBox="0 0 165 67" fill="none" xmlns="http://www.w3.org/2000/svg">
<path d="M0 16C0 10.3995 0 7.59921 1.08993 5.46009C2.04867 3.57847 3.57847 2.04867 5.46009 1.08993C7.59921 0 10.3995 0 16 0H149C154.601 0 157.401 0 159.54 1.08993C161.422 2.04867 162.951 3.57847 163.91 5.46009C165 7.59921 165 10.3995 165 16V23.7244C165 34.1055 165 39.2961 163.043 43.3887C161.319 46.9927 158.555 49.9979 155.108 52.017C151.194 54.3099 146.021 54.744 135.676 55.6123L17.3382 65.5447C11.3202 66.0499 8.31122 66.3024 5.98986 65.2862C3.95032 64.3934 2.26705 62.8455 1.20678 60.8878C0 58.6595 0 55.64 0 49.6008V16Z" fill="#FF5555"/>
<path d="M75.9102 23.5566C71.8184 23.5566 69.2402 26.3984 69.2402 30.9492C69.2402 35.4902 71.7793 38.3516 75.9102 38.3516C80.0215 38.3516 82.5703 35.4902 82.5703 30.9492C82.5703 26.3984 80.0117 23.5566 75.9102 23.5566ZM75.9102 25.7344C78.4102 25.7344 80.002 27.7559 80.002 30.9492C80.002 34.123 78.4199 36.1738 75.9102 36.1738C73.3711 36.1738 71.8184 34.123 71.8184 30.9492C71.8184 27.7559 73.4102 25.7344 75.9102 25.7344ZM88.3711 33.3906L91.9258 38H94.8652L90.3438 32.2676L94.6602 27.3262H91.8672L88.3516 31.6133H87.8145V27.3262H85.3926V38H87.8145V33.3906H88.3711Z" fill="white"/>
</svg>
