<svg width="48" height="80" fill="none" xmlns="http://www.w3.org/2000/svg"><g clip-path="url(#a)"><path d="M31.156 33.23s2.49 6.094 8.68 6.808c0 0 .204 6.525-4.7 7.511-2.632.53-5.702.743-7.346-1.604-1.643-2.347 3.366-12.714 3.366-12.714Z" fill="#fff"/><path opacity=".35" d="M35.135 47.55c-2.631.529-5.702.744-7.345-1.604-.483-.69-.392-2.072-.021-3.68l.021.03c1.644 2.346 4.715 2.133 7.345 1.605 2.369-.477 3.546-2.245 4.13-3.945.186.031.377.06.571.082 0 0 .204 6.524-4.7 7.511Z" fill="#371A45"/><path d="M32.197 48.359c-1.806 0-3.626-.476-4.795-2.143-.786-1.121-.456-3.629 1.01-7.667a67.013 67.013 0 0 1 2.32-5.523l.458-.953.402.98c.031.076 2.477 5.847 8.297 6.518l.405.047.012.406c.003.07.047 1.733-.533 3.543-.79 2.468-2.362 4.004-4.545 4.443-.914.184-1.971.349-3.031.349Zm-1.033-14.043c-1.83 3.977-3.996 9.927-2.991 11.36 1.52 2.17 4.47 1.894 6.868 1.412 3.784-.761 4.259-5.268 4.315-6.64-4.705-.735-7.238-4.395-8.19-6.132h-.002Z" fill="#371A45"/><path d="M20.321 74.595c2.038 4.713 10.764 3.938 12.965 1.987 2.256-2-1.822-4.496-1.822-4.496 1.82-3.085 1.873-8.973 1.682-12.755-.103-2.073-.282-3.513-.282-3.513l-12.86-6.947c.008 2.613.446 4.848.838 6.638.835 3.805.782 6.733.444 9.125-.628 4.435-2.232 7.03-.965 9.961Z" fill="#fff"/><path opacity=".35" d="M20.321 74.595c2.037 4.714 10.764 3.938 12.965 1.987.71-.63.793-1.31.571-1.944-2.974 1.75-10.555 3.075-12.024-1.381-.717-2.181.689-3.688 1.454-6.633a3.546 3.546 0 0 1 2.554-2.527c2.64-.68 5.886-2.101 7.226-4.606.029-.05.055-.104.08-.16-.103-2.073-.282-3.513-.282-3.513l-11.513-6.22-1.348-.728c.009 2.613.446 4.848.839 6.638a35.053 35.053 0 0 1 .313 1.62c.021.13.043.257.061.386a26.312 26.312 0 0 1 .185 1.488 23.627 23.627 0 0 1 .074 3.777l-.026.38-.021.246a11.818 11.818 0 0 1-.04.41c-.029.28-.064.551-.101.816-.63 4.438-2.234 7.034-.967 9.964Z" fill="#371A45"/><path d="M27.49 78.579a12.827 12.827 0 0 1-2.757-.289c-2.407-.533-4.082-1.747-4.843-3.509-.917-2.12-.448-4.021.146-6.429.74-3.004 1.664-6.742.347-12.744-.436-1.99-.841-4.183-.85-6.738a.47.47 0 0 1 .942-.003c.008 2.467.401 4.6.828 6.54 1.363 6.214.411 10.07-.353 13.17-.574 2.323-.987 4.002-.197 5.83.805 1.862 2.719 2.64 4.183 2.964 3.09.685 6.791-.038 8.036-1.142.383-.34.552-.695.517-1.088-.096-1.091-1.674-2.286-2.274-2.655l-.393-.241.234-.398c2.704-4.584 1.353-15.859 1.339-15.972a.47.47 0 0 1 .755-.422.47.47 0 0 1 .18.307c.058.464 1.335 11.129-1.247 16.173.731.515 2.22 1.724 2.345 3.125.042.482-.067 1.199-.83 1.876-1.048.93-3.503 1.645-6.108 1.645Z" fill="#371A45"/><path d="M23.869 68.425c-2.024 0-3.52-.16-3.664-.176a.354.354 0 0 1-.182-.626.354.354 0 0 1 .26-.076c.082.01 8.274.885 12.566-1.523a.354.354 0 0 1 .511.403.353.353 0 0 1-.165.212c-2.62 1.47-6.49 1.786-9.326 1.786ZM25.092 72.2c.2-.221.438-.384.687-.525.125-.07.255-.13.386-.187a7.193 7.193 0 0 1 2.096-.468 6.364 6.364 0 0 1 1.74.095c.58.094 1.134.303 1.665.546a.47.47 0 0 1-.369.864l-.033-.013c-.475-.188-.95-.377-1.451-.478-.247-.067-.502-.092-.755-.136-.127-.014-.256-.02-.384-.03a3.538 3.538 0 0 0-.386-.018 7.726 7.726 0 0 0-1.558.129c-.517.1-1.031.212-1.597.29h-.003a.041.041 0 0 1-.036-.068l-.002-.002Z" fill="#371A45"/><path d="M2.485 56.187c2.537 3.302 9.144 2.157 9.144 2.157l.057-22.31.012-4.506s-3.769.1-6.632 1.281c-1.38.568-2.55 1.388-2.986 2.568-1.523 4.099-1.68 18.097.405 20.81Z" fill="#fff"/><path opacity=".35" d="M.939 44.685c-.089 4.892.375 9.978 1.545 11.502 2.537 3.302 9.144 2.157 9.144 2.157l.069-26.816s-.07.002-.2.01l-.052 20.906S4.838 53.588 2.3 50.286c-.687-.893-1.13-3.014-1.362-5.601Z" fill="#371A45"/><path d="M9.03 59.012c-2.234 0-5.3-.43-6.92-2.539C.672 54.6.476 48.738.459 46.305c-.033-4.646.44-9.103 1.18-11.092 1.44-3.882 9.696-4.146 10.046-4.156a.473.473 0 0 1 .463.641.47.47 0 0 1-.438.3c-.079.002-7.967.253-9.188 3.542C.976 39.702.931 53.392 2.86 55.9c2.332 3.036 8.626 1.992 8.689 1.981a.473.473 0 0 1 .54.567.47.47 0 0 1-.38.36c-.11.02-1.216.204-2.678.204Z" fill="#371A45"/><path d="m1.424 46.742 4.502.337a.885.885 0 0 1 .805.722c.263 1.45.696 4.83-.717 5.946-1.173.927-3.077.818-4.192-.125-1.248-1.054-1.37-4.369-1.349-6.01a.883.883 0 0 1 .951-.87Z" fill="#fff"/><path opacity=".35" d="M6.731 47.802c.263 1.45.696 4.83-.717 5.945-1.173.927-3.077.818-4.193-.125-.767-.649-1.109-2.152-1.253-3.595.203.72.521 1.306.918 1.69 2.27 2.2 3.963-.395 3.963-.395s.294.63.529.666c.98.15.777-2.912.635-4.494a.859.859 0 0 1 .118.308Z" fill="#371A45"/><path d="M4.03 54.86c-.905 0-1.822-.295-2.513-.879-1.304-1.1-1.543-4.075-1.515-6.375a1.352 1.352 0 0 1 1.459-1.333l4.502.337a1.357 1.357 0 0 1 1.234 1.108c.337 1.861.67 5.167-.89 6.398-.63.498-1.449.744-2.276.744Zm-2.673-7.65a.415.415 0 0 0-.413.408c-.036 2.88.407 4.99 1.181 5.645.98.828 2.627.88 3.596.115.844-.667 1.048-2.72.545-5.493a.411.411 0 0 0-.377-.337l-4.5-.338h-.032Z" fill="#371A45"/><path d="M5.282 48.685c.095.546.187 1.081.227 1.636a6.814 6.814 0 0 1-.07 1.692c-.1.569-.303 1.16-.7 1.663a2.77 2.77 0 0 1-.714.634 2.953 2.953 0 0 1-.87.357.431.431 0 0 1-.483-.618.43.43 0 0 1 .246-.207l.012-.004c.448-.148.836-.375 1.128-.72.296-.34.5-.789.64-1.274s.215-1.008.293-1.54c.017-.133.036-.267.057-.4.019-.135.038-.27.06-.406.04-.275.097-.546.174-.813ZM4.087 34.988c.432-.164.867-.194 1.297-.186.43.009.86.024 1.291.062.43.034.859.086 1.286.158.429.069.853.161 1.271.277a.43.43 0 0 1-.206.834l-.007-.001-1.217-.269-.613-.128-.616-.12c-.411-.075-.825-.153-1.24-.218-.416-.065-.83-.15-1.247-.337a.039.039 0 0 1-.022-.037c0-.005 0-.01.003-.014a.04.04 0 0 1 .02-.02Z" fill="#371A45"/><path opacity=".35" d="M5.87 32.809a19.006 19.006 0 0 0 6.62 3.225l.012-4.506s-3.769.1-6.632 1.28ZM21.935 55.565Z" fill="#371A45"/><path d="M33.324 56.785c-1.8 3.365-7.242 4.66-9.503 4.818a18.73 18.73 0 0 1-8.823-1.55c-2.227-.99-4.06-2.594-5.29-4.678a11.728 11.728 0 0 1-1.003-2.184c-.402-1.189-.631-2.72-.679-4.534-.094-3.508.488-8.063 1.792-13.207.195-.764.405-1.54.63-2.329a88.97 88.97 0 0 1 2.419-7.22l17.603-.95c.792 4.14 1.465 7.943 2.009 11.377.1.635.195 1.258.287 1.869 1.475 9.848 1.765 16.333.558 18.588Z" fill="#fff"/><path opacity=".35" d="M8.744 53.306c1.096 3.101 3.338 5.451 6.255 6.746a18.7 18.7 0 0 0 8.822 1.55c2.261-.157 7.703-1.452 9.503-4.817.56-1.046.798-3 .744-5.78-.045 1.65-.287 2.844-.744 3.543-1.8 2.76-7.242 3.822-9.502 3.952-4.367.252-7.687-.858-8.823-1.272-2.917-1.062-5.16-2.99-6.255-5.534-.458-1.06-.701-2.463-.725-4.145-.03 2.362.218 4.32.725 5.757ZM33.58 44.349c.287 2.57.453 4.797.488 6.656.046-1.732-.123-3.965-.487-6.656Z" fill="#371A45"/><path opacity=".35" d="M8.019 47.55c.012-1 .073-2.071.185-3.206a23.817 23.817 0 0 0-.185 3.205Z" fill="#371A45"/><path d="M22.53 62.119a19.13 19.13 0 0 1-7.722-1.636c-3.08-1.368-5.392-3.861-6.51-7.021-1.86-5.265-.202-16.408 4.128-27.729a.47.47 0 1 1 .881.336c-4.915 12.851-5.61 22.86-4.119 27.08 1.03 2.913 3.162 5.212 6.003 6.474a18.156 18.156 0 0 0 8.576 1.512l2.294-.374c1.492-.357 4.232-1.215 5.943-2.979.357-.363.661-.773.905-1.22 1.528-2.856.552-13.46-2.902-31.523a.468.468 0 0 1 .373-.56.471.471 0 0 1 .553.383c3.544 18.536 4.462 29.05 2.807 32.143a6.423 6.423 0 0 1-1.06 1.432c-1.883 1.94-4.829 2.864-6.417 3.242l-.034.007-2.374.388c-.452.03-.894.045-1.325.045Z" fill="#371A45"/><path d="M22.763 59.026s1.951 9.73-2.097 14.454c0 0 4.078 2.496 1.822 4.497-2.2 1.951-10.926 2.727-12.964-1.987-1.951-4.512 2.903-8.226.521-19.087-.393-1.791-.83-4.025-.839-6.639l13.557 8.762Z" fill="#fff"/><path opacity=".35" d="M10.045 56.93c2.381 10.86-2.472 14.577-.522 19.087 2.038 4.713 10.764 3.938 12.965 1.987.591-.524.746-1.082.655-1.621-2.961 1.56-10.383 1.827-12.241-2.471-.672-1.552 3.384-4.57 3.41-7.943.024-2.826-.77-5.715-1.6-7.95-.668-1.8.608-3.717 2.528-3.818l.052-.003a23.143 23.143 0 0 0 3.543-.474s2.056-2.596-.235-4.06c0 0-6.966.955-10.575-1.007.052 1.919.292 3.54.718 4.799.208.066.442.134.7.2.166 1.214.39 2.309.602 3.273Z" fill="#371A45"/><path d="M22.917 59.022c.242.602.39 1.22.516 1.844.12.625.2 1.256.244 1.89.1 1.273.082 2.552-.052 3.822-.029.319-.074.636-.115.954-.05.317-.096.635-.161.95-.124.63-.27 1.26-.474 1.878-.205.617-.438 1.227-.75 1.807a9.356 9.356 0 0 1-1.102 1.646l-.112-.707c.23.146.429.287.633.442.205.156.398.315.588.487.377.346.739.722 1.033 1.183.154.238.276.494.364.762.096.292.13.601.098.907-.038.31-.145.608-.314.872a2.63 2.63 0 0 1-.268.353c-.047.054-.1.101-.15.151a1.588 1.588 0 0 1-.157.144c-.437.36-.91.591-1.385.785-.472.186-.957.337-1.452.451a14.44 14.44 0 0 1-4.472.299 12.528 12.528 0 0 1-1.49-.231c-.983-.22-1.959-.575-2.83-1.15a6.034 6.034 0 0 1-1.184-1.033 5.587 5.587 0 0 1-.842-1.344 6.486 6.486 0 0 1-.484-3.047c.072-1.019.303-1.982.53-2.923.228-.942.466-1.867.647-2.8.373-1.86.536-3.751.446-5.643a27.628 27.628 0 0 0-.28-2.828c-.147-.941-.347-1.856-.55-2.817-.191-.954-.414-1.912-.503-2.89-.09-.98-.096-1.971.16-2.945a.163.163 0 0 1 .314-.002c.266.956.384 1.89.518 2.828.135.94.242 1.883.435 2.82.195.927.408 1.897.558 2.864.147.97.243 1.948.29 2.93.044.983.028 1.968-.05 2.95a25.6 25.6 0 0 1-.413 2.916c-.188.962-.427 1.907-.656 2.84-.229.933-.442 1.855-.506 2.764-.07.908.062 1.793.411 2.614.177.397.409.767.689 1.1.292.33.626.62.993.863.743.493 1.613.815 2.511 1.015.45.103.911.164 1.373.213a13.462 13.462 0 0 0 4.17-.279c.448-.103.887-.24 1.314-.408.418-.167.82-.375 1.129-.63.318-.261.522-.578.56-.904.04-.326-.095-.707-.32-1.06-.225-.353-.535-.685-.869-.99a7.933 7.933 0 0 0-.527-.437 7.888 7.888 0 0 0-.554-.388l-.461-.29.35-.417c.378-.454.707-.948.983-1.471.283-.524.498-1.088.688-1.66a13.05 13.05 0 0 0 .44-1.762c.111-.6.189-1.207.232-1.816.092-1.222.082-2.452.053-3.684-.042-1.232-.104-2.467-.095-3.723v-.004a.16.16 0 0 1 .309-.057l-.001-.004Z" fill="#371A45"/><path d="M16.739 68.824c-3.52 0-6.4-.892-6.589-.952a.353.353 0 1 1 .214-.672c.07.022 7.155 2.21 12.554-.305a.353.353 0 0 1 .3.64c-2.1.978-4.4 1.289-6.48 1.289Z" fill="#371A45"/><path opacity=".35" d="M33.922 50.255a33.537 33.537 0 0 1-.341-6.76 33.98 33.98 0 0 0 .356 3.678c.227 1.5.297 3.065.158 4.603a20.82 20.82 0 0 0-.173-1.521Z" fill="#371A45"/><path d="m31.813 54.49-11.443.587a2.473 2.473 0 0 1-2.591-2.333l-.313-6.078a2.472 2.472 0 0 1 2.338-2.586l11.442-.587a2.47 2.47 0 0 1 2.59 2.333l.25 4.814.065 1.264a2.472 2.472 0 0 1-2.338 2.586Z" fill="#fff"/><path opacity=".35" d="m31.813 54.49-11.443.587a2.473 2.473 0 0 1-2.591-2.333l-.313-6.078a2.472 2.472 0 0 1 1.848-2.511l1.099.652c.808 4.85 2.325 7.212 8.4 7 2.623-.093 4.256-.577 5.272-1.167l.066 1.265a2.471 2.471 0 0 1-2.338 2.585Z" fill="#371A45"/><path d="M20.242 55.551a2.95 2.95 0 0 1-2.02-.809 2.939 2.939 0 0 1-.913-1.973l-.313-6.08a2.934 2.934 0 0 1 .754-2.114 2.944 2.944 0 0 1 2.03-.965l11.442-.587a2.941 2.941 0 0 1 3.085 2.778l.314 6.079a2.933 2.933 0 0 1-.754 2.114 2.944 2.944 0 0 1-2.03.966l-11.442.587a2.544 2.544 0 0 1-.153.005ZM31.375 43.96c-.035 0-.07 0-.104.002l-11.442.587a2 2 0 0 0-1.89 2.093l.312 6.078a1.999 1.999 0 0 0 2.095 1.888l11.442-.587a2.005 2.005 0 0 0 1.891-2.091l-.312-6.08a1.998 1.998 0 0 0-1.992-1.89Z" fill="#371A45"/><path d="M32.27 54.422c-.15.039-.303.062-.457.068l-11.443.587a2.477 2.477 0 0 1-2.317-1.33 2.417 2.417 0 0 1-.272-1.002l-.14-2.7-.047-.892-.128-2.486a2.472 2.472 0 0 1 2.338-2.586l2.473-.127a2.475 2.475 0 0 0-1.884 2.518l.168 3.283.143 2.797a2.474 2.474 0 0 0 2.59 2.333l8.976-.463Z" fill="#fff"/><path opacity=".35" d="M32.27 54.422c-.15.039-.303.062-.457.068l-11.443.587a2.474 2.474 0 0 1-1.777-.633 2.466 2.466 0 0 1-.812-1.7l-.186-3.591c.32.62.877 1.372 1.709 1.411.456.023.886-.326 1.257-.81l.143 2.797a2.474 2.474 0 0 0 2.591 2.333l8.975-.462Z" fill="#371A45"/><path d="M20.24 55.552a2.948 2.948 0 0 1-2.02-.81 2.938 2.938 0 0 1-.91-1.973l-.314-6.08a2.937 2.937 0 0 1 .755-2.113 2.948 2.948 0 0 1 2.028-.967l2.472-.126.136.927a1.997 1.997 0 0 0-1.524 2.038l.315 6.078a1.997 1.997 0 0 0 2.095 1.888l8.975-.461.14.925a2.79 2.79 0 0 1-.552.082l-11.44.588a3.279 3.279 0 0 1-.156.004Zm.326-11.04-.738.037a2 2 0 0 0-1.89 2.09l.313 6.082a1.997 1.997 0 0 0 2.095 1.887l.82-.042a2.908 2.908 0 0 1-.93-1.992l-.313-6.078a2.923 2.923 0 0 1 .643-1.985Z" fill="#371A45"/><path d="M25.064 49.33c.01.224-.224 2.054-.224 2.054l-1.283.057c-.884.04-1.642-.84-1.693-1.967-.05-1.126.623-2.072 1.507-2.113l1.283-.057s.393 1.658.41 2.025Z" fill="#F55"/><path opacity=".35" d="M25.064 49.33c.01.224-.224 2.054-.224 2.054l-1.283.057c-.884.04-1.642-.84-1.693-1.967-.05-1.126.623-2.072 1.507-2.113l1.283-.057s.393 1.658.41 2.025Z" fill="#371A45"/><path d="M23.499 51.796c-1.045 0-1.93-1.016-1.989-2.305-.029-.624.138-1.222.468-1.685.349-.49.837-.773 1.376-.797l.896-.04a.818.818 0 0 1 .836.634c.21.919.32 1.494.33 1.71.003.057.01.211-.177 1.725a.814.814 0 0 1-.774.716l-.892.04-.074.002Zm.788-4.123h-.005l-.896.041c-.316.015-.612.193-.832.502-.24.335-.36.776-.338 1.242.043.931.638 1.662 1.325 1.631l.89-.04a.11.11 0 0 0 .107-.098c.167-1.354.172-1.575.172-1.607-.003-.063-.035-.362-.314-1.584a.112.112 0 0 0-.109-.087Z" fill="#371A45"/><path d="M24.835 51.387c.884-.04 1.559-.986 1.508-2.113-.052-1.127-.81-2.007-1.694-1.967-.884.04-1.559.986-1.507 2.113.051 1.126.81 2.007 1.693 1.967Z" fill="#F55"/><path d="M24.783 51.737c-1.046 0-1.93-1.016-1.99-2.305-.028-.623.138-1.221.468-1.684.35-.49.838-.773 1.378-.797.54-.024 1.05.213 1.443.668.37.431.591 1.012.62 1.635.028.623-.138 1.222-.469 1.685-.349.49-.837.773-1.377.797a1.495 1.495 0 0 1-.073.001Zm-.072-4.082h-.041c-.316.014-.612.193-.833.501-.238.335-.358.777-.337 1.243.043.93.637 1.661 1.324 1.631.316-.015.612-.193.832-.501.24-.335.359-.777.338-1.244-.022-.466-.181-.894-.45-1.207-.236-.273-.53-.423-.832-.423ZM28.253 54.982a.354.354 0 0 1-.353-.344l-.123-4.41 1.894-1.328-.255-5.311a.352.352 0 0 1 .59-.276c.069.062.11.15.116.242l.274 5.699-1.902 1.334.112 4.031a.353.353 0 0 1-.344.363h-.009Z" fill="#371A45"/><path d="M7.532 46.563s-1.06.84-1.106 2.138c-.054 1.501.887 2.11.887 2.11s4.115 2.103 10.718.705c0 0 1.944-2.452-.22-3.835 0 0-6.97.955-10.28-1.118Z" fill="#fff"/><path opacity=".35" d="M6.427 48.702c-.054 1.5.886 2.107.886 2.107s4.114 2.105 10.719.707c0 0 .639-.809.775-1.757-.032.047-.052.072-.052.072-4.826 1.022-8.323.171-9.856-.358-1.064-.37-1.775-1.334-1.75-2.411v-.045c0-.025.002-.05.006-.074-.308.368-.701.983-.728 1.76Z" fill="#371A45"/><path d="M13.558 52.47c-3.973 0-6.33-1.175-6.46-1.24l-.042-.025c-.047-.03-1.164-.773-1.101-2.52.054-1.497 1.233-2.45 1.283-2.492l.261-.207.283.177c3.128 1.96 9.896 1.06 9.964 1.05l.172-.023.146.093c.683.437 1.089 1.013 1.205 1.711.235 1.4-.824 2.756-.87 2.813l-.104.133-.167.036c-1.692.359-3.224.494-4.57.494Zm-6.003-2.065c.36.17 4.234 1.9 10.2.687.216-.318.718-1.162.585-1.945-.066-.385-.278-.706-.648-.978-1.119.136-6.863.724-10.09-1.022-.267.292-.68.855-.705 1.57-.04 1.1.54 1.599.658 1.688Z" fill="#371A45"/><path opacity=".35" d="m32.478 36.327-.2.133a17.155 17.155 0 0 1-2.493 1.346c-.852.371-1.734.67-2.636.893a16.083 16.083 0 0 1-6.052.328c-4.055-.553-7.85-2.632-10.648-5.905.665-2.32 1.47-4.74 2.419-7.22l17.603-.95c.791 4.14 1.464 7.943 2.007 11.375Z" fill="#371A45"/><path d="M39.297 28.022a18.288 18.288 0 0 1-6.533 6.644 18.865 18.865 0 0 1-2.683 1.324 18.899 18.899 0 0 1-9.36 1.19c-6.499-.824-12.388-4.986-15.047-11.394-3.918-9.44.657-20.174 10.215-23.978A18.835 18.835 0 0 1 22.171.483a18.801 18.801 0 0 1 1.767.016 19.12 19.12 0 0 1 8.831 2.753c.547.333 1.077.694 1.587 1.082a18.502 18.502 0 0 1 5.94 7.68 18.119 18.119 0 0 1-.999 16.008Z" fill="#fff"/><path d="M23.095 37.38a19.132 19.132 0 0 1-2.38-.15C13.98 36.375 8.2 31.997 5.632 25.806c-1.894-4.559-1.881-9.563.033-14.09 1.93-4.565 5.555-8.098 10.21-9.95A18.878 18.878 0 0 1 23.941.451a19.17 19.17 0 0 1 8.852 2.76c.549.334 1.08.696 1.591 1.084a18.62 18.62 0 0 1 5.956 7.7c2.184 5.261 1.819 11.112-1.004 16.05a18.403 18.403 0 0 1-6.55 6.663 18.998 18.998 0 0 1-9.692 2.671ZM22.886.518a18.86 18.86 0 0 0-1.372.05 18.795 18.795 0 0 0-5.605 1.286c-4.63 1.842-8.237 5.358-10.157 9.898-1.905 4.504-1.916 9.482-.034 14.018 2.556 6.16 8.307 10.515 15.01 11.366a18.884 18.884 0 0 0 12.012-2.509A18.31 18.31 0 0 0 39.256 28l.041.023-.04-.023c2.806-4.913 3.17-10.733.997-15.967a18.524 18.524 0 0 0-5.926-7.66 18.815 18.815 0 0 0-2.692-1.705 19.077 19.077 0 0 0-8.75-2.149Z" fill="#371A45"/><path opacity=".35" d="M5.674 25.788c2.659 6.409 8.548 10.57 15.048 11.395A18.938 18.938 0 0 0 30.994 35.6c.606-.28 1.197-.59 1.77-.932a18.308 18.308 0 0 0 5.347-4.829 18.27 18.27 0 0 0 3.065-6.514 18.281 18.281 0 0 1-6.317 6.278 18.558 18.558 0 0 1-2.683 1.325 18.877 18.877 0 0 1-9.359 1.19c-6.5-.824-12.388-4.986-15.048-11.395A18.097 18.097 0 0 1 6.893 9.41a18.125 18.125 0 0 0-1.219 16.378Z" fill="#371A45"/><path d="M23.096 37.698a19.381 19.381 0 0 1-2.419-.153c-6.85-.87-12.727-5.321-15.34-11.618-1.925-4.637-1.913-9.728.035-14.335 1.963-4.643 5.65-8.237 10.384-10.12A19.202 19.202 0 0 1 23.96.134a19.482 19.482 0 0 1 9.001 2.805c.558.34 1.098.708 1.618 1.103a18.935 18.935 0 0 1 6.056 7.83c2.223 5.353 1.85 11.305-1.02 16.33a18.72 18.72 0 0 1-8.468 7.727c-.28.13-.584.26-.928.4a19.36 19.36 0 0 1-5.419 1.293c-.563.05-1.133.075-1.704.075ZM22.886.835a18.645 18.645 0 0 0-1.347.049 18.473 18.473 0 0 0-5.513 1.265c-4.55 1.81-8.095 5.265-9.981 9.727-1.871 4.425-1.883 9.316-.033 13.772 2.513 6.056 8.167 10.337 14.756 11.173a18.576 18.576 0 0 0 10.073-1.553 18.476 18.476 0 0 0 1.736-.913 17.99 17.99 0 0 0 6.403-6.513c2.758-4.827 3.116-10.545.98-15.688a18.204 18.204 0 0 0-5.825-7.53A18.442 18.442 0 0 0 31.49 2.95 18.757 18.757 0 0 0 22.887.835Z" fill="#371A45"/><path d="M23.095 37.803a19.667 19.667 0 0 1-2.432-.153C13.777 36.775 7.866 32.3 5.24 25.968c-1.936-4.664-1.924-9.784.034-14.417 1.974-4.668 5.681-8.284 10.444-10.178A19.302 19.302 0 0 1 23.967.03a19.59 19.59 0 0 1 9.049 2.82 19.161 19.161 0 0 1 7.718 8.983c2.235 5.384 1.861 11.368-1.026 16.421a18.826 18.826 0 0 1-6.7 6.817 19.4 19.4 0 0 1-9.913 2.732ZM22.887.941a18.203 18.203 0 0 0-1.34.048c-1.881.135-3.73.56-5.482 1.257-4.524 1.801-8.048 5.235-9.923 9.67-1.86 4.4-1.87 9.262-.032 13.69 2.498 6.02 8.12 10.277 14.672 11.109a18.464 18.464 0 0 0 11.742-2.452 17.88 17.88 0 0 0 6.364-6.475c2.742-4.799 3.097-10.482.976-15.595a18.218 18.218 0 0 0-8.422-9.152A18.654 18.654 0 0 0 23.915.968a19.48 19.48 0 0 0-1.028-.027Z" fill="#371A45"/><path d="M36.435 31.794c-11.072 7.32-25.9 1.64-26.492-11.395-.402-8.867 8.1-16.05 16.77-15.835C33.023 4.72 39.131 7.59 41.62 17.3c0 0 .428 4.462-.842 7.402-1.27 2.939-3.01 5.584-3.01 5.584l-1.333 1.507Z" fill="#371A45"/><path d="M9.943 20.4c.592 13.033 15.42 18.712 26.492 11.395l.27-.306c-12.09 1.874-24-5.48-24.848-18.648-1.315 2.246-2.038 4.822-1.914 7.559Z" fill="#220F2D"/><path d="M25.924 37.342c-4.801 0-9.387-1.668-12.751-4.674-3.46-3.091-5.405-7.3-5.627-12.172-.203-4.475 1.557-8.847 4.957-12.31 3.776-3.85 9.134-6.07 14.334-5.94 2.889.072 5.48.644 7.705 1.7l.04.02.035.026a19.003 19.003 0 0 1 6.079 7.858c2.23 5.371 1.857 11.344-1.025 16.386a18.783 18.783 0 0 1-6.685 6.801 19.29 19.29 0 0 1-2.742 1.353c-.944.376-1.915.677-2.906.9l-.067.009c-.45.03-.9.043-1.348.043ZM26.405 3.1c-4.835 0-9.775 2.107-13.288 5.687-3.231 3.29-4.904 7.435-4.712 11.67.211 4.635 2.058 8.637 5.34 11.57 3.5 3.126 8.394 4.734 13.435 4.416a18.442 18.442 0 0 0 5.362-2.145 17.923 17.923 0 0 0 6.38-6.49c2.747-4.809 3.103-10.506.975-15.63a18.14 18.14 0 0 0-5.767-7.475c-2.106-.992-4.567-1.53-7.317-1.598a16.076 16.076 0 0 0-.408-.005Z" fill="#371A45"/><path d="M25.875 35.498c-2.768 0-5.499-.62-7.976-1.875-5.093-2.584-8.165-7.396-8.428-13.203-.182-4.006 1.393-7.919 4.435-11.018 3.376-3.44 8.167-5.425 12.817-5.31 8.011.198 13.176 4.603 15.351 13.091l.013.072c.018.187.425 4.617-.878 7.633-1.272 2.943-2.977 5.546-3.049 5.656l-.04.053-1.374 1.554-.052.034c-3.318 2.194-7.102 3.313-10.819 3.313ZM26.34 5.03c-4.278 0-8.649 1.865-11.758 5.033-2.857 2.91-4.337 6.574-4.167 10.316.248 5.458 3.132 9.98 7.913 12.406 5.48 2.78 12.295 2.262 17.796-1.348l1.269-1.435c.186-.287 1.783-2.776 2.953-5.485 1.148-2.658.844-6.717.808-7.135C39.09 9.374 34.228 5.22 26.701 5.034c-.12-.003-.241-.005-.362-.005Z" fill="#371A45"/><path d="M1.66 19.42c-.28 3.623 1.657 6.835 4.328 7.175 2.672.34 5.064-2.322 5.343-5.945.003-.023.004-.047.005-.07.25-3.594-1.681-6.767-4.333-7.104-2.063-.263-3.96 1.266-4.846 3.645a8.505 8.505 0 0 0-.498 2.3Z" fill="#fff"/><path opacity=".35" d="M1.66 19.42c-.28 3.623 1.657 6.835 4.328 7.175 2.672.34 5.064-2.322 5.343-5.945.003-.022.004-.047.005-.07-.322.335-.808.643-1.418.44-1.067-.354-2.834-2.93-2.834-2.93s-2.134-.434-4.928-.97a8.505 8.505 0 0 0-.497 2.3Z" fill="#371A45"/><path d="M6.453 27.095c-.176 0-.351-.012-.526-.034-2.912-.37-5.038-3.814-4.74-7.675.173-2.23 1.1-4.182 2.544-5.356 1.004-.816 2.155-1.169 3.328-1.02 2.912.37 5.038 3.815 4.74 7.678-.172 2.23-1.1 4.181-2.543 5.356-.852.692-1.813 1.05-2.803 1.05Zm.088-13.178c-.775 0-1.533.286-2.215.84-1.226.998-2.048 2.755-2.198 4.7-.26 3.37 1.497 6.363 3.918 6.67.912.115 1.817-.166 2.616-.815 1.226-.997 2.048-2.754 2.198-4.699.26-3.37-1.497-6.363-3.919-6.671a3.188 3.188 0 0 0-.4-.025Z" fill="#371A45"/><path d="M5.04 25.665c2.188-.044 3.915-2.421 3.857-5.31-.058-2.888-1.878-5.194-4.066-5.15-2.187.043-3.914 2.42-3.856 5.309.058 2.888 1.878 5.194 4.066 5.15Z" fill="#fff"/><path d="M4.929 25.739a3.176 3.176 0 0 1-1.43-.35c-1.156-.58-2.037-1.797-2.421-3.342-.687-2.772.459-5.743 2.556-6.622.872-.365 1.787-.331 2.646.1 1.156.578 2.037 1.796 2.42 3.341.69 2.772-.458 5.742-2.555 6.622a3.13 3.13 0 0 1-1.216.25ZM4.85 15.273a3.028 3.028 0 0 0-1.176.243c-2.054.861-3.175 3.78-2.499 6.507.376 1.518 1.24 2.712 2.37 3.278.832.417 1.719.45 2.563.096 2.054-.861 3.175-3.78 2.5-6.507-.377-1.518-1.24-2.712-2.37-3.278a3.078 3.078 0 0 0-1.388-.34Z" fill="#371A45"/><path opacity=".35" d="M8.452 22.965c.318-.938.376-1.967.215-2.95-.91 2.078-2.952 2.79-4.73 1.576-1.15-.785-1.923-2.196-2.172-3.718-.057.13-.11.269-.16.41-.81 2.39.066 5.375 1.957 6.668 1.89 1.292 4.08.402 4.89-1.986Z" fill="#371A45"/><path d="M4.831 26.162c-.136 0-.272-.01-.407-.028C2.17 25.829.527 22.984.76 19.79c.14-1.893.919-3.587 2.086-4.533.756-.612 1.617-.874 2.489-.756 2.254.304 3.898 3.15 3.664 6.343-.14 1.893-.918 3.587-2.086 4.532-.638.518-1.35.785-2.082.785Zm.103-10.745c-.517 0-1.027.195-1.492.573-.97.785-1.62 2.232-1.74 3.87-.198 2.707 1.08 5.103 2.85 5.342.608.082 1.22-.11 1.769-.554.968-.785 1.619-2.232 1.739-3.87.198-2.707-1.08-5.103-2.85-5.342a2.022 2.022 0 0 0-.276-.019Z" fill="#371A45"/><path opacity=".7" d="M22.087 7.948s8.27.725 12.732 5.531l.014.015a7.711 7.711 0 0 1 1.875 3.593c.387 1.769.391 3.042.35 4.163-.123 3.408-.83 4.98-.83 4.98 2.035-1.72 3.22-3.72 3.352-6.56.012-.279.015-.567.007-.865 0-.068-.005-.136-.009-.204.002 0 0-.002 0-.004a18.873 18.873 0 0 0-.358-2.265c-.586-2.647-1.971-6.125-5.251-7.847-6.13-3.22-12.154-.905-11.882-.537ZM18.243 16.796c.484-1.51-.19-3.074-1.506-3.495-1.315-.421-2.774.46-3.258 1.97-.485 1.508.19 3.073 1.506 3.494 1.315.421 2.774-.46 3.258-1.97ZM14.971 21.413c.257-.602.04-1.272-.484-1.495-.524-.224-1.158.083-1.415.685-.257.602-.04 1.272.484 1.495.525.224 1.158-.083 1.415-.685Z" fill="#fff"/><path d="M13.61 73.902c.429-.489 1.005-.794 1.6-.999a7.617 7.617 0 0 1 1.863-.407c.159-.018.319-.028.479-.029.16 0 .321-.015.481 0l.481.026c.16.011.319.043.478.064.32.035.63.126.941.2.158.033.305.099.457.149l.45.165a.47.47 0 1 1-.309.888l-.04-.013-.41-.135c-.137-.045-.27-.101-.41-.132-.279-.069-.554-.155-.837-.198a8.288 8.288 0 0 0-3.44.052c-.57.135-1.13.29-1.74.437h-.003a.04.04 0 0 1-.04-.066v-.002Z" fill="#371A45"/><path d="M11.271 44.044s2.05 5.832 9.038 6.352c6.989.52 10.693-4.098 11.793-6.352H11.271Z" fill="#fff"/><path opacity=".35" d="M32.102 44.044c-1.1 2.254-4.802 6.872-11.791 6.352-5.169-.385-7.636-3.674-8.57-5.36 1.4 1.196 3.372 2.643 6.168 2.857 4.751.364 5.192-1.823 6.023-3.849h8.17Z" fill="#371A45"/><path d="M11.42 43.992c.408.39.707.808 1 1.232.3.417.585.842.907 1.243.323.4.684.769 1.078 1.1.39.336.806.638 1.245.904.44.267.899.5 1.374.696.478.192.97.35 1.47.472 1.004.243 2.047.333 3.09.326a12.29 12.29 0 0 0 3.074-.434c.998-.276 1.953-.69 2.837-1.23a11.58 11.58 0 0 0 2.917-2.535c.16-.203.308-.414.446-.633.142-.216.297-.422.464-.618.181-.215.397-.397.64-.539l.004-.002a.187.187 0 0 1 .278.14c.038.324-.034.61-.139.875-.111.26-.255.504-.428.728-.172.223-.36.43-.537.648-.18.213-.363.425-.555.628a12.497 12.497 0 0 1-2.598 2.111 12.101 12.101 0 0 1-3.076 1.334c-1.08.304-2.2.445-3.313.468-1.112.008-2.232-.088-3.326-.352a11.762 11.762 0 0 1-1.607-.516 10.945 10.945 0 0 1-1.508-.763c-.482-.292-.94-.624-1.367-.992a14.249 14.249 0 0 1-1.205-1.183 6.899 6.899 0 0 1-1-1.36c-.27-.495-.487-1.026-.464-1.643a.169.169 0 0 1 .285-.114l.014.01Z" fill="#371A45"/><path opacity=".35" d="M43.175 46.874h-2.482l-2.202-2.83h2.58l1.513 1.988c.212.273.41.554.591.842Z" fill="#371A45"/><path opacity=".4" d="M46.517 45.64h-3.598v.811h3.598v-.812Z" fill="#fff"/><path opacity=".35" d="M32.45 46.874h-2.484l-2.2-2.83h2.581l1.512 1.988c.212.273.409.553.59.842Z" fill="#371A45"/><path d="M33.671 42H13a2 2 0 0 0-2 2v22.417a2 2 0 0 0 2 2h20.671V42Z" fill="#16B247"/><path d="M44.575 42H33v26.417h11.575a3 3 0 0 0 3-3V45a3 3 0 0 0-3-3Z" fill="#16B247"/><path d="M27.236 43.108h-5.561v6.371h5.56v-6.371Z" fill="#fff"/><path d="M25.67 44.093h-3.359v.347h3.36v-.347ZM26.497 46.149h-3.36v.347h3.36v-.347Z" fill="#998376"/><path d="M24.397 45.077h-2.085v.348h2.085v-.348Z" fill="#8A766A"/><path d="M25.657 45.077h-.854v.348h.854v-.348Z" fill="#6D5041"/><path d="M25.657 45.077h-.854v.348h.854v-.348ZM24.397 47.22h-2.085v.348h2.085v-.348ZM25.657 47.22h-.854v.348h.854v-.348ZM26.396 45.077h-.391v.348h.391v-.348Z" fill="#7F6D62"/><path d="M23.159 48.19h-.854v.349h.854v-.348Z" fill="#998376"/><path d="M23.898 48.19h-.391v.349h.391v-.348ZM22.717 46.149h-.39v.347h.39v-.347Z" fill="#7F6D62"/><path fill-rule="evenodd" clip-rule="evenodd" d="M12.531 42.07h12.483c.318-.267.73-.453 1.26-.473 1.533-.058 1.898 1.222 2.163 2.148.096.337.179.627.3.789.453.607 4.088.698 5.391.43 1.678-.344 3.142-4.363-2.343-5.803-3.307-.868-6.257.168-8.794 1.06-1.937.68-3.633 1.275-5.065.875-2.48-.693-3.052-4.329-3.052-4.329L12.53 42.07Z" fill="#fff"/><path fill-rule="evenodd" clip-rule="evenodd" d="M15.37 37.44c-.111-.23-.224-.462-.341-.696l-.004-.014a.162.162 0 0 0-.306.058c-.045.471.015.924.115 1.374.108.454.275.891.496 1.302a4.718 4.718 0 0 0 .855 1.162c.36.355.79.632 1.263.814.479.185.98.25 1.463.252.483.001.952-.066 1.401-.162.9-.193 1.744-.485 2.571-.776l.058-.02c.808-.285 1.605-.566 2.41-.803.823-.238 1.653-.438 2.49-.539 1.668-.223 3.377-.036 4.922.583.378.147.739.335 1.076.56.328.222.62.482.85.779.226.289.382.626.455.985.067.354.044.718-.066 1.061-.109.342-.307.66-.56.879a1.158 1.158 0 0 1-.399.236c-.014.003-.026.007-.038.011-.02.006-.039.012-.068.018a3.602 3.602 0 0 0-.035.006l-.108.019c-.098.015-.2.028-.302.039a15.98 15.98 0 0 1-2.543.028 10.407 10.407 0 0 1-1.245-.146 3.184 3.184 0 0 1-.545-.148.702.702 0 0 1-.127-.065.8.8 0 0 1-.058-.121c-.053-.133-.101-.303-.152-.48l-.029-.1a8.673 8.673 0 0 0-.21-.658 3.899 3.899 0 0 0-.324-.674 2.413 2.413 0 0 0-.534-.612 2.044 2.044 0 0 0-.75-.381 2.89 2.89 0 0 0-1.58.05 2.426 2.426 0 0 0-1.155.805h1.976c.362-.012.68.064.918.26.244.193.426.512.563.882.066.175.12.36.179.558l.01.031.04.141c.047.165.096.337.171.53.027.068.058.135.093.2a.99.99 0 0 0 .178.242c.152.141.278.197.398.25l.036.017c.233.088.474.154.72.199.45.081.905.135 1.362.162.901.055 1.79.059 2.705-.031a6.496 6.496 0 0 0 .53-.077 2.292 2.292 0 0 0 .21-.055c.27-.09.517-.233.728-.422.407-.356.681-.811.84-1.3a3.097 3.097 0 0 0 .094-1.528 3.307 3.307 0 0 0-.631-1.377 4.549 4.549 0 0 0-1.073-.988 6.505 6.505 0 0 0-1.248-.652c-1.706-.687-3.593-.885-5.394-.645-.904.109-1.782.322-2.64.57-.742.218-1.467.472-2.183.722l-.33.115-.014.005c-.819.284-1.63.567-2.44.74a5.66 5.66 0 0 1-1.203.14 2.817 2.817 0 0 1-1.106-.213c-.677-.286-1.203-.88-1.629-1.558-.292-.483-.545-1.006-.806-1.545Zm13.74 6.8Z" fill="#371A45"/><path d="M36.687 42.188s.574.375.977 2.057c.23.963 5.747 1.57 6.858-.09 1.015-1.516.284-4.29-1.878-5.118-2.03-.777-8.18-.777-9.502 3.04l3.545.11Z" fill="#fff"/><path opacity=".35" d="M44.895 43.272a2.63 2.63 0 0 1-.373.883c-1.111 1.66-6.628 1.053-6.858.09-.401-1.683-.978-2.057-.978-2.057l-2.054-.065c.878-.614 1.936-1.203 2.564-1.014.805.243.737.802 1.318 2.309.381.99 4.757 1.05 6.38-.146Z" fill="#371A45"/><path d="M41.213 45.663c-.636 0-1.27-.053-1.898-.162-1.272-.23-1.981-.614-2.109-1.146-.19-.792-.413-1.252-.568-1.5a.444.444 0 0 0-.362-.209l-1.606-.05a1.384 1.384 0 0 1-1.319-1.625 1.38 1.38 0 0 1 .35-.697c2.317-2.454 7.236-2.394 9.114-1.676 1.148.439 2.03 1.4 2.424 2.64.365 1.145.244 2.333-.323 3.179-.629.938-2.208 1.246-3.703 1.246Zm-3.097-1.557c.21.241 1.573.646 3.276.615 1.365-.026 2.415-.343 2.74-.827.401-.602.483-1.51.209-2.371-.308-.965-.987-1.71-1.864-2.046-1.478-.566-6.014-.758-8.091 1.442a.426.426 0 0 0-.084.462.436.436 0 0 0 .395.274l1.607.05a1.387 1.387 0 0 1 1.132.652c.277.44.505 1.027.68 1.748Z" fill="#371A45"/><path opacity=".35" fill-rule="evenodd" clip-rule="evenodd" d="M34.128 44.965c.785-.161 1.525-1.126 1.525-2.256-.289.487-.717.833-1.159.923-1.303.268-4.659-.025-5.11-.632-.093-.125-.183-.3-.286-.498-.394-.766-.973-1.89-2.633-1.94-.928-.027-1.533.578-1.965 1.394l.735-.048a2.046 2.046 0 0 1 1.039-.312c1.532-.057 1.898 1.223 2.163 2.15.096.336.179.625.3.787.452.607 4.088.7 5.391.432Z" fill="#371A45"/><path opacity=".4" d="M42.674 40.028c.178-.503.805-.72 1.632-.838.612-.088 2.033.486 1.92.79-.113.303-.802.099-1.957.197-.53.045-1.797.423-1.595-.15Z" fill="#fff"/></g><defs><clipPath id="a"><path fill="#fff" d="M0 0h48v80H0z"/></clipPath></defs></svg>