<svg width="68" height="80" fill="none" xmlns="http://www.w3.org/2000/svg"><path d="M48.309 34.257v17.086c0 .974-.386 1.909-1.074 2.597a3.661 3.661 0 0 1-2.591 1.076h-23.76a3.661 3.661 0 0 1-2.592-1.075 3.677 3.677 0 0 1-1.074-2.598V34.257c0-.93.352-1.825.985-2.504a3.66 3.66 0 0 1 2.68-1.169h23.76c.973 0 1.905.388 2.592 1.077a3.68 3.68 0 0 1 1.074 2.596Z" fill="#fff"/><path d="M44.645 55.495h-23.76a4.143 4.143 0 0 1-2.928-1.218 4.161 4.161 0 0 1-1.214-2.934V34.257a4.16 4.16 0 0 1 1.214-2.934 4.142 4.142 0 0 1 2.928-1.217h23.76a4.142 4.142 0 0 1 2.927 1.217 4.16 4.16 0 0 1 1.215 2.934v17.086a4.161 4.161 0 0 1-1.215 2.934 4.143 4.143 0 0 1-2.927 1.218Zm-23.76-24.432c-.845.001-1.655.338-2.253.937a3.2 3.2 0 0 0-.934 2.258v17.086a3.2 3.2 0 0 0 .934 2.257 3.187 3.187 0 0 0 2.253.937h23.76c.845 0 1.655-.338 2.253-.937a3.2 3.2 0 0 0 .934-2.257V34.258A3.2 3.2 0 0 0 46.898 32a3.187 3.187 0 0 0-2.253-.937h-23.76Z" fill="#371A45"/><path d="M50.998 42.303c-.065.896-.334 1.8-.847 2.7H15.574c-.513-.9-.782-1.804-.848-2.7-.158-2.145.855-4.243 2.493-6.156 1.265-1.476 2.903-2.842 4.666-4.03a33.04 33.04 0 0 1 2.507-1.533c3.242-1.797 6.506-2.939 8.373-3.055h.196c1.866.117 5.129 1.26 8.371 3.055a32.062 32.062 0 0 1 3.988 2.598c1.106.85 2.127 1.77 2.99 2.74 1.753 1.97 2.853 4.152 2.688 6.382Z" fill="#fff"/><path d="M50.151 45.52a.516.516 0 0 1-.448-.772c1.092-1.92 1.057-3.987-.104-6.143-3.006-5.58-12.851-10.308-16.655-10.561h-.16c-3.804.251-13.65 4.98-16.655 10.561-1.16 2.156-1.197 4.223-.105 6.143a.516.516 0 0 1-.896.512c-1.28-2.25-1.249-4.654.093-7.145 3.22-5.979 13.426-10.845 17.513-11.103h.261c4.087.259 14.293 5.124 17.513 11.102 1.341 2.492 1.372 4.895.093 7.146a.517.517 0 0 1-.45.26Z" fill="#371A45"/><path d="M26.056 49.349c-2.05.831-5.22.657-7.383.395a2.32 2.32 0 0 1-1.968-1.73 2.331 2.331 0 0 1 2.355-2.907c2.022.095 5.056.14 6.977-.287" fill="#fff"/><path opacity=".35" d="M26.056 49.349c-2.05.832-5.22.657-7.383.396a2.322 2.322 0 0 1-1.774-1.23 2.334 2.334 0 0 1-.003-2.162 2.321 2.321 0 0 0 1.777 1.231c2.16.263 5.325.436 7.375-.39l.009 2.155Z" fill="#371A45"/><path d="M21.982 50.478c-1.184 0-2.362-.097-3.37-.22a2.837 2.837 0 0 1-1.875-1.023 2.849 2.849 0 0 1 .33-3.95 2.835 2.835 0 0 1 2.017-.695c2.981.14 5.41.042 6.841-.276.279-.062.972-.063 1.386 1.269.424 1.365.38 3.659-1.061 4.244-1.199.487-2.739.65-4.268.65ZM18.95 45.62a1.806 1.806 0 0 0-1.801 1.704 1.814 1.814 0 0 0 1.586 1.906c2.192.266 5.206.42 7.127-.361.474-.192.598-.961.63-1.282.104-1.069-.226-2.032-.425-2.246-1.947.414-4.89.382-7.031.282-.029 0-.058-.003-.086-.003Z" fill="#371A45"/><path d="M41.73 49.349c2.05.831 5.22.657 7.383.395a2.318 2.318 0 0 0 1.968-1.73 2.327 2.327 0 0 0-.772-2.378 2.317 2.317 0 0 0-1.583-.529c-2.022.095-5.056.14-6.977-.287" fill="#fff"/><path opacity=".35" d="M49.112 49.745c-2.161.26-5.333.436-7.383-.396l.01-2.174c2.05.827 5.215.653 7.373.39a2.307 2.307 0 0 0 1.773-1.221 2.331 2.331 0 0 1-.73 3.005 2.32 2.32 0 0 1-1.043.396Z" fill="#371A45"/><path d="M45.804 50.478c-1.53 0-3.069-.164-4.267-.65-1.441-.585-1.485-2.878-1.061-4.244.413-1.331 1.107-1.33 1.386-1.269 1.43.318 3.86.416 6.84.276a2.835 2.835 0 0 1 2.006.703 2.847 2.847 0 0 1-1.532 4.963c-1.01.123-2.188.22-3.372.22Zm-4.084-5.136c-.199.214-.53 1.178-.425 2.246.032.321.155 1.09.629 1.282 1.922.78 4.937.627 7.127.361a1.806 1.806 0 0 0 1.579-1.949 1.805 1.805 0 0 0-1.88-1.659c-2.141.101-5.084.132-7.03-.28Z" fill="#371A45"/><path d="M42.523 43.323v7.258a2.46 2.46 0 0 1-.718 1.73 2.449 2.449 0 0 1-1.726.72H26.741a2.447 2.447 0 0 1-1.725-.72 2.457 2.457 0 0 1-.716-1.73v-7.258c.002-.649.26-1.27.717-1.728a2.446 2.446 0 0 1 1.725-.72h13.337a2.457 2.457 0 0 1 2.443 2.447Z" fill="#fff"/><path opacity=".35" d="M42.523 43.323v7.258a2.46 2.46 0 0 1-.718 1.73 2.448 2.448 0 0 1-1.726.72H26.741a2.447 2.447 0 0 1-1.725-.72 2.458 2.458 0 0 1-.716-1.73v-2.715c2.783 2.07 8.857 3.508 12.653.41 3.01-2.459 4.427-4.917 5.072-6.43.323.424.498.943.498 1.477Z" fill="#371A45"/><path d="M40.079 53.546H26.741a2.958 2.958 0 0 1-2.09-.869 2.971 2.971 0 0 1-.868-2.095v-7.26c.001-.785.313-1.539.867-2.094a2.958 2.958 0 0 1 2.091-.87h13.338c.784.001 1.536.314 2.09.87.555.555.867 1.309.868 2.095v7.259a2.97 2.97 0 0 1-.867 2.095 2.958 2.958 0 0 1-2.091.87ZM26.741 41.392c-.51 0-1 .204-1.362.566a1.935 1.935 0 0 0-.565 1.365v7.259a1.935 1.935 0 0 0 1.927 1.93h13.338a1.927 1.927 0 0 0 1.927-1.93v-7.26a1.927 1.927 0 0 0-1.927-1.93H26.741Z" fill="#371A45"/><path d="M38.136 49.063a2.108 2.108 0 0 0 2.106-2.11c0-1.167-.943-2.111-2.106-2.111a2.108 2.108 0 0 0-2.106 2.11c0 1.166.943 2.111 2.106 2.111Z" fill="#22A7F0"/><path opacity=".35" d="M40.241 46.952a2.116 2.116 0 0 1-1.294 1.974 2.102 2.102 0 0 1-2.765-1.158 2.114 2.114 0 0 1-.153-.816c0-.261.049-.52.145-.764a2.11 2.11 0 0 0 1.962 1.345 2.101 2.101 0 0 0 1.96-1.345c.097.243.146.502.145.764Z" fill="#371A45"/><path d="M38.136 49.451a2.49 2.49 0 0 1-2.304-1.543 2.504 2.504 0 0 1 .54-2.722 2.492 2.492 0 0 1 4.257 1.766c0 .663-.264 1.298-.731 1.766a2.493 2.493 0 0 1-1.762.733Zm0-4.222a1.717 1.717 0 0 0-1.59 1.064 1.727 1.727 0 0 0 1.254 2.35 1.717 1.717 0 0 0 1.766-.733 1.727 1.727 0 0 0-.215-2.176 1.72 1.72 0 0 0-1.215-.505ZM32.167 53.417a.387.387 0 0 1-.387-.387v-4.983l-2.667-2.012v-5.16a.388.388 0 0 1 .66-.274.388.388 0 0 1 .113.274v4.773l2.668 2.013v5.369a.388.388 0 0 1-.387.387Z" fill="#371A45"/><path opacity=".3" d="M34 80c18.778 0 34-1.366 34-3.05 0-1.685-15.222-3.05-34-3.05S0 75.264 0 76.95C0 78.634 15.222 80 34 80Z" fill="#371A45"/><path d="M57.503 55.323v19.696a1.675 1.675 0 0 1-1.67 1.672H11.71a1.668 1.668 0 0 1-1.67-1.672V55.323h47.463Z" fill="#FF9F40"/><path opacity=".35" d="M55.834 73.958H11.71a1.668 1.668 0 0 1-1.67-1.673v2.734a1.675 1.675 0 0 0 1.67 1.672h44.123a1.668 1.668 0 0 0 1.67-1.672v-2.734a1.675 1.675 0 0 1-1.67 1.673Z" fill="#371A45"/><path opacity=".6" d="M55.77 55.323v19.696a1.675 1.675 0 0 1-1.668 1.672h1.726a1.668 1.668 0 0 0 1.669-1.672V55.323H55.77Z" fill="#fff"/><path opacity=".35" d="M57.503 55.323S39.118 70.173 10.04 72.996V55.323h47.462Z" fill="#371A45"/><path d="m3.392 52.07 10.156-6.894-.982-1.454-10.157 6.894.983 1.454Z" fill="#FF9F40"/><path d="M3.626 52.25a1.4 1.4 0 0 1-.98-.403 1.396 1.396 0 0 1 .197-2.148l9.858-6.692 1.561 2.31-9.858 6.692c-.23.157-.5.24-.778.24Zm8.799-7.808L3.42 50.555a.362.362 0 1 0 .405.599l9.004-6.112-.405-.6Z" fill="#371A45"/><path d="m64.702 50.62-10.157-6.895-.983 1.455 10.157 6.894.983-1.454Z" fill="#FF9F40"/><path d="M63.478 52.25c-.278 0-.549-.083-.779-.24l-9.858-6.691 1.562-2.31L64.26 49.7a1.394 1.394 0 0 1-.782 2.55h-.001Zm-.2-1.095a.36.36 0 0 0 .503-.498.363.363 0 0 0-.1-.1l-9.003-6.113-.404.598 9.004 6.112Z" fill="#371A45"/><path opacity=".35" d="M50.998 42.304c-.064.895-.334 1.8-.847 2.7H15.575c-.513-.9-.783-1.805-.848-2.7h36.271Z" fill="#371A45"/><path d="M59.326 55.323H7.486a.84.84 0 0 1-.842-.825.845.845 0 0 1 .101-.42l5.631-10.464h42.06l4.527 8.413 1.104 2.052a.844.844 0 0 1-.74 1.244Z" fill="#FF9F40"/><g opacity=".35" fill="#371A45"><path opacity=".35" d="M26.705 40.479c-1.062-.972-3.34-2.455-6.671-1.478-2.992.878-4.174 2.673-4.638 4.025-.649 1.886-.226 3.749.441 4.681 1.136 1.587 2.963 1.798 4.211 1.798.263 0 .5-.01.7-.017.13-.005.242-.01.334-.01.865-.002 2.806-.17 3.956-.793 1.151-.623 1.235-2.501 1.193-3.502.208.01.451.022.699.029 1.142.035 1.713.052 1.82-.483.225-1.148-.654-2.975-2.045-4.25ZM50.755 43.025c-.465-1.351-1.647-3.147-4.638-4.025-3.333-.979-5.611.506-6.671 1.478-1.392 1.275-2.27 3.1-2.045 4.25.106.535.677.517 1.82.483.246-.008.49-.018.698-.028-.04 1 .048 2.88 1.193 3.5 1.151.623 3.092.792 3.957.794.091 0 .204.005.333.01.2.008.437.017.7.017 1.249 0 3.076-.211 4.211-1.798.667-.932 1.09-2.794.441-4.68Z"/></g><path opacity=".6" d="m7.13 55.025 5.205-9.672h39.159a3.75 3.75 0 0 1 3.163 1.735l4.264 6.678.677 1.26a.842.842 0 0 0 .427-1.183L58.92 51.79l-4.528-8.413H12.335l-5.63 10.465a.845.845 0 0 0 .426 1.182Z" fill="#fff"/><path opacity=".35" d="m60.067 54.079-.543-1.01a.818.818 0 0 1-.713.412H8.002a.814.814 0 0 1-.713-.413l-.544 1.01a.845.845 0 0 0 .742 1.245h51.84a.841.841 0 0 0 .84-.825.846.846 0 0 0-.1-.42Z" fill="#371A45"/><path d="M59.326 55.84H7.486a1.355 1.355 0 0 1-1.357-1.33c-.005-.236.051-.469.163-.676l5.777-10.737h42.674l5.777 10.737a1.362 1.362 0 0 1-.524 1.828 1.355 1.355 0 0 1-.67.178ZM12.685 44.13 7.199 54.325a.327.327 0 0 0 .287.481h51.84a.325.325 0 0 0 .287-.481L54.127 44.13H12.685Z" fill="#371A45"/><path d="M55.833 77.208H11.71c-.58 0-1.134-.231-1.544-.642-.41-.41-.64-.967-.64-1.547V54.806h48.493v20.213a2.185 2.185 0 0 1-2.185 2.19ZM10.556 55.84v19.179a1.159 1.159 0 0 0 1.153 1.155h44.124a1.153 1.153 0 0 0 1.154-1.155v-19.18H10.556Z" fill="#371A45"/><path opacity=".6" d="M15.575 43.18c5.55-6.439 12.123-1.756 12.123-1.756v-.003c-1.043-2.014-3.738-4.353-7.611-3.216-2.951.867-4.194 3.1-4.512 4.974Z" fill="#fff"/><path d="M28.243 43.336c-.032.169-2.57.007-2.57.007s.352 2.927-.881 3.594c-1.031.559-2.857.73-3.714.731-.857.002-3.457.356-4.823-1.555-1.128-1.575-1.386-6.35 3.921-7.91 5.308-1.558 8.405 3.415 8.067 5.133ZM37.906 43.336c.032.169 2.57.007 2.57.007s-.352 2.926.88 3.594c1.033.559 2.857.73 3.714.731.857.002 3.457.356 4.824-1.555 1.128-1.575 1.386-6.35-3.922-7.91-5.308-1.558-8.405 3.415-8.066 5.133Z" fill="#fff"/><path opacity=".35" d="M49.893 46.113c-1.366 1.91-3.966 1.557-4.824 1.556-.857-.001-2.68-.173-3.714-.731-1.232-.668-.88-3.596-.88-3.596s-2.537.162-2.57-.006c-.057-.287-.017-.664.112-1.087.495.084 2.458-.041 2.458-.041s.732 2.355 1.59 3.048c.661.533 2.204.93 3.062.932.859.003 3.413-.094 4.78-2.002.257-.363.47-.853.58-1.41.222 1.365-.104 2.653-.594 3.337ZM16.254 46.113c1.367 1.91 3.967 1.557 4.824 1.556.858-.001 2.68-.173 3.714-.731 1.232-.668.88-3.596.88-3.596s2.537.162 2.571-.006c.057-.287.017-.664-.112-1.087-.495.084-2.459-.041-2.459-.041s-.731 2.355-1.59 3.048c-.66.533-2.203.93-3.062.932-.858.003-3.412-.094-4.779-2.002a3.678 3.678 0 0 1-.58-1.41c-.223 1.365.104 2.653.593 3.337Z" fill="#371A45"/><path d="M20.047 48.212c-1.248 0-3.076-.211-4.211-1.798-.667-.932-1.09-2.794-.442-4.68.465-1.352 1.647-3.148 4.638-4.026 3.333-.979 5.611.506 6.673 1.478 1.392 1.275 2.27 3.101 2.045 4.25-.106.535-.68.517-1.82.483-.246-.008-.49-.018-.699-.028.04 1-.047 2.88-1.192 3.501-1.145.62-3.092.791-3.957.793-.092 0-.204.005-.334.01-.2.008-.438.017-.7.017Zm2.108-9.786a6.495 6.495 0 0 0-1.833.275c-2.568.754-3.567 2.25-3.952 3.37-.5 1.455-.217 3.014.304 3.742 1.05 1.469 2.99 1.392 4.032 1.35.145-.005.27-.01.372-.01.867-.002 2.576-.186 3.47-.67.698-.377.714-2.236.612-3.077l-.075-.618.62.04c.725.047 1.576.078 2.039.068-.073-.717-.627-1.93-1.736-2.945-.691-.636-1.995-1.527-3.853-1.527v.002Z" fill="#371A45"/><path opacity=".6" d="M50.574 43.18c-5.55-6.439-12.124-1.756-12.124-1.756v-.003c1.044-2.014 3.739-4.353 7.612-3.216 2.95.867 4.193 3.1 4.512 4.974Z" fill="#fff"/><path d="M46.101 48.212c-.263 0-.5-.009-.7-.017a9.74 9.74 0 0 0-.333-.01c-.865-.002-2.806-.17-3.957-.793-1.15-.622-1.234-2.5-1.192-3.501-.209.01-.451.02-.699.028-1.142.035-1.714.052-1.819-.483-.226-1.148.653-2.975 2.044-4.25 1.062-.972 3.34-2.457 6.673-1.478 2.991.878 4.173 2.674 4.638 4.026.648 1.886.225 3.748-.442 4.68-1.137 1.587-2.964 1.798-4.213 1.798Zm-5.04-5.426-.074.617c-.1.842-.081 2.703.613 3.078.893.485 2.602.667 3.47.67.101 0 .227.005.37.01 1.043.042 2.983.118 4.033-1.35.521-.728.806-2.287.305-3.742-.387-1.121-1.386-2.616-3.953-3.37-2.848-.836-4.786.424-5.687 1.25-1.11 1.015-1.663 2.228-1.736 2.945.464.01 1.313-.022 2.04-.068l.62-.04Z" fill="#371A45"/><path d="M50.696 21.324a.341.341 0 0 1-.366-.316l-.732-9.815a.343.343 0 0 1 .315-.366 3.57 3.57 0 0 1 3.46 1.959c.213.42.34.878.375 1.347l.25 3.347a3.593 3.593 0 0 1-1.956 3.47c-.42.212-.878.339-1.346.374Z" fill="#fff"/><path d="M50.67 21.417a.433.433 0 0 1-.432-.402l-.733-9.815a.436.436 0 0 1 .4-.465c.97-.073 1.93.243 2.667.88a3.68 3.68 0 0 1 1.266 2.511l.25 3.347a3.688 3.688 0 0 1-.88 2.67 3.67 3.67 0 0 1-2.538 1.274Zm-.486-10.507c-.088 0-.177.003-.266.01a.249.249 0 0 0-.229.267L50.423 21a.245.245 0 0 0 .17.218c.03.01.064.014.096.012a3.486 3.486 0 0 0 2.38-1.205 3.501 3.501 0 0 0 .834-2.538l-.25-3.347a3.496 3.496 0 0 0-1.103-2.296 3.48 3.48 0 0 0-2.366-.934v-.001Z" fill="#371A45"/><path opacity=".35" d="m53.878 15.912.118 1.57a3.593 3.593 0 0 1-1.955 3.468c-.42.212-.877.34-1.345.375a.341.341 0 0 1-.366-.316l-.196-2.61a.342.342 0 0 0 .325.18l.232-.018a3.57 3.57 0 0 0 3.187-2.65Z" fill="#371A45"/><path d="M50.67 21.841a.857.857 0 0 1-.854-.794l-.734-9.815a.861.861 0 0 1 .79-.92 4.087 4.087 0 0 1 2.976.981 4.105 4.105 0 0 1 1.411 2.803l.25 3.346a4.112 4.112 0 0 1-.98 2.98 4.094 4.094 0 0 1-2.86 1.42Zm-.546-10.507.707 9.456c.774-.104 1.48-.5 1.972-1.108a3.076 3.076 0 0 0 .678-2.163l-.25-3.346a3.07 3.07 0 0 0-.99-2.038 3.058 3.058 0 0 0-2.117-.8Z" fill="#371A45"/><path d="M17.587 13.255a.34.34 0 0 1 .365.315l.734 9.814a.343.343 0 0 1-.315.367 3.571 3.571 0 0 1-3.46-1.96 3.592 3.592 0 0 1-.375-1.347l-.25-3.347a3.594 3.594 0 0 1 .856-2.607 3.58 3.58 0 0 1 2.445-1.236Z" fill="#fff"/><path d="M18.099 23.854a3.665 3.665 0 0 1-2.492-.984 3.68 3.68 0 0 1-1.162-2.42l-.25-3.347a3.687 3.687 0 0 1 .88-2.67 3.67 3.67 0 0 1 2.504-1.27.432.432 0 0 1 .465.4l.734 9.815a.436.436 0 0 1-.4.466c-.093.006-.186.01-.28.01Zm-.486-10.507a3.485 3.485 0 0 0-2.398 1.205 3.5 3.5 0 0 0-.835 2.538l.251 3.347a3.498 3.498 0 0 0 1.202 2.386 3.482 3.482 0 0 0 2.533.835.248.248 0 0 0 .23-.267l-.734-9.815a.249.249 0 0 0-.248-.23Z" fill="#371A45"/><path opacity=".35" d="m18.483 20.662.204 2.722a.343.343 0 0 1-.316.366 3.566 3.566 0 0 1-2.6-.857 3.581 3.581 0 0 1-1.233-2.449l-.105-1.41a3.58 3.58 0 0 0 3.406 1.856l.357-.027a.344.344 0 0 0 .287-.201Z" fill="#371A45"/><path d="M18.102 24.277a4.093 4.093 0 0 1-2.781-1.097 4.11 4.11 0 0 1-1.298-2.698l-.25-3.346a4.112 4.112 0 0 1 .98-2.98 4.094 4.094 0 0 1 2.795-1.417.854.854 0 0 1 .918.792l.734 9.814a.86.86 0 0 1-.79.92 3.944 3.944 0 0 1-.308.012Zm-.65-10.49a3.06 3.06 0 0 0-1.974 1.108 3.073 3.073 0 0 0-.676 2.163l.25 3.347c.122 1.628 1.497 2.874 3.107 2.838l-.707-9.455Z" fill="#371A45"/><path opacity=".35" d="M46.997 31.44a16.743 16.743 0 0 1-5.729 4.436 16.706 16.706 0 0 1-7.062 1.596 16.678 16.678 0 0 1-12.32-5.354 16.93 16.93 0 0 1-1.258-1.523c.084-.008.17-.01.256-.01h3.507c3.242-1.798 6.506-2.94 8.373-3.056h.196c1.867.117 5.13 1.26 8.371 3.055h3.313a3.64 3.64 0 0 1 2.353.857Z" fill="#371A45"/><path d="M34.144 34.06c9.242 0 16.734-7.508 16.734-16.771 0-9.263-7.492-16.772-16.734-16.772-9.243 0-16.735 7.51-16.735 16.772 0 9.263 7.492 16.772 16.735 16.772Z" fill="#fff"/><path d="M34.142 34.153c-4.47 0-8.677-1.736-11.852-4.894a16.772 16.772 0 0 1-4.974-11.906A16.773 16.773 0 0 1 22.2 5.409 16.7 16.7 0 0 1 34.08.424h.064c9.25 0 16.79 7.523 16.826 16.8.035 9.3-7.485 16.893-16.763 16.93h-.065ZM34.144.61h-.064a16.516 16.516 0 0 0-11.75 4.93 16.588 16.588 0 0 0-4.829 11.812 16.587 16.587 0 0 0 4.919 11.775c3.14 3.123 7.3 4.84 11.721 4.84h.065c9.176-.035 16.613-7.545 16.579-16.742C50.75 8.051 43.29.61 34.145.61Z" fill="#371A45"/><path opacity=".35" d="M50.709 14.904c.11.77.167 1.545.17 2.322.033 9.262-7.43 16.8-16.672 16.835-9.243.036-16.763-7.446-16.799-16.709 0-.266.004-.532.016-.795 1.16 8.16 8.173 14.42 16.63 14.387 8.975-.034 16.272-7.145 16.655-16.04Z" fill="#371A45"/><path d="M34.142 34.577c-4.583 0-8.895-1.78-12.15-5.018a17.194 17.194 0 0 1-5.099-12.205A17.196 17.196 0 0 1 21.9 5.11 17.117 17.117 0 0 1 34.078 0h.067c9.48 0 17.213 7.712 17.249 17.223.035 9.533-7.674 17.318-17.185 17.354h-.067Zm.003-33.543h-.063a16.096 16.096 0 0 0-11.45 4.804 16.158 16.158 0 0 0-4.706 11.512 16.172 16.172 0 0 0 4.794 11.476 16.098 16.098 0 0 0 11.424 4.718h.064c8.943-.034 16.192-7.354 16.158-16.317-.037-8.941-7.307-16.193-16.221-16.193Z" fill="#371A45"/><path d="M50.827 17.656c.062 3.282-.944 6.348-2.714 8.903-1.327 1.916-6.867 5.33-13.783 5.523-6.413.18-12.313-3.137-13.711-5.001-1.866-2.487-2.986-5.512-3.048-8.794-.164-8.684 7.212-12.423 16.397-12.6 9.185-.175 16.694 3.286 16.859 11.97Z" fill="#371A45"/><path d="M33.819 32.607c-6.46 0-12.174-3.297-13.613-5.215-1.998-2.665-3.089-5.81-3.15-9.095-.082-4.288 1.573-7.628 4.916-9.926 2.908-1.999 7.053-3.105 11.985-3.197 4.932-.093 9.115.854 12.097 2.742 3.428 2.17 5.207 5.444 5.288 9.733.062 3.285-.909 6.468-2.804 9.207-1.318 1.901-6.832 5.538-14.193 5.744-.176.003-.352.007-.526.007ZM34.564 6.2c-.205 0-.4.001-.587.005-4.845.092-16.091 1.454-15.891 12.072.058 3.066 1.076 6.003 2.944 8.494 1.325 1.766 7.056 4.97 13.285 4.796 6.906-.194 12.198-3.604 13.375-5.3 1.772-2.56 2.679-5.533 2.621-8.599-.193-10.214-10.637-11.47-15.747-11.47v.002Z" fill="#371A45"/><path opacity=".7" d="M47.522 16.924c.262-1.618-.474-3.083-1.644-3.273-1.17-.19-2.331.97-2.593 2.587-.262 1.618.475 3.083 1.645 3.273 1.17.189 2.33-.97 2.592-2.587ZM43.998 22.85c.222-.719-.098-1.455-.714-1.645-.616-.19-1.294.24-1.516.958-.222.719.098 1.456.714 1.645.616.19 1.294-.239 1.516-.958Z" fill="#fff"/><path opacity=".35" d="M47.439 9.617c2.07 1.905 3.32 4.551 3.386 8.039.062 3.282-.944 6.348-2.713 8.903-1.327 1.916-6.867 5.33-13.783 5.523-2.442.07-4.81-.37-6.883-1.043 8.497-.42 15.244-4.609 16.89-6.984 2.247-3.243 3.523-7.136 3.444-11.3a17.003 17.003 0 0 0-.341-3.138Z" fill="#111A28"/><path d="M18.683 11.373a.516.516 0 0 1-.421-.813c2.871-4.4 8.544-6.999 15.569-7.132 6.976-.134 12.736 2.167 15.817 6.309a.517.517 0 0 1-.713.739l-.054-.04-.045-.062c-2.876-3.883-8.334-6.04-14.986-5.913-6.684.127-12.053 2.56-14.732 6.677l-.03.04a.515.515 0 0 1-.405.195Z" fill="#371A45"/><path opacity=".7" d="M21.402 23.381s-2.845-8.515 1.697-12.015c4.543-3.5 11.17-3.613 11.022-3.184 0 0-7.304 1.92-10.065 7.787-2.128 4.523-2.654 7.412-2.654 7.412Z" fill="#fff"/><path d="M39.974 43.221c.062-.17.12-.37.168-.559.05-.188.091-.385.122-.578.033-.189.051-.38.053-.572 0-.184-.015-.368-.067-.517l-.007-.018a.257.257 0 0 1 .13-.318.255.255 0 0 1 .328.097c.14.225.205.459.253.687.045.223.072.45.08.678a7.1 7.1 0 0 1 0 .669c-.01.221-.025.435-.057.673v.005a.52.52 0 0 1-.927.245.52.52 0 0 1-.076-.492ZM25.106 43.463a7.559 7.559 0 0 1-.058-.673 6.777 6.777 0 0 1 0-.668c.009-.228.035-.455.08-.679.049-.228.114-.462.253-.686a.255.255 0 0 1 .458.22l-.006.02c-.053.148-.069.332-.068.516.002.192.02.383.053.572a6.775 6.775 0 0 0 .29 1.137.52.52 0 1 1-1.001.25l-.001-.009Z" fill="#371A45"/></svg>