<svg width="484" height="519" viewBox="0 0 484 519" fill="none" xmlns="http://www.w3.org/2000/svg">
<path d="M0 32C0 20.799 0 15.1984 2.17987 10.9202C4.09734 7.15695 7.15695 4.09734 10.9202 2.17987C15.1984 0 20.7989 0 32 0H452C463.201 0 468.802 0 473.08 2.17987C476.843 4.09734 479.903 7.15695 481.82 10.9202C484 15.1984 484 20.799 484 32V402.556C484 411.948 484 416.645 482.313 420.487C480.826 423.875 478.428 426.785 475.385 428.891C471.935 431.28 467.325 432.176 458.105 433.968L38.105 515.594C25.035 518.134 18.5 519.405 13.3893 517.615C8.90631 516.045 5.12845 512.93 2.732 508.829C0 504.154 0 497.497 0 484.182V32Z" fill="white"/>
</svg>
