<svg width="168" height="200" viewBox="0 0 168 200" fill="none" xmlns="http://www.w3.org/2000/svg">
<path opacity="0.05" d="M5.32981 29.1879L9.28416 25.8353C10.8855 27.0678 12.8511 27.7331 14.8719 27.7265C15.9034 27.7265 17.9665 26.2651 20.8893 23.4283C24.8488 19.8137 29.1698 16.6162 33.784 13.8863C50.0501 4.27185 68.7113 -0.5276 87.5977 0.0460133C96.2807 0.0626675 104.933 1.07219 113.387 3.05482C121.685 4.91077 129.616 8.13555 136.855 12.5969C143.742 16.8616 149.61 22.5834 154.048 29.3599C158.679 36.8008 161.012 45.4429 160.753 54.2036C160.811 62.9625 158.43 71.5647 153.876 79.0472C151.93 82.5936 149.278 85.7043 146.085 88.1879C142.892 90.6715 139.224 92.4757 135.308 93.4893V94.263C144.762 96.5163 153.132 102.002 158.972 109.772C164.811 117.542 167.752 127.107 167.287 136.815C167.671 147.904 164.673 158.848 158.69 168.192C153.385 176.233 146.295 182.94 137.973 187.792C129.581 192.715 120.336 196.01 110.722 197.506C101.521 199.092 92.206 199.926 82.8696 199.999C73.6346 200.035 64.4285 198.967 55.447 196.818C47.7502 194.936 40.2181 192.435 32.9243 189.339C26.3911 186.417 20.9753 183.838 16.7631 181.431C14.1611 179.695 11.2384 178.496 8.16665 177.906C7.19046 177.862 6.22605 178.134 5.41579 178.68L2.92282 180.141L0 179.024L18.9122 125.21L22.5227 127.445C22.3396 128.324 22.3396 129.231 22.5227 130.11V132.689C22.5602 135.599 23.2157 138.469 24.4458 141.107C25.6758 143.744 27.4524 146.091 29.6577 147.991C34.7373 152.701 40.5426 156.561 46.8506 159.424C53.5337 162.554 60.5382 164.947 67.7399 166.559C73.7747 167.982 79.9385 168.789 86.1363 168.966C90.7765 168.902 95.4043 168.47 99.9765 167.676C105.183 166.793 110.245 165.203 115.02 162.948C119.605 160.794 123.678 157.687 126.969 153.836C130.309 149.519 132.015 144.16 131.783 138.706C131.824 133.399 129.859 128.272 126.282 124.35C123.161 120.63 119.217 117.687 114.762 115.754C110.151 113.698 105.251 112.364 100.234 111.8C95.8429 111.235 91.423 110.92 86.9958 110.854C82.438 110.779 77.8931 111.359 73.4995 112.573C71.5531 113.173 69.8057 114.289 68.4433 115.803C67.0809 117.316 66.1545 119.171 65.7627 121.17H61.8943V70.3649H66.1066C66.1424 72.5432 66.8343 74.66 68.0919 76.4389C69.3494 78.2179 71.1141 79.5763 73.1557 80.3368C77.7044 81.9705 82.5067 82.7854 87.3398 82.7438C91.3732 82.6629 95.3954 82.2894 99.3747 81.6262C103.855 80.9044 108.202 79.5135 112.269 77.5C116.312 75.4482 119.838 72.5095 122.585 68.9035C125.498 65.1873 126.991 60.5547 126.797 55.8369C127.01 51.4899 125.703 47.2044 123.101 43.7159C120.491 40.5047 117.123 37.9936 113.301 36.409C109.018 34.611 104.504 33.4245 99.8905 32.8844C94.9573 32.2645 89.9907 31.9487 85.0187 31.9388C78.9913 31.9777 72.9897 32.7279 67.1382 34.1739C61.368 35.5376 55.7726 37.5567 50.4611 40.1915C45.9744 42.3235 41.8077 45.0723 38.0822 48.358C36.6791 49.4357 35.5179 50.796 34.6738 52.3509C33.8298 53.9058 33.3216 55.6206 33.1822 57.3843C33.075 58.5567 33.075 59.7364 33.1822 60.9088C33.3648 62.2551 33.6816 63.5799 34.1278 64.8632L31.2051 67.0982L5.32981 29.1879Z" fill="#3B3943"/>
</svg>
