<svg width="163" height="200" viewBox="0 0 163 200" fill="none" xmlns="http://www.w3.org/2000/svg">
<g clip-path="url(#clip0_3_245)">
<path opacity="0.05" d="M143.984 58.6756L140.113 57.2135C139.702 56.0589 139.357 54.8815 139.081 53.6873C138.798 52.3813 138.241 51.1502 137.447 50.075C135.132 46.227 131.876 43.0306 127.987 40.7864C123.868 38.2976 119.483 36.2782 114.914 34.7661C110.613 33.3801 106.214 32.3164 101.755 31.5839C98.3382 31.0627 94.89 30.7753 91.4342 30.7238C84.302 30.3151 77.162 31.3794 70.4591 33.8504C63.7562 36.3215 57.6339 40.1463 52.4737 45.0867C42.0716 57.1419 36.6311 72.695 37.2507 88.6056C46.4474 82.9255 56.1851 78.1718 66.3206 74.4146C76.3973 70.9961 86.9872 69.3379 97.6266 69.5124C105.673 69.5327 113.663 70.8691 121.278 73.4686C128.973 76.0282 136.083 80.0908 142.196 85.4207C148.308 90.7505 153.301 97.2414 156.884 104.517C160.865 112.861 162.839 122.021 162.647 131.264C162.89 141.962 160.277 152.53 155.078 161.882C150.369 170.359 143.921 177.745 136.157 183.556C128.435 189.346 119.677 193.609 110.355 196.113C101.426 198.63 92.1973 199.932 82.9196 199.983C70.9718 200.217 59.0981 198.053 48.0014 193.618C38.0229 189.486 29.1766 183.028 22.1997 174.783C14.6655 165.874 9.04466 155.511 5.68667 144.337C1.75561 131.376 -0.158887 117.888 0.0103085 104.345C-0.105562 90.1486 2.22186 76.0386 6.89074 62.6319C11.0773 50.4743 17.559 39.2334 25.984 29.5197C34.086 20.3791 43.9808 13.0019 55.0538 7.84629C66.4641 2.61379 78.8816 -0.0574717 91.4342 0.019885C100.111 -0.147971 108.776 0.747396 117.236 2.68604C123.288 4.09988 129.192 6.087 134.867 8.62044C138.945 10.3766 142.91 12.3873 146.736 14.6408C148.838 16.0698 151.26 16.9563 153.788 17.221C155.046 17.3522 156.314 17.3522 157.572 17.221C158.47 17.1007 159.31 16.7107 159.981 16.1029L162.561 18.6831L143.984 58.6756ZM83.7797 100.216C72.9791 99.6818 62.3404 103.005 53.7638 109.591C50.1755 112.699 47.2976 116.543 45.3251 120.861C43.3527 125.179 42.3318 129.871 42.3318 134.618C42.3318 139.366 43.3527 144.058 45.3251 148.376C47.2976 152.694 50.1755 156.538 53.7638 159.646C62.5992 165.791 73.1036 169.084 83.8657 169.084C94.6278 169.084 105.132 165.791 113.968 159.646C117.556 156.538 120.434 152.694 122.406 148.376C124.379 144.058 125.4 139.366 125.4 134.618C125.4 129.871 124.379 125.179 122.406 120.861C120.434 116.543 117.556 112.699 113.968 109.591C105.476 103.095 94.9779 99.7786 84.2957 100.216H83.7797Z" fill="#3B3943"/>
</g>
<defs>
<clipPath id="clip0_3_245">
<rect width="163" height="200" fill="white"/>
</clipPath>
</defs>
</svg>
