<svg width="24" height="24" viewBox="0 0 24 24" fill="none" xmlns="http://www.w3.org/2000/svg">
<path d="M13.8838 17.9867H21.1179H13.8838ZM2.8831 17.9867C2.8831 19.5773 4.17251 20.8667 5.7631 20.8667C7.35369 20.8667 8.6431 19.5773 8.6431 17.9867C8.6431 16.3949 7.35369 15.1067 5.7631 15.1067C4.17251 15.1067 2.8831 16.3949 2.8831 17.9867Z" stroke="#3B3943" stroke-width="1.5" stroke-linecap="round" stroke-linejoin="round"/>
<path d="M13.8827 6.26184H21.118H13.8827ZM2.88257 6.26184C2.88257 7.8536 4.17198 9.14184 5.76257 9.14184C7.35316 9.14184 8.64257 7.8536 8.64257 6.26184C8.64257 4.67125 7.35316 3.38184 5.76257 3.38184C4.17198 3.38184 2.88257 4.67125 2.88257 6.26184Z" stroke="#3B3943" stroke-width="1.5" stroke-linecap="round" stroke-linejoin="round"/>
</svg>
