<svg width="30" height="30" viewBox="0 0 30 30" fill="none" xmlns="http://www.w3.org/2000/svg">
<path d="M26 0H4C1.79086 0 0 1.79086 0 4V26C0 28.2091 1.79086 30 4 30H26C28.2091 30 30 28.2091 30 26V4C30 1.79086 28.2091 0 26 0Z" fill="#FF5555"/>
<path d="M16.8838 20.9867H24.1179H16.8838ZM5.8831 20.9867C5.8831 22.5773 7.17251 23.8667 8.7631 23.8667C10.3537 23.8667 11.6431 22.5773 11.6431 20.9867C11.6431 19.3949 10.3537 18.1067 8.7631 18.1067C7.17251 18.1067 5.8831 19.3949 5.8831 20.9867Z" stroke="white" stroke-width="1.5" stroke-linecap="round" stroke-linejoin="round"/>
<path d="M16.8827 9.26184H24.118H16.8827ZM5.88257 9.26184C5.88257 10.8536 7.17198 12.1418 8.76257 12.1418C10.3532 12.1418 11.6426 10.8536 11.6426 9.26184C11.6426 7.67125 10.3532 6.38184 8.76257 6.38184C7.17198 6.38184 5.88257 7.67125 5.88257 9.26184Z" stroke="white" stroke-width="1.5" stroke-linecap="round" stroke-linejoin="round"/>
</svg>
