<svg width="24" height="24" viewBox="0 0 24 24" fill="none" xmlns="http://www.w3.org/2000/svg">
<path d="M22.8 12.0001H22.4V3.6001C22.3987 2.4961 21.504 1.6014 20.4 1.6001H3.6C2.496 1.6014 1.6013 2.4961 1.6 3.6001V9.6001H1.2C0.53725 9.6001 0 10.1373 0 10.8001V21.2001C0 21.8628 0.53725 22.4001 1.2 22.4001H16.4C16.6209 22.4001 16.8 22.221 16.8 22.0001C16.7987 20.8961 15.904 20.0014 14.8 20.0001H13.6V17.6001H18.4V21.2001C18.4 21.8628 18.9373 22.4001 19.6 22.4001H22.8C23.4627 22.4001 24 21.8628 24 21.2001V13.2001C24 12.5373 23.4627 12.0001 22.8 12.0001ZM8.8 21.2001C8.8 21.421 8.6209 21.6001 8.4 21.6001H1.2C0.9791 21.6001 0.8 21.421 0.8 21.2001V20.8001H8.8V21.2001ZM8.8 20.0001H0.8V10.8001C0.8 10.5792 0.9791 10.4001 1.2 10.4001H8.4C8.6209 10.4001 8.8 10.5792 8.8 10.8001V20.0001ZM14.8 20.8001C15.3084 20.8007 15.7614 21.121 15.9316 21.6001H9.5264C9.5738 21.472 9.59865 21.3367 9.6 21.2001V20.8001H14.8ZM9.6 20.0001V17.6001H10.4V20.0001H9.6ZM11.2 20.0001V17.6001H12.8V20.0001H11.2ZM18.4 16.8001H9.6V14.4001H18.4V16.8001ZM18.4 13.2001V13.6001H9.6V10.8001C9.59865 10.6103 9.5517 10.4236 9.4632 10.2557C9.4692 10.2501 9.4772 10.2485 9.4828 10.2425L13.4428 6.2825C13.5963 6.1236 13.5919 5.87035 13.433 5.7169C13.278 5.5672 13.0323 5.5672 12.8772 5.7169L8.9172 9.6769C8.9076 9.6869 8.9036 9.6997 8.8952 9.7101C8.74 9.6381 8.57105 9.6006 8.4 9.6001H2.4V3.6001C2.4 2.93735 2.93725 2.4001 3.6 2.4001H20.4C21.0627 2.4001 21.6 2.93735 21.6 3.6001V12.0001H19.6C18.9373 12.0001 18.4 12.5373 18.4 13.2001ZM23.2 21.2001C23.2 21.421 23.0209 21.6001 22.8 21.6001H19.6C19.3791 21.6001 19.2 21.421 19.2 21.2001V20.8001H23.2V21.2001ZM23.2 20.0001H19.2V13.2001C19.2 12.9792 19.3791 12.8001 19.6 12.8001H22.8C23.0209 12.8001 23.2 12.9792 23.2 13.2001V20.0001Z" fill="#3B3943"/>
<path d="M4.77965 14.4689C4.62345 14.3128 4.37025 14.3128 4.21405 14.4689L2.51725 16.1657C2.35835 16.3192 2.35395 16.5724 2.50745 16.7313C2.66095 16.8902 2.91415 16.8946 3.07305 16.7411C3.0764 16.7379 3.07965 16.7346 3.08285 16.7313L4.77965 15.0345C4.85105 14.9108 4.70755 14.6755 4.77965 14.4689Z" fill="#3B3943"/>
<path d="M7.16975 14.469C7.01475 14.3193 6.769 14.3193 6.61395 14.469L4.91715 16.1658C4.75825 16.3192 4.75385 16.5725 4.90735 16.7314C5.0608 16.8903 5.31405 16.8947 5.47295 16.7412C5.4763 16.738 5.47955 16.7347 5.48275 16.7314L7.17955 15.0346C7.333 14.8757 7.32865 14.6224 7.16975 14.469Z" fill="#3B3943"/>
<path d="M15.873 5.71701C15.718 5.56731 15.4723 5.56731 15.3172 5.71701L11.3572 9.67702C11.1983 9.83047 11.1939 10.0837 11.3474 10.2426C11.5008 10.4015 11.7541 10.4059 11.913 10.2525C11.9163 10.2493 11.9196 10.246 11.9228 10.2426L15.8828 6.28261C16.0363 6.12371 16.0319 5.87046 15.873 5.71701Z" fill="#3B3943"/>
<path d="M22.0386 15.5518C21.8836 15.402 21.6378 15.402 21.4828 15.5518L20.3516 16.683C20.1927 16.8365 20.1883 17.0897 20.3418 17.2486C20.4953 17.4075 20.7485 17.4119 20.9074 17.2584C20.9107 17.2552 20.914 17.2519 20.9172 17.2486L22.0484 16.1174C22.2019 15.9585 22.1975 15.7053 22.0386 15.5518Z" fill="#3B3943"/>
<path d="M12.008 15.2H12.004C11.7831 15.2011 11.6049 15.3811 11.606 15.602C11.6071 15.8229 11.7871 16.0011 12.008 16C12.2289 16 12.408 15.8209 12.408 15.6C12.408 15.3791 12.2289 15.2 12.008 15.2Z" fill="#3B3943"/>
<path d="M12.8 3.19995H11.2C10.9791 3.19995 10.8 3.37905 10.8 3.59995C10.8 3.82085 10.9791 3.99995 11.2 3.99995H12.8C13.0209 3.99995 13.2 3.82085 13.2 3.59995C13.2 3.37905 13.0209 3.19995 12.8 3.19995Z" fill="#3B3943"/>
</svg>
