<svg width="110" height="110" viewBox="0 0 110 110" fill="none" xmlns="http://www.w3.org/2000/svg">
<g clip-path="url(#clip0_4_18)">
<path d="M54.9934 110C47.0466 109.996 39.1949 108.272 31.9784 104.945C24.762 101.618 18.3521 96.7679 13.1898 90.7283C8.02751 84.6887 4.23525 77.6029 2.07394 69.9584C-0.0873659 62.3138 -0.56643 54.292 0.669713 46.4447C1.90586 38.5974 4.82787 31.1109 9.23472 24.5003C13.6416 17.8896 19.4287 12.3117 26.1979 8.1503C32.9671 3.98887 40.5578 1.34269 48.4478 0.393786C56.3377 -0.555113 64.3397 0.215789 71.9032 2.65347C72.7012 2.9104 73.3645 3.47371 73.747 4.21949C74.1296 4.96527 74.2002 5.83242 73.9431 6.63019C73.6861 7.42795 73.1226 8.09098 72.3766 8.47341C71.6305 8.85585 70.763 8.92635 69.965 8.66943C59.3637 5.25197 47.9105 5.57346 37.5177 9.58022C27.125 13.587 18.4218 21.0365 12.8614 30.6848C7.30104 40.3331 5.22006 51.5963 6.96595 62.5935C8.71183 73.5908 14.1789 83.6565 22.4543 91.1099C30.7296 98.5633 41.3124 102.953 52.4355 103.547C63.5585 104.14 74.5486 100.901 83.5706 94.3706C92.5926 87.8401 99.1004 78.4133 102.007 67.6642C104.914 56.9152 104.044 45.4947 99.543 35.3095C99.2184 34.5458 99.2075 33.6851 99.5126 32.9134C99.8176 32.1418 100.414 31.521 101.173 31.1854C101.932 30.8498 102.793 30.8262 103.569 31.1198C104.346 31.4133 104.975 32.0005 105.322 32.7543C109.015 41.127 110.561 50.2882 109.819 59.4085C109.077 68.5287 106.072 77.3201 101.075 84.9868C96.0782 92.6534 89.2474 98.9532 81.2011 103.316C73.1548 107.678 64.1471 109.966 54.9934 109.972V110Z" fill="url(#paint0_linear_4_18)"/>
<path d="M79.2555 25.1801L78.6095 24.5343C78.2762 24.2008 77.8805 23.9363 77.4449 23.7558C77.0093 23.5753 76.5424 23.4824 76.0709 23.4824C75.5994 23.4824 75.1325 23.5753 74.6969 23.7558C74.2613 23.9363 73.8656 24.2008 73.5323 24.5343L50.3587 47.6995L36.4405 33.7863C35.7662 33.1125 34.8518 32.7339 33.8984 32.7339C32.945 32.7339 32.0306 33.1125 31.3563 33.7863L30.7103 34.4321C30.3767 34.7653 30.1121 35.1609 29.9315 35.5963C29.751 36.0317 29.6581 36.4984 29.6581 36.9698C29.6581 37.4411 29.751 37.9079 29.9315 38.3433C30.1121 38.7787 30.3767 39.1743 30.7103 39.5074L44.6285 53.4277L30.7103 67.3409C30.0362 68.0149 29.6575 68.929 29.6575 69.882C29.6575 70.8351 30.0362 71.7492 30.7103 72.4232L31.3563 73.069C32.0306 73.7429 32.945 74.1214 33.8984 74.1214C34.8518 74.1214 35.7662 73.7429 36.4405 73.069L50.3798 59.1348L64.298 73.048C64.9722 73.7218 65.8866 74.1004 66.8401 74.1004C67.7935 74.1004 68.7079 73.7218 69.3821 73.048L70.0282 72.4021C70.7023 71.7281 71.081 70.8141 71.081 69.861C71.081 68.9079 70.7023 67.9938 70.0282 67.3198L56.11 53.4066L79.2836 30.2413C79.9476 29.5645 80.3172 28.6529 80.3119 27.7049C80.3066 26.757 79.927 25.8495 79.2555 25.1801Z" fill="url(#paint1_linear_4_18)"/>
<path d="M91.6218 18.6516C91.6218 19.4665 91.3801 20.2632 90.9271 20.9409C90.4742 21.6185 89.8304 22.1466 89.0772 22.4585C88.324 22.7704 87.4951 22.852 86.6955 22.693C85.8959 22.534 85.1614 22.1416 84.5849 21.5653C84.0085 20.989 83.6159 20.2548 83.4568 19.4555C83.2978 18.6561 83.3794 17.8276 83.6914 17.0747C84.0034 16.3217 84.5317 15.6782 85.2096 15.2254C85.8875 14.7726 86.6844 14.531 87.4997 14.531C88.593 14.531 89.6414 14.9651 90.4145 15.7379C91.1875 16.5106 91.6218 17.5587 91.6218 18.6516Z" fill="url(#paint2_linear_4_18)"/>
</g>
<defs>
<linearGradient id="paint0_linear_4_18" x1="9.83124" y1="25.9732" x2="125.114" y2="39.3121" gradientUnits="userSpaceOnUse">
<stop stop-color="#FF5757"/>
<stop offset="1" stop-color="#E14343"/>
</linearGradient>
<linearGradient id="paint1_linear_4_18" x1="9.83124" y1="25.9733" x2="125.114" y2="39.3122" gradientUnits="userSpaceOnUse">
<stop stop-color="#FF5757"/>
<stop offset="1" stop-color="#E14343"/>
</linearGradient>
<linearGradient id="paint2_linear_4_18" x1="9.83123" y1="25.9732" x2="125.114" y2="39.3121" gradientUnits="userSpaceOnUse">
<stop stop-color="#FF5757"/>
<stop offset="1" stop-color="#E14343"/>
</linearGradient>
<clipPath id="clip0_4_18">
<rect width="110" height="110" fill="white"/>
</clipPath>
</defs>
</svg>
