<svg width="110" height="110" viewBox="0 0 110 110" fill="none" xmlns="http://www.w3.org/2000/svg">
<g clip-path="url(#clip0_4_11)">
<path d="M88.5961 31.6522L87.9503 31.0064C87.6171 30.6729 87.2215 30.4084 86.7861 30.2279C86.3507 30.0475 85.8839 29.9546 85.4126 29.9546C84.9413 29.9546 84.4745 30.0475 84.0391 30.2279C83.6037 30.4084 83.2081 30.6729 82.875 31.0064L48.1411 65.7333L31.4691 49.0542C30.7951 48.3804 29.881 48.0018 28.9279 48.0018C27.9748 48.0018 27.0608 48.3804 26.3868 49.0542L25.741 49.7001C25.0671 50.3741 24.6885 51.2881 24.6885 52.2412C24.6885 53.1943 25.0671 54.1084 25.741 54.7824L48.1411 77.1895L88.5961 36.7345C89.2699 36.0605 89.6485 35.1465 89.6485 34.1934C89.6485 33.2403 89.2699 32.3262 88.5961 31.6522Z" fill="url(#paint0_linear_4_11)"/>
<path d="M54.9924 110C46.7839 109.999 38.6796 108.16 31.2741 104.619C23.8686 101.078 17.3496 95.9247 12.1952 89.5362C7.04077 83.1477 3.3817 75.6865 1.4863 67.6998C-0.409098 59.713 -0.492739 51.4033 1.2415 43.38C2.97574 35.3568 6.48388 27.8234 11.5086 21.3325C16.5334 14.8415 22.9474 9.55763 30.2801 5.86827C37.6129 2.17891 45.6784 0.177664 53.8853 0.0112985C62.0922 -0.155067 70.2322 1.51767 77.7085 4.90683C78.0995 5.06934 78.4539 5.30881 78.7505 5.61102C79.0472 5.91322 79.28 6.27199 79.4353 6.66599C79.5905 7.05998 79.6649 7.48117 79.6541 7.90451C79.6433 8.32784 79.5475 8.74468 79.3723 9.13025C79.1972 9.51581 78.9464 9.86222 78.6347 10.1489C78.323 10.4356 77.9568 10.6566 77.558 10.799C77.1592 10.9413 76.7358 11.002 76.313 10.9775C75.8903 10.9529 75.4768 10.8436 75.0971 10.656C65.5219 6.31307 54.7981 5.18629 44.5294 7.4442C34.2606 9.7021 24.9986 15.2234 18.1284 23.1824C11.2582 31.1414 7.14887 41.1104 6.41497 51.5989C5.68108 62.0873 8.36202 72.5315 14.0569 81.3697C19.7518 90.2079 28.1546 96.9652 38.0089 100.631C47.8632 104.297 58.6393 104.675 68.726 101.708C78.8127 98.7404 87.668 92.5878 93.9675 84.1699C100.267 75.752 103.673 65.5211 103.675 55.007C103.676 51.9453 103.392 48.8901 102.825 45.8813C102.696 45.0693 102.888 44.2388 103.361 43.5663C103.834 42.8937 104.55 42.4321 105.358 42.2794C106.166 42.1268 107.002 42.2952 107.688 42.7489C108.373 43.2025 108.855 43.9057 109.031 44.709C110.541 52.6618 110.277 60.8498 108.259 68.6891C106.241 76.5284 102.518 83.8258 97.3555 90.0609C92.1931 96.296 85.7185 101.315 78.3934 104.761C71.0683 108.206 63.0733 109.993 54.9784 109.993L54.9924 110Z" fill="url(#paint1_linear_4_11)"/>
<path d="M98.3395 25.4397C98.3395 26.2564 98.0972 27.0547 97.6434 27.7336C97.1895 28.4125 96.5445 28.9416 95.7898 29.2538C95.0352 29.566 94.2049 29.6473 93.404 29.4875C92.6031 29.3277 91.8677 28.9338 91.2907 28.3559C90.7137 27.7779 90.3212 27.0418 90.1627 26.2406C90.0042 25.4395 90.087 24.6094 90.4005 23.8552C90.7139 23.1011 91.2441 22.457 91.9238 22.0043C92.6035 21.5516 93.4022 21.3107 94.2189 21.3121C94.7606 21.3121 95.297 21.4189 95.7974 21.6264C96.2978 21.8339 96.7524 22.1381 97.1351 22.5214C97.5178 22.9048 97.8212 23.3599 98.0279 23.8606C98.2345 24.3614 98.3404 24.898 98.3395 25.4397Z" fill="url(#paint2_linear_4_11)"/>
</g>
<defs>
<linearGradient id="paint0_linear_4_11" x1="54.9982" y1="-1.23128e-05" x2="110.211" y2="122.144" gradientUnits="userSpaceOnUse">
<stop stop-color="#6FCF97"/>
<stop offset="0.814673" stop-color="#219653"/>
</linearGradient>
<linearGradient id="paint1_linear_4_11" x1="54.9982" y1="-2.09541e-06" x2="110.211" y2="122.144" gradientUnits="userSpaceOnUse">
<stop stop-color="#6FCF97"/>
<stop offset="0.814673" stop-color="#219653"/>
</linearGradient>
<linearGradient id="paint2_linear_4_11" x1="54.9982" y1="3.91535e-05" x2="110.211" y2="122.144" gradientUnits="userSpaceOnUse">
<stop stop-color="#6FCF97"/>
<stop offset="0.814673" stop-color="#219653"/>
</linearGradient>
<clipPath id="clip0_4_11">
<rect width="110" height="110" fill="white"/>
</clipPath>
</defs>
</svg>
