<svg width="165" height="67" viewBox="0 0 165 67" fill="none" xmlns="http://www.w3.org/2000/svg">
<path d="M0 16C0 10.3995 0 7.59921 1.08993 5.46009C2.04867 3.57847 3.57847 2.04867 5.46009 1.08993C7.59921 0 10.3995 0 16 0H149C154.601 0 157.401 0 159.54 1.08993C161.422 2.04867 162.951 3.57847 163.91 5.46009C165 7.59921 165 10.3995 165 16V23.7244C165 34.1055 165 39.2961 163.043 43.3887C161.319 46.9927 158.555 49.9979 155.108 52.017C151.194 54.3099 146.021 54.744 135.676 55.6123L17.3382 65.5447C11.3202 66.0499 8.31122 66.3024 5.98986 65.2862C3.95032 64.3934 2.26705 62.8455 1.20678 60.8878C0 58.6595 0 55.64 0 49.6008V16Z" fill="#FF5555"/>
<path d="M34.9102 23.5566C30.8184 23.5566 28.2402 26.3984 28.2402 30.9492C28.2402 35.4902 30.7793 38.3516 34.9102 38.3516C39.0215 38.3516 41.5703 35.4902 41.5703 30.9492C41.5703 26.3984 39.0117 23.5566 34.9102 23.5566ZM34.9102 25.7344C37.4102 25.7344 39.002 27.7559 39.002 30.9492C39.002 34.123 37.4199 36.1738 34.9102 36.1738C32.3711 36.1738 30.8184 34.123 30.8184 30.9492C30.8184 27.7559 32.4102 25.7344 34.9102 25.7344ZM52.5078 27.3262H43.5039V29.2207H46.7949V38H49.2168V29.2207H52.5078V27.3262ZM61.6484 38H64.0703V27.3262H54.8027V38H57.2246V29.2207H61.6484V38ZM73.0547 27.1504C71.5898 27.1504 70.3496 27.8828 69.7344 29.0938H69.5684V27.3262H67.2344V41.5449H69.6562V36.3789H69.8223C70.3691 37.5117 71.5508 38.1758 73.084 38.1758C75.7793 38.1758 77.459 36.0566 77.459 32.668C77.459 29.25 75.7598 27.1504 73.0547 27.1504ZM72.293 36.1641C70.6426 36.1641 69.6172 34.8262 69.6074 32.668C69.6172 30.5098 70.6523 29.1719 72.3027 29.1719C73.9629 29.1719 74.9688 30.4805 74.9688 32.668C74.9688 34.8555 73.9727 36.1641 72.293 36.1641ZM83.0254 38.1758C84.4219 38.1758 85.5938 37.5703 86.1895 36.5352H86.3555V38H88.6895V30.7051C88.6895 28.4492 87.1465 27.1211 84.4023 27.1211C81.8633 27.1211 80.0957 28.3125 79.9004 30.1777H82.1855C82.4102 29.4453 83.1719 29.0449 84.2852 29.0449C85.5938 29.0449 86.2969 29.6406 86.2969 30.7051V31.623L83.543 31.7891C80.9453 31.9355 79.4902 33.0586 79.4902 34.9727C79.4902 36.9258 80.9648 38.1758 83.0254 38.1758ZM83.7383 36.3105C82.6641 36.3105 81.8926 35.7734 81.8926 34.8555C81.8926 33.9668 82.5273 33.4688 83.8848 33.3809L86.2969 33.2148V34.084C86.2969 35.3535 85.2031 36.3105 83.7383 36.3105ZM96.9121 38C99.2852 38 100.73 36.7793 100.73 34.9531C100.73 33.6543 99.8027 32.6777 98.3965 32.5215V32.3555C99.4805 32.1699 100.252 31.1836 100.252 30.0605C100.252 28.4102 98.9922 27.3262 96.8438 27.3262H91.7949V38H96.9121ZM94.1875 29.0059H96.2871C97.3613 29.0059 97.8789 29.5527 97.8789 30.373C97.8789 31.2715 97.293 31.7598 96.0918 31.7598H94.1875V29.0059ZM94.1875 33.3906H96.2676C97.5957 33.3906 98.2793 33.8789 98.2793 34.8457C98.2793 35.7734 97.6641 36.3203 96.4922 36.3203H94.1875V33.3906ZM105.828 38L110.379 30.8125H110.545V38H112.938V27.3262H110.545L105.994 34.4746H105.828V27.3262H103.436V38H105.828ZM124.246 27.3262H115.242V29.2207H118.533V38H120.955V29.2207H124.246V27.3262ZM126.541 38H131.082C133.572 38 135.164 36.5547 135.164 34.2793C135.164 32.0039 133.572 30.5488 131.082 30.5488H128.963V27.3262H126.541V38ZM130.789 32.4238C131.98 32.4238 132.752 33.1562 132.752 34.2695C132.752 35.373 131.99 36.1152 130.789 36.1152H128.963V32.4238H130.789Z" fill="white"/>
</svg>
