<svg width="19" height="18" viewBox="0 0 19 18" fill="none" xmlns="http://www.w3.org/2000/svg">
<path fill-rule="evenodd" clip-rule="evenodd" d="M10.1784 0.44083L12.3786 5.09983C12.4888 5.33483 12.7016 5.49883 12.9486 5.53683L17.8743 6.28583C18.0738 6.31383 18.2534 6.42383 18.3759 6.59183C18.6058 6.90683 18.5707 7.35283 18.2952 7.62383L14.7251 11.2578C14.5436 11.4378 14.4629 11.7018 14.5104 11.9588L15.3654 17.0868C15.4252 17.5118 15.1497 17.9098 14.746 17.9788C14.5788 18.0058 14.4078 17.9778 14.2558 17.8988L9.86869 15.4778C9.64829 15.3518 9.38422 15.3518 9.16382 15.4778L4.74442 17.9118C4.37487 18.1098 3.92267 17.9628 3.72127 17.5818C3.64432 17.4278 3.61772 17.2528 3.64432 17.0818L4.49932 11.9538C4.54207 11.6978 4.46132 11.4348 4.28462 11.2538L0.695523 7.62083C0.402923 7.31483 0.401023 6.81683 0.692673 6.50883C0.693623 6.50783 0.694573 6.50583 0.695523 6.50483C0.816173 6.38983 0.964374 6.31283 1.12492 6.28283L6.05162 5.53383C6.29767 5.49283 6.50952 5.33083 6.62162 5.09583L8.81992 0.44083C8.90827 0.25183 9.06502 0.10683 9.25502 0.0408302C9.44597 -0.0261698 9.65495 -0.0101698 9.8345 0.0848302C9.98175 0.16183 10.1024 0.28683 10.1784 0.44083Z" fill="#F2C94C"/>
</svg>
