<svg width="19" height="18" viewBox="0 0 19 18" fill="none" xmlns="http://www.w3.org/2000/svg">
<path fill-rule="evenodd" clip-rule="evenodd" d="M10.1167 1.29675L12.1169 5.48985C12.2171 5.70135 12.4105 5.84895 12.6351 5.88315L17.113 6.55725C17.2944 6.58245 17.4576 6.68145 17.569 6.83265C17.778 7.11615 17.7461 7.51755 17.4956 7.76145L14.2501 11.032C14.0851 11.194 14.0117 11.4316 14.0549 11.6629L14.8322 16.2781C14.8866 16.6606 14.6361 17.0188 14.2691 17.0809C14.1171 17.1052 13.9616 17.08 13.8234 17.0089L9.83518 14.83C9.63481 14.7166 9.39472 14.7166 9.19436 14.83L5.17675 17.0206C4.84079 17.1988 4.4297 17.0665 4.24661 16.7236C4.17666 16.585 4.15248 16.4275 4.17666 16.2736L4.95393 11.6584C4.99279 11.428 4.91938 11.1913 4.75875 11.0284L1.49593 7.75875C1.22993 7.48335 1.2282 7.03515 1.49334 6.75795C1.4942 6.75705 1.49507 6.75525 1.49593 6.75435C1.60561 6.65085 1.74034 6.58155 1.88629 6.55455L6.36511 5.88045C6.58879 5.84355 6.78138 5.69775 6.88329 5.48625L8.88172 1.29675C8.96204 1.12665 9.10454 0.996147 9.27727 0.936747C9.45086 0.876447 9.64086 0.890847 9.80409 0.976347C9.93795 1.04565 10.0476 1.15815 10.1167 1.29675Z" stroke="#3B3943" stroke-width="1.5" stroke-linecap="round" stroke-linejoin="round"/>
</svg>
