<svg width="20" height="18" viewBox="0 0 20 18" fill="none" xmlns="http://www.w3.org/2000/svg">
<path fill-rule="evenodd" clip-rule="evenodd" d="M10.7141 0.44083L13.0301 5.09983C13.1461 5.33483 13.3701 5.49883 13.6301 5.53683L18.8151 6.28583C19.0251 6.31383 19.2141 6.42383 19.3431 6.59183C19.5851 6.90683 19.5481 7.35283 19.2581 7.62383L15.5001 11.2578C15.3091 11.4378 15.2241 11.7018 15.2741 11.9588L16.1741 17.0868C16.2371 17.5118 15.9471 17.9098 15.5221 17.9788C15.3461 18.0058 15.1661 17.9778 15.0061 17.8988L10.3881 15.4778C10.1561 15.3518 9.87813 15.3518 9.64613 15.4778L4.99413 17.9118C4.60513 18.1098 4.12913 17.9628 3.91713 17.5818C3.83613 17.4278 3.80813 17.2528 3.83613 17.0818L4.73613 11.9538C4.78113 11.6978 4.69613 11.4348 4.51013 11.2538L0.732129 7.62083C0.424129 7.31483 0.422129 6.81683 0.729129 6.50883C0.730129 6.50783 0.731129 6.50583 0.732129 6.50483C0.859129 6.38983 1.01513 6.31283 1.18413 6.28283L6.37013 5.53383C6.62913 5.49283 6.85213 5.33083 6.97013 5.09583L9.28413 0.44083C9.37713 0.25183 9.54213 0.10683 9.74213 0.0408302C9.94313 -0.0261698 10.1631 -0.0101698 10.3521 0.0848302C10.5071 0.16183 10.6341 0.28683 10.7141 0.44083Z" fill="#F2C94C"/>
</svg>
