<svg width="10" height="11" viewBox="0 0 10 11" fill="none" xmlns="http://www.w3.org/2000/svg">
<path fill-rule="evenodd" clip-rule="evenodd" d="M5.32459 0.792457L6.37732 3.35491C6.43005 3.48416 6.53186 3.57436 6.65005 3.59526L9.00686 4.00721C9.10232 4.02261 9.18823 4.08311 9.24686 4.17551C9.35686 4.34876 9.34004 4.59406 9.20823 4.74311L7.50004 6.74179C7.41323 6.84079 7.37459 6.98599 7.39732 7.12734L7.80641 9.94774C7.83505 10.1815 7.70323 10.4004 7.51005 10.4383C7.43005 10.4532 7.34823 10.4378 7.2755 10.3943L5.17641 9.06279C5.07095 8.99349 4.94459 8.99349 4.83914 9.06279L2.7246 10.4015C2.54779 10.5104 2.33142 10.4295 2.23506 10.22C2.19824 10.1353 2.18551 10.039 2.19824 9.94499L2.60733 7.12459C2.62779 6.98379 2.58915 6.83914 2.5046 6.73959L0.787332 4.74146C0.647332 4.57316 0.646423 4.29926 0.785968 4.12986C0.786423 4.12931 0.786878 4.12821 0.787332 4.12766C0.845059 4.06441 0.915968 4.02206 0.992787 4.00556L3.35006 3.59361C3.46779 3.57106 3.56915 3.48196 3.62279 3.35271L4.67459 0.792457C4.71686 0.688507 4.79186 0.608757 4.88277 0.572457C4.97414 0.535607 5.07414 0.544407 5.16005 0.596657C5.2305 0.639007 5.28823 0.707757 5.32459 0.792457Z" stroke="#3B3943" stroke-width="1.5" stroke-linecap="round" stroke-linejoin="round"/>
</svg>
