<svg width="27" height="27" viewBox="0 0 27 27" fill="none" xmlns="http://www.w3.org/2000/svg">
<g id="telegram_symbol.svg" clip-path="url(#clip0_67_129)">
<g id="Group">
<g id="Artboard">
<path id="Oval" d="M13.5105 27.021C20.9722 27.021 27.021 20.9722 27.021 13.5105C27.021 6.04887 20.9722 0 13.5105 0C6.04887 0 0 6.04887 0 13.5105C0 20.9722 6.04887 27.021 13.5105 27.021Z" fill="url(#paint0_linear_67_129)"/>
<path id="Path-3" fill-rule="evenodd" clip-rule="evenodd" d="M6.10286 13.3631C10.0382 11.6375 12.6687 10.5221 13.9945 9.97496C17.7404 8.41767 18.5191 8.14409 19.0241 8.12305C19.1294 8.12305 19.3819 8.14409 19.5502 8.27036C19.6765 8.37558 19.7186 8.52289 19.7396 8.62811C19.7607 8.73334 19.7817 8.96482 19.7607 9.15422C19.5502 11.2797 18.6874 16.4777 18.2245 18.8557C18.035 19.8658 17.6562 20.2025 17.2985 20.2446C16.5199 20.3078 15.9096 19.7185 15.152 19.2345C13.9735 18.4559 13.3001 17.9718 12.1426 17.2142C10.8168 16.3304 11.6796 15.8464 12.4372 15.0677C12.6266 14.8573 16.099 11.7216 16.1621 11.427C16.1621 11.3849 16.1831 11.2587 16.099 11.1955C16.0148 11.1324 15.9096 11.1534 15.8254 11.1745C15.6991 11.1955 13.8051 12.4582 10.1223 14.9414C9.57519 15.3202 9.09117 15.4886 8.64924 15.4886C8.16521 15.4886 7.23926 15.215 6.54479 14.9835C5.70302 14.71 5.02959 14.5626 5.09273 14.0997C5.13482 13.8682 5.47153 13.6156 6.10286 13.3631Z" fill="white"/>
</g>
</g>
</g>
<defs>
<linearGradient id="paint0_linear_67_129" x1="0" y1="13.5007" x2="27.0015" y2="13.5007" gradientUnits="userSpaceOnUse">
<stop stop-color="#2AABEE"/>
<stop offset="1" stop-color="#229ED9"/>
</linearGradient>
<clipPath id="clip0_67_129">
<rect width="27" height="27" fill="white"/>
</clipPath>
</defs>
</svg>
