<svg width="26" height="26" viewBox="0 0 26 26" fill="none" xmlns="http://www.w3.org/2000/svg">
<g id="vk_symbol.svg" clip-path="url(#clip0_67_134)">
<path id="Vector" d="M0 12.4583C0 6.58542 0 3.64896 1.82448 1.82448C3.64896 0 6.58542 0 12.4583 0H13.5417C19.4146 0 22.3511 0 24.1755 1.82448C26 3.64896 26 6.58542 26 12.4583V13.5417C26 19.4146 26 22.3511 24.1755 24.1755C22.3511 26 19.4146 26 13.5417 26H12.4583C6.58542 26 3.64896 26 1.82448 24.1755C0 22.3511 0 19.4146 0 13.5417L0 12.4583Z" fill="#2787F5"/>
<path id="Vector_2" fill-rule="evenodd" clip-rule="evenodd" d="M7.04216 8.125H5.14589C4.60409 8.125 4.49573 8.38002 4.49573 8.66114C4.49573 9.16332 5.13861 11.6538 7.48909 14.9478C9.05607 17.1973 11.2638 18.4167 13.2728 18.4167C14.4782 18.4167 14.6273 18.1458 14.6273 17.6794V15.9792C14.6273 15.4375 14.7415 15.3294 15.1231 15.3294C15.4044 15.3294 15.8865 15.47 17.0116 16.5546C18.2973 17.84 18.5093 18.4167 19.2325 18.4167H21.1287C21.6706 18.4167 21.9415 18.1458 21.7852 17.6114C21.6142 17.0787 21.0003 16.3058 20.1858 15.3897C19.7438 14.8674 19.0808 14.3051 18.8799 14.0239C18.5987 13.6624 18.679 13.5016 18.8799 13.1803C18.8799 13.1803 21.1902 9.92653 21.4313 8.82191C21.5518 8.42015 21.4313 8.125 20.8579 8.125H18.9616C18.4794 8.125 18.2571 8.38002 18.1366 8.66114C18.1366 8.66114 17.1723 11.0111 15.8062 12.5376C15.3642 12.9794 15.1633 13.12 14.9222 13.12C14.8017 13.12 14.6272 12.9794 14.6272 12.5778V8.82191C14.6272 8.33983 14.4873 8.125 14.0854 8.125H11.1056C10.8043 8.125 10.6231 8.34871 10.6231 8.56077C10.6231 9.01772 11.3061 9.12313 11.3765 10.4086V13.2004C11.3765 13.8125 11.2659 13.9235 11.0249 13.9235C10.382 13.9235 8.81828 11.563 7.89084 8.86205C7.70911 8.33706 7.52679 8.125 7.04216 8.125Z" fill="white"/>
</g>
<defs>
<clipPath id="clip0_67_134">
<rect width="26" height="26" fill="white"/>
</clipPath>
</defs>
</svg>
