<svg width="26" height="26" viewBox="0 0 26 26" fill="none" xmlns="http://www.w3.org/2000/svg">
<path id="Vector" fill-rule="evenodd" clip-rule="evenodd" d="M22.2117 3.77818C19.7679 1.343 16.5177 0.00123551 13.0546 0C5.91868 0 0.111111 5.77909 0.108628 12.8826C0.107387 15.1535 0.703911 17.37 1.83675 19.3233L0 26L6.86282 24.2085C8.75355 25.2352 10.8827 25.7757 13.049 25.7764H13.0546C20.1893 25.7764 25.9975 19.9967 26 12.8931C26.0012 9.45042 24.6561 6.21399 22.2117 3.7788V3.77818ZM13.0546 23.6006H13.0503C11.1198 23.6001 9.22596 23.0836 7.57358 22.1082L7.18064 21.8759L3.10801 22.939L4.19491 18.9872L3.93917 18.582C2.8622 16.877 2.29298 14.9064 2.29423 12.8833C2.29671 6.97938 7.12352 2.17573 13.059 2.17573C15.9329 2.17696 18.6344 3.29201 20.666 5.31639C22.6977 7.34015 23.8156 10.0311 23.8144 12.8919C23.8119 18.7964 18.9851 23.6001 13.0546 23.6001V23.6006ZM18.9565 15.581C18.6331 15.4198 17.0429 14.6414 16.7461 14.5339C16.4494 14.4264 16.234 14.3727 16.0186 14.6951C15.8032 15.0176 15.1831 15.7428 14.9944 15.9572C14.8057 16.1722 14.617 16.1988 14.2936 16.0375C13.9702 15.8762 12.928 15.5365 11.6921 14.44C10.7306 13.5862 10.0813 12.5324 9.89264 12.2099C9.70392 11.8874 9.87278 11.7132 10.0341 11.5532C10.1794 11.4087 10.3575 11.177 10.5195 10.9892C10.6816 10.8014 10.735 10.6668 10.8429 10.4524C10.951 10.2374 10.897 10.0497 10.8163 9.88836C10.7355 9.72714 10.0888 8.14257 9.81876 7.49828C9.55616 6.87066 9.28929 6.95591 9.09126 6.94541C8.90254 6.93613 8.68718 6.93429 8.47116 6.93429C8.25515 6.93429 7.90501 7.01459 7.60832 7.33706C7.31163 7.6595 6.4761 8.43849 6.4761 10.0224C6.4761 11.6063 7.63504 13.1378 7.79704 13.3528C7.95903 13.5677 10.0782 16.819 13.3228 18.2139C14.0944 18.5456 14.6971 18.7439 15.167 18.8921C15.9417 19.1374 16.6468 19.1028 17.2042 19.02C17.8256 18.9274 19.1179 18.241 19.3873 17.4892C19.6567 16.7374 19.6567 16.0924 19.5761 15.9584C19.4954 15.8244 19.2794 15.7434 18.956 15.5822L18.9565 15.581Z" fill="#25D366"/>
</svg>
