<svg width="40.000000" height="40.000000" viewBox="0 0 40 40" fill="none" xmlns="http://www.w3.org/2000/svg" xmlns:xlink="http://www.w3.org/1999/xlink">
	<desc>
			Created with Pixso.
	</desc>
	<defs>
		<clipPath id="clip71_249">
			<rect id="Frame 5" rx="-0.500000" width="39.000000" height="39.000000" transform="translate(0.500000 0.500000)" fill="white" fill-opacity="0"/>
		</clipPath>
	</defs>
	<rect id="Frame 5" rx="-0.500000" width="39.000000" height="39.000000" transform="translate(0.500000 0.500000)" fill="#3A3A3A" fill-opacity="1.000000"/>
	<g clip-path="url(#clip71_249)">
		<path id="Vector" d="M17.25 19.9C17.25 19.08 17.09 18.31 16.82 17.59C16.75 19.96 14.35 21.79 12.94 23L16.47 23C16.96 22.08 17.25 21.02 17.25 19.9ZM14.69 14.69C13.57 13.82 12.17 13.29 10.64 13.29C6.99 13.29 4.04 16.25 4.04 19.9C4.04 23.55 6.99 26.5 10.64 26.5C12.31 26.5 13.83 25.88 15 24.85L10.21 24.85L10.2 23.45C13.08 20.95 14.85 19.25 14.85 17.62C14.85 17.01 14.62 16.24 13.57 16.24C12.75 16.24 11.95 16.72 12.1 18.72L10.42 18.72C10 16.4 11.26 14.56 13.66 14.56C14.03 14.56 14.38 14.6 14.69 14.69Z" fill="#6B6B6B" fill-opacity="1.000000" fill-rule="nonzero"/>
		<path id="Vector" d="M23.37 17.86L24.94 17.86C24.99 16.67 24.59 14.79 22.01 14.79C20.11 14.79 18.74 15.92 18.74 18.28C18.74 18.61 18.75 20.26 18.75 21.29C18.75 23.85 20.53 24.41 22.02 24.41C22.92 24.41 24.21 24.21 24.81 23.56L24.81 19.47L21.88 19.47L21.88 20.96L23.19 20.96L23.19 22.76C22.2 23.09 20.39 23.23 20.39 20.96L20.39 18.28C20.39 16.7 21.13 16.15 21.94 16.15C22.79 16.15 23.37 16.58 23.37 17.86ZM34.99 21.82C35.06 18.16 30.87 19.38 30.91 17.34C30.92 16.62 31.39 16.15 32.15 16.15C32.96 16.15 33.44 16.63 33.43 17.88L34.97 17.88C35.01 16.75 34.74 14.81 32.2 14.81C30.63 14.81 29.33 15.59 29.31 17.31C29.24 20.82 33.46 19.67 33.39 21.8C33.36 22.66 32.74 23.05 32.03 23.05C31.2 23.05 30.53 22.57 30.67 21.13L29.12 21.13C28.94 23.04 29.79 24.4 32.02 24.4C33.9 24.4 34.97 23.36 34.99 21.82ZM27.94 24.28L26.36 24.28L26.36 14.93L27.94 14.93L27.94 24.28Z" fill="#6B6B6B" fill-opacity="1.000000" fill-rule="nonzero"/>
	</g>
</svg>
