<svg width="67.000000" height="71.000000" viewBox="0 0 67 71" fill="none" xmlns="http://www.w3.org/2000/svg" xmlns:xlink="http://www.w3.org/1999/xlink">
	<desc>
			Created with Pixso.
	</desc>
	<defs/>
	<path id="Vector" d="M38.49 0.01C38.99 0.04 41.55 0.51 44.19 1.06C46.83 1.62 51.14 2.49 53.78 3.02C56.43 3.56 58.83 4.1 59.12 4.23C59.43 4.36 59.9 4.75 60.21 5.1C60.56 5.52 60.79 5.95 60.88 6.39C60.96 6.75 60.97 7.25 60.93 7.5C60.88 7.74 60.72 8.17 60.58 8.43C60.46 8.69 59.44 9.8 58.35 10.89C57.16 12.07 56.25 12.87 56.08 12.87C55.93 12.87 55.63 12.76 55.42 12.59C55.12 12.37 55.04 12.2 55.04 11.8C55.05 11.32 55.2 11.12 56.98 9.29C58.73 7.53 58.92 7.28 58.85 6.95C58.8 6.72 58.67 6.45 58.54 6.32C58.37 6.14 55.58 5.52 38.22 1.98L37.83 2.27C37.56 2.48 37.43 2.7 37.42 3.03C37.39 3.3 38.28 7.9 39.38 13.29C41.2 22.13 41.42 23.1 41.71 23.32C41.89 23.46 42.19 23.57 42.38 23.55C42.65 23.55 43.83 22.46 47.37 18.98C51.31 15.09 52.06 14.4 52.41 14.4C52.63 14.4 52.94 14.52 53.09 14.67C53.26 14.84 53.37 15.13 53.37 15.4C53.37 15.81 52.92 16.3 48.61 20.6C44.59 24.58 43.76 25.36 43.29 25.48C42.98 25.57 42.53 25.64 42.31 25.64C42.09 25.64 41.66 25.55 41.35 25.46C41.06 25.37 40.6 25.11 40.32 24.87C40.06 24.64 39.73 24.22 39.59 23.93C39.43 23.65 38.42 18.98 37.31 13.52C36.19 8.1 35.29 3.32 35.29 2.95C35.29 2.44 35.4 2.06 35.71 1.52C36.01 0.99 36.32 0.69 36.85 0.38C37.5 0.01 37.68 -0.03 38.49 0.01ZM47.14 28.7C47.64 28.69 48.14 28.79 48.46 28.92C48.74 29.06 49.14 29.34 49.33 29.54C49.53 29.73 51.35 32.56 53.39 35.85C55.44 39.12 57.21 41.93 57.32 42.08C57.51 42.36 57.52 42.36 59.51 41.95C60.86 41.69 61.65 41.59 61.99 41.66C62.25 41.72 62.7 41.87 62.96 42.01C63.23 42.15 63.59 42.41 63.75 42.59C63.92 42.76 64.19 43.19 64.34 43.54C64.49 43.88 64.63 44.37 64.63 44.6C64.63 44.85 64.28 46.73 63.87 48.77C63.45 50.82 63.07 52.62 63.03 52.79C62.96 53.11 62.98 53.11 64.38 53.11C65.6 53.1 65.87 53.14 66.19 53.39C66.41 53.54 66.68 53.86 66.79 54.08C66.9 54.3 67 54.61 67 54.73C67 54.87 65.99 58.16 64.77 62.06C63.55 65.96 62.45 69.4 62.34 69.72C62.21 70.07 61.93 70.45 61.22 71L5.74 71L5.28 70.66C5.03 70.47 4.75 70.07 4.63 69.72C4.51 69.4 3.44 66.04 2.25 62.27C1.05 58.49 0.04 55.2 0.01 54.98C-0.03 54.76 0.02 54.39 0.13 54.16C0.23 53.94 0.48 53.61 0.69 53.43C1.01 53.17 1.23 53.11 1.94 53.11C2.76 53.12 2.83 53.1 3.01 52.73C3.11 52.53 4.86 48.6 6.88 44.02C8.91 39.44 10.69 35.53 10.83 35.31C10.98 35.1 11.36 34.78 11.68 34.59C12.01 34.41 12.55 34.21 12.9 34.16C13.25 34.11 13.78 34.14 14.08 34.23C14.39 34.31 14.82 34.52 15.06 34.67C15.29 34.84 17.48 37.1 24.37 44.47L25.14 43.95C25.55 43.67 26.18 43.33 26.53 43.2C26.88 43.06 27.63 42.92 28.2 42.88C29.03 42.81 29.32 42.73 29.66 42.45C29.89 42.26 30.45 41.93 30.91 41.72C31.37 41.5 32.09 41.25 32.51 41.16C32.92 41.08 33.7 41.04 34.25 41.08C34.79 41.11 35.48 41.25 36.4 41.59L37.21 40.44C37.65 39.82 39.54 37.11 41.42 34.45C43.3 31.77 45.02 29.45 45.25 29.29C45.47 29.12 45.8 28.92 46 28.84C46.19 28.77 46.71 28.7 47.14 28.7ZM42.33 36.82C40.07 40.01 38.25 42.68 38.29 42.73C38.32 42.8 38.64 42.84 39 42.84C39.38 42.84 40.03 42.94 40.46 43.05C40.91 43.16 41.53 43.4 41.85 43.56C42.19 43.73 42.73 44.13 43.08 44.45C43.42 44.78 43.81 45.05 43.94 45.06C44.08 45.06 46.36 44.62 49.01 44.08C51.68 43.54 54.15 43.04 54.51 42.97C55.05 42.87 55.16 42.8 55.09 42.59C55.05 42.47 53.48 39.89 51.6 36.88C49.72 33.86 48.05 31.26 47.89 31.08C47.71 30.88 47.44 30.77 47.18 30.77C46.96 30.77 46.68 30.83 46.58 30.88C46.5 30.95 44.56 33.61 42.33 36.82ZM8.8 44.85C6.84 49.28 5.25 52.94 5.25 53.01C5.25 53.07 5.85 53.11 6.57 53.11L7.89 53.11C7.89 52.32 8.01 52.03 8.17 51.86C8.34 51.69 8.63 51.58 8.94 51.58C9.3 51.58 9.49 51.68 9.72 51.97C9.91 52.24 9.98 52.46 9.92 52.73L9.84 53.11C19.26 53.11 21.24 53.07 21.24 52.97C21.24 52.89 21.05 52.17 20.83 51.35C20.59 50.51 20.34 49.71 20.27 49.54C20.17 49.34 20.01 49.22 19.78 49.22C19.56 49.22 19.32 49.09 19.16 48.85C18.99 48.63 18.87 48.35 18.88 48.23C18.88 48.09 19.06 47.78 19.28 47.56C19.69 47.14 19.71 47.14 21.2 47.14L22.7 47.14C23.07 46.12 23.07 46.09 22.61 45.62C22.34 45.35 20.28 43.17 18.03 40.77C15.78 38.39 13.83 36.36 13.71 36.31C13.57 36.24 13.37 36.18 13.26 36.18C13.15 36.18 12.9 36.32 12.71 36.5C12.46 36.71 11.22 39.39 8.8 44.85ZM31.6 43.63C31.45 43.72 31.03 44.03 30.66 44.35C30.02 44.91 29.99 44.92 28.96 44.92C28.31 44.92 27.67 45.02 27.25 45.17C26.89 45.3 26.35 45.62 26.04 45.85C25.74 46.09 25.37 46.48 25.23 46.71L25 47.14L42.66 47.14C42.24 46.55 41.95 46.21 41.73 46.01C41.52 45.81 41.09 45.51 40.78 45.33C40.35 45.09 39.89 45.01 38.9 44.94C37.64 44.85 37.54 44.83 36.96 44.35C36.61 44.08 36.05 43.7 35.71 43.54C35.26 43.3 34.77 43.2 34.04 43.16C33.43 43.13 32.77 43.2 32.44 43.3C32.13 43.41 31.76 43.55 31.6 43.63ZM50.93 45.81C47.72 46.48 45.06 47.02 45.02 47.03C44.98 47.05 45.66 47.09 46.53 47.13C48 47.21 48.12 47.24 48.37 47.56C48.53 47.75 48.65 48.06 48.65 48.25C48.64 48.45 48.57 48.71 48.47 48.85C48.37 48.99 48.07 49.14 47.8 49.21C47.32 49.31 47.32 49.32 46.87 50.82C46.62 51.67 46.39 52.51 46.34 52.73L46.27 53.11L55.73 53.11C55.58 52.62 55.55 52.33 55.56 52.14C55.56 51.94 55.7 51.67 55.87 51.51C56.05 51.33 56.32 51.25 56.61 51.26C56.89 51.28 57.15 51.42 57.32 51.61C57.51 51.86 57.55 52.07 57.48 52.53L57.4 53.11C60.1 53.11 60.88 53.1 60.88 53.08C60.88 53.05 61.25 51.18 61.71 48.92C62.17 46.64 62.55 44.69 62.55 44.58C62.55 44.47 62.39 44.22 62.2 44.02C62 43.83 61.71 43.67 61.53 43.69C61.36 43.7 60.22 43.91 59 44.16C57.78 44.42 54.15 45.16 50.93 45.81ZM22.93 51.14C23.15 51.96 23.37 52.73 23.41 52.87C23.47 53.1 24.08 53.11 33.76 53.11C43.44 53.11 44.05 53.1 44.11 52.87C44.15 52.73 44.37 51.96 44.59 51.14C44.83 50.31 45.02 49.54 45.02 49.43C45.02 49.25 43.67 49.22 33.76 49.22C23.84 49.22 22.5 49.25 22.5 49.43C22.5 49.54 22.69 50.31 22.93 51.14ZM2.33 55.58C2.4 55.79 2.85 57.18 3.3 58.66C3.78 60.14 4.28 61.75 4.43 62.24L4.7 63.1C46.65 63.1 46.83 63.1 47.11 63.38C47.28 63.54 47.39 63.84 47.39 64.14C47.39 64.52 47.29 64.7 47 64.9C46.62 65.2 46.53 65.2 26 65.18C9.58 65.18 5.4 65.22 5.45 65.36C5.47 65.44 5.74 66.29 6.03 67.23L6.57 68.93L60.39 68.93C61.22 66.29 61.49 65.44 61.52 65.36C61.56 65.22 60.47 65.18 56.38 65.18C51.39 65.2 51.2 65.18 50.82 64.9C50.54 64.7 50.45 64.52 50.45 64.14C50.45 63.84 50.56 63.54 50.72 63.38C50.99 63.11 51.18 63.1 56.63 63.1L62.27 63.1C62.68 61.75 63.18 60.14 63.66 58.66C64.12 57.18 64.56 55.79 64.63 55.58L64.77 55.19L2.21 55.19L2.33 55.58ZM41.25 5.52C41.45 5.52 41.74 5.6 41.89 5.71C42.05 5.81 42.21 6.06 42.28 6.27C42.34 6.5 42.31 6.78 42.19 7.02C42.09 7.22 41.91 7.45 41.77 7.5C41.64 7.56 41.44 7.61 41.31 7.61C41.17 7.61 40.89 7.49 40.68 7.33C40.42 7.14 40.28 6.9 40.27 6.61C40.25 6.31 40.35 6.07 40.57 5.85C40.75 5.67 41.06 5.52 41.25 5.52ZM45.93 7.06C46.3 7.06 46.48 7.14 46.69 7.43C46.86 7.64 46.97 7.94 46.97 8.1C46.97 8.25 46.89 8.47 46.79 8.6C46.71 8.72 46.47 8.89 46.27 8.97C46.04 9.05 45.8 9.05 45.51 8.93C45.29 8.85 45.05 8.67 45 8.53C44.93 8.4 44.88 8.15 44.88 7.97C44.87 7.81 45.01 7.51 45.16 7.35C45.36 7.15 45.62 7.06 45.93 7.06ZM52.81 7.18C53.01 7.18 53.3 7.31 53.48 7.46C53.69 7.65 53.78 7.9 53.78 8.24C53.78 8.6 53.69 8.78 53.41 9C53.19 9.15 52.89 9.28 52.74 9.28C52.59 9.26 52.37 9.18 52.23 9.1C52.1 9 51.93 8.76 51.87 8.58C51.78 8.36 51.78 8.1 51.87 7.89C51.93 7.7 52.1 7.46 52.23 7.36C52.35 7.26 52.62 7.18 52.81 7.18ZM42.63 11.62C42.84 11.62 43.16 11.73 43.34 11.87C43.58 12.04 43.67 12.25 43.67 12.61C43.67 12.95 43.58 13.18 43.3 13.4C43.1 13.56 42.83 13.72 42.7 13.72C42.56 13.72 42.28 13.59 42.08 13.44C41.78 13.22 41.69 13.04 41.69 12.68C41.69 12.37 41.8 12.08 41.96 11.91C42.12 11.76 42.41 11.62 42.63 11.62ZM49.47 11.91C49.67 11.91 49.96 12.02 50.14 12.18C50.35 12.37 50.45 12.62 50.45 12.95C50.45 13.31 50.35 13.5 50.07 13.72C49.85 13.87 49.6 13.99 49.52 13.99C49.42 13.99 49.18 13.91 48.99 13.81C48.79 13.72 48.57 13.47 48.5 13.26C48.4 12.98 48.42 12.77 48.57 12.47C48.68 12.25 48.86 12.04 48.96 12C49.04 11.95 49.28 11.93 49.47 11.91ZM31.09 12.33C31.69 12.33 32.12 12.4 32.48 12.59C32.76 12.73 33.16 13.02 33.36 13.25C33.56 13.47 33.83 13.84 33.95 14.09C34.08 14.34 34.18 14.88 34.18 15.31C34.18 15.73 33.88 17.46 33.54 19.16C33.19 20.85 32.84 22.35 32.77 22.49C32.7 22.63 32.51 22.76 32.34 22.81C32.16 22.85 31.87 22.87 31.69 22.85C31.51 22.82 31.23 22.64 31.09 22.46C30.81 22.11 30.81 22.1 31.45 18.99C31.8 17.27 32.09 15.65 32.09 15.38C32.09 15.1 31.98 14.79 31.84 14.65C31.69 14.48 31.41 14.4 31.05 14.4C30.74 14.41 30.21 14.48 29.87 14.55C29.52 14.63 26.21 15.31 22.5 16.08C18.78 16.83 14.69 17.66 13.39 17.92C11.65 18.28 10.98 18.48 10.84 18.66C10.74 18.8 10.67 19.13 10.67 19.41C10.67 19.85 11.16 20.38 18.64 27.83C26.32 35.5 26.61 35.77 27.13 35.77C27.46 35.77 27.72 35.68 27.89 35.5C28.06 35.32 28.42 33.85 29.03 30.83C29.62 28.01 30.02 26.3 30.19 26.09C30.35 25.87 30.56 25.79 30.91 25.79C31.21 25.79 31.51 25.89 31.67 26.07C31.83 26.22 31.95 26.48 31.95 26.65C31.95 26.82 31.53 28.97 31.05 31.41C30.37 34.68 30.05 36 29.8 36.43C29.6 36.75 29.28 37.14 29.07 37.29C28.85 37.43 28.5 37.62 28.27 37.71C28.04 37.8 27.54 37.87 27.15 37.87C26.78 37.87 26.21 37.78 25.9 37.65C25.49 37.49 23.26 35.34 17.24 29.35C12.11 24.23 9.03 21.07 8.87 20.72C8.68 20.35 8.59 19.89 8.59 19.34C8.59 18.74 8.67 18.32 8.89 17.88C9.08 17.53 9.46 17.09 9.77 16.87C10.08 16.64 10.45 16.44 10.61 16.4C10.76 16.34 15.24 15.41 20.55 14.33C26.43 13.12 30.56 12.34 31.09 12.33ZM43.84 17.13C43.99 17.17 44.27 17.37 44.44 17.57C44.69 17.84 44.75 18.03 44.68 18.3C44.63 18.48 44.48 18.75 44.36 18.88C44.22 19.03 43.92 19.13 43.67 19.13C43.41 19.13 43.1 19 42.94 18.85C42.78 18.7 42.66 18.41 42.66 18.23C42.66 18.03 42.73 17.74 42.83 17.59C42.92 17.44 43.12 17.24 43.29 17.19C43.44 17.12 43.69 17.09 43.84 17.13ZM27.63 17.32C27.9 17.32 28.24 17.44 28.38 17.56C28.52 17.7 28.63 18 28.63 18.3C28.63 18.6 28.52 18.86 28.32 19.06C28.17 19.21 27.85 19.34 27.64 19.34C27.43 19.34 27.13 19.21 26.96 19.06C26.78 18.88 26.65 18.59 26.64 18.3C26.63 18 26.71 17.73 26.88 17.57C27.03 17.42 27.32 17.32 27.63 17.32ZM21.54 18.71C21.97 18.71 22.13 18.78 22.36 19.09C22.52 19.29 22.65 19.56 22.65 19.68C22.65 19.79 22.52 20.06 22.36 20.27C22.15 20.56 21.97 20.65 21.59 20.65C21.29 20.65 20.99 20.54 20.83 20.38C20.67 20.22 20.55 19.92 20.53 19.71C20.53 19.49 20.63 19.18 20.76 19.02C20.92 18.78 21.12 18.71 21.54 18.71ZM16.04 19.68C16.33 19.68 16.63 19.78 16.79 19.96C16.95 20.11 17.07 20.39 17.07 20.59C17.07 20.77 17.03 21.03 16.97 21.15C16.9 21.29 16.68 21.47 16.45 21.56C16.18 21.67 15.9 21.68 15.68 21.61C15.49 21.54 15.25 21.33 15.17 21.14C15.07 20.95 14.99 20.7 14.97 20.6C14.96 20.49 15.1 20.24 15.26 20.04C15.47 19.78 15.7 19.68 16.04 19.68ZM26.21 21.9C26.54 21.9 26.74 22 26.95 22.28C27.11 22.49 27.24 22.79 27.24 22.94C27.24 23.1 27.13 23.36 26.99 23.53C26.85 23.69 26.56 23.87 26.32 23.93C25.99 24 25.83 23.94 25.53 23.65C25.3 23.44 25.12 23.11 25.11 22.92C25.1 22.68 25.21 22.42 25.42 22.22C25.62 22.01 25.9 21.9 26.21 21.9ZM21.27 25.37C21.41 25.37 21.69 25.51 21.88 25.68C22.16 25.91 22.24 26.12 22.24 26.48C22.23 26.82 22.13 27.04 21.91 27.2C21.73 27.34 21.42 27.45 21.22 27.45C20.99 27.45 20.7 27.33 20.55 27.18C20.38 27.01 20.27 26.69 20.26 26.41C20.24 26.05 20.34 25.87 20.63 25.65C20.84 25.5 21.12 25.37 21.27 25.37ZM25.96 28.69C26.08 28.69 26.35 28.81 26.57 28.97C26.88 29.19 26.95 29.35 26.95 29.81C26.95 30.23 26.88 30.41 26.64 30.58C26.46 30.69 26.15 30.78 25.94 30.78C25.72 30.78 25.43 30.66 25.28 30.51C25.11 30.34 25 30.02 24.98 29.74C24.97 29.38 25.07 29.2 25.36 28.98C25.57 28.83 25.83 28.69 25.96 28.69ZM46.58 35.21C46.76 35.21 47.07 35.34 47.29 35.49C47.57 35.71 47.67 35.89 47.67 36.26C47.67 36.63 47.57 36.81 47.29 37.03C47.07 37.18 46.76 37.31 46.59 37.31C46.41 37.31 46.12 37.14 45.93 36.96C45.73 36.75 45.58 36.45 45.59 36.25C45.59 36.06 45.75 35.75 45.93 35.56C46.11 35.38 46.4 35.21 46.58 35.21ZM48.99 39.61C49.14 39.65 49.38 39.82 49.52 39.98C49.65 40.15 49.77 40.46 49.75 40.66C49.75 40.87 49.63 41.16 49.47 41.33C49.31 41.5 49.01 41.61 48.71 41.61C48.33 41.61 48.15 41.51 47.94 41.22C47.79 41.01 47.65 40.75 47.67 40.64C47.67 40.51 47.76 40.27 47.89 40.09C48.01 39.93 48.25 39.72 48.42 39.66C48.57 39.59 48.83 39.57 48.99 39.61ZM43.35 40.43C43.55 40.47 43.81 40.64 43.95 40.8C44.09 40.98 44.2 41.27 44.19 41.47C44.19 41.65 44.05 41.95 43.87 42.12C43.67 42.33 43.4 42.44 43.12 42.44C42.78 42.44 42.59 42.33 42.38 42.05C42.23 41.84 42.1 41.59 42.1 41.5C42.1 41.4 42.19 41.16 42.28 40.98C42.37 40.79 42.58 40.57 42.73 40.5C42.88 40.43 43.16 40.4 43.35 40.43ZM13.68 40.77C13.99 40.77 14.24 40.87 14.43 41.08C14.58 41.25 14.71 41.54 14.71 41.7C14.71 41.87 14.65 42.13 14.57 42.3C14.5 42.45 14.26 42.63 14.05 42.72C13.79 42.81 13.55 42.81 13.32 42.72C13.12 42.63 12.89 42.43 12.8 42.23C12.71 42.04 12.62 41.79 12.61 41.69C12.59 41.58 12.73 41.33 12.9 41.14C13.11 40.87 13.33 40.77 13.68 40.77ZM16.6 44.66C16.89 44.66 17.18 44.76 17.35 44.94C17.5 45.09 17.63 45.39 17.63 45.63C17.63 45.85 17.5 46.16 17.35 46.32C17.2 46.48 16.96 46.6 16.84 46.62C16.7 46.62 16.49 46.62 16.38 46.6C16.27 46.59 16.03 46.42 15.86 46.24C15.68 46.06 15.54 45.78 15.53 45.64C15.51 45.51 15.65 45.21 15.82 45.02C16.03 44.76 16.25 44.66 16.6 44.66ZM11.43 46.5C11.66 46.56 11.97 46.74 12.11 46.91C12.25 47.07 12.36 47.37 12.34 47.53C12.34 47.7 12.19 48 12.01 48.2C11.8 48.41 11.51 48.53 11.27 48.53C11.06 48.53 10.74 48.39 10.56 48.23C10.38 48.04 10.26 47.75 10.26 47.53C10.27 47.31 10.42 46.99 10.63 46.78C10.91 46.49 11.08 46.44 11.43 46.5ZM58.23 46.67C58.43 46.71 58.69 46.88 58.83 47.05C58.97 47.23 59.08 47.48 59.08 47.64C59.08 47.8 58.96 48.09 58.79 48.29C58.58 48.59 58.4 48.68 58.03 48.68C57.65 48.68 57.47 48.59 57.26 48.29C57.11 48.09 56.98 47.81 56.98 47.67C56.98 47.53 57.05 47.3 57.15 47.14C57.25 46.99 57.44 46.8 57.61 46.73C57.76 46.66 58.04 46.64 58.23 46.67ZM51.91 47.99C52.1 47.99 52.41 48.14 52.6 48.34C52.81 48.53 52.95 48.84 52.95 49.06C52.95 49.27 52.81 49.59 52.63 49.75C52.46 49.93 52.16 50.07 51.95 50.07C51.73 50.07 51.41 49.92 51.21 49.72C51.02 49.52 50.86 49.21 50.88 49.02C50.88 48.82 51.03 48.52 51.21 48.32C51.39 48.14 51.71 47.99 51.91 47.99ZM15.82 49.45C16.01 49.49 16.28 49.65 16.42 49.82C16.56 50 16.67 50.31 16.65 50.51C16.65 50.72 16.53 51.01 16.38 51.18C16.21 51.35 15.92 51.46 15.61 51.46C15.24 51.46 15.06 51.36 14.85 51.07C14.69 50.86 14.57 50.61 14.57 50.51C14.57 50.42 14.65 50.18 14.75 50C14.83 49.81 15.04 49.59 15.19 49.52C15.35 49.45 15.63 49.42 15.82 49.45Z" fill="#FFFFFF" fill-opacity="1.000000" fill-rule="evenodd"/>
</svg>
