<svg width="65.000000" height="64.000000" viewBox="0 0 65 64" fill="none" xmlns="http://www.w3.org/2000/svg" xmlns:xlink="http://www.w3.org/1999/xlink">
	<desc>
			Created with Pixso.
	</desc>
	<defs/>
	<path id="Vector" d="M14.02 0C14.65 -0.02 15 0.06 15.42 0.28C15.73 0.45 16.2 0.82 16.47 1.13C16.74 1.42 17.04 1.91 17.12 2.2C17.22 2.48 17.3 2.93 17.3 3.19C17.3 3.44 17.22 3.89 17.14 4.19C17.03 4.51 16.7 4.99 16.28 5.39C15.88 5.8 15.39 6.12 15.07 6.23C14.77 6.31 14.31 6.39 14.05 6.39C13.79 6.39 13.33 6.31 13.04 6.23C12.71 6.12 12.22 5.8 11.82 5.39C11.4 4.99 11.07 4.51 10.96 4.19C10.88 3.89 10.8 3.44 10.8 3.19C10.8 2.93 10.88 2.48 10.98 2.2C11.06 1.91 11.38 1.41 11.68 1.09C11.98 0.78 12.44 0.41 12.7 0.26C13.02 0.09 13.44 0 14.02 0ZM12.97 3.19C12.97 3.44 13.09 3.71 13.31 3.92C13.52 4.13 13.79 4.25 14.05 4.25C14.32 4.25 14.59 4.13 14.79 3.92C15.01 3.72 15.13 3.43 15.13 3.19C15.13 2.93 15.01 2.67 14.79 2.45C14.58 2.24 14.31 2.12 14.05 2.12C13.78 2.12 13.51 2.24 13.31 2.45C13.12 2.64 12.98 2.93 12.97 3.19ZM8.3 9.34C8.53 9.34 9.25 9.39 9.92 9.47C10.6 9.55 11.68 9.8 12.36 10.01C13.04 10.22 13.97 10.61 14.44 10.89C14.92 11.17 15.67 11.73 16.13 12.14C16.58 12.56 17.11 13.11 17.64 13.84L18.38 13.24C18.79 12.92 19.44 12.51 19.8 12.33C20.18 12.16 20.87 11.94 21.36 11.85C21.89 11.76 22.64 11.72 23.25 11.77C23.81 11.81 24.7 11.98 25.22 12.14C25.73 12.3 26.6 12.64 27.11 12.89C27.63 13.16 28.48 13.67 28.99 14.05C29.51 14.43 30.21 15.04 30.55 15.4C30.89 15.78 31.42 16.44 31.71 16.87C32 17.31 32.44 18.13 32.69 18.67C32.93 19.22 33.2 20.05 33.3 20.52C33.47 21.34 33.47 21.34 33.95 21.34C34.2 21.34 34.84 21.44 35.37 21.54C35.9 21.65 36.83 22 37.47 22.32C38.3 22.72 38.87 23.13 39.58 23.81C40.1 24.32 40.74 25.12 41.46 26.39L42.88 26.74C43.66 26.92 44.49 27.11 44.71 27.15C44.92 27.19 45.27 27.16 45.49 27.08C45.69 27.02 45.9 26.82 45.94 26.66C45.98 26.48 45.79 25.45 45.52 24.35C45.18 23.01 44.99 21.9 44.95 21.01C44.9 19.97 44.94 19.49 45.13 18.81C45.26 18.33 45.61 17.58 45.91 17.14C46.2 16.7 46.76 16.04 47.16 15.67C47.55 15.31 48.2 14.8 48.59 14.57C48.98 14.33 49.7 13.97 50.19 13.79C50.68 13.6 51.43 13.4 51.88 13.35C52.33 13.31 53.06 13.31 53.5 13.36C53.95 13.4 54.65 13.57 55.06 13.72C55.52 13.88 56.1 14.25 56.6 14.69C57.16 15.19 57.52 15.68 57.85 16.34C58.11 16.84 58.4 17.7 58.51 18.21C58.62 18.71 58.72 19.82 58.72 20.65C58.72 21.46 58.63 22.58 58.53 23.1C58.43 23.64 58.2 24.41 58.02 24.81C57.85 25.21 57.42 25.92 56.41 27.22L57.2 27.28C57.62 27.34 58.39 27.46 58.92 27.56C59.45 27.67 60.2 27.94 60.61 28.16C61.02 28.38 61.71 28.82 62.14 29.15C62.56 29.49 63.18 30.1 63.52 30.53C63.86 30.94 64.33 31.68 65 33.02L64.9 34.63C64.85 35.51 64.71 36.86 64.59 37.63C64.48 38.4 64.18 39.82 63.93 40.77C63.68 41.71 63.25 43.1 62.98 43.84C62.69 44.57 62.14 45.83 61.73 46.64C61.33 47.45 60.7 48.58 60.37 49.16C60.01 49.74 59.24 50.85 58.65 51.63C58.05 52.41 56.86 53.76 56.01 54.64C55.16 55.5 53.96 56.61 53.37 57.08C52.77 57.56 51.62 58.39 50.8 58.92C49.97 59.47 48.51 60.3 47.55 60.78C46.59 61.24 45.18 61.86 44.44 62.13C43.69 62.41 42.28 62.82 41.32 63.06C40.36 63.31 38.86 63.62 38.01 63.75C36.76 63.94 35.67 64 32.46 64C29.25 64 28.15 63.94 26.91 63.75C26.06 63.62 24.57 63.31 23.59 63.06C22.62 62.82 21.22 62.39 20.48 62.13C19.73 61.86 18.46 61.3 17.64 60.9C16.81 60.5 15.63 59.86 15 59.48C14.36 59.11 13.24 58.35 12.49 57.8C11.75 57.25 10.29 55.97 9.23 54.93C8.18 53.89 6.84 52.41 6.25 51.62C5.67 50.85 4.89 49.7 4.51 49.08C4.14 48.48 3.52 47.35 3.14 46.57C2.75 45.8 2.21 44.57 1.94 43.84C1.65 43.1 1.23 41.71 0.99 40.77C0.73 39.82 0.43 38.34 0.3 37.5C0.12 36.43 0.06 35.16 0.04 33.29C0.04 31.11 0.08 30.49 0.27 29.89C0.41 29.49 0.75 28.86 1.02 28.5C1.3 28.12 1.92 27.58 2.41 27.26C2.9 26.94 3.82 26.46 5.62 25.68L4.37 23.81C3.7 22.78 2.75 21.32 2.27 20.54C1.8 19.77 1.18 18.66 0.91 18.07C0.62 17.48 0.29 16.62 0.16 16.14C0.04 15.66 -0.03 14.97 0 14.6C0.03 14.24 0.2 13.64 0.38 13.27C0.57 12.91 1.03 12.26 1.41 11.86C1.79 11.46 2.46 10.94 2.9 10.7C3.33 10.48 4.21 10.13 4.85 9.94C5.48 9.76 6.43 9.54 6.94 9.47C7.46 9.41 8.07 9.35 8.3 9.34ZM5.59 11.93C5.14 12.06 4.51 12.3 4.17 12.47C3.83 12.64 3.28 13.08 2.92 13.45C2.56 13.83 2.23 14.29 2.19 14.51C2.14 14.71 2.14 15.11 2.19 15.4C2.23 15.7 2.55 16.48 2.86 17.14C3.18 17.79 3.9 19.06 4.44 19.94C5 20.82 6.09 22.5 6.88 23.68C7.68 24.85 8.96 26.66 9.75 27.68C10.52 28.71 11.63 30.11 12.2 30.79L13.24 32.02L15.13 32.02C15.01 31.45 14.81 30.63 14.59 29.82C14.39 29.01 13.97 27.72 13.66 26.95C13.36 26.18 12.8 24.95 12.41 24.21C12.03 23.48 11.38 22.37 10.98 21.74C10.56 21.12 9.83 20.1 9.33 19.47C8.84 18.85 7.84 17.75 7.12 17.03L5.79 15.74L7.21 14.12C9.18 16.04 10.23 17.2 10.84 17.94C11.44 18.67 12.29 19.82 12.72 20.47C13.16 21.13 13.9 22.42 14.37 23.35C14.85 24.27 15.46 25.57 15.73 26.26C16 26.92 16.35 27.99 16.53 28.62C16.69 29.25 16.88 29.74 16.96 29.71C17.04 29.69 17.26 29.25 17.46 28.74C17.65 28.23 17.93 27.31 18.07 26.68C18.25 25.85 18.31 24.97 18.31 23.41C18.31 21.85 18.25 20.97 18.07 20.14C17.93 19.51 17.62 18.5 17.39 17.87C17.15 17.24 16.74 16.38 16.49 15.94C16.23 15.5 15.53 14.64 14.93 14.04C14.06 13.17 13.64 12.85 12.83 12.49C12.28 12.24 11.42 11.93 10.94 11.82C10.45 11.72 9.62 11.6 9.11 11.56C8.6 11.52 7.77 11.54 7.28 11.6C6.8 11.65 6.04 11.81 5.59 11.93ZM20.28 14.49C20.02 14.65 19.59 15 19.33 15.27C18.87 15.72 18.87 15.76 19.03 16.18C19.14 16.4 19.4 17.11 19.6 17.74C19.82 18.37 20.09 19.35 20.21 19.94C20.33 20.53 20.47 21.73 20.51 22.61C20.55 23.49 20.51 24.76 20.42 25.41C20.34 26.07 20.14 27.18 19.98 27.84C19.8 28.52 19.71 29.09 19.76 29.09C19.83 29.09 20.21 28.56 20.63 27.92C21.03 27.27 21.63 26.24 21.93 25.61C22.23 24.99 22.67 23.88 22.92 23.14C23.16 22.41 23.47 21.2 23.61 20.45L23.86 19.09C24.81 19.19 25.28 19.25 25.53 19.29L25.96 19.34C25.84 20.33 25.68 21.16 25.53 21.81C25.39 22.46 25.08 23.56 24.85 24.21C24.63 24.87 24.16 25.99 23.81 26.68C23.46 27.38 22.83 28.46 22.43 29.09C22.01 29.71 21.33 30.62 20.91 31.13L20.14 32.02L25.15 32.02C25.03 31.56 24.96 30.91 24.92 30.29C24.88 29.51 24.92 28.83 25.07 28.15C25.19 27.6 25.54 26.64 25.85 26.02C26.29 25.15 26.66 24.64 27.44 23.87C28.23 23.09 28.72 22.73 29.62 22.3C30.25 22 30.87 21.74 31 21.74C31.16 21.74 31.24 21.64 31.24 21.44C31.24 21.28 31.14 20.81 31.02 20.41C30.9 20.01 30.63 19.34 30.43 18.94C30.21 18.54 29.75 17.85 29.38 17.4C29.02 16.96 28.36 16.32 27.92 15.96C27.48 15.62 26.77 15.16 26.37 14.93C25.96 14.72 25.26 14.43 24.81 14.27C24.36 14.11 23.51 13.96 22.92 13.92C22.24 13.89 21.63 13.93 21.29 14.04C20.99 14.13 20.53 14.35 20.28 14.49ZM50.05 16.18C49.71 16.35 49.13 16.78 48.77 17.11C48.39 17.44 47.87 18.06 47.62 18.49C47.21 19.17 47.14 19.41 47.1 20.34C47.05 21.24 47.13 21.73 47.56 23.48C47.89 24.77 48.08 25.87 48.09 26.42C48.09 27.1 48.02 27.42 47.75 27.88C47.54 28.26 47.17 28.62 46.75 28.89C46.15 29.25 45.98 29.29 45.06 29.27C44.49 29.26 43.66 29.15 43.22 29.05C42.77 28.93 42.35 28.82 42.27 28.82C42.19 28.82 42.13 29.27 42.13 29.93C42.13 30.53 42.09 31.25 42.03 31.52L41.93 32.02L48.89 31.96C49.55 28.64 50 26.75 50.3 25.61C50.61 24.48 51.09 22.77 51.39 21.81C51.7 20.85 51.99 20.05 52.03 20.01C52.07 19.97 52.53 20.09 53.04 20.27C53.56 20.46 53.98 20.65 53.98 20.7C53.98 20.77 53.73 21.57 53.44 22.5C53.15 23.45 52.69 25.03 52.43 26.02C52.16 27 51.77 28.67 51.54 29.73C51.32 30.77 51.14 31.72 51.14 31.82C51.14 32 51.83 32.02 56.48 32.02C59.42 32.02 61.83 31.98 61.83 31.92C61.84 31.86 61.5 31.5 61.08 31.11C60.68 30.74 59.96 30.23 59.49 30.02C58.84 29.71 58.3 29.58 57.09 29.45C56.08 29.33 55.37 29.18 55.07 29.01C54.82 28.87 54.49 28.6 54.36 28.42C54.19 28.22 54.09 27.87 54.09 27.55C54.07 27.26 54.18 26.8 54.32 26.55C54.45 26.3 54.84 25.72 55.2 25.28C55.53 24.84 55.97 24.12 56.14 23.68C56.44 22.96 56.47 22.66 56.47 20.81C56.48 19.18 56.43 18.59 56.25 18.03C56.12 17.66 55.85 17.08 55.64 16.79C55.43 16.48 54.99 16.08 54.65 15.9C54.15 15.6 53.84 15.54 52.89 15.51C52.19 15.48 51.54 15.54 51.2 15.66C50.91 15.75 50.39 15.99 50.05 16.18ZM30.43 24.28C30.09 24.45 29.52 24.87 29.15 25.2C28.79 25.53 28.32 26.08 28.1 26.42C27.9 26.75 27.72 27.06 27.72 27.11C27.72 27.18 28.11 27.34 28.6 27.48C29.09 27.63 29.48 27.79 29.48 27.84C29.48 27.91 29.36 28.35 29.21 28.85C29.06 29.35 28.86 29.75 28.78 29.75C28.68 29.75 28.23 29.63 27.79 29.49L26.98 29.21C27.11 30.82 27.22 31.45 27.3 31.65L27.45 32.02L39.63 32.02C39.82 31.56 39.9 31.17 39.96 30.85L40.04 30.29C38.83 30.7 38.4 30.82 38.32 30.82C38.22 30.82 38.02 30.45 37.87 29.98C37.72 29.53 37.6 29.07 37.6 28.98C37.6 28.9 38.09 28.67 38.68 28.48C39.68 28.18 39.77 28.12 39.68 27.84C39.63 27.68 39.41 27.2 39.17 26.76C38.94 26.34 38.41 25.67 38.01 25.28C37.6 24.89 36.87 24.39 36.38 24.16C35.9 23.93 35.3 23.71 35.06 23.65L34.62 23.55L34.62 25.61L32.46 25.61C32.46 23.75 32.43 23.61 32.23 23.63C32.09 23.63 31.77 23.71 31.51 23.8C31.25 23.89 30.77 24.12 30.43 24.28ZM4.24 28.66C3.79 28.87 3.24 29.26 2.99 29.51C2.75 29.75 2.46 30.18 2.36 30.45C2.23 30.73 2.14 31.19 2.14 31.49L2.14 32.02L10.4 32.02C9.53 30.94 8.76 29.94 8.11 29.11C7.47 28.28 6.85 27.6 6.74 27.62C6.63 27.62 6.2 27.76 5.79 27.94C5.39 28.11 4.68 28.43 4.24 28.66ZM2.21 35.12C2.26 35.65 2.38 36.69 2.49 37.43C2.6 38.16 2.84 39.34 3.02 40.03C3.2 40.73 3.56 41.93 3.83 42.7C4.1 43.48 4.66 44.76 5.05 45.57C5.44 46.39 6.12 47.59 6.54 48.24C6.96 48.9 7.74 50.02 8.27 50.71C8.81 51.41 9.92 52.63 10.73 53.45C11.56 54.26 12.8 55.34 13.51 55.88C14.21 56.4 15.35 57.17 16.01 57.59C16.68 58 17.89 58.67 18.72 59.06C19.54 59.44 21.12 60.07 22.24 60.43C23.35 60.79 24.93 61.22 25.76 61.38C26.58 61.53 27.88 61.71 28.67 61.79C29.45 61.86 31.16 61.93 32.46 61.93C33.76 61.93 35.46 61.86 36.25 61.79C37.03 61.71 38.16 61.57 38.75 61.45C39.35 61.34 40.29 61.14 40.85 60.99C41.4 60.86 42.5 60.52 43.29 60.26C44.07 59.99 45.37 59.44 46.2 59.06C47.02 58.67 48.24 58 48.9 57.59C49.57 57.17 50.7 56.4 51.41 55.88C52.11 55.34 53.36 54.26 54.18 53.45C55.01 52.63 56.1 51.41 56.64 50.71C57.17 50.02 57.96 48.9 58.38 48.24C58.8 47.59 59.47 46.39 59.87 45.57C60.26 44.76 60.81 43.48 61.08 42.7C61.35 41.93 61.72 40.73 61.9 40.03C62.07 39.34 62.3 38.14 62.42 37.36C62.53 36.59 62.65 35.56 62.71 35.05L62.78 34.16L2.13 34.16L2.21 35.12ZM28.05 3.2C28.34 3.19 28.83 3.25 29.13 3.35C29.47 3.44 29.94 3.76 30.36 4.17C30.77 4.59 31.1 5.06 31.2 5.39C31.29 5.68 31.36 6.12 31.36 6.39C31.36 6.64 31.29 7.1 31.2 7.39C31.1 7.71 30.77 8.18 30.36 8.59C29.94 9.01 29.47 9.33 29.13 9.42C28.83 9.51 28.38 9.58 28.11 9.58C27.86 9.58 27.4 9.51 27.1 9.42C26.77 9.33 26.3 9.01 25.88 8.59C25.46 8.18 25.14 7.71 25.04 7.39C24.95 7.1 24.88 6.64 24.88 6.39C24.88 6.12 24.95 5.68 25.04 5.39C25.14 5.06 25.46 4.59 25.88 4.17C26.26 3.8 26.77 3.44 27.03 3.36C27.3 3.28 27.75 3.2 28.05 3.2ZM27.04 6.38C27.04 6.64 27.15 6.9 27.37 7.13C27.58 7.33 27.87 7.46 28.13 7.46C28.38 7.46 28.65 7.33 28.87 7.13C29.07 6.91 29.2 6.63 29.2 6.39C29.2 6.14 29.07 5.86 28.86 5.66C28.65 5.44 28.37 5.32 28.11 5.32C27.86 5.32 27.58 5.44 27.37 5.64C27.18 5.84 27.04 6.14 27.04 6.38ZM49.09 3.19L49.82 3.92L49.74 6.06C49.69 7.86 49.62 8.35 49.32 9.26C49.13 9.85 48.74 10.72 48.46 11.2C48.17 11.66 47.45 12.55 46.86 13.13C46.26 13.72 45.38 14.43 44.9 14.69C44.42 14.97 43.53 15.36 42.93 15.55C41.9 15.9 41.7 15.91 35.29 16L34.57 15.27L34.64 13.13C34.7 11.37 34.77 10.81 35.04 10C35.22 9.43 35.61 8.57 35.9 8.06C36.22 7.47 36.83 6.71 37.51 6.04C38.14 5.42 38.98 4.76 39.48 4.48C39.97 4.21 40.73 3.87 41.17 3.72C41.62 3.56 42.3 3.39 42.66 3.32C43.04 3.27 44.64 3.2 49.09 3.19ZM41.04 6.11C40.29 6.47 39.7 6.9 39.08 7.49C38.6 7.97 38.01 8.7 37.78 9.14C37.55 9.57 37.26 10.22 37.14 10.6C37.03 10.96 36.9 11.52 36.86 11.82C36.82 12.16 36.83 12.4 36.91 12.4C36.99 12.4 38.28 11.34 39.79 10.06L42.53 7.73C43.62 8.91 43.93 9.29 43.92 9.34C43.89 9.38 42.73 10.4 41.31 11.58C39.9 12.79 38.71 13.79 38.67 13.83C38.64 13.87 39.28 13.87 40.09 13.83C41.12 13.77 41.84 13.65 42.39 13.47C42.84 13.31 43.52 13.01 43.88 12.8C44.26 12.59 44.86 12.13 45.21 11.8C45.56 11.46 46.09 10.81 46.4 10.36C46.7 9.9 47.06 9.17 47.21 8.73C47.37 8.27 47.54 7.34 47.59 6.62L47.67 5.31C44.42 5.34 43.18 5.4 42.8 5.47C42.43 5.54 41.63 5.83 41.04 6.11ZM32.44 27.75L34.61 27.75L34.61 29.89L32.44 29.89L32.44 27.75ZM9.68 44.53C9.77 44.66 10.21 45.25 10.63 45.85C11.06 46.45 11.86 47.47 12.41 48.11C12.98 48.74 13.98 49.74 14.65 50.32C15.32 50.9 16.41 51.75 17.05 52.21C17.72 52.67 18.81 53.36 19.49 53.74C20.18 54.13 20.8 54.46 20.87 54.49C20.95 54.52 20.8 54.97 20.53 55.49C20.2 56.2 20.01 56.44 19.86 56.37C19.75 56.33 19.02 55.95 18.23 55.5C17.46 55.06 16.15 54.21 15.32 53.61C14.51 53.02 13.27 51.98 12.56 51.31C11.87 50.65 10.84 49.56 10.27 48.91C9.72 48.24 8.91 47.17 7.68 45.37L8.6 44.82C9.45 44.33 9.52 44.3 9.68 44.53ZM22.7 55.52L24.86 55.52L24.86 57.65L22.7 57.65L22.7 55.52Z" fill="#FFFFFF" fill-opacity="1.000000" fill-rule="evenodd"/>
</svg>
