<svg width="56.917725" height="57.000000" viewBox="0 0 56.9177 57" fill="none" xmlns="http://www.w3.org/2000/svg" xmlns:xlink="http://www.w3.org/1999/xlink">
	<desc>
			Created with Pixso.
	</desc>
	<defs/>
	<path id="Vector" d="M41.78 34.05C41.84 34.05 41.89 34.05 41.95 34.05C46.14 34.05 50.02 31.78 52.08 28.12C52.3 27.72 52.16 27.21 51.76 26.99C51.36 26.76 50.85 26.9 50.62 27.3C48.86 30.43 45.53 32.38 41.95 32.38C41.91 32.38 41.86 32.38 41.81 32.38C36.42 32.3 32.02 27.85 32 22.46C32 20.87 32.38 19.28 33.1 17.88C33.17 17.74 33.32 17.65 33.48 17.65L33.48 17.65L50.45 17.69C50.61 17.69 50.76 17.78 50.83 17.92C51.53 19.31 51.9 20.87 51.9 22.43C51.9 22.94 51.86 23.45 51.79 23.94C51.72 24.4 52.03 24.83 52.48 24.9C52.94 24.97 53.37 24.66 53.44 24.2C53.53 23.62 53.57 23.03 53.57 22.43C53.57 20.61 53.14 18.79 52.32 17.17C51.96 16.46 51.25 16.03 50.45 16.02L33.48 15.98C33.48 15.98 33.48 15.98 33.48 15.98C32.69 15.98 31.98 16.42 31.62 17.12C30.77 18.76 30.33 20.61 30.33 22.47C30.35 28.76 35.49 33.96 41.78 34.05Z" fill="#FFFFFF" fill-opacity="1.000000" fill-rule="nonzero"/>
	<path id="Vector" d="M52.19 54.2C50.6 53.52 48.85 53.01 47.02 52.68C44.37 48.36 44.37 42.4 44.41 40.88C44.87 40.66 45.29 40.37 45.66 40C46.48 39.18 46.94 38.08 46.94 36.91C46.94 36.79 46.93 36.67 46.92 36.55C48.97 35.83 50.86 34.66 52.46 33.08C55.33 30.25 56.91 26.46 56.91 22.43C56.91 19.7 56.17 17.03 54.77 14.7C54.06 13.54 54.06 12.09 54.77 10.93C55.34 9.98 55.81 8.97 56.15 7.92C56.38 7.24 56.27 6.52 55.85 5.94C55.43 5.36 54.76 5.01 54.04 5.01L29.86 5.01C29.15 5.01 28.48 5.36 28.06 5.94C27.64 6.52 27.53 7.24 27.75 7.92C28.1 8.97 28.57 9.98 29.14 10.93C29.85 12.1 29.86 13.52 29.18 14.64C28.93 15.05 28.7 15.48 28.49 15.91L18.49 15.91L16.51 2.14C16.33 0.92 15.27 0 14.03 0L1.33 0C0.59 0 0 0.59 0 1.33L0 3.67C0 4.41 0.59 5 1.33 5L4.58 5C5.04 5 5.42 4.63 5.42 4.17C5.42 3.71 5.04 3.33 4.58 3.33L1.66 3.33L1.66 1.66L14.03 1.66C14.44 1.66 14.8 1.97 14.86 2.38L16.8 15.91L15.12 15.91L13.41 4.05C13.35 3.64 13 3.33 12.59 3.33L8.44 3.33C7.98 3.33 7.6 3.71 7.6 4.17C7.6 4.63 7.98 5 8.44 5L11.86 5L13.43 15.91L5.06 15.91C4.41 15.91 3.8 16.19 3.37 16.67C2.94 17.15 2.74 17.8 2.82 18.44L6.91 52.36C7.23 55 9.48 57 12.14 57L25.92 57C28.59 57 30.84 55 31.15 52.36L33.3 34.6C34.42 35.41 35.66 36.06 36.99 36.53C36.98 36.66 36.97 36.78 36.97 36.91C36.97 38.66 38 40.17 39.49 40.87C39.54 42.39 39.54 48.35 36.88 52.68C35.05 53.01 33.31 53.52 31.71 54.2C31.07 54.47 30.71 55.14 30.85 55.83C30.99 56.52 31.58 56.99 32.28 56.99L51.63 56.99C52.33 56.99 52.91 56.52 53.05 55.83C53.19 55.14 52.84 54.47 52.19 54.2ZM30.57 10.07C30.06 9.22 29.65 8.32 29.34 7.39C29.26 7.17 29.35 7 29.41 6.91C29.46 6.84 29.61 6.68 29.86 6.68L54.04 6.68C54.3 6.68 54.44 6.84 54.49 6.91C54.55 7 54.64 7.17 54.57 7.39C54.26 8.32 53.84 9.22 53.34 10.07C52.31 11.76 52.31 13.87 53.34 15.57C54.58 17.63 55.24 20 55.24 22.43C55.24 26.01 53.84 29.37 51.28 31.89C48.73 34.41 45.34 35.77 41.76 35.72C34.56 35.61 28.69 29.67 28.66 22.47C28.65 20.01 29.33 17.6 30.6 15.51C31.61 13.86 31.6 11.77 30.57 10.07ZM20.06 50.31L17.22 30.59L18.91 30.59L21.74 50.31L20.06 50.31ZM23.43 50.31L20.6 30.59L28.73 30.59L26.54 48.77C26.43 49.65 25.69 50.31 24.81 50.31L23.43 50.31ZM27.8 17.58C27.26 19.15 26.99 20.8 26.99 22.48C27 24.78 27.54 26.97 28.49 28.92L20.36 28.92L18.73 17.58L27.8 17.58ZM17.04 17.58L18.67 28.92L16.98 28.92L15.36 17.58L17.04 17.58ZM29.5 52.16C29.28 53.96 27.74 55.33 25.92 55.33L12.14 55.33C10.32 55.33 8.78 53.96 8.57 52.16L4.48 18.24C4.45 18.01 4.55 17.85 4.62 17.78C4.68 17.7 4.83 17.58 5.06 17.58L13.67 17.58L15.3 28.92L9 28.92C8.61 28.92 8.23 29.09 7.97 29.39C7.71 29.68 7.59 30.08 7.63 30.47L9.86 48.97C10.06 50.62 11.41 51.88 13.07 51.97C13.53 51.99 13.93 51.64 13.95 51.18C13.98 50.72 13.62 50.33 13.16 50.3C12.31 50.26 11.62 49.61 11.52 48.77L9.33 30.59L15.54 30.59L18.37 50.31L17.01 50.31C16.55 50.31 16.18 50.68 16.18 51.14C16.18 51.6 16.55 51.98 17.01 51.98L24.81 51.98C26.53 51.98 27.99 50.68 28.2 48.97L30.28 31.74C30.73 32.31 31.23 32.85 31.77 33.35L29.5 52.16ZM38.64 37.01C39.64 37.24 40.67 37.37 41.74 37.39C41.81 37.39 41.88 37.39 41.95 37.39C43.08 37.39 44.19 37.26 45.26 37.02C45.24 37.7 44.96 38.34 44.47 38.82C43.96 39.33 43.28 39.62 42.56 39.62L41.34 39.62C39.89 39.62 38.7 38.46 38.64 37.01ZM41.18 41.28C41.23 41.28 41.29 41.29 41.34 41.29L42.56 41.29C42.62 41.29 42.67 41.28 42.73 41.28C42.7 43.27 42.87 48.2 44.95 52.39C43.97 52.28 42.97 52.23 41.95 52.23C40.94 52.23 39.94 52.28 38.95 52.39C41.04 48.2 41.21 43.27 41.18 41.28ZM33.41 55.33C34.69 54.86 36.06 54.51 37.48 54.27C37.5 54.26 37.52 54.26 37.54 54.26C38.96 54.02 40.45 53.9 41.95 53.9C43.46 53.9 44.95 54.02 46.37 54.26C46.39 54.26 46.4 54.26 46.42 54.27C47.85 54.51 49.22 54.86 50.5 55.32L33.41 55.32L33.41 55.33Z" fill="#FFFFFF" fill-opacity="1.000000" fill-rule="nonzero"/>
</svg>
