<svg width="70.000000" height="66.000000" viewBox="0 0 70 66" fill="none" xmlns="http://www.w3.org/2000/svg" xmlns:xlink="http://www.w3.org/1999/xlink">
	<desc>
			Created with Pixso.
	</desc>
	<defs/>
	<path id="Vector" d="M32.65 0C32.95 0 33.21 0.13 33.55 0.48C33.91 0.83 34.03 1.08 34.03 1.41C34.03 1.65 33.92 2 33.78 2.2C33.66 2.39 33.35 2.76 33.1 3.02C32.85 3.28 32.54 3.69 32.41 3.91C32.25 4.22 32.18 4.64 32.19 5.43C32.21 6.38 32.29 6.75 32.8 8.11C33.3 9.46 33.39 9.86 33.4 10.79C33.41 11.77 33.36 12 32.98 12.79C32.74 13.28 32.29 13.91 31.99 14.2C31.56 14.59 31.32 14.71 30.95 14.71C30.59 14.71 30.36 14.6 30.06 14.3C29.76 14 29.65 13.76 29.65 13.36C29.63 13.01 29.76 12.7 30.06 12.3C30.29 12 30.55 11.53 30.62 11.27C30.76 10.85 30.69 10.56 30.11 8.87C29.48 7.01 29.45 6.89 29.45 5.36C29.44 3.82 29.45 3.74 29.91 2.81C30.22 2.17 30.68 1.54 31.3 0.92C32.04 0.17 32.3 0 32.65 0ZM60.75 8.12C61.16 8.11 61.87 8.21 62.32 8.33C62.77 8.44 63.45 8.7 63.82 8.91C64.17 9.11 64.82 9.58 65.24 9.97C65.65 10.34 66.3 11.05 66.67 11.55C67.04 12.04 67.65 13.06 68.02 13.82C68.41 14.57 68.89 15.78 69.1 16.5C69.32 17.21 69.61 18.37 69.75 19.04C69.91 19.91 69.98 20.94 70 22.48C70 23.77 69.91 25.03 69.82 25.51C69.72 25.96 69.5 26.73 69.35 27.23C69.2 27.72 68.82 28.62 68.52 29.22C68.09 30.05 67.67 30.61 65.68 32.59L65.61 62.09L65.28 62.92C65.05 63.48 64.71 63.99 64.19 64.51C63.65 65.05 63.17 65.36 62.6 65.6C62.14 65.76 61.46 65.94 61.09 65.98C60.65 66.02 60.16 65.96 59.75 65.82C59.39 65.69 58.86 65.47 58.55 65.32C58.25 65.17 57.75 64.79 57.43 64.46C57.13 64.14 56.71 63.54 56.16 62.37L56.12 55.97C56.1 52.45 56.06 49.49 56.02 49.4C55.98 49.3 55.2 49.99 54.13 51.06C53.14 52.06 51.66 53.37 50.87 53.98C50.06 54.58 48.73 55.48 47.92 55.96C47.1 56.45 46.29 56.92 46.11 57.03C45.83 57.19 45.81 57.29 45.81 58.96C45.81 60.18 45.76 60.91 45.61 61.33C45.5 61.68 45.17 62.26 44.88 62.64C44.51 63.14 44.11 63.47 42.48 64.29L20.95 64.29L20.26 63.99C19.88 63.81 19.28 63.36 18.88 62.96C18.43 62.49 18.08 61.95 17.89 61.43C17.64 60.78 17.59 60.36 17.59 57.14L16.66 56.63C16.15 56.36 15.1 55.71 14.3 55.19C13.51 54.66 12.37 53.83 11.77 53.34C11.18 52.86 10.1 51.87 9.37 51.16C8.66 50.44 7.67 49.36 7.18 48.75C6.68 48.15 5.83 46.98 5.29 46.14C4.74 45.31 3.89 43.85 3.41 42.91C2.94 41.96 2.31 40.57 2.04 39.81C1.75 39.05 1.38 37.97 1.22 37.4C1.05 36.84 0.78 35.75 0.63 35C0.46 34.24 0.27 33.06 0.18 32.38C0.08 31.71 0 30.28 0 29.22C-0.02 27.32 0 27.28 0.4 26.57C0.61 26.15 1.03 25.66 1.29 25.47C1.55 25.27 1.98 25.01 2.25 24.9C2.67 24.71 5.38 24.68 51.7 24.61L51.7 22.65C51.69 21.57 51.76 20.25 51.84 19.73C51.92 19.21 52.05 18.49 52.13 18.15C52.2 17.81 52.44 16.94 52.68 16.22C52.91 15.51 53.38 14.39 53.69 13.75C54.01 13.1 54.65 12.08 55.1 11.48C55.55 10.87 56.25 10.1 56.65 9.77C57.06 9.46 57.75 9 58.17 8.78C58.61 8.56 59.2 8.33 59.47 8.26C59.76 8.19 60.34 8.14 60.75 8.12ZM59.25 11.31C59.02 11.45 58.57 11.78 58.27 12.06C57.95 12.35 57.43 12.95 57.12 13.4C56.79 13.86 56.35 14.6 56.12 15.05C55.9 15.51 55.53 16.44 55.29 17.12C55.08 17.79 54.77 19 54.65 19.8C54.47 20.89 54.43 21.7 54.49 23.1C54.53 24.13 54.65 25.31 54.77 25.78C54.9 26.24 55.21 27.05 55.46 27.57C55.72 28.09 56.17 28.81 56.47 29.15C56.76 29.5 57.35 30 57.77 30.28C58.2 30.57 58.61 30.95 58.69 31.15C58.77 31.37 58.83 36.83 58.83 46.52C58.83 60.55 58.84 61.57 59.08 62.02C59.2 62.28 59.53 62.64 59.79 62.82C60.08 63 60.47 63.12 60.77 63.12C61.06 63.12 61.51 63.01 61.79 62.87C62.06 62.75 62.38 62.49 62.5 62.3C62.72 61.98 62.73 60.58 62.8 46.6C62.87 31.49 62.87 31.24 63.14 30.94C63.3 30.76 63.65 30.49 63.93 30.31C64.21 30.13 64.72 29.69 65.06 29.32C65.41 28.96 65.88 28.27 66.15 27.78C66.41 27.28 66.71 26.54 66.82 26.13C66.94 25.71 67.1 24.81 67.2 24.13C67.3 23.39 67.32 22.37 67.27 21.59C67.21 20.87 67.08 19.81 66.97 19.25C66.84 18.69 66.57 17.65 66.35 16.98C66.12 16.31 65.71 15.32 65.43 14.78C65.16 14.26 64.65 13.47 64.31 13.05C63.97 12.61 63.42 12.04 63.08 11.77C62.73 11.51 62.19 11.19 61.84 11.07C61.5 10.96 61.03 10.86 60.82 10.87C60.6 10.87 60.24 10.93 60.03 10.98C59.83 11.05 59.47 11.19 59.25 11.31ZM2.83 27.87C2.62 28.23 2.62 28.42 2.77 30.25C2.85 31.35 2.98 32.63 3.07 33.1L3.2 33.97L34.3 33.97C35.03 34.69 35.13 34.91 35.13 35.3C35.13 35.59 35.02 35.96 34.88 36.11C34.76 36.28 34.51 36.48 34.33 36.56C34.11 36.67 29.78 36.72 18.96 36.72L3.89 36.72C4.62 38.79 5.12 40.04 5.49 40.84C5.86 41.64 6.53 42.88 6.96 43.59C7.4 44.31 8.19 45.49 8.73 46.21C9.26 46.92 10.44 48.26 11.36 49.16C12.26 50.07 13.59 51.25 14.3 51.79C15.01 52.33 15.95 52.97 16.36 53.25C16.77 53.51 17.59 53.98 18.17 54.29L19.23 54.87L44.17 54.87C45.28 54.31 46.13 53.81 46.77 53.43C47.42 53.03 48.46 52.31 49.1 51.83C49.75 51.36 50.96 50.29 51.83 49.45C52.68 48.61 53.79 47.4 54.29 46.76C54.8 46.11 55.42 45.3 55.65 44.93L56.09 44.28L56.09 36.72L45.68 36.72C44.69 35.75 44.65 35.68 44.74 35.15C44.8 34.8 44.96 34.47 45.18 34.27L45.54 33.97L56.09 33.97C56.09 32.55 56.06 32.51 55.43 32C55.08 31.71 54.53 31.15 54.2 30.76C53.87 30.36 53.32 29.47 52.97 28.77L52.32 27.49L3.07 27.5L2.83 27.87ZM20.33 58.89C20.33 59.82 20.4 60.29 20.58 60.63C20.71 60.92 21.02 61.22 21.29 61.36C21.74 61.58 22.52 61.6 31.67 61.6C39.57 61.6 41.66 61.57 42.02 61.42C42.26 61.32 42.61 61.06 42.77 60.84C43.06 60.48 43.09 60.29 43.09 59.02L43.07 57.61L20.33 57.61L20.33 58.89ZM22.29 4.26C22.58 4.26 22.92 4.31 23.07 4.4C23.22 4.46 23.45 4.74 23.56 4.97C23.7 5.25 23.76 5.58 23.7 5.8C23.66 6.02 23.3 6.54 22.92 6.97C22.54 7.41 22.14 7.97 22.03 8.21C21.93 8.45 21.84 9.07 21.85 9.58C21.85 10.32 21.97 10.89 22.48 12.37C23.06 14.06 23.11 14.31 23.06 15.26C23.02 15.99 22.91 16.49 22.66 16.98C22.48 17.35 22.08 17.93 21.78 18.25C21.32 18.73 21.14 18.84 20.71 18.84C20.43 18.84 20.07 18.77 19.92 18.7C19.77 18.62 19.55 18.36 19.43 18.11C19.29 17.85 19.25 17.52 19.29 17.28C19.34 17.08 19.59 16.62 19.86 16.25C20.23 15.74 20.34 15.48 20.34 15.01C20.33 14.7 20.12 13.9 19.86 13.23C19.62 12.57 19.33 11.66 19.23 11.2C19.15 10.75 19.1 9.79 19.12 9.07C19.17 7.97 19.23 7.63 19.58 6.94C19.81 6.46 20.34 5.73 20.88 5.18C21.67 4.37 21.85 4.26 22.29 4.26ZM43.02 4.26C43.37 4.26 43.66 4.35 43.87 4.53C44.03 4.68 44.24 4.97 44.32 5.18C44.4 5.4 44.43 5.72 44.37 5.91C44.32 6.1 43.98 6.6 43.59 7.01C43.21 7.42 42.81 7.97 42.72 8.21C42.61 8.45 42.53 9.07 42.54 9.58C42.54 10.32 42.66 10.9 43.17 12.37C43.74 14.08 43.79 14.31 43.73 15.26C43.69 16.11 43.59 16.46 43.21 17.17C42.95 17.65 42.54 18.23 42.29 18.44C41.96 18.74 41.7 18.84 41.29 18.84C40.92 18.84 40.63 18.74 40.4 18.52C40.21 18.36 40.02 18 39.96 17.74C39.89 17.32 39.96 17.12 40.46 16.36C40.81 15.81 41.03 15.32 41.03 15.05C41.03 14.82 40.79 13.93 40.48 13.06C40.18 12.19 39.88 11.04 39.8 10.52C39.73 9.97 39.72 9.17 39.77 8.66C39.84 8.16 40.05 7.41 40.25 6.97C40.47 6.49 40.98 5.81 41.54 5.22C42.39 4.35 42.53 4.26 43.02 4.26ZM39.96 33.97C40.35 33.97 40.57 34.06 40.88 34.38C41.16 34.65 41.29 34.93 41.29 35.2C41.29 35.42 41.21 35.78 41.11 35.99C41 36.21 40.74 36.45 40.52 36.55C40.31 36.66 39.94 36.7 39.69 36.66C39.43 36.61 39.1 36.41 38.89 36.17C38.72 35.95 38.55 35.6 38.55 35.41C38.55 35.22 38.66 34.89 38.78 34.65C38.91 34.43 39.1 34.19 39.22 34.12C39.35 34.03 39.68 33.97 39.96 33.97ZM11.52 39.47C11.81 39.47 12.18 39.58 12.34 39.71C12.51 39.84 12.89 40.37 13.22 40.91C13.53 41.45 14.08 42.25 14.44 42.7C14.81 43.15 15.58 43.99 16.18 44.56C16.77 45.13 17.62 45.85 18.07 46.15C18.52 46.45 19.22 46.89 19.63 47.11C20.04 47.33 20.45 47.68 20.56 47.9C20.66 48.1 20.74 48.39 20.74 48.54C20.74 48.7 20.67 48.98 20.58 49.18C20.48 49.38 20.23 49.63 20.03 49.73C19.82 49.84 19.51 49.92 19.34 49.92C19.17 49.92 18.66 49.73 18.21 49.49C17.75 49.26 16.96 48.76 16.43 48.39C15.9 48.04 15.01 47.31 14.45 46.8C13.89 46.29 13.08 45.44 12.66 44.9C12.23 44.36 11.49 43.35 11.04 42.63C10.36 41.58 10.19 41.21 10.21 40.8C10.22 40.42 10.33 40.15 10.6 39.87C10.9 39.56 11.12 39.47 11.52 39.47Z" fill="#FFFFFF" fill-opacity="1.000000" fill-rule="evenodd"/>
</svg>
