<svg width="21.000000" height="21.000000" viewBox="0 0 21 21" fill="none" xmlns="http://www.w3.org/2000/svg" xmlns:xlink="http://www.w3.org/1999/xlink">
	<desc>
			Created with Pixso.
	</desc>
	<defs>
		<clipPath id="clip71_225">
			<rect id="icon" rx="-0.403846" width="20.192308" height="20.192308" transform="translate(0.403846 0.403846)" fill="white" fill-opacity="0"/>
		</clipPath>
	</defs>
	<g clip-path="url(#clip71_225)">
		<path id="Vector" d="M10.5 0C8.18 0 5.95 0.92 4.31 2.56C2.67 4.2 1.75 6.43 1.75 8.75C1.75 13.37 9.09 19.71 9.93 20.42L10.5 20.9L11.06 20.42C11.9 19.71 19.25 13.37 19.25 8.75C19.24 6.43 18.32 4.2 16.68 2.56C15.04 0.92 12.81 0 10.5 0ZM10.5 13.12C9.63 13.12 8.78 12.86 8.06 12.38C7.34 11.9 6.78 11.22 6.45 10.42C6.12 9.62 6.04 8.74 6.2 7.89C6.37 7.04 6.79 6.26 7.4 5.65C8.01 5.04 8.79 4.62 9.64 4.45C10.49 4.29 11.37 4.37 12.17 4.7C12.97 5.03 13.65 5.6 14.13 6.31C14.61 7.03 14.87 7.88 14.87 8.75C14.87 9.9 14.41 11.02 13.59 11.84C12.77 12.66 11.65 13.12 10.5 13.12Z" fill="#FFFFFF" fill-opacity="1.000000" fill-rule="nonzero"/>
		<path id="Vector" d="M13.12 8.74C13.12 10.19 11.94 11.37 10.5 11.37C9.05 11.37 7.87 10.19 7.87 8.74C7.87 7.29 9.05 6.12 10.5 6.12C11.94 6.12 13.12 7.29 13.12 8.74Z" fill="#FFFFFF" fill-opacity="1.000000" fill-rule="evenodd"/>
	</g>
</svg>
