<svg width="21.000000" height="21.000000" viewBox="0 0 21 21" fill="none" xmlns="http://www.w3.org/2000/svg" xmlns:xlink="http://www.w3.org/1999/xlink">
	<desc>
			Created with Pixso.
	</desc>
	<defs>
		<clipPath id="clip71_230">
			<rect id="icon" rx="-0.403846" width="20.192308" height="20.192308" transform="translate(0.403846 0.403846)" fill="white" fill-opacity="0"/>
		</clipPath>
	</defs>
	<g clip-path="url(#clip71_230)">
		<path id="Vector" d="M8.57 10.69C9.01 11.13 9.61 11.38 10.24 11.38C10.86 11.38 11.46 11.13 11.91 10.69L19.5 3.09C19.33 2.66 19.02 2.28 18.63 2.02C18.25 1.75 17.79 1.61 17.31 1.61L3.16 1.61C2.69 1.61 2.23 1.75 1.84 2.02C1.45 2.28 1.15 2.66 0.97 3.09L8.57 10.69Z" fill="#FFFFFF" fill-opacity="1.000000" fill-rule="nonzero"/>
		<path id="Vector" d="M13.02 11.8C12.28 12.54 11.28 12.95 10.24 12.95C9.2 12.95 8.2 12.54 7.46 11.8L0.8 5.15L0.8 18.91L19.67 18.91L19.67 5.15L13.02 11.8Z" fill="#FFFFFF" fill-opacity="1.000000" fill-rule="nonzero"/>
	</g>
</svg>
