<svg width="21.000000" height="21.000000" viewBox="0 0 21 21" fill="none" xmlns="http://www.w3.org/2000/svg" xmlns:xlink="http://www.w3.org/1999/xlink">
	<desc>
			Created with Pixso.
	</desc>
	<defs>
		<clipPath id="clip71_238">
			<rect id="phone-call 1" rx="-0.403846" width="412.730774" height="412.730774" transform="translate(-194.249969 -194.249969)" fill="white" fill-opacity="0"/>
		</clipPath>
		<clipPath id="clip71_236">
			<rect id="icon" rx="-0.403846" width="20.192308" height="20.192308" transform="translate(0.403846 0.403846)" fill="white" fill-opacity="0"/>
		</clipPath>
	</defs>
	<g clip-path="url(#clip71_236)">
		<path id="Vector" d="M15.03 11.18L20.09 16.24L17.53 18.8C17.08 19.25 16.55 19.6 15.97 19.83C15.38 20.07 14.76 20.19 14.13 20.19C8.28 20.19 0.8 12.71 0.8 6.86C0.8 6.23 0.92 5.61 1.16 5.02C1.39 4.44 1.74 3.91 2.19 3.46L4.75 0.9L9.81 5.96L6.48 9.29C7.47 11.65 9.34 13.52 11.69 14.52L15.03 11.18ZM18.57 8.88L20.19 8.88C20.18 6.74 19.33 4.68 17.82 3.17C16.3 1.66 14.25 0.81 12.11 0.8L12.11 2.42C13.82 2.42 15.47 3.1 16.68 4.31C17.89 5.52 18.57 7.17 18.57 8.88ZM15.34 8.88L16.96 8.88C16.96 7.59 16.44 6.36 15.54 5.45C14.63 4.55 13.4 4.03 12.11 4.03L12.11 5.65C12.97 5.65 13.79 5.99 14.4 6.6C15 7.2 15.34 8.02 15.34 8.88Z" fill="#FFFFFF" fill-opacity="1.000000" fill-rule="nonzero"/>
		<rect id="phone-call 1" rx="-0.403846" width="412.730774" height="412.730774" transform="translate(-194.249969 -194.249969)" fill="#FFFFFF" fill-opacity="0"/>
		<g clip-path="url(#clip71_238)">
			<path id="Vector" d="M108.83 26.72L216.78 134.67L162.14 189.31C152.62 198.8 141.31 206.29 128.86 211.37C116.42 216.44 103.09 219 89.65 218.88C-35.24 218.88 -194.65 59.46 -194.65 -65.43C-194.76 -78.87 -192.21 -92.2 -187.13 -104.64C-182.06 -117.09 -174.56 -128.4 -165.09 -137.93L-110.45 -192.56L-2.5 -84.61L-73.57 -13.53C-52.44 36.69 -12.55 76.67 37.62 97.92L108.83 26.72ZM184.42 -22.35L218.88 -22.35C218.83 -68.03 200.66 -111.83 168.36 -144.14C136.06 -176.44 92.26 -194.61 46.58 -194.66L46.58 -160.2C83.12 -160.16 118.16 -145.62 144 -119.78C169.84 -93.94 184.38 -58.9 184.42 -22.35ZM115.5 -22.35L149.96 -22.35C149.93 -49.76 139.03 -76.04 119.65 -95.42C100.27 -114.81 73.99 -125.71 46.58 -125.74L46.58 -91.27C64.85 -91.27 82.39 -84.01 95.31 -71.09C108.24 -58.16 115.5 -40.63 115.5 -22.35Z" fill="#FFFFFF" fill-opacity="1.000000" fill-rule="nonzero"/>
		</g>
	</g>
</svg>
