<svg width="40.000000" height="40.000000" viewBox="0 0 40 40" fill="none" xmlns="http://www.w3.org/2000/svg" xmlns:xlink="http://www.w3.org/1999/xlink">
	<desc>
			Created with Pixso.
	</desc>
	<defs>
		<clipPath id="clip71_191">
			<rect id="Frame 4" rx="-0.500000" width="39.000000" height="39.000000" transform="translate(0.500000 0.500000)" fill="white" fill-opacity="0"/>
		</clipPath>
	</defs>
	<rect id="Frame 4" rx="-0.500000" width="39.000000" height="39.000000" transform="translate(0.500000 0.500000)" fill="#F5F5F5" fill-opacity="1.000000"/>
	<g clip-path="url(#clip71_191)">
		<path id="Path-3" d="M13.1 18.61C17.39 16.76 20.26 15.57 21.7 14.98C25.78 13.31 26.63 13.02 27.18 13C27.3 13 27.57 13.02 27.76 13.15C27.89 13.27 27.94 13.42 27.96 13.54C27.99 13.65 28.01 13.9 27.99 14.1C27.76 16.38 26.82 21.95 26.31 24.5C26.1 25.58 25.69 25.94 25.3 25.99C24.45 26.06 23.79 25.43 22.96 24.91C21.68 24.07 20.94 23.55 19.68 22.74C18.24 21.79 19.18 21.27 20 20.44C20.21 20.21 23.99 16.85 24.06 16.54C24.06 16.49 24.09 16.36 23.99 16.29C23.9 16.22 23.79 16.24 23.7 16.27C23.56 16.29 21.49 17.64 17.48 20.3C16.88 20.71 16.36 20.89 15.88 20.89C15.35 20.89 14.34 20.6 13.58 20.35C12.66 20.06 11.93 19.9 12 19.4C12.05 19.15 12.41 18.88 13.1 18.61Z" fill="#6B6B6B" fill-opacity="1.000000" fill-rule="evenodd"/>
	</g>
</svg>
