<svg width="46.000000" height="46.000000" viewBox="0 0 46 46" fill="none" xmlns="http://www.w3.org/2000/svg" xmlns:xlink="http://www.w3.org/1999/xlink">
	<desc>
			Created with Pixso.
	</desc>
	<defs>
		<clipPath id="clip71_358">
			<rect id="Frame 6" rx="9.500000" width="45.000000" height="45.000000" transform="translate(0.500000 0.500000)" fill="white" fill-opacity="0"/>
		</clipPath>
	</defs>
	<rect id="Frame 6" rx="9.500000" width="45.000000" height="45.000000" transform="translate(0.500000 0.500000)" fill="#F5F5F5" fill-opacity="1.000000"/>
	<g clip-path="url(#clip71_358)">
		<path id="Path-3" d="M14.24 21.48C19.06 19.34 22.29 17.96 23.91 17.29C28.51 15.36 29.46 15.02 30.08 15C30.21 15 30.52 15.02 30.73 15.18C30.88 15.31 30.93 15.49 30.96 15.62C30.98 15.75 31.01 16.04 30.98 16.27C30.73 18.9 29.67 25.33 29.1 28.27C28.87 29.52 28.4 29.94 27.97 29.99C27.01 30.07 26.26 29.34 25.33 28.74C23.89 27.78 23.06 27.18 21.64 26.24C20.02 25.15 21.08 24.55 22.01 23.59C22.24 23.33 26.49 19.45 26.57 19.08C26.57 19.03 26.6 18.87 26.49 18.8C26.39 18.72 26.26 18.74 26.16 18.77C26 18.8 23.68 20.36 19.17 23.43C18.5 23.9 17.9 24.11 17.36 24.11C16.77 24.11 15.63 23.77 14.78 23.48C13.75 23.14 12.92 22.96 13 22.39C13.05 22.1 13.46 21.79 14.24 21.48Z" fill="#3D3D3D" fill-opacity="1.000000" fill-rule="evenodd"/>
	</g>
</svg>
