<svg width="40.000000" height="40.000000" viewBox="0 0 40 40" fill="none" xmlns="http://www.w3.org/2000/svg" xmlns:xlink="http://www.w3.org/1999/xlink">
	<desc>
			Created with Pixso.
	</desc>
	<defs>
		<clipPath id="clip71_189">
			<rect id="Frame 3" rx="-0.500000" width="39.000000" height="39.000000" transform="translate(0.500000 0.500000)" fill="white" fill-opacity="0"/>
		</clipPath>
	</defs>
	<rect id="Frame 3" rx="-0.500000" width="39.000000" height="39.000000" transform="translate(0.500000 0.500000)" fill="#F5F5F5" fill-opacity="1.000000"/>
	<g clip-path="url(#clip71_189)">
		<path id="Vector" d="M14.48 15L12.63 15C12.1 15 12 15.24 12 15.52C12 16.01 12.62 18.43 14.91 21.64C16.44 23.83 18.59 25.02 20.54 25.02C21.72 25.02 21.86 24.75 21.86 24.3L21.86 22.64C21.86 22.12 21.97 22.01 22.35 22.01C22.62 22.01 23.09 22.15 24.19 23.21C25.44 24.46 25.64 25.02 26.35 25.02L28.2 25.02C28.72 25.02 28.99 24.75 28.83 24.23C28.67 23.72 28.07 22.96 27.28 22.07C26.85 21.56 26.2 21.01 26 20.74C25.73 20.39 25.81 20.23 26 19.92C26 19.92 28.25 16.75 28.49 15.67C28.61 15.28 28.49 15 27.93 15L26.08 15C25.61 15 25.4 15.24 25.28 15.52C25.28 15.52 24.34 17.81 23.01 19.29C22.58 19.72 22.38 19.86 22.15 19.86C22.03 19.86 21.86 19.72 21.86 19.33L21.86 15.67C21.86 15.2 21.73 15 21.34 15L18.43 15C18.14 15 17.96 15.21 17.96 15.42C17.96 15.86 18.63 15.97 18.7 17.22L18.7 19.94C18.7 20.53 18.59 20.64 18.35 20.64C17.73 20.64 16.2 18.34 15.3 15.71C15.12 15.2 14.95 15 14.48 15Z" fill="#6B6B6B" fill-opacity="1.000000" fill-rule="evenodd"/>
	</g>
</svg>
