<svg width="46.000000" height="46.000000" viewBox="0 0 46 46" fill="none" xmlns="http://www.w3.org/2000/svg" xmlns:xlink="http://www.w3.org/1999/xlink">
	<desc>
			Created with Pixso.
	</desc>
	<defs>
		<clipPath id="clip71_356">
			<rect id="Frame 5" rx="9.500000" width="45.000000" height="45.000000" transform="translate(0.500000 0.500000)" fill="white" fill-opacity="0"/>
		</clipPath>
	</defs>
	<rect id="Frame 5" rx="9.500000" width="45.000000" height="45.000000" transform="translate(0.500000 0.500000)" fill="#F5F5F5" fill-opacity="1.000000"/>
	<g clip-path="url(#clip71_356)">
		<path id="Vector" d="M16.79 17L14.71 17C14.11 17 14 17.29 14 17.62C14 18.21 14.7 21.11 17.28 24.95C18.99 27.57 21.41 29 23.62 29C24.94 29 25.1 28.68 25.1 28.14L25.1 26.15C25.1 25.52 25.23 25.4 25.64 25.4C25.95 25.4 26.48 25.56 27.71 26.82C29.12 28.32 29.36 29 30.15 29L32.23 29C32.82 29 33.12 28.68 32.95 28.06C32.76 27.43 32.09 26.53 31.19 25.47C30.71 24.86 29.98 24.2 29.76 23.87C29.45 23.45 29.54 23.26 29.76 22.89C29.76 22.89 32.29 19.1 32.56 17.81C32.69 17.34 32.56 17 31.93 17L29.85 17C29.32 17 29.08 17.29 28.95 17.62C28.95 17.62 27.89 20.36 26.39 22.14C25.91 22.66 25.69 22.82 25.42 22.82C25.29 22.82 25.1 22.66 25.1 22.19L25.1 17.81C25.1 17.25 24.95 17 24.51 17L21.24 17C20.91 17 20.71 17.26 20.71 17.5C20.71 18.04 21.46 18.16 21.54 19.66L21.54 22.91C21.54 23.63 21.42 23.76 21.15 23.76C20.45 23.76 18.73 21 17.72 17.85C17.52 17.24 17.32 17 16.79 17Z" fill="#3D3D3D" fill-opacity="1.000000" fill-rule="evenodd"/>
	</g>
</svg>
