<svg width="128.682434" height="100.587402" viewBox="0 0 128.682 100.587" fill="none" xmlns="http://www.w3.org/2000/svg" xmlns:xlink="http://www.w3.org/1999/xlink">
	<desc>
			Created with Pixso.
	</desc>
	<defs/>
	<path id="Vector" d="M121.74 14.66C120.99 13.94 119.79 13.98 119.08 14.74C118.36 15.49 118.4 16.69 119.16 17.4C123.03 21.05 124.91 25.24 124.91 30.21C124.91 40.29 120.68 48.95 112.33 55.94C106.74 60.63 101.06 62.98 99.75 63.49L96.67 63.49C98.27 62.14 100.11 60.4 101.94 58.19C106.62 52.57 112.21 42.78 112.21 28.07C112.21 20.74 109.88 14.55 105.28 9.6C107.82 10.49 110.24 11.53 112.47 12.72C113.39 13.21 114.53 12.86 115.02 11.94C115.51 11.03 115.17 9.88 114.25 9.39C95.83 -0.45 66.08 -0.03 64.34 0.01C63.52 -0.01 53.62 -0.15 41.72 1.51C25.18 3.82 13.35 8.36 6.57 15C2.21 19.28 0 24.39 0 30.21C0 41.34 4.85 51.27 14.02 58.92C19.22 63.25 24.37 65.69 26.69 66.65L26.69 94.03C26.69 97.64 29.63 100.58 33.24 100.58L95.43 100.58C99.04 100.58 101.98 97.64 101.98 94.03L101.98 88.85C101.98 87.81 101.14 86.97 100.1 86.97C99.05 86.97 98.21 87.81 98.21 88.85L98.21 94.03C98.21 95.57 96.97 96.81 95.43 96.81L33.24 96.81C31.71 96.81 30.46 95.57 30.46 94.03L30.46 67.26L98.21 67.26L98.21 80.09C98.21 81.13 99.05 81.97 100.1 81.97C101.14 81.97 101.98 81.13 101.98 80.09L101.98 66.65C104.3 65.69 109.45 63.25 114.65 58.92C123.83 51.27 128.68 41.34 128.68 30.21C128.68 24.23 126.34 19 121.74 14.66ZM108.44 28.07C108.44 38.9 105.31 48.18 99.16 55.64C95.29 60.34 91.36 62.8 90.18 63.49L83 63.49C86.43 58.53 91.87 47.59 91.87 28.07C91.87 18.24 89.48 10.52 84.74 5.03C88.3 5.48 92.07 6.1 95.81 6.93C104.19 11.78 108.44 18.89 108.44 28.07ZM66.22 63.49L66.22 3.77C68.59 3.79 73.06 3.9 78.51 4.37C84.87 9.08 88.1 17.05 88.1 28.07C88.1 41.71 85.28 50.75 82.91 55.94C81 60.12 79.08 62.53 78.22 63.49L66.22 63.49ZM50.45 63.49C49.59 62.52 47.67 60.12 45.76 55.94C43.39 50.75 40.57 41.71 40.57 28.07C40.57 17.05 43.8 9.08 50.16 4.37C55.61 3.9 60.08 3.79 62.45 3.77L62.45 63.49L50.45 63.49ZM28.92 63.49C27.62 62.99 22.02 60.68 16.44 56.02C8.03 49.01 3.77 40.33 3.77 30.21C3.77 25.38 5.54 21.29 9.2 17.7C12.79 14.19 17.82 11.56 23.4 9.59C18.79 14.55 16.47 20.73 16.47 28.07C16.47 34.28 17.46 40.13 19.41 45.45C19.69 46.21 20.41 46.68 21.18 46.68C21.4 46.68 21.62 46.64 21.83 46.57C22.81 46.21 23.31 45.12 22.95 44.15C21.15 39.25 20.24 33.84 20.24 28.07C20.24 18.89 24.49 11.77 32.87 6.93C36.61 6.1 40.37 5.48 43.93 5.03C39.19 10.52 36.8 18.24 36.8 28.07C36.8 47.59 42.24 58.53 45.67 63.49L38.5 63.49C37.02 62.63 31.26 58.99 26.63 51.66C26.08 50.78 24.91 50.51 24.03 51.07C23.15 51.62 22.89 52.79 23.44 53.67C26.25 58.12 29.42 61.33 32 63.49L28.92 63.49Z" fill="#FFFFFF" fill-opacity="1.000000" fill-rule="nonzero"/>
</svg>
