<svg width="120.000000" height="120.000000" viewBox="0 0 120 120" fill="none" xmlns="http://www.w3.org/2000/svg" xmlns:xlink="http://www.w3.org/1999/xlink">
	<desc>
			Created with Pixso.
	</desc>
	<defs>
		<clipPath id="clip71_138">
			<rect id="041-best" rx="-0.500000" width="119.000000" height="119.000000" transform="translate(0.500000 0.500000)" fill="white" fill-opacity="0"/>
		</clipPath>
	</defs>
	<rect id="041-best" rx="-0.500000" width="119.000000" height="119.000000" transform="translate(0.500000 0.500000)" fill="#FFFFFF" fill-opacity="0"/>
	<g clip-path="url(#clip71_138)">
		<path id="Vector" d="M112.95 105.91L111.09 105.91C110.65 92.92 105.39 80.76 96.15 71.52C88.41 63.79 78.63 58.84 68.03 57.17C68.08 56.81 68.11 56.44 68.11 56.06C68.11 51.59 64.47 47.95 60 47.95C55.52 47.95 51.88 51.59 51.88 56.06C51.88 56.44 51.91 56.82 51.96 57.18C40.16 59.06 29.31 65.03 21.36 74.19C20.73 74.92 20.8 76.03 21.54 76.67C22.27 77.3 23.38 77.22 24.02 76.49C33.07 66.05 46.19 60.06 60 60.06C85.66 60.06 106.64 80.47 107.57 105.91L12.42 105.91C12.72 97.74 15.1 89.79 19.37 82.84C19.88 82.01 19.62 80.93 18.79 80.42C17.96 79.91 16.88 80.17 16.37 81C11.77 88.51 9.2 97.09 8.9 105.91L7.04 105.91C3.15 105.91 0 109.07 0 112.95C0 114.84 0.73 116.6 2.06 117.93C3.39 119.26 5.15 120 7.04 120L94.78 120C95.75 120 96.53 119.21 96.53 118.24C96.53 117.27 95.75 116.48 94.78 116.48L7.04 116.48C6.09 116.48 5.21 116.11 4.54 115.45C3.88 114.78 3.51 113.9 3.51 112.95C3.51 111.01 5.09 109.43 7.04 109.43L112.95 109.43C113.9 109.43 114.78 109.8 115.45 110.46C116.11 111.13 116.48 112.01 116.48 112.95C116.48 114.9 114.9 116.48 112.95 116.48L102.98 116.48C102.01 116.48 101.22 117.27 101.22 118.24C101.22 119.21 102.01 120 102.98 120L112.95 120C116.84 120 120 116.84 120 112.95C120 111.07 119.26 109.31 117.93 107.98C116.6 106.65 114.84 105.91 112.95 105.91ZM55.46 56.75C55.42 56.53 55.4 56.3 55.4 56.06C55.4 53.53 57.46 51.47 60 51.47C62.53 51.47 64.59 53.53 64.59 56.06C64.59 56.3 64.57 56.52 64.53 56.75C63.03 56.62 61.52 56.55 60 56.55C58.47 56.55 56.96 56.62 55.46 56.75Z" fill="#FFFFFF" fill-opacity="1.000000" fill-rule="nonzero"/>
		<path id="Vector" d="M112.13 0L78.9 0C77.93 0 77.15 0.78 77.15 1.75C77.15 2.72 77.93 3.51 78.9 3.51L112.13 3.51C114.53 3.51 116.48 5.46 116.48 7.87L116.48 32.46C116.48 34.86 114.53 36.81 112.13 36.81L66.35 36.81C65.88 36.81 65.44 37 65.11 37.33L60 42.44L54.88 37.33C54.55 37 54.11 36.81 53.64 36.81L7.87 36.81C5.46 36.81 3.51 34.86 3.51 32.46L3.51 7.87C3.51 5.46 5.46 3.51 7.87 3.51L70.7 3.51C71.67 3.51 72.46 2.72 72.46 1.75C72.46 0.78 71.67 0 70.7 0L7.87 0C3.53 0 0 3.53 0 7.87L0 32.46C0 36.8 3.53 40.33 7.87 40.33L52.91 40.33L57.86 45.28C58.45 45.86 59.22 46.16 59.99 46.16C60.77 46.16 61.54 45.86 62.13 45.28L67.08 40.33L112.13 40.33C116.46 40.33 120 36.8 120 32.46L120 7.87C120 3.53 116.46 0 112.13 0Z" fill="#FFFFFF" fill-opacity="1.000000" fill-rule="nonzero"/>
		<path id="Vector" d="M26.82 17.03C26.44 15.89 25.47 15.07 24.27 14.89L20.98 14.41L19.5 11.43C18.97 10.34 17.89 9.67 16.68 9.67C15.47 9.67 14.39 10.34 13.86 11.43L12.38 14.41L9.09 14.89C7.89 15.07 6.92 15.89 6.55 17.03C6.17 18.18 6.48 19.42 7.34 20.26L9.73 22.59L9.17 25.87C8.96 27.06 9.44 28.24 10.42 28.95C11.39 29.66 12.66 29.75 13.73 29.19L16.68 27.64L19.63 29.19C20.09 29.43 20.6 29.55 21.1 29.55C21.75 29.55 22.39 29.35 22.95 28.95C23.92 28.24 24.4 27.06 24.2 25.87L23.63 22.59L26.02 20.26C26.88 19.42 27.19 18.18 26.82 17.03ZM21.04 20.2C20.3 20.93 19.96 21.97 20.14 22.99L20.61 25.73L18.15 24.44C17.23 23.95 16.13 23.95 15.22 24.44L12.76 25.73L13.23 22.99C13.4 21.97 13.06 20.93 12.32 20.2L10.33 18.26L13.08 17.86C14.11 17.72 14.99 17.07 15.45 16.14L16.68 13.65L17.91 16.14C18.37 17.07 19.26 17.72 20.28 17.86L23.03 18.26L21.04 20.2Z" fill="#FFFFFF" fill-opacity="1.000000" fill-rule="nonzero"/>
		<path id="Vector" d="M48.47 17.03C48.1 15.89 47.13 15.07 45.93 14.89L42.64 14.41L41.16 11.43C40.63 10.34 39.55 9.67 38.34 9.67C37.13 9.67 36.05 10.34 35.52 11.43L34.04 14.41L30.75 14.89C29.55 15.07 28.58 15.89 28.2 17.03C27.83 18.18 28.14 19.42 29 20.26L31.39 22.59L30.82 25.87C30.62 27.06 31.1 28.24 32.08 28.95C33.05 29.66 34.32 29.75 35.39 29.19L38.34 27.64L41.29 29.19C41.75 29.43 42.25 29.55 42.75 29.55C43.4 29.55 44.05 29.35 44.6 28.95C45.58 28.24 46.06 27.06 45.85 25.87L45.29 22.59L47.68 20.26C48.54 19.42 48.85 18.18 48.47 17.03ZM42.7 20.2C41.96 20.93 41.62 21.97 41.79 22.99L42.26 25.73L39.8 24.44C39.34 24.2 38.84 24.08 38.34 24.08C37.84 24.08 37.33 24.2 36.87 24.44L34.41 25.73L34.88 22.99C35.06 21.97 34.72 20.93 33.98 20.2L31.99 18.26L34.74 17.86C35.76 17.72 36.65 17.07 37.11 16.14L38.34 13.65L39.57 16.14C40.03 17.07 40.91 17.72 41.94 17.86L44.69 18.26L42.7 20.2Z" fill="#FFFFFF" fill-opacity="1.000000" fill-rule="nonzero"/>
		<path id="Vector" d="M70.13 17.03C69.76 15.89 68.78 15.07 67.59 14.89L64.29 14.41L62.82 11.43C62.28 10.34 61.2 9.67 60 9.67C58.79 9.67 57.71 10.34 57.17 11.43L55.7 14.41L52.4 14.89C51.21 15.07 50.23 15.89 49.86 17.03C49.49 18.18 49.79 19.42 50.66 20.26L53.04 22.59L52.48 25.87C52.27 27.06 52.75 28.24 53.73 28.95C54.71 29.66 55.98 29.75 57.05 29.19L60 27.64L62.94 29.19C63.41 29.43 63.91 29.55 64.41 29.55C65.06 29.55 65.71 29.35 66.26 28.95C67.24 28.24 67.72 27.06 67.51 25.87L66.95 22.59L69.33 20.26C70.2 19.42 70.5 18.18 70.13 17.03ZM64.36 20.2C63.61 20.93 63.28 21.97 63.45 22.99L63.92 25.73L61.46 24.44C61 24.2 60.5 24.08 60 24.08C59.49 24.08 58.99 24.2 58.53 24.44L56.07 25.73L56.54 22.99C56.71 21.97 56.38 20.93 55.63 20.2L53.64 18.26L56.39 17.86C57.42 17.72 58.31 17.07 58.77 16.14L60 13.65L61.23 16.14C61.68 17.07 62.57 17.71 63.6 17.86L66.35 18.26L64.36 20.2Z" fill="#FFFFFF" fill-opacity="1.000000" fill-rule="nonzero"/>
		<path id="Vector" d="M91.79 17.03C91.41 15.89 90.44 15.07 89.24 14.89L85.95 14.41L84.48 11.43C83.94 10.34 82.86 9.67 81.65 9.67C80.44 9.67 79.36 10.34 78.83 11.43L77.35 14.41L74.06 14.89C72.86 15.07 71.89 15.89 71.52 17.03C71.14 18.18 71.45 19.42 72.31 20.26L74.7 22.59L74.14 25.87C73.93 27.06 74.41 28.24 75.39 28.95C76.36 29.66 77.64 29.75 78.7 29.19L81.65 27.64L84.6 29.19C85.06 29.43 85.57 29.55 86.07 29.55C86.72 29.55 87.36 29.35 87.92 28.95C88.89 28.24 89.37 27.06 89.17 25.87L88.6 22.59L90.99 20.26C91.85 19.42 92.16 18.18 91.79 17.03ZM86.01 20.2C85.27 20.93 84.93 21.97 85.11 22.99L85.58 25.73L83.12 24.44C82.66 24.2 82.15 24.08 81.65 24.08C81.15 24.08 80.65 24.2 80.19 24.44L77.73 25.73L78.2 22.99C78.37 21.97 78.03 20.93 77.29 20.2L75.3 18.26L78.05 17.86C79.08 17.72 79.96 17.07 80.42 16.14L81.65 13.65L82.88 16.14C83.34 17.07 84.23 17.72 85.25 17.86L88 18.26L86.01 20.2Z" fill="#FFFFFF" fill-opacity="1.000000" fill-rule="nonzero"/>
		<path id="Vector" d="M113.44 17.03C113.07 15.89 112.1 15.07 110.9 14.89L107.61 14.41L106.13 11.43C105.6 10.34 104.52 9.67 103.31 9.67C102.1 9.67 101.02 10.34 100.49 11.43L99.01 14.41L95.72 14.89C94.52 15.07 93.55 15.89 93.17 17.03C92.8 18.18 93.11 19.42 93.97 20.26L96.36 22.59L95.79 25.87C95.59 27.06 96.07 28.24 97.04 28.95C98.02 29.66 99.29 29.75 100.36 29.19L103.31 27.64L106.26 29.19C106.72 29.43 107.22 29.55 107.72 29.55C108.37 29.55 109.02 29.35 109.57 28.95C110.55 28.24 111.03 27.06 110.82 25.87L110.26 22.59L112.65 20.26C113.51 19.42 113.82 18.18 113.44 17.03ZM107.67 20.2C106.93 20.93 106.59 21.97 106.76 22.99L107.23 25.73L104.77 24.44C104.32 24.2 103.81 24.08 103.31 24.08C102.81 24.08 102.3 24.2 101.84 24.44L99.38 25.73L99.85 22.99C100.03 21.97 99.69 20.93 98.95 20.2L96.96 18.26L99.71 17.86C100.73 17.72 101.62 17.07 102.08 16.14L103.31 13.65L104.54 16.14C105 17.07 105.88 17.72 106.91 17.86L109.66 18.26L107.67 20.2Z" fill="#FFFFFF" fill-opacity="1.000000" fill-rule="nonzero"/>
	</g>
</svg>
