<svg width="147.000000" height="119.322510" viewBox="0 0 147 119.323" fill="none" xmlns="http://www.w3.org/2000/svg" xmlns:xlink="http://www.w3.org/1999/xlink">
	<desc>
			Created with Pixso.
	</desc>
	<defs/>
	<path id="Vector" d="M146.74 88.98C146.09 87.13 144.41 85.93 142.46 85.93L141.8 85.93C138.38 71.72 127.27 60.83 113.46 57.4C114.02 54.83 113.27 52.17 111.44 50.28C109.6 48.37 106.94 47.53 104.34 48.04L102.19 48.45C101.75 48.54 101.31 48.61 100.86 48.67C100.88 48.37 100.89 48.07 100.89 47.76C100.89 41.3 97.01 35.6 90.99 33.23C89.89 32.79 88.64 33.33 88.2 34.44C87.77 35.55 88.31 36.8 89.41 37.23C93.77 38.95 96.58 43.08 96.58 47.76C96.58 48.18 96.56 48.59 96.51 49C93.32 49.02 90.12 48.53 87.06 47.56C82.84 46.22 78.5 45.57 74.16 45.61C74.88 41.84 77.45 38.68 81.12 37.23C82.23 36.8 82.77 35.55 82.34 34.44C81.9 33.33 80.65 32.79 79.54 33.23C77.6 33.99 75.88 35.11 74.44 36.49C71.55 33.73 67.67 32.14 63.64 32.14C55.03 32.14 48.02 39.15 48.02 47.76C48.02 48.07 48.03 48.37 48.05 48.67C47.6 48.61 47.16 48.54 46.72 48.45L44.57 48.04C41.97 47.54 39.31 48.37 37.47 50.28C35.64 52.17 34.88 54.82 35.45 57.39C32.66 58.09 29.95 59.09 27.34 60.41C26.28 60.95 25.85 62.25 26.39 63.31C26.77 64.06 27.53 64.49 28.31 64.49C28.64 64.49 28.97 64.41 29.28 64.26C34.12 61.81 39.33 60.57 44.78 60.57C48.05 60.57 51.24 61.02 54.33 61.91C52.2 63.21 50.21 64.7 48.37 66.38C47.18 66.23 45.97 66.15 44.78 66.15C32.31 66.15 21.28 74.21 17.4 85.93L11.56 85.93C13.28 79.68 16.8 73.93 21.63 69.53C22.51 68.73 22.58 67.37 21.78 66.49C20.98 65.61 19.61 65.54 18.73 66.34C13.01 71.56 8.93 78.46 7.12 85.93L4.53 85.93C2.58 85.93 0.9 87.13 0.25 88.98C-0.39 90.83 0.19 92.8 1.71 94.01C11.6 101.84 23.89 106.29 36.48 106.63L38.91 113.74C40.05 117.08 43.18 119.32 46.71 119.32L100.28 119.32C103.81 119.32 106.95 117.08 108.08 113.74L110.51 106.63C123.1 106.29 135.39 101.84 145.28 94.01C146.8 92.8 147.38 90.83 146.74 88.98ZM137.35 85.93L131.51 85.93C127.63 74.21 116.6 66.15 104.13 66.15C102.93 66.15 101.73 66.23 100.54 66.38C98.7 64.7 96.71 63.21 94.58 61.91C97.67 61.02 100.86 60.57 104.13 60.57C119.73 60.57 133.31 71.09 137.35 85.93ZM112.12 85.93C111.8 84.6 111.41 83.3 110.96 82.04C112.78 82.99 114.37 84.32 115.64 85.93L112.12 85.93ZM120.78 85.93C118.21 81.21 113.76 77.8 108.53 76.56C107.35 74.39 105.97 72.35 104.42 70.46C114.43 70.58 123.29 76.79 126.93 85.93L120.78 85.93ZM52.32 47.76C52.32 41.52 57.4 36.45 63.64 36.45C66.75 36.45 69.64 37.69 71.76 39.89C70.71 41.69 70.02 43.72 69.76 45.87C67.1 46.17 64.45 46.74 61.84 47.56C58.79 48.53 55.59 49.02 52.4 49C52.35 48.59 52.32 48.18 52.32 47.76ZM44.78 56.26C43.06 56.26 41.36 56.37 39.68 56.59L39.66 56.5C39.39 55.32 39.72 54.14 40.56 53.27C41.4 52.4 42.57 52.04 43.76 52.27L45.91 52.68C51.63 53.78 57.59 53.43 63.15 51.67C70.55 49.32 78.36 49.32 85.76 51.67C91.32 53.43 97.28 53.78 103 52.68L105.15 52.27C106.34 52.04 107.5 52.4 108.35 53.27C109.19 54.14 109.52 55.32 109.25 56.5L109.23 56.59C107.56 56.37 105.86 56.26 104.13 56.26C98.98 56.26 93.99 57.25 89.29 59.21C84.69 57.31 79.67 56.26 74.45 56.26C69.23 56.26 64.22 57.31 59.62 59.22C54.91 57.25 49.92 56.26 44.78 56.26ZM74.45 60.57C90.06 60.57 103.63 71.09 107.67 85.93L101.83 85.93C97.95 74.21 86.93 66.15 74.45 66.15C61.98 66.15 50.95 74.21 47.07 85.93L41.23 85.93C45.28 71.09 58.85 60.57 74.45 60.57ZM91.1 85.93C87.81 79.88 81.42 76.04 74.45 76.04C67.49 76.04 61.1 79.88 57.81 85.93L51.65 85.93C55.32 76.7 64.33 70.46 74.45 70.46C84.58 70.46 93.58 76.7 97.26 85.93L91.1 85.93ZM85.96 85.93L62.95 85.93C65.69 82.46 69.91 80.35 74.45 80.35C79 80.35 83.22 82.46 85.96 85.93ZM33.27 85.93C34.54 84.32 36.13 82.99 37.94 82.04C37.49 83.3 37.11 84.6 36.79 85.93L33.27 85.93ZM44.48 70.46C42.94 72.35 41.56 74.39 40.38 76.56C35.15 77.8 30.7 81.21 28.13 85.93L21.97 85.93C25.61 76.78 34.48 70.58 44.48 70.46ZM142.6 90.63C133.07 98.18 121.13 102.34 108.97 102.34L99.49 102.34C98.31 102.34 97.34 103.31 97.34 104.5C97.34 105.68 98.3 106.65 99.49 106.65L105.95 106.65L104.01 112.35C103.46 113.94 101.97 115.01 100.28 115.01L46.71 115.01C45.02 115.01 43.53 113.94 42.98 112.35L41.04 106.65L89.45 106.65C90.64 106.65 91.6 105.68 91.6 104.5C91.6 103.31 90.64 102.34 89.45 102.34L38.02 102.34C25.87 102.34 13.92 98.18 4.39 90.63C4.33 90.59 4.27 90.54 4.32 90.4C4.38 90.24 4.47 90.24 4.53 90.24L142.46 90.24C142.52 90.24 142.61 90.24 142.67 90.4C142.72 90.54 142.66 90.59 142.6 90.63Z" fill="#FFFFFF" fill-opacity="1.000000" fill-rule="nonzero"/>
	<path id="Vector" d="M75.86 20.71C74.27 21.84 72.08 23.38 72.08 26.53C72.08 27.72 73.05 28.68 74.24 28.68C75.42 28.68 76.39 27.72 76.39 26.53C76.39 25.73 76.83 25.3 78.35 24.22C79.95 23.09 82.13 21.55 82.13 18.4C82.13 15.25 79.95 13.71 78.35 12.58C76.83 11.5 76.39 11.07 76.39 10.27C76.39 9.48 76.83 9.04 78.35 7.97C79.95 6.84 82.13 5.29 82.13 2.15C82.13 0.96 81.17 0 79.98 0C78.79 0 77.82 0.96 77.82 2.15C77.82 2.94 77.38 3.38 75.86 4.45C74.27 5.58 72.08 7.13 72.08 10.27C72.08 13.42 74.27 14.97 75.86 16.09C77.38 17.17 77.82 17.6 77.82 18.4C77.82 19.2 77.38 19.63 75.86 20.71Z" fill="#FFFFFF" fill-opacity="1.000000" fill-rule="nonzero"/>
</svg>
