<svg width="46.000000" height="46.000000" viewBox="0 0 46 46" fill="none" xmlns="http://www.w3.org/2000/svg" xmlns:xlink="http://www.w3.org/1999/xlink">
	<desc>
			Created with Pixso.
	</desc>
	<defs>
		<clipPath id="clip71_360">
			<rect id="Frame 10" rx="9.500000" width="45.000000" height="45.000000" transform="translate(0.500000 0.500000)" fill="white" fill-opacity="0"/>
		</clipPath>
	</defs>
	<rect id="Frame 10" rx="9.500000" width="45.000000" height="45.000000" transform="translate(0.500000 0.500000)" fill="#F5F5F5" fill-opacity="1.000000"/>
	<g clip-path="url(#clip71_360)">
		<path id="Vector" d="M30.23 15.9C28.44 14.03 26.07 13 23.53 13C18.32 13 14.08 17.44 14.07 22.9C14.07 24.65 14.51 26.36 15.34 27.86L14 33L19.01 31.62C20.39 32.41 21.95 32.82 23.53 32.82L23.53 32.82C28.75 32.82 32.99 28.38 33 22.91C33 20.26 32.01 17.78 30.23 15.9L30.23 15.9ZM23.53 31.15L23.53 31.15C22.12 31.15 20.74 30.75 19.53 30L19.24 29.82L16.27 30.64L17.06 27.6L16.87 27.29C16.09 25.98 15.67 24.46 15.67 22.91C15.67 18.36 19.2 14.67 23.54 14.67C25.64 14.67 27.61 15.53 29.1 17.08C30.58 18.64 31.4 20.71 31.4 22.91C31.4 27.45 27.87 31.15 23.53 31.15L23.53 31.15ZM27.85 24.98C27.61 24.86 26.45 24.26 26.23 24.17C26.02 24.09 25.86 24.05 25.7 24.3C25.54 24.55 25.09 25.1 24.95 25.27C24.81 25.44 24.68 25.46 24.44 25.33C24.2 25.21 23.44 24.95 22.54 24.1C21.84 23.45 21.36 22.64 21.22 22.39C21.09 22.14 21.21 22.01 21.33 21.88C21.43 21.77 21.56 21.59 21.68 21.45C21.8 21.3 21.84 21.2 21.92 21.04C22 20.87 21.96 20.73 21.9 20.6C21.84 20.48 21.37 19.26 21.17 18.76C20.98 18.28 20.78 18.35 20.64 18.34C20.5 18.33 20.34 18.33 20.19 18.33C20.03 18.33 19.77 18.39 19.55 18.64C19.34 18.89 18.73 19.49 18.73 20.7C18.73 21.92 19.57 23.1 19.69 23.27C19.81 23.43 21.36 25.93 23.73 27.01C24.29 27.26 24.74 27.41 25.08 27.53C25.64 27.72 26.16 27.69 26.57 27.63C27.02 27.55 27.97 27.03 28.16 26.45C28.36 25.87 28.36 25.37 28.3 25.27C28.24 25.17 28.08 25.11 27.85 24.98L27.85 24.98Z" fill="#3D3D3D" fill-opacity="1.000000" fill-rule="evenodd"/>
	</g>
</svg>
