<svg width="80.000000" height="80.000000" viewBox="0 0 80 80" fill="none" xmlns="http://www.w3.org/2000/svg" xmlns:xlink="http://www.w3.org/1999/xlink">
	<desc>
			Created with Pixso.
	</desc>
	<defs>
		<clipPath id="clip133_946">
			<rect id="Frame 923" rx="39.500000" width="79.000000" height="79.000000" transform="translate(0.500000 0.500000)" fill="white" fill-opacity="0"/>
		</clipPath>
	</defs>
	<rect id="Frame 923" rx="39.500000" width="79.000000" height="79.000000" transform="translate(0.500000 0.500000)" fill="#3464A4" fill-opacity="1.000000"/>
	<g clip-path="url(#clip133_946)">
		<path id="Vector" d="M39.49 28.8C37.23 28.8 35.39 27.05 35.39 24.9C35.39 22.74 37.23 21 39.49 21C41.76 21 43.59 22.74 43.59 24.9C43.59 27.05 41.76 28.8 39.49 28.8Z" stroke="#FFFFFF" stroke-opacity="1.000000" stroke-width="3.000000"/>
		<path id="Vector" d="M39.5 46.34L40.87 45.62C40.59 45.17 40.06 44.9 39.5 44.9C38.93 44.9 38.4 45.17 38.12 45.62L39.5 46.34ZM26.4 39.71L31 41.11L32 38.37L27.4 36.97L26.4 39.71ZM31.7 42.46L29.06 48.71L32.03 49.75L34.66 43.5L31.7 42.46ZM51.59 36.97L46.99 38.37L47.99 41.11L52.59 39.71L51.59 36.97ZM44.33 43.5L46.97 49.75L49.93 48.71L47.29 42.46L44.33 43.5ZM37.54 52.38L40.87 47.06L38.12 45.62L34.78 50.94L37.54 52.38ZM50.05 31.23L46.04 32.02L46.7 34.85L50.72 34.06L50.05 31.23ZM32.95 32.02L28.94 31.23L28.27 34.06L32.29 34.85L32.95 32.02ZM38.12 47.06L41.45 52.38L44.21 50.94L40.87 45.62L38.12 47.06ZM46.04 32.02C45.81 32.06 45.71 32.08 45.6 32.1L46.25 34.93C46.36 34.91 46.48 34.89 46.7 34.85L46.04 32.02ZM32.29 34.85C32.51 34.89 32.63 34.91 32.74 34.93L33.39 32.1C33.28 32.08 33.18 32.06 32.95 32.02L32.29 34.85ZM45.6 32.1C41.57 32.86 37.42 32.86 33.39 32.1L32.74 34.93C37.2 35.77 41.79 35.77 46.25 34.93L45.6 32.1ZM33.45 54.54C35.14 54.54 36.7 53.71 37.54 52.38L34.78 50.94C34.51 51.38 34 51.64 33.45 51.64L33.45 54.54ZM46.97 49.75C47.35 50.66 46.61 51.64 45.54 51.64L45.54 54.54C48.84 54.54 51.11 51.52 49.93 48.71L46.97 49.75ZM46.99 38.37C46.52 38.51 46.02 38.65 45.61 38.88L47.28 41.34C47.26 41.35 47.28 41.34 47.4 41.29C47.53 41.25 47.7 41.2 47.99 41.11L46.99 38.37ZM47.29 42.46C47.18 42.2 47.11 42.05 47.07 41.93C47.03 41.81 47.03 41.79 47.03 41.81L43.89 42.21C43.95 42.64 44.15 43.08 44.33 43.5L47.29 42.46ZM45.61 38.88C44.36 39.58 43.69 40.88 43.89 42.21L47.03 41.81C47 41.63 47.1 41.44 47.28 41.34L45.61 38.88ZM52.72 35.54C52.72 36.19 52.27 36.76 51.59 36.97L52.59 39.71C54.57 39.11 55.9 37.43 55.9 35.54L52.72 35.54ZM29.06 48.71C27.88 51.52 30.15 54.54 33.45 54.54L33.45 51.64C32.38 51.64 31.64 50.66 32.03 49.75L29.06 48.71ZM31 41.11C31.29 41.2 31.46 41.25 31.59 41.29C31.72 41.34 31.73 41.35 31.71 41.34L33.38 38.88C32.97 38.65 32.47 38.51 32 38.37L31 41.11ZM34.66 43.5C34.84 43.08 35.04 42.64 35.1 42.21L31.96 41.81C31.96 41.79 31.96 41.81 31.92 41.93C31.88 42.05 31.81 42.2 31.7 42.46L34.66 43.5ZM31.71 41.34C31.89 41.44 31.99 41.63 31.96 41.81L35.1 42.21C35.3 40.88 34.63 39.58 33.38 38.88L31.71 41.34ZM23.1 35.54C23.1 37.43 24.43 39.11 26.4 39.71L27.4 36.97C26.73 36.76 26.27 36.19 26.27 35.54L23.1 35.54ZM26.27 35.54C26.27 34.58 27.24 33.86 28.27 34.06L28.94 31.23C25.93 30.65 23.1 32.74 23.1 35.54L26.27 35.54ZM41.45 52.38C42.29 53.71 43.85 54.54 45.54 54.54L45.54 51.64C44.99 51.64 44.48 51.38 44.21 50.94L41.45 52.38ZM55.9 35.54C55.9 32.74 53.06 30.65 50.05 31.23L50.72 34.06C51.75 33.86 52.72 34.58 52.72 35.54L55.9 35.54Z" fill="#FFFFFF" fill-opacity="1.000000" fill-rule="nonzero"/>
		<path id="Vector" d="M54.78 45.18C58.02 46.75 60 48.83 60 51.1C60 56.01 50.82 60 39.5 60C28.17 60 19 56.01 19 51.1C19 48.83 20.97 46.75 24.22 45.18" stroke="#FFFFFF" stroke-opacity="1.000000" stroke-width="3.000000" stroke-linecap="round"/>
	</g>
</svg>
