<svg width="80.000000" height="80.000000" viewBox="0 0 80 80" fill="none" xmlns="http://www.w3.org/2000/svg" xmlns:xlink="http://www.w3.org/1999/xlink">
	<desc>
			Created with Pixso.
	</desc>
	<defs>
		<clipPath id="clip133_953">
			<rect id="Frame 923" rx="39.500000" width="79.000000" height="79.000000" transform="translate(0.500000 0.500000)" fill="white" fill-opacity="0"/>
		</clipPath>
	</defs>
	<rect id="Frame 923" rx="39.500000" width="79.000000" height="79.000000" transform="translate(0.500000 0.500000)" fill="#3464A4" fill-opacity="1.000000"/>
	<g clip-path="url(#clip133_953)">
		<path id="Vector" d="M40 60C51.04 60 60 51.04 60 40C60 28.95 51.04 20 40 20C28.95 20 20 28.95 20 40C20 51.04 28.95 60 40 60ZM40 56.35C30.96 56.35 23.64 49.03 23.64 40C23.64 36.13 24.98 32.59 27.22 29.79L50.2 52.77C47.4 55.01 43.86 56.35 40 56.35ZM52.77 50.2C55.01 47.4 56.35 43.86 56.35 40C56.35 30.96 49.03 23.64 40 23.64C36.13 23.64 32.59 24.98 29.79 27.22L52.77 50.2Z" fill="#FFFFFF" fill-opacity="1.000000" fill-rule="evenodd"/>
	</g>
</svg>
