<svg width="80.000000" height="80.000000" viewBox="0 0 80 80" fill="none" xmlns="http://www.w3.org/2000/svg" xmlns:xlink="http://www.w3.org/1999/xlink">
	<desc>
			Created with Pixso.
	</desc>
	<defs>
		<clipPath id="clip133_397">
			<rect id="Frame 923" rx="39.500000" width="79.000000" height="79.000000" transform="translate(0.500000 0.500000)" fill="white" fill-opacity="0"/>
		</clipPath>
	</defs>
	<rect id="Frame 923" rx="39.500000" width="79.000000" height="79.000000" transform="translate(0.500000 0.500000)" fill="#3464A4" fill-opacity="1.000000"/>
	<g clip-path="url(#clip133_397)">
		<path id="Vector" d="M61.83 56.26L57.75 49.51C58.79 47.78 59.1 45.74 58.63 43.79C58.16 41.85 56.94 40.15 55.21 39.03L55.21 21.89C55.21 21.39 55 20.91 54.63 20.55C54.26 20.2 53.76 20 53.23 20L24.97 20C24.71 20 24.45 20.04 24.21 20.14C23.97 20.24 23.75 20.38 23.57 20.55C23.39 20.73 23.24 20.94 23.14 21.17C23.04 21.4 22.99 21.65 23 21.89L23 54.23C23 54.73 23.2 55.22 23.57 55.57C23.94 55.92 24.44 56.12 24.97 56.12L39.4 56.12L39.32 56.26C39.24 56.39 39.19 56.54 39.19 56.69C39.19 56.84 39.24 56.99 39.32 57.12C39.41 57.25 39.54 57.36 39.69 57.42C39.84 57.48 40 57.5 40.17 57.48L42.8 57.15L43.82 59.5C43.89 59.64 43.99 59.76 44.11 59.85C44.24 59.93 44.4 59.99 44.55 60L44.6 60C44.75 60 44.9 59.96 45.03 59.89C45.16 59.82 45.27 59.71 45.34 59.59L49.08 53.39C49.58 53.48 50.08 53.52 50.58 53.53C51.09 53.52 51.59 53.48 52.09 53.39L55.86 59.59C55.93 59.71 56.04 59.82 56.17 59.89C56.3 59.96 56.44 60 56.59 60L56.64 60C56.8 59.99 56.95 59.93 57.08 59.85C57.21 59.76 57.31 59.64 57.37 59.5L58.4 57.15L61.03 57.48C61.19 57.5 61.35 57.48 61.49 57.42C61.64 57.35 61.76 57.25 61.85 57.13C61.94 57 61.99 56.85 61.99 56.7C62 56.54 61.96 56.39 61.88 56.26L61.83 56.26ZM24.97 54.5C24.89 54.5 24.82 54.47 24.77 54.42C24.72 54.37 24.69 54.3 24.69 54.23L24.69 21.89C24.69 21.82 24.72 21.75 24.77 21.7C24.82 21.65 24.89 21.62 24.97 21.62L53.21 21.62C53.29 21.62 53.36 21.65 53.42 21.7C53.47 21.75 53.5 21.82 53.5 21.89L53.5 38.21C52.76 37.93 51.98 37.77 51.19 37.71L51.19 24.65C51.19 24.43 51.1 24.22 50.94 24.07C50.78 23.92 50.57 23.83 50.34 23.83L27.84 23.83C27.61 23.83 27.4 23.92 27.24 24.07C27.08 24.22 26.99 24.43 26.99 24.65L26.99 51.47C26.99 51.69 27.08 51.9 27.24 52.05C27.4 52.2 27.61 52.29 27.84 52.29L41.72 52.29L40.38 54.5L24.97 54.5ZM42.31 45.6C42.31 46.97 42.68 48.32 43.39 49.51L42.69 50.66L28.68 50.66L28.68 25.46L49.5 25.46L49.5 37.75C47.51 38 45.69 38.94 44.37 40.38C43.05 41.83 42.31 43.68 42.31 45.6ZM44.71 57.37L44.1 55.96C44.03 55.81 43.91 55.68 43.76 55.59C43.61 55.5 43.43 55.46 43.26 55.47L41.68 55.66L44.53 50.94C45.32 51.79 46.3 52.46 47.39 52.91L44.71 57.37ZM44 45.6C44 44.35 44.39 43.14 45.11 42.1C45.84 41.07 46.86 40.26 48.06 39.79C49.27 39.31 50.59 39.19 51.86 39.43C53.13 39.68 54.3 40.28 55.22 41.16C56.14 42.04 56.77 43.16 57.02 44.38C57.27 45.6 57.14 46.87 56.64 48.02C56.14 49.17 55.3 50.15 54.22 50.84C53.14 51.53 51.87 51.9 50.57 51.9C48.83 51.9 47.16 51.24 45.93 50.05C44.69 48.87 44 47.27 44 45.6ZM57.93 55.47C57.75 55.45 57.56 55.49 57.4 55.57C57.24 55.66 57.11 55.8 57.04 55.96L56.43 57.37L53.75 52.91C54.87 52.47 55.88 51.8 56.7 50.94L59.55 55.66L57.93 55.47Z" fill="#FFFFFF" fill-opacity="1.000000" fill-rule="nonzero"/>
		<path id="Vector" d="M54.65 43.78L52.59 43.07L51.24 41.45C51.16 41.36 51.06 41.28 50.95 41.23C50.83 41.18 50.71 41.15 50.59 41.15C50.46 41.15 50.34 41.18 50.22 41.23C50.11 41.28 50.01 41.36 49.93 41.45L48.58 43.07L46.54 43.78C46.42 43.82 46.31 43.89 46.22 43.98C46.13 44.07 46.07 44.17 46.03 44.29C45.99 44.41 45.97 44.53 45.99 44.66C46.01 44.78 46.06 44.9 46.13 45L47.36 46.73L47.39 48.84C47.39 48.96 47.43 49.08 47.49 49.19C47.55 49.3 47.63 49.4 47.74 49.47C47.84 49.54 47.96 49.59 48.09 49.61C48.22 49.63 48.35 49.63 48.47 49.59L50.57 49L52.68 49.59C52.76 49.6 52.84 49.6 52.92 49.59C53.09 49.59 53.27 49.54 53.41 49.44C53.51 49.36 53.6 49.27 53.66 49.16C53.73 49.05 53.76 48.93 53.76 48.8L53.82 46.7L55.06 44.97C55.13 44.86 55.18 44.75 55.2 44.62C55.22 44.5 55.21 44.38 55.17 44.26C55.12 44.15 55.05 44.05 54.96 43.96C54.87 43.88 54.76 43.82 54.65 43.78ZM52.29 46.02C52.2 46.15 52.15 46.3 52.14 46.45L52.14 47.74L50.78 47.38C50.62 47.33 50.46 47.33 50.3 47.38L49.08 47.74L49.04 46.45C49.03 46.3 48.98 46.15 48.89 46.02L48.13 44.95L49.4 44.52C49.55 44.46 49.68 44.37 49.78 44.25L50.63 43.23L51.48 44.25C51.58 44.37 51.72 44.46 51.87 44.52L53.13 44.95L52.29 46.02Z" fill="#FFFFFF" fill-opacity="1.000000" fill-rule="nonzero"/>
		<path id="Vector" d="M42.91 27.9L35.29 27.9C35.06 27.9 34.85 27.98 34.69 28.14C34.53 28.29 34.44 28.5 34.44 28.71C34.44 28.93 34.53 29.13 34.69 29.28C34.85 29.44 35.06 29.52 35.29 29.52L42.91 29.52C43.13 29.52 43.35 29.44 43.51 29.28C43.67 29.13 43.76 28.93 43.76 28.71C43.76 28.5 43.67 28.29 43.51 28.14C43.35 27.98 43.13 27.9 42.91 27.9Z" fill="#FFFFFF" fill-opacity="1.000000" fill-rule="nonzero"/>
		<path id="Vector" d="M31.97 44.43L36.3 44.43C36.52 44.43 36.74 44.34 36.9 44.19C37.05 44.04 37.14 43.83 37.14 43.62C37.14 43.4 37.05 43.2 36.9 43.04C36.74 42.89 36.52 42.81 36.3 42.81L31.97 42.81C31.75 42.81 31.53 42.89 31.37 43.04C31.21 43.2 31.12 43.4 31.12 43.62C31.12 43.83 31.21 44.04 31.37 44.19C31.53 44.34 31.75 44.43 31.97 44.43Z" fill="#FFFFFF" fill-opacity="1.000000" fill-rule="nonzero"/>
		<path id="Vector" d="M39.77 46.39L31.97 46.39C31.75 46.39 31.53 46.48 31.37 46.63C31.21 46.78 31.12 46.99 31.12 47.21C31.12 47.42 31.21 47.63 31.37 47.78C31.53 47.93 31.75 48.02 31.97 48.02L39.77 48.02C39.99 48.02 40.21 47.93 40.37 47.78C40.53 47.63 40.62 47.42 40.62 47.21C40.62 46.99 40.53 46.78 40.37 46.63C40.21 46.48 39.99 46.39 39.77 46.39Z" fill="#FFFFFF" fill-opacity="1.000000" fill-rule="nonzero"/>
	</g>
</svg>
