<svg width="80.000000" height="80.000000" viewBox="0 0 80 80" fill="none" xmlns="http://www.w3.org/2000/svg" xmlns:xlink="http://www.w3.org/1999/xlink">
	<desc>
			Created with Pixso.
	</desc>
	<defs>
		<clipPath id="clip133_961">
			<rect id="Frame 923" rx="39.500000" width="79.000000" height="79.000000" transform="translate(0.500000 0.500000)" fill="white" fill-opacity="0"/>
		</clipPath>
	</defs>
	<rect id="Frame 923" rx="39.500000" width="79.000000" height="79.000000" transform="translate(0.500000 0.500000)" fill="#3464A4" fill-opacity="1.000000"/>
	<g clip-path="url(#clip133_961)">
		<path id="selection" d="M55 52.5C55 53.88 53.88 55 52.5 55L45 55L45 60L55 60C57.76 60 60 57.76 60 55L60 45L55 45L55 52.5ZM55 20L45 20L45 25L52.5 25C53.88 25 55 26.12 55 27.5L55 35L60 35L60 25C60 22.23 57.76 20 55 20ZM20 25L20 35L25 35L25 27.5C25 26.12 26.12 25 27.5 25L35 25L35 20L25 20C22.23 20 20 22.23 20 25ZM25 52.5L25 45L20 45L20 55C20 57.76 22.23 60 25 60L35 60L35 55L27.5 55C26.12 55 25 53.88 25 52.5Z" fill="#FFFFFF" fill-opacity="1.000000" fill-rule="evenodd"/>
	</g>
</svg>
