<svg width="80.000000" height="80.000000" viewBox="0 0 80 80" fill="none" xmlns="http://www.w3.org/2000/svg" xmlns:xlink="http://www.w3.org/1999/xlink">
	<desc>
			Created with Pixso.
	</desc>
	<defs>
		<clipPath id="clip133_957">
			<rect id="Frame 923" rx="39.500000" width="79.000000" height="79.000000" transform="translate(0.500000 0.500000)" fill="white" fill-opacity="0"/>
		</clipPath>
	</defs>
	<rect id="Frame 923" rx="39.500000" width="79.000000" height="79.000000" transform="translate(0.500000 0.500000)" fill="#3464A4" fill-opacity="1.000000"/>
	<g clip-path="url(#clip133_957)">
		<path id="Path 50" d="M53.06 23L26.93 23C25.36 23 23.85 23.62 22.73 24.73C21.62 25.85 21 27.36 21 28.93L21 47.93C21 49.51 21.62 51.02 22.73 52.13C23.85 53.24 25.36 53.87 26.93 53.87L28.12 53.87L28.12 59.81C28.12 60.04 28.19 60.27 28.32 60.47C28.45 60.66 28.64 60.81 28.85 60.9C29 60.97 29.15 61 29.31 61C29.46 61 29.62 60.96 29.76 60.91C29.91 60.85 30.04 60.76 30.15 60.65L36.92 53.87L53.06 53.87C54.63 53.87 56.14 53.24 57.26 52.13C58.37 51.02 59 49.51 59 47.93L59 28.93C59 27.36 58.37 25.85 57.26 24.73C56.14 23.62 54.63 23 53.06 23ZM56.62 47.93C56.62 48.88 56.24 49.78 55.58 50.45C54.91 51.12 54 51.5 53.06 51.5L36.43 51.5C36.28 51.49 36.12 51.53 35.98 51.58C35.83 51.64 35.7 51.73 35.59 51.84L30.5 56.94L30.5 52.68C30.5 52.37 30.37 52.07 30.15 51.84C29.92 51.62 29.62 51.5 29.31 51.5L26.93 51.5C25.99 51.5 25.08 51.12 24.41 50.45C23.75 49.78 23.37 48.88 23.37 47.93L23.37 28.93C23.37 27.99 23.75 27.08 24.41 26.41C25.08 25.75 25.99 25.37 26.93 25.37L53.06 25.37C54 25.37 54.91 25.75 55.58 26.41C56.24 27.08 56.62 27.99 56.62 28.93L56.62 47.93ZM51.78 38.89C51.72 39.03 51.63 39.16 51.52 39.27L46.77 44.02C46.55 44.25 46.25 44.37 45.93 44.37C45.78 44.37 45.62 44.34 45.48 44.28C45.33 44.22 45.2 44.13 45.09 44.02C44.98 43.91 44.89 43.78 44.83 43.64C44.77 43.49 44.74 43.34 44.74 43.18C44.74 43.03 44.77 42.87 44.83 42.73C44.89 42.58 44.98 42.45 45.09 42.34L47.82 39.62L36.43 39.62C35.49 39.62 34.58 40 33.91 40.66C33.25 41.33 32.87 42.24 32.87 43.18C32.87 43.5 32.74 43.8 32.52 44.02C32.3 44.24 32 44.37 31.68 44.37C31.37 44.37 31.07 44.24 30.84 44.02C30.62 43.8 30.5 43.5 30.5 43.18C30.5 41.61 31.12 40.1 32.23 38.98C33.35 37.87 34.86 37.25 36.43 37.25L47.82 37.25L45.09 34.52C44.98 34.41 44.89 34.28 44.83 34.14C44.77 33.99 44.74 33.84 44.74 33.68C44.74 33.53 44.77 33.37 44.83 33.23C44.89 33.08 44.98 32.95 45.09 32.84C45.2 32.73 45.33 32.64 45.48 32.58C45.62 32.52 45.78 32.49 45.93 32.49C46.09 32.49 46.24 32.52 46.39 32.58C46.53 32.64 46.66 32.73 46.77 32.84L51.52 37.59C51.63 37.7 51.72 37.83 51.78 37.98C51.9 38.27 51.9 38.6 51.78 38.89Z" fill="#FFFFFF" fill-opacity="1.000000" fill-rule="nonzero"/>
	</g>
</svg>
