<svg width="80.000000" height="80.000000" viewBox="0 0 80 80" fill="none" xmlns="http://www.w3.org/2000/svg" xmlns:xlink="http://www.w3.org/1999/xlink">
	<desc>
			Created with Pixso.
	</desc>
	<defs>
		<clipPath id="clip133_393">
			<rect id="Frame 923" rx="39.500000" width="79.000000" height="79.000000" transform="translate(0.500000 0.500000)" fill="white" fill-opacity="0"/>
		</clipPath>
	</defs>
	<rect id="Frame 923" rx="39.500000" width="79.000000" height="79.000000" transform="translate(0.500000 0.500000)" fill="#3464A4" fill-opacity="1.000000"/>
	<g clip-path="url(#clip133_393)">
		<path id="5" d="M49.51 50.13Q50.28 48.41 50.28 46.27Q50.28 44.19 49.6 42.57Q49.2 41.6 48.57 40.81Q48.15 40.29 47.63 39.85Q46.33 38.74 44.42 38.15Q42.51 37.55 40.05 37.55L34.84 37.55L35.33 29.58L48.37 29.58L48.37 26.2L31.98 26.2L31.06 40.95L39.99 40.95Q43.2 40.95 44.89 42.33Q45.27 42.64 45.56 43.01Q46.58 44.3 46.58 46.39Q46.58 47.3 46.32 48.12Q46.23 48.41 46.11 48.69Q45.85 49.27 45.48 49.76Q45.17 50.18 44.79 50.53Q43.94 51.31 42.74 51.76Q41.54 52.21 40.05 52.21Q38.43 52.21 37.2 51.85Q35.98 51.48 35.08 50.75Q35.07 50.74 35.07 50.74Q34.19 50.01 33.59 48.94Q32.99 47.86 32.64 46.43L29 47.02Q29.48 49.23 30.46 50.84Q31.4 52.35 32.71 53.38Q32.79 53.45 32.88 53.52Q33.08 53.66 33.28 53.8Q34.56 54.64 36.12 55.08Q37.91 55.59 39.99 55.59Q42.26 55.59 44.14 54.95Q46.04 54.29 47.4 53.07Q47.85 52.66 48.23 52.2Q49.01 51.28 49.51 50.13Z" fill="#FFFFFF" fill-opacity="1.000000" fill-rule="evenodd"/>
	</g>
</svg>
