<svg width="80" height="80" viewBox="0 0 80 80" fill="none" xmlns="http://www.w3.org/2000/svg">
<rect width="80" height="80" rx="40" fill="#3464A4"/>
<path fill-rule="evenodd" clip-rule="evenodd" d="M55 52.5C55 53.88 53.88 55 52.5 55H45V60H55C57.7612 60 60 57.7612 60 55V45H55V52.5ZM55 20H45V25H52.5C53.88 25 55 26.12 55 27.5V35H60V25C60 22.2387 57.7612 20 55 20ZM20 25V35H25V27.5C25 26.12 26.12 25 27.5 25H35V20H25C22.2387 20 20 22.2387 20 25ZM25 52.5V45H20V55C20 57.7612 22.2387 60 25 60H35V55H27.5C26.12 55 25 53.88 25 52.5Z" fill="white"/>
</svg>
