<svg width="80.000000" height="80.000000" viewBox="0 0 80 80" fill="none" xmlns="http://www.w3.org/2000/svg" xmlns:xlink="http://www.w3.org/1999/xlink">
	<desc>
			Created with Pixso.
	</desc>
	<defs>
		<clipPath id="clip133_420">
			<rect id="Frame 923" rx="39.500000" width="79.000000" height="79.000000" transform="translate(0.500000 0.500000)" fill="white" fill-opacity="0"/>
		</clipPath>
	</defs>
	<rect id="Frame 923" rx="39.500000" width="79.000000" height="79.000000" transform="translate(0.500000 0.500000)" fill="#3464A4" fill-opacity="1.000000"/>
	<g clip-path="url(#clip133_420)">
		<path id="Vector" d="M46.01 41.37C46.26 40.83 46.97 40.32 47.58 40.26C48.19 40.19 48.75 39.64 48.82 39.05C48.89 38.46 49.4 37.77 49.96 37.52C50.24 37.38 50.47 37.16 50.61 36.89C50.76 36.62 50.81 36.31 50.76 36C50.63 35.42 50.91 34.61 51.36 34.21C51.58 33.99 51.73 33.71 51.78 33.41C51.83 33.1 51.77 32.79 51.63 32.52C51.48 32.23 51.41 31.9 51.41 31.58C51.41 31.25 51.48 30.93 51.63 30.63C51.78 30.36 51.83 30.05 51.78 29.74C51.73 29.44 51.58 29.16 51.36 28.95C50.91 28.54 50.64 27.73 50.76 27.15C50.81 26.84 50.76 26.53 50.61 26.26C50.47 25.99 50.24 25.77 49.96 25.63C49.66 25.47 49.41 25.25 49.21 24.99C49.01 24.72 48.88 24.42 48.82 24.1C48.77 23.79 48.62 23.52 48.4 23.3C48.18 23.08 47.89 22.94 47.58 22.89C47.25 22.84 46.93 22.71 46.66 22.51C46.39 22.32 46.17 22.07 46.01 21.78C45.87 21.51 45.64 21.29 45.36 21.15C45.08 21.01 44.76 20.96 44.45 21.01C44.11 21.06 43.77 21.03 43.45 20.93C43.13 20.82 42.84 20.65 42.6 20.42C42.18 19.98 41.4 19.86 40.87 20.16C40.33 20.45 39.46 20.45 38.92 20.16C38.64 20.02 38.32 19.96 38.01 20.01C37.7 20.06 37.41 20.2 37.19 20.42C36.95 20.65 36.66 20.82 36.34 20.92C36.02 21.02 35.68 21.05 35.34 21.01C35.03 20.96 34.71 21.01 34.43 21.14C34.15 21.28 33.93 21.51 33.78 21.78C33.53 22.32 32.82 22.82 32.21 22.89C31.9 22.94 31.61 23.08 31.39 23.3C31.17 23.51 31.02 23.79 30.97 24.09C30.91 24.42 30.78 24.72 30.58 24.99C30.38 25.25 30.12 25.47 29.83 25.62C29.55 25.76 29.32 25.99 29.18 26.26C29.04 26.53 28.99 26.84 29.04 27.14C29.15 27.73 28.88 28.54 28.43 28.94C27.98 29.35 27.86 30.1 28.16 30.63C28.46 31.15 28.46 32 28.16 32.52C28.02 32.79 27.96 33.1 28.01 33.4C28.06 33.71 28.21 33.99 28.43 34.2C28.89 34.6 29.15 35.41 29.04 36C28.99 36.3 29.04 36.61 29.18 36.89C29.32 37.16 29.55 37.38 29.83 37.52C30.39 37.77 30.9 38.46 30.97 39.05C31.04 39.64 31.6 40.19 32.21 40.25C32.82 40.32 33.53 40.83 33.78 41.37C33.93 41.64 34.15 41.86 34.43 42C34.71 42.14 35.03 42.19 35.34 42.14C35.94 42.02 36.78 42.28 37.19 42.72C37.41 42.94 37.7 43.08 38.01 43.13C38.32 43.18 38.64 43.13 38.92 42.99C39.45 42.7 40.33 42.7 40.86 42.99C41.4 43.28 42.18 43.16 42.6 42.72C43.01 42.28 43.84 42.02 44.44 42.14C44.75 42.19 45.07 42.14 45.35 42C45.63 41.86 45.86 41.64 46.01 41.37ZM39.9 38.73C37.94 38.73 36.07 37.97 34.69 36.63C33.31 35.29 32.54 33.47 32.54 31.57C32.54 29.67 33.31 27.85 34.69 26.51C36.07 25.17 37.94 24.41 39.9 24.41C41.85 24.41 43.72 25.17 45.1 26.51C46.48 27.85 47.25 29.67 47.25 31.57C47.25 33.47 46.48 35.29 45.1 36.63C43.72 37.97 41.85 38.73 39.9 38.73ZM31.19 42.96L28.5 57.8L35.26 56.82L41.28 60L43.96 45.21C41.8 45.83 39.52 45.95 37.3 45.55C35.08 45.16 32.99 44.28 31.19 42.96ZM48.47 43.06C47.79 43.54 47.07 43.96 46.32 44.32L44.71 53.24L52 49.39L48.47 43.06Z" fill="#FFFFFF" fill-opacity="1.000000" fill-rule="nonzero"/>
	</g>
</svg>
