<svg width="80.000000" height="80.000000" viewBox="0 0 80 80" fill="none" xmlns="http://www.w3.org/2000/svg" xmlns:xlink="http://www.w3.org/1999/xlink">
	<desc>
			Created with Pixso.
	</desc>
	<defs>
		<clipPath id="clip133_407">
			<rect id="contract-coverage-svgrepo-com 1" rx="-0.500000" width="40.000000" height="39.000000" transform="translate(20.500000 20.500000)" fill="white" fill-opacity="0"/>
		</clipPath>
		<clipPath id="clip133_406">
			<rect id="Frame 923" rx="39.500000" width="79.000000" height="79.000000" transform="translate(0.500000 0.500000)" fill="white" fill-opacity="0"/>
		</clipPath>
	</defs>
	<rect id="Frame 923" rx="39.500000" width="79.000000" height="79.000000" transform="translate(0.500000 0.500000)" fill="#3464A4" fill-opacity="1.000000"/>
	<g clip-path="url(#clip133_406)">
		<rect id="contract-coverage-svgrepo-com 1" rx="-0.500000" width="40.000000" height="39.000000" transform="translate(20.500000 20.500000)" fill="#FFFFFF" fill-opacity="0"/>
		<g clip-path="url(#clip133_407)">
			<path id="Vector" d="M29.14 28.99L42.63 28.99L42.63 31.14L29.14 31.14L29.14 28.99Z" fill="#FFFFFF" fill-opacity="1.000000" fill-rule="evenodd"/>
			<path id="Vector" d="M47.59 29.45L46.41 28.22L44.81 29.7L47.69 32.69L51.8 27.86L50.11 26.49L47.59 29.45Z" fill="#FFFFFF" fill-opacity="1.000000" fill-rule="nonzero"/>
			<path id="Vector" d="M29.14 35.7L42.63 35.7L42.63 37.85L29.14 37.85L29.14 35.7Z" fill="#FFFFFF" fill-opacity="1.000000" fill-rule="evenodd"/>
			<path id="Vector" d="M47.59 36.16L46.41 34.94L44.81 36.41L47.69 39.4L51.8 34.57L50.11 33.2L47.59 36.16Z" fill="#FFFFFF" fill-opacity="1.000000" fill-rule="nonzero"/>
			<path id="Vector" d="M29.14 42.41L42.63 42.41L42.63 44.56L29.14 44.56L29.14 42.41Z" fill="#FFFFFF" fill-opacity="1.000000" fill-rule="evenodd"/>
			<path id="Vector" d="M47.59 42.87L46.41 41.65L44.81 43.12L47.69 46.11L51.8 41.29L50.11 39.91L47.59 42.87Z" fill="#FFFFFF" fill-opacity="1.000000" fill-rule="nonzero"/>
			<path id="Vector" d="M29.14 49.12L42.63 49.12L42.63 51.27L29.14 51.27L29.14 49.12Z" fill="#FFFFFF" fill-opacity="1.000000" fill-rule="evenodd"/>
			<path id="Vector" d="M47.59 49.58L46.41 48.36L44.81 49.83L47.69 52.82L51.8 48L50.11 46.62L47.59 49.58Z" fill="#FFFFFF" fill-opacity="1.000000" fill-rule="nonzero"/>
			<path id="Vector" d="M56.39 23.08C56.39 21.38 54.97 20 53.22 20L27.77 20C26.02 20 24.6 21.38 24.6 23.08L24.6 56.91C24.6 58.61 26.02 60 27.77 60L53.22 60C54.97 60 56.39 58.61 56.39 56.91L56.39 23.08ZM54.18 56.91C54.18 57.43 53.75 57.85 53.22 57.85L27.77 57.85C27.24 57.85 26.81 57.43 26.81 56.91L26.81 23.08C26.81 22.56 27.24 22.14 27.77 22.14L53.22 22.14C53.75 22.14 54.18 22.56 54.18 23.08L54.18 56.91Z" fill="#FFFFFF" fill-opacity="1.000000" fill-rule="nonzero"/>
		</g>
	</g>
</svg>
