<svg width="80.000000" height="80.000000" viewBox="0 0 80 80" fill="none" xmlns="http://www.w3.org/2000/svg" xmlns:xlink="http://www.w3.org/1999/xlink">
	<desc>
			Created with Pixso.
	</desc>
	<defs>
		<clipPath id="clip133_942">
			<rect id="Frame 923" rx="39.500000" width="79.000000" height="79.000000" transform="translate(0.500000 0.500000)" fill="white" fill-opacity="0"/>
		</clipPath>
	</defs>
	<rect id="Frame 923" rx="39.500000" width="79.000000" height="79.000000" transform="translate(0.500000 0.500000)" fill="#3464A4" fill-opacity="1.000000"/>
	<g clip-path="url(#clip133_942)">
		<path id="Vector" d="M60 29.59L60 41.76C60 41.76 57.4 42.26 56.87 42.34C56.33 42.41 54.67 42.94 53.45 41.78C51.58 39.95 44.95 33.33 44.95 33.33C44.53 32.99 44.01 32.79 43.48 32.76C42.94 32.74 42.41 32.88 41.96 33.18C40.27 34.06 37.77 35.37 36.72 35.88C36.37 36.09 35.97 36.2 35.57 36.21C35.16 36.22 34.76 36.13 34.4 35.94C34.03 35.75 33.73 35.47 33.5 35.13C33.28 34.79 33.14 34.4 33.11 33.99C33.13 33.53 33.29 33.08 33.55 32.7C33.82 32.32 34.18 32.03 34.61 31.85C36.99 30.41 42.01 27.55 44.1 26.47C45.37 25.75 46.29 25.75 48.04 27.18C50.19 29.03 52.14 30.66 52.14 30.66C52.37 30.82 52.63 30.94 52.91 30.99C53.19 31.04 53.48 31.03 53.75 30.97C56.16 30.46 60 29.59 60 29.59ZM33.57 50.14C33.73 49.77 33.78 49.36 33.72 48.96C33.66 48.56 33.49 48.18 33.22 47.88C32.96 47.57 32.61 47.35 32.22 47.23C31.83 47.11 31.42 47.11 31.03 47.21C31.15 46.85 31.17 46.46 31.09 46.08C31.01 45.7 30.83 45.35 30.57 45.07C30.29 44.8 29.95 44.61 29.57 44.52C29.2 44.42 28.8 44.43 28.43 44.53C28.55 44.16 28.57 43.77 28.49 43.4C28.4 43.02 28.23 42.67 27.97 42.39C27.5 41.96 26.89 41.73 26.26 41.74C25.63 41.76 25.03 42.02 24.6 42.48C23.61 43.42 22.97 45.14 23.88 46.16C24.79 47.17 25.77 46.55 26.54 46.37C26.32 47.14 25.68 47.85 26.47 48.85C27.27 49.85 28.36 49.25 29.13 49.07C28.92 49.83 28.3 50.61 29.06 51.54C29.82 52.47 31.09 51.98 31.92 51.72C31.6 52.55 30.91 53.43 31.79 54.43C32.67 55.44 34.7 54.97 35.7 54.02C36.17 53.6 36.45 53.02 36.49 52.39C36.53 51.76 36.32 51.14 35.91 50.67C35.61 50.37 35.23 50.16 34.81 50.07C34.4 49.98 33.97 50 33.57 50.14ZM51.67 43.83L44.01 36.19C43.65 35.86 43.21 35.63 42.73 35.55C42.26 35.46 41.76 35.52 41.32 35.7C40.25 36.17 38.87 36.82 37.82 37.3C37.11 37.73 36.3 38 35.47 38.09C34.6 38.1 33.75 37.82 33.05 37.3C32.35 36.78 31.84 36.05 31.6 35.21C31.36 34.37 31.4 33.47 31.71 32.66C32.02 31.84 32.59 31.15 33.33 30.69C35 29.56 38.63 27.6 38.63 27.6C38.17 27.12 37.62 26.74 37 26.5C36.38 26.25 35.72 26.14 35.06 26.17C32.62 26.17 27.5 29.53 27.5 29.53C26.96 29.82 26.36 29.97 25.75 29.99C25.14 30.01 24.54 29.88 23.98 29.63L20 28.24L20 42.12C20 42.12 21.13 42.45 22.14 42.84C22.37 42.17 22.75 41.56 23.25 41.07C24.07 40.29 25.15 39.85 26.27 39.84C27.4 39.83 28.49 40.26 29.31 41.03C29.77 41.5 30.1 42.08 30.27 42.72C30.89 42.91 31.45 43.26 31.9 43.72C32.36 44.21 32.69 44.8 32.85 45.45C33.51 45.65 34.09 46.02 34.56 46.52C35.02 47.03 35.35 47.64 35.5 48.31C36.15 48.49 36.74 48.85 37.21 49.33C37.65 49.79 37.97 50.35 38.16 50.96C38.34 51.56 38.38 52.21 38.27 52.83C38.27 52.83 38.84 53.48 39.19 53.83C39.52 54.16 39.96 54.34 40.43 54.34C40.9 54.34 41.34 54.16 41.67 53.83C42 53.5 42.19 53.05 42.19 52.58C42.19 52.11 42 51.67 41.67 51.34C41.67 51.34 43.1 53.11 44.73 52.05C46.16 51.05 45.94 49.86 45.26 49.19C45.47 49.44 45.72 49.64 46.01 49.78C46.3 49.92 46.62 49.99 46.94 50C47.26 50.01 47.58 49.95 47.88 49.83C48.18 49.7 48.45 49.52 48.67 49.28C48.97 48.97 49.15 48.56 49.17 48.12C49.19 47.68 49.04 47.26 48.76 46.92C48.76 46.92 49.71 48.22 51.62 47.01C52.97 45.86 52.33 44.55 51.62 43.87L51.67 43.83Z" fill="#FFFFFF" fill-opacity="1.000000" fill-rule="nonzero"/>
	</g>
</svg>
