<svg width="42.114258" height="42.114258" viewBox="0 0 42.1143 42.1143" fill="none" xmlns="http://www.w3.org/2000/svg" xmlns:xlink="http://www.w3.org/1999/xlink">
	<desc>
			Created with Pixso.
	</desc>
	<defs/>
	<path id="Vector" d="M29.99 29.99C20.12 39.87 8.11 43.88 3.17 38.94C-1.77 34 2.23 21.99 12.11 12.11C21.99 2.23 34 -1.77 38.94 3.17C43.88 8.11 39.87 20.12 29.99 29.99ZM12.11 29.99C21.99 39.87 34 43.88 38.94 38.94C43.88 34 39.87 21.99 29.99 12.11C20.12 2.23 8.11 -1.77 3.17 3.17C-1.77 8.11 2.23 20.12 12.11 29.99Z" stroke="#3464A4" stroke-opacity="1.000000" stroke-width="2.000000"/>
	<path id="Vector" d="M21.05 26.05C18.29 26.05 16.05 23.81 16.05 21.05C16.05 18.29 18.29 16.05 21.05 16.05C23.81 16.05 26.05 18.29 26.05 21.05C26.05 23.81 23.81 26.05 21.05 26.05Z" stroke="#3464A4" stroke-opacity="1.000000" stroke-width="2.000000"/>
</svg>
