<svg width="26.000000" height="26.000000" viewBox="0 0 26 26" fill="none" xmlns="http://www.w3.org/2000/svg" xmlns:xlink="http://www.w3.org/1999/xlink">
	<desc>
			Created with Pixso.
	</desc>
	<defs/>
	<path id="Telegram" d="M26 13C26 20.17 20.17 26 13 26C5.82 26 0 20.17 0 13C0 5.82 5.82 0 13 0C20.17 0 26 5.82 26 13ZM13.46 9.59C12.2 10.12 9.67 11.21 5.88 12.86C5.26 13.1 4.94 13.34 4.91 13.58C4.86 13.97 5.36 14.13 6.03 14.34C6.12 14.37 6.22 14.4 6.32 14.43C6.98 14.65 7.87 14.9 8.34 14.91C8.76 14.92 9.23 14.74 9.75 14.39C13.29 12 15.12 10.79 15.23 10.76C15.31 10.75 15.42 10.72 15.5 10.79C15.58 10.86 15.57 10.98 15.56 11.02C15.51 11.23 13.57 13.04 12.56 13.97C12.25 14.26 12.02 14.47 11.98 14.52C11.88 14.62 11.77 14.72 11.67 14.82C11.06 15.41 10.59 15.86 11.7 16.59C12.23 16.94 12.65 17.23 13.08 17.52C13.54 17.83 14 18.15 14.6 18.54C14.75 18.64 14.9 18.74 15.04 18.84C15.58 19.23 16.06 19.57 16.66 19.52C17.01 19.48 17.37 19.16 17.55 18.18C17.98 15.88 18.83 10.89 19.02 8.84C19.04 8.66 19.02 8.43 19 8.32C18.98 8.22 18.95 8.08 18.81 7.97C18.66 7.85 18.42 7.82 18.31 7.82C17.82 7.83 17.07 8.09 13.46 9.59Z" fill="#3464A4" fill-opacity="1.000000" fill-rule="evenodd"/>
</svg>
