<svg width="26.000000" height="26.000000" viewBox="0 0 26 26" fill="none" xmlns="http://www.w3.org/2000/svg" xmlns:xlink="http://www.w3.org/1999/xlink">
	<desc>
			Created with Pixso.
	</desc>
	<defs/>
	<path id="VK" d="M1.82 1.82C0 3.65 0 6.59 0 12.48L0 13.51C0 19.4 0 22.34 1.82 24.17C3.65 26 6.59 26 12.48 26L13.51 26C19.4 26 22.34 26 24.17 24.17C26 22.34 26 19.4 26 13.51L26 12.48C26 6.59 26 3.65 24.17 1.82C22.34 0 19.4 0 13.51 0L12.48 0C6.59 0 3.65 0 1.82 1.82ZM4.38 7.9C4.52 14.66 7.9 18.73 13.83 18.73L14.16 18.73L14.16 14.86C16.34 15.08 17.99 16.67 18.65 18.73L21.73 18.73C20.88 15.65 18.66 13.95 17.27 13.3C18.66 12.5 20.61 10.55 21.08 7.9L18.28 7.9C17.67 10.05 15.88 12 14.16 12.18L14.16 7.9L11.37 7.9L11.37 15.4C9.64 14.97 7.45 12.87 7.35 7.9L4.38 7.9Z" fill="#3464A4" fill-opacity="1.000000" fill-rule="evenodd"/>
</svg>
