<svg width="26.000000" height="26.000000" viewBox="0 0 26 26" fill="none" xmlns="http://www.w3.org/2000/svg" xmlns:xlink="http://www.w3.org/1999/xlink">
	<desc>
			Created with Pixso.
	</desc>
	<defs/>
	<path id="Vector" d="M24.98 7.48C24.32 6.02 23.38 4.7 22.18 3.58C20.98 2.46 19.59 1.57 18.05 0.95C16.45 0.31 14.75 0 13 0C11.25 0 9.56 0.31 7.95 0.95C6.41 1.57 5.02 2.45 3.82 3.58C2.62 4.7 1.68 6.02 1.02 7.48C0.34 8.99 0 10.61 0 12.27C0 15.18 1.08 17.97 3.06 20.19L2 26L7.64 23.47C9.32 24.19 11.11 24.56 12.99 24.56C14.74 24.56 16.43 24.24 18.04 23.6C19.58 22.98 20.97 22.11 22.17 20.98C23.37 19.85 24.31 18.54 24.97 17.08C25.65 15.56 26 13.94 26 12.28C26.01 10.61 25.66 9 24.98 7.48Z" fill="#3464A4" fill-opacity="1.000000" fill-rule="nonzero"/>
	<path id="Vector" d="M18.38 14.72C17.82 14.44 17.42 14.27 17.13 14.17C16.95 14.1 16.52 13.91 16.37 14.03C15.9 14.41 15.4 15.5 14.87 15.7C13.55 15.45 12.32 14.54 11.36 13.61C10.94 13.21 10.15 12.06 9.98 11.75C9.95 11.43 10.52 11 10.65 10.76C11.31 10.01 10.81 9.54 10.72 9.23C10.58 8.91 10.32 8.34 10.1 7.87C9.9 7.56 9.86 7.1 9.52 6.93C8.07 6.19 7.24 7.68 6.9 8.45C4.84 13.41 17.2 22.84 19.72 16.34C19.85 15.78 19.79 15.56 19.6 15.31C19.22 15.04 18.77 14.92 18.38 14.72Z" fill="#FFFFFF" fill-opacity="1.000000" fill-rule="nonzero"/>
</svg>
