<svg width="20" height="20" viewBox="0 0 20 20" fill="none" xmlns="http://www.w3.org/2000/svg">
<path d="M17.0779 2.92815C15.1918 1.04105 12.6836 0.00100005 10.0115 0C4.50522 0 0.0240013 4.47922 0.0220012 9.9855C0.0210011 11.7456 0.481024 13.4637 1.35507 14.9777L0 20.001L5.23326 18.7639C6.69233 19.56 8.33441 19.979 10.0065 19.98H10.0105C15.5158 19.98 19.997 15.4998 20 9.9945C20.002 7.32537 18.9639 4.81624 17.0779 2.92815ZM14.8987 13.5547C14.6907 14.1377 13.6717 14.6997 13.2137 14.7407C12.7556 14.7827 12.3266 14.9477 10.2185 14.1167C7.68138 13.1167 6.0793 10.5155 5.9553 10.3495C5.83029 10.1825 4.93625 8.99645 4.93625 7.76839C4.93625 6.54033 5.58128 5.9363 5.81029 5.68728C6.0393 5.43727 6.30931 5.37527 6.47632 5.37527C6.64233 5.37527 6.80934 5.37527 6.95435 5.38127C7.13236 5.38827 7.32936 5.39727 7.51637 5.81229C7.73839 6.30631 8.22341 7.54038 8.28541 7.66538C8.34742 7.79039 8.38942 7.9364 8.30641 8.1024C8.22341 8.26841 8.18141 8.37242 8.0574 8.51842C7.9324 8.66443 7.79539 8.84344 7.68338 8.95545C7.55838 9.07945 7.42837 9.21546 7.57338 9.46447C7.71938 9.71448 8.21941 10.5315 8.96145 11.1926C9.91549 12.0426 10.7185 12.3056 10.9685 12.4316C11.2186 12.5566 11.3636 12.5356 11.5096 12.3686C11.6556 12.2026 12.1336 11.6406 12.2996 11.3906C12.4656 11.1406 12.6326 11.1826 12.8616 11.2656C13.0907 11.3486 14.3177 11.9526 14.5667 12.0776C14.8167 12.2026 14.9827 12.2646 15.0448 12.3686C15.1068 12.4716 15.1068 12.9716 14.8987 13.5547Z" fill="#ADBB92"/>
</svg>
