<svg width="21.000000" height="20.000000" viewBox="0 0 21 20" fill="none" xmlns="http://www.w3.org/2000/svg" xmlns:xlink="http://www.w3.org/1999/xlink">
	<desc>
			Created with Pixso.
	</desc>
	<defs/>
	<path id="Vector" d="M7.5 2.25L8.55 4.89C8.83 5.57 8.7 6.35 8.23 6.91L7.66 7.59C7 8.39 7.06 9.55 7.79 10.29L9.7 12.2C10.43 12.94 11.6 12.99 12.4 12.33L13.08 11.76C13.64 11.29 14.42 11.17 15.1 11.44L17.74 12.49C18.5 12.8 19 13.53 19 14.35L19 17.1C19 18.15 18.15 19 17.1 19C8.21 19 1 11.78 1 2.89C1 1.84 1.84 1 2.89 1L5.64 1C6.46 1 7.19 1.49 7.5 2.25Z" stroke="#F08B71" stroke-opacity="1.000000" stroke-width="2.000000" stroke-linejoin="round"/>
</svg>
