<svg width="20.000000" height="24.000000" viewBox="0 0 20 24" fill="none" xmlns="http://www.w3.org/2000/svg" xmlns:xlink="http://www.w3.org/1999/xlink">
	<desc>
			Created with Pixso.
	</desc>
	<defs/>
	<path id="Vector" d="M1 9.58C1 7.3 1.94 5.12 3.63 3.51C5.32 1.9 7.61 1 10 1C12.38 1 14.67 1.9 16.36 3.51C18.05 5.12 19 7.3 19 9.58C19 15.59 13.54 20.57 11.12 22.47C10.78 22.75 10.6 22.88 10.34 22.95C10.14 23.01 9.85 23.01 9.65 22.95C9.39 22.88 9.21 22.75 8.87 22.47C6.45 20.57 1 15.59 1 9.58ZM7.42 8.43C7.42 7.06 8.57 5.95 10 5.95C11.42 5.95 12.57 7.06 12.57 8.43C12.57 9.8 11.42 10.91 10 10.91C8.57 10.91 7.42 9.8 7.42 8.43Z" stroke="#F08B71" stroke-opacity="1.000000" stroke-width="2.000000" stroke-linejoin="round"/>
</svg>
