<svg width="232.000000" height="85.000000" viewBox="0 0 232 85" fill="none" xmlns="http://www.w3.org/2000/svg" xmlns:xlink="http://www.w3.org/1999/xlink">
	<desc>
			Created with Pixso.
	</desc>
	<defs>
		<filter id="filter_89_100_dd" x="0.000000" y="0.000000" width="73.974731" height="84.068420" filterUnits="userSpaceOnUse" color-interpolation-filters="sRGB">
			<feFlood flood-opacity="0" result="BackgroundImageFix"/>
			<feColorMatrix in="SourceAlpha" type="matrix" values="0 0 0 0 0 0 0 0 0 0 0 0 0 0 0 0 0 0 127 0" result="hardAlpha"/>
			<feOffset dx="0" dy="4.65753"/>
			<feGaussianBlur stdDeviation="0"/>
			<feComposite in2="hardAlpha" operator="out" k2="-1" k3="1"/>
			<feColorMatrix type="matrix" values="0 0 0 0 1 0 0 0 0 1 0 0 0 0 1 0 0 0 1 0"/>
			<feBlend mode="normal" in2="BackgroundImageFix" result="effect_dropShadow_1"/>
			<feBlend mode="normal" in="SourceGraphic" in2="effect_dropShadow_1" result="shape"/>
		</filter>
		<filter id="filter_89_101_dd" x="8.314331" y="0.000000" width="73.974731" height="84.068420" filterUnits="userSpaceOnUse" color-interpolation-filters="sRGB">
			<feFlood flood-opacity="0" result="BackgroundImageFix"/>
			<feColorMatrix in="SourceAlpha" type="matrix" values="0 0 0 0 0 0 0 0 0 0 0 0 0 0 0 0 0 0 127 0" result="hardAlpha"/>
			<feOffset dx="0" dy="4.65753"/>
			<feGaussianBlur stdDeviation="0"/>
			<feComposite in2="hardAlpha" operator="out" k2="-1" k3="1"/>
			<feColorMatrix type="matrix" values="0 0 0 0 1 0 0 0 0 1 0 0 0 0 1 0 0 0 1 0"/>
			<feBlend mode="normal" in2="BackgroundImageFix" result="effect_dropShadow_1"/>
			<feBlend mode="normal" in="SourceGraphic" in2="effect_dropShadow_1" result="shape"/>
		</filter>
		<filter id="filter_89_103_dd" x="13.671631" y="13.963562" width="45.672302" height="52.658569" filterUnits="userSpaceOnUse" color-interpolation-filters="sRGB">
			<feFlood flood-opacity="0" result="BackgroundImageFix"/>
			<feColorMatrix in="SourceAlpha" type="matrix" values="0 0 0 0 0 0 0 0 0 0 0 0 0 0 0 0 0 0 127 0" result="hardAlpha"/>
			<feOffset dx="0" dy="7.9178"/>
			<feGaussianBlur stdDeviation="0.310502"/>
			<feComposite in2="hardAlpha" operator="out" k2="-1" k3="1"/>
			<feColorMatrix type="matrix" values="0 0 0 0 0 0 0 0 0 0 0 0 0 0 0 0 0 0 0.25 0"/>
			<feBlend mode="normal" in2="BackgroundImageFix" result="effect_dropShadow_1"/>
			<feBlend mode="normal" in="SourceGraphic" in2="effect_dropShadow_1" result="shape"/>
		</filter>
	</defs>
	<circle id="Ellipse 15" cx="52.549805" cy="31.124817" r="19.293119" fill="#F08B71" fill-opacity="0.500000"/>
	<circle id="Ellipse 16" cx="27.021057" cy="45.994415" r="21.371662" fill="#F08B71" fill-opacity="0.500000"/>
	<circle id="Ellipse 17" cx="25.582153" cy="23.769958" r="16.415142" fill="#F08B71" fill-opacity="0.500000"/>
	<circle id="Ellipse 18" cx="50.151489" cy="54.201935" r="13.164090" fill="#F08B71" fill-opacity="0.500000"/>
	<circle id="Ellipse 19" cx="41.517456" cy="12.417908" r="9.646560" fill="#F08B71" fill-opacity="0.500000"/>
	<g filter="url(#filter_89_100_dd)">
		<path id="Vector" d="M3.17 0C3.31 0 3.75 0.07 4.11 0.16C4.48 0.25 5.04 0.45 5.35 0.61C5.66 0.76 6.13 1.1 6.4 1.36C6.67 1.61 22.06 19.35 40.6 40.76C59.15 62.17 74.17 79.57 73.97 79.4C73.78 79.25 70.28 75.77 66.2 71.67C62.12 67.58 45.81 51.19 29.95 35.25C14.08 19.31 0.96 6.06 0.79 5.8C0.61 5.54 0.38 5.08 0.27 4.75C0.15 4.43 0.04 3.92 0.01 3.63C-0.02 3.33 0 2.86 0.06 2.59C0.11 2.3 0.29 1.88 0.51 1.56C0.72 1.24 1.05 0.89 1.34 0.68C1.61 0.5 2.06 0.26 2.36 0.17C2.66 0.08 3.03 0 3.17 0L3.17 0ZM2.76 3.38C2.77 3.56 2.88 3.96 3.03 4.26C3.16 4.55 3.58 5.2 3.95 5.7C4.32 6.19 4.99 7 5.43 7.49C5.87 7.99 7 9.2 7.94 10.19C8.88 11.18 10.1 12.41 10.64 12.93C11.18 13.45 11.96 14.17 12.38 14.52C12.8 14.87 13.32 15.27 13.55 15.41C13.77 15.55 14.08 15.69 14.22 15.73C14.38 15.77 14.56 15.77 14.65 15.72C14.74 15.67 14.81 15.52 14.81 15.36C14.81 15.21 14.66 14.82 14.48 14.48C14.31 14.15 13.98 13.62 13.75 13.29C13.51 12.97 13 12.3 12.61 11.81C12.21 11.32 11.32 10.29 10.63 9.53C9.94 8.75 8.32 7.07 7.03 5.79C5.25 4 4.56 3.36 4.11 3.11C3.79 2.93 3.42 2.77 3.29 2.77C3.15 2.77 2.98 2.84 2.9 2.92C2.81 3 2.76 3.19 2.76 3.38Z" fill="#4D5151" fill-opacity="1.000000" fill-rule="evenodd"/>
	</g>
	<g filter="url(#filter_89_101_dd)">
		<path id="Vector" d="M79.11 0C78.97 0 78.53 0.07 78.17 0.16C77.8 0.25 77.24 0.45 76.93 0.61C76.62 0.76 76.15 1.1 75.88 1.36C75.61 1.61 60.22 19.35 41.67 40.76C23.13 62.17 8.11 79.57 8.31 79.4C8.5 79.25 12 75.77 16.07 71.67C20.15 67.58 36.47 51.19 52.33 35.25C68.2 19.31 81.32 6.06 81.49 5.8C81.67 5.54 81.9 5.08 82.01 4.75C82.13 4.43 82.24 3.92 82.27 3.63C82.3 3.33 82.28 2.86 82.22 2.59C82.16 2.3 81.98 1.88 81.77 1.56C81.56 1.24 81.23 0.89 80.94 0.68C80.67 0.5 80.21 0.26 79.92 0.17C79.62 0.08 79.25 0 79.11 0L79.11 0ZM79.52 3.38C79.51 3.56 79.4 3.96 79.25 4.26C79.12 4.55 78.7 5.2 78.33 5.7C77.96 6.19 77.29 7 76.85 7.49C76.41 7.99 75.28 9.2 74.34 10.19C73.39 11.18 72.18 12.41 71.64 12.93C71.1 13.45 70.32 14.17 69.9 14.52C69.48 14.87 68.96 15.27 68.73 15.41C68.51 15.55 68.2 15.69 68.06 15.73C67.9 15.77 67.72 15.77 67.63 15.72C67.54 15.67 67.47 15.52 67.47 15.36C67.47 15.21 67.62 14.82 67.8 14.48C67.97 14.15 68.3 13.62 68.53 13.29C68.77 12.97 69.28 12.3 69.67 11.81C70.07 11.32 70.96 10.29 71.65 9.53C72.34 8.75 73.96 7.07 75.25 5.79C77.02 4 77.72 3.36 78.17 3.11C78.49 2.93 78.86 2.77 78.99 2.77C79.13 2.77 79.3 2.84 79.38 2.92C79.47 3 79.52 3.19 79.52 3.38Z" fill="#4D5151" fill-opacity="1.000000" fill-rule="evenodd"/>
	</g>
	<g filter="url(#filter_89_103_dd)">
		<circle id="Ellipse 8" cx="36.507751" cy="35.868195" r="21.904621" fill="#FFFFFF" fill-opacity="1.000000"/>
		<circle id="Ellipse 8" cx="36.507751" cy="35.868195" r="21.904621" fill="#FFFFFF" fill-opacity="1.000000"/>
	</g>
	<circle id="Ellipse 9" cx="36.507690" cy="35.868195" r="14.818609" stroke="#A2AAAF" stroke-opacity="1.000000" stroke-width="3.726025"/>
	<circle id="Ellipse 11" cx="36.507751" cy="29.152954" r="2.824683" fill="#4D5151" fill-opacity="1.000000"/>
	<circle id="Ellipse 12" cx="43.116455" cy="35.868134" r="2.824683" fill="#4D5151" fill-opacity="1.000000"/>
	<circle id="Ellipse 13" cx="36.507751" cy="42.583405" r="2.824683" fill="#4D5151" fill-opacity="1.000000"/>
	<circle id="Ellipse 14" cx="29.685791" cy="35.868134" r="2.824683" fill="#4D5151" fill-opacity="1.000000"/>
	<path id="Элегантный" d="M222.03 11.94Q221.79 11.4 221.79 10.75L223.82 10.75Q223.82 11.11 223.99 11.34L223.99 11.34Q224.11 11.5 224.27 11.61Q224.34 11.65 224.41 11.69Q224.45 11.7 224.49 11.72Q224.7 11.8 224.95 11.8Q225.11 11.8 225.27 11.76Q225.38 11.73 225.48 11.69Q225.64 11.62 225.76 11.51Q225.84 11.44 225.9 11.34Q226.06 11.11 226.06 10.75L228.1 10.75Q228.1 11.38 227.87 11.91Q227.81 12.05 227.73 12.19Q227.64 12.34 227.53 12.48Q227.19 12.91 226.65 13.19Q225.95 13.57 224.95 13.57Q223.96 13.57 223.24 13.19Q222.68 12.9 222.33 12.45Q222.24 12.33 222.16 12.19Q222.09 12.07 222.03 11.94ZM151.04 23.39L149.72 20.4L148.42 23.39L151.04 23.39ZM151.68 26.1L152.8 28.25L156.98 28.25L149.72 14.06L142.48 28.25L146.66 28.25L147.75 26.1L151.68 26.1ZM230.72 14.28L221.81 21.62L221.81 14.95L218.27 14.95L218.27 28.92L227.19 21.58L227.19 28.25L230.72 28.25L230.72 14.28ZM102.89 20.16L96.62 20.16L96.62 23.05L102.89 23.05Q102.76 23.31 102.58 23.54Q102.34 23.85 102.06 24.11Q101.6 24.53 101 24.81Q100.33 25.14 99.63 25.23Q99.34 25.27 99.05 25.27Q98.12 25.27 97.37 25.03Q96.62 24.8 96.06 24.47Q95.52 24.15 95.17 23.86L95.17 27.28Q95.21 27.31 95.25 27.34Q96.02 27.87 96.91 28.22Q97.85 28.6 99.3 28.6Q100.97 28.6 102.35 28.1Q103.64 27.64 104.58 26.79Q104.65 26.73 104.71 26.67Q105.07 26.34 105.37 25.95Q105.9 25.28 106.24 24.46Q106.78 23.18 106.78 21.6Q106.78 20.02 106.24 18.74Q105.88 17.89 105.32 17.19Q105.04 16.84 104.71 16.53Q104.64 16.46 104.56 16.39Q103.62 15.56 102.35 15.11Q100.97 14.61 99.3 14.61Q97.85 14.61 96.91 14.97Q96.27 15.22 95.7 15.57Q95.43 15.73 95.17 15.92L95.17 19.34Q95.52 19.06 96.06 18.73Q96.62 18.41 97.37 18.17Q98.12 17.94 99.05 17.94Q99.35 17.94 99.65 17.98Q100.34 18.07 101 18.38Q101.52 18.62 101.94 18.98Q102.29 19.28 102.58 19.66Q102.76 19.89 102.89 20.16ZM109.65 14.95L121.13 14.95L121.13 28.25L117.36 28.25L117.36 18.24L113.39 18.24L113.39 22.31Q113.39 24.37 112.81 25.7Q112.52 26.38 112.03 26.87Q111.57 27.34 110.94 27.63Q109.65 28.25 107.58 28.25L107.58 25.15Q108.05 25.15 108.44 24.99Q108.67 24.89 108.85 24.74Q108.99 24.63 109.1 24.49Q109.37 24.17 109.51 23.7Q109.65 23.24 109.65 22.67L109.65 14.95ZM124.02 28.25L124.02 14.95L133.23 14.95L133.23 17.94L127.55 17.94L127.55 19.89L132.85 19.89L132.85 22.78L127.55 22.78L127.55 25.27L133.23 25.27L133.23 28.25L124.02 28.25ZM135.93 28.25L135.93 14.95L144.25 14.95L144.25 18.24L139.61 18.24L139.61 28.25L135.93 28.25ZM158.29 28.25L158.29 14.95L161.98 14.95L161.98 19.67L167.22 19.67L167.22 14.95L170.91 14.95L170.91 28.25L167.22 28.25L167.22 22.95L161.98 22.95L161.98 28.25L158.29 28.25ZM176.04 18.24L172.31 18.24L172.31 14.95L183.45 14.95L183.45 18.24L179.73 18.24L179.73 28.25L176.04 28.25L176.04 18.24ZM184.85 28.25L184.85 14.95L188.54 14.95L188.54 19.67L193.78 19.67L193.78 14.95L197.47 14.95L197.47 28.25L193.78 28.25L193.78 22.95L188.54 22.95L188.54 28.25L184.85 28.25ZM200.21 28.25L200.21 14.95L203.89 14.95L203.89 19.36L205.13 19.36Q206.95 19.36 208.14 19.89Q209.08 20.31 209.64 21.03Q209.79 21.22 209.91 21.42Q210.49 22.42 210.49 23.81Q210.49 25.17 209.91 26.17Q209.8 26.35 209.68 26.51Q209.12 27.27 208.14 27.71Q206.95 28.25 205.13 28.25L200.21 28.25ZM203.89 25.27L205.13 25.27Q205.72 25.27 206.12 25.11Q206.39 25 206.58 24.8Q206.66 24.71 206.73 24.61Q206.77 24.55 206.8 24.5Q206.95 24.19 206.95 23.81Q206.95 23.33 206.73 23Q206.68 22.92 206.61 22.84Q206.41 22.62 206.12 22.5Q205.72 22.32 205.13 22.32L203.89 22.32L203.89 25.27ZM211.77 28.25L211.77 14.95L215.54 14.95L215.54 28.25L211.77 28.25Z" fill="#F08B71" fill-opacity="1.000000" fill-rule="evenodd"/>
	<path id="Силуэт" d="M121.2 37.28L112.29 44.62L112.29 37.95L108.76 37.95L108.76 51.92L117.67 44.58L117.67 51.25L121.2 51.25L121.2 37.28ZM99.15 42.69Q98.65 43.48 98.65 44.6Q98.65 45.72 99.15 46.51Q99.42 46.93 99.78 47.24Q100.1 47.51 100.49 47.71Q100.59 47.76 100.7 47.8Q101.45 48.12 102.34 48.12Q103.29 48.12 103.99 47.87Q104.69 47.62 105.24 47.23Q105.8 46.85 106.21 46.41L106.21 50.28Q105.43 50.85 104.49 51.22Q103.55 51.6 102.09 51.6Q100.44 51.6 99.05 51.1Q97.71 50.62 96.75 49.74Q96.71 49.71 96.68 49.67Q96.32 49.34 96.02 48.95Q95.49 48.28 95.15 47.46Q94.6 46.18 94.6 44.6Q94.6 43.02 95.15 41.74Q95.51 40.89 96.07 40.19Q96.35 39.84 96.68 39.53Q96.72 39.49 96.77 39.44Q97.73 38.57 99.05 38.11Q100.44 37.61 102.09 37.61Q103.55 37.61 104.49 37.97Q105.35 38.3 106.06 38.81Q106.14 38.87 106.21 38.92L106.21 42.8Q105.8 42.36 105.24 41.97Q104.69 41.58 103.99 41.33Q103.29 41.09 102.34 41.09Q101.45 41.09 100.7 41.41Q100.59 41.45 100.49 41.5Q100.1 41.69 99.78 41.97Q99.42 42.28 99.15 42.69ZM158.77 43.16L152.5 43.16L152.5 46.05L158.77 46.05Q158.64 46.31 158.46 46.54Q158.22 46.85 157.94 47.11Q157.47 47.53 156.88 47.81Q156.21 48.14 155.51 48.23Q155.22 48.27 154.93 48.27Q154 48.27 153.25 48.03Q152.5 47.8 151.94 47.47Q151.39 47.15 151.05 46.86L151.05 50.28Q151.09 50.31 151.13 50.34Q151.89 50.87 152.79 51.22Q153.73 51.6 155.18 51.6Q156.85 51.6 158.22 51.1Q159.51 50.64 160.46 49.79Q160.53 49.73 160.59 49.67Q160.95 49.34 161.25 48.95Q161.77 48.28 162.12 47.46Q162.66 46.18 162.66 44.6Q162.66 43.02 162.12 41.74Q161.76 40.89 161.2 40.19Q160.92 39.84 160.59 39.53Q160.52 39.46 160.44 39.39Q159.5 38.56 158.22 38.11Q156.85 37.61 155.18 37.61Q153.73 37.61 152.79 37.97Q152.15 38.22 151.58 38.57Q151.31 38.73 151.05 38.92L151.05 42.34Q151.39 42.06 151.94 41.73Q152.5 41.41 153.25 41.17Q154 40.94 154.93 40.94Q155.23 40.94 155.53 40.98Q156.22 41.07 156.88 41.38Q157.4 41.62 157.82 41.98Q158.17 42.28 158.46 42.66Q158.64 42.89 158.77 43.16ZM124.83 37.95L136.31 37.95L136.31 51.25L132.54 51.25L132.54 41.24L128.57 41.24L128.57 45.31Q128.57 47.37 127.99 48.7Q127.7 49.38 127.21 49.87Q126.75 50.34 126.12 50.63Q124.83 51.25 122.76 51.25L122.76 48.15Q123.23 48.15 123.62 47.99Q123.85 47.89 124.03 47.74Q124.17 47.63 124.28 47.49Q124.55 47.17 124.69 46.7Q124.83 46.24 124.83 45.67L124.83 37.95ZM146.3 37.95L150.1 37.95L143.85 51.25L140.13 51.25L141.93 47.17L137.6 37.95L141.66 37.95L143.75 43.71L146.3 37.95ZM166.46 41.24L162.74 41.24L162.74 37.95L173.87 37.95L173.87 41.24L170.15 41.24L170.15 51.25L166.46 51.25L166.46 41.24Z" fill="#414141" fill-opacity="1.000000" fill-rule="evenodd"/>
</svg>
