<svg width="15.000000" height="15.000000" viewBox="0 0 15 15" fill="none" xmlns="http://www.w3.org/2000/svg" xmlns:xlink="http://www.w3.org/1999/xlink">
	<desc>
			Created with Pixso.
	</desc>
	<defs/>
	<path id="Vector" d="M3.5 13.06L3.5 13.06C3.4 13 3.35 12.98 3.3 12.96C3.26 12.95 3.22 12.95 3.17 12.95C3.12 12.95 3.07 12.97 2.97 13L1.18 13.6L1.17 13.6C0.79 13.73 0.61 13.79 0.48 13.75C0.37 13.71 0.28 13.62 0.24 13.51C0.2 13.38 0.26 13.2 0.39 12.82L0.39 12.81L0.99 11.02C1.02 10.92 1.04 10.87 1.04 10.82C1.04 10.77 1.04 10.73 1.03 10.69C1.02 10.64 0.99 10.59 0.93 10.49L0.93 10.49C0.33 9.46 0 8.27 0 7C0 3.13 3.13 0 7 0C10.86 0 14 3.13 14 7C14 10.86 10.86 14 6.99 14C5.72 14 4.53 13.66 3.5 13.06ZM7 7L7 7L7 7L7 7L7 7ZM10.11 7L10.11 7L10.11 7L10.11 7L10.11 7ZM3.89 7L3.89 7L3.88 7L3.88 7L3.89 7Z" stroke="#F08B71" stroke-opacity="1.000000" stroke-width="1.555565" stroke-linejoin="round"/>
</svg>
