<svg width="71.000000" height="71.000000" viewBox="0 0 71 71" fill="none" xmlns="http://www.w3.org/2000/svg" xmlns:xlink="http://www.w3.org/1999/xlink">
	<desc>
			Created with Pixso.
	</desc>
	<defs/>
	<circle id="Ellipse 7" cx="35.500000" cy="35.500000" r="35.500000" fill="#F08B71" fill-opacity="1.000000"/>
	<path id="Vector" d="M39.47 6C40.01 6 40.2 6.04 40.69 6.32C41.1 6.55 41.38 6.79 41.6 7.13C41.77 7.39 41.96 7.76 42.01 7.95C42.07 8.13 42.11 8.59 42.11 8.97C42.11 9.36 42.02 9.99 41.89 10.44C41.77 10.89 41.37 11.83 40.94 12.68C40.53 13.49 39.93 14.57 39.62 15.08C39.31 15.58 38.94 16.19 38.78 16.41C38.63 16.65 38.51 16.85 38.52 16.88C38.54 16.91 39.95 17.37 41.67 17.92C43.38 18.47 44.98 19 45.23 19.13C45.47 19.25 45.81 19.52 46 19.73C46.18 19.94 46.64 20.74 47.01 21.52C47.38 22.3 47.88 23.38 48.12 23.91C48.53 24.82 48.55 24.91 48.42 25.17C48.35 25.33 48.22 25.5 48.13 25.54C48.03 25.58 47.87 25.62 47.76 25.62C47.65 25.62 47.46 25.53 47.33 25.41C47.19 25.28 46.67 24.27 46.14 23.13C45.63 22 45.12 20.97 45.01 20.82C44.91 20.66 44.74 20.5 44.62 20.43C44.49 20.37 43.24 19.96 41.81 19.51C40.39 19.06 39.21 18.72 39.18 18.74C39.15 18.77 40.05 20.75 41.17 23.15C42.28 25.57 43.25 27.76 43.31 28.04C43.39 28.43 43.39 28.68 43.31 29.06C43.25 29.34 41.55 33.56 39.53 38.44C37.51 43.32 35.87 47.34 35.87 47.4C35.87 47.46 36.41 48.65 37.07 50.07C37.73 51.47 38.39 52.88 38.53 53.19C38.7 53.56 38.92 53.83 39.16 54C39.47 54.22 39.6 54.25 40.06 54.21C40.52 54.17 41.69 53.65 47.86 50.75C51.85 48.88 55.34 47.23 55.61 47.1C55.94 46.92 56.16 46.73 56.31 46.46C56.44 46.26 56.53 45.92 56.53 45.71C56.53 45.44 55.6 43.35 52.54 36.81C49.8 30.96 48.54 28.16 48.54 27.94C48.54 27.77 48.62 27.55 48.72 27.45C48.8 27.35 49.02 27.27 49.17 27.27C49.33 27.27 49.56 27.35 49.67 27.45C49.79 27.55 51.63 31.36 53.75 35.93C55.89 40.5 57.71 44.45 57.81 44.72C57.91 44.99 57.99 45.44 58 45.72C58 46.01 57.91 46.46 57.78 46.79C57.64 47.16 57.41 47.51 57.13 47.79C56.74 48.17 56.12 48.5 52.73 50.08C50.56 51.1 47.62 52.48 46.2 53.14C44.78 53.81 43.29 54.51 42.89 54.7C42.49 54.89 41.87 55.17 41.52 55.34C40.97 55.6 40.78 55.64 40.01 55.64C39.25 55.65 39.06 55.61 38.65 55.4C38.38 55.26 38 54.97 37.82 54.75C37.63 54.54 37.11 53.58 36.66 52.62C36.2 51.65 35.66 50.5 35.07 49.21L34 51.8C33.41 53.22 32.86 54.52 32.76 54.68C32.66 54.83 32.41 55.11 32.2 55.28C31.99 55.45 31.62 55.68 31.36 55.79C31.05 55.93 30.69 56 30.29 56C29.72 56 29.37 55.86 24.85 53.98C22.2 52.88 19.95 51.9 19.85 51.82C19.75 51.72 19.68 51.51 19.69 51.33C19.69 51.15 19.76 50.94 19.88 50.82C19.99 50.71 20.18 50.62 20.32 50.62C20.46 50.62 22.69 51.5 25.29 52.58C27.89 53.65 30.14 54.53 30.29 54.53C30.44 54.53 30.73 54.44 30.94 54.33C31.19 54.22 31.41 54 31.55 53.78C31.66 53.57 34.04 47.88 36.83 41.12C40.03 33.41 41.91 28.73 41.91 28.52C41.91 28.32 41.11 26.49 39.66 23.33C38.41 20.64 37.28 18.29 37.13 18.1C36.99 17.92 36.68 17.62 36.44 17.44C36.21 17.26 36 17.14 35.98 17.15C35.97 17.17 35.91 17.6 35.72 19.06L36.09 19.41C36.29 19.61 36.54 19.95 36.65 20.17C36.77 20.45 36.84 20.81 36.84 21.2C36.84 21.54 36.78 21.96 36.72 22.13C36.64 22.3 36.43 22.63 36.25 22.83C36.06 23.05 35.7 23.32 35.43 23.45C35.15 23.57 34.76 23.67 34.5 23.67C34.26 23.67 33.9 23.62 33.7 23.57C33.5 23.51 33.15 23.33 32.92 23.15C32.69 22.98 32.4 22.62 32.24 22.3C32.03 21.9 31.96 21.63 31.97 21.23C31.97 20.88 32.05 20.52 32.19 20.2C32.32 19.93 32.61 19.55 32.86 19.34C33.09 19.14 33.46 18.92 33.67 18.87C33.89 18.82 34.1 18.76 34.16 18.74C34.22 18.73 34.31 18.35 34.38 17.9C34.43 17.45 34.47 17.06 34.44 17.03C34.42 17 34.04 17.12 33.6 17.29C33.16 17.46 30.89 18.33 28.56 19.22C25.48 20.4 24.24 20.92 24.04 21.11C23.85 21.31 22.44 24.61 18.61 33.85C15.71 40.87 13.45 46.45 13.45 46.62C13.45 46.78 13.51 47.06 13.58 47.23C13.65 47.4 13.82 47.65 13.94 47.76C14.07 47.88 14.9 48.27 15.79 48.63C16.67 49 17.47 49.38 17.57 49.47C17.66 49.57 17.74 49.79 17.74 49.96C17.75 50.15 17.67 50.35 17.57 50.44C17.47 50.53 17.32 50.62 17.23 50.65C17.12 50.69 16.56 50.53 15.82 50.22C15.12 49.95 14.27 49.58 13.89 49.41C13.52 49.24 13.04 48.91 12.83 48.71C12.63 48.5 12.37 48.13 12.26 47.89C12.14 47.65 12.03 47.19 12 46.86C11.98 46.52 12.01 46.11 12.08 45.89C12.15 45.67 14.51 39.94 17.32 33.14C20.12 26.35 22.53 20.63 22.66 20.45C22.79 20.26 23.02 20.02 23.17 19.9C23.31 19.79 23.57 19.63 23.73 19.54C23.9 19.46 26.22 18.55 28.9 17.53C31.58 16.49 33.97 15.62 34.2 15.58C34.43 15.55 34.65 15.47 34.68 15.42C34.71 15.36 34.85 14.57 35 13.66C35.15 12.74 35.36 11.6 35.48 11.12C35.58 10.63 35.77 9.96 35.88 9.61C35.99 9.26 36.24 8.69 36.41 8.34C36.59 7.99 36.97 7.45 37.25 7.14C37.53 6.83 38.01 6.44 38.3 6.29C38.74 6.05 38.96 6 39.47 6L39.47 6ZM38.27 8.15C38.1 8.35 37.82 8.82 37.63 9.18C37.45 9.55 37.18 10.33 37.03 10.93C36.88 11.51 36.63 12.81 36.46 13.81C36.3 14.8 36.19 15.63 36.22 15.66C36.26 15.69 36.49 15.81 36.75 15.93L37.23 16.15C38.12 14.75 38.58 13.99 38.82 13.56C39.06 13.13 39.53 12.24 39.84 11.56C40.17 10.89 40.48 10.14 40.54 9.87C40.6 9.62 40.64 9.17 40.64 8.88C40.64 8.54 40.58 8.23 40.48 8.05C40.38 7.88 40.16 7.68 39.99 7.61C39.82 7.53 39.57 7.46 39.45 7.46C39.33 7.46 39.08 7.54 38.9 7.64C38.71 7.72 38.43 7.96 38.27 8.15ZM33.44 21.12C33.43 21.29 33.49 21.54 33.57 21.69C33.64 21.84 33.81 22.02 33.96 22.08C34.09 22.15 34.35 22.21 34.51 22.21C34.72 22.21 34.9 22.11 35.1 21.91C35.32 21.68 35.38 21.53 35.38 21.18C35.38 20.81 35.33 20.7 35.09 20.5C34.88 20.32 34.68 20.25 34.4 20.25C34.08 20.25 33.94 20.31 33.72 20.54C33.55 20.72 33.44 20.94 33.44 21.12ZM28.51 28.5C29.55 28.52 29.92 28.58 30.6 28.8C31.06 28.94 31.66 29.18 31.92 29.32C32.19 29.44 32.6 29.69 32.85 29.85C33.09 30.02 33.54 30.4 33.86 30.69C34.17 31 34.62 31.5 34.84 31.83C35.08 32.15 35.42 32.74 35.61 33.14C35.81 33.54 36.04 34.21 36.15 34.61C36.25 35.01 36.36 35.67 36.41 36.07C36.48 36.78 36.47 36.82 36.23 37.07C36.07 37.25 35.87 37.34 35.7 37.34C35.56 37.34 35.35 37.29 35.25 37.23C35.12 37.13 35.04 36.85 34.93 36.07C34.86 35.51 34.73 34.82 34.64 34.56C34.55 34.29 34.32 33.76 34.13 33.39C33.89 32.92 33.53 32.45 32.99 31.92C32.43 31.36 32 31.02 31.43 30.73C31 30.51 30.3 30.23 29.87 30.12C29.39 29.99 28.78 29.92 28.26 29.92C27.75 29.92 27.14 30 26.66 30.12C26.23 30.22 25.54 30.48 25.14 30.67C24.58 30.96 24.21 31.24 23.54 31.92C22.86 32.59 22.56 32.98 22.29 33.53C22.09 33.93 21.84 34.62 21.73 35.05C21.62 35.52 21.54 36.14 21.54 36.61C21.54 37.04 21.61 37.69 21.68 38.08C21.76 38.45 22.01 39.11 22.21 39.54C22.43 39.97 22.81 40.58 23.05 40.88C23.29 41.19 23.74 41.64 24.05 41.88C24.36 42.13 24.92 42.48 25.29 42.66C25.67 42.85 26.29 43.08 26.66 43.16C27.04 43.25 27.74 43.32 28.26 43.32C28.92 43.32 29.42 43.26 29.97 43.11C30.4 42.99 31.05 42.73 31.43 42.54C31.8 42.33 32.43 41.87 32.85 41.48C33.31 41.03 33.73 40.52 34.03 40.02C34.28 39.59 34.55 39.22 34.64 39.17C34.73 39.13 34.89 39.1 35.02 39.1C35.14 39.1 35.33 39.19 35.46 39.3C35.58 39.41 35.67 39.61 35.67 39.78C35.67 39.94 35.6 40.22 35.52 40.39C35.43 40.57 35.18 40.98 34.95 41.3C34.74 41.62 34.32 42.13 34.02 42.42C33.72 42.72 33.2 43.15 32.85 43.4C32.49 43.63 31.94 43.94 31.61 44.1C31.27 44.25 30.63 44.47 30.19 44.59C29.56 44.75 29.12 44.79 28.22 44.79C27.37 44.78 26.83 44.73 26.27 44.58C25.84 44.46 25.15 44.22 24.76 44.02C24.36 43.83 23.76 43.49 23.44 43.26C23.12 43.03 22.61 42.58 22.32 42.26C22.03 41.94 21.6 41.4 21.36 41.05C21.14 40.7 20.82 40.07 20.65 39.64C20.49 39.21 20.28 38.5 20.2 38.08C20.1 37.53 20.07 36.97 20.11 36.22C20.13 35.62 20.23 34.88 20.32 34.56C20.41 34.24 20.67 33.57 20.89 33.09C21.13 32.61 21.56 31.9 21.86 31.53C22.15 31.15 22.68 30.62 23.02 30.34C23.36 30.07 23.97 29.67 24.37 29.45C24.76 29.24 25.29 28.99 25.53 28.91C25.78 28.82 26.26 28.68 26.61 28.6C27.05 28.5 27.63 28.47 28.51 28.5ZM29.38 32.17C29.49 32.16 29.71 32.26 29.86 32.38C30.12 32.59 30.14 32.65 30.09 33.05C30.06 33.29 30.01 33.58 29.98 33.7C29.93 33.87 29.96 33.92 30.1 33.92C30.18 33.92 30.39 34.01 30.55 34.12C30.72 34.23 30.93 34.44 31.01 34.59C31.12 34.75 31.19 35.05 31.19 35.31C31.19 35.65 31.13 35.84 30.99 35.98C30.88 36.09 30.67 36.17 30.46 36.17C30.22 36.17 30.05 36.1 29.92 35.95C29.81 35.83 29.73 35.64 29.73 35.54C29.73 35.38 29.6 35.3 29 35.12C28.6 35 28.19 34.9 28.09 34.9C27.99 34.9 27.86 34.96 27.8 35.02C27.73 35.09 27.68 35.25 27.67 35.39C27.67 35.53 27.73 35.68 27.8 35.75C27.86 35.82 28.25 35.99 28.65 36.12C29.05 36.26 29.51 36.49 29.66 36.64C29.81 36.79 30.02 37.07 30.13 37.26C30.22 37.47 30.31 37.83 30.31 38.08C30.31 38.32 30.24 38.68 30.16 38.88C30.08 39.08 29.91 39.35 29.79 39.48C29.68 39.61 29.4 39.79 29.19 39.89C28.98 39.99 28.62 40.08 28.41 40.08C28.04 40.08 28.01 40.09 27.89 40.49C27.82 40.72 27.66 41 27.55 41.13C27.44 41.25 27.24 41.35 27.12 41.35C27 41.35 26.81 41.3 26.7 41.25C26.6 41.19 26.47 41.04 26.41 40.91C26.34 40.73 26.35 40.53 26.61 39.69L26.17 39.49C25.92 39.38 25.66 39.2 25.58 39.07C25.51 38.95 25.4 38.72 25.35 38.56C25.29 38.38 25.29 38.13 25.35 37.9C25.4 37.7 25.53 37.5 25.63 37.44C25.74 37.38 25.95 37.34 26.12 37.34C26.32 37.34 26.47 37.42 26.61 37.61C26.72 37.76 26.8 37.95 26.8 38.03C26.8 38.12 27.03 38.25 27.46 38.39C27.83 38.51 28.23 38.61 28.37 38.61C28.51 38.61 28.66 38.55 28.73 38.49C28.8 38.43 28.85 38.25 28.85 38.09C28.85 37.93 28.77 37.78 28.63 37.69C28.51 37.62 28.22 37.5 27.97 37.44C27.73 37.38 27.35 37.22 27.12 37.09C26.88 36.95 26.61 36.68 26.46 36.43C26.28 36.13 26.21 35.88 26.21 35.49C26.21 35.19 26.25 34.84 26.3 34.71C26.34 34.57 26.51 34.32 26.67 34.13C26.82 33.94 27.12 33.71 27.34 33.62C27.55 33.52 27.9 33.44 28.12 33.44C28.5 33.44 28.51 33.43 28.63 33C28.69 32.75 28.85 32.47 28.97 32.36C29.08 32.25 29.27 32.17 29.38 32.17ZM47.54 34.02C47.66 34.02 47.87 34.12 47.99 34.24C48.13 34.36 49.25 36.65 50.58 39.49C51.87 42.25 52.93 44.63 52.93 44.76C52.93 44.9 52.83 45.11 52.7 45.23C52.59 45.35 52.38 45.46 52.24 45.46C52.11 45.46 51.9 45.38 51.79 45.28C51.68 45.18 50.59 42.98 49.36 40.37C48.14 37.76 47.06 35.44 46.96 35.19C46.79 34.81 46.79 34.72 46.9 34.47C46.97 34.32 47.1 34.16 47.17 34.11C47.25 34.06 47.42 34.02 47.54 34.02ZM44.29 35.78C44.41 35.77 44.59 35.85 44.7 35.95C44.82 36.04 45.98 38.39 47.27 41.15C48.76 44.32 49.64 46.3 49.65 46.5C49.66 46.75 49.59 46.88 49.42 47.02C49.28 47.13 49.08 47.22 48.95 47.21C48.83 47.21 48.63 47.11 48.5 46.98C48.36 46.86 47.24 44.58 45.92 41.74C44.62 38.97 43.56 36.59 43.56 36.44C43.55 36.27 43.64 36.12 43.82 35.99C43.97 35.87 44.17 35.78 44.29 35.78Z" fill="#FFFFFF" fill-opacity="1.000000" fill-rule="evenodd"/>
	<path id="Vector" d="M40.69 6.32C41.1 6.55 41.38 6.79 41.6 7.13C41.77 7.39 41.96 7.76 42.01 7.95C42.07 8.13 42.11 8.59 42.11 8.97C42.11 9.36 42.02 9.99 41.89 10.44C41.77 10.89 41.37 11.83 40.94 12.68C40.53 13.49 39.93 14.57 39.62 15.08C39.31 15.58 38.94 16.19 38.78 16.41C38.63 16.65 38.51 16.85 38.52 16.88C38.54 16.91 39.95 17.37 41.67 17.92C43.38 18.47 44.98 19 45.23 19.13C45.47 19.25 45.81 19.52 46 19.73C46.18 19.94 46.64 20.74 47.01 21.52C47.38 22.3 47.88 23.38 48.12 23.91C48.53 24.82 48.55 24.91 48.42 25.17C48.35 25.33 48.22 25.5 48.13 25.54C48.03 25.58 47.87 25.62 47.76 25.62C47.65 25.62 47.46 25.53 47.33 25.41C47.19 25.28 46.67 24.27 46.14 23.13C45.63 22 45.12 20.97 45.01 20.82C44.91 20.66 44.74 20.5 44.62 20.43C44.49 20.37 43.24 19.96 41.81 19.51C40.39 19.06 39.21 18.72 39.18 18.74C39.15 18.77 40.05 20.75 41.17 23.15C42.28 25.57 43.25 27.76 43.31 28.04C43.39 28.43 43.39 28.68 43.31 29.06C43.25 29.34 41.55 33.56 39.53 38.44C37.51 43.32 35.87 47.34 35.87 47.4C35.87 47.46 36.41 48.65 37.07 50.07C37.73 51.47 38.39 52.88 38.53 53.19C38.7 53.56 38.92 53.83 39.16 54C39.47 54.22 39.6 54.25 40.06 54.21C40.52 54.17 41.69 53.65 47.86 50.75C51.85 48.88 55.34 47.23 55.61 47.1C55.94 46.92 56.16 46.73 56.31 46.46C56.44 46.26 56.53 45.92 56.53 45.71C56.53 45.44 55.6 43.35 52.54 36.81C49.8 30.96 48.54 28.16 48.54 27.94C48.54 27.77 48.62 27.55 48.72 27.45C48.8 27.35 49.02 27.27 49.17 27.27C49.33 27.27 49.56 27.35 49.67 27.45C49.79 27.55 51.63 31.36 53.75 35.93C55.89 40.5 57.71 44.45 57.81 44.72C57.91 44.99 57.99 45.44 58 45.72C58 46.01 57.91 46.46 57.78 46.79C57.64 47.16 57.41 47.51 57.13 47.79C56.74 48.17 56.12 48.5 52.73 50.08C50.56 51.1 47.62 52.48 46.2 53.14C44.78 53.81 43.29 54.51 42.89 54.7C42.49 54.89 41.87 55.17 41.52 55.34C40.97 55.6 40.78 55.64 40.01 55.64C39.25 55.65 39.06 55.61 38.65 55.4C38.38 55.26 38 54.97 37.82 54.75C37.63 54.54 37.11 53.58 36.66 52.62C36.2 51.65 35.66 50.5 35.07 49.21L34 51.8C33.41 53.22 32.86 54.52 32.76 54.68C32.66 54.83 32.41 55.11 32.2 55.28C31.99 55.45 31.62 55.68 31.36 55.79C31.05 55.93 30.69 56 30.29 56C29.72 56 29.37 55.86 24.85 53.98C22.2 52.88 19.95 51.9 19.85 51.82C19.75 51.72 19.68 51.51 19.69 51.33C19.69 51.15 19.76 50.94 19.88 50.82C19.99 50.71 20.18 50.62 20.32 50.62C20.46 50.62 22.69 51.5 25.29 52.58C27.89 53.65 30.14 54.53 30.29 54.53C30.44 54.53 30.73 54.44 30.94 54.33C31.19 54.22 31.41 54 31.55 53.78C31.66 53.57 34.04 47.88 36.83 41.12C40.03 33.41 41.91 28.73 41.91 28.52C41.91 28.32 41.11 26.49 39.66 23.33C38.41 20.64 37.28 18.29 37.13 18.1C36.99 17.92 36.68 17.62 36.44 17.44C36.21 17.26 36 17.14 35.98 17.15C35.97 17.17 35.91 17.6 35.72 19.06L36.09 19.41C36.29 19.61 36.54 19.95 36.65 20.17C36.77 20.45 36.84 20.81 36.84 21.2C36.84 21.54 36.78 21.96 36.72 22.13C36.64 22.3 36.43 22.63 36.25 22.83C36.06 23.05 35.7 23.32 35.43 23.45C35.15 23.57 34.76 23.67 34.5 23.67C34.26 23.67 33.9 23.62 33.7 23.57C33.5 23.51 33.15 23.33 32.92 23.15C32.69 22.98 32.4 22.62 32.24 22.3C32.03 21.9 31.96 21.63 31.97 21.23C31.97 20.88 32.05 20.52 32.19 20.2C32.32 19.93 32.61 19.55 32.86 19.34C33.09 19.14 33.46 18.92 33.67 18.87C33.89 18.82 34.1 18.76 34.16 18.74C34.22 18.73 34.31 18.35 34.38 17.9C34.43 17.45 34.47 17.06 34.44 17.03C34.42 17 34.04 17.12 33.6 17.29C33.16 17.46 30.89 18.33 28.56 19.22C25.48 20.4 24.24 20.92 24.04 21.11C23.85 21.31 22.44 24.61 18.61 33.85C15.71 40.87 13.45 46.45 13.45 46.62C13.45 46.78 13.51 47.06 13.58 47.23C13.65 47.4 13.82 47.65 13.94 47.76C14.07 47.88 14.9 48.27 15.79 48.63C16.67 49 17.47 49.38 17.57 49.47C17.66 49.57 17.74 49.79 17.74 49.96C17.75 50.15 17.67 50.35 17.57 50.44C17.47 50.53 17.32 50.62 17.23 50.65C17.12 50.69 16.56 50.53 15.82 50.22C15.12 49.95 14.27 49.58 13.89 49.41C13.52 49.24 13.04 48.91 12.83 48.71C12.63 48.5 12.37 48.13 12.26 47.89C12.14 47.65 12.03 47.19 12 46.86C11.98 46.52 12.01 46.11 12.08 45.89C12.15 45.67 14.51 39.94 17.32 33.14C20.12 26.35 22.53 20.63 22.66 20.45C22.79 20.26 23.02 20.02 23.17 19.9C23.31 19.79 23.57 19.63 23.73 19.54C23.9 19.46 26.22 18.55 28.9 17.53C31.58 16.49 33.97 15.62 34.2 15.58C34.43 15.55 34.65 15.47 34.68 15.42C34.71 15.36 34.85 14.57 35 13.66C35.15 12.74 35.36 11.6 35.48 11.12C35.58 10.63 35.77 9.96 35.88 9.61C35.99 9.26 36.24 8.69 36.41 8.34C36.59 7.99 36.97 7.45 37.25 7.14C37.53 6.83 38.01 6.44 38.3 6.29C38.74 6.05 38.96 6 39.47 6L39.47 6C40.01 6 40.2 6.04 40.69 6.32ZM37.63 9.18C37.45 9.55 37.18 10.33 37.03 10.93C36.88 11.51 36.63 12.81 36.46 13.81C36.3 14.8 36.19 15.63 36.22 15.66C36.26 15.69 36.49 15.81 36.75 15.93L37.23 16.15C38.12 14.75 38.58 13.99 38.82 13.56C39.06 13.13 39.53 12.24 39.84 11.56C40.17 10.89 40.48 10.14 40.54 9.87C40.6 9.62 40.64 9.17 40.64 8.88C40.64 8.54 40.58 8.23 40.48 8.05C40.38 7.88 40.16 7.68 39.99 7.61C39.82 7.53 39.57 7.46 39.45 7.46C39.33 7.46 39.08 7.54 38.9 7.64C38.71 7.72 38.43 7.96 38.27 8.15C38.1 8.35 37.82 8.82 37.63 9.18ZM33.57 21.69C33.64 21.84 33.81 22.02 33.96 22.08C34.09 22.15 34.35 22.21 34.51 22.21C34.72 22.21 34.9 22.11 35.1 21.91C35.32 21.68 35.38 21.53 35.38 21.18C35.38 20.81 35.33 20.7 35.09 20.5C34.88 20.32 34.68 20.25 34.4 20.25C34.08 20.25 33.94 20.31 33.72 20.54C33.55 20.72 33.44 20.94 33.44 21.12C33.43 21.29 33.49 21.54 33.57 21.69ZM30.6 28.8C31.06 28.94 31.66 29.18 31.92 29.32C32.19 29.44 32.6 29.69 32.85 29.85C33.09 30.02 33.54 30.4 33.86 30.69C34.17 31 34.62 31.5 34.84 31.83C35.08 32.15 35.42 32.74 35.61 33.14C35.81 33.54 36.04 34.21 36.15 34.61C36.25 35.01 36.36 35.67 36.41 36.07C36.48 36.78 36.47 36.82 36.23 37.07C36.07 37.25 35.87 37.34 35.7 37.34C35.56 37.34 35.35 37.29 35.25 37.23C35.12 37.13 35.04 36.85 34.93 36.07C34.86 35.51 34.73 34.82 34.64 34.56C34.55 34.29 34.32 33.76 34.13 33.39C33.89 32.92 33.53 32.45 32.99 31.92C32.43 31.36 32 31.02 31.43 30.73C31 30.51 30.3 30.23 29.87 30.12C29.39 29.99 28.78 29.92 28.26 29.92C27.75 29.92 27.14 30 26.66 30.12C26.23 30.22 25.54 30.48 25.14 30.67C24.58 30.96 24.21 31.24 23.54 31.92C22.86 32.59 22.56 32.98 22.29 33.53C22.09 33.93 21.84 34.62 21.73 35.05C21.62 35.52 21.54 36.14 21.54 36.61C21.54 37.04 21.61 37.69 21.68 38.08C21.76 38.45 22.01 39.11 22.21 39.54C22.43 39.97 22.81 40.58 23.05 40.88C23.29 41.19 23.74 41.64 24.05 41.88C24.36 42.13 24.92 42.48 25.29 42.66C25.67 42.85 26.29 43.08 26.66 43.16C27.04 43.25 27.74 43.32 28.26 43.32C28.92 43.32 29.42 43.26 29.97 43.11C30.4 42.99 31.05 42.73 31.43 42.54C31.8 42.33 32.43 41.87 32.85 41.48C33.31 41.03 33.73 40.52 34.03 40.02C34.28 39.59 34.55 39.22 34.64 39.17C34.73 39.13 34.89 39.1 35.02 39.1C35.14 39.1 35.33 39.19 35.46 39.3C35.58 39.41 35.67 39.61 35.67 39.78C35.67 39.94 35.6 40.22 35.52 40.39C35.43 40.57 35.18 40.98 34.95 41.3C34.74 41.62 34.32 42.13 34.02 42.42C33.72 42.72 33.2 43.15 32.85 43.4C32.49 43.63 31.94 43.94 31.61 44.1C31.27 44.25 30.63 44.47 30.19 44.59C29.56 44.75 29.12 44.79 28.22 44.79C27.37 44.78 26.83 44.73 26.27 44.58C25.84 44.46 25.15 44.22 24.76 44.02C24.36 43.83 23.76 43.49 23.44 43.26C23.12 43.03 22.61 42.58 22.32 42.26C22.03 41.94 21.6 41.4 21.36 41.05C21.14 40.7 20.82 40.07 20.65 39.64C20.49 39.21 20.28 38.5 20.2 38.08C20.1 37.53 20.07 36.97 20.11 36.22C20.13 35.62 20.23 34.88 20.32 34.56C20.41 34.24 20.67 33.57 20.89 33.09C21.13 32.61 21.56 31.9 21.86 31.53C22.15 31.15 22.68 30.62 23.02 30.34C23.36 30.07 23.97 29.67 24.37 29.45C24.76 29.24 25.29 28.99 25.53 28.91C25.78 28.82 26.26 28.68 26.61 28.6C27.05 28.5 27.63 28.47 28.51 28.5C29.55 28.52 29.92 28.58 30.6 28.8ZM29.86 32.38C30.12 32.59 30.14 32.65 30.09 33.05C30.06 33.29 30.01 33.58 29.98 33.7C29.93 33.87 29.96 33.92 30.1 33.92C30.18 33.92 30.39 34.01 30.55 34.12C30.72 34.23 30.93 34.44 31.01 34.59C31.12 34.75 31.19 35.05 31.19 35.31C31.19 35.65 31.13 35.84 30.99 35.98C30.88 36.09 30.67 36.17 30.46 36.17C30.22 36.17 30.05 36.1 29.92 35.95C29.81 35.83 29.73 35.64 29.73 35.54C29.73 35.38 29.6 35.3 29 35.12C28.6 35 28.19 34.9 28.09 34.9C27.99 34.9 27.86 34.96 27.8 35.02C27.73 35.09 27.68 35.25 27.67 35.39C27.67 35.53 27.73 35.68 27.8 35.75C27.86 35.82 28.25 35.99 28.65 36.12C29.05 36.26 29.51 36.49 29.66 36.64C29.81 36.79 30.02 37.07 30.13 37.26C30.22 37.47 30.31 37.83 30.31 38.08C30.31 38.32 30.24 38.68 30.16 38.88C30.08 39.08 29.91 39.35 29.79 39.48C29.68 39.61 29.4 39.79 29.19 39.89C28.98 39.99 28.62 40.08 28.41 40.08C28.04 40.08 28.01 40.09 27.89 40.49C27.82 40.72 27.66 41 27.55 41.13C27.44 41.25 27.24 41.35 27.12 41.35C27 41.35 26.81 41.3 26.7 41.25C26.6 41.19 26.47 41.04 26.41 40.91C26.34 40.73 26.35 40.53 26.61 39.69L26.17 39.49C25.92 39.38 25.66 39.2 25.58 39.07C25.51 38.95 25.4 38.72 25.35 38.56C25.29 38.38 25.29 38.13 25.35 37.9C25.4 37.7 25.53 37.5 25.63 37.44C25.74 37.38 25.95 37.34 26.12 37.34C26.32 37.34 26.47 37.42 26.61 37.61C26.72 37.76 26.8 37.95 26.8 38.03C26.8 38.12 27.03 38.25 27.46 38.39C27.83 38.51 28.23 38.61 28.37 38.61C28.51 38.61 28.66 38.55 28.73 38.49C28.8 38.43 28.85 38.25 28.85 38.09C28.85 37.93 28.77 37.78 28.63 37.69C28.51 37.62 28.22 37.5 27.97 37.44C27.73 37.38 27.35 37.22 27.12 37.09C26.88 36.95 26.61 36.68 26.46 36.43C26.28 36.13 26.21 35.88 26.21 35.49C26.21 35.19 26.25 34.84 26.3 34.71C26.34 34.57 26.51 34.32 26.67 34.13C26.82 33.94 27.12 33.71 27.34 33.62C27.55 33.52 27.9 33.44 28.12 33.44C28.5 33.44 28.51 33.43 28.63 33C28.69 32.75 28.85 32.47 28.97 32.36C29.08 32.25 29.27 32.17 29.38 32.17C29.49 32.16 29.71 32.26 29.86 32.38ZM47.99 34.24C48.13 34.36 49.25 36.65 50.58 39.49C51.87 42.25 52.93 44.63 52.93 44.76C52.93 44.9 52.83 45.11 52.7 45.23C52.59 45.35 52.38 45.46 52.24 45.46C52.11 45.46 51.9 45.38 51.79 45.28C51.68 45.18 50.59 42.98 49.36 40.37C48.14 37.76 47.06 35.44 46.96 35.19C46.79 34.81 46.79 34.72 46.9 34.47C46.97 34.32 47.1 34.16 47.17 34.11C47.25 34.06 47.42 34.02 47.54 34.02C47.66 34.02 47.87 34.12 47.99 34.24ZM44.7 35.95C44.82 36.04 45.98 38.39 47.27 41.15C48.76 44.32 49.64 46.3 49.65 46.5C49.66 46.75 49.59 46.88 49.42 47.02C49.28 47.13 49.08 47.22 48.95 47.21C48.83 47.21 48.63 47.11 48.5 46.98C48.36 46.86 47.24 44.58 45.92 41.74C44.62 38.97 43.56 36.59 43.56 36.44C43.55 36.27 43.64 36.12 43.82 35.99C43.97 35.87 44.17 35.78 44.29 35.78C44.41 35.77 44.59 35.85 44.7 35.95Z" stroke="#000000" stroke-opacity="0" stroke-width="1.000000"/>
</svg>
