<svg width="71.000000" height="71.000000" viewBox="0 0 71 71" fill="none" xmlns="http://www.w3.org/2000/svg" xmlns:xlink="http://www.w3.org/1999/xlink">
	<desc>
			Created with Pixso.
	</desc>
	<defs/>
	<circle id="Ellipse 7" cx="35.500000" cy="35.500000" r="35.500000" fill="#F08B71" fill-opacity="1.000000"/>
	<path id="Vector" d="M38.24 12L38.37 12.21C38.48 12.36 38.51 12.74 38.51 15.67L42.8 15.72L42.96 15.95C43.1 16.14 43.25 17.61 44.95 35.68L45.73 36.28C46.16 36.61 46.84 37.07 47.24 37.31C47.65 37.56 48.28 37.86 48.64 37.99C49.03 38.13 49.51 38.23 49.8 38.23C50.06 38.23 50.37 38.18 50.49 38.13C50.6 38.07 50.76 37.91 50.85 37.77C50.94 37.63 51.06 37.37 51.12 37.2C51.18 37.02 51.29 36.15 51.35 35.27C51.44 34 51.52 33.5 51.71 32.92C51.83 32.52 52.05 32 52.2 31.77C52.34 31.54 52.66 31.14 52.93 30.89C53.18 30.63 53.57 30.33 53.8 30.21C54.02 30.1 54.5 29.92 54.86 29.83C55.27 29.72 55.84 29.65 56.33 29.65C56.77 29.65 57.47 29.72 57.89 29.8C58.3 29.88 58.89 30.03 59.2 30.12C59.66 30.27 59.78 30.35 59.9 30.59C60.03 30.87 60.03 30.92 59.9 31.19C59.81 31.38 59.66 31.51 59.51 31.55C59.35 31.59 58.94 31.5 58.42 31.35C57.69 31.13 57.41 31.09 56.46 31.08C55.85 31.08 55.19 31.13 55 31.19C54.8 31.25 54.45 31.44 54.2 31.6C53.96 31.77 53.64 32.07 53.49 32.28C53.33 32.48 53.12 32.91 53.01 33.24C52.87 33.66 52.78 34.23 52.72 35.13C52.68 35.84 52.6 36.66 52.55 36.97C52.5 37.27 52.36 37.75 52.24 38.02C52.12 38.3 51.87 38.69 51.69 38.87C51.5 39.05 51.16 39.3 50.91 39.41C50.57 39.56 50.29 39.61 49.8 39.61C49.38 39.6 48.9 39.52 48.51 39.39C48.16 39.28 47.57 39.04 47.17 38.83C46.78 38.63 46.2 38.28 45.87 38.06C45.53 37.84 45.24 37.67 45.21 37.67C45.18 37.69 45.52 41.53 45.96 46.21C46.59 52.92 46.73 54.76 46.65 54.92C46.6 55.04 46.46 55.17 46.36 55.22C46.23 55.28 44.69 55.32 38.51 55.32L38.51 56.91C38.52 58.36 38.5 58.51 38.15 59L29.66 59L29.46 58.78C29.26 58.59 29.25 58.53 29.26 55.32L21.44 55.32L21.22 55.09C21.09 54.96 21 54.79 21 54.72C21 54.64 21.8 46.08 22.77 35.7C23.75 25.32 24.57 16.66 24.6 16.46C24.62 16.25 24.69 16.01 24.76 15.9C24.89 15.73 25.02 15.72 29.22 15.63L29.23 13.98C29.24 12.52 29.25 12.31 29.4 12.16C29.55 12 29.83 12 38.24 12L38.24 12ZM30.6 15.58L37.17 15.58L37.17 13.28L30.6 13.28L30.6 15.58ZM30.82 21.1C33.81 18 34.68 17.09 34.68 17.07C34.68 17.06 32.93 17.05 30.79 17.05L26.91 17.05L30.82 21.1ZM31.75 22.07L33.99 24.37C36.21 21.98 37.76 20.34 38.86 19.17L40.86 17.04L36.6 17.05L31.75 22.07ZM25.77 18.3C25.74 18.54 25.63 19.74 25.51 20.94L25.31 23.12C29.73 27.7 30.33 28.38 30.33 28.55C30.34 28.68 30.27 28.87 30.18 28.98C30.09 29.1 29.88 29.22 29.72 29.26C29.45 29.33 29.4 29.3 27.31 27.13C25.9 25.66 25.16 24.96 25.14 25.06C25.12 25.13 25 26.33 24.87 27.72C24.74 29.11 24.64 30.33 24.64 30.41C24.64 30.5 27.4 33.32 31.13 37.01C35.77 41.62 37.64 43.52 37.67 43.7C37.7 43.85 37.68 44.05 37.63 44.16C37.57 44.28 37.44 44.42 37.32 44.47C37.22 44.53 37.03 44.55 36.91 44.52C36.77 44.49 34.2 41.99 30.6 38.41C26.16 34 24.49 32.4 24.45 32.5C24.43 32.58 24.3 33.66 24.19 34.92L23.97 37.2L40.15 53.94L45.35 53.94C45.28 53.61 45.26 53.39 45.26 53.25C45.26 53.01 44.85 52.56 41.75 49.49C38.36 46.15 38.24 46.02 38.24 45.68C38.23 45.47 38.29 45.27 38.39 45.18C38.48 45.09 38.69 45.01 38.86 45.01C39.15 45.01 39.39 45.22 42.06 47.88C44.54 50.34 44.95 50.72 44.98 50.52C44.99 50.4 44.88 49.08 44.74 47.59L44.47 44.88C31.96 31.94 30.86 30.77 30.86 30.55C30.86 30.41 30.95 30.2 31.08 30.07C31.21 29.93 31.4 29.84 31.55 29.84C31.76 29.84 32.75 30.82 37.98 36.25C41.39 39.78 44.2 42.62 44.21 42.58C44.24 42.52 44.13 41.1 43.97 39.4L43.67 36.32L25.81 17.84L25.77 18.3ZM37.72 22.37L34.91 25.34L37.13 27.63L42.35 22.25C42.05 19.04 41.93 18.07 41.9 18.04C41.87 18 41.54 18.29 41.18 18.68C40.83 19.08 39.27 20.73 37.72 22.37ZM38.11 28.64L40.86 31.49L43.01 29.24C42.66 25.37 42.53 24.22 42.51 24.19C42.47 24.16 41.48 25.16 40.29 26.39L38.11 28.64ZM41.84 32.51C43.01 33.71 43.37 34.05 43.4 34.03C43.41 34.01 43.39 33.49 43.33 32.86C43.27 32.24 43.23 31.61 43.22 31.48C43.22 31.34 43.18 31.22 43.15 31.22C43.11 31.22 42.8 31.51 42.45 31.86L41.84 32.51ZM23.63 40.97C23.55 41.8 23.49 42.49 23.51 42.5C23.52 42.52 23.96 42.09 24.46 41.57L25.4 40.6C23.9 39.05 23.85 39.01 23.8 39.22C23.79 39.35 23.7 40.14 23.63 40.97ZM23.26 44.83C22.84 49.36 22.73 50.71 22.75 50.74C22.76 50.78 23.53 50.02 24.44 49.04C25.36 48.07 26.75 46.6 27.53 45.78L28.95 44.28L26.37 41.61L23.26 44.83ZM22.49 53.19C22.46 53.27 22.43 53.48 22.43 53.64L22.42 53.94L27.08 53.94L32.68 48.14C30.55 45.93 29.91 45.29 29.88 45.29C29.86 45.29 28.2 47.04 26.2 49.16C24.2 51.3 22.52 53.11 22.49 53.19ZM29.15 53.87C29.19 53.91 31.2 53.95 33.63 53.94C36.05 53.94 38.06 53.91 38.1 53.87C38.13 53.83 37.15 52.75 35.91 51.48C34.68 50.2 33.64 49.15 33.62 49.15C33.59 49.15 32.56 50.2 31.32 51.48C30.09 52.75 29.11 53.84 29.15 53.87ZM30.6 57.62L37.17 57.62L37.17 55.32L30.6 55.32L30.6 57.62Z" fill="#FFFFFF" fill-opacity="1.000000" fill-rule="evenodd"/>
</svg>
