<svg width="71.000000" height="71.000000" viewBox="0 0 71 71" fill="none" xmlns="http://www.w3.org/2000/svg" xmlns:xlink="http://www.w3.org/1999/xlink">
	<desc>
			Created with Pixso.
	</desc>
	<defs/>
	<circle id="Ellipse 7" cx="35.500000" cy="35.500000" r="35.500000" fill="#F08B71" fill-opacity="1.000000"/>
	<path id="Vector" d="M35.49 13L48.49 13L49.01 13.22C49.29 13.36 49.7 13.66 49.95 13.92C50.26 14.24 50.45 14.57 50.58 14.96C50.7 15.37 50.74 15.66 50.69 16.01C50.67 16.27 49.58 19.37 48.3 22.9C46.75 27.16 45.96 29.43 45.96 29.69C45.96 29.91 46.05 30.21 46.15 30.38C46.26 30.55 46.45 30.75 46.57 30.81C46.73 30.91 47.76 30.95 50.34 30.98C53.89 31.03 53.9 31.03 54.39 31.27C54.65 31.4 55.02 31.66 55.21 31.84C55.39 32.03 55.65 32.42 55.78 32.71C55.99 33.15 56.01 33.35 55.99 33.9C55.96 34.38 55.88 34.71 55.7 35.03C55.57 35.28 54.18 37.02 52.63 38.9C51.08 40.78 49.63 42.5 49.42 42.73C49.16 43.01 48.95 43.15 48.78 43.14C48.65 43.14 48.45 43.08 48.35 43.01C48.24 42.93 48.12 42.76 48.07 42.63C48.03 42.48 48.05 42.28 48.12 42.15C48.18 42.04 49.6 40.28 51.27 38.26C52.95 36.23 54.36 34.48 54.42 34.35C54.48 34.24 54.53 33.95 54.53 33.71C54.53 33.38 54.48 33.21 54.27 32.97C54.11 32.81 53.85 32.62 53.69 32.54C53.44 32.45 52.59 32.42 50.08 32.42C47.42 32.42 46.7 32.39 46.35 32.28C46.11 32.2 45.72 31.97 45.48 31.78C45.25 31.58 44.95 31.22 44.81 30.98C44.61 30.66 44.55 30.38 44.48 29.12L46.89 22.52C48.87 17.05 49.28 15.86 49.23 15.58C49.2 15.4 49.11 15.15 49.03 15.02C48.95 14.91 48.74 14.73 48.57 14.62C48.26 14.44 48.07 14.43 42.06 14.43C36.36 14.43 35.85 14.44 35.53 14.6C35.35 14.69 35.1 14.92 34.98 15.1C34.86 15.28 34.7 15.51 34.62 15.6C34.53 15.69 34.32 15.77 34.14 15.77C33.97 15.78 33.76 15.7 33.67 15.61C33.59 15.51 33.49 15.37 33.46 15.29C33.43 15.22 33.46 14.98 33.52 14.77C33.59 14.56 33.83 14.18 34.07 13.92C34.32 13.66 34.73 13.36 35 13.22L35.49 13ZM26.35 36.45C26.57 36.45 26.73 36.51 26.86 36.69C27.03 36.89 27.05 37.01 26.99 37.52C26.94 38.04 26.96 38.17 27.13 38.46C27.24 38.64 27.44 38.85 27.56 38.93C27.75 39.05 28.44 39.09 35.58 39.17L36.07 39.42C36.33 39.57 36.69 39.82 36.87 40C37.04 40.18 37.28 40.53 37.4 40.8C37.56 41.15 37.62 41.45 37.62 41.9C37.61 42.42 37.19 43.95 35.02 51.33C33.59 56.17 32.42 60.21 32.42 60.29C32.42 60.39 32.51 60.48 32.63 60.52C32.76 60.55 32.88 60.54 32.92 60.49C32.95 60.45 35.87 56.92 39.38 52.67C42.9 48.4 45.89 44.86 46.04 44.78C46.26 44.67 46.34 44.68 46.62 44.81C46.82 44.91 46.95 45.06 46.99 45.22C47.03 45.37 47 45.59 46.92 45.74C46.85 45.87 43.89 49.49 40.36 53.77C36.18 58.83 33.8 61.62 33.57 61.77C33.3 61.93 33.05 62 32.71 62C32.33 62 32.12 61.93 31.78 61.71C31.53 61.54 31.27 61.26 31.15 61.04C31.04 60.83 30.95 60.49 30.95 60.29C30.95 60.1 32.14 55.89 33.59 50.94C35.48 44.53 36.22 41.86 36.18 41.66C36.15 41.5 36.02 41.25 35.9 41.1C35.78 40.94 35.59 40.77 35.49 40.71C35.36 40.64 33.97 40.59 31.39 40.56C27.65 40.51 27.48 40.5 27.11 40.3C26.89 40.2 26.57 39.98 26.39 39.82C26.21 39.68 25.94 39.3 25.78 38.98C25.56 38.53 25.5 38.27 25.5 37.81C25.5 37.48 25.55 37.09 25.6 36.94C25.65 36.8 25.77 36.63 25.87 36.56C25.96 36.5 26.17 36.45 26.35 36.45ZM28.03 16.17C28.43 16.16 29.13 16.22 29.59 16.3C30.05 16.36 30.7 16.53 31.05 16.64C31.4 16.76 31.95 16.98 32.27 17.14C32.59 17.3 33.1 17.59 33.39 17.79C33.68 17.98 34.16 18.35 34.45 18.61C34.74 18.87 35.24 19.42 35.56 19.85C35.87 20.27 36.31 20.96 36.52 21.38C36.72 21.8 36.99 22.49 37.11 22.91C37.31 23.57 37.34 23.88 37.34 25.3C37.34 26.72 37.31 27.02 37.11 27.69C36.99 28.11 36.74 28.75 36.57 29.13C36.39 29.49 36.08 30.06 35.87 30.37C35.66 30.69 35.19 31.24 34.84 31.62C34.49 31.98 33.85 32.51 33.43 32.8C33 33.09 32.36 33.46 31.98 33.63C31.61 33.81 30.93 34.05 30.47 34.16C29.77 34.35 29.41 34.39 28.13 34.39C26.85 34.39 26.49 34.35 25.79 34.16C25.33 34.05 24.66 33.81 24.28 33.63C23.91 33.46 23.33 33.16 23.01 32.95C22.69 32.74 22.09 32.25 21.66 31.85C21.24 31.45 20.67 30.79 20.38 30.37C20.09 29.95 19.73 29.29 19.56 28.91C19.4 28.52 19.17 27.86 19.08 27.42C18.97 26.99 18.86 26.33 18.82 25.97C18.78 25.6 18.8 24.88 18.86 24.36C18.92 23.86 19.09 23.08 19.22 22.64C19.37 22.21 19.61 21.6 19.77 21.28C19.93 20.97 20.23 20.47 20.42 20.18C20.62 19.89 21.04 19.38 21.36 19.04C21.68 18.71 22.22 18.23 22.57 17.98C22.93 17.72 23.56 17.35 23.99 17.14C24.42 16.93 25.08 16.66 25.45 16.55C25.83 16.44 26.39 16.32 26.72 16.27C27.04 16.22 27.63 16.18 28.03 16.17ZM25.45 18.07C25.13 18.18 24.62 18.4 24.33 18.57C24.04 18.74 23.53 19.06 23.21 19.31C22.9 19.55 22.41 20.01 22.14 20.33C21.87 20.66 21.5 21.16 21.33 21.43C21.16 21.72 20.89 22.31 20.72 22.76C20.57 23.2 20.39 23.96 20.32 24.44C20.24 25.1 20.25 25.5 20.33 26.16C20.39 26.63 20.54 27.3 20.65 27.64C20.75 27.98 20.96 28.48 21.08 28.74C21.22 29 21.47 29.41 21.63 29.65C21.8 29.88 22.14 30.29 22.38 30.55C22.62 30.8 23.06 31.19 23.35 31.42C23.65 31.64 24.2 31.98 24.57 32.17C24.95 32.35 25.59 32.61 25.99 32.73C26.61 32.92 26.92 32.95 28.13 32.95C29.34 32.95 29.65 32.92 30.27 32.73C30.67 32.6 31.27 32.37 31.59 32.21C31.91 32.06 32.44 31.74 32.76 31.52C33.08 31.29 33.55 30.9 33.79 30.64C34.03 30.39 34.43 29.87 34.68 29.51C34.92 29.14 35.21 28.62 35.33 28.36C35.45 28.09 35.63 27.54 35.74 27.12C35.87 26.6 35.92 26 35.92 25.3C35.92 24.55 35.87 24.02 35.73 23.48C35.62 23.06 35.38 22.39 35.18 22C35 21.6 34.61 20.98 34.32 20.61C34.03 20.24 33.59 19.76 33.32 19.55C33.07 19.33 32.57 18.98 32.22 18.76C31.87 18.54 31.24 18.23 30.81 18.09C30.38 17.93 29.71 17.76 29.33 17.7C28.94 17.65 28.32 17.6 27.96 17.61C27.59 17.61 27.02 17.67 26.67 17.74C26.32 17.81 25.77 17.96 25.45 18.07ZM12.33 19.61L16.63 19.61L16.87 19.85C17.01 19.97 17.12 20.19 17.12 20.32C17.12 20.45 17.01 20.67 16.64 21.04L12.34 21.04L12.1 20.8C11.96 20.67 11.86 20.46 11.86 20.31C11.87 20.18 11.97 19.97 12.1 19.84L12.33 19.61ZM16.63 24.58L16.87 24.82C17.01 24.96 17.12 25.18 17.12 25.3C17.12 25.43 17.01 25.65 16.64 26.02L13.51 26.02C10.52 26.02 10.39 26.01 10.2 25.83C10.08 25.72 10.01 25.5 10 25.31C9.99 25.06 10.04 24.94 10.25 24.78C10.51 24.59 10.64 24.58 16.63 24.58ZM16.65 29.61L16.88 29.87C17.01 30.02 17.12 30.21 17.12 30.3C17.12 30.39 17.03 30.59 16.73 30.99L14.51 30.99C12.35 30.99 12.29 30.98 12.07 30.78C11.95 30.66 11.86 30.46 11.86 30.32C11.86 30.2 11.92 30.02 11.98 29.92C12.05 29.84 12.22 29.71 12.34 29.66C12.49 29.61 13.45 29.58 16.65 29.61ZM24.93 20.09C25.3 20.09 25.62 20.15 25.86 20.27C26.06 20.37 26.35 20.57 26.49 20.73C26.64 20.88 26.85 21.21 26.97 21.47C27.11 21.79 27.18 22.14 27.18 22.53C27.18 22.92 27.11 23.26 26.95 23.62C26.82 23.9 26.56 24.27 26.37 24.43C26.19 24.58 25.89 24.77 25.71 24.84C25.55 24.91 25.18 24.97 24.91 24.97C24.63 24.97 24.27 24.89 24.06 24.78C23.86 24.69 23.57 24.49 23.41 24.33C23.27 24.18 23.04 23.88 22.93 23.67C22.77 23.38 22.72 23.12 22.72 22.53C22.72 21.86 22.75 21.7 23.01 21.25C23.17 20.97 23.43 20.64 23.6 20.52C23.75 20.4 24 20.26 24.13 20.2C24.27 20.14 24.63 20.09 24.93 20.09ZM24.18 22.53C24.18 22.95 24.23 23.09 24.43 23.29C24.57 23.44 24.78 23.54 24.93 23.54C25.09 23.53 25.3 23.43 25.42 23.31C25.55 23.19 25.67 22.96 25.71 22.8C25.75 22.65 25.74 22.38 25.68 22.19C25.63 22.01 25.52 21.78 25.42 21.68C25.33 21.6 25.12 21.52 24.95 21.52C24.76 21.52 24.57 21.61 24.42 21.77C24.23 21.97 24.18 22.12 24.18 22.53ZM29.95 20.47C30.18 20.47 30.32 20.54 30.48 20.74C30.6 20.91 30.66 21.08 30.62 21.23C30.6 21.37 29.79 23.33 28.82 25.59C27.66 28.3 26.98 29.76 26.83 29.87C26.72 29.97 26.52 30.05 26.39 30.05C26.28 30.04 26.07 29.93 25.94 29.8C25.8 29.67 25.69 29.47 25.69 29.37C25.69 29.26 26.5 27.27 27.5 24.95C28.49 22.61 29.38 20.66 29.47 20.59C29.56 20.53 29.78 20.47 29.95 20.47ZM31.25 25.64C31.43 25.64 31.76 25.69 31.98 25.76C32.21 25.83 32.55 26.06 32.83 26.33C33.18 26.68 33.33 26.92 33.45 27.34C33.55 27.67 33.59 28.07 33.57 28.36C33.54 28.63 33.39 29.07 33.23 29.37C33.07 29.66 32.79 30 32.56 30.15C32.35 30.3 32 30.48 31.78 30.53C31.57 30.58 31.22 30.61 31 30.57C30.79 30.54 30.43 30.4 30.2 30.26C29.98 30.11 29.68 29.85 29.54 29.65C29.41 29.47 29.22 29.09 29.13 28.79C29.03 28.43 29.01 28.12 29.05 27.79C29.08 27.53 29.22 27.12 29.35 26.88C29.47 26.65 29.67 26.35 29.79 26.24C29.92 26.12 30.22 25.94 30.47 25.84C30.71 25.73 31.06 25.64 31.25 25.64ZM30.55 27.72C30.5 27.91 30.47 28.22 30.51 28.39C30.54 28.56 30.69 28.8 30.86 28.94C31.01 29.07 31.19 29.18 31.25 29.18C31.3 29.18 31.45 29.13 31.59 29.06C31.72 28.99 31.9 28.8 31.98 28.63C32.06 28.46 32.12 28.23 32.12 28.12C32.12 28.02 32.06 27.79 31.98 27.6C31.9 27.41 31.74 27.22 31.64 27.17C31.53 27.12 31.36 27.07 31.27 27.07C31.18 27.07 31 27.14 30.88 27.21C30.76 27.3 30.61 27.52 30.55 27.72Z" fill="#FFFFFF" fill-opacity="1.000000" fill-rule="evenodd"/>
</svg>
