<svg width="71.000000" height="71.000000" viewBox="0 0 71 71" fill="none" xmlns="http://www.w3.org/2000/svg" xmlns:xlink="http://www.w3.org/1999/xlink">
	<desc>
			Created with Pixso.
	</desc>
	<defs/>
	<circle id="Ellipse 7" cx="35.500000" cy="35.500000" r="35.500000" fill="#F08B71" fill-opacity="1.000000"/>
	<path id="Vector" d="M37.68 12C38.38 12 39.54 12.06 40.26 12.15C41 12.24 41.69 12.37 41.82 12.46C42 12.57 42.17 12.97 43.04 15.71L43.66 15.9C44 16.01 44.68 16.24 45.16 16.42C45.65 16.59 46.64 17.02 48.69 18.04L49.12 17.79C49.37 17.66 50.05 17.32 50.63 17.02C51.57 16.56 51.72 16.51 51.97 16.61C52.14 16.67 52.58 16.98 52.99 17.3C53.39 17.61 54.15 18.28 54.69 18.8C55.22 19.31 56.07 20.22 56.57 20.83C57.2 21.57 57.5 22.02 57.5 22.19C57.5 22.34 57.16 23.08 55.99 25.29L56.53 26.31C56.82 26.87 57.24 27.76 57.46 28.3C57.66 28.83 57.94 29.62 58.3 30.81L59.86 31.32C60.72 31.6 61.5 31.91 61.59 31.99C61.67 32.07 61.8 32.51 61.87 32.96C61.94 33.43 62 34.75 62 35.99C62 37.23 61.94 38.55 61.87 39.02C61.8 39.47 61.67 39.91 61.59 39.99C61.5 40.07 60.72 40.37 58.3 41.17L58.07 41.94C57.93 42.36 57.66 43.15 57.46 43.68C57.24 44.22 56.82 45.11 55.99 46.69L56.74 48.11C57.16 48.9 57.5 49.64 57.5 49.79C57.5 49.96 57.19 50.41 56.57 51.15C56.08 51.76 55.23 52.67 54.69 53.17C54.15 53.69 53.35 54.39 52.91 54.74C52.47 55.09 52.03 55.39 51.92 55.39C51.83 55.4 51.67 55.4 51.59 55.39C51.51 55.39 50.81 55.06 48.69 53.94L47.36 54.6C46.64 54.96 45.65 55.39 45.16 55.56C44.68 55.74 44 55.96 43.05 56.25L42.55 57.81C42.17 59.01 42 59.41 41.82 59.52C41.69 59.61 41 59.74 40.26 59.83C39.54 59.92 38.48 60 37.91 60C37.34 60 36.28 59.92 35.55 59.84C34.82 59.75 33.66 59.56 32.96 59.43C32.26 59.29 31.16 59.01 30.52 58.81C29.89 58.6 28.89 58.23 28.32 57.99C27.75 57.75 26.84 57.31 26.3 57.02C25.76 56.72 24.92 56.23 24.44 55.91C23.95 55.59 23.2 55.05 22.78 54.72C22.35 54.38 21.55 53.67 20.98 53.12C20.42 52.59 19.58 51.69 19.12 51.12C18.66 50.56 18.13 49.85 17.54 49.01L9.41 49.02L9.2 48.78C9.09 48.66 9 48.44 9 48.3C9 48.16 9.06 47.97 9.13 47.87C9.2 47.78 9.38 47.65 9.53 47.59C9.72 47.52 11 47.48 13.19 47.48C15.05 47.48 16.56 47.47 16.56 47.46C16.56 47.44 16.31 46.89 16 46.25C15.69 45.6 15.28 44.58 14.7 42.86L12.05 42.86C9.44 42.86 9.41 42.86 9.2 42.64C9.09 42.5 9 42.29 9 42.15C9 42 9.06 41.82 9.13 41.71C9.2 41.62 9.38 41.5 9.53 41.44C9.71 41.37 10.68 41.32 12.05 41.32C14.13 41.32 14.28 41.31 14.24 41.15C14.21 41.05 14.11 40.58 14.02 40.09C13.94 39.61 13.87 39.13 13.87 39.02C13.87 38.9 13.96 38.71 14.07 38.59C14.21 38.42 14.39 38.35 14.64 38.35C14.87 38.35 15.08 38.42 15.18 38.54C15.3 38.66 15.42 39.09 15.5 39.6C15.59 40.06 15.77 40.96 15.94 41.58C16.09 42.21 16.41 43.17 16.61 43.74C16.83 44.3 17.23 45.22 17.51 45.79C17.8 46.35 18.21 47.11 18.43 47.48C18.64 47.85 19.09 48.53 19.43 48.99C19.76 49.45 20.44 50.28 20.92 50.83C21.41 51.39 22.34 52.29 23 52.86C23.65 53.41 24.69 54.2 25.32 54.62C25.94 55.03 27.02 55.65 27.7 55.98C28.39 56.33 29.39 56.76 29.93 56.96C30.47 57.15 31.21 57.4 31.59 57.51C31.96 57.63 32.73 57.81 33.3 57.92C33.87 58.05 34.8 58.19 35.37 58.26C35.97 58.33 37.3 58.36 38.55 58.34C39.72 58.32 40.72 58.28 40.74 58.25C40.77 58.22 41.01 57.53 41.27 56.71C41.53 55.89 41.83 55.15 41.92 55.06C42.02 54.97 42.61 54.74 43.25 54.57C43.87 54.38 44.87 54.03 45.48 53.79C46.08 53.53 46.97 53.1 47.47 52.81C47.97 52.54 48.48 52.3 48.61 52.3C48.74 52.3 49.49 52.64 51.68 53.79L52.28 53.28C52.62 53 53.21 52.47 53.59 52.1C53.98 51.73 54.63 51.06 55.02 50.61C55.4 50.16 55.72 49.73 55.74 49.66C55.74 49.59 55.39 48.88 54.23 46.65L54.52 46.12C54.69 45.82 55.07 45.1 55.37 44.5C55.67 43.91 56.08 42.97 56.28 42.4C56.48 41.84 56.69 41.14 56.75 40.86C56.82 40.59 56.96 40.24 57.06 40.09C57.22 39.9 57.6 39.73 60.29 38.91L60.37 38.45C60.41 38.2 60.45 37.09 60.45 35.99C60.45 34.89 60.41 33.78 60.29 33.07L58.77 32.6C57.6 32.25 57.22 32.08 57.06 31.89C56.96 31.74 56.82 31.4 56.75 31.12C56.69 30.84 56.48 30.14 56.28 29.58C56.08 29.01 55.67 28.07 55.37 27.48C55.07 26.88 54.69 26.16 54.23 25.33L54.98 23.89C55.39 23.09 55.74 22.39 55.74 22.32C55.74 22.25 55.5 21.92 55.2 21.58C54.91 21.24 54.38 20.67 54.04 20.31C53.68 19.96 53.02 19.33 51.68 18.19L50.26 18.93C49.49 19.34 48.73 19.67 48.58 19.67C48.44 19.67 48.07 19.51 47.76 19.33C47.44 19.13 46.86 18.83 46.46 18.62C46.06 18.43 45.29 18.11 44.75 17.9C44.21 17.7 43.39 17.44 42.94 17.32C42.48 17.2 42.02 17.02 41.92 16.93C41.83 16.83 41.53 16.09 41.27 15.27C41.01 14.45 40.77 13.76 40.75 13.73C40.72 13.7 39.44 13.68 37.93 13.68C35.72 13.68 34.97 13.72 34.18 13.86C33.64 13.96 32.66 14.18 32 14.35C31.35 14.52 30.27 14.87 29.62 15.12C28.97 15.38 27.94 15.85 27.34 16.16C26.74 16.48 25.9 16.96 25.47 17.25C25.05 17.52 24.4 17.99 24.02 18.27C23.65 18.56 22.98 19.11 22.53 19.51C22.07 19.91 21.27 20.76 20.73 21.37C20.19 21.99 19.42 22.98 19.03 23.58C18.63 24.17 17.96 25.35 17.53 26.19C17.12 27.03 16.59 28.3 16.35 28.99C16.13 29.68 15.82 30.81 15.69 31.5C15.54 32.19 15.38 33.28 15.33 33.92C15.27 34.54 15.23 35.11 15.27 35.17C15.3 35.23 16.18 35.27 19.88 35.27L19.93 34.68C19.96 34.36 20.03 33.74 20.09 33.32C20.16 32.9 20.33 32.05 20.5 31.42C20.66 30.8 20.95 29.91 21.15 29.42C21.35 28.94 21.64 28.3 21.79 27.99C21.95 27.68 22.31 27.05 22.6 26.6C22.88 26.15 23.33 25.51 23.6 25.17C23.86 24.83 24.45 24.16 24.9 23.69C25.36 23.22 26.05 22.57 26.46 22.24C26.85 21.93 27.58 21.4 28.06 21.08C28.55 20.78 29.48 20.26 30.14 19.95C30.79 19.64 31.74 19.25 32.26 19.07C32.77 18.91 33.7 18.67 34.33 18.54C35.34 18.32 35.74 18.29 37.86 18.29C39.92 18.29 40.39 18.32 41.33 18.52C41.93 18.64 42.86 18.89 43.4 19.06C43.94 19.24 44.93 19.64 45.58 19.95C46.23 20.26 47.16 20.78 47.65 21.08C48.14 21.4 48.88 21.95 49.31 22.29C49.73 22.64 50.44 23.3 50.86 23.74C51.29 24.19 51.86 24.83 52.12 25.17C52.39 25.51 52.84 26.17 53.15 26.65C53.46 27.14 53.89 27.95 54.13 28.45C54.37 28.95 54.69 29.72 54.83 30.14C54.98 30.56 55.19 31.28 55.3 31.73C55.41 32.18 55.57 32.92 55.64 33.37C55.71 33.83 55.78 35 55.78 35.99C55.78 36.97 55.71 38.15 55.64 38.61C55.57 39.06 55.41 39.8 55.3 40.25C55.19 40.7 54.98 41.42 54.83 41.84C54.69 42.26 54.33 43.11 54.03 43.74C53.72 44.36 53.21 45.25 52.89 45.74C52.55 46.22 52.03 46.93 51.7 47.32C51.38 47.71 50.7 48.42 50.18 48.91C49.66 49.39 48.8 50.1 48.26 50.49C47.72 50.86 46.64 51.49 45.84 51.89C45.04 52.28 43.96 52.73 43.45 52.9C42.94 53.07 42 53.31 41.38 53.44C40.38 53.66 39.97 53.69 37.86 53.69C35.74 53.69 35.35 53.66 34.33 53.44C33.7 53.31 32.77 53.07 32.26 52.91C31.74 52.74 30.68 52.28 29.88 51.89C29.08 51.5 27.98 50.86 27.44 50.49C26.9 50.1 25.92 49.25 25.26 48.61C24.59 47.96 23.76 47.04 23.4 46.56C23.05 46.07 22.51 45.24 22.2 44.71C21.9 44.18 21.45 43.27 21.22 42.71C20.99 42.15 20.66 41.18 20.5 40.56C20.33 39.93 20.15 39.06 20.09 38.61C20.03 38.15 19.96 37.57 19.88 36.81L14.85 36.81C11.46 36.81 9.73 36.77 9.53 36.7C9.38 36.64 9.2 36.51 9.13 36.42C9.06 36.32 9 36.13 9 35.99C9 35.85 9.09 35.63 9.2 35.5C9.41 35.28 9.46 35.27 13.66 35.27L13.72 34.47C13.75 34.04 13.85 33.18 13.93 32.55C14.01 31.93 14.13 31.25 14.28 30.66L12.05 30.66C10.68 30.66 9.71 30.61 9.53 30.54C9.38 30.48 9.2 30.36 9.13 30.27C9.06 30.16 9.01 29.98 9.01 29.83C9.01 29.69 9.07 29.49 9.16 29.37C9.31 29.18 9.47 29.17 14.63 29.07L15.08 27.89C15.32 27.24 15.75 26.23 16.04 25.65C16.32 25.07 16.56 24.58 16.56 24.55C16.56 24.52 15.05 24.5 13.19 24.5C11 24.5 9.72 24.46 9.53 24.39C9.38 24.33 9.2 24.2 9.13 24.11C9.06 24.01 9 23.82 9 23.68C9 23.54 9.09 23.32 9.41 22.96L17.54 22.96L17.69 22.74C17.77 22.6 18.15 22.09 18.53 21.58C18.91 21.06 19.71 20.15 20.3 19.54C20.89 18.92 21.83 18.05 22.36 17.6C22.9 17.16 23.91 16.42 24.59 15.97C25.28 15.51 26.4 14.88 27.08 14.55C27.76 14.21 28.74 13.79 29.26 13.6C29.76 13.4 30.6 13.12 31.12 12.98C31.63 12.84 32.41 12.64 32.83 12.56C33.26 12.47 34.24 12.3 35.01 12.2C35.77 12.1 36.98 12.01 37.67 12L37.68 12ZM34.03 20.18C33.58 20.29 32.74 20.55 32.17 20.76C31.6 20.96 30.74 21.34 30.25 21.6C29.76 21.85 29.09 22.25 28.75 22.48C28.41 22.71 27.75 23.2 27.3 23.58C26.84 23.95 26.16 24.6 25.76 25.02C25.38 25.44 24.8 26.15 24.47 26.6C24.15 27.05 23.61 27.93 23.29 28.55C22.97 29.18 22.54 30.16 22.33 30.76C22.14 31.35 21.87 32.32 21.74 32.91C21.55 33.82 21.5 34.31 21.5 35.99C21.5 37.67 21.55 38.16 21.74 39.07C21.87 39.66 22.13 40.61 22.31 41.17C22.51 41.73 22.87 42.63 23.14 43.15C23.4 43.66 23.82 44.4 24.06 44.78C24.31 45.17 24.74 45.76 25.02 46.09C25.29 46.43 25.75 46.96 26.04 47.25C26.33 47.56 26.92 48.1 27.35 48.44C27.77 48.8 28.5 49.34 28.96 49.63C29.41 49.92 30.2 50.36 30.72 50.61C31.23 50.85 32.04 51.18 32.53 51.36C33.02 51.52 33.9 51.77 34.5 51.9C35.46 52.12 35.85 52.15 37.87 52.15C39.89 52.15 40.27 52.12 41.24 51.9C41.84 51.77 42.72 51.52 43.21 51.36C43.69 51.18 44.5 50.85 45.02 50.61C45.53 50.36 46.33 49.92 46.78 49.63C47.24 49.34 47.96 48.8 48.39 48.45C48.81 48.1 49.42 47.54 49.73 47.21C50.06 46.87 50.48 46.4 50.69 46.15C50.89 45.89 51.29 45.34 51.58 44.91C51.86 44.49 52.3 43.72 52.55 43.22C52.81 42.72 53.15 41.95 53.3 41.53C53.46 41.11 53.67 40.39 53.79 39.94C53.91 39.49 54.07 38.64 54.15 38.04C54.22 37.45 54.29 36.52 54.29 35.99C54.29 35.46 54.22 34.53 54.15 33.94C54.07 33.34 53.91 32.49 53.79 32.04C53.67 31.59 53.46 30.87 53.3 30.45C53.15 30.03 52.82 29.28 52.57 28.78C52.33 28.29 51.92 27.58 51.67 27.19C51.42 26.81 51 26.22 50.72 25.89C50.45 25.55 49.98 25.02 49.69 24.73C49.4 24.42 48.81 23.88 48.39 23.54C47.96 23.18 47.33 22.71 46.99 22.48C46.65 22.25 45.97 21.85 45.49 21.6C45 21.34 44.14 20.96 43.57 20.76C43 20.54 42.04 20.26 41.44 20.12C40.51 19.9 40.06 19.86 38.23 19.83C37.06 19.81 35.83 19.83 35.48 19.89C35.14 19.95 34.49 20.08 34.03 20.18ZM37.99 21.34C38.61 21.37 38.8 21.42 39.17 21.68C39.45 21.87 39.72 22.19 40.21 23.12L40.2 32.86L41.08 33.72L48.16 33.78L48.61 34.09C48.88 34.29 49.15 34.6 49.34 34.96C49.54 35.33 49.64 35.68 49.64 35.99C49.64 36.3 49.54 36.65 49.34 37.02C49.16 37.36 48.9 37.69 48.64 37.86C48.42 38.02 47.97 38.19 47.66 38.25C47.35 38.31 45.71 38.35 40.98 38.36L40.51 38.78C40.25 39.02 39.79 39.33 39.47 39.48C38.99 39.69 38.76 39.73 37.87 39.73C36.91 39.73 36.77 39.7 36.16 39.42C35.71 39.2 35.32 38.9 34.99 38.54C34.71 38.23 34.4 37.73 34.03 36.8L28.92 36.81C25.47 36.81 23.73 36.77 23.54 36.7C23.38 36.64 23.2 36.51 23.13 36.42C23.06 36.32 23 36.13 23 35.99C23 35.85 23.09 35.63 23.41 35.27L33.98 35.27L34.14 34.88C34.23 34.68 34.38 34.35 34.48 34.15C34.57 33.96 34.85 33.58 35.54 32.81L35.54 27.99C35.54 23.85 35.56 23.12 35.7 22.78C35.79 22.57 35.96 22.26 36.1 22.09C36.22 21.92 36.53 21.68 36.79 21.55C37.16 21.35 37.38 21.31 37.99 21.34ZM37.09 27.75L37.09 32.19L38.65 32.19C38.65 23.45 38.65 23.31 38.44 23.08C38.3 22.93 38.12 22.86 37.87 22.86C37.64 22.86 37.44 22.94 37.3 23.08C37.09 23.3 37.08 23.39 37.09 27.75ZM36.03 34.59C35.87 34.83 35.68 35.18 35.62 35.37C35.56 35.57 35.53 35.94 35.56 36.2C35.58 36.45 35.72 36.87 35.88 37.14C36.03 37.42 36.34 37.75 36.59 37.91C36.98 38.16 37.12 38.2 37.88 38.2C38.66 38.2 38.77 38.16 39.17 37.89C39.45 37.69 39.72 37.37 39.91 37.02C40.11 36.65 40.21 36.3 40.21 35.99C40.21 35.68 40.11 35.33 39.91 34.96C39.72 34.6 39.45 34.29 39.17 34.09C38.8 33.84 38.61 33.78 37.99 33.75C37.39 33.73 37.15 33.76 36.78 33.95C36.52 34.08 36.2 34.35 36.03 34.59ZM41.73 36.76C45.64 36.81 46.98 36.79 47.22 36.76C47.5 36.73 47.74 36.62 47.87 36.47C47.98 36.35 48.08 36.13 48.08 35.99C48.08 35.85 47.98 35.63 47.87 35.5C47.66 35.27 47.64 35.27 44.68 35.27L41.7 35.27L41.73 36.76ZM30.83 23.17C31.07 23.17 31.25 23.24 31.39 23.39C31.51 23.53 31.6 23.73 31.6 23.85C31.6 23.99 31.55 24.18 31.49 24.3C31.43 24.41 31.27 24.55 31.1 24.6C30.91 24.68 30.74 24.68 30.56 24.61C30.42 24.55 30.24 24.39 30.17 24.24C30.11 24.1 30.03 23.93 30.03 23.84C30.02 23.77 30.13 23.59 30.25 23.43C30.41 23.24 30.57 23.17 30.83 23.17ZM44.93 23.17C45.19 23.17 45.33 23.24 45.49 23.44C45.6 23.61 45.7 23.82 45.7 23.94C45.7 24.05 45.61 24.25 45.5 24.4C45.35 24.59 45.2 24.65 44.92 24.65C44.64 24.65 44.48 24.59 44.34 24.4C44.22 24.25 44.13 24.04 44.12 23.93C44.12 23.8 44.22 23.59 44.35 23.43C44.5 23.24 44.67 23.17 44.93 23.17ZM25.77 28.23C25.93 28.28 26.14 28.41 26.24 28.53C26.34 28.65 26.43 28.88 26.42 29.03C26.42 29.2 26.32 29.41 26.21 29.53C26.08 29.65 25.87 29.73 25.64 29.73C25.36 29.73 25.22 29.66 25.07 29.45C24.94 29.29 24.86 29.09 24.86 28.98C24.87 28.88 25.02 28.65 25.19 28.48C25.43 28.23 25.56 28.18 25.77 28.23ZM50.1 28.3C50.38 28.3 50.51 28.37 50.67 28.57C50.78 28.74 50.89 28.93 50.89 29.01C50.89 29.1 50.78 29.29 50.67 29.45C50.51 29.66 50.38 29.73 50.1 29.73C49.87 29.73 49.65 29.65 49.53 29.53C49.41 29.41 49.32 29.19 49.32 29.01C49.32 28.84 49.41 28.61 49.53 28.5C49.65 28.38 49.87 28.3 50.1 28.3ZM51.96 35.27C52.21 35.27 52.4 35.34 52.53 35.5C52.65 35.63 52.74 35.85 52.74 35.99C52.74 36.13 52.65 36.35 52.53 36.47C52.4 36.64 52.21 36.71 51.96 36.71C51.71 36.71 51.53 36.64 51.39 36.47C51.28 36.35 51.18 36.12 51.18 35.98C51.18 35.84 51.27 35.62 51.39 35.5C51.53 35.35 51.73 35.27 51.96 35.27ZM25.63 42.25C25.8 42.25 26.05 42.32 26.18 42.4C26.35 42.51 26.42 42.66 26.42 42.93C26.43 43.2 26.35 43.39 26.2 43.53C26.07 43.64 25.85 43.74 25.68 43.74C25.51 43.74 25.29 43.63 25.15 43.5C25.02 43.37 24.91 43.14 24.91 42.98C24.91 42.81 25 42.59 25.11 42.46C25.22 42.33 25.43 42.25 25.63 42.25ZM50.1 42.25C50.38 42.25 50.51 42.32 50.67 42.52C50.78 42.69 50.89 42.88 50.89 42.97C50.89 43.05 50.78 43.24 50.67 43.4C50.51 43.61 50.38 43.68 50.1 43.68C49.87 43.68 49.65 43.6 49.53 43.48C49.41 43.37 49.32 43.14 49.32 42.97C49.32 42.79 49.41 42.57 49.53 42.45C49.65 42.33 49.87 42.25 50.1 42.25ZM30.79 47.27C30.84 47.27 31 47.34 31.15 47.42C31.32 47.49 31.47 47.63 31.52 47.73C31.57 47.82 31.6 47.99 31.6 48.12C31.6 48.25 31.49 48.45 31.36 48.59C31.21 48.73 31.01 48.81 30.79 48.81C30.55 48.81 30.4 48.74 30.25 48.53C30.13 48.37 30.03 48.16 30.03 48.04C30.04 47.93 30.1 47.77 30.17 47.67C30.24 47.58 30.4 47.46 30.51 47.4C30.62 47.34 30.75 47.27 30.79 47.27ZM45.07 47.34C45.22 47.37 45.41 47.49 45.52 47.61C45.62 47.74 45.7 47.93 45.7 48.04C45.7 48.16 45.6 48.37 45.49 48.53C45.33 48.74 45.2 48.81 44.92 48.81C44.64 48.81 44.5 48.74 44.35 48.53C44.22 48.37 44.13 48.17 44.14 48.06C44.14 47.97 44.19 47.8 44.26 47.67C44.34 47.56 44.48 47.43 44.6 47.38C44.72 47.33 44.93 47.31 45.07 47.34ZM37.87 49.22C38.12 49.22 38.3 49.3 38.44 49.45C38.55 49.58 38.65 49.8 38.65 49.94C38.65 50.09 38.55 50.3 38.44 50.42C38.3 50.59 38.12 50.66 37.87 50.66C37.62 50.66 37.43 50.59 37.3 50.42C37.18 50.3 37.08 50.07 37.08 49.93C37.08 49.79 37.17 49.57 37.3 49.45C37.43 49.31 37.64 49.22 37.87 49.22ZM37.87 35.27C38.12 35.27 38.3 35.34 38.44 35.5C38.55 35.63 38.65 35.85 38.65 35.99C38.65 36.13 38.55 36.35 38.44 36.47C38.3 36.64 38.12 36.71 37.87 36.71C37.62 36.71 37.43 36.64 37.3 36.47C37.18 36.35 37.08 36.12 37.08 35.98C37.08 35.84 37.17 35.62 37.3 35.5C37.43 35.35 37.64 35.27 37.87 35.27Z" fill="#FFFFFF" fill-opacity="1.000000" fill-rule="evenodd"/>
</svg>
