<svg width="71.000000" height="71.000000" viewBox="0 0 71 71" fill="none" xmlns="http://www.w3.org/2000/svg" xmlns:xlink="http://www.w3.org/1999/xlink">
	<desc>
			Created with Pixso.
	</desc>
	<defs/>
	<circle id="Ellipse 7" cx="35.500000" cy="35.500000" r="35.500000" fill="#F08B71" fill-opacity="1.000000"/>
	<path id="Vector" d="M14.62 14C14.87 14 15.19 14.29 17.74 16.83C19.32 18.39 20.6 19.73 20.6 19.81C20.6 19.89 20.55 20.05 20.5 20.17C20.44 20.29 20.3 20.42 20.18 20.47C20.05 20.52 19.89 20.53 19.76 20.47C19.64 20.43 18.3 19.15 16.78 17.63C14.62 15.49 14 14.83 14 14.66C13.99 14.53 14.07 14.34 14.17 14.21C14.3 14.06 14.44 14 14.62 14L14.62 14ZM23.14 14C23.26 14 23.44 14.08 23.54 14.18C23.66 14.31 23.85 14.86 24.54 17.35L24.36 17.58C24.24 17.75 24.1 17.82 23.88 17.83C23.68 17.85 23.52 17.81 23.41 17.71C23.33 17.62 23.09 16.95 22.86 16.09C22.52 14.83 22.48 14.59 22.56 14.4C22.61 14.28 22.72 14.14 22.8 14.09C22.87 14.04 23.03 14 23.14 14L23.14 14ZM47.85 14C47.96 14 48.14 14.05 48.24 14.1C48.33 14.17 48.43 14.31 48.46 14.42C48.51 14.56 48.4 15.11 48.11 16.14C47.83 17.15 47.64 17.68 47.54 17.76C47.46 17.82 47.26 17.86 47.1 17.84C46.91 17.82 46.75 17.74 46.46 17.35L46.86 15.86C47.13 14.91 47.34 14.31 47.46 14.18C47.55 14.08 47.73 14 47.85 14L47.85 14ZM56.38 14C56.58 14 56.7 14.05 56.83 14.22C56.93 14.36 56.99 14.55 56.99 14.67C56.99 14.83 56.35 15.52 54.22 17.63C52.7 19.15 51.36 20.43 51.24 20.47C51.1 20.53 50.95 20.52 50.82 20.47C50.7 20.42 50.55 20.29 50.5 20.17C50.44 20.05 50.39 19.89 50.38 19.82C50.36 19.72 51.4 18.63 53.23 16.83C55.83 14.26 56.13 14 56.38 14ZM14.64 22.39C14.78 22.39 15.49 22.55 16.21 22.75C17.02 22.96 17.61 23.17 17.72 23.28C17.84 23.38 17.91 23.54 17.9 23.71C17.9 23.89 17.83 24.05 17.71 24.16C17.6 24.25 17.44 24.33 17.35 24.33C17.25 24.33 16.55 24.15 15.78 23.95C14.7 23.65 14.34 23.52 14.2 23.36C14.09 23.24 14 23.09 14 23.02C14 22.96 14.05 22.81 14.1 22.7C14.16 22.6 14.24 22.49 14.29 22.46C14.34 22.43 14.5 22.39 14.64 22.39ZM56.32 22.4C56.51 22.4 56.68 22.46 56.81 22.59C56.91 22.69 56.99 22.86 56.99 22.96C56.99 23.07 56.91 23.24 56.81 23.36C56.66 23.52 56.3 23.65 55.22 23.95C54.45 24.15 53.74 24.33 53.65 24.33C53.56 24.33 53.4 24.25 53.3 24.16C53.17 24.05 53.1 23.89 53.1 23.71C53.09 23.54 53.16 23.38 53.28 23.28C53.39 23.17 53.98 22.96 54.74 22.75C55.45 22.56 56.16 22.4 56.32 22.4ZM17.3 46.67C17.42 46.66 17.6 46.74 17.71 46.83C17.83 46.94 17.9 47.1 17.9 47.27C17.91 47.45 17.84 47.61 17.72 47.71C17.61 47.82 17.02 48.03 16.21 48.24C15.49 48.44 14.77 48.6 14.62 48.6C14.44 48.6 14.28 48.53 14.17 48.4C14.08 48.3 14 48.13 14 48.03C14 47.92 14.09 47.75 14.2 47.63C14.34 47.47 14.7 47.34 15.74 47.05C16.48 46.85 17.19 46.67 17.3 46.67ZM53.64 46.66C53.74 46.66 54.45 46.84 55.22 47.04C56.3 47.34 56.66 47.47 56.81 47.63C56.91 47.75 56.99 47.91 56.99 47.98C57 48.07 56.93 48.24 56.83 48.36C56.7 48.54 56.58 48.6 56.39 48.6C56.23 48.6 55.51 48.44 54.79 48.24C53.98 48.03 53.39 47.82 53.28 47.71C53.17 47.61 53.09 47.44 53.08 47.28C53.08 47.08 53.14 46.96 53.27 46.83C53.38 46.74 53.55 46.66 53.64 46.66ZM19.95 50.45C19.99 50.44 20.1 50.49 20.21 50.53C20.31 50.58 20.44 50.7 20.5 50.82C20.55 50.94 20.6 51.1 20.6 51.17C20.6 51.26 19.32 52.6 17.74 54.16C15.16 56.73 14.87 57 14.62 57C14.42 57 14.3 56.94 14.17 56.76C14.07 56.63 14 56.44 14 56.32C14 56.16 14.66 55.47 16.77 53.35C18.29 51.82 19.61 50.55 19.71 50.52C19.81 50.49 19.91 50.45 19.95 50.45ZM51.16 50.49C51.29 50.52 52.39 51.55 54.18 53.32C56.34 55.48 56.99 56.16 56.99 56.32C56.99 56.44 56.93 56.63 56.83 56.76C56.7 56.94 56.58 57 56.39 57C56.13 57 55.84 56.73 53.25 54.16C51.68 52.6 50.39 51.26 50.39 51.17C50.39 51.1 50.44 50.94 50.5 50.82C50.55 50.7 50.68 50.58 50.77 50.53C50.87 50.49 51.04 50.47 51.16 50.49ZM23.88 53.15C24.09 53.17 24.24 53.24 24.54 53.64L24.13 55.13C23.85 56.13 23.66 56.68 23.54 56.81C23.44 56.91 23.27 57 23.17 57C23.06 57 22.9 56.95 22.81 56.91C22.71 56.86 22.59 56.73 22.55 56.59C22.48 56.41 22.53 56.1 22.86 54.9C23.11 54.01 23.33 53.37 23.42 53.27C23.52 53.17 23.68 53.13 23.88 53.15ZM47.12 53.13C47.27 53.13 47.46 53.17 47.54 53.23C47.64 53.31 47.83 53.83 48.11 54.85C48.4 55.88 48.51 56.43 48.46 56.57C48.43 56.68 48.33 56.82 48.24 56.89C48.14 56.94 47.97 57 47.85 57C47.74 57 47.56 56.91 47.46 56.81C47.34 56.68 47.15 56.15 46.89 55.19C46.68 54.4 46.5 53.72 46.49 53.67C46.48 53.62 46.57 53.48 46.67 53.35C46.8 53.2 46.93 53.13 47.12 53.13ZM35.46 18.03C35.74 18.03 36.18 18.09 36.46 18.15C36.72 18.22 37.12 18.37 37.34 18.48C37.56 18.59 38.01 18.92 38.33 19.21C38.66 19.5 39.1 19.81 39.31 19.9C39.52 19.99 39.9 20.08 40.15 20.1C40.43 20.13 40.82 20.09 41.13 20.01C41.41 19.94 41.95 19.87 42.34 19.87C42.77 19.87 43.22 19.93 43.52 20.03C43.78 20.11 44.21 20.3 44.46 20.46C44.72 20.62 45.07 20.92 45.26 21.13C45.43 21.34 45.7 21.72 45.82 21.97C45.95 22.23 46.1 22.6 46.16 22.81C46.22 23.02 46.35 23.36 46.46 23.57C46.56 23.78 46.79 24.07 46.96 24.22C47.13 24.37 47.39 24.55 47.54 24.63C47.69 24.7 48.09 24.85 48.43 24.96C48.76 25.07 49.24 25.29 49.49 25.44C49.72 25.6 50.06 25.87 50.22 26.06C50.39 26.23 50.63 26.55 50.75 26.76C50.88 26.97 51.03 27.35 51.1 27.6C51.18 27.86 51.24 28.36 51.24 28.73C51.24 29.1 51.17 29.63 51.1 29.91C51.02 30.21 50.99 30.6 51.01 30.88C51.03 31.13 51.12 31.51 51.21 31.72C51.31 31.93 51.6 32.35 51.88 32.65C52.15 32.95 52.48 33.39 52.61 33.61C52.74 33.84 52.9 34.25 52.97 34.53C53.04 34.81 53.1 35.24 53.1 35.5C53.1 35.75 53.04 36.18 52.97 36.46C52.9 36.74 52.74 37.15 52.61 37.38C52.48 37.6 52.15 38.04 51.88 38.34C51.6 38.64 51.31 39.06 51.21 39.27C51.12 39.48 51.03 39.84 51 40.07C50.98 40.33 51.02 40.74 51.11 41.12C51.22 41.58 51.25 41.95 51.22 42.51C51.2 42.99 51.11 43.43 51 43.73C50.9 43.98 50.64 44.41 50.42 44.68C50.2 44.96 49.8 45.32 49.55 45.5C49.29 45.67 48.82 45.9 48.49 46C48.17 46.1 47.73 46.27 47.52 46.38C47.3 46.48 47.02 46.69 46.87 46.85C46.72 47 46.53 47.28 46.43 47.46C46.34 47.65 46.22 47.97 46.16 48.18C46.1 48.39 45.96 48.74 45.85 48.97C45.73 49.2 45.51 49.55 45.37 49.72C45.22 49.91 44.88 50.23 44.6 50.43C44.3 50.64 43.86 50.86 43.54 50.96C43.18 51.06 42.75 51.12 42.31 51.12C41.94 51.12 41.41 51.05 41.13 50.98C40.82 50.9 40.43 50.86 40.15 50.89C39.9 50.91 39.52 51 39.31 51.09C39.1 51.18 38.67 51.48 38.37 51.75C38.06 52.02 37.62 52.35 37.39 52.48C37.17 52.6 36.75 52.76 36.47 52.83C36.19 52.9 35.75 52.96 35.5 52.96C35.25 52.96 34.81 52.9 34.53 52.83C34.25 52.76 33.85 52.61 33.64 52.49C33.43 52.38 32.99 52.06 32.66 51.77C32.34 51.49 31.9 51.18 31.69 51.09C31.48 51 31.1 50.91 30.84 50.89C30.57 50.86 30.18 50.9 29.87 50.98C29.59 51.05 29.05 51.12 28.67 51.12C28.23 51.12 27.78 51.06 27.49 50.97C27.21 50.88 26.79 50.69 26.54 50.53C26.28 50.37 25.93 50.07 25.74 49.86C25.56 49.65 25.3 49.27 25.17 49.02C25.05 48.76 24.9 48.39 24.84 48.18C24.78 47.97 24.66 47.66 24.57 47.48C24.49 47.31 24.29 47.03 24.14 46.87C23.99 46.7 23.69 46.47 23.48 46.37C23.27 46.26 22.93 46.14 22.72 46.08C22.51 46.02 22.13 45.87 21.87 45.74C21.62 45.62 21.24 45.35 21.03 45.18C20.82 44.99 20.51 44.64 20.35 44.39C20.19 44.14 20 43.72 19.91 43.45C19.82 43.15 19.76 42.71 19.76 42.27C19.76 41.89 19.83 41.36 19.89 41.08C19.98 40.78 20.01 40.39 19.99 40.11C19.97 39.86 19.88 39.48 19.78 39.27C19.69 39.06 19.39 38.64 19.12 38.34C18.84 38.04 18.51 37.6 18.39 37.38C18.26 37.15 18.1 36.74 18.03 36.46C17.96 36.18 17.9 35.75 17.9 35.5C17.9 35.24 17.96 34.81 18.03 34.53C18.1 34.25 18.26 33.84 18.39 33.61C18.51 33.39 18.84 32.95 19.12 32.65C19.39 32.35 19.69 31.93 19.78 31.72C19.88 31.51 19.97 31.13 19.99 30.88C20.01 30.6 19.98 30.21 19.89 29.91C19.83 29.63 19.76 29.1 19.76 28.71C19.76 28.28 19.82 27.84 19.91 27.53C20 27.27 20.19 26.85 20.35 26.6C20.51 26.35 20.82 26 21.03 25.81C21.24 25.64 21.62 25.37 21.87 25.25C22.13 25.12 22.55 24.96 22.81 24.89C23.06 24.81 23.47 24.63 23.69 24.48C23.93 24.33 24.24 24.03 24.37 23.82C24.51 23.61 24.73 23.13 24.86 22.75C24.99 22.37 25.18 21.91 25.3 21.72C25.42 21.54 25.66 21.23 25.83 21.04C26 20.86 26.34 20.58 26.57 20.44C26.81 20.29 27.21 20.11 27.49 20.03C27.78 19.93 28.23 19.87 28.67 19.87C29.05 19.87 29.59 19.94 29.87 20.01C30.18 20.09 30.57 20.13 30.84 20.1C31.1 20.08 31.48 19.99 31.69 19.9C31.9 19.81 32.33 19.51 32.63 19.24C32.93 18.97 33.38 18.64 33.6 18.51C33.83 18.39 34.23 18.23 34.48 18.16C34.74 18.09 35.18 18.03 35.46 18.03ZM34.06 19.71C33.9 19.82 33.55 20.1 33.3 20.34C33.05 20.57 32.62 20.86 32.37 20.98C32.11 21.1 31.7 21.24 31.46 21.29C31.22 21.34 30.81 21.39 30.57 21.39C30.33 21.39 29.91 21.33 29.66 21.26C29.41 21.19 28.93 21.13 28.6 21.13C28.11 21.13 27.92 21.18 27.5 21.38C27.22 21.51 26.87 21.76 26.72 21.92C26.57 22.09 26.38 22.37 26.28 22.54C26.2 22.71 26.1 22.99 26.06 23.15C26.03 23.31 25.89 23.69 25.75 23.99C25.58 24.35 25.33 24.71 24.98 25.06C24.63 25.4 24.27 25.65 23.91 25.82C23.6 25.95 23.22 26.1 23.06 26.13C22.9 26.16 22.62 26.27 22.45 26.35C22.27 26.44 21.99 26.63 21.82 26.78C21.65 26.93 21.41 27.28 21.27 27.56C21.07 27.97 21.03 28.16 21.03 28.65C21.03 28.97 21.09 29.45 21.16 29.7C21.22 29.95 21.28 30.36 21.28 30.6C21.28 30.84 21.24 31.25 21.19 31.48C21.14 31.72 21 32.11 20.9 32.35C20.79 32.57 20.45 33.05 20.14 33.4C19.83 33.74 19.5 34.19 19.39 34.4C19.25 34.7 19.21 34.93 19.21 35.5C19.21 36.06 19.25 36.29 19.39 36.59C19.5 36.8 19.83 37.25 20.14 37.59C20.45 37.94 20.79 38.41 20.9 38.64C21 38.87 21.14 39.27 21.19 39.5C21.24 39.74 21.28 40.15 21.28 40.38C21.28 40.63 21.22 41.04 21.16 41.29C21.09 41.54 21.03 42.01 21.03 42.34C21.03 42.84 21.06 43.01 21.3 43.47C21.47 43.79 21.71 44.12 21.92 44.28C22.1 44.42 22.37 44.6 22.51 44.67C22.65 44.73 22.94 44.83 23.17 44.89C23.39 44.94 23.77 45.09 24.02 45.2C24.25 45.33 24.68 45.66 24.97 45.94C25.26 46.23 25.58 46.64 25.7 46.87C25.82 47.1 25.98 47.52 26.05 47.8C26.13 48.08 26.28 48.45 26.39 48.64C26.5 48.82 26.72 49.08 26.88 49.22C27.04 49.35 27.36 49.55 27.59 49.65C27.9 49.81 28.16 49.86 28.6 49.86C28.93 49.86 29.41 49.8 29.66 49.73C29.91 49.66 30.33 49.6 30.57 49.6C30.81 49.6 31.22 49.65 31.46 49.7C31.7 49.75 32.11 49.89 32.36 50.02C32.61 50.13 33.09 50.47 33.42 50.76C33.75 51.06 34.19 51.38 34.4 51.48C34.7 51.62 34.93 51.66 35.5 51.66C36.07 51.66 36.3 51.62 36.6 51.48C36.81 51.38 37.27 51.04 37.61 50.74C37.96 50.43 38.44 50.09 38.67 49.98C38.91 49.88 39.3 49.75 39.54 49.7C39.78 49.65 40.19 49.6 40.43 49.6C40.67 49.6 41.08 49.66 41.34 49.73C41.59 49.8 42.07 49.86 42.4 49.86C42.84 49.86 43.1 49.81 43.41 49.65C43.65 49.55 43.96 49.35 44.12 49.22C44.28 49.08 44.5 48.82 44.61 48.64C44.72 48.45 44.87 48.08 44.94 47.8C45.02 47.52 45.2 47.08 45.34 46.8C45.49 46.53 45.82 46.11 46.08 45.87C46.33 45.63 46.74 45.34 46.97 45.22C47.2 45.1 47.62 44.94 47.9 44.87C48.18 44.79 48.56 44.64 48.74 44.53C48.93 44.42 49.19 44.2 49.33 44.05C49.46 43.89 49.67 43.57 49.77 43.35C49.92 43.04 49.97 42.78 49.97 42.34C49.97 42.01 49.91 41.54 49.84 41.29C49.78 41.04 49.72 40.6 49.72 40.32C49.72 40.05 49.77 39.63 49.83 39.4C49.89 39.17 50.02 38.81 50.12 38.6C50.22 38.39 50.55 37.94 50.86 37.59C51.16 37.25 51.5 36.8 51.6 36.59C51.75 36.29 51.79 36.06 51.79 35.5C51.79 34.93 51.75 34.7 51.6 34.4C51.5 34.19 51.16 33.74 50.86 33.4C50.55 33.05 50.21 32.57 50.1 32.35C50 32.11 49.86 31.72 49.81 31.48C49.76 31.25 49.72 30.84 49.72 30.6C49.72 30.36 49.78 29.95 49.84 29.7C49.91 29.45 49.97 28.97 49.97 28.65C49.97 28.21 49.92 27.95 49.77 27.64C49.67 27.41 49.46 27.1 49.33 26.94C49.19 26.79 48.93 26.57 48.74 26.46C48.56 26.35 48.18 26.2 47.9 26.12C47.62 26.05 47.2 25.89 46.97 25.77C46.74 25.65 46.31 25.33 46.03 25.05C45.74 24.76 45.42 24.34 45.3 24.12C45.18 23.88 45.02 23.47 44.94 23.19C44.87 22.91 44.72 22.54 44.61 22.35C44.5 22.17 44.28 21.91 44.12 21.77C43.96 21.64 43.65 21.44 43.41 21.34C43.1 21.18 42.84 21.13 42.4 21.13C42.07 21.13 41.59 21.19 41.34 21.26C41.08 21.33 40.67 21.39 40.43 21.39C40.19 21.39 39.78 21.34 39.54 21.29C39.3 21.24 38.91 21.11 38.67 21.01C38.44 20.9 37.96 20.56 37.61 20.25C37.27 19.95 36.81 19.61 36.6 19.51C36.35 19.4 36.01 19.33 35.63 19.31C35.3 19.3 34.88 19.34 34.7 19.4C34.51 19.45 34.22 19.6 34.06 19.71ZM33.92 21.81C34.04 21.81 34.21 21.83 34.29 21.86C34.37 21.91 34.48 22.04 34.53 22.18C34.59 22.34 34.61 22.51 34.56 22.65C34.52 22.76 34.4 22.9 34.3 22.96C34.19 23.01 33.72 23.12 33.26 23.19C32.79 23.28 32.01 23.47 31.52 23.63C31.03 23.79 30.19 24.14 29.66 24.42C29.13 24.69 28.4 25.12 28.05 25.38C27.71 25.64 27.12 26.15 26.76 26.5C26.38 26.85 25.85 27.44 25.56 27.81C25.28 28.18 24.95 28.63 24.83 28.82C24.7 29 24.43 29.51 24.21 29.93C24 30.36 23.71 31.04 23.57 31.44C23.43 31.85 23.24 32.56 23.14 33.02C22.98 33.71 22.94 34.13 22.94 35.37C22.93 36.51 22.97 37.08 23.09 37.72C23.18 38.18 23.36 38.9 23.5 39.32C23.63 39.73 23.91 40.43 24.13 40.87C24.34 41.31 24.75 42.03 25.04 42.47C25.34 42.9 25.92 43.62 26.33 44.05C26.74 44.49 27.48 45.14 27.97 45.51C28.48 45.89 29.28 46.38 29.87 46.66C30.43 46.94 31.23 47.28 31.65 47.41C32.07 47.54 32.79 47.72 33.26 47.81C33.87 47.92 34.49 47.97 35.5 47.97C36.51 47.97 37.13 47.92 37.74 47.81C38.21 47.72 38.94 47.54 39.35 47.4C39.77 47.27 40.48 46.99 40.92 46.78C41.36 46.57 42.1 46.15 42.57 45.84C43.12 45.48 43.75 44.95 44.39 44.32C45.03 43.68 45.56 43.05 45.93 42.51C46.24 42.05 46.66 41.31 46.87 40.87C47.08 40.43 47.35 39.79 47.47 39.44C47.58 39.1 47.75 38.42 47.85 37.93C47.96 37.44 48.06 36.6 48.08 36.04C48.11 35.46 48.09 34.66 48.03 34.15C47.97 33.66 47.84 32.91 47.73 32.47C47.62 32.03 47.44 31.43 47.32 31.13C47.21 30.83 46.95 30.26 46.75 29.87C46.55 29.47 46.3 29 46.17 28.82C46.05 28.63 45.74 28.2 45.48 27.85C45.21 27.51 44.62 26.86 44.17 26.42C43.7 25.99 43 25.42 42.61 25.16C42.21 24.9 41.53 24.5 41.11 24.29C40.68 24.08 39.97 23.79 39.54 23.64C39.11 23.5 38.28 23.29 37.7 23.18C37.12 23.07 36.6 22.94 36.54 22.88C36.48 22.82 36.41 22.65 36.38 22.52C36.33 22.31 36.36 22.23 36.57 22.02C36.8 21.79 36.83 21.78 37.36 21.84C37.67 21.88 38.37 22.02 38.93 22.16C39.49 22.3 40.31 22.56 40.75 22.74C41.19 22.92 41.9 23.26 42.31 23.49C42.73 23.72 43.41 24.17 43.83 24.48C44.25 24.79 44.9 25.34 45.27 25.71C45.65 26.08 46.18 26.68 46.47 27.05C46.75 27.42 47.15 27.99 47.35 28.31C47.55 28.63 47.87 29.24 48.07 29.66C48.26 30.07 48.52 30.72 48.64 31.09C48.76 31.46 48.92 32 49 32.3C49.07 32.61 49.19 33.24 49.26 33.73C49.32 34.22 49.38 35 49.38 35.47C49.38 35.95 49.32 36.76 49.25 37.28C49.18 37.8 49.03 38.59 48.91 39.02C48.79 39.46 48.56 40.16 48.39 40.58C48.23 40.99 47.94 41.62 47.75 41.96C47.56 42.31 47.18 42.93 46.89 43.35C46.58 43.8 45.94 44.54 45.27 45.2C44.59 45.88 43.89 46.49 43.41 46.81C43 47.08 42.36 47.46 42.02 47.66C41.67 47.84 41.02 48.13 40.58 48.3C40.14 48.48 39.36 48.72 38.84 48.85C38.33 48.98 37.47 49.13 36.94 49.18C36.35 49.25 35.54 49.28 34.91 49.24C34.32 49.22 33.53 49.13 33.13 49.07C32.73 49 32.07 48.84 31.65 48.72C31.23 48.6 30.49 48.34 30 48.13C29.51 47.92 28.81 47.57 28.46 47.35C28.09 47.14 27.56 46.79 27.27 46.58C26.98 46.38 26.27 45.73 25.68 45.15C25.05 44.53 24.41 43.8 24.11 43.35C23.82 42.93 23.44 42.31 23.25 41.96C23.06 41.62 22.76 40.97 22.59 40.53C22.42 40.1 22.17 39.32 22.04 38.81C21.91 38.3 21.76 37.45 21.71 36.92C21.64 36.31 21.61 35.55 21.65 34.82C21.68 34.2 21.78 33.33 21.87 32.89C21.96 32.45 22.15 31.72 22.3 31.25C22.45 30.79 22.73 30.07 22.93 29.66C23.13 29.24 23.45 28.63 23.65 28.31C23.85 27.99 24.24 27.44 24.5 27.1C24.76 26.75 25.26 26.18 25.61 25.83C25.95 25.48 26.52 24.97 26.87 24.69C27.21 24.43 27.82 24 28.22 23.76C28.62 23.53 29.26 23.18 29.66 23C30.06 22.81 30.74 22.55 31.18 22.41C31.62 22.28 32.27 22.1 32.62 22.02C32.97 21.96 33.35 21.88 33.47 21.86C33.59 21.84 33.78 21.82 33.92 21.81ZM41.51 28.33C41.72 28.36 42.02 28.44 42.18 28.52C42.35 28.61 42.96 29.16 43.56 29.76C44.2 30.4 44.68 30.96 44.77 31.14C44.83 31.32 44.89 31.67 44.89 31.9C44.89 32.15 44.83 32.49 44.73 32.68C44.63 32.9 43.6 33.98 41.75 35.81C39.42 38.12 38.88 38.6 38.7 38.6C38.55 38.6 38.38 38.52 38.25 38.39C38.12 38.27 38.04 38.09 38.04 37.95C38.04 37.76 38.53 37.23 40.83 34.95C43.44 32.36 43.62 32.16 43.62 31.88C43.61 31.62 43.51 31.48 42.61 30.58C41.69 29.67 41.58 29.57 41.3 29.57C41.01 29.58 40.77 29.8 37.38 33.17C33.99 36.53 33.75 36.75 33.47 36.75C33.2 36.75 33.04 36.62 31.65 35.24C30.27 33.87 30.1 33.73 29.83 33.73C29.57 33.73 29.43 33.84 28.46 34.8C27.49 35.76 27.38 35.9 27.38 36.17C27.38 36.44 27.55 36.64 29.81 38.88C31.15 40.22 32.39 41.37 32.56 41.47C32.76 41.57 33.05 41.63 33.34 41.63C33.6 41.63 33.93 41.57 34.09 41.49C34.23 41.42 34.8 40.93 35.33 40.4C36.17 39.59 36.35 39.45 36.58 39.44C36.74 39.44 36.92 39.51 37.02 39.61C37.12 39.71 37.19 39.9 37.19 40.05C37.19 40.29 37.06 40.46 36.12 41.39C35.36 42.14 34.91 42.51 34.61 42.64C34.31 42.78 33.98 42.84 33.47 42.87C32.88 42.89 32.66 42.87 32.24 42.72C31.77 42.54 31.55 42.35 29.08 39.91C27.33 38.2 26.37 37.18 26.27 36.96C26.17 36.76 26.11 36.44 26.11 36.17C26.11 35.89 26.17 35.57 26.27 35.37C26.36 35.17 26.91 34.55 27.64 33.85C28.59 32.92 28.93 32.64 29.19 32.56C29.38 32.51 29.67 32.47 29.83 32.47C29.99 32.47 30.28 32.52 30.46 32.57C30.73 32.65 31.1 32.97 33.48 35.29L36.84 31.96C38.68 30.12 40.29 28.57 40.41 28.52C40.53 28.46 40.74 28.38 40.87 28.35C41.02 28.31 41.3 28.31 41.51 28.33Z" fill="#FFFFFF" fill-opacity="1.000000" fill-rule="evenodd"/>
</svg>
