<svg width="71.000000" height="71.000000" viewBox="0 0 71 71" fill="none" xmlns="http://www.w3.org/2000/svg" xmlns:xlink="http://www.w3.org/1999/xlink">
	<desc>
			Created with Pixso.
	</desc>
	<defs/>
	<circle id="Ellipse 7" cx="35.500000" cy="35.500000" r="35.500000" fill="#F08B71" fill-opacity="1.000000"/>
	<path id="Vector" d="M34.94 8C35.55 8 35.79 8.05 36.34 8.3C36.7 8.46 37.17 8.78 37.39 8.99C37.61 9.19 37.91 9.6 38.04 9.87C38.23 10.24 38.32 10.59 38.34 11.14C38.37 11.75 38.33 12.03 38.14 12.51C37.98 12.93 37.74 13.29 37.37 13.64C37.01 13.99 36.64 14.22 35.72 14.55L35.78 16.58L36.62 16.64C37.09 16.68 37.63 16.78 37.83 16.86C38.03 16.94 38.4 17.16 38.64 17.33C38.89 17.5 39.26 17.89 39.46 18.18C39.69 18.52 39.88 18.96 39.99 19.42C40.09 19.89 40.23 20.2 40.38 20.34C40.51 20.47 41.71 21.19 45.45 23.34L45.76 23.04C45.93 22.87 46.2 22.68 46.36 22.63C46.53 22.57 46.84 22.52 47.05 22.52C47.27 22.52 47.63 22.62 47.85 22.75C48.07 22.87 48.35 23.14 48.45 23.33C48.57 23.52 48.65 23.82 48.65 23.99C48.65 24.16 48.59 24.47 48.34 25.06L50.14 26.1C51.14 26.67 52.11 27.27 52.28 27.44C52.46 27.62 52.7 28 52.82 28.31C52.97 28.67 53.02 28.97 52.98 29.16C52.94 29.32 52.79 29.55 52.64 29.65C52.5 29.75 52.3 29.84 52.19 29.83C52.1 29.83 51.94 29.8 51.85 29.76C51.75 29.71 51.6 29.56 51.53 29.4C51.45 29.24 51.38 29.04 51.38 28.95C51.38 28.84 51.3 28.68 51.2 28.58C51.04 28.42 50.8 28.4 46.81 28.41L45.56 31.18C44.88 32.69 44.03 34.49 43.66 35.16C43.31 35.83 42.75 36.8 41.83 38.21L42.07 38.48C42.19 38.62 42.63 39.13 43.04 39.6C43.45 40.06 44.2 40.99 44.7 41.66C45.21 42.33 45.65 42.99 45.68 43.13C45.71 43.3 45.66 43.48 45.53 43.64C45.39 43.81 45.21 43.91 44.94 43.92C44.65 43.94 44.5 43.89 44.35 43.71C44.23 43.59 43.65 42.85 43.04 42.07C42.44 41.29 41.59 40.26 41.15 39.78C40.71 39.31 40.3 38.76 40.24 38.56C40.16 38.33 40.16 38.12 40.23 37.95C40.28 37.81 40.66 37.16 41.07 36.5C41.49 35.85 42.08 34.83 42.39 34.22C42.71 33.62 43.86 31.13 44.97 28.68C46.07 26.25 46.95 24.21 46.92 24.16C46.89 24.12 46.79 24.16 46.72 24.24C46.64 24.33 45.35 25.66 43.87 27.19C42.38 28.72 40.9 30.19 40.57 30.44C40.25 30.69 39.65 31.07 39.25 31.27C38.84 31.48 38.08 31.77 37.57 31.92C36.71 32.18 36.48 32.21 35 32.21C33.51 32.21 33.28 32.18 32.42 31.92C31.91 31.77 31.15 31.48 30.74 31.27C30.34 31.07 29.74 30.69 29.42 30.44C29.09 30.19 27.61 28.72 26.12 27.19C24.64 25.66 23.36 24.33 23.27 24.24C23.2 24.16 23.1 24.12 23.07 24.16C23.04 24.21 23.92 26.25 25.03 28.68C26.13 31.13 27.28 33.62 27.6 34.22C27.91 34.83 28.5 35.85 28.92 36.5C29.33 37.16 29.71 37.81 29.76 37.95C29.83 38.12 29.83 38.33 29.75 38.56C29.69 38.76 29.28 39.31 28.84 39.78C28.4 40.26 27.58 41.25 27.01 41.97C26.45 42.69 25.73 43.67 25.41 44.15C25.1 44.63 24.61 45.43 24.3 45.93C24.01 46.42 23.46 47.46 23.09 48.21C22.72 48.96 22.23 50.06 21.99 50.65C21.76 51.24 21.4 52.24 21.19 52.88C20.99 53.52 20.55 55.05 19.6 58.47L21.97 58.46C24.19 58.46 24.35 58.48 24.62 58.67C24.84 58.82 24.91 58.97 24.91 59.2C24.91 59.4 24.82 59.63 24.67 59.77C24.44 59.99 24.42 60 21.67 59.99C19.05 59.99 18.91 59.98 18.63 59.78C18.47 59.67 18.26 59.44 18.17 59.3C18.06 59.15 17.98 58.88 17.98 58.69C17.98 58.52 18.31 57.19 18.71 55.75C19.12 54.32 19.63 52.64 19.84 52.02C20.04 51.4 20.45 50.33 20.73 49.63C21.01 48.93 21.59 47.7 22.01 46.89C22.43 46.08 23.11 44.87 23.53 44.2C23.95 43.53 24.68 42.46 25.15 41.82C25.62 41.19 26.39 40.23 26.85 39.7C27.32 39.17 27.8 38.61 28.15 38.21L27.57 37.29C27.24 36.8 26.69 35.83 26.33 35.16C25.96 34.49 25.11 32.69 23.18 28.41L21.08 28.41C19.23 28.41 18.95 28.44 18.79 28.59C18.68 28.68 18.6 28.84 18.61 28.94C18.61 29.04 18.54 29.24 18.46 29.39C18.39 29.56 18.24 29.71 18.14 29.75C18.05 29.8 17.88 29.83 17.77 29.83C17.65 29.83 17.43 29.72 17.26 29.59C17.03 29.39 16.98 29.26 17 28.95C17.01 28.73 17.14 28.33 17.28 28.05C17.42 27.77 17.69 27.42 17.89 27.28C18.08 27.14 19.01 26.58 21.65 25.06L21.5 24.67C21.4 24.47 21.34 24.16 21.34 23.99C21.34 23.82 21.42 23.52 21.54 23.33C21.64 23.14 21.92 22.87 22.14 22.75C22.36 22.62 22.72 22.52 22.93 22.52C23.16 22.52 23.46 22.57 23.62 22.63C23.79 22.68 24.05 22.87 24.54 23.34L26.91 21.98C28.21 21.23 29.39 20.48 29.53 20.32C29.68 20.16 29.9 19.7 30.03 19.32C30.15 18.93 30.39 18.4 30.56 18.15C30.74 17.9 31.03 17.57 31.22 17.43C31.42 17.29 31.79 17.05 32.05 16.93C32.37 16.77 32.79 16.68 34.15 16.58L34.15 15.33C34.15 14.45 34.2 13.99 34.31 13.73C34.41 13.51 34.6 13.33 34.81 13.24C35 13.15 35.27 13.06 35.42 13.03C35.56 13 35.84 12.88 36.04 12.75C36.24 12.62 36.48 12.35 36.59 12.16C36.7 11.96 36.78 11.6 36.78 11.32C36.78 11.05 36.72 10.72 36.63 10.55C36.55 10.4 36.35 10.16 36.18 10.01C36.02 9.85 35.76 9.68 35.59 9.63C35.44 9.57 35.15 9.52 34.96 9.52C34.79 9.52 34.43 9.61 34.18 9.72C33.92 9.84 33.61 10.1 33.44 10.32C33.28 10.54 33.04 10.78 32.89 10.84C32.69 10.93 32.56 10.93 32.32 10.82C32.15 10.75 31.96 10.57 31.91 10.43C31.85 10.29 31.84 10.07 31.88 9.92C31.91 9.78 32.16 9.43 32.44 9.12C32.77 8.78 33.18 8.48 33.58 8.29C34.08 8.06 34.35 8 34.94 8L34.94 8ZM32.13 18.74C31.85 18.99 31.68 19.29 31.56 19.67C31.48 19.98 31.29 20.44 31.16 20.69C31.03 20.94 30.72 21.33 30.47 21.55C30.22 21.78 29.03 22.53 27.83 23.23L25.65 24.5C26.42 25.29 26.95 25.82 27.33 26.2L28.01 26.88L41.98 26.88C43.04 25.82 43.57 25.29 43.84 25.01L44.35 24.5C40.64 22.33 39.42 21.56 39.24 21.38C39.05 21.2 38.84 20.91 38.75 20.74C38.66 20.57 38.54 20.18 38.47 19.88C38.4 19.57 38.24 19.16 38.12 18.96C37.98 18.77 37.66 18.51 37.4 18.38C36.97 18.17 36.8 18.15 35 18.16C33.92 18.16 32.94 18.21 32.79 18.26C32.64 18.32 32.35 18.54 32.13 18.74ZM21.81 26.86C21.93 26.88 22.13 26.88 22.26 26.86C22.47 26.83 22.48 26.81 22.37 26.66C22.24 26.5 22.21 26.5 21.92 26.66C21.64 26.8 21.63 26.83 21.81 26.86ZM47.92 26.88C48.15 26.88 48.34 26.86 48.34 26.83C48.35 26.81 48.2 26.72 48.03 26.63C47.74 26.49 47.71 26.49 47.6 26.68C47.51 26.86 47.53 26.88 47.92 26.88ZM30.24 29.12C30.57 29.4 31.18 29.79 31.58 29.98C31.99 30.16 32.62 30.41 33 30.5C33.48 30.63 34.06 30.68 35 30.68C35.93 30.68 36.51 30.63 36.99 30.5C37.37 30.41 38 30.16 38.41 29.98C38.82 29.79 39.42 29.4 39.75 29.12C40.08 28.84 40.35 28.57 40.35 28.51C40.35 28.44 38.49 28.41 35 28.41C31.5 28.41 29.64 28.44 29.64 28.51C29.64 28.57 29.91 28.84 30.25 29.12L30.24 29.12ZM46.67 45.37C46.8 45.37 47 45.43 47.12 45.5C47.23 45.58 47.64 46.25 48.03 47C48.41 47.75 48.97 48.93 49.25 49.63C49.54 50.33 49.94 51.4 50.14 52.02C50.35 52.64 50.86 54.32 51.27 55.76C51.67 57.19 52 58.52 52 58.7C52 58.88 51.92 59.15 51.81 59.3C51.72 59.44 51.51 59.67 51.06 59.99L39.4 59.99C32.98 59.99 27.66 59.96 27.57 59.92C27.47 59.87 27.33 59.7 27.24 59.54C27.12 59.28 27.11 59.18 27.23 58.94C27.31 58.77 27.45 58.6 27.55 58.56C27.65 58.51 32.83 58.47 50.38 58.46L49.58 55.6C49.13 54.02 48.55 52.13 48.27 51.41C48 50.69 47.6 49.7 47.38 49.23C47.16 48.75 46.75 47.9 46.45 47.33C46.15 46.75 45.91 46.19 45.91 46.08C45.92 45.96 46.04 45.75 46.17 45.62C46.31 45.48 46.53 45.37 46.67 45.37Z" fill="#FFFFFF" fill-opacity="1.000000" fill-rule="evenodd"/>
	<path id="Vector" d="M36.34 8.3C36.7 8.46 37.17 8.78 37.39 8.99C37.61 9.19 37.91 9.6 38.04 9.87C38.23 10.24 38.32 10.59 38.34 11.14C38.37 11.75 38.33 12.03 38.14 12.51C37.98 12.93 37.74 13.29 37.37 13.64C37.01 13.99 36.64 14.22 35.72 14.55L35.78 16.58L36.62 16.64C37.09 16.68 37.63 16.78 37.83 16.86C38.03 16.94 38.4 17.16 38.64 17.33C38.89 17.5 39.26 17.89 39.46 18.18C39.69 18.52 39.88 18.96 39.99 19.42C40.09 19.89 40.23 20.2 40.38 20.34C40.51 20.47 41.71 21.19 45.45 23.34L45.76 23.04C45.93 22.87 46.2 22.68 46.36 22.63C46.53 22.57 46.84 22.52 47.05 22.52C47.27 22.52 47.63 22.62 47.85 22.75C48.07 22.87 48.35 23.14 48.45 23.33C48.57 23.52 48.65 23.82 48.65 23.99C48.65 24.16 48.59 24.47 48.34 25.06L50.14 26.1C51.14 26.67 52.11 27.27 52.28 27.44C52.46 27.62 52.7 28 52.82 28.31C52.97 28.67 53.02 28.97 52.98 29.16C52.94 29.32 52.79 29.55 52.64 29.65C52.5 29.75 52.3 29.84 52.19 29.83C52.1 29.83 51.94 29.8 51.85 29.76C51.75 29.71 51.6 29.56 51.53 29.4C51.45 29.24 51.38 29.04 51.38 28.95C51.38 28.84 51.3 28.68 51.2 28.58C51.04 28.42 50.8 28.4 46.81 28.41L45.56 31.18C44.88 32.69 44.03 34.49 43.66 35.16C43.31 35.83 42.75 36.8 41.83 38.21L42.07 38.48C42.19 38.62 42.63 39.13 43.04 39.6C43.45 40.06 44.2 40.99 44.7 41.66C45.21 42.33 45.65 42.99 45.68 43.13C45.71 43.3 45.66 43.48 45.53 43.64C45.39 43.81 45.21 43.91 44.94 43.92C44.65 43.94 44.5 43.89 44.35 43.71C44.23 43.59 43.65 42.85 43.04 42.07C42.44 41.29 41.59 40.26 41.15 39.78C40.71 39.31 40.3 38.76 40.24 38.56C40.16 38.33 40.16 38.12 40.23 37.95C40.28 37.81 40.66 37.16 41.07 36.5C41.49 35.85 42.08 34.83 42.39 34.22C42.71 33.62 43.86 31.13 44.97 28.68C46.07 26.25 46.95 24.21 46.92 24.16C46.89 24.12 46.79 24.16 46.72 24.24C46.64 24.33 45.35 25.66 43.87 27.19C42.38 28.72 40.9 30.19 40.57 30.44C40.25 30.69 39.65 31.07 39.25 31.27C38.84 31.48 38.08 31.77 37.57 31.92C36.71 32.18 36.48 32.21 35 32.21C33.51 32.21 33.28 32.18 32.42 31.92C31.91 31.77 31.15 31.48 30.74 31.27C30.34 31.07 29.74 30.69 29.42 30.44C29.09 30.19 27.61 28.72 26.12 27.19C24.64 25.66 23.36 24.33 23.27 24.24C23.2 24.16 23.1 24.12 23.07 24.16C23.04 24.21 23.92 26.25 25.03 28.68C26.13 31.13 27.28 33.62 27.6 34.22C27.91 34.83 28.5 35.85 28.92 36.5C29.33 37.16 29.71 37.81 29.76 37.95C29.83 38.12 29.83 38.33 29.75 38.56C29.69 38.76 29.28 39.31 28.84 39.78C28.4 40.26 27.58 41.25 27.01 41.97C26.45 42.69 25.73 43.67 25.41 44.15C25.1 44.63 24.61 45.43 24.3 45.93C24.01 46.42 23.46 47.46 23.09 48.21C22.72 48.96 22.23 50.06 21.99 50.65C21.76 51.24 21.4 52.24 21.19 52.88C20.99 53.52 20.55 55.05 19.6 58.47L21.97 58.46C24.19 58.46 24.35 58.48 24.62 58.67C24.84 58.82 24.91 58.97 24.91 59.2C24.91 59.4 24.82 59.63 24.67 59.77C24.44 59.99 24.42 60 21.67 59.99C19.05 59.99 18.91 59.98 18.63 59.78C18.47 59.67 18.26 59.44 18.17 59.3C18.06 59.15 17.98 58.88 17.98 58.69C17.98 58.52 18.31 57.19 18.71 55.75C19.12 54.32 19.63 52.64 19.84 52.02C20.04 51.4 20.45 50.33 20.73 49.63C21.01 48.93 21.59 47.7 22.01 46.89C22.43 46.08 23.11 44.87 23.53 44.2C23.95 43.53 24.68 42.46 25.15 41.82C25.62 41.19 26.39 40.23 26.85 39.7C27.32 39.17 27.8 38.61 28.15 38.21L27.57 37.29C27.24 36.8 26.69 35.83 26.33 35.16C25.96 34.49 25.11 32.69 23.18 28.41L21.08 28.41C19.23 28.41 18.95 28.44 18.79 28.59C18.68 28.68 18.6 28.84 18.61 28.94C18.61 29.04 18.54 29.24 18.46 29.39C18.39 29.56 18.24 29.71 18.14 29.75C18.05 29.8 17.88 29.83 17.77 29.83C17.65 29.83 17.43 29.72 17.26 29.59C17.03 29.39 16.98 29.26 17 28.95C17.01 28.73 17.14 28.33 17.28 28.05C17.42 27.77 17.69 27.42 17.89 27.28C18.08 27.14 19.01 26.58 21.65 25.06L21.5 24.67C21.4 24.47 21.34 24.16 21.34 23.99C21.34 23.82 21.42 23.52 21.54 23.33C21.64 23.14 21.92 22.87 22.14 22.75C22.36 22.62 22.72 22.52 22.93 22.52C23.16 22.52 23.46 22.57 23.62 22.63C23.79 22.68 24.05 22.87 24.54 23.34L26.91 21.98C28.21 21.23 29.39 20.48 29.53 20.32C29.68 20.16 29.9 19.7 30.03 19.32C30.15 18.93 30.39 18.4 30.56 18.15C30.74 17.9 31.03 17.57 31.22 17.43C31.42 17.29 31.79 17.05 32.05 16.93C32.37 16.77 32.79 16.68 34.15 16.58L34.15 15.33C34.15 14.45 34.2 13.99 34.31 13.73C34.41 13.51 34.6 13.33 34.81 13.24C35 13.15 35.27 13.06 35.42 13.03C35.56 13 35.84 12.88 36.04 12.75C36.24 12.62 36.48 12.35 36.59 12.16C36.7 11.96 36.78 11.6 36.78 11.32C36.78 11.05 36.72 10.72 36.63 10.55C36.55 10.4 36.35 10.16 36.18 10.01C36.02 9.85 35.76 9.68 35.59 9.63C35.44 9.57 35.15 9.52 34.96 9.52C34.79 9.52 34.43 9.61 34.18 9.72C33.92 9.84 33.61 10.1 33.44 10.32C33.28 10.54 33.04 10.78 32.89 10.84C32.69 10.93 32.56 10.93 32.32 10.82C32.15 10.75 31.96 10.57 31.91 10.43C31.85 10.29 31.84 10.07 31.88 9.92C31.91 9.78 32.16 9.43 32.44 9.12C32.77 8.78 33.18 8.48 33.58 8.29C34.08 8.06 34.35 8 34.94 8L34.94 8C35.55 8 35.79 8.05 36.34 8.3ZM31.56 19.67C31.48 19.98 31.29 20.44 31.16 20.69C31.03 20.94 30.72 21.33 30.47 21.55C30.22 21.78 29.03 22.53 27.83 23.23L25.65 24.5C26.42 25.29 26.95 25.82 27.33 26.2L28.01 26.88L41.98 26.88C43.04 25.82 43.57 25.29 43.84 25.01L44.35 24.5C40.64 22.33 39.42 21.56 39.24 21.38C39.05 21.2 38.84 20.91 38.75 20.74C38.66 20.57 38.54 20.18 38.47 19.88C38.4 19.57 38.24 19.16 38.12 18.96C37.98 18.77 37.66 18.51 37.4 18.38C36.97 18.17 36.8 18.15 35 18.16C33.92 18.16 32.94 18.21 32.79 18.26C32.64 18.32 32.35 18.54 32.13 18.74C31.85 18.99 31.68 19.29 31.56 19.67ZM22.26 26.86C22.47 26.83 22.48 26.81 22.37 26.66C22.24 26.5 22.21 26.5 21.92 26.66C21.64 26.8 21.63 26.83 21.81 26.86C21.93 26.88 22.13 26.88 22.26 26.86ZM48.34 26.83C48.35 26.81 48.2 26.72 48.03 26.63C47.74 26.49 47.71 26.49 47.6 26.68C47.51 26.86 47.53 26.88 47.92 26.88C48.15 26.88 48.34 26.86 48.34 26.83ZM31.58 29.98C31.99 30.16 32.62 30.41 33 30.5C33.48 30.63 34.06 30.68 35 30.68C35.93 30.68 36.51 30.63 36.99 30.5C37.37 30.41 38 30.16 38.41 29.98C38.82 29.79 39.42 29.4 39.75 29.12C40.08 28.84 40.35 28.57 40.35 28.51C40.35 28.44 38.49 28.41 35 28.41C31.5 28.41 29.64 28.44 29.64 28.51C29.64 28.57 29.91 28.84 30.25 29.12L30.24 29.12C30.57 29.4 31.18 29.79 31.58 29.98ZM47.12 45.5C47.23 45.58 47.64 46.25 48.03 47C48.41 47.75 48.97 48.93 49.25 49.63C49.54 50.33 49.94 51.4 50.14 52.02C50.35 52.64 50.86 54.32 51.27 55.76C51.67 57.19 52 58.52 52 58.7C52 58.88 51.92 59.15 51.81 59.3C51.72 59.44 51.51 59.67 51.06 59.99L39.4 59.99C32.98 59.99 27.66 59.96 27.57 59.92C27.47 59.87 27.33 59.7 27.24 59.54C27.12 59.28 27.11 59.18 27.23 58.94C27.31 58.77 27.45 58.6 27.55 58.56C27.65 58.51 32.83 58.47 50.38 58.46L49.58 55.6C49.13 54.02 48.55 52.13 48.27 51.41C48 50.69 47.6 49.7 47.38 49.23C47.16 48.75 46.75 47.9 46.45 47.33C46.15 46.75 45.91 46.19 45.91 46.08C45.92 45.96 46.04 45.75 46.17 45.62C46.31 45.48 46.53 45.37 46.67 45.37C46.8 45.37 47 45.43 47.12 45.5Z" stroke="#000000" stroke-opacity="0" stroke-width="1.000000"/>
</svg>
