<?xml version="1.0" standalone="no"?>
  <!DOCTYPE svg PUBLIC "-//W3C//DTD SVG 1.1//EN" "http://www.w3.org/Graphics/SVG/1.1/DTD/svg11.dtd" >
  <svg>
  <metadata>
  Created by font-carrier
  </metadata>
  <defs>
  <font id="Ferry-Black" horiz-adv-x="1432" vert-adv-y="1432" >
    <font-face
      
      font-family="Ferry"
      
      font-weight="400"
      
      font-stretch="normal"
      
      units-per-em="1000"
      
      ascent="945"
      
      descent="-55"
      
    />
      <missing-glyph />

      

      
      <glyph glyph-name="uni21" unicode="&#x21;" d="M265 272L319 700L35 700L89 272ZM296 109C296 190 260 226 177 226C94 226 58 190 58 109C58 28 94-8 177-8C260-8 296 28 296 109Z"  horiz-adv-x="354" vert-adv-y="1000"  />

      
      <glyph glyph-name="uni22" unicode="&#x22;" d="M489 398L512 700L294 700L317 398ZM223 398L246 700L28 700L51 398Z"  horiz-adv-x="540" vert-adv-y="1000"  />

      
      <glyph glyph-name="uni23" unicode="&#x23;" d="M639 398L731 398L731 596L666 596L681 700L473 700L458 596L367 596L382 700L174 700L159 596L67 596L67 398L132 398L118 302L26 302L26 104L91 104L76 0L284 0L299 104L390 104L375 0L583 0L598 104L690 104L690 302L625 302ZM430 398L417 302L326 302L339 398Z"  horiz-adv-x="757" vert-adv-y="1000"  />

      
      <glyph glyph-name="uni24" unicode="&#x24;" d="M449-17C640-14 739 59 739 218C739 385 643 451 443 451L297 451C262 451 247 461 247 482C247 502 262 511 297 511L388 511C472 511 494 500 502 471L726 471C726 632 616 713 441 717L441 781L311 781L311 717C131 714 28 641 28 482C28 326 127 249 327 249L468 249C503 249 518 239 518 218C518 198 503 189 468 189L366 189C282 189 260 200 252 229L28 229C28 65 142-14 319-17L319-85L449-85L449-17Z"  horiz-adv-x="765" vert-adv-y="1000"  />

      
      <glyph glyph-name="uni25" unicode="&#x25;" d="M394 531C394 660 341 711 208 711C75 711 22 660 22 531C22 402 75 351 208 351C341 351 394 402 394 531ZM358 0L812 700L614 700L160 0ZM162 531C162 564 173 575 208 575C243 575 254 564 254 531C254 498 243 487 208 487C173 487 162 498 162 531ZM954 169C954 298 901 349 768 349C635 349 582 298 582 169C582 40 635-11 768-11C901-11 954 40 954 169ZM722 169C722 202 733 213 768 213C803 213 814 202 814 169C814 136 803 125 768 125C733 125 722 136 722 169Z"  horiz-adv-x="976" vert-adv-y="1000"  />

      
      <glyph glyph-name="uni26" unicode="&#x26;" d="M845 262L845 438L292 438C261 438 245 448 245 467C245 486 261 496 292 496L602 496L602 700L302 700C125 700 32 629 32 493C32 433 50 387 87 356C44 323 22 274 22 210C22 74 116 0 292 0L724 0L724 262ZM508 262L508 204L282 204C251 204 235 214 235 233C235 252 251 262 282 262Z"  horiz-adv-x="849" vert-adv-y="1000"  />

      
      <glyph glyph-name="uni27" unicode="&#x27;" d="M223 398L246 700L28 700L51 398Z"  horiz-adv-x="274" vert-adv-y="1000"  />

      
      <glyph glyph-name="uni28" unicode="&#x28;" d="M258 379C258 602 329 700 407 700L407 904C179 904 42 709 42 379L42 321C42-9 179-204 407-204L407 0C329 0 258 98 258 321L258 379Z"  horiz-adv-x="437" vert-adv-y="1000"  />

      
      <glyph glyph-name="uni29" unicode="&#x29;" d="M179 321C179 98 108 0 30 0L30-204C258-204 395-9 395 321L395 379C395 709 258 904 30 904L30 700C108 700 179 602 179 379Z"  horiz-adv-x="437" vert-adv-y="1000"  />

      
      <glyph glyph-name="uni2a" unicode="&#x2a;" d="M296 529L364 568L310 661L243 622L243 700L135 700L135 622L68 661L14 568L82 529L14 490L68 397L135 436L135 358L243 358L243 436L310 397L364 490Z"  horiz-adv-x="378" vert-adv-y="1000"  />

      
      <glyph glyph-name="uni2b" unicode="&#x2b;" d="M652 246L652 450L444 450L444 658L240 658L240 450L32 450L32 246L240 246L240 38L444 38L444 246Z"  horiz-adv-x="684" vert-adv-y="1000"  />

      
      <glyph glyph-name="uni2c" unicode="&#x2c;" d="M266 99C266 192 230 226 147 226C64 226 28 190 28 109C28 28 64-8 147-8L151-8C151-37 126-46 78-46L78-135L84-135C230-130 263-98 266 54L266 99Z"  horiz-adv-x="294" vert-adv-y="1000"  />

      
      <glyph glyph-name="uni2d" unicode="&#x2d;" d="M458 256L458 460L32 460L32 256Z"  horiz-adv-x="490" vert-adv-y="1000"  />

      
      <glyph glyph-name="uni2e" unicode="&#x2e;" d="M266 109C266 190 230 226 147 226C64 226 28 190 28 109C28 28 64-8 147-8C230-8 266 28 266 109Z"  horiz-adv-x="294" vert-adv-y="1000"  />

      
      <glyph glyph-name="uni2f" unicode="&#x2f;" d="M240 0L523 700L295 700L12 0Z"  horiz-adv-x="535" vert-adv-y="1000"  />

      
      <glyph glyph-name="uni30" unicode="&#x30;" d="M754 382C754 617 654 717 419 717L369 717C136 717 34 617 34 382L34 318C34 85 136-17 369-17L419-17C654-17 754 85 754 318ZM250 377C250 482 279 511 384 511L404 511C509 511 538 482 538 377L538 323C538 218 509 189 404 189L384 189C279 189 250 218 250 323Z"  horiz-adv-x="788" vert-adv-y="1000"  />

      
      <glyph glyph-name="uni31" unicode="&#x31;" d="M318 0L318 700L119 700L0 496L102 496L102 0Z"  horiz-adv-x="386" vert-adv-y="1000"  />

      
      <glyph glyph-name="uni32" unicode="&#x32;" d="M265 204C274 215 295 222 328 226L514 251C677 272 747 336 747 479C747 642 648 717 429 717L369 717C152 717 39 642 39 471L265 471C273 500 295 511 379 511L478 511C511 511 528 502 528 483C528 464 518 458 485 453L301 428C91 396 35 325 32 88L32 0L736 0L736 204L265 204Z"  horiz-adv-x="773" vert-adv-y="1000"  />

      
      <glyph glyph-name="uni33" unicode="&#x33;" d="M736 218C736 281 717 329 684 356C712 384 726 427 726 484C726 639 620 717 408 717L356 717C139 717 26 642 26 471L252 471C260 500 282 511 366 511L442 511C475 511 492 500 492 477C492 454 475 443 442 443L294 443L294 257L452 257C485 257 502 246 502 223C502 200 485 189 452 189L366 189C282 189 260 200 252 229L26 229C26 58 139-17 356-17L415-17C622-17 736 65 736 218Z"  horiz-adv-x="760" vert-adv-y="1000"  />

      
      <glyph glyph-name="uni34" unicode="&#x34;" d="M742 116L742 320L668 320L668 455L452 455L452 320L287 320L517 700L260 700L26 310L26 116L452 116L452 0L668 0L668 116Z"  horiz-adv-x="744" vert-adv-y="1000"  />

      
      <glyph glyph-name="uni35" unicode="&#x35;" d="M705 496L705 700L38 700L38 261L452 261C490 261 509 249 509 225C509 201 490 189 452 189L378 189C294 189 272 200 264 229L38 229C38 139 67 75 126 38C185 1 265-17 368-17L409-17C640-17 730 52 730 225C730 394 650 457 429 457L257 457L257 496Z"  horiz-adv-x="750" vert-adv-y="1000"  />

      
      <glyph glyph-name="uni36" unicode="&#x36;" d="M751 221C751 386 671 441 433 441L354 441C317 441 284 438 255 432C265 500 293 510 396 510C475 510 505 501 512 470L738 470C738 560 709 624 650 661C591 698 511 717 408 717L371 717C118 714 39 634 36 381L36 318C39 65 118-14 371-17L430-17C658-17 751 52 751 221ZM530 221C530 198 514 189 478 189L314 189C278 189 262 198 262 221C262 244 278 253 314 253L478 253C514 253 530 244 530 221Z"  horiz-adv-x="777" vert-adv-y="1000"  />

      
      <glyph glyph-name="uni37" unicode="&#x37;" d="M686 700L20 700L20 496L425 496L125 0L382 0L686 506Z"  horiz-adv-x="704" vert-adv-y="1000"  />

      
      <glyph glyph-name="uni38" unicode="&#x38;" d="M748 211C748 282 729 330 692 356C723 381 738 425 738 488C738 645 637 717 420 717L356 717C139 717 38 645 38 488C38 425 53 381 84 356C48 329 28 279 28 220C28 53 121-17 349-17L427-17C650-17 748 52 748 211ZM257 477C257 501 273 511 309 511L467 511C503 511 519 501 519 477C519 453 503 443 467 443L309 443C273 443 257 453 257 477ZM527 223C527 199 511 189 475 189L293 189C257 189 241 199 241 223C241 247 257 257 293 257L475 257C511 257 527 247 527 223Z"  horiz-adv-x="776" vert-adv-y="1000"  />

      
      <glyph glyph-name="uni39" unicode="&#x39;" d="M741 382C738 635 659 714 406 717L347 717C119 717 26 648 26 479C26 317 112 259 344 259L423 259C460 259 493 262 522 268C512 202 481 190 381 190C302 190 272 199 265 230L39 230C39 140 68 76 127 39C186 2 266-17 369-17L406-17C659-15 738 66 741 319ZM515 479C515 456 499 447 463 447L299 447C263 447 247 456 247 479C247 502 263 511 299 511L463 511C499 511 515 502 515 479Z"  horiz-adv-x="777" vert-adv-y="1000"  />

      
      <glyph glyph-name="uni3a" unicode="&#x3a;" d="M266 487C266 568 230 604 147 604C64 604 28 568 28 487C28 406 64 370 147 370C230 370 266 406 266 487ZM266 109C266 190 230 226 147 226C64 226 28 190 28 109C28 28 64-8 147-8C230-8 266 28 266 109Z"  horiz-adv-x="294" vert-adv-y="1000"  />

      
      <glyph glyph-name="uni3b" unicode="&#x3b;" d="M266 99C266 192 230 226 147 226C64 226 28 190 28 109C28 28 64-8 147-8L151-8C151-37 126-46 78-46L78-135L84-135C230-130 263-98 266 54ZM266 487C266 568 230 604 147 604C64 604 28 568 28 487C28 406 64 370 147 370C230 370 266 406 266 487Z"  horiz-adv-x="294" vert-adv-y="1000"  />

      
      <glyph glyph-name="uni3c" unicode="&#x3c;" d="M652 426L652 642L32 451L32 245L652 54L652 270L343 348Z"  horiz-adv-x="684" vert-adv-y="1000"  />

      
      <glyph glyph-name="uni3d" unicode="&#x3d;" d="M652 114L652 318L32 318L32 114ZM652 378L652 582L32 582L32 378Z"  horiz-adv-x="684" vert-adv-y="1000"  />

      
      <glyph glyph-name="uni3e" unicode="&#x3e;" d="M341 348L32 270L32 54L652 245L652 451L32 642L32 426Z"  horiz-adv-x="684" vert-adv-y="1000"  />

      
      <glyph glyph-name="uni3f" unicode="&#x3f;" d="M675 503C675 581 647 636 590 667C533 698 456 715 357 717L338 717C239 717 160 699 101 662C42 625 12 562 12 471L234 471C242 500 264 511 348 511L405 511C442 511 456 506 456 489C456 474 447 470 412 465L362 457C235 434 213 402 211 272L427 272C427 307 437 315 484 324L535 334C628 352 675 408 675 503ZM438 109C438 190 402 226 319 226C236 226 200 190 200 109C200 28 236-8 319-8C402-8 438 28 438 109Z"  horiz-adv-x="689" vert-adv-y="1000"  />

      
      <glyph glyph-name="uni40" unicode="&#x40;" d="M1016 361C1016 661 878 798 577 798L475 798C174 798 36 661 36 361L36 287C36-13 174-150 475-150L577-150C665-150 762-137 819-109L789-17C730-41 649-52 570-52L482-52C233-52 138 41 138 290L138 358C138 607 233 700 482 700L570 700C819 700 914 607 914 358L914 300C914 199 889 159 845 159C806 159 788 189 788 260L788 584L630 584L630 541C598 578 548 596 475 596C320 596 245 515 245 348L245 300C245 133 320 52 476 52C556 52 611 75 648 127C681 77 737 52 818 52C955 52 1016 128 1016 297ZM532 444C601 444 632 413 632 345L632 303C632 235 601 204 532 204L503 204C434 204 403 235 403 303L403 345C403 413 434 444 503 444Z"  horiz-adv-x="1052" vert-adv-y="1000"  />

      
      <glyph glyph-name="uni41" unicode="&#x41;" d="M554 116L599 0L828 0L545 700L277 700L-6 0L221 0L266 116ZM476 320L344 320L410 491Z"  horiz-adv-x="822" vert-adv-y="1000"  />

      
      <glyph glyph-name="uni42" unicode="&#x42;" d="M790 210C790 274 768 323 725 356C762 387 780 433 780 493C780 629 687 700 510 700L52 700L52 0L520 0C696 0 790 74 790 210ZM268 496L520 496C551 496 567 486 567 467C567 448 551 438 520 438L268 438ZM577 233C577 214 561 204 530 204L268 204L268 262L530 262C561 262 577 252 577 233Z"  horiz-adv-x="812" vert-adv-y="1000"  />

      
      <glyph glyph-name="uni43" unicode="&#x43;" d="M776 471C776 636 665 717 474 717L373 717C120 714 41 635 38 382L38 318C41 65 120-14 373-17L474-17C665-17 776 64 776 229L552 229C544 200 522 189 438 189L388 189C276 189 254 211 254 323L254 377C254 487 276 511 388 511L438 511C522 511 544 500 552 471L776 471Z"  horiz-adv-x="808" vert-adv-y="1000"  />

      
      <glyph glyph-name="uni44" unicode="&#x44;" d="M784 365C784 612 672 700 419 700L52 700L52 0L419 0C672 0 784 88 784 335ZM268 496L404 496C523 496 568 459 568 360L568 340C568 241 523 204 404 204L268 204Z"  horiz-adv-x="814" vert-adv-y="1000"  />

      
      <glyph glyph-name="uni45" unicode="&#x45;" d="M689 204L268 204L268 255L552 255L552 447L268 447L268 496L687 496L687 700L52 700L52 0L689 0Z"  horiz-adv-x="723" vert-adv-y="1000"  />

      
      <glyph glyph-name="uni46" unicode="&#x46;" d="M268 496L680 496L680 700L52 700L52 0L268 0L268 245L542 245L542 437L268 437Z"  horiz-adv-x="706" vert-adv-y="1000"  />

      
      <glyph glyph-name="uni47" unicode="&#x47;" d="M797 433L414 433L414 259L573 259C573 197 541 189 439 189L388 189C276 189 254 211 254 323L254 377C254 487 276 511 388 511L458 511C542 511 564 500 572 471L796 471C796 636 685 717 494 717L373 717C120 714 41 635 38 382L38 318C41 65 120-14 373-17L461-17C722-13 794 56 797 298Z"  horiz-adv-x="832" vert-adv-y="1000"  />

      
      <glyph glyph-name="uni48" unicode="&#x48;" d="M774 700L558 700L558 454L268 454L268 700L52 700L52 0L268 0L268 250L558 250L558 0L774 0Z"  horiz-adv-x="826" vert-adv-y="1000"  />

      
      <glyph glyph-name="uni49" unicode="&#x49;" d="M273 0L273 700L57 700L57 0Z"  horiz-adv-x="331" vert-adv-y="1000"  />

      
      <glyph glyph-name="uni4a" unicode="&#x4a;" d="M676 700L98 700L98 496L460 496L460 324C460 215 437 190 341 190C278 190 247 202 242 230L18 230C18 51 137-17 345-17C591-14 673 65 676 318Z"  horiz-adv-x="723" vert-adv-y="1000"  />

      
      <glyph glyph-name="uni4b" unicode="&#x4b;" d="M419 272L549 0L784 0L611 378L775 469L775 712L268 424L268 700L52 700L52 0L268 0L268 188Z"  horiz-adv-x="813" vert-adv-y="1000"  />

      
      <glyph glyph-name="uni4c" unicode="&#x4c;" d="M664 204L268 204L268 700L52 700L52 0L664 0Z"  horiz-adv-x="686" vert-adv-y="1000"  />

      
      <glyph glyph-name="uni4d" unicode="&#x4d;" d="M820 700L596 700L437 518L278 700L52 700L52 0L268 0L268 390L435 200L604 393L604 0L820 0Z"  horiz-adv-x="872" vert-adv-y="1000"  />

      
      <glyph glyph-name="uni4e" unicode="&#x4e;" d="M780 0L780 700L564 700L564 367L272 700L52 700L52 0L268 0L268 373L595 0Z"  horiz-adv-x="832" vert-adv-y="1000"  />

      
      <glyph glyph-name="uni4f" unicode="&#x4f;" d="M800 382C797 635 718 714 465 717L373 717C120 714 41 635 38 382L38 318C41 65 120-14 373-17L465-17C718-14 797 65 800 318ZM254 377C254 487 276 511 388 511L450 511C562 511 584 487 584 377L584 323C584 211 562 189 450 189L388 189C276 189 254 211 254 323Z"  horiz-adv-x="838" vert-adv-y="1000"  />

      
      <glyph glyph-name="uni50" unicode="&#x50;" d="M786 460C786 617 694 700 518 700L52 700L52 0L268 0L268 220L518 220C694 220 786 303 786 460ZM570 460C570 437 554 424 522 424L268 424L268 496L522 496C554 496 570 481 570 460Z"  horiz-adv-x="800" vert-adv-y="1000"  />

      
      <glyph glyph-name="uni51" unicode="&#x51;" d="M689-42L817 91L773 133C791 178 800 239 800 318L800 382C797 635 718 714 465 717L373 717C120 714 41 635 38 382L38 318C41 65 120-14 373-17L465-17C536-17 594-10 639 5ZM447 189L388 189C276 189 254 211 254 323L254 377C254 487 276 511 388 511L450 511C562 511 584 487 584 377L584 323L584 313L514 380L386 247Z"  horiz-adv-x="838" vert-adv-y="1000"  />

      
      <glyph glyph-name="uni52" unicode="&#x52;" d="M432 228L557 0L800 0L656 251C740 286 786 357 786 460C786 617 694 700 518 700L52 700L52 0L268 0L268 228ZM268 432L268 496L523 496C554 496 570 485 570 464C570 443 556 432 523 432Z"  horiz-adv-x="813" vert-adv-y="1000"  />

      
      <glyph glyph-name="uni53" unicode="&#x53;" d="M756 471C756 636 640 717 456 717L324 717C136 717 28 643 28 482C28 326 127 249 327 249L498 249C533 249 548 239 548 218C548 198 533 189 498 189L366 189C282 189 260 200 252 229L28 229C28 146 55 84 109 43C164 3 237-17 328-17L470-17C667-17 769 57 769 218C769 385 673 451 473 451L297 451C262 451 247 461 247 482C247 502 262 511 297 511L418 511C502 511 524 500 532 471L756 471Z"  horiz-adv-x="795" vert-adv-y="1000"  />

      
      <glyph glyph-name="uni54" unicode="&#x54;" d="M742 496L742 700L20 700L20 496L273 496L273 0L489 0L489 496Z"  horiz-adv-x="762" vert-adv-y="1000"  />

      
      <glyph glyph-name="uni55" unicode="&#x55;" d="M442-17C695-14 774 65 777 318L777 700L561 700L561 323C561 211 539 189 427 189L397 189C285 189 263 211 263 323L263 700L47 700L47 318C50 65 129-14 382-17L442-17Z"  horiz-adv-x="824" vert-adv-y="1000"  />

      
      <glyph glyph-name="uni56" unicode="&#x56;" d="M793 700L555 700L395 243L234 700L-6 700L257 0L530 0Z"  horiz-adv-x="787" vert-adv-y="1000"  />

      
      <glyph glyph-name="uni57" unicode="&#x57;" d="M980 700L756 700L673 381L581 702L409 702L317 381L234 700L8 700L201 0L409 0L494 302L579 0L787 0Z"  horiz-adv-x="988" vert-adv-y="1000"  />

      
      <glyph glyph-name="uni58" unicode="&#x58;" d="M409 186L540 0L813 0L549 355L808 700L540 700L412 522L282 700L9 700L267 354L4 0L272 0Z"  horiz-adv-x="817" vert-adv-y="1000"  />

      
      <glyph glyph-name="uni59" unicode="&#x59;" d="M780 700L530 700L387 454L243 700L-8 700L277 228L277 0L493 0L493 228Z"  horiz-adv-x="773" vert-adv-y="1000"  />

      
      <glyph glyph-name="uni5a" unicode="&#x5a;" d="M711 508L711 700L44 700L44 496L380 496L44 191L44 0L711 0L711 204L376 204Z"  horiz-adv-x="755" vert-adv-y="1000"  />

      
      <glyph glyph-name="uni5b" unicode="&#x5b;" d="M268 700L432 700L432 886L52 886L52-186L432-186L432 0L268 0Z"  horiz-adv-x="460" vert-adv-y="1000"  />

      
      <glyph glyph-name="uni5c" unicode="&#x5c;" d="M523 0L240 700L12 700L295 0Z"  horiz-adv-x="535" vert-adv-y="1000"  />

      
      <glyph glyph-name="uni5d" unicode="&#x5d;" d="M192 0L28 0L28-186L408-186L408 886L28 886L28 700L192 700Z"  horiz-adv-x="460" vert-adv-y="1000"  />

      
      <glyph glyph-name="uni5e" unicode="&#x5e;" d="M390 366L606 366L415 700L209 700L18 366L233 366L312 502Z"  horiz-adv-x="624" vert-adv-y="1000"  />

      
      <glyph glyph-name="uni5f" unicode="&#x5f;" d="M698-261L698-57L-6-57L-6-261Z"  horiz-adv-x="692" vert-adv-y="1000"  />

      
      <glyph glyph-name="uni60" unicode="&#x60;" d="M309 902L123 902L216 750L385 750Z"  horiz-adv-x="600" vert-adv-y="1000"  />

      
      <glyph glyph-name="uni61" unicode="&#x61;" d="M554 116L599 0L828 0L545 700L277 700L-6 0L221 0L266 116ZM476 320L344 320L410 491Z"  horiz-adv-x="822" vert-adv-y="1000"  />

      
      <glyph glyph-name="uni62" unicode="&#x62;" d="M790 210C790 274 768 323 725 356C762 387 780 433 780 493C780 629 687 700 510 700L52 700L52 0L520 0C696 0 790 74 790 210ZM268 496L520 496C551 496 567 486 567 467C567 448 551 438 520 438L268 438ZM577 233C577 214 561 204 530 204L268 204L268 262L530 262C561 262 577 252 577 233Z"  horiz-adv-x="812" vert-adv-y="1000"  />

      
      <glyph glyph-name="uni63" unicode="&#x63;" d="M776 471C776 636 665 717 474 717L373 717C120 714 41 635 38 382L38 318C41 65 120-14 373-17L474-17C665-17 776 64 776 229L552 229C544 200 522 189 438 189L388 189C276 189 254 211 254 323L254 377C254 487 276 511 388 511L438 511C522 511 544 500 552 471L776 471Z"  horiz-adv-x="808" vert-adv-y="1000"  />

      
      <glyph glyph-name="uni64" unicode="&#x64;" d="M784 365C784 612 672 700 419 700L52 700L52 0L419 0C672 0 784 88 784 335ZM268 496L404 496C523 496 568 459 568 360L568 340C568 241 523 204 404 204L268 204Z"  horiz-adv-x="814" vert-adv-y="1000"  />

      
      <glyph glyph-name="uni65" unicode="&#x65;" d="M689 204L268 204L268 255L552 255L552 447L268 447L268 496L687 496L687 700L52 700L52 0L689 0Z"  horiz-adv-x="723" vert-adv-y="1000"  />

      
      <glyph glyph-name="uni66" unicode="&#x66;" d="M268 496L680 496L680 700L52 700L52 0L268 0L268 245L542 245L542 437L268 437Z"  horiz-adv-x="706" vert-adv-y="1000"  />

      
      <glyph glyph-name="uni67" unicode="&#x67;" d="M797 433L414 433L414 259L573 259C573 197 541 189 439 189L388 189C276 189 254 211 254 323L254 377C254 487 276 511 388 511L458 511C542 511 564 500 572 471L796 471C796 636 685 717 494 717L373 717C120 714 41 635 38 382L38 318C41 65 120-14 373-17L461-17C722-13 794 56 797 298Z"  horiz-adv-x="832" vert-adv-y="1000"  />

      
      <glyph glyph-name="uni68" unicode="&#x68;" d="M774 700L558 700L558 454L268 454L268 700L52 700L52 0L268 0L268 250L558 250L558 0L774 0Z"  horiz-adv-x="826" vert-adv-y="1000"  />

      
      <glyph glyph-name="uni69" unicode="&#x69;" d="M273 0L273 700L57 700L57 0Z"  horiz-adv-x="331" vert-adv-y="1000"  />

      
      <glyph glyph-name="uni6a" unicode="&#x6a;" d="M676 700L98 700L98 496L460 496L460 324C460 215 437 190 341 190C278 190 247 202 242 230L18 230C18 51 137-17 345-17C591-14 673 65 676 318Z"  horiz-adv-x="723" vert-adv-y="1000"  />

      
      <glyph glyph-name="uni6b" unicode="&#x6b;" d="M419 272L549 0L784 0L611 378L775 469L775 712L268 424L268 700L52 700L52 0L268 0L268 188Z"  horiz-adv-x="813" vert-adv-y="1000"  />

      
      <glyph glyph-name="uni6c" unicode="&#x6c;" d="M664 204L268 204L268 700L52 700L52 0L664 0Z"  horiz-adv-x="686" vert-adv-y="1000"  />

      
      <glyph glyph-name="uni6d" unicode="&#x6d;" d="M820 700L596 700L437 518L278 700L52 700L52 0L268 0L268 390L435 200L604 393L604 0L820 0Z"  horiz-adv-x="872" vert-adv-y="1000"  />

      
      <glyph glyph-name="uni6e" unicode="&#x6e;" d="M780 0L780 700L564 700L564 367L272 700L52 700L52 0L268 0L268 373L595 0Z"  horiz-adv-x="832" vert-adv-y="1000"  />

      
      <glyph glyph-name="uni6f" unicode="&#x6f;" d="M800 382C797 635 718 714 465 717L373 717C120 714 41 635 38 382L38 318C41 65 120-14 373-17L465-17C718-14 797 65 800 318ZM254 377C254 487 276 511 388 511L450 511C562 511 584 487 584 377L584 323C584 211 562 189 450 189L388 189C276 189 254 211 254 323Z"  horiz-adv-x="838" vert-adv-y="1000"  />

      
      <glyph glyph-name="uni70" unicode="&#x70;" d="M786 460C786 617 694 700 518 700L52 700L52 0L268 0L268 220L518 220C694 220 786 303 786 460ZM570 460C570 437 554 424 522 424L268 424L268 496L522 496C554 496 570 481 570 460Z"  horiz-adv-x="800" vert-adv-y="1000"  />

      
      <glyph glyph-name="uni71" unicode="&#x71;" d="M689-42L817 91L773 133C791 178 800 239 800 318L800 382C797 635 718 714 465 717L373 717C120 714 41 635 38 382L38 318C41 65 120-14 373-17L465-17C536-17 594-10 639 5ZM447 189L388 189C276 189 254 211 254 323L254 377C254 487 276 511 388 511L450 511C562 511 584 487 584 377L584 323L584 313L514 380L386 247Z"  horiz-adv-x="838" vert-adv-y="1000"  />

      
      <glyph glyph-name="uni72" unicode="&#x72;" d="M432 228L557 0L800 0L656 251C740 286 786 357 786 460C786 617 694 700 518 700L52 700L52 0L268 0L268 228ZM268 432L268 496L523 496C554 496 570 485 570 464C570 443 556 432 523 432Z"  horiz-adv-x="813" vert-adv-y="1000"  />

      
      <glyph glyph-name="uni73" unicode="&#x73;" d="M756 471C756 636 640 717 456 717L324 717C136 717 28 643 28 482C28 326 127 249 327 249L498 249C533 249 548 239 548 218C548 198 533 189 498 189L366 189C282 189 260 200 252 229L28 229C28 146 55 84 109 43C164 3 237-17 328-17L470-17C667-17 769 57 769 218C769 385 673 451 473 451L297 451C262 451 247 461 247 482C247 502 262 511 297 511L418 511C502 511 524 500 532 471L756 471Z"  horiz-adv-x="795" vert-adv-y="1000"  />

      
      <glyph glyph-name="uni74" unicode="&#x74;" d="M742 496L742 700L20 700L20 496L273 496L273 0L489 0L489 496Z"  horiz-adv-x="762" vert-adv-y="1000"  />

      
      <glyph glyph-name="uni75" unicode="&#x75;" d="M442-17C695-14 774 65 777 318L777 700L561 700L561 323C561 211 539 189 427 189L397 189C285 189 263 211 263 323L263 700L47 700L47 318C50 65 129-14 382-17L442-17Z"  horiz-adv-x="824" vert-adv-y="1000"  />

      
      <glyph glyph-name="uni76" unicode="&#x76;" d="M793 700L555 700L395 243L234 700L-6 700L257 0L530 0Z"  horiz-adv-x="787" vert-adv-y="1000"  />

      
      <glyph glyph-name="uni77" unicode="&#x77;" d="M980 700L756 700L673 381L581 702L409 702L317 381L234 700L8 700L201 0L409 0L494 302L579 0L787 0Z"  horiz-adv-x="988" vert-adv-y="1000"  />

      
      <glyph glyph-name="uni78" unicode="&#x78;" d="M409 186L540 0L813 0L549 355L808 700L540 700L412 522L282 700L9 700L267 354L4 0L272 0Z"  horiz-adv-x="817" vert-adv-y="1000"  />

      
      <glyph glyph-name="uni79" unicode="&#x79;" d="M780 700L530 700L387 454L243 700L-8 700L277 228L277 0L493 0L493 228Z"  horiz-adv-x="773" vert-adv-y="1000"  />

      
      <glyph glyph-name="uni7a" unicode="&#x7a;" d="M711 508L711 700L44 700L44 496L380 496L44 191L44 0L711 0L711 204L376 204Z"  horiz-adv-x="755" vert-adv-y="1000"  />

      
      <glyph glyph-name="uni7b" unicode="&#x7b;" d="M284 350C337 396 364 473 364 582L364 590C364 663 399 700 468 700L476 700L476 886L468 886C256 886 148 818 148 590L148 556C148 487 111 452 38 452L30 452L30 248L38 248C111 248 148 213 148 144L148 110C148-118 256-186 468-186L476-186L476 0L468 0C399 0 364 37 364 110L364 118C364 227 337 304 284 350Z"  horiz-adv-x="504" vert-adv-y="1000"  />

      
      <glyph glyph-name="uni7c" unicode="&#x7c;" d="M280-105L280 805L74 805L74-105Z"  horiz-adv-x="354" vert-adv-y="1000"  />

      
      <glyph glyph-name="uni7d" unicode="&#x7d;" d="M220 350C167 304 140 227 140 118L140 110C140 37 105 0 36 0L28 0L28-186L36-186C248-186 356-118 356 110L356 144C356 213 393 248 466 248L474 248L474 452L466 452C393 452 356 487 356 556L356 590C356 818 248 886 36 886L28 886L28 700L36 700C105 700 140 663 140 590L140 582C140 473 167 396 220 350Z"  horiz-adv-x="504" vert-adv-y="1000"  />

      
      <glyph glyph-name="uni7e" unicode="&#x7e;" d="M341 565C294 584 262 595 219 595C131 595 50 538 14 438L183 373C191 402 211 414 234 414C247 414 268 408 297 396C342 377 379 366 423 366C520 366 592 430 623 523L457 587C449 559 433 545 409 545C390 545 373 552 341 565Z"  horiz-adv-x="637" vert-adv-y="1000"  />

      
      <glyph glyph-name="unia1" unicode="&#xa1;" d="M89 428L35 0L319 0L265 428ZM296 591C296 672 260 708 177 708C94 708 58 672 58 591C58 510 94 474 177 474C260 474 296 510 296 591Z"  horiz-adv-x="354" vert-adv-y="1000"  />

      
      <glyph glyph-name="unia2" unicode="&#xa2;" d="M502 229C494 200 470 188 379 188C269 188 243 210 243 315C243 426 267 452 379 452C470 452 494 440 502 411L732 411C732 571 634 647 445 656L445 741L315 741L315 656C103 644 28 554 28 320C28 86 105-4 315-16L315-85L445-85L445-16C634-7 732 69 732 229L502 229Z"  horiz-adv-x="756" vert-adv-y="1000"  />

      
      <glyph glyph-name="unia3" unicode="&#xa3;" d="M722 206L316 206C323 223 330 257 331 289L467 289L467 409L334 409C341 476 372 511 424 511C463 511 490 496 499 471L712 471C708 626 601 717 424 717C231 717 125 612 117 409L50 409L50 289L115 289C111 229 86 198 30 198L30 0L722 0Z"  horiz-adv-x="752" vert-adv-y="1000"  />

      
      <glyph glyph-name="unia4" unicode="&#xa4;" d="M574 200C591 237 600 286 600 348C600 410 591 459 574 496L644 566L555 656L482 583C443 600 391 608 328 608C265 608 213 600 174 583L101 656L12 566L82 496C65 459 56 410 56 348C56 286 65 237 82 200L12 130L101 40L174 113C213 96 265 88 328 88C391 88 443 96 482 113L555 40L644 130ZM432 348C432 271 408 248 328 248C248 248 224 271 224 348C224 425 248 448 328 448C408 448 432 425 432 348Z"  horiz-adv-x="656" vert-adv-y="1000"  />

      
      <glyph glyph-name="unia5" unicode="&#xa5;" d="M509 359L752 700L493 700L374 525L255 700L-6 700L235 359L53 359L53 269L264 269L264 239L53 239L53 149L264 149L264 0L480 0L480 149L693 149L693 239L480 239L480 269L693 269L693 359Z"  horiz-adv-x="746" vert-adv-y="1000"  />

      
      <glyph glyph-name="unia6" unicode="&#xa6;" d="M280 405L280 805L74 805L74 405ZM280-105L280 295L74 295L74-105Z"  horiz-adv-x="354" vert-adv-y="1000"  />

      
      <glyph glyph-name="unia7" unicode="&#xa7;" d="M725 145C756 172 771 212 771 266C771 398 690 453 499 453L306 453C273 453 259 462 259 482C259 502 273 511 306 511L407 511C483 511 516 502 521 475L747 475C747 643 656 717 447 717L336 717C141 717 40 644 40 504C40 459 49 422 68 395C37 368 22 328 22 274C22 142 103 87 294 87L487 87C520 87 534 78 534 58C534 38 520 29 487 29L386 29C310 29 277 38 272 65L46 65C46-103 137-177 346-177L457-177C652-177 753-104 753 36C753 81 744 118 725 145ZM552 270C552 250 538 241 505 241L288 241C255 241 241 250 241 270C241 290 255 299 288 299L505 299C538 299 552 290 552 270Z"  horiz-adv-x="793" vert-adv-y="1000"  />

      
      <glyph glyph-name="unia8" unicode="&#xa8;" d="M252 836C252 899 223 928 159 928C95 928 66 899 66 836C66 773 95 744 159 744C223 744 252 773 252 836ZM534 836C534 899 505 928 441 928C377 928 348 899 348 836C348 773 377 744 441 744C505 744 534 773 534 836Z"  horiz-adv-x="600" vert-adv-y="1000"  />

      
      <glyph glyph-name="unia9" unicode="&#xa9;" d="M32 350C32 122 170-17 403-17C636-17 774 122 774 350C774 578 636 717 403 717C170 717 32 578 32 350ZM672 350C672 177 579 81 403 81C227 81 134 177 134 350C134 523 227 619 403 619C579 619 672 523 672 350ZM582 395C582 495 538 528 422 528L386 528C257 528 224 493 224 364L224 334C226 204 255 175 386 172L422 172C537 172 582 200 582 304L471 304C468 280 457 275 416 275L396 275C338 275 331 283 331 337L331 362C331 417 339 425 396 425L416 425C455 425 468 418 471 395Z"  horiz-adv-x="806" vert-adv-y="1000"  />

      
      <glyph glyph-name="uniab" unicode="&#xab;" d="M771 513L639 645L342 348L639 51L771 183L606 348ZM429 513L297 645L0 348L297 51L429 183L264 348Z"  horiz-adv-x="799" vert-adv-y="1000"  />

      
      <glyph glyph-name="uniae" unicode="&#xae;" d="M774 350C774 578 636 717 403 717C170 717 32 578 32 350C32 122 170-17 403-17C636-17 774 122 774 350ZM672 350C672 177 579 81 403 81C227 81 134 177 134 350C134 523 227 619 403 619C579 619 672 523 672 350ZM532 294C569 311 587 344 587 395C587 482 541 517 430 517L251 517L251 184L353 184L353 277L428 277L479 184L595 184ZM353 374L353 420L450 420C477 420 487 413 487 397C487 381 477 374 450 374Z"  horiz-adv-x="806" vert-adv-y="1000"  />

      
      <glyph glyph-name="uniaf" unicode="&#xaf;" d="M494 750L494 856L106 856L106 750Z"  horiz-adv-x="600" vert-adv-y="1000"  />

      
      <glyph glyph-name="unib0" unicode="&#xb0;" d="M352 562C352 646 280 717 192 717C104 717 32 646 32 562C32 478 104 407 192 407C280 407 352 478 352 562ZM132 566C132 599 157 624 192 624C227 624 252 598 252 566C252 533 227 507 192 507C157 507 132 533 132 566Z"  horiz-adv-x="384" vert-adv-y="1000"  />

      
      <glyph glyph-name="unib1" unicode="&#xb1;" d="M592 575L415 575L415 700L209 700L209 575L32 575L32 371L209 371L209 245L415 245L415 371L592 371ZM32 204L32 0L592 0L592 204Z"  horiz-adv-x="624" vert-adv-y="1000"  />

      
      <glyph glyph-name="unib4" unicode="&#xb4;" d="M385 750L478 902L292 902L216 750Z"  horiz-adv-x="600" vert-adv-y="1000"  />

      
      <glyph glyph-name="unib6" unicode="&#xb6;" d="M699 700L328 700C129 700 18 634 18 471C18 308 130 240 331 240L350 240L350 0L500 0L500 544L549 544L549 0L699 0Z"  horiz-adv-x="751" vert-adv-y="1000"  />

      
      <glyph glyph-name="unib7" unicode="&#xb7;" d="M266 374C266 455 230 491 147 491C64 491 28 455 28 374C28 293 64 257 147 257C230 257 266 293 266 374Z"  horiz-adv-x="294" vert-adv-y="1000"  />

      
      <glyph glyph-name="unib8" unicode="&#xb8;" d="M354-17L255-17L235-49L235-123L338-123C353-123 360-128 360-139C360-148 353-153 338-153L204-153L204-243L340-243C423-243 456-213 456-144C456-75 423-43 340-43L336-43Z"  horiz-adv-x="600" vert-adv-y="1000"  />

      
      <glyph glyph-name="unibb" unicode="&#xbb;" d="M193 348L28 183L160 51L457 348L160 645L28 513ZM535 348L370 183L502 51L799 348L502 645L370 513Z"  horiz-adv-x="799" vert-adv-y="1000"  />

      
      <glyph glyph-name="unibc" unicode="&#xbc;" d="M76 266L242 266L242 700L92 700L18 563L76 563ZM1056 72L1056 210L1012 210L1012 272L847 272L847 210L778 210L913 434L720 434L580 202L580 72L847 72L847 0L1012 0L1012 72ZM331 0L785 700L587 700L133 0Z"  horiz-adv-x="1086" vert-adv-y="1000"  />

      
      <glyph glyph-name="unibd" unicode="&#xbd;" d="M76 266L242 266L242 700L92 700L18 563L76 563ZM806 139C811 144 823 147 843 149L950 160C1062 172 1108 211 1108 294C1108 401 1046 445 902 445L845 445C698 445 635 394 635 281L803 281C808 301 822 306 875 306L913 306C932 306 938 303 938 294C938 286 932 285 915 282L801 266C669 248 631 201 631 55L631 0L1100 0L1100 139ZM331 0L785 700L587 700L133 0Z"  horiz-adv-x="1132" vert-adv-y="1000"  />

      
      <glyph glyph-name="unibe" unicode="&#xbe;" d="M303 255C438 255 509 305 509 401C509 440 498 469 477 487C494 504 503 531 503 566C503 665 438 711 297 711L246 711C99 711 36 662 36 547L198 547C203 568 215 572 268 572L306 572C324 572 333 567 333 557C333 547 324 542 306 542L222 542L222 424L312 424C330 424 339 419 339 409C339 399 330 394 312 394L266 394C213 394 201 398 196 419L34 419C34 304 97 255 244 255ZM1279 72L1279 210L1235 210L1235 272L1070 272L1070 210L1001 210L1136 434L943 434L803 202L803 72L1070 72L1070 0L1235 0L1235 72ZM554 0L1008 700L810 700L356 0Z"  horiz-adv-x="1309" vert-adv-y="1000"  />

      
      <glyph glyph-name="unibf" unicode="&#xbf;" d="M14 197C14 119 42 64 99 33C156 2 233-15 332-17L351-17C450-17 529 1 588 38C647 75 677 138 677 229L455 229C447 200 425 189 341 189L284 189C247 189 233 194 233 211C233 226 242 230 277 235L327 243C454 266 476 298 478 428L262 428C262 393 252 385 205 376L154 366C61 348 14 292 14 197ZM251 591C251 510 287 474 370 474C453 474 489 510 489 591C489 672 453 708 370 708C287 708 251 672 251 591Z"  horiz-adv-x="689" vert-adv-y="1000"  />

      
      <glyph glyph-name="unic0" unicode="&#xc0;" d="M554 116L599 0L828 0L545 700L277 700L-6 0L221 0L266 116ZM476 320L344 320L410 491ZM420 902L234 902L327 750L496 750Z"  horiz-adv-x="822" vert-adv-y="1000"  />

      
      <glyph glyph-name="unic1" unicode="&#xc1;" d="M554 116L599 0L828 0L545 700L277 700L-6 0L221 0L266 116ZM476 320L344 320L410 491ZM496 750L589 902L403 902L327 750Z"  horiz-adv-x="822" vert-adv-y="1000"  />

      
      <glyph glyph-name="unic2" unicode="&#xc2;" d="M554 116L599 0L828 0L545 700L277 700L-6 0L221 0L266 116ZM476 320L344 320L410 491ZM471 750L632 750L540 894L282 894L190 750L351 750L411 823Z"  horiz-adv-x="822" vert-adv-y="1000"  />

      
      <glyph glyph-name="unic3" unicode="&#xc3;" d="M554 116L599 0L828 0L545 700L277 700L-6 0L221 0L266 116ZM476 320L344 320L410 491ZM418 868C382 883 358 891 327 891C259 891 215 842 202 755L306 755C311 776 323 787 343 787C358 787 378 780 398 772C435 757 462 749 494 749C565 749 607 794 620 885L516 885C512 862 499 851 478 851C462 851 446 856 418 868Z"  horiz-adv-x="822" vert-adv-y="1000"  />

      
      <glyph glyph-name="unic4" unicode="&#xc4;" d="M554 116L599 0L828 0L545 700L277 700L-6 0L221 0L266 116ZM476 320L344 320L410 491ZM363 836C363 899 334 928 270 928C206 928 177 899 177 836C177 773 206 744 270 744C334 744 363 773 363 836ZM645 836C645 899 616 928 552 928C488 928 459 899 459 836C459 773 488 744 552 744C616 744 645 773 645 836Z"  horiz-adv-x="822" vert-adv-y="1000"  />

      
      <glyph glyph-name="unic5" unicode="&#xc5;" d="M554 116L599 0L828 0L559 665C577 692 586 722 586 755C586 850 507 925 410 925C313 925 236 850 236 755C236 722 245 692 262 664L-6 0L221 0L266 116ZM338 755C338 796 369 827 409 827C450 827 484 795 484 755C484 715 450 683 409 683C369 683 338 715 338 755ZM476 318L343 318L410 491Z"  horiz-adv-x="822" vert-adv-y="1000"  />

      
      <glyph glyph-name="unic6" unicode="&#xc6;" d="M1100 204L716 204L716 255L960 255L960 447L716 447L716 496L1098 496L1098 700L369 700L-10 0L234 0L295 116L500 116L500 0L1100 0ZM500 320L402 320L500 506Z"  horiz-adv-x="1134" vert-adv-y="1000"  />

      
      <glyph glyph-name="unic7" unicode="&#xc7;" d="M776 471C776 636 665 717 474 717L373 717C120 714 41 635 38 382L38 318C41 65 120-14 373-17L474-17C665-17 776 64 776 229L552 229C544 200 522 189 438 189L388 189C276 189 254 211 254 323L254 377C254 487 276 511 388 511L438 511C522 511 544 500 552 471ZM462-17L363-17L343-49L343-123L446-123C461-123 468-128 468-139C468-148 461-153 446-153L312-153L312-243L448-243C531-243 564-213 564-144C564-75 531-43 448-43L444-43Z"  horiz-adv-x="808" vert-adv-y="1000"  />

      
      <glyph glyph-name="unic8" unicode="&#xc8;" d="M689 204L268 204L268 255L552 255L552 447L268 447L268 496L687 496L687 700L52 700L52 0L689 0ZM380 902L194 902L287 750L456 750Z"  horiz-adv-x="723" vert-adv-y="1000"  />

      
      <glyph glyph-name="unic9" unicode="&#xc9;" d="M689 204L268 204L268 255L552 255L552 447L268 447L268 496L687 496L687 700L52 700L52 0L689 0ZM456 750L549 902L363 902L287 750Z"  horiz-adv-x="723" vert-adv-y="1000"  />

      
      <glyph glyph-name="unica" unicode="&#xca;" d="M689 204L268 204L268 255L552 255L552 447L268 447L268 496L687 496L687 700L52 700L52 0L689 0ZM431 750L592 750L500 894L242 894L150 750L311 750L371 823Z"  horiz-adv-x="723" vert-adv-y="1000"  />

      
      <glyph glyph-name="unicb" unicode="&#xcb;" d="M689 204L268 204L268 255L552 255L552 447L268 447L268 496L687 496L687 700L52 700L52 0L689 0ZM323 836C323 899 294 928 230 928C166 928 137 899 137 836C137 773 166 744 230 744C294 744 323 773 323 836ZM605 836C605 899 576 928 512 928C448 928 419 899 419 836C419 773 448 744 512 744C576 744 605 773 605 836Z"  horiz-adv-x="723" vert-adv-y="1000"  />

      
      <glyph glyph-name="unicc" unicode="&#xcc;" d="M273 0L273 700L57 700L57 0ZM175 902L-11 902L82 750L251 750Z"  horiz-adv-x="331" vert-adv-y="1000"  />

      
      <glyph glyph-name="unicd" unicode="&#xcd;" d="M273 0L273 700L57 700L57 0ZM251 750L344 902L158 902L82 750Z"  horiz-adv-x="331" vert-adv-y="1000"  />

      
      <glyph glyph-name="unice" unicode="&#xce;" d="M273 0L273 700L57 700L57 0ZM226 750L387 750L295 894L37 894L-55 750L106 750L166 823Z"  horiz-adv-x="331" vert-adv-y="1000"  />

      
      <glyph glyph-name="unicf" unicode="&#xcf;" d="M273 0L273 700L57 700L57 0ZM118 836C118 899 89 928 25 928C-39 928-68 899-68 836C-68 773-39 744 25 744C89 744 118 773 118 836ZM400 836C400 899 371 928 307 928C243 928 214 899 214 836C214 773 243 744 307 744C371 744 400 773 400 836Z"  horiz-adv-x="331" vert-adv-y="1000"  />

      
      <glyph glyph-name="unid0" unicode="&#xd0;" d="M794 365C794 612 682 700 429 700L62 700L62 443L0 443L0 257L62 257L62 0L429 0C682 0 794 88 794 335ZM414 496C533 496 578 459 578 360L578 340C578 241 533 204 414 204L278 204L278 257L458 257L458 443L278 443L278 496Z"  horiz-adv-x="824" vert-adv-y="1000"  />

      
      <glyph glyph-name="unid1" unicode="&#xd1;" d="M780 0L780 700L564 700L564 367L272 700L52 700L52 0L268 0L268 373L595 0ZM423 868C387 883 363 891 332 891C264 891 220 842 207 755L311 755C316 776 328 787 348 787C363 787 383 780 403 772C440 757 467 749 499 749C570 749 612 794 625 885L521 885C517 862 504 851 483 851C467 851 451 856 423 868Z"  horiz-adv-x="832" vert-adv-y="1000"  />

      
      <glyph glyph-name="unid2" unicode="&#xd2;" d="M800 382C797 635 718 714 465 717L373 717C120 714 41 635 38 382L38 318C41 65 120-14 373-17L465-17C718-14 797 65 800 318ZM254 377C254 487 276 511 388 511L450 511C562 511 584 487 584 377L584 323C584 211 562 189 450 189L388 189C276 189 254 211 254 323ZM428 902L242 902L335 750L504 750Z"  horiz-adv-x="838" vert-adv-y="1000"  />

      
      <glyph glyph-name="unid3" unicode="&#xd3;" d="M800 382C797 635 718 714 465 717L373 717C120 714 41 635 38 382L38 318C41 65 120-14 373-17L465-17C718-14 797 65 800 318ZM254 377C254 487 276 511 388 511L450 511C562 511 584 487 584 377L584 323C584 211 562 189 450 189L388 189C276 189 254 211 254 323ZM504 750L597 902L411 902L335 750Z"  horiz-adv-x="838" vert-adv-y="1000"  />

      
      <glyph glyph-name="unid4" unicode="&#xd4;" d="M800 382C797 635 718 714 465 717L373 717C120 714 41 635 38 382L38 318C41 65 120-14 373-17L465-17C718-14 797 65 800 318ZM254 377C254 487 276 511 388 511L450 511C562 511 584 487 584 377L584 323C584 211 562 189 450 189L388 189C276 189 254 211 254 323ZM479 750L640 750L548 894L290 894L198 750L359 750L419 823Z"  horiz-adv-x="838" vert-adv-y="1000"  />

      
      <glyph glyph-name="unid5" unicode="&#xd5;" d="M800 382C797 635 718 714 465 717L373 717C120 714 41 635 38 382L38 318C41 65 120-14 373-17L465-17C718-14 797 65 800 318ZM254 377C254 487 276 511 388 511L450 511C562 511 584 487 584 377L584 323C584 211 562 189 450 189L388 189C276 189 254 211 254 323ZM426 868C390 883 366 891 335 891C267 891 223 842 210 755L314 755C319 776 331 787 351 787C366 787 386 780 406 772C443 757 470 749 502 749C573 749 615 794 628 885L524 885C520 862 507 851 486 851C470 851 454 856 426 868Z"  horiz-adv-x="838" vert-adv-y="1000"  />

      
      <glyph glyph-name="unid6" unicode="&#xd6;" d="M800 382C797 635 718 714 465 717L373 717C120 714 41 635 38 382L38 318C41 65 120-14 373-17L465-17C718-14 797 65 800 318ZM254 377C254 487 276 511 388 511L450 511C562 511 584 487 584 377L584 323C584 211 562 189 450 189L388 189C276 189 254 211 254 323ZM371 836C371 899 342 928 278 928C214 928 185 899 185 836C185 773 214 744 278 744C342 744 371 773 371 836ZM653 836C653 899 624 928 560 928C496 928 467 899 467 836C467 773 496 744 560 744C624 744 653 773 653 836Z"  horiz-adv-x="838" vert-adv-y="1000"  />

      
      <glyph glyph-name="unid7" unicode="&#xd7;" d="M473 350L630 507L486 651L329 494L172 651L28 507L185 350L28 193L172 49L329 206L486 49L630 193Z"  horiz-adv-x="658" vert-adv-y="1000"  />

      
      <glyph glyph-name="unid8" unicode="&#xd8;" d="M800 382C800 499 781 579 737 631L776 675L695 746L647 692C600 709 539 717 465 717L373 717C120 714 41 635 38 382L38 318C38 205 56 127 96 75L47 20L126-52L183 11C230-8 294-17 373-17L465-17C718-14 797 65 800 318ZM259 258C256 272 254 294 254 323L254 377C254 487 276 511 388 511L450 511C466 511 477 511 484 510ZM576 452C581 435 584 410 584 377L584 323C584 211 562 189 450 189L388 189C375 189 360 190 343 191Z"  horiz-adv-x="838" vert-adv-y="1000"  />

      
      <glyph glyph-name="unid9" unicode="&#xd9;" d="M442-17C695-14 774 65 777 318L777 700L561 700L561 323C561 211 539 189 427 189L397 189C285 189 263 211 263 323L263 700L47 700L47 318C50 65 129-14 382-17ZM421 902L235 902L328 750L497 750Z"  horiz-adv-x="824" vert-adv-y="1000"  />

      
      <glyph glyph-name="unida" unicode="&#xda;" d="M442-17C695-14 774 65 777 318L777 700L561 700L561 323C561 211 539 189 427 189L397 189C285 189 263 211 263 323L263 700L47 700L47 318C50 65 129-14 382-17ZM497 750L590 902L404 902L328 750Z"  horiz-adv-x="824" vert-adv-y="1000"  />

      
      <glyph glyph-name="unidb" unicode="&#xdb;" d="M442-17C695-14 774 65 777 318L777 700L561 700L561 323C561 211 539 189 427 189L397 189C285 189 263 211 263 323L263 700L47 700L47 318C50 65 129-14 382-17ZM472 750L633 750L541 894L283 894L191 750L352 750L412 823Z"  horiz-adv-x="824" vert-adv-y="1000"  />

      
      <glyph glyph-name="unidc" unicode="&#xdc;" d="M442-17C695-14 774 65 777 318L777 700L561 700L561 323C561 211 539 189 427 189L397 189C285 189 263 211 263 323L263 700L47 700L47 318C50 65 129-14 382-17ZM364 836C364 899 335 928 271 928C207 928 178 899 178 836C178 773 207 744 271 744C335 744 364 773 364 836ZM646 836C646 899 617 928 553 928C489 928 460 899 460 836C460 773 489 744 553 744C617 744 646 773 646 836Z"  horiz-adv-x="824" vert-adv-y="1000"  />

      
      <glyph glyph-name="unidd" unicode="&#xdd;" d="M780 700L530 700L387 454L243 700L-8 700L277 228L277 0L493 0L493 228ZM470 750L563 902L377 902L301 750Z"  horiz-adv-x="773" vert-adv-y="1000"  />

      
      <glyph glyph-name="unide" unicode="&#xde;" d="M786 352C786 509 694 592 518 592L268 592L268 700L52 700L52 0L268 0L268 112L518 112C694 112 786 195 786 352ZM570 352C570 328 554 316 523 316L268 316L268 388L523 388C555 388 570 375 570 352Z"  horiz-adv-x="804" vert-adv-y="1000"  />

      
      <glyph glyph-name="unidf" unicode="&#xdf;" d="M823 219C823 336 764 407 647 430L770 504L770 700L382 700C129 697 50 618 47 365L47 0L263 0L263 364C263 476 285 498 397 498L486 498L347 414L347 262L563 262C594 262 610 252 610 233C610 214 594 204 563 204L322 204L322 0L553 0C733 0 823 73 823 219Z"  horiz-adv-x="841" vert-adv-y="1000"  />

      
      <glyph glyph-name="unie0" unicode="&#xe0;" d="M420 902L234 902L327 750L496 750ZM554 116L599 0L828 0L545 700L277 700L-6 0L221 0L266 116ZM476 320L344 320L410 491Z"  horiz-adv-x="822" vert-adv-y="1000"  />

      
      <glyph glyph-name="unie1" unicode="&#xe1;" d="M496 750L589 902L403 902L327 750ZM554 116L599 0L828 0L545 700L277 700L-6 0L221 0L266 116ZM476 320L344 320L410 491Z"  horiz-adv-x="822" vert-adv-y="1000"  />

      
      <glyph glyph-name="unie2" unicode="&#xe2;" d="M471 750L632 750L540 894L282 894L190 750L351 750L411 823ZM554 116L599 0L828 0L545 700L277 700L-6 0L221 0L266 116ZM476 320L344 320L410 491Z"  horiz-adv-x="822" vert-adv-y="1000"  />

      
      <glyph glyph-name="unie3" unicode="&#xe3;" d="M418 868C382 883 358 891 327 891C259 891 215 842 202 755L306 755C311 776 323 787 343 787C358 787 378 780 398 772C435 757 462 749 494 749C565 749 607 794 620 885L516 885C512 862 499 851 478 851C462 851 446 856 418 868ZM554 116L599 0L828 0L545 700L277 700L-6 0L221 0L266 116ZM476 320L344 320L410 491Z"  horiz-adv-x="822" vert-adv-y="1000"  />

      
      <glyph glyph-name="unie4" unicode="&#xe4;" d="M363 836C363 899 334 928 270 928C206 928 177 899 177 836C177 773 206 744 270 744C334 744 363 773 363 836ZM645 836C645 899 616 928 552 928C488 928 459 899 459 836C459 773 488 744 552 744C616 744 645 773 645 836ZM554 116L599 0L828 0L545 700L277 700L-6 0L221 0L266 116ZM476 320L344 320L410 491Z"  horiz-adv-x="822" vert-adv-y="1000"  />

      
      <glyph glyph-name="unie5" unicode="&#xe5;" d="M554 116L599 0L828 0L559 665C577 692 586 722 586 755C586 850 507 925 410 925C313 925 236 850 236 755C236 722 245 692 262 664L-6 0L221 0L266 116ZM338 755C338 796 369 827 409 827C450 827 484 795 484 755C484 715 450 683 409 683C369 683 338 715 338 755ZM476 318L343 318L410 491Z"  horiz-adv-x="822" vert-adv-y="1000"  />

      
      <glyph glyph-name="unie6" unicode="&#xe6;" d="M1100 204L716 204L716 255L960 255L960 447L716 447L716 496L1098 496L1098 700L369 700L-10 0L234 0L295 116L500 116L500 0L1100 0ZM500 320L402 320L500 506Z"  horiz-adv-x="1134" vert-adv-y="1000"  />

      
      <glyph glyph-name="unie7" unicode="&#xe7;" d="M776 471C776 636 665 717 474 717L373 717C120 714 41 635 38 382L38 318C41 65 120-14 373-17L474-17C665-17 776 64 776 229L552 229C544 200 522 189 438 189L388 189C276 189 254 211 254 323L254 377C254 487 276 511 388 511L438 511C522 511 544 500 552 471ZM462-17L363-17L343-49L343-123L446-123C461-123 468-128 468-139C468-148 461-153 446-153L312-153L312-243L448-243C531-243 564-213 564-144C564-75 531-43 448-43L444-43Z"  horiz-adv-x="808" vert-adv-y="1000"  />

      
      <glyph glyph-name="unie8" unicode="&#xe8;" d="M380 902L194 902L287 750L456 750ZM689 204L268 204L268 255L552 255L552 447L268 447L268 496L687 496L687 700L52 700L52 0L689 0Z"  horiz-adv-x="723" vert-adv-y="1000"  />

      
      <glyph glyph-name="unie9" unicode="&#xe9;" d="M456 750L549 902L363 902L287 750ZM689 204L268 204L268 255L552 255L552 447L268 447L268 496L687 496L687 700L52 700L52 0L689 0Z"  horiz-adv-x="723" vert-adv-y="1000"  />

      
      <glyph glyph-name="uniea" unicode="&#xea;" d="M431 750L592 750L500 894L242 894L150 750L311 750L371 823ZM689 204L268 204L268 255L552 255L552 447L268 447L268 496L687 496L687 700L52 700L52 0L689 0Z"  horiz-adv-x="723" vert-adv-y="1000"  />

      
      <glyph glyph-name="unieb" unicode="&#xeb;" d="M323 836C323 899 294 928 230 928C166 928 137 899 137 836C137 773 166 744 230 744C294 744 323 773 323 836ZM605 836C605 899 576 928 512 928C448 928 419 899 419 836C419 773 448 744 512 744C576 744 605 773 605 836ZM689 204L268 204L268 255L552 255L552 447L268 447L268 496L687 496L687 700L52 700L52 0L689 0Z"  horiz-adv-x="723" vert-adv-y="1000"  />

      
      <glyph glyph-name="uniec" unicode="&#xec;" d="M175 902L-11 902L82 750L251 750ZM273 0L273 700L57 700L57 0Z"  horiz-adv-x="331" vert-adv-y="1000"  />

      
      <glyph glyph-name="unied" unicode="&#xed;" d="M251 750L344 902L158 902L82 750ZM273 0L273 700L57 700L57 0Z"  horiz-adv-x="331" vert-adv-y="1000"  />

      
      <glyph glyph-name="uniee" unicode="&#xee;" d="M226 750L387 750L295 894L37 894L-55 750L106 750L166 823ZM273 0L273 700L57 700L57 0Z"  horiz-adv-x="331" vert-adv-y="1000"  />

      
      <glyph glyph-name="unief" unicode="&#xef;" d="M118 836C118 899 89 928 25 928C-39 928-68 899-68 836C-68 773-39 744 25 744C89 744 118 773 118 836ZM400 836C400 899 371 928 307 928C243 928 214 899 214 836C214 773 243 744 307 744C371 744 400 773 400 836ZM273 0L273 700L57 700L57 0Z"  horiz-adv-x="331" vert-adv-y="1000"  />

      
      <glyph glyph-name="unif0" unicode="&#xf0;" d="M794 365C794 612 682 700 429 700L62 700L62 443L0 443L0 257L62 257L62 0L429 0C682 0 794 88 794 335ZM414 496C533 496 578 459 578 360L578 340C578 241 533 204 414 204L278 204L278 257L458 257L458 443L278 443L278 496Z"  horiz-adv-x="824" vert-adv-y="1000"  />

      
      <glyph glyph-name="unif1" unicode="&#xf1;" d="M423 868C387 883 363 891 332 891C264 891 220 842 207 755L311 755C316 776 328 787 348 787C363 787 383 780 403 772C440 757 467 749 499 749C570 749 612 794 625 885L521 885C517 862 504 851 483 851C467 851 451 856 423 868ZM780 0L780 700L564 700L564 367L272 700L52 700L52 0L268 0L268 373L595 0Z"  horiz-adv-x="832" vert-adv-y="1000"  />

      
      <glyph glyph-name="unif2" unicode="&#xf2;" d="M428 902L242 902L335 750L504 750ZM800 382C797 635 718 714 465 717L373 717C120 714 41 635 38 382L38 318C41 65 120-14 373-17L465-17C718-14 797 65 800 318ZM254 377C254 487 276 511 388 511L450 511C562 511 584 487 584 377L584 323C584 211 562 189 450 189L388 189C276 189 254 211 254 323Z"  horiz-adv-x="838" vert-adv-y="1000"  />

      
      <glyph glyph-name="unif3" unicode="&#xf3;" d="M504 750L597 902L411 902L335 750ZM800 382C797 635 718 714 465 717L373 717C120 714 41 635 38 382L38 318C41 65 120-14 373-17L465-17C718-14 797 65 800 318ZM254 377C254 487 276 511 388 511L450 511C562 511 584 487 584 377L584 323C584 211 562 189 450 189L388 189C276 189 254 211 254 323Z"  horiz-adv-x="838" vert-adv-y="1000"  />

      
      <glyph glyph-name="unif4" unicode="&#xf4;" d="M479 750L640 750L548 894L290 894L198 750L359 750L419 823ZM800 382C797 635 718 714 465 717L373 717C120 714 41 635 38 382L38 318C41 65 120-14 373-17L465-17C718-14 797 65 800 318ZM254 377C254 487 276 511 388 511L450 511C562 511 584 487 584 377L584 323C584 211 562 189 450 189L388 189C276 189 254 211 254 323Z"  horiz-adv-x="838" vert-adv-y="1000"  />

      
      <glyph glyph-name="unif5" unicode="&#xf5;" d="M426 868C390 883 366 891 335 891C267 891 223 842 210 755L314 755C319 776 331 787 351 787C366 787 386 780 406 772C443 757 470 749 502 749C573 749 615 794 628 885L524 885C520 862 507 851 486 851C470 851 454 856 426 868ZM800 382C797 635 718 714 465 717L373 717C120 714 41 635 38 382L38 318C41 65 120-14 373-17L465-17C718-14 797 65 800 318ZM254 377C254 487 276 511 388 511L450 511C562 511 584 487 584 377L584 323C584 211 562 189 450 189L388 189C276 189 254 211 254 323Z"  horiz-adv-x="838" vert-adv-y="1000"  />

      
      <glyph glyph-name="unif6" unicode="&#xf6;" d="M371 836C371 899 342 928 278 928C214 928 185 899 185 836C185 773 214 744 278 744C342 744 371 773 371 836ZM653 836C653 899 624 928 560 928C496 928 467 899 467 836C467 773 496 744 560 744C624 744 653 773 653 836ZM800 382C797 635 718 714 465 717L373 717C120 714 41 635 38 382L38 318C41 65 120-14 373-17L465-17C718-14 797 65 800 318ZM254 377C254 487 276 511 388 511L450 511C562 511 584 487 584 377L584 323C584 211 562 189 450 189L388 189C276 189 254 211 254 323Z"  horiz-adv-x="838" vert-adv-y="1000"  />

      
      <glyph glyph-name="unif7" unicode="&#xf7;" d="M652 246L652 450L32 450L32 246ZM465 593C465 674 429 710 346 710C263 710 227 674 227 593C227 512 263 476 346 476C429 476 465 512 465 593ZM465 103C465 184 429 220 346 220C263 220 227 184 227 103C227 22 263-14 346-14C429-14 465 22 465 103Z"  horiz-adv-x="684" vert-adv-y="1000"  />

      
      <glyph glyph-name="unif8" unicode="&#xf8;" d="M800 382C800 499 781 579 737 631L776 675L695 746L647 692C600 709 539 717 465 717L373 717C120 714 41 635 38 382L38 318C38 205 56 127 96 75L47 20L126-52L183 11C230-8 294-17 373-17L465-17C718-14 797 65 800 318ZM259 258C256 272 254 294 254 323L254 377C254 487 276 511 388 511L450 511C466 511 477 511 484 510ZM576 452C581 435 584 410 584 377L584 323C584 211 562 189 450 189L388 189C375 189 360 190 343 191Z"  horiz-adv-x="838" vert-adv-y="1000"  />

      
      <glyph glyph-name="unif9" unicode="&#xf9;" d="M421 902L235 902L328 750L497 750ZM442-17C695-14 774 65 777 318L777 700L561 700L561 323C561 211 539 189 427 189L397 189C285 189 263 211 263 323L263 700L47 700L47 318C50 65 129-14 382-17Z"  horiz-adv-x="824" vert-adv-y="1000"  />

      
      <glyph glyph-name="unifa" unicode="&#xfa;" d="M497 750L590 902L404 902L328 750ZM442-17C695-14 774 65 777 318L777 700L561 700L561 323C561 211 539 189 427 189L397 189C285 189 263 211 263 323L263 700L47 700L47 318C50 65 129-14 382-17Z"  horiz-adv-x="824" vert-adv-y="1000"  />

      
      <glyph glyph-name="unifb" unicode="&#xfb;" d="M472 750L633 750L541 894L283 894L191 750L352 750L412 823ZM442-17C695-14 774 65 777 318L777 700L561 700L561 323C561 211 539 189 427 189L397 189C285 189 263 211 263 323L263 700L47 700L47 318C50 65 129-14 382-17Z"  horiz-adv-x="824" vert-adv-y="1000"  />

      
      <glyph glyph-name="unifc" unicode="&#xfc;" d="M364 836C364 899 335 928 271 928C207 928 178 899 178 836C178 773 207 744 271 744C335 744 364 773 364 836ZM646 836C646 899 617 928 553 928C489 928 460 899 460 836C460 773 489 744 553 744C617 744 646 773 646 836ZM442-17C695-14 774 65 777 318L777 700L561 700L561 323C561 211 539 189 427 189L397 189C285 189 263 211 263 323L263 700L47 700L47 318C50 65 129-14 382-17Z"  horiz-adv-x="824" vert-adv-y="1000"  />

      
      <glyph glyph-name="unifd" unicode="&#xfd;" d="M470 750L563 902L377 902L301 750ZM780 700L530 700L387 454L243 700L-8 700L277 228L277 0L493 0L493 228Z"  horiz-adv-x="773" vert-adv-y="1000"  />

      
      <glyph glyph-name="unife" unicode="&#xfe;" d="M786 352C786 509 694 592 518 592L268 592L268 700L52 700L52 0L268 0L268 112L518 112C694 112 786 195 786 352ZM570 352C570 328 554 316 523 316L268 316L268 388L523 388C555 388 570 375 570 352Z"  horiz-adv-x="804" vert-adv-y="1000"  />

      
      <glyph glyph-name="uniff" unicode="&#xff;" d="M337 836C337 899 308 928 244 928C180 928 151 899 151 836C151 773 180 744 244 744C308 744 337 773 337 836ZM619 836C619 899 590 928 526 928C462 928 433 899 433 836C433 773 462 744 526 744C590 744 619 773 619 836ZM780 700L530 700L387 454L243 700L-8 700L277 228L277 0L493 0L493 228Z"  horiz-adv-x="773" vert-adv-y="1000"  />

      
      <glyph glyph-name="uni0100" unicode="&#x0100;" d="M554 116L599 0L828 0L545 700L277 700L-6 0L221 0L266 116ZM476 320L344 320L410 491ZM605 750L605 856L217 856L217 750Z"  horiz-adv-x="822" vert-adv-y="1000"  />

      
      <glyph glyph-name="uni0101" unicode="&#x0101;" d="M605 750L605 856L217 856L217 750ZM554 116L599 0L828 0L545 700L277 700L-6 0L221 0L266 116ZM476 320L344 320L410 491Z"  horiz-adv-x="822" vert-adv-y="1000"  />

      
      <glyph glyph-name="uni0102" unicode="&#x0102;" d="M554 116L599 0L828 0L545 700L277 700L-6 0L221 0L266 116ZM476 320L344 320L410 491ZM411 744C528 744 598 806 598 911L598 921L494 921C494 874 460 844 411 844C362 844 328 874 328 921L224 921L224 911C224 806 294 744 411 744Z"  horiz-adv-x="822" vert-adv-y="1000"  />

      
      <glyph glyph-name="uni0103" unicode="&#x0103;" d="M411 744C528 744 598 806 598 911L598 921L494 921C494 874 460 844 411 844C362 844 328 874 328 921L224 921L224 911C224 806 294 744 411 744ZM554 116L599 0L828 0L545 700L277 700L-6 0L221 0L266 116ZM476 320L344 320L410 491Z"  horiz-adv-x="822" vert-adv-y="1000"  />

      
      <glyph glyph-name="uni0104" unicode="&#x0104;" d="M779-70C748-70 733-62 733-45C733-25 760-12 828 0L545 700L277 700L-6 0L221 0L266 116L554 116L599 0C556-25 536-63 536-106C536-175 593-216 692-216L815-216L815-70ZM410 491L476 320L344 320Z"  horiz-adv-x="822" vert-adv-y="1000"  />

      
      <glyph glyph-name="uni0105" unicode="&#x0105;" d="M779-70C748-70 733-62 733-45C733-25 760-12 828 0L545 700L277 700L-6 0L221 0L266 116L554 116L599 0C556-25 536-63 536-106C536-175 593-216 692-216L815-216L815-70ZM410 491L476 320L344 320Z"  horiz-adv-x="822" vert-adv-y="1000"  />

      
      <glyph glyph-name="uni0106" unicode="&#x0106;" d="M776 471C776 636 665 717 474 717L373 717C120 714 41 635 38 382L38 318C41 65 120-14 373-17L474-17C665-17 776 64 776 229L552 229C544 200 522 189 438 189L388 189C276 189 254 211 254 323L254 377C254 487 276 511 388 511L438 511C522 511 544 500 552 471ZM493 750L586 902L400 902L324 750Z"  horiz-adv-x="808" vert-adv-y="1000"  />

      
      <glyph glyph-name="uni0107" unicode="&#x0107;" d="M493 750L586 902L400 902L324 750ZM776 471C776 636 665 717 474 717L373 717C120 714 41 635 38 382L38 318C41 65 120-14 373-17L474-17C665-17 776 64 776 229L552 229C544 200 522 189 438 189L388 189C276 189 254 211 254 323L254 377C254 487 276 511 388 511L438 511C522 511 544 500 552 471Z"  horiz-adv-x="808" vert-adv-y="1000"  />

      
      <glyph glyph-name="uni0108" unicode="&#x0108;" d="M776 471C776 636 665 717 474 717L373 717C120 714 41 635 38 382L38 318C41 65 120-14 373-17L474-17C665-17 776 64 776 229L552 229C544 200 522 189 438 189L388 189C276 189 254 211 254 323L254 377C254 487 276 511 388 511L438 511C522 511 544 500 552 471ZM468 750L629 750L537 894L279 894L187 750L348 750L408 823Z"  horiz-adv-x="808" vert-adv-y="1000"  />

      
      <glyph glyph-name="uni0109" unicode="&#x0109;" d="M468 750L629 750L537 894L279 894L187 750L348 750L408 823ZM776 471C776 636 665 717 474 717L373 717C120 714 41 635 38 382L38 318C41 65 120-14 373-17L474-17C665-17 776 64 776 229L552 229C544 200 522 189 438 189L388 189C276 189 254 211 254 323L254 377C254 487 276 511 388 511L438 511C522 511 544 500 552 471Z"  horiz-adv-x="808" vert-adv-y="1000"  />

      
      <glyph glyph-name="uni010A" unicode="&#x010A;" d="M776 471C776 636 665 717 474 717L373 717C120 714 41 635 38 382L38 318C41 65 120-14 373-17L474-17C665-17 776 64 776 229L552 229C544 200 522 189 438 189L388 189C276 189 254 211 254 323L254 377C254 487 276 511 388 511L438 511C522 511 544 500 552 471ZM501 836C501 899 472 928 408 928C344 928 315 899 315 836C315 773 344 744 408 744C472 744 501 773 501 836Z"  horiz-adv-x="808" vert-adv-y="1000"  />

      
      <glyph glyph-name="uni010B" unicode="&#x010B;" d="M501 836C501 899 472 928 408 928C344 928 315 899 315 836C315 773 344 744 408 744C472 744 501 773 501 836ZM776 471C776 636 665 717 474 717L373 717C120 714 41 635 38 382L38 318C41 65 120-14 373-17L474-17C665-17 776 64 776 229L552 229C544 200 522 189 438 189L388 189C276 189 254 211 254 323L254 377C254 487 276 511 388 511L438 511C522 511 544 500 552 471Z"  horiz-adv-x="808" vert-adv-y="1000"  />

      
      <glyph glyph-name="uni010C" unicode="&#x010C;" d="M776 471C776 636 665 717 474 717L373 717C120 714 41 635 38 382L38 318C41 65 120-14 373-17L474-17C665-17 776 64 776 229L552 229C544 200 522 189 438 189L388 189C276 189 254 211 254 323L254 377C254 487 276 511 388 511L438 511C522 511 544 500 552 471ZM629 894L468 894L408 821L348 894L187 894L279 750L537 750Z"  horiz-adv-x="808" vert-adv-y="1000"  />

      
      <glyph glyph-name="uni010D" unicode="&#x010D;" d="M629 894L468 894L408 821L348 894L187 894L279 750L537 750ZM776 471C776 636 665 717 474 717L373 717C120 714 41 635 38 382L38 318C41 65 120-14 373-17L474-17C665-17 776 64 776 229L552 229C544 200 522 189 438 189L388 189C276 189 254 211 254 323L254 377C254 487 276 511 388 511L438 511C522 511 544 500 552 471Z"  horiz-adv-x="808" vert-adv-y="1000"  />

      
      <glyph glyph-name="uni010E" unicode="&#x010E;" d="M784 365C784 612 672 700 419 700L52 700L52 0L419 0C672 0 784 88 784 335ZM268 496L404 496C523 496 568 459 568 360L568 340C568 241 523 204 404 204L268 204ZM585 894L424 894L364 821L304 894L143 894L235 750L493 750Z"  horiz-adv-x="814" vert-adv-y="1000"  />

      
      <glyph glyph-name="uni010F" unicode="&#x010F;" d="M784 365C784 612 672 700 419 700L52 700L52 0L419 0C672 0 784 88 784 335ZM268 496L404 496C523 496 568 459 568 360L568 340C568 241 523 204 404 204L268 204ZM585 894L424 894L364 821L304 894L143 894L235 750L493 750Z"  horiz-adv-x="814" vert-adv-y="1000"  />

      
      <glyph glyph-name="uni0110" unicode="&#x0110;" d="M794 365C794 612 682 700 429 700L62 700L62 443L0 443L0 257L62 257L62 0L429 0C682 0 794 88 794 335ZM414 496C533 496 578 459 578 360L578 340C578 241 533 204 414 204L278 204L278 257L458 257L458 443L278 443L278 496Z"  horiz-adv-x="824" vert-adv-y="1000"  />

      
      <glyph glyph-name="uni0111" unicode="&#x0111;" d="M794 365C794 612 682 700 429 700L62 700L62 443L0 443L0 257L62 257L62 0L429 0C682 0 794 88 794 335ZM414 496C533 496 578 459 578 360L578 340C578 241 533 204 414 204L278 204L278 257L458 257L458 443L278 443L278 496Z"  horiz-adv-x="824" vert-adv-y="1000"  />

      
      <glyph glyph-name="uni0112" unicode="&#x0112;" d="M689 204L268 204L268 255L552 255L552 447L268 447L268 496L687 496L687 700L52 700L52 0L689 0ZM565 750L565 856L177 856L177 750Z"  horiz-adv-x="723" vert-adv-y="1000"  />

      
      <glyph glyph-name="uni0113" unicode="&#x0113;" d="M565 750L565 856L177 856L177 750ZM689 204L268 204L268 255L552 255L552 447L268 447L268 496L687 496L687 700L52 700L52 0L689 0Z"  horiz-adv-x="723" vert-adv-y="1000"  />

      
      <glyph glyph-name="uni0114" unicode="&#x0114;" d="M689 204L268 204L268 255L552 255L552 447L268 447L268 496L687 496L687 700L52 700L52 0L689 0ZM371 744C488 744 558 806 558 911L558 921L454 921C454 874 420 844 371 844C322 844 288 874 288 921L184 921L184 911C184 806 254 744 371 744Z"  horiz-adv-x="723" vert-adv-y="1000"  />

      
      <glyph glyph-name="uni0115" unicode="&#x0115;" d="M371 744C488 744 558 806 558 911L558 921L454 921C454 874 420 844 371 844C322 844 288 874 288 921L184 921L184 911C184 806 254 744 371 744ZM689 204L268 204L268 255L552 255L552 447L268 447L268 496L687 496L687 700L52 700L52 0L689 0Z"  horiz-adv-x="723" vert-adv-y="1000"  />

      
      <glyph glyph-name="uni0116" unicode="&#x0116;" d="M689 204L268 204L268 255L552 255L552 447L268 447L268 496L687 496L687 700L52 700L52 0L689 0ZM464 836C464 899 435 928 371 928C307 928 278 899 278 836C278 773 307 744 371 744C435 744 464 773 464 836Z"  horiz-adv-x="723" vert-adv-y="1000"  />

      
      <glyph glyph-name="uni0117" unicode="&#x0117;" d="M464 836C464 899 435 928 371 928C307 928 278 899 278 836C278 773 307 744 371 744C435 744 464 773 464 836ZM689 204L268 204L268 255L552 255L552 447L268 447L268 496L687 496L687 700L52 700L52 0L689 0Z"  horiz-adv-x="723" vert-adv-y="1000"  />

      
      <glyph glyph-name="uni0118" unicode="&#x0118;" d="M689 204L268 204L268 255L552 255L552 447L268 447L268 496L687 496L687 700L52 700L52 0L689 0ZM607-45C607-26 626-17 689 0L473 0C430-25 410-63 410-106C410-175 467-216 566-216L689-216L689-70L653-70C622-70 607-62 607-45Z"  horiz-adv-x="723" vert-adv-y="1000"  />

      
      <glyph glyph-name="uni0119" unicode="&#x0119;" d="M607-45C607-26 626-17 689 0L473 0C430-25 410-63 410-106C410-175 467-216 566-216L689-216L689-70L653-70C622-70 607-62 607-45ZM689 204L268 204L268 255L552 255L552 447L268 447L268 496L687 496L687 700L52 700L52 0L689 0Z"  horiz-adv-x="723" vert-adv-y="1000"  />

      
      <glyph glyph-name="uni011A" unicode="&#x011A;" d="M689 204L268 204L268 255L552 255L552 447L268 447L268 496L687 496L687 700L52 700L52 0L689 0ZM592 894L431 894L371 821L311 894L150 894L242 750L500 750Z"  horiz-adv-x="723" vert-adv-y="1000"  />

      
      <glyph glyph-name="uni011B" unicode="&#x011B;" d="M592 894L431 894L371 821L311 894L150 894L242 750L500 750ZM689 204L268 204L268 255L552 255L552 447L268 447L268 496L687 496L687 700L52 700L52 0L689 0Z"  horiz-adv-x="723" vert-adv-y="1000"  />

      
      <glyph glyph-name="uni011C" unicode="&#x011C;" d="M797 433L414 433L414 259L573 259C573 197 541 189 439 189L388 189C276 189 254 211 254 323L254 377C254 487 276 511 388 511L458 511C542 511 564 500 572 471L796 471C796 636 685 717 494 717L373 717C120 714 41 635 38 382L38 318C41 65 120-14 373-17L461-17C722-13 794 56 797 298ZM476 750L637 750L545 894L287 894L195 750L356 750L416 823Z"  horiz-adv-x="832" vert-adv-y="1000"  />

      
      <glyph glyph-name="uni011D" unicode="&#x011D;" d="M476 750L637 750L545 894L287 894L195 750L356 750L416 823ZM797 433L414 433L414 259L573 259C573 197 541 189 439 189L388 189C276 189 254 211 254 323L254 377C254 487 276 511 388 511L458 511C542 511 564 500 572 471L796 471C796 636 685 717 494 717L373 717C120 714 41 635 38 382L38 318C41 65 120-14 373-17L461-17C722-13 794 56 797 298Z"  horiz-adv-x="832" vert-adv-y="1000"  />

      
      <glyph glyph-name="uni011E" unicode="&#x011E;" d="M797 433L414 433L414 259L573 259C573 197 541 189 439 189L388 189C276 189 254 211 254 323L254 377C254 487 276 511 388 511L458 511C542 511 564 500 572 471L796 471C796 636 685 717 494 717L373 717C120 714 41 635 38 382L38 318C41 65 120-14 373-17L461-17C722-13 794 56 797 298ZM416 744C533 744 603 806 603 911L603 921L499 921C499 874 465 844 416 844C367 844 333 874 333 921L229 921L229 911C229 806 299 744 416 744Z"  horiz-adv-x="832" vert-adv-y="1000"  />

      
      <glyph glyph-name="uni011F" unicode="&#x011F;" d="M416 744C533 744 603 806 603 911L603 921L499 921C499 874 465 844 416 844C367 844 333 874 333 921L229 921L229 911C229 806 299 744 416 744ZM797 433L414 433L414 259L573 259C573 197 541 189 439 189L388 189C276 189 254 211 254 323L254 377C254 487 276 511 388 511L458 511C542 511 564 500 572 471L796 471C796 636 685 717 494 717L373 717C120 714 41 635 38 382L38 318C41 65 120-14 373-17L461-17C722-13 794 56 797 298Z"  horiz-adv-x="832" vert-adv-y="1000"  />

      
      <glyph glyph-name="uni0120" unicode="&#x0120;" d="M797 433L414 433L414 259L573 259C573 197 541 189 439 189L388 189C276 189 254 211 254 323L254 377C254 487 276 511 388 511L458 511C542 511 564 500 572 471L796 471C796 636 685 717 494 717L373 717C120 714 41 635 38 382L38 318C41 65 120-14 373-17L461-17C722-13 794 56 797 298ZM509 836C509 899 480 928 416 928C352 928 323 899 323 836C323 773 352 744 416 744C480 744 509 773 509 836Z"  horiz-adv-x="832" vert-adv-y="1000"  />

      
      <glyph glyph-name="uni0121" unicode="&#x0121;" d="M509 836C509 899 480 928 416 928C352 928 323 899 323 836C323 773 352 744 416 744C480 744 509 773 509 836ZM797 433L414 433L414 259L573 259C573 197 541 189 439 189L388 189C276 189 254 211 254 323L254 377C254 487 276 511 388 511L458 511C542 511 564 500 572 471L796 471C796 636 685 717 494 717L373 717C120 714 41 635 38 382L38 318C41 65 120-14 373-17L461-17C722-13 794 56 797 298Z"  horiz-adv-x="832" vert-adv-y="1000"  />

      
      <glyph glyph-name="uni0122" unicode="&#x0122;" d="M797 433L414 433L414 259L573 259C573 197 541 189 439 189L388 189C276 189 254 211 254 323L254 377C254 487 276 511 388 511L458 511C542 511 564 500 572 471L796 471C796 636 685 717 494 717L373 717C120 714 41 635 38 382L38 318C41 65 120-14 373-17L461-17C722-13 794 56 797 298ZM494-124C494-68 471-44 416-44C361-44 338-66 338-117C338-168 361-190 416-190L419-190C419-207 404-211 371-211L371-269L375-269C469-269 494-244 494-151Z"  horiz-adv-x="832" vert-adv-y="1000"  />

      
      <glyph glyph-name="uni0123" unicode="&#x0123;" d="M494-124C494-68 471-44 416-44C361-44 338-66 338-117C338-168 361-190 416-190L419-190C419-207 404-211 371-211L371-269L375-269C469-269 494-244 494-151ZM797 433L414 433L414 259L573 259C573 197 541 189 439 189L388 189C276 189 254 211 254 323L254 377C254 487 276 511 388 511L458 511C542 511 564 500 572 471L796 471C796 636 685 717 494 717L373 717C120 714 41 635 38 382L38 318C41 65 120-14 373-17L461-17C722-13 794 56 797 298Z"  horiz-adv-x="832" vert-adv-y="1000"  />

      
      <glyph glyph-name="uni0124" unicode="&#x0124;" d="M774 700L558 700L558 454L268 454L268 700L52 700L52 0L268 0L268 250L558 250L558 0L774 0ZM473 750L634 750L542 894L284 894L192 750L353 750L413 823Z"  horiz-adv-x="826" vert-adv-y="1000"  />

      
      <glyph glyph-name="uni0126" unicode="&#x0126;" d="M834 525L834 631L774 631L774 700L558 700L558 631L268 631L268 700L52 700L52 631L-8 631L-8 525L52 525L52 0L268 0L268 250L558 250L558 0L774 0L774 525ZM558 525L558 454L268 454L268 525Z"  horiz-adv-x="826" vert-adv-y="1000"  />

      
      <glyph glyph-name="uni0127" unicode="&#x0127;" d="M834 525L834 631L774 631L774 700L558 700L558 631L268 631L268 700L52 700L52 631L-8 631L-8 525L52 525L52 0L268 0L268 250L558 250L558 0L774 0L774 525ZM558 525L558 454L268 454L268 525Z"  horiz-adv-x="826" vert-adv-y="1000"  />

      
      <glyph glyph-name="uni0128" unicode="&#x0128;" d="M273 0L273 700L57 700L57 0ZM173 868C137 883 113 891 82 891C14 891-30 842-43 755L61 755C66 776 78 787 98 787C113 787 133 780 153 772C190 757 217 749 249 749C320 749 362 794 375 885L271 885C267 862 254 851 233 851C217 851 201 856 173 868Z"  horiz-adv-x="331" vert-adv-y="1000"  />

      
      <glyph glyph-name="uni0129" unicode="&#x0129;" d="M173 868C137 883 113 891 82 891C14 891-30 842-43 755L61 755C66 776 78 787 98 787C113 787 133 780 153 772C190 757 217 749 249 749C320 749 362 794 375 885L271 885C267 862 254 851 233 851C217 851 201 856 173 868ZM273 0L273 700L57 700L57 0Z"  horiz-adv-x="331" vert-adv-y="1000"  />

      
      <glyph glyph-name="uni012A" unicode="&#x012A;" d="M273 0L273 700L57 700L57 0ZM360 750L360 856L-28 856L-28 750Z"  horiz-adv-x="331" vert-adv-y="1000"  />

      
      <glyph glyph-name="uni012B" unicode="&#x012B;" d="M360 750L360 856L-28 856L-28 750ZM273 0L273 700L57 700L57 0Z"  horiz-adv-x="331" vert-adv-y="1000"  />

      
      <glyph glyph-name="uni012C" unicode="&#x012C;" d="M273 0L273 700L57 700L57 0ZM166 744C283 744 353 806 353 911L353 921L249 921C249 874 215 844 166 844C117 844 83 874 83 921L-21 921L-21 911C-21 806 49 744 166 744Z"  horiz-adv-x="331" vert-adv-y="1000"  />

      
      <glyph glyph-name="uni012D" unicode="&#x012D;" d="M166 744C283 744 353 806 353 911L353 921L249 921C249 874 215 844 166 844C117 844 83 874 83 921L-21 921L-21 911C-21 806 49 744 166 744ZM273 0L273 700L57 700L57 0Z"  horiz-adv-x="331" vert-adv-y="1000"  />

      
      <glyph glyph-name="uni012E" unicode="&#x012E;" d="M273 0L273 700L57 700L57 0ZM192-45C192-26 211-17 274 0L58 0C15-25-5-63-5-106C-5-175 52-216 151-216L274-216L274-70L238-70C207-70 192-62 192-45Z"  horiz-adv-x="331" vert-adv-y="1000"  />

      
      <glyph glyph-name="uni012F" unicode="&#x012F;" d="M192-45C192-26 211-17 274 0L58 0C15-25-5-63-5-106C-5-175 52-216 151-216L274-216L274-70L238-70C207-70 192-62 192-45ZM273 0L273 700L57 700L57 0Z"  horiz-adv-x="331" vert-adv-y="1000"  />

      
      <glyph glyph-name="uni0130" unicode="&#x0130;" d="M273 0L273 700L57 700L57 0ZM259 836C259 899 230 928 166 928C102 928 73 899 73 836C73 773 102 744 166 744C230 744 259 773 259 836Z"  horiz-adv-x="331" vert-adv-y="1000"  />

      
      <glyph glyph-name="uni0131" unicode="&#x0131;" d="M273 0L273 700L57 700L57 0Z"  horiz-adv-x="331" vert-adv-y="1000"  />

      
      <glyph glyph-name="uni0132" unicode="&#x0132;" d="M273 0L273 700L57 700L57 0ZM1007 700L429 700L429 496L791 496L791 324C791 215 768 190 672 190C609 190 578 202 573 230L349 230C349 51 468-17 676-17C922-14 1004 65 1007 318Z"  horiz-adv-x="1054" vert-adv-y="1000"  />

      
      <glyph glyph-name="uni0133" unicode="&#x0133;" d="M273 0L273 700L57 700L57 0ZM1007 700L429 700L429 496L791 496L791 324C791 215 768 190 672 190C609 190 578 202 573 230L349 230C349 51 468-17 676-17C922-14 1004 65 1007 318Z"  horiz-adv-x="1054" vert-adv-y="1000"  />

      
      <glyph glyph-name="uni0134" unicode="&#x0134;" d="M676 700L98 700L98 496L460 496L460 324C460 215 437 190 341 190C278 190 247 202 242 230L18 230C18 51 137-17 345-17C591-14 673 65 676 318ZM447 750L608 750L516 894L258 894L166 750L327 750L387 823Z"  horiz-adv-x="723" vert-adv-y="1000"  />

      
      <glyph glyph-name="uni0136" unicode="&#x0136;" d="M419 272L549 0L784 0L611 378L775 469L775 712L268 424L268 700L52 700L52 0L268 0L268 188ZM488-124C488-68 465-44 410-44C355-44 332-66 332-117C332-168 355-190 410-190L413-190C413-207 398-211 365-211L365-269L369-269C463-269 488-244 488-151Z"  horiz-adv-x="813" vert-adv-y="1000"  />

      
      <glyph glyph-name="uni0137" unicode="&#x0137;" d="M488-124C488-68 465-44 410-44C355-44 332-66 332-117C332-168 355-190 410-190L413-190C413-207 398-211 365-211L365-269L369-269C463-269 488-244 488-151ZM419 272L549 0L784 0L611 378L775 469L775 712L268 424L268 700L52 700L52 0L268 0L268 188Z"  horiz-adv-x="813" vert-adv-y="1000"  />

      
      <glyph glyph-name="uni0139" unicode="&#x0139;" d="M664 204L268 204L268 700L52 700L52 0L664 0ZM246 750L339 902L153 902L77 750Z"  horiz-adv-x="686" vert-adv-y="1000"  />

      
      <glyph glyph-name="uni013A" unicode="&#x013A;" d="M246 750L339 902L153 902L77 750ZM664 204L268 204L268 700L52 700L52 0L664 0Z"  horiz-adv-x="686" vert-adv-y="1000"  />

      
      <glyph glyph-name="uni013B" unicode="&#x013B;" d="M664 204L268 204L268 700L52 700L52 0L664 0ZM448-124C448-68 425-44 370-44C315-44 292-66 292-117C292-168 315-190 370-190L373-190C373-207 358-211 325-211L325-269L329-269C423-269 448-244 448-151Z"  horiz-adv-x="686" vert-adv-y="1000"  />

      
      <glyph glyph-name="uni013C" unicode="&#x013C;" d="M448-124C448-68 425-44 370-44C315-44 292-66 292-117C292-168 315-190 370-190L373-190C373-207 358-211 325-211L325-269L329-269C423-269 448-244 448-151ZM664 204L268 204L268 700L52 700L52 0L664 0Z"  horiz-adv-x="686" vert-adv-y="1000"  />

      
      <glyph glyph-name="uni013D" unicode="&#x013D;" d="M664 204L268 204L268 700L52 700L52 0L664 0ZM467 459L494 700L332 700L332 459Z"  horiz-adv-x="686" vert-adv-y="1000"  />

      
      <glyph glyph-name="uni013E" unicode="&#x013E;" d="M467 459L494 700L332 700L332 459ZM664 204L268 204L268 700L52 700L52 0L664 0Z"  horiz-adv-x="686" vert-adv-y="1000"  />

      
      <glyph glyph-name="uni013F" unicode="&#x013F;" d="M664 204L268 204L268 700L52 700L52 0L664 0ZM592 428C592 491 563 520 499 520C435 520 406 491 406 428C406 365 435 336 499 336C563 336 592 365 592 428Z"  horiz-adv-x="686" vert-adv-y="1000"  />

      
      <glyph glyph-name="uni0140" unicode="&#x0140;" d="M664 204L268 204L268 700L52 700L52 0L664 0ZM592 428C592 491 563 520 499 520C435 520 406 491 406 428C406 365 435 336 499 336C563 336 592 365 592 428Z"  horiz-adv-x="686" vert-adv-y="1000"  />

      
      <glyph glyph-name="uni0141" unicode="&#x0141;" d="M684 204L288 204L288 288L532 392L532 596L288 492L288 700L72 700L72 400L-8 366L-8 162L72 196L72 0L684 0Z"  horiz-adv-x="706" vert-adv-y="1000"  />

      
      <glyph glyph-name="uni0142" unicode="&#x0142;" d="M684 204L288 204L288 288L532 392L532 596L288 492L288 700L72 700L72 400L-8 366L-8 162L72 196L72 0L684 0Z"  horiz-adv-x="706" vert-adv-y="1000"  />

      
      <glyph glyph-name="uni0143" unicode="&#x0143;" d="M780 0L780 700L564 700L564 367L272 700L52 700L52 0L268 0L268 373L595 0ZM501 750L594 902L408 902L332 750Z"  horiz-adv-x="832" vert-adv-y="1000"  />

      
      <glyph glyph-name="uni0144" unicode="&#x0144;" d="M501 750L594 902L408 902L332 750ZM780 0L780 700L564 700L564 367L272 700L52 700L52 0L268 0L268 373L595 0Z"  horiz-adv-x="832" vert-adv-y="1000"  />

      
      <glyph glyph-name="uni0145" unicode="&#x0145;" d="M780 0L780 700L564 700L564 367L272 700L52 700L52 0L268 0L268 373L595 0ZM510-124C510-68 487-44 432-44C377-44 354-66 354-117C354-168 377-190 432-190L435-190C435-207 420-211 387-211L387-269L391-269C485-269 510-244 510-151Z"  horiz-adv-x="832" vert-adv-y="1000"  />

      
      <glyph glyph-name="uni0146" unicode="&#x0146;" d="M510-124C510-68 487-44 432-44C377-44 354-66 354-117C354-168 377-190 432-190L435-190C435-207 420-211 387-211L387-269L391-269C485-269 510-244 510-151ZM780 0L780 700L564 700L564 367L272 700L52 700L52 0L268 0L268 373L595 0Z"  horiz-adv-x="832" vert-adv-y="1000"  />

      
      <glyph glyph-name="uni0147" unicode="&#x0147;" d="M780 0L780 700L564 700L564 367L272 700L52 700L52 0L268 0L268 373L595 0ZM637 894L476 894L416 821L356 894L195 894L287 750L545 750Z"  horiz-adv-x="832" vert-adv-y="1000"  />

      
      <glyph glyph-name="uni0148" unicode="&#x0148;" d="M637 894L476 894L416 821L356 894L195 894L287 750L545 750ZM780 0L780 700L564 700L564 367L272 700L52 700L52 0L268 0L268 373L595 0Z"  horiz-adv-x="832" vert-adv-y="1000"  />

      
      <glyph glyph-name="uni014A" unicode="&#x014A;" d="M780 700L564 700L564 367L272 700L52 700L52 0L268 0L268 373L564 35L564 15C564-26 540-46 491-46L469-46L469-250L495-250C688-250 780-169 780 0Z"  horiz-adv-x="832" vert-adv-y="1000"  />

      
      <glyph glyph-name="uni014B" unicode="&#x014B;" d="M780 700L564 700L564 367L272 700L52 700L52 0L268 0L268 373L564 35L564 15C564-26 540-46 491-46L469-46L469-250L495-250C688-250 780-169 780 0Z"  horiz-adv-x="832" vert-adv-y="1000"  />

      
      <glyph glyph-name="uni014C" unicode="&#x014C;" d="M800 382C797 635 718 714 465 717L373 717C120 714 41 635 38 382L38 318C41 65 120-14 373-17L465-17C718-14 797 65 800 318ZM254 377C254 487 276 511 388 511L450 511C562 511 584 487 584 377L584 323C584 211 562 189 450 189L388 189C276 189 254 211 254 323ZM613 750L613 856L225 856L225 750Z"  horiz-adv-x="838" vert-adv-y="1000"  />

      
      <glyph glyph-name="uni014D" unicode="&#x014D;" d="M613 750L613 856L225 856L225 750ZM800 382C797 635 718 714 465 717L373 717C120 714 41 635 38 382L38 318C41 65 120-14 373-17L465-17C718-14 797 65 800 318ZM254 377C254 487 276 511 388 511L450 511C562 511 584 487 584 377L584 323C584 211 562 189 450 189L388 189C276 189 254 211 254 323Z"  horiz-adv-x="838" vert-adv-y="1000"  />

      
      <glyph glyph-name="uni014E" unicode="&#x014E;" d="M800 382C797 635 718 714 465 717L373 717C120 714 41 635 38 382L38 318C41 65 120-14 373-17L465-17C718-14 797 65 800 318ZM254 377C254 487 276 511 388 511L450 511C562 511 584 487 584 377L584 323C584 211 562 189 450 189L388 189C276 189 254 211 254 323ZM419 744C536 744 606 806 606 911L606 921L502 921C502 874 468 844 419 844C370 844 336 874 336 921L232 921L232 911C232 806 302 744 419 744Z"  horiz-adv-x="838" vert-adv-y="1000"  />

      
      <glyph glyph-name="uni014F" unicode="&#x014F;" d="M419 744C536 744 606 806 606 911L606 921L502 921C502 874 468 844 419 844C370 844 336 874 336 921L232 921L232 911C232 806 302 744 419 744ZM800 382C797 635 718 714 465 717L373 717C120 714 41 635 38 382L38 318C41 65 120-14 373-17L465-17C718-14 797 65 800 318ZM254 377C254 487 276 511 388 511L450 511C562 511 584 487 584 377L584 323C584 211 562 189 450 189L388 189C276 189 254 211 254 323Z"  horiz-adv-x="838" vert-adv-y="1000"  />

      
      <glyph glyph-name="uni0150" unicode="&#x0150;" d="M800 382C797 635 718 714 465 717L373 717C120 714 41 635 38 382L38 318C41 65 120-14 373-17L465-17C718-14 797 65 800 318ZM254 377C254 487 276 511 388 511L450 511C562 511 584 487 584 377L584 323C584 211 562 189 450 189L388 189C276 189 254 211 254 323ZM332 750L431 902L245 902L161 750ZM614 750L713 902L527 902L443 750Z"  horiz-adv-x="838" vert-adv-y="1000"  />

      
      <glyph glyph-name="uni0151" unicode="&#x0151;" d="M332 750L431 902L245 902L161 750ZM614 750L713 902L527 902L443 750ZM800 382C797 635 718 714 465 717L373 717C120 714 41 635 38 382L38 318C41 65 120-14 373-17L465-17C718-14 797 65 800 318ZM254 377C254 487 276 511 388 511L450 511C562 511 584 487 584 377L584 323C584 211 562 189 450 189L388 189C276 189 254 211 254 323Z"  horiz-adv-x="838" vert-adv-y="1000"  />

      
      <glyph glyph-name="uni0152" unicode="&#x0152;" d="M1221 204L800 204L800 255L1084 255L1084 447L800 447L800 496L1219 496L1219 700L621 700C580 711 528 717 465 717L373 717C120 714 41 635 38 382L38 318C41 65 120-14 373-17L465-17C530-17 582-11 621 0L1221 0ZM584 323C584 211 562 189 450 189L388 189C276 189 254 211 254 323L254 377C254 487 276 511 388 511L450 511C562 511 584 487 584 377Z"  horiz-adv-x="1255" vert-adv-y="1000"  />

      
      <glyph glyph-name="uni0153" unicode="&#x0153;" d="M1221 204L800 204L800 255L1084 255L1084 447L800 447L800 496L1219 496L1219 700L621 700C580 711 528 717 465 717L373 717C120 714 41 635 38 382L38 318C41 65 120-14 373-17L465-17C530-17 582-11 621 0L1221 0ZM584 323C584 211 562 189 450 189L388 189C276 189 254 211 254 323L254 377C254 487 276 511 388 511L450 511C562 511 584 487 584 377Z"  horiz-adv-x="1255" vert-adv-y="1000"  />

      
      <glyph glyph-name="uni0154" unicode="&#x0154;" d="M432 228L557 0L800 0L656 251C740 286 786 357 786 460C786 617 694 700 518 700L52 700L52 0L268 0L268 228ZM268 432L268 496L523 496C554 496 570 485 570 464C570 443 556 432 523 432ZM470 750L563 902L377 902L301 750Z"  horiz-adv-x="813" vert-adv-y="1000"  />

      
      <glyph glyph-name="uni0155" unicode="&#x0155;" d="M470 750L563 902L377 902L301 750ZM432 228L557 0L800 0L656 251C740 286 786 357 786 460C786 617 694 700 518 700L52 700L52 0L268 0L268 228ZM268 432L268 496L523 496C554 496 570 485 570 464C570 443 556 432 523 432Z"  horiz-adv-x="813" vert-adv-y="1000"  />

      
      <glyph glyph-name="uni0156" unicode="&#x0156;" d="M432 228L557 0L800 0L656 251C740 286 786 357 786 460C786 617 694 700 518 700L52 700L52 0L268 0L268 228ZM268 432L268 496L523 496C554 496 570 485 570 464C570 443 556 432 523 432ZM490-124C490-68 467-44 412-44C357-44 334-66 334-117C334-168 357-190 412-190L415-190C415-207 400-211 367-211L367-269L371-269C465-269 490-244 490-151Z"  horiz-adv-x="813" vert-adv-y="1000"  />

      
      <glyph glyph-name="uni0157" unicode="&#x0157;" d="M490-124C490-68 467-44 412-44C357-44 334-66 334-117C334-168 357-190 412-190L415-190C415-207 400-211 367-211L367-269L371-269C465-269 490-244 490-151ZM432 228L557 0L800 0L656 251C740 286 786 357 786 460C786 617 694 700 518 700L52 700L52 0L268 0L268 228ZM268 432L268 496L523 496C554 496 570 485 570 464C570 443 556 432 523 432Z"  horiz-adv-x="813" vert-adv-y="1000"  />

      
      <glyph glyph-name="uni0158" unicode="&#x0158;" d="M432 228L557 0L800 0L656 251C740 286 786 357 786 460C786 617 694 700 518 700L52 700L52 0L268 0L268 228ZM268 432L268 496L523 496C554 496 570 485 570 464C570 443 556 432 523 432ZM606 894L445 894L385 821L325 894L164 894L256 750L514 750Z"  horiz-adv-x="813" vert-adv-y="1000"  />

      
      <glyph glyph-name="uni0159" unicode="&#x0159;" d="M606 894L445 894L385 821L325 894L164 894L256 750L514 750ZM432 228L557 0L800 0L656 251C740 286 786 357 786 460C786 617 694 700 518 700L52 700L52 0L268 0L268 228ZM268 432L268 496L523 496C554 496 570 485 570 464C570 443 556 432 523 432Z"  horiz-adv-x="813" vert-adv-y="1000"  />

      
      <glyph glyph-name="uni015A" unicode="&#x015A;" d="M756 471C756 636 640 717 456 717L324 717C136 717 28 643 28 482C28 326 127 249 327 249L498 249C533 249 548 239 548 218C548 198 533 189 498 189L366 189C282 189 260 200 252 229L28 229C28 146 55 84 109 43C164 3 237-17 328-17L470-17C667-17 769 57 769 218C769 385 673 451 473 451L297 451C262 451 247 461 247 482C247 502 262 511 297 511L418 511C502 511 524 500 532 471ZM477 750L570 902L384 902L308 750Z"  horiz-adv-x="795" vert-adv-y="1000"  />

      
      <glyph glyph-name="uni015B" unicode="&#x015B;" d="M477 750L570 902L384 902L308 750ZM756 471C756 636 640 717 456 717L324 717C136 717 28 643 28 482C28 326 127 249 327 249L498 249C533 249 548 239 548 218C548 198 533 189 498 189L366 189C282 189 260 200 252 229L28 229C28 146 55 84 109 43C164 3 237-17 328-17L470-17C667-17 769 57 769 218C769 385 673 451 473 451L297 451C262 451 247 461 247 482C247 502 262 511 297 511L418 511C502 511 524 500 532 471Z"  horiz-adv-x="795" vert-adv-y="1000"  />

      
      <glyph glyph-name="uni015C" unicode="&#x015C;" d="M756 471C756 636 640 717 456 717L324 717C136 717 28 643 28 482C28 326 127 249 327 249L498 249C533 249 548 239 548 218C548 198 533 189 498 189L366 189C282 189 260 200 252 229L28 229C28 146 55 84 109 43C164 3 237-17 328-17L470-17C667-17 769 57 769 218C769 385 673 451 473 451L297 451C262 451 247 461 247 482C247 502 262 511 297 511L418 511C502 511 524 500 532 471ZM452 750L613 750L521 894L263 894L171 750L332 750L392 823Z"  horiz-adv-x="795" vert-adv-y="1000"  />

      
      <glyph glyph-name="uni015E" unicode="&#x015E;" d="M453-17L354-17L334-49L334-123L437-123C452-123 459-128 459-139C459-148 452-153 437-153L303-153L303-243L439-243C522-243 555-213 555-144C555-75 522-43 439-43L435-43ZM756 471C756 636 640 717 456 717L324 717C136 717 28 643 28 482C28 326 127 249 327 249L498 249C533 249 548 239 548 218C548 198 533 189 498 189L366 189C282 189 260 200 252 229L28 229C28 146 55 84 109 43C164 3 237-17 328-17L470-17C667-17 769 57 769 218C769 385 673 451 473 451L297 451C262 451 247 461 247 482C247 502 262 511 297 511L418 511C502 511 524 500 532 471Z"  horiz-adv-x="795" vert-adv-y="1000"  />

      
      <glyph glyph-name="uni015F" unicode="&#x015F;" d="M453-17L354-17L334-49L334-123L437-123C452-123 459-128 459-139C459-148 452-153 437-153L303-153L303-243L439-243C522-243 555-213 555-144C555-75 522-43 439-43L435-43ZM756 471C756 636 640 717 456 717L324 717C136 717 28 643 28 482C28 326 127 249 327 249L498 249C533 249 548 239 548 218C548 198 533 189 498 189L366 189C282 189 260 200 252 229L28 229C28 146 55 84 109 43C164 3 237-17 328-17L470-17C667-17 769 57 769 218C769 385 673 451 473 451L297 451C262 451 247 461 247 482C247 502 262 511 297 511L418 511C502 511 524 500 532 471Z"  horiz-adv-x="795" vert-adv-y="1000"  />

      
      <glyph glyph-name="uni0160" unicode="&#x0160;" d="M756 471C756 636 640 717 456 717L324 717C136 717 28 643 28 482C28 326 127 249 327 249L498 249C533 249 548 239 548 218C548 198 533 189 498 189L366 189C282 189 260 200 252 229L28 229C28 146 55 84 109 43C164 3 237-17 328-17L470-17C667-17 769 57 769 218C769 385 673 451 473 451L297 451C262 451 247 461 247 482C247 502 262 511 297 511L418 511C502 511 524 500 532 471ZM613 894L452 894L392 821L332 894L171 894L263 750L521 750Z"  horiz-adv-x="795" vert-adv-y="1000"  />

      
      <glyph glyph-name="uni0161" unicode="&#x0161;" d="M613 894L452 894L392 821L332 894L171 894L263 750L521 750ZM756 471C756 636 640 717 456 717L324 717C136 717 28 643 28 482C28 326 127 249 327 249L498 249C533 249 548 239 548 218C548 198 533 189 498 189L366 189C282 189 260 200 252 229L28 229C28 146 55 84 109 43C164 3 237-17 328-17L470-17C667-17 769 57 769 218C769 385 673 451 473 451L297 451C262 451 247 461 247 482C247 502 262 511 297 511L418 511C502 511 524 500 532 471Z"  horiz-adv-x="795" vert-adv-y="1000"  />

      
      <glyph glyph-name="uni0162" unicode="&#x0162;" d="M459-124C459-68 436-44 381-44C326-44 303-66 303-117C303-168 326-190 381-190L384-190C384-207 369-211 336-211L336-269L340-269C434-269 459-244 459-151ZM742 496L742 700L20 700L20 496L273 496L273 0L489 0L489 496Z"  horiz-adv-x="762" vert-adv-y="1000"  />

      
      <glyph glyph-name="uni0163" unicode="&#x0163;" d="M742 496L742 700L20 700L20 496L273 496L273 0L489 0L489 496ZM459-124C459-68 436-44 381-44C326-44 303-66 303-117C303-168 326-190 381-190L384-190C384-207 369-211 336-211L336-269L340-269C434-269 459-244 459-151Z"  horiz-adv-x="762" vert-adv-y="1000"  />

      
      <glyph glyph-name="uni0164" unicode="&#x0164;" d="M742 496L742 700L20 700L20 496L273 496L273 0L489 0L489 496ZM602 894L441 894L381 821L321 894L160 894L252 750L510 750Z"  horiz-adv-x="762" vert-adv-y="1000"  />

      
      <glyph glyph-name="uni0165" unicode="&#x0165;" d="M602 894L441 894L381 821L321 894L160 894L252 750L510 750ZM742 496L742 700L20 700L20 496L273 496L273 0L489 0L489 496Z"  horiz-adv-x="762" vert-adv-y="1000"  />

      
      <glyph glyph-name="uni0166" unicode="&#x0166;" d="M489 496L742 496L742 700L20 700L20 496L273 496L273 367L187 367L187 225L273 225L273 0L489 0L489 225L575 225L575 367L489 367Z"  horiz-adv-x="762" vert-adv-y="1000"  />

      
      <glyph glyph-name="uni0167" unicode="&#x0167;" d="M489 496L742 496L742 700L20 700L20 496L273 496L273 367L187 367L187 225L273 225L273 0L489 0L489 225L575 225L575 367L489 367Z"  horiz-adv-x="762" vert-adv-y="1000"  />

      
      <glyph glyph-name="uni0168" unicode="&#x0168;" d="M442-17C695-14 774 65 777 318L777 700L561 700L561 323C561 211 539 189 427 189L397 189C285 189 263 211 263 323L263 700L47 700L47 318C50 65 129-14 382-17ZM419 868C383 883 359 891 328 891C260 891 216 842 203 755L307 755C312 776 324 787 344 787C359 787 379 780 399 772C436 757 463 749 495 749C566 749 608 794 621 885L517 885C513 862 500 851 479 851C463 851 447 856 419 868Z"  horiz-adv-x="824" vert-adv-y="1000"  />

      
      <glyph glyph-name="uni0169" unicode="&#x0169;" d="M419 868C383 883 359 891 328 891C260 891 216 842 203 755L307 755C312 776 324 787 344 787C359 787 379 780 399 772C436 757 463 749 495 749C566 749 608 794 621 885L517 885C513 862 500 851 479 851C463 851 447 856 419 868ZM442-17C695-14 774 65 777 318L777 700L561 700L561 323C561 211 539 189 427 189L397 189C285 189 263 211 263 323L263 700L47 700L47 318C50 65 129-14 382-17Z"  horiz-adv-x="824" vert-adv-y="1000"  />

      
      <glyph glyph-name="uni016A" unicode="&#x016A;" d="M442-17C695-14 774 65 777 318L777 700L561 700L561 323C561 211 539 189 427 189L397 189C285 189 263 211 263 323L263 700L47 700L47 318C50 65 129-14 382-17ZM606 750L606 856L218 856L218 750Z"  horiz-adv-x="824" vert-adv-y="1000"  />

      
      <glyph glyph-name="uni016B" unicode="&#x016B;" d="M606 750L606 856L218 856L218 750ZM442-17C695-14 774 65 777 318L777 700L561 700L561 323C561 211 539 189 427 189L397 189C285 189 263 211 263 323L263 700L47 700L47 318C50 65 129-14 382-17Z"  horiz-adv-x="824" vert-adv-y="1000"  />

      
      <glyph glyph-name="uni016C" unicode="&#x016C;" d="M442-17C695-14 774 65 777 318L777 700L561 700L561 323C561 211 539 189 427 189L397 189C285 189 263 211 263 323L263 700L47 700L47 318C50 65 129-14 382-17ZM412 744C529 744 599 806 599 911L599 921L495 921C495 874 461 844 412 844C363 844 329 874 329 921L225 921L225 911C225 806 295 744 412 744Z"  horiz-adv-x="824" vert-adv-y="1000"  />

      
      <glyph glyph-name="uni016D" unicode="&#x016D;" d="M412 744C529 744 599 806 599 911L599 921L495 921C495 874 461 844 412 844C363 844 329 874 329 921L225 921L225 911C225 806 295 744 412 744ZM442-17C695-14 774 65 777 318L777 700L561 700L561 323C561 211 539 189 427 189L397 189C285 189 263 211 263 323L263 700L47 700L47 318C50 65 129-14 382-17Z"  horiz-adv-x="824" vert-adv-y="1000"  />

      
      <glyph glyph-name="uni016E" unicode="&#x016E;" d="M442-17C695-14 774 65 777 318L777 700L561 700L561 323C561 211 539 189 427 189L397 189C285 189 263 211 263 323L263 700L47 700L47 318C50 65 129-14 382-17ZM547 783C547 855 487 914 412 914C337 914 277 855 277 783C277 711 337 652 412 652C487 652 547 711 547 783ZM347 783C347 819 376 846 412 846C449 846 477 819 477 783C477 747 449 720 412 720C375 720 347 748 347 783Z"  horiz-adv-x="824" vert-adv-y="1000"  />

      
      <glyph glyph-name="uni016F" unicode="&#x016F;" d="M547 783C547 855 487 914 412 914C337 914 277 855 277 783C277 711 337 652 412 652C487 652 547 711 547 783ZM347 783C347 819 376 846 412 846C449 846 477 819 477 783C477 747 449 720 412 720C375 720 347 748 347 783ZM442-17C695-14 774 65 777 318L777 700L561 700L561 323C561 211 539 189 427 189L397 189C285 189 263 211 263 323L263 700L47 700L47 318C50 65 129-14 382-17Z"  horiz-adv-x="824" vert-adv-y="1000"  />

      
      <glyph glyph-name="uni0170" unicode="&#x0170;" d="M442-17C695-14 774 65 777 318L777 700L561 700L561 323C561 211 539 189 427 189L397 189C285 189 263 211 263 323L263 700L47 700L47 318C50 65 129-14 382-17ZM325 750L424 902L238 902L154 750ZM607 750L706 902L520 902L436 750Z"  horiz-adv-x="824" vert-adv-y="1000"  />

      
      <glyph glyph-name="uni0171" unicode="&#x0171;" d="M325 750L424 902L238 902L154 750ZM607 750L706 902L520 902L436 750ZM442-17C695-14 774 65 777 318L777 700L561 700L561 323C561 211 539 189 427 189L397 189C285 189 263 211 263 323L263 700L47 700L47 318C50 65 129-14 382-17Z"  horiz-adv-x="824" vert-adv-y="1000"  />

      
      <glyph glyph-name="uni0172" unicode="&#x0172;" d="M634 12C744 64 773 140 777 318L777 700L561 700L561 323C561 211 539 189 427 189L397 189C285 189 263 211 263 323L263 700L47 700L47 318C50 65 129-14 382-17L388-17C361-41 348-71 348-106C348-175 405-216 504-216L627-216L627-70L591-70C560-70 545-62 545-45C545-28 565-18 608 1L634 12Z"  horiz-adv-x="824" vert-adv-y="1000"  />

      
      <glyph glyph-name="uni0173" unicode="&#x0173;" d="M634 12C744 64 773 140 777 318L777 700L561 700L561 323C561 211 539 189 427 189L397 189C285 189 263 211 263 323L263 700L47 700L47 318C50 65 129-14 382-17L388-17C361-41 348-71 348-106C348-175 405-216 504-216L627-216L627-70L591-70C560-70 545-62 545-45C545-28 565-18 608 1L634 12Z"  horiz-adv-x="824" vert-adv-y="1000"  />

      
      <glyph glyph-name="uni0174" unicode="&#x0174;" d="M980 700L756 700L673 381L581 702L409 702L317 381L234 700L8 700L201 0L409 0L494 302L579 0L787 0ZM554 750L715 750L623 894L365 894L273 750L434 750L494 823Z"  horiz-adv-x="988" vert-adv-y="1000"  />

      
      <glyph glyph-name="uni0175" unicode="&#x0175;" d="M554 750L715 750L623 894L365 894L273 750L434 750L494 823ZM980 700L756 700L673 381L581 702L409 702L317 381L234 700L8 700L201 0L409 0L494 302L579 0L787 0Z"  horiz-adv-x="988" vert-adv-y="1000"  />

      
      <glyph glyph-name="uni0176" unicode="&#x0176;" d="M780 700L530 700L387 454L243 700L-8 700L277 228L277 0L493 0L493 228ZM445 750L606 750L514 894L256 894L164 750L325 750L385 823Z"  horiz-adv-x="773" vert-adv-y="1000"  />

      
      <glyph glyph-name="uni0177" unicode="&#x0177;" d="M445 750L606 750L514 894L256 894L164 750L325 750L385 823ZM780 700L530 700L387 454L243 700L-8 700L277 228L277 0L493 0L493 228Z"  horiz-adv-x="773" vert-adv-y="1000"  />

      
      <glyph glyph-name="uni0178" unicode="&#x0178;" d="M780 700L530 700L387 454L243 700L-8 700L277 228L277 0L493 0L493 228ZM337 836C337 899 308 928 244 928C180 928 151 899 151 836C151 773 180 744 244 744C308 744 337 773 337 836ZM619 836C619 899 590 928 526 928C462 928 433 899 433 836C433 773 462 744 526 744C590 744 619 773 619 836Z"  horiz-adv-x="773" vert-adv-y="1000"  />

      
      <glyph glyph-name="uni0179" unicode="&#x0179;" d="M711 508L711 700L44 700L44 496L380 496L44 191L44 0L711 0L711 204L376 204ZM462 750L555 902L369 902L293 750Z"  horiz-adv-x="755" vert-adv-y="1000"  />

      
      <glyph glyph-name="uni017A" unicode="&#x017A;" d="M462 750L555 902L369 902L293 750ZM711 508L711 700L44 700L44 496L380 496L44 191L44 0L711 0L711 204L376 204Z"  horiz-adv-x="755" vert-adv-y="1000"  />

      
      <glyph glyph-name="uni017B" unicode="&#x017B;" d="M711 508L711 700L44 700L44 496L380 496L44 191L44 0L711 0L711 204L376 204ZM470 836C470 899 441 928 377 928C313 928 284 899 284 836C284 773 313 744 377 744C441 744 470 773 470 836Z"  horiz-adv-x="755" vert-adv-y="1000"  />

      
      <glyph glyph-name="uni017C" unicode="&#x017C;" d="M470 836C470 899 441 928 377 928C313 928 284 899 284 836C284 773 313 744 377 744C441 744 470 773 470 836ZM711 508L711 700L44 700L44 496L380 496L44 191L44 0L711 0L711 204L376 204Z"  horiz-adv-x="755" vert-adv-y="1000"  />

      
      <glyph glyph-name="uni017D" unicode="&#x017D;" d="M711 508L711 700L44 700L44 496L380 496L44 191L44 0L711 0L711 204L376 204ZM598 894L437 894L377 821L317 894L156 894L248 750L506 750Z"  horiz-adv-x="755" vert-adv-y="1000"  />

      
      <glyph glyph-name="uni017E" unicode="&#x017E;" d="M598 894L437 894L377 821L317 894L156 894L248 750L506 750ZM711 508L711 700L44 700L44 496L380 496L44 191L44 0L711 0L711 204L376 204Z"  horiz-adv-x="755" vert-adv-y="1000"  />

      
      <glyph glyph-name="uni018F" unicode="&#x018F;" d="M793 382C790 635 711 714 458 717L337 717C146 717 35 636 35 471L259 471C267 500 289 511 373 511L443 511C532 511 565 494 574 433L34 433L34 298C37 56 109-13 370-17L458-17C711-14 790 65 793 318ZM572 259C561 204 530 189 443 189L392 189C288 190 263 196 259 259Z"  horiz-adv-x="831" vert-adv-y="1000"  />

      
      <glyph glyph-name="uni0192" unicode="&#x0192;" d="M557 700L529 700C329 700 233 637 210 477L202 422L137 422L137 302L186 302C176 227 158 206 57 206L44 206L44 0L72 0C272 0 370 63 391 223L402 302L504 302L504 422L419 422C431 476 454 494 544 494L557 494Z"  horiz-adv-x="601" vert-adv-y="1000"  />

      
      <glyph glyph-name="uni01C4" unicode="&#x01C4;" d="M784 365C784 612 672 700 419 700L52 700L52 0L419 0C672 0 784 88 784 335ZM268 496L404 496C523 496 568 459 568 360L568 340C568 241 523 204 404 204L268 204ZM1509 508L1509 700L842 700L842 496L1178 496L842 191L842 0L1509 0L1509 204L1174 204ZM978 894L817 894L757 821L697 894L536 894L628 750L886 750Z"  horiz-adv-x="1432" vert-adv-y="1000"  />

      
      <glyph glyph-name="uni01C6" unicode="&#x01C6;" d="M978 894L817 894L757 821L697 894L536 894L628 750L886 750ZM1509 508L1509 700L842 700L842 496L1178 496L842 191L842 0L1509 0L1509 204L1174 204ZM784 365C784 612 672 700 419 700L52 700L52 0L419 0C672 0 784 88 784 335ZM268 496L404 496C523 496 568 459 568 360L568 340C568 241 523 204 404 204L268 204Z"  horiz-adv-x="1432" vert-adv-y="1000"  />

      
      <glyph glyph-name="uni01CD" unicode="&#x01CD;" d="M554 116L599 0L828 0L545 700L277 700L-6 0L221 0L266 116ZM476 320L344 320L410 491ZM632 894L471 894L411 821L351 894L190 894L282 750L540 750Z"  horiz-adv-x="822" vert-adv-y="1000"  />

      
      <glyph glyph-name="uni01CE" unicode="&#x01CE;" d="M632 894L471 894L411 821L351 894L190 894L282 750L540 750ZM554 116L599 0L828 0L545 700L277 700L-6 0L221 0L266 116ZM476 320L344 320L410 491Z"  horiz-adv-x="822" vert-adv-y="1000"  />

      
      <glyph glyph-name="uni01CF" unicode="&#x01CF;" d="M273 0L273 700L57 700L57 0ZM387 894L226 894L166 821L106 894L-55 894L37 750L295 750Z"  horiz-adv-x="331" vert-adv-y="1000"  />

      
      <glyph glyph-name="uni01D0" unicode="&#x01D0;" d="M387 894L226 894L166 821L106 894L-55 894L37 750L295 750ZM273 0L273 700L57 700L57 0Z"  horiz-adv-x="331" vert-adv-y="1000"  />

      
      <glyph glyph-name="uni01D1" unicode="&#x01D1;" d="M800 382C797 635 718 714 465 717L373 717C120 714 41 635 38 382L38 318C41 65 120-14 373-17L465-17C718-14 797 65 800 318ZM254 377C254 487 276 511 388 511L450 511C562 511 584 487 584 377L584 323C584 211 562 189 450 189L388 189C276 189 254 211 254 323ZM640 894L479 894L419 821L359 894L198 894L290 750L548 750Z"  horiz-adv-x="838" vert-adv-y="1000"  />

      
      <glyph glyph-name="uni01D2" unicode="&#x01D2;" d="M640 894L479 894L419 821L359 894L198 894L290 750L548 750ZM800 382C797 635 718 714 465 717L373 717C120 714 41 635 38 382L38 318C41 65 120-14 373-17L465-17C718-14 797 65 800 318ZM254 377C254 487 276 511 388 511L450 511C562 511 584 487 584 377L584 323C584 211 562 189 450 189L388 189C276 189 254 211 254 323Z"  horiz-adv-x="838" vert-adv-y="1000"  />

      
      <glyph glyph-name="uni01D3" unicode="&#x01D3;" d="M442-17C695-14 774 65 777 318L777 700L561 700L561 323C561 211 539 189 427 189L397 189C285 189 263 211 263 323L263 700L47 700L47 318C50 65 129-14 382-17ZM633 894L472 894L412 821L352 894L191 894L283 750L541 750Z"  horiz-adv-x="824" vert-adv-y="1000"  />

      
      <glyph glyph-name="uni01D4" unicode="&#x01D4;" d="M633 894L472 894L412 821L352 894L191 894L283 750L541 750ZM442-17C695-14 774 65 777 318L777 700L561 700L561 323C561 211 539 189 427 189L397 189C285 189 263 211 263 323L263 700L47 700L47 318C50 65 129-14 382-17Z"  horiz-adv-x="824" vert-adv-y="1000"  />

      
      <glyph glyph-name="uni01E6" unicode="&#x01E6;" d="M797 433L414 433L414 259L573 259C573 197 541 189 439 189L388 189C276 189 254 211 254 323L254 377C254 487 276 511 388 511L458 511C542 511 564 500 572 471L796 471C796 636 685 717 494 717L373 717C120 714 41 635 38 382L38 318C41 65 120-14 373-17L461-17C722-13 794 56 797 298ZM637 894L476 894L416 821L356 894L195 894L287 750L545 750Z"  horiz-adv-x="832" vert-adv-y="1000"  />

      
      <glyph glyph-name="uni01E7" unicode="&#x01E7;" d="M637 894L476 894L416 821L356 894L195 894L287 750L545 750ZM797 433L414 433L414 259L573 259C573 197 541 189 439 189L388 189C276 189 254 211 254 323L254 377C254 487 276 511 388 511L458 511C542 511 564 500 572 471L796 471C796 636 685 717 494 717L373 717C120 714 41 635 38 382L38 318C41 65 120-14 373-17L461-17C722-13 794 56 797 298Z"  horiz-adv-x="832" vert-adv-y="1000"  />

      
      <glyph glyph-name="uni01E8" unicode="&#x01E8;" d="M419 272L549 0L784 0L611 378L775 469L775 712L268 424L268 700L52 700L52 0L268 0L268 188ZM671 894L510 894L450 821L390 894L229 894L321 750L579 750Z"  horiz-adv-x="813" vert-adv-y="1000"  />

      
      <glyph glyph-name="uni01E9" unicode="&#x01E9;" d="M671 894L510 894L450 821L390 894L229 894L321 750L579 750ZM419 272L549 0L784 0L611 378L775 469L775 712L268 424L268 700L52 700L52 0L268 0L268 188Z"  horiz-adv-x="813" vert-adv-y="1000"  />

      
      <glyph glyph-name="uni01FC" unicode="&#x01FC;" d="M1100 204L716 204L716 255L960 255L960 447L716 447L716 496L1098 496L1098 700L369 700L-10 0L234 0L295 116L500 116L500 0L1100 0ZM500 320L402 320L500 506ZM780 750L873 902L687 902L611 750Z"  horiz-adv-x="1134" vert-adv-y="1000"  />

      
      </font>
</defs>
</svg>
