<?xml version="1.0" encoding="UTF-8"?> <svg xmlns="http://www.w3.org/2000/svg" width="260" height="59" viewBox="0 0 260 59" fill="none"> <path fill-rule="evenodd" clip-rule="evenodd" d="M187.541 6.10352C181.22 7.27954 176.791 10.9623 173.705 17.6087C171.024 23.3852 170.6 31.3999 172.638 37.8026C174.508 43.6796 178.072 48.2383 182.59 50.5351C187.525 53.0441 195.583 53.2237 201.161 50.9495C206.725 48.6809 210.888 43.228 212.728 35.7977C213.402 33.0778 213.563 27.3771 213.053 24.2994C211.811 16.8013 207.738 10.5186 202.398 7.86489C199.294 6.32249 197.542 5.94 193.123 5.84101C190.38 5.77935 188.912 5.84851 187.541 6.10352ZM69.986 29.0581V51.2659H81.4788H92.9716V45.9625V40.6592H87.1704H81.3693V23.7547V6.8502H75.6777H69.986V29.0581ZM96.9119 21.164C96.9119 29.6861 97.0037 36.2355 97.1387 37.3503C97.443 39.863 98.0873 42.1905 99.0332 44.1947C100.156 46.5749 102.876 49.2685 105.449 50.5506C108.42 52.0303 110.244 52.428 113.987 52.4117C117.424 52.3968 119.511 52.0616 121.684 51.1753C127.24 48.9101 130.284 44.6241 131.271 37.676C131.4 36.7674 131.493 30.0885 131.495 21.4897L131.5 6.8502H125.817H120.134L120.067 21.6002C120.003 35.4217 119.973 36.4198 119.586 37.455C119.016 38.9802 118.015 40.4793 117.184 41.0545C115.816 42.0009 113.241 42.0962 111.66 41.2589C110.22 40.4965 108.9 38.1986 108.524 35.7977C108.387 34.9271 108.298 28.9449 108.297 20.6058L108.295 6.8502H102.604H96.9119V21.164ZM138.067 29.0581V51.2659H143.756H149.446L149.503 42.2652L149.56 33.2643L154.68 41.989C157.496 46.7874 159.915 50.8392 160.054 50.9928C160.251 51.2091 161.874 51.259 167.248 51.2137L174.187 51.1554L166.738 39.8857C162.641 33.6874 159.327 28.4669 159.374 28.2846C159.422 28.1023 162.675 23.2635 166.605 17.5314C170.534 11.7993 173.749 7.04973 173.749 6.97659C173.749 6.90345 170.786 6.87007 167.163 6.90212L160.577 6.96068L155.069 15.7369L149.56 24.5131L149.503 15.6816L149.445 6.8502H143.756H138.067V29.0581ZM218.626 29.0581V51.2659H224.318H230.009V29.0581V6.8502H224.318H218.626V29.0581ZM237.014 29.0581V51.2659H248.507H260V45.9625V40.6592H254.199H248.398V23.7547V6.8502H242.706H237.014V29.0581ZM194.342 16.7076C196.025 17.211 197.148 17.9329 198.54 19.4052C200.887 21.8899 201.633 24.2424 201.633 29.1685C201.633 32.8312 201.287 34.6615 200.207 36.7055C199.298 38.4282 197.331 40.2824 195.485 41.1586C192.499 42.5752 189.262 41.8993 186.635 39.3101C185.256 37.9516 184.198 36.2236 183.706 34.5296C182.851 31.5809 182.916 26.1478 183.84 23.3419C184.854 20.2642 187.192 17.818 190.075 16.8167C191.654 16.2687 192.778 16.24 194.342 16.7076Z" fill="white"></path> <path fill-rule="evenodd" clip-rule="evenodd" d="M0 59V29.5V0H29.5529H59.1057V29.5V59H29.5529H0ZM11.8944 6.3905C12.1107 6.49431 12.2951 6.58279 12.4522 6.7073C13.3594 7.42615 13.3588 9.34597 13.3542 22.3496C13.3539 23.3273 13.3535 24.3676 13.3535 25.4747C13.3535 25.7919 13.3535 26.1035 13.3535 26.4097C13.3532 41.8377 13.3532 43.4263 14.0946 43.9866C14.1797 44.0509 14.2746 44.1016 14.3803 44.1582C14.3986 44.168 14.4171 44.1779 14.436 44.1881C14.89 44.4336 46.4089 44.526 46.4089 44.282C46.4089 44.2084 44.6377 39.9395 42.4729 34.7954C40.3081 29.6514 38.4321 24.9705 38.3038 24.3933C38.0415 23.2117 38.2679 21.735 38.9203 20.3742C39.6256 18.9025 46.4615 7.63973 47.0444 6.98874C48.1666 5.73537 49.588 5.45629 51.1656 6.17932C52.3769 6.73419 52.9743 7.72656 52.9754 9.18477C52.9763 10.2474 52.7919 10.6048 49.3277 16.2559C46.3008 21.1938 45.6627 22.3802 45.5821 23.2197C45.4948 24.1281 46.0048 25.5719 50.5783 37.362C53.3799 44.5839 55.7177 50.7185 55.7735 50.9948L55.8751 51.497L33.7934 51.4367L11.7117 51.3764L10.558 50.85C9.11016 50.1895 7.46637 48.4096 6.9493 46.9421C6.59445 45.9353 6.56512 44.418 6.56621 27.0658C6.56731 9.3138 6.58919 8.23722 6.9666 7.50955C7.42412 6.62742 8.92081 5.74534 9.96041 5.74534C10.3308 5.74534 11.0661 5.96917 11.5944 6.24252C11.7006 6.29753 11.8005 6.34546 11.8944 6.3905ZM24.1694 7.36327C23.9175 7.02032 23.3857 6.51586 22.9878 6.24252C21.2485 5.04749 18.5419 6.09533 17.9454 8.19436C17.8175 8.64405 17.7333 13.9222 17.7354 21.3224C17.7398 35.0562 17.7989 35.7801 19.0966 37.9606C22.7332 44.0719 32.0351 43.6509 35.1484 37.2341L35.7918 35.9082L35.8527 21.9736L35.9137 8.03901L35.4105 7.27886C33.9858 5.12635 30.7556 5.26116 29.6076 7.52106L29.115 8.49069V21.029C29.115 30.2794 29.0465 33.719 28.8534 34.1466C28.5838 34.7444 27.6589 35.3558 27.0247 35.3558C26.4599 35.3558 25.2276 34.6977 25.0273 34.2891C24.9277 34.0858 24.797 28.0847 24.7368 20.9532C24.6294 8.2308 24.6189 7.97514 24.1694 7.36327Z" fill="#CEA058"></path> </svg> 