<?xml version="1.0" encoding="UTF-8"?> <svg xmlns="http://www.w3.org/2000/svg" width="210" height="72" viewBox="0 0 210 72" fill="none"> <path fill-rule="evenodd" clip-rule="evenodd" d="M22.566 22.312C15.2276 23.1048 8.43549 27.1376 4.32412 33.143C-0.112899 39.6238 -1.21477 47.9175 1.38771 55.2417C4.501 64.0037 12.1411 70.2458 21.5151 71.6862C23.9293 72.0573 28.6202 71.9392 30.7682 71.4535C35.299 70.4288 39.0049 68.569 42.5032 65.5644L44.0056 64.2738V47.0995H25.4895V54.7084L26.5558 54.008C28.0118 53.0516 29.0612 52.7747 30.9134 52.858C32.153 52.9138 32.5635 53.0051 33.4482 53.4225C36.2774 54.7571 37.8399 57.3132 37.63 60.2632C37.4723 62.4789 36.5428 64.0812 34.4617 65.7248C32.9226 66.9403 30.9795 67.9372 29.144 68.4528C27.2752 68.9777 23.5653 68.9757 21.6853 68.4485C19.0169 67.7004 16.9512 66.4417 14.931 64.3327C12.8849 62.1967 11.7635 59.8896 11.2527 56.7655C11.0242 55.368 11.0144 54.9082 11.1843 53.5545C11.6381 49.9402 12.9534 47.303 15.5274 44.847C17.9178 42.5663 20.96 41.1916 24.154 40.9488L25.4985 40.8467L25.4847 31.6765C25.477 26.6329 25.4132 22.4149 25.3427 22.3034C25.2097 22.0924 24.5803 22.0943 22.566 22.312ZM133.337 71.9204H138.21L138.226 66.5505C138.235 63.5972 138.242 60.1243 138.242 58.8333C138.242 57.5423 138.308 56.4462 138.388 56.3975C138.469 56.3488 138.535 56.3435 138.535 56.3857C138.535 56.4279 139.119 59.9415 139.834 64.1938C140.549 68.4462 141.133 71.9421 141.133 71.9626C141.133 71.9831 142.047 72 143.164 72H145.194L145.277 71.5227C145.547 69.9593 147.793 56.4519 147.793 56.3873C147.793 56.3442 147.858 56.3486 147.938 56.397C148.018 56.4455 148.084 57.0404 148.084 57.719C148.084 58.3978 148.092 61.8707 148.101 65.4368L148.118 71.9204H152.99V47.0995H149.745C146.511 47.0995 146.499 47.1008 146.419 47.4575C146.375 47.6545 145.861 50.393 145.278 53.5434C144.694 56.6937 144.146 59.5935 144.061 59.9873C143.976 60.3811 143.749 61.5482 143.557 62.5806C143.364 63.6131 143.177 64.4293 143.142 64.3944C143.084 64.3378 142.379 60.6452 140.57 50.9181C140.253 49.2117 139.956 47.6545 139.911 47.4575C139.828 47.1009 139.815 47.0995 136.583 47.0995H133.337V71.9204Z" fill="white"></path> <path d="M49.7103 47.2589C48.5639 47.524 47.7101 48.4985 47.4185 49.8739C47.2964 50.4505 47.2546 53.6993 47.2873 60.0867C47.3341 69.2261 47.3435 69.4718 47.6771 70.1703C48.4389 71.7658 49.0275 71.9532 53.2343 71.9399C56.2731 71.9302 56.6132 71.9009 57.2658 71.5914C58.1406 71.1765 58.7165 70.2827 58.8993 69.0565C58.9709 68.5752 59.01 66.302 58.9862 64.0048L58.9429 59.8282H53.2636V61.1806C53.2636 62.4269 53.2891 62.533 53.5884 62.533C53.9014 62.533 53.9133 62.6392 53.9133 65.4519C53.9133 68.0775 53.8834 68.3971 53.6162 68.6341C53.228 68.9782 53.0091 68.9663 52.6139 68.5792C52.2968 68.2686 52.289 68.0489 52.289 59.51C52.289 50.9711 52.2968 50.7514 52.6139 50.4408C53.0172 50.0457 53.2978 50.0382 53.6445 50.4136C53.867 50.6545 53.9133 51.079 53.9133 52.8798V55.0549H58.9746L58.9202 52.2307C58.8708 49.6759 58.8312 49.3434 58.5046 48.7437C58.0836 47.9708 57.501 47.5238 56.5932 47.2775C55.8545 47.0771 50.5583 47.0627 49.7103 47.2589Z" fill="white"></path> <path fill-rule="evenodd" clip-rule="evenodd" d="M63.7482 47.4575C63.7048 47.6545 63.3723 50.6436 63.0093 54.1003C61.5295 68.1914 61.2243 71.0668 61.1603 71.5227L61.0934 72L63.4722 71.9647C64.7807 71.9453 65.8951 71.9273 65.9487 71.9249C66.0455 71.9204 66.177 70.4463 66.3537 67.3858C66.4043 66.5107 66.4741 65.7053 66.5089 65.5959C66.5519 65.4598 66.9584 65.397 67.7952 65.397C68.9557 65.397 69.0184 65.4153 69.0173 65.755C69.0153 66.3335 69.3504 71.0016 69.4311 71.5227L69.505 72L71.8723 71.9752C73.1743 71.9615 74.2656 71.9247 74.2974 71.8936C74.3444 71.8476 73.9874 68.2533 73.4939 63.8059C73.4502 63.4121 73.192 60.9777 72.9201 58.3962C72.648 55.8147 72.3885 53.3803 72.343 52.9865C72.0909 50.8004 71.7828 47.7681 71.7814 47.4575L71.7796 47.0995H63.8271L63.7482 47.4575ZM68.116 52.9865C68.0691 52.2427 67.9903 51.2941 67.9409 50.8783C67.8391 50.0225 67.5609 49.8533 67.5483 50.6397C67.5438 50.9241 67.5071 51.4432 67.4668 51.7932C67.4027 52.3517 67.1529 55.8462 66.8046 61.0613L66.6956 62.6921H67.6676C68.2021 62.6921 68.6712 62.6611 68.71 62.6231C68.7717 62.5626 68.6707 60.8597 68.2987 55.6914C68.2451 54.9475 68.1629 53.7304 68.116 52.9865Z" fill="white"></path> <path d="M76.8146 50.1226H79.0182C81.0408 50.1226 81.215 50.1455 81.1375 50.401C81.091 50.5541 79.987 54.7763 78.6843 59.7835C76.3331 68.8197 76.3159 68.8991 76.362 70.4438C76.4029 71.8115 76.443 71.9976 76.6928 71.9801C76.8491 71.9691 79.1697 71.9513 81.8497 71.9403L86.7223 71.9204V68.8974H84.1127C81.705 68.8974 81.5091 68.8759 81.5832 68.6189C81.6273 68.4659 82.7286 64.2485 84.0304 59.2474C86.2692 50.6471 86.3975 50.0715 86.3975 48.6269V47.0995H76.8146V50.1226Z" fill="white"></path> <path fill-rule="evenodd" clip-rule="evenodd" d="M89.1586 71.9204L89.5241 71.9254C89.725 71.9279 90.8581 71.9459 92.0416 71.9652L94.1937 72V63.5182L96.4392 63.4632C98.5859 63.4105 98.7153 63.3884 99.3772 62.959C99.8359 62.6614 100.188 62.2587 100.421 61.7656C100.754 61.0587 100.774 60.7596 100.823 55.7956C100.876 50.2588 100.792 49.327 100.158 48.4206C99.9629 48.1409 99.5093 47.7471 99.1503 47.5455C98.5174 47.19 98.3579 47.1775 93.8283 47.1283L89.1586 47.0777V71.9204ZM95.8179 55.246C95.8179 51.152 95.803 50.9423 95.4812 50.5418C95.2546 50.2594 94.9894 50.1226 94.6691 50.1226H94.1937V60.4646L94.6404 60.4622C95.7562 60.456 95.8179 60.1824 95.8179 55.246Z" fill="white"></path> <path fill-rule="evenodd" clip-rule="evenodd" d="M103.575 59.3661C103.552 66.1128 103.578 71.7048 103.634 71.793C103.693 71.8869 104.718 71.9628 106.109 71.9766C107.995 71.9952 108.501 71.9548 108.569 71.7801C108.617 71.6593 108.631 69.638 108.6 67.2886C108.527 61.6489 108.728 61.3122 109.541 65.7152C109.982 68.1004 110.558 71.1247 110.678 71.6818C110.744 71.9842 110.872 71.9992 113.271 71.9846C114.659 71.9761 115.804 71.9045 115.814 71.8255C115.825 71.7465 115.295 69.5828 114.637 67.0174C113.469 62.4637 113.448 62.3486 113.765 62.1758C114.436 61.8104 114.966 61.0781 115.151 60.2597C115.28 59.6933 115.32 57.892 115.277 54.5776C115.221 50.3374 115.176 49.6397 114.919 49.0506C114.559 48.2238 113.735 47.4907 112.917 47.2681C112.56 47.1709 110.49 47.1009 107.961 47.1005L103.618 47.0995L103.575 59.3661ZM110.242 54.444C110.193 50.7606 110.189 50.728 109.809 50.4265C109.501 50.1827 108.665 49.9929 108.644 50.1623C108.642 50.1841 108.624 52.3323 108.604 54.9356L108.568 59.6692L109.084 59.6691C109.712 59.6691 110.066 59.3504 110.195 58.6696C110.249 58.3879 110.27 56.4864 110.242 54.444Z" fill="white"></path> <path fill-rule="evenodd" clip-rule="evenodd" d="M120.937 47.3256C120.161 47.6042 119.603 48.1046 119.15 48.9292C118.805 49.5572 118.8 49.6903 118.753 59.0129C118.72 65.4567 118.762 68.7289 118.884 69.3053C119.125 70.4412 119.624 71.1308 120.523 71.568C121.226 71.9101 121.467 71.9322 124.595 71.94C128.324 71.9494 128.695 71.873 129.55 70.92C130.416 69.9537 130.44 69.604 130.384 59.0326L130.332 49.4066L129.879 48.6505C129.583 48.1572 129.188 47.7701 128.742 47.5367C128.108 47.2047 127.825 47.1763 124.81 47.1404C122.34 47.1108 121.412 47.1552 120.937 47.3256ZM125.379 59.531C125.379 51.1286 125.362 50.635 125.081 50.3859C124.713 50.0596 124.571 50.0573 124.115 50.3703L123.754 50.6179V68.4127L124.16 68.6734C124.537 68.9147 124.596 68.9147 124.973 68.6734L125.379 68.4127V59.531Z" fill="white"></path> <path fill-rule="evenodd" clip-rule="evenodd" d="M31.7875 6.71773C32.5799 5.00031 34.1358 2.13365 34.9368 0.914875C35.2675 0.411773 35.5698 0 35.6085 0C35.735 0 37.7782 3.4595 38.5903 5.04868C40.4484 8.68495 41.5662 12.1793 42.3707 16.8655C42.8571 19.6994 42.9033 25.5088 42.461 28.2418C41.7857 32.4152 40.6958 36.029 39.01 39.6841C38.2077 41.4235 36.6166 44.2025 35.8727 45.1633L35.583 45.5375L34.6477 44.1291C31.6795 39.6588 29.2808 33.0341 28.6364 27.5258C28.3448 25.0335 28.416 19.3689 28.7673 17.0954C29.3445 13.3597 30.4068 9.7104 31.7875 6.71773ZM37.6886 7.55766C39.2439 10.9538 40.301 14.6339 40.8194 18.4566C41.2693 21.775 41.1899 27.1304 40.6518 29.7533L40.4395 30.7875L40.4078 29.4351C40.3903 28.6913 40.3554 27.9753 40.3302 27.844C40.305 27.7128 40.237 26.9091 40.179 26.0582C39.9584 22.8203 38.992 18.8144 37.5583 15.1949C36.7561 13.1696 35.7006 10.9785 35.5271 10.9785C35.3546 10.9785 33.9916 14.0261 33.2355 16.1023C31.7417 20.2044 31.0387 23.7976 30.8656 28.217C30.8112 29.6034 30.7129 30.6416 30.6473 30.524C30.4608 30.1902 30.1647 27.2087 30.0572 24.5823C29.9153 21.1107 30.4084 17.0079 31.4055 13.3651C32.1018 10.8215 34.4057 5.23786 35.3314 3.85138C35.5716 3.49148 35.5844 3.50294 36.231 4.64693C36.5919 5.28527 37.2478 6.59505 37.6886 7.55766ZM37.3993 32.9355C37.0948 31.1435 36.4948 29.089 35.9934 28.1225C35.8233 27.7944 35.6505 27.5258 35.6094 27.5258C35.4717 27.5258 34.8371 28.8623 34.4623 29.9419C33.3445 33.1613 33.2278 36.648 34.1228 40.0971C34.5807 41.8626 35.4639 43.8834 35.6817 43.6643C35.9473 43.397 36.8385 41.0252 37.1667 39.7118C37.6499 37.7788 37.7461 34.9765 37.3993 32.9355Z" fill="white"></path> <path d="M162.411 65.954V71.9206H157.376V47.0915L162.485 47.1792L163.56 53.1084C164.151 56.3695 164.683 59.0842 164.741 59.1413C164.799 59.1983 164.847 56.5122 164.847 53.1723V47.0996H169.882V71.9206H167.364C165.98 71.9206 164.847 71.867 164.846 71.8013C164.846 71.7355 164.371 69.0695 163.79 65.8767C163.21 62.6838 162.735 60.0527 162.735 60.0294C162.735 60.0064 162.662 59.9874 162.573 59.9874C162.468 59.9874 162.411 62.0824 162.411 65.954Z" fill="#CEA058"></path> <path d="M173.618 71.9206V47.0996H183.85V49.8045H178.49V57.6008H183.85V60.3057H178.485L178.572 69.2953L184.013 69.3825V71.9206H173.618Z" fill="#CEA058"></path> <path d="M187.099 71.9206V47.0996H196.682V49.8045H192.134V58.0781H196.357V60.783H192.134V71.9206H187.099Z" fill="#CEA058"></path> <path d="M198.955 49.8045V47.0996H210V49.8045H206.914V71.9206H201.879V49.8045H198.955Z" fill="#CEA058"></path> </svg> 