<?xml version="1.0" encoding="UTF-8"?> <svg xmlns="http://www.w3.org/2000/svg" width="206" height="72" viewBox="0 0 206 72" fill="none"> <path fill-rule="evenodd" clip-rule="evenodd" d="M21.1957 16.6851V33.3702H24.2236H27.2516V16.6851V0H24.2236H21.1957V16.6851ZM14.1111 23.3479L14.1665 39.7531L17.1404 39.8153L20.1143 39.8776V23.4102V6.94279H17.085H14.0555L14.1111 23.3479ZM28.333 23.4039V39.865H31.2528H34.1726V23.4039V6.94279H31.2528H28.333V23.4039ZM7.13732 28.2782V42.8948L10.0571 45.912L12.9769 48.9292V31.2954V13.6616H10.0571H7.13732V28.2782ZM35.3983 13.811C35.3189 13.893 35.254 21.8129 35.254 31.4107V48.8611L38.2759 45.8748L41.2978 42.8885L41.3039 28.2751L41.3099 13.6616H38.4263C36.84 13.6616 35.4775 13.7288 35.3983 13.811ZM0.0155723 28.6047L0.0309284 36.6176L2.85471 39.1932C4.40784 40.6097 5.76436 41.8025 5.86926 41.8442C5.97848 41.8872 6.03601 37.3771 6.004 31.318L5.94777 20.7164L2.97388 20.6541L0 20.5919L0.0155723 28.6047ZM42.5415 20.7475C42.3111 20.986 42.3587 41.8807 42.5897 41.8807C42.6987 41.8807 42.8202 41.8034 42.86 41.7089C42.8996 41.6144 44.1742 40.3907 45.6925 38.9896L48.4527 36.4423L48.396 28.5792L48.3391 20.7164L45.5153 20.6541C43.9624 20.6201 42.6241 20.662 42.5415 20.7475ZM42.3914 63.6985V71.6675H44.6623H46.9333V68.98V66.2924H50.9708C56.1984 66.2924 57.5934 66.0519 58.6407 64.9702C59.5958 63.9839 60.0292 62.2141 59.8371 60.0849C59.6996 58.5586 59.357 57.7071 58.579 56.9571C57.5404 55.9557 57.1237 55.9027 49.5827 55.8142L42.3914 55.7296V63.6985ZM65.783 56.0068C64.376 56.2933 63.5343 56.8953 62.9923 58.0025C62.5329 58.9409 62.5058 59.2607 62.5104 63.7084C62.5184 71.575 62.7418 71.7622 71.9764 71.6288C77.8967 71.5432 78.3872 71.41 79.3774 69.6189C79.9049 68.6649 79.9164 68.5435 79.9164 63.9409C79.9164 58.6838 79.7868 57.9781 78.6275 56.9242C78.1054 56.4496 77.5212 56.1987 76.5145 56.0171C74.9153 55.7289 67.1849 55.7213 65.783 56.0068ZM85.8972 55.9965C84.4804 56.3004 83.6461 56.9002 83.1065 58.0025C82.6471 58.9409 82.6201 59.2607 82.6246 63.7084C82.6326 71.575 82.8559 71.7618 92.0907 71.6292C97.7231 71.5484 98.0049 71.4872 99.1311 70.1011C99.7066 69.393 99.8602 68.8136 100.006 66.7964L100.092 65.6206H97.7361C95.3821 65.6206 95.3806 65.621 95.3806 66.1679C95.3806 66.4692 95.1472 66.9961 94.8621 67.3395C94.3621 67.9415 94.258 67.9666 91.9116 68.0496C87.626 68.2015 87.1618 67.7818 87.1618 63.7536C87.1618 61.1178 87.3303 60.435 88.1113 59.9051C88.7565 59.4672 91.3664 59.2265 93.0726 59.4471C94.5247 59.635 95.1455 60.0977 95.3527 61.1467L95.5064 61.9252H97.7646H100.023L99.9694 60.4695C99.9017 58.6267 99.6329 57.7788 98.8902 57.0655C97.8185 56.0364 97.1247 55.9177 91.8119 55.8543C89.0759 55.8216 86.4144 55.8857 85.8972 55.9965ZM102.734 63.7169V71.6675H104.999H107.264L107.324 68.588L107.384 65.5086H111.385H115.387L115.447 68.588L115.507 71.6675H117.772H120.037V63.7169V55.7663H117.766H115.495V58.7898V61.8132H111.385H107.276V58.7898V55.7663H105.005H102.734V63.7169ZM126.126 56.0068C124.948 56.2467 124 56.8137 123.412 57.6296C122.987 58.2187 122.952 58.5898 122.889 63.1167C122.852 65.7872 122.882 68.3018 122.954 68.7047C123.027 69.1079 123.382 69.7869 123.744 70.2142C124.876 71.5484 125.666 71.6675 133.377 71.6675H140.151V69.8758V68.0841H134.737C128.695 68.0841 128.1 67.9744 127.619 66.7719C127.059 65.3722 126.948 65.3966 133.872 65.3966H140.151V63.6049V61.8132H133.771C127.688 61.8132 127.39 61.7937 127.39 61.3955C127.39 60.7174 128.215 59.8303 129.076 59.5826C129.521 59.4547 132.161 59.3517 135.014 59.351L140.151 59.3497V57.558V55.7663L133.608 55.7909C130.01 55.8044 126.643 55.9016 126.126 56.0068ZM153.561 57.2088V58.6511L149.397 58.7205C144.507 58.8018 143.951 58.9792 142.855 60.8081C142.283 61.7619 142.206 62.0912 142.206 63.5874C142.206 65.8978 142.805 67.0472 144.461 67.9162C145.615 68.5213 145.704 68.5321 149.598 68.5321H153.561V70.0998V71.6675H155.831H158.102V70.0998V68.5321L161.725 68.5307C163.718 68.53 165.72 68.4225 166.174 68.292C167.255 67.9811 168.609 66.6971 168.935 65.6736C169.267 64.6345 169.272 62.5908 168.945 61.5673C168.806 61.1306 168.378 60.458 167.993 60.0728C166.751 58.828 166.094 58.6778 161.894 58.6778H158.102V57.222V55.7663H155.831H153.561V57.2088ZM169.133 57.5555V59.3497H172.269H175.405V65.5086V71.6675H177.673H179.94L179.998 65.5646L180.055 59.4616L183.363 59.3998L186.67 59.3378L186.607 57.6081L186.544 55.8783L177.838 55.8198L169.133 55.7611V57.5555ZM188.598 63.7303V71.6946L195.898 71.625C203.177 71.5558 203.2 71.554 204.117 71.0104C205.463 70.2118 205.987 68.9612 205.999 66.5184C206.008 64.9202 205.922 64.4327 205.468 63.4967C204.534 61.5678 204.263 61.4889 198.277 61.4067L193.14 61.336V58.5512V55.7663H190.869H188.598V63.7303ZM54.7411 59.9438C55.3062 60.5297 55.3413 61.4493 54.8211 62.0446C54.4664 62.4504 54.1405 62.4851 50.6847 62.4851H46.9333V61.0668C46.9333 60.2865 47.0044 59.5745 47.0914 59.4845C47.1783 59.3944 48.8305 59.3526 50.7628 59.3913C54.0224 59.4565 54.3096 59.4963 54.7411 59.9438ZM73.6442 59.568C75.1147 59.9208 75.2663 60.3098 75.2663 63.7292C75.2663 66.5572 75.2388 66.7484 74.7479 67.3395C74.2478 67.9415 74.1438 67.9666 71.7973 68.0496C67.534 68.2008 67.0476 67.7699 67.0476 63.8439C67.0476 61.5834 67.3387 60.2771 67.9259 59.9013C68.7404 59.3799 72.0554 59.1866 73.6442 59.568ZM153.561 63.7169V65.3966H150.994C148.726 65.3966 148.362 65.3429 147.858 64.9323C147.144 64.3507 147.077 63.1521 147.721 62.4851C148.107 62.0849 148.442 62.0372 150.857 62.0372H153.561V63.7169ZM163.763 62.4078C164.242 62.8567 164.292 64.2262 163.852 64.8499C163.582 65.2327 163.22 65.2936 160.824 65.359L158.102 65.4331V63.7353V62.0372H160.735C162.881 62.0372 163.44 62.1057 163.763 62.4078ZM200.926 65.3966C201.502 65.9928 201.483 67.0514 200.885 67.6275C200.448 68.0494 200.137 68.0841 196.776 68.0841H193.14V66.5164V64.9487H196.817C200.206 64.9487 200.528 64.9838 200.926 65.3966Z" fill="white"></path> <path d="M21.1949 72V53.405V34.8099H24.2241H27.2534L27.198 53.3427L27.1426 71.8755L24.1688 71.9377L21.1949 72Z" fill="#CEA058"></path> <path d="M14.1657 71.8755L14.1101 56.4782L14.0545 41.0808H17.084H20.1135V56.5404V72L17.1396 71.9377L14.1657 71.8755Z" fill="#CEA058"></path> <path d="M28.3322 71.9875V56.5341V41.0808H31.252H34.1718V56.5341V71.9875H31.252H28.3322Z" fill="#CEA058"></path> </svg> 