<?xml version="1.0" encoding="UTF-8"?> <svg xmlns="http://www.w3.org/2000/svg" width="195" height="72" viewBox="0 0 195 72" fill="none"> <path fill-rule="evenodd" clip-rule="evenodd" d="M20.3788 0.733842C15.5386 1.57924 10.5614 4.34984 7.188 8.07738C1.83208 13.9957 0.48141 18.8931 0.0994194 33.7789C-0.122468 42.4259 0.00163976 45.538 0.731236 49.6336C2.45906 59.3299 6.366 65.4481 13.0113 68.8613C18.2099 71.5312 21.6607 71.9909 36.5406 71.9955L49.2258 72L52.121 64.7805L55.0169 57.5609L55.1673 64.7805L55.3177 72H96.4572H137.597L137.407 64.922C137.303 61.0291 137.338 57.8469 137.486 57.8503C137.634 57.8537 138.958 61.0388 140.428 64.9282L143.102 72H169.051H195L194.852 63.0817L194.704 54.1635L179.929 53.8804C165.883 53.6114 165.042 53.5344 162.879 52.3159C160.017 50.7043 158.948 48.9892 158.077 44.6105C156.635 37.3615 157.495 27.5452 159.938 23.3551C162.61 18.7719 163.607 18.516 179.526 18.3223L193.361 18.1536V9.07679V0L174.154 0.23499C158.546 0.425812 154.484 0.636452 152.476 1.35841C143.434 4.61031 138.379 10.421 136.04 20.2509C135.299 23.363 135.112 26.6749 135.116 36.6101C135.119 43.7685 135.371 50.0911 135.709 51.4739L136.297 53.8804L133.265 53.8685L130.233 53.8572L119.714 27.1137L109.195 0.370885H96.3761H83.5576L72.9414 26.9841L62.3252 53.5973L47.657 53.7592C28.7197 53.9676 26.4132 53.3793 23.9225 47.7038C22.9184 45.4162 22.7819 44.0828 22.7868 36.6101C22.7916 28.6126 22.8754 27.9286 24.2164 24.902C25.2399 22.5918 26.2854 21.2373 27.931 20.089L30.2213 18.4905L44.3652 18.3144L58.509 18.1389V9.11304V0.0877671L40.9138 0.154014C31.2368 0.190253 21.9959 0.45129 20.3788 0.733842ZM102.454 37.3734C105.543 46.1665 107.956 53.4829 107.814 53.6318C107.673 53.7813 102.366 53.8339 96.0226 53.7501L84.4882 53.5973L90.1681 37.3224C93.2922 28.3714 96.0709 21.1241 96.3428 21.2169C96.6146 21.3098 99.3648 28.5803 102.454 37.3734Z" fill="white"></path> </svg> 