<?xml version="1.0" encoding="UTF-8"?> <svg xmlns="http://www.w3.org/2000/svg" width="233" height="72" viewBox="0 0 233 72" fill="none"> <path fill-rule="evenodd" clip-rule="evenodd" d="M223.502 10.1005C223.256 10.3442 223.056 15.1389 223.056 20.7553C223.056 27.3546 222.811 30.9659 222.363 30.9659C221.982 30.9659 216.699 26.3964 210.623 20.8106C204.547 15.2248 199.136 10.5573 198.598 10.4381C197.756 10.2503 197.646 12.8621 197.799 29.417L197.976 48.613L201.487 48.8141L204.999 49.0159V38.698C204.999 33.0237 205.237 28.2343 205.528 28.0552C205.82 27.8754 211.361 32.5029 217.842 38.3377C224.324 44.1719 229.804 48.9459 230.02 48.9459C230.236 48.9459 230.412 40.2876 230.412 29.7054C230.412 8.48697 230.662 9.65634 226.122 9.65634C224.926 9.65634 223.746 9.85612 223.502 10.1005ZM78.5994 29.6341V49.0159L82.1105 48.8141L85.6216 48.613V29.6341V10.6552L82.1105 10.4541L78.5994 10.2523V29.6341ZM91.6245 11.1227C91.4373 11.6088 91.3644 20.2426 91.462 30.3093L91.6406 48.613H95.3189H98.9972L99.3315 32.9637L99.6659 17.3145H106.58C113.328 17.3145 113.534 17.3598 115.107 19.1831C117.454 21.9027 117.28 25.0505 114.662 27.2441C112.955 28.6745 111.929 28.9682 108.643 28.9682C106.464 28.9682 104.682 29.1966 104.682 29.4763C104.682 29.7553 109.124 34.4001 114.554 39.7981L124.427 49.6119H128.487C130.721 49.6119 132.737 49.4227 132.969 49.1923C133.201 48.9612 130.087 45.3086 126.05 41.0747L118.709 33.3773L120.644 31.3395C123.426 28.4081 124.076 26.8266 124.076 22.9922C124.076 18.7595 122.253 15.0324 118.954 12.5251L116.494 10.6552L104.23 10.4475C94.511 10.283 91.8941 10.4228 91.6245 11.1227ZM120.064 10.6978C120.064 11.2958 155.748 48.28 156.326 48.28C156.612 48.28 156.846 39.7395 156.846 29.3011V10.3223H152.834H148.821V19.6059C148.821 24.7122 148.584 29.0361 148.293 29.2146C148.003 29.3937 143.768 25.2157 138.884 19.9309L130.002 10.3223H125.033C122.3 10.3223 120.064 10.4914 120.064 10.6978ZM164.203 29.6341V48.9459H177.279H190.356L190.153 45.4498L189.951 41.9537L180.755 41.7686L171.56 41.5835V37.2736V32.9637H180.957H190.356L190.153 29.4676L189.951 25.9715L180.724 25.7857L171.497 25.6006L171.695 21.4572L171.894 17.3145L181.09 17.1294L190.285 16.9442V13.6332V10.3223H177.244H164.203V29.6341ZM4.81106 61.3768C4.56562 61.6205 4.36499 64.0178 4.36499 66.7042V71.5874H7.62729C11.8299 71.5874 12.4211 70.8202 11.9229 66.0123C11.5825 62.7299 11.2828 62.0653 9.90716 61.5446C8.01451 60.828 5.4464 60.7435 4.81106 61.3768ZM25.1453 61.8735C24.6738 62.4389 24.4417 64.4959 24.5621 67.0345L24.7627 71.2544L28.2738 71.4555C30.4132 71.5781 31.7849 71.3829 31.7849 70.9561C31.7849 70.5712 30.7496 70.2555 29.4836 70.2555C28.2176 70.2555 26.9884 69.9425 26.751 69.5603C26.0414 68.4169 27.801 66.9259 29.8602 66.9259C30.9188 66.9259 31.7849 66.6262 31.7849 66.26C31.7849 65.8937 30.9576 65.5894 29.9458 65.5841C28.9339 65.5781 27.692 65.3124 27.1851 64.9921C25.7144 64.0644 26.9784 62.9304 29.4836 62.9304C31.0834 62.9304 31.7849 62.626 31.7849 61.9315C31.7849 60.5936 26.2528 60.545 25.1453 61.8735ZM66.1969 62.5674C63.5726 65.1799 64.1565 69.9492 67.3064 71.628C69.1683 72.6202 72.5804 71.2498 72.5804 69.509C72.5804 68.002 71.711 67.8928 70.5741 69.2566C68.8105 71.373 66.5614 69.577 66.5614 66.0522C66.5614 63.6582 68.1885 62.5441 70.2912 63.4984C72.442 64.474 72.5804 64.4613 72.5804 63.2866C72.5804 62.2092 70.5935 60.9326 68.9155 60.9326C68.323 60.9326 67.0998 61.6684 66.1969 62.5674ZM106.465 61.3768C105.757 62.082 105.946 71.5874 106.669 71.5874C107.027 71.5874 107.59 70.6131 107.921 69.4231C108.532 67.2302 108.637 67.3022 109.698 70.6438C110.225 72.3039 111.58 71.3829 112.296 68.8784L112.95 66.5929L113.33 68.8711C113.539 70.1237 114.087 71.2724 114.546 71.4236C115.604 71.7712 115.738 61.8962 114.684 61.2476C113.571 60.5623 112.215 62.1173 111.743 64.6191C111.202 67.4946 110.332 67.5858 109.777 64.8249C109.163 61.7677 107.652 60.1947 106.465 61.3768ZM148.923 61.8096C147.825 63.1261 148.154 71.0393 149.323 71.4236C149.844 71.5947 150.159 71.0646 150.159 70.0171C150.159 67.3594 151.54 67.1363 153.503 69.4771C156.142 72.6249 158.042 72.252 155.776 69.0309C154.796 67.6371 154.796 67.412 155.776 66.3332C158.032 63.852 156.766 61.9208 152.434 61.2309C150.465 60.9179 149.539 61.0704 148.923 61.8096ZM169.199 62.4396C168.592 64.8482 169.129 71.1206 169.966 71.3943C170.377 71.5295 170.896 70.729 171.12 69.6156C171.636 67.0471 172.911 67.0384 174.371 69.5936C174.997 70.6904 175.976 71.5874 176.544 71.5874C177.926 71.5874 177.871 71.3323 175.806 68.2265L174.034 65.5594L175.544 63.9599C177.993 61.3634 176.837 60.4525 174.114 62.8331C171.23 65.3543 170.891 65.4036 170.891 63.3026C170.891 61.1084 169.689 60.4951 169.199 62.4396ZM204.101 61.3821C203.859 61.6231 203.661 64.0431 203.661 66.7594C203.661 70.4127 203.878 71.6273 204.497 71.4242C204.957 71.2737 205.487 69.9752 205.676 68.5388L206.019 65.927L207.858 68.7572C210.707 73.1423 211.686 72.575 211.686 66.5377C211.686 62.7958 211.47 61.5586 210.85 61.761C210.391 61.9108 209.92 62.985 209.805 64.147C209.546 66.7614 208.681 66.8453 207.401 64.3801C206.246 62.1566 204.718 60.7681 204.101 61.3821ZM225.933 61.9321C225.144 62.4822 224.296 63.8507 224.049 64.9728C223.027 69.6049 226.967 73.2842 231.116 71.5727C232.856 70.8555 233.128 70.4247 232.956 68.662C232.789 66.9605 232.426 66.5557 230.914 66.3825C228.804 66.1408 228.556 66.7301 230.245 67.9727C231.855 69.1574 230.433 70.5725 228.194 70.0125C224.94 69.1994 225.373 62.9304 228.684 62.9304C229.591 62.9304 230.519 63.23 230.747 63.5963C231.365 64.5932 232.418 64.3987 232.418 63.2866C232.418 61.1197 228.324 60.2647 225.933 61.9321ZM44.4917 66.5929C44.4917 69.4784 44.7739 71.5874 45.1605 71.5874C45.5283 71.5874 45.8293 70.5565 45.8293 69.2959C45.8293 65.9969 46.7488 65.8984 48.7953 68.9776C49.7804 70.46 50.9461 71.5548 51.3848 71.4102C51.8797 71.2478 52.2576 69.3099 52.3806 66.3073C52.5331 62.5767 52.3799 61.5326 51.7118 61.7517C51.235 61.9075 50.6946 63.1708 50.5107 64.5586C50.1924 66.9612 50.1248 67.0225 49.0916 65.8385C48.4957 65.1545 47.657 63.9213 47.229 63.0968C46.801 62.2724 46.0098 61.5985 45.4715 61.5985C44.6984 61.5985 44.4917 62.6507 44.4917 66.5929ZM85.5647 62.5055C85.3721 63.0043 85.3066 65.1532 85.4183 67.2809C85.643 71.5521 87.0641 73.1057 87.4153 69.4638C87.5938 67.6125 87.8961 67.2589 89.2999 67.2589C90.6976 67.2589 91.0059 67.6145 91.1811 69.4231C91.3109 70.7636 91.7563 71.5874 92.3515 71.5874C93.1019 71.5874 93.3125 70.4906 93.3125 66.5929C93.3125 62.6999 93.1012 61.5985 92.3535 61.5985C91.8051 61.5985 91.3049 62.3816 91.1831 63.4298C91.0153 64.8829 90.6267 65.2611 89.2999 65.2611C87.973 65.2611 87.5845 64.8829 87.4166 63.4298C87.1925 61.496 86.1533 60.9772 85.5647 62.5055ZM130.051 63.4298C129.677 64.4367 128.889 66.5417 128.299 68.1059C127.09 71.3157 127.487 72.3359 129.308 70.6957C130.837 69.3172 134.02 69.2527 134.535 70.5885C134.965 71.7039 136.783 71.9663 136.783 70.9121C136.783 70.5412 136.5 69.7168 136.154 69.0808C135.808 68.4449 135.015 66.5017 134.392 64.7617C133.063 61.0551 131.151 60.4684 130.051 63.4298ZM189.617 66.5929C189.617 70.5885 189.817 71.5874 190.62 71.5874C191.422 71.5874 191.623 70.5885 191.623 66.5929C191.623 62.5974 191.422 61.5985 190.62 61.5985C189.817 61.5985 189.617 62.5974 189.617 66.5929ZM9.58815 64.0957C9.46376 64.737 8.7689 65.2611 8.04327 65.2611C7.31765 65.2611 6.62279 64.737 6.4984 64.0957C6.32986 63.2227 6.71775 62.9304 8.04327 62.9304C9.36879 62.9304 9.75668 63.2227 9.58815 64.0957ZM154.171 64.2622C154.171 65.2305 153.725 65.5941 152.539 65.5941C151.641 65.5941 150.72 65.2944 150.493 64.9281C149.828 63.8573 150.777 62.9304 152.539 62.9304C153.725 62.9304 154.171 63.294 154.171 64.2622ZM132.77 66.6322C132.77 67.731 131.714 67.9168 131.099 66.9259C130.553 66.0469 131.353 64.8003 132.148 65.2897C132.49 65.5002 132.77 66.1042 132.77 66.6322ZM9.69114 67.8955C10.6936 69.0988 10.0496 70.2555 8.37766 70.2555C6.87425 70.2555 6.11117 69.2267 6.62546 67.8928C7.10431 66.6502 8.65454 66.6522 9.69114 67.8955Z" fill="white"></path> <path d="M2.4183 5.32541C1.0881 3.8597 0 2.06171 0 1.32985C0 0.089901 0.44875 0 6.63629 0H13.2719L16.3336 3.56803C18.0169 5.53051 19.3946 7.32851 19.3946 7.56358C19.3946 7.79865 16.1189 7.9911 12.1156 7.9911H4.83728L2.4183 5.32541Z" fill="#CEA058"></path> <path d="M37.9599 26.5405C30.3405 18.0592 23.4072 10.0402 23.4072 9.70986C23.4072 9.49676 31.2621 9.32295 40.8617 9.32295H58.3162L54.9301 13.152C53.0682 15.2577 48.9787 19.6781 45.8428 22.9744L40.1408 28.9677L37.9599 26.5405Z" fill="#CEA058"></path> <path d="M3.19969 47.9466L3.21775 29.1342L3.23581 10.3218L5.39128 12.7065C6.57703 14.0184 10.5563 18.4974 14.2345 22.6601C17.9128 26.8221 22.4411 31.8925 24.2977 33.9262C26.1535 35.9606 29.7268 39.9469 32.2374 42.7857L36.8025 47.9466H20.0014H3.19969Z" fill="#CEA058"></path> <path d="M42.2354 47.5864C42.1076 47.4698 45.2676 43.4789 49.2575 38.7189C53.2475 33.9589 56.7459 30.0426 57.0321 30.0152C57.3183 29.9886 57.4688 34.0874 57.3665 39.1231L57.1806 48.2796L49.824 48.0392C45.7779 47.9073 42.3631 47.7036 42.2354 47.5864Z" fill="#CEA058"></path> </svg> 