<?xml version="1.0" encoding="UTF-8"?> <svg xmlns="http://www.w3.org/2000/svg" width="260" height="60" viewBox="0 0 260 60" fill="none"> <path fill-rule="evenodd" clip-rule="evenodd" d="M229.459 15.7307C220.451 17.3327 213.84 20.8465 209.981 26.0836L208.844 27.6267L209.007 24.9023C209.097 23.4038 209.258 20.9964 209.363 19.5526C209.469 18.1087 209.508 16.8386 209.45 16.7304C209.392 16.6223 205.719 16.538 201.288 16.5435L193.231 16.5532L187.088 26.5194C183.71 32.0007 180.871 36.4853 180.78 36.4853C180.689 36.4853 180.283 33.7976 179.878 30.5129C179.473 27.228 178.985 23.4182 178.794 22.0465C178.602 20.6749 178.368 18.8732 178.272 18.0431L178.098 16.5335L169.519 16.5343L160.94 16.5354L156.769 27.3634C154.475 33.319 152.019 39.6831 151.313 41.5058L150.028 44.8197L147.721 45.1156C144.534 45.5243 139.508 45.4778 137.346 45.0197C134.958 44.5138 133.013 43.401 132.247 42.1023C131.727 41.2215 131.658 40.806 131.747 39.1106C131.985 34.5752 135.08 31.4612 140.486 30.3158C142.714 29.8438 147.859 29.8285 150.648 30.2853C152.104 30.524 152.748 30.5389 152.879 30.337C153.363 29.5909 158.153 17.7459 158.042 17.5676C157.621 16.8861 150.283 16.0085 145.007 16.0085C135.107 16.0085 127.819 18.1696 121.255 23.0523C116.813 26.3567 112.573 32.0156 111.291 36.3541C110.659 38.4879 110.66 42.6323 111.292 44.7391C113.348 51.591 119.248 56.8299 127.337 58.9865C129.78 59.6378 130.346 59.6869 135.475 59.6927C139.615 59.6974 141.43 59.595 142.76 59.2816C143.735 59.0519 144.532 58.9676 144.532 59.0944C144.532 59.222 148.269 59.3249 152.891 59.3249H161.25L164.375 51.1827C166.762 44.9649 167.544 43.1813 167.682 43.6352C167.85 44.1857 169.735 58.3016 169.735 59.0088C169.735 59.2456 171.178 59.3249 175.485 59.3249H181.236L186.183 51.2116C188.904 46.7492 191.173 43.139 191.224 43.1889C191.275 43.2388 191.165 46.3877 190.979 50.1865C190.793 53.9854 190.633 57.566 190.623 58.1436L190.605 59.1936H198.744H206.882L207.193 54.1763C207.364 51.4169 207.541 48.6441 207.587 48.0146L207.669 46.87L208.719 48.6756C210.026 50.9226 212.906 54.0408 214.968 55.4411C219.846 58.7537 225.331 60.0413 233.397 59.7683C247.966 59.2753 256.989 53.3659 259.533 42.6502C259.939 40.9443 260.043 39.7254 259.986 37.3446L259.912 34.2539L246.975 34.1859C236.765 34.1321 234.012 34.1875 233.915 34.4484C233.472 35.6337 231.742 44.5175 231.919 44.6947C232.039 44.815 233.927 44.8777 236.115 44.8341C238.302 44.7905 240.092 44.831 240.091 44.9239C240.091 45.2263 236.815 46.4132 235.146 46.7159C232.117 47.2654 228.966 46.1788 226.951 43.8896C225.536 42.2821 225.023 40.581 225.196 38.0678C225.593 32.2703 230.901 28.1906 236.816 29.1357C238.47 29.3998 240.959 30.3893 242.481 31.3869C243.137 31.8166 243.245 31.8072 245.106 31.159C246.174 30.787 249.469 29.6427 252.428 28.6159C255.387 27.5889 257.902 26.6554 258.016 26.5415C258.337 26.2199 256.305 23.367 254.587 21.7284C251.444 18.7306 247.388 16.6527 242.853 15.7166C239.689 15.0634 233.172 15.0702 229.459 15.7307ZM73.2284 16.9483C73.3203 17.1872 76.0655 21.6932 79.3292 26.9615C85.1021 36.2806 85.2499 36.5533 84.7729 37.0172C84.5033 37.2797 78.9667 42.2942 72.4692 48.1611C65.9717 54.028 60.6162 58.9398 60.5681 59.0766C60.5161 59.2238 61.7834 59.3249 63.6864 59.3249H66.8926L67.9745 58.3591C77.0444 50.2623 91.2363 37.1886 91.225 36.9406C91.2169 36.7623 88.2921 32.1275 84.7259 26.6407L78.2416 16.6648L75.6518 16.5892C73.3318 16.5217 73.079 16.559 73.2284 16.9483ZM80.7387 16.6294C80.7387 16.9019 92.2428 34.7632 92.4662 34.8377C92.6999 34.9157 110.45 19.6893 112.762 17.428L113.677 16.5335H110.569H107.462L104.114 19.6838C102.273 21.4165 100.66 22.8318 100.531 22.8291C100.402 22.8262 99.3649 21.4086 98.226 19.6788L96.1552 16.5335H88.4469C84.2074 16.5335 80.7387 16.5766 80.7387 16.6294ZM105.285 26.6407C99.2205 32.1939 94.1529 36.8986 94.0238 37.0949C93.8568 37.3488 95.8255 40.6206 100.819 48.3887L107.849 59.3249H114.377C117.967 59.3249 120.901 59.2362 120.897 59.128C120.892 59.0199 120.136 58.4239 119.216 57.8041C112.878 53.5329 108.852 46.9671 108.833 40.8716C108.828 38.9037 109.477 35.7889 110.346 33.6186C112.545 28.125 118.885 21.6814 125.692 18.0197C126.809 17.4188 127.725 16.8386 127.727 16.7304C127.729 16.6223 125.161 16.5359 122.021 16.5385L116.311 16.5438L105.285 26.6407ZM81.6945 48.0222C76.0839 53.1918 71.0652 57.8501 70.5417 58.3733L69.5901 59.3249H78.2135H86.8369L89.8512 56.634C91.5088 55.1542 93.3737 53.5011 93.9951 52.9605L95.1253 51.9782L97.5229 55.6514L99.9209 59.3249H102.553C104.581 59.3249 105.142 59.2498 105 58.9968C104.148 57.4802 92.1328 38.5897 92.0299 38.6039C91.9561 38.6142 87.3055 42.8523 81.6945 48.0222Z" fill="white"></path> <path d="M0.403762 2.94899C0.947711 1.6474 1.50741 1.06197 2.7565 0.488358C3.75304 0.0307795 5.14546 0.0058394 30.0017 0.0003264C52.9899 -0.00466155 56.3153 0.0439055 57.1635 0.398313C58.4121 0.92021 59.0069 1.47203 59.6244 2.68227C60.1087 3.63129 60.1229 4.53674 60.056 30.2664L59.9867 56.8695L59.3348 57.8207C58.9765 58.3439 58.2496 59.0157 57.7195 59.3134C56.7637 59.8507 56.5411 59.8549 30.076 59.8549C7.53706 59.8549 3.28548 59.7972 2.68273 59.4822C1.61426 58.924 0.547099 57.6918 0.257273 56.6816C0.0971337 56.1226 0 46.0068 0 29.8498C0 7.10527 0.049617 3.79668 0.403762 2.94899Z" fill="#CEA058"></path> <path d="M46.9817 12.5175C45.458 9.85985 44.0411 7.37447 43.833 6.99454L43.4547 6.30373L29.9182 6.30226L16.3814 6.30078L16.0252 6.90076C14.6547 9.20855 9.78124 17.7321 9.78124 17.8211C9.78124 17.8817 18.8243 17.9311 29.8771 17.9311C48.0885 17.9311 49.9625 17.9038 49.8627 17.6404C49.8019 17.4805 48.5055 15.1753 46.9817 12.5175Z" fill="white"></path> <path d="M56.7768 29.7638C56.7162 29.6017 55.2134 26.9149 53.4372 23.7932C51.661 20.6713 50.1666 18.1205 50.1164 18.1246C50.0662 18.1288 45.5335 26.0414 40.0436 35.708L30.0622 53.2837L31.5473 53.4249C32.364 53.5026 35.3625 53.5442 38.2106 53.5172L43.3888 53.4683L50.1379 41.7634C54.4481 34.2882 56.8471 29.9521 56.7768 29.7638Z" fill="white"></path> <path d="M27.6044 49.9283C26.5661 48.1185 22.078 40.2826 17.6307 32.5152C13.1836 24.7478 9.527 18.3692 9.5051 18.3404C9.48301 18.3118 7.97035 20.8823 6.14322 24.0526C3.69391 28.3028 2.86038 29.8989 2.97044 30.129C3.05238 30.3005 6.06474 35.5882 9.66425 41.8795L16.2091 53.3182L20.3251 53.4395C26.1033 53.6095 29.4925 53.5911 29.4925 53.3897C29.4925 53.2957 28.6429 51.738 27.6044 49.9283Z" fill="white"></path> </svg> 