<?xml version="1.0" encoding="UTF-8"?> <svg xmlns="http://www.w3.org/2000/svg" width="260" height="35" viewBox="0 0 260 35" fill="none"> <path fill-rule="evenodd" clip-rule="evenodd" d="M0 3.5908C0 7.1621 0.0247555 7.18159 4.64157 7.18159H9.28314V21.0318V34.882H13.9247H18.5663V21.0318V7.18159H23.2078C27.8247 7.18159 27.8494 7.1621 27.8494 3.5908V0H13.9247H0V3.5908ZM29.9123 17.441V34.882H41.8267H53.7411L55.2357 31.324C56.0578 29.3676 56.7303 27.4737 56.7303 27.1156C56.7303 26.7566 52.9015 26.6273 48.2207 26.8253L39.7112 27.1875L39.3883 23.8531L39.0645 20.5188H46.9314H54.7983L54.4745 17.1845L54.1516 13.8502L46.6735 13.5486L39.1955 13.247V10.2143V7.18159H46.8303H54.4652L55.5977 3.9509C56.2207 2.17397 56.7303 0.558112 56.7303 0.360105C56.7303 0.162099 50.6962 0 43.3213 0H29.9123V17.441ZM71.6844 1.28243C71.4358 1.98827 68.6684 9.48996 65.5348 17.954C62.4012 26.418 59.835 33.577 59.8308 33.8633C59.8277 34.1495 61.8731 34.2213 64.3765 34.0233L68.9283 33.6632L71.1996 27.3475C72.4476 23.8737 74.1836 19.0487 75.0572 16.6244C75.9309 14.2001 76.9768 12.5842 77.3832 13.0336C78.6344 14.4196 82.3651 26.4837 81.7349 27.1095C81.409 27.4347 79.5946 27.7004 77.7029 27.7004C74.589 27.7004 74.2651 27.9836 74.2651 30.7075V33.7155L84.0784 34.0418C90.3136 34.25 93.7576 33.9946 93.5255 33.3431C93.3244 32.7788 90.7014 25.0463 87.6968 16.1586L82.2321 0H77.1852C74.0763 0 71.9639 0.492452 71.6844 1.28243ZM96.6416 17.1845L96.8427 34.369L101.025 34.684L105.209 35V21.0903V7.18159H109.85H114.492V21.0903V35L118.876 34.684L123.259 34.369L123.547 20.7179L123.836 7.06669L128.189 7.38062L132.543 7.69456L132.707 21.0318L132.871 34.369L137.09 34.684L141.31 35V17.4995V0H118.876H96.4415L96.6416 17.1845ZM144.404 17.441V34.882H157.813C165.188 34.882 171.222 34.7199 171.222 34.5219C171.222 34.3239 170.719 32.7275 170.104 30.9732C168.999 27.8194 168.899 27.7804 161.079 27.486L153.172 27.1875L152.884 13.5937L152.596 0H148.5H144.404V17.441ZM174.523 1.23113C173.672 2.07753 173.285 7.19595 173.285 17.6103C173.285 34.7189 173.363 34.882 181.469 34.882H185.663V30.7782C185.663 27.8143 185.233 26.6745 184.116 26.6745C182.849 26.6745 182.568 24.9078 182.568 16.928C182.568 8.94826 182.849 7.18159 184.116 7.18159C185.196 7.18159 185.663 6.0982 185.663 3.5908V0H180.712C177.989 0 175.204 0.554009 174.523 1.23113ZM187.726 3.5908C187.726 6.0982 188.192 7.18159 189.273 7.18159C190.538 7.18159 190.82 8.93595 190.82 16.8183C190.82 24.4379 190.496 26.5791 189.273 27.0459C188.302 27.4162 187.726 28.9849 187.726 31.2594C187.726 34.8112 187.807 34.882 191.92 34.882C200.026 34.882 200.103 34.7189 200.103 17.6103C200.103 7.19595 199.716 2.07753 198.865 1.23113C198.185 0.554009 195.4 0 192.677 0H187.726V3.5908ZM203.198 17.4995V35L207.581 34.684L211.965 34.369L212.253 20.7753L212.54 7.18159H216.636H220.732V21.0318V34.882H225.374H230.015V17.441V0H216.606H203.198V17.4995ZM232.311 17.1845L232.594 34.369H246.003H259.412L259.706 23.8531L260 13.3372H252.744H245.487V16.928C245.487 20.0982 245.797 20.5188 248.131 20.5188C250.493 20.5188 250.741 20.8748 250.452 23.8531C250.146 27.0059 249.904 27.1875 246.003 27.1875H241.877V17.441V7.69456L249.543 7.18159C257.044 6.67991 257.238 6.5968 258.57 3.33431L259.934 0H245.981H232.029L232.311 17.1845Z" fill="white"></path> </svg> 