<?xml version="1.0" encoding="UTF-8"?> <svg xmlns="http://www.w3.org/2000/svg" width="260" height="62" viewBox="0 0 260 62" fill="none"> <path fill-rule="evenodd" clip-rule="evenodd" d="M10.9861 0.931254C6.41562 2.17132 3.50934 4.53523 1.64446 8.52918C0.0444239 11.9557 0.00649198 12.4763 0.000284928 31.2486C-0.00592213 49.3387 0.0775282 50.6351 1.4348 53.4302C3.15761 56.9792 6.68046 60.0384 10.2847 61.1155C11.8564 61.5846 18.2152 61.9003 26.1085 61.9003H39.3047V56.1016V50.3029L28.3858 50.0835C17.5649 49.8661 17.4442 49.8462 14.8641 47.8819C10.7164 44.7236 10.2136 42.705 10.4647 30.2218C10.6599 20.5158 10.835 19.1506 12.1054 17.4566C15.3945 13.0692 16.3917 12.7535 28.1444 12.3801L38.9599 12.0362V6.19003V0.343891L26.5458 0.210461C18.407 0.123113 13.0482 0.371399 10.9861 0.931254ZM51.7188 6.14258V12.2852L62.6377 12.5046C73.3139 12.7191 73.6111 12.7659 76.0243 14.6037C80.0437 17.6636 80.8589 20.8528 80.5789 32.4261C80.3651 41.2799 80.1775 42.5598 78.7623 44.8288C76.0201 49.2272 72.8732 50.208 61.5012 50.208H51.7188V56.1036V62L66.0295 61.7778C80.2506 61.5578 80.361 61.5447 83.5976 59.6464C85.7101 58.4084 87.5287 56.5947 88.7701 54.488L90.6854 51.2396L90.8978 32.5478C91.1467 10.6482 90.9288 9.32494 86.3025 4.73056C82.1334 0.590803 79.3188 0 63.7543 0H51.7188V6.14258ZM20.6836 30.6062V39.8913H29.9942H39.3047V30.6062V21.3212H29.9942H20.6836V30.6062ZM51.7188 30.6062V39.8913H60.6846H69.6503V30.6062V21.3212H60.6846H51.7188V30.6062ZM102.065 43.6741V60.5247H106.548H111.031V54.3347V48.1446H127.766C142.729 48.1446 144.756 48.0098 146.905 46.8709C154.42 42.8879 154.273 31.5568 146.659 27.9535C144.606 26.9816 141.314 26.8235 123.168 26.8235H102.065V43.6741ZM164.446 27.7726C161.996 28.8579 158.793 32.4247 158.218 34.7068C157.998 35.5803 157.921 40.4869 158.046 45.6108C158.293 55.726 158.702 56.92 163.02 60.1382C164.793 61.4601 166.007 61.5694 180.909 61.7531C196.396 61.9436 196.992 61.9003 199.998 60.3775C204.97 57.8589 206.209 54.6593 206.19 44.388C206.173 34.8457 205.137 31.5581 201.286 28.8187C199.011 27.201 198.636 27.1639 182.757 27.0043C170.328 26.8792 166.059 27.058 164.446 27.7726ZM216.934 28.3826C212.139 31.0911 211.378 33.2782 211.378 44.3618C211.378 53.1984 211.508 54.1992 212.956 56.5211C213.882 58.0067 215.752 59.6395 217.484 60.4759C220.258 61.815 221.618 61.9003 240.217 61.9003H260V57.4297V52.9591H239.999H219.999V44.3618V35.7646H239.999H260V31.294V26.8235L239.827 26.8345C220.231 26.8455 219.576 26.8902 216.934 28.3826ZM144.135 37.484V39.8913H127.583H111.031V37.484V35.0768H127.583H144.135V37.484ZM197.24 44.3618V52.9591H181.722H166.205V44.3618V35.7646H181.722H197.24V44.3618Z" fill="white"></path> <path d="M167.584 12.2239C167.584 6.57657 167.731 5.89498 169.277 4.35297C170.949 2.6851 171.121 2.66447 183.415 2.66447H195.86V5.0717V7.47894H184.136H172.411V12.6373V17.7957H184.136H195.86V20.2462V22.6968L183.385 22.4815L170.91 22.2662L169.247 20.3363C167.756 18.6066 167.584 17.7661 167.584 12.2239Z" fill="#CEA058"></path> <path fill-rule="evenodd" clip-rule="evenodd" d="M102.065 10.574C102.065 6.62334 102.37 4.01114 102.892 3.4898C104.061 2.32401 130.414 2.32401 131.583 3.4898C132.763 4.6666 132.706 16.6952 131.516 17.6801C131.023 18.0873 128.153 18.5123 125.136 18.6237C119.723 18.8246 119.649 18.8521 119.434 20.7187C119.243 22.3728 118.918 22.6101 116.847 22.6101C114.675 22.6101 114.479 22.4389 114.479 20.5468V18.4834H109.099C105.835 18.4834 103.395 18.1588 102.892 17.6581C102.37 17.1368 102.065 14.5246 102.065 10.574ZM114.479 10.574V15.0445H110.341H106.203V10.574V6.10337H110.341H114.479V10.574ZM128.272 15.1099V10.607V6.10337H124.113C119.356 6.10337 119.12 6.36817 119.438 11.3491L119.651 14.7006L123.962 14.9056L128.272 15.1099Z" fill="#CEA058"></path> <path fill-rule="evenodd" clip-rule="evenodd" d="M139.571 3.03793C136.7 4.48709 135.859 6.60064 135.859 12.3601C135.859 21.5441 137.917 22.8777 151.508 22.4994C159.265 22.2834 160.023 22.1417 161.668 20.5991C163.34 19.0302 163.446 18.5378 163.446 12.2934C163.446 6.04973 163.34 5.55659 161.668 3.98776C159.997 2.42099 159.344 2.30957 150.806 2.13694C143.623 1.99113 141.271 2.17958 139.571 3.03793ZM158.618 17.1079V12.2934V7.47894H149.652H140.686V12.2934V17.1079H149.652H158.618Z" fill="#CEA058"></path> <path fill-rule="evenodd" clip-rule="evenodd" d="M199.333 3.99463C198.315 5.89222 198.426 15.9015 199.481 17.2998C200.134 18.1643 201.685 18.4889 205.861 18.6348C211.312 18.8253 211.381 18.85 211.596 20.7187C211.786 22.3646 212.116 22.6101 214.137 22.6101C216.157 22.6101 216.487 22.3646 216.677 20.7187C216.891 18.8624 216.991 18.8239 222.068 18.6409C228.829 18.3975 229.654 17.5281 229.654 10.651C229.654 2.45125 230.078 2.66447 213.777 2.66447C200.908 2.66447 200.002 2.74769 199.333 3.99463ZM211.723 15.0445V10.574V6.10337H207.24H202.757V10.574V15.0445H207.24H211.723ZM225.171 14.7006L225.377 10.402L225.582 6.10337H221.066H216.55V10.607V15.1099L220.861 14.9056L225.171 14.7006Z" fill="#CEA058"></path> <path fill-rule="evenodd" clip-rule="evenodd" d="M236.19 2.91C233.387 4.16383 232.413 6.60201 232.413 12.3601C232.413 21.5441 234.472 22.8777 248.062 22.4994C255.819 22.2834 256.577 22.1417 258.222 20.5991C259.894 19.0302 260 18.5378 260 12.2934C260 6.04973 259.894 5.55659 258.223 3.98776C256.55 2.41962 255.907 2.31026 247.36 2.14863C240.872 2.02552 237.679 2.24286 236.19 2.91ZM255.172 17.1079V12.2934V7.47894H246.206H237.241V12.2934V17.1079H246.206H255.172Z" fill="#CEA058"></path> </svg> 