<?xml version="1.0" encoding="UTF-8"?> <svg xmlns="http://www.w3.org/2000/svg" width="500" height="500" viewBox="0 0 500 500" fill="none"> <path fill-rule="evenodd" clip-rule="evenodd" d="M124.494 75.4635C31.7728 132.231 2.09302 150.85 1.09875 152.878C0.332041 154.443 0.0614964 156.633 0.445337 158.168C0.823318 159.68 6.60339 166.376 14.1112 174.003C26.987 187.081 27.196 187.366 34.2712 201.412L41.4206 215.606L41.9939 227.353C42.4031 235.743 43.0536 240.023 44.2706 242.332C46.5043 246.572 53.3392 253.169 56.2585 253.904L58.5674 254.485V318.828V383.172L56.2458 384.232C51.8927 386.22 46.5414 391.784 44.2598 396.695C42.4979 400.488 41.9802 403.305 41.9734 409.157C41.9636 416.702 41.9568 416.722 38.7894 418.323C30.3136 422.61 26.1988 429.503 25.4165 440.728L24.8715 448.536L20.6199 449.259C11.6021 450.795 3.55708 458.173 1.05577 467.2C-0.289137 472.056 -0.371179 490.15 0.936614 493.595C3.11757 499.346 -13.0643 498.996 249.999 498.996C513.063 498.996 496.881 499.346 499.062 493.595C500.312 490.302 500.312 472.144 499.063 467.637C496.473 458.293 488.451 450.804 479.379 449.259L475.127 448.536L474.582 440.728C473.8 429.503 469.685 422.61 461.21 418.323C458.042 416.722 458.035 416.702 458.025 409.157C458.019 403.305 457.501 400.488 455.739 396.695C453.457 391.784 448.106 386.22 443.753 384.232L441.431 383.172V318.828V254.485L443.795 253.89C447.572 252.94 454.725 245.06 456.471 239.927C457.466 236.999 458.035 231.999 458.035 226.187V217.05L465.456 202.134L472.876 187.218L485.888 174.003C493.395 166.376 499.176 159.68 499.554 158.168C501.015 152.324 500.479 151.937 438.501 114.042C406.002 94.1702 351.283 60.6744 316.903 39.6066C266.116 8.48364 253.662 1.24668 250.488 1.00979C246.838 0.738634 238.557 5.63115 124.494 75.4635ZM365.45 88.5944L478.577 157.771L472.078 164.334L465.579 170.899L455.703 164.829C450.271 161.491 402.412 131.97 349.349 99.2271C259.765 43.949 252.612 39.7241 249.238 40.1107C246.538 40.4201 218.487 57.2874 140.121 105.722L34.6384 170.917L28.0731 164.438C24.4622 160.874 21.6074 157.86 21.7275 157.739C21.8486 157.618 73.1495 126.205 135.729 87.9327C201.377 47.7843 250.106 18.5731 250.917 18.8824C251.69 19.1771 303.23 50.5477 365.45 88.5944ZM344.5 115.506L436.929 172.535L343.464 172.784C292.059 172.921 207.955 172.921 156.568 172.784L63.1354 172.535L156.324 115.037C207.577 83.4131 250.087 57.7504 250.793 58.0088C251.497 58.2673 293.665 84.1404 344.5 115.506ZM237.651 87.8847C230.362 90.7754 224.265 96.6037 220.491 104.288C217.67 110.03 217.28 111.776 217.281 118.675C217.281 125.23 217.734 127.497 220.023 132.4C225.621 144.395 236.76 151.488 249.999 151.488C263.316 151.488 273.636 145.058 279.508 133.103C282.329 127.361 282.719 125.615 282.718 118.716C282.718 112.28 282.253 109.873 280.144 105.363C276.798 98.2081 271.872 92.832 265.435 89.309C260.996 86.8804 258.997 86.433 251.464 86.1834C244.432 85.9504 241.669 86.2901 237.651 87.8847ZM254.926 102.54C258.853 103.633 264.025 108.542 265.567 112.641C270.227 125.03 258.673 138.242 246.137 134.859C236.052 132.138 230.249 120.231 234.774 111.549C238.855 103.719 246.648 100.234 254.926 102.54ZM449.02 197.986L444.903 206.306H249.999H55.0962L50.9785 197.986L46.8617 189.665H249.999H453.137L449.02 197.986ZM124.983 228.865C124.983 233.844 124.602 235.165 122.585 237.186L120.188 239.589H91.775H63.362L60.9652 237.186C58.9483 235.165 58.5674 233.844 58.5674 228.865V222.948H91.775H124.983V228.865ZM208.364 229.259C208.256 234.275 207.877 235.393 205.623 237.334C203.024 239.575 202.841 239.589 174.695 239.589H146.381L143.984 237.186C141.966 235.164 141.586 233.845 141.586 228.852V222.922L175.038 223.18L208.49 223.437L208.364 229.259ZM275.537 231.102C275.834 238.114 276.295 239.93 278.829 244.072C280.628 247.01 283.771 250.207 286.887 252.268L291.997 255.648V319.448V383.248L289.092 384.455C285.658 385.881 278.732 393.141 277.169 396.954C276.565 398.43 275.808 403.162 275.487 407.469L274.905 415.3H249.999H225.094L224.557 407.469C224.248 402.97 223.27 398.086 222.258 395.99C220.362 392.059 214.259 386.029 210.391 384.264L208.002 383.172V319.41V255.648L213.112 252.268C216.228 250.207 219.371 247.01 221.169 244.072C223.704 239.93 224.165 238.114 224.462 231.102L224.806 222.948H249.999H275.193L275.537 231.102ZM358.412 228.865C358.412 233.844 358.032 235.165 356.015 237.186L353.618 239.589H325.304C297.334 239.589 296.959 239.562 294.486 237.386C292.738 235.848 291.8 233.799 291.376 230.589C290.294 222.388 287.818 222.948 325.175 222.948H358.412V228.865ZM441.431 228.865C441.431 233.844 441.051 235.165 439.034 237.186L436.637 239.589H408.224H379.811L377.414 237.186C375.397 235.165 375.016 233.844 375.016 228.865V222.948H408.224H441.431V228.865ZM137.435 252.555L141.586 254.759V319.039V383.319L137.435 385.634L133.285 387.949L129.134 385.645L124.983 383.339L124.986 319.051L124.987 254.762L128.648 252.665C133.319 249.99 132.62 249.998 137.435 252.555ZM370.865 252.555L375.016 254.759V319.039V383.319L370.865 385.634L366.714 387.949L362.563 385.645L358.412 383.339L358.415 319.051L358.417 254.762L362.078 252.665C366.749 249.99 366.05 249.998 370.865 252.555ZM108.379 318.879V381.529H91.775H75.1712V318.879V256.23H91.775H108.379V318.879ZM191.398 318.879V381.529H174.794H158.19V318.879V256.23H174.794H191.398V318.879ZM341.809 318.879V381.529H325.205H308.601V318.879V256.23H325.205H341.809V318.879ZM424.828 318.879V381.529H408.224H391.62V318.879V256.23H408.224H424.828V318.879ZM122.128 401.031C124.656 403.565 124.983 404.572 124.983 409.841V415.79H91.775H58.5674V409.614C58.5674 398.335 58.8585 398.236 92.0944 398.199L119.273 398.17L122.128 401.031ZM204.108 399.645C207.265 401.282 209.314 406.771 208.791 412.189L208.49 415.3L175.038 415.558L141.586 415.815V409.854C141.586 404.57 141.911 403.567 144.441 401.031L147.296 398.17H174.279C196.406 398.17 201.774 398.435 204.108 399.645ZM355.558 401.031C358.088 403.567 358.412 404.57 358.412 409.854V415.815L324.961 415.558L291.509 415.3L291.208 412.189C291.043 410.478 291.388 407.291 291.975 405.106C293.773 398.413 294.549 398.254 325.524 398.209L352.703 398.17L355.558 401.031ZM437.454 399.602C440.907 401.391 441.431 402.762 441.431 409.997V415.79H408.224H375.016V409.841C375.016 404.572 375.342 403.565 377.871 401.031L380.726 398.17H407.709C429.48 398.17 435.226 398.447 437.454 399.602ZM455.208 434.196C457.951 436.653 458.285 437.548 458.398 442.761L458.524 448.583L377.127 449.072L295.731 449.562L293.864 451.873C291.436 454.879 291.491 458.932 294.006 462.136L296.015 464.695L387.366 464.96L478.716 465.224L481.073 467.971C482.992 470.208 483.429 471.796 483.429 476.536V482.355H249.999H16.5696V476.536C16.5696 471.796 17.0071 470.208 18.9263 467.971L21.2831 465.224L112.633 464.96L203.983 464.695L205.993 462.136C208.508 458.932 208.563 454.879 206.135 451.873L204.268 449.562L122.872 449.072L41.4753 448.583L41.6013 442.761C41.7136 437.548 42.0476 436.653 44.7911 434.196L47.855 431.452H249.999H452.144L455.208 434.196Z" fill="#CEA058"></path> </svg> 