<?xml version="1.0" encoding="UTF-8"?> <svg xmlns="http://www.w3.org/2000/svg" width="508" height="509" viewBox="0 0 508 509" fill="none"> <path d="M66.8142 334.88L64 332.066V295.695H46.136C28.7374 295.695 22.0841 294.715 16.4378 291.815C10.9563 288.999 5.07765 282.877 2.63005 277.469L0.498035 272.759L0.185992 204.685C0.0739978 180.276 0.0780764 162.77 0.212136 150.879C0.279181 144.933 0.378603 140.405 0.511466 137.126C0.646907 133.785 0.813255 131.892 0.97784 131.103C2.98782 121.478 10.0544 113.189 19.4199 109.529C21.3258 108.785 23.1884 108.31 32.9889 108.055C42.7493 107.802 60.1163 107.764 92.8284 107.742L161.326 107.695C161.782 107.722 163.17 107.944 165.077 108.618C170.492 114.033 168.716 123.204 161.785 125.62L25.5569 125.881C24.4464 126.268 23.2837 126.964 22.2885 127.726C21.2942 128.487 20.3194 129.427 19.6612 130.396C19.0209 131.34 18.6169 132.383 18.331 134.258C18.0551 136.067 17.868 138.796 17.727 143.2C17.4442 152.038 17.3395 167.992 17.198 197.685C17.115 215.152 17.1112 231.531 17.172 243.848C17.2024 250.006 17.249 255.153 17.3099 258.916C17.3404 260.797 17.3746 262.339 17.4124 263.491C17.4484 264.588 17.4906 265.457 17.5536 265.894C18.0332 269.208 19.3668 272.044 21.5948 274.272L25.0174 277.694L48.6725 277.701C54.9303 277.702 61.0275 277.819 65.8061 278.005C68.197 278.098 70.2448 278.208 71.8119 278.329C73.4596 278.456 74.3827 278.582 74.6698 278.662C77.6079 279.478 78.9032 280.412 79.6939 282.045C80.6182 283.953 81 287.085 81 292.83C81 295.575 81.08 298.091 81.212 299.939C81.2773 300.854 81.3585 301.653 81.4584 302.248C81.5058 302.53 81.5716 302.856 81.6728 303.148C81.7188 303.281 81.8135 303.532 81.9915 303.787C82.1151 303.964 82.6606 304.695 83.704 304.695C84.184 304.695 84.5457 304.518 84.617 304.484L84.6239 304.48C84.7541 304.418 84.8617 304.351 84.9305 304.307C85.0733 304.214 85.2177 304.106 85.3457 304.005C85.6099 303.798 85.9442 303.515 86.3265 303.179C87.098 302.502 88.1507 301.537 89.4027 300.361C91.9109 298.007 95.2644 294.768 98.8606 291.209C99.8141 290.266 100.691 289.391 101.507 288.578C104.051 286.04 105.988 284.108 107.743 282.592C110.003 280.639 111.817 279.508 114 278.806C116.236 278.087 118.996 277.772 123.233 277.688C126.453 277.624 130.406 277.693 135.503 277.782C137.117 277.81 138.846 277.84 140.702 277.868L161.124 278.182L163.704 280.765C165.625 282.686 166.465 284.754 166.465 286.695C166.465 288.635 165.625 290.704 163.704 292.625L161.125 295.207L118.664 295.84L96.9953 317.342C86.5418 327.715 81.3426 332.856 78.2227 335.432C76.6732 336.712 75.795 337.221 75.167 337.452C74.5853 337.666 74.0968 337.695 73.054 337.695C71.3966 337.695 70.5173 337.547 69.775 337.217C69.0027 336.874 68.1806 336.247 66.8142 334.88Z" fill="#CEA058"></path> <path d="M136 149.695C140.971 149.695 145 153.724 145 158.695V158.695C145 163.665 140.971 167.695 136 167.695H52C47.0295 167.695 43 163.665 43 158.695V158.695C43 153.724 47.0294 149.695 52 149.695H136Z" fill="#CEA058"></path> <path d="M136.5 192.695C141.194 192.695 145 196.5 145 201.195V201.195C145 205.889 141.194 209.695 136.5 209.695H51.5C46.8056 209.695 43 205.889 43 201.195V201.195C43 196.5 46.8056 192.695 51.5 192.695H136.5Z" fill="#CEA058"></path> <path d="M51.5 235.695C56.1944 235.695 60 239.5 60 244.195V244.195C60 248.889 56.1944 252.695 51.5 252.695V252.695C46.8056 252.695 43 248.889 43 244.195V244.195C43 239.5 46.8056 235.695 51.5 235.695V235.695Z" fill="#CEA058"></path> <path d="M94.5 235.695C99.1944 235.695 103 239.5 103 244.195V244.195C103 248.889 99.1944 252.695 94.5 252.695H93.5C88.8056 252.695 85 248.889 85 244.195V244.195C85 239.5 88.8056 235.695 93.5 235.695H94.5Z" fill="#CEA058"></path> <path fill-rule="evenodd" clip-rule="evenodd" d="M285.489 323.434C285.257 322.831 284.496 320.452 283.798 318.121C283.411 316.831 283.016 315.688 282.535 314.776C282.048 313.852 281.369 312.964 280.312 312.449C279.249 311.932 278.132 311.952 277.108 312.152C276.103 312.349 274.983 312.761 273.764 313.27C270.542 314.616 265.857 315.616 260.756 316.102C255.675 316.585 250.332 316.544 245.838 315.894C230.472 313.673 218.12 307.161 205.299 294.373C190.049 279.16 179.673 258.865 173.961 232.767C171.46 221.342 170.08 195.82 171.279 182.879C173.588 157.931 186.823 135.74 207.946 121.453C216.96 115.356 230.453 109.968 240.815 108.317C241.46 108.214 243.558 108.126 246.604 108.096C249.571 108.067 253.261 108.091 256.953 108.177C262.907 108.316 266.441 108.485 269.482 108.937C272.488 109.384 275.067 110.117 279.1 111.456C284.426 113.224 287.708 114.423 290.665 115.845C293.612 117.263 296.29 118.929 300.382 121.687C316.735 132.713 327.786 147.9 334.239 168.341C335.306 171.722 335.852 173.829 336.151 177.762C336.459 181.801 336.5 187.714 336.5 198.695C336.5 219.671 336.247 223.109 334.205 232.259C328.405 258.247 318.8 277.534 303.957 293.268L296.325 301.359L300.459 313.181C302.278 318.384 303.316 321.333 305.11 324.107C306.886 326.852 309.376 329.383 313.865 333.932L323.309 343.501L354.605 359.171C371.687 367.724 388.257 376.272 391.48 378.183C408.816 388.465 422.405 404.064 428.407 420.385C430.518 426.124 431.637 429.963 432.252 437.067C432.878 444.287 432.977 454.822 432.985 473.945L432.996 500.191C432.998 504.887 429.191 508.695 424.496 508.695V508.695C419.803 508.695 415.998 504.891 415.995 500.198L415.985 475.944C415.977 457.196 415.856 446.55 415.088 439.254C414.305 431.813 412.84 427.783 410.233 422.272C406.179 413.704 399.206 405.111 391.49 399.154C389.216 397.398 384.758 394.702 378.699 391.349C372.598 387.974 364.764 383.874 355.652 379.301C347.738 375.329 340.539 371.783 335.314 369.268C332.704 368.012 330.576 367.008 329.095 366.337C328.359 366.003 327.759 365.741 327.333 365.569C327.13 365.488 326.914 365.406 326.725 365.349C326.654 365.328 326.462 365.27 326.234 365.248L326.231 365.248C326.149 365.239 325.819 365.207 325.427 365.326C325.208 365.392 324.839 365.546 324.516 365.905C324.156 366.304 324 366.795 324 367.25C324 367.54 323.896 368.507 323.658 370.179C323.429 371.779 323.1 373.878 322.699 376.312C321.898 381.178 320.816 387.351 319.699 393.489C318.582 399.627 317.431 405.72 316.489 410.429C316.018 412.784 315.602 414.783 315.27 416.263C315.104 417.005 314.962 417.603 314.847 418.045C314.718 418.541 314.658 418.695 314.67 418.669C313.191 421.904 309.373 423.748 305.39 422.817C305.054 422.738 304.057 422.411 302.403 421.817C300.802 421.243 298.701 420.46 296.242 419.525C291.327 417.654 285.013 415.183 278.49 412.562L253.988 402.718L228.893 412.782C222.204 415.466 215.828 417.979 210.947 419.865C208.505 420.809 206.442 421.593 204.903 422.164C203.301 422.757 202.396 423.069 202.166 423.127C200.75 423.482 198.904 423.209 197.143 422.329C195.387 421.452 193.986 420.105 193.329 418.668C193.336 418.684 193.325 418.654 193.295 418.555C193.266 418.458 193.219 418.295 193.153 418.045C193.038 417.603 192.896 417.005 192.73 416.263C192.398 414.783 191.982 412.784 191.511 410.429C190.569 405.72 189.418 399.627 188.301 393.489C187.184 387.351 186.102 381.178 185.301 376.312C184.9 373.878 184.571 371.779 184.342 370.179C184.104 368.507 184 367.54 184 367.25C184 366.795 183.844 366.304 183.484 365.905C183.161 365.546 182.792 365.392 182.573 365.326C182.177 365.205 181.844 365.24 181.766 365.248C181.538 365.27 181.346 365.328 181.275 365.349C181.086 365.406 180.87 365.488 180.667 365.569C180.241 365.741 179.641 366.003 178.905 366.337C177.424 367.008 175.296 368.012 172.686 369.268C167.461 371.783 160.262 375.329 152.348 379.301C143.236 383.874 135.402 387.974 129.301 391.349C123.242 394.702 118.785 397.398 116.51 399.153C108.795 405.111 101.821 413.704 97.7671 422.272C95.1603 427.783 93.6951 431.813 92.9119 439.254C92.1438 446.55 92.023 457.196 92.015 475.944L92.0045 500.198C92.0025 504.891 88.1975 508.695 83.5044 508.695V508.695C78.8086 508.695 75.0024 504.887 75.0043 500.191L75.015 473.945C75.0225 454.822 75.1222 444.287 75.7478 437.067C76.3633 429.963 77.4822 426.124 79.5931 420.385C85.6244 403.985 99.1006 388.514 116.52 378.183C119.742 376.272 136.085 367.864 152.893 359.48L183.673 344.125L195.486 332.592C201.998 326.234 205.737 322.967 208.517 321.58C209.821 320.929 210.805 320.754 211.706 320.824C212.651 320.898 213.697 321.256 215.114 321.988C215.855 322.371 218.479 324.148 222.277 326.858C225.998 329.513 230.687 332.946 235.445 336.516L253.98 350.427L270.239 338.265C274.679 334.945 278.433 331.971 281.054 329.721C282.359 328.602 283.418 327.632 284.148 326.871C284.505 326.499 284.838 326.121 285.084 325.766C285.203 325.593 285.356 325.35 285.467 325.062C285.551 324.843 285.778 324.189 285.49 323.436L285.489 323.434ZM291.7 196.623C293.624 194.702 294.465 192.635 294.465 190.696C294.466 188.756 293.626 186.688 291.703 184.765L289.111 182.172L252.964 181.182L245.713 177.611C241.178 175.379 236.317 171.818 232.541 167.983C230.142 165.546 228.171 163.801 226.442 162.655C224.725 161.519 223.36 161.048 222.148 161.003C219.716 160.911 216.966 162.5 212.406 167.117C209.415 170.145 205.541 173.22 202.015 175.546C200.25 176.71 198.535 177.711 197.03 178.431C195.616 179.107 194.101 179.678 192.843 179.686C192.449 179.688 191.76 179.673 191.111 179.352C190.257 178.93 189.806 178.172 189.664 177.388C189.549 176.755 189.629 176.095 189.725 175.547C189.83 174.956 190.002 174.25 190.217 173.434C190.818 171.163 193.209 165.491 195.487 160.818C208.276 134.579 238.724 120.072 267.85 126.242C286.677 130.23 304.134 143.736 312.592 160.873C318.209 172.253 319.962 180.902 319.98 196.692C320.009 222.102 316.235 240.028 306.706 259.317C301.697 269.459 299.119 273.322 292.808 280.03C280.609 292.997 268.592 298.986 254 298.986C239.408 298.986 227.391 292.997 215.192 280.03C201.74 265.731 192.08 242.739 189.118 218.437C188.513 213.479 188.004 207.481 188.003 205.093L187.999 199.536L198.062 196.263C203.179 194.598 209.27 191.658 213.569 188.783L222 183.143L230.431 188.783C234.783 191.694 240.845 194.61 246.189 196.354C250.418 197.734 252.702 198.407 255.98 198.766C259.343 199.136 263.758 199.177 272.227 199.183L289.126 199.194L291.7 196.623ZM300.17 400.686C299.741 401.116 299.255 401.217 299.104 401.245C298.901 401.283 298.733 401.282 298.648 401.28C298.47 401.274 298.318 401.248 298.238 401.233C298.06 401.199 297.868 401.149 297.696 401.1C297.337 400.997 296.856 400.841 296.286 400.645C295.137 400.252 293.519 399.663 291.558 398.927C287.632 397.453 282.28 395.37 276.446 393.034C270.637 390.707 265.135 388.594 260.955 387.065C258.863 386.299 257.115 385.685 255.83 385.265C255.186 385.054 254.677 384.898 254.308 384.797C254.18 384.762 254.078 384.736 254 384.717C253.922 384.736 253.82 384.762 253.692 384.797C253.323 384.898 252.814 385.054 252.17 385.265C250.885 385.685 249.137 386.299 247.045 387.065C242.865 388.594 237.363 390.707 231.554 393.034C225.72 395.37 220.368 397.453 216.442 398.927C214.481 399.663 212.863 400.252 211.714 400.645C211.144 400.841 210.663 400.997 210.304 401.1C210.132 401.149 209.94 401.199 209.762 401.233C209.711 401.243 209.63 401.257 209.533 401.267C209.477 401.273 209.417 401.278 209.352 401.28C209.267 401.282 209.099 401.283 208.896 401.245C208.745 401.217 208.259 401.116 207.83 400.686C207.598 400.454 207.479 400.219 207.45 400.16L207.448 400.157C207.4 400.063 207.368 399.981 207.349 399.932C207.311 399.832 207.283 399.737 207.264 399.671C207.223 399.531 207.182 399.365 207.143 399.193C207.062 398.842 206.96 398.358 206.843 397.767C206.608 396.582 206.295 394.904 205.928 392.863C205.194 388.778 204.235 383.204 203.23 377.124L199.411 354.032L205.523 347.844C207.059 346.289 208.606 344.925 209.881 343.978C210.509 343.512 211.131 343.102 211.69 342.826C211.963 342.692 212.304 342.547 212.675 342.467C212.972 342.404 213.719 342.285 214.459 342.735C214.701 342.882 215.443 343.417 216.422 344.132C217.46 344.89 218.887 345.94 220.598 347.206C224.022 349.737 228.594 353.138 233.489 356.796C241.382 362.695 245.861 365.955 248.791 367.75C251.637 369.494 252.763 369.695 253.991 369.695C255.209 369.695 256.347 369.493 259.336 367.646C262.4 365.751 267.124 362.308 275.472 356.072L295.628 341.016L308.596 353.984L304.773 377.104C303.767 383.189 302.808 388.769 302.073 392.858C301.706 394.9 301.393 396.579 301.157 397.766C301.04 398.357 300.939 398.841 300.857 399.193C300.818 399.365 300.777 399.531 300.737 399.671C300.717 399.737 300.689 399.832 300.651 399.932C300.632 399.981 300.6 400.063 300.552 400.157C300.525 400.211 300.406 400.451 300.17 400.686Z" fill="#CEA058"></path> <path d="M426.403 225.226C422.485 221.681 417.126 216.527 410.422 209.847L389.35 188.856L377.725 188.514C375.009 188.434 373.017 188.375 371.488 188.281C369.947 188.186 368.998 188.062 368.333 187.889C367.259 187.609 366.881 187.246 365.408 185.597C363.611 183.585 362.854 181.564 362.875 179.726C362.896 177.898 363.689 175.988 365.491 174.186L367.982 171.695H396.393L427 201.819V186.447C427 181.062 427.02 178.702 427.346 177.254C427.595 176.149 427.961 175.717 429.491 174.186C431.294 172.383 433.203 171.59 435.031 171.57C436.87 171.549 438.89 172.306 440.902 174.102L443.51 176.432L443.774 200.383C443.903 212.069 443.938 218.236 443.716 221.868C443.606 223.672 443.437 224.737 443.226 225.487C443.027 226.192 442.772 226.689 442.361 227.355C440.592 230.215 436.827 231.656 433.058 230.608L433.061 230.609C433.062 230.606 432.915 230.548 432.568 230.326C432.205 230.093 431.729 229.75 431.132 229.283C429.941 228.352 428.364 227.001 426.403 225.226Z" fill="#CEA058"></path> <path d="M505.069 18.4579L507.5 23.6404V165.749L505.069 170.931C501.989 177.5 496.932 182.614 490.768 185.47C486.176 187.597 481.835 188.512 478.358 188.359C474.856 188.205 472.513 187.003 471.348 185.225C469.346 182.169 469.293 179.006 470.539 176.495C471.796 173.965 474.491 171.87 478.423 171.281C482.034 170.739 484.664 169.458 487.044 166.974L490.5 163.367V25.9042L482.79 18.1946H372.132C367.783 18.1946 363.601 18.1944 359.578 18.1941H359.537H359.497C308.973 18.1908 283.632 18.1892 270.637 18.7426C263.71 19.0376 259.979 19.4928 257.79 20.3384C256.585 20.8039 255.754 21.4168 255.118 22.2162C254.723 22.7128 254.379 23.3509 254.131 23.8081C254.058 23.9434 253.994 24.0628 253.939 24.158C253.132 25.7762 251.518 38.6003 251.518 76.9514L248.902 79.2868C246.89 81.0833 244.869 81.8407 243.031 81.8198C241.203 81.799 239.294 81.0061 237.491 79.2034L235 76.7122C235 35.9144 236.197 22.143 236.796 20.357C240.211 11.3703 247.611 4.50945 256.413 2.06587C256.674 1.99325 257.295 1.88973 258.485 1.78708C259.635 1.6879 261.207 1.59766 263.297 1.51704C267.474 1.35591 273.643 1.23607 282.496 1.15193C300.196 0.983672 328.553 0.958636 372.997 1.02564L485.053 1.19397L490.237 3.62542C496.915 6.75705 501.938 11.7799 505.069 18.4579Z" fill="#CEA058"></path> <path d="M328.5 85.6946C333.194 85.6946 337 89.5002 337 94.1946V95.1946C337 99.8891 333.194 103.695 328.5 103.695V103.695C323.806 103.695 320 99.8891 320 95.1946V94.1946C320 89.5002 323.806 85.6946 328.5 85.6946V85.6946Z" fill="#CEA058"></path> <path d="M380 95.1946C380 99.8891 376.194 103.695 371.5 103.695V103.695C366.806 103.695 363 99.8891 363 95.1946V94.1946C363 89.5002 366.806 85.6946 371.5 85.6946V85.6946C376.194 85.6946 380 89.5002 380 94.1946V95.1946Z" fill="#CEA058"></path> <path d="M147.5 459.695C152.194 459.695 156 463.5 156 468.195V500.195C156 504.889 152.194 508.695 147.5 508.695V508.695C142.806 508.695 139 504.889 139 500.195V468.195C139 463.5 142.806 459.695 147.5 459.695V459.695Z" fill="#CEA058"></path> <path d="M254.5 459.695C259.194 459.695 263 463.5 263 468.195V468.195C263 472.889 259.194 476.695 254.5 476.695H253.5C248.806 476.695 245 472.889 245 468.195V468.195C245 463.5 248.806 459.695 253.5 459.695H254.5Z" fill="#CEA058"></path> <path d="M360.5 459.695C365.194 459.695 369 463.5 369 468.195V500.195C369 504.889 365.194 508.695 360.5 508.695V508.695C355.806 508.695 352 504.889 352 500.195V468.195C352 463.5 355.806 459.695 360.5 459.695V459.695Z" fill="#CEA058"></path> <path d="M423.862 95.1946C423.862 99.8891 420.056 103.695 415.362 103.695V103.695C410.667 103.695 406.862 99.8891 406.862 95.1946V94.1946C406.862 89.5002 410.667 85.6946 415.362 85.6946V85.6946C420.056 85.6946 423.862 89.5002 423.862 94.1946V95.1946Z" fill="#CEA058"></path> </svg> 