<?xml version="1.0" encoding="UTF-8"?> <svg xmlns="http://www.w3.org/2000/svg" width="419" height="510" viewBox="0 0 419 510" fill="none"> <path fill-rule="evenodd" clip-rule="evenodd" d="M2.92418 492.826L0.910645 488.475V61.9272L3.59827 56.4537C6.18248 51.1914 9.5335 47.3721 13.9082 44.7713C18.2944 42.1636 23.7838 40.7369 30.7108 40.3887L40.4106 39.9009V32.254C40.4106 24.5144 42.1549 18.0571 45.4747 12.9898C48.7896 7.93007 53.7196 4.18784 60.2164 1.94105C61.2621 1.57947 62.6151 1.27795 65.8887 1.04169C69.1672 0.805065 74.3102 0.637412 82.908 0.518983C100.096 0.282225 131.003 0.242953 188.211 0.227952C240.76 0.213952 271.678 0.258468 289.747 0.458891C298.784 0.559131 304.592 0.698257 308.28 0.887575C310.125 0.982322 311.421 1.08874 312.316 1.206C313.255 1.32888 313.631 1.45077 313.742 1.50949L313.751 1.51487C313.758 1.51902 313.769 1.52577 313.785 1.53579C313.814 1.55474 313.851 1.58096 313.899 1.61585C313.996 1.68598 314.119 1.78143 314.27 1.90455C314.573 2.15066 314.967 2.48889 315.448 2.91729C316.411 3.77312 317.701 4.96611 319.273 6.45205C322.416 9.42262 326.667 13.5444 331.651 18.4375C341.616 28.2226 354.495 41.0795 367.257 53.9514C380.019 66.8233 392.661 79.7073 402.152 89.5465C406.898 94.4668 410.853 98.622 413.64 101.632C415.034 103.138 416.13 104.351 416.885 105.227C417.263 105.667 417.547 106.011 417.737 106.26C417.811 106.356 417.865 106.431 417.902 106.486C417.904 106.515 417.906 106.552 417.909 106.597C417.918 106.775 417.927 107.029 417.937 107.36C417.955 108.02 417.973 108.964 417.99 110.181C418.025 112.614 418.056 116.121 418.084 120.586C418.141 129.515 418.184 142.268 418.212 157.9C418.268 189.164 418.265 231.944 418.189 278.693L417.911 448.474L415.897 452.826C413.326 458.383 409.852 462.495 405.348 465.307C400.836 468.125 395.223 469.682 388.311 470.013L378.69 470.472L378.211 480.012C377.866 486.874 376.433 492.338 373.822 496.714C371.217 501.078 367.396 504.432 362.152 507.007L356.678 509.695H22.1429L16.6694 507.007C10.4431 503.95 5.90827 499.276 2.92418 492.826ZM302.924 100.826C305.908 107.276 310.443 111.95 316.669 115.007L322.147 117.697L400.411 118.291V281.192C400.411 342.891 400.34 383.528 400.155 408.99C400.062 421.72 399.941 430.663 399.786 436.551C399.709 439.494 399.623 441.683 399.527 443.204C399.479 443.963 399.427 444.568 399.372 445.023C399.344 445.25 399.314 445.451 399.28 445.621C399.249 445.774 399.204 445.966 399.126 446.138C399.003 446.408 398.913 446.659 398.813 446.936L398.762 447.08C398.647 447.398 398.507 447.77 398.296 448.13C397.831 448.922 397.107 449.513 395.853 449.966C394.643 450.401 392.875 450.732 390.221 450.998C387.553 451.266 383.924 451.472 378.957 451.633C361.233 452.208 326.215 452.204 256.24 452.197H256.045C255.977 452.197 255.909 452.197 255.841 452.197C255.769 452.197 255.698 452.197 255.626 452.197C247.381 452.196 238.652 452.195 229.411 452.195C220.17 452.195 211.441 452.196 203.195 452.197C203.124 452.197 203.052 452.197 202.981 452.197C202.912 452.197 202.844 452.197 202.776 452.197H202.581C132.606 452.204 97.5886 452.208 79.8645 451.633C74.8975 451.472 71.2685 451.266 68.6 450.998C65.9464 450.732 64.178 450.401 62.9688 449.966C61.7139 449.513 60.9905 448.922 60.5253 448.13C60.3138 447.77 60.1746 447.398 60.0596 447.08L60.0081 446.936C59.9087 446.659 59.8187 446.408 59.6956 446.138C59.573 445.868 59.5043 445.502 59.4535 445.154C59.397 444.768 59.3454 444.269 59.2973 443.658C59.2009 442.433 59.1147 440.701 59.0373 438.405C58.8823 433.809 58.7612 426.904 58.6684 417.158C58.4829 397.664 58.4106 366.775 58.4106 320.195C58.4106 273.615 58.3384 242.734 58.1529 223.251C58.0602 213.508 57.9392 206.623 57.7851 202.052C57.7081 199.766 57.623 198.069 57.5302 196.889C57.4837 196.298 57.4362 195.849 57.3889 195.526C57.3487 195.251 57.316 195.125 57.3069 195.09C57.304 195.079 57.3034 195.077 57.3057 195.082C56.7606 193.885 55.5558 192.65 54.0353 191.706C52.5187 190.763 50.8256 190.195 49.4106 190.195C47.9399 190.195 46.2164 190.786 44.6942 191.764C43.1677 192.745 41.9765 194.029 41.4587 195.28C41.4587 195.28 41.4588 195.28 41.4576 195.285C41.4504 195.314 41.4153 195.454 41.3725 195.785C41.3273 196.134 41.2825 196.618 41.239 197.25C41.1522 198.511 41.074 200.317 41.0045 202.731C40.8656 207.556 40.7627 214.774 40.6929 224.849C40.5532 244.996 40.5456 276.547 40.6446 323.193C40.7772 385.806 40.8449 417.172 41.142 433.455C41.2907 441.606 41.4965 445.936 41.7904 448.504C41.9365 449.781 42.1015 450.594 42.2819 451.208C42.4609 451.818 42.6627 452.261 42.9242 452.826C45.9083 459.276 50.4431 463.95 56.6694 467.007L62.1437 469.695L360.411 470.223V477.161C360.411 478.844 360.272 480.67 360.05 482.265C359.832 483.825 359.519 485.274 359.126 486.138C359.003 486.408 358.913 486.659 358.813 486.936L358.762 487.08C358.647 487.398 358.507 487.77 358.296 488.13C357.831 488.922 357.107 489.513 355.853 489.966C354.643 490.401 352.875 490.732 350.221 490.998C347.553 491.266 343.924 491.472 338.957 491.633C321.233 492.208 286.215 492.204 216.24 492.197C207.814 492.196 198.881 492.195 189.411 492.195C179.94 492.195 171.007 492.196 162.581 492.197C92.6058 492.204 57.5886 492.208 39.8645 491.633C34.8975 491.472 31.2685 491.266 28.6 490.998C25.9465 490.732 24.178 490.401 22.9688 489.966C21.7139 489.513 20.9905 488.922 20.5253 488.13C20.3138 487.77 20.1746 487.398 20.0596 487.08L20.0081 486.936C19.9087 486.659 19.8187 486.408 19.6956 486.138C19.6093 485.948 19.5648 485.728 19.5366 485.565C19.5036 485.376 19.4741 485.144 19.4468 484.877C19.392 484.341 19.3411 483.61 19.2932 482.676C19.1972 480.806 19.111 478.076 19.0336 474.371C18.8785 466.958 18.7577 455.61 18.6654 439.36C18.4809 406.858 18.4106 354.725 18.4106 275.195C18.4106 195.665 18.4809 143.532 18.6654 111.03C18.7577 94.7796 18.8785 83.4318 19.0336 76.0194C19.111 72.3144 19.1972 69.5843 19.2932 67.7138C19.3411 66.7799 19.392 66.0487 19.4468 65.5127C19.4741 65.2454 19.5036 65.0143 19.5366 64.8247C19.5648 64.6624 19.6093 64.4419 19.6956 64.2525C21.6488 59.9638 26.2815 58.195 33.3606 58.195H40.4106V85.148C40.4106 99.1944 40.4976 106.628 41.1672 110.874C41.4991 112.979 41.9585 114.176 42.5351 114.979C43.1025 115.77 43.8533 116.281 45.0149 116.882C46.6636 117.734 48.0603 118.123 49.4106 118.123C50.7609 118.123 52.1576 117.734 53.8063 116.882C55.0584 116.234 55.7847 115.792 56.3472 114.882C56.9413 113.922 57.4114 112.337 57.7385 109.251C58.3911 103.093 58.4266 91.6003 58.4456 68.8971C58.4646 46.363 58.4831 34.904 59.1297 28.7493C59.4525 25.6776 59.9435 23.764 60.7776 22.4286C61.6374 21.0522 62.7989 20.4018 64.0359 19.7163C64.2948 19.5728 64.6178 19.4848 64.9294 19.4195C65.2639 19.3495 65.6815 19.2873 66.185 19.2305C67.1935 19.1166 68.612 19.0169 70.5313 18.9286C74.3737 18.7519 80.2894 18.6181 89.0852 18.5171C106.681 18.3152 135.85 18.2445 183.116 18.23L300.315 18.1947L300.617 57.9374C300.757 76.4292 300.855 86.1382 301.167 91.7711C301.323 94.585 301.53 96.336 301.811 97.6349C302.087 98.9113 302.438 99.7765 302.924 100.826ZM356.177 99.9619C346.329 100.055 339.038 100.034 333.959 99.8884C331.421 99.8156 329.422 99.7113 327.927 99.5725C326.478 99.438 325.378 99.2626 324.731 98.9949C323.355 98.425 322.118 97.8114 321.163 96.6229C320.214 95.4437 319.633 93.8165 319.247 91.411C318.481 86.6335 318.411 78.1954 318.411 62.5V31.2934L386.816 99.6724L356.177 99.9619Z" fill="#CEA058"></path> <path d="M195.265 67.1848L192.928 69.195H105.894L103.557 67.1848C100.187 64.2871 99.6086 58.818 102.239 55.4807C102.806 54.761 103.554 54.0016 104.3 53.3662C105.044 52.7321 105.712 52.2846 106.147 52.0975C106.157 52.0962 106.219 52.0822 106.366 52.0631C106.558 52.038 106.826 52.0119 107.173 51.9857C107.865 51.9333 108.828 51.8834 110.037 51.8367C112.453 51.7436 115.817 51.6649 119.887 51.6045C128.026 51.4837 138.965 51.4365 150.739 51.4919L193.127 51.6928L195.86 54.7532C197.178 56.2291 197.784 57.075 198.062 57.9174C198.335 58.7431 198.331 59.681 198.093 61.4522C197.753 63.9933 196.785 65.8774 195.265 67.1848Z" fill="#CEA058"></path> <path d="M105.364 117.097C105.311 117.087 105.28 117.08 105.268 117.076C102.282 115.701 100.688 112.682 100.622 109.498C100.556 106.323 102.016 103.151 104.953 101.495C104.965 101.492 104.982 101.488 105.004 101.483C105.096 101.463 105.232 101.44 105.421 101.414C105.796 101.364 106.323 101.313 107.001 101.262C108.353 101.162 110.251 101.067 112.626 100.978C117.373 100.8 123.984 100.649 131.844 100.525C147.562 100.277 168.253 100.137 188.968 100.113C209.684 100.088 230.419 100.178 246.224 100.389C254.128 100.495 260.794 100.63 265.606 100.796C268.014 100.879 269.949 100.97 271.34 101.067C272.037 101.116 272.585 101.166 272.984 101.216C273.183 101.241 273.334 101.265 273.44 101.286C273.504 101.299 273.537 101.308 273.548 101.311C274.736 101.861 275.961 103.06 276.9 104.57C277.843 106.087 278.411 107.78 278.411 109.195C278.411 110.61 277.843 112.303 276.9 113.82C275.963 115.328 274.74 116.525 273.553 117.077C273.54 117.08 273.51 117.087 273.458 117.097C273.355 117.117 273.208 117.14 273.012 117.163C272.621 117.211 272.081 117.258 271.392 117.305C270.018 117.397 268.101 117.484 265.712 117.565C260.937 117.726 254.312 117.86 246.449 117.968C230.724 118.182 210.068 118.29 189.411 118.29C168.753 118.29 148.098 118.182 132.373 117.968C124.509 117.86 117.884 117.726 113.109 117.565C110.721 117.484 108.803 117.397 107.429 117.305C106.741 117.258 106.2 117.211 105.809 117.163C105.613 117.14 105.466 117.117 105.364 117.097Z" fill="#CEA058"></path> <path d="M103.557 213.185C100.187 210.287 99.6084 204.818 102.239 201.481C102.806 200.761 103.554 200.003 104.299 199.369C105.027 198.75 105.682 198.31 106.116 198.118L106.148 198.113C106.23 198.102 106.353 198.089 106.523 198.076C106.86 198.049 107.338 198.022 107.956 197.996C109.191 197.943 110.949 197.893 113.176 197.846C117.628 197.754 123.934 197.675 131.63 197.615C147.022 197.494 167.964 197.445 190.74 197.499L273.127 197.694L275.86 200.753C277.178 202.229 277.784 203.075 278.062 203.917C278.335 204.743 278.331 205.68 278.094 207.452C277.753 209.993 276.785 211.877 275.265 213.185L272.928 215.195H105.894L103.557 213.185Z" fill="#CEA058"></path> <path d="M106.254 263.312C105.688 263.222 105.403 263.138 105.297 263.09C102.292 261.721 100.688 258.692 100.622 255.498C100.555 252.308 102.03 249.119 104.996 247.471L104.994 247.472C104.994 247.472 105.066 247.445 105.264 247.403C105.479 247.357 105.773 247.309 106.151 247.26C106.906 247.163 107.936 247.07 109.213 246.982C111.763 246.807 115.243 246.658 119.352 246.535C127.567 246.29 138.26 246.153 148.978 246.128C159.696 246.104 170.431 246.194 178.731 246.402C182.882 246.506 186.416 246.639 189.03 246.803C190.339 246.884 191.405 246.973 192.199 247.067C192.596 247.114 192.913 247.162 193.152 247.208C193.272 247.231 193.364 247.252 193.432 247.271C193.491 247.287 193.519 247.298 193.524 247.3C197.794 249.246 199.552 254.843 197.097 259.591C196.45 260.844 196.006 261.571 195.1 262.133C194.144 262.726 192.568 263.195 189.501 263.52C183.38 264.169 171.962 264.195 149.411 264.195C134.231 264.195 123.586 264.113 116.501 263.923C112.957 263.827 110.318 263.706 108.453 263.555C107.52 263.48 106.794 263.399 106.254 263.312Z" fill="#CEA058"></path> <path d="M100.759 306.473C100.486 305.647 100.49 304.71 100.728 302.938C101.068 300.397 102.036 298.513 103.557 297.205L105.894 295.195H192.928L195.265 297.205C196.785 298.513 197.753 300.397 198.094 302.938C198.331 304.71 198.335 305.647 198.062 306.473C197.784 307.315 197.179 308.161 195.86 309.637L193.127 312.695H105.694L102.961 309.637C101.643 308.161 101.037 307.315 100.759 306.473Z" fill="#CEA058"></path> <path d="M103.557 359.185C100.187 356.287 99.6084 350.818 102.239 347.481C102.806 346.761 103.554 346.003 104.299 345.369C105.03 344.747 105.688 344.305 106.122 344.114L106.147 344.11C106.218 344.1 106.326 344.087 106.475 344.074C106.773 344.048 107.194 344.021 107.738 343.994C108.824 343.941 110.363 343.891 112.311 343.845C116.204 343.752 121.701 343.673 128.4 343.613C141.798 343.492 159.989 343.444 179.74 343.498L251.127 343.694L253.86 346.753C255.179 348.229 255.784 349.075 256.062 349.917C256.335 350.743 256.331 351.68 256.094 353.452C255.753 355.993 254.785 357.877 253.265 359.185L250.928 361.195H105.894L103.557 359.185Z" fill="#CEA058"></path> <path d="M247.353 400.338C247.586 402.319 247.297 404.288 246.499 405.778L246.473 405.826C245.818 407.05 245.476 407.691 244.375 408.225C243.133 408.827 240.907 409.286 236.348 409.593C227.413 410.195 210.145 410.195 175.469 410.195H174.008C149.292 410.195 132.506 410.118 121.657 409.931C116.231 409.837 112.301 409.715 109.611 409.563C108.265 409.487 107.243 409.403 106.506 409.314C106.137 409.269 105.851 409.224 105.638 409.18C105.532 409.158 105.45 409.138 105.389 409.121C105.375 409.117 105.363 409.113 105.352 409.109C105.339 409.105 105.329 409.102 105.321 409.099C105.304 409.093 105.297 409.09 105.297 409.09C102.292 407.721 100.688 404.696 100.622 401.504C100.555 398.312 102.033 395.115 105.009 393.452C105.089 393.407 105.361 393.306 106.005 393.199C106.618 393.097 107.479 393.004 108.659 392.92C111.018 392.753 114.574 392.631 119.823 392.549C130.317 392.384 147.504 392.377 175.244 392.469L243.124 392.693L245.239 395.153C246.377 396.476 247.12 398.359 247.353 400.338Z" fill="#CEA058"></path> <path d="M40.9574 156.441C39.9862 152.746 41.1446 148.606 45.0054 146.466C50.9399 143.176 58.4106 147.555 58.4106 154.292C58.4106 156.478 57.3277 158.711 55.6071 160.415C53.8871 162.118 51.6284 163.195 49.4106 163.195C44.981 163.195 41.9288 160.136 40.9574 156.441Z" fill="#CEA058"></path> </svg> 