<?xml version="1.0" encoding="UTF-8"?> <svg xmlns="http://www.w3.org/2000/svg" width="436" height="510" viewBox="0 0 436 510" fill="none"> <path fill-rule="evenodd" clip-rule="evenodd" d="M3.41304 92.2985C4.47165 91.1512 5.69659 90.2678 8.46761 89.1468C11.2746 88.0113 15.5836 86.6652 22.7685 84.5668C83.2321 66.9111 142.877 41.651 199.945 9.53278C204.33 7.06482 208.592 4.82528 211.924 3.2065C213.591 2.39641 215.014 1.74698 216.097 1.30292C216.64 1.08044 217.085 0.914968 217.425 0.807047C217.776 0.695474 217.926 0.675756 217.943 0.673568L217.944 0.67334L217.951 0.674526C217.982 0.68017 218.144 0.709319 218.502 0.829409C218.871 0.953573 219.357 1.14214 219.952 1.3936C221.14 1.89551 222.712 2.62632 224.562 3.53504C228.258 5.3511 233.022 7.85837 237.959 10.6174C294.099 41.9891 355.451 67.7635 416.133 85.4684C427.697 88.8425 430.409 90.0638 432.49 92.3109L435.035 95.0599L434.636 167.706C434.21 245.45 434.1 247.324 428.819 274.002C412.743 355.2 365.111 426.473 294.369 475.141C274.122 489.071 253.256 500.017 235.627 505.979C226.864 508.943 219.485 509.941 211.024 508.656C202.523 507.365 192.87 503.761 179.575 497.398C166.583 491.181 154.978 484.392 141.532 475.141C70.791 426.473 23.1585 355.2 7.08332 274.002C1.80167 247.324 1.69144 245.45 1.26546 167.706L0.866699 95.0589L3.41304 92.2985ZM415.908 159.2C415.906 188.124 415.442 219.239 414.875 228.335C410.927 291.579 389.759 347.302 350.955 396.583C340.898 409.356 313.741 436.141 300.05 446.796C284.654 458.777 267.922 469.517 253.178 477.267C245.807 481.142 238.918 484.276 232.931 486.445C226.965 488.605 221.816 489.837 217.951 489.837C214.086 489.837 208.936 488.605 202.971 486.445C196.984 484.276 190.095 481.142 182.724 477.267C167.98 469.517 151.248 458.777 135.852 446.796C122.16 436.141 95.0039 409.356 84.9465 396.583C46.1428 347.302 24.975 291.579 21.0273 228.335C20.4601 219.239 19.9955 188.124 19.9935 159.199L19.9884 105.851L29.4519 103.038C61.5975 93.4829 104.616 77.696 134.043 64.6578C151.885 56.7529 189.623 37.8386 204.458 29.3678C207.629 27.5568 210.663 25.9052 213 24.7022C214.167 24.1014 215.168 23.608 215.929 23.2617C216.308 23.0892 216.64 22.9475 216.909 22.8465C217.043 22.7962 217.174 22.7514 217.294 22.7175C217.396 22.6888 217.561 22.6471 217.737 22.6435C217.942 22.6392 218.136 22.6906 218.238 22.7194C218.369 22.7565 218.515 22.8069 218.667 22.8642C218.973 22.9796 219.36 23.1444 219.811 23.3481C220.716 23.7568 221.927 24.3446 223.353 25.0649C226.208 26.5067 229.958 28.496 233.918 30.6859C286.076 59.5259 350.066 86.3647 406.449 103.05L415.913 105.851L415.908 159.2Z" fill="#CEA058"></path> <path d="M136.287 89.9579C137.665 88.4603 139.229 87.437 140.478 87.2012C145.164 86.3161 149.654 88.5605 151.63 92.7186C155.434 100.722 146.511 109.264 138.485 105.12C136.789 104.244 135.358 102.644 134.451 100.732C133.544 98.8204 133.2 96.6774 133.583 94.769C133.892 93.2245 134.92 91.4422 136.287 89.9579Z" fill="#CEA058"></path> <path d="M67.8554 114.991C78.2793 111.45 92.2151 106.494 98.8295 103.976C105.822 101.314 110.011 100.037 112.964 99.9586C114.399 99.9206 115.507 100.169 116.493 100.669C117.494 101.177 118.431 101.976 119.477 103.135C121.263 105.112 122.101 107.323 122.079 109.447C122.058 111.568 121.178 113.687 119.371 115.491C119.118 115.743 118.566 116.134 117.656 116.655C116.771 117.161 115.616 117.751 114.223 118.41C111.437 119.729 107.74 121.305 103.416 123.023C94.772 126.46 83.6648 130.45 72.4223 134.069L62.9803 137.107V155.133C62.9803 164.86 62.7659 170.501 61.9575 174.034C61.5592 175.774 61.0304 176.933 60.3605 177.795C59.6933 178.654 58.8321 179.288 57.6507 179.898C55.7373 180.886 54.1728 181.306 52.6817 181.253C51.1904 181.2 49.6574 180.669 47.8145 179.547C46.7514 178.9 45.976 178.228 45.3695 177.279C44.7534 176.314 44.2672 174.991 43.905 172.974C43.174 168.905 42.9955 162.329 42.9955 150.902C42.9955 140.2 43.1941 133.621 43.8223 129.433C44.4474 125.266 45.4625 123.722 46.8854 122.791C47.097 122.653 47.8225 122.316 49.0858 121.8C50.3038 121.302 51.9273 120.675 53.8435 119.959C57.6744 118.53 62.6539 116.758 67.8554 114.991Z" fill="#CEA058"></path> <path fill-rule="evenodd" clip-rule="evenodd" d="M298.076 160.691C297.802 160.87 297.136 161.42 296.061 162.379C295.01 163.316 293.623 164.593 291.939 166.173C288.57 169.331 284.026 173.687 278.631 178.924C267.84 189.398 253.655 203.391 238.68 218.373L183.513 273.566L161.219 251.452C152.275 242.58 146.645 237.131 142.641 233.619C138.647 230.116 136.32 228.583 133.985 227.509C116.767 219.59 97.3008 226.816 89.1835 244.171C88.0076 246.685 87.3469 248.416 86.9668 250.38C86.5834 252.361 86.4762 254.626 86.4762 258.223C86.4762 261.981 86.479 264.65 87.0969 267.257C87.7066 269.83 88.9332 272.399 91.4895 275.853C96.6505 282.826 107.02 293.139 127.971 313.972C141.612 327.537 150.959 336.675 157.363 342.65C160.566 345.639 163.022 347.826 164.906 349.377C166.806 350.941 168.07 351.813 168.9 352.219C170.994 353.242 172.501 353.81 174.511 354.137C176.561 354.471 179.162 354.559 183.458 354.559C187.99 354.559 190.53 354.487 192.549 354.117C194.525 353.755 196.036 353.101 198.496 351.831C199.473 351.327 201.155 350.074 204.073 347.512C206.965 344.972 211.004 341.206 216.674 335.747C228.01 324.832 245.826 307.188 273.941 279.135C275.222 277.857 276.481 276.601 277.718 275.366L280.903 272.189L280.904 272.188C314.967 238.206 331.95 221.263 340.541 211.309C345.119 206.005 347.235 202.772 348.3 200.069C349.23 197.71 349.38 195.719 349.592 192.909C349.622 192.511 349.653 192.096 349.688 191.662C350.875 176.893 341.784 162.535 327.994 157.384C325.154 156.322 321.206 155.674 317.191 155.513C313.176 155.352 309.2 155.684 306.304 156.515C304.572 157.012 300.845 158.885 298.076 160.691ZM106.937 254.951C108.447 249.92 112.854 245.635 117.17 245.002C124.504 243.928 126.224 245.214 152.984 271.783C180.215 298.819 181.728 299.914 187.569 296.82C189.156 295.979 216.551 269.158 248.445 237.221C304.545 181.043 310.661 175.454 316.117 175.383L316.104 174.383C316.694 174.376 317.529 174.514 318.36 174.707C319.213 174.904 320.15 175.181 320.97 175.491L316.336 175.388C317.336 175.44 319.181 175.883 320.616 176.427C327.24 178.932 330.775 185.712 328.927 192.365C328.172 195.082 313.069 210.685 258.711 264.903C211.747 311.744 188.57 334.193 186.7 334.646C179.153 336.476 178.617 336.059 143.197 300.839C106.662 264.51 104.783 262.131 106.937 254.951Z" fill="#CEA058"></path> <path d="M334.744 347.66C335.21 347.245 335.505 347.056 335.631 347.005C342.885 344.085 349.926 348.656 349.926 356.012C349.926 356.793 349.532 358.094 348.635 359.922C347.759 361.709 346.466 363.874 344.82 366.336C341.528 371.257 336.87 377.293 331.427 383.745C320.541 396.651 306.575 411.156 294.259 421.661C286.692 428.115 282.334 431.543 279.136 433.009C277.578 433.723 276.357 433.94 275.211 433.839C274.044 433.736 272.861 433.296 271.38 432.531C269.749 431.689 268.661 430.721 267.948 429.513C267.229 428.295 266.836 426.742 266.757 424.638C266.712 423.432 266.77 422.502 267.034 421.608C267.297 420.719 267.784 419.799 268.69 418.66C270.54 416.335 273.984 413.276 280.348 407.913C299.232 392 317.054 372.447 329.655 353.813C330.803 352.115 332.084 350.477 333.218 349.213C333.785 348.58 334.305 348.052 334.744 347.66Z" fill="#CEA058"></path> <path d="M258.971 444.162C256.453 450.797 250.203 453.43 244.878 450.566C237.822 446.772 238.288 436.517 245.722 433.285C247.811 432.378 249.291 432.009 250.636 432.073C251.97 432.136 253.298 432.632 255.071 433.711C258.672 435.904 260.345 440.54 258.971 444.162Z" fill="#CEA058"></path> </svg> 