<?xml version="1.0" encoding="UTF-8"?> <svg xmlns="http://www.w3.org/2000/svg" width="513" height="512" viewBox="0 0 513 512" fill="none"> <path fill-rule="evenodd" clip-rule="evenodd" d="M247.125 2.05658C236.715 5.4549 227.95 14.2102 224.815 24.3413C223.71 27.9153 222.806 32.5486 222.806 34.6381C222.806 40.061 226.144 50.0403 229.37 54.2642L232.127 57.8732L229.215 59.8988C223.294 64.0189 214.854 73.521 211.867 79.4291C207.13 88.8004 205.841 96.0124 205.824 113.241L205.809 128.465L197.06 128.487C185.769 128.515 181.259 130.444 176.27 137.379C174.267 140.163 172.477 142.442 172.292 142.442C172.108 142.442 171.21 139.859 170.299 136.701C168.452 130.312 166.07 125.996 162.334 122.265L159.838 119.772L161.956 117.879C168.165 112.334 172.374 100.615 171.523 91.2433C170.8 83.2797 166.042 73.8065 160.178 68.6511C146.899 56.9807 126.461 57.7863 113.746 70.4821C106.082 78.1353 103.474 85.0098 104.058 96.0193C104.513 104.574 106.567 109.901 111.919 116.403L114.728 119.816L111.911 123.392C110.361 125.358 108.021 128.989 106.711 131.46L104.328 135.953L103.828 190.361L103.328 244.77L94.944 257.174L86.5596 269.577L84.8309 263.998C82.9382 257.892 79.9908 252.615 76.9234 249.844C74.9718 248.08 74.9938 248.004 78.804 243.191C83.7701 236.917 86.2266 229.565 86.1156 221.31C85.9616 209.94 80.7297 200.199 71.4224 193.959C64.2608 189.158 59.9566 188.052 50.4635 188.574C44.2066 188.92 41.1262 189.643 37.057 191.723C17.6827 201.626 12.3557 226.117 25.8642 243.181L29.7114 248.04L27.4079 250.2C23.8105 253.575 20.1212 261.176 18.9314 267.666C18.2445 271.408 17.8447 291.558 17.8447 322.369V371.147L10.4541 381.835C6.38983 387.713 2.56757 394.32 1.96169 396.517C0.488968 401.851 0.505941 435.629 1.98366 440.045C3.30941 444.006 7.21271 448.515 11.046 450.515C12.5697 451.31 16.5999 451.924 20.2942 451.924H26.843V475.228C26.843 497.628 26.9319 498.7 29.1455 502.879C30.7192 505.85 32.8259 507.953 35.8013 509.524C39.9375 511.709 41.1822 511.824 60.6785 511.824C79.3919 511.824 81.5785 511.641 85.4787 509.756C87.9892 508.542 90.6998 506.172 92.0425 504.016C94.2171 500.524 94.3551 499.159 94.83 476.383L95.3298 452.423L137.455 452.162L179.58 451.902L180.011 471.63C180.404 489.565 180.654 491.838 182.769 496.643C184.104 499.674 186.801 503.384 189.095 505.344L189.298 505.518C190.512 506.556 191.529 507.426 192.639 508.153C198.371 511.909 206.592 511.868 257.269 511.614H257.27L258.904 511.606C312.347 511.339 315.492 511.224 319.19 509.391C324.167 506.926 328.879 502.221 331.348 497.251C333.04 493.848 333.324 490.734 333.591 472.639L333.896 451.924H376.332H418.768L418.792 473.138C418.805 484.807 419.225 496.115 419.725 498.269C420.977 503.656 423.601 506.932 428.786 509.577C432.926 511.689 434.408 511.824 453.506 511.824C475.951 511.824 478.48 511.319 483.014 505.938C487.143 501.039 487.743 496.958 487.749 473.746L487.755 452.142L495.203 451.766C503.178 451.365 506.173 449.922 510.189 444.551C512.136 441.946 512.25 440.475 512.25 417.977V394.159L504.002 382.165L495.754 370.171L495.729 318.452L495.707 266.734L493.371 261.065C492.086 257.946 489.594 253.578 487.832 251.356L484.628 247.317L487.298 244.546C488.766 243.022 491.157 239.305 492.611 236.285C494.865 231.601 495.254 229.472 495.254 221.809C495.254 214.012 494.888 212.079 492.484 207.191C489.387 200.895 483.148 194.631 476.606 191.252C470.098 187.89 457.203 187.442 449.574 190.315C429.536 197.858 421.365 224.558 433.989 241.239C435.791 243.619 437.675 246.115 438.176 246.785C438.787 247.601 438.202 248.951 436.402 250.879C433.108 254.406 428.766 262.87 428.766 265.765C428.766 266.938 428.478 268.185 428.127 268.537C427.776 268.887 423.732 263.683 419.141 256.972L410.794 244.77L410.782 193.289C410.772 149.239 410.541 141.037 409.186 136.48C407.449 130.642 404.222 125.037 400.877 122.049L398.723 120.125L401.692 117.057C403.326 115.37 405.925 111.294 407.466 107.999C411.437 99.5175 411.422 88.6766 407.428 80.0461C403.861 72.338 396.519 65.3736 388.962 62.5284C380.566 59.3677 368.354 60.0456 360.931 64.0838C353.944 67.8844 347.422 75.2391 344.739 82.3402C340.557 93.4117 343.084 107.198 351.077 116.918L353.487 119.847L350.093 124.287C346.319 129.224 344.189 133.767 343.212 138.972C342.854 140.88 342.273 142.434 341.922 142.424C341.57 142.414 339.795 140.135 337.977 137.358C333.393 130.359 329.04 128.515 317.038 128.487L307.789 128.465V110.962C307.789 95.8726 307.502 92.6051 305.705 87.252C302.137 76.6308 295.751 67.7956 287.239 61.7098L282.05 58L284.429 55.0459C290.772 47.1731 292.669 32.7183 288.739 22.2288C286.014 14.954 279.408 7.785 272.141 4.21397C265.185 0.794696 253.958 -0.172686 247.125 2.05658ZM480.501 378.497C472.118 366.114 433.315 308.723 394.273 250.96L323.286 145.936L257.299 145.703L191.312 145.472L105.328 272.279C58.037 342.025 19.1944 399.52 19.0114 400.049C18.7995 400.659 48.0649 401.009 99.1561 401.009H179.634L180.236 392.274C181.863 368.603 189.728 350.731 204.606 336.885C209.828 332.026 220.512 324.682 223.94 323.596C225.641 323.056 225.202 322.257 220.309 316.98C205.013 300.482 201.725 278.162 211.693 258.487C221.816 238.51 245.17 227.153 266.773 231.702C284.472 235.429 297.307 246.062 304.844 263.24C306.963 268.069 307.254 270.233 307.27 281.209C307.285 291.05 306.891 294.744 305.401 298.68C302.898 305.294 295.459 316.483 291.514 319.566C289.776 320.924 288.565 322.199 288.823 322.398C289.082 322.596 292.642 324.714 296.736 327.103C319.176 340.197 333.784 366.172 333.784 392.98V401.009H414.764H495.743L480.501 378.497ZM143.506 129.527C147.336 130.972 151.777 135.28 153.442 139.165C154.383 141.36 154.814 146.574 154.805 155.638L154.793 168.897L139.243 191.859C130.69 204.488 123.047 215.478 122.259 216.282C121.013 217.552 120.827 212.704 120.841 179.344C120.858 141.455 120.888 140.892 123.091 137.026C126.967 130.225 136.284 126.803 143.506 129.527ZM149.58 106.235C157.477 98.628 155.888 85.5928 146.386 80.0321C141.202 76.9982 134.865 76.8245 129.653 79.5739C117.745 85.8554 118.025 103.552 130.125 109.401C137.423 112.928 143.689 111.909 149.58 106.235ZM265.327 70.1127C275.843 72.8471 282.398 78.1972 287.894 88.5319C290.108 92.6939 290.309 94.3292 290.62 110.745L290.955 128.465H256.779H222.604L222.97 111.743C223.31 96.2679 223.53 94.6087 225.922 89.4843C230.608 79.4471 238.495 72.6864 248.73 69.93C254.944 68.2578 258.338 68.2947 265.327 70.1127ZM273.582 33.0627C273.052 26.6794 269.906 22.0511 264.397 19.5523C259.227 17.2082 255.374 17.2012 250.3 19.5283C239.548 24.4581 236.713 37.085 244.44 45.6257C250.6 52.4343 260.323 53.4785 267.397 48.0916C272.103 44.5066 274.125 39.5948 273.582 33.0627ZM384.656 79.5998C392.085 83.7699 395.284 92.2796 392.327 100.01C385.249 118.519 358.354 112.696 359.989 93.0084C360.255 89.8058 361.275 86.648 362.679 84.6793C367.491 77.9306 377.541 75.6075 384.656 79.5998ZM393.25 142.649C392.533 137.627 387.952 131.849 383.073 129.814C376.151 126.926 367.02 129.511 362.68 135.586C360.442 138.72 360.257 139.972 359.961 154.06L359.642 169.173L376.457 193.993L393.273 218.814L393.567 182.874C393.729 163.107 393.586 145.006 393.25 142.649ZM471.596 208.217C481.64 215.358 480.646 231.253 469.799 236.98C462.823 240.664 456.088 239.795 450.389 234.474C442.117 226.752 443.442 213.703 453.099 207.788C458.448 204.512 466.653 204.701 471.596 208.217ZM476.283 264.692C474.615 261.848 472.35 259.742 469.457 258.344C462.126 254.8 455.018 256.061 449.576 261.87C445.481 266.24 444.763 269.316 444.757 282.522L444.752 294.687L461.504 319.466L478.257 344.245L478.519 306.596L478.781 268.947L476.283 264.692ZM470.528 473.661L470.798 494.899L453.532 494.626L436.265 494.353L435.993 474.414C435.844 463.449 435.946 453.891 436.221 453.176C436.61 452.163 440.437 451.936 453.49 452.149L470.258 452.423L470.528 473.661ZM293.519 345.556C285.572 339.591 281.662 337.64 272.668 335.151C263.965 332.742 251.004 332.546 242.802 334.696C221.874 340.184 204.688 357.207 199.395 377.692C198.046 382.915 197.81 391.687 197.81 436.733C197.81 440.946 197.807 444.85 197.803 448.468C197.769 483.289 197.761 491.647 201.399 493.777C202.548 494.449 204.061 494.501 206.051 494.569L206.053 494.569H206.054L206.064 494.569C206.715 494.591 207.417 494.615 208.174 494.663L214.807 495.085V454.608V414.132L217.442 412.064C220.048 410.016 224.127 409.414 227.26 410.614C231.537 412.253 231.804 414.908 231.804 455.867V494.852H257.299H282.794V454.874V414.895L285.249 412.445C286.942 410.753 288.814 409.994 291.293 409.994C293.771 409.994 295.643 410.753 297.336 412.445L299.791 414.895V454.874V494.852H305.367C310.197 494.852 311.334 494.462 313.865 491.934L316.788 489.016L316.771 437.774C316.752 382.713 316.486 379.206 311.49 368.064C307.879 360.014 300.55 350.833 293.519 345.556ZM270.796 250.922C277.502 253.892 284.061 260.054 287.626 266.734C290.002 271.183 290.292 272.81 290.292 281.709C290.293 290.324 289.965 292.307 287.899 296.184C282.323 306.649 275.779 311.923 264.923 314.699C249.515 318.642 233.864 311.153 226.565 296.347C223.704 290.547 223.305 288.754 223.305 281.709C223.305 274.647 223.702 272.875 226.597 267.004C234.817 250.33 253.836 243.411 270.796 250.922ZM63.221 235.198C72.8962 227.599 70.1557 210.802 58.5219 206.402C47.1961 202.116 35.6102 210.227 35.6102 222.442C35.6102 236.513 51.9402 244.059 63.221 235.198ZM62.2952 259.647C68.1231 264.085 69.1659 267.16 69.6408 281.312L70.0617 293.894L53.4089 318.467C44.2506 331.983 36.3252 343.307 35.7993 343.631C34.5535 344.4 34.5535 275.168 35.7982 269.806C37.048 264.426 39.6635 261.157 44.8985 258.433C50.7524 255.385 57.3001 255.842 62.2952 259.647ZM77.8332 494.852V473.388V451.924H60.8364H43.8397V473.388V494.852H60.8364H77.8332ZM179.814 426.466V434.952H98.8292H17.8447V426.466V417.981H98.8292H179.814V426.466ZM495.754 434.952V426.466V417.981H414.769H333.784V426.466V434.952H414.769H495.754Z" fill="#CEA058"></path> </svg> 