<?xml version="1.0" encoding="UTF-8"?> <svg xmlns="http://www.w3.org/2000/svg" width="513" height="512" viewBox="0 0 513 512" fill="none"> <path d="M266.289 47.2545C263.631 42.195 265.161 39.7711 280.802 24.28C293.438 11.7619 296.028 9.64048 298.672 9.64048C303.134 9.64048 304.813 10.516 306.465 13.7057C308.968 18.5396 308.267 20.4644 301.429 27.5375C297.854 31.2343 294.93 34.5608 294.93 34.9282C294.93 35.2965 296.784 35.597 299.051 35.597C305.691 35.597 323.516 38.4852 335.922 41.5701C373.755 50.9793 408.2 70.1512 436.267 97.4226C455.327 115.943 470.13 136.317 481.291 159.39C495.361 188.477 502.058 214.461 503.556 245.772C504.172 258.64 504.152 258.808 501.662 261.697C498.354 265.538 492.529 265.654 489.332 261.942C487.503 259.82 487.127 257.731 486.572 246.625C483.283 180.733 449.491 121.874 393.911 85.221C368.082 68.1885 333.008 55.7613 302.928 52.9869L295.43 52.2951L301.128 58.2941C304.261 61.5935 307.113 65.4411 307.466 66.8428C308.877 72.4584 302.779 78.4573 297.106 77.0357C294.077 76.277 268.605 51.6602 266.289 47.2545Z" fill="#CEA058"></path> <path d="M9.9071 272.084C8.61535 256.456 8.91838 253.299 12.0088 250.213C13.3045 248.919 15.3332 248.241 17.9097 248.241C24.2155 248.241 25.6222 250.914 26.4441 264.46C29.7335 318.622 49.8936 364.127 86.9305 400.986C108.721 422.67 133.036 438.159 161.358 448.396C177.559 454.252 203.637 459.887 214.535 459.887H218.386L212.167 453.621C206.888 448.301 205.947 446.819 205.947 443.811C205.947 440.194 208.448 436.93 212.252 435.587C215.784 434.339 220.621 437.873 234.191 451.616C246.966 464.552 247.939 465.804 247.939 469.307C247.939 472.806 246.953 474.081 234.191 487.074C226.631 494.773 219.02 501.678 217.28 502.42C209.994 505.527 203.083 498.553 206.443 491.485C207.296 489.687 210.234 486.014 212.97 483.324C215.706 480.632 217.944 478.078 217.944 477.645C217.944 477.212 215.807 476.859 213.195 476.859C206.738 476.859 186.535 473.485 174.953 470.474C107.87 453.034 51.9302 403.983 25.5902 339.508C17.0658 318.641 11.9327 296.572 9.9071 272.084Z" fill="#CEA058"></path> <path fill-rule="evenodd" clip-rule="evenodd" d="M0.98584 119.956C0.98584 61.8112 43.1018 11.7999 100.103 2.25883C124.077 -1.75445 150.997 2.18096 172.453 12.8371C185.068 19.1006 193.697 25.3013 204.083 35.5631C225.351 56.5769 236.792 81.7868 239.436 113.467L240.061 120.954L254.592 120.63C271.696 120.247 284.101 121.916 298.616 126.55C339.509 139.607 371.952 171.358 385.728 211.802C391.153 227.729 392.411 235.919 392.411 255.302V272.846L403.909 274.01C432.965 276.95 457.257 288.354 477.484 308.551C500.454 331.488 512.308 360.113 512.248 392.5C512.189 423.907 500.982 452.058 479.583 474.554C461.542 493.519 435.078 507.174 409.474 510.73C359.108 517.724 309.034 491.12 286.013 445.135C279.271 431.665 273.934 410.821 273.934 397.953V392.186L257.687 392.182C233.171 392.177 215.008 388.072 194.949 378.005C147.175 354.028 116.908 301.908 120.402 249.641L121.076 239.559L111.772 238.906C49.5356 234.537 0.98584 182.41 0.98584 119.956ZM127.528 52.6615C144.918 55.8611 157.867 68.471 161.654 85.8949C163.089 92.4988 163.16 94.6762 162.135 100.646C160.498 110.175 156.604 117.933 150.292 124.24C129.556 144.96 94.752 139.044 81.7054 112.581C78.626 106.335 78.4711 105.47 78.4711 94.4985C78.4711 83.4729 78.6141 82.6863 81.7805 76.263C86.1167 67.4677 93.2282 60.2648 101.3 56.4931C111.268 51.8359 117.829 50.8775 127.528 52.6615ZM158.956 160.402C158.956 159.924 156.368 158.497 153.207 157.231C147.785 155.058 145.978 154.913 121.463 154.686C98.6153 154.473 94.791 154.664 89.8779 156.261C79.2909 159.701 69.4648 168.414 64.6057 178.67C61.2004 185.858 59.0277 200.475 61.0114 202.861C62.2541 204.358 74.9888 212.301 76.1436 212.301C76.4485 212.301 76.9274 207.948 77.2053 202.628C77.6752 193.672 77.9122 192.782 80.3967 190.648C83.8631 187.671 88.1213 187.71 91.6626 190.75C94.4281 193.124 94.4731 193.343 94.8151 206.106L95.1628 219.053L100.814 220.2C103.922 220.83 110.526 221.619 115.489 221.951L124.512 222.556L126.921 214.719C131.715 199.117 142.647 179.769 153.844 167.069C156.655 163.879 158.956 160.879 158.956 160.402ZM145.432 21.0893C163.555 25.6796 183.128 37.2333 195.031 50.3653C201.401 57.3936 210.187 70.5725 213.52 78.0989C214.894 81.2017 217.12 87.5361 218.466 92.1764C221.128 101.346 223.41 120.796 222.101 123.136C221.653 123.934 217.395 125.894 212.638 127.49C201.767 131.138 191.807 136.087 181.065 143.18C173.403 148.24 172.496 148.598 170.567 147.339C169.405 146.581 166.181 144.791 163.403 143.363L158.353 140.763L164.042 134.587C173.724 124.076 179.917 108.436 179.917 94.4985C179.917 68.1406 161.071 43.8233 134.96 36.4896C132.486 35.7947 125.737 35.2257 119.963 35.2237C111.099 35.2217 108.226 35.649 101.505 37.9691C67.4041 49.7404 51.3513 86.5039 66.0385 119.193C69.0069 125.802 76.5984 136.353 80.1927 138.867C81.3785 139.697 82.1514 140.528 81.9104 140.715C81.6684 140.902 78.8291 142.36 75.6007 143.958C67.6272 147.9 56.8042 158.133 52.0251 166.244C49.8796 169.887 47.142 176.139 45.9432 180.138L45.8801 180.349C44.7971 183.961 44.1811 186.015 43.1851 186.22C41.8713 186.489 39.8963 183.541 35.3162 176.704L35.1134 176.401C24.3944 160.399 19.1134 144.202 18.2516 124.687C16.9398 94.9487 26.9268 68.9562 47.6769 48.1021C64.4647 31.2294 83.8641 21.8451 109.465 18.2121C116.954 17.1489 135.842 18.6604 145.432 21.0893ZM371.313 223.395C358.962 180.164 321.74 146.667 277.487 138.961C266.785 137.098 245.373 137.108 235.098 138.981C211.759 143.236 188.876 155.372 171.871 172.512C138.285 206.365 128.186 256.395 145.965 300.851C160.688 337.665 193.734 365.055 233.092 373.063C244.662 375.417 263.916 375.891 275.082 374.096C345.966 362.697 390.974 292.214 371.313 223.395ZM263.263 246.414L231.099 278.53L224.191 271.872C218.588 266.47 216.678 265.213 214.069 265.213C209.545 265.213 205.947 269.011 205.947 273.787C205.947 277.076 206.919 278.454 215.195 286.901C225.468 297.386 228.839 299.64 232.8 298.674C236.569 297.753 306.653 227.801 307.454 224.16C308.139 221.045 305.858 215.866 303.383 214.918C302.493 214.578 300.339 214.298 298.595 214.298C295.768 214.298 291.952 217.766 263.263 246.414ZM399.87 325.175C408.504 326.574 418.806 332.083 424.395 338.291C439.981 355.601 439.373 380.672 422.969 397.059C413.364 406.655 399.345 411.315 386.748 409.1C366.651 405.565 352.232 390.12 351.119 370.934C350.371 358.032 351.256 354.879 357.612 347.788C360.67 344.376 364.985 339.026 367.202 335.9C371.564 329.745 376.965 326.623 385.854 325.12C392.37 324.017 392.731 324.019 399.87 325.175ZM352.074 410.447C344.137 403.779 335.655 386.995 334.255 375.19C333.918 372.356 333.144 370.053 332.534 370.072C331.923 370.092 328.498 371.888 324.924 374.065C317.631 378.506 305.268 383.901 296.657 386.401L290.931 388.063V394.893C290.931 409.058 295.356 426.205 302.55 439.92C306.912 448.237 315.872 460.384 316.812 459.256C317.209 458.78 318.099 456.143 318.791 453.398C322.342 439.3 334.746 423.807 347.92 417.016C351.494 415.173 354.587 413.527 354.794 413.357C355 413.186 353.777 411.877 352.074 410.447ZM423.259 428.967C430.049 431.06 437.351 435.808 442.185 441.269C448.57 448.485 452.899 460.453 452.899 470.894V475.811L445.172 480.329C440.922 482.813 437.098 484.845 436.674 484.845C436.25 484.845 435.903 480.767 435.903 475.783C435.903 467.099 435.781 466.6 432.98 463.803C429.527 460.355 425.261 459.97 421.767 462.79C419.552 464.577 419.375 465.521 418.906 478.015L418.406 491.334L413.407 492.58C405.262 494.611 390.079 495.226 380.83 493.901C379.517 493.713 378.337 493.557 377.278 493.417C372.686 492.81 370.358 492.502 369.16 491.174C367.928 489.809 367.891 487.365 367.815 482.409C367.798 481.297 367.779 480.059 367.744 478.678C367.42 465.87 367.379 465.667 364.611 463.292C360.944 460.147 356.55 460.164 353.374 463.336C351.11 465.595 350.919 466.529 350.919 475.316C350.919 481.889 350.559 484.845 349.757 484.845C348.348 484.845 340.644 480.492 336.151 477.156C332.891 474.736 332.883 474.707 333.489 468.056C335.3 448.171 346.267 434.088 364.417 428.342C367.16 427.473 375.997 427.055 392.556 427.009C414.099 426.949 417.402 427.16 423.259 428.967ZM491.285 364.171C481.04 328.443 450.692 300.16 414.641 292.743C402.794 290.306 389.072 289.532 388.52 291.271C388.277 292.039 386.978 296.055 385.634 300.196L383.191 307.725L393.3 307.773C401.552 307.811 404.837 308.308 411.186 310.478C432.572 317.791 447.096 334.195 451.462 355.973C455.233 374.776 449.818 393.331 436.31 407.902L430.931 413.702L435.166 415.334C441.274 417.686 451.961 426.042 456.683 432.156C461.378 438.237 466.226 448.011 468.026 455.022C468.713 457.698 469.527 459.881 469.835 459.874C471.21 459.843 481.407 444.664 484.915 437.425C495.996 414.566 498.262 388.503 491.285 364.171Z" fill="#CEA058"></path> </svg> 