<?xml version="1.0" encoding="UTF-8"?> <svg xmlns="http://www.w3.org/2000/svg" width="79" height="202" viewBox="0 0 79 202" fill="none"> <path d="M2.02399 16.866V61.61H9.07399V23.822H70.456V61.14H77.788V16.866H2.02399ZM5.78399 48.826V55.688H74.686V48.826H5.78399ZM36.052 0.0400391V86.426H43.384V0.0400391H36.052Z" fill="white"></path> <path d="M15.748 133.934V140.232H63.97V133.934H15.748ZM18.38 153.58V159.784H61.714V153.58H18.38ZM14.338 175.67V181.686H66.038V175.67H14.338ZM36.146 135.908V178.866H42.726V135.908H36.146ZM48.648 163.92C52.032 167.116 56.074 171.722 57.954 174.636L62.748 171.722C60.868 168.808 56.732 164.484 53.16 161.382L48.648 163.92ZM0.98999 119.364V201.614H8.13399V125.85H71.396V201.614H78.916V119.364H0.98999ZM4.84399 190.334V196.82H74.874V190.334H4.84399Z" fill="white"></path> </svg> 