<?xml version="1.0" encoding="UTF-8"?> <svg xmlns="http://www.w3.org/2000/svg" width="177" height="1542" viewBox="0 0 177 1542" fill="none"> <path d="M6.04109 0.65918V15.0232H168.77V0.65918H6.04109ZM98.6511 55.6582C121.142 70.9672 149.492 93.0802 162.722 107.633L174.251 96.8602C160.265 82.3072 131.348 60.9502 109.235 46.5862L98.6511 55.6582ZM95.0601 5.57318C77.4831 41.1052 42.3291 77.3932 1.31609 97.9942C4.15109 101.018 8.68709 106.688 10.9551 110.279C53.6691 87.7882 89.0121 50.3662 110.558 11.2432L95.0601 5.57318ZM79.5621 43.3732V160.931H94.8711V28.2532L79.5621 43.3732Z" fill="white"></path> <path d="M2.45009 229.714V242.566H99.4071V229.714H2.45009ZM8.12009 319.678V332.53H93.9261V319.678H8.12009ZM44.2191 297.187V373.354L58.2051 371.275V297.187H44.2191ZM0.371094 371.275L2.63909 385.45C27.7761 382.048 65.0091 376.756 100.163 371.842L99.7851 358.612C63.3081 363.526 24.9411 368.629 0.371094 371.275ZM2.07209 281.122L3.20609 294.541C25.6971 293.218 58.0161 291.517 89.0121 289.627L89.3901 277.153C56.8821 278.854 23.6181 280.366 2.07209 281.122ZM62.3631 258.064C73.7031 271.483 86.3661 289.816 91.8471 301.345L103.187 294.541C97.7061 283.201 84.4761 265.435 72.9471 252.205L62.3631 258.064ZM35.1471 236.518C30.9891 251.449 22.8621 273.562 16.2471 286.981L28.7211 290.005C35.7141 276.964 43.8411 256.174 50.4561 239.542L35.1471 236.518ZM107.723 240.109V344.815H121.331V240.109H107.723ZM152.327 222.721V372.22C152.327 375.622 151.382 376.567 147.98 376.756C144.2 376.756 132.482 376.945 119.819 376.378C121.898 380.725 123.977 387.34 124.733 391.309C140.042 391.309 151.571 390.931 157.808 388.474C164.045 386.206 166.313 381.859 166.313 372.031V222.721H152.327Z" fill="white"></path> <path d="M37.9821 619.986C37.9821 614.883 54.6141 607.323 54.6141 607.323V448.374H39.8721V595.794C39.8721 603.165 35.3361 606 32.1231 607.512C34.2021 610.536 37.0371 616.584 37.9821 619.986ZM37.9821 619.986C42.5181 617.151 49.5111 614.883 101.486 600.897C100.73 597.873 100.163 591.825 100.163 587.667L44.4081 601.464L36.8481 607.134L37.9821 619.986ZM3.39509 521.328V535.503H171.416V521.328H3.39509ZM95.8161 527.754L82.7751 531.156C97.7061 572.547 124.922 602.22 165.746 615.639C167.825 611.481 172.172 605.433 175.763 602.409C136.451 591.258 109.046 564.042 95.8161 527.754ZM138.341 451.398C121.709 471.054 94.1151 489.198 67.6551 499.971C71.2461 502.617 76.9161 508.476 79.3731 511.5C105.077 499.026 133.805 479.37 152.516 457.446L138.341 451.398Z" fill="white"></path> <path d="M3.01709 723.545V736.586H54.2361V723.545H3.01709ZM22.8621 679.508V806.138H36.2811V679.508H22.8621ZM0.749094 811.619L5.28509 825.794C20.2161 819.746 39.1161 812.375 57.0711 805.004L54.6141 792.152C34.7691 799.712 14.3571 807.272 0.749094 811.619ZM67.4661 706.346V719.387H172.928V706.346H67.4661ZM69.9231 744.902V756.998H104.888V744.902H69.9231ZM62.1741 706.346V765.125C62.1741 789.695 60.2841 820.88 41.3841 842.993C44.4081 844.694 49.7001 849.041 51.7791 851.687C72.1911 828.251 75.4041 792.152 75.4041 765.314V706.346H62.1741ZM99.4071 744.902V747.17C98.8401 788.939 98.0841 803.114 96.0051 806.138C94.8711 807.65 93.5481 808.028 91.0911 808.028C88.8231 808.028 82.9641 808.028 76.3491 807.461C78.2391 810.674 79.3731 815.777 79.7511 819.557C86.3661 819.935 93.1701 819.746 96.9501 819.368C101.486 818.99 104.132 817.667 106.589 814.265C110.18 809.54 110.936 794.042 111.503 750.572C111.692 748.871 111.692 744.902 111.692 744.902H99.4071ZM119.063 677.24C119.819 768.716 128.324 849.23 157.619 849.23C170.093 849.23 174.251 840.347 176.33 811.997C172.928 810.674 168.392 807.65 165.746 804.626C164.99 826.55 163.1 835.811 159.32 835.811C143.066 835.811 131.915 766.07 132.671 677.24H119.063ZM136.262 684.611C144.578 691.226 154.028 700.487 158.375 706.724L168.581 699.731C164.045 693.494 154.217 684.611 145.901 678.374L136.262 684.611ZM156.674 740.366C145.901 785.537 124.922 820.124 91.4691 840.725C94.3041 842.804 99.4071 847.907 101.486 850.553C135.128 827.495 157.43 791.396 169.715 742.823L156.674 740.366Z" fill="white"></path> <path d="M109.424 935.968V949.387H170.66V935.968H109.424ZM109.235 1021.77V1035.19H173.873V1021.77H109.235ZM108.479 978.682V991.534H166.88V978.682H108.479ZM7.36409 935.968V949.387H63.1191V935.968H7.36409ZM9.6321 978.682V991.534H62.5521V978.682H9.6321ZM102.053 908.374V1081.12H116.039V908.374H102.053ZM0.371094 1025.93L3.39509 1039.73C25.6971 1035.76 56.6931 1030.09 86.1771 1024.61L85.4211 1011.95C54.2361 1017.43 21.3501 1022.72 0.371094 1025.93ZM56.6931 908.374V996.637C56.6931 1016.29 50.6451 1054.28 7.36409 1072.62C10.7661 1075.45 15.3021 1079.99 17.5701 1083.2C63.1191 1061.84 70.6791 1021.02 70.6791 996.637V908.374H56.6931Z" fill="white"></path> <path d="M77.4831 1147.07V1160.3H160.454V1147.07H77.4831ZM71.0571 1213.41V1227.02H175.007V1213.41H71.0571ZM115.661 1188.27V1293.17C115.661 1296 114.716 1296.95 111.503 1297.13C108.101 1297.32 97.5171 1297.32 85.6101 1296.95C87.5001 1300.73 89.9571 1306.96 90.7131 1310.74C105.833 1310.93 115.661 1310.55 121.898 1308.29C127.757 1306.02 129.836 1301.86 129.836 1293.35V1188.27H115.661ZM155.351 1147.07V1150.28C147.791 1162.57 132.104 1180.33 118.496 1190.54C120.953 1192.43 124.922 1196.21 127.001 1198.85C142.121 1187.51 159.698 1169.18 171.038 1153.12L161.777 1146.31L158.753 1147.07H155.351ZM1.12709 1176.36V1189.59H63.3081V1176.36H1.12709ZM29.6661 1137.43C23.2401 1173.34 11.9001 1223.99 3.58409 1252.91L15.4911 1259.15C23.9961 1227.77 35.9031 1176.74 43.0851 1138.94L29.6661 1137.43ZM10.5771 1246.86C31.7451 1259.15 56.1261 1278.42 67.4661 1292.6L75.9711 1281.07C64.6311 1267.08 39.6831 1248.94 18.5151 1237.03L10.5771 1246.86ZM58.5831 1176.36V1179.2C53.8581 1243.46 34.2021 1283.53 2.63909 1300.16C5.66309 1302.99 9.6321 1308.1 11.5221 1311.5C46.2981 1290.71 66.8991 1250.64 72.0021 1177.5L63.4971 1175.8L60.8511 1176.36H58.5831Z" fill="white"></path> <path d="M61.0401 1381.79V1395.21H154.406V1381.79H61.0401ZM81.8301 1392.76L68.9781 1395.4C84.4761 1464.01 113.204 1516.36 166.88 1540.36C168.959 1537.15 173.117 1531.67 176.33 1529.02C124.544 1507.67 95.6271 1456.45 81.8301 1392.76ZM151.193 1381.79V1384.82C138.908 1464.58 97.8951 1510.69 46.2981 1529.21C49.3221 1532.05 52.7241 1537.53 54.4251 1541.12C109.235 1519.2 151.382 1472.51 164.612 1384.06L155.729 1381.04L153.461 1381.79H151.193ZM10.1991 1380.28C22.8621 1385.95 38.1711 1395.21 45.7311 1402.02L53.2911 1390.87C45.3531 1384.06 29.8551 1375.75 17.3811 1370.45L10.1991 1380.28ZM0.749094 1431.88C13.0341 1437.36 28.5321 1446.24 36.0921 1452.67L43.2741 1441.33C35.3361 1435.09 19.8381 1426.78 7.74209 1421.67L0.749094 1431.88ZM6.23009 1529.02L17.3811 1538.47C28.5321 1520.9 41.5731 1497.27 51.5901 1477.24L41.9511 1468.17C31.1781 1489.71 16.4361 1514.66 6.23009 1529.02Z" fill="white"></path> </svg> 