<?xml version="1.0" encoding="UTF-8"?> <svg xmlns="http://www.w3.org/2000/svg" width="911" height="214" viewBox="0 0 911 214" fill="none"> <path d="M4.81067 79.9046V96.1152H212.77V79.9046H4.81067ZM25.1897 32.1991V48.1782H159.275V32.1991H25.1897ZM84.0111 0.472656V88.4731H101.843V0.472656H84.0111ZM168.769 118.81C146.769 130.389 107.632 142.894 72.8952 151.463C74.9794 154.937 77.5268 160.958 78.4531 164.663C114.58 156.326 155.569 144.284 183.822 131.547L168.769 118.81ZM186.601 9.50427C143.99 70.1783 75.6742 118.347 0.410645 146.368C4.11593 150.073 10.137 157.252 12.916 161.189C87.0216 130.621 156.032 81.7573 202.349 17.6096L186.601 9.50427ZM67.1057 116.031V183.884C67.1057 204.958 75.6742 210.284 105.78 210.284C112.264 210.284 162.517 210.284 169.233 210.284C195.633 210.284 201.885 201.947 204.664 168.831C199.801 167.905 192.391 165.358 187.991 162.347C186.369 189.674 184.054 194.305 168.306 194.305C157.19 194.305 114.58 194.305 106.243 194.305C88.1795 194.305 84.9374 192.453 84.9374 183.884V116.031H67.1057Z" fill="white"></path> <path d="M419.339 103.757V106.768C414.707 164.663 409.381 188.516 402.202 195C399.655 197.084 396.644 197.547 391.549 197.547C385.76 197.547 371.17 197.316 355.886 195.926C359.128 200.558 361.212 207.737 361.444 212.832C376.497 213.526 390.392 213.758 398.034 213.295C406.602 212.6 411.697 211.211 417.023 205.884C426.055 196.853 431.15 173 436.708 112.094C437.171 109.547 437.171 103.757 437.171 103.757H419.339ZM255.38 14.599V31.5044H392.939V14.599H255.38ZM276.917 48.4097C275.296 71.1046 272.286 101.673 269.275 120.2H286.412C289.191 102.368 292.433 72.7257 294.054 49.5676L276.917 48.4097ZM275.065 103.757V120.2H425.129V103.757H275.065ZM237.78 148.684V165.126H389.002V148.684H237.78ZM388.539 14.599V16.6833C386.686 38.2202 382.286 82.452 377.886 113.021L395.255 114.41C399.423 83.6099 404.055 42.6202 406.139 15.0622L393.171 13.6727L390.16 14.599H388.539Z" fill="white"></path> <path d="M574.961 33.5886H645.13V103.063H574.961V33.5886ZM557.824 16.9148V119.736H662.961V16.9148H557.824ZM626.835 147.526C639.34 167.905 652.309 195 657.403 211.442L674.54 204.495C669.446 188.053 655.551 161.884 642.814 141.737L626.835 147.526ZM574.266 142.2C567.319 166.052 555.277 188.747 539.529 203.337C543.929 205.884 551.571 210.747 554.813 213.295C570.329 197.316 583.993 172.537 592.098 146.137L574.266 142.2ZM479.55 17.1464C492.287 27.7991 508.034 42.8518 515.445 52.8098L527.487 40.536C519.845 31.0412 503.866 16.6833 491.129 6.72532L479.55 17.1464ZM498.076 207.042C501.55 202.411 507.803 197.547 548.098 166.052C546.013 162.579 543.003 155.863 541.382 151.231L499.003 183.189L494.603 190.6L498.076 207.042ZM467.508 73.1888V90.0942H510.35V73.1888H467.508ZM498.076 207.042C498.076 200.095 517.066 182.263 517.066 182.263V73.1888H500.161V170.221C500.161 182.495 491.824 191.526 487.192 195.232C490.434 198.01 495.992 203.8 498.076 207.042Z" fill="white"></path> <path d="M745.404 91.9468H698.856V108.157H728.267V173.926H745.404V91.9468ZM745.404 166.284H729.656C718.541 176.242 705.804 186.431 695.383 194.074L704.646 211.674C716.456 201.484 727.341 191.526 737.762 181.568C752.814 199.863 774.351 207.968 805.383 209.126C831.089 210.053 879.489 209.589 904.963 208.663C905.889 203.337 908.668 195 910.752 190.832C883.194 192.684 830.857 193.379 805.383 192.453C777.594 191.295 756.52 183.653 745.404 166.284ZM700.94 16.2201C715.298 27.1044 731.509 43.315 738.225 54.6624L752.12 43.5466C744.709 32.1991 728.267 16.4517 713.677 6.03058L700.94 16.2201ZM822.752 68.5572V163.273C822.752 165.821 821.825 166.747 818.815 166.747C816.267 166.747 806.773 166.747 797.046 166.516C798.899 170.916 801.215 176.937 801.909 181.337C816.499 181.337 825.531 181.337 831.783 178.789C838.036 176.242 839.425 172.074 839.425 163.505V68.5572H822.752ZM786.162 120.431C779.215 135.947 767.404 151.231 754.435 161.884C758.372 164.2 764.857 168.368 767.867 171.147C780.604 159.568 793.341 141.737 801.678 124.368L786.162 120.431ZM857.257 126.221C869.762 139.652 883.194 158.179 889.215 170.452L903.573 162.81C897.552 150.537 883.426 132.705 871.152 119.736L857.257 126.221ZM788.709 59.9888V74.8099H874.394V59.9888H788.709ZM762.078 95.6521V110.473H904.036V95.6521H762.078ZM830.162 16.6833C846.373 37.7571 875.552 60.4519 900.331 73.652C902.878 69.0204 907.047 62.3045 910.752 58.1361C884.352 46.5571 856.099 24.557 838.036 1.1674H820.899C807.236 22.7044 779.678 46.5571 751.888 60.2203C754.899 64.1572 759.067 70.4098 760.92 74.8099C788.709 60.4519 815.804 36.8307 830.162 16.6833Z" fill="white"></path> </svg> 