<?xml version="1.0" encoding="UTF-8"?> <svg xmlns="http://www.w3.org/2000/svg" width="538" height="130" viewBox="0 0 538 130" fill="none"> <path d="M83.906 54.6244V109.686C83.906 121.002 86.804 124.314 97.568 124.314C99.914 124.314 111.506 124.314 113.852 124.314C123.788 124.314 126.41 118.656 127.376 97.6804C124.616 96.9904 120.338 95.3344 118.268 93.5404C117.716 111.756 117.026 114.792 112.886 114.792C110.264 114.792 100.88 114.792 98.948 114.792C94.808 114.792 93.98 113.964 93.98 109.686V54.6244H83.906ZM36.02 33.9244V43.7224H127.1V33.9244H36.02ZM67.898 2.87438C67.622 48.2764 67.76 96.3004 33.812 120.036C36.434 121.83 39.884 125.004 41.54 127.488C76.868 101.958 77.972 51.0364 78.248 2.87438H67.898ZM92.324 9.77438C99.086 16.1224 107.228 25.2304 110.954 31.0264L118.682 25.0924C114.542 19.5724 106.262 10.8784 99.638 4.66838L92.324 9.77438ZM33.398 1.49438C26.084 22.3324 13.94 43.0324 0.968018 56.5564C2.90002 59.0404 5.93602 64.4224 7.04002 66.7684C21.254 51.1744 34.64 27.7144 43.196 4.53038L33.398 1.49438ZM18.632 37.5124V128.04H28.568V27.8524L28.43 27.7144L18.632 37.5124Z" fill="white"></path> <path d="M161.186 30.7504V40.1344H265.1V30.7504H161.186ZM208.658 13.6384C207.692 27.1624 206.036 45.3784 204.38 56.4184H214.454C216.248 45.6544 218.318 27.9904 219.56 14.1904L208.658 13.6384ZM215.834 107.478C229.91 112.722 247.16 121.416 256.682 127.212L263.996 120.174C254.336 114.654 236.948 106.374 223.286 101.268L215.834 107.478ZM248.678 1.77038C226.874 6.73838 186.578 10.0504 153.32 11.2924C154.286 13.6384 155.528 17.6404 155.804 20.2624C189.752 19.0204 230.738 15.8464 256.82 10.0504L248.678 1.77038ZM153.32 11.2924V49.9324C153.32 71.0464 152.078 100.44 138.968 121.14C141.452 122.106 146.006 124.866 147.938 126.522C161.6 104.718 163.394 72.2884 163.394 49.9324V11.2924H153.32ZM208.658 68.9764V81.3964C208.658 92.4364 205.898 108.858 163.118 120.036C165.602 121.968 168.776 125.694 170.018 128.04C214.592 114.93 219.422 95.7484 219.422 81.6724V68.9764H208.658ZM174.02 53.6584V101.268H184.37V63.3184H243.71V101.82H254.474V53.6584H174.02Z" fill="white"></path> <path d="M295.046 53.1064V63.3184H400.064V53.1064H295.046ZM287.18 17.7784V27.5764H396.476V17.7784H287.18ZM289.112 53.1064V71.8744C289.112 86.5024 287.732 106.926 276.83 121.968C279.038 123.21 283.592 127.074 285.386 129.144C297.392 112.86 299.876 88.7104 299.876 72.1504V53.1064H289.112ZM308.156 32.6824C312.848 38.7544 317.816 47.3104 320.024 52.6924L329.408 48.4144C327.062 43.0324 321.818 34.7524 317.264 28.9564L308.156 32.6824ZM366.944 29.6464C364.322 36.8224 359.354 47.1724 355.352 53.6584L363.356 57.1084C367.91 51.0364 373.43 41.5144 378.26 33.3724L366.944 29.6464ZM330.65 3.84038C334.652 9.08438 338.792 16.2604 340.448 21.0904L351.35 17.6404C349.418 12.9484 345.14 5.91038 340.862 0.942383L330.65 3.84038Z" fill="white"></path> <path d="M451.538 16.9504H506.738V43.1704H451.538V16.9504ZM441.464 7.01438V53.1064H517.226V7.01438H441.464ZM421.454 67.7344V128.04H431.252V77.6704H460.232V126.936H470.582V67.7344H421.454ZM485.624 67.7344V128.04H495.56V77.6704H527.162V127.212H537.512V67.7344H485.624ZM425.87 110.652V120.588H464.372V110.652H425.87ZM490.73 110.652V120.588H531.716V110.652H490.73Z" fill="white"></path> </svg> 