<?xml version="1.0" encoding="UTF-8"?> <svg xmlns="http://www.w3.org/2000/svg" width="1122" height="217" viewBox="0 0 1122 217" fill="none"> <path d="M161.072 22.9279V189.272C161.072 194.144 159.448 195.768 154.344 196C148.776 196.232 129.984 196.464 111.192 195.536C113.976 200.64 117.456 209.224 118.616 214.328C141.584 214.328 157.824 214.096 167.104 211.08C176.152 208.296 179.168 202.264 179.168 189.736V22.9279H161.072ZM24.656 69.3279V174.424H41.592V69.3279H24.656ZM31.848 69.3279V85.7999H102.376V139.16H31.848V155.864H119.776V69.3279H31.848ZM0.76001 17.5919V35.2239H207.704V17.5919H0.76001Z" fill="white"></path> <path d="M235.312 43.1119V55.6399H436.456V43.1119H235.312ZM275.68 16.1999L265.936 28.4959H419.52V16.1999H275.68ZM273.36 2.51189C268.488 14.1119 259.904 27.3359 247.144 37.5439C251.552 39.3999 257.584 43.1119 261.064 46.3599C274.52 34.0639 283.104 19.6799 289.368 5.0639L273.36 2.51189ZM326.72 1.1199V62.8319H343.888V1.1199H326.72ZM276.608 79.5359H398.408V97.1679H276.608V79.5359ZM259.672 67.7039V109.232H416.04V67.7039H259.672ZM354.096 107.608V214.328H371.264V107.608H354.096ZM236.936 120.6V132.664H309.088V120.6H236.936ZM242.272 146.352V157.952H308.16V146.352H242.272ZM363.376 146.12V157.72H430.656V146.12H363.376ZM361.288 171.872V184.4H442.024V171.872H361.288ZM363.144 120.368V132.432H435.528V120.368H363.144ZM230.672 174.424L231.6 186.952C252.48 185.328 279.624 183.472 306.768 181.384L307 170.48C278.232 172.104 250.392 173.496 230.672 174.424ZM300.736 107.608V155.632C300.736 174.424 295.4 194.144 245.52 203.424C248.536 206.44 253.408 212.704 255.264 216.416C307.232 203.656 317.44 179.992 317.44 155.632V107.608H300.736Z" fill="white"></path> <path d="M482.392 38.4719V54.0159H536.68V174.424H482.392V190.2H552.92V38.4719H482.392ZM471.952 38.4719V208.76H488.192V38.4719H471.952ZM481.232 102.968V118.512H545.264V102.968H481.232ZM507.448 0.655889C505.592 12.7199 501.184 30.3519 497.24 41.4879L511.16 44.9679C515.8 34.5279 521.6 18.5199 526.24 4.1359L507.448 0.655889ZM585.864 37.7759V54.0159H657.088V37.7759H585.864ZM651.056 37.7759V41.4879C647.808 143.8 644.096 182.312 636.44 190.664C633.888 193.68 631.104 194.376 626.464 194.376C621.128 194.376 607.208 194.144 592.128 192.984C595.376 197.624 597.464 204.816 597.928 209.92C610.92 210.616 624.608 211.08 632.496 210.152C640.616 209.456 645.952 207.368 651.056 200.64C660.336 189.272 663.584 153.312 667.296 46.8239C667.296 44.2719 667.296 37.7759 667.296 37.7759H651.056ZM590.736 0.191895C583.312 32.4399 570.552 64.4559 554.776 84.8719C558.952 87.1919 566.144 92.0639 569.16 94.8479C585.168 72.8079 598.856 38.7039 607.44 4.1359L590.736 0.191895ZM580.064 98.0959C592.824 115.032 608.368 138 615.328 152.152L630.176 142.872C622.752 129.184 606.744 106.68 593.52 90.2079L580.064 98.0959Z" fill="white"></path> <path d="M780.744 85.3359C769.84 118.048 749.656 163.288 733.184 191.824L749.192 196.928C766.36 168.856 786.544 125.472 801.16 90.4399L780.744 85.3359ZM704.648 186.488L706.968 204.816C750.584 202.96 815.544 199.48 876.328 196L876.792 179.296C814.616 182.312 747.104 185.096 704.648 186.488ZM825.288 136.144C845.936 160.736 870.064 194.608 880.968 215.72L898.6 206.208C887 185.096 863.104 152.848 841.992 128.488L825.288 136.144ZM757.312 8.07989C743.856 42.4159 720.888 75.8239 695.368 96.7039C700.24 99.4879 708.36 105.752 712.072 109.232C736.664 86.2639 761.024 50.7679 776.568 13.4159L757.312 8.07989ZM840.368 7.84789L823.2 15.0399C841.064 47.5199 870.064 86.9599 891.64 109C895.12 104.592 901.616 97.8639 906.256 94.1519C884.912 74.8959 855.68 38.2399 840.368 7.84789Z" fill="white"></path> <path d="M936.416 16.1999V32.9039H1111.34V16.1999H936.416ZM937.808 57.2639V72.8079H1077.7V57.2639H937.808ZM1104.38 16.1999V188.576C1104.38 192.984 1102.99 194.144 1098.58 194.376C1093.71 194.608 1077.94 194.608 1061.7 194.144C1064.48 199.248 1067.03 207.832 1067.96 213.168C1088.61 213.168 1103.22 212.936 1111.34 209.92C1119.46 206.672 1121.78 200.64 1121.78 188.576V16.1999H1104.38ZM952.656 97.8639V189.272H969.592V97.8639H952.656ZM966.576 97.8639V113.408H1044.53V156.792H966.576V172.104H1061.7V97.8639H966.576Z" fill="white"></path> </svg> 