<?xml version="1.0" encoding="UTF-8"?> <svg xmlns="http://www.w3.org/2000/svg" width="429" height="866" viewBox="0 0 429 866" fill="none"> <path d="M191.511 89.9152V121.745H406.48V89.9152H191.511ZM180.44 205.703V237.534H423.549V205.703H180.44ZM275.93 113.903V177.564C275.93 237.072 270.395 329.334 163.371 397.607C172.597 403.604 184.13 414.676 189.666 422.057C300.841 346.402 310.99 246.298 310.99 178.025V113.903H275.93ZM307.299 232.921L278.237 239.84C300.38 320.569 342.359 385.613 405.558 417.444C410.632 408.679 420.781 395.762 428.623 388.842C368.653 362.548 327.597 303.962 307.299 232.921ZM356.659 1.34414C344.665 29.0226 322.522 67.7724 304.993 92.2217L333.594 102.37C352.046 78.8438 374.189 43.3231 392.18 11.4929L356.659 1.34414ZM206.273 14.7221C224.725 36.4035 243.639 66.8498 251.942 87.1473L281.466 71.0016C273.162 51.1653 253.326 22.103 234.413 0.882812L206.273 14.7221ZM4.22013 13.7994V45.1683H177.672V13.7994H4.22013ZM48.5057 110.213V139.736H137.999V110.213H48.5057ZM48.5057 205.242V234.766H137.999V205.242H48.5057ZM29.592 29.4839V324.721H60.4996V29.4839H29.592ZM127.389 29.0226V418.366H157.836V29.0226H127.389ZM0.0683594 319.185L7.44928 351.938C58.1931 343.173 128.773 330.718 196.124 319.185L193.818 289.2C122.776 300.733 48.5057 312.727 0.0683594 319.185Z" fill="white"></path> <path d="M106.63 739.891C80.7972 774.027 39.2795 809.548 0.529668 831.691C9.75582 837.226 24.5177 848.759 31.4373 855.679C68.8032 830.307 112.627 791.096 142.151 753.268L106.63 739.891ZM278.698 757.42C318.832 786.483 368.192 828.462 391.718 854.756L422.165 833.075C396.793 806.78 346.049 766.185 306.838 738.045L278.698 757.42ZM42.5087 573.82C84.949 598.73 136.154 636.558 160.142 662.852L185.514 637.942C160.142 611.647 108.014 575.665 66.4967 552.6L42.5087 573.82ZM283.772 632.867C324.368 666.543 372.805 714.519 394.486 745.888L425.394 725.59C401.406 693.76 352.046 647.168 311.451 614.876L283.772 632.867ZM194.279 697.45V865.366H230.722V697.45H194.279ZM8.3719 684.072L12.0624 718.67C103.401 716.825 243.177 713.596 374.65 708.983L376.495 678.075C242.716 680.843 97.8656 683.611 8.3719 684.072ZM290.692 516.618C242.255 572.897 161.987 646.245 100.172 689.608L126.928 707.138C187.821 663.775 267.627 594.117 323.906 534.147L290.692 516.618ZM171.213 485.249C149.993 516.156 113.089 558.135 85.4103 583.046L112.627 598.269C140.767 573.82 177.21 535.531 204.428 502.317L171.213 485.249ZM363.579 447.422C284.234 463.106 142.151 472.793 23.1337 476.484C26.3629 484.787 30.5147 498.627 31.4373 507.391C151.377 504.624 295.305 494.936 388.951 476.945L363.579 447.422Z" fill="white"></path> </svg> 