<?xml version="1.0" encoding="UTF-8"?> <svg xmlns="http://www.w3.org/2000/svg" width="90" height="317" viewBox="0 0 90 317" fill="none"> <path d="M20.8079 0.603516C16.2959 15.0795 8.8699 29.5555 0.5979 38.9555C1.8199 40.7415 3.6999 44.5015 4.3579 46.1935C13.6639 35.1955 22.0299 18.6515 27.3879 2.38952L20.8079 0.603516ZM13.2879 23.6335V86.5195H19.9619V17.3355L19.7739 17.1475L13.2879 23.6335ZM53.9899 2.48352C46.9399 5.96152 34.6259 9.53352 23.9099 11.8835C24.7559 13.4815 25.7899 15.8315 26.1659 17.4295C37.2579 15.1735 50.3239 11.8835 59.2539 7.93552L53.9899 2.48352ZM24.0039 29.2735V35.5715H87.6419V29.2735H24.0039ZM39.7019 9.90952V77.9655C39.7019 79.3755 39.2319 79.7515 37.8219 79.7515C36.5059 79.8455 31.9939 79.8455 27.1999 79.7515C28.1399 81.6315 29.0799 84.5455 29.3619 86.3315C35.8479 86.3315 40.1719 86.2375 42.8039 85.1095C45.4359 83.9815 46.3759 82.1015 46.3759 77.9655V9.90952H39.7019ZM23.3459 55.6875L25.2259 62.5495C34.7199 59.9175 47.6919 56.3455 59.8179 52.9615L59.0659 46.6635C45.9059 50.0475 32.1819 53.6195 23.3459 55.6875ZM60.6639 1.07352C60.9459 47.2275 64.5179 86.6135 80.3099 86.7075C86.5139 86.7075 88.6759 82.2895 89.7099 68.0015C88.1119 67.3435 85.7619 65.8395 84.3519 64.3355C84.0699 75.3335 83.1299 79.9395 81.0619 79.9395C72.0379 79.9395 67.1499 45.6295 67.6199 1.07352H60.6639ZM79.5579 40.0835C73.3539 56.0635 62.2619 69.7875 48.9139 78.2475C50.3239 79.4695 52.6739 81.9135 53.7079 83.2295C67.0559 73.7355 78.8059 59.1655 85.8559 41.7755L79.5579 40.0835ZM72.4139 5.77352C76.1739 11.4135 80.3099 19.0275 82.0019 23.7275L87.5479 21.0015C85.7619 16.3015 81.5319 8.96951 77.6779 3.51752L72.4139 5.77352Z" fill="white"></path> <path d="M59.7239 125.192H75.6099V139.292H59.7239V125.192ZM37.5399 125.192H53.2379V139.292H37.5399V125.192ZM15.9199 125.192H31.0539V139.292H15.9199V125.192ZM9.1519 119.082V145.496H82.6599V119.082H9.1519ZM27.1059 170.03C33.8739 175.106 41.7699 182.72 45.4359 187.608L51.2639 183.66C47.3159 178.678 39.1379 171.44 32.5579 166.552L27.1059 170.03ZM27.8579 154.896V161.288H72.6019V154.896H27.8579ZM34.8139 144.65C29.8319 153.674 18.7399 162.886 7.1779 168.338C8.5879 169.56 10.6559 172.098 11.6899 173.696C23.8159 167.68 35.4719 157.528 41.8639 147L34.8139 144.65ZM70.9099 154.896V156.118C61.3219 179.994 35.4719 190.992 6.1439 195.41C7.5539 196.82 9.5279 199.922 10.1859 201.708C40.0779 196.538 66.9619 184.506 78.4299 157.622L73.7299 154.614L72.4139 154.896H70.9099Z" fill="white"></path> <path d="M54.7419 261.53V268.016H89.2399V261.53H54.7419ZM73.4479 264.35V316.52H80.1219V264.35H73.4479ZM52.5799 238.97V271.212C52.5799 283.902 51.6399 299.976 42.3339 311.726C43.9319 312.666 46.2819 314.922 47.2219 316.332C57.6559 303.266 59.0659 284.748 59.0659 271.4V242.73C60.3819 242.542 60.8519 242.166 60.9459 241.508L52.5799 238.97ZM82.0959 231.356C75.6099 235.116 64.0479 238.97 53.8959 241.508C54.7419 242.918 55.8699 245.362 56.3399 246.866C67.0559 244.328 79.4639 240.756 88.0179 236.526L82.0959 231.356ZM3.9819 242.636V248.84H48.6319V242.636H3.9819ZM14.7919 257.488V263.222H38.6679V257.488H14.7919ZM14.7919 271.964V277.698H38.9499V271.964H14.7919ZM2.5719 287.286V293.584H49.2899V287.286H2.5719ZM11.5959 231.074V290.012H18.0819V231.074H11.5959ZM35.9419 231.074V290.012H42.5219V231.074H35.9419ZM15.8259 295.558C13.0059 301.668 8.2119 307.59 3.0419 311.726C4.7339 312.666 7.5539 314.734 8.7759 315.956C13.8519 311.444 19.3039 304.394 22.5939 297.532L15.8259 295.558ZM30.5839 298.378C34.3439 302.608 38.6679 308.342 40.5479 312.008L46.1879 308.53C44.3079 304.958 39.7959 299.412 36.0359 295.464L30.5839 298.378Z" fill="white"></path> </svg> 