<?xml version="1.0" encoding="UTF-8"?> <svg xmlns="http://www.w3.org/2000/svg" width="30" height="30" viewBox="0 0 30 30" fill="none"> <path d="M15.0001 0C8.88928 0 3.91797 4.97132 3.91797 11.0821C3.91797 13.0939 4.82018 15.2575 4.85799 15.3488C5.14939 16.0404 5.72436 17.1147 6.13896 17.7445L13.7374 29.2575C14.0483 29.7295 14.5086 30 15.0001 30C15.4916 30 15.9519 29.7295 16.2628 29.2581L23.8619 17.7445C24.2771 17.1147 24.8515 16.0404 25.1428 15.3488C25.1807 15.2581 26.0822 13.0945 26.0822 11.0821C26.0822 4.97132 21.1109 0 15.0001 0ZM23.9408 14.8429C23.6807 15.4628 23.1455 16.4622 22.7732 17.0267L15.1742 28.5404C15.0242 28.7679 14.9766 28.7679 14.8267 28.5404L7.22761 17.0267C6.85538 16.4622 6.32018 15.4622 6.06008 14.8422C6.049 14.8155 5.22175 12.824 5.22175 11.0821C5.22175 5.69035 9.60831 1.30378 15.0001 1.30378C20.3919 1.30378 24.7784 5.69035 24.7784 11.0821C24.7784 12.8266 23.9492 14.8233 23.9408 14.8429Z" fill="#CEA058"></path> <path d="M14.9998 5.21582C11.7645 5.21582 9.13281 7.84815 9.13281 11.0828C9.13281 14.3175 11.7645 16.9498 14.9998 16.9498C18.2352 16.9498 20.8668 14.3175 20.8668 11.0828C20.8668 7.84815 18.2352 5.21582 14.9998 5.21582ZM14.9998 15.6461C12.4842 15.6461 10.4366 13.5991 10.4366 11.0828C10.4366 8.56653 12.4842 6.5196 14.9998 6.5196C17.5155 6.5196 19.5631 8.56653 19.5631 11.0828C19.5631 13.5991 17.5155 15.6461 14.9998 15.6461Z" fill="#CEA058"></path> </svg> 