<?xml version="1.0" encoding="UTF-8"?> <svg xmlns="http://www.w3.org/2000/svg" width="20" height="15" viewBox="0 0 20 15" fill="none"> <path d="M19.2182 0.624986C18.7709 0.206766 18.243 0.00215626 17.7273 0H2.27276C1.757 0.00215626 1.17401 0.289501 0.781833 0.630002C0.289219 1.10096 0.00443182 1.7821 0 2.49999V12.5C0 13.8807 1.01753 15 2.27271 15H17.7273C18.9825 15 20 13.8807 20 12.5V2.49999C19.9969 1.78036 19.712 1.09711 19.2182 0.624986ZM17.7273 0.999988C17.8409 1.00116 17.9539 1.01799 18.0636 1.05L10 7.38504L1.93637 1.05C2.04614 1.01799 2.15915 1.00121 2.27271 0.999988H17.7273ZM19.0909 12.5001C19.0909 13.3285 18.4804 14.0001 17.7273 14.0001H2.27276C1.51965 14.0001 0.90912 13.3285 0.90912 12.5001V2.49999C0.90895 2.19858 0.991322 1.90416 1.1455 1.65497L9.73641 8.405C9.89421 8.52861 10.1059 8.52861 10.2637 8.405L18.8546 1.65497C19.0088 1.90412 19.0911 2.19858 19.091 2.49999V12.5001H19.0909Z" fill="#BC9D6D"></path> </svg> 