<?xml version="1.0" encoding="UTF-8"?> <svg xmlns="http://www.w3.org/2000/svg" width="20" height="20" viewBox="0 0 20 20" fill="none"> <path d="M16.4051 20C18.31 20 19.595 18.6602 19.9733 16.318C20.0163 16.0157 19.9981 15.7078 19.9198 15.4127C19.8416 15.1176 19.7048 14.8412 19.5176 14.6L19.4446 14.5316L16.6786 12.3443C16.2606 12.0313 15.7478 11.8714 15.226 11.8913C14.7042 11.9112 14.2051 12.1097 13.8122 12.4536L12.6183 13.5838C10.1302 13.0187 6.5575 9.79236 6.37978 7.41362L7.56004 6.16956C7.89833 5.77467 8.09138 5.27595 8.10713 4.75621C8.12288 4.23647 7.96038 3.72698 7.64662 3.31233L5.46838 0.555359C5.44565 0.525054 5.41791 0.498854 5.38635 0.47789C5.1457 0.291285 4.87008 0.154815 4.57578 0.0765451C4.28149 -0.00172497 3.97449 -0.0202067 3.67293 0.022192C1.33975 0.404978 0 1.69005 0 3.59487C0 7.94578 1.72839 12.1185 4.80495 15.195C7.88152 18.2716 12.0542 20 16.4051 20ZM3.81875 0.929031C3.88399 0.924511 3.94946 0.924511 4.0147 0.929031C4.29551 0.930095 4.56918 1.0176 4.7985 1.17967L6.92662 3.86828C7.11157 4.11423 7.20813 4.41538 7.20069 4.72301C7.19325 5.03064 7.08223 5.32677 6.8856 5.56348L5.59142 6.93058C5.51274 7.01462 5.46878 7.12533 5.46838 7.24045C5.46838 10.1751 9.70182 14.0304 12.6866 14.5316C12.756 14.5431 12.827 14.5383 12.8942 14.5178C12.9614 14.4972 13.0229 14.4614 13.074 14.4131L14.4411 13.1326C14.6761 12.9322 14.972 12.8173 15.2806 12.8065C15.5893 12.7957 15.8925 12.8898 16.1408 13.0734L18.8522 15.2061C19.0567 15.4889 19.1418 15.8408 19.0892 16.1858C18.8659 17.5073 18.2279 19.0886 16.4051 19.0886C12.2959 19.0886 8.35505 17.4562 5.44941 14.5506C2.54377 11.645 0.911397 7.70406 0.911397 3.59487C0.911397 1.77207 2.49267 1.1341 3.81875 0.929031Z" fill="#BC9D6D"></path> </svg> 