 <svg xmlns="http://www.w3.org/2000/svg" width="24" height="25" viewBox="0 0 24 25" fill="none"> <g clip-path="url(#clip0_101_8)"> <path fill-rule="evenodd" clip-rule="evenodd" d="M19 24.1846H5C2.239 24.1846 0 21.9284 0 19.1462V5.03846C0 2.25622 2.239 0 5 0H19C21.762 0 24 2.25622 24 5.03846V19.1462C24 21.9284 21.762 24.1846 19 24.1846ZM16.256 18.997C16.471 19.1512 16.747 19.1895 16.994 19.0948C17.24 19.001 17.422 18.7884 17.477 18.5305C18.056 15.7875 19.462 8.8425 19.989 6.34745C20.028 6.15902 19.962 5.96352 19.816 5.83756C19.669 5.71261 19.465 5.67633 19.284 5.74385C16.489 6.7858 7.88 10.0406 4.361 11.3537C4.138 11.4363 3.993 11.653 4 11.8908C4.008 12.1276 4.167 12.3342 4.395 12.4037C5.973 12.8783 8.045 13.5404 8.045 13.5404C8.045 13.5404 9.012 16.4869 9.517 17.9843C9.58 18.1727 9.727 18.3209 9.919 18.3712C10.112 18.4216 10.316 18.3692 10.46 18.2322C11.271 17.4613 12.524 16.2692 12.524 16.2692C12.524 16.2692 14.905 18.0286 16.256 18.997V18.997ZM8.916 13.1685L10.035 16.8889L10.284 14.5329C10.284 14.5329 14.608 10.6029 17.074 8.36183C17.146 8.29633 17.156 8.18649 17.096 8.1089C17.036 8.03131 16.927 8.01317 16.845 8.06557C13.988 9.90461 8.916 13.1685 8.916 13.1685V13.1685Z" fill="#CEA058"></path> </g> <defs> <clipPath id="clip0_101_8"> <rect width="24" height="24.1846" fill="white"></rect> </clipPath> </defs> </svg> 