<?xml version="1.0" encoding="UTF-8"?> <svg xmlns="http://www.w3.org/2000/svg" width="24" height="25" viewBox="0 0 24 25" fill="none"> <g clip-path="url(#clip0_101_14)"> <path d="M12.036 5.38007C8.401 5.38007 5.445 8.35881 5.443 12.0198C5.442 13.5142 5.877 14.6337 6.607 15.8046L5.941 18.2554L8.435 17.5963C9.552 18.2644 10.619 18.6655 12.03 18.6655C15.662 18.6655 18.621 15.6867 18.622 12.0248C18.625 8.35578 15.68 5.38108 12.036 5.38007V5.38007ZM15.912 14.8756C15.747 15.3421 14.955 15.7674 14.575 15.8248C14.234 15.8762 13.802 15.8974 13.327 15.7462C13.039 15.6545 12.67 15.5316 12.198 15.326C10.211 14.4614 8.913 12.445 8.814 12.312C8.715 12.179 8.005 11.2297 8.005 10.2472C8.005 9.26472 8.517 8.78204 8.698 8.58151C8.88 8.37997 9.094 8.32958 9.226 8.32958L9.606 8.33664C9.728 8.34268 9.891 8.29028 10.052 8.67925C10.217 9.07931 10.613 10.0618 10.663 10.1616C10.712 10.2613 10.746 10.3782 10.679 10.5112C10.613 10.6443 10.58 10.7279 10.481 10.8438L10.184 11.1934C10.085 11.2932 9.982 11.401 10.097 11.6006C10.213 11.8001 10.61 12.4541 11.199 12.9831C11.956 13.6633 12.594 13.8739 12.792 13.9737C12.99 14.0734 13.106 14.0573 13.221 13.9233C13.337 13.7903 13.716 13.3408 13.848 13.1403C13.98 12.9398 14.112 12.974 14.294 13.0405C14.476 13.1071 15.45 13.5897 15.648 13.6905C15.846 13.7903 15.978 13.8407 16.028 13.9233C16.077 14.0089 16.077 14.409 15.912 14.8756V14.8756ZM19 0H5C2.239 0 0 2.25622 0 5.03846V19.1462C0 21.9284 2.239 24.1846 5 24.1846H19C21.762 24.1846 24 21.9284 24 19.1462V5.03846C24 2.25622 21.762 0 19 0ZM12.033 20.0148C10.706 20.0148 9.399 19.6792 8.241 19.0424L4.038 20.1538L5.163 16.0142C4.469 14.803 4.104 13.4285 4.105 12.0198C4.107 7.61412 7.663 4.03077 12.033 4.03077C14.154 4.03178 16.145 4.86413 17.642 6.37365C19.139 7.88318 19.963 9.89151 19.962 12.0258C19.96 16.4314 16.403 20.0148 12.033 20.0148V20.0148Z" fill="#DC9629"></path> </g> <defs> <clipPath id="clip0_101_14"> <rect width="24" height="24.1846" fill="white"></rect> </clipPath> </defs> </svg> 