<svg width="184" height="131" viewBox="0 0 184 131" fill="none" xmlns="http://www.w3.org/2000/svg">
<path d="M45.9062 8.29924C45.9062 8.07341 49.1919 7.11364 60.645 4.00849C68.756 1.80666 75.4025 2.89899e-05 75.44 2.89899e-05C75.4588 -0.0187901 86.0107 9.12728 98.9094 20.3246C111.789 31.5032 122.341 40.781 122.379 40.9315C122.398 41.1009 122.097 41.2891 121.534 41.4585C121.027 41.609 115.432 43.2275 109.086 45.0529C102.74 46.8784 97.4074 48.3839 97.2572 48.4027C97.107 48.4027 85.4849 39.4636 71.4409 28.5109C57.1152 17.3324 45.9062 8.46862 45.9062 8.29924Z" fill="#262626"/>
<path d="M8.33861e-05 77.7605C-0.0186921 77.6476 3.13559 72.2465 7.0409 65.7539C10.9838 59.2049 14.2319 53.992 14.3446 54.0296C14.476 54.0672 27.0931 63.6085 70.2392 96.429L70.2205 99.2519C70.2205 100.795 70.0515 108.548 69.845 116.471C69.6572 124.394 69.4131 130.924 69.338 131C69.2629 131.075 53.6229 119.181 34.6033 104.559C15.5837 89.9552 0.0188589 77.8922 8.33861e-05 77.7605Z" fill="#262626"/>
<path d="M134.902 77.8357L152.082 71.8513C161.526 68.5579 169.393 65.8668 169.543 65.848C169.731 65.848 172.153 70.2893 176.903 79.3413C180.808 86.7748 184 92.9475 184 93.0416C184 93.1545 183.737 93.3238 183.399 93.4368C183.061 93.5497 171.664 97.1253 158.09 101.397C144.515 105.65 133.25 109.132 133.062 109.132C132.893 109.132 132.743 109.038 132.743 108.944C132.743 108.858 133.135 103.154 133.633 95.9189L133.776 93.8508C134.339 85.6457 134.827 78.6826 134.902 77.8357Z" fill="#262626"/>
<path d="M29.1209 32.6323L35.4295 22.2254C39.7103 15.1682 41.8319 11.856 42.0009 11.9313C42.1323 11.9878 53.8107 21.0398 93.6898 52.1101L93.596 52.8252C93.5396 53.2016 93.0702 59.9576 92.5445 67.824C92.0188 75.6904 91.5119 82.2206 91.418 82.3147C91.3241 82.4276 90.4229 81.8254 89.0523 80.6962C87.8319 79.7177 74.0319 68.6709 58.3919 56.175C42.7519 43.6603 29.7593 33.2533 29.1209 32.6323Z" fill="#262626"/>
<path d="M109.367 18.8945L109.367 18.8944C110.194 18.6686 110.926 18.4804 111.02 18.4992C111.095 18.4992 123.487 28.1346 138.563 39.8777C155.818 53.3145 165.957 61.3502 165.919 61.5196C165.9 61.7078 162.84 62.8558 156.306 65.114C151.03 66.9395 146.693 68.4262 146.637 68.3886C146.58 68.3697 143.013 62.3476 130.865 41.6655L118.567 30.9386C111.789 25.0482 106.269 20.0988 106.269 19.9859C106.269 19.8542 106.626 19.6472 107.058 19.5342C107.509 19.4025 108.541 19.1203 109.367 18.8945Z" fill="#262626"/>
<path d="M17.1797 49.4378C17.1797 49.306 20.9535 48.1957 26.2858 46.7466C34.9413 44.3942 35.4107 44.3001 35.8801 44.5636C36.1429 44.733 48.4221 54.5189 63.1609 66.3185C77.8996 78.118 89.9535 87.8663 89.9347 87.9604C89.9347 88.0733 86.4988 89.353 74.6327 93.4932L72.9429 92.2135C72.0041 91.5172 59.0866 81.6372 44.2164 70.2893C29.3462 58.9414 17.1797 49.5507 17.1797 49.4378Z" fill="#262626"/>
<path d="M98.8155 53.2392C98.9282 53.2016 105.199 51.3573 112.747 49.1743C120.276 46.9725 126.622 45.1846 126.829 45.1658C127.129 45.1658 128.594 47.537 134.451 57.53C139.953 66.883 141.661 69.9506 141.492 70.1199C141.38 70.2328 131.278 73.8273 119.037 78.0616C106.795 82.3147 96.6751 85.7962 96.5437 85.7962C96.3747 85.7962 96.3372 85.4763 96.4123 84.5353C96.4686 83.8202 96.9943 76.5184 97.5576 68.2945C98.2898 57.3982 98.6466 53.3145 98.8155 53.2392Z" fill="#262626"/>
<path d="M109.461 86.8313C109.461 86.7372 113.873 85.0999 119.281 83.218C124.669 81.3549 129.232 79.7929 129.401 79.7929C129.682 79.7741 129.739 79.9247 129.739 80.5833C129.739 81.0162 129.307 87.0947 128.8 94.0766C128.256 101.68 127.805 106.855 127.692 106.968C127.542 107.099 127.373 107.043 127.129 106.779C126.922 106.572 122.867 102.037 118.117 96.7113C113.348 91.3855 109.461 86.9442 109.461 86.8313Z" fill="#262626"/>
<path d="M85.147 95.1117C90.4041 93.2862 96.7502 91.0844 99.2286 90.2187C101.707 89.353 103.866 88.6567 104.016 88.6755C104.167 88.6944 109.236 94.2272 115.282 100.964C121.327 107.72 126.416 113.385 126.603 113.573C126.791 113.78 126.885 113.987 126.791 114.044C126.716 114.119 114.944 117.826 100.637 122.305C86.3298 126.765 74.6139 130.397 74.5764 130.36C74.5576 130.322 74.7078 123.19 74.9143 114.495C75.1209 105.801 75.3462 98.6308 75.4213 98.5555C75.5152 98.4991 79.8711 96.9371 85.147 95.1117Z" fill="#262626"/>
</svg>
