<svg width="118" height="89" viewBox="0 0 118 89" fill="none" xmlns="http://www.w3.org/2000/svg">
<path d="M36 48.5798C59.2 33.3798 47.6667 13.0798 39.5 4.57981C45.9 5.37969 59.8334 8.57994 66 10.0801V1.07996C69.0487 -1.58756 81.1129 1.28136 87.5798 3.28815C88.1962 3.47944 88.8213 3.62585 89.4603 3.7171C91.0265 3.94078 92.5045 2.97671 94.0457 2.6192C96.0005 2.16573 98.0213 3.8563 99.0001 5.07981C98.6698 5.07981 98.345 5.00265 98.0212 4.93791C96.7991 4.69361 95.4569 5.26563 94.4086 5.95039C93.439 6.58376 92.3494 7.07982 91.1912 7.07982C90.7322 7.07982 90.2706 7.02164 89.8245 6.91341C77.4464 3.91054 70.4646 4.76126 68.5 5.57981V10.5798H69C71.8 10.9798 75.5001 12.0798 77.0001 12.5798C83.8001 16.5798 84.8334 24.9132 84.5001 28.5798C84.1001 38.5798 73.6667 42.7465 68.5 43.5798V53.5798C74.5001 53.9799 82.0001 50.4132 85.0001 48.5798C90.6001 45.7798 95.0001 37.4132 96.5001 33.5798C104.1 39.1798 100.667 52.2465 98.0001 58.0799C105.6 57.6799 114.5 63.5799 118 66.5799L107.565 63.2597C107.37 63.2 107.181 63.1401 107 63.0799C100 60.0799 80.3334 60.7465 71.0001 61.5799C67.4 61.9799 55.8334 63.7465 50.5 64.5798C43.3 66.9799 26.8334 67.2465 19.5 67.0799C7.90001 65.8799 1.66667 62.9132 0 61.5799C14.2764 65.5455 25.4731 65.2519 29.3997 64.5969C27.8973 64.7294 27.8369 59.0158 28 56.0799C27.6 50.0798 22.1667 47.2465 19.5 46.5798L20.5 44.0798L39 50.0798C56.2 54.0798 64.1667 54.0798 66 53.5798V44.0798C57.6 47.2798 42.8334 48.2465 36 48.5798Z" fill="url(#paint0_linear_128_489)"/>
<path d="M90.1536 88.9999L90.3851 86.7834C91.3334 86.629 91.9619 86.3533 92.2707 85.9563C92.6015 85.5593 92.7669 84.8756 92.7669 83.9052L92.8 71.3007C92.8 70.5729 92.7338 70.0987 92.6015 69.8782C92.4692 69.6356 92.1825 69.5143 91.7414 69.5143C91.6311 69.5143 91.4878 69.5253 91.3114 69.5474C91.1349 69.5474 90.9365 69.5584 90.7159 69.5804L90.5174 69.2827L90.7821 67.2977C91.2893 67.2977 91.8958 67.3088 92.6015 67.3308C93.3072 67.3529 94.0349 67.3749 94.7848 67.397C95.5346 67.397 96.2072 67.397 96.8026 67.397C98.2581 67.397 99.5703 67.386 100.739 67.3639C101.908 67.3419 102.922 67.2977 103.782 67.2316C104.665 67.1654 105.392 67.0882 105.966 67L106.23 67.3639C106.12 68.1579 106.01 69.007 105.9 69.9113C105.789 70.7935 105.701 71.6867 105.635 72.5909C105.569 73.4731 105.514 74.3223 105.47 75.1383L102.559 75.3368C102.581 74.9178 102.603 74.5428 102.625 74.212C102.647 73.8591 102.658 73.5393 102.658 73.2526C102.68 72.9659 102.691 72.6902 102.691 72.4255C102.691 71.7418 102.614 71.2456 102.459 70.9368C102.305 70.606 101.996 70.3854 101.533 70.2752C101.07 70.1649 100.364 70.1098 99.4159 70.1098C98.8205 70.1098 98.3794 70.1318 98.0927 70.1759C97.8281 70.22 97.6517 70.3193 97.5635 70.4737C97.4973 70.6281 97.4532 70.8817 97.4311 71.2346L97.0011 84.0706C97.0011 84.8646 97.1003 85.4049 97.2988 85.6916C97.4973 85.9783 97.8722 86.1217 98.4235 86.1217C98.6882 86.1217 99.03 86.1107 99.449 86.0886C99.868 86.0445 100.243 86.0004 100.574 85.9563L100.871 86.2871L100.508 88.7683C99.846 88.7463 99.1954 88.7242 98.5559 88.7021C97.9163 88.6801 97.3319 88.658 96.8026 88.636C96.2734 88.636 95.8433 88.636 95.5125 88.636C94.8068 88.636 93.9578 88.6691 92.9654 88.7352C91.995 88.8014 91.0577 88.8896 90.1536 88.9999Z" fill="url(#paint1_linear_128_489)"/>
<path d="M70.6919 88.9999L70.9201 86.8654C71.8331 86.738 72.4527 86.4831 72.7787 86.1008C73.1048 85.7185 73.2678 85.0601 73.2678 84.1256L73.3004 71.9877C73.3004 71.2869 73.2352 70.8302 73.1048 70.6178C72.9744 70.3842 72.6918 70.2674 72.257 70.2674C72.1266 70.2674 71.9636 70.278 71.7679 70.2993C71.5723 70.2993 71.3984 70.3099 71.2462 70.3311L71.0506 70.0444L71.3114 68.1329C71.8114 68.1329 72.4092 68.1435 73.1048 68.1648C73.8004 68.186 74.5069 68.2072 75.2243 68.2285C75.9633 68.2285 76.6264 68.2285 77.2133 68.2285C78.7784 68.2285 80.1805 68.2179 81.4196 68.1966C82.6586 68.1754 83.7455 68.1329 84.6803 68.0692C85.6367 68.0055 86.4519 67.9311 87.1258 67.8462L87.3866 68.1966C87.2779 68.7276 87.1693 69.3329 87.0606 70.0125C86.9519 70.6922 86.8649 71.3824 86.7997 72.0833C86.7345 72.7629 86.6802 73.3895 86.6367 73.9629L83.7347 74.1541C83.7564 73.9842 83.7673 73.7718 83.7673 73.5169C83.789 73.2408 83.7999 73.0284 83.7999 72.8798C83.7999 72.4337 83.7564 72.0833 83.6694 71.8284C83.5825 71.5523 83.3977 71.3506 83.1151 71.2231C82.8325 71.0745 82.4086 70.9789 81.8435 70.9364C81.3 70.8727 80.5609 70.8408 79.6262 70.8408C79.1045 70.8408 78.7132 70.8621 78.4523 70.9046C78.2132 70.947 78.0611 71.0426 77.9958 71.1913C77.9306 71.34 77.8872 71.5842 77.8654 71.924L77.5393 78.8372L77.4415 84.3168C77.4415 84.8902 77.485 85.315 77.572 85.5911C77.6806 85.846 77.8763 86.0159 78.1589 86.1008C78.4632 86.1858 78.9306 86.2283 79.561 86.2283C80.5827 86.2283 81.4087 86.1858 82.0391 86.1008C82.6695 86.0159 83.1586 85.8566 83.5064 85.623C83.8542 85.3681 84.1151 84.9964 84.289 84.5079C84.4629 84.0195 84.6042 83.3823 84.7129 82.5965L87.3866 82.3735L87.6149 82.6602C87.4627 83.446 87.2997 84.3911 87.1258 85.4955C86.9736 86.6 86.8432 87.6194 86.7345 88.5539L86.4084 88.9044C85.2346 88.8619 84.0064 88.8194 82.7238 88.7769C81.463 88.7557 80.2675 88.7344 79.1371 88.7132C78.0067 88.692 77.0502 88.6813 76.2677 88.6813C75.4851 88.6813 74.5721 88.7026 73.5287 88.7451C72.4853 88.8088 71.5397 88.8937 70.6919 88.9999ZM77.1155 79.8248L77.3763 76.9257C77.5285 76.9257 77.8002 76.9257 78.1915 76.9257C78.5828 76.9257 79.0067 76.9363 79.4632 76.9576C79.9197 76.9576 80.3327 76.9576 80.7022 76.9576C81.05 76.9576 81.6043 76.9257 82.3652 76.862C83.126 76.7983 83.8325 76.7346 84.4846 76.6709L84.7455 76.9576L84.289 79.6655C83.7238 79.6443 83.0173 79.623 82.1695 79.6018C81.3218 79.5806 80.6044 79.5699 80.0175 79.5699C79.5392 79.5699 79.0284 79.6018 78.4849 79.6655C77.9415 79.708 77.485 79.7611 77.1155 79.8248Z" fill="url(#paint2_linear_128_489)"/>
<path d="M68.2741 87.468C67.7607 87.4497 67.1099 87.4313 66.3216 87.413C65.5516 87.3947 64.8733 87.3855 64.2866 87.3855C64.0666 87.3855 63.7458 87.3855 63.3241 87.3855C62.9024 87.4038 62.4349 87.413 61.9216 87.413C61.4083 87.413 60.8858 87.4222 60.3541 87.4405L60.5741 85.6805C61.1424 85.6622 61.5733 85.5797 61.8666 85.433C62.1783 85.2863 62.3891 85.0297 62.4991 84.663C62.6274 84.2963 62.6916 83.783 62.6916 83.123L62.7191 72.9206C62.7191 72.3522 62.6549 71.9764 62.5266 71.7931C62.4166 71.5914 62.1691 71.4906 61.7841 71.4906C61.7108 71.4906 61.6008 71.4997 61.4541 71.5181C61.3074 71.5181 61.1424 71.5181 60.9591 71.5181L60.7941 71.2981L61.0141 69.7031C61.1974 69.7031 61.4999 69.7123 61.9216 69.7306C62.3433 69.7306 62.7833 69.7306 63.2416 69.7306C63.6999 69.7306 64.0941 69.7306 64.4241 69.7306C64.7174 69.7306 65.1941 69.7123 65.8541 69.6756C66.5141 69.6389 67.3666 69.5931 68.4116 69.5381L68.2741 71.3256C67.5957 71.4172 67.1466 71.5639 66.9266 71.7656C66.7066 71.9489 66.5783 72.3064 66.5416 72.8381C66.5049 73.6814 66.4591 74.5889 66.4041 75.5606C66.3674 76.5139 66.3308 77.4855 66.2941 78.4755C66.2758 79.4472 66.2574 80.3822 66.2391 81.2805C66.2208 82.1789 66.2116 82.9672 66.2116 83.6455C66.2116 84.4155 66.2941 84.938 66.4591 85.213C66.6241 85.488 66.9266 85.6255 67.3666 85.6255C67.5499 85.6255 67.7332 85.6163 67.9166 85.598C68.1182 85.5797 68.2741 85.5613 68.3841 85.543L68.5216 85.7355L68.2741 87.468ZM64.2591 79.9055C62.7191 80.4372 61.2983 80.7397 59.9966 80.813C58.7133 80.868 57.595 80.703 56.6416 80.318C55.7066 79.933 54.9733 79.3464 54.4416 78.558C53.9283 77.7697 53.6717 76.798 53.6717 75.6431V72.7556C53.6717 72.2606 53.6167 71.9306 53.5067 71.7656C53.3967 71.5822 53.195 71.4906 52.9017 71.4906C52.8283 71.4906 52.7183 71.4997 52.5717 71.5181C52.4433 71.5181 52.3242 71.5181 52.2142 71.5181L52.0767 71.2981L52.2417 69.7031L55.1841 69.7306C55.5141 69.7306 56.0366 69.7123 56.7516 69.6756C57.4666 69.6389 58.2641 69.5931 59.1441 69.5381L58.9791 71.3531C58.5575 71.4264 58.2366 71.5181 58.0166 71.6281C57.7966 71.7381 57.65 71.9306 57.5766 72.2056C57.5216 72.4622 57.485 72.8381 57.4666 73.3331L57.4116 75.0381C57.3933 76.1747 57.6408 77.0364 58.1541 77.623C58.6858 78.2097 59.4925 78.5397 60.5741 78.613L64.2591 77.843V79.9055Z" fill="url(#paint3_linear_128_489)"/>
<path d="M39.5379 86.2169C39.1939 86.2169 38.8172 86.2251 38.4077 86.2414C37.9982 86.274 37.605 86.3066 37.2283 86.3393C36.8679 86.3719 36.5731 86.3964 36.3437 86.4127C36.1144 86.4453 35.9998 86.4616 35.9998 86.4616L36.1718 84.8466C36.8761 84.7161 37.3511 84.5203 37.5968 84.2593C37.8425 83.982 37.9654 83.5252 37.9654 82.889L37.99 73.2967C37.99 72.8399 37.9326 72.5218 37.818 72.3424C37.7197 72.1629 37.5149 72.0732 37.2037 72.0732C37.0563 72.0732 36.8761 72.0814 36.6632 72.0977C36.4666 72.114 36.3683 72.1221 36.3683 72.1221L36.1963 71.9264L36.4175 70.4582C36.4175 70.4582 36.5485 70.4663 36.8106 70.4826C37.0727 70.4826 37.3921 70.4826 37.7688 70.4826C38.162 70.4826 38.5387 70.4908 38.8991 70.5071C39.2758 70.5071 39.5789 70.5071 39.8082 70.5071C39.972 70.5071 40.2013 70.5071 40.4962 70.5071C40.8074 70.4908 41.135 70.4826 41.479 70.4826C41.823 70.4663 42.1506 70.45 42.4618 70.4337C42.773 70.4174 43.0269 70.4092 43.2235 70.4092C43.4201 70.3929 43.5184 70.3848 43.5184 70.3848C45.2055 70.3848 46.4914 70.711 47.3759 71.3636C48.2605 71.9998 48.7027 72.9378 48.7027 74.1776C48.7027 75.0259 48.457 75.76 47.9656 76.3799C47.4742 76.9998 46.8354 77.5137 46.0491 77.9215C46.7207 78.0847 47.3104 78.3294 47.8182 78.6557C48.3424 78.9819 48.7601 79.3898 49.0713 79.8792C49.3825 80.3522 49.5381 80.9151 49.5381 81.5676C49.5381 82.5464 49.2679 83.4028 48.7273 84.1369C48.2031 84.8711 47.466 85.442 46.516 85.8499C45.5659 86.2577 44.452 86.4616 43.1744 86.4616C42.945 86.4616 42.6666 86.4453 42.339 86.4127C42.0277 86.3964 41.7001 86.3719 41.3561 86.3393C41.0285 86.3066 40.7009 86.274 40.3733 86.2414C40.0621 86.2251 39.7836 86.2169 39.5379 86.2169ZM41.1841 79.3408L41.0859 82.9624C41.0859 83.4844 41.2661 83.8596 41.6264 84.088C41.9868 84.3001 42.5847 84.4061 43.4201 84.4061C44.2391 84.4061 44.8697 84.194 45.312 83.7699C45.7707 83.3294 46 82.7177 46 81.9346C46 80.548 45.1564 79.6752 43.4692 79.3163L41.1841 79.3408ZM41.2333 77.2119C41.2333 77.2119 41.3316 77.2201 41.5281 77.2364C41.7247 77.2527 41.9622 77.2853 42.2407 77.3343C42.5192 77.3669 42.7812 77.3914 43.0269 77.4077C43.289 77.424 43.4774 77.4321 43.5921 77.4321C43.5921 77.4321 43.674 77.3914 43.8378 77.3098C44.018 77.2282 44.2227 77.0896 44.452 76.8938C44.6814 76.6817 44.8779 76.4126 45.0417 76.0863C45.2219 75.7437 45.312 75.3114 45.312 74.7894C45.312 73.9574 45.0335 73.3456 44.4766 72.9541C43.9197 72.5626 43.0515 72.3668 41.8721 72.3668C41.7083 72.3668 41.5937 72.3995 41.5281 72.4647C41.479 72.5137 41.4462 72.636 41.4299 72.8318C41.3971 73.2722 41.3643 73.7698 41.3316 74.3244C41.3152 74.8628 41.2988 75.3848 41.2824 75.8905C41.266 76.3962 41.2497 76.8367 41.2333 77.2119Z" fill="url(#paint4_linear_128_489)"/>
<path d="M25.279 87.3078C23.8331 87.3078 22.5762 87.002 21.5083 86.3905C20.4567 85.7629 19.6435 84.8778 19.0684 83.7352C18.5098 82.5926 18.2305 81.2408 18.2305 79.6797C18.2305 78.4245 18.4194 77.2819 18.7973 76.252C19.1752 75.2059 19.7174 74.3128 20.4239 73.5725C21.1468 72.8161 22.0012 72.2368 22.987 71.8344C23.9892 71.4321 25.0982 71.231 26.3141 71.231C27.8092 71.231 29.0825 71.5367 30.1341 72.1483C31.202 72.7598 32.0235 73.6288 32.5986 74.7553C33.1736 75.8818 33.4612 77.2256 33.4612 78.7866C33.4612 80.074 33.264 81.2408 32.8697 82.2868C32.4754 83.3168 31.9167 84.2099 31.1938 84.9663C30.4709 85.7066 29.6083 86.2859 28.6061 86.7043C27.6038 87.1066 26.4948 87.3078 25.279 87.3078ZM25.9197 85.256C26.7084 85.256 27.382 85.0548 27.9407 84.6525C28.4993 84.2501 28.9265 83.6627 29.2222 82.8903C29.5344 82.1017 29.6905 81.1523 29.6905 80.0418C29.6905 78.6257 29.5262 77.4348 29.1976 76.4692C28.8854 75.5036 28.4253 74.7714 27.8174 74.2725C27.2095 73.7736 26.4784 73.5242 25.624 73.5242C24.8518 73.5242 24.1864 73.7334 23.6278 74.1518C23.0856 74.5541 22.6666 75.1415 22.3709 75.914C22.0751 76.6865 21.9272 77.6279 21.9272 78.7383C21.9272 80.1384 22.0833 81.3293 22.3955 82.3109C22.7241 83.2765 23.1841 84.0087 23.7756 84.5076C24.3835 85.0065 25.0982 85.256 25.9197 85.256Z" fill="url(#paint5_linear_128_489)"/>
<path d="M13.1988 87.3074C12.7627 87.3074 12.3608 87.1516 11.9929 86.8399C11.625 86.5282 11.2707 86.0539 10.9301 85.4169L8.68187 81.2091H5.90225V79.3592L9.98993 79.5828L10.3374 78.912L13.2601 84.0956C13.5735 84.6513 13.9209 85.0849 14.3024 85.3966C14.6839 85.6948 15.0995 85.8438 15.5492 85.8438L15.6922 86.0268L15.5492 87.0635L13.1988 87.3074ZM3 87.0635L3.18395 85.7828C3.78347 85.7015 4.1718 85.5592 4.34893 85.356C4.53969 85.1527 4.63507 84.7597 4.63507 84.1769L4.65551 76.31C4.65551 75.8764 4.60101 75.5918 4.492 75.4563C4.39662 75.3072 4.19905 75.2327 3.89929 75.2327C3.79028 75.2327 3.66765 75.2394 3.5314 75.253C3.39514 75.2665 3.31339 75.2733 3.28614 75.2733L3.18395 75.1107L3.32701 73.9113C3.51777 73.9113 3.79028 73.9181 4.14455 73.9317C4.51244 73.9317 4.87352 73.9384 5.22779 73.952C5.59568 73.952 5.86819 73.952 6.04532 73.952C6.27696 73.952 6.54947 73.9452 6.86286 73.9317C7.18987 73.9181 7.5237 73.8978 7.86434 73.8707C8.2186 73.8436 8.54562 73.8233 8.84538 73.8097L8.72275 75.131C8.2186 75.2259 7.87796 75.3546 7.70083 75.5172C7.53732 75.6663 7.44876 75.9306 7.43513 76.31L7.23075 84.3396C7.21712 84.8816 7.26481 85.2475 7.37382 85.4373C7.48282 85.627 7.70083 85.7219 8.02785 85.7219C8.20498 85.7219 8.3753 85.7151 8.53881 85.7015C8.70231 85.688 8.79088 85.6744 8.80451 85.6609L8.92713 85.8032L8.74319 87.0635C8.53881 87.0635 8.25267 87.0567 7.88478 87.0432C7.51689 87.0296 7.14218 87.0161 6.76067 87.0025C6.37915 87.0025 6.06576 87.0025 5.8205 87.0025C5.54799 87.0025 5.2346 87.0025 4.88033 87.0025C4.53969 87.0025 4.19905 87.0093 3.85841 87.0228C3.5314 87.0364 3.24526 87.0499 3 87.0635ZM9.90818 81.4733L8.39574 80.5179L10.644 76.615C11.0527 75.9102 11.4411 75.3546 11.8089 74.9481C12.1905 74.528 12.6129 74.2298 13.0761 74.0536C13.5394 73.8639 14.1117 73.769 14.793 73.769C15.0655 74.1078 15.2562 74.5008 15.3652 74.9481C15.4742 75.3953 15.5287 75.856 15.5287 76.3304L15.263 76.5946C14.6771 76.4456 14.1934 76.3981 13.8119 76.4523C13.4304 76.5065 13.1034 76.6624 12.8309 76.9199C12.5584 77.1774 12.2858 77.5297 12.0133 77.9769L9.90818 81.4733Z" fill="url(#paint6_linear_128_489)"/>
<defs>
<linearGradient id="paint0_linear_128_489" x1="36.5" y1="17" x2="105.5" y2="67" gradientUnits="userSpaceOnUse">
<stop offset="0.120925" stop-color="#E87B0F"/>
<stop offset="0.909245" stop-color="#FDB773"/>
</linearGradient>
<linearGradient id="paint1_linear_128_489" x1="95.1265" y1="72.5721" x2="108.271" y2="76.5314" gradientUnits="userSpaceOnUse">
<stop offset="0.120925" stop-color="#E87B0F"/>
<stop offset="0.909245" stop-color="#FDB773"/>
</linearGradient>
<linearGradient id="paint2_linear_128_489" x1="75.9265" y1="73.204" x2="89.5383" y2="77.6924" gradientUnits="userSpaceOnUse">
<stop offset="0.120925" stop-color="#E87B0F"/>
<stop offset="0.909245" stop-color="#FDB773"/>
</linearGradient>
<linearGradient id="paint3_linear_128_489" x1="57.1634" y1="74.0793" x2="69.9951" y2="78.9303" gradientUnits="userSpaceOnUse">
<stop offset="0.120925" stop-color="#E87B0F"/>
<stop offset="0.909245" stop-color="#FDB773"/>
</linearGradient>
<linearGradient id="paint4_linear_128_489" x1="40.1875" y1="74.4567" x2="50.9627" y2="78.1968" gradientUnits="userSpaceOnUse">
<stop offset="0.120925" stop-color="#E87B0F"/>
<stop offset="0.909245" stop-color="#FDB773"/>
</linearGradient>
<linearGradient id="paint5_linear_128_489" x1="22.9417" y1="75.3029" x2="34.7272" y2="79.905" gradientUnits="userSpaceOnUse">
<stop offset="0.120925" stop-color="#E87B0F"/>
<stop offset="0.909245" stop-color="#FDB773"/>
</linearGradient>
<linearGradient id="paint6_linear_128_489" x1="6.92599" y1="77.198" x2="16.7743" y2="81.0036" gradientUnits="userSpaceOnUse">
<stop offset="0.120925" stop-color="#E87B0F"/>
<stop offset="0.909245" stop-color="#FDB773"/>
</linearGradient>
</defs>
</svg>
