<svg width="118" height="89" viewBox="0 0 118 89" fill="none" xmlns="http://www.w3.org/2000/svg">
<path d="M36 48.5798C59.2 33.3798 47.6667 13.0798 39.5 4.57981C45.9 5.37969 59.8334 8.57994 66 10.0801V1.07996C69.0487 -1.58756 81.1129 1.28136 87.5798 3.28815C88.1962 3.47944 88.8213 3.62585 89.4603 3.7171C91.0265 3.94078 92.5045 2.97671 94.0457 2.6192C96.0005 2.16573 98.0213 3.8563 99.0001 5.07981C98.6698 5.07981 98.345 5.00265 98.0212 4.93791C96.7991 4.69361 95.4569 5.26563 94.4086 5.95039C93.439 6.58376 92.3494 7.07982 91.1912 7.07982C90.7322 7.07982 90.2706 7.02164 89.8245 6.91341C77.4464 3.91054 70.4646 4.76126 68.5 5.57981V10.5798H69C71.8 10.9798 75.5001 12.0798 77.0001 12.5798C83.8001 16.5798 84.8334 24.9132 84.5001 28.5798C84.1001 38.5798 73.6667 42.7465 68.5 43.5798V53.5798C74.5001 53.9799 82.0001 50.4132 85.0001 48.5798C90.6001 45.7798 95.0001 37.4132 96.5001 33.5798C104.1 39.1798 100.667 52.2465 98.0001 58.0799C105.6 57.6799 114.5 63.5799 118 66.5799L107.565 63.2597C107.37 63.2 107.181 63.1401 107 63.0799C100 60.0799 80.3334 60.7465 71.0001 61.5799C67.4 61.9799 55.8334 63.7465 50.5 64.5798C43.3 66.9799 26.8334 67.2465 19.5 67.0799C7.90001 65.8799 1.66667 62.9132 0 61.5799C14.2764 65.5455 25.4731 65.2519 29.3997 64.5969C27.8973 64.7294 27.8369 59.0158 28 56.0799C27.6 50.0798 22.1667 47.2465 19.5 46.5798L20.5 44.0798L39 50.0798C56.2 54.0798 64.1667 54.0798 66 53.5798V44.0798C57.6 47.2798 42.8334 48.2465 36 48.5798Z" fill="white"/>
<path d="M36 48.5798C59.2 33.3798 47.6667 13.0798 39.5 4.57981C45.9 5.37969 59.8334 8.57994 66 10.0801V1.07996C69.0487 -1.58756 81.1129 1.28136 87.5798 3.28815C88.1962 3.47944 88.8213 3.62585 89.4603 3.7171C91.0265 3.94078 92.5045 2.97671 94.0457 2.6192C96.0005 2.16573 98.0213 3.8563 99.0001 5.07981C98.6698 5.07981 98.345 5.00265 98.0212 4.93791C96.7991 4.69361 95.4569 5.26563 94.4086 5.95039C93.439 6.58376 92.3494 7.07982 91.1912 7.07982C90.7322 7.07982 90.2706 7.02164 89.8245 6.91341C77.4464 3.91054 70.4646 4.76126 68.5 5.57981V10.5798H69C71.8 10.9798 75.5001 12.0798 77.0001 12.5798C83.8001 16.5798 84.8334 24.9132 84.5001 28.5798C84.1001 38.5798 73.6667 42.7465 68.5 43.5798V53.5798C74.5001 53.9799 82.0001 50.4132 85.0001 48.5798C90.6001 45.7798 95.0001 37.4132 96.5001 33.5798C104.1 39.1798 100.667 52.2465 98.0001 58.0799C105.6 57.6799 114.5 63.5799 118 66.5799L107.565 63.2597C107.37 63.2 107.181 63.1401 107 63.0799C100 60.0799 80.3334 60.7465 71.0001 61.5799C67.4 61.9799 55.8334 63.7465 50.5 64.5798C43.3 66.9799 26.8334 67.2465 19.5 67.0799C7.90001 65.8799 1.66667 62.9132 0 61.5799C14.2764 65.5455 25.4731 65.2519 29.3997 64.5969C27.8973 64.7294 27.8369 59.0158 28 56.0799C27.6 50.0798 22.1667 47.2465 19.5 46.5798L20.5 44.0798L39 50.0798C56.2 54.0798 64.1667 54.0798 66 53.5798V44.0798C57.6 47.2798 42.8334 48.2465 36 48.5798Z" fill="white" fill-opacity="0.2"/>
<path d="M90.1536 89.0001L90.3851 86.7836C91.3334 86.6292 91.9619 86.3535 92.2707 85.9566C92.6015 85.5596 92.7669 84.8759 92.7669 83.9054L92.8 71.301C92.8 70.5732 92.7338 70.099 92.6015 69.8784C92.4692 69.6358 92.1825 69.5145 91.7414 69.5145C91.6311 69.5145 91.4878 69.5256 91.3114 69.5476C91.1349 69.5476 90.9365 69.5586 90.7159 69.5807L90.5174 69.283L90.7821 67.298C91.2893 67.298 91.8958 67.309 92.6015 67.3311C93.3072 67.3531 94.0349 67.3752 94.7848 67.3973C95.5346 67.3973 96.2072 67.3973 96.8026 67.3973C98.2581 67.3973 99.5703 67.3862 100.739 67.3642C101.908 67.3421 102.922 67.298 103.782 67.2318C104.665 67.1657 105.392 67.0885 105.966 67.0003L106.23 67.3642C106.12 68.1581 106.01 69.0073 105.9 69.9115C105.789 70.7937 105.701 71.687 105.635 72.5912C105.569 73.4734 105.514 74.3225 105.47 75.1386L102.559 75.3371C102.581 74.918 102.603 74.5431 102.625 74.2123C102.647 73.8594 102.658 73.5396 102.658 73.2529C102.68 72.9661 102.691 72.6905 102.691 72.4258C102.691 71.7421 102.614 71.2459 102.459 70.9371C102.305 70.6063 101.996 70.3857 101.533 70.2754C101.07 70.1652 100.364 70.11 99.4159 70.11C98.8205 70.11 98.3794 70.1321 98.0927 70.1762C97.8281 70.2203 97.6517 70.3195 97.5635 70.4739C97.4973 70.6283 97.4532 70.8819 97.4311 71.2348L97.0011 84.0708C97.0011 84.8648 97.1003 85.4052 97.2988 85.6919C97.4973 85.9786 97.8722 86.122 98.4235 86.122C98.6882 86.122 99.03 86.1109 99.449 86.0889C99.868 86.0448 100.243 86.0007 100.574 85.9566L100.871 86.2874L100.508 88.7686C99.846 88.7465 99.1954 88.7245 98.5559 88.7024C97.9163 88.6803 97.3319 88.6583 96.8026 88.6362C96.2734 88.6362 95.8433 88.6362 95.5125 88.6362C94.8068 88.6362 93.9578 88.6693 92.9654 88.7355C91.995 88.8017 91.0577 88.8899 90.1536 89.0001Z" fill="white"/>
<path d="M70.6919 89.0001L70.9201 86.8656C71.8331 86.7381 72.4527 86.4833 72.7787 86.101C73.1048 85.7187 73.2678 85.0603 73.2678 84.1258L73.3004 71.9879C73.3004 71.287 73.2352 70.8304 73.1048 70.618C72.9744 70.3844 72.6918 70.2675 72.257 70.2675C72.1266 70.2675 71.9636 70.2782 71.7679 70.2994C71.5723 70.2994 71.3984 70.31 71.2462 70.3313L71.0506 70.0445L71.3114 68.1331C71.8114 68.1331 72.4092 68.1437 73.1048 68.1649C73.8004 68.1861 74.5069 68.2074 75.2243 68.2286C75.9633 68.2286 76.6264 68.2286 77.2133 68.2286C78.7784 68.2286 80.1805 68.218 81.4196 68.1968C82.6586 68.1755 83.7455 68.1331 84.6803 68.0693C85.6367 68.0056 86.4519 67.9313 87.1258 67.8463L87.3866 68.1968C87.2779 68.7277 87.1693 69.333 87.0606 70.0127C86.9519 70.6923 86.8649 71.3826 86.7997 72.0834C86.7345 72.7631 86.6802 73.3896 86.6367 73.9631L83.7347 74.1542C83.7564 73.9843 83.7673 73.7719 83.7673 73.5171C83.789 73.241 83.7999 73.0286 83.7999 72.8799C83.7999 72.4339 83.7564 72.0834 83.6694 71.8286C83.5825 71.5525 83.3977 71.3507 83.1151 71.2233C82.8325 71.0746 82.4086 70.979 81.8435 70.9366C81.3 70.8728 80.5609 70.841 79.6262 70.841C79.1045 70.841 78.7132 70.8622 78.4523 70.9047C78.2132 70.9472 78.0611 71.0428 77.9958 71.1914C77.9306 71.3401 77.8872 71.5843 77.8654 71.9242L77.5393 78.8374L77.4415 84.3169C77.4415 84.8904 77.485 85.3151 77.572 85.5913C77.6806 85.8461 77.8763 86.016 78.1589 86.101C78.4632 86.1859 78.9306 86.2284 79.561 86.2284C80.5827 86.2284 81.4087 86.1859 82.0391 86.101C82.6695 86.016 83.1586 85.8567 83.5064 85.6231C83.8542 85.3682 84.1151 84.9966 84.289 84.5081C84.4629 84.0196 84.6042 83.3824 84.7129 82.5966L87.3866 82.3736L87.6149 82.6603C87.4627 83.4461 87.2997 84.3913 87.1258 85.4957C86.9736 86.6001 86.8432 87.6195 86.7345 88.554L86.4084 88.9045C85.2346 88.862 84.0064 88.8195 82.7238 88.7771C81.463 88.7558 80.2675 88.7346 79.1371 88.7133C78.0067 88.6921 77.0502 88.6815 76.2677 88.6815C75.4851 88.6815 74.5721 88.7027 73.5287 88.7452C72.4853 88.8089 71.5397 88.8939 70.6919 89.0001ZM77.1155 79.8249L77.3763 76.9259C77.5285 76.9259 77.8002 76.9259 78.1915 76.9259C78.5828 76.9259 79.0067 76.9365 79.4632 76.9577C79.9197 76.9577 80.3327 76.9577 80.7022 76.9577C81.05 76.9577 81.6043 76.9259 82.3652 76.8622C83.126 76.7984 83.8325 76.7347 84.4846 76.671L84.7455 76.9577L84.289 79.6657C83.7238 79.6444 83.0173 79.6232 82.1695 79.6019C81.3218 79.5807 80.6044 79.5701 80.0175 79.5701C79.5392 79.5701 79.0284 79.6019 78.4849 79.6657C77.9415 79.7081 77.485 79.7612 77.1155 79.8249Z" fill="white"/>
<path d="M68.2741 87.468C67.7607 87.4496 67.1099 87.4313 66.3216 87.413C65.5516 87.3946 64.8733 87.3855 64.2866 87.3855C64.0666 87.3855 63.7458 87.3855 63.3241 87.3855C62.9024 87.4038 62.4349 87.413 61.9216 87.413C61.4083 87.413 60.8858 87.4221 60.3541 87.4405L60.5741 85.6805C61.1424 85.6621 61.5733 85.5796 61.8666 85.433C62.1783 85.2863 62.3891 85.0296 62.4991 84.663C62.6274 84.2963 62.6916 83.783 62.6916 83.123L62.7191 72.9205C62.7191 72.3522 62.6549 71.9764 62.5266 71.793C62.4166 71.5914 62.1691 71.4905 61.7841 71.4905C61.7108 71.4905 61.6008 71.4997 61.4541 71.518C61.3074 71.518 61.1424 71.518 60.9591 71.518L60.7941 71.298L61.0141 69.7031C61.1974 69.7031 61.4999 69.7122 61.9216 69.7306C62.3433 69.7306 62.7833 69.7306 63.2416 69.7306C63.6999 69.7306 64.0941 69.7306 64.4241 69.7306C64.7174 69.7306 65.1941 69.7122 65.8541 69.6756C66.5141 69.6389 67.3666 69.5931 68.4116 69.5381L68.2741 71.3255C67.5957 71.4172 67.1466 71.5639 66.9266 71.7655C66.7066 71.9489 66.5783 72.3064 66.5416 72.838C66.5049 73.6814 66.4591 74.5889 66.4041 75.5605C66.3674 76.5139 66.3308 77.4855 66.2941 78.4755C66.2758 79.4472 66.2574 80.3822 66.2391 81.2805C66.2208 82.1788 66.2116 82.9672 66.2116 83.6455C66.2116 84.4155 66.2941 84.938 66.4591 85.213C66.6241 85.488 66.9266 85.6255 67.3666 85.6255C67.5499 85.6255 67.7332 85.6163 67.9166 85.598C68.1182 85.5796 68.2741 85.5613 68.3841 85.543L68.5216 85.7355L68.2741 87.468ZM64.2591 79.9055C62.7191 80.4372 61.2983 80.7397 59.9966 80.813C58.7133 80.868 57.595 80.703 56.6416 80.318C55.7066 79.933 54.9733 79.3463 54.4416 78.558C53.9283 77.7697 53.6717 76.798 53.6717 75.643V72.7555C53.6717 72.2605 53.6167 71.9305 53.5067 71.7655C53.3967 71.5822 53.195 71.4905 52.9017 71.4905C52.8283 71.4905 52.7183 71.4997 52.5717 71.518C52.4433 71.518 52.3242 71.518 52.2142 71.518L52.0767 71.298L52.2417 69.7031L55.1841 69.7306C55.5141 69.7306 56.0366 69.7122 56.7516 69.6756C57.4666 69.6389 58.2641 69.5931 59.1441 69.5381L58.9791 71.353C58.5575 71.4264 58.2366 71.518 58.0166 71.628C57.7966 71.738 57.65 71.9305 57.5766 72.2055C57.5216 72.4622 57.485 72.838 57.4666 73.333L57.4116 75.038C57.3933 76.1747 57.6408 77.0363 58.1541 77.623C58.6858 78.2097 59.4925 78.5397 60.5741 78.613L64.2591 77.843V79.9055Z" fill="white"/>
<path d="M39.5379 86.2172C39.1939 86.2172 38.8172 86.2253 38.4077 86.2416C37.9982 86.2743 37.605 86.3069 37.2283 86.3395C36.8679 86.3721 36.5731 86.3966 36.3437 86.4129C36.1144 86.4456 35.9998 86.4619 35.9998 86.4619L36.1718 84.8468C36.8761 84.7163 37.3511 84.5206 37.5968 84.2596C37.8425 83.9822 37.9654 83.5255 37.9654 82.8892L37.99 73.297C37.99 72.8402 37.9326 72.5221 37.818 72.3426C37.7197 72.1632 37.5149 72.0735 37.2037 72.0735C37.0563 72.0735 36.8761 72.0816 36.6632 72.0979C36.4666 72.1142 36.3683 72.1224 36.3683 72.1224L36.1963 71.9266L36.4175 70.4584C36.4175 70.4584 36.5485 70.4666 36.8106 70.4829C37.0727 70.4829 37.3921 70.4829 37.7688 70.4829C38.162 70.4829 38.5387 70.4911 38.8991 70.5074C39.2758 70.5074 39.5789 70.5074 39.8082 70.5074C39.972 70.5074 40.2013 70.5074 40.4962 70.5074C40.8074 70.4911 41.135 70.4829 41.479 70.4829C41.823 70.4666 42.1506 70.4503 42.4618 70.434C42.773 70.4177 43.0269 70.4095 43.2235 70.4095C43.4201 70.3932 43.5184 70.385 43.5184 70.385C45.2055 70.385 46.4914 70.7113 47.3759 71.3638C48.2605 72 48.7027 72.9381 48.7027 74.1779C48.7027 75.0262 48.457 75.7603 47.9656 76.3802C47.4742 77.0001 46.8354 77.514 46.0491 77.9218C46.7207 78.0849 47.3104 78.3296 47.8182 78.6559C48.3424 78.9822 48.7601 79.39 49.0713 79.8794C49.3825 80.3525 49.5381 80.9153 49.5381 81.5678C49.5381 82.5467 49.2679 83.4031 48.7273 84.1372C48.2031 84.8713 47.466 85.4423 46.516 85.8501C45.5659 86.2579 44.452 86.4619 43.1744 86.4619C42.945 86.4619 42.6666 86.4456 42.339 86.4129C42.0277 86.3966 41.7001 86.3721 41.3561 86.3395C41.0285 86.3069 40.7009 86.2743 40.3733 86.2416C40.0621 86.2253 39.7836 86.2172 39.5379 86.2172ZM41.1841 79.3411L41.0859 82.9626C41.0859 83.4847 41.2661 83.8599 41.6264 84.0883C41.9868 84.3003 42.5847 84.4064 43.4201 84.4064C44.2391 84.4064 44.8697 84.1943 45.312 83.7702C45.7707 83.3297 46 82.7179 46 81.9349C46 80.5483 45.1564 79.6755 43.4692 79.3166L41.1841 79.3411ZM41.2333 77.2122C41.2333 77.2122 41.3316 77.2203 41.5281 77.2366C41.7247 77.253 41.9622 77.2856 42.2407 77.3345C42.5192 77.3672 42.7812 77.3916 43.0269 77.4079C43.289 77.4243 43.4774 77.4324 43.5921 77.4324C43.5921 77.4324 43.674 77.3916 43.8378 77.3101C44.018 77.2285 44.2227 77.0898 44.452 76.8941C44.6814 76.682 44.8779 76.4128 45.0417 76.0866C45.2219 75.744 45.312 75.3117 45.312 74.7896C45.312 73.9577 45.0335 73.3459 44.4766 72.9544C43.9197 72.5629 43.0515 72.3671 41.8721 72.3671C41.7083 72.3671 41.5937 72.3997 41.5281 72.465C41.479 72.5139 41.4462 72.6363 41.4299 72.832C41.3971 73.2725 41.3643 73.7701 41.3316 74.3247C41.3152 74.863 41.2988 75.3851 41.2824 75.8908C41.266 76.3965 41.2497 76.837 41.2333 77.2122Z" fill="white"/>
<path d="M25.279 87.308C23.8331 87.308 22.5762 87.0022 21.5083 86.3907C20.4567 85.763 19.6435 84.8779 19.0684 83.7353C18.5098 82.5927 18.2305 81.2409 18.2305 79.6799C18.2305 78.4247 18.4194 77.2821 18.7973 76.2521C19.1752 75.2061 19.7174 74.3129 20.4239 73.5726C21.1468 72.8163 22.0012 72.2369 22.987 71.8346C23.9892 71.4323 25.0982 71.2311 26.3141 71.2311C27.8092 71.2311 29.0825 71.5369 30.1341 72.1484C31.202 72.7599 32.0235 73.629 32.5986 74.7555C33.1736 75.882 33.4612 77.2257 33.4612 78.7867C33.4612 80.0742 33.264 81.2409 32.8697 82.287C32.4754 83.3169 31.9167 84.2101 31.1938 84.9664C30.4709 85.7067 29.6083 86.286 28.6061 86.7045C27.6038 87.1068 26.4948 87.308 25.279 87.308ZM25.9197 85.2561C26.7084 85.2561 27.382 85.0549 27.9407 84.6526C28.4993 84.2503 28.9265 83.6629 29.2222 82.8904C29.5344 82.1019 29.6905 81.1524 29.6905 80.042C29.6905 78.6258 29.5262 77.4349 29.1976 76.4694C28.8854 75.5038 28.4253 74.7716 27.8174 74.2727C27.2095 73.7738 26.4784 73.5244 25.624 73.5244C24.8518 73.5244 24.1864 73.7336 23.6278 74.152C23.0856 74.5543 22.6666 75.1417 22.3709 75.9142C22.0751 76.6866 21.9272 77.6281 21.9272 78.7385C21.9272 80.1385 22.0833 81.3294 22.3955 82.3111C22.7241 83.2767 23.1841 84.0089 23.7756 84.5078C24.3835 85.0067 25.0982 85.2561 25.9197 85.2561Z" fill="white"/>
<path d="M13.1988 87.3077C12.7627 87.3077 12.3608 87.1519 11.9929 86.8402C11.625 86.5285 11.2707 86.0542 10.9301 85.4172L8.68187 81.2094H5.90225V79.3595L9.98993 79.5831L10.3374 78.9123L13.2601 84.0959C13.5735 84.6516 13.9209 85.0852 14.3024 85.3969C14.6839 85.6951 15.0995 85.8441 15.5492 85.8441L15.6922 86.0271L15.5492 87.0638L13.1988 87.3077ZM3 87.0638L3.18395 85.7831C3.78347 85.7018 4.1718 85.5595 4.34893 85.3563C4.53969 85.153 4.63507 84.76 4.63507 84.1772L4.65551 76.3103C4.65551 75.8767 4.60101 75.5921 4.492 75.4566C4.39662 75.3075 4.19905 75.233 3.89929 75.233C3.79028 75.233 3.66765 75.2397 3.5314 75.2533C3.39514 75.2668 3.31339 75.2736 3.28614 75.2736L3.18395 75.111L3.32701 73.9116C3.51777 73.9116 3.79028 73.9184 4.14455 73.932C4.51244 73.932 4.87352 73.9387 5.22779 73.9523C5.59568 73.9523 5.86819 73.9523 6.04532 73.9523C6.27696 73.9523 6.54947 73.9455 6.86286 73.932C7.18987 73.9184 7.5237 73.8981 7.86434 73.871C8.2186 73.8439 8.54562 73.8236 8.84538 73.81L8.72275 75.1313C8.2186 75.2262 7.87796 75.3549 7.70083 75.5175C7.53732 75.6666 7.44876 75.9309 7.43513 76.3103L7.23075 84.3399C7.21712 84.8819 7.26481 85.2478 7.37382 85.4376C7.48282 85.6273 7.70083 85.7222 8.02785 85.7222C8.20498 85.7222 8.3753 85.7154 8.53881 85.7018C8.70231 85.6883 8.79088 85.6747 8.80451 85.6612L8.92713 85.8035L8.74319 87.0638C8.53881 87.0638 8.25267 87.057 7.88478 87.0435C7.51689 87.0299 7.14218 87.0164 6.76067 87.0028C6.37915 87.0028 6.06576 87.0028 5.8205 87.0028C5.54799 87.0028 5.2346 87.0028 4.88033 87.0028C4.53969 87.0028 4.19905 87.0096 3.85841 87.0232C3.5314 87.0367 3.24526 87.0503 3 87.0638ZM9.90818 81.4736L8.39574 80.5182L10.644 76.6153C11.0527 75.9106 11.4411 75.3549 11.8089 74.9484C12.1905 74.5283 12.6129 74.2301 13.0761 74.0539C13.5394 73.8642 14.1117 73.7693 14.793 73.7693C15.0655 74.1081 15.2562 74.5012 15.3652 74.9484C15.4742 75.3956 15.5287 75.8563 15.5287 76.3307L15.263 76.5949C14.6771 76.4459 14.1934 76.3984 13.8119 76.4526C13.4304 76.5068 13.1034 76.6627 12.8309 76.9202C12.5584 77.1777 12.2858 77.53 12.0133 77.9772L9.90818 81.4736Z" fill="white"/>
</svg>
