<svg width="23" height="19" viewBox="0 0 23 19" fill="none" xmlns="http://www.w3.org/2000/svg">
<path d="M1 4.88595V14.1145C1 15.4747 1 16.1544 1.25432 16.6739C1.47802 17.1308 1.83472 17.5027 2.27376 17.7356C2.7724 18 3.42549 18 4.72973 18H18.2703C19.5745 18 20.2267 18 20.7253 17.7356C21.1643 17.5027 21.5222 17.1308 21.7459 16.6739C22 16.1549 22 15.4761 22 14.1186V4.88196C22 3.52449 22 2.84475 21.7459 2.32575C21.5222 1.86879 21.1643 1.49753 20.7253 1.2647C20.2262 1 19.5737 1 18.2669 1H4.73356C3.42677 1 2.77289 1 2.27376 1.2647C1.83472 1.49753 1.47802 1.86879 1.25432 2.32575C1 2.84525 1 3.52582 1 4.88595Z" fill="#CDCDCD"/>
<path d="M2.16667 2.21429L9.29224 7.8149L9.29462 7.81695C10.0858 8.42085 10.4817 8.72297 10.9152 8.83969C11.2984 8.94285 11.7013 8.94285 12.0845 8.83969C12.5184 8.72287 12.9154 8.41986 13.708 7.8149C13.708 7.8149 18.2784 4.16436 20.8333 2.21429M1 14.1145V4.88595C1 3.52582 1 2.84525 1.25432 2.32575C1.47802 1.86879 1.83472 1.49753 2.27376 1.2647C2.77289 1 3.42677 1 4.73356 1H18.2669C19.5737 1 20.2262 1 20.7253 1.2647C21.1643 1.49753 21.5222 1.86879 21.7459 2.32575C22 2.84475 22 3.52449 22 4.88196V14.1186C22 15.4761 22 16.1549 21.7459 16.6739C21.5222 17.1308 21.1643 17.5027 20.7253 17.7356C20.2267 18 19.5745 18 18.2703 18H4.72973C3.42549 18 2.7724 18 2.27376 17.7356C1.83472 17.5027 1.47802 17.1308 1.25432 16.6739C1 16.1544 1 15.4747 1 14.1145Z" stroke="#0D0D0D" stroke-width="2" stroke-linecap="round" stroke-linejoin="round"/>
</svg>
