<svg width="23" height="23" viewBox="0 0 23 23" fill="none" xmlns="http://www.w3.org/2000/svg">
<path d="M8.58601 2.46676C8.23167 1.58089 7.37371 1 6.41962 1H3.21047C1.98966 1 1 1.98945 1 3.21029C1 13.5874 9.41236 22 19.7892 22C21.01 22 21.9995 21.0102 21.9995 19.7894L22 16.5796C22 15.6255 21.4193 14.7677 20.5334 14.4133L17.4577 13.1834C16.6619 12.8651 15.756 13.0084 15.0976 13.5571L14.3038 14.2191C13.3767 14.9917 12.0126 14.9303 11.1593 14.0769L8.92405 11.8396C8.07073 10.9862 8.00768 9.62323 8.78024 8.69614L9.44217 7.90235C9.99082 7.24395 10.1353 6.33769 9.81705 5.54194L8.58601 2.46676Z" fill="#CDCDCD" stroke="#0D0D0D" stroke-width="2" stroke-linecap="round" stroke-linejoin="round"/>
</svg>
