<svg width="20.000000" height="20.000000" viewBox="0 0 20 20" fill="none" xmlns="http://www.w3.org/2000/svg" xmlns:xlink="http://www.w3.org/1999/xlink">
	<desc>
			Created with Pixso.
	</desc>
	<defs>
		<clipPath id="clip510_2048">
			<rect id="icon_site_arr_right_small" rx="-0.500000" width="19.000000" height="19.000000" transform="translate(0.500000 0.500000)" fill="white" fill-opacity="0"/>
		</clipPath>
	</defs>
	<rect id="icon_site_arr_right_small" rx="-0.500000" width="19.000000" height="19.000000" transform="translate(0.500000 0.500000)" fill="#FFFFFF" fill-opacity="0"/>
	<g clip-path="url(#clip510_2048)">
		<path id="Vector" d="M13.58 11L4 11C3.73 11 3.47 10.89 3.28 10.7C3.1 10.52 3 10.26 3 10C3 9.73 3.1 9.48 3.28 9.29C3.47 9.1 3.73 9 4 9L13.58 9L11.29 6.7C11.1 6.51 11 6.26 11.01 6C11.01 5.74 11.11 5.49 11.3 5.3C11.49 5.12 11.74 5.01 12 5.01C12.26 5.01 12.51 5.11 12.7 5.29L16.7 9.29C16.89 9.48 17 9.73 17 10C17 10.26 16.89 10.51 16.7 10.7L12.7 14.7C12.51 14.88 12.26 14.99 12 14.98C11.74 14.98 11.49 14.88 11.3 14.69C11.11 14.5 11.01 14.25 11.01 13.99C11 13.73 11.1 13.48 11.29 13.29L13.58 11Z" fill="#FFFFFF" fill-opacity="1.000000" fill-rule="evenodd"/>
	</g>
</svg>
