<svg width="20.000000" height="20.000000" viewBox="0 0 20 20" fill="none" xmlns="http://www.w3.org/2000/svg" xmlns:xlink="http://www.w3.org/1999/xlink">
	<desc>
			Created with Pixso.
	</desc>
	<defs>
		<clipPath id="clip510_2015">
			<rect id="icon_site_burger_small" rx="-0.500000" width="19.000000" height="19.000000" transform="translate(0.500000 0.500000)" fill="white" fill-opacity="0"/>
		</clipPath>
		<clipPath id="clip510_2014">
			<rect id="SVG" rx="-0.500000" width="19.000000" height="19.000000" transform="translate(0.500000 0.500000)" fill="white" fill-opacity="0"/>
		</clipPath>
	</defs>
	<g clip-path="url(#clip510_2014)">
		<rect id="icon_site_burger_small" rx="-0.500000" width="19.000000" height="19.000000" transform="translate(0.500000 0.500000)" fill="#FFFFFF" fill-opacity="0"/>
		<g clip-path="url(#clip510_2015)">
			<path id="Vector" d="M18 9C18.26 9 18.52 9.1 18.71 9.29C18.89 9.48 19 9.73 19 10C19 10.26 18.89 10.51 18.71 10.7C18.52 10.89 18.26 11 18 11L2 11C1.73 11 1.47 10.89 1.28 10.7C1.1 10.51 1 10.26 1 10C1 9.73 1.1 9.48 1.28 9.29C1.47 9.1 1.73 9 2 9L18 9ZM18 3C18.26 3 18.52 3.1 18.71 3.29C18.89 3.48 19 3.73 19 4C19 4.26 18.89 4.51 18.71 4.7C18.52 4.89 18.26 5 18 5L2 5C1.73 5 1.47 4.89 1.28 4.7C1.1 4.51 1 4.26 1 4C1 3.73 1.1 3.48 1.28 3.29C1.47 3.1 1.73 3 2 3L18 3ZM2 17C1.73 17 1.47 16.89 1.28 16.7C1.1 16.51 1 16.26 1 16C1 15.73 1.1 15.48 1.28 15.29C1.47 15.1 1.73 15 2 15L18 15C18.26 15 18.52 15.1 18.71 15.29C18.89 15.48 19 15.73 19 16C19 16.26 18.89 16.51 18.71 16.7C18.52 16.89 18.26 17 18 17L2 17Z" fill="#FFFFFF" fill-opacity="1.000000" fill-rule="evenodd"/>
		</g>
	</g>
</svg>
