<svg width="21.875000" height="21.875000" viewBox="0 0 21.875 21.875" fill="none" xmlns="http://www.w3.org/2000/svg" xmlns:xlink="http://www.w3.org/1999/xlink">
	<desc>
			Created with Pixso.
	</desc>
	<defs/>
	<path id="Vector" d="M0.62 15.62L13.43 15.62C13.51 15.62 13.59 15.6 13.67 15.57C13.75 15.54 13.82 15.5 13.87 15.44C13.93 15.38 13.98 15.31 14.01 15.23C14.04 15.16 14.06 15.08 14.06 14.99L14.06 13.12C14.06 13.04 14.04 12.96 14.01 12.88C13.98 12.81 13.93 12.74 13.87 12.68C13.82 12.62 13.75 12.57 13.67 12.54C13.59 12.51 13.51 12.5 13.43 12.5L0.62 12.5C0.54 12.5 0.46 12.51 0.38 12.54C0.31 12.57 0.24 12.62 0.18 12.68C0.12 12.74 0.07 12.81 0.04 12.88C0.01 12.96 -6.11e-5 13.04 0 13.12L0 14.99C-6.11e-5 15.08 0.01 15.16 0.04 15.23C0.07 15.31 0.12 15.38 0.18 15.44C0.24 15.5 0.31 15.54 0.38 15.57C0.46 15.6 0.54 15.62 0.62 15.62ZM0.62 3.12L13.43 3.12C13.51 3.12 13.59 3.1 13.67 3.07C13.75 3.04 13.82 3 13.87 2.94C13.93 2.88 13.98 2.81 14.01 2.73C14.04 2.66 14.06 2.58 14.06 2.49L14.06 0.62C14.06 0.54 14.04 0.46 14.01 0.38C13.98 0.31 13.93 0.24 13.87 0.18C13.82 0.12 13.75 0.07 13.67 0.04C13.59 0.01 13.51 0 13.43 0L0.62 0C0.54 0 0.46 0.01 0.38 0.04C0.31 0.07 0.24 0.12 0.18 0.18C0.12 0.24 0.07 0.31 0.04 0.38C0.01 0.46 -6.11e-5 0.54 0 0.62L0 2.49C-6.11e-5 2.58 0.01 2.66 0.04 2.73C0.07 2.81 0.12 2.88 0.18 2.94C0.24 3 0.31 3.04 0.38 3.07C0.46 3.1 0.54 3.12 0.62 3.12ZM21.09 6.25L0.78 6.25C0.57 6.25 0.37 6.33 0.22 6.47C0.08 6.62 0 6.82 0 7.03L0 8.59C0 8.8 0.08 9 0.22 9.14C0.37 9.29 0.57 9.37 0.78 9.37L21.09 9.37C21.3 9.37 21.49 9.29 21.64 9.14C21.79 9 21.87 8.8 21.87 8.59L21.87 7.03C21.87 6.82 21.79 6.62 21.64 6.47C21.49 6.33 21.3 6.25 21.09 6.25ZM21.09 18.75L0.78 18.75C0.57 18.75 0.37 18.83 0.22 18.97C0.08 19.12 0 19.32 0 19.53L0 21.09C0 21.3 0.08 21.5 0.22 21.64C0.37 21.79 0.57 21.87 0.78 21.87L21.09 21.87C21.3 21.87 21.49 21.79 21.64 21.64C21.79 21.5 21.87 21.3 21.87 21.09L21.87 19.53C21.87 19.32 21.79 19.12 21.64 18.97C21.49 18.83 21.3 18.75 21.09 18.75Z" fill="#000000" fill-opacity="1.000000" fill-rule="nonzero"/>
</svg>
