<svg width="30.000000" height="30.000000" viewBox="0 0 30 30" fill="none" xmlns="http://www.w3.org/2000/svg" xmlns:xlink="http://www.w3.org/1999/xlink">
	<desc>
			Created with Pixso.
	</desc>
	<defs>
		<clipPath id="clip510_2069">
			<rect id="icon_site_location-1" rx="-0.500000" width="29.000000" height="29.000000" transform="translate(0.500000 0.500000)" fill="white" fill-opacity="0"/>
		</clipPath>
	</defs>
	<rect id="icon_site_location-1" rx="-0.500000" width="29.000000" height="29.000000" transform="translate(0.500000 0.500000)" fill="#FFFFFF" fill-opacity="0"/>
	<g clip-path="url(#clip510_2069)">
		<path id="Vector" d="M15 5.85C11.56 5.85 8.78 8.76 8.78 12.35C8.78 14.97 9.89 17.52 11.28 19.65C12.63 21.73 14.17 23.32 15 24.1C15.82 23.32 17.36 21.73 18.71 19.65C20.1 17.52 21.22 14.97 21.22 12.35C21.22 8.76 18.43 5.85 15 5.85ZM7 12.35C7 7.73 10.57 4 15 4C19.42 4 23 7.73 23 12.35C23 15.5 21.66 18.42 20.18 20.7C18.69 22.99 16.99 24.72 16.14 25.53C15.83 25.83 15.42 26 15 26C14.57 26 14.16 25.83 13.85 25.53C13 24.72 11.3 22.99 9.81 20.7C8.33 18.42 7 15.5 7 12.35ZM15 10.49C14.01 10.49 13.21 11.32 13.21 12.35C13.21 13.37 14.01 14.2 15 14.2C15.98 14.2 16.78 13.37 16.78 12.35C16.78 11.32 15.98 10.49 15 10.49ZM11.44 12.35C11.44 10.3 13.03 8.63 15 8.63C16.96 8.63 18.55 10.3 18.55 12.35C18.55 14.4 16.96 16.06 15 16.06C13.03 16.06 11.44 14.4 11.44 12.35Z" fill="#334170" fill-opacity="1.000000" fill-rule="evenodd"/>
	</g>
</svg>
