<svg width="20.000000" height="20.000000" viewBox="0 0 20 20" fill="none" xmlns="http://www.w3.org/2000/svg" xmlns:xlink="http://www.w3.org/1999/xlink">
	<desc>
			Created with Pixso.
	</desc>
	<defs>
		<clipPath id="clip510_2246">
			<rect id="SVG" rx="-0.500000" width="19.000000" height="19.000000" transform="translate(0.500000 0.500000)" fill="white" fill-opacity="0"/>
		</clipPath>
	</defs>
	<g clip-path="url(#clip510_2246)">
		<path id="Vector" d="M10 1.04C9.76 1.04 9.53 1.1 9.31 1.21C9.1 1.31 8.92 1.46 8.78 1.65C8.24 2.2 7.61 2.91 7.39 2.94C7.32 2.94 7.25 2.94 7.19 2.94C7.07 2.91 6.96 2.84 6.89 2.74C6.82 2.64 6.78 2.52 6.78 2.4C6.81 2.22 6.83 2.19 7.19 1.82C7.54 1.46 8.37 0.64 8.37 0.64C8.37 0.64 8.84 0.04 10.06 0C10.29 0 11.2 0.1 11.79 0.74C12.43 1.39 14.6 3.58 14.6 3.58L14.9 3.58C15.28 3.58 15.65 3.72 15.93 3.98C16.21 4.24 16.39 4.59 16.42 4.97C16.42 5.36 16.42 5.44 16.42 5.44L18.28 7.34C18.73 7.79 18.98 8.4 19 9.03C18.99 10.12 19 17.45 19 17.45C19 17.45 19.01 19.84 16.42 19.99C14.4 20 3.53 19.99 3.53 19.99C3.53 19.99 1.13 20 1 17.49C1.01 15.82 1 9 1 9C1 9 1.05 7.81 1.91 7.14C2.64 6.39 3.57 5.44 3.57 5.44L3.57 5C3.57 5 3.6 3.74 5.06 3.58C6.4 3.58 13.11 3.58 13.11 3.58L13.11 3.51L10.94 1.38C10.68 1.15 10.34 1.03 10 1.04ZM17.98 17.49C17.98 17.49 17.92 18.86 16.53 18.94C15.33 18.95 3.46 18.94 3.46 18.94C3.46 18.94 2.17 18.93 2.01 17.49C2.02 16.39 2.01 9.16 2.01 9.16C2.01 9.16 2.03 8.46 2.15 8.52C2.37 8.72 6.92 13.33 6.92 13.33L3.4 16.91C3.4 16.91 3.09 17.34 3.43 17.62C3.54 17.71 3.68 17.76 3.83 17.75C3.97 17.75 4.11 17.69 4.21 17.59C4.51 17.28 8.84 12.89 8.84 12.89C8.98 12.71 9.16 12.57 9.35 12.47C9.55 12.37 9.77 12.32 10 12.31C10.27 12.3 10.75 12.36 11.25 12.95C11.81 13.5 16.02 17.76 16.02 17.76C16.12 17.84 16.25 17.87 16.39 17.86C16.52 17.85 16.64 17.79 16.73 17.69C16.82 17.51 16.96 17.27 16.66 16.95C16.36 16.63 13.11 13.33 13.11 13.33L17.84 8.52C17.95 8.73 17.99 8.97 17.98 9.2C17.97 9.63 17.98 17.49 17.98 17.49ZM11.72 11.94C11.26 11.52 10.66 11.28 10.03 11.26C9.46 11.26 8.92 11.46 8.47 11.8C7.97 12.29 7.66 12.62 7.66 12.62L2.79 7.67L3.57 6.9L3.57 7.54C3.57 7.61 3.58 7.67 3.6 7.74C3.63 7.8 3.67 7.85 3.71 7.9C3.76 7.95 3.82 7.99 3.88 8.01C3.94 8.04 4.01 8.05 4.07 8.05C4.14 8.05 4.21 8.03 4.28 8C4.34 7.98 4.4 7.94 4.44 7.89C4.49 7.83 4.53 7.78 4.55 7.71C4.58 7.65 4.59 7.58 4.58 7.51C4.59 7.05 4.58 5.14 4.58 5.14C4.59 5 4.64 4.88 4.74 4.78C4.83 4.69 4.96 4.63 5.09 4.63L14.9 4.63C15.04 4.64 15.18 4.7 15.27 4.81C15.37 4.92 15.42 5.06 15.41 5.21C15.41 5.79 15.41 7.54 15.41 7.54C15.41 7.61 15.42 7.67 15.44 7.74C15.47 7.8 15.51 7.85 15.55 7.9C15.6 7.95 15.66 7.99 15.72 8.01C15.78 8.04 15.85 8.05 15.92 8.05C15.99 8.05 16.05 8.03 16.12 8C16.18 7.98 16.24 7.93 16.29 7.89C16.33 7.83 16.37 7.77 16.39 7.71C16.42 7.64 16.43 7.58 16.42 7.51C16.42 7.12 16.42 6.93 16.42 6.93L17.24 7.71L12.36 12.61L11.72 11.94ZM6.75 6.22L13.28 6.22C13.4 6.24 13.51 6.3 13.59 6.4C13.67 6.49 13.71 6.61 13.72 6.73C13.72 6.8 13.71 6.87 13.68 6.94C13.66 7.01 13.62 7.07 13.57 7.12C13.51 7.17 13.45 7.21 13.39 7.24C13.32 7.26 13.25 7.27 13.18 7.27C12.71 7.27 6.82 7.27 6.82 7.27C6.82 7.27 6.28 7.24 6.27 6.76C6.27 6.63 6.31 6.5 6.4 6.4C6.49 6.3 6.61 6.23 6.75 6.22ZM6.75 8.76L13.28 8.76C13.4 8.78 13.51 8.84 13.59 8.93C13.67 9.03 13.71 9.14 13.72 9.27C13.72 9.34 13.71 9.41 13.68 9.48C13.66 9.54 13.62 9.6 13.57 9.66C13.51 9.71 13.45 9.75 13.39 9.77C13.32 9.8 13.25 9.81 13.18 9.81C12.71 9.81 6.82 9.81 6.82 9.81C6.82 9.81 6.28 9.77 6.27 9.3C6.27 9.17 6.31 9.03 6.4 8.93C6.49 8.83 6.61 8.77 6.75 8.76Z" fill="#FFFFFF" fill-opacity="1.000000" fill-rule="evenodd"/>
	</g>
</svg>
