<svg width="20.000000" height="20.000000" viewBox="0 0 20 20" fill="none" xmlns="http://www.w3.org/2000/svg" xmlns:xlink="http://www.w3.org/1999/xlink">
	<desc>
			Created with Pixso.
	</desc>
	<defs>
		<clipPath id="clip510_2238">
			<rect id="SVG" rx="-0.500000" width="19.000000" height="19.000000" transform="translate(0.500000 0.500000)" fill="white" fill-opacity="0"/>
		</clipPath>
	</defs>
	<g clip-path="url(#clip510_2238)">
		<path id="Vector" d="M16.31 3.59L17.47 3.59C17.47 3.59 19.85 3.71 19.99 6.35C20 7.58 19.99 17.18 19.99 17.18C19.99 17.18 20.05 19.86 17.2 20C14.83 19.99 2.58 20 2.58 20C2.58 20 0.11 19.83 0 17.24C0 15.7 0 6.2 0 6.2C0 6.2 0.07 3.88 2.55 3.59C3.65 3.59 3.64 3.59 3.64 3.59C3.78 3.59 3.9 3.66 3.99 3.76C4.08 3.86 4.13 3.99 4.12 4.12C4.11 4.25 4.06 4.38 3.96 4.47C3.87 4.56 3.75 4.62 3.61 4.62L2.63 4.62C2.63 4.62 1.1 4.73 1.03 6.35C1.03 7.93 1.03 10.11 1.03 10.11L5.57 10.11C5.57 10.11 6.06 10.12 6.08 10.77C6.07 11.43 6.08 13.85 6.08 13.85C6.08 13.85 7.16 13.99 7.5 15.28C8.33 15.28 13.73 15.28 13.73 15.28L13.73 10.62C13.73 10.55 13.75 10.48 13.78 10.41C13.81 10.35 13.85 10.29 13.9 10.24C13.95 10.19 14.02 10.16 14.09 10.14C14.15 10.11 14.23 10.11 14.3 10.11C14.87 10.1 18.95 10.11 18.95 10.11L18.95 6.23C18.95 6.23 18.86 4.77 17.35 4.62C16.45 4.64 16.37 4.62 16.37 4.62C16.37 4.62 15.94 4.67 15.84 4.09C15.86 3.86 16.07 3.57 16.31 3.59ZM10.11 0C10.74 0.01 11.35 0.16 11.91 0.44C12.47 0.71 12.96 1.11 13.35 1.6C13.93 2.29 14.28 3.16 14.33 4.06C14.33 4.57 14.33 4.59 14.33 4.59C14.26 5.34 14.04 6.07 13.67 6.73C13.18 7.79 10.74 12.96 10.74 12.96C10.66 13.09 10.55 13.2 10.42 13.27C10.29 13.34 10.14 13.38 9.99 13.38C9.87 13.4 9.41 13.36 9.13 12.75C8.87 12.17 5.96 5.99 5.96 5.99C5.77 5.5 5.67 4.97 5.66 4.45C5.66 4.11 5.66 4.03 5.66 4.03C5.66 4.03 5.72 2.24 7.15 1.06C7.97 0.35 9.03 -0.03 10.11 0L10.11 0ZM17.26 18.96C16.51 18.95 14.77 18.96 14.77 18.96L14.77 16.29L18.95 16.29L18.95 17.35C18.92 17.78 18.72 18.18 18.41 18.48C18.1 18.77 17.69 18.94 17.26 18.96L17.26 18.96ZM14.77 11.15L18.95 11.15L18.95 15.25L14.77 15.25L14.77 11.15ZM6.08 17.21C6.08 17.21 6.11 16.8 5.6 16.7C5.4 16.7 5.39 16.7 5.39 16.7C5.18 16.66 4.98 16.54 4.84 16.36C4.7 16.19 4.62 15.97 4.62 15.75C4.62 15.63 4.65 15.5 4.69 15.39C4.74 15.27 4.81 15.17 4.9 15.08C4.99 14.99 5.09 14.92 5.21 14.87C5.32 14.83 5.45 14.8 5.57 14.8C5.81 14.8 6.03 14.88 6.21 15.03C6.38 15.19 6.49 15.4 6.52 15.63C6.52 15.84 6.52 15.84 6.52 15.84C6.52 15.84 6.56 16.43 7.44 16.29C8.18 16.29 13.73 16.29 13.73 16.29L13.73 18.96L6.08 18.96L6.08 17.21ZM12.84 6.08C12.46 6.85 10.02 12.07 10.02 12.07L9.99 12.07L6.94 5.63C6.79 5.26 6.71 4.87 6.7 4.48C6.71 4.21 6.7 4.09 6.7 4.09C6.77 3.26 7.15 2.48 7.77 1.91C8.38 1.35 9.19 1.03 10.02 1.03C10.02 1.03 11.77 1.07 12.63 2.4C13.03 2.91 13.26 3.53 13.29 4.18C13.29 4.56 13.29 4.57 13.29 4.57C13.25 5.09 13.09 5.61 12.84 6.08ZM3.64 15.25C3.04 15.24 1.03 15.25 1.03 15.25L1.03 11.15L5.04 11.15L5.04 13.82C5.04 13.82 3.93 14.14 3.64 15.25ZM3.64 16.29C3.74 16.62 3.92 16.92 4.16 17.16C4.41 17.4 4.71 17.58 5.04 17.68L5.04 18.96L2.61 18.96C2.19 18.91 1.81 18.72 1.52 18.42C1.24 18.13 1.06 17.74 1.03 17.33C1.02 16.79 1.03 16.29 1.03 16.29L3.64 16.29ZM9.99 2.49C9.99 2.49 11.47 2.5 11.66 4L11.66 4.3C11.66 4.3 11.52 4.69 11.21 4.68C11.17 4.69 11.13 4.69 11.09 4.68C10.97 4.67 10.85 4.62 10.77 4.54C10.68 4.45 10.63 4.33 10.62 4.21C10.62 4.17 10.62 4.13 10.62 4.09C10.6 3.94 10.52 3.8 10.41 3.69C10.3 3.59 10.15 3.53 9.99 3.53C9.83 3.54 9.67 3.6 9.55 3.72C9.43 3.83 9.36 3.99 9.34 4.15C9.34 4.23 9.35 4.32 9.37 4.39C9.4 4.47 9.44 4.54 9.5 4.6C9.56 4.66 9.62 4.71 9.7 4.75C9.77 4.78 9.85 4.8 9.93 4.8C10.11 4.8 10.11 4.8 10.11 4.8C10.11 4.8 10.53 4.91 10.53 5.25C10.53 5.31 10.53 5.37 10.53 5.43C10.53 5.43 10.43 5.85 10.05 5.84C9.95 5.85 9.86 5.85 9.76 5.84C9.76 5.84 8.45 5.72 8.33 4.36C8.33 4.06 8.33 3.97 8.33 3.97C8.33 3.97 8.42 2.64 9.99 2.49Z" fill="#FFFFFF" fill-opacity="1.000000" fill-rule="evenodd"/>
	</g>
</svg>
