<svg width="17.000488" height="20.000000" viewBox="0 0 17.0005 20" fill="none" xmlns="http://www.w3.org/2000/svg" xmlns:xlink="http://www.w3.org/1999/xlink">
	<desc>
			Created with Pixso.
	</desc>
	<defs/>
	<path id="Vector" d="M3.47 0.26C3.72 0.13 3.99 0.04 4.27 0C4.57 0.02 5.12 0.02 5.65 0.83C6.42 1.98 7.12 3.18 7.74 4.42C7.84 4.66 7.88 4.93 7.84 5.2C7.81 5.46 7.7 5.71 7.53 5.92C7.12 6.32 6.62 6.63 6.06 6.81C5.88 6.89 5.73 7.01 5.62 7.17C5.51 7.33 5.44 7.52 5.44 7.71C5.47 7.93 5.56 8.15 5.68 8.34C6.2 9.31 6.81 10.23 7.5 11.09C7.94 11.65 8.7 12.66 9.59 13.42C9.67 13.51 9.77 13.58 9.88 13.62C9.99 13.67 10.1 13.69 10.22 13.69C10.34 13.68 10.46 13.66 10.56 13.61C10.67 13.56 10.77 13.48 10.84 13.39C11.21 12.91 11.65 12.27 11.86 12.14C12.09 12 12.75 11.58 13.47 12.16C14.06 12.66 14.92 13.39 15.86 14.35C16.27 14.79 16.98 15.28 17 16.2C16.98 16.46 16.94 17.27 16.34 17.28C16.21 17.27 16.09 17.22 16 17.12C15.91 17.03 15.86 16.9 15.86 16.77C15.9 16.6 15.95 16.43 16.01 16.26C15.99 16.14 15.95 15.77 15.65 15.63C14.86 14.79 14.02 14 13.14 13.24C12.87 13.01 12.7 12.77 12.46 13C12.22 13.24 11.53 14.13 11.5 14.17C11.14 14.51 10.66 14.71 10.16 14.71C9.89 14.7 9.63 14.64 9.38 14.53C9.14 14.42 8.93 14.25 8.75 14.05C7.74 13.06 6.83 11.98 6.04 10.82C5.56 10.14 4.4 8.53 4.45 7.71C4.48 7.35 4.45 6.56 5.56 5.92C6.32 5.59 6.91 5.28 6.87 4.99C6.8 4.79 6.71 4.6 6.6 4.42C6.6 4.42 5.55 2.43 4.87 1.52C4.74 1.3 4.56 0.81 4 1.13C3.87 0.86 3.47 0.26 3.47 0.26ZM2.78 1.7L4.54 4.63C4.54 4.63 4.67 5.05 4.36 5.23C4.3 5.27 4.24 5.31 4.16 5.32C4.09 5.34 4.02 5.34 3.94 5.32C3.87 5.3 3.81 5.27 3.75 5.22C3.69 5.17 3.65 5.12 3.61 5.05C3.33 4.61 2.24 2.81 2.24 2.81C2.24 2.81 1.04 4.28 0.99 5.17C1.06 5.73 1.2 6.28 1.4 6.81C1.79 7.91 2.25 8.98 2.78 10.01C3.47 11.35 4.3 12.61 5.26 13.78C6.14 14.9 7.14 15.93 8.24 16.83C9.11 17.54 10.02 18.18 10.99 18.75C11.19 18.85 11.54 19.13 12.43 18.86C13.09 18.68 13.71 18.37 14.25 17.94C13.79 17.49 12.34 16.08 12.34 16.08C12.28 15.98 12.27 15.86 12.28 15.74C12.3 15.62 12.35 15.51 12.43 15.42C12.47 15.38 12.53 15.34 12.59 15.31C12.65 15.28 12.72 15.27 12.78 15.27C12.85 15.27 12.92 15.28 12.98 15.31C13.04 15.34 13.1 15.38 13.14 15.42C13.42 15.71 15.35 17.58 15.35 17.58C15.35 17.58 15.78 18 15.38 18.36C14.7 19.01 13.87 19.5 12.96 19.76C12.43 19.91 11.76 20.2 10.63 19.76C9.85 19.3 9.09 18.79 8.36 18.24C7.8 17.79 6.06 16.4 4.9 14.95C3.86 13.74 2.95 12.42 2.18 11.03C1.41 9.67 0.78 8.22 0.33 6.72C0.15 6.16 -0.04 5.6 0 4.87C0.08 4.53 0.18 4.05 0.81 3.05C1.13 2.57 1.85 1.48 2.33 1.43C2.42 1.43 2.51 1.46 2.59 1.51C2.67 1.55 2.73 1.62 2.78 1.7ZM9.72 8.31C9.87 8.31 10.01 8.35 10.13 8.43C10.25 8.51 10.35 8.63 10.4 8.76C10.46 8.89 10.47 9.04 10.44 9.18C10.41 9.33 10.35 9.46 10.24 9.56C10.14 9.66 10.01 9.73 9.87 9.76C9.73 9.79 9.58 9.77 9.44 9.72C9.31 9.66 9.2 9.57 9.12 9.45C9.03 9.33 8.99 9.19 8.99 9.04C8.99 8.94 9.01 8.85 9.05 8.76C9.08 8.67 9.14 8.59 9.21 8.52C9.27 8.45 9.35 8.4 9.44 8.36C9.53 8.33 9.63 8.31 9.72 8.31ZM11.78 6.75C11.93 6.75 12.07 6.8 12.19 6.88C12.31 6.96 12.41 7.07 12.46 7.2C12.52 7.34 12.53 7.49 12.5 7.63C12.48 7.77 12.41 7.9 12.3 8C12.2 8.11 12.07 8.18 11.93 8.2C11.79 8.23 11.64 8.22 11.5 8.16C11.37 8.11 11.26 8.01 11.18 7.89C11.09 7.77 11.05 7.63 11.05 7.49C11.05 7.39 11.07 7.29 11.11 7.21C11.14 7.12 11.2 7.04 11.27 6.97C11.33 6.9 11.41 6.85 11.5 6.81C11.59 6.77 11.69 6.75 11.78 6.75L11.78 6.75ZM13.78 5.26C13.93 5.26 14.07 5.3 14.19 5.38C14.31 5.46 14.41 5.58 14.46 5.71C14.52 5.84 14.53 5.99 14.5 6.13C14.48 6.28 14.41 6.41 14.3 6.51C14.2 6.61 14.07 6.68 13.93 6.71C13.79 6.74 13.64 6.72 13.5 6.67C13.37 6.61 13.26 6.52 13.18 6.4C13.09 6.28 13.05 6.14 13.05 5.99C13.05 5.89 13.07 5.8 13.11 5.71C13.14 5.62 13.2 5.54 13.27 5.47C13.33 5.41 13.42 5.35 13.5 5.31C13.59 5.28 13.69 5.26 13.79 5.26L13.78 5.26ZM15.82 3.73C15.96 3.73 16.1 3.78 16.22 3.86C16.34 3.94 16.44 4.05 16.49 4.18C16.55 4.32 16.56 4.47 16.54 4.61C16.51 4.75 16.44 4.88 16.33 4.98C16.23 5.09 16.1 5.16 15.96 5.18C15.82 5.21 15.67 5.2 15.54 5.14C15.4 5.09 15.29 4.99 15.21 4.87C15.13 4.75 15.08 4.61 15.08 4.47C15.08 4.27 15.16 4.08 15.3 3.95C15.44 3.81 15.62 3.73 15.82 3.73Z" fill="#FFFFFF" fill-opacity="1.000000" fill-rule="evenodd"/>
</svg>
