<svg width="19.509155" height="19.507812" viewBox="0 0 19.5092 19.5078" fill="none" xmlns="http://www.w3.org/2000/svg" xmlns:xlink="http://www.w3.org/1999/xlink">
	<desc>
			Created with Pixso.
	</desc>
	<defs/>
	<path id="Vector" d="M3.06 3.06C2.69 3.44 2.44 3.97 2.31 4.98C2.17 6.03 2.17 7.41 2.17 9.4L2.17 10.1C2.17 12.08 2.17 13.47 2.31 14.51C2.44 15.52 2.69 16.06 3.06 16.44C3.44 16.81 3.97 17.06 4.98 17.19C6.03 17.33 7.41 17.33 9.4 17.33L10.1 17.33C12.09 17.33 13.47 17.33 14.51 17.19C15.52 17.06 16.06 16.81 16.44 16.44C16.81 16.06 17.06 15.53 17.19 14.52C17.33 13.47 17.33 12.09 17.33 10.1L17.33 9.4C17.33 7.41 17.33 6.03 17.19 4.99C17.06 3.98 16.81 3.44 16.44 3.06C16.06 2.69 15.53 2.44 14.52 2.31C13.47 2.17 12.09 2.17 10.1 2.17L9.4 2.17C7.41 2.17 6.03 2.17 4.99 2.31C3.98 2.44 3.44 2.69 3.06 3.06ZM9.4 0L10.1 0C11.66 0 13.25 -0.05 14.81 0.16C16.06 0.33 17.12 0.69 17.97 1.53L17.97 1.54C18.81 2.39 19.17 3.45 19.34 4.7C19.55 6.25 19.5 7.84 19.5 9.4L19.5 10.1C19.5 11.66 19.55 13.25 19.34 14.81C19.17 16.06 18.81 17.12 17.97 17.97L17.96 17.97C17.12 18.81 16.05 19.17 14.8 19.34C13.25 19.55 11.66 19.5 10.1 19.5L9.4 19.5C7.84 19.5 6.25 19.55 4.69 19.34C3.44 19.17 2.38 18.81 1.53 17.97L1.52 17.96C0.69 17.11 0.33 16.05 0.16 14.8C-0.05 13.25 0 11.66 0 10.1L0 9.4C0 7.84 -0.05 6.25 0.16 4.69C0.33 3.44 0.69 2.38 1.53 1.53L1.54 1.52C2.39 0.69 3.45 0.33 4.7 0.16C6.25 -0.05 7.84 0 9.4 0ZM3.29 5.93C3.39 11 5.93 14.05 10.37 14.05L10.63 14.05L10.63 11.15C12.26 11.31 13.5 12.5 13.99 14.05L16.3 14.05C16.06 13.17 15.65 12.36 15.07 11.65C14.5 10.95 13.78 10.38 12.97 9.98C13.69 9.53 14.32 8.95 14.81 8.25C15.3 7.55 15.64 6.76 15.81 5.93L13.72 5.93C13.27 7.54 11.91 9 10.63 9.14L10.63 5.93L8.53 5.93L8.53 11.55C7.23 11.23 5.6 9.65 5.52 5.93L3.29 5.93Z" fill="#B3B3B3" fill-opacity="1.000000" fill-rule="nonzero"/>
</svg>
