<svg width="37.517578" height="37.515625" viewBox="0 0 37.5176 37.5156" fill="none" xmlns="http://www.w3.org/2000/svg" xmlns:xlink="http://www.w3.org/1999/xlink">
	<desc>
			Created with Pixso.
	</desc>
	<defs/>
	<path id="Vector" d="M5.89 5.9C5.18 6.62 4.71 7.64 4.44 9.58C4.17 11.59 4.17 14.25 4.17 18.09L4.17 19.42C4.17 23.25 4.17 25.91 4.44 27.91C4.7 29.86 5.18 30.88 5.9 31.62C6.62 32.33 7.65 32.8 9.58 33.06C11.59 33.33 14.26 33.34 18.09 33.34L19.42 33.34C23.25 33.34 25.91 33.33 27.92 33.06C29.86 32.8 30.88 32.33 31.62 31.61C32.33 30.89 32.8 29.86 33.06 27.92C33.33 25.91 33.34 23.25 33.34 19.42L33.34 18.09C33.34 14.26 33.33 11.6 33.07 9.59C32.8 7.65 32.33 6.62 31.61 5.89C30.88 5.18 29.86 4.7 27.92 4.44C25.91 4.17 23.25 4.17 19.42 4.17L18.09 4.17C14.26 4.17 11.6 4.17 9.59 4.44C7.65 4.7 6.63 5.18 5.89 5.9ZM18.09 0L19.42 0C22.43 0 25.49 -0.09 28.48 0.31C30.88 0.64 32.92 1.33 34.55 2.94L34.57 2.96C36.18 4.59 36.87 6.63 37.2 9.04C37.59 12.03 37.5 15.08 37.5 18.09L37.5 19.42C37.5 22.43 37.6 25.49 37.19 28.48C36.87 30.89 36.18 32.92 34.57 34.55L34.55 34.57C32.92 36.18 30.88 36.87 28.47 37.2C25.48 37.59 22.43 37.5 19.42 37.5L18.09 37.5C15.08 37.5 12.02 37.59 9.03 37.19C6.62 36.87 4.58 36.18 2.96 34.57L2.94 34.55C1.33 32.92 0.64 30.88 0.31 28.47C-0.09 25.48 0 22.43 0 19.42L0 18.09C0 15.08 -0.09 12.02 0.32 9.03C0.64 6.62 1.33 4.58 2.94 2.95L2.96 2.94C4.59 1.33 6.63 0.64 9.04 0.31C12.03 -0.08 15.08 0 18.09 0ZM6.33 11.42C6.53 21.17 11.4 27.02 19.95 27.02L20.45 27.02L20.45 21.44C23.59 21.75 25.97 24.05 26.92 27.02L31.35 27.02C30.9 25.33 30.09 23.76 28.99 22.42C27.88 21.07 26.5 19.97 24.94 19.19C26.34 18.34 27.55 17.21 28.49 15.87C29.43 14.53 30.09 13.01 30.42 11.4L26.39 11.4C25.52 14.5 22.92 17.32 20.45 17.58L20.45 11.42L16.42 11.42L16.42 22.22C13.92 21.59 10.77 18.57 10.63 11.42L6.33 11.42Z" fill="#B41312" fill-opacity="1.000000" fill-rule="nonzero"/>
</svg>
