<svg width="20.000000" height="20.000000" viewBox="0 0 20 20" fill="none" xmlns="http://www.w3.org/2000/svg" xmlns:xlink="http://www.w3.org/1999/xlink">
	<desc>
			Created with Pixso.
	</desc>
	<defs/>
	<path id="Vector" d="M17.08 2.91C16.16 1.98 15.06 1.25 13.85 0.75C12.64 0.25 11.34 -0.01 10.04 0C4.55 0 0.08 4.44 0.08 9.91C0.08 11.66 0.54 13.35 1.4 14.85L0 20L5.27 18.61C6.73 19.41 8.37 19.83 10.04 19.83C15.52 19.83 20 15.38 20 9.91C20 7.26 18.96 4.77 17.08 2.91ZM10.04 18.15C8.55 18.15 7.09 17.75 5.81 17L5.51 16.82L2.38 17.64L3.21 14.59L3.01 14.28C2.18 12.97 1.74 11.45 1.74 9.91C1.74 5.36 5.46 1.66 10.03 1.66C12.24 1.66 14.32 2.52 15.87 4.08C16.65 4.85 17.26 5.76 17.67 6.76C18.09 7.76 18.3 8.83 18.3 9.91C18.32 14.46 14.6 18.15 10.04 18.15ZM14.58 11.99C14.33 11.86 13.1 11.26 12.88 11.17C12.65 11.09 12.49 11.06 12.32 11.3C12.15 11.55 11.67 12.1 11.53 12.26C11.39 12.43 11.24 12.46 10.99 12.33C10.74 12.21 9.93 11.93 8.99 11.09C8.25 10.43 7.75 9.63 7.6 9.38C7.46 9.13 7.58 9 7.71 8.86C7.82 8.75 7.96 8.58 8.09 8.43C8.21 8.3 8.26 8.18 8.34 8.02C8.42 7.85 8.38 7.72 8.32 7.59C8.26 7.48 7.75 6.25 7.55 5.75C7.35 5.27 7.14 5.33 6.99 5.33L6.51 5.33C6.34 5.33 6.08 5.39 5.84 5.64C5.62 5.89 4.98 6.49 4.98 7.71C4.98 8.92 5.87 10.1 6 10.26C6.12 10.43 7.75 12.93 10.25 14C10.84 14.26 11.3 14.41 11.66 14.52C12.26 14.72 12.8 14.68 13.23 14.63C13.71 14.56 14.71 14.02 14.91 13.44C15.12 12.86 15.12 12.38 15.05 12.26C14.98 12.16 14.83 12.1 14.58 11.99Z" fill="#B3B3B3" fill-opacity="1.000000" fill-rule="nonzero"/>
</svg>
