<svg width="39.000000" height="38.000000" viewBox="0 0 39 38" fill="none" xmlns="http://www.w3.org/2000/svg" xmlns:xlink="http://www.w3.org/1999/xlink">
	<desc>
			Created with Pixso.
	</desc>
	<defs/>
	<path id="Vector" d="M33.31 5.52C31.51 3.76 29.37 2.37 27.02 1.42C24.66 0.47 22.13 -0.01 19.57 0C8.87 0 0.15 8.45 0.15 18.82C0.15 22.15 1.05 25.38 2.74 28.23L0 38L10.28 35.37C13.13 36.87 16.32 37.67 19.57 37.67C30.27 37.67 39 29.22 39 18.84C39 13.81 36.98 9.08 33.31 5.52ZM19.57 34.48C16.67 34.48 13.83 33.72 11.34 32.3L10.75 31.95L4.64 33.51L6.27 27.74L5.87 27.15C4.26 24.65 3.41 21.77 3.41 18.82C3.41 10.2 10.66 3.17 19.55 3.17C23.87 3.17 27.92 4.8 30.96 7.77C32.46 9.22 33.66 10.94 34.47 12.84C35.28 14.75 35.69 16.79 35.68 18.84C35.72 27.47 28.47 34.48 19.57 34.48ZM28.43 22.78C27.94 22.55 25.55 21.41 25.12 21.24C24.67 21.08 24.36 21.01 24.02 21.47C23.69 21.94 22.77 23 22.49 23.31C22.22 23.63 21.93 23.67 21.44 23.42C20.95 23.19 19.38 22.68 17.54 21.08C16.09 19.83 15.12 18.29 14.83 17.82C14.56 17.34 14.79 17.09 15.05 16.85C15.26 16.64 15.54 16.3 15.77 16.03C16.01 15.76 16.1 15.56 16.26 15.25C16.42 14.93 16.34 14.66 16.22 14.43C16.1 14.21 15.12 11.89 14.73 10.94C14.34 10.03 13.93 10.14 13.64 10.12L12.69 10.12C12.36 10.12 11.85 10.24 11.4 10.71C10.97 11.19 9.72 12.33 9.72 14.64C9.72 16.96 11.46 19.2 11.7 19.51C11.93 19.83 15.12 24.58 19.99 26.61C21.14 27.11 22.04 27.39 22.75 27.6C23.9 27.96 24.96 27.91 25.81 27.79C26.75 27.66 28.69 26.65 29.08 25.55C29.49 24.45 29.49 23.52 29.35 23.31C29.22 23.1 28.92 23 28.43 22.78Z" fill="#B41312" fill-opacity="1.000000" fill-rule="nonzero"/>
</svg>
