<svg width="20.203735" height="16.162109" viewBox="0 0 20.2037 16.1621" fill="none" xmlns="http://www.w3.org/2000/svg" xmlns:xlink="http://www.w3.org/1999/xlink">
	<desc>
			Created with Pixso.
	</desc>
	<defs/>
	<path id="Vector" d="M10.1 0C10.96 0 11.85 0.02 12.71 0.05L13.72 0.1L14.69 0.16L15.6 0.22L16.43 0.29C17.33 0.35 18.18 0.74 18.82 1.37C19.47 2 19.87 2.84 19.96 3.74L20 4.17L20.08 5.09C20.15 6.05 20.2 7.08 20.2 8.08C20.2 9.07 20.15 10.11 20.08 11.06L20 11.98C19.99 12.13 19.97 12.27 19.96 12.41C19.87 13.31 19.47 14.15 18.82 14.78C18.18 15.41 17.33 15.8 16.43 15.87L15.6 15.93L14.69 15.99L13.72 16.05L12.71 16.1C11.84 16.14 10.97 16.16 10.1 16.16C9.23 16.16 8.36 16.14 7.49 16.1L6.47 16.05L5.5 15.99L4.59 15.93L3.76 15.87C2.86 15.8 2.01 15.41 1.37 14.78C0.72 14.15 0.32 13.31 0.23 12.41L0.19 11.98L0.12 11.06C0.04 10.07 0 9.07 0 8.08C0 7.08 0.05 6.05 0.12 5.09L0.19 4.17C0.21 4.03 0.22 3.88 0.23 3.74C0.32 2.84 0.72 2 1.37 1.37C2.01 0.74 2.86 0.35 3.76 0.29L4.59 0.22L5.5 0.16L6.47 0.1L7.49 0.05C8.36 0.02 9.23 0 10.1 0ZM10.1 2.01C9.26 2.01 8.41 2.04 7.57 2.07L6.58 2.12L5.63 2.17L4.74 2.24L3.93 2.3C3.5 2.33 3.09 2.51 2.79 2.81C2.48 3.11 2.29 3.51 2.24 3.94C2.13 5.16 2.02 6.68 2.02 8.08C2.02 9.47 2.13 10.99 2.24 12.21C2.33 13.09 3.03 13.78 3.93 13.85L4.74 13.92L5.63 13.98L6.58 14.03L7.57 14.08C8.41 14.12 9.26 14.14 10.1 14.14C10.93 14.14 11.79 14.12 12.62 14.08L13.61 14.03L14.56 13.98L15.45 13.92L16.27 13.85C16.7 13.82 17.1 13.64 17.41 13.34C17.72 13.04 17.91 12.64 17.95 12.21C18.07 10.99 18.18 9.47 18.18 8.08C18.18 6.68 18.07 5.16 17.95 3.94C17.91 3.51 17.72 3.11 17.41 2.81C17.1 2.51 16.7 2.33 16.27 2.3L15.45 2.24L14.56 2.18L13.61 2.12L12.62 2.07C11.78 2.04 10.94 2.02 10.1 2.01ZM8.08 5.63C8.08 5.53 8.1 5.43 8.15 5.34C8.19 5.26 8.26 5.18 8.34 5.13C8.42 5.07 8.52 5.04 8.61 5.02C8.71 5.01 8.81 5.03 8.9 5.06L8.99 5.1L13.23 7.55C13.31 7.6 13.38 7.67 13.44 7.75C13.49 7.83 13.52 7.93 13.53 8.02C13.54 8.12 13.52 8.22 13.49 8.31C13.45 8.4 13.39 8.48 13.31 8.54L13.23 8.6L8.99 11.05C8.9 11.1 8.8 11.13 8.71 11.13C8.61 11.14 8.51 11.12 8.42 11.07C8.33 11.03 8.25 10.97 8.19 10.89C8.14 10.81 8.1 10.72 8.08 10.62L8.08 10.53L8.08 5.63Z" fill="#B3B3B3" fill-opacity="1.000000" fill-rule="nonzero"/>
</svg>
