<svg width="38.225830" height="30.580078" viewBox="0 0 38.2258 30.5801" fill="none" xmlns="http://www.w3.org/2000/svg" xmlns:xlink="http://www.w3.org/1999/xlink">
	<desc>
			Created with Pixso.
	</desc>
	<defs/>
	<path id="Vector" d="M19.11 0C20.74 0 22.42 0.04 24.04 0.11L25.96 0.2L27.8 0.31L29.52 0.42L31.09 0.55C32.79 0.68 34.4 1.4 35.62 2.6C36.84 3.8 37.6 5.39 37.77 7.09L37.84 7.9L37.99 9.64C38.12 11.44 38.22 13.41 38.22 15.29C38.22 17.16 38.12 19.13 37.99 20.93L37.84 22.67C37.82 22.95 37.79 23.22 37.77 23.48C37.6 25.18 36.84 26.77 35.62 27.97C34.4 29.17 32.79 29.9 31.09 30.02L29.52 30.15L27.8 30.26L25.96 30.37L24.04 30.47C22.4 30.54 20.75 30.57 19.11 30.58C17.46 30.57 15.82 30.54 14.17 30.47L12.25 30.37L10.42 30.26L8.7 30.15L7.13 30.02C5.42 29.9 3.82 29.17 2.6 27.97C1.37 26.77 0.61 25.18 0.45 23.48L0.37 22.67L0.23 20.93C0.08 19.05 0 17.17 0 15.29C0 13.41 0.09 11.44 0.23 9.64L0.37 7.9C0.4 7.62 0.42 7.35 0.45 7.09C0.61 5.39 1.37 3.8 2.59 2.6C3.82 1.4 5.42 0.68 7.12 0.55L8.69 0.42L10.41 0.31L12.25 0.2L14.17 0.11C15.82 0.03 17.46 0 19.11 0ZM19.11 3.82C17.53 3.82 15.91 3.86 14.33 3.92L12.46 4.01L10.67 4.12L8.98 4.23L7.44 4.35C6.62 4.41 5.86 4.75 5.28 5.32C4.69 5.89 4.33 6.65 4.25 7.46C4.03 9.77 3.82 12.64 3.82 15.29C3.82 17.93 4.03 20.8 4.25 23.11C4.41 24.78 5.74 26.08 7.44 26.22L8.98 26.33L10.67 26.45L12.46 26.56L14.33 26.65C15.91 26.71 17.53 26.75 19.11 26.75C20.68 26.75 22.31 26.71 23.89 26.65L25.76 26.56L27.55 26.45L29.24 26.34L30.78 26.22C31.59 26.16 32.36 25.82 32.94 25.25C33.52 24.68 33.89 23.92 33.96 23.11C34.19 20.8 34.4 17.93 34.4 15.29C34.4 12.64 34.19 9.77 33.96 7.46C33.89 6.65 33.52 5.89 32.94 5.32C32.36 4.75 31.59 4.41 30.78 4.35L29.24 4.24L27.55 4.12L25.76 4.01L23.89 3.92C22.29 3.86 20.7 3.82 19.11 3.82ZM15.29 10.65C15.29 10.46 15.33 10.28 15.42 10.11C15.51 9.95 15.63 9.81 15.79 9.7C15.94 9.6 16.12 9.53 16.3 9.51C16.49 9.49 16.68 9.51 16.85 9.58L17.01 9.66L25.03 14.29C25.19 14.38 25.33 14.51 25.43 14.67C25.53 14.83 25.59 15 25.6 15.19C25.62 15.37 25.59 15.55 25.52 15.73C25.45 15.9 25.34 16.05 25.2 16.16L25.03 16.28L17.01 20.91C16.84 21.01 16.66 21.06 16.47 21.07C16.29 21.08 16.1 21.04 15.93 20.96C15.77 20.87 15.62 20.75 15.51 20.6C15.4 20.45 15.32 20.28 15.3 20.09L15.29 19.92L15.29 10.65Z" fill="#B41312" fill-opacity="1.000000" fill-rule="nonzero"/>
</svg>
