<svg width="20" height="20" fill="none" xmlns="http://www.w3.org/2000/svg"><path d="M2.906 17.002l.947-3.48a7.148 7.148 0 01-.93-3.539c0-3.851 3.03-6.985 6.752-6.985 3.724 0 6.753 3.134 6.753 6.985 0 3.852-3.03 6.985-6.753 6.985a6.568 6.568 0 01-3.3-.89l-3.47.924zm3.646-2.195l.206.13a5.457 5.457 0 002.917.847c3.092 0 5.607-2.602 5.607-5.8 0-3.199-2.515-5.8-5.607-5.8-3.091 0-5.606 2.601-5.606 5.8 0 1.114.306 2.196.885 3.129l.139.224-.545 2.004 2.004-.534z" fill="#fff"/><path d="M7.779 6.732l-.439-.024a.519.519 0 00-.376.133c-.213.19-.552.56-.657 1.04-.155.717.085 1.595.708 2.473.622.877 1.781 2.282 3.832 2.881.66.194 1.18.063 1.581-.202.318-.21.537-.548.616-.929l.07-.338a.237.237 0 00-.127-.262l-1.481-.706a.222.222 0 00-.275.07l-.581.779a.163.163 0 01-.187.057c-.398-.144-1.732-.722-2.463-2.18a.179.179 0 01.02-.194l.556-.665a.241.241 0 00.037-.246l-.638-1.544a.227.227 0 00-.196-.143z" fill="#fff"/></svg>