<svg width="20" height="20" fill="none" xmlns="http://www.w3.org/2000/svg"><path d="M16.325 6.447l-.004-.016c-.32-1.292-1.76-2.677-3.082-2.966l-.015-.003a17.13 17.13 0 00-6.448 0l-.015.003c-1.322.289-2.763 1.674-3.083 2.966l-.003.016a12.62 12.62 0 000 5.436l.003.016c.307 1.237 1.64 2.559 2.913 2.923v1.441a.58.58 0 00.998.402l1.46-1.519a16.948 16.948 0 004.175-.278l.015-.003c1.322-.288 2.763-1.674 3.082-2.966l.004-.016a12.62 12.62 0 000-5.436zm-1.156 5.175c-.213.842-1.307 1.89-2.176 2.084a15.964 15.964 0 01-3.43.277.081.081 0 00-.06.024l-1.066 1.095-1.135 1.164a.133.133 0 01-.228-.091v-2.389a.082.082 0 00-.067-.08c-.87-.194-1.963-1.242-2.177-2.084a11.453 11.453 0 010-4.914c.214-.842 1.307-1.89 2.176-2.083a15.954 15.954 0 015.987 0c.87.193 1.963 1.24 2.176 2.083a11.44 11.44 0 010 4.914z" fill="#fff"/><path d="M11.89 12.724c-.133-.04-.26-.068-.379-.117-1.225-.508-2.353-1.163-3.246-2.169-.508-.571-.905-1.217-1.241-1.9-.16-.324-.294-.66-.43-.994-.125-.305.058-.62.252-.85.182-.216.415-.38.669-.502.197-.095.392-.04.536.127.312.362.599.743.83 1.162.143.258.104.574-.154.75-.063.042-.12.092-.179.14a.586.586 0 00-.135.143.39.39 0 00-.026.342c.32.876.857 1.558 1.739 1.925.14.058.283.127.445.108.272-.032.36-.33.551-.487a.52.52 0 01.626-.027c.201.127.396.264.59.402.19.135.379.267.554.422.169.148.227.343.132.544-.174.37-.427.676-.792.872-.103.056-.226.074-.342.11-.133-.041.116-.036 0 0zM10.003 5.77c1.603.045 2.919 1.108 3.201 2.692.048.27.065.546.087.82.009.115-.057.225-.181.226-.128.002-.186-.105-.195-.22-.016-.229-.028-.458-.059-.684a2.863 2.863 0 00-2.306-2.393c-.179-.032-.362-.04-.543-.06-.114-.011-.264-.018-.29-.16-.021-.12.08-.215.193-.221.031-.002.062 0 .093 0 1.603.045-.03 0 0 0z" fill="#fff"/><path d="M12.439 8.927c-.003.02-.004.067-.016.111-.043.16-.287.181-.343.019a.486.486 0 01-.019-.155c0-.34-.074-.679-.245-.974a1.813 1.813 0 00-.76-.713 2.187 2.187 0 00-.606-.186c-.091-.015-.184-.024-.276-.037-.11-.015-.17-.086-.165-.196.005-.103.08-.176.192-.17.368.02.723.1 1.05.273.665.352 1.045.908 1.155 1.65.005.034.013.067.016.101l.017.277c-.003.02-.007-.11 0 0z" fill="#fff"/><path d="M11.442 8.888c-.134.002-.206-.072-.22-.195-.01-.086-.017-.172-.037-.256a.72.72 0 00-.266-.417.694.694 0 00-.217-.104c-.098-.029-.2-.02-.298-.045-.107-.026-.166-.112-.149-.212a.193.193 0 01.203-.155c.621.045 1.066.366 1.129 1.097.004.052.01.106-.002.156-.02.084-.082.127-.143.13-.134.003.061-.003 0 0z" fill="#fff"/></svg>