<svg width="64" height="64" viewBox="0 0 64 64" fill="none" xmlns="http://www.w3.org/2000/svg">
<g id="Frame">
<g id="Group">
<path id="Vector" d="M16.024 17.3333C16.024 15.2237 16.6496 13.1614 17.8217 11.4072C18.9937 9.65312 20.6596 8.28595 22.6087 7.47861C24.5578 6.67128 26.7025 6.46004 28.7716 6.87162C30.8408 7.28319 32.7414 8.2991 34.2331 9.79086C35.7249 11.2826 36.7408 13.1832 37.1524 15.2524C37.5639 17.3215 37.3527 19.4662 36.5454 21.4153C35.738 23.3644 34.3709 25.0303 32.6167 26.2023C30.8626 27.3744 28.8003 28 26.6907 28C23.8617 28 21.1486 26.8762 19.1482 24.8758C17.1478 22.8754 16.024 20.1623 16.024 17.3333ZM31.3333 48C31.3294 45.5758 31.8575 43.1803 32.8804 40.9824C33.9033 38.7846 35.3961 36.838 37.2533 35.28C37.4013 35.1304 37.487 34.9303 37.4933 34.72C37.4933 34.1867 36.8213 33.9547 36.6933 33.92C35.1613 33.5197 33.5834 33.3225 32 33.3333H21.3333C10.5067 33.3333 6.66666 41.2533 6.66666 48.0533C6.66666 54.1333 9.89333 57.3333 16 57.3333H32.7733C32.9886 57.3362 33.1962 57.2536 33.3507 57.1036C33.5051 56.9537 33.5938 56.7486 33.5973 56.5333C33.6046 56.4111 33.5779 56.2892 33.52 56.1813C32.0907 53.6913 31.3369 50.8711 31.3333 48ZM60.6667 48C60.6667 50.5052 59.9238 52.9542 58.5319 55.0372C57.1401 57.1202 55.1619 58.7438 52.8473 59.7025C50.5328 60.6612 47.9859 60.912 45.5289 60.4233C43.0718 59.9345 40.8148 58.7281 39.0433 56.9567C37.2718 55.1852 36.0655 52.9282 35.5767 50.4711C35.088 48.014 35.3388 45.4672 36.2975 43.1527C37.2562 40.8381 38.8798 38.8599 40.9628 37.468C43.0458 36.0762 45.4948 35.3333 48 35.3333C51.3581 35.3376 54.5775 36.6734 56.952 39.048C59.3266 41.4225 60.6624 44.6419 60.6667 48ZM40.6453 52.5333L52.5333 40.6453C50.8795 39.6051 48.9214 39.1574 46.9798 39.3757C45.0382 39.594 43.2284 40.4653 41.8468 41.8468C40.4653 43.2284 39.594 45.0382 39.3757 46.9798C39.1574 48.9214 39.6051 50.8795 40.6453 52.5333ZM56.6667 48C56.6623 46.3959 56.2077 44.8252 55.3547 43.4667L43.4667 55.3547C44.775 56.1747 46.2796 56.6284 47.8232 56.6682C49.3668 56.708 50.8928 56.3325 52.2417 55.581C53.5905 54.8294 54.7128 53.7294 55.4912 52.3958C56.2696 51.0622 56.6756 49.5441 56.6667 48Z" fill="#F3C17E"/>
</g>
</g>
</svg>
