<svg width="64" height="64" viewBox="0 0 64 64" fill="none" xmlns="http://www.w3.org/2000/svg">
<g id="Frame">
<g id="Group">
<path id="Vector" d="M46.2383 57.3125C46.2383 54.6913 44.1134 52.5664 41.4922 52.5664H22.5078C19.8866 52.5664 17.7617 54.6913 17.7617 57.3125V59H46.2383V57.3125ZM55.8359 17.7617V14.5977H36.4547C36.2187 13.9359 35.8386 13.3348 35.3417 12.838C34.8449 12.3411 34.2438 11.961 33.582 11.725V5H30.418V11.725C29.7562 11.961 29.1551 12.3411 28.6583 12.838C28.1614 13.3348 27.7813 13.9359 27.5453 14.5977H8.16406V17.7617H12.1196L5 35.1641C5 39.5255 8.54871 43.0742 12.9102 43.0742H16.0742C20.4357 43.0742 23.9844 39.5255 23.9844 35.1641L16.8326 17.7617H27.5454C27.7814 18.4235 28.1616 19.0246 28.6584 19.5214C29.1552 20.0182 29.7563 20.3984 30.4181 20.6344V43.2476C27.3263 43.8803 24.8804 46.3094 24.25 49.4023H39.7502C39.1198 46.3094 36.674 43.8803 33.5821 43.2476V20.6344C34.2439 20.3984 34.845 20.0182 35.3418 19.5214C35.8387 19.0246 36.2188 18.4235 36.4548 17.7617H47.1353L40.0156 35.1641C40.0156 39.5255 43.5643 43.0742 47.9258 43.0742H51.0898C55.4513 43.0742 59 39.5255 59 35.1641L51.8483 17.7617H55.8359ZM20.0289 33.582H8.9555L14.4922 20.2923L20.0289 33.582ZM55.0445 33.582H43.9711L49.5078 20.2923L55.0445 33.582Z" fill="#F3C17E"/>
</g>
</g>
</svg>
