<svg width="64" height="64" viewBox="0 0 64 64" fill="none" xmlns="http://www.w3.org/2000/svg">
<g id="Frame">
<g id="Group">
<path id="Vector" fill-rule="evenodd" clip-rule="evenodd" d="M31.027 40.7835L32.4787 39.7288V52.9094C32.4787 54.7936 34.0203 56.3352 35.9045 56.3352H40.2919V44.9248C40.2919 44.0385 41.017 43.3133 41.9034 43.3133H45.3218C46.2081 43.3133 46.9333 44.0384 46.9333 44.9248V56.3352H51.3207C53.2049 56.3352 54.7465 54.7936 54.7465 52.9094V39.7287L56.1982 40.7835C57.2697 41.56 58.7677 41.3208 59.544 40.2494C60.3204 39.1779 60.0812 37.6799 59.0098 36.9036L45.0599 26.7684C44.2414 26.1476 43.0819 26.1042 42.2068 26.7382L28.2154 36.9036C27.1439 37.6799 26.9047 39.1779 27.6812 40.2494C28.4575 41.3207 29.9555 41.5599 31.027 40.7835ZM22.875 7.665C28.1594 7.665 32.4431 11.9489 32.4431 17.2331C32.4431 22.5173 28.1593 26.8012 22.875 26.8012C17.5908 26.8012 13.307 22.5173 13.307 17.2331C13.307 11.9489 17.5908 7.665 22.875 7.665Z" fill="#F3C17E"/>
<path id="Vector_2" d="M26 41.5C27.1502 42.6502 29 43 30.5974 42.5C30.6009 45.371 30.5974 50.6951 30.5974 50.6951C30.5974 50.6951 30.6047 51.0782 30.5974 51.2004C30.5939 51.4156 30.5052 51.6207 30.3507 51.7707C30.1963 51.9206 29.9886 52.0032 29.7734 52.0004H13.0001C6.89338 52.0004 3.66672 48.8004 3.66672 42.7204C3.66672 35.9204 7.50672 28.0004 18.3334 28.0004H29.0001C30.5834 27.9895 32.1614 28.1868 33.6934 28.5871C33.8214 28.6217 34.4934 28.8537 34.4934 29.3871C34.4871 29.5974 34.4013 29.7975 34.2534 29.9471C33.035 30.9692 28.0238 33.7461 26 36.5C24.9389 37.9439 25.1606 40.6606 26 41.5Z" fill="#F3C17E"/>
</g>
</g>
</svg>
