<svg width="64" height="64" viewBox="0 0 64 64" fill="none" xmlns="http://www.w3.org/2000/svg">
<g id="Frame">
<g id="Group">
<path id="Vector" d="M38.4962 11.5877H41.8234L37.5683 7.33261V10.6598C37.5683 10.9059 37.6661 11.1419 37.8401 11.3159C38.0141 11.4899 38.2501 11.5877 38.4962 11.5877Z" fill="#F3C17E"/>
<path id="Subtract" fill-rule="evenodd" clip-rule="evenodd" d="M6.29384 57.7075C6.11983 57.5335 6.02208 57.2975 6.02208 57.0515V6.94846C6.02208 6.70239 6.11983 6.46639 6.29384 6.29239C6.46784 6.11838 6.70384 6.02063 6.94991 6.02063H35.7127V10.6598C35.7127 11.398 36.006 12.106 36.528 12.628C37.05 13.15 37.758 13.4433 38.4962 13.4433H43.1354V20.1079C41.7381 20.7605 40.4623 21.6466 39.3628 22.7281C37.7756 24.2831 36.6203 26.2243 36.0106 28.361C35.9558 27.9824 35.9261 27.6391 35.9122 27.333C35.8979 27.0099 35.7828 26.6994 35.5832 26.445C35.3835 26.1906 35.1092 26.005 34.7988 25.9143C34.4932 25.8191 34.1654 25.8221 33.8615 25.9227C33.5576 26.0234 33.2929 26.2168 33.1046 26.4756C30.451 30.0227 24.7318 38.9967 27.7454 47.0169L24.8515 49.8997C24.7628 49.9852 24.692 50.0875 24.6432 50.2006C24.5944 50.3137 24.5687 50.4354 24.5674 50.5586C24.5662 50.6818 24.5895 50.804 24.636 50.9181C24.6825 51.0322 24.7512 51.1359 24.8382 51.2231C24.9252 51.3104 25.0287 51.3794 25.1426 51.4262C25.2566 51.473 25.3787 51.4967 25.5019 51.4958C25.6251 51.4949 25.7469 51.4695 25.8602 51.421C25.9734 51.3726 26.0759 51.302 26.1616 51.2135L29.0639 48.3215C30.7309 48.9661 32.5021 49.2992 34.2894 49.3041C37.39 49.2341 40.4265 48.4082 43.1354 46.8982V57.0515C43.1354 57.2975 43.0377 57.5335 42.8637 57.7075C42.6896 57.8815 42.4537 57.9793 42.2076 57.9793H6.94991C6.70384 57.9793 6.46784 57.8815 6.29384 57.7075ZM38.4962 16.2268H10.6612C10.4152 16.2268 10.1792 16.3245 10.0052 16.4986C9.83117 16.6726 9.73341 16.9086 9.73341 17.1546C9.73341 17.4007 9.83117 17.6367 10.0052 17.8107C10.1792 17.9847 10.4152 18.0825 10.6612 18.0825H38.4962C38.7423 18.0825 38.9783 17.9847 39.1523 17.8107C39.3263 17.6367 39.4241 17.4007 39.4241 17.1546C39.4241 16.9086 39.3263 16.6726 39.1523 16.4986C38.9783 16.3245 38.7423 16.2268 38.4962 16.2268ZM34.7849 21.7938H10.6612C10.4152 21.7938 10.1792 21.8915 10.0052 22.0655C9.83117 22.2396 9.73341 22.4756 9.73341 22.7216C9.73341 22.9677 9.83117 23.2037 10.0052 23.3777C10.1792 23.5517 10.4152 23.6495 10.6612 23.6495H34.7849C35.031 23.6495 35.267 23.5517 35.441 23.3777C35.615 23.2037 35.7127 22.9677 35.7127 22.7216C35.7127 22.4756 35.615 22.2396 35.441 22.0655C35.267 21.8915 35.031 21.7938 34.7849 21.7938ZM28.2901 27.3608H10.6612C10.4152 27.3608 10.1792 27.4585 10.0052 27.6325C9.83117 27.8066 9.73341 28.0426 9.73341 28.2886C9.73341 28.5347 9.83117 28.7707 10.0052 28.9447C10.1792 29.1187 10.4152 29.2165 10.6612 29.2165H28.2901C28.5362 29.2165 28.7722 29.1187 28.9462 28.9447C29.1202 28.7707 29.2179 28.5347 29.2179 28.2886C29.2179 28.0426 29.1202 27.8066 28.9462 27.6325C28.7722 27.4585 28.5362 27.3608 28.2901 27.3608ZM25.5066 32.9278H10.6612C10.4152 32.9278 10.1792 33.0255 10.0052 33.1995C9.83117 33.3736 9.73341 33.6095 9.73341 33.8556C9.73341 34.1017 9.83117 34.3377 10.0052 34.5117C10.1792 34.6857 10.4152 34.7835 10.6612 34.7835H25.5066C25.7527 34.7835 25.9887 34.6857 26.1627 34.5117C26.3367 34.3377 26.4344 34.1017 26.4344 33.8556C26.4344 33.6095 26.3367 33.3736 26.1627 33.1995C25.9887 33.0255 25.7527 32.9278 25.5066 32.9278ZM10.0001 45.9999C10.0001 42.7043 12.7046 39.9999 16.0001 39.9999C19.2957 39.9999 22.0001 42.7043 22.0001 45.9999C22.0001 49.2954 19.2957 51.9999 16.0001 51.9999C12.7046 51.9999 10.0001 49.2954 10.0001 45.9999ZM11.4298 45.9999C11.4298 48.5199 13.4801 50.5702 16.0001 50.5702C17.0067 50.5702 17.9353 50.2391 18.6913 49.6855L12.3145 43.3086C11.7609 44.0646 11.4298 44.9932 11.4298 45.9999ZM13.3088 42.3143L19.6857 48.6911C20.2393 47.9351 20.5704 47.0065 20.5704 45.9999C20.5704 43.4799 18.5201 41.4296 16.0001 41.4296C14.9934 41.4296 14.0648 41.7607 13.3088 42.3143Z" fill="#F3C17E"/>
<path id="Vector_2" d="M48.0529 20.2498C45.3548 21.1108 42.806 21.9199 40.6804 24.0419C39.5574 25.1055 38.6854 26.4058 38.1275 27.8484C37.5697 29.291 37.34 30.8397 37.4552 32.3822C37.4861 32.594 37.4427 32.81 37.3325 32.9936C37.2223 33.1771 37.052 33.3169 36.8504 33.3892C36.6489 33.4615 36.4286 33.4619 36.2268 33.3903C36.0251 33.3187 35.8543 33.1795 35.7434 32.9964C34.8656 31.5406 34.3148 29.9115 34.129 28.2217C31.621 31.7215 27.3252 39.0087 29.2179 45.5462L49.0197 25.8205C49.1055 25.732 49.2079 25.6615 49.3212 25.613C49.4345 25.5646 49.5563 25.5392 49.6795 25.5383C49.8026 25.5374 49.9248 25.561 50.0387 25.6078C50.1527 25.6547 50.2562 25.7237 50.3432 25.8109C50.4302 25.8982 50.4989 26.0019 50.5454 26.1159C50.5919 26.23 50.6152 26.3522 50.614 26.4754C50.6127 26.5986 50.587 26.7203 50.5382 26.8335C50.4894 26.9466 50.4186 27.0489 50.3298 27.1343L30.5169 46.8749C36.5051 48.7389 42.0573 45.7532 45.2509 43.3816C43.5089 43.2155 41.8261 42.6617 40.326 41.7607C40.1449 41.6512 40.0068 41.4831 39.9344 41.2843C39.862 41.0855 39.8597 40.868 39.9279 40.6677C39.994 40.4664 40.1279 40.2941 40.3067 40.1805C40.4855 40.0668 40.6983 40.0186 40.9086 40.0442C40.968 40.0442 46.882 40.6696 50.7121 36.8441C52.1799 35.4164 53.4247 33.7763 54.4049 31.9785C53.2893 32.4218 52.1106 32.6858 50.9125 32.7607C50.7006 32.7755 50.49 32.7171 50.3159 32.5952C50.1419 32.4734 50.0149 32.2955 49.9562 32.0913C49.8976 31.8871 49.9108 31.6689 49.9936 31.4733C50.0765 31.2776 50.224 31.1163 50.4115 31.0164C52.4529 29.937 54.1965 28.3706 55.4877 26.4561C56.6913 24.6285 57.4872 22.5631 57.8213 20.4005C58.1554 18.2378 58.02 16.0285 57.4241 13.9229C55.098 18.0017 51.5175 19.1438 48.0529 20.2498Z" fill="#F3C17E"/>
</g>
</g>
</svg>
