<svg width="65" height="64" viewBox="0 0 65 64" fill="none" xmlns="http://www.w3.org/2000/svg">
<g id="Frame">
<g id="Group">
<path id="Vector" d="M58.368 17.0498L48.6378 27.9526H57.918C58.7917 27.9526 59.5 27.2443 59.5 26.3706V18.5659C59.5 17.8486 59.0223 17.2438 58.368 17.0498ZM24.5371 24.428L31.1806 16.9839H23.0848C24.0086 18.6026 24.5371 20.4748 24.5371 22.4683V24.428ZM35.4215 16.9839L25.6324 27.9526H32.8942L42.6833 16.9839H35.4215ZM46.9241 16.9839L37.135 27.9526H44.3969L54.186 16.9839H46.9241ZM13.4365 14.5317C9.06031 14.5317 5.5 18.092 5.5 22.4683V47.8862C5.5 48.7599 6.20833 49.4683 7.08203 49.4683H19.791C20.6647 49.4683 21.373 48.7599 21.373 47.8862V22.4683C21.373 18.092 17.8127 14.5317 13.4365 14.5317ZM13.4365 24.0503C12.5496 24.0503 11.8929 23.3254 11.8545 22.4683C11.8162 21.6139 12.609 20.8862 13.4365 20.8862C14.3234 20.8862 14.9802 21.6111 15.0186 22.4683C15.0568 23.3227 14.264 24.0503 13.4365 24.0503Z" fill="#F3C17E"/>
</g>
</g>
</svg>
