<svg width="64" height="64" viewBox="0 0 64 64" fill="none" xmlns="http://www.w3.org/2000/svg">
<g id="Frame">
<g id="Group">
<path id="Vector" fill-rule="evenodd" clip-rule="evenodd" d="M32 4C16.546 4 4 16.546 4 32C4 47.454 16.546 60 32 60C47.454 60 60 47.454 60 32C60 16.546 47.454 4 32 4ZM33 58.25V57C33 56.7348 32.8946 56.4804 32.7071 56.2929C32.5196 56.1054 32.2652 56 32 56C31.7348 56 31.4804 56.1054 31.2929 56.2929C31.1054 56.4804 31 56.7348 31 57V58.25C31 58.5152 31.1054 58.7696 31.2929 58.9571C31.4804 59.1446 31.7348 59.25 32 59.25C32.2652 59.25 32.5196 59.1446 32.7071 58.9571C32.8946 58.7696 33 58.5152 33 58.25ZM33 29.17V13.308C33 13.0428 32.8946 12.7884 32.7071 12.6009C32.5196 12.4134 32.2652 12.308 32 12.308C31.7348 12.308 31.4804 12.4134 31.2929 12.6009C31.1054 12.7884 31 13.0428 31 13.308V29.17C30.598 29.313 30.2312 29.54 29.9239 29.836C29.6166 30.132 29.376 30.4901 29.2182 30.8865C29.0603 31.2828 28.9888 31.7083 29.0084 32.1345C29.028 32.5607 29.1383 32.9778 29.3319 33.3579C29.5255 33.7381 29.798 34.0726 30.1311 34.3392C30.4643 34.6057 30.8504 34.7981 31.2638 34.9035C31.6772 35.009 32.1084 35.025 32.5285 34.9506C32.9486 34.8762 33.348 34.713 33.7 34.472L42.412 40.808C42.5177 40.8911 42.6391 40.9521 42.7689 40.9872C42.8986 41.0223 43.0342 41.0309 43.1674 41.0125C43.3006 40.994 43.4287 40.9489 43.544 40.8798C43.6594 40.8107 43.7596 40.7191 43.8387 40.6104C43.9179 40.5016 43.9742 40.3781 44.0045 40.2471C44.0348 40.1161 44.0383 39.9803 44.0149 39.8479C43.9915 39.7155 43.9416 39.5891 43.8683 39.4764C43.7949 39.3638 43.6996 39.267 43.588 39.192L34.876 32.856C35.0944 32.1182 35.0217 31.3248 34.6727 30.6391C34.3237 29.9534 33.725 29.4276 33 29.17ZM58.5 31H57C56.7348 31 56.4804 31.1054 56.2929 31.2929C56.1054 31.4804 56 31.7348 56 32C56 32.2652 56.1054 32.5196 56.2929 32.7071C56.4804 32.8946 56.7348 33 57 33H58.5C58.7652 33 59.0196 32.8946 59.2071 32.7071C59.3946 32.5196 59.5 32.2652 59.5 32C59.5 31.7348 59.3946 31.4804 59.2071 31.2929C59.0196 31.1054 58.7652 31 58.5 31ZM5.5 33H7C7.26522 33 7.51957 32.8946 7.70711 32.7071C7.89464 32.5196 8 32.2652 8 32C8 31.7348 7.89464 31.4804 7.70711 31.2929C7.51957 31.1054 7.26522 31 7 31H5.5C5.23478 31 4.98043 31.1054 4.79289 31.2929C4.60536 31.4804 4.5 31.7348 4.5 32C4.5 32.2652 4.60536 32.5196 4.79289 32.7071C4.98043 32.8946 5.23478 33 5.5 33ZM31 5.5V7C31 7.26522 31.1054 7.51957 31.2929 7.70711C31.4804 7.89464 31.7348 8 32 8C32.2652 8 32.5196 7.89464 32.7071 7.70711C32.8946 7.51957 33 7.26522 33 7V5.5C33 5.23478 32.8946 4.98043 32.7071 4.79289C32.5196 4.60536 32.2652 4.5 32 4.5C31.7348 4.5 31.4804 4.60536 31.2929 4.79289C31.1054 4.98043 31 5.23478 31 5.5Z" fill="#F3C17E"/>
</g>
</g>
</svg>
