<svg width="64" height="64" viewBox="0 0 64 64" fill="none" xmlns="http://www.w3.org/2000/svg">
<g id="Frame">
<g id="Group">
<path id="Vector" fill-rule="evenodd" clip-rule="evenodd" d="M46.6925 46.2637C42.7338 46.2637 39.5125 49.485 39.5125 53.445C39.5125 57.4037 42.7338 60.6262 46.6925 60.6262C50.6525 60.6262 53.8725 57.405 53.8725 53.445C53.8725 49.4862 50.6538 46.2637 46.6925 46.2637ZM45.7563 16.295L52.0213 18.6937L52.675 16.9875C52.8488 16.5337 52.835 16.0375 52.635 15.59C52.435 15.1425 52.075 14.8 51.6225 14.6262L48.77 13.5337C47.8288 13.1737 46.77 13.645 46.41 14.5875L45.7563 16.295ZM37.39 38.1412L45.2175 17.695L51.475 20.0912L43.3725 40.4325L37.39 38.1412ZM47.8738 22.2375C48.0225 21.85 47.8288 21.4175 47.4425 21.2687C47.3505 21.2333 47.2524 21.2164 47.1539 21.219C47.0554 21.2216 46.9583 21.2436 46.8683 21.2838C46.7783 21.324 46.6971 21.3815 46.6294 21.4532C46.5617 21.5248 46.5088 21.6091 46.4738 21.7012L41.5763 34.49C41.4275 34.8762 41.6213 35.31 42.0075 35.4587C42.0963 35.4925 42.1875 35.5087 42.2763 35.5087C42.5775 35.5087 42.8625 35.325 42.9763 35.0262L47.8738 22.2375ZM37.3675 39.7375L38.255 45.31L42.375 41.655L37.3675 39.7375ZM23.1275 52.2462V45.555H16.4363V52.2462H23.1275ZM19.7038 50.8475C19.5638 50.9887 19.3725 51.0675 19.1738 51.0675C18.975 51.0675 18.7838 50.9887 18.6438 50.8475L17.0288 49.2325C16.7363 48.94 16.7363 48.465 17.0288 48.1712C17.1694 48.0308 17.36 47.9519 17.5588 47.9519C17.7575 47.9519 17.9481 48.0308 18.0888 48.1712L19.1738 49.2562L21.475 46.955C21.7675 46.6625 22.2425 46.6625 22.5363 46.955C22.8288 47.2475 22.8288 47.7225 22.5363 48.0162L19.7038 50.8475ZM37.4763 47.4862C37.5588 47.5162 37.6438 47.53 37.7288 47.53C37.91 47.53 38.0875 47.465 38.2275 47.3412L44.295 41.9587C44.3838 41.88 44.45 41.7825 44.4925 41.675H44.4938L45.945 38.0325V44.7987C41.5075 45.18 38.0138 48.9112 38.0138 53.445C38.0138 54.05 38.0763 54.6412 38.195 55.2112H12.315C10.7775 55.2112 9.52625 53.96 9.52625 52.4225V6.16497C9.52625 4.62747 10.7775 3.37622 12.315 3.37622H43.1538C44.6925 3.37622 45.9438 4.62747 45.9438 6.16497V12.7212C45.5257 13.0796 45.2039 13.5368 45.0075 14.0512L44.085 16.4587L35.7213 38.305C35.675 38.425 35.66 38.5587 35.6813 38.6912L36.9875 46.8987C37.0087 47.0315 37.0652 47.1562 37.1512 47.2596C37.2372 47.3629 37.3495 47.4412 37.4763 47.4862ZM24.6275 44.8062V52.9975C24.6275 53.4112 24.2925 53.7475 23.8775 53.7475H15.6863C15.2725 53.7475 14.9363 53.4112 14.9363 52.9975V44.8062C14.9363 44.3925 15.2725 44.0562 15.6863 44.0562H23.8775C24.2925 44.055 24.6275 44.3912 24.6275 44.8062ZM33.2738 41.0812C33.6888 41.0812 34.0238 40.7462 34.0238 40.3312C34.0238 39.9175 33.6888 39.5812 33.2738 39.5812H15.6863C15.2725 39.5812 14.9363 39.9175 14.9363 40.3312C14.9363 40.7462 15.2725 41.0812 15.6863 41.0812H33.2738ZM32.6375 33.7687C33.0513 33.7687 33.3875 33.4325 33.3875 33.0187C33.3875 32.605 33.0513 32.2687 32.6375 32.2687H15.6863C15.2725 32.2687 14.9363 32.605 14.9363 33.0187C14.9363 33.4325 15.2725 33.7687 15.6863 33.7687H32.6375ZM35.6938 26.455C36.1075 26.455 36.4438 26.12 36.4438 25.705C36.4438 25.2912 36.1075 24.955 35.6938 24.955H15.6863C15.2725 24.955 14.9363 25.2912 14.9363 25.705C14.9363 26.12 15.2725 26.455 15.6863 26.455H35.6938ZM38.4988 19.1425C38.9138 19.1425 39.2488 18.8062 39.2488 18.3925C39.2488 17.9775 38.9138 17.6425 38.4988 17.6425H15.6863C15.2725 17.6425 14.9363 17.9787 14.9363 18.3925C14.9363 18.8062 15.2725 19.1425 15.6863 19.1425H38.4988ZM40.9263 11.83C41.3413 11.83 41.6763 11.4937 41.6763 11.08C41.6763 10.6662 41.3413 10.33 40.9263 10.33H15.6863C15.2725 10.33 14.9363 10.6662 14.9363 11.08C14.9363 11.495 15.2725 11.83 15.6863 11.83H40.9263ZM25.6025 48.9712C25.6025 49.385 25.9375 49.7212 26.3525 49.7212H38.04C38.4538 49.7212 38.79 49.385 38.79 48.9712C38.79 48.5562 38.4538 48.2212 38.04 48.2212H26.3525C25.9375 48.22 25.6025 48.5562 25.6025 48.9712ZM45.7075 54.6787L49.765 50.62C50.0575 50.3275 50.5325 50.3275 50.8263 50.62C50.9667 50.7606 51.0456 50.9512 51.0456 51.15C51.0456 51.3487 50.9667 51.5393 50.8263 51.68L46.2375 56.2687C46.0968 56.4091 45.9063 56.4881 45.7075 56.4887C45.5075 56.4887 45.3175 56.41 45.1763 56.2687L42.56 53.6525C42.2675 53.36 42.2675 52.885 42.56 52.5912C42.8538 52.2987 43.3288 52.2987 43.6213 52.5912L45.7075 54.6787Z" fill="#F3C17E"/>
</g>
</g>
</svg>
