<svg width="64" height="64" viewBox="0 0 64 64" fill="none" xmlns="http://www.w3.org/2000/svg">
<g id="Frame">
<g id="Group">
<path id="Vector" d="M51.9014 10.2614H50.2581V50.6337C50.2581 53.3157 48.0748 55.4989 45.3928 55.4989H15.5023V56.9955C15.5023 58.7092 16.8933 60.1001 18.607 60.1001H51.8955C53.6092 60.1001 55.0001 58.7092 55.0001 56.9955V13.3661C55.0001 11.6523 53.6151 10.2614 51.9014 10.2614Z" fill="#F3C17E"/>
<path id="Vector_2" d="M28.7425 53.7384H45.3868C47.1005 53.7384 48.4914 52.3475 48.4914 50.6338V7.00431C48.4914 5.29059 47.1005 3.89966 45.3868 3.89966H23.2082V4.92672C23.2198 5.03236 23.2258 5.14387 23.2258 5.25538V13.7594C23.2258 16.1715 21.2655 18.1318 18.8534 18.1318H10.3494C10.2613 18.1318 10.1674 18.1259 10.0794 18.12H8.99951V50.6338C8.99951 52.3475 10.3904 53.7384 12.1042 53.7384H28.7425ZM29.3705 43.1861H18.5189C17.709 43.1861 17.0517 42.5288 17.0517 41.7189C17.0517 40.9089 17.709 40.2517 18.5189 40.2517H29.3764C30.1863 40.2517 30.8436 40.9089 30.8436 41.7189C30.8436 42.5288 30.1804 43.1861 29.3705 43.1861ZM40.228 35.6975H18.5189C17.709 35.6975 17.0517 35.0401 17.0517 34.2302C17.0517 33.4203 17.709 32.763 18.5189 32.763H40.228C41.0379 32.763 41.6952 33.4203 41.6952 34.2302C41.6952 35.0401 41.0379 35.6975 40.228 35.6975ZM18.5189 24.8106H40.228C41.0379 24.8106 41.6952 25.4679 41.6952 26.2778C41.6952 27.0877 41.0379 27.745 40.228 27.745H18.5189C17.709 27.745 17.0517 27.0877 17.0517 26.2778C17.0517 25.4679 17.709 24.8106 18.5189 24.8106Z" fill="#F3C17E"/>
<path id="Vector_3" d="M10.3492 16.3713H18.8767C20.297 16.3596 21.4473 15.2093 21.459 13.789V5.25561C21.459 4.46917 20.8135 3.94684 20.1445 3.94684C19.8217 3.94684 19.4989 4.06422 19.2289 4.33419L9.4219 14.1411C8.60025 14.9628 9.18127 16.3713 10.3492 16.3713Z" fill="#F3C17E"/>
</g>
</g>
</svg>
