<svg width="64" height="64" viewBox="0 0 64 64" fill="none" xmlns="http://www.w3.org/2000/svg">
<g id="Frame">
<g id="Group">
<path id="Vector" d="M23.482 48.858C21.8481 50.3494 19.7157 51.1763 17.5035 51.1763C15.2913 51.1763 13.1589 50.3494 11.525 48.858C8.781 50.444 4.569 55.085 6.823 58.439C7.16823 58.9212 7.62327 59.3142 8.1505 59.5857C8.67773 59.8571 9.262 59.9991 9.855 60H25.142C25.7349 59.9993 26.3191 59.8574 26.8464 59.5861C27.3736 59.3148 27.8287 58.922 28.174 58.44C30.425 55.09 26.212 50.444 23.482 48.858Z" fill="#F3C17E"/>
<path id="Vector_2" d="M24.337 42.367C24.026 33.294 10.949 33.315 10.65 42.367C10.951 51.379 24.007 51.459 24.337 42.367ZM39.664 42.367C39.991 51.454 53.047 51.385 53.351 42.367C53.054 33.319 39.977 33.291 39.664 42.367Z" fill="#F3C17E"/>
<path id="Vector_3" d="M52.486 48.858C50.8537 50.3531 48.7205 51.1824 46.507 51.1824C44.2935 51.1824 42.1603 50.3531 40.528 48.858C37.801 50.444 33.569 55.087 35.828 58.439C36.1729 58.9207 36.6275 59.3135 37.1542 59.5849C37.6808 59.8564 38.2645 59.9986 38.857 60H54.145C54.7379 59.9992 55.3221 59.8573 55.8493 59.5861C56.3766 59.3148 56.8317 58.922 57.177 58.44C59.427 55.086 55.223 50.446 52.486 48.858ZM28.7 22.1H35.966L42.407 27.259C42.5536 27.3729 42.7291 27.4436 42.9137 27.4632C43.0983 27.4828 43.2847 27.4505 43.4519 27.37C43.6192 27.2895 43.7607 27.1639 43.8605 27.0074C43.9603 26.8509 44.0145 26.6696 44.017 26.484V22.1H46.612C47.3494 22.0979 48.0561 21.804 48.5775 21.2825C49.099 20.7611 49.3929 20.0544 49.395 19.317V6.783C49.3945 6.04506 49.1011 5.33751 48.5793 4.81571C48.0575 4.29391 47.3499 4.00053 46.612 4H28.7C27.9621 4.00053 27.2545 4.29391 26.7327 4.81571C26.2109 5.33751 25.9175 6.04506 25.917 6.783V19.317C25.9191 20.0544 26.213 20.7611 26.7344 21.2825C27.2559 21.804 27.9625 22.0979 28.7 22.1Z" fill="#F3C17E"/>
<path id="Vector_4" d="M23.93 19.317V13.045H17.11C16.446 13.0458 15.8094 13.31 15.3399 13.7796C14.8705 14.2493 14.6065 14.886 14.606 15.55V26.096C14.6065 26.7602 14.8706 27.397 15.3403 27.8667C15.8099 28.3364 16.4468 28.6005 17.111 28.601H19.129V32.139C19.1328 32.3251 19.1883 32.5066 19.2891 32.6631C19.3899 32.8196 19.5322 32.9451 19.7002 33.0255C19.8681 33.106 20.0551 33.1382 20.2402 33.1187C20.4254 33.0992 20.6015 33.0287 20.749 32.915L26.126 28.601H32.189C32.8532 28.6005 33.49 28.3364 33.9597 27.8667C34.4294 27.397 34.6935 26.7602 34.694 26.096V24.088H28.7C27.4349 24.0875 26.2218 23.5846 25.3273 22.6899C24.4329 21.7953 23.9303 20.5821 23.93 19.317Z" fill="#F3C17E"/>
</g>
</g>
</svg>
