<svg width="64" height="64" viewBox="0 0 64 64" fill="none" xmlns="http://www.w3.org/2000/svg">
<g id="Frame">
<g id="Group">
<path id="Vector" d="M51.83 42.01C60.0568 33.7831 60.0566 20.3968 51.83 12.1699C43.6031 3.94297 30.217 3.94297 21.9902 12.1699C15.0108 19.1493 13.9538 29.5295 18.8163 37.6353C18.8163 37.6353 19.1656 38.2213 18.6938 38.6927L7.9287 49.4578C5.786 51.6003 5.27591 54.5964 7.17605 56.4969L7.50321 56.8237C9.40335 58.7242 12.3996 58.2142 14.5421 56.0715L25.2846 45.329C25.779 44.8347 26.3648 45.1839 26.3648 45.1839C34.4704 50.0463 44.8506 48.9894 51.83 42.01ZM25.8857 38.1144C19.8068 32.0355 19.807 22.1447 25.8858 16.0658C31.9647 9.98714 41.8556 9.98697 47.9342 16.0658C54.0131 22.1445 54.0131 32.0355 47.9342 38.1144C41.8554 44.1929 31.9647 44.1929 25.8857 38.1144Z" fill="#F3C17E"/>
<path id="Vector_2" d="M27.2322 25.8378C26.9493 25.8378 26.6616 25.7822 26.3844 25.6651C25.2769 25.1964 24.7588 23.9186 25.2275 22.811C28.1735 15.8492 36.2339 12.5821 43.1955 15.528C44.303 15.9967 44.8211 17.2746 44.3524 18.3822C43.8835 19.4898 42.6061 20.0076 41.4981 19.539C36.7483 17.5292 31.2484 19.7583 29.2387 24.5081C28.8871 25.3388 28.0807 25.8378 27.2322 25.8378Z" fill="#F3C17E"/>
</g>
</g>
</svg>
