<svg width="64" height="64" viewBox="0 0 64 64" fill="none" xmlns="http://www.w3.org/2000/svg">
<g id="Frame">
<g id="Group">
<path id="Vector" d="M32 41.0001C33.2889 41.0001 35.1017 37.5147 35.3299 32.0001H28.67C28.8982 37.5147 30.711 41.0001 32 41.0001ZM21.9886 29.75H26.398C26.5225 26.6855 27.1554 23.6379 28.2541 21.4873C24.8613 22.8462 22.4118 25.9887 21.9886 29.75ZM35.7458 21.4873C36.8445 23.638 37.4774 26.6855 37.602 29.75H42.0113C41.5882 25.9887 39.1387 22.8462 35.7458 21.4873ZM32 20.75C30.711 20.75 28.8982 24.2354 28.67 29.75H35.3299C35.1017 24.2354 33.289 20.75 32 20.75ZM21.9886 32.0001C22.4118 35.7614 24.8613 38.9039 28.2541 40.2628C27.1554 38.1121 26.5225 35.0646 26.398 32.0001H21.9886Z" fill="#F3C17E"/>
<path id="Vector_2" d="M47.7501 11.7499H45.5V9.42229C45.5 6.61291 42.8501 4.41662 39.9947 5.13845L15.9932 11.7758C13.6328 11.912 11.7498 13.8559 11.7498 16.2498V54.5001C11.7498 56.9819 13.7681 59 16.2499 59H47.7501C50.2319 59 52.25 56.9819 52.25 54.5001V16.2498C52.25 13.768 50.2319 11.7499 47.7501 11.7499ZM40.5726 7.3127C41.8855 6.97762 43.2499 8.04107 43.2499 9.42219V11.7498H24.5289L40.5726 7.3127ZM37.625 52.2501H25.2499C25.1021 52.2502 24.9558 52.2211 24.8193 52.1646C24.6827 52.1081 24.5587 52.0253 24.4542 51.9208C24.3497 51.8163 24.2668 51.6922 24.2103 51.5557C24.1538 51.4192 24.1248 51.2728 24.1249 51.125C24.1248 50.9773 24.1538 50.8309 24.2103 50.6944C24.2668 50.5579 24.3497 50.4338 24.4542 50.3293C24.5587 50.2248 24.6827 50.1419 24.8193 50.0854C24.9558 50.0289 25.1021 49.9999 25.2499 50H37.6249C37.7727 49.9999 37.919 50.0289 38.0556 50.0854C38.1921 50.1419 38.3162 50.2248 38.4207 50.3293C38.5252 50.4338 38.608 50.5579 38.6645 50.6944C38.721 50.8309 38.7501 50.9773 38.75 51.125C38.7501 51.2728 38.721 51.4191 38.6645 51.5557C38.608 51.6922 38.5252 51.8163 38.4207 51.9207C38.3162 52.0252 38.1922 52.1081 38.0557 52.1646C37.9191 52.2211 37.7728 52.2502 37.625 52.2501ZM42.125 47.7511H20.75C20.6022 47.7512 20.4559 47.7221 20.3193 47.6656C20.1828 47.6091 20.0587 47.5263 19.9542 47.4218C19.8497 47.3173 19.7669 47.1932 19.7104 47.0567C19.6539 46.9202 19.6248 46.7738 19.6249 46.626C19.6248 46.4783 19.6539 46.3319 19.7104 46.1954C19.7669 46.0589 19.8497 45.9348 19.9542 45.8303C20.0587 45.7258 20.1828 45.6429 20.3193 45.5864C20.4559 45.5299 20.6022 45.5009 20.75 45.501H42.125C42.2728 45.5009 42.4191 45.5299 42.5556 45.5864C42.6922 45.6429 42.8162 45.7258 42.9207 45.8303C43.0252 45.9348 43.1081 46.0589 43.1646 46.1954C43.2211 46.3319 43.2501 46.4783 43.25 46.626C43.2501 46.7738 43.2211 46.9202 43.1646 47.0567C43.1081 47.1932 43.0252 47.3173 42.9207 47.4218C42.8162 47.5263 42.6922 47.6091 42.5556 47.6656C42.4191 47.7221 42.2728 47.7512 42.125 47.7511ZM31.9999 43.25C25.1763 43.25 19.6249 37.6986 19.6249 30.8749C19.6249 24.0513 25.1763 18.4999 31.9999 18.4999C38.8236 18.4999 44.375 24.0513 44.375 30.8749C44.375 37.6986 38.8236 43.25 31.9999 43.25Z" fill="#F3C17E"/>
<path id="Vector_3" d="M35.7458 40.2627C39.1386 38.9038 41.5883 35.7612 42.0113 32H37.6019C37.4774 35.0645 36.8445 38.112 35.7458 40.2627Z" fill="#F3C17E"/>
</g>
</g>
</svg>
