<svg width="40" height="40" viewBox="0 0 40 40" fill="none" xmlns="http://www.w3.org/2000/svg">
<path d="M38.6117 2.87268L12.2915 1.14888C11.2236 1.07894 10.3367 1.39901 10.3057 1.87196L8.05576 36.2255C8.02473 36.6992 8.86242 37.1315 9.93032 37.2015L36.2505 38.9253C36.6873 38.9539 37.0757 38.614 37.1043 38.1764L39.3606 3.72646C39.3892 3.28966 39.0486 2.90129 38.6117 2.87268Z" fill="white"/>
<path d="M38.6117 2.87268L12.2915 1.14888C11.2236 1.07894 10.3367 1.39901 10.3057 1.87196L8.05576 36.2255C8.02473 36.6992 8.86242 37.1315 9.93032 37.2015L36.2505 38.9253C36.6873 38.9539 37.0757 38.614 37.1043 38.1764L39.3606 3.72646C39.3892 3.28966 39.0485 2.90129 38.6117 2.87268ZM28.849 29.4341C29.233 29.4592 29.5245 29.7907 29.4993 30.1755L29.4862 30.3751C29.461 30.7592 29.1288 31.0505 28.7447 31.0254L17.2735 30.2741C17.0889 30.262 16.9167 30.1771 16.7948 30.038C16.6728 29.899 16.6111 29.7172 16.6232 29.5326L16.6362 29.3331C16.6614 28.949 16.9936 28.6576 17.3777 28.6828L28.849 29.4341ZM17.9543 20.1793C18.0536 18.6633 18.751 17.2488 19.8932 16.2471C21.0354 15.2453 22.5287 14.7383 24.0447 14.8376C25.5607 14.9369 26.9751 15.6343 27.9769 16.7765C28.9787 17.9187 29.4857 19.412 29.3864 20.928C29.2871 22.444 28.5897 23.8584 27.4475 24.8602C26.3053 25.862 24.812 26.369 23.296 26.2697C21.78 26.1704 20.3655 25.4729 19.3638 24.3308C18.362 23.1886 17.855 21.6953 17.9543 20.1793ZM30.4505 32.4546C30.8873 32.4832 31.218 32.8604 31.1894 33.2979L31.1888 33.307C31.1602 33.7438 30.783 34.0745 30.3462 34.0459L15.2917 33.06C14.8549 33.0314 14.5241 32.6542 14.5527 32.2174L14.5533 32.2084C14.5819 31.7716 14.9591 31.4408 15.3959 31.4694L30.4505 32.4546ZM14.105 11.165C16.3237 8.89537 20.4716 7.14988 24.5308 7.41574C29.4199 7.73594 33.7984 11.0722 34.4137 12.5329C34.8587 13.152 34.6908 14.0532 34.036 14.4898C34.0204 14.4963 34.0119 14.5109 33.9963 14.5174C33.3959 14.9092 32.5955 14.7736 32.14 14.2219C30.2641 11.9155 27.3285 10.3135 23.7946 10.2265C20.7698 10.2174 18.087 11.2927 16.0989 13.1713C15.5753 13.6589 14.7716 13.6895 14.2198 13.2222C14.2053 13.2137 14.1987 13.1981 14.1841 13.1896C13.9409 12.977 13.786 12.6871 13.7299 12.3884C13.6878 12.1694 13.6999 11.9433 13.7653 11.7301C13.8307 11.5168 13.9473 11.3228 14.105 11.165ZM36.3741 37.4086C36.3455 37.8454 35.9571 38.186 35.5203 38.1574L9.20083 36.4336C8.77608 36.4058 8.37938 36.3193 8.07022 36.1894L8.45212 35.7629C8.80608 35.5667 9.38566 35.4708 10.0416 35.5138L36.3852 37.2391L36.3741 37.4086Z" fill="#A07944"/>
<path d="M29.022 0.159371L2.9146 3.91842C1.85533 4.07094 1.05378 4.5676 1.12133 5.03672L6.0277 39.1125C6.09535 39.5824 7.00435 39.832 8.06362 39.6794L34.171 35.9204C34.6043 35.858 34.9139 35.4451 34.8514 35.0111L29.9312 0.839752C29.8688 0.406484 29.4552 0.096987 29.022 0.159371Z" fill="white"/>
<path d="M29.022 0.159371L2.9146 3.91842C1.85533 4.07094 1.05378 4.5676 1.12133 5.03672L6.0277 39.1125C6.09535 39.5824 7.00435 39.832 8.06362 39.6794L34.171 35.9204C34.6043 35.858 34.9139 35.4451 34.8514 35.0111L29.9312 0.839752C29.8688 0.406484 29.4552 0.0969873 29.022 0.159371ZM24.9659 28.1659C25.3468 28.1111 25.7005 28.3751 25.7555 28.7568L25.784 28.9548C25.8389 29.3357 25.5741 29.6895 25.1931 29.7444L13.8146 31.3827C13.6316 31.4091 13.4455 31.3616 13.2974 31.2508C13.1494 31.14 13.0514 30.9749 13.025 30.7918L12.9965 30.5939C12.9416 30.2129 13.2064 29.8591 13.5874 29.8043L24.9659 28.1659ZM12.3921 21.3654C12.1756 19.8617 12.5653 18.3336 13.4755 17.1172C14.3857 15.9008 15.7419 15.0958 17.2456 14.8792C18.7493 14.6627 20.2775 15.0524 21.4939 15.9626C22.7103 16.8728 23.5153 18.229 23.7318 19.7327C23.9483 21.2364 23.5586 22.7646 22.6484 23.981C21.7382 25.1974 20.3821 26.0024 18.8783 26.2189C17.3746 26.4354 15.8464 26.0457 14.63 25.1355C13.4136 24.2253 12.6086 22.8692 12.3921 21.3654ZM27.1576 30.7898C27.5909 30.7274 27.9926 31.028 28.0551 31.462L28.0563 31.4709C28.1187 31.9042 27.8182 32.3058 27.3849 32.3682L12.4521 34.5183C12.0189 34.5807 11.6172 34.2802 11.5548 33.8469L11.5535 33.8379C11.4911 33.4047 11.7917 33.003 12.225 32.9406L27.1576 30.7898ZM6.7611 13.3427C8.46224 10.6631 12.1592 8.09717 16.1856 7.51743C21.0352 6.81916 26.0092 9.17738 26.9134 10.4792C27.4769 10.9928 27.4991 11.9092 26.9487 12.4718C26.9349 12.4815 26.9295 12.4975 26.9157 12.5071C26.4092 13.0146 25.5981 13.0476 25.0383 12.602C22.7258 10.7337 19.5223 9.7736 16.0469 10.4197C13.0857 11.0366 10.6834 12.6437 9.12695 14.893C8.71561 15.4784 7.93561 15.6746 7.2991 15.3316C7.28308 15.3263 7.27346 15.3124 7.25744 15.3071C6.97549 15.1494 6.76388 14.8978 6.64724 14.6172C6.56072 14.4116 6.52586 14.1879 6.54571 13.9658C6.56556 13.7436 6.63951 13.5297 6.7611 13.3427ZM33.9781 34.411C34.0404 34.8442 33.7309 35.2579 33.2977 35.3202L7.19105 39.0792C6.76974 39.1398 6.36372 39.1373 6.03438 39.0742L6.31977 38.5779C6.62548 38.3127 7.17268 38.099 7.82333 38.0053L33.9539 34.2429L33.9781 34.411Z" fill="#F3C17E"/>
</svg>
