<svg width="64" height="64" viewBox="0 0 64 64" fill="none" xmlns="http://www.w3.org/2000/svg">
<path d="M53.6671 42.6549L35.7316 26.7279L32.2268 30.2326L48.1539 48.1681C48.5072 48.5695 48.9392 48.8943 49.423 49.1223C49.9068 49.3502 50.4322 49.4766 50.9667 49.4935C51.5013 49.5105 52.0336 49.4176 52.5309 49.2207C53.0282 49.0239 53.4798 48.7271 53.8579 48.3489C54.2355 47.9711 54.5316 47.5199 54.7277 47.023C54.9238 46.5262 55.0157 45.9943 54.9978 45.4605C54.9799 44.9266 54.8526 44.4022 54.6237 43.9196C54.3947 43.4369 54.0692 43.0065 53.6671 42.6549ZM32.2168 46.5814C32.2168 44.7839 30.7607 43.3378 28.9731 43.3378H15.7575C13.97 43.3378 12.5139 44.7839 12.5139 46.5814V48.0275H32.2168V46.5814ZM32.4879 49.0317H12.2427C10.4552 49.0317 8.99909 50.4778 8.99909 52.2754V54.8362C8.99909 55.4487 9.5012 55.9508 10.1138 55.9508H34.6169C35.2395 55.9508 35.7316 55.4487 35.7316 54.8362V52.2754C35.7316 50.4778 34.2755 49.0317 32.4879 49.0317ZM18.5643 23.2995L28.8145 13.0503L38.3908 22.6266L28.1406 32.8757L18.5643 23.2995ZM39.3006 22.1265C40.2446 23.0695 41.77 23.0695 42.713 22.1265C42.9372 21.9026 43.1151 21.6366 43.2365 21.3439C43.3579 21.0511 43.4204 20.7373 43.4204 20.4203C43.4204 20.1034 43.3579 19.7896 43.2365 19.4968C43.1151 19.2041 42.9372 18.9381 42.713 18.7142L32.749 8.75023C32.5257 8.52565 32.2597 8.34796 31.9667 8.22759C31.6737 8.10722 31.3596 8.0466 31.0429 8.04928C30.7261 8.0466 30.412 8.10722 30.119 8.22759C29.826 8.34796 29.56 8.52565 29.3367 8.75023C28.3937 9.6942 28.3937 11.2206 29.3367 12.1626L39.3006 22.1265ZM24.2191 37.208C24.4431 37.4322 24.709 37.6102 25.0018 37.7316C25.2946 37.8529 25.6084 37.9154 25.9253 37.9154C26.2422 37.9154 26.5561 37.8529 26.8488 37.7316C27.1416 37.6102 27.4076 37.4322 27.6315 37.208C27.8556 36.9841 28.0334 36.7182 28.1547 36.4255C28.276 36.1328 28.3384 35.8191 28.3384 35.5023C28.3384 35.1855 28.276 34.8718 28.1547 34.5791C28.0334 34.2864 27.8556 34.0205 27.6315 33.7966L17.6676 23.8327C17.2103 23.404 16.6042 23.17 15.9775 23.1801C15.3508 23.1902 14.7526 23.4437 14.3094 23.8869C13.8662 24.3301 13.6127 24.9283 13.6026 25.555C13.5925 26.1817 13.8265 26.7878 14.2552 27.2451L24.2191 37.208Z" fill="white"/>
</svg>
