<svg width="64" height="64" viewBox="0 0 64 64" fill="none" xmlns="http://www.w3.org/2000/svg">
<path d="M18.96 16.8145C16.2255 16.8145 14.0145 14.6036 14.0145 11.869C14.0145 9.1344 16.2254 6.92352 18.96 6.92352C21.6946 6.92352 23.9055 9.1344 23.9055 11.869C23.9055 14.6036 21.6945 16.8145 18.96 16.8145ZM15.9927 57.1345C14.7709 57.1345 13.7819 56.1454 13.7819 54.9236V40.96H18.2037V54.9236C18.2036 56.1455 17.2145 57.1345 15.9927 57.1345ZM21.8109 57.1345C20.589 57.1345 19.6 56.1454 19.6 54.9236V40.96H24.0219V54.9236C24.0219 56.1455 23.0327 57.1345 21.8109 57.1345Z" fill="white"/>
<path d="M53.6507 33.0473C53.6507 35.3164 51.8471 37.12 49.578 37.12C47.309 37.12 45.5052 35.3164 45.5052 33.0473C45.5052 30.7782 47.3089 28.9745 49.578 28.9745C51.8471 28.9745 53.6507 30.7782 53.6507 33.0473Z" fill="white"/>
<path d="M30.1309 31.4765C29.6654 29.9056 29.3164 28.451 28.8509 26.7056C28.4436 25.2511 27.9781 23.9128 27.5709 22.6328C26.8727 20.131 24.6036 18.3273 21.9854 18.3273H15.8762C13.2581 18.3273 10.9307 20.0728 10.2907 22.6328C9.82524 24.2037 9.30162 25.8328 8.77799 27.5783C8.07987 29.7892 7.32349 32.0583 6.74162 34.2692C6.50887 35.2001 6.97437 36.1311 7.84712 36.422C8.02162 36.4801 8.25437 36.5383 8.48712 36.5383C9.30162 36.5383 9.99987 36.0147 10.2326 35.2002L13.0254 26.0075L13.4326 24.4947C13.4907 24.2038 13.7235 24.0292 14.0145 24.0292H14.1309C14.4217 24.1456 14.6545 24.4365 14.5381 24.7273C14.3054 25.6582 13.84 27.6946 13.3162 30.0801C12.3854 34.0365 11.2799 38.9237 10.7562 41.3092C10.6981 41.542 10.7562 41.7165 10.8726 41.8911C10.989 42.0075 11.1635 42.1238 11.3381 42.1238H26.2326C26.4071 42.1238 26.5817 42.0657 26.6981 41.8911C26.8145 41.7166 26.8726 41.542 26.8145 41.3092C26.2909 38.9237 25.1854 34.0365 24.2545 30.0801C23.6726 27.6946 23.2072 25.6582 23.0326 24.7273C22.9745 24.4365 23.149 24.0873 23.4399 24.0292H23.6144C23.9052 24.0292 24.138 24.2037 24.1962 24.4947L24.6035 26.0075L26.8726 33.0475C27.1635 33.9202 28.0945 34.4438 29.0254 34.153C29.2692 34.0936 29.4449 33.9941 29.5686 33.9002C30.1756 33.4403 30.3709 32.4901 30.1309 31.4765Z" fill="white"/>
<path d="M55.978 40.3781C55.5125 39.5636 54.7562 38.8654 53.8835 38.5162C53.3017 38.2835 52.7199 38.1671 52.0799 38.2254C51.0908 38.2254 48.9963 38.2254 48.0654 38.109C48.0073 38.109 44.9818 38.109 43.5854 35.4326C43.2363 34.7345 42.5382 34.3854 41.7818 34.5017C40.909 34.6762 40.3854 35.549 40.5599 36.3636C40.5599 36.48 40.618 36.5964 40.6763 36.7127C41.549 38.7491 43.2944 40.2619 45.4472 40.8436V55.2727C45.4472 56.1455 46.029 56.9019 46.8435 57.0764C47.7744 57.3091 48.7054 56.6691 48.938 55.7382C48.9962 55.6219 48.9962 55.4474 48.9962 55.331V47.5929H50.0434V55.3892C50.0434 56.3784 50.8579 57.1347 51.7889 57.1347C52.7199 57.1347 53.5344 56.3202 53.5344 55.3892V42.3564C53.5925 42.1236 53.8253 42.1236 53.9417 42.5309C54.2325 43.2872 54.4653 43.9854 54.5235 46.1964C54.5817 46.8945 55.1635 47.4764 55.8617 47.4764H56.0362C56.7925 47.4182 57.3743 46.7782 57.3162 46.0219C57.1999 43.9855 57.1999 42.5891 55.978 40.3781Z" fill="white"/>
<path d="M34.9999 20.9999L34.9999 56.9999" stroke="white" stroke-linecap="round" stroke-dasharray="4 4"/>
</svg>
