<svg width="46" height="46" viewBox="0 0 46 46" fill="none" xmlns="http://www.w3.org/2000/svg">
<g id="Frame" clip-path="url(#clip0_1_64)">
<g id="Group">
<path id="Vector" d="M40.6723 4.1687H5.32773C2.38086 4.1687 0 6.55854 0 9.49644V31.4722C0 34.4101 2.38086 36.791 5.32773 36.791H16.8188L21.0414 41.0136C22.1285 42.1007 23.8895 42.1007 24.9766 41.0136L29.1992 36.791H40.6812C43.6191 36.791 46.009 34.4101 46.009 31.4722V9.49644C46 6.55854 43.6191 4.1687 40.6723 4.1687ZM25.6414 28.166C25.6414 29.6304 24.4555 30.8074 23 30.8164C21.5355 30.8164 20.3586 29.6304 20.3586 28.175C20.3586 26.7195 21.5445 25.5335 23 25.5335C24.4555 25.5156 25.6414 26.7015 25.6414 28.166ZM25.9918 12.8925L25.6414 21.7062C25.5875 23.1257 24.4195 24.2488 23 24.2488C21.5805 24.2488 20.4125 23.1257 20.3586 21.7062L20.0082 12.8925C19.9543 11.4281 21.0863 10.1972 22.5508 10.1433H23.3594C24.8238 10.1433 26.0098 11.3292 26.0098 12.7937C26.0008 12.8296 26.0008 12.8656 25.9918 12.8925Z" fill="#F3C17E"/>
</g>
</g>
<defs>
<clipPath id="clip0_1_64">
<rect width="46" height="46" fill="white"/>
</clipPath>
</defs>
</svg>
