<svg width="42" height="42" viewBox="0 0 42 42" fill="none" xmlns="http://www.w3.org/2000/svg">
<path d="M20.8984 0C15.2901 0 14.5911 0.0270806 12.3963 0.119929C10.1925 0.228251 8.70175 0.569983 7.38641 1.08065C6.00976 1.60036 4.76302 2.41407 3.7331 3.46503C2.6792 4.49255 1.86505 5.73998 1.34871 7.11834C0.838049 8.43368 0.496318 9.92441 0.387995 12.1283C0.288699 14.3244 0.268066 15.022 0.268066 20.6303C0.268066 26.2386 0.295147 26.9375 0.387995 29.1323C0.496318 31.3297 0.838049 32.8269 1.34871 34.1422C1.86843 35.5189 2.68213 36.7656 3.7331 37.7955C4.76061 38.8494 6.00804 39.6636 7.38641 40.1799C8.70175 40.6841 10.1989 41.0323 12.3963 41.1406C14.5924 41.2399 15.2901 41.2606 20.8984 41.2606C26.5066 41.2606 27.2056 41.2335 29.4004 41.1406C31.5978 41.0323 33.095 40.6829 34.4103 40.1799C35.787 39.6602 37.0337 38.8465 38.0636 37.7955C39.1189 36.7691 39.9332 35.5214 40.448 34.1422C40.9522 32.8269 41.3004 31.3297 41.4087 29.1323C41.508 26.9362 41.5286 26.2386 41.5286 20.6303C41.5286 15.022 41.5016 14.3231 41.4087 12.1283C41.3004 9.93086 40.9509 8.42595 40.448 7.11834C39.9283 5.74169 39.1146 4.49495 38.0636 3.46503C37.0372 2.40978 35.7895 1.59541 34.4103 1.08065C33.095 0.569983 31.5978 0.228251 29.4004 0.119929C27.2043 0.0206329 26.5066 0 20.8984 0ZM20.8984 3.71392C26.406 3.71392 27.0637 3.741 29.2405 3.83384C31.2483 3.92798 32.3419 4.26327 33.0679 4.54697C33.9654 4.87828 34.7778 5.40562 35.4458 6.09056C36.1296 6.75575 36.655 7.56626 36.983 8.46205C37.2667 9.18807 37.6019 10.2816 37.6961 12.2895C37.7889 14.4662 37.816 15.1252 37.816 20.6316C37.816 26.138 37.7889 26.7969 37.6884 28.9737C37.58 30.9815 37.2447 32.0751 36.9623 32.8011C36.5716 33.7696 36.1357 34.4466 35.4162 35.179C34.7459 35.8597 33.934 36.3845 33.0382 36.7162C32.3212 36.9999 31.2122 37.3352 29.1966 37.4293C27.0083 37.5222 26.3635 37.5492 20.8416 37.5492C15.3197 37.5492 14.6763 37.5222 12.4853 37.4216C10.4775 37.3132 9.36974 36.978 8.64372 36.6956C7.66366 36.3048 6.9918 35.8689 6.27223 35.1494C5.54621 34.4234 5.08455 33.7322 4.72863 32.7714C4.43977 32.0544 4.10965 30.9454 4.00262 28.9299C3.92911 26.7673 3.89429 26.0967 3.89429 20.6006C3.89429 15.1071 3.92911 14.4353 4.00262 12.2456C4.10965 10.23 4.43977 9.1236 4.72863 8.40402C5.08455 7.42267 5.5475 6.75211 6.27223 6.02609C6.99051 5.3078 7.66366 4.84357 8.64372 4.47991C9.36974 4.1975 10.4504 3.86221 12.466 3.76163C14.6543 3.68297 15.2991 3.6546 20.8132 3.6546L20.8984 3.71392ZM20.8984 10.0418C19.5074 10.0413 18.1299 10.3148 16.8447 10.8469C15.5595 11.379 14.3918 12.1591 13.4082 13.1427C12.4246 14.1263 11.6445 15.294 11.1124 16.5792C10.5803 17.8644 10.3067 19.2419 10.3072 20.6329C10.3067 22.0239 10.5803 23.4013 11.1124 24.6865C11.6445 25.9717 12.4246 27.1395 13.4082 28.123C14.3918 29.1066 15.5595 29.8867 16.8447 30.4188C18.1299 30.9509 19.5074 31.2245 20.8984 31.224C22.2893 31.2245 23.6668 30.9509 24.952 30.4188C26.2372 29.8867 27.405 29.1066 28.3885 28.123C29.3721 27.1395 30.1522 25.9717 30.6843 24.6865C31.2164 23.4013 31.49 22.0239 31.4895 20.6329C31.49 19.2419 31.2164 17.8644 30.6843 16.5792C30.1522 15.294 29.3721 14.1263 28.3885 13.1427C27.405 12.1591 26.2372 11.379 24.952 10.8469C23.6668 10.3148 22.2893 10.0413 20.8984 10.0418ZM20.8984 27.5101C17.0968 27.5101 14.0212 24.4345 14.0212 20.6329C14.0212 16.8313 17.0968 13.7557 20.8984 13.7557C24.7 13.7557 27.7755 16.8313 27.7755 20.6329C27.7755 24.4345 24.7 27.5101 20.8984 27.5101ZM34.3923 9.61878C34.3916 10.276 34.13 10.9061 33.665 11.3706C33.2 11.8351 32.5697 12.096 31.9124 12.096C31.5875 12.096 31.2657 12.032 30.9654 11.9076C30.6652 11.7833 30.3924 11.601 30.1626 11.3712C29.9328 11.1414 29.7505 10.8686 29.6262 10.5684C29.5018 10.2681 29.4378 9.94634 29.4378 9.62136C29.4378 9.29639 29.5018 8.97459 29.6262 8.67435C29.7505 8.37411 29.9328 8.10131 30.1626 7.87152C30.3924 7.64173 30.6652 7.45944 30.9654 7.33508C31.2657 7.21072 31.5875 7.14671 31.9124 7.14671C33.2755 7.14671 34.3923 8.25573 34.3923 9.61878Z" fill="#FFBB00"/>
</svg>
