<svg width="40" height="42" viewBox="0 0 40 42" fill="none" xmlns="http://www.w3.org/2000/svg">
<path d="M19.13 0.00649291C15.8185 0.0464691 8.69882 0.590661 4.71668 4.24397C1.75457 7.17899 0.72035 11.5183 0.599132 16.8842C0.498547 22.2307 0.377329 32.2711 10.0554 35.005V39.169C10.0554 39.169 9.99483 40.8351 11.0961 41.1768C12.4527 41.6062 13.2252 40.3244 14.5147 38.9472L16.9197 36.2275C23.5416 36.7781 28.6134 35.5092 29.1976 35.3209C30.5413 34.8915 38.1097 33.9243 39.3464 23.8826C40.6153 13.512 38.7287 6.97782 35.323 4.02216H35.3023C34.2746 3.07563 30.1441 0.0658124 20.9161 0.032284C20.9161 0.032284 20.2313 -0.01414 19.13 0.00520336V0.00649291ZM19.2435 2.92217C20.1836 2.91573 20.7549 2.9557 20.7549 2.9557C28.5657 2.97634 32.2938 5.32719 33.1733 6.11898C36.0412 8.57687 37.5191 14.4676 36.4371 23.1256C35.4094 31.5206 29.2711 32.0519 28.135 32.4143C27.6514 32.569 23.1844 33.6703 17.5568 33.3079C17.5568 33.3079 13.3657 38.3656 12.0555 39.668C11.8479 39.8963 11.6055 39.9633 11.4507 39.9298C11.2289 39.8756 11.1619 39.601 11.1748 39.2244L11.2147 32.3137C3.00673 30.0441 3.49031 21.4801 3.578 17.0067C3.67859 12.5332 4.51809 8.87347 7.01724 6.39494C10.3817 3.35289 16.4271 2.94281 19.2409 2.92217H19.2435ZM19.8625 7.39435C19.7949 7.39367 19.7279 7.40636 19.6653 7.43171C19.6027 7.45705 19.5457 7.49454 19.4976 7.54201C19.4495 7.58948 19.4113 7.64599 19.3852 7.70829C19.3591 7.7706 19.3455 7.83745 19.3454 7.90501C19.3454 8.19387 19.5801 8.42212 19.8625 8.42212C21.1411 8.39781 22.4119 8.62686 23.6015 9.09608C24.7911 9.56529 25.8761 10.2654 26.7938 11.156C28.6676 12.9755 29.5806 15.4205 29.6154 18.6173C29.6154 18.8998 29.8436 19.1344 30.1325 19.1344V19.1138C30.2686 19.1142 30.3994 19.0607 30.4963 18.965C30.5931 18.8694 30.6483 18.7393 30.6496 18.6032C30.7122 17.0984 30.4682 15.5967 29.9324 14.1892C29.3966 12.7817 28.5802 11.4979 27.5328 10.4158C25.4914 8.42083 22.9046 7.39306 19.8625 7.39306V7.39435ZM13.0653 8.57687C12.7002 8.52354 12.328 8.59681 12.0104 8.78449H11.9833C11.246 9.21667 10.5818 9.7629 10.0155 10.4029C9.54477 10.9471 9.28944 11.4977 9.22238 12.0277C9.1824 12.3437 9.20949 12.6596 9.30362 12.9614L9.33715 12.982C9.86716 14.5398 10.5596 16.0382 11.4056 17.449C12.4953 19.431 13.8363 21.264 15.3955 22.9025L15.4419 22.9696L15.5154 23.0237L15.5618 23.0779L15.616 23.1243C17.2605 24.688 19.0979 26.0353 21.0837 27.1336C23.3533 28.3689 24.7306 28.9531 25.5572 29.1956V29.2084C25.7996 29.2819 26.0201 29.3155 26.2419 29.3155C26.9464 29.2639 27.6133 28.9779 28.1363 28.5031C28.7733 27.9365 29.3135 27.2696 29.7353 26.5288V26.5159C30.1312 25.7705 29.9971 25.0651 29.4258 24.588C28.2818 23.5879 27.0446 22.6997 25.7313 21.9354C24.8518 21.4582 23.9581 21.7471 23.5958 22.2307L22.8233 23.2043C22.4274 23.6879 21.7078 23.6208 21.7078 23.6208L21.6872 23.6337C16.3214 22.2629 14.89 16.83 14.89 16.83C14.89 16.83 14.8229 16.0911 15.3194 15.7146L16.2866 14.9357C16.7495 14.5591 17.0719 13.6667 16.5754 12.786C15.8164 11.4708 14.9301 10.2334 13.9293 9.0914C13.7105 8.82218 13.4035 8.63901 13.0627 8.57429L13.0653 8.57687ZM20.7549 10.1089C20.0701 10.1089 20.0701 11.1431 20.7613 11.1431C21.6128 11.1569 22.4532 11.3384 23.2345 11.6771C24.0158 12.0159 24.7227 12.5053 25.3147 13.1174C25.8548 13.7132 26.2699 14.4113 26.5352 15.1704C26.8006 15.9295 26.9109 16.7342 26.8596 17.5367C26.862 17.6725 26.9174 17.802 27.0141 17.8974C27.1107 17.9929 27.2409 18.0467 27.3767 18.0474L27.3974 18.0744C27.5342 18.0734 27.6651 18.0186 27.7619 17.9219C27.8587 17.8251 27.9135 17.6942 27.9145 17.5573C27.9609 15.5082 27.3239 13.7892 26.0743 12.412C24.8183 11.0348 23.0657 10.2623 20.8284 10.1089H20.7549ZM21.6021 12.8891C20.8967 12.8685 20.8696 13.9234 21.5686 13.944C23.2682 14.0317 24.0935 14.8905 24.2018 16.6572C24.2042 16.7913 24.259 16.9192 24.3544 17.0134C24.4498 17.1076 24.5784 17.1608 24.7125 17.1614H24.7331C24.8021 17.1585 24.8698 17.1418 24.9322 17.1124C24.9947 17.083 25.0506 17.0415 25.0968 16.9902C25.1431 16.939 25.1786 16.879 25.2014 16.8139C25.2242 16.7487 25.2338 16.6797 25.2296 16.6108C25.1084 14.3076 23.8524 13.0104 21.6227 12.8904H21.6021V12.8891Z" fill="#FFBB00"/>
</svg>
