<svg width="32" height="32" viewBox="0 0 32 32" fill="none" xmlns="http://www.w3.org/2000/svg">
<path d="M15.1981 0.00514464C12.6301 0.0361446 7.10906 0.458145 4.02106 3.29114C1.72406 5.56714 0.922058 8.93215 0.828058 13.0931C0.750058 17.2391 0.656058 25.0251 8.16106 27.1451V30.3741C8.16106 30.3741 8.11406 31.6661 8.96806 31.9311C10.0201 32.2641 10.6191 31.2701 11.6191 30.2021L13.4841 28.0931C18.6191 28.5201 22.5521 27.5361 23.0051 27.3901C24.0471 27.0571 29.9161 26.3071 30.8751 18.5201C31.8591 10.4781 30.3961 5.41114 27.7551 3.11914H27.7391C26.9421 2.38514 23.7391 0.0511446 16.5831 0.0251446C16.5831 0.0251446 16.0521 -0.0108554 15.1981 0.00414464V0.00514464ZM15.2861 2.26614C16.0151 2.26114 16.4581 2.29214 16.4581 2.29214C22.5151 2.30814 25.4061 4.13114 26.0881 4.74514C28.3121 6.65114 29.4581 11.2191 28.6191 17.9331C27.8221 24.4431 23.0621 24.8551 22.1811 25.1361C21.8061 25.2561 18.3421 26.1101 13.9781 25.8291C13.9781 25.8291 10.7281 29.7511 9.71206 30.7611C9.55106 30.9381 9.36306 30.9901 9.24306 30.9641C9.07106 30.9221 9.01906 30.7091 9.02906 30.4171L9.06006 25.0581C2.69506 23.2981 3.07006 16.6571 3.13806 13.1881C3.21606 9.71914 3.86706 6.88114 5.80506 4.95914C8.41406 2.60014 13.1021 2.28214 15.2841 2.26614H15.2861ZM15.7661 5.73414C15.7137 5.73362 15.6617 5.74346 15.6131 5.76311C15.5646 5.78277 15.5204 5.81184 15.4831 5.84865C15.4458 5.88546 15.4162 5.92928 15.3959 5.9776C15.3757 6.02591 15.3652 6.07776 15.3651 6.13014C15.3651 6.35414 15.5471 6.53114 15.7661 6.53114C16.7576 6.51229 17.743 6.68991 18.6655 7.05377C19.588 7.41763 20.4294 7.96052 21.1411 8.65114C22.5941 10.0621 23.3021 11.9581 23.3291 14.4371C23.3291 14.6561 23.5061 14.8381 23.7301 14.8381V14.8221C23.8356 14.8224 23.937 14.7809 24.0121 14.7068C24.0873 14.6326 24.13 14.5317 24.1311 14.4261C24.1796 13.2593 23.9904 12.0948 23.5749 11.0033C23.1594 9.91186 22.5263 8.91631 21.7141 8.07714C20.1311 6.53014 18.1251 5.73314 15.7661 5.73314V5.73414ZM10.4951 6.65114C10.212 6.60979 9.92333 6.6666 9.67706 6.81214H9.65606C9.08432 7.14728 8.56927 7.57087 8.13006 8.06715C7.76506 8.48915 7.56706 8.91614 7.51506 9.32714C7.48406 9.57214 7.50506 9.81714 7.57806 10.0511L7.60406 10.0671C8.01506 11.2751 8.55206 12.4371 9.20806 13.5311C10.0531 15.0681 11.093 16.4895 12.3021 17.7601L12.3381 17.8121L12.3951 17.8541L12.4311 17.8961L12.4731 17.9321C13.7483 19.1447 15.1731 20.1895 16.7131 21.0411C18.4731 21.9991 19.5411 22.4521 20.1821 22.6401V22.6501C20.3701 22.7071 20.5411 22.7331 20.7131 22.7331C21.2593 22.6931 21.7765 22.4713 22.1821 22.1031C22.6761 21.6638 23.0949 21.1467 23.4221 20.5721V20.5621C23.7291 19.9841 23.6251 19.4371 23.1821 19.0671C22.2949 18.2916 21.3355 17.6028 20.3171 17.0101C19.6351 16.6401 18.9421 16.8641 18.6611 17.2391L18.0621 17.9941C17.7551 18.3691 17.1971 18.3171 17.1971 18.3171L17.1811 18.3271C13.0201 17.2641 11.9101 13.0511 11.9101 13.0511C11.9101 13.0511 11.8581 12.4781 12.2431 12.1861L12.9931 11.5821C13.3521 11.2901 13.6021 10.5981 13.2171 9.91514C12.6285 8.8953 11.9412 7.9357 11.1651 7.05014C10.9954 6.84137 10.7574 6.69933 10.4931 6.64914L10.4951 6.65114ZM16.4581 7.83914C15.9271 7.83914 15.9271 8.64114 16.4631 8.64114C17.1233 8.65186 17.775 8.79258 18.3809 9.05528C18.9868 9.31798 19.5349 9.69749 19.9941 10.1721C20.4129 10.6342 20.7347 11.1755 20.9405 11.7642C21.1463 12.3528 21.2318 12.9768 21.1921 13.5991C21.1939 13.7045 21.2369 13.8049 21.3118 13.8789C21.3868 13.9529 21.4877 13.9946 21.5931 13.9951L21.6091 14.0161C21.7152 14.0154 21.8167 13.9729 21.8917 13.8978C21.9668 13.8228 22.0093 13.7213 22.0101 13.6151C22.0461 12.0261 21.5521 10.6931 20.5831 9.62514C19.6091 8.55714 18.2501 7.95814 16.5151 7.83914H16.4581V7.83914ZM17.1151 9.99514C16.5681 9.97914 16.5471 10.7971 17.0891 10.8131C18.4071 10.8811 19.0471 11.5471 19.1311 12.9171C19.1329 13.0211 19.1753 13.1203 19.2494 13.1934C19.3234 13.2664 19.423 13.3076 19.5271 13.3081H19.5431C19.5965 13.3059 19.649 13.2929 19.6974 13.2701C19.7459 13.2473 19.7893 13.2151 19.8251 13.1754C19.8609 13.1356 19.8885 13.0891 19.9062 13.0386C19.9239 12.9881 19.9313 12.9346 19.9281 12.8811C19.8341 11.0951 18.8601 10.0891 17.1311 9.99615H17.1151V9.99514Z" fill="white"/>
</svg>
