<svg width="43" height="42" viewBox="0 0 43 42" fill="none" xmlns="http://www.w3.org/2000/svg">
<path d="M17.1123 0.0068672L18.3658 0.00170898H24.4937L25.7489 0.0068672L27.3204 0.0240613L28.0649 0.0360971L28.7836 0.0550106L29.4766 0.0790822L30.1437 0.106593L30.7867 0.1427L31.4057 0.185685L31.9989 0.237268L32.5715 0.294008C35.5633 0.631011 37.6145 1.35316 39.162 2.90063C40.7094 4.44809 41.4316 6.49762 41.7686 9.49111L41.827 10.0637L41.8769 10.6586L41.9199 11.2776L41.9543 11.9189L41.9973 12.9299L42.0179 13.6349L42.0403 14.7422L42.0557 16.3154L42.0626 18.0004L42.0609 23.6968L42.0557 24.952L42.0385 26.5235L42.0265 27.268L42.0076 27.9868L41.9835 28.6797L41.956 29.3468L41.9199 29.9899L41.8769 30.6088L41.8253 31.202L41.7686 31.7746C41.4316 34.7664 40.7094 36.8176 39.162 38.3651C37.6145 39.9125 35.565 40.6347 32.5715 40.9717L31.9989 41.0302L31.404 41.08L30.785 41.123L30.1437 41.1574L29.1327 41.2004L28.4277 41.221L27.3204 41.2434L25.7472 41.2588L24.0622 41.2657L18.3658 41.264L17.1106 41.2588L15.5391 41.2416L14.7946 41.2296L14.0758 41.2107L13.3829 41.1866L12.7158 41.1591L12.0727 41.123L11.4538 41.08L10.8606 41.0284L10.288 40.9717C7.29623 40.6347 5.24498 39.9125 3.69751 38.3651C2.15005 36.8176 1.4279 34.7681 1.09089 31.7746L1.03243 31.202L0.982571 30.6071L0.939586 29.9881L0.905198 29.3468L0.862212 28.3358L0.84158 27.6308L0.819227 26.5235L0.803753 24.9503L0.796875 23.2653L0.798594 17.5689L0.803753 16.3137L0.820947 14.7422L0.832983 13.9977L0.851896 13.279L0.875968 12.586L0.903478 11.9189L0.939586 11.2759L0.982571 10.6569L1.03415 10.0637L1.09089 9.49111C1.4279 6.49934 2.15005 4.44809 3.69751 2.90063C5.24498 1.35316 7.29451 0.631011 10.288 0.294008L10.8606 0.235548L11.4555 0.185685L12.0745 0.1427L12.7158 0.108312L13.7268 0.065327L14.4318 0.0446941L15.5391 0.0223418L17.1123 0.0068672ZM12.4716 12.5516H7.76047C7.98399 23.2807 13.3485 29.7285 22.7537 29.7285H23.2867V23.5902C26.7427 23.9341 29.3562 26.4616 30.405 29.7285H35.2882C33.947 24.8454 30.4222 22.1459 28.2214 21.1143C30.4222 19.8419 33.5172 16.747 34.2565 12.5516H29.8204C28.8576 15.9561 26.0034 19.051 23.2867 19.3433V12.5516H18.8506V24.4499C16.0996 23.7622 12.6264 20.4265 12.4716 12.5516Z" fill="#FFBB00"/>
</svg>
