<svg width="32" height="32" viewBox="0 0 32 32" fill="none" xmlns="http://www.w3.org/2000/svg">
<path d="M12.652 0.00546484L13.624 0.00146484H18.376L19.3493 0.00546484L20.568 0.0187982L21.1453 0.0281315L21.7027 0.0427982L22.24 0.0614648L22.7573 0.0827982L23.256 0.110798L23.736 0.144131L24.196 0.184131L24.64 0.228132C26.96 0.489465 28.5507 1.04946 29.7507 2.24946C30.9507 3.44946 31.5107 5.0388 31.772 7.36013L31.8173 7.80413L31.856 8.26546L31.8893 8.74546L31.916 9.2428L31.9493 10.0268L31.9653 10.5735L31.9827 11.4321L31.9947 12.6521L32 13.9588L31.9987 18.3761L31.9947 19.3495L31.9813 20.5681L31.972 21.1455L31.9573 21.7028L31.9387 22.2401L31.9173 22.7575L31.8893 23.2561L31.856 23.7361L31.816 24.1961L31.772 24.6401C31.5107 26.9601 30.9507 28.5508 29.7507 29.7508C28.5507 30.9508 26.9613 31.5108 24.64 31.7721L24.196 31.8175L23.7347 31.8561L23.2547 31.8895L22.7573 31.9161L21.9733 31.9495L21.4267 31.9655L20.568 31.9828L19.348 31.9948L18.0413 32.0001L13.624 31.9988L12.6507 31.9948L11.432 31.9815L10.8547 31.9721L10.2973 31.9575L9.76 31.9388L9.24267 31.9175L8.744 31.8895L8.264 31.8561L7.804 31.8161L7.36 31.7721C5.04 31.5108 3.44933 30.9508 2.24933 29.7508C1.04933 28.5508 0.489333 26.9615 0.228 24.6401L0.182667 24.1961L0.144 23.7348L0.110667 23.2548L0.084 22.7575L0.0506667 21.9735L0.0346667 21.4268L0.0173333 20.5681L0.00533333 19.3481L0 18.0415L0.00133333 13.6241L0.00533333 12.6508L0.0186667 11.4321L0.028 10.8548L0.0426667 10.2975L0.0613333 9.76013L0.0826667 9.2428L0.110667 8.74413L0.144 8.26413L0.184 7.80413L0.228 7.36013C0.489333 5.04013 1.04933 3.44946 2.24933 2.24946C3.44933 1.04946 5.03867 0.489465 7.36 0.228132L7.804 0.182798L8.26533 0.144131L8.74533 0.110798L9.24267 0.0841315L10.0267 0.0507982L10.5733 0.0347982L11.432 0.0174648L12.652 0.00546484ZM9.05333 9.73346H5.4C5.57333 18.0535 9.73333 23.0535 17.0267 23.0535H17.44V18.2935C20.12 18.5601 22.1467 20.5201 22.96 23.0535H26.7467C25.7067 19.2668 22.9733 17.1735 21.2667 16.3735C22.9733 15.3868 25.3733 12.9868 25.9467 9.73346H22.5067C21.76 12.3735 19.5467 14.7735 17.44 15.0001V9.73346H14V18.9601C11.8667 18.4268 9.17333 15.8401 9.05333 9.73346Z" fill="white"/>
</svg>
