<svg width="42" height="42" viewBox="0 0 42 42" fill="none" xmlns="http://www.w3.org/2000/svg">
<path fill-rule="evenodd" clip-rule="evenodd" d="M29.9435 24.7286C29.4311 24.4724 26.919 23.2378 26.4513 23.0659C25.9837 22.8957 25.6432 22.8114 25.3011 23.3238C24.9606 23.8327 23.9823 24.9847 23.6848 25.3252C23.3856 25.6674 23.0882 25.7086 22.5775 25.4541C22.0669 25.1962 20.4197 24.6581 18.4681 22.918C16.9499 21.5631 15.9234 19.8902 15.626 19.3778C15.3285 18.8671 15.5933 18.5903 15.8495 18.3358C16.0799 18.1071 16.3601 17.7392 16.6163 17.4417C16.8725 17.1425 16.9568 16.9293 17.127 16.5872C17.2989 16.2467 17.213 15.9493 17.084 15.6931C16.9568 15.4369 15.9355 12.9214 15.509 11.8984C15.0947 10.9028 14.6734 11.0387 14.3605 11.0215C14.0613 11.0077 13.7209 11.0043 13.3804 11.0043C13.04 11.0043 12.4863 11.1315 12.0186 11.6439C11.5492 12.1545 10.2305 13.3908 10.2305 15.9063C10.2305 18.4201 12.0599 20.8496 12.3161 21.1917C12.5723 21.5322 15.9183 26.6938 21.0438 28.9067C22.2646 29.4328 23.2154 29.7475 23.9565 29.9813C25.1807 30.3716 26.2949 30.3166 27.1752 30.1842C28.1553 30.0381 30.1979 28.948 30.6243 27.7547C31.049 26.5614 31.049 25.5384 30.9218 25.3252C30.7946 25.112 30.4541 24.9847 29.9417 24.7286H29.9435ZM20.6208 37.4573H20.614C17.5696 37.4579 14.5812 36.6395 11.9619 35.088L11.3429 34.72L4.9089 36.4085L6.62659 30.1361L6.22253 29.493C4.52055 26.7838 3.61986 23.6484 3.62451 20.449C3.62795 11.0782 11.2518 3.45436 20.6277 3.45436C25.1669 3.45436 29.4345 5.22534 32.6429 8.43719C34.2254 10.0132 35.4797 11.8873 36.3332 13.9511C37.1868 16.015 37.6226 18.2276 37.6154 20.461C37.612 29.8318 29.9882 37.4573 20.6208 37.4573ZM35.0845 5.99736C33.19 4.0904 30.9359 2.57838 28.4529 1.54891C25.9698 0.519441 23.3071 -0.00700872 20.6191 7.0457e-05C9.35013 7.0457e-05 0.175379 9.1731 0.171941 20.4472C0.166719 24.0352 1.10794 27.5611 2.90064 30.6691L0 41.2658L10.8391 38.4219C13.8376 40.0555 17.1977 40.9115 20.6122 40.9116H20.6208C31.8898 40.9116 41.0646 31.7386 41.068 20.4627C41.0763 17.7758 40.5518 15.1138 39.5247 12.6309C38.4977 10.1479 36.9885 7.89329 35.0845 5.99736Z" fill="#FFBB00"/>
</svg>
