<svg width="53" height="51" viewBox="0 0 53 51" fill="none" xmlns="http://www.w3.org/2000/svg">
<path d="M51.8498 23.1132C52.893 22.092 53.2613 20.5934 52.8113 19.2002C52.3603 17.8071 51.1854 16.8126 49.7421 16.6015L36.9091 14.7287C36.3625 14.6488 35.8902 14.3045 35.6461 13.8067L29.9088 2.12755C29.2646 0.815421 27.9571 0 26.5 0C25.0439 0 23.7364 0.815421 23.0922 2.12755L17.3539 13.8067C17.1098 14.3045 16.6364 14.6488 16.0899 14.7287L3.25686 16.6026C1.81457 16.8126 0.639733 17.8071 0.188688 19.2002C-0.261296 20.5934 0.106969 22.092 1.15021 23.1132L10.4354 32.2032C10.8312 32.5912 11.0127 33.1498 10.9193 33.6955L8.72777 46.5323C8.48155 47.9744 9.05995 49.4038 10.239 50.2651C11.4171 51.1274 12.9506 51.2393 14.2422 50.5561L25.7189 44.4953C26.2081 44.2374 26.7918 44.2374 27.2811 44.4953L38.7589 50.5561C39.3192 50.8524 39.9263 50.9984 40.5302 50.9984C41.3144 50.9984 42.0955 50.7522 42.762 50.2651C43.9411 49.4038 44.5195 47.9744 44.2733 46.5323L42.0807 33.6966C41.9873 33.1498 42.1688 32.5923 42.5646 32.2043L51.8498 23.1132ZM39.99 34.0569L42.1815 46.8925C42.2919 47.5385 42.0425 48.1556 41.514 48.5415C40.9844 48.9263 40.3253 48.9732 39.7469 48.6705L28.2692 42.6087C27.7162 42.3177 27.107 42.1706 26.5 42.1706C25.8929 42.1706 25.2848 42.3177 24.7308 42.6097L13.2552 48.6705C12.6747 48.9732 12.0156 48.9263 11.4871 48.5415C10.9586 48.1556 10.7102 47.5395 10.8196 46.8925L13.0111 34.0569C13.2223 32.8183 12.8137 31.5541 11.918 30.6779L2.63176 21.5868C2.16373 21.1285 2.00454 20.4825 2.20725 19.859C2.40889 19.2343 2.91512 18.8058 3.56144 18.711L16.3934 16.8382C17.6319 16.658 18.7028 15.8778 19.2557 14.7501L24.994 3.07088C25.2827 2.4825 25.8462 2.13182 26.4989 2.13182C27.1527 2.13182 27.7152 2.4825 28.0049 3.07088L33.7432 14.7501C34.2962 15.8778 35.366 16.658 36.6045 16.8382L49.4375 18.711C50.0838 18.8058 50.59 19.2343 50.7917 19.859C50.9933 20.4825 50.8352 21.1285 50.3672 21.5868L41.082 30.6769C40.1863 31.5541 39.7777 32.8172 39.99 34.0569Z" fill="#1F73DF"/>
</svg>
