<svg width="139" height="139" viewBox="0 0 139 139" fill="none" xmlns="http://www.w3.org/2000/svg">
<path d="M129.441 37.5753C147.64 71.2799 135.544 112.883 102.424 130.497C69.3033 148.113 27.6992 135.068 9.49944 101.364C-8.70033 67.6591 3.39557 26.0557 36.516 8.44133C69.6365 -9.17321 111.241 3.87071 129.441 37.5753Z" fill="white" stroke="#303030" stroke-opacity="0.38"/>
<path d="M137.246 62.6016C140.541 89.7859 127.511 117.156 102.261 130.585C77.0132 144.013 46.8336 139.623 25.8506 121.845L137.246 62.6016Z" fill="#1F73DF"/>
<path d="M1.37231 76.51C-1.9229 49.3256 11.1065 21.9552 36.3566 8.52642C61.6047 -4.9013 91.7843 -0.510831 112.767 17.2666L1.37231 76.51Z" fill="#FF251C"/>
<path fill-rule="evenodd" clip-rule="evenodd" d="M33.1063 105.607L35.6298 110.281L32.6025 111.891L30.0585 107.18L20.415 101.395L23.6294 99.6846L30.2896 103.687L30.6207 95.967L33.5905 94.3871L33.1063 105.607ZM37.0301 101.046C34.914 97.1263 36.3749 92.6158 40.5051 90.4191C44.617 88.2323 49.2192 89.4947 51.3455 93.4323C53.4718 97.3697 51.9833 101.874 47.8716 104.061C43.7412 106.258 39.1462 104.965 37.0301 101.046ZM48.2811 95.062C46.928 92.5561 44.2464 91.7761 41.9092 93.0192C39.5739 94.2611 38.7433 96.9094 40.0965 99.4146C41.4497 101.921 44.1323 102.703 46.4675 101.461C48.8048 100.218 49.6343 97.5685 48.2811 95.062ZM53.9379 93.0732L49.9495 85.6869L52.9768 84.0768L56.9044 91.3502C58.2576 93.8562 59.9018 94.3162 61.7318 93.343C63.5824 92.3588 64.0885 90.7552 62.7353 88.2493L58.8077 80.9757L61.7982 79.3853L65.7867 86.7716C67.8825 90.653 66.8368 93.9747 63.1173 95.9525C59.3977 97.9312 56.0338 96.9539 53.9379 93.0732ZM80.2478 86.5517L75.7395 84.2198L72.9566 85.6999L74.9406 89.3743L71.9112 90.9855L64.7886 77.795L70.4532 74.7824C73.9468 72.9243 77.1216 73.5899 78.7186 76.5473C79.7863 78.5245 79.5806 80.5036 78.2742 82.1428L83.4991 84.8226L80.2478 86.5517ZM71.6278 77.3591L69.1611 78.671L71.644 83.2692L74.1107 81.9574C75.9612 80.9732 76.4253 79.6098 75.6522 78.1781C74.869 76.7276 73.4783 76.375 71.6278 77.3591ZM98.0379 73.4508L91.962 76.6818L92.3306 80.1257L89.2293 81.7752L87.9376 65.4835L90.926 63.8943L103.9 73.9728L100.723 75.6626L98.0379 73.4508ZM95.8304 71.6408L91.0295 67.6944L91.6818 73.8473L95.8304 71.6408ZM98.1326 60.0614L104.076 56.9002C108.357 54.6239 112.694 55.6641 114.85 59.6583C117.008 63.6525 115.479 67.8143 111.199 70.0908L105.255 73.2519L98.1326 60.0614ZM109.696 67.6644C112.294 66.2827 113.149 63.8128 111.787 61.288C110.423 58.7632 107.878 58.1042 105.28 59.486L102.516 60.9563L106.932 69.1347L109.696 67.6644ZM118.967 64.2839L118.753 61.4408C120.292 61.663 122.244 61.3546 123.813 60.5201C125.608 59.5654 126.01 58.5735 125.574 57.7647C124.241 55.2963 117.55 61.0373 114.904 56.1381C113.693 53.8954 114.481 51.0765 118.198 49.0993C119.843 48.2245 121.739 47.7249 123.373 47.8515L123.69 50.6665C122.097 50.615 120.66 50.9427 119.503 51.5587C117.71 52.5124 117.383 53.5576 117.831 54.3874C119.144 56.8181 125.846 51.096 128.459 55.9367C129.651 58.1416 128.855 60.9915 125.117 62.9794C123.043 64.0827 120.613 64.5729 118.967 64.2839Z" fill="#303030"/>
<path fill-rule="evenodd" clip-rule="evenodd" d="M16.2434 79.1289L10.1434 82.3731L8.27441 78.9119L24.8861 70.0773L26.755 73.5386L20.6551 76.7827L28.6964 91.6745L24.2847 94.0208L16.2434 79.1289ZM49.315 80.7088L42.878 77.5517L38.8217 79.709L41.5822 84.8214L37.1705 87.1677L27.2603 68.8147L35.5107 64.4268C40.6021 61.719 45.1633 62.5673 47.3854 66.6828C48.8718 69.4354 48.5182 72.2223 46.5911 74.5627L54.0532 78.189L49.315 80.7088ZM37.1352 68.018L33.5409 69.9296L36.9956 76.3273L40.5898 74.4157C43.2845 72.9827 43.9938 71.0504 42.9183 69.0586C41.8281 67.0395 39.8298 66.5848 37.1352 68.018ZM52.6704 68.5289L47.1211 58.2521L51.5328 55.9057L56.9974 66.0259C58.8799 69.5123 61.2381 70.1144 63.906 68.6955C66.6027 67.2612 67.3767 64.9933 65.4943 61.5071L60.0296 51.3869L64.3858 49.0701L69.9351 59.3471C72.8513 64.7479 71.251 69.4461 65.8329 72.3276C60.4128 75.2102 55.5867 73.9297 52.6704 68.5289ZM96.0011 55.8797L90.0279 44.8812L89.318 56.9374L87.3299 57.9947L76.9758 52.1267L82.7949 62.9032L78.6543 65.1053L68.7441 46.7523L72.3938 44.8112L85.6876 52.4222L86.5551 37.2798L90.176 35.354L100.142 53.6776L96.0011 55.8797ZM114.879 30.7875C117.088 34.8778 115.273 39.1166 110.182 41.8244L106.342 43.8671L109.074 48.9272L104.665 51.2723L94.7541 32.9193L103.005 28.5315C108.096 25.8236 112.657 26.672 114.879 30.7875ZM110.412 33.1632C109.321 31.1442 107.324 30.6895 104.629 32.1227L101.033 34.0353L104.473 40.4059L108.069 38.4933C110.764 37.0601 111.488 35.155 110.412 33.1632Z" fill="#303030"/>
<path d="M134.137 82.3424L131.104 79.3517L127.4 81.2716L129.229 77.5034L126.196 74.5127L130.36 75.1746L132.19 71.4062L132.934 75.5835L137.098 76.2454L133.393 78.1652L134.137 82.3424Z" fill="white"/>
<path d="M43.9436 129.09L40.9105 126.099L37.2065 128.019L39.036 124.251L36.0029 121.26L40.1668 121.922L41.9964 118.154L42.7401 122.331L46.904 122.993L43.1999 124.912L43.9436 129.09Z" fill="white"/>
<path d="M59.6028 134.18L56.5697 131.189L52.8655 133.109L54.6952 129.34L51.6621 126.351L55.826 127.012L57.6555 123.244L58.3993 127.421L62.5632 128.082L58.859 130.003L59.6028 134.18Z" fill="white"/>
<path d="M130.98 97.1847L127.947 94.1935L124.242 96.1134L126.072 92.3451L123.039 89.3544L127.203 90.0162L129.033 86.248L129.776 90.4253L133.941 91.0872L130.236 93.0069L130.98 97.1847Z" fill="white"/>
<path d="M124.566 109.653L121.533 106.662L117.828 108.581L119.658 104.813L116.625 101.823L120.789 102.485L122.618 98.7168L123.363 102.893L127.526 103.555L123.822 105.476L124.566 109.653Z" fill="white"/>
<path d="M72.0129 136.891L68.9799 133.9L65.2757 135.821L67.1053 132.053L64.0723 129.062L68.236 129.723L70.0656 125.955L70.8094 130.132L74.9732 130.795L71.2691 132.714L72.0129 136.891Z" fill="white"/>
<path d="M102.463 130.25L99.4298 127.261L95.7263 129.18L97.555 125.412L94.5225 122.421L98.6866 123.083L100.516 119.314L101.26 123.492L105.423 124.154L101.72 126.074L102.463 130.25Z" fill="white"/>
<path d="M115.324 120.537L112.292 117.548L108.587 119.467L110.417 115.699L107.384 112.708L111.547 113.37L113.377 109.602L114.12 113.778L118.284 114.441L114.581 116.361L115.324 120.537Z" fill="white"/>
<path d="M87.0842 135.175L84.0511 132.184L80.347 134.104L82.1766 130.336L79.1436 127.345L83.3074 128.006L85.1369 124.238L85.8808 128.416L90.0446 129.078L86.3405 130.997L87.0842 135.175Z" fill="white"/>
<path d="M4.91122 56.8105L7.97426 59.77L11.6577 57.8111L9.86738 61.599L12.9305 64.5585L8.76097 63.9402L6.97081 67.7282L6.1841 63.558L2.01465 62.9395L5.69792 60.9807L4.91122 56.8105Z" fill="white"/>
<path d="M94.6046 9.10938L97.668 12.0688L101.351 10.11L99.561 13.898L102.625 16.8575L98.4548 16.239L96.6638 20.027L95.877 15.8569L91.708 15.2385L95.3914 13.2796L94.6046 9.10938Z" fill="white"/>
<path d="M78.8956 4.18359L81.9588 7.14307L85.642 5.18414L83.8519 8.97209L86.915 11.9316L82.7455 11.3131L80.9553 15.1012L80.1685 10.931L75.999 10.3126L79.6823 8.35366L78.8956 4.18359Z" fill="white"/>
<path d="M7.92098 41.9297L10.9842 44.8892L14.6674 42.9304L12.8773 46.7183L15.9403 49.6778L11.7709 49.0594L9.98058 52.8473L9.19387 48.6771L5.02441 48.0588L8.70769 46.0999L7.92098 41.9297Z" fill="white"/>
<path d="M14.2003 29.3965L17.2634 32.356L20.9467 30.397L19.1566 34.1851L22.2197 37.1446L18.0502 36.5261L16.26 40.3141L15.4733 36.1439L11.3037 35.5256L14.987 33.5667L14.2003 29.3965Z" fill="white"/>
<path d="M66.4581 1.60352L69.5213 4.56299L73.2045 2.60407L71.4144 6.39201L74.4774 9.35149L70.308 8.73306L68.5178 12.521L67.7311 8.35094L63.5615 7.73251L67.2448 5.77358L66.4581 1.60352Z" fill="white"/>
<path d="M36.0842 8.5625L39.1472 11.522L42.8306 9.56305L41.0404 13.3511L44.1035 16.3106L39.9341 15.6922L38.1438 19.4801L37.3571 15.3099L33.1875 14.6916L36.8709 12.7327L36.0842 8.5625Z" fill="white"/>
<path d="M23.3291 18.4103L26.3922 21.3698L30.0755 19.4108L28.2854 23.1988L31.3484 26.1582L27.1789 25.5398L25.3887 29.3278L24.602 25.1577L20.4325 24.5393L24.1158 22.5803L23.3291 18.4103Z" fill="white"/>
<path d="M51.4083 3.47852L54.4715 6.43799L58.1547 4.47907L56.3646 8.26701L59.4276 11.2265L55.2582 10.6081L53.4679 14.3961L52.6812 10.2259L48.5117 9.60751L52.195 7.64858L51.4083 3.47852Z" fill="white"/>
</svg>
