<svg width="112" height="73" viewBox="0 0 112 73" fill="none" xmlns="http://www.w3.org/2000/svg">
<g filter="url(#filter0_i_15_133)">
<path d="M101.701 58.4474C101.701 61.0769 99.567 63.2094 96.936 63.2094H15.4201C12.7846 63.2094 10.6543 61.0769 10.6543 58.4474V6.758C10.6543 4.12858 12.7885 2 15.4201 2H96.936C99.571 2 101.701 4.13249 101.701 6.758V58.4474Z" fill="#1B97A2" fill-opacity="0.5" stroke="#25416C" stroke-width="2.5" stroke-miterlimit="10"/>
<path d="M96.307 7.53271H16.0488V57.6726H96.307V7.53271Z" fill="white" stroke="#25416C" stroke-width="2.5" stroke-miterlimit="10" stroke-linejoin="round"/>
<path d="M9.7498 71.0001H20.7968H36.684H91.559H102.606C102.606 71.0001 109.62 71 110.356 63.2095H36.684H2C2.7362 71 9.7498 71.0001 9.7498 71.0001Z" fill="white" stroke="#25416C" stroke-width="2.5" stroke-miterlimit="10" stroke-linejoin="round"/>
<path d="M21.6621 27.7273V52.4881H43.6896" stroke="#25416C" stroke-width="2.5" stroke-miterlimit="10"/>
<path d="M71.8572 32.8023C71.8572 32.3288 71.8298 31.8593 71.7867 31.3976L74.9313 30.5758L73.5215 25.1995L70.3182 26.0369C69.6408 24.6282 68.7675 23.3409 67.7258 22.2061L69.7778 19.5454L65.3762 16.149L63.2968 18.845C61.9497 18.1602 60.493 17.6594 58.9579 17.3855V13.9617H53.3972V17.3855C51.9365 17.6476 50.5503 18.1054 49.2619 18.7393L47.2217 16.0159L42.7692 19.3458L44.7898 22.0418C44.0184 22.8518 43.337 23.74 42.7535 24.7065L39.6324 23.5522L37.7097 28.7642L40.772 29.8911C40.5958 30.8341 40.5018 31.8045 40.5018 32.7984C40.5018 33.1427 40.5175 33.4831 40.537 33.8196L37.4277 34.6335L38.8414 40.006L41.8802 39.2077C42.5381 40.6751 43.4192 42.0172 44.4726 43.2067L42.5812 45.6562L46.9789 49.0526L48.8468 46.6383C50.2526 47.3818 51.7799 47.9178 53.4011 48.2074V51.236H58.9618V48.2074C60.5008 47.9335 61.9615 47.4326 63.3125 46.744L65.1413 49.1778L69.5899 45.8479L67.7376 43.375C68.5208 42.518 69.2139 41.575 69.7974 40.5616L72.7305 41.6415L74.6493 36.4296L71.6497 35.3261C71.7828 34.5083 71.8572 33.6631 71.8572 32.8023ZM56.1775 43.2732C50.284 43.2732 45.5064 38.4995 45.5064 32.6027C45.5064 26.7138 50.284 21.9362 56.1775 21.9362C62.079 21.9362 66.8565 26.7138 66.8565 32.6027C66.8526 38.4956 62.075 43.2732 56.1775 43.2732Z" stroke="#25416C" stroke-width="2.5" stroke-miterlimit="10"/>
<path d="M65.2404 63.2095H47.1172V67.1067H65.2404V63.2095Z" fill="white" stroke="#25416C" stroke-width="2.5" stroke-miterlimit="10" stroke-linejoin="round"/>
</g>
<defs>
<filter id="filter0_i_15_133" x="0.749996" y="0.75" width="110.856" height="75.5" filterUnits="userSpaceOnUse" color-interpolation-filters="sRGB">
<feFlood flood-opacity="0" result="BackgroundImageFix"/>
<feBlend mode="normal" in="SourceGraphic" in2="BackgroundImageFix" result="shape"/>
<feColorMatrix in="SourceAlpha" type="matrix" values="0 0 0 0 0 0 0 0 0 0 0 0 0 0 0 0 0 0 127 0" result="hardAlpha"/>
<feOffset dy="4"/>
<feGaussianBlur stdDeviation="4.5"/>
<feComposite in2="hardAlpha" operator="arithmetic" k2="-1" k3="1"/>
<feColorMatrix type="matrix" values="0 0 0 0 0 0 0 0 0 0.017875 0 0 0 0 0.1375 0 0 0 0.25 0"/>
<feBlend mode="normal" in2="shape" result="effect1_innerShadow_15_133"/>
</filter>
</defs>
</svg>
