<svg width="111" height="103" viewBox="0 0 111 103" fill="none" xmlns="http://www.w3.org/2000/svg">
<path d="M25.5 49V60.5H82V51.5C82 46.7 80.5 44.5 74 43C61 41 61.5 51 61.5 48C61.5 46.5 60.5 44.5 56.5 44C53.6104 43.6388 51.6667 45.6667 51 47C50.6667 45 48.7 41.1 43.5 41.5C38.3 41.9 37.3333 46 37.5 48C36.3333 47.5 33.4 46.5 31 46.5C28.6 46.5 26.3333 48.1667 25.5 49Z" fill="#1B97A2" fill-opacity="0.5" stroke="#25416C" stroke-width="2.5" stroke-linejoin="round"/>
<path d="M36 55.5H73.5" stroke="#25416C" stroke-width="2.5" stroke-linejoin="round"/>
<path d="M80.49 80.1241C82.1214 80.7821 83.1907 81.5224 83.5472 82.482C84.2463 84.3053 79.2014 96.2185 78.3651 99.3305C78.0224 100.674 77.8168 101.387 76.583 100.784C71.867 98.4531 67.2608 91.6808 62.065 88.5689C60.4337 87.5955 58.7886 86.9238 58.3499 85.6762C58.2813 85.498 58.2539 85.2924 58.2539 85.0456C58.2539 83.3046 59.6248 79.8499 60.1183 78.3967C60.4611 77.4097 60.9683 76.1621 63.3948 76.0936C66.685 76.0388 77.0628 78.7395 80.49 80.1241Z" fill="#1B97A2" fill-opacity="0.5" stroke="#25416C" stroke-width="2.5" stroke-miterlimit="2.6131" stroke-linecap="round" stroke-linejoin="round"/>
<path d="M73.8395 85.0321C74.4702 84.2507 75.5943 84.1273 76.3894 84.7305C77.1708 85.3474 77.2942 86.499 76.6636 87.2804C76.0467 88.0618 74.9089 88.1852 74.1411 87.5683C73.3597 86.9514 73.2226 85.8135 73.8395 85.0321Z" stroke="#25416C" stroke-width="2.5" stroke-miterlimit="2.6131" stroke-linecap="round" stroke-linejoin="round"/>
<path d="M88 70C84 71.6 81.6667 76.6667 81 79L64 74.5L67.5 62L74 55L86.5 47L92.5 46L95 47L96.5 41.5L101 31.5L105.5 28L109 30V40L104 55L98 64.5C96.3333 65.6667 92 68.4 88 70Z" fill="white"/>
<path d="M80.8099 79.6242C86.7323 66.1481 93.4635 69.7125 100.77 61.2403C105.034 56.305 111.628 32.3004 107.899 29.0787C105.569 27.0635 102.895 29.4626 101.47 31.3819C98.481 35.3164 95.2456 43.4321 94.7247 48.2166V48.2303" stroke="#25416C" stroke-width="2.5" stroke-miterlimit="2.6131" stroke-linecap="round" stroke-linejoin="round"/>
<path d="M63.7002 75.5938C64.8654 71.3165 67.0178 63.708 69.5128 60.0065C71.3361 57.2921 77.0391 52.0964 82.6324 48.8473C86.8959 46.3797 91.1046 45.0225 93.49 46.7499C94.1206 47.2023 94.7238 48.2167 94.7238 48.2167" fill="white"/>
<path d="M63.7002 75.5938C64.8654 71.3165 67.0178 63.708 69.5128 60.0065C71.3361 57.2921 77.0391 52.0964 82.6324 48.8473C86.8959 46.3797 91.1046 45.0225 93.49 46.7499C94.1206 47.2023 94.7238 48.2167 94.7238 48.2167C94.7238 48.2167 96.4992 51.5001 84.4992 59.5001L81.999 61.0001" stroke="#25416C" stroke-width="2.5" stroke-miterlimit="2.6131" stroke-linecap="round" stroke-linejoin="round"/>
<path d="M23 70.5C27 72.1 29.3333 77.1667 30 79.5L47 75L43.5 62.5L37 55.5L24.5 47.5L18.5 46.5L16 47.5L14.5 42L10 32L5.5 28.5L2 30.5V40.5L7 55.5L13 65C14.6667 66.1667 19 68.9 23 70.5Z" fill="white"/>
<path d="M30.1901 80.1242C24.2677 66.6481 17.5365 70.2125 10.2296 61.7403C5.96608 56.805 -0.627992 32.8004 3.10088 29.5787C5.43143 27.5635 8.1047 29.9626 9.53045 31.8819C12.519 35.8164 15.7544 43.9321 16.2753 48.7166V48.7303" stroke="#25416C" stroke-width="2.5" stroke-miterlimit="2.6131" stroke-linecap="round" stroke-linejoin="round"/>
<path d="M47.2998 76.0938C46.1346 71.8165 43.9822 64.208 41.4872 60.5065C39.6639 57.7921 33.9609 52.5964 28.3676 49.3473C24.1041 46.8797 19.8954 45.5225 17.51 47.2499C16.8794 47.7023 16.2762 48.7167 16.2762 48.7167" fill="white"/>
<path d="M47.2998 76.0938C46.1346 71.8165 43.9822 64.208 41.4872 60.5065C39.6639 57.7921 33.9609 52.5964 28.3676 49.3473C24.1041 46.8797 19.8954 45.5225 17.51 47.2499C16.8794 47.7023 16.2762 48.7167 16.2762 48.7167C16.2762 48.7167 14.5008 52.0001 26.5008 60.0001L29.001 61.5001" stroke="#25416C" stroke-width="2.5" stroke-miterlimit="2.6131" stroke-linecap="round" stroke-linejoin="round"/>
<path d="M30.1892 80.1241C28.5578 80.7821 27.5022 81.5224 27.1183 82.482C26.4329 84.3053 31.4915 96.2185 32.3141 99.3305C32.6705 100.674 32.8625 101.387 34.0826 100.784C38.8122 98.4531 43.4047 91.6808 48.6142 88.5689C50.2319 87.5955 51.9044 86.9238 52.3294 85.6762C52.3842 85.5117 52.4116 85.3061 52.4116 85.0593C52.4116 83.3183 51.0407 79.8499 50.5609 78.3967C50.2182 77.4097 49.7109 76.1621 47.2844 76.0936C43.9805 76.0388 33.6165 78.7395 30.1892 80.1241Z" fill="#1B97A2" fill-opacity="0.5" stroke="#25416C" stroke-width="2.5" stroke-miterlimit="2.6131" stroke-linecap="round" stroke-linejoin="round"/>
<path d="M36.8115 85.0321C36.1946 84.2507 35.0567 84.1273 34.2753 84.7305C33.4939 85.3474 33.3705 86.499 33.9874 87.2804C34.618 88.0618 35.7422 88.1852 36.5236 87.5683C37.3187 86.9514 37.4284 85.8135 36.8115 85.0321Z" stroke="#25416C" stroke-width="2.5" stroke-miterlimit="2.6131" stroke-linecap="round" stroke-linejoin="round"/>
<path d="M53 15.5V44.5" stroke="#25416C" stroke-width="2.5" stroke-linejoin="round"/>
<path d="M53 16C56.866 16 60 12.866 60 9C60 5.13401 56.866 2 53 2C49.134 2 46 5.13401 46 9C46 12.866 49.134 16 53 16Z" fill="#1B97A2" fill-opacity="0.5" stroke="#25416C" stroke-width="2.5"/>
<path d="M58.9997 20.5C52.9992 24 51.833 33.3334 53.4997 37C54.9981 37 65.5013 40.0003 70.5013 33.0003C74.5013 27.4003 74.502 20.8335 73.5013 18.5001C70.0013 17.5001 65.0001 17 58.9997 20.5Z" stroke="#25416C" stroke-width="2.5" stroke-linejoin="round"/>
<path d="M53.5 37L66.5 24.5" stroke="#25416C" stroke-width="2.5" stroke-linecap="round" stroke-linejoin="round"/>
<path d="M61 22.5L61.5 29" stroke="#25416C" stroke-width="2.5" stroke-linecap="round" stroke-linejoin="round"/>
<path d="M58 33L63 33.5" stroke="#25416C" stroke-width="2.5" stroke-linecap="round" stroke-linejoin="round"/>
<path d="M41.4999 35.5001C44.6999 39.1001 49.8332 38.6668 51.9999 38.0001L53.5 32C53.1667 30.5 51.8 27.1001 49 25.5001C46.2 23.9001 41.4999 24.5001 39.4999 25.0001C38.8332 27.0001 38.2999 31.9001 41.4999 35.5001Z" stroke="#25416C" stroke-width="2.5" stroke-linecap="round" stroke-linejoin="round"/>
<path d="M44 28.5L52.5 37.5" stroke="#25416C" stroke-width="2.5" stroke-linecap="round" stroke-linejoin="round"/>
<path d="M43.5 32.5L46.5 31" stroke="#25416C" stroke-width="2.5" stroke-linecap="round" stroke-linejoin="round"/>
<path d="M49.5 30.5V33" stroke="#25416C" stroke-width="2.5" stroke-linecap="round" stroke-linejoin="round"/>
<path d="M26.5 27.5L16 8" stroke="#27348B" stroke-width="2.5" stroke-linecap="round" stroke-linejoin="round"/>
<path d="M84 27.5L94.5 8" stroke="#27348B" stroke-width="2.5" stroke-linecap="round" stroke-linejoin="round"/>
</svg>
