<svg width="144" height="96" viewBox="0 0 144 96" fill="none" xmlns="http://www.w3.org/2000/svg">
<g filter="url(#filter0_i_14_43)">
<path d="M94.2611 65.8881H54.7324V81.0001H94.2611V65.8881Z" fill="#1B97A2" fill-opacity="0.5" stroke="#25416C" stroke-width="2.5" stroke-miterlimit="10"/>
<path d="M47.8699 25.5997C47.8699 25.5997 43.3425 29.7312 44.9994 36.4345C44.9994 36.4345 48.6366 47.6257 57.884 56.3065V65.888H91.5137V56.9083L96.0912 52.9607C96.0912 52.9607 99.3778 50.4388 99.3586 46.0735V21.265H81.5805" fill="white"/>
<path d="M47.8699 25.5997C47.8699 25.5997 43.3425 29.7312 44.9994 36.4345C44.9994 36.4345 48.6366 47.6257 57.884 56.3065V65.888H91.5137V56.9083L96.0912 52.9607C96.0912 52.9607 99.3778 50.4388 99.3586 46.0735V21.265H81.5805" stroke="#25416C" stroke-width="2.5" stroke-miterlimit="10"/>
<path d="M101.79 17.5244C101.705 17.5167 101.624 17.509 101.536 17.509H43.3196C42.9497 17.509 42.6145 17.5473 42.2986 17.6087C39.7979 11.3922 33.6908 7 26.5549 7C19.5924 7 13.6085 11.1775 11 17.1487H26.5549V30.582H11.0038C13.6124 36.5532 19.5924 40.7308 26.5587 40.7308C33.6946 40.7308 39.8018 36.3424 42.3024 30.1259C42.6184 30.1834 42.9497 30.2256 43.3235 30.2256H101.536C101.586 30.2256 101.632 30.218 101.682 30.218C104.167 36.4613 110.286 40.8764 117.445 40.8764C124.408 40.8764 130.388 36.6989 133 30.7277H117.445V17.2905H133C130.388 11.3193 124.408 7.1418 117.445 7.1418C110.394 7.14564 104.345 11.4305 101.79 17.5244Z" fill="#1B97A2" fill-opacity="0.5" stroke="#25416C" stroke-width="2.5" stroke-miterlimit="10"/>
<path d="M97.4941 22.2806C98.4149 22.2806 99.1624 23.028 99.1624 23.944C99.1624 24.86 98.4149 25.6035 97.4941 25.6035H46.5101C45.5854 25.6035 44.8379 24.86 44.8379 23.944C44.8379 23.028 45.5854 22.2806 46.5101 22.2806H97.4941Z" fill="white" stroke="#25416C" stroke-width="2.5" stroke-miterlimit="10"/>
<path d="M27.4062 11.4458C34.2609 11.6068 39.6899 17.2637 39.5242 24.0819" stroke="#25416C" stroke-width="2.5" stroke-miterlimit="10"/>
<path d="M119.869 36.4345C113.015 36.2735 107.586 30.6166 107.748 23.7983" stroke="#25416C" stroke-width="2.5" stroke-miterlimit="10"/>
<path d="M68.0858 23.783C68.0858 26.5885 65.8048 28.8536 62.9844 28.8536C60.1716 28.8536 57.8867 26.5846 57.8867 23.783V14.2858C57.8867 11.4842 60.1716 9.21143 62.9844 9.21143C65.8048 9.21143 68.0858 11.4842 68.0858 14.2858V23.783Z" fill="white" stroke="#25416C" stroke-width="2.5" stroke-miterlimit="10"/>
<path d="M78.9647 23.0663C78.9647 25.8641 76.6799 28.1368 73.8671 28.1368C71.0544 28.1368 68.7656 25.8641 68.7656 23.0663V12.0744C68.7656 9.27273 71.0544 7 73.8671 7C76.6837 7 78.9647 9.27273 78.9647 12.0744V23.0663Z" fill="white" stroke="#25416C" stroke-width="2.5" stroke-miterlimit="10"/>
<path d="M89.164 21.2458C89.164 24.0474 86.8791 26.3163 84.0664 26.3163C81.2459 26.3163 78.9688 24.0436 78.9688 21.2458V14.2858C78.9688 11.4842 81.2459 9.21143 84.0664 9.21143C86.883 9.21143 89.164 11.4842 89.164 14.2858V21.2458Z" fill="white" stroke="#25416C" stroke-width="2.5" stroke-miterlimit="10"/>
<path d="M99.3593 21.2613C99.3593 24.063 97.0744 26.3319 94.2617 26.3319C91.4451 26.3319 89.1641 24.0591 89.1641 21.2613V16.5204C89.1641 13.7149 91.4489 11.4498 94.2617 11.4498C97.0744 11.4498 99.3593 13.7187 99.3593 16.5204V21.2613Z" fill="white" stroke="#25416C" stroke-width="2.5" stroke-miterlimit="10"/>
<path d="M68.3137 47.6257C70.248 32.3566 57.4365 28.8536 57.4365 28.8536H72.2477C78.9636 27.4164 78.9636 19.0344 78.9636 19.0344H55.6988L47.8693 25.6035C47.8693 25.6035 43.6425 30.1873 44.9988 36.4383C44.9988 36.4383 48.1891 46.7327 57.8834 56.3104" fill="white"/>
<path d="M68.3137 47.6257C70.248 32.3566 57.4365 28.8536 57.4365 28.8536H72.2477C78.9636 27.4164 78.9636 19.0344 78.9636 19.0344H55.6988L47.8693 25.6035C47.8693 25.6035 43.6425 30.1873 44.9988 36.4383C44.9988 36.4383 48.1891 46.7327 57.8834 56.3104" stroke="#25416C" stroke-width="2.5" stroke-miterlimit="10" stroke-linejoin="round"/>
<path d="M90.851 73.4459C90.851 74.9329 89.6373 76.1402 88.1423 76.1402C86.6434 76.1402 85.4297 74.9368 85.4297 73.4459C85.4297 71.9588 86.6434 70.7477 88.1423 70.7477C89.6411 70.7477 90.851 71.955 90.851 73.4459Z" fill="white" stroke="#25416C" stroke-width="2.5" stroke-miterlimit="10"/>
</g>
<defs>
<filter id="filter0_i_14_43" x="9.08987" y="5.75" width="125.821" height="80.5" filterUnits="userSpaceOnUse" color-interpolation-filters="sRGB">
<feFlood flood-opacity="0" result="BackgroundImageFix"/>
<feBlend mode="normal" in="SourceGraphic" in2="BackgroundImageFix" result="shape"/>
<feColorMatrix in="SourceAlpha" type="matrix" values="0 0 0 0 0 0 0 0 0 0 0 0 0 0 0 0 0 0 127 0" result="hardAlpha"/>
<feOffset dy="4"/>
<feGaussianBlur stdDeviation="4.5"/>
<feComposite in2="hardAlpha" operator="arithmetic" k2="-1" k3="1"/>
<feColorMatrix type="matrix" values="0 0 0 0 0 0 0 0 0 0.017875 0 0 0 0 0.1375 0 0 0 0.25 0"/>
<feBlend mode="normal" in2="shape" result="effect1_innerShadow_14_43"/>
</filter>
</defs>
</svg>
