<svg width="96" height="126" viewBox="0 0 96 126" fill="none" xmlns="http://www.w3.org/2000/svg">
<g filter="url(#filter0_i_15_116)">
<path d="M85 20.4567H11V111H85V20.4567Z" fill="#1B97A2" fill-opacity="0.5" stroke="#25416C" stroke-width="2.5" stroke-miterlimit="10"/>
<path d="M79.1234 20.4567H16.8789V104.933H79.1234V20.4567Z" fill="white" stroke="#25416C" stroke-width="2.5" stroke-miterlimit="10"/>
<path d="M24.2188 54.3365H71.7859" stroke="#25416C" stroke-width="2.5" stroke-miterlimit="10"/>
<path d="M24.2188 70.5725H35.353" stroke="#25416C" stroke-width="2.5" stroke-miterlimit="10"/>
<path d="M39.7344 70.5725H71.7865" stroke="#25416C" stroke-width="2.5" stroke-miterlimit="10"/>
<path d="M24.2188 61.9352H42.4392" stroke="#25416C" stroke-width="2.5" stroke-miterlimit="10"/>
<path d="M47.498 61.9352H71.7866" stroke="#25416C" stroke-width="2.5" stroke-miterlimit="10"/>
<path d="M24.2188 78.8281H71.7859" stroke="#25416C" stroke-width="2.5" stroke-miterlimit="10"/>
<path d="M24.2188 95.072H35.353" stroke="#25416C" stroke-width="2.5" stroke-miterlimit="10"/>
<path d="M39.7344 95.072H71.7865" stroke="#25416C" stroke-width="2.5" stroke-miterlimit="10"/>
<path d="M24.2188 86.4309H42.4392" stroke="#25416C" stroke-width="2.5" stroke-miterlimit="10"/>
<path d="M47.498 86.4309H71.7866" stroke="#25416C" stroke-width="2.5" stroke-miterlimit="10"/>
<path d="M56.7554 16.3269C56.7595 16.2161 56.7715 16.1011 56.7715 15.9862C56.7715 11.0231 52.8436 7 47.9979 7C43.1522 7 39.2244 11.0272 39.2244 15.9862C39.2244 16.1011 39.2404 16.2161 39.2444 16.3269H33.1562V25.9987H62.8396V16.3269H56.7554Z" fill="#1B97A2" fill-opacity="0.5" stroke="#25416C" stroke-width="2.5" stroke-miterlimit="10"/>
<path d="M56.712 40.223C56.712 39.952 56.7 39.6852 56.6759 39.4224L58.4194 38.9504L57.6378 35.892L55.8623 36.3682C55.4895 35.5677 55.0046 34.837 54.4194 34.1884L55.5617 32.6777L53.1168 30.7442L51.9625 32.2795C51.213 31.8854 50.4074 31.6062 49.5537 31.4502V29.5044H46.4675V31.4502C45.6579 31.598 44.8843 31.8608 44.1709 32.222L43.0326 30.6703L40.5597 32.5709L41.6859 34.1022C41.2571 34.5619 40.8763 35.071 40.5557 35.6211L38.8202 34.9684L37.7541 37.9323L39.4575 38.5727C39.3573 39.1064 39.3012 39.6647 39.3012 40.2271C39.3012 40.4241 39.3132 40.617 39.3212 40.81L37.5938 41.2739L38.3753 44.3322L40.0627 43.8765C40.4274 44.714 40.9164 45.4817 41.5016 46.1549L40.4515 47.5507L42.8964 49.4801L43.9344 48.109C44.708 48.5318 45.5617 48.8356 46.4635 48.9998V50.7239H49.5497V48.9998C50.4034 48.8438 51.217 48.5605 51.9665 48.1705L52.9805 49.5581L55.4535 47.6615L54.4234 46.2534C54.8643 45.769 55.241 45.2271 55.5657 44.6524L57.197 45.2641L58.2631 42.2961L56.5998 41.6639C56.6679 41.1959 56.712 40.7115 56.712 40.223ZM48.0026 44.2378C45.7741 44.2378 43.9705 42.3905 43.9705 40.108C43.9705 37.8255 45.7741 35.9823 48.0026 35.9823C50.227 35.9823 52.0346 37.8255 52.0346 40.108C52.0346 42.3905 50.227 44.2378 48.0026 44.2378Z" stroke="#25416C" stroke-width="2.5" stroke-miterlimit="10"/>
</g>
<defs>
<filter id="filter0_i_15_116" x="9.75" y="5.75" width="76.5" height="110.5" filterUnits="userSpaceOnUse" color-interpolation-filters="sRGB">
<feFlood flood-opacity="0" result="BackgroundImageFix"/>
<feBlend mode="normal" in="SourceGraphic" in2="BackgroundImageFix" result="shape"/>
<feColorMatrix in="SourceAlpha" type="matrix" values="0 0 0 0 0 0 0 0 0 0 0 0 0 0 0 0 0 0 127 0" result="hardAlpha"/>
<feOffset dy="4"/>
<feGaussianBlur stdDeviation="4.5"/>
<feComposite in2="hardAlpha" operator="arithmetic" k2="-1" k3="1"/>
<feColorMatrix type="matrix" values="0 0 0 0 0 0 0 0 0 0.017875 0 0 0 0 0.1375 0 0 0 0.25 0"/>
<feBlend mode="normal" in2="shape" result="effect1_innerShadow_15_116"/>
</filter>
</defs>
</svg>
