<svg width="114" height="126" viewBox="0 0 114 126" fill="none" xmlns="http://www.w3.org/2000/svg">
<g filter="url(#filter0_i_15_78)">
<path d="M61.8203 27.3088L60.1401 7H57.0039H53.8631L52.1875 27.3088H61.8203Z" fill="#1B97A2" fill-opacity="0.5" stroke="#25416C" stroke-width="2.5" stroke-miterlimit="10"/>
<path d="M98.8201 60.6082C98.8201 47.1435 93.1659 33.4642 82.1308 24.4952C79.3978 22.272 76.3826 20.429 73.1791 18.9975L72.2606 13.0794C68.0177 11.12 64.0123 10.1359 60.3743 9.75566L61.8215 27.3045H52.1887L53.6359 9.69751C46.3553 10.3461 41.7495 13.0749 41.7495 13.0749L40.6877 18.9975C29.6526 24.0568 21.6283 33.8534 17.8604 44.6653C16.0682 49.8007 15.1855 55.2 15.1855 60.5992H98.8201" fill="white"/>
<path d="M98.8201 60.6082C98.8201 47.1435 93.1659 33.4642 82.1308 24.4952C79.3978 22.272 76.3826 20.429 73.1791 18.9975L72.2606 13.0794C68.0177 11.12 64.0123 10.1359 60.3743 9.75566L61.8215 27.3045H52.1887L53.6359 9.69751C46.3553 10.3461 41.7495 13.0749 41.7495 13.0749L40.6877 18.9975C29.6526 24.0568 21.6283 33.8534 17.8604 44.6653C16.0682 49.8007 15.1855 55.1999 15.1855 60.5992H98.8201" stroke="#25416C" stroke-width="2.5" stroke-miterlimit="10"/>
<path d="M72.2539 13.0792L75.4574 33.7012" stroke="#25416C" stroke-width="2.5" stroke-miterlimit="10"/>
<path d="M38.0664 33.7012L41.7492 13.0792" stroke="#25416C" stroke-width="2.5" stroke-miterlimit="10"/>
<path d="M24.9488 41.3864C24.9488 41.3864 20.7104 48.8165 21.0419 54.4798H47.1936" stroke="#25416C" stroke-width="2.5" stroke-miterlimit="10"/>
<path d="M99.2899 60.6082H57.0044H14.7727C14.7727 60.6082 10.9644 60.7513 11.0003 66.6024H57.0044H103C103.044 60.7513 99.2899 60.6082 99.2899 60.6082Z" fill="white" stroke="#25416C" stroke-width="2.5" stroke-miterlimit="10"/>
<path d="M95.193 66.6024H76.0216C75.7258 76.6495 67.4775 84.7014 57.3475 84.7014C47.2085 84.7014 38.9691 76.6495 38.6689 66.6024H19.4931C19.4975 67.4031 19.5334 68.1904 19.5827 68.9822L12.0781 70.9415L15.4742 83.9141L22.8175 81.995C24.408 85.5245 26.5272 88.7766 29.0765 91.635L24.5111 97.5398L35.1339 105.73L39.6322 99.9107C43.0238 101.709 46.7246 102.997 50.6314 103.695V111H64.0546V103.695C67.7688 103.033 71.2948 101.825 74.552 100.166L78.9651 106.048L89.7045 98.014L85.2332 92.0511C87.1328 89.9889 88.7905 87.7119 90.1929 85.2606L97.2808 87.8641L101.913 75.2895L94.6867 72.6279C95.0137 70.6642 95.1885 68.6557 95.193 66.6024Z" fill="#1B97A2" fill-opacity="0.5" stroke="#25416C" stroke-width="2.5" stroke-miterlimit="10" stroke-linejoin="round"/>
<path d="M57.3503 92.4491C45.5939 92.4491 34.9621 84.3882 31.8438 73.0618" stroke="#25416C" stroke-width="2.5" stroke-miterlimit="10"/>
</g>
<defs>
<filter id="filter0_i_15_78" x="9.75005" y="5.75" width="94.5003" height="110.5" filterUnits="userSpaceOnUse" color-interpolation-filters="sRGB">
<feFlood flood-opacity="0" result="BackgroundImageFix"/>
<feBlend mode="normal" in="SourceGraphic" in2="BackgroundImageFix" result="shape"/>
<feColorMatrix in="SourceAlpha" type="matrix" values="0 0 0 0 0 0 0 0 0 0 0 0 0 0 0 0 0 0 127 0" result="hardAlpha"/>
<feOffset dy="4"/>
<feGaussianBlur stdDeviation="4.5"/>
<feComposite in2="hardAlpha" operator="arithmetic" k2="-1" k3="1"/>
<feColorMatrix type="matrix" values="0 0 0 0 0 0 0 0 0 0.017875 0 0 0 0 0.1375 0 0 0 0.25 0"/>
<feBlend mode="normal" in2="shape" result="effect1_innerShadow_15_78"/>
</filter>
</defs>
</svg>
