<svg width="11" height="11" viewBox="0 0 11 11" fill="none" xmlns="http://www.w3.org/2000/svg">
<path fill-rule="evenodd" clip-rule="evenodd" d="M1.70711 0.292893C1.31658 -0.097631 0.683417 -0.097631 0.292893 0.292893C-0.097631 0.683417 -0.097631 1.31658 0.292893 1.70711L4.0842 5.49841L0.292893 9.28971C-0.097631 9.68024 -0.097631 10.3134 0.292893 10.7039C0.683417 11.0945 1.31658 11.0945 1.70711 10.7039L5.49841 6.91262L9.2897 10.7039C9.68023 11.0944 10.3134 11.0944 10.7039 10.7039C11.0944 10.3134 11.0944 9.68023 10.7039 9.2897L6.91262 5.49841L10.7039 1.70712C11.0944 1.31659 11.0944 0.683429 10.7039 0.292904C10.3134 -0.0976199 9.68023 -0.0976199 9.2897 0.292904L5.49841 4.0842L1.70711 0.292893Z" fill="#1B97A2"/>
</svg>
