<svg width="51" height="51" viewBox="0 0 51 51" fill="none" xmlns="http://www.w3.org/2000/svg">
<path fill-rule="evenodd" clip-rule="evenodd" d="M0 25.5C0 11.4167 11.4167 0 25.5 0C39.5833 0 51 11.4167 51 25.5C51 39.5833 39.5833 51 25.5 51C11.4167 51 0 39.5833 0 25.5ZM25.5013 11.9C21.8077 11.9 21.3442 11.9162 19.8935 11.9822C18.4456 12.0485 17.4574 12.2777 16.5926 12.614C15.6981 12.9614 14.9393 13.426 14.1834 14.1823C13.4269 14.9382 12.9622 15.697 12.6137 16.5912C12.2766 17.4562 12.0471 18.4448 11.9819 19.8921C11.917 21.3427 11.9 21.8066 11.9 25.5001C11.9 29.1937 11.9164 29.6558 11.9822 31.1065C12.0488 32.5544 12.278 33.5426 12.614 34.4074C12.9617 35.3019 13.4263 36.0606 14.1826 36.8166C14.9382 37.5731 15.697 38.0389 16.5909 38.3863C17.4562 38.7226 18.4448 38.9518 19.8924 39.0181C21.343 39.0841 21.8063 39.1003 25.4996 39.1003C29.1934 39.1003 29.6556 39.0841 31.1062 39.0181C32.5541 38.9518 33.5435 38.7226 34.4088 38.3863C35.303 38.0389 36.0606 37.5731 36.8163 36.8166C37.5728 36.0606 38.0375 35.3019 38.386 34.4077C38.7203 33.5426 38.9498 32.5541 39.0178 31.1068C39.083 29.6561 39.1 29.1937 39.1 25.5001C39.1 21.8066 39.083 21.343 39.0178 19.8924C38.9498 18.4445 38.7203 17.4562 38.386 16.5915C38.0375 15.697 37.5728 14.9382 36.8163 14.1823C36.0598 13.4258 35.3033 12.9611 34.408 12.614C33.5409 12.2777 32.5521 12.0485 31.1043 11.9822C29.6536 11.9162 29.1917 11.9 25.497 11.9H25.5013Z" fill="#1B97A2"/>
<path fill-rule="evenodd" clip-rule="evenodd" d="M24.2812 14.3511C24.6433 14.3505 25.0474 14.3511 25.5013 14.3511C29.1325 14.3511 29.5629 14.3641 30.9969 14.4293C32.3229 14.4899 33.0426 14.7115 33.522 14.8976C34.1566 15.1441 34.6091 15.4388 35.0848 15.9148C35.5608 16.3908 35.8555 16.8441 36.1026 17.4788C36.2887 17.9576 36.5106 18.6773 36.5709 20.0033C36.6361 21.437 36.6503 21.8677 36.6503 25.4972C36.6503 29.1268 36.6361 29.5574 36.5709 30.9911C36.5103 32.3171 36.2887 33.0368 36.1026 33.5156C35.8561 34.1503 35.5608 34.6022 35.0848 35.078C34.6088 35.554 34.1569 35.8486 33.522 36.0951C33.0431 36.2821 32.3229 36.5031 30.9969 36.5638C29.5632 36.6289 29.1325 36.6431 25.5013 36.6431C21.8698 36.6431 21.4394 36.6289 20.0057 36.5638C18.6797 36.5026 17.96 36.281 17.4803 36.0949C16.8456 35.8483 16.3923 35.5537 15.9163 35.0777C15.4403 34.6017 15.1456 34.1495 14.8985 33.5145C14.7124 33.0357 14.4905 32.316 14.4302 30.99C14.365 29.5563 14.352 29.1256 14.352 25.4938C14.352 21.862 14.365 21.4336 14.4302 19.9999C14.4908 18.6739 14.7124 17.9542 14.8985 17.4748C15.1451 16.8402 15.4403 16.3868 15.9163 15.9108C16.3923 15.4348 16.8456 15.1402 17.4803 14.8931C17.9597 14.7061 18.6797 14.4851 20.0057 14.4242C21.2603 14.3675 21.7465 14.3505 24.2812 14.3477V14.3511ZM32.7609 16.6093C31.8599 16.6093 31.1289 17.3394 31.1289 18.2407C31.1289 19.1417 31.8599 19.8727 32.7609 19.8727C33.6619 19.8727 34.3929 19.1417 34.3929 18.2407C34.3929 17.3397 33.6619 16.6093 32.7609 16.6093ZM25.5013 18.5161C21.6442 18.5161 18.517 21.6433 18.517 25.5003C18.517 29.3574 21.6442 32.4832 25.5013 32.4832C29.3583 32.4832 32.4844 29.3574 32.4844 25.5003C32.4844 21.6433 29.3583 18.5161 25.5013 18.5161Z" fill="#1B97A2"/>
<path fill-rule="evenodd" clip-rule="evenodd" d="M25.5013 20.9668C28.0048 20.9668 30.0347 22.9963 30.0347 25.5001C30.0347 28.0037 28.0048 30.0335 25.5013 30.0335C22.9974 30.0335 20.9679 28.0037 20.9679 25.5001C20.9679 22.9963 22.9974 20.9668 25.5013 20.9668Z" fill="#1B97A2"/>
</svg>
