<svg width="30" height="30" viewBox="0 0 30 30" fill="none" xmlns="http://www.w3.org/2000/svg">
<path fill-rule="evenodd" clip-rule="evenodd" d="M15 30C23.2843 30 30 23.2843 30 15C30 6.71573 23.2843 0 15 0C6.71573 0 0 6.71573 0 15C0 23.2843 6.71573 30 15 30ZM22.9316 19.4316C23.2027 19.6289 23.3857 19.7622 23.4441 19.9154C23.5167 20.1057 23.3512 20.9144 22.8011 21.7849C22.2508 22.6552 20.3626 23.1658 19.5155 23.1132C18.756 23.0661 17.8129 22.9182 16.8493 22.4007C16.265 22.0871 15.5177 21.6753 14.5806 21.0498C10.898 18.5926 8.93431 14.3671 8.56319 13.5685C8.53719 13.5126 8.519 13.4734 8.50859 13.4529L8.50603 13.4479C8.33763 13.1163 7.20926 10.8944 7.61408 8.91675C7.99489 7.05636 9.16408 6.27971 9.70227 5.92222C9.73914 5.89772 9.77305 5.8752 9.80354 5.85443C10.2791 5.53048 10.764 5.52443 11.0497 5.5829C11.3353 5.64137 11.6208 5.7024 11.8681 5.76532C11.8986 5.77309 11.9307 5.77947 11.9638 5.78607C12.2138 5.8358 12.5255 5.89781 12.6903 6.65598C12.7537 6.94776 12.8454 7.37986 12.9421 7.8356C13.1376 8.75716 13.3536 9.77535 13.3976 9.92529C13.4634 10.1494 13.4865 10.3998 13.2885 10.6402C13.2588 10.6763 13.2311 10.7104 13.2047 10.7429C13.0552 10.9274 12.9452 11.0631 12.7221 11.2262C12.6344 11.2903 12.543 11.3601 12.4516 11.4299C12.2695 11.569 12.0875 11.708 11.9345 11.8022C11.6787 11.9597 11.4107 12.1325 11.5779 12.588C11.7451 13.0436 12.3343 14.5421 13.389 15.8739C14.5227 17.3054 15.6133 18.0356 16.1661 18.4057C16.2741 18.478 16.3615 18.5365 16.4247 18.5839C16.8117 18.8738 17.0686 18.8911 17.3737 18.6728C17.6789 18.4545 18.6864 17.7127 19.0547 17.3669C19.4231 17.0212 19.6951 17.147 20.0602 17.3621C20.4255 17.5775 22.3323 18.9857 22.7194 19.2755C22.795 19.3321 22.8659 19.3838 22.9316 19.4316Z" fill="#25416C"/>
</svg>
