<svg width="112" height="98" viewBox="0 0 112 98" fill="none" xmlns="http://www.w3.org/2000/svg">
<path d="M51.1306 87.1074C52.9848 99.652 23.9619 100.035 21.505 81.0659C9.56543 84.4213 1.32047 72.8597 7.0947 62.6413C0.170229 57.9013 0.299045 44.0737 7.51338 39.9291C2.00141 34.0353 8.68664 17.5354 22.0203 20.48C18.3809 7.22921 37.659 -3.57075 51.2089 6.98921L51.1306 87.1074Z" fill="white" fill-opacity="0.5" stroke="#25416C" stroke-width="2.5" stroke-miterlimit="10"/>
<path d="M21.6094 17.5349C22.6032 23.4148 27.7609 27.9702 33.6501 29.0271" stroke="#25416C" stroke-width="2.5" stroke-miterlimit="10"/>
<path d="M33.6513 13.1184C32.2894 21.906 46.9895 25.5937 50.9832 19.8937" stroke="#25416C" stroke-width="2.5" stroke-miterlimit="10"/>
<path d="M26.3074 26.083C26.2844 29.1661 22.1711 33.1169 19.8477 34.0353" stroke="#25416C" stroke-width="2.5" stroke-miterlimit="10"/>
<path d="M17.207 44.0556C20.828 45.8925 20.9108 51.1771 24.8309 52.3494C28.9395 53.577 31.1756 49.0217 32.8274 45.8648C35.3395 41.0417 39.0801 39.0894 44.5184 39.9479C46.2944 40.2294 49.3725 41.4756 50.3985 41.9971" stroke="#25416C" stroke-width="2.5" stroke-miterlimit="10"/>
<path d="M13.0938 43.7599C15.9095 47.263 20.4231 42.0892 17.5015 39.0476" stroke="#25416C" stroke-width="2.5" stroke-miterlimit="10"/>
<path d="M51.2775 62.0322C47.4219 58.1738 41.413 62.5261 40.1202 66.703C38.5926 71.623 43.235 75.6291 41.6017 80.4198C40.6125 83.3275 38.335 84.6106 35.418 84.126" stroke="#25416C" stroke-width="2.5" stroke-miterlimit="10"/>
<path d="M21.6089 83.5352C17.0816 71.6507 39.5251 74.9968 29.8309 57.02" stroke="#25416C" stroke-width="2.5" stroke-miterlimit="10"/>
<path d="M6.92383 63.2044C8.53417 60.5644 12.3714 60.3705 15.1688 60.5413C17.6993 60.6982 20.5427 62.609 21.6101 62.909" stroke="#25416C" stroke-width="2.5" stroke-miterlimit="10"/>
<path d="M109.577 57.0244L110.001 44.0598L102.165 43.8014C101.691 41.1106 100.95 38.5122 99.9658 36.0337L107.153 32.083L100.932 20.7107L93.2898 24.9153C91.6426 22.9769 89.8161 21.1953 87.833 19.5984L92.3972 11.8584L81.2674 5.24922L76.5606 13.2292C74.2786 12.3984 71.8907 11.7707 69.4337 11.3646V2H63.043V95.9966H69.4337V90.1904C71.8676 89.7935 74.2279 89.175 76.4916 88.3535L79.2476 93.5458L90.6626 87.4627L87.7778 82.012C89.9081 80.2997 91.8681 78.3843 93.6119 76.2797L99.0042 79.7274L105.956 68.7843L100.15 65.0736C101.162 62.4382 101.907 59.6598 102.34 56.7844L109.577 57.0244Z" fill="white" stroke="#25416C" stroke-width="2.5" stroke-miterlimit="10"/>
<path d="M63.0332 20.6465V29.591C73.6891 29.6326 82.3159 38.3048 82.3159 49.0033C82.3159 59.7017 73.6937 68.3786 63.0332 68.4155V77.3554C78.6075 77.3139 91.228 64.6355 91.228 49.0033C91.228 33.3664 78.6121 20.688 63.0332 20.6465Z" fill="white" fill-opacity="0.5" stroke="#25416C" stroke-width="2.5" stroke-miterlimit="10"/>
</svg>
