<svg width="99" height="95" viewBox="0 0 99 95" fill="none" xmlns="http://www.w3.org/2000/svg">
<g clip-path="url(#clip0_18_158)">
<path d="M86.5596 73.7539C86.5596 78.8381 82.4416 82.9601 77.3535 82.9601H21.2472C16.163 82.9601 12.041 78.8421 12.041 73.7539V21.2423C12.041 16.1582 16.159 12.0361 21.2472 12.0361H77.3535C82.4416 12.0361 86.5596 16.1542 86.5596 21.2423V73.7539Z" fill="white" fill-opacity="0.5" stroke="#25416C" stroke-width="2.5" stroke-miterlimit="10"/>
<path d="M72.1023 63.5655C72.1023 66.6812 69.5784 69.2011 66.4667 69.2011H32.1299C29.0142 69.2011 26.4902 66.6812 26.4902 63.5655V31.4305C26.4902 28.3189 29.0142 25.7949 32.1299 25.7949H66.4667C69.5784 25.7949 72.1023 28.3189 72.1023 31.4305V63.5655Z" fill="white" stroke="#25416C" stroke-width="2.5" stroke-miterlimit="10"/>
<path d="M62.3503 47.6612C62.3503 47.2707 62.3301 46.8762 62.2979 46.4898L64.9104 45.8055L63.739 41.3252L61.0742 42.0296C60.5146 40.8582 59.782 39.7834 58.9166 38.8375L60.6274 36.6235L56.9642 33.7936L55.2292 36.0398C54.1142 35.4642 52.8985 35.0536 51.6225 34.8241V31.9741H46.9932V34.8241C45.7776 35.0415 44.6223 35.4239 43.5475 35.9512L41.8487 33.6849L38.1413 36.4584L39.824 38.7006C39.184 39.3769 38.6123 40.1175 38.1293 40.9226L35.5289 39.9646L33.9308 44.3121L36.4829 45.25C36.3339 46.0349 36.2574 46.844 36.2574 47.6652C36.2574 47.951 36.2655 48.2328 36.2856 48.5186L33.6973 49.1949L34.8687 53.6752L37.4007 53.011C37.9522 54.2347 38.6808 55.3578 39.5623 56.34L37.9844 58.3809L41.6515 61.2067L43.2013 59.1981C44.3727 59.818 45.6488 60.2648 46.9973 60.5063V63.0303H51.6265V60.5063C52.9066 60.2728 54.1263 59.8582 55.2454 59.2826L56.767 61.3154L60.4744 58.5379L58.9327 56.4769C59.5848 55.7644 60.1604 54.9754 60.6435 54.1341L63.0869 55.0318L64.685 50.6923L62.1892 49.7745C62.2899 49.0822 62.3503 48.3817 62.3503 47.6612ZM49.2998 56.3883C44.3928 56.3883 40.4157 52.4112 40.4157 47.5002C40.4157 42.5892 44.3928 38.612 49.2998 38.612C54.2108 38.612 58.188 42.5892 58.188 47.5002C58.188 52.4072 54.2068 56.3883 49.2998 56.3883Z" fill="white" fill-opacity="0.5" stroke="#25416C" stroke-width="2.5" stroke-miterlimit="10"/>
<path d="M23.0859 0V12.036" stroke="#25416C" stroke-width="2.5" stroke-miterlimit="10"/>
<path d="M31.8242 0V12.036" stroke="#25416C" stroke-width="2.5" stroke-miterlimit="10"/>
<path d="M40.5605 0V12.036" stroke="#25416C" stroke-width="2.5" stroke-miterlimit="10"/>
<path d="M49.2988 0V12.036" stroke="#25416C" stroke-width="2.5" stroke-miterlimit="10"/>
<path d="M58.0391 0V12.036" stroke="#25416C" stroke-width="2.5" stroke-miterlimit="10"/>
<path d="M66.7734 0V12.036" stroke="#25416C" stroke-width="2.5" stroke-miterlimit="10"/>
<path d="M75.5137 0V12.036" stroke="#25416C" stroke-width="2.5" stroke-miterlimit="10"/>
<path d="M98.5986 21.2864H86.5586" stroke="#25416C" stroke-width="2.5" stroke-miterlimit="10"/>
<path d="M98.5986 30.0215H86.5586" stroke="#25416C" stroke-width="2.5" stroke-miterlimit="10"/>
<path d="M98.5986 38.7607H86.5586" stroke="#25416C" stroke-width="2.5" stroke-miterlimit="10"/>
<path d="M98.5986 47.5H86.5586" stroke="#25416C" stroke-width="2.5" stroke-miterlimit="10"/>
<path d="M98.5986 56.2351H86.5586" stroke="#25416C" stroke-width="2.5" stroke-miterlimit="10"/>
<path d="M98.5986 64.9702H86.5586" stroke="#25416C" stroke-width="2.5" stroke-miterlimit="10"/>
<path d="M98.5986 73.7095H86.5586" stroke="#25416C" stroke-width="2.5" stroke-miterlimit="10"/>
<path d="M75.5137 94.9999V82.9558" stroke="#25416C" stroke-width="2.5" stroke-miterlimit="10"/>
<path d="M66.7734 94.9999V82.9558" stroke="#25416C" stroke-width="2.5" stroke-miterlimit="10"/>
<path d="M58.0391 94.9999V82.9558" stroke="#25416C" stroke-width="2.5" stroke-miterlimit="10"/>
<path d="M49.2988 94.9999V82.9558" stroke="#25416C" stroke-width="2.5" stroke-miterlimit="10"/>
<path d="M40.5605 94.9999V82.9558" stroke="#25416C" stroke-width="2.5" stroke-miterlimit="10"/>
<path d="M31.8242 94.9999V82.9558" stroke="#25416C" stroke-width="2.5" stroke-miterlimit="10"/>
<path d="M23.0859 95.0001V82.9561" stroke="#25416C" stroke-width="2.5" stroke-miterlimit="10"/>
<path d="M0 73.7095H12.0401" stroke="#25416C" stroke-width="2.5" stroke-miterlimit="10"/>
<path d="M0 64.9702H12.0401" stroke="#25416C" stroke-width="2.5" stroke-miterlimit="10"/>
<path d="M0 56.2351H12.0401" stroke="#25416C" stroke-width="2.5" stroke-miterlimit="10"/>
<path d="M0 47.5H12.0401" stroke="#25416C" stroke-width="2.5" stroke-miterlimit="10"/>
<path d="M0 38.7607H12.0401" stroke="#25416C" stroke-width="2.5" stroke-miterlimit="10"/>
<path d="M0 30.0215H12.0401" stroke="#25416C" stroke-width="2.5" stroke-miterlimit="10"/>
<path d="M0 21.2864H12.0401" stroke="#25416C" stroke-width="2.5" stroke-miterlimit="10"/>
<path d="M23.9915 22.1803C23.9915 23.6858 22.7677 24.9055 21.2662 24.9055C19.7607 24.9055 18.541 23.6858 18.541 22.1803C18.541 20.6707 19.7607 19.4551 21.2662 19.4551C22.7717 19.4551 23.9915 20.6707 23.9915 22.1803Z" stroke="#25416C" stroke-width="2.5" stroke-miterlimit="10"/>
<path d="M23.9915 72.8199C23.9915 74.3214 22.7677 75.5452 21.2662 75.5452C19.7607 75.5452 18.541 74.3214 18.541 72.8199C18.541 71.3144 19.7607 70.0947 21.2662 70.0947C22.7717 70.0947 23.9915 71.3144 23.9915 72.8199Z" stroke="#25416C" stroke-width="2.5" stroke-miterlimit="10"/>
<path d="M80.9641 22.1803C80.9641 23.6858 79.7404 24.9055 78.2389 24.9055C76.7334 24.9055 75.5137 23.6858 75.5137 22.1803C75.5137 20.6707 76.7374 19.4551 78.2389 19.4551C79.7444 19.4551 80.9641 20.6707 80.9641 22.1803Z" stroke="#25416C" stroke-width="2.5" stroke-miterlimit="10"/>
<path d="M80.9641 72.8199C80.9641 74.3214 79.7404 75.5452 78.2389 75.5452C76.7334 75.5452 75.5137 74.3214 75.5137 72.8199C75.5137 71.3144 76.7374 70.0947 78.2389 70.0947C79.7444 70.0947 80.9641 71.3144 80.9641 72.8199Z" stroke="#25416C" stroke-width="2.5" stroke-miterlimit="10"/>
</g>
<defs>
<clipPath id="clip0_18_158">
<rect width="99" height="95" fill="white"/>
</clipPath>
</defs>
</svg>
