<svg width="96" height="98" viewBox="0 0 96 98" fill="none" xmlns="http://www.w3.org/2000/svg">
<path d="M31.3292 83.6776V96.4853H74.4102V69.0918C93.7878 45.4045 85.0225 21.4337 85.0225 21.4337C74.8031 -8.46701 31.3575 5.0454 31.3575 5.0454C31.3575 5.0454 14.8356 7.7795 13.9648 27.3434C13.9648 27.3434 13.0979 35.6104 10.052 40.39L2.22639 52.1324C2.22639 52.1324 0.0512938 55.6118 9.18515 56.916C9.18515 56.916 12.3688 57.641 12.2271 60.5412V75.3255C12.2271 75.3255 9.61855 85.3991 21.5797 85.472L45.4978 80.8341C45.4978 80.8341 50.9295 79.5259 51.3629 73.0046" fill="white" fill-opacity="0.5"/>
<path d="M31.3292 83.6776V96.4853H74.4102V69.0918C93.7878 45.4045 85.0225 21.4337 85.0225 21.4337C74.8031 -8.46701 31.3575 5.0454 31.3575 5.0454C31.3575 5.0454 14.8356 7.7795 13.9648 27.3434C13.9648 27.3434 13.0979 35.6104 10.052 40.39L2.22639 52.1324C2.22639 52.1324 0.0512938 55.6118 9.18515 56.916C9.18515 56.916 12.3688 57.641 12.2271 60.5412V75.3255C12.2271 75.3255 9.61855 85.3991 21.5797 85.472L45.4978 80.8341C45.4978 80.8341 50.9295 79.5259 51.3629 73.0046" stroke="#25416C" stroke-width="2.5" stroke-miterlimit="10"/>
<path d="M71.4852 38.4742C71.4852 37.8099 71.4528 37.1538 71.3921 36.5057L75.7747 35.3554L73.8102 27.8579L69.3466 29.0244C68.4069 27.0681 67.1836 25.2696 65.7254 23.6859L68.5891 19.9756L62.4526 15.2366L59.5484 18.9995C57.673 18.0395 55.6438 17.3428 53.5011 16.9621V12.1865H45.7444V16.9621C43.711 17.3266 41.7749 17.9706 39.9765 18.8577L37.133 15.0543L30.9236 19.7002L33.7427 23.4631C32.6694 24.5932 31.7134 25.8367 30.9074 27.1774L26.5491 25.5734L23.8717 32.8521L28.1409 34.4237C27.8979 35.7361 27.7561 37.093 27.7561 38.4783C27.7561 38.9562 27.7804 39.4302 27.8088 39.9L23.4707 41.0382L25.4392 48.5397L29.6801 47.4299C30.5996 49.4754 31.8228 51.3588 33.2972 53.0114L30.6563 56.43L36.7928 61.1651L39.3932 57.8032C41.3536 58.8401 43.4923 59.5894 45.7444 59.9904V64.2192H53.5011V59.9904C55.6478 59.6097 57.6893 58.913 59.5687 57.949L62.1164 61.3473L68.3218 56.7014L65.7416 53.2504C66.8393 52.0555 67.7952 50.7391 68.6094 49.3215L72.6964 50.8242L75.3778 43.5495L71.1976 42.0103C71.384 40.8559 71.4852 39.6772 71.4852 38.4742ZM49.6207 50.0789C43.0589 50.0789 37.7365 44.7566 37.7365 38.1948C37.7365 31.633 43.0589 26.3146 49.6207 26.3146C56.1825 26.3146 61.5048 31.633 61.5048 38.1948C61.5048 44.7566 56.1865 50.0789 49.6207 50.0789Z" fill="white" stroke="#25416C" stroke-width="2.5" stroke-miterlimit="10"/>
<path d="M33.5215 37.0927C33.5215 28.611 40.3992 21.7373 48.8769 21.7373L33.5215 37.0927Z" fill="white"/>
<path d="M33.5215 37.0927C33.5215 28.611 40.3992 21.7373 48.8769 21.7373" stroke="#25416C" stroke-width="2.5" stroke-miterlimit="10"/>
<path d="M87.5 10.5C90.5 12.6667 95.9 21.5 93.5 39.5" stroke="#25416C" stroke-width="2.5" stroke-linecap="round" stroke-linejoin="round"/>
</svg>
