<svg width="80" height="110" viewBox="0 0 80 110" fill="none" xmlns="http://www.w3.org/2000/svg">
<path d="M56.4766 86.1055V82.1224C56.9415 76.541 56.5603 74.0139 59.8439 72.3403C70.7334 65.6628 78 53.6632 78 39.965C78 18.9993 60.9873 2 40 2C19.0127 2 2 18.9993 2 39.965C2 53.6632 9.26241 65.6628 20.1519 72.3403C23.9045 75.1477 23.0543 76.541 23.5192 82.1224V86.1055H56.4766Z" fill="white" fill-opacity="0.5" stroke="#25416C" stroke-width="2.5" stroke-miterlimit="10" stroke-linecap="round" stroke-linejoin="round"/>
<path d="M56.4894 86.1052H23.5195V99.5733H56.4894V86.1052Z" stroke="#25416C" stroke-width="2.5" stroke-miterlimit="10" stroke-linecap="round" stroke-linejoin="round"/>
<path d="M23.5195 90.804H56.4894" stroke="#25416C" stroke-width="2.5" stroke-miterlimit="10" stroke-linecap="round" stroke-linejoin="round"/>
<path d="M23.5195 95.2095H56.4894" stroke="#25416C" stroke-width="2.5" stroke-miterlimit="10" stroke-linecap="round" stroke-linejoin="round"/>
<path d="M30.2461 99.5735C30.9455 104.335 35.0417 108 40.0047 108C44.9678 108 49.0681 104.339 49.7633 99.5735H30.2461Z" fill="white" fill-opacity="0.5" stroke="#25416C" stroke-width="2.5" stroke-miterlimit="10" stroke-linecap="round" stroke-linejoin="round"/>
<path d="M66.495 44.0149L66.7337 36.6763L62.2816 36.5298C62.0135 35.0069 61.5905 33.5341 61.0335 32.1283L65.117 29.8941L61.578 23.4508L57.2347 25.8315C56.2966 24.7311 55.2579 23.7228 54.1312 22.8232L56.7279 18.4427L50.3995 14.698L47.7232 19.2167C46.4248 18.7439 45.0679 18.3925 43.669 18.1623V12.8655H36.3186V18.1707C35.2548 18.3464 34.2203 18.5891 33.2109 18.8987L30.7399 14.2504L24.2481 17.6979L26.6479 22.2166C25.6009 22.9781 24.625 23.8316 23.7245 24.7646L19.5027 22.0785L15.5533 28.2665L19.5321 30.802C18.8871 32.1618 18.3761 33.5885 18.0118 35.078L13.4926 34.9316L13.2539 42.2744L17.4464 42.4082C17.5804 44.0442 17.8903 45.6299 18.3594 47.1487L14.8748 49.0565L18.4096 55.4914L21.6471 53.7216C22.6439 55.0981 23.7873 56.3575 25.0648 57.4704L23.268 60.5038L29.5923 64.24L31.2969 61.3657C32.8884 62.0267 34.5721 62.5079 36.3228 62.7924V66.0851H43.6732V62.7924C45.0553 62.5706 46.3997 62.2192 47.6897 61.7548L49.2561 64.6961L55.7437 61.2485L54.1061 58.165C55.3207 57.1943 56.4306 56.1106 57.4232 54.9182L60.489 56.8721L64.4385 50.6799L61.1382 48.5796C61.712 47.0859 62.135 45.5127 62.3821 43.8852L66.495 44.0149Z" fill="white" stroke="#25416C" stroke-width="2.5" stroke-miterlimit="10"/>
<path d="M39.9961 23.4175C31.1212 23.4175 23.9258 30.6055 23.9258 39.4712C23.9258 48.337 31.1212 55.525 39.9961 55.525C48.8752 55.525 56.0664 48.337 56.0664 39.4712C56.0664 30.6055 48.871 23.4175 39.9961 23.4175ZM39.9961 50.4666C33.9189 50.4666 28.9936 45.5463 28.9936 39.4754C28.9936 33.4045 33.9189 28.48 39.9961 28.48C46.0733 28.48 50.9986 33.4045 50.9986 39.4754C50.9986 45.5421 46.0733 50.4666 39.9961 50.4666Z" fill="white" fill-opacity="0.5" stroke="#25416C" stroke-width="2.5" stroke-miterlimit="10"/>
<path d="M72.0308 39.9983C72.0308 57.1483 58.1132 71.0557 40.9414 71.0557" stroke="#25416C" stroke-width="2.5" stroke-miterlimit="10"/>
</svg>
