<svg width="51" height="51" viewBox="0 0 51 51" fill="none" xmlns="http://www.w3.org/2000/svg">
<path fill-rule="evenodd" clip-rule="evenodd" d="M14.809 25.9654C14.9571 25.817 15.133 25.6992 15.3266 25.6189C15.5202 25.5385 15.7278 25.4972 15.9374 25.4972C16.1471 25.4972 16.3546 25.5385 16.5483 25.6189C16.7419 25.6992 16.9177 25.817 17.0658 25.9654L25.4999 34.4027L33.934 25.9654C34.0822 25.8172 34.2581 25.6997 34.4517 25.6195C34.6454 25.5393 34.8529 25.498 35.0624 25.498C35.272 25.498 35.4795 25.5393 35.6731 25.6195C35.8667 25.6997 36.0426 25.8172 36.1908 25.9654C36.339 26.1136 36.4565 26.2895 36.5367 26.4831C36.6169 26.6767 36.6582 26.8842 36.6582 27.0938C36.6582 27.3033 36.6169 27.5109 36.5367 27.7045C36.4565 27.8981 36.339 28.074 36.1908 28.2222L26.6283 37.7847C26.4802 37.9331 26.3044 38.0508 26.1107 38.1312C25.9171 38.2115 25.7096 38.2529 25.4999 38.2529C25.2903 38.2529 25.0827 38.2115 24.8891 38.1312C24.6955 38.0508 24.5196 37.9331 24.3715 37.7847L14.809 28.2222C14.6606 28.0741 14.5429 27.8982 14.4625 27.7046C14.3822 27.511 14.3408 27.3034 14.3408 27.0938C14.3408 26.8842 14.3822 26.6766 14.4625 26.483C14.5429 26.2893 14.6606 26.1135 14.809 25.9654Z" fill="#1B97A2"/>
<path fill-rule="evenodd" clip-rule="evenodd" d="M25.5 3.1875C25.9227 3.1875 26.3281 3.35541 26.627 3.6543C26.9258 3.95318 27.0938 4.35856 27.0938 4.78125V33.4688C27.0938 33.8914 26.9258 34.2968 26.627 34.5957C26.3281 34.8946 25.9227 35.0625 25.5 35.0625C25.0773 35.0625 24.6719 34.8946 24.373 34.5957C24.0742 34.2968 23.9062 33.8914 23.9062 33.4688V4.78125C23.9062 4.35856 24.0742 3.95318 24.373 3.6543C24.6719 3.35541 25.0773 3.1875 25.5 3.1875Z" fill="#1B97A2"/>
<path fill-rule="evenodd" clip-rule="evenodd" d="M4.78125 43.0312C4.78125 44.2993 5.28499 45.5154 6.18165 46.4121C7.0783 47.3088 8.29443 47.8125 9.5625 47.8125H41.4375C42.7056 47.8125 43.9217 47.3088 44.8184 46.4121C45.715 45.5154 46.2188 44.2993 46.2188 43.0312V17.5312C46.2188 16.2632 45.715 15.0471 44.8184 14.1504C43.9217 13.2537 42.7056 12.75 41.4375 12.75H36.6562C36.2336 12.75 35.8282 12.9179 35.5293 13.2168C35.2304 13.5157 35.0625 13.9211 35.0625 14.3438C35.0625 14.7664 35.2304 15.1718 35.5293 15.4707C35.8282 15.7696 36.2336 15.9375 36.6562 15.9375H41.4375C41.8602 15.9375 42.2656 16.1054 42.5645 16.4043C42.8633 16.7032 43.0312 17.1086 43.0312 17.5312V43.0312C43.0312 43.4539 42.8633 43.8593 42.5645 44.1582C42.2656 44.4571 41.8602 44.625 41.4375 44.625H9.5625C9.13981 44.625 8.73444 44.4571 8.43555 44.1582C8.13666 43.8593 7.96875 43.4539 7.96875 43.0312V17.5312C7.96875 17.1086 8.13666 16.7032 8.43555 16.4043C8.73444 16.1054 9.13981 15.9375 9.5625 15.9375H14.3438C14.7664 15.9375 15.1718 15.7696 15.4707 15.4707C15.7696 15.1718 15.9375 14.7664 15.9375 14.3438C15.9375 13.9211 15.7696 13.5157 15.4707 13.2168C15.1718 12.9179 14.7664 12.75 14.3438 12.75H9.5625C8.29443 12.75 7.0783 13.2537 6.18165 14.1504C5.28499 15.0471 4.78125 16.2632 4.78125 17.5312V43.0312Z" fill="#1B97A2"/>
</svg>
