<svg width="16" height="16" viewBox="0 0 16 16" fill="none" xmlns="http://www.w3.org/2000/svg">
<g opacity="0.6">
<path opacity="0.6" fill-rule="evenodd" clip-rule="evenodd" d="M10.1051 10.1051C10.195 10.0152 10.3017 9.94376 10.4192 9.89506C10.5367 9.84636 10.6626 9.82129 10.7898 9.82129C10.917 9.82129 11.0429 9.84636 11.1604 9.89506C11.2779 9.94376 11.3846 10.0152 11.4745 10.1051L15.2003 13.831C15.3819 14.0124 15.4839 14.2586 15.484 14.5153C15.4841 14.772 15.3822 15.0182 15.2008 15.1998C15.0193 15.3814 14.7731 15.4835 14.5164 15.4836C14.2597 15.4837 14.0135 15.3818 13.8319 15.2003L10.1061 11.4745C10.0161 11.3846 9.94473 11.2779 9.89603 11.1604C9.84733 11.0429 9.82227 10.917 9.82227 10.7898C9.82227 10.6626 9.84733 10.5367 9.89603 10.4192C9.94473 10.3018 10.0161 10.195 10.1061 10.1051H10.1051Z" fill="#1B97A2"/>
<mask id="mask0_33_1092" style="mask-type:alpha" maskUnits="userSpaceOnUse" x="0" y="0" width="13" height="13">
<g opacity="0.6">
<path opacity="0.6" fill-rule="evenodd" clip-rule="evenodd" d="M6.29032 11.6129C6.98929 11.6129 7.68142 11.4752 8.32719 11.2077C8.97295 10.9403 9.55971 10.5482 10.054 10.054C10.5482 9.55971 10.9403 8.97295 11.2077 8.32719C11.4752 7.68142 11.6129 6.98929 11.6129 6.29032C11.6129 5.59135 11.4752 4.89922 11.2077 4.25346C10.9403 3.60769 10.5482 3.02094 10.054 2.52669C9.55971 2.03244 8.97295 1.64038 8.32719 1.3729C7.68142 1.10541 6.98929 0.967742 6.29032 0.967742C4.87869 0.967742 3.52487 1.52851 2.52669 2.52669C1.52851 3.52487 0.967742 4.87869 0.967742 6.29032C0.967742 7.70196 1.52851 9.05578 2.52669 10.054C3.52487 11.0521 4.87869 11.6129 6.29032 11.6129ZM12.5806 6.29032C12.5806 7.95862 11.9179 9.55859 10.7383 10.7383C9.55859 11.9179 7.95862 12.5806 6.29032 12.5806C4.62203 12.5806 3.02206 11.9179 1.84239 10.7383C0.662728 9.55859 0 7.95862 0 6.29032C0 4.62203 0.662728 3.02206 1.84239 1.84239C3.02206 0.662728 4.62203 0 6.29032 0C7.95862 0 9.55859 0.662728 10.7383 1.84239C11.9179 3.02206 12.5806 4.62203 12.5806 6.29032Z" fill="white"/>
</g>
</mask>
<g mask="url(#mask0_33_1092)">
<path opacity="0.6" fill-rule="evenodd" clip-rule="evenodd" d="M6.29032 11.6129C6.98929 11.6129 7.68142 11.4752 8.32719 11.2077C8.97295 10.9403 9.55971 10.5482 10.054 10.054C10.5482 9.55971 10.9403 8.97295 11.2077 8.32719C11.4752 7.68142 11.6129 6.98929 11.6129 6.29032C11.6129 5.59135 11.4752 4.89922 11.2077 4.25346C10.9403 3.60769 10.5482 3.02094 10.054 2.52669C9.55971 2.03244 8.97295 1.64038 8.32719 1.3729C7.68142 1.10541 6.98929 0.967742 6.29032 0.967742C4.87869 0.967742 3.52487 1.52851 2.52669 2.52669C1.52851 3.52487 0.967742 4.87869 0.967742 6.29032C0.967742 7.70196 1.52851 9.05578 2.52669 10.054C3.52487 11.0521 4.87869 11.6129 6.29032 11.6129ZM12.5806 6.29032C12.5806 7.95862 11.9179 9.55859 10.7383 10.7383C9.55859 11.9179 7.95862 12.5806 6.29032 12.5806C4.62203 12.5806 3.02206 11.9179 1.84239 10.7383C0.662728 9.55859 0 7.95862 0 6.29032C0 4.62203 0.662728 3.02206 1.84239 1.84239C3.02206 0.662728 4.62203 0 6.29032 0C7.95862 0 9.55859 0.662728 10.7383 1.84239C11.9179 3.02206 12.5806 4.62203 12.5806 6.29032Z" fill="#1B97A2"/>
<path opacity="0.6" d="M6.29032 0.967742V-0.0322581V0.967742ZM0.967742 6.29032H-0.032258H0.967742ZM0 6.29032H-1H0ZM6.29032 0V-1V0ZM6.29032 12.6129C7.12062 12.6129 7.94278 12.4494 8.70987 12.1316L7.9445 10.2839C7.42006 10.5011 6.85797 10.6129 6.29032 10.6129V12.6129ZM8.70987 12.1316C9.47696 11.8139 10.174 11.3482 10.7611 10.7611L9.34685 9.34685C8.94546 9.74824 8.46894 10.0666 7.9445 10.2839L8.70987 12.1316ZM10.7611 10.7611C11.3482 10.174 11.8139 9.47696 12.1316 8.70987L10.2839 7.9445C10.0666 8.46894 9.74824 8.94546 9.34685 9.34685L10.7611 10.7611ZM12.1316 8.70987C12.4494 7.94278 12.6129 7.12062 12.6129 6.29032H10.6129C10.6129 6.85797 10.5011 7.42006 10.2839 7.9445L12.1316 8.70987ZM12.6129 6.29032C12.6129 5.46003 12.4494 4.63787 12.1316 3.87078L10.2839 4.63614C10.5011 5.16058 10.6129 5.72267 10.6129 6.29032H12.6129ZM12.1316 3.87078C11.8139 3.10368 11.3482 2.40669 10.7611 1.81958L9.34685 3.2338C9.74824 3.63519 10.0666 4.1117 10.2839 4.63614L12.1316 3.87078ZM10.7611 1.81958C10.174 1.23248 9.47696 0.766759 8.70987 0.44902L7.9445 2.29678C8.46894 2.51401 8.94546 2.83241 9.34685 3.2338L10.7611 1.81958ZM8.70987 0.44902C7.94278 0.13128 7.12062 -0.0322581 6.29032 -0.0322581V1.96774C6.85797 1.96774 7.42006 2.07955 7.9445 2.29678L8.70987 0.44902ZM6.29032 -0.0322581C4.61347 -0.0322581 3.0053 0.633869 1.81958 1.81958L3.2338 3.2338C4.04444 2.42316 5.1439 1.96774 6.29032 1.96774V-0.0322581ZM1.81958 1.81958C0.633869 3.0053 -0.032258 4.61347 -0.032258 6.29032H1.96774C1.96774 5.1439 2.42316 4.04444 3.2338 3.2338L1.81958 1.81958ZM-0.032258 6.29032C-0.032258 7.96718 0.633869 9.57535 1.81958 10.7611L3.2338 9.34685C2.42316 8.53621 1.96774 7.43674 1.96774 6.29032H-0.032258ZM1.81958 10.7611C3.0053 11.9468 4.61347 12.6129 6.29032 12.6129V10.6129C5.1439 10.6129 4.04444 10.1575 3.2338 9.34685L1.81958 10.7611ZM11.5806 6.29032C11.5806 7.6934 11.0233 9.03902 10.0311 10.0311L11.4454 11.4454C12.8126 10.0782 13.5806 8.22384 13.5806 6.29032H11.5806ZM10.0311 10.0311C9.03902 11.0233 7.6934 11.5806 6.29032 11.5806V13.5806C8.22384 13.5806 10.0782 12.8126 11.4454 11.4454L10.0311 10.0311ZM6.29032 11.5806C4.88724 11.5806 3.54163 11.0233 2.5495 10.0311L1.13529 11.4454C2.50249 12.8126 4.35681 13.5806 6.29032 13.5806V11.5806ZM2.5495 10.0311C1.55737 9.03902 1 7.6934 1 6.29032H-1C-1 8.22384 -0.231915 10.0782 1.13529 11.4454L2.5495 10.0311ZM1 6.29032C1 4.88724 1.55737 3.54163 2.5495 2.5495L1.13529 1.13529C-0.231915 2.50249 -1 4.35681 -1 6.29032H1ZM2.5495 2.5495C3.54163 1.55737 4.88724 1 6.29032 1V-1C4.35681 -1 2.50249 -0.231915 1.13529 1.13529L2.5495 2.5495ZM6.29032 1C7.6934 1 9.03902 1.55737 10.0311 2.5495L11.4454 1.13529C10.0782 -0.231915 8.22384 -1 6.29032 -1V1ZM10.0311 2.5495C11.0233 3.54163 11.5806 4.88724 11.5806 6.29032H13.5806C13.5806 4.35681 12.8126 2.50249 11.4454 1.13529L10.0311 2.5495Z" fill="#1B97A2"/>
</g>
</g>
</svg>
