<svg width="30" height="30" viewBox="0 0 30 30" fill="none" xmlns="http://www.w3.org/2000/svg">
<path opacity="0.5" fill-rule="evenodd" clip-rule="evenodd" d="M30 15C30 23.2843 23.2843 30 15 30C6.71573 30 0 23.2843 0 15C0 6.71573 6.71573 0 15 0C23.2843 0 30 6.71573 30 15ZM19.1053 17.7516C19.8913 16.6794 20.3226 15.3781 20.3226 14.0323C20.3226 12.364 19.6599 10.764 18.4802 9.58433C17.3005 8.40466 15.7006 7.74194 14.0323 7.74194C12.364 7.74194 10.764 8.40466 9.58433 9.58433C8.40466 10.764 7.74194 12.364 7.74194 14.0323C7.74194 15.7006 8.40466 17.3005 9.58433 18.4802C10.764 19.6599 12.364 20.3226 14.0323 20.3226C15.3783 20.3226 16.6799 19.8911 17.7521 19.1049C17.7811 19.1443 17.8131 19.1817 17.848 19.2164L21.5738 22.9422C21.7554 23.1237 22.0016 23.2256 22.2583 23.2255C22.515 23.2254 22.7612 23.1234 22.9426 22.9418C23.1241 22.7602 23.226 22.5139 23.2259 22.2572C23.2258 22.0005 23.1238 21.7544 22.9422 21.5729L19.2164 17.8471C19.1817 17.8124 19.1446 17.7805 19.1053 17.7516ZM16.0691 18.9497C15.4234 19.2172 14.7312 19.3548 14.0323 19.3548C12.6206 19.3548 11.2668 18.7941 10.2686 17.7959C9.27045 16.7977 8.70968 15.4439 8.70968 14.0323C8.70968 12.6206 9.27045 11.2668 10.2686 10.2686C11.2668 9.27045 12.6206 8.70968 14.0323 8.70968C14.7312 8.70968 15.4234 8.84735 16.0691 9.11483C16.7149 9.38232 17.3016 9.77438 17.7959 10.2686C18.2901 10.7629 18.6822 11.3496 18.9497 11.9954C19.2172 12.6412 19.3548 13.3333 19.3548 14.0323C19.3548 14.7312 19.2172 15.4234 18.9497 16.0691C18.6822 16.7149 18.2901 17.3016 17.7959 17.7959C17.3016 18.2901 16.7149 18.6822 16.0691 18.9497Z" fill="#1B97A2"/>
</svg>
