<svg width="31" height="32" viewBox="0 0 31 32" fill="none" xmlns="http://www.w3.org/2000/svg">
<path d="M23.9073 1.05355C23.427 1.53381 23.427 2.32483 23.9073 2.80509L28.6675 7.57943C29.1477 8.05969 29.9388 8.05969 30.419 7.57943C30.8993 7.08505 30.8993 6.30816 30.419 5.8279L25.6588 1.05355C25.1785 0.573295 24.3734 0.573295 23.9073 1.05355ZM21.28 31.0274C23.7519 31.0274 25.4187 30.3211 26.9301 28.6685C27.0431 28.5555 27.142 28.4425 27.2408 28.3153C28.0742 27.3831 28.4839 26.4084 28.4839 25.5185C28.4839 24.4591 27.9188 23.4986 26.6476 22.6229L22.4524 19.6989C21.1246 18.7808 19.5991 18.7102 18.4125 19.8967L17.3531 20.9419C16.9859 21.3092 16.661 21.3375 16.2372 21.055C15.4745 20.5323 14.0337 19.261 13.0308 18.2723C12.0138 17.2694 10.9968 16.1111 10.4459 15.2495C10.1634 14.8398 10.1775 14.5008 10.5447 14.1336L11.6041 13.0883C12.7907 11.9018 12.7059 10.3621 11.7878 9.04846L8.80734 4.78263C7.95982 3.56785 6.97105 2.98872 5.91166 2.97459C5.00764 2.96047 4.04712 3.3701 3.11485 4.18937C3.00185 4.28824 2.88885 4.38712 2.77584 4.486C1.10906 6.02565 0.388672 7.66419 0.388672 10.235C0.388672 14.3878 2.80409 19.3034 7.49369 23.9648C12.1692 28.612 17.0283 31.0274 21.28 31.0274ZM21.28 28.6826C17.678 28.7391 13.1721 26.1542 9.27347 22.2839C5.36077 18.4135 2.69109 13.7522 2.76172 10.1502C2.77584 8.6247 3.3126 7.31105 4.38613 6.36466C4.49913 6.27991 4.58388 6.20928 4.68276 6.12453C5.09239 5.78552 5.51615 5.60189 5.91166 5.60189C6.32129 5.60189 6.68855 5.7714 6.95693 6.19516L9.62661 10.1785C9.95149 10.6587 9.96561 11.1955 9.48535 11.6758L8.34121 12.8058C7.28181 13.8369 7.36656 15.0658 8.0587 16.0264C8.82146 17.0999 10.2481 18.7102 11.4346 19.8826C12.6918 21.1256 14.4433 22.6935 15.4745 23.4421C16.435 24.1343 17.6498 24.219 18.695 23.1596L19.8251 22.0155C20.2912 21.5211 20.8421 21.5493 21.3223 21.8742L25.235 24.4733C25.6729 24.7558 25.8283 25.1089 25.8283 25.5327C25.8283 25.914 25.6447 26.3519 25.3057 26.7474C25.2209 26.8463 25.1503 26.9452 25.0655 27.0441C24.1333 28.1176 22.8055 28.6544 21.28 28.6826ZM22.4806 8.99196C23.2575 9.7406 24.4864 9.75473 25.2633 8.97784C26.0119 8.21507 26.0119 6.98617 25.2633 6.22341C24.4864 5.46064 23.2434 5.46064 22.4806 6.20928C21.7178 6.98617 21.7178 8.20095 22.4806 8.99196ZM17.3249 7.62181C16.8446 8.10207 16.8446 8.89308 17.3249 9.37334L22.0992 14.1477C22.5795 14.6279 23.3564 14.6279 23.8366 14.1477C24.3169 13.6674 24.3169 12.8764 23.8366 12.3962L19.0764 7.62181C18.5962 7.14155 17.8051 7.14155 17.3249 7.62181ZM15.9124 15.5602C16.6751 16.323 17.9181 16.323 18.6809 15.5602C19.4578 14.7833 19.4578 13.5544 18.6809 12.7917C17.9181 12.0148 16.6751 12.0148 15.9124 12.7775C15.1496 13.5544 15.1496 14.7833 15.9124 15.5602Z" fill="#25416C"/>
</svg>
