<svg width="32" height="25" viewBox="0 0 32 25" fill="none" xmlns="http://www.w3.org/2000/svg">
<path d="M5.03404 24.5831H27.3118C29.9498 24.5831 31.4828 23.05 31.4828 20.1082V4.84661C31.4828 1.90479 29.936 0.35791 26.9527 0.35791H4.68876C2.05078 0.35791 0.503906 1.89097 0.503906 4.84661V20.1082C0.503906 23.0638 2.05078 24.5831 5.03404 24.5831ZM14.4258 12.9677L4.34347 2.99588C4.55064 2.95445 4.78544 2.92683 5.03404 2.92683H26.9527C27.2289 2.92683 27.4637 2.95445 27.6847 3.0097L17.6024 12.9677C17.0223 13.5478 16.5251 13.7826 16.0141 13.7826C15.5031 13.7826 15.0059 13.534 14.4258 12.9677ZM3.0452 5.01235L10.5862 12.4291L3.0452 19.901V5.01235ZM21.442 12.4291L28.9554 5.05378V19.8734L21.442 12.4291ZM5.03404 22.028C4.77162 22.028 4.53683 22.0003 4.31585 21.9451L12.2574 14.0726L13.017 14.8322C14.0114 15.8128 14.992 16.2272 16.0141 16.2272C17.0361 16.2272 18.0167 15.8128 19.0112 14.8322L19.7708 14.0726L27.6985 21.9313C27.4775 22.0003 27.2289 22.028 26.9527 22.028H5.03404Z" fill="#25416C"/>
</svg>
