<svg width="51" height="51" viewBox="0 0 51 51" fill="none" xmlns="http://www.w3.org/2000/svg">
<path fill-rule="evenodd" clip-rule="evenodd" d="M38.7534 28.027C37.9918 34.0538 33.8642 34.995 32.3769 35.3342C32.2125 35.3717 32.0802 35.4018 31.9884 35.4307C31.5965 35.5542 27.9536 36.4424 23.3725 36.1493C23.3725 36.1493 19.9589 40.185 18.8927 41.2344C18.7263 41.3985 18.5306 41.4647 18.4 41.4321C18.2164 41.3881 18.1659 41.1751 18.168 40.8637C18.171 40.4188 18.1972 35.3516 18.1972 35.3516C11.747 33.5966 11.8974 27.1587 11.9828 23.5047C11.9857 23.3799 11.9886 23.2583 11.9911 23.1402C12.0667 19.5671 12.7516 16.6401 14.7862 14.6714C18.4418 11.4265 25.9724 11.9114 25.9724 11.9114C32.3319 11.9386 35.3792 13.8153 36.0859 14.444C38.4321 16.4127 39.6275 21.1236 38.7534 28.025V28.027ZM30.0245 22.2687C29.9486 21.6523 29.7592 21.1684 29.4228 20.7397C28.9859 20.1878 28.4277 19.8573 27.6012 19.6612C27.0626 19.5305 26.8449 19.5455 26.6501 19.7235C26.4687 19.8902 26.4333 20.2244 26.5719 20.4408C26.6694 20.5979 26.7819 20.6542 27.0948 20.7156C27.5115 20.7923 27.7995 20.8917 28.0614 21.0415C28.6174 21.3625 28.8763 21.8649 28.904 22.6782C28.917 23.06 28.9499 23.1774 29.0833 23.3129C29.3305 23.5604 29.7704 23.5123 29.9571 23.216C30.0255 23.1044 30.036 23.0558 30.0432 22.7965C30.048 22.6359 30.0411 22.397 30.0245 22.2687ZM30.0319 18.4873C31.3537 19.5561 32.0923 21.0753 32.2021 22.9636C32.2483 23.7073 32.1869 23.9496 31.9245 24.0875C31.6878 24.2154 31.4195 24.1733 31.2355 23.9808C31.1135 23.8556 31.0667 23.6844 31.0685 23.3813C31.0739 22.543 30.8807 21.6069 30.5667 20.9574C30.2033 20.2013 29.6416 19.558 28.9349 19.0876C28.3159 18.6745 27.4967 18.3954 26.7024 18.326C26.1872 18.2809 26.0032 18.1936 25.9043 17.9466C25.843 17.7989 25.8592 17.5435 25.931 17.4291C25.999 17.3236 26.1513 17.2069 26.2591 17.1761C26.3733 17.1428 27.0388 17.201 27.4002 17.2728C28.387 17.4737 29.2872 17.8867 30.0319 18.4873ZM34.6117 30.2354C34.5748 30.1275 34.4886 29.961 34.427 29.8654C34.0391 29.2796 31.955 27.6486 30.9145 27.1152C30.3204 26.81 29.8801 26.7083 29.5538 26.8038C29.2029 26.9025 29.0181 27.0659 28.4302 27.7966C28.1931 28.0895 27.9499 28.3639 27.8853 28.4071C27.7252 28.5181 27.4112 28.6075 27.1895 28.6075C26.6754 28.6044 25.7426 28.2714 25.0254 27.8336C24.4682 27.4945 23.754 26.8871 23.206 26.2859C22.5595 25.5799 22.1193 24.9571 21.7714 24.2541C21.322 23.3507 21.2081 22.7988 21.3958 22.3949C21.442 22.2932 21.5036 22.1853 21.5313 22.1514C21.559 22.1206 21.8484 21.8831 22.1685 21.6242C22.7965 21.1247 22.8981 21.0106 23.0151 20.6684C23.1629 20.2337 23.1229 19.7897 22.8951 19.3426C22.7196 19.0035 22.2609 18.2635 21.9284 17.7857C21.4882 17.1567 20.3922 15.8125 20.1736 15.6305C19.7796 15.3099 19.2748 15.2544 18.7175 15.4702C18.1296 15.6984 17.0275 16.5863 16.5564 17.206C16.1316 17.7672 15.9685 18.1649 15.9438 18.689C15.9223 19.1206 15.9592 19.2995 16.1871 19.8514C17.9695 24.1801 20.6293 27.6363 24.2835 30.3803C26.1921 31.8139 28.1716 32.9054 30.2249 33.6516C31.4224 34.0862 31.9427 34.1078 32.5553 33.7502C32.8139 33.596 33.4542 32.9393 33.8113 32.4614C34.4024 31.666 34.621 31.2991 34.6825 31.0062C34.7256 30.8058 34.6918 30.4574 34.6117 30.2354ZM33.8246 20.4763C34.1996 21.4531 34.3794 22.3292 34.4189 23.3973C34.4251 23.6083 34.4222 23.9949 34.4086 24.2568C34.3801 24.7588 34.3528 24.8585 34.2083 24.9913C33.976 25.2093 33.5232 25.1573 33.3515 24.8947C33.2618 24.7538 33.2493 24.6505 33.2666 24.064C33.3164 22.329 32.9655 20.9706 32.1202 19.6123C31.1101 17.9826 29.5992 16.8848 27.6345 16.3477C27.1335 16.211 26.7112 16.1277 26.0546 16.0393C25.6268 15.9833 25.5331 15.9596 25.4275 15.8947C25.1086 15.6904 25.1044 15.1731 25.4223 14.9657C25.5864 14.8563 25.7073 14.8514 26.2421 14.9199C27.8103 15.1158 29.2095 15.5818 30.3593 16.2859C31.1834 16.7913 31.7031 17.2453 32.3721 18.0404C33.0797 18.8885 33.4544 19.5154 33.8246 20.4763Z" fill="#1B97A2"/>
<path fill-rule="evenodd" clip-rule="evenodd" d="M51 25.5C51 39.5833 39.5833 51 25.5 51C11.4167 51 0 39.5833 0 25.5C0 11.4167 11.4167 0 25.5 0C39.5833 0 51 11.4167 51 25.5ZM37.8395 12.7752C37.0043 12.0199 33.6291 9.61876 26.1111 9.58614C26.1111 9.58614 17.2455 9.06222 12.9236 12.9472C10.5178 15.3053 9.6715 18.7558 9.58223 23.0337C9.49296 27.3116 9.37746 35.3287 17.2631 37.5025H17.2707L17.2657 40.8195C17.2657 40.8195 17.2152 42.1624 18.1175 42.4363C19.0284 42.7135 19.6252 42.0484 20.4034 41.1813C20.5577 41.0094 20.7192 40.8295 20.8915 40.6475C21.4634 40.0435 22.2533 39.1563 22.8484 38.4781C28.2415 38.923 32.3894 37.9063 32.8605 37.756C32.9577 37.7251 33.0953 37.6908 33.266 37.6483C35.0084 37.2141 40.2006 35.9203 41.1133 28.6199C42.1478 20.3572 40.613 15.1309 37.8395 12.7752Z" fill="#1B97A2"/>
</svg>
