<svg width="50" height="51" viewBox="0 0 50 51" fill="none" xmlns="http://www.w3.org/2000/svg">
<path fill-rule="evenodd" clip-rule="evenodd" d="M25 51C11.1929 51 0 39.5833 0 25.5C0 11.4167 11.1929 0 25 0C38.8071 0 50 11.4167 50 25.5C50 39.5833 38.8071 51 25 51ZM25.824 39.687C34.0203 39.6836 40.6864 32.8825 40.6897 24.5241C40.6913 20.4726 39.1465 16.663 36.3398 13.797C33.5331 10.9309 29.8007 9.35175 25.8239 9.35C17.63 9.35 10.9612 16.1518 10.958 24.5121C10.9569 27.1846 11.6414 29.7931 12.9423 32.0926L10.8333 39.95L18.7139 37.8414C20.8852 39.0495 23.3299 39.6862 25.8179 39.687H25.824Z" fill="#1B97A2"/>
<path fill-rule="evenodd" clip-rule="evenodd" d="M19.0799 35.0955L14.4034 36.3467L15.6517 31.696L15.3579 31.2192C14.121 29.2126 13.4678 26.8935 13.4688 24.5121C13.4715 17.5634 19.0143 11.9102 25.8298 11.9102C29.13 11.9113 32.2323 13.2239 34.5651 15.6061C36.8979 17.9884 38.1819 21.1547 38.1806 24.5223C38.1779 31.4715 32.6351 37.1253 25.8249 37.1253H25.8199C23.6027 37.1244 21.4281 36.5169 19.5311 35.3686L19.0799 35.0955ZM33.3142 28.1289C33.2213 27.9709 32.9738 27.8761 32.6023 27.6863C32.2309 27.4967 30.4047 26.5802 30.0641 26.4537C29.7237 26.3273 29.476 26.2642 29.2284 26.6433C28.9808 27.0226 28.269 27.8761 28.0523 28.1289C27.8356 28.3817 27.6189 28.4134 27.2476 28.2237C26.8762 28.0341 25.6793 27.6341 24.2605 26.3432C23.1562 25.3386 22.4108 24.0979 22.1941 23.7186C21.9774 23.3393 22.171 23.1343 22.357 22.9454C22.5241 22.7756 22.7284 22.5028 22.9141 22.2816C23.0998 22.0604 23.1618 21.9023 23.2856 21.6496C23.4094 21.3966 23.3475 21.1755 23.2546 20.9858C23.1618 20.7961 22.4189 18.9312 22.1094 18.1726C21.8078 17.4338 21.5016 17.5339 21.2736 17.5222C21.0572 17.5112 20.8093 17.5088 20.5617 17.5088C20.3141 17.5088 19.9117 17.6036 19.5712 17.983C19.2307 18.3623 18.2712 19.2789 18.2712 21.1437C18.2712 23.0086 19.6022 24.8101 19.7879 25.063C19.9736 25.3159 22.4071 29.1427 26.1333 30.7838C27.0195 31.1742 27.7113 31.4073 28.2508 31.5819C29.1406 31.8704 29.9504 31.8297 30.5903 31.7321C31.304 31.6233 32.788 30.8156 33.0976 29.9306C33.407 29.0455 33.407 28.2869 33.3142 28.1289Z" fill="#1B97A2"/>
</svg>
