<svg width="22.000000" height="26.000000" viewBox="0 0 22 26" fill="none" xmlns="http://www.w3.org/2000/svg" xmlns:xlink="http://www.w3.org/1999/xlink">
	<desc>
			Created with Pixso.
	</desc>
	<defs/>
	<path id="Vector" d="M1 10.36C1 7.87 2.05 5.49 3.92 3.74C5.8 1.98 8.34 1 11 1C13.65 1 16.19 1.98 18.07 3.74C19.94 5.49 21 7.87 21 10.36C21 16.92 14.93 22.35 12.25 24.43C11.86 24.72 11.67 24.87 11.38 24.95C11.16 25.01 10.83 25.01 10.61 24.95C10.32 24.87 10.13 24.72 9.74 24.43C7.06 22.35 1 16.92 1 10.36ZM8.14 9.11C8.14 7.62 9.42 6.4 11 6.4C12.57 6.4 13.85 7.62 13.85 9.11C13.85 10.6 12.57 11.81 11 11.81C9.42 11.81 8.14 10.6 8.14 9.11Z" stroke="#FFFFFF" stroke-opacity="1.000000" stroke-width="2.000000" stroke-linejoin="round"/>
</svg>
