<svg width="109.000000" height="35.000000" viewBox="0 0 109 35" fill="none" xmlns="http://www.w3.org/2000/svg" xmlns:xlink="http://www.w3.org/1999/xlink">
	<desc>
			Created with Pixso.
	</desc>
	<defs/>
	<path id="Vector" d="M33.66 14.38L33.64 14.38C33.32 14.31 32.97 14.35 32.65 14.5L32.63 14.51C31.83 14.93 31.03 15.92 30.17 17.54C29.25 17.48 28.38 17.4 27.46 17.31C28.42 16 29.61 14.41 31.01 12.6C33.31 9.59 35.17 7.64 36.52 6.78C38.15 7.08 39.63 7.23 40.92 7.21C43.52 7.18 45.85 6.53 47.85 5.28C48.8 4.69 49.51 3.94 49.96 3.05C50.15 2.69 50.28 2.32 50.39 1.99C50.56 1.37 50.5 0.87 50.23 0.52C49.93 0.15 49.43 -0.03 48.68 0L48.21 0.01L48.31 0.47C48.58 1.73 48.47 2.67 47.98 3.35C47.47 4.06 46.73 4.57 45.78 4.86C44.81 5.17 43.73 5.33 42.57 5.33C41.35 5.33 40.33 5.24 39.46 5.05C37.44 4.59 35.06 4.04 32.74 3.45C30.59 2.93 28.13 2.46 25.45 2.08C22.76 1.69 19.7 1.55 16.08 1.63C12.54 1.74 9.61 2.31 7.35 3.34C5.09 4.4 3.32 5.7 2.11 7.2C0.88 8.7 0.1 10.43 -0.24 12.37C-0.67 15.25 -0.4 17.69 0.57 19.64C1.56 21.59 2.99 23 4.84 23.84C6.68 24.68 8.68 24.89 10.79 24.48C12.89 24.06 14.85 22.94 16.64 21.16C17.76 20.02 18.58 18.67 19.08 17.14C19.59 15.57 19.73 14.03 19.48 12.54C19.22 11.02 18.47 9.74 17.27 8.73L17.23 8.7C15.66 7.7 14.17 7.25 12.8 7.38C11.43 7.52 10.23 7.99 9.26 8.76C8.21 9.62 7.44 10.68 6.98 11.91C6.5 13.15 6.41 14.41 6.71 15.66C6.84 16.19 7.03 16.7 7.3 17.17C7.76 17.94 8.72 18.63 10.62 17.56L11.06 17.31L10.7 16.95C9.61 15.84 9 14.67 8.88 13.48C8.76 12.29 9.02 11.24 9.7 10.27C10.33 9.35 11.45 8.79 13.02 8.62C14.91 8.76 16.15 9.41 16.79 10.58C17.45 11.84 17.61 13.24 17.29 14.87C16.97 16.51 16.28 18.01 15.26 19.32C13.32 21.66 11.45 23.01 9.73 23.34C7.98 23.66 6.51 23.32 5.22 22.29C3.91 21.25 2.94 19.79 2.34 17.96C1.74 16.12 1.59 14.14 1.9 12.08C2.14 10.47 2.74 8.99 3.67 7.67C4.59 6.39 6.22 5.26 8.68 4.21C11.11 3.19 14.47 2.79 18.65 3.04C22.88 3.29 27.03 4.06 30.96 5.32C32.29 5.75 33.6 6.12 34.86 6.43C33.79 7 32.58 7.88 31.18 9.09C29.06 10.93 27.2 12.9 25.67 14.93C25.15 15.62 24.64 16.33 24.14 17.03C23.34 17.02 22.52 17.14 21.69 17.37C20.64 17.7 19.59 18.44 18.57 19.58C18.37 19.81 18.28 20.05 18.31 20.29C18.34 20.53 18.48 20.75 18.74 20.92L19.03 21.12L19.26 20.85C20.23 19.72 21.11 19.02 21.87 18.78C22.34 18.62 22.76 18.51 23.13 18.44L21.82 20.28C20.18 22.67 18.5 24.97 16.83 27.11C15.23 29.12 13.65 30.66 12.13 31.69C10.67 32.67 9.2 32.93 7.78 32.49C7.02 32.21 6.5 31.71 6.19 30.98C5.84 30.18 5.68 29.32 5.69 28.37C5.69 27.36 5.8 26.43 6 25.59L6.11 25.16L5.67 25.11C5.02 25.04 4.51 25.16 4.15 25.46C3.8 25.76 3.61 26.22 3.58 26.83L3.58 26.84L3.58 26.85C3.59 28.22 3.87 29.49 4.39 30.63C5.06 32.07 6.04 33.08 7.31 33.66L7.33 33.66C8.07 33.95 8.85 34.1 9.67 34.1C11.25 34.1 12.95 33.55 14.77 32.47L14.79 32.46C16.85 31.07 18.81 29.19 20.61 26.89C22.38 24.61 24.03 22.32 25.5 20.07C25.79 19.62 26.14 19.12 26.6 18.49C27.52 18.61 28.48 18.7 29.49 18.76C28.81 19.88 28.09 20.51 27.37 20.64L26.63 20.77L27.16 21.3C28 22.14 28.71 22 29.16 21.73L29.22 21.69C29.7 21.26 30.32 20.29 31.05 18.81C32.2 18.78 33.16 18.3 33.89 17.37C34.18 16.99 35.07 15.81 34.45 14.91C34.25 14.65 33.99 14.48 33.67 14.38L33.66 14.38ZM33.44 15.65C33.42 15.77 33.31 16.06 32.74 16.71C32.41 17.07 32.07 17.32 31.71 17.46C32.36 16.36 32.84 15.88 33.15 15.67C33.25 15.6 33.33 15.58 33.44 15.65L33.44 15.65Z" fill="#18512F" fill-opacity="1.000000" fill-rule="nonzero"/>
	<path id="Vector" d="M53.93 19.42C53.15 17.96 52.04 16.77 50.61 15.89C49.18 15.01 47.53 14.59 45.57 14.59C43.61 14.59 41.92 15.01 40.48 15.89C39.05 16.76 37.93 17.95 37.13 19.42C36.34 20.88 35.95 22.52 35.95 24.31C35.95 26.1 36.34 27.75 37.13 29.21C37.92 30.68 39.05 31.87 40.48 32.74C41.92 33.61 43.63 34.06 45.57 34.06C47.5 34.06 49.18 33.61 50.61 32.73C52.04 31.85 53.15 30.67 53.93 29.21C54.71 27.75 55.11 26.1 55.11 24.31C55.11 22.52 54.71 20.88 53.93 19.42L53.93 19.42ZM40.41 28.7C39.9 27.38 39.65 25.95 39.65 24.31C39.65 22.68 39.9 21.25 40.4 19.93C40.91 18.63 41.61 17.58 42.48 16.83C43.36 16.07 44.35 15.7 45.52 15.7C46.68 15.7 47.69 16.08 48.54 16.83C49.42 17.58 50.12 18.62 50.63 19.92C51.13 21.27 51.38 22.75 51.38 24.31C51.38 25.88 51.13 27.36 50.63 28.7C50.13 30.01 49.45 31.03 48.54 31.82C47.69 32.56 46.67 32.94 45.52 32.94C44.37 32.94 43.36 32.57 42.48 31.82C41.59 31.03 40.91 30 40.41 28.7L40.41 28.7Z" fill="#18512F" fill-opacity="1.000000" fill-rule="nonzero"/>
	<path id="Vector" d="M69.56 15.97C69.02 15.35 68.26 15.07 67.31 15.14L67.3 15.14C65.99 15.29 64.85 15.83 63.92 16.76C63.05 17.64 62.34 18.69 61.81 19.89C61.72 20.09 61.64 20.29 61.56 20.49L61.52 14.94L60.89 15.47C59.81 16.37 58.44 16.78 56.69 16.72L56.28 16.7L56.28 17.84L56.68 17.83C57.91 17.82 58.08 18.3 58.09 18.76L58.09 19.34L58.14 30.61C58.14 31.41 57.94 31.99 57.55 32.33C57.12 32.69 56.43 32.89 55.48 32.93L55.1 32.94L55.1 33.94L64.76 33.94L64.76 32.94L64.38 32.93C63.42 32.89 62.71 32.69 62.25 32.32C61.9 32.04 61.69 31.6 61.61 30.99L61.6 25.23C61.73 24.01 62.01 22.8 62.43 21.65C62.88 20.47 63.46 19.54 64.2 18.81C64.92 18.08 65.8 17.71 66.88 17.68C67.58 17.67 68.29 17.94 69.05 18.53L69.42 18.81L69.63 18.4C70.13 17.44 70.11 16.62 69.56 15.97L69.56 15.97Z" fill="#18512F" fill-opacity="1.000000" fill-rule="nonzero"/>
	<path id="Vector" d="M97.85 24.85C97.03 24.3 96.07 23.79 95.14 23.3C92.81 22.07 90.41 20.79 89.78 18.65C89.64 18.05 89.66 16.96 91.25 16.26C93.02 15.46 95.73 15.74 96.93 17.42C97.37 18.18 97.44 18.98 97.14 19.87L96.87 20.68L97.66 20.35C98.97 19.82 99.62 18.92 99.45 17.89C99.22 16.52 97.42 14.97 94.53 14.79C92.49 14.67 90.78 14.96 89.45 15.66C88 16.42 87.12 17.52 86.82 18.93L86.82 18.95C86.28 22.22 89.92 24.2 93.12 25.95C94.41 26.65 95.64 27.32 96.51 28.01C97.37 28.71 97.82 29.61 97.71 30.42C97.61 31.14 97.09 31.72 96.19 32.11C94.08 33.02 90.64 32.93 89.2 31.45C88.29 30.51 88.24 29.15 89.06 27.4L89.28 26.94L88.77 26.85C87.65 26.65 86.52 27.24 86.04 28.29C85.97 28.42 85.93 28.56 85.89 28.69L85.39 28.5L85.25 28.87C85.16 29.12 84.98 29.45 84.74 29.83L84.74 29.84C84.52 30.2 84.2 30.57 83.72 30.99C83.26 31.39 82.69 31.72 81.99 31.99C81.28 32.26 80.42 32.4 79.41 32.4C78.33 32.4 77.46 32.2 76.75 31.8C76.04 31.38 75.49 30.85 75.09 30.23C74.64 29.55 74.29 28.82 74.02 28C73.7 27.08 73.92 26.24 74.71 25.43C75.53 24.55 76.6 23.99 77.87 23.73C78.54 23.59 79.16 23.46 79.73 23.35C80.32 23.22 80.86 23.11 81.34 23.01C81.45 22.99 81.56 22.97 81.67 22.93C82.92 22.64 83.75 22.18 84.23 21.54C84.7 20.89 84.92 20.21 84.86 19.51C84.82 18.87 84.66 18.31 84.37 17.84C83.84 17.01 83.08 16.41 82.04 15.98C81.05 15.59 79.94 15.4 78.74 15.4C76.43 15.4 74.36 16.22 72.59 17.85C70.81 19.47 69.85 21.83 69.74 24.86L69.74 24.87L69.74 24.87C69.76 27.63 70.58 29.86 72.17 31.53C73.76 33.18 75.9 34.03 78.54 34.03C80.54 34.03 82.22 33.57 83.54 32.68C84.58 31.97 85.36 31.11 85.89 30.09C86.12 30.99 86.76 31.8 87.46 32.38C88.72 33.42 90.67 33.98 92.74 33.98C93.65 33.98 94.58 33.87 95.49 33.65C97.8 33.08 99.51 31.85 100.18 30.28L100.19 30.24C100.57 28.99 100.5 27.92 99.99 26.97C99.59 26.23 98.93 25.58 97.86 24.85L97.85 24.85ZM81.8 18.63C82.26 19.79 82.29 20.59 81.87 21C81.38 21.49 80.47 21.88 79.17 22.14C77.09 22.53 75.6 23.06 74.63 23.79C74.14 24.15 73.74 24.54 73.42 24.94C73.45 23.82 73.6 22.74 73.87 21.7C74.28 20.22 74.88 19.02 75.72 18.02C76.54 17.07 77.48 16.58 78.59 16.52C79.36 16.52 80.01 16.71 80.56 17.09C81.12 17.48 81.53 17.99 81.8 18.63Z" fill="#18512F" fill-opacity="1.000000" fill-rule="nonzero"/>
	<path id="Vector" d="M107.71 31.15C107.6 31.39 107.42 31.61 107.16 31.81C106.93 31.99 106.67 32.08 106.39 32.08C106.22 32.08 106.15 32.03 106.09 31.95L106.08 31.93C106.04 31.88 105.94 31.7 105.94 31.22L105.95 16.31L109 16.31L108.95 15.11L105.94 15.11L106.01 11.33L105.01 11.4L104.96 11.7C104.82 12.58 104.43 13.41 103.82 14.18C103.25 14.89 102.06 15.22 100.28 15.18L99.99 15.17L99.64 16.27L102.33 16.32L102.4 31.64C102.39 32.66 102.84 33.91 105.11 34.01L105.12 34.01L105.13 34.01C106.03 33.99 106.81 33.7 107.47 33.14C108.09 32.58 108.5 32.02 108.72 31.44L108.92 30.91L107.81 30.91L107.71 31.14L107.71 31.15Z" fill="#18512F" fill-opacity="1.000000" fill-rule="nonzero"/>
</svg>
