<svg width="25.000000" height="20.000000" viewBox="0 0 25 20" fill="none" xmlns="http://www.w3.org/2000/svg" xmlns:xlink="http://www.w3.org/1999/xlink">
	<desc>
			Created with Pixso.
	</desc>
	<defs/>
	<path id="Vector" d="M1 5.11C1 3.67 1 2.95 1.27 2.4C1.52 1.91 1.91 1.52 2.39 1.28C2.94 1 3.65 1 5.08 1L19.91 1C21.34 1 22.05 1 22.6 1.28C23.08 1.52 23.47 1.91 23.72 2.4C24 2.95 24 3.67 24 5.11L24 14.89C24 16.32 24 17.04 23.72 17.59C23.47 18.07 23.08 18.47 22.6 18.72C22.05 19 21.34 19 19.91 19L5.08 19C3.65 19 2.94 19 2.39 18.72C1.91 18.47 1.52 18.07 1.27 17.59C1 17.04 1 16.32 1 14.88L1 5.11ZM2.27 2.28L10.08 8.21L10.08 8.21C10.95 8.85 11.38 9.17 11.85 9.3C12.27 9.41 12.72 9.41 13.14 9.3C13.61 9.17 14.05 8.85 14.91 8.21C14.91 8.21 19.92 4.35 22.72 2.28" stroke="#FFFFFF" stroke-opacity="1.000000" stroke-width="2.000000" stroke-linejoin="round" stroke-linecap="round"/>
</svg>
