<svg width="21.000000" height="20.000000" viewBox="0 0 21 20" fill="none" xmlns="http://www.w3.org/2000/svg" xmlns:xlink="http://www.w3.org/1999/xlink">
	<desc>
			Created with Pixso.
	</desc>
	<defs/>
	<path id="Vector" d="M7.2 1.17L8.38 4.01C8.69 4.75 8.55 5.58 8.02 6.19L7.39 6.92C6.64 7.78 6.7 9.03 7.52 9.82L9.67 11.89C10.49 12.67 11.8 12.73 12.69 12.02L13.45 11.41C14.08 10.9 14.95 10.77 15.71 11.06L18.66 12.2C19.51 12.52 20.07 13.31 20.07 14.19L20.07 17.16C20.07 18.28 19.12 19.2 17.95 19.2C7.99 19.2 -0.08 11.43 -0.08 1.86C-0.08 0.73 0.87 -0.18 2.04 -0.18L5.12 -0.18C6.04 -0.18 6.86 0.36 7.2 1.17Z" stroke="#FFFFFF" stroke-opacity="1.000000" stroke-width="1.550000" stroke-linejoin="round"/>
</svg>
