<svg width="19.000000" height="20.000000" viewBox="0 0 19 20" fill="none" xmlns="http://www.w3.org/2000/svg" xmlns:xlink="http://www.w3.org/1999/xlink">
	<desc>
			Created with Pixso.
	</desc>
	<defs/>
	<path id="Vector" d="M0 17.27L0 2.72C0 1.52 0 0.92 0.25 0.56C0.47 0.25 0.81 0.05 1.19 0C1.62 -0.05 2.15 0.23 3.22 0.79L16.91 8.07L16.92 8.07C18.09 8.69 18.68 9.01 18.87 9.42C19.04 9.79 19.04 10.2 18.87 10.57C18.68 10.98 18.09 11.3 16.91 11.92L3.22 19.2C2.15 19.76 1.62 20.04 1.19 19.99C0.81 19.94 0.47 19.74 0.25 19.43C0 19.07 0 18.47 0 17.27Z" fill="#FFFFFF" fill-opacity="1.000000" fill-rule="nonzero"/>
</svg>
