<svg width="63.000000" height="65.000000" viewBox="0 0 63 65" fill="none" xmlns="http://www.w3.org/2000/svg" xmlns:xlink="http://www.w3.org/1999/xlink">
	<desc>
			Created with Pixso.
	</desc>
	<defs/>
	<path id="Vector" d="M53.32 8.54C51.53 6.93 48.53 5.14 44.39 3.2C34.63 -1.37 23.45 -1.04 14.49 4.09C13.06 4.91 11.89 5.72 10.96 6.56C5.35 11.61 -0.22 31.84 -0.46 32.7C-0.54 33.03 -0.51 33.39 -0.37 33.69C-0.24 33.95 2.74 40.02 7.88 41.31C8.88 41.57 9.88 41.61 10.87 41.48L21.71 41.48C22.02 41.75 22.34 42.03 22.69 42.27C24 43.2 25.51 43.88 27.08 44.3L27.08 56.21L26.45 56.21C23 56.21 20.18 58.99 20.18 62.41L20.18 63.56C20.18 64.35 20.83 65 21.63 65L40.34 65C41.14 65 41.79 64.35 41.79 63.56L41.79 62.41C41.79 58.99 38.97 56.21 35.52 56.21L34.89 56.21L34.89 44.27C36.95 43.72 38.8 42.76 40.25 41.48L51.21 41.48C51.21 41.48 51.21 41.48 51.24 41.48C51.55 41.53 51.85 41.57 52.16 41.57C52.81 41.57 53.47 41.48 54.1 41.32C59.25 40.03 62.24 33.96 62.35 33.7C62.48 33.43 62.53 33.13 62.47 32.83C62.32 32.05 58.97 13.65 53.31 8.54L53.32 8.54ZM38.89 62.14L23.11 62.14C23.26 60.43 24.71 59.08 26.48 59.08L35.53 59.08C37.3 59.08 38.75 60.43 38.9 62.14L38.89 62.14ZM18.1 34.23L18.34 35.65C18.51 36.69 18.87 37.68 19.4 38.61L16.3 38.61C17.12 37.52 17.68 35.97 18.1 34.23ZM21.21 35.18L19.35 24.14C23.48 23.74 26.31 22.36 28.25 20.67L33.51 20.67C35.75 22.53 38.81 23.7 42.66 24.13L40.8 35.19C40.25 38.41 37.19 41.05 33.16 41.77C32.18 41.97 30.99 42.01 29.91 41.91C29.53 41.88 29.17 41.83 28.82 41.75C27.21 41.48 25.7 40.86 24.44 39.96C22.68 38.71 21.55 37.02 21.23 35.19L21.21 35.18ZM30.62 17.78C30.69 17.67 30.77 17.55 30.84 17.44C30.9 17.55 30.99 17.67 31.04 17.78L30.62 17.78ZM45.7 38.61L42.59 38.61C43.11 37.68 43.47 36.69 43.66 35.64L43.9 34.23C44.3 35.97 44.88 37.52 45.7 38.61ZM31.99 44.78L31.99 56.21L30.01 56.21L30.01 44.78C30.11 44.78 30.23 44.78 30.33 44.78C30.55 44.78 30.77 44.81 31 44.81C31.23 44.81 31.45 44.8 31.67 44.78C31.77 44.78 31.87 44.78 31.99 44.78ZM53.39 38.54C51.77 38.96 50.11 38.54 48.35 37.29C46.44 35.93 45.7 27.86 45.8 22.85C45.8 22.85 45.8 22.84 45.8 22.82C45.8 22.79 45.78 22.76 45.78 22.72C45.78 22.56 45.75 22.42 45.7 22.28C45.67 22.22 45.62 22.17 45.59 22.12C45.54 22.02 45.48 21.9 45.39 21.82C45.36 21.79 45.3 21.76 45.28 21.73C45.17 21.64 45.06 21.56 44.94 21.5C44.91 21.5 44.87 21.49 44.84 21.47C44.71 21.43 44.59 21.39 44.45 21.37C40.4 21.14 37.32 20.14 35.27 18.37C35.18 18.26 35.08 18.16 34.96 18.07C34.79 17.9 34.6 17.74 34.44 17.55C32.45 15.3 32.44 12.76 32.45 12.21C32.45 12.08 32.45 12.01 32.45 12C32.45 11.22 31.86 10.59 31.07 10.55C30.27 10.5 29.62 11.08 29.55 11.85C29.55 11.88 29.55 11.98 29.53 12.16C29.43 13.5 28.41 21.04 17.6 21.36C16.8 21.39 16.17 22.03 16.19 22.82C16.29 27.83 15.55 35.9 13.63 37.26C12.53 38.05 11.47 38.47 10.42 38.6L9.25 38.6C9.04 38.57 8.82 38.57 8.62 38.52C5.48 37.74 3.22 34.16 2.51 32.9C4.19 26.88 8.91 12.28 12.92 8.67C13.69 7.98 14.71 7.27 15.94 6.56C24.09 1.91 34.25 1.62 43.15 5.78C47.05 7.6 49.81 9.24 51.37 10.65C55.35 14.22 58.52 27.44 59.54 32.84C58.64 34.48 56.31 37.79 53.39 38.52L53.39 38.54Z" fill="#FFFFFF" fill-opacity="1.000000" fill-rule="nonzero"/>
</svg>
