<svg width="52.000000" height="62.000000" viewBox="0 0 52 62" fill="none" xmlns="http://www.w3.org/2000/svg" xmlns:xlink="http://www.w3.org/1999/xlink">
	<desc>
			Created with Pixso.
	</desc>
	<defs/>
	<path id="Vector" d="M46.12 0L3.92 0C1.22 0 -0.99 2.2 -0.99 4.91L-0.99 60.68C-0.99 61.4 -0.4 61.99 0.33 61.99L4.61 61.99C5.33 61.99 5.92 61.4 5.92 60.68L5.92 43.39L44.12 43.39L44.12 60.68C44.12 61.4 44.71 61.99 45.43 61.99L49.72 61.99C50.44 61.99 51.03 61.4 51.03 60.68L51.03 4.91C51.03 2.2 48.82 0 46.12 0ZM4.61 40.75L1.64 40.75L1.64 34.5L48.4 34.5L48.4 40.75L4.61 40.75ZM42.83 31.87L7.21 31.87L7.21 10.49C7.21 9.23 8.23 8.2 9.49 8.2L40.55 8.2C41.81 8.2 42.83 9.23 42.83 10.49L42.83 31.89L42.83 31.87ZM1.64 4.91C1.64 3.65 2.66 2.62 3.92 2.62L46.12 2.62C47.38 2.62 48.4 3.65 48.4 4.91L48.4 31.87L45.46 31.87L45.46 10.49C45.46 7.78 43.25 5.58 40.55 5.58L9.49 5.58C6.79 5.58 4.58 7.78 4.58 10.49L4.58 31.89L1.64 31.89L1.64 4.91ZM3.29 59.35L1.64 59.35L1.64 43.38L3.29 43.38L3.29 59.35ZM48.4 59.35L46.75 59.35L46.75 43.38L48.4 43.38L48.4 59.35Z" fill="#FFFFFF" fill-opacity="1.000000" fill-rule="nonzero"/>
	<path id="Vector" d="M27.73 36.32L22.24 36.32C21.51 36.32 20.92 36.91 20.92 37.63C20.92 38.35 21.51 38.94 22.24 38.94L27.73 38.94C28.45 38.94 29.04 38.35 29.04 37.63C29.04 36.91 28.45 36.32 27.73 36.32Z" fill="#FFFFFF" fill-opacity="1.000000" fill-rule="nonzero"/>
	<path id="Vector" d="M33.23 46.51L16.81 46.51C16.09 46.51 15.5 47.1 15.5 47.82L15.5 60.68C15.5 61.4 16.09 62 16.81 62C17.53 62 18.12 61.4 18.12 60.68L18.12 54.34L31.92 54.34L31.92 60.68C31.92 61.4 32.51 62 33.23 62C33.95 62 34.54 61.4 34.54 60.68L34.54 47.82C34.54 47.1 33.95 46.51 33.23 46.51ZM18.12 49.14L31.92 49.14L31.92 51.71L18.12 51.71L18.12 49.14Z" fill="#FFFFFF" fill-opacity="1.000000" fill-rule="nonzero"/>
</svg>
