<svg width="51.000000" height="61.000000" viewBox="0 0 51 61" fill="none" xmlns="http://www.w3.org/2000/svg" xmlns:xlink="http://www.w3.org/1999/xlink">
	<desc>
			Created with Pixso.
	</desc>
	<defs/>
	<path id="Vector" d="M42.11 2.6L23.99 20.72C26.14 15.49 29.91 7.82 35.37 2.38C35.91 1.83 35.91 0.95 35.37 0.4C34.82 -0.14 33.94 -0.14 33.4 0.4C25.74 8.06 21.34 19.42 19.81 23.88C17.32 22.45 14.22 22.37 11.64 23.84L4.62 27.85C3.95 28.23 3.71 29.1 4.1 29.76C4.35 30.2 4.83 30.46 5.32 30.46C5.56 30.46 5.79 30.4 6.02 30.27L13.04 26.26C14.73 25.28 16.8 25.33 18.44 26.29L15.61 29.11C15.07 29.66 15.07 30.54 15.61 31.08C16.16 31.63 17.04 31.63 17.59 31.08L44.1 4.57C44.81 3.86 45.96 3.86 46.66 4.57C47.37 5.29 47.37 6.43 46.66 7.13L20.15 33.65C19.6 34.19 19.6 35.07 20.15 35.62C20.43 35.9 20.78 36.02 21.14 36.02C21.5 36.02 21.85 35.88 22.13 35.62L48.65 9.11C50.45 7.3 50.45 4.38 48.65 2.59C46.84 0.78 43.92 0.8 42.13 2.59L42.11 2.6Z" fill="#FFFFFF" fill-opacity="1.000000" fill-rule="nonzero"/>
	<path id="Vector" d="M5.37 59.71C6.37 59.9 7.37 60 8.38 60C11.57 60 14.72 59.04 17.36 57.19L41.47 40.43C42.78 39.52 44.59 39.72 45.67 40.92C46.24 41.56 46.53 42.39 46.48 43.26C46.42 44.12 46.03 44.91 45.37 45.47L37.38 52.35C36.8 52.85 36.73 53.74 37.23 54.32C37.73 54.91 38.61 54.98 39.2 54.48L47.19 47.59C48.42 46.53 49.16 45.06 49.26 43.44C49.36 41.82 48.83 40.26 47.74 39.05C45.72 36.81 42.34 36.42 39.86 38.14L15.75 54.9C12.9 56.88 9.3 57.64 5.89 56.95C4.49 56.67 3.32 55.79 2.66 54.53C2.04 53.34 1.97 51.96 2.45 50.73L3.09 50.08C3.74 50.42 4.45 50.62 5.19 50.62C6.42 50.62 7.58 50.14 8.45 49.26L17.82 39.9L18.9 40.98C19.18 41.26 19.53 41.38 19.9 41.38C20.26 41.38 20.61 41.24 20.89 40.98C21.43 40.43 21.43 39.55 20.89 39L18.83 36.95L14.29 32.4L12.23 30.34C11.68 29.8 10.8 29.8 10.26 30.34C9.71 30.89 9.71 31.77 10.26 32.32L11.33 33.39L1.97 42.75C1.11 43.62 0.62 44.78 0.62 46.01C0.62 46.75 0.81 47.47 1.15 48.11L0.31 48.95C0.18 49.08 0.09 49.22 0.02 49.37C-0.91 51.45 -0.85 53.81 0.2 55.83C1.25 57.86 3.14 59.28 5.37 59.71ZM3.95 44.73L13.31 35.35L15.87 37.91L6.49 47.27C5.81 47.96 4.62 47.96 3.93 47.27C3.58 46.94 3.4 46.47 3.4 45.98C3.4 45.5 3.58 45.05 3.93 44.7L3.95 44.73Z" fill="#FFFFFF" fill-opacity="1.000000" fill-rule="nonzero"/>
</svg>
