<svg width="25.000000" height="21.000000" viewBox="0 0 25 21" fill="none" xmlns="http://www.w3.org/2000/svg" xmlns:xlink="http://www.w3.org/1999/xlink">
	<desc>
			Created with Pixso.
	</desc>
	<defs/>
	<path id="Path-3" d="M1.72 9.07C8.42 6.08 12.9 4.15 15.16 3.2C21.54 0.51 22.87 0.03 23.73 0C23.91 0 24.34 0.03 24.62 0.25C24.84 0.43 24.91 0.69 24.94 0.87C24.98 1.05 25.02 1.45 24.98 1.78C24.62 5.46 23.15 14.46 22.36 18.58C22.04 20.33 21.4 20.91 20.79 20.99C19.46 21.1 18.42 20.08 17.13 19.24C15.13 17.89 13.98 17.05 12.01 15.74C9.75 14.21 11.22 13.37 12.51 12.02C12.83 11.66 18.74 6.23 18.85 5.72C18.85 5.64 18.89 5.43 18.74 5.32C18.6 5.21 18.42 5.24 18.28 5.28C18.06 5.32 14.84 7.5 8.57 11.8C7.64 12.46 6.81 12.75 6.06 12.75C5.23 12.75 3.66 12.28 2.47 11.88C1.04 11.4 -0.11 11.15 0 10.35C0.07 9.94 0.65 9.51 1.72 9.07Z" fill="#283F34" fill-opacity="1.000000" fill-rule="evenodd"/>
</svg>
