<svg width="26.000000" height="16.000000" viewBox="0 0 26 16" fill="none" xmlns="http://www.w3.org/2000/svg" xmlns:xlink="http://www.w3.org/1999/xlink">
	<desc>
			Created with Pixso.
	</desc>
	<defs/>
	<path id="Vector" d="M3.81 -0.5L0.97 -0.5C0.16 -0.5 0 -0.11 0 0.33C0 1.11 0.96 4.98 4.49 10.1C6.84 13.6 10.15 15.5 13.16 15.5C14.97 15.5 15.19 15.07 15.19 14.35L15.19 11.71C15.19 10.86 15.36 10.7 15.94 10.7C16.36 10.7 17.08 10.91 18.77 12.6C20.7 14.6 21.02 15.5 22.1 15.5L24.94 15.5C25.76 15.5 26.16 15.07 25.93 14.24C25.67 13.41 24.75 12.21 23.53 10.79C22.87 9.98 21.87 9.1 21.57 8.67C21.15 8.1 21.27 7.85 21.57 7.35C21.57 7.35 25.04 2.3 25.4 0.58C25.58 -0.05 25.4 -0.5 24.54 -0.5L21.69 -0.5C20.97 -0.5 20.64 -0.11 20.46 0.33C20.46 0.33 19.01 3.98 16.96 6.35C16.3 7.04 16 7.26 15.63 7.26C15.45 7.26 15.19 7.04 15.19 6.42L15.19 0.58C15.19 -0.17 14.98 -0.5 14.38 -0.5L9.91 -0.5C9.46 -0.5 9.19 -0.16 9.19 0.17C9.19 0.88 10.21 1.05 10.32 3.05L10.32 7.39C10.32 8.34 10.15 8.51 9.79 8.51C8.82 8.51 6.48 4.84 5.09 0.64C4.82 -0.18 4.54 -0.5 3.81 -0.5Z" fill="#283F34" fill-opacity="1.000000" fill-rule="evenodd"/>
</svg>
