<svg width="25.000000" height="25.000000" viewBox="0 0 25 25" fill="none" xmlns="http://www.w3.org/2000/svg" xmlns:xlink="http://www.w3.org/1999/xlink">
	<desc>
			Created with Pixso.
	</desc>
	<defs/>
	<path id="Vector" d="M21.35 3.63C19 1.29 15.88 0 12.55 0C5.69 0 0.1 5.55 0.1 12.38C0.1 14.57 0.67 16.7 1.76 18.58L0 25L6.59 23.27C8.41 24.26 10.46 24.78 12.54 24.78L12.55 24.78C19.41 24.78 24.99 19.22 25 12.39C25 9.08 23.7 5.97 21.35 3.63L21.35 3.63ZM12.55 22.69L12.54 22.69C10.69 22.69 8.87 22.19 7.28 21.25L6.9 21.03L2.98 22.05L4.03 18.25L3.78 17.86C2.75 16.22 2.2 14.33 2.2 12.38C2.2 6.71 6.84 2.09 12.55 2.09C15.32 2.09 17.91 3.16 19.87 5.11C21.82 7.05 22.89 9.64 22.89 12.39C22.89 18.07 18.25 22.69 12.55 22.69L12.55 22.69ZM18.22 14.98C17.91 14.82 16.38 14.07 16.1 13.97C15.81 13.87 15.6 13.81 15.4 14.12C15.19 14.43 14.59 15.13 14.41 15.34C14.23 15.55 14.05 15.57 13.74 15.42C13.43 15.26 12.43 14.93 11.24 13.88C10.31 13.06 9.69 12.05 9.51 11.74C9.33 11.43 9.49 11.26 9.64 11.1C9.78 10.96 9.95 10.74 10.11 10.56C10.27 10.38 10.32 10.25 10.42 10.05C10.52 9.84 10.47 9.66 10.4 9.5C10.32 9.35 9.7 7.82 9.44 7.2C9.18 6.6 8.93 6.68 8.74 6.67C8.56 6.66 8.35 6.66 8.14 6.66C7.93 6.66 7.6 6.74 7.31 7.05C7.03 7.36 6.22 8.11 6.22 9.63C6.22 11.16 7.34 12.63 7.49 12.83C7.65 13.04 9.69 16.17 12.81 17.51C13.55 17.83 14.13 18.02 14.58 18.16C15.32 18.4 16 18.36 16.54 18.28C17.14 18.19 18.38 17.53 18.64 16.81C18.9 16.09 18.9 15.47 18.82 15.34C18.74 15.21 18.53 15.13 18.22 14.98L18.22 14.98Z" fill="#283F34" fill-opacity="1.000000" fill-rule="evenodd"/>
</svg>
