<svg width="18.000000" height="22.000000" viewBox="0 0 18 22" fill="none" xmlns="http://www.w3.org/2000/svg" xmlns:xlink="http://www.w3.org/1999/xlink">
	<desc>
			Created with Pixso.
	</desc>
	<defs/>
	<path id="Vector" d="M1 8.41C1 6.45 1.79 4.56 3.19 3.17C4.6 1.78 6.51 1 8.5 1C10.48 1 12.39 1.78 13.8 3.17C15.2 4.56 16 6.45 16 8.41C16 13.61 11.45 17.91 9.43 19.56C9.15 19.79 9 19.91 8.79 19.97C8.62 20.02 8.37 20.02 8.2 19.97C7.99 19.91 7.84 19.79 7.56 19.56C5.54 17.91 1 13.61 1 8.41ZM6.35 7.42C6.35 6.24 7.31 5.28 8.5 5.28C9.68 5.28 10.64 6.24 10.64 7.42C10.64 8.61 9.68 9.57 8.5 9.57C7.31 9.57 6.35 8.61 6.35 7.42Z" stroke="#898989" stroke-opacity="1.000000" stroke-width="2.142869" stroke-linejoin="round"/>
</svg>
