<svg width="21.000000" height="20.000000" viewBox="0 0 21 20" fill="none" xmlns="http://www.w3.org/2000/svg" xmlns:xlink="http://www.w3.org/1999/xlink">
	<desc>
			Created with Pixso.
	</desc>
	<defs/>
	<path id="Vector" d="M7.5 1.77L8.55 4.41C8.83 5.09 8.7 5.87 8.23 6.43L7.66 7.11C7 7.91 7.06 9.08 7.79 9.81L9.7 11.73C10.43 12.46 11.6 12.51 12.4 11.85L13.08 11.28C13.64 10.81 14.42 10.69 15.1 10.96L17.74 12.01C18.5 12.32 19 13.05 19 13.87L19 16.62C19 17.67 18.15 18.52 17.1 18.52C8.21 18.52 1 11.31 1 2.41C1 1.36 1.84 0.52 2.89 0.52L5.64 0.52C6.46 0.52 7.19 1.01 7.5 1.77Z" stroke="#898989" stroke-opacity="1.000000" stroke-width="2.000000" stroke-linejoin="round"/>
</svg>
