<svg width="31" height="31" viewBox="0 0 31 31" fill="none" xmlns="http://www.w3.org/2000/svg">
<g clip-path="url(#clip0_66_80)">
<path d="M0 14.8542C0 7.85185 0 4.35068 2.17534 2.17534C4.35068 0 7.85185 0 14.8542 0H16.1458C23.1482 0 26.6493 0 28.8246 2.17534C31 4.35068 31 7.85185 31 14.8542V16.1458C31 23.1482 31 26.6493 28.8246 28.8246C26.6493 31 23.1482 31 16.1458 31H14.8542C7.85185 31 4.35068 31 2.17534 28.8246C0 26.6493 0 23.1482 0 16.1458L0 14.8542Z" fill="#F4DCA5"/>
<path fill-rule="evenodd" clip-rule="evenodd" d="M8.39636 9.6875H6.13542C5.48944 9.6875 5.36023 9.99156 5.36023 10.3267C5.36023 10.9255 6.12674 13.895 8.92923 17.8224C10.7976 20.5044 13.4299 21.9583 15.8252 21.9583C17.2624 21.9583 17.4402 21.6354 17.4402 21.0792V19.0521C17.4402 18.4062 17.5763 18.2773 18.0314 18.2773C18.3667 18.2773 18.9416 18.445 20.283 19.7382C21.816 21.2708 22.0687 21.9583 22.931 21.9583H25.1919C25.8379 21.9583 26.1609 21.6354 25.9746 20.9982C25.7707 20.3631 25.0388 19.4415 24.0676 18.3492C23.5406 17.7266 22.7501 17.0561 22.5106 16.7208C22.1753 16.2897 22.2711 16.0981 22.5106 15.715C22.5106 15.715 25.2652 11.8355 25.5527 10.5184C25.6964 10.0394 25.5527 9.6875 24.8689 9.6875H22.608C22.0331 9.6875 21.7681 9.99156 21.6243 10.3267C21.6243 10.3267 20.4746 13.1286 18.8458 14.9487C18.3188 15.4755 18.0793 15.6431 17.7918 15.6431C17.6481 15.6431 17.4401 15.4755 17.4401 14.9966V10.5184C17.4401 9.94364 17.2733 9.6875 16.7941 9.6875H13.2412C12.882 9.6875 12.6659 9.95423 12.6659 10.2071C12.6659 10.7519 13.4803 10.8776 13.5642 12.4102V15.739C13.5642 16.4687 13.4324 16.6011 13.145 16.6011C12.3785 16.6011 10.514 13.7867 9.40825 10.5663C9.19157 9.94034 8.97418 9.6875 8.39636 9.6875Z" fill="white"/>
</g>
<defs>
<clipPath id="clip0_66_80">
<rect width="31" height="31" fill="white"/>
</clipPath>
</defs>
</svg>
