<svg width="32" height="32" viewBox="0 0 32 32" fill="none" xmlns="http://www.w3.org/2000/svg">
<path d="M0.130778 15.7081C0.134436 7.04687 7.15348 0 15.7766 0C19.9615 0.00183656 23.8894 1.63821 26.8434 4.60792C29.7973 7.57672 31.4233 11.5235 31.4215 15.7209C31.4179 24.3821 24.3988 31.4299 15.7766 31.4299H15.7702C13.1519 31.429 10.5793 30.7697 8.2939 29.5181L0 31.7026L2.21957 23.5612C0.850516 21.1792 0.129864 18.4767 0.130778 15.7081Z" fill="#F4DCA5"/>
<path d="M20.2375 17.7209C20.596 17.8523 22.5184 18.8018 22.9089 18.9983L22.908 18.9955C23.2985 19.192 23.5591 19.2903 23.657 19.4537C23.7548 19.6181 23.7548 20.4042 23.4293 21.3206C23.1037 22.238 21.5417 23.0745 20.7908 23.1875C20.1177 23.2885 19.2654 23.3307 18.3289 23.0323C17.761 22.8514 17.033 22.6099 16.1002 22.2058C12.1787 20.5061 9.61799 16.541 9.42228 16.2792L9.41766 16.2731C9.20643 15.9894 7.82642 14.1361 7.82642 12.2186C7.82642 10.2866 8.83606 9.33706 9.19456 8.94404C9.55305 8.55101 9.97648 8.45276 10.2371 8.45276C10.4978 8.45276 10.7584 8.45459 10.9861 8.46653C11.2266 8.47847 11.5486 8.37562 11.8659 9.14055C12.1915 9.92659 12.9734 11.8587 13.0713 12.0552C13.1691 12.2517 13.234 12.4812 13.1042 12.743C12.9743 13.0056 12.9094 13.169 12.7137 13.3986C12.518 13.6282 12.3031 13.911 12.1275 14.0864C11.9308 14.282 11.7278 14.4941 11.9555 14.8871C12.1832 15.2802 12.9679 16.5657 14.1303 17.6062C15.6228 18.9432 16.883 19.3582 17.2735 19.5547C17.664 19.7513 17.8927 19.7191 18.1204 19.4565C18.3481 19.1948 19.0971 18.3105 19.3578 17.9175C19.6184 17.5244 19.879 17.5896 20.2375 17.7209Z" fill="white"/>
</svg>
