<svg width="83" height="55" fill="none" xmlns="http://www.w3.org/2000/svg"><path d="M41.498.005c-.523.003-1.043.034-1.563.096v13.906h3.123v-1.338h9.14c.051.416.082.832.085 1.252-.003 4.945-3.331 9.26-8.096 10.495v3.156c6.482-1.293 11.15-7.008 11.154-13.651C55.345 6.236 49.147.005 41.498.005zM38.755.28c-6.458 1.313-11.1 7.018-11.1 13.644 0 7.69 6.198 13.92 13.847 13.92a13.988 13.988 0 001.563-.096V15.176H36.73v3.243h3.209v6.22c-5.292-.78-9.219-5.34-9.226-10.718.004-4.924 3.308-9.23 8.045-10.481V.28h-.003zm4.306 2.926a10.792 10.792 0 018.24 6.224h-8.24V3.206zM13.71 34.185c-3.794 0-3.746 4.755-3.746 4.755s.051 4.436 3.62 4.436c3.789 0 3.765-4.69 3.765-4.69s-.082-4.501-3.64-4.501zm23.307 0c-3.793 0-3.745 4.755-3.745 4.755s.051 4.436 3.619 4.436c3.79 0 3.766-4.69 3.766-4.69s-.082-4.501-3.64-4.501zm10.86.076l-3.105 8.75h-.732v.303h1.734v-.302h-.657l.89-2.5h2.736l.985 2.5h-1.077v.303h5.804v-.327h-.848V38.75h1.163c.636 0 .917.736 1.03.925.116.186.092 1.854.184 2.273.093.42.308.86.797 1.156.52.316 1.358.096 1.505.051v.155h1.622v-.303h-.62v-7.22l2.676 7.595h.198l2.606-7.616v7.245h-.78v.3h4.023l-.003-.297h-.643l.913-2.479h2.767l.934 2.476H71v.327h3.902v-.33h-.755v-7.751h.116l5.185 8.129h.137v-8.78h1.553v8.408h-.571v.31H83v-.313h-.564v-8.404h.516v-.31l-4.234-.01v.327h.642v6.268l-4.268-6.595h-1.758v.327h.619l-.004 8.4h-.595l-3.123-8.703h-.16l-2.99 8.703h-1.07v-8.4h.656v-.303h-1.731l-2.425 6.85-2.395-6.874h-1.874l.02.327h.664v8.4h-.64l-.027-.185s-.438.254-.934.137c-.5-.117-.527-1.506-.527-2.847s-1.187-1.599-1.187-1.599 1.345-.045 1.345-2.063c0-2.015-2.333-2.173-2.333-2.173h-2.99v.326h.804v8.4H51.09l-3.13-8.75h-.082zm-30.295.03v.317h.752v8.404h-.793v.296h2.698v-.296h-.817v-4.309h1.026s1.173.041 1.214 1.297c.041 1.251-.13 3.332 1.591 3.332.732 0 .88-.317.88-.317l-.25-.106s-.336.36-.671.168c-.335-.192-.67-.722-.646-1.72.023-.996.02-1.825-.336-2.313-.355-.489-.67-.403-.67-.403v-.168s1.276-.468 1.276-2.101c0-1.933-2.302-2.08-2.302-2.08h-2.952zm-14.226.01C2.302 34.302 0 35.664 0 38.89c0 3.225 2.716 4.44 3.287 4.44.571 0 1.608-.352 1.933-.578.852-.592 1.18.46 1.18.46l.198-.003.01-3.37h.64v-.289H4.84v.24h.595v1.648s-.273 1.647-2.124 1.647c-1.85 0-2.062-3.693-2.062-4.174 0-.482.058-4.391 2.182-4.391s2.743 2.407 2.743 2.407v-2.48s-.404.588-.735.468c-.339-.117-1.026-.612-2.083-.612zm10.333.183c2.282 0 2.343 3.098 2.343 3.098v2.421s-.188 3.036-2.384 3.036c-2.196 0-2.322-2.843-2.322-2.843l-.021-2.548c0-.004.106-3.164 2.384-3.164zm23.308 0c2.281 0 2.343 3.098 2.343 3.098v2.421s-.188 3.036-2.384 3.036c-2.2 0-2.323-2.843-2.323-2.843l-.02-2.548c0-.004.102-3.164 2.384-3.164zm16.863.12c.554.004 2.032.169 2.032 1.81 0 2.014-2.24 2.062-2.24 2.062v-3.865c0-.003.078-.01.208-.007zm-34.335.004c.448-.007 2.244.082 2.244 1.83 0 1.994-2.344 1.973-2.344 1.973v-3.8s.035-.003.1-.003zm27.69 2.012h.18l1.232 3.614h-2.555l1.142-3.614zm22.346 0h.184l1.232 3.614h-2.555l1.139-3.614zm-39.084-2.325h2.378v.31h-.517v8.383h.564v.333h-2.565v-.31h.705v-8.407h-.565v-.31z" fill="#000"/><path d="M29.376 36.867v-2.48s-.404.589-.736.468c-.331-.12-1.019-.612-2.076-.612-1.057 0-3.355 1.359-3.355 4.584 0 3.226 2.715 4.44 3.287 4.44.57 0 1.607-.351 1.932-.578.852-.592 1.18.46 1.18.46l.199-.003.01-3.37h.64v-.289h-2.408v.241h.595v1.647s-.274 1.647-2.124 1.647-2.063-3.693-2.063-4.174c0-.482.058-4.392 2.182-4.392 2.118.004 2.737 2.411 2.737 2.411zM7.272 34.295H9.65v.31h-.516v8.383h.564v.333H7.132v-.31h.705v-8.407h-.565v-.31z" fill="#000"/></svg>