<svg width="882" height="879" viewBox="0 0 882 879" fill="none" xmlns="http://www.w3.org/2000/svg">
<g opacity="0.4">
<mask id="path-1-inside-1_1_2870" fill="white">
<path fill-rule="evenodd" clip-rule="evenodd" d="M263.871 0H301.171V170.532H699.622L909.818 0H947.118V170.532H1291.89V419.436H946.861L943.792 630.037H1291.89V878.941H947.118L940.165 879L940.165 878.941V878.842C811.622 875.162 708.527 769.783 708.527 640.349C708.527 540.541 769.83 455.035 856.833 419.436H645.947H300.913L297.845 630.037H645.947V878.941H301.171L294.217 879L294.218 878.941V878.842C165.674 875.162 62.5791 769.783 62.5791 640.349C62.5791 540.541 123.882 455.035 210.885 419.436H0V214.078L263.871 0Z"/>
</mask>
<path d="M301.171 0H304.171V-3H301.171V0ZM263.871 0V-3H262.807L261.981 -2.32971L263.871 0ZM301.171 170.532H298.171V173.532H301.171V170.532ZM699.622 170.532V173.532H700.686L701.512 172.862L699.622 170.532ZM909.818 0V-3H908.754L907.928 -2.32971L909.818 0ZM947.118 0H950.118V-3H947.118V0ZM947.118 170.532H944.118V173.532H947.118V170.532ZM1291.89 170.532H1294.89V167.532H1291.89V170.532ZM1291.89 419.436V422.436H1294.89V419.436H1291.89ZM946.861 419.436V416.436H943.904L943.861 419.392L946.861 419.436ZM943.792 630.037L940.792 629.994L940.748 633.037H943.792V630.037ZM1291.89 630.037H1294.89V627.037H1291.89V630.037ZM1291.89 878.941V881.941H1294.89V878.941H1291.89ZM947.118 878.941V875.941H947.105L947.093 875.941L947.118 878.941ZM940.165 879L937.165 878.984L937.149 882.026L940.19 882L940.165 879ZM940.165 878.941L943.165 878.957L943.165 878.949V878.941H940.165ZM940.165 878.842H943.165V875.926L940.251 875.843L940.165 878.842ZM856.833 419.436L857.969 422.212L856.833 416.436V419.436ZM300.913 419.436V416.436H297.957L297.913 419.392L300.913 419.436ZM297.845 630.037L294.845 629.994L294.801 633.037H297.845V630.037ZM645.947 630.037H648.947V627.037H645.947V630.037ZM645.947 878.941V881.941H648.947V878.941H645.947ZM301.171 878.941V875.941H301.158L301.145 875.941L301.171 878.941ZM294.217 879L291.217 878.983L291.2 882.026L294.243 882L294.217 879ZM294.218 878.941L297.218 878.958L297.218 878.95V878.941H294.218ZM294.218 878.842H297.218V875.926L294.304 875.843L294.218 878.842ZM210.885 419.436L212.021 422.212L210.885 416.436V419.436ZM0 419.436H-3V422.436H0V419.436ZM0 214.078L-1.89009 211.749L-3 212.649V214.078H0ZM301.171 -3H263.871V3H301.171V-3ZM304.171 170.532V0H298.171V170.532H304.171ZM699.622 167.532H301.171V173.532H699.622V167.532ZM907.928 -2.32971L697.732 168.202L701.512 172.862L911.708 2.32971L907.928 -2.32971ZM947.118 -3H909.818V3H947.118V-3ZM950.118 170.532V0H944.118V170.532H950.118ZM1291.89 167.532H947.118V173.532H1291.89V167.532ZM1294.89 419.436V170.532H1288.89V419.436H1294.89ZM946.861 422.436H1291.89V416.436H946.861V422.436ZM946.792 630.081L949.86 419.479L943.861 419.392L940.792 629.994L946.792 630.081ZM1291.89 627.037H943.792V633.037H1291.89V627.037ZM1294.89 878.941V630.037H1288.89V878.941H1294.89ZM947.118 881.941H1291.89V875.941H947.118V881.941ZM940.19 882L947.143 881.941L947.093 875.941L940.14 876L940.19 882ZM937.165 878.926L937.165 878.984L943.165 879.016L943.165 878.957L937.165 878.926ZM937.165 878.842V878.941H943.165V878.842H937.165ZM705.527 640.349C705.527 771.411 809.918 878.115 940.079 881.84L940.251 875.843C813.326 872.21 711.527 768.154 711.527 640.349H705.527ZM855.697 416.659C767.605 452.704 705.527 539.281 705.527 640.349H711.527C711.527 541.801 772.054 457.367 857.969 422.212L855.697 416.659ZM645.947 422.436H856.833V416.436H645.947V422.436ZM300.913 422.436H645.947V416.436H300.913V422.436ZM300.844 630.081L303.913 419.479L297.913 419.392L294.845 629.994L300.844 630.081ZM645.947 627.037H297.845V633.037H645.947V627.037ZM648.947 878.941V630.037H642.947V878.941H648.947ZM301.171 881.941H645.947V875.941H301.171V881.941ZM294.243 882L301.196 881.941L301.145 875.941L294.192 876L294.243 882ZM291.218 878.924L291.217 878.983L297.217 879.017L297.218 878.958L291.218 878.924ZM291.218 878.842V878.941H297.218V878.842H291.218ZM59.5791 640.349C59.5791 771.411 163.97 878.115 294.132 881.84L294.304 875.843C167.378 872.21 65.5791 768.154 65.5791 640.349H59.5791ZM209.749 416.659C121.658 452.704 59.5791 539.281 59.5791 640.349H65.5791C65.5791 541.801 126.106 457.367 212.021 422.212L209.749 416.659ZM0 422.436H210.885V416.436H0V422.436ZM-3 214.078V419.436H3V214.078H-3ZM261.981 -2.32971L-1.89009 211.749L1.89009 216.408L265.761 2.32971L261.981 -2.32971Z" fill="#757F93" mask="url(#path-1-inside-1_1_2870)"/>
</g>
</svg>
