<svg width="78" height="68" viewBox="0 0 78 68" fill="none" xmlns="http://www.w3.org/2000/svg">
<path d="M71.5228 54.7556C68.4572 54.7556 66.3677 54.1989 65.2556 53.0871C64.1406 51.9752 63.5845 50.0617 63.5845 47.3522V27.8473H77.685V15.0192C73.0889 14.9528 69.4672 15.1935 66.8216 15.7486C64.1746 16.3068 61.3545 17.4171 58.3614 19.0871L56.0633 15.0192C59.6154 13.0053 62.0687 10.9706 63.4278 8.91675C64.7853 6.86881 65.6031 3.89508 65.8826 0.00147653H50.8416C50.8416 4.10475 50.5089 7.21579 49.8478 9.33313C49.1853 11.4549 48.0023 12.9506 46.2957 13.8203C44.5892 14.6915 42.1003 15.0178 38.8292 15.0178C34.2478 14.9528 30.6336 15.1935 27.9939 15.7472C25.3469 16.3053 22.5268 17.4156 19.5336 19.0856L17.2356 15.0178C20.7877 13.0038 23.241 10.9691 24.5986 8.91527C25.9576 6.86733 26.7754 3.8936 27.0534 0H12.0124C12.0124 4.10327 11.6811 7.21431 11.0201 9.33165C10.3576 11.4534 9.17456 12.9491 7.46801 13.8188C5.76146 14.69 3.27261 15.1211 0 15.1211V27.8444H9.29582V47.9709C9.29582 52.839 9.95685 56.7179 11.2819 59.6015C12.6039 62.4866 14.763 64.6084 17.7576 65.9624C20.7507 67.3178 24.8248 67.997 29.9785 67.997C32.4156 67.997 35.4782 67.8243 39.1708 67.4744V54.2299C36.2457 54.5798 34.0866 54.7526 32.6951 54.7526C29.631 54.7526 27.5414 54.1959 26.4279 53.0841C25.3143 51.9723 24.7568 50.0587 24.7568 47.3493V27.8473H48.128V47.9739C48.128 52.842 48.7875 56.7208 50.1125 59.6045C51.4346 62.4896 53.5937 64.6114 56.5883 65.9653C59.5814 67.3208 63.654 68 68.8092 68C71.2463 68 74.3089 67.8272 78 67.4773V54.2329C75.0749 54.5828 72.9173 54.7556 71.5243 54.7556H71.5228Z" fill="#FBEC1C"/>
</svg>
