<svg width="22" height="26" viewBox="0 0 22 26" fill="none" xmlns="http://www.w3.org/2000/svg">
<g clip-path="url(#clip0_332:467)">
<path d="M0.366855 13.501C-0.263216 12.4199 0.104326 11.0223 1.20695 10.3895L18.5864 0.316458C19.6628 -0.316402 21.0542 0.052766 21.6843 1.16027C22.3143 2.24141 21.9468 3.63897 20.8442 4.27183L3.43845 14.3449C2.36208 14.9513 0.996927 14.5822 0.366855 13.501Z" fill="#1E427E"/>
<path d="M20.74 25.0242C21.4488 23.9958 21.1863 22.5719 20.1362 21.8599L3.5443 10.4948C2.52044 9.78286 1.10278 10.0465 0.393946 11.1013C-0.314884 12.1297 -0.0523545 13.5536 0.997765 14.2656L17.5896 25.6044C18.6398 26.3163 20.0312 26.0526 20.74 25.0242Z" fill="#1E427E"/>
</g>
<defs>
<clipPath id="clip0_332:467">
<rect width="22" height="26" fill="white"/>
</clipPath>
</defs>
</svg>
