<svg width="38" height="38" fill="none" xmlns="http://www.w3.org/2000/svg"><g clip-path="url(#clip0)"><path d="M19.282 14.995a3.727 3.727 0 00-3.723 3.722 3.728 3.728 0 003.723 3.724 3.728 3.728 0 003.723-3.724 3.727 3.727 0 00-3.723-3.722zm0 0a3.727 3.727 0 00-3.723 3.722 3.728 3.728 0 003.723 3.724 3.728 3.728 0 003.723-3.724 3.727 3.727 0 00-3.723-3.722zm6.202-6.07H13.08a3.595 3.595 0 00-3.59 3.591V24.92c0 1.98 1.61 3.59 3.59 3.59h12.403c1.98 0 3.59-1.61 3.59-3.59V12.516c0-1.98-1.61-3.59-3.59-3.59zm-6.202 16.24a6.455 6.455 0 01-6.447-6.448 6.454 6.454 0 016.447-6.446 6.455 6.455 0 016.447 6.446 6.455 6.455 0 01-6.447 6.448zm6.654-11.561a1.527 1.527 0 01-1.525-1.526c0-.84.684-1.525 1.525-1.525.841 0 1.526.684 1.526 1.525 0 .841-.684 1.526-1.526 1.526zm-6.654 1.391a3.727 3.727 0 00-3.723 3.722 3.728 3.728 0 003.723 3.724 3.728 3.728 0 003.723-3.724 3.727 3.727 0 00-3.723-3.722zm6.202-6.07H13.08a3.595 3.595 0 00-3.59 3.591V24.92c0 1.98 1.61 3.59 3.59 3.59h12.403c1.98 0 3.59-1.61 3.59-3.59V12.516c0-1.98-1.61-3.59-3.59-3.59zm-6.202 16.24a6.455 6.455 0 01-6.447-6.448 6.454 6.454 0 016.447-6.446 6.455 6.455 0 016.447 6.446 6.455 6.455 0 01-6.447 6.448zm6.654-11.561a1.527 1.527 0 01-1.525-1.526c0-.84.684-1.525 1.525-1.525.841 0 1.526.684 1.526 1.525 0 .841-.684 1.526-1.526 1.526zm-6.654 1.391a3.727 3.727 0 00-3.723 3.722 3.728 3.728 0 003.723 3.724 3.728 3.728 0 003.723-3.724 3.727 3.727 0 00-3.723-3.722zM.565 0v37.435H38V0H.565zm31.233 24.92a6.321 6.321 0 01-6.314 6.313H13.08a6.321 6.321 0 01-6.314-6.314V12.516a6.321 6.321 0 016.314-6.314h12.403a6.321 6.321 0 016.314 6.314V24.92zM25.484 8.925H13.08c-1.98 0-3.59 1.61-3.59 3.59V24.92c0 1.98 1.61 3.59 3.59 3.59h12.403c1.98 0 3.59-1.61 3.59-3.59V12.516c0-1.98-1.61-3.59-3.59-3.59zm-6.202 16.239a6.455 6.455 0 01-6.447-6.448 6.454 6.454 0 016.447-6.446 6.455 6.455 0 016.447 6.446 6.455 6.455 0 01-6.447 6.448zm6.654-11.561a1.527 1.527 0 01-1.525-1.526c0-.84.684-1.525 1.525-1.525.841 0 1.526.684 1.526 1.525 0 .841-.684 1.526-1.526 1.526zm-6.654 1.391a3.727 3.727 0 00-3.723 3.722 3.728 3.728 0 003.723 3.724 3.728 3.728 0 003.723-3.724 3.727 3.727 0 00-3.723-3.722zm0 0a3.727 3.727 0 00-3.723 3.722 3.728 3.728 0 003.723 3.724 3.728 3.728 0 003.723-3.724 3.727 3.727 0 00-3.723-3.722zm0 0a3.727 3.727 0 00-3.723 3.722 3.728 3.728 0 003.723 3.724 3.728 3.728 0 003.723-3.724 3.727 3.727 0 00-3.723-3.722zm6.202-6.07H13.08a3.595 3.595 0 00-3.59 3.591V24.92c0 1.98 1.61 3.59 3.59 3.59h12.403c1.98 0 3.59-1.61 3.59-3.59V12.516c0-1.98-1.61-3.59-3.59-3.59zm-6.202 16.24a6.455 6.455 0 01-6.447-6.448 6.454 6.454 0 016.447-6.446 6.455 6.455 0 016.447 6.446 6.455 6.455 0 01-6.447 6.448zm6.654-11.561a1.527 1.527 0 01-1.525-1.526c0-.84.684-1.525 1.525-1.525.841 0 1.526.684 1.526 1.525 0 .841-.684 1.526-1.526 1.526zm-6.654 1.391a3.727 3.727 0 00-3.723 3.722 3.728 3.728 0 003.723 3.724 3.728 3.728 0 003.723-3.724 3.727 3.727 0 00-3.723-3.722zm0 0a3.727 3.727 0 00-3.723 3.722 3.728 3.728 0 003.723 3.724 3.728 3.728 0 003.723-3.724 3.727 3.727 0 00-3.723-3.722zm0 0a3.727 3.727 0 00-3.723 3.722 3.728 3.728 0 003.723 3.724 3.728 3.728 0 003.723-3.724 3.727 3.727 0 00-3.723-3.722zm6.202-6.07H13.08a3.595 3.595 0 00-3.59 3.591V24.92c0 1.98 1.61 3.59 3.59 3.59h12.403c1.98 0 3.59-1.61 3.59-3.59V12.516c0-1.98-1.61-3.59-3.59-3.59zm-6.202 16.24a6.455 6.455 0 01-6.447-6.448 6.454 6.454 0 016.447-6.446 6.455 6.455 0 016.447 6.446 6.455 6.455 0 01-6.447 6.448zm6.654-11.561a1.527 1.527 0 01-1.525-1.526c0-.84.684-1.525 1.525-1.525.841 0 1.526.684 1.526 1.525 0 .841-.684 1.526-1.526 1.526zm-6.654 1.391a3.727 3.727 0 00-3.723 3.722 3.728 3.728 0 003.723 3.724 3.728 3.728 0 003.723-3.724 3.727 3.727 0 00-3.723-3.722z" fill="#B1B0B0"/></g><defs><clipPath id="clip0"><path fill="#fff" transform="translate(.565)" d="M0 0h37.435v37.435H0z"/></clipPath></defs></svg>