<svg width="75" height="67" viewBox="0 0 75 67" fill="none" xmlns="http://www.w3.org/2000/svg">
<path d="M42.0834 22.2885L42.2104 22.0609L40.0463 21.0952L39.9193 21.3239C39.4584 22.1461 38.5318 22.6575 37.4999 22.6575C36.468 22.6575 35.5414 22.1461 35.0805 21.3239L34.9535 21.0963L32.7893 22.0619L32.9163 22.2896C33.7897 23.8476 35.5462 24.8154 37.4999 24.8154C39.4535 24.8154 41.21 23.8476 42.0834 22.2885Z" fill="#F4522F"/>
<path d="M33.8713 19.4205C34.5394 19.4205 35.0809 18.9374 35.0809 18.3416C35.0809 17.7457 34.5394 17.2627 33.8713 17.2627C33.2032 17.2627 32.6616 17.7457 32.6616 18.3416C32.6616 18.9374 33.2032 19.4205 33.8713 19.4205Z" fill="#F4522F"/>
<path d="M41.1296 19.4205C41.7977 19.4205 42.3392 18.9374 42.3392 18.3416C42.3392 17.7457 41.7977 17.2627 41.1296 17.2627C40.4615 17.2627 39.9199 17.7457 39.9199 18.3416C39.9199 18.9374 40.4615 19.4205 41.1296 19.4205Z" fill="#F4522F"/>
<path d="M37.5001 49.6309C35.4993 49.6309 33.8711 51.083 33.8711 52.8675C33.8711 54.652 35.4993 56.1042 37.5001 56.1042C39.5009 56.1042 41.1292 54.652 41.1292 52.8675C41.1292 51.083 39.5009 49.6309 37.5001 49.6309ZM37.5001 53.9464C36.8324 53.9464 36.2904 53.4631 36.2904 52.8675C36.2904 52.272 36.8324 51.7886 37.5001 51.7886C38.1679 51.7886 38.7098 52.272 38.7098 52.8675C38.7098 53.4631 38.1679 53.9464 37.5001 53.9464Z" fill="#F4522F"/>
<path d="M14.5162 6.67203V4.31567H12.0968V6.47351H9.67749V9.71027C9.67749 11.4948 11.3057 12.947 13.3065 12.947C13.9743 12.947 14.5162 13.4304 14.5162 14.0259V15.1049H13.3065C12.6388 15.1049 12.0968 14.6215 12.0968 14.0259V12.947H9.67749V14.0259C9.67749 15.4307 10.6924 16.6175 12.0968 17.0642V19.4205H14.5162V17.2627H16.9355V14.0259C16.9355 12.2414 15.3073 10.7892 13.3065 10.7892C12.6388 10.7892 12.0968 10.3058 12.0968 9.71027V8.63135H13.3065C13.9743 8.63135 14.5162 9.1147 14.5162 9.71027V10.7892H16.9355V9.71027C16.9355 8.30551 15.9206 7.1187 14.5162 6.67203Z" fill="#F4522F"/>
<path d="M19.3555 40.9991V37.7623C19.3555 35.9777 17.7272 34.5255 15.7264 34.5255C15.0587 34.5255 14.5168 34.0421 14.5168 33.4465V32.3676H15.7264C16.3942 32.3676 16.9361 32.851 16.9361 33.4465V34.5255H19.3555V33.4465C19.3555 31.662 17.7272 30.2097 15.7264 30.2097H12.0974V33.4465C12.0974 35.2311 13.7256 36.6833 15.7264 36.6833C16.3942 36.6833 16.9361 37.1667 16.9361 37.7623V38.8412H15.7264C15.0587 38.8412 14.5168 38.3578 14.5168 37.7623V36.6833H12.0974V37.7623C12.0974 39.5468 13.7256 40.9991 15.7264 40.9991H19.3555Z" fill="#F4522F"/>
<path d="M67.7422 34.5259H70.1616V36.6835H67.7422V34.5259Z" fill="#F4522F"/>
<path d="M62.9026 34.5259H65.3219V36.6835H62.9026V34.5259Z" fill="#F4522F"/>
<path d="M58.0647 34.5259H60.484V36.6835H58.0647V34.5259Z" fill="#F4522F"/>
<path d="M72.5807 30.2101H55.6452C54.3109 30.2101 53.2258 31.1779 53.2258 32.368V32.3734C51.779 31.6732 50.2222 31.2027 48.5879 30.9945L43.2992 30.3213L42.5516 27.8473C44.3008 26.887 45.6835 25.451 46.4649 23.7365H50.8065V25.6398C50.8065 26.9701 52.0198 28.0523 53.5113 28.0523C54.5419 28.0523 55.4673 27.5408 55.9306 26.7187L57.6024 23.7365H67.7419C69.0762 23.7365 70.1613 22.7687 70.1613 21.5787V10.7893C70.1613 9.59927 69.0762 8.63147 67.7419 8.63147H51.7899C50.7145 3.71908 45.8589 0 40.0415 0H34.9597C30.473 0 26.5609 2.21505 24.5093 5.4799C22.0923 2.13197 17.8706 0 13.3065 0C5.96976 0 0 5.32454 0 11.8683C0 18.412 5.96976 23.7365 13.3065 23.7365C17.3746 23.7365 21.1331 22.0858 23.6202 19.3615C24.45 20.6778 26.0129 21.5787 27.8226 21.5787H27.906C28.2798 24.2307 30.0048 26.5062 32.4472 27.8473L31.6996 30.3213L26.4109 30.9945C26.0698 31.0377 25.7298 31.0927 25.3935 31.1596C23.5827 28.0372 19.9331 25.8944 15.7258 25.8944C9.72218 25.8944 4.83871 30.2501 4.83871 35.6048C4.83871 40.5949 9.08105 44.7132 14.5161 45.2515V55.0256C14.5161 58.0002 17.2294 60.4203 20.5645 60.4203H21.7742V62.5781C21.7742 64.9583 23.9444 66.8939 26.6129 66.8939H48.3871C51.0556 66.8939 53.2258 64.9583 53.2258 62.5781V60.4203H54.4355C57.7706 60.4203 60.4839 58.0002 60.4839 55.0256V45.2774C61.379 45.4166 62.3855 45.1458 63.0496 44.5524L67.0331 40.9995H72.5807C73.9149 40.9995 75 40.0317 75 38.8416V32.368C75 31.1779 73.9149 30.2101 72.5807 30.2101ZM44.2815 32.6269L42.8177 37.193L39.45 35.3912L42.7657 32.4338L44.2815 32.6269ZM49.5968 17.2629C49.5968 18.453 48.5117 19.4208 47.1774 19.4208V15.1051C48.5117 15.1051 49.5968 16.0729 49.5968 17.2629ZM67.7419 21.5787H56.1073L53.7677 25.752C53.6468 25.9656 53.2258 25.8771 53.2258 25.6398V21.5787H47.1774C48.9605 21.5787 50.504 20.7047 51.3436 19.4208H65.3226V17.2629H52.0161C52.0161 16.4732 51.7597 15.7427 51.3436 15.1051H65.3226V12.9472H51.7331C51.906 12.2383 52.0016 11.5144 52.0101 10.7893H67.7419V21.5787ZM13.3065 21.5787C7.30282 21.5787 2.41935 17.223 2.41935 11.8683C2.41935 6.51352 7.30282 2.15787 13.3065 2.15787C17.6806 2.15787 21.6617 4.55526 23.3407 8.14055C23.1157 8.95622 22.9839 9.80427 22.9839 10.6804C22.9839 12.0722 23.3129 13.4597 23.9069 14.7469C23.6649 15.0446 23.4677 15.3705 23.3177 15.719L23.3069 15.7147C21.5819 19.2773 17.6565 21.5787 13.3065 21.5787ZM25.4032 17.2629C25.4032 16.0729 26.4883 15.1051 27.8226 15.1051H27.8347C27.8335 15.1504 27.8226 15.1925 27.8226 15.2378V19.4208C26.4883 19.4208 25.4032 18.453 25.4032 17.2629ZM28.4129 12.9472H27.8226C27.1331 12.9472 26.4786 13.081 25.8847 13.314C25.575 12.4638 25.4032 11.5737 25.4032 10.6804C25.4032 5.98161 29.6903 2.15787 34.9585 2.15787H40.0403C45.3097 2.15787 49.5968 5.98161 49.5968 10.6804C49.5968 11.5726 49.425 12.4638 49.1153 13.314C48.5214 13.081 47.8669 12.9472 47.1774 12.9472H37.5C36.1657 12.9472 35.0806 11.9794 35.0806 10.7893C35.0806 9.59927 36.1657 8.63147 37.5 8.63147V6.4736C35.1629 6.4736 33.2093 7.95821 32.7593 9.92511L32.4048 10.0039C30.5952 10.4085 29.1677 11.5176 28.4129 12.9472ZM30.2419 20.4997V15.2378C30.2419 13.7726 31.3415 12.5016 32.9202 12.1186C33.5528 13.846 35.3552 15.1051 37.5 15.1051H44.7581V20.4997C44.7581 24.0699 41.5028 26.9733 37.5 26.9733C33.4972 26.9733 30.2419 24.0699 30.2419 20.4997ZM37.5 29.1312C38.481 29.1312 39.427 28.9985 40.3198 28.7546L40.9887 30.9675L37.5 34.0792L34.0113 30.9675L34.6802 28.7546C35.573 28.9985 36.519 29.1312 37.5 29.1312ZM32.2331 32.4338L35.5488 35.3912L32.181 37.193L30.7173 32.6269L32.2331 32.4338ZM26.7544 33.1319L28.3004 32.9344L30.721 40.4902L37.5 36.8628L44.279 40.4902L46.6996 32.9344L48.2456 33.1319C49.6802 33.3142 51.0448 33.7328 52.3028 34.3737C52.6246 34.5377 52.9222 34.7363 53.2258 34.9272V38.8416C53.2258 40.0317 54.3109 40.9995 55.6452 40.9995H58.0645V47.4731H53.2258V46.3941C53.2258 44.6096 51.5976 43.1573 49.5968 43.1573H25.4032C23.4024 43.1573 21.7742 44.6096 21.7742 46.3941V47.4731H16.9355V45.2515C22.3706 44.7132 26.6129 40.5949 26.6129 35.6048C26.6129 34.7837 26.4859 33.9896 26.2694 33.2268C26.4327 33.1999 26.5911 33.1524 26.7544 33.1319ZM50.8065 60.4203H24.1936V46.3941C24.1936 45.7986 24.7355 45.3152 25.4032 45.3152H49.5968C50.2645 45.3152 50.8065 45.7986 50.8065 46.3941V60.4203ZM7.25806 35.6048C7.25806 31.4412 11.0577 28.0523 15.7258 28.0523C20.394 28.0523 24.1936 31.4412 24.1936 35.6048C24.1936 39.7684 20.394 43.1573 15.7258 43.1573C11.0577 43.1573 7.25806 39.7684 7.25806 35.6048ZM20.5645 58.2624C18.5637 58.2624 16.9355 56.8102 16.9355 55.0256V49.6309H21.7742V51.7888H19.3548V53.9467H21.7742V58.2624H20.5645ZM48.3871 64.736H26.6129C25.2786 64.736 24.1936 63.7682 24.1936 62.5781H50.8065C50.8065 63.7682 49.7214 64.736 48.3871 64.736ZM54.4355 58.2624H53.2258V53.9467H55.6452V51.7888H53.2258V49.6309H58.0645V55.0256C58.0645 56.8102 56.4363 58.2624 54.4355 58.2624ZM72.5807 38.8416H66.0314L61.3391 43.0268C61.05 43.2836 60.4839 43.0753 60.4839 42.7107V38.8416H55.6452V32.368H72.5807V38.8416Z" fill="#F4522F"/>
</svg>
