<svg width="25" height="25" viewBox="0 0 25 25" fill="none" xmlns="http://www.w3.org/2000/svg">
<path d="M20.4484 16.3476C21.2081 15.7769 21.7584 14.9966 22.0402 14.0903L25 5.32783H5.97349L5.76357 3.0002C5.69136 2.18154 5.31777 1.42495 4.71167 0.869971C4.10552 0.31499 3.31909 0.00927734 2.49722 0.00927734H0V1.96104H2.49722C3.19004 1.96104 3.75845 2.48149 3.81948 3.17363L5.34687 20.1095C5.34712 20.1125 5.34741 20.1155 5.34771 20.1186C5.49658 21.6138 6.61919 22.7817 8.05352 23.0251C8.43599 24.1666 9.5148 24.9918 10.7834 24.9918C12.0284 24.9918 13.0911 24.1973 13.4917 23.0889H15.7846C16.1853 24.1973 17.2479 24.9918 18.4929 24.9918C20.0803 24.9918 21.3717 23.7003 21.3717 22.113C21.3717 20.5256 20.0803 19.2341 18.4929 19.2341C17.2479 19.2341 16.1853 20.0287 15.7846 21.1371H13.4917C13.0911 20.0287 12.0284 19.2341 10.7834 19.2341C9.58013 19.2341 8.54751 19.9765 8.11792 21.027C7.6707 20.8495 7.34224 20.4359 7.29028 19.9291L7.04717 17.2335H17.8098C18.7644 17.2336 19.6768 16.9272 20.4484 16.3476ZM18.493 21.1859C19.0042 21.1859 19.4201 21.6018 19.4201 22.113C19.4201 22.6243 19.0042 23.0401 18.493 23.0401C17.9817 23.0401 17.5659 22.6243 17.5659 22.113C17.5659 21.6018 17.9817 21.1859 18.493 21.1859ZM10.7835 21.1859C11.2947 21.1859 11.7106 21.6018 11.7106 22.113C11.7106 22.6243 11.2947 23.0401 10.7835 23.0401C10.2723 23.0401 9.8564 22.6243 9.8564 22.113C9.8564 21.6018 10.2723 21.1859 10.7835 21.1859ZM6.87119 15.2819V15.2818L6.14946 7.27959H22.2806L20.1871 13.4774L20.179 13.5028C19.8567 14.5503 18.8825 15.2819 17.8099 15.2819H6.87119Z" fill="black"/>
</svg>
