<svg width="65" height="66" viewBox="0 0 65 66" fill="none" xmlns="http://www.w3.org/2000/svg">
<path d="M54.2369 25.098C53.7258 24.5969 52.8972 24.5969 52.3862 25.098C51.8752 25.5993 51.8752 26.4121 52.3862 26.9133C52.4063 26.933 52.4273 26.9532 52.4476 26.9717C52.7001 27.2036 53.0214 27.3184 53.342 27.3184C53.6911 27.3184 54.0397 27.1819 54.2972 26.9123C54.7913 26.3951 54.7643 25.5826 54.2369 25.098Z" fill="#F4522F"/>
<path d="M51.578 22.9899C50.829 22.491 50.0599 22.046 49.2923 21.667C44.9496 19.5237 40.3477 19.0934 35.9838 20.4226C35.2937 20.633 34.9078 21.3522 35.1223 22.0291C35.3366 22.7061 36.0695 23.0843 36.7601 22.8742C40.4639 21.7458 44.3906 22.1214 48.1156 23.9599C48.7727 24.2845 49.4616 24.6837 50.1081 25.1138C50.3333 25.2637 50.5889 25.3357 50.8418 25.3357C51.2608 25.3357 51.6726 25.1387 51.9257 24.7729C52.3316 24.1864 52.1759 23.3881 51.578 22.9899Z" fill="#F4522F"/>
<path d="M63.4834 39.5999C62.9469 38.496 62.0585 36.6681 62.0425 36.0634C63.5728 32.3638 63.0146 28.2698 60.4657 24.5249C56.5461 18.7654 48.5126 14.585 41.3642 14.585C37.5855 14.585 33.8957 15.4689 30.5761 17.156C29.6237 12.0378 25.0473 8.14478 19.5583 8.14478C13.381 8.14478 8.35547 13.074 8.35547 19.1328C8.35547 22.9875 10.3584 26.4924 13.7128 28.5082C14.6799 29.0893 14.8987 29.5917 14.9764 30.4148V34.7971V37.9254C14.9764 39.3586 16.1649 40.5245 17.6256 40.5245H18.0706C18.7894 46.1432 21.5617 51.2445 25.9625 54.9984C26.004 55.1252 26.1251 55.7196 25.605 57.493C25.2 58.8746 24.5784 60.4093 24.0303 61.7634C23.6633 62.6694 23.3464 63.452 23.1548 64.0437C23.0285 64.4337 23.0995 64.8596 23.3459 65.1901C23.5924 65.5205 23.9847 65.7158 24.402 65.7158H43.0815C43.6952 65.7158 44.5382 65.4463 45.0688 64.1621C45.2998 63.6033 45.4505 62.931 45.6103 62.219C45.7658 61.5254 46.1304 59.9009 46.4928 59.7046C46.4931 59.7046 46.5143 59.7012 46.5655 59.7089C46.6326 59.7194 46.7005 59.7244 46.7686 59.7244C48.7248 59.7244 50.3232 59.8114 51.7335 59.888C55.8698 60.1132 58.3666 60.2491 60.5568 57.1548C61.6706 55.581 61.5444 53.2857 61.4107 50.8556C61.3419 49.6032 61.2709 48.3104 61.397 47.2357C61.6254 47.0151 62.1972 46.63 62.5558 46.3886C63.7894 45.5575 64.9544 44.7729 64.9544 43.5799C64.9548 42.6731 64.3956 41.4767 63.4834 39.5999ZM15.0803 26.319C12.5083 24.7737 10.9728 22.0873 10.9728 19.1326C10.9728 14.4892 14.8243 10.7117 19.5584 10.7117C24.2926 10.7117 28.1441 14.4893 28.1441 19.1326C28.1441 22.0873 26.6087 24.7738 24.0365 26.3193C22.8142 27.0541 22.0877 27.9111 21.7429 29.0691L19.558 29.0683L17.3743 29.0691C17.0292 27.9112 16.3028 27.0541 15.0803 26.319ZM21.5233 31.6363V33.5135H17.5938V31.6363H21.5233ZM17.6259 37.9574C17.6114 37.9574 17.5938 37.9396 17.5938 37.9253V36.0805H21.5233V37.9253C21.5233 37.9398 21.5056 37.9574 21.4908 37.9574H17.6259ZM61.0746 44.2722C59.9483 45.031 58.9755 45.6861 58.832 46.6775C58.635 48.0375 58.7177 49.5404 58.7975 50.9936C58.8967 52.7965 59.009 54.8401 58.407 55.6907C57.105 57.5305 55.9788 57.5483 51.8786 57.3249C50.5258 57.2512 48.8471 57.1599 46.8569 57.1571C46.0925 57.0688 44.7993 57.2095 43.9362 58.8551C43.4979 59.6906 43.2623 60.7407 43.0545 61.667C42.9501 62.1325 42.8034 62.7866 42.666 63.1485H26.2859C26.3432 63.0067 26.4023 62.8605 26.4631 62.7106C28.3482 58.0549 29.5422 54.6403 27.7248 53.0993C23.8728 49.8316 21.4164 45.4068 20.7119 40.5244H21.4909C22.952 40.5244 24.1406 39.3584 24.1406 37.9253V34.797V30.4173C24.2182 29.5926 24.4363 29.0899 25.4042 28.508C28.5017 26.6467 30.4452 23.5153 30.725 20.0115C33.9368 18.1395 37.6003 17.1519 41.3643 17.1519C47.5995 17.1519 54.8757 20.9343 58.2891 25.95C59.7521 28.0996 61.1653 31.4438 59.5887 35.1673C59.0752 36.3798 59.8365 38.0615 61.121 40.7045C61.5369 41.56 62.1388 42.7986 62.2982 43.3772C62.0279 43.6302 61.4466 44.0217 61.0746 44.2722Z" fill="#F4522F"/>
<path d="M25.9775 17.3194C25.5911 15.9146 24.6305 14.7895 23.1993 14.0653C22.557 13.7407 21.7678 13.9876 21.4363 14.6178C21.1051 15.2479 21.3572 16.0219 21.9996 16.3468C22.7809 16.7421 23.2557 17.2791 23.4507 17.988C23.7594 19.1102 23.2925 20.3245 23.0875 20.6399C22.699 21.2377 22.8782 22.0312 23.4876 22.4122C23.7056 22.5486 23.9491 22.6135 24.1898 22.6135C24.622 22.6135 25.0449 22.4039 25.2943 22.0199C25.8526 21.1613 26.4951 19.2007 25.9775 17.3194Z" fill="#F4522F"/>
<path d="M19.5586 0C18.8359 0 18.25 0.574881 18.25 1.2835V4.94251C18.25 5.65113 18.8359 6.22601 19.5586 6.22601C20.2812 6.22601 20.8672 5.65113 20.8672 4.94251V1.2835C20.8672 0.574881 20.2812 0 19.5586 0Z" fill="#F4522F"/>
<path d="M5.03913 17.9006H1.30859C0.585857 17.9006 0 18.4755 0 19.1841C0 19.8929 0.585857 20.4675 1.30859 20.4675H5.03926C5.76186 20.4675 6.34772 19.8929 6.34772 19.1841C6.34772 18.4755 5.76173 17.9006 5.03913 17.9006Z" fill="#F4522F"/>
<path d="M13.4313 6.20736L11.5666 3.04004C11.2051 2.42616 10.4047 2.21605 9.77891 2.57029C9.15314 2.92478 8.93867 3.70962 9.3001 4.3235L11.1648 7.49082C11.4073 7.90269 11.847 8.13281 12.2992 8.13281C12.5213 8.13281 12.7464 8.07737 12.9524 7.96057C13.5782 7.60608 13.7927 6.82124 13.4313 6.20736Z" fill="#F4522F"/>
<path d="M7.63717 10.9517L4.40744 9.12273C3.78168 8.76848 2.98122 8.97885 2.61992 9.59248C2.25848 10.2064 2.47296 10.9912 3.09886 11.3457L6.32858 13.1747C6.53455 13.2915 6.75963 13.3469 6.98156 13.3469C7.43381 13.3469 7.87363 13.1168 8.11611 12.7049C8.47754 12.0913 8.26306 11.3062 7.63717 10.9517Z" fill="#F4522F"/>
<path d="M36.4975 9.59217C36.1359 8.97827 35.3357 8.76791 34.7099 9.12241L31.4802 10.9514C30.8543 11.3059 30.6398 12.091 31.0013 12.7047C31.2436 13.1165 31.6834 13.3467 32.1357 13.3467C32.3576 13.3467 32.5827 13.2912 32.7888 13.1744L36.0185 11.3454C36.6444 10.9909 36.8589 10.2061 36.4975 9.59217Z" fill="#F4522F"/>
<path d="M8.11675 25.6634C7.75558 25.0495 6.95552 24.8394 6.32949 25.1934L3.09899 27.0224C2.4731 27.3766 2.25849 28.1618 2.61979 28.7757C2.86214 29.1875 3.30209 29.4177 3.75433 29.4177C3.97627 29.4177 4.20121 29.3622 4.40731 29.2457L7.63768 27.4167C8.26357 27.0624 8.47818 26.2773 8.11675 25.6634Z" fill="#F4522F"/>
<path d="M12.6832 30.8639C12.0576 30.5097 11.2571 30.7201 10.8957 31.3337L9.3 34.0449C8.9387 34.6588 9.15318 35.4439 9.77908 35.7981C9.98518 35.9149 10.2101 35.9704 10.4321 35.9704C10.8843 35.9704 11.3243 35.7403 11.5666 35.3284L13.1623 32.6172C13.5237 32.0033 13.3093 31.2184 12.6832 30.8639Z" fill="#F4522F"/>
<path d="M29.3381 2.57041C28.7121 2.2159 27.912 2.42627 27.5506 3.04018L25.6859 6.20764C25.3244 6.82155 25.5388 7.60655 26.1647 7.96093C26.3708 8.07773 26.5959 8.13318 26.8178 8.13318C27.2701 8.13318 27.7099 7.90304 27.9524 7.49116L29.8171 4.3237C30.1785 3.70979 29.964 2.92492 29.3381 2.57041Z" fill="#F4522F"/>
</svg>
