<svg width="52" height="52" viewBox="0 0 52 52" fill="none" xmlns="http://www.w3.org/2000/svg">
<path d="M52 26C52 11.6391 40.3609 0 26 0C11.6391 0 0 11.6391 0 26C0 40.3609 11.6391 52 26 52C26.1523 52 26.3047 52 26.457 51.9898V31.7586H20.8711V25.2484H26.457V20.4547C26.457 14.8992 29.8492 11.8727 34.8055 11.8727C37.182 11.8727 39.2234 12.0453 39.8125 12.1266V17.9359H36.4C33.7086 17.9359 33.1805 19.2156 33.1805 21.0945V25.2383H39.6297L38.7867 31.7484H33.1805V50.9945C44.0477 47.8766 52 37.8727 52 26Z" fill="#021A58"/>
</svg>
