<svg width="220" height="60" viewBox="0 0 220 60" fill="none" xmlns="http://www.w3.org/2000/svg">
<path d="M61.625 36.83C61.5783 35.99 61.5433 35.115 61.52 34.205C61.52 33.295 61.5083 32.315 61.485 31.265C61.4617 30.215 61.45 29.0833 61.45 27.87C61.45 26.6333 61.45 25.2567 61.45 23.74C61.45 22.0833 61.4617 20.6717 61.485 19.505C61.5083 18.315 61.5783 17.3467 61.695 16.6C61.8117 15.8533 61.9867 15.305 62.22 14.955C62.4767 14.605 62.815 14.43 63.235 14.43C63.445 14.43 63.6433 14.4533 63.83 14.5C64.0167 14.5467 64.18 14.6517 64.32 14.815C64.46 14.955 64.5767 15.1767 64.67 15.48C64.7867 15.76 64.8567 16.1333 64.88 16.6C64.9267 17.44 64.9617 18.1867 64.985 18.84C65.0083 19.4933 65.0317 20.1467 65.055 20.8C65.0783 21.43 65.09 22.095 65.09 22.795C65.09 23.4717 65.09 24.2417 65.09 25.105C65.09 26.155 65.09 27.1583 65.09 28.115C65.09 29.0717 65.0783 30.0167 65.055 30.95C65.0317 31.8833 65.0083 32.8283 64.985 33.785C64.9617 34.7417 64.9267 35.745 64.88 36.795C64.8567 37.355 64.7983 37.7867 64.705 38.09C64.6117 38.3933 64.495 38.6267 64.355 38.79C64.215 38.9533 64.0517 39.0467 63.865 39.07C63.6783 39.1167 63.4683 39.14 63.235 39.14C62.815 39.14 62.4533 39 62.15 38.72C61.8467 38.4167 61.6717 37.7867 61.625 36.83ZM82.6649 20.73C83.1549 20.73 83.7733 20.7767 84.5199 20.87C85.2666 20.94 85.9783 21.0917 86.6549 21.325C87.3316 21.535 87.9149 21.8383 88.4049 22.235C88.8949 22.6317 89.1399 23.1333 89.1399 23.74C89.1399 24.09 89.0349 24.3933 88.8249 24.65C88.6383 24.9067 88.3349 25.035 87.9149 25.035C87.6116 25.035 87.2616 24.9883 86.8649 24.895C86.4916 24.8017 86.0716 24.6967 85.6049 24.58C85.1616 24.44 84.6716 24.3233 84.1349 24.23C83.6216 24.1367 83.0733 24.09 82.4899 24.09C81.5099 24.09 80.7049 24.2417 80.0749 24.545C79.4683 24.8483 79.1649 25.3267 79.1649 25.98C79.1649 26.3533 79.2699 26.6683 79.4799 26.925C79.7133 27.1817 80.0166 27.415 80.3899 27.625C80.7866 27.8117 81.2416 27.975 81.7549 28.115C82.2916 28.255 82.8516 28.395 83.4349 28.535C84.1583 28.7217 84.8699 28.9317 85.5699 29.165C86.2933 29.3983 86.9349 29.725 87.4949 30.145C88.0549 30.5417 88.5099 31.055 88.8599 31.685C89.2099 32.2917 89.3849 33.05 89.3849 33.96C89.3849 35.6867 88.7316 37.0633 87.4249 38.09C86.1183 39.0933 84.1933 39.595 81.6499 39.595C81.0899 39.595 80.4249 39.5483 79.6549 39.455C78.8849 39.385 78.1616 39.2333 77.4849 39C76.8083 38.79 76.2249 38.4867 75.7349 38.09C75.2683 37.67 75.0349 37.1217 75.0349 36.445C75.0349 35.9783 75.1399 35.6283 75.3499 35.395C75.5833 35.1383 75.8633 35.01 76.1899 35.01C76.4466 35.01 76.7149 35.0917 76.9949 35.255C77.2749 35.4183 77.6133 35.5933 78.0099 35.78C78.4066 35.9667 78.8849 36.1417 79.4449 36.305C80.0049 36.4683 80.6933 36.55 81.5099 36.55C81.8133 36.55 82.2099 36.5383 82.6999 36.515C83.1899 36.4683 83.6683 36.3633 84.1349 36.2C84.6249 36.0367 85.0333 35.815 85.3599 35.535C85.7099 35.2317 85.8849 34.8117 85.8849 34.275C85.8849 33.855 85.7683 33.505 85.5349 33.225C85.3016 32.9217 84.9866 32.665 84.5899 32.455C84.1933 32.245 83.7266 32.07 83.1899 31.93C82.6766 31.7667 82.1283 31.6033 81.5449 31.44C80.8683 31.2533 80.1799 31.0433 79.4799 30.81C78.8033 30.5767 78.1849 30.2733 77.6249 29.9C77.0649 29.5267 76.6099 29.06 76.2599 28.5C75.9099 27.9167 75.7349 27.205 75.7349 26.365C75.7349 25.5717 75.8983 24.8367 76.2249 24.16C76.5516 23.46 77.0183 22.8533 77.6249 22.34C78.2316 21.8267 78.9549 21.43 79.7949 21.15C80.6583 20.87 81.6149 20.73 82.6649 20.73ZM103.244 44.04C103.244 44.4833 103.232 44.9033 103.209 45.3C103.185 45.72 103.104 46.0933 102.964 46.42C102.847 46.7467 102.66 47.0033 102.404 47.19C102.17 47.4 101.832 47.505 101.389 47.505C100.875 47.505 100.444 47.3183 100.094 46.945C99.7669 46.595 99.5802 45.965 99.5336 45.055C99.5102 44.4717 99.4752 43.76 99.4286 42.92C99.3819 42.08 99.3352 41.1933 99.2886 40.26C99.2652 39.3267 99.2302 38.3933 99.1836 37.46C99.1602 36.5267 99.1486 35.6633 99.1486 34.87C99.1486 32.14 99.3352 29.8883 99.7086 28.115C100.105 26.3417 100.689 24.93 101.459 23.88C102.229 22.83 103.174 22.095 104.294 21.675C105.437 21.255 106.755 21.045 108.249 21.045C109.439 21.045 110.559 21.2317 111.609 21.605C112.659 21.955 113.569 22.515 114.339 23.285C115.132 24.0317 115.762 25.0117 116.229 26.225C116.695 27.415 116.929 28.85 116.929 30.53C116.929 31.93 116.684 33.1667 116.194 34.24C115.727 35.3133 115.074 36.2233 114.234 36.97C113.394 37.6933 112.402 38.2533 111.259 38.65C110.139 39.0233 108.937 39.21 107.654 39.21C106.557 39.21 105.565 38.9883 104.679 38.545C103.815 38.0783 103.197 37.5767 102.824 37.04C102.94 38.3467 103.034 39.56 103.104 40.68C103.197 41.8 103.244 42.92 103.244 44.04ZM108.074 24.545C107.257 24.545 106.545 24.685 105.939 24.965C105.355 25.245 104.877 25.63 104.504 26.12C104.13 26.61 103.85 27.1933 103.664 27.87C103.5 28.5467 103.419 29.2817 103.419 30.075C103.419 30.845 103.489 31.58 103.629 32.28C103.792 32.9567 104.049 33.5517 104.399 34.065C104.749 34.5783 105.215 34.9867 105.799 35.29C106.382 35.5933 107.094 35.745 107.934 35.745C108.587 35.745 109.217 35.6633 109.824 35.5C110.43 35.3133 110.967 35.01 111.434 34.59C111.924 34.17 112.309 33.61 112.589 32.91C112.892 32.21 113.044 31.335 113.044 30.285C113.044 29.2117 112.892 28.3133 112.589 27.59C112.309 26.8433 111.924 26.2483 111.434 25.805C110.967 25.3383 110.43 25.0117 109.824 24.825C109.24 24.6383 108.657 24.545 108.074 24.545ZM141.214 39.14C140.841 39.14 140.537 39.0817 140.304 38.965C140.094 38.825 139.931 38.65 139.814 38.44C139.697 38.23 139.616 37.985 139.569 37.705C139.522 37.4017 139.487 37.0867 139.464 36.76C138.881 37.4833 138.122 38.09 137.189 38.58C136.279 39.07 135.112 39.315 133.689 39.315C132.779 39.315 131.846 39.1867 130.889 38.93C129.956 38.65 129.104 38.1833 128.334 37.53C127.564 36.8533 126.934 35.955 126.444 34.835C125.954 33.715 125.709 32.3033 125.709 30.6C125.709 29.27 125.872 28.0217 126.199 26.855C126.526 25.6883 127.016 24.6733 127.669 23.81C128.346 22.9233 129.186 22.2233 130.189 21.71C131.192 21.1967 132.371 20.94 133.724 20.94C134.914 20.94 135.976 21.1617 136.909 21.605C137.842 22.025 138.682 22.725 139.429 23.705C139.429 23.425 139.441 23.145 139.464 22.865C139.487 22.5617 139.546 22.2933 139.639 22.06C139.756 21.8033 139.931 21.605 140.164 21.465C140.397 21.3017 140.712 21.22 141.109 21.22C141.459 21.22 141.786 21.36 142.089 21.64C142.392 21.92 142.567 22.5267 142.614 23.46C142.684 24.6967 142.731 25.805 142.754 26.785C142.801 27.765 142.824 28.78 142.824 29.83C142.824 31.1133 142.812 32.2917 142.789 33.365C142.766 34.4383 142.707 35.5817 142.614 36.795C142.567 37.3317 142.497 37.7633 142.404 38.09C142.334 38.3933 142.241 38.6267 142.124 38.79C142.007 38.93 141.867 39.0233 141.704 39.07C141.541 39.1167 141.377 39.14 141.214 39.14ZM139.324 30.25C139.324 29.0367 139.137 28.045 138.764 27.275C138.414 26.505 137.959 25.91 137.399 25.49C136.862 25.0467 136.279 24.7433 135.649 24.58C135.019 24.4167 134.436 24.335 133.899 24.335C133.059 24.335 132.336 24.4867 131.729 24.79C131.146 25.0933 130.667 25.5133 130.294 26.05C129.921 26.5633 129.641 27.1817 129.454 27.905C129.291 28.605 129.209 29.375 129.209 30.215C129.209 32.2683 129.652 33.785 130.539 34.765C131.449 35.745 132.674 36.235 134.214 36.235C135.124 36.235 135.894 36.0833 136.524 35.78C137.177 35.4533 137.702 35.0217 138.099 34.485C138.519 33.9483 138.822 33.3183 139.009 32.595C139.219 31.8483 139.324 31.0667 139.324 30.25ZM161.732 21.15C162.409 21.15 163.086 21.2083 163.762 21.325C164.462 21.4417 165.092 21.605 165.652 21.815C166.212 22.025 166.667 22.2817 167.017 22.585C167.367 22.8883 167.542 23.2383 167.542 23.635C167.542 24.6617 166.959 25.175 165.792 25.175C165.512 25.175 165.244 25.14 164.987 25.07C164.754 24.9767 164.474 24.895 164.147 24.825C163.821 24.7317 163.412 24.65 162.922 24.58C162.432 24.4867 161.826 24.44 161.102 24.44C159.562 24.44 158.372 24.965 157.532 26.015C156.692 27.065 156.272 28.43 156.272 30.11C156.272 31.9533 156.692 33.435 157.532 34.555C158.396 35.675 159.609 36.235 161.172 36.235C162.152 36.235 162.946 36.1533 163.552 35.99C164.159 35.8267 164.649 35.64 165.022 35.43C165.419 35.22 165.734 35.0333 165.967 34.87C166.224 34.7067 166.504 34.625 166.807 34.625C167.227 34.625 167.554 34.7183 167.787 34.905C168.044 35.0683 168.172 35.4183 168.172 35.955C168.172 36.515 167.951 37.005 167.507 37.425C167.087 37.845 166.551 38.195 165.897 38.475C165.244 38.755 164.532 38.965 163.762 39.105C163.016 39.245 162.327 39.315 161.697 39.315C158.874 39.315 156.657 38.5333 155.047 36.97C153.437 35.4067 152.632 33.19 152.632 30.32C152.632 29.0833 152.819 27.9167 153.192 26.82C153.589 25.7 154.172 24.72 154.942 23.88C155.712 23.04 156.657 22.375 157.777 21.885C158.921 21.395 160.239 21.15 161.732 21.15ZM186.06 32.56C185.243 32.56 184.38 32.5017 183.47 32.385C182.583 32.245 181.615 31.965 180.565 31.545C180.775 32.9683 181.358 34.0417 182.315 34.765C183.295 35.4883 184.695 35.85 186.515 35.85C187.168 35.85 187.752 35.815 188.265 35.745C188.802 35.6517 189.268 35.5583 189.665 35.465C190.062 35.3483 190.412 35.255 190.715 35.185C191.018 35.0917 191.298 35.045 191.555 35.045C191.882 35.045 192.197 35.15 192.5 35.36C192.803 35.5467 192.955 35.8733 192.955 36.34C192.955 36.9233 192.71 37.4017 192.22 37.775C191.753 38.1483 191.17 38.4517 190.47 38.685C189.793 38.895 189.07 39.035 188.3 39.105C187.53 39.1983 186.853 39.245 186.27 39.245C184.893 39.245 183.622 39.0583 182.455 38.685C181.312 38.3117 180.32 37.7517 179.48 37.005C178.64 36.235 177.987 35.29 177.52 34.17C177.053 33.05 176.82 31.7433 176.82 30.25C176.82 28.8033 177.042 27.52 177.485 26.4C177.952 25.28 178.582 24.335 179.375 23.565C180.168 22.795 181.102 22.2117 182.175 21.815C183.272 21.4183 184.45 21.22 185.71 21.22C186.69 21.22 187.635 21.3483 188.545 21.605C189.478 21.8617 190.295 22.2467 190.995 22.76C191.718 23.2733 192.29 23.9267 192.71 24.72C193.153 25.49 193.375 26.4 193.375 27.45C193.375 28.3833 193.2 29.1767 192.85 29.83C192.5 30.4833 191.998 31.0083 191.345 31.405C190.715 31.8017 189.945 32.0933 189.035 32.28C188.148 32.4667 187.157 32.56 186.06 32.56ZM185.815 24.44C185.185 24.44 184.578 24.5217 183.995 24.685C183.412 24.825 182.875 25.07 182.385 25.42C181.918 25.7467 181.522 26.19 181.195 26.75C180.868 27.2867 180.647 27.9633 180.53 28.78C181.417 29.1767 182.28 29.4567 183.12 29.62C183.96 29.76 184.847 29.83 185.78 29.83C187.157 29.83 188.172 29.6667 188.825 29.34C189.502 28.99 189.84 28.3717 189.84 27.485C189.84 26.6683 189.525 25.9567 188.895 25.35C188.288 24.7433 187.262 24.44 185.815 24.44Z" fill="#F4522F"/>
<path d="M60.274 44.718H61.366V49.814C61.366 50.1 61.3617 50.4207 61.353 50.776C61.3443 51.1313 61.3313 51.4563 61.314 51.751C61.3053 52.0457 61.2923 52.2623 61.275 52.401H61.327L66.436 44.718H67.736V54H66.644V48.956C66.644 48.6353 66.6483 48.293 66.657 47.929C66.6743 47.565 66.6917 47.2313 66.709 46.928C66.7263 46.6247 66.7393 46.408 66.748 46.278H66.696L61.574 54H60.274V44.718ZM72.1375 47.032V49.931H75.9205V47.032H77.0645V54H75.9205V50.893H72.1375V54H70.9935V47.032H72.1375ZM84.9909 47.994H82.7159V54H81.5849V47.994H79.3359V47.032H84.9909V47.994ZM89.8375 46.902C90.4355 46.902 90.9469 47.032 91.3715 47.292C91.8049 47.552 92.1342 47.9203 92.3595 48.397C92.5935 48.865 92.7105 49.4153 92.7105 50.048V50.737H87.9395C87.9569 51.5257 88.1562 52.128 88.5375 52.544C88.9275 52.9513 89.4692 53.155 90.1625 53.155C90.6045 53.155 90.9945 53.116 91.3325 53.038C91.6792 52.9513 92.0345 52.83 92.3985 52.674V53.675C92.0432 53.831 91.6922 53.9437 91.3455 54.013C90.9989 54.091 90.5872 54.13 90.1105 54.13C89.4519 54.13 88.8669 53.9957 88.3555 53.727C87.8529 53.4583 87.4585 53.0597 87.1725 52.531C86.8952 51.9937 86.7565 51.3393 86.7565 50.568C86.7565 49.8053 86.8822 49.151 87.1335 48.605C87.3935 48.059 87.7532 47.6387 88.2125 47.344C88.6805 47.0493 89.2222 46.902 89.8375 46.902ZM89.8245 47.838C89.2785 47.838 88.8452 48.0157 88.5245 48.371C88.2125 48.7177 88.0262 49.203 87.9655 49.827H91.5145C91.5059 49.2377 91.3672 48.761 91.0985 48.397C90.8299 48.0243 90.4052 47.838 89.8245 47.838ZM98.7094 46.902C99.5674 46.902 100.256 47.201 100.776 47.799C101.305 48.397 101.569 49.2983 101.569 50.503C101.569 51.6903 101.305 52.5917 100.776 53.207C100.256 53.8223 99.5631 54.13 98.6964 54.13C98.1591 54.13 97.7127 54.0303 97.3574 53.831C97.0107 53.623 96.7377 53.3847 96.5384 53.116H96.4604C96.4777 53.2633 96.4951 53.4497 96.5124 53.675C96.5297 53.9003 96.5384 54.0953 96.5384 54.26V57.12H95.3944V47.032H96.3304L96.4864 47.981H96.5384C96.7464 47.6777 97.0194 47.422 97.3574 47.214C97.6954 47.006 98.1461 46.902 98.7094 46.902ZM98.5014 47.864C97.7907 47.864 97.2881 48.0633 96.9934 48.462C96.7074 48.8607 96.5557 49.4673 96.5384 50.282V50.503C96.5384 51.361 96.6771 52.024 96.9544 52.492C97.2404 52.9513 97.7647 53.181 98.5274 53.181C98.9521 53.181 99.2987 53.064 99.5674 52.83C99.8447 52.596 100.048 52.2797 100.178 51.881C100.317 51.4737 100.386 51.01 100.386 50.49C100.386 49.6927 100.23 49.0557 99.9184 48.579C99.6151 48.1023 99.1427 47.864 98.5014 47.864ZM105.446 47.032V49.931H109.229V47.032H110.373V54H109.229V50.893H105.446V54H104.302V47.032H105.446ZM116.181 46.902C116.779 46.902 117.29 47.032 117.715 47.292C118.148 47.552 118.477 47.9203 118.703 48.397C118.937 48.865 119.054 49.4153 119.054 50.048V50.737H114.283C114.3 51.5257 114.499 52.128 114.881 52.544C115.271 52.9513 115.812 53.155 116.506 53.155C116.948 53.155 117.338 53.116 117.676 53.038C118.022 52.9513 118.378 52.83 118.742 52.674V53.675C118.386 53.831 118.035 53.9437 117.689 54.013C117.342 54.091 116.93 54.13 116.454 54.13C115.795 54.13 115.21 53.9957 114.699 53.727C114.196 53.4583 113.802 53.0597 113.516 52.531C113.238 51.9937 113.1 51.3393 113.1 50.568C113.1 49.8053 113.225 49.151 113.477 48.605C113.737 48.059 114.096 47.6387 114.556 47.344C115.024 47.0493 115.565 46.902 116.181 46.902ZM116.168 47.838C115.622 47.838 115.188 48.0157 114.868 48.371C114.556 48.7177 114.369 49.203 114.309 49.827H117.858C117.849 49.2377 117.71 48.761 117.442 48.397C117.173 48.0243 116.748 47.838 116.168 47.838ZM126.548 47.994H124.273V54H123.142V47.994H120.893V47.032H126.548V47.994ZM135.096 46.915C135.945 46.915 136.574 47.1013 136.981 47.474C137.388 47.8467 137.592 48.4403 137.592 49.255V54H136.76L136.539 53.012H136.487C136.184 53.3933 135.863 53.675 135.525 53.857C135.196 54.039 134.736 54.13 134.147 54.13C133.514 54.13 132.99 53.9653 132.574 53.636C132.158 53.298 131.95 52.7737 131.95 52.063C131.95 51.3697 132.223 50.8367 132.769 50.464C133.315 50.0827 134.156 49.8747 135.291 49.84L136.474 49.801V49.385C136.474 48.8043 136.348 48.4013 136.097 48.176C135.846 47.9507 135.49 47.838 135.031 47.838C134.667 47.838 134.32 47.8943 133.991 48.007C133.662 48.111 133.354 48.2323 133.068 48.371L132.717 47.513C133.02 47.3483 133.38 47.2097 133.796 47.097C134.212 46.9757 134.645 46.915 135.096 46.915ZM135.434 50.633C134.567 50.6677 133.965 50.8063 133.627 51.049C133.298 51.2917 133.133 51.634 133.133 52.076C133.133 52.466 133.25 52.752 133.484 52.934C133.727 53.116 134.034 53.207 134.407 53.207C134.996 53.207 135.486 53.0467 135.876 52.726C136.266 52.3967 136.461 51.894 136.461 51.218V50.594L135.434 50.633ZM144.905 47.032V47.994H141.798V54H140.654V47.032H144.905ZM149.752 46.902C150.35 46.902 150.862 47.032 151.286 47.292C151.72 47.552 152.049 47.9203 152.274 48.397C152.508 48.865 152.625 49.4153 152.625 50.048V50.737H147.854C147.872 51.5257 148.071 52.128 148.452 52.544C148.842 52.9513 149.384 53.155 150.077 53.155C150.519 53.155 150.909 53.116 151.247 53.038C151.594 52.9513 151.949 52.83 152.313 52.674V53.675C151.958 53.831 151.607 53.9437 151.26 54.013C150.914 54.091 150.502 54.13 150.025 54.13C149.367 54.13 148.782 53.9957 148.27 53.727C147.768 53.4583 147.373 53.0597 147.087 52.531C146.81 51.9937 146.671 51.3393 146.671 50.568C146.671 49.8053 146.797 49.151 147.048 48.605C147.308 48.059 147.668 47.6387 148.127 47.344C148.595 47.0493 149.137 46.902 149.752 46.902ZM149.739 47.838C149.193 47.838 148.76 48.0157 148.439 48.371C148.127 48.7177 147.941 49.203 147.88 49.827H151.429C151.421 49.2377 151.282 48.761 151.013 48.397C150.745 48.0243 150.32 47.838 149.739 47.838ZM156.453 47.032V49.931H160.236V47.032H161.38V54H160.236V50.893H156.453V54H155.309V47.032H156.453ZM167.292 54.13C166.676 54.13 166.126 54.0043 165.641 53.753C165.164 53.5017 164.787 53.1117 164.51 52.583C164.241 52.0543 164.107 51.3783 164.107 50.555C164.107 49.697 164.25 48.9993 164.536 48.462C164.822 47.9247 165.207 47.5303 165.693 47.279C166.187 47.0277 166.746 46.902 167.37 46.902C167.725 46.902 168.067 46.941 168.397 47.019C168.726 47.0883 168.995 47.175 169.203 47.279L168.852 48.228C168.644 48.15 168.401 48.0763 168.124 48.007C167.846 47.9377 167.586 47.903 167.344 47.903C165.974 47.903 165.29 48.7827 165.29 50.542C165.29 51.3827 165.454 52.0283 165.784 52.479C166.122 52.921 166.62 53.142 167.279 53.142C167.66 53.142 167.994 53.103 168.28 53.025C168.574 52.947 168.843 52.8517 169.086 52.739V53.753C168.852 53.8743 168.592 53.9653 168.306 54.026C168.028 54.0953 167.69 54.13 167.292 54.13ZM176.463 47.994H174.188V54H173.057V47.994H170.808V47.032H176.463V47.994ZM184.348 48.787C184.348 49.2203 184.218 49.5583 183.958 49.801C183.698 50.0437 183.365 50.2083 182.957 50.295V50.347C183.391 50.4077 183.768 50.5637 184.088 50.815C184.409 51.0577 184.569 51.439 184.569 51.959C184.569 52.5483 184.348 53.038 183.906 53.428C183.473 53.8093 182.754 54 181.748 54H178.745V47.032H181.735C182.229 47.032 182.671 47.0883 183.061 47.201C183.46 47.305 183.772 47.487 183.997 47.747C184.231 47.9983 184.348 48.345 184.348 48.787ZM183.191 48.93C183.191 48.6007 183.07 48.3623 182.827 48.215C182.593 48.059 182.208 47.981 181.67 47.981H179.889V49.892H181.462C182.615 49.892 183.191 49.5713 183.191 48.93ZM183.386 51.959C183.386 51.5603 183.235 51.2743 182.931 51.101C182.628 50.9277 182.182 50.841 181.592 50.841H179.889V53.077H181.618C182.19 53.077 182.628 52.9947 182.931 52.83C183.235 52.6567 183.386 52.3663 183.386 51.959ZM193.203 50.503C193.203 51.6557 192.909 52.5483 192.319 53.181C191.739 53.8137 190.95 54.13 189.953 54.13C189.338 54.13 188.788 53.9913 188.302 53.714C187.826 53.428 187.449 53.0163 187.171 52.479C186.894 51.933 186.755 51.2743 186.755 50.503C186.755 49.3503 187.046 48.462 187.626 47.838C188.207 47.214 188.996 46.902 189.992 46.902C190.625 46.902 191.18 47.045 191.656 47.331C192.142 47.6083 192.519 48.0157 192.787 48.553C193.065 49.0817 193.203 49.7317 193.203 50.503ZM187.938 50.503C187.938 51.3263 188.099 51.9807 188.419 52.466C188.749 52.9427 189.269 53.181 189.979 53.181C190.681 53.181 191.197 52.9427 191.526 52.466C191.856 51.9807 192.02 51.3263 192.02 50.503C192.02 49.6797 191.856 49.034 191.526 48.566C191.197 48.098 190.677 47.864 189.966 47.864C189.256 47.864 188.74 48.098 188.419 48.566C188.099 49.034 187.938 49.6797 187.938 50.503Z" fill="#F4522F" fill-opacity="0.41"/>
<g clip-path="url(#clip0)">
<path d="M26.7982 48.7421C26.509 48.7421 26.2198 48.6314 25.9984 48.4122L11.4775 33.8913C11.0528 33.4666 11.0347 32.7865 11.4324 32.3392L22.3157 20.1477C29.9229 11.2481 42.311 5.48895 53.113 5.67196C53.7162 5.68552 54.202 6.17128 54.2155 6.77453C54.4663 17.5833 48.6417 29.9646 39.7195 37.5876L27.5483 48.4551C27.336 48.6472 27.0648 48.7421 26.7982 48.7421ZM13.8295 33.0486L26.8412 46.0602L38.2351 35.8886C46.3823 28.9253 51.7935 17.8273 51.9607 7.92906C42.0625 8.09399 30.9668 13.5052 24.017 21.6343L13.8295 33.0486Z" fill="#F4522F"/>
<path d="M31.1249 57.0116C31.0165 57.0116 30.9057 56.9957 30.8018 56.9619C30.3951 56.8263 30.0607 56.5145 30.002 56.0897L28.4521 45.2742C28.364 44.6574 28.7932 44.0858 29.41 43.9954C30.0269 43.8982 30.5985 44.3343 30.6888 44.9534L31.8999 53.4034C35.8583 48.67 38.0589 42.6692 38.0589 36.5508C38.0589 35.9272 38.565 35.4211 39.1885 35.4211C39.8121 35.4211 40.3182 35.9272 40.3182 36.5508C40.3182 44.0361 37.2862 51.3632 31.9993 56.6478C31.7733 56.8737 31.4435 57.0116 31.1249 57.0116Z" fill="#F4522F"/>
<path d="M14.7785 31.4492C14.7265 31.4492 14.6723 31.447 14.618 31.4379L3.8025 29.888C3.37774 29.827 3.02303 29.531 2.88972 29.1221C2.75642 28.7154 2.86487 28.2658 3.16988 27.9653C8.53134 22.6038 15.8562 19.5718 23.3414 19.5718C23.965 19.5718 24.4711 20.0779 24.4711 20.7015C24.4711 21.325 23.965 21.8311 23.3414 21.8311C17.1937 21.8311 11.1612 24.0521 6.47758 27.9879L14.9389 29.2012C15.5557 29.2915 15.985 29.8609 15.8968 30.48C15.8132 31.0425 15.3297 31.4492 14.7785 31.4492Z" fill="#F4522F"/>
<path d="M38.7096 26.8265C37.2613 26.8265 35.8153 26.2752 34.715 25.1749C32.5144 22.9721 32.5144 19.3887 34.715 17.1858C36.9179 14.983 40.5012 14.983 42.7041 17.1858C44.9047 19.3887 44.9047 22.9721 42.7041 25.1749C41.6015 26.2775 40.1556 26.8265 38.7096 26.8265ZM38.7096 17.7936C37.842 17.7936 36.9721 18.1235 36.3124 18.7832C34.9929 20.1049 34.9929 22.2558 36.3124 23.5776C37.6341 24.897 39.785 24.8948 41.1067 23.5776C42.4262 22.2558 42.4262 20.1049 41.1067 18.7832C40.4448 18.1257 39.5772 17.7936 38.7096 17.7936ZM41.9043 24.3774H41.9269H41.9043Z" fill="#F4522F"/>
<path d="M1.12968 59.89C0.833701 59.89 0.546763 59.7747 0.329865 59.5601C0.0361483 59.2664 -0.0723009 58.8348 0.047445 58.4372C0.41798 57.2013 3.73698 46.2796 6.15449 43.8621C8.87701 41.1396 13.3076 41.1373 16.0301 43.8621C18.7527 46.5846 18.7527 51.0152 16.0301 53.7377C13.6126 56.1552 2.69089 59.4742 1.45502 59.8448C1.34658 59.8741 1.23813 59.89 1.12968 59.89ZM11.0934 44.0767C9.88243 44.0767 8.67367 44.5376 7.75185 45.4572C6.4482 46.7631 4.27922 52.5945 2.84679 57.0432C7.2932 55.6107 13.1269 53.4418 14.4305 52.1381C16.2719 50.2967 16.2719 47.2986 14.4305 45.4572C13.511 44.5376 12.3022 44.0767 11.0934 44.0767Z" fill="#F4522F"/>
</g>
<defs>
<clipPath id="clip0">
<rect width="54.2246" height="54.2246" fill="white" transform="translate(0 5.66528)"/>
</clipPath>
</defs>
</svg>
