<svg width="220" height="60" viewBox="0 0 220 60" fill="none" xmlns="http://www.w3.org/2000/svg">
<path d="M61.625 36.83C61.5783 35.99 61.5433 35.115 61.52 34.205C61.52 33.295 61.5083 32.315 61.485 31.265C61.4617 30.215 61.45 29.0833 61.45 27.87C61.45 26.6333 61.45 25.2567 61.45 23.74C61.45 22.0833 61.4617 20.6717 61.485 19.505C61.5083 18.315 61.5783 17.3467 61.695 16.6C61.8117 15.8533 61.9867 15.305 62.22 14.955C62.4767 14.605 62.815 14.43 63.235 14.43C63.445 14.43 63.6433 14.4533 63.83 14.5C64.0167 14.5467 64.18 14.6517 64.32 14.815C64.46 14.955 64.5767 15.1767 64.67 15.48C64.7867 15.76 64.8567 16.1333 64.88 16.6C64.9267 17.44 64.9617 18.1867 64.985 18.84C65.0083 19.4933 65.0317 20.1467 65.055 20.8C65.0783 21.43 65.09 22.095 65.09 22.795C65.09 23.4717 65.09 24.2417 65.09 25.105C65.09 26.155 65.09 27.1583 65.09 28.115C65.09 29.0717 65.0783 30.0167 65.055 30.95C65.0317 31.8833 65.0083 32.8283 64.985 33.785C64.9617 34.7417 64.9267 35.745 64.88 36.795C64.8567 37.355 64.7983 37.7867 64.705 38.09C64.6117 38.3933 64.495 38.6267 64.355 38.79C64.215 38.9533 64.0517 39.0467 63.865 39.07C63.6783 39.1167 63.4683 39.14 63.235 39.14C62.815 39.14 62.4533 39 62.15 38.72C61.8467 38.4167 61.6717 37.7867 61.625 36.83ZM82.6649 20.73C83.1549 20.73 83.7733 20.7767 84.5199 20.87C85.2666 20.94 85.9783 21.0917 86.6549 21.325C87.3316 21.535 87.9149 21.8383 88.4049 22.235C88.8949 22.6317 89.1399 23.1333 89.1399 23.74C89.1399 24.09 89.0349 24.3933 88.8249 24.65C88.6383 24.9067 88.3349 25.035 87.9149 25.035C87.6116 25.035 87.2616 24.9883 86.8649 24.895C86.4916 24.8017 86.0716 24.6967 85.6049 24.58C85.1616 24.44 84.6716 24.3233 84.1349 24.23C83.6216 24.1367 83.0733 24.09 82.4899 24.09C81.5099 24.09 80.7049 24.2417 80.0749 24.545C79.4683 24.8483 79.1649 25.3267 79.1649 25.98C79.1649 26.3533 79.2699 26.6683 79.4799 26.925C79.7133 27.1817 80.0166 27.415 80.3899 27.625C80.7866 27.8117 81.2416 27.975 81.7549 28.115C82.2916 28.255 82.8516 28.395 83.4349 28.535C84.1583 28.7217 84.8699 28.9317 85.5699 29.165C86.2933 29.3983 86.9349 29.725 87.4949 30.145C88.0549 30.5417 88.5099 31.055 88.8599 31.685C89.2099 32.2917 89.3849 33.05 89.3849 33.96C89.3849 35.6867 88.7316 37.0633 87.4249 38.09C86.1183 39.0933 84.1933 39.595 81.6499 39.595C81.0899 39.595 80.4249 39.5483 79.6549 39.455C78.8849 39.385 78.1616 39.2333 77.4849 39C76.8083 38.79 76.2249 38.4867 75.7349 38.09C75.2683 37.67 75.0349 37.1217 75.0349 36.445C75.0349 35.9783 75.1399 35.6283 75.3499 35.395C75.5833 35.1383 75.8633 35.01 76.1899 35.01C76.4466 35.01 76.7149 35.0917 76.9949 35.255C77.2749 35.4183 77.6133 35.5933 78.0099 35.78C78.4066 35.9667 78.8849 36.1417 79.4449 36.305C80.0049 36.4683 80.6933 36.55 81.5099 36.55C81.8133 36.55 82.2099 36.5383 82.6999 36.515C83.1899 36.4683 83.6683 36.3633 84.1349 36.2C84.6249 36.0367 85.0333 35.815 85.3599 35.535C85.7099 35.2317 85.8849 34.8117 85.8849 34.275C85.8849 33.855 85.7683 33.505 85.5349 33.225C85.3016 32.9217 84.9866 32.665 84.5899 32.455C84.1933 32.245 83.7266 32.07 83.1899 31.93C82.6766 31.7667 82.1283 31.6033 81.5449 31.44C80.8683 31.2533 80.1799 31.0433 79.4799 30.81C78.8033 30.5767 78.1849 30.2733 77.6249 29.9C77.0649 29.5267 76.6099 29.06 76.2599 28.5C75.9099 27.9167 75.7349 27.205 75.7349 26.365C75.7349 25.5717 75.8983 24.8367 76.2249 24.16C76.5516 23.46 77.0183 22.8533 77.6249 22.34C78.2316 21.8267 78.9549 21.43 79.7949 21.15C80.6583 20.87 81.6149 20.73 82.6649 20.73ZM103.244 44.04C103.244 44.4833 103.232 44.9033 103.209 45.3C103.185 45.72 103.104 46.0933 102.964 46.42C102.847 46.7467 102.66 47.0033 102.404 47.19C102.17 47.4 101.832 47.505 101.389 47.505C100.875 47.505 100.444 47.3183 100.094 46.945C99.7669 46.595 99.5802 45.965 99.5336 45.055C99.5102 44.4717 99.4752 43.76 99.4286 42.92C99.3819 42.08 99.3352 41.1933 99.2886 40.26C99.2652 39.3267 99.2302 38.3933 99.1836 37.46C99.1602 36.5267 99.1486 35.6633 99.1486 34.87C99.1486 32.14 99.3352 29.8883 99.7086 28.115C100.105 26.3417 100.689 24.93 101.459 23.88C102.229 22.83 103.174 22.095 104.294 21.675C105.437 21.255 106.755 21.045 108.249 21.045C109.439 21.045 110.559 21.2317 111.609 21.605C112.659 21.955 113.569 22.515 114.339 23.285C115.132 24.0317 115.762 25.0117 116.229 26.225C116.695 27.415 116.929 28.85 116.929 30.53C116.929 31.93 116.684 33.1667 116.194 34.24C115.727 35.3133 115.074 36.2233 114.234 36.97C113.394 37.6933 112.402 38.2533 111.259 38.65C110.139 39.0233 108.937 39.21 107.654 39.21C106.557 39.21 105.565 38.9883 104.679 38.545C103.815 38.0783 103.197 37.5767 102.824 37.04C102.94 38.3467 103.034 39.56 103.104 40.68C103.197 41.8 103.244 42.92 103.244 44.04ZM108.074 24.545C107.257 24.545 106.545 24.685 105.939 24.965C105.355 25.245 104.877 25.63 104.504 26.12C104.13 26.61 103.85 27.1933 103.664 27.87C103.5 28.5467 103.419 29.2817 103.419 30.075C103.419 30.845 103.489 31.58 103.629 32.28C103.792 32.9567 104.049 33.5517 104.399 34.065C104.749 34.5783 105.215 34.9867 105.799 35.29C106.382 35.5933 107.094 35.745 107.934 35.745C108.587 35.745 109.217 35.6633 109.824 35.5C110.43 35.3133 110.967 35.01 111.434 34.59C111.924 34.17 112.309 33.61 112.589 32.91C112.892 32.21 113.044 31.335 113.044 30.285C113.044 29.2117 112.892 28.3133 112.589 27.59C112.309 26.8433 111.924 26.2483 111.434 25.805C110.967 25.3383 110.43 25.0117 109.824 24.825C109.24 24.6383 108.657 24.545 108.074 24.545ZM141.214 39.14C140.841 39.14 140.537 39.0817 140.304 38.965C140.094 38.825 139.931 38.65 139.814 38.44C139.697 38.23 139.616 37.985 139.569 37.705C139.522 37.4017 139.487 37.0867 139.464 36.76C138.881 37.4833 138.122 38.09 137.189 38.58C136.279 39.07 135.112 39.315 133.689 39.315C132.779 39.315 131.846 39.1867 130.889 38.93C129.956 38.65 129.104 38.1833 128.334 37.53C127.564 36.8533 126.934 35.955 126.444 34.835C125.954 33.715 125.709 32.3033 125.709 30.6C125.709 29.27 125.872 28.0217 126.199 26.855C126.526 25.6883 127.016 24.6733 127.669 23.81C128.346 22.9233 129.186 22.2233 130.189 21.71C131.192 21.1967 132.371 20.94 133.724 20.94C134.914 20.94 135.976 21.1617 136.909 21.605C137.842 22.025 138.682 22.725 139.429 23.705C139.429 23.425 139.441 23.145 139.464 22.865C139.487 22.5617 139.546 22.2933 139.639 22.06C139.756 21.8033 139.931 21.605 140.164 21.465C140.397 21.3017 140.712 21.22 141.109 21.22C141.459 21.22 141.786 21.36 142.089 21.64C142.392 21.92 142.567 22.5267 142.614 23.46C142.684 24.6967 142.731 25.805 142.754 26.785C142.801 27.765 142.824 28.78 142.824 29.83C142.824 31.1133 142.812 32.2917 142.789 33.365C142.766 34.4383 142.707 35.5817 142.614 36.795C142.567 37.3317 142.497 37.7633 142.404 38.09C142.334 38.3933 142.241 38.6267 142.124 38.79C142.007 38.93 141.867 39.0233 141.704 39.07C141.541 39.1167 141.377 39.14 141.214 39.14ZM139.324 30.25C139.324 29.0367 139.137 28.045 138.764 27.275C138.414 26.505 137.959 25.91 137.399 25.49C136.862 25.0467 136.279 24.7433 135.649 24.58C135.019 24.4167 134.436 24.335 133.899 24.335C133.059 24.335 132.336 24.4867 131.729 24.79C131.146 25.0933 130.667 25.5133 130.294 26.05C129.921 26.5633 129.641 27.1817 129.454 27.905C129.291 28.605 129.209 29.375 129.209 30.215C129.209 32.2683 129.652 33.785 130.539 34.765C131.449 35.745 132.674 36.235 134.214 36.235C135.124 36.235 135.894 36.0833 136.524 35.78C137.177 35.4533 137.702 35.0217 138.099 34.485C138.519 33.9483 138.822 33.3183 139.009 32.595C139.219 31.8483 139.324 31.0667 139.324 30.25ZM161.732 21.15C162.409 21.15 163.086 21.2083 163.762 21.325C164.462 21.4417 165.092 21.605 165.652 21.815C166.212 22.025 166.667 22.2817 167.017 22.585C167.367 22.8883 167.542 23.2383 167.542 23.635C167.542 24.6617 166.959 25.175 165.792 25.175C165.512 25.175 165.244 25.14 164.987 25.07C164.754 24.9767 164.474 24.895 164.147 24.825C163.821 24.7317 163.412 24.65 162.922 24.58C162.432 24.4867 161.826 24.44 161.102 24.44C159.562 24.44 158.372 24.965 157.532 26.015C156.692 27.065 156.272 28.43 156.272 30.11C156.272 31.9533 156.692 33.435 157.532 34.555C158.396 35.675 159.609 36.235 161.172 36.235C162.152 36.235 162.946 36.1533 163.552 35.99C164.159 35.8267 164.649 35.64 165.022 35.43C165.419 35.22 165.734 35.0333 165.967 34.87C166.224 34.7067 166.504 34.625 166.807 34.625C167.227 34.625 167.554 34.7183 167.787 34.905C168.044 35.0683 168.172 35.4183 168.172 35.955C168.172 36.515 167.951 37.005 167.507 37.425C167.087 37.845 166.551 38.195 165.897 38.475C165.244 38.755 164.532 38.965 163.762 39.105C163.016 39.245 162.327 39.315 161.697 39.315C158.874 39.315 156.657 38.5333 155.047 36.97C153.437 35.4067 152.632 33.19 152.632 30.32C152.632 29.0833 152.819 27.9167 153.192 26.82C153.589 25.7 154.172 24.72 154.942 23.88C155.712 23.04 156.657 22.375 157.777 21.885C158.921 21.395 160.239 21.15 161.732 21.15ZM186.06 32.56C185.243 32.56 184.38 32.5017 183.47 32.385C182.583 32.245 181.615 31.965 180.565 31.545C180.775 32.9683 181.358 34.0417 182.315 34.765C183.295 35.4883 184.695 35.85 186.515 35.85C187.168 35.85 187.752 35.815 188.265 35.745C188.802 35.6517 189.268 35.5583 189.665 35.465C190.062 35.3483 190.412 35.255 190.715 35.185C191.018 35.0917 191.298 35.045 191.555 35.045C191.882 35.045 192.197 35.15 192.5 35.36C192.803 35.5467 192.955 35.8733 192.955 36.34C192.955 36.9233 192.71 37.4017 192.22 37.775C191.753 38.1483 191.17 38.4517 190.47 38.685C189.793 38.895 189.07 39.035 188.3 39.105C187.53 39.1983 186.853 39.245 186.27 39.245C184.893 39.245 183.622 39.0583 182.455 38.685C181.312 38.3117 180.32 37.7517 179.48 37.005C178.64 36.235 177.987 35.29 177.52 34.17C177.053 33.05 176.82 31.7433 176.82 30.25C176.82 28.8033 177.042 27.52 177.485 26.4C177.952 25.28 178.582 24.335 179.375 23.565C180.168 22.795 181.102 22.2117 182.175 21.815C183.272 21.4183 184.45 21.22 185.71 21.22C186.69 21.22 187.635 21.3483 188.545 21.605C189.478 21.8617 190.295 22.2467 190.995 22.76C191.718 23.2733 192.29 23.9267 192.71 24.72C193.153 25.49 193.375 26.4 193.375 27.45C193.375 28.3833 193.2 29.1767 192.85 29.83C192.5 30.4833 191.998 31.0083 191.345 31.405C190.715 31.8017 189.945 32.0933 189.035 32.28C188.148 32.4667 187.157 32.56 186.06 32.56ZM185.815 24.44C185.185 24.44 184.578 24.5217 183.995 24.685C183.412 24.825 182.875 25.07 182.385 25.42C181.918 25.7467 181.522 26.19 181.195 26.75C180.868 27.2867 180.647 27.9633 180.53 28.78C181.417 29.1767 182.28 29.4567 183.12 29.62C183.96 29.76 184.847 29.83 185.78 29.83C187.157 29.83 188.172 29.6667 188.825 29.34C189.502 28.99 189.84 28.3717 189.84 27.485C189.84 26.6683 189.525 25.9567 188.895 25.35C188.288 24.7433 187.262 24.44 185.815 24.44Z" fill="#F4522F"/>
<path d="M59.975 53.194C59.9577 52.882 59.9447 52.557 59.936 52.219C59.936 51.881 59.9317 51.517 59.923 51.127C59.9143 50.737 59.91 50.3167 59.91 49.866C59.91 49.4067 59.91 48.8953 59.91 48.332C59.91 47.7167 59.9143 47.1923 59.923 46.759C59.9317 46.317 59.9577 45.9573 60.001 45.68C60.0443 45.4027 60.1093 45.199 60.196 45.069C60.2913 44.939 60.417 44.874 60.573 44.874C60.651 44.874 60.7247 44.8827 60.794 44.9C60.8633 44.9173 60.924 44.9563 60.976 45.017C61.028 45.069 61.0713 45.1513 61.106 45.264C61.1493 45.368 61.1753 45.5067 61.184 45.68C61.2013 45.992 61.2143 46.2693 61.223 46.512C61.2317 46.7547 61.2403 46.9973 61.249 47.24C61.2577 47.474 61.262 47.721 61.262 47.981C61.262 48.2323 61.262 48.5183 61.262 48.839C61.262 49.229 61.262 49.6017 61.262 49.957C61.262 50.3123 61.2577 50.6633 61.249 51.01C61.2403 51.3567 61.2317 51.7077 61.223 52.063C61.2143 52.4183 61.2013 52.791 61.184 53.181C61.1753 53.389 61.1537 53.5493 61.119 53.662C61.0843 53.7747 61.041 53.8613 60.989 53.922C60.937 53.9827 60.8763 54.0173 60.807 54.026C60.7377 54.0433 60.6597 54.052 60.573 54.052C60.417 54.052 60.2827 54 60.17 53.896C60.0573 53.7833 59.9923 53.5493 59.975 53.194ZM66.9318 48.462C66.6112 48.462 66.3208 48.514 66.0608 48.618C65.8095 48.722 65.5235 48.878 65.2028 49.086C65.2028 49.268 65.2028 49.5367 65.2028 49.892C65.2028 50.2387 65.1985 50.62 65.1898 51.036C65.1812 51.4433 65.1725 51.8463 65.1638 52.245C65.1552 52.6437 65.1378 52.9773 65.1118 53.246C65.0945 53.4193 65.0728 53.558 65.0468 53.662C65.0295 53.7573 64.9992 53.831 64.9558 53.883C64.9212 53.935 64.8692 53.9697 64.7998 53.987C64.7392 53.9957 64.6568 54 64.5528 54C64.4488 54 64.3622 53.9957 64.2928 53.987C64.2322 53.9697 64.1802 53.9393 64.1368 53.896C64.0935 53.844 64.0588 53.7703 64.0328 53.675C64.0068 53.5797 63.9852 53.4497 63.9678 53.285C63.9505 53.129 63.9332 52.921 63.9158 52.661C63.9072 52.401 63.8985 52.1193 63.8898 51.816C63.8812 51.504 63.8725 51.192 63.8638 50.88C63.8638 50.5593 63.8638 50.2647 63.8638 49.996C63.8638 49.554 63.8682 49.1943 63.8768 48.917C63.8942 48.6397 63.9202 48.3927 63.9548 48.176C64.0068 47.812 64.0762 47.5823 64.1628 47.487C64.2495 47.3917 64.3665 47.344 64.5138 47.344C64.7305 47.344 64.8908 47.4047 64.9948 47.526C65.1075 47.6473 65.1768 47.8467 65.2028 48.124C65.5235 47.8467 65.8658 47.6257 66.2298 47.461C66.6025 47.2963 66.9838 47.214 67.3738 47.214C67.7465 47.214 68.0845 47.3007 68.3878 47.474C68.6998 47.6473 68.9555 47.929 69.1548 48.319C69.2762 48.553 69.3672 48.813 69.4278 49.099C69.4885 49.3763 69.5318 49.671 69.5578 49.983C69.5665 50.1217 69.5752 50.2603 69.5838 50.399C69.5925 50.529 69.5968 50.672 69.5968 50.828C69.6055 50.9753 69.6098 51.1443 69.6098 51.335C69.6098 51.5257 69.6098 51.751 69.6098 52.011C69.6098 52.2883 69.6055 52.5483 69.5968 52.791C69.5882 53.0337 69.5622 53.246 69.5188 53.428C69.4842 53.6013 69.4192 53.74 69.3238 53.844C69.2285 53.9393 69.0985 53.987 68.9338 53.987C68.5352 53.987 68.3272 53.7963 68.3098 53.415C68.3098 53.389 68.3098 53.2807 68.3098 53.09C68.3098 52.8907 68.3055 52.661 68.2968 52.401C68.2968 52.141 68.2925 51.8767 68.2838 51.608C68.2838 51.3393 68.2795 51.1183 68.2708 50.945C68.2622 50.8063 68.2492 50.659 68.2318 50.503C68.2232 50.3383 68.2058 50.1737 68.1798 50.009C68.1625 49.8443 68.1365 49.6883 68.1018 49.541C68.0672 49.385 68.0238 49.2463 67.9718 49.125C67.8505 48.839 67.6988 48.657 67.5168 48.579C67.3348 48.501 67.1398 48.462 66.9318 48.462ZM72.9507 53.155C72.9247 52.609 72.9074 51.9633 72.8987 51.218C72.8987 50.464 72.8987 49.6103 72.8987 48.657C72.8121 48.6657 72.7081 48.67 72.5867 48.67C72.4741 48.67 72.3831 48.67 72.3137 48.67C72.1577 48.67 72.0147 48.6657 71.8847 48.657C71.7634 48.6483 71.6551 48.6223 71.5597 48.579C71.4644 48.5357 71.3907 48.475 71.3387 48.397C71.2867 48.3103 71.2607 48.1933 71.2607 48.046C71.2607 47.63 71.5727 47.422 72.1967 47.422C72.2921 47.422 72.4091 47.422 72.5477 47.422C72.6864 47.422 72.8034 47.4307 72.8987 47.448C72.8987 46.9887 72.9074 46.6203 72.9247 46.343C72.9421 46.0657 72.9724 45.8533 73.0157 45.706C73.0677 45.55 73.1327 45.4503 73.2107 45.407C73.2974 45.355 73.4057 45.329 73.5357 45.329C73.6744 45.329 73.7871 45.3767 73.8737 45.472C73.9604 45.5673 74.0254 45.6887 74.0687 45.836C74.1207 45.9833 74.1511 46.148 74.1597 46.33C74.1771 46.512 74.1857 46.6897 74.1857 46.863C74.1857 46.9843 74.1814 47.097 74.1727 47.201C74.1727 47.2963 74.1727 47.383 74.1727 47.461C74.2941 47.4263 74.4197 47.409 74.5497 47.409C74.6797 47.4003 74.8054 47.396 74.9267 47.396C75.2474 47.396 75.4944 47.448 75.6677 47.552C75.8411 47.6473 75.9277 47.8077 75.9277 48.033C75.9277 48.1717 75.8974 48.2843 75.8367 48.371C75.7761 48.449 75.6937 48.5097 75.5897 48.553C75.4944 48.5963 75.3774 48.6267 75.2387 48.644C75.1087 48.6527 74.9657 48.657 74.8097 48.657C74.7231 48.657 74.6234 48.657 74.5107 48.657C74.3981 48.657 74.2941 48.6483 74.1987 48.631C74.1987 49.0903 74.1987 49.5107 74.1987 49.892C74.1987 50.2733 74.1944 50.6417 74.1857 50.997C74.1771 51.3437 74.1684 51.6903 74.1597 52.037C74.1511 52.3837 74.1381 52.752 74.1207 53.142C74.1121 53.35 74.0904 53.5103 74.0557 53.623C74.0297 53.7357 73.9907 53.8223 73.9387 53.883C73.8867 53.9437 73.8261 53.9827 73.7567 54C73.6961 54.0087 73.6224 54.013 73.5357 54.013C73.3797 54.013 73.2454 53.961 73.1327 53.857C73.0287 53.7443 72.9681 53.5103 72.9507 53.155ZM80.7858 51.608C80.4824 51.608 80.1618 51.5863 79.8238 51.543C79.4944 51.491 79.1348 51.387 78.7448 51.231C78.8228 51.7597 79.0394 52.1583 79.3948 52.427C79.7588 52.6957 80.2788 52.83 80.9548 52.83C81.1974 52.83 81.4141 52.817 81.6048 52.791C81.8041 52.7563 81.9774 52.7217 82.1248 52.687C82.2721 52.6437 82.4021 52.609 82.5148 52.583C82.6274 52.5483 82.7314 52.531 82.8268 52.531C82.9481 52.531 83.0651 52.57 83.1778 52.648C83.2904 52.7173 83.3468 52.8387 83.3468 53.012C83.3468 53.2287 83.2558 53.4063 83.0738 53.545C82.9004 53.6837 82.6838 53.7963 82.4238 53.883C82.1724 53.961 81.9038 54.013 81.6178 54.039C81.3318 54.0737 81.0804 54.091 80.8638 54.091C80.3524 54.091 79.8801 54.0217 79.4468 53.883C79.0221 53.7443 78.6538 53.5363 78.3418 53.259C78.0298 52.973 77.7871 52.622 77.6138 52.206C77.4404 51.79 77.3538 51.3047 77.3538 50.75C77.3538 50.2127 77.4361 49.736 77.6008 49.32C77.7741 48.904 78.0081 48.553 78.3028 48.267C78.5974 47.981 78.9441 47.7643 79.3428 47.617C79.7501 47.4697 80.1878 47.396 80.6558 47.396C81.0198 47.396 81.3708 47.4437 81.7088 47.539C82.0554 47.6343 82.3588 47.7773 82.6188 47.968C82.8874 48.1587 83.0998 48.4013 83.2558 48.696C83.4204 48.982 83.5028 49.32 83.5028 49.71C83.5028 50.0567 83.4378 50.3513 83.3078 50.594C83.1778 50.8367 82.9914 51.0317 82.7488 51.179C82.5148 51.3263 82.2288 51.4347 81.8908 51.504C81.5614 51.5733 81.1931 51.608 80.7858 51.608ZM80.6948 48.592C80.4608 48.592 80.2354 48.6223 80.0188 48.683C79.8021 48.735 79.6028 48.826 79.4208 48.956C79.2474 49.0773 79.1001 49.242 78.9788 49.45C78.8574 49.6493 78.7751 49.9007 78.7318 50.204C79.0611 50.3513 79.3818 50.4553 79.6938 50.516C80.0058 50.568 80.3351 50.594 80.6818 50.594C81.1931 50.594 81.5701 50.5333 81.8128 50.412C82.0641 50.282 82.1898 50.0523 82.1898 49.723C82.1898 49.4197 82.0728 49.1553 81.8388 48.93C81.6134 48.7047 81.2321 48.592 80.6948 48.592ZM85.7148 53.207C85.6801 52.9037 85.6585 52.5353 85.6498 52.102C85.6411 51.6687 85.6368 51.1443 85.6368 50.529C85.6368 49.9223 85.6368 49.4327 85.6368 49.06C85.6455 48.6873 85.6715 48.358 85.7148 48.072C85.7581 47.7167 85.8231 47.487 85.9098 47.383C86.0051 47.279 86.1265 47.227 86.2738 47.227C86.3778 47.227 86.4688 47.2357 86.5468 47.253C86.6335 47.2703 86.7071 47.3093 86.7678 47.37C86.8371 47.422 86.8891 47.5 86.9238 47.604C86.9585 47.708 86.9758 47.851 86.9758 48.033C86.9758 48.0677 86.9801 48.1023 86.9888 48.137C86.9888 48.1717 86.9888 48.2107 86.9888 48.254C86.9975 48.2887 87.0018 48.332 87.0018 48.384C87.2358 48.0893 87.5001 47.838 87.7948 47.63C88.0981 47.422 88.4405 47.318 88.8218 47.318C89.3331 47.318 89.5888 47.5303 89.5888 47.955C89.5888 48.111 89.5541 48.241 89.4848 48.345C89.4241 48.449 89.3331 48.5357 89.2118 48.605C89.0991 48.6657 88.9648 48.7133 88.8088 48.748C88.6615 48.7827 88.4968 48.8173 88.3148 48.852C88.0375 48.904 87.7775 49.0037 87.5348 49.151C87.2921 49.2897 87.1275 49.4673 87.0408 49.684C87.0408 49.8487 87.0408 49.97 87.0408 50.048C87.0495 50.126 87.0538 50.191 87.0538 50.243C87.0625 50.295 87.0668 50.3513 87.0668 50.412C87.0668 50.4727 87.0668 50.568 87.0668 50.698C87.0668 51.14 87.0581 51.556 87.0408 51.946C87.0235 52.3273 87.0061 52.7433 86.9888 53.194C86.9801 53.402 86.9541 53.5623 86.9108 53.675C86.8761 53.7877 86.8285 53.8743 86.7678 53.935C86.7158 53.9957 86.6551 54.0303 86.5858 54.039C86.5165 54.0563 86.4471 54.065 86.3778 54.065C86.1351 54.065 85.9705 54.013 85.8838 53.909C85.8058 53.7963 85.7495 53.5623 85.7148 53.207ZM94.5152 48.462C94.1945 48.462 93.9042 48.514 93.6442 48.618C93.3929 48.722 93.1069 48.878 92.7862 49.086C92.7862 49.268 92.7862 49.5367 92.7862 49.892C92.7862 50.2387 92.7819 50.62 92.7732 51.036C92.7645 51.4433 92.7559 51.8463 92.7472 52.245C92.7385 52.6437 92.7212 52.9773 92.6952 53.246C92.6779 53.4193 92.6562 53.558 92.6302 53.662C92.6129 53.7573 92.5825 53.831 92.5392 53.883C92.5045 53.935 92.4525 53.9697 92.3832 53.987C92.3225 53.9957 92.2402 54 92.1362 54C92.0322 54 91.9455 53.9957 91.8762 53.987C91.8155 53.9697 91.7635 53.9393 91.7202 53.896C91.6769 53.844 91.6422 53.7703 91.6162 53.675C91.5902 53.5797 91.5685 53.4497 91.5512 53.285C91.5339 53.129 91.5165 52.921 91.4992 52.661C91.4905 52.401 91.4819 52.1193 91.4732 51.816C91.4645 51.504 91.4559 51.192 91.4472 50.88C91.4472 50.5593 91.4472 50.2647 91.4472 49.996C91.4472 49.554 91.4515 49.1943 91.4602 48.917C91.4775 48.6397 91.5035 48.3927 91.5382 48.176C91.5902 47.812 91.6595 47.5823 91.7462 47.487C91.8329 47.3917 91.9499 47.344 92.0972 47.344C92.3139 47.344 92.4742 47.4047 92.5782 47.526C92.6909 47.6473 92.7602 47.8467 92.7862 48.124C93.1069 47.8467 93.4492 47.6257 93.8132 47.461C94.1859 47.2963 94.5672 47.214 94.9572 47.214C95.3299 47.214 95.6679 47.3007 95.9712 47.474C96.2832 47.6473 96.5389 47.929 96.7382 48.319C96.8595 48.553 96.9505 48.813 97.0112 49.099C97.0719 49.3763 97.1152 49.671 97.1412 49.983C97.1499 50.1217 97.1585 50.2603 97.1672 50.399C97.1759 50.529 97.1802 50.672 97.1802 50.828C97.1889 50.9753 97.1932 51.1443 97.1932 51.335C97.1932 51.5257 97.1932 51.751 97.1932 52.011C97.1932 52.2883 97.1889 52.5483 97.1802 52.791C97.1715 53.0337 97.1455 53.246 97.1022 53.428C97.0675 53.6013 97.0025 53.74 96.9072 53.844C96.8119 53.9393 96.6819 53.987 96.5172 53.987C96.1185 53.987 95.9105 53.7963 95.8932 53.415C95.8932 53.389 95.8932 53.2807 95.8932 53.09C95.8932 52.8907 95.8889 52.661 95.8802 52.401C95.8802 52.141 95.8759 51.8767 95.8672 51.608C95.8672 51.3393 95.8629 51.1183 95.8542 50.945C95.8455 50.8063 95.8325 50.659 95.8152 50.503C95.8065 50.3383 95.7892 50.1737 95.7632 50.009C95.7459 49.8443 95.7199 49.6883 95.6852 49.541C95.6505 49.385 95.6072 49.2463 95.5552 49.125C95.4339 48.839 95.2822 48.657 95.1002 48.579C94.9182 48.501 94.7232 48.462 94.5152 48.462ZM102.61 51.608C102.306 51.608 101.986 51.5863 101.648 51.543C101.318 51.491 100.959 51.387 100.569 51.231C100.647 51.7597 100.863 52.1583 101.219 52.427C101.583 52.6957 102.103 52.83 102.779 52.83C103.021 52.83 103.238 52.817 103.429 52.791C103.628 52.7563 103.801 52.7217 103.949 52.687C104.096 52.6437 104.226 52.609 104.339 52.583C104.451 52.5483 104.555 52.531 104.651 52.531C104.772 52.531 104.889 52.57 105.002 52.648C105.114 52.7173 105.171 52.8387 105.171 53.012C105.171 53.2287 105.08 53.4063 104.898 53.545C104.724 53.6837 104.508 53.7963 104.248 53.883C103.996 53.961 103.728 54.013 103.442 54.039C103.156 54.0737 102.904 54.091 102.688 54.091C102.176 54.091 101.704 54.0217 101.271 53.883C100.846 53.7443 100.478 53.5363 100.166 53.259C99.8535 52.973 99.6108 52.622 99.4375 52.206C99.2642 51.79 99.1775 51.3047 99.1775 50.75C99.1775 50.2127 99.2598 49.736 99.4245 49.32C99.5978 48.904 99.8318 48.553 100.127 48.267C100.421 47.981 100.768 47.7643 101.167 47.617C101.574 47.4697 102.012 47.396 102.48 47.396C102.844 47.396 103.195 47.4437 103.533 47.539C103.879 47.6343 104.183 47.7773 104.443 47.968C104.711 48.1587 104.924 48.4013 105.08 48.696C105.244 48.982 105.327 49.32 105.327 49.71C105.327 50.0567 105.262 50.3513 105.132 50.594C105.002 50.8367 104.815 51.0317 104.573 51.179C104.339 51.3263 104.053 51.4347 103.715 51.504C103.385 51.5733 103.017 51.608 102.61 51.608ZM102.519 48.592C102.285 48.592 102.059 48.6223 101.843 48.683C101.626 48.735 101.427 48.826 101.245 48.956C101.071 49.0773 100.924 49.242 100.803 49.45C100.681 49.6493 100.599 49.9007 100.556 50.204C100.885 50.3513 101.206 50.4553 101.518 50.516C101.83 50.568 102.159 50.594 102.506 50.594C103.017 50.594 103.394 50.5333 103.637 50.412C103.888 50.282 104.014 50.0523 104.014 49.723C104.014 49.4197 103.897 49.1553 103.663 48.93C103.437 48.7047 103.056 48.592 102.519 48.592ZM108.592 53.155C108.566 52.609 108.548 51.9633 108.54 51.218C108.54 50.464 108.54 49.6103 108.54 48.657C108.453 48.6657 108.349 48.67 108.228 48.67C108.115 48.67 108.024 48.67 107.955 48.67C107.799 48.67 107.656 48.6657 107.526 48.657C107.404 48.6483 107.296 48.6223 107.201 48.579C107.105 48.5357 107.032 48.475 106.98 48.397C106.928 48.3103 106.902 48.1933 106.902 48.046C106.902 47.63 107.214 47.422 107.838 47.422C107.933 47.422 108.05 47.422 108.189 47.422C108.327 47.422 108.444 47.4307 108.54 47.448C108.54 46.9887 108.548 46.6203 108.566 46.343C108.583 46.0657 108.613 45.8533 108.657 45.706C108.709 45.55 108.774 45.4503 108.852 45.407C108.938 45.355 109.047 45.329 109.177 45.329C109.315 45.329 109.428 45.3767 109.515 45.472C109.601 45.5673 109.666 45.6887 109.71 45.836C109.762 45.9833 109.792 46.148 109.801 46.33C109.818 46.512 109.827 46.6897 109.827 46.863C109.827 46.9843 109.822 47.097 109.814 47.201C109.814 47.2963 109.814 47.383 109.814 47.461C109.935 47.4263 110.061 47.409 110.191 47.409C110.321 47.4003 110.446 47.396 110.568 47.396C110.888 47.396 111.135 47.448 111.309 47.552C111.482 47.6473 111.569 47.8077 111.569 48.033C111.569 48.1717 111.538 48.2843 111.478 48.371C111.417 48.449 111.335 48.5097 111.231 48.553C111.135 48.5963 111.018 48.6267 110.88 48.644C110.75 48.6527 110.607 48.657 110.451 48.657C110.364 48.657 110.264 48.657 110.152 48.657C110.039 48.657 109.935 48.6483 109.84 48.631C109.84 49.0903 109.84 49.5107 109.84 49.892C109.84 50.2733 109.835 50.6417 109.827 50.997C109.818 51.3437 109.809 51.6903 109.801 52.037C109.792 52.3837 109.779 52.752 109.762 53.142C109.753 53.35 109.731 53.5103 109.697 53.623C109.671 53.7357 109.632 53.8223 109.58 53.883C109.528 53.9437 109.467 53.9827 109.398 54C109.337 54.0087 109.263 54.013 109.177 54.013C109.021 54.013 108.886 53.961 108.774 53.857C108.67 53.7443 108.609 53.5103 108.592 53.155ZM122.611 53.337C122.525 53.129 122.429 52.8907 122.325 52.622C122.23 52.3447 122.126 52.0543 122.013 51.751C121.753 51.7597 121.48 51.7683 121.194 51.777C120.908 51.777 120.618 51.777 120.323 51.777C119.951 51.777 119.613 51.777 119.309 51.777C119.006 51.777 118.729 51.7727 118.477 51.764C118.373 52.0673 118.274 52.3533 118.178 52.622C118.083 52.8907 117.992 53.129 117.905 53.337C117.732 53.779 117.481 54 117.151 54C117.03 54 116.913 53.961 116.8 53.883C116.696 53.805 116.644 53.6923 116.644 53.545C116.644 53.3977 116.67 53.207 116.722 52.973C116.774 52.7303 116.839 52.4747 116.917 52.206C117.004 51.9287 117.095 51.647 117.19 51.361C117.286 51.0663 117.377 50.7933 117.463 50.542C117.55 50.2647 117.671 49.9137 117.827 49.489C117.992 49.0557 118.165 48.605 118.347 48.137C118.529 47.669 118.711 47.2097 118.893 46.759C119.075 46.2997 119.24 45.901 119.387 45.563C119.422 45.4763 119.465 45.381 119.517 45.277C119.569 45.1643 119.63 45.0603 119.699 44.965C119.777 44.8697 119.86 44.7873 119.946 44.718C120.042 44.6487 120.146 44.614 120.258 44.614C120.371 44.614 120.475 44.653 120.57 44.731C120.666 44.8003 120.748 44.887 120.817 44.991C120.895 45.095 120.96 45.2033 121.012 45.316C121.073 45.4287 121.121 45.5283 121.155 45.615C121.294 45.9617 121.45 46.3603 121.623 46.811C121.805 47.2617 121.983 47.7167 122.156 48.176C122.338 48.6353 122.507 49.073 122.663 49.489C122.819 49.905 122.945 50.256 123.04 50.542C123.118 50.7933 123.205 51.062 123.3 51.348C123.404 51.634 123.5 51.9157 123.586 52.193C123.673 52.4703 123.742 52.7303 123.794 52.973C123.855 53.207 123.885 53.3977 123.885 53.545C123.885 53.6923 123.829 53.805 123.716 53.883C123.612 53.961 123.5 54 123.378 54C123.222 54 123.079 53.948 122.949 53.844C122.819 53.7313 122.707 53.5623 122.611 53.337ZM120.31 50.477C120.518 50.477 120.726 50.4813 120.934 50.49C121.142 50.49 121.35 50.4943 121.558 50.503C121.454 50.1997 121.35 49.8963 121.246 49.593C121.142 49.2897 121.043 48.9993 120.947 48.722C120.861 48.4447 120.778 48.189 120.7 47.955C120.631 47.7123 120.57 47.5 120.518 47.318C120.484 47.2053 120.445 47.1143 120.401 47.045C120.358 46.9757 120.302 46.941 120.232 46.941C120.163 46.941 120.107 46.98 120.063 47.058C120.02 47.1273 119.981 47.2183 119.946 47.331C119.842 47.6863 119.695 48.15 119.504 48.722C119.322 49.2853 119.127 49.879 118.919 50.503C119.153 50.4943 119.387 50.49 119.621 50.49C119.855 50.4813 120.085 50.477 120.31 50.477ZM128.469 55.781C128.876 55.781 129.218 55.6987 129.496 55.534C129.782 55.378 130.011 55.1483 130.185 54.845C130.358 54.5503 130.479 54.195 130.549 53.779C130.627 53.3543 130.666 52.8777 130.666 52.349C130.588 52.6263 130.475 52.8603 130.328 53.051C130.18 53.2417 130.007 53.3977 129.808 53.519C129.617 53.6317 129.4 53.714 129.158 53.766C128.915 53.818 128.664 53.844 128.404 53.844C128.005 53.844 127.628 53.7877 127.273 53.675C126.917 53.5623 126.605 53.3847 126.337 53.142C126.077 52.8993 125.869 52.5917 125.713 52.219C125.557 51.8377 125.479 51.3827 125.479 50.854C125.479 50.3427 125.552 49.8747 125.7 49.45C125.856 49.0167 126.077 48.644 126.363 48.332C126.657 48.02 127.013 47.7773 127.429 47.604C127.845 47.4307 128.321 47.344 128.859 47.344C129.145 47.344 129.396 47.37 129.613 47.422C129.838 47.474 130.037 47.5433 130.211 47.63C130.384 47.7167 130.536 47.8207 130.666 47.942C130.804 48.0633 130.93 48.1933 131.043 48.332C131.372 48.748 131.61 49.242 131.758 49.814C131.905 50.3773 131.979 51.0577 131.979 51.855C131.979 52.4443 131.927 53.0467 131.823 53.662C131.727 54.2773 131.55 54.832 131.29 55.326C131.03 55.8287 130.67 56.236 130.211 56.548C129.751 56.8687 129.162 57.029 128.443 57.029C128.313 57.029 128.165 57.0203 128.001 57.003C127.845 56.9943 127.68 56.977 127.507 56.951C127.342 56.925 127.177 56.886 127.013 56.834C126.848 56.7907 126.696 56.73 126.558 56.652C126.384 56.5567 126.246 56.4657 126.142 56.379C126.038 56.2923 125.986 56.1493 125.986 55.95C125.986 55.7853 126.02 55.6337 126.09 55.495C126.168 55.365 126.298 55.3 126.48 55.3C126.566 55.3 126.662 55.326 126.766 55.378C126.87 55.43 126.995 55.482 127.143 55.534C127.299 55.5947 127.481 55.651 127.689 55.703C127.905 55.755 128.165 55.781 128.469 55.781ZM128.534 52.661C128.872 52.661 129.158 52.6003 129.392 52.479C129.634 52.349 129.829 52.18 129.977 51.972C130.133 51.764 130.245 51.53 130.315 51.27C130.393 51.01 130.432 50.75 130.432 50.49C130.432 50.2733 130.401 50.0567 130.341 49.84C130.289 49.6147 130.198 49.411 130.068 49.229C129.938 49.047 129.76 48.8997 129.535 48.787C129.309 48.6743 129.028 48.618 128.69 48.618C128.118 48.618 127.654 48.7913 127.299 49.138C126.952 49.4847 126.779 49.996 126.779 50.672C126.779 51.3047 126.935 51.7943 127.247 52.141C127.559 52.4877 127.988 52.661 128.534 52.661ZM137.07 51.608C136.766 51.608 136.446 51.5863 136.108 51.543C135.778 51.491 135.419 51.387 135.029 51.231C135.107 51.7597 135.323 52.1583 135.679 52.427C136.043 52.6957 136.563 52.83 137.239 52.83C137.481 52.83 137.698 52.817 137.889 52.791C138.088 52.7563 138.261 52.7217 138.409 52.687C138.556 52.6437 138.686 52.609 138.799 52.583C138.911 52.5483 139.015 52.531 139.111 52.531C139.232 52.531 139.349 52.57 139.462 52.648C139.574 52.7173 139.631 52.8387 139.631 53.012C139.631 53.2287 139.54 53.4063 139.358 53.545C139.184 53.6837 138.968 53.7963 138.708 53.883C138.456 53.961 138.188 54.013 137.902 54.039C137.616 54.0737 137.364 54.091 137.148 54.091C136.636 54.091 136.164 54.0217 135.731 53.883C135.306 53.7443 134.938 53.5363 134.626 53.259C134.314 52.973 134.071 52.622 133.898 52.206C133.724 51.79 133.638 51.3047 133.638 50.75C133.638 50.2127 133.72 49.736 133.885 49.32C134.058 48.904 134.292 48.553 134.587 48.267C134.881 47.981 135.228 47.7643 135.627 47.617C136.034 47.4697 136.472 47.396 136.94 47.396C137.304 47.396 137.655 47.4437 137.993 47.539C138.339 47.6343 138.643 47.7773 138.903 47.968C139.171 48.1587 139.384 48.4013 139.54 48.696C139.704 48.982 139.787 49.32 139.787 49.71C139.787 50.0567 139.722 50.3513 139.592 50.594C139.462 50.8367 139.275 51.0317 139.033 51.179C138.799 51.3263 138.513 51.4347 138.175 51.504C137.845 51.5733 137.477 51.608 137.07 51.608ZM136.979 48.592C136.745 48.592 136.519 48.6223 136.303 48.683C136.086 48.735 135.887 48.826 135.705 48.956C135.531 49.0773 135.384 49.242 135.263 49.45C135.141 49.6493 135.059 49.9007 135.016 50.204C135.345 50.3513 135.666 50.4553 135.978 50.516C136.29 50.568 136.619 50.594 136.966 50.594C137.477 50.594 137.854 50.5333 138.097 50.412C138.348 50.282 138.474 50.0523 138.474 49.723C138.474 49.4197 138.357 49.1553 138.123 48.93C137.897 48.7047 137.516 48.592 136.979 48.592ZM144.989 48.462C144.668 48.462 144.378 48.514 144.118 48.618C143.866 48.722 143.58 48.878 143.26 49.086C143.26 49.268 143.26 49.5367 143.26 49.892C143.26 50.2387 143.255 50.62 143.247 51.036C143.238 51.4433 143.229 51.8463 143.221 52.245C143.212 52.6437 143.195 52.9773 143.169 53.246C143.151 53.4193 143.13 53.558 143.104 53.662C143.086 53.7573 143.056 53.831 143.013 53.883C142.978 53.935 142.926 53.9697 142.857 53.987C142.796 53.9957 142.714 54 142.61 54C142.506 54 142.419 53.9957 142.35 53.987C142.289 53.9697 142.237 53.9393 142.194 53.896C142.15 53.844 142.116 53.7703 142.09 53.675C142.064 53.5797 142.042 53.4497 142.025 53.285C142.007 53.129 141.99 52.921 141.973 52.661C141.964 52.401 141.955 52.1193 141.947 51.816C141.938 51.504 141.929 51.192 141.921 50.88C141.921 50.5593 141.921 50.2647 141.921 49.996C141.921 49.554 141.925 49.1943 141.934 48.917C141.951 48.6397 141.977 48.3927 142.012 48.176C142.064 47.812 142.133 47.5823 142.22 47.487C142.306 47.3917 142.423 47.344 142.571 47.344C142.787 47.344 142.948 47.4047 143.052 47.526C143.164 47.6473 143.234 47.8467 143.26 48.124C143.58 47.8467 143.923 47.6257 144.287 47.461C144.659 47.2963 145.041 47.214 145.431 47.214C145.803 47.214 146.141 47.3007 146.445 47.474C146.757 47.6473 147.012 47.929 147.212 48.319C147.333 48.553 147.424 48.813 147.485 49.099C147.545 49.3763 147.589 49.671 147.615 49.983C147.623 50.1217 147.632 50.2603 147.641 50.399C147.649 50.529 147.654 50.672 147.654 50.828C147.662 50.9753 147.667 51.1443 147.667 51.335C147.667 51.5257 147.667 51.751 147.667 52.011C147.667 52.2883 147.662 52.5483 147.654 52.791C147.645 53.0337 147.619 53.246 147.576 53.428C147.541 53.6013 147.476 53.74 147.381 53.844C147.285 53.9393 147.155 53.987 146.991 53.987C146.592 53.987 146.384 53.7963 146.367 53.415C146.367 53.389 146.367 53.2807 146.367 53.09C146.367 52.8907 146.362 52.661 146.354 52.401C146.354 52.141 146.349 51.8767 146.341 51.608C146.341 51.3393 146.336 51.1183 146.328 50.945C146.319 50.8063 146.306 50.659 146.289 50.503C146.28 50.3383 146.263 50.1737 146.237 50.009C146.219 49.8443 146.193 49.6883 146.159 49.541C146.124 49.385 146.081 49.2463 146.029 49.125C145.907 48.839 145.756 48.657 145.574 48.579C145.392 48.501 145.197 48.462 144.989 48.462ZM153.044 47.37C153.295 47.37 153.547 47.3917 153.798 47.435C154.058 47.4783 154.292 47.539 154.5 47.617C154.708 47.695 154.877 47.7903 155.007 47.903C155.137 48.0157 155.202 48.1457 155.202 48.293C155.202 48.6743 154.985 48.865 154.552 48.865C154.448 48.865 154.348 48.852 154.253 48.826C154.166 48.7913 154.062 48.761 153.941 48.735C153.82 48.7003 153.668 48.67 153.486 48.644C153.304 48.6093 153.079 48.592 152.81 48.592C152.238 48.592 151.796 48.787 151.484 49.177C151.172 49.567 151.016 50.074 151.016 50.698C151.016 51.3827 151.172 51.933 151.484 52.349C151.805 52.765 152.255 52.973 152.836 52.973C153.2 52.973 153.495 52.9427 153.72 52.882C153.945 52.8213 154.127 52.752 154.266 52.674C154.413 52.596 154.53 52.5267 154.617 52.466C154.712 52.4053 154.816 52.375 154.929 52.375C155.085 52.375 155.206 52.4097 155.293 52.479C155.388 52.5397 155.436 52.6697 155.436 52.869C155.436 53.077 155.354 53.259 155.189 53.415C155.033 53.571 154.834 53.701 154.591 53.805C154.348 53.909 154.084 53.987 153.798 54.039C153.521 54.091 153.265 54.117 153.031 54.117C151.982 54.117 151.159 53.8267 150.561 53.246C149.963 52.6653 149.664 51.842 149.664 50.776C149.664 50.3167 149.733 49.8833 149.872 49.476C150.019 49.06 150.236 48.696 150.522 48.384C150.808 48.072 151.159 47.825 151.575 47.643C152 47.461 152.489 47.37 153.044 47.37ZM158.973 56.379C158.86 56.5783 158.752 56.7257 158.648 56.821C158.553 56.9163 158.44 56.964 158.31 56.964C158.189 56.964 158.067 56.925 157.946 56.847C157.825 56.769 157.764 56.6607 157.764 56.522C157.764 56.392 157.807 56.2057 157.894 55.963C157.989 55.7203 158.102 55.456 158.232 55.17C158.371 54.884 158.514 54.5893 158.661 54.286C158.808 53.9827 158.943 53.7053 159.064 53.454L159.155 53.259C158.895 52.7477 158.626 52.2017 158.349 51.621C158.08 51.0403 157.833 50.49 157.608 49.97C157.383 49.45 157.196 48.9993 157.049 48.618C156.91 48.228 156.841 47.9723 156.841 47.851C156.841 47.7383 156.884 47.643 156.971 47.565C157.066 47.4783 157.183 47.435 157.322 47.435C157.443 47.435 157.56 47.461 157.673 47.513C157.786 47.5563 157.89 47.6603 157.985 47.825C158.124 48.085 158.267 48.384 158.414 48.722C158.57 49.0513 158.722 49.398 158.869 49.762C159.025 50.126 159.181 50.4943 159.337 50.867C159.502 51.2397 159.666 51.5993 159.831 51.946C160.022 51.5907 160.225 51.218 160.442 50.828C160.659 50.438 160.867 50.061 161.066 49.697C161.274 49.333 161.465 48.9993 161.638 48.696C161.811 48.384 161.959 48.124 162.08 47.916C162.201 47.7167 162.323 47.5737 162.444 47.487C162.565 47.4003 162.691 47.357 162.821 47.357C162.908 47.357 162.994 47.396 163.081 47.474C163.168 47.5433 163.211 47.6387 163.211 47.76C163.211 47.942 163.129 48.2367 162.964 48.644C162.808 49.0427 162.604 49.5063 162.353 50.035C162.102 50.5637 161.816 51.1313 161.495 51.738C161.183 52.336 160.871 52.9253 160.559 53.506C160.247 54.078 159.948 54.6153 159.662 55.118C159.385 55.6207 159.155 56.041 158.973 56.379Z" fill="#F4522F" fill-opacity="0.41"/>
<g clip-path="url(#clip0)">
<path d="M26.7983 48.7421C26.5091 48.7421 26.2199 48.6314 25.9985 48.4122L11.4776 33.8913C11.0528 33.4666 11.0347 32.7865 11.4324 32.3392L22.3157 20.1477C29.923 11.2481 42.311 5.48895 53.113 5.67196C53.7162 5.68552 54.202 6.17128 54.2156 6.77453C54.4664 17.5833 48.6417 29.9646 39.7195 37.5876L27.5484 48.4551C27.336 48.6472 27.0649 48.7421 26.7983 48.7421ZM13.8296 33.0486L26.8412 46.0602L38.2351 35.8886C46.3824 28.9253 51.7935 17.8273 51.9607 7.92906C42.0625 8.09399 30.9668 13.5052 24.017 21.6343L13.8296 33.0486Z" fill="#F4522F"/>
<path d="M31.125 57.0116C31.0165 57.0116 30.9058 56.9957 30.8019 56.9619C30.3952 56.8263 30.0608 56.5145 30.0021 56.0897L28.4521 45.2742C28.364 44.6574 28.7933 44.0858 29.4101 43.9954C30.0269 43.8982 30.5985 44.3343 30.6889 44.9534L31.8999 53.4034C35.8583 48.67 38.0589 42.6692 38.0589 36.5508C38.0589 35.9272 38.565 35.4211 39.1886 35.4211C39.8122 35.4211 40.3183 35.9272 40.3183 36.5508C40.3183 44.0361 37.2862 51.3632 31.9993 56.6478C31.7734 56.8737 31.4435 57.0116 31.125 57.0116Z" fill="#F4522F"/>
<path d="M14.7785 31.4492C14.7265 31.4492 14.6723 31.447 14.6181 31.4379L3.80251 29.888C3.37775 29.827 3.02303 29.531 2.88973 29.1221C2.75643 28.7154 2.86488 28.2658 3.16989 27.9653C8.53135 22.6038 15.8562 19.5718 23.3414 19.5718C23.965 19.5718 24.4711 20.0779 24.4711 20.7015C24.4711 21.325 23.965 21.8311 23.3414 21.8311C17.1937 21.8311 11.1612 24.0521 6.47759 27.9879L14.9389 29.2012C15.5557 29.2915 15.985 29.8609 15.8968 30.48C15.8133 31.0425 15.3298 31.4492 14.7785 31.4492Z" fill="#F4522F"/>
<path d="M38.7096 26.8265C37.2613 26.8265 35.8153 26.2752 34.715 25.1749C32.5144 22.9721 32.5144 19.3887 34.715 17.1858C36.9179 14.983 40.5012 14.983 42.7041 17.1858C44.9047 19.3887 44.9047 22.9721 42.7041 25.1749C41.6016 26.2775 40.1556 26.8265 38.7096 26.8265ZM38.7096 17.7936C37.842 17.7936 36.9721 18.1235 36.3124 18.7832C34.9929 20.1049 34.9929 22.2558 36.3124 23.5776C37.6341 24.897 39.785 24.8948 41.1068 23.5776C42.4262 22.2558 42.4262 20.1049 41.1068 18.7832C40.4448 18.1257 39.5772 17.7936 38.7096 17.7936ZM41.9043 24.3774H41.9269H41.9043Z" fill="#F4522F"/>
<path d="M1.12968 59.89C0.833701 59.89 0.546763 59.7747 0.329865 59.5601C0.0361483 59.2664 -0.0723009 58.8348 0.047445 58.4372C0.41798 57.2013 3.73698 46.2796 6.15449 43.8621C8.87701 41.1396 13.3076 41.1373 16.0301 43.8621C18.7527 46.5846 18.7527 51.0152 16.0301 53.7377C13.6126 56.1552 2.69089 59.4742 1.45502 59.8448C1.34658 59.8741 1.23813 59.89 1.12968 59.89ZM11.0934 44.0767C9.88243 44.0767 8.67367 44.5376 7.75185 45.4572C6.4482 46.7631 4.27922 52.5945 2.84679 57.0432C7.2932 55.6107 13.1269 53.4418 14.4305 52.1381C16.2719 50.2967 16.2719 47.2986 14.4305 45.4572C13.511 44.5376 12.3022 44.0767 11.0934 44.0767Z" fill="#F4522F"/>
</g>
<defs>
<clipPath id="clip0">
<rect width="54.2246" height="54.2246" fill="white" transform="translate(0 5.66528)"/>
</clipPath>
</defs>
</svg>
