<svg width="220" height="60" viewBox="0 0 220 60" fill="none" xmlns="http://www.w3.org/2000/svg">
<path d="M61.625 36.83C61.5783 35.99 61.5433 35.115 61.52 34.205C61.52 33.295 61.5083 32.315 61.485 31.265C61.4617 30.215 61.45 29.0833 61.45 27.87C61.45 26.6333 61.45 25.2567 61.45 23.74C61.45 22.0833 61.4617 20.6717 61.485 19.505C61.5083 18.315 61.5783 17.3467 61.695 16.6C61.8117 15.8533 61.9867 15.305 62.22 14.955C62.4767 14.605 62.815 14.43 63.235 14.43C63.445 14.43 63.6433 14.4533 63.83 14.5C64.0167 14.5467 64.18 14.6517 64.32 14.815C64.46 14.955 64.5767 15.1767 64.67 15.48C64.7867 15.76 64.8567 16.1333 64.88 16.6C64.9267 17.44 64.9617 18.1867 64.985 18.84C65.0083 19.4933 65.0317 20.1467 65.055 20.8C65.0783 21.43 65.09 22.095 65.09 22.795C65.09 23.4717 65.09 24.2417 65.09 25.105C65.09 26.155 65.09 27.1583 65.09 28.115C65.09 29.0717 65.0783 30.0167 65.055 30.95C65.0317 31.8833 65.0083 32.8283 64.985 33.785C64.9617 34.7417 64.9267 35.745 64.88 36.795C64.8567 37.355 64.7983 37.7867 64.705 38.09C64.6117 38.3933 64.495 38.6267 64.355 38.79C64.215 38.9533 64.0517 39.0467 63.865 39.07C63.6783 39.1167 63.4683 39.14 63.235 39.14C62.815 39.14 62.4533 39 62.15 38.72C61.8467 38.4167 61.6717 37.7867 61.625 36.83ZM82.6649 20.73C83.1549 20.73 83.7733 20.7767 84.5199 20.87C85.2666 20.94 85.9783 21.0917 86.6549 21.325C87.3316 21.535 87.9149 21.8383 88.4049 22.235C88.8949 22.6317 89.1399 23.1333 89.1399 23.74C89.1399 24.09 89.0349 24.3933 88.8249 24.65C88.6383 24.9067 88.3349 25.035 87.9149 25.035C87.6116 25.035 87.2616 24.9883 86.8649 24.895C86.4916 24.8017 86.0716 24.6967 85.6049 24.58C85.1616 24.44 84.6716 24.3233 84.1349 24.23C83.6216 24.1367 83.0733 24.09 82.4899 24.09C81.5099 24.09 80.7049 24.2417 80.0749 24.545C79.4683 24.8483 79.1649 25.3267 79.1649 25.98C79.1649 26.3533 79.2699 26.6683 79.4799 26.925C79.7133 27.1817 80.0166 27.415 80.3899 27.625C80.7866 27.8117 81.2416 27.975 81.7549 28.115C82.2916 28.255 82.8516 28.395 83.4349 28.535C84.1583 28.7217 84.8699 28.9317 85.5699 29.165C86.2933 29.3983 86.9349 29.725 87.4949 30.145C88.0549 30.5417 88.5099 31.055 88.8599 31.685C89.2099 32.2917 89.3849 33.05 89.3849 33.96C89.3849 35.6867 88.7316 37.0633 87.4249 38.09C86.1183 39.0933 84.1933 39.595 81.6499 39.595C81.0899 39.595 80.4249 39.5483 79.6549 39.455C78.8849 39.385 78.1616 39.2333 77.4849 39C76.8083 38.79 76.2249 38.4867 75.7349 38.09C75.2683 37.67 75.0349 37.1217 75.0349 36.445C75.0349 35.9783 75.1399 35.6283 75.3499 35.395C75.5833 35.1383 75.8633 35.01 76.1899 35.01C76.4466 35.01 76.7149 35.0917 76.9949 35.255C77.2749 35.4183 77.6133 35.5933 78.0099 35.78C78.4066 35.9667 78.8849 36.1417 79.4449 36.305C80.0049 36.4683 80.6933 36.55 81.5099 36.55C81.8133 36.55 82.2099 36.5383 82.6999 36.515C83.1899 36.4683 83.6683 36.3633 84.1349 36.2C84.6249 36.0367 85.0333 35.815 85.3599 35.535C85.7099 35.2317 85.8849 34.8117 85.8849 34.275C85.8849 33.855 85.7683 33.505 85.5349 33.225C85.3016 32.9217 84.9866 32.665 84.5899 32.455C84.1933 32.245 83.7266 32.07 83.1899 31.93C82.6766 31.7667 82.1283 31.6033 81.5449 31.44C80.8683 31.2533 80.1799 31.0433 79.4799 30.81C78.8033 30.5767 78.1849 30.2733 77.6249 29.9C77.0649 29.5267 76.6099 29.06 76.2599 28.5C75.9099 27.9167 75.7349 27.205 75.7349 26.365C75.7349 25.5717 75.8983 24.8367 76.2249 24.16C76.5516 23.46 77.0183 22.8533 77.6249 22.34C78.2316 21.8267 78.9549 21.43 79.7949 21.15C80.6583 20.87 81.6149 20.73 82.6649 20.73ZM103.244 44.04C103.244 44.4833 103.232 44.9033 103.209 45.3C103.185 45.72 103.104 46.0933 102.964 46.42C102.847 46.7467 102.66 47.0033 102.404 47.19C102.17 47.4 101.832 47.505 101.389 47.505C100.875 47.505 100.444 47.3183 100.094 46.945C99.7669 46.595 99.5802 45.965 99.5336 45.055C99.5102 44.4717 99.4752 43.76 99.4286 42.92C99.3819 42.08 99.3352 41.1933 99.2886 40.26C99.2652 39.3267 99.2302 38.3933 99.1836 37.46C99.1602 36.5267 99.1486 35.6633 99.1486 34.87C99.1486 32.14 99.3352 29.8883 99.7086 28.115C100.105 26.3417 100.689 24.93 101.459 23.88C102.229 22.83 103.174 22.095 104.294 21.675C105.437 21.255 106.755 21.045 108.249 21.045C109.439 21.045 110.559 21.2317 111.609 21.605C112.659 21.955 113.569 22.515 114.339 23.285C115.132 24.0317 115.762 25.0117 116.229 26.225C116.695 27.415 116.929 28.85 116.929 30.53C116.929 31.93 116.684 33.1667 116.194 34.24C115.727 35.3133 115.074 36.2233 114.234 36.97C113.394 37.6933 112.402 38.2533 111.259 38.65C110.139 39.0233 108.937 39.21 107.654 39.21C106.557 39.21 105.565 38.9883 104.679 38.545C103.815 38.0783 103.197 37.5767 102.824 37.04C102.94 38.3467 103.034 39.56 103.104 40.68C103.197 41.8 103.244 42.92 103.244 44.04ZM108.074 24.545C107.257 24.545 106.545 24.685 105.939 24.965C105.355 25.245 104.877 25.63 104.504 26.12C104.13 26.61 103.85 27.1933 103.664 27.87C103.5 28.5467 103.419 29.2817 103.419 30.075C103.419 30.845 103.489 31.58 103.629 32.28C103.792 32.9567 104.049 33.5517 104.399 34.065C104.749 34.5783 105.215 34.9867 105.799 35.29C106.382 35.5933 107.094 35.745 107.934 35.745C108.587 35.745 109.217 35.6633 109.824 35.5C110.43 35.3133 110.967 35.01 111.434 34.59C111.924 34.17 112.309 33.61 112.589 32.91C112.892 32.21 113.044 31.335 113.044 30.285C113.044 29.2117 112.892 28.3133 112.589 27.59C112.309 26.8433 111.924 26.2483 111.434 25.805C110.967 25.3383 110.43 25.0117 109.824 24.825C109.24 24.6383 108.657 24.545 108.074 24.545ZM141.214 39.14C140.841 39.14 140.537 39.0817 140.304 38.965C140.094 38.825 139.931 38.65 139.814 38.44C139.697 38.23 139.616 37.985 139.569 37.705C139.522 37.4017 139.487 37.0867 139.464 36.76C138.881 37.4833 138.122 38.09 137.189 38.58C136.279 39.07 135.112 39.315 133.689 39.315C132.779 39.315 131.846 39.1867 130.889 38.93C129.956 38.65 129.104 38.1833 128.334 37.53C127.564 36.8533 126.934 35.955 126.444 34.835C125.954 33.715 125.709 32.3033 125.709 30.6C125.709 29.27 125.872 28.0217 126.199 26.855C126.526 25.6883 127.016 24.6733 127.669 23.81C128.346 22.9233 129.186 22.2233 130.189 21.71C131.192 21.1967 132.371 20.94 133.724 20.94C134.914 20.94 135.976 21.1617 136.909 21.605C137.842 22.025 138.682 22.725 139.429 23.705C139.429 23.425 139.441 23.145 139.464 22.865C139.487 22.5617 139.546 22.2933 139.639 22.06C139.756 21.8033 139.931 21.605 140.164 21.465C140.397 21.3017 140.712 21.22 141.109 21.22C141.459 21.22 141.786 21.36 142.089 21.64C142.392 21.92 142.567 22.5267 142.614 23.46C142.684 24.6967 142.731 25.805 142.754 26.785C142.801 27.765 142.824 28.78 142.824 29.83C142.824 31.1133 142.812 32.2917 142.789 33.365C142.766 34.4383 142.707 35.5817 142.614 36.795C142.567 37.3317 142.497 37.7633 142.404 38.09C142.334 38.3933 142.241 38.6267 142.124 38.79C142.007 38.93 141.867 39.0233 141.704 39.07C141.541 39.1167 141.377 39.14 141.214 39.14ZM139.324 30.25C139.324 29.0367 139.137 28.045 138.764 27.275C138.414 26.505 137.959 25.91 137.399 25.49C136.862 25.0467 136.279 24.7433 135.649 24.58C135.019 24.4167 134.436 24.335 133.899 24.335C133.059 24.335 132.336 24.4867 131.729 24.79C131.146 25.0933 130.667 25.5133 130.294 26.05C129.921 26.5633 129.641 27.1817 129.454 27.905C129.291 28.605 129.209 29.375 129.209 30.215C129.209 32.2683 129.652 33.785 130.539 34.765C131.449 35.745 132.674 36.235 134.214 36.235C135.124 36.235 135.894 36.0833 136.524 35.78C137.177 35.4533 137.702 35.0217 138.099 34.485C138.519 33.9483 138.822 33.3183 139.009 32.595C139.219 31.8483 139.324 31.0667 139.324 30.25ZM161.732 21.15C162.409 21.15 163.086 21.2083 163.762 21.325C164.462 21.4417 165.092 21.605 165.652 21.815C166.212 22.025 166.667 22.2817 167.017 22.585C167.367 22.8883 167.542 23.2383 167.542 23.635C167.542 24.6617 166.959 25.175 165.792 25.175C165.512 25.175 165.244 25.14 164.987 25.07C164.754 24.9767 164.474 24.895 164.147 24.825C163.821 24.7317 163.412 24.65 162.922 24.58C162.432 24.4867 161.826 24.44 161.102 24.44C159.562 24.44 158.372 24.965 157.532 26.015C156.692 27.065 156.272 28.43 156.272 30.11C156.272 31.9533 156.692 33.435 157.532 34.555C158.396 35.675 159.609 36.235 161.172 36.235C162.152 36.235 162.946 36.1533 163.552 35.99C164.159 35.8267 164.649 35.64 165.022 35.43C165.419 35.22 165.734 35.0333 165.967 34.87C166.224 34.7067 166.504 34.625 166.807 34.625C167.227 34.625 167.554 34.7183 167.787 34.905C168.044 35.0683 168.172 35.4183 168.172 35.955C168.172 36.515 167.951 37.005 167.507 37.425C167.087 37.845 166.551 38.195 165.897 38.475C165.244 38.755 164.532 38.965 163.762 39.105C163.016 39.245 162.327 39.315 161.697 39.315C158.874 39.315 156.657 38.5333 155.047 36.97C153.437 35.4067 152.632 33.19 152.632 30.32C152.632 29.0833 152.819 27.9167 153.192 26.82C153.589 25.7 154.172 24.72 154.942 23.88C155.712 23.04 156.657 22.375 157.777 21.885C158.921 21.395 160.239 21.15 161.732 21.15ZM186.06 32.56C185.243 32.56 184.38 32.5017 183.47 32.385C182.583 32.245 181.615 31.965 180.565 31.545C180.775 32.9683 181.358 34.0417 182.315 34.765C183.295 35.4883 184.695 35.85 186.515 35.85C187.168 35.85 187.752 35.815 188.265 35.745C188.802 35.6517 189.268 35.5583 189.665 35.465C190.062 35.3483 190.412 35.255 190.715 35.185C191.018 35.0917 191.298 35.045 191.555 35.045C191.882 35.045 192.197 35.15 192.5 35.36C192.803 35.5467 192.955 35.8733 192.955 36.34C192.955 36.9233 192.71 37.4017 192.22 37.775C191.753 38.1483 191.17 38.4517 190.47 38.685C189.793 38.895 189.07 39.035 188.3 39.105C187.53 39.1983 186.853 39.245 186.27 39.245C184.893 39.245 183.622 39.0583 182.455 38.685C181.312 38.3117 180.32 37.7517 179.48 37.005C178.64 36.235 177.987 35.29 177.52 34.17C177.053 33.05 176.82 31.7433 176.82 30.25C176.82 28.8033 177.042 27.52 177.485 26.4C177.952 25.28 178.582 24.335 179.375 23.565C180.168 22.795 181.102 22.2117 182.175 21.815C183.272 21.4183 184.45 21.22 185.71 21.22C186.69 21.22 187.635 21.3483 188.545 21.605C189.478 21.8617 190.295 22.2467 190.995 22.76C191.718 23.2733 192.29 23.9267 192.71 24.72C193.153 25.49 193.375 26.4 193.375 27.45C193.375 28.3833 193.2 29.1767 192.85 29.83C192.5 30.4833 191.998 31.0083 191.345 31.405C190.715 31.8017 189.945 32.0933 189.035 32.28C188.148 32.4667 187.157 32.56 186.06 32.56ZM185.815 24.44C185.185 24.44 184.578 24.5217 183.995 24.685C183.412 24.825 182.875 25.07 182.385 25.42C181.918 25.7467 181.522 26.19 181.195 26.75C180.868 27.2867 180.647 27.9633 180.53 28.78C181.417 29.1767 182.28 29.4567 183.12 29.62C183.96 29.76 184.847 29.83 185.78 29.83C187.157 29.83 188.172 29.6667 188.825 29.34C189.502 28.99 189.84 28.3717 189.84 27.485C189.84 26.6683 189.525 25.9567 188.895 25.35C188.288 24.7433 187.262 24.44 185.815 24.44Z" fill="#F4522F"/>
<path d="M59.975 53.194C59.9577 52.882 59.9447 52.557 59.936 52.219C59.936 51.881 59.9317 51.517 59.923 51.127C59.9143 50.737 59.91 50.3167 59.91 49.866C59.91 49.4067 59.91 48.8953 59.91 48.332C59.91 47.7167 59.9143 47.1923 59.923 46.759C59.9317 46.317 59.9577 45.9573 60.001 45.68C60.0443 45.4027 60.1093 45.199 60.196 45.069C60.2913 44.939 60.417 44.874 60.573 44.874C60.651 44.874 60.7247 44.8827 60.794 44.9C60.8633 44.9173 60.924 44.9563 60.976 45.017C61.028 45.069 61.0713 45.1513 61.106 45.264C61.1493 45.368 61.1753 45.5067 61.184 45.68C61.2013 45.992 61.2143 46.2693 61.223 46.512C61.2317 46.7547 61.2403 46.9973 61.249 47.24C61.2577 47.474 61.262 47.721 61.262 47.981C61.262 48.2323 61.262 48.5183 61.262 48.839C61.262 49.229 61.262 49.6017 61.262 49.957C61.262 50.3123 61.2577 50.6633 61.249 51.01C61.2403 51.3567 61.2317 51.7077 61.223 52.063C61.2143 52.4183 61.2013 52.791 61.184 53.181C61.1753 53.389 61.1537 53.5493 61.119 53.662C61.0843 53.7747 61.041 53.8613 60.989 53.922C60.937 53.9827 60.8763 54.0173 60.807 54.026C60.7377 54.0433 60.6597 54.052 60.573 54.052C60.417 54.052 60.2827 54 60.17 53.896C60.0573 53.7833 59.9923 53.5493 59.975 53.194ZM66.9318 48.462C66.6112 48.462 66.3208 48.514 66.0608 48.618C65.8095 48.722 65.5235 48.878 65.2028 49.086C65.2028 49.268 65.2028 49.5367 65.2028 49.892C65.2028 50.2387 65.1985 50.62 65.1898 51.036C65.1812 51.4433 65.1725 51.8463 65.1638 52.245C65.1552 52.6437 65.1378 52.9773 65.1118 53.246C65.0945 53.4193 65.0728 53.558 65.0468 53.662C65.0295 53.7573 64.9992 53.831 64.9558 53.883C64.9212 53.935 64.8692 53.9697 64.7998 53.987C64.7392 53.9957 64.6568 54 64.5528 54C64.4488 54 64.3622 53.9957 64.2928 53.987C64.2322 53.9697 64.1802 53.9393 64.1368 53.896C64.0935 53.844 64.0588 53.7703 64.0328 53.675C64.0068 53.5797 63.9852 53.4497 63.9678 53.285C63.9505 53.129 63.9332 52.921 63.9158 52.661C63.9072 52.401 63.8985 52.1193 63.8898 51.816C63.8812 51.504 63.8725 51.192 63.8638 50.88C63.8638 50.5593 63.8638 50.2647 63.8638 49.996C63.8638 49.554 63.8682 49.1943 63.8768 48.917C63.8942 48.6397 63.9202 48.3927 63.9548 48.176C64.0068 47.812 64.0762 47.5823 64.1628 47.487C64.2495 47.3917 64.3665 47.344 64.5138 47.344C64.7305 47.344 64.8908 47.4047 64.9948 47.526C65.1075 47.6473 65.1768 47.8467 65.2028 48.124C65.5235 47.8467 65.8658 47.6257 66.2298 47.461C66.6025 47.2963 66.9838 47.214 67.3738 47.214C67.7465 47.214 68.0845 47.3007 68.3878 47.474C68.6998 47.6473 68.9555 47.929 69.1548 48.319C69.2762 48.553 69.3672 48.813 69.4278 49.099C69.4885 49.3763 69.5318 49.671 69.5578 49.983C69.5665 50.1217 69.5752 50.2603 69.5838 50.399C69.5925 50.529 69.5968 50.672 69.5968 50.828C69.6055 50.9753 69.6098 51.1443 69.6098 51.335C69.6098 51.5257 69.6098 51.751 69.6098 52.011C69.6098 52.2883 69.6055 52.5483 69.5968 52.791C69.5882 53.0337 69.5622 53.246 69.5188 53.428C69.4842 53.6013 69.4192 53.74 69.3238 53.844C69.2285 53.9393 69.0985 53.987 68.9338 53.987C68.5352 53.987 68.3272 53.7963 68.3098 53.415C68.3098 53.389 68.3098 53.2807 68.3098 53.09C68.3098 52.8907 68.3055 52.661 68.2968 52.401C68.2968 52.141 68.2925 51.8767 68.2838 51.608C68.2838 51.3393 68.2795 51.1183 68.2708 50.945C68.2622 50.8063 68.2492 50.659 68.2318 50.503C68.2232 50.3383 68.2058 50.1737 68.1798 50.009C68.1625 49.8443 68.1365 49.6883 68.1018 49.541C68.0672 49.385 68.0238 49.2463 67.9718 49.125C67.8505 48.839 67.6988 48.657 67.5168 48.579C67.3348 48.501 67.1398 48.462 66.9318 48.462ZM72.9507 53.155C72.9247 52.609 72.9074 51.9633 72.8987 51.218C72.8987 50.464 72.8987 49.6103 72.8987 48.657C72.8121 48.6657 72.7081 48.67 72.5867 48.67C72.4741 48.67 72.3831 48.67 72.3137 48.67C72.1577 48.67 72.0147 48.6657 71.8847 48.657C71.7634 48.6483 71.6551 48.6223 71.5597 48.579C71.4644 48.5357 71.3907 48.475 71.3387 48.397C71.2867 48.3103 71.2607 48.1933 71.2607 48.046C71.2607 47.63 71.5727 47.422 72.1967 47.422C72.2921 47.422 72.4091 47.422 72.5477 47.422C72.6864 47.422 72.8034 47.4307 72.8987 47.448C72.8987 46.9887 72.9074 46.6203 72.9247 46.343C72.9421 46.0657 72.9724 45.8533 73.0157 45.706C73.0677 45.55 73.1327 45.4503 73.2107 45.407C73.2974 45.355 73.4057 45.329 73.5357 45.329C73.6744 45.329 73.7871 45.3767 73.8737 45.472C73.9604 45.5673 74.0254 45.6887 74.0687 45.836C74.1207 45.9833 74.1511 46.148 74.1597 46.33C74.1771 46.512 74.1857 46.6897 74.1857 46.863C74.1857 46.9843 74.1814 47.097 74.1727 47.201C74.1727 47.2963 74.1727 47.383 74.1727 47.461C74.2941 47.4263 74.4197 47.409 74.5497 47.409C74.6797 47.4003 74.8054 47.396 74.9267 47.396C75.2474 47.396 75.4944 47.448 75.6677 47.552C75.8411 47.6473 75.9277 47.8077 75.9277 48.033C75.9277 48.1717 75.8974 48.2843 75.8367 48.371C75.7761 48.449 75.6937 48.5097 75.5897 48.553C75.4944 48.5963 75.3774 48.6267 75.2387 48.644C75.1087 48.6527 74.9657 48.657 74.8097 48.657C74.7231 48.657 74.6234 48.657 74.5107 48.657C74.3981 48.657 74.2941 48.6483 74.1987 48.631C74.1987 49.0903 74.1987 49.5107 74.1987 49.892C74.1987 50.2733 74.1944 50.6417 74.1857 50.997C74.1771 51.3437 74.1684 51.6903 74.1597 52.037C74.1511 52.3837 74.1381 52.752 74.1207 53.142C74.1121 53.35 74.0904 53.5103 74.0557 53.623C74.0297 53.7357 73.9907 53.8223 73.9387 53.883C73.8867 53.9437 73.8261 53.9827 73.7567 54C73.6961 54.0087 73.6224 54.013 73.5357 54.013C73.3797 54.013 73.2454 53.961 73.1327 53.857C73.0287 53.7443 72.9681 53.5103 72.9507 53.155ZM80.7858 51.608C80.4824 51.608 80.1618 51.5863 79.8238 51.543C79.4944 51.491 79.1348 51.387 78.7448 51.231C78.8228 51.7597 79.0394 52.1583 79.3948 52.427C79.7588 52.6957 80.2788 52.83 80.9548 52.83C81.1974 52.83 81.4141 52.817 81.6048 52.791C81.8041 52.7563 81.9774 52.7217 82.1248 52.687C82.2721 52.6437 82.4021 52.609 82.5148 52.583C82.6274 52.5483 82.7314 52.531 82.8268 52.531C82.9481 52.531 83.0651 52.57 83.1778 52.648C83.2904 52.7173 83.3468 52.8387 83.3468 53.012C83.3468 53.2287 83.2558 53.4063 83.0738 53.545C82.9004 53.6837 82.6838 53.7963 82.4238 53.883C82.1724 53.961 81.9038 54.013 81.6178 54.039C81.3318 54.0737 81.0804 54.091 80.8638 54.091C80.3524 54.091 79.8801 54.0217 79.4468 53.883C79.0221 53.7443 78.6538 53.5363 78.3418 53.259C78.0298 52.973 77.7871 52.622 77.6138 52.206C77.4404 51.79 77.3538 51.3047 77.3538 50.75C77.3538 50.2127 77.4361 49.736 77.6008 49.32C77.7741 48.904 78.0081 48.553 78.3028 48.267C78.5974 47.981 78.9441 47.7643 79.3428 47.617C79.7501 47.4697 80.1878 47.396 80.6558 47.396C81.0198 47.396 81.3708 47.4437 81.7088 47.539C82.0554 47.6343 82.3588 47.7773 82.6188 47.968C82.8874 48.1587 83.0998 48.4013 83.2558 48.696C83.4204 48.982 83.5028 49.32 83.5028 49.71C83.5028 50.0567 83.4378 50.3513 83.3078 50.594C83.1778 50.8367 82.9914 51.0317 82.7488 51.179C82.5148 51.3263 82.2288 51.4347 81.8908 51.504C81.5614 51.5733 81.1931 51.608 80.7858 51.608ZM80.6948 48.592C80.4608 48.592 80.2354 48.6223 80.0188 48.683C79.8021 48.735 79.6028 48.826 79.4208 48.956C79.2474 49.0773 79.1001 49.242 78.9788 49.45C78.8574 49.6493 78.7751 49.9007 78.7318 50.204C79.0611 50.3513 79.3818 50.4553 79.6938 50.516C80.0058 50.568 80.3351 50.594 80.6818 50.594C81.1931 50.594 81.5701 50.5333 81.8128 50.412C82.0641 50.282 82.1898 50.0523 82.1898 49.723C82.1898 49.4197 82.0728 49.1553 81.8388 48.93C81.6134 48.7047 81.2321 48.592 80.6948 48.592ZM85.7148 53.207C85.6801 52.9037 85.6585 52.5353 85.6498 52.102C85.6411 51.6687 85.6368 51.1443 85.6368 50.529C85.6368 49.9223 85.6368 49.4327 85.6368 49.06C85.6455 48.6873 85.6715 48.358 85.7148 48.072C85.7581 47.7167 85.8231 47.487 85.9098 47.383C86.0051 47.279 86.1265 47.227 86.2738 47.227C86.3778 47.227 86.4688 47.2357 86.5468 47.253C86.6335 47.2703 86.7071 47.3093 86.7678 47.37C86.8371 47.422 86.8891 47.5 86.9238 47.604C86.9585 47.708 86.9758 47.851 86.9758 48.033C86.9758 48.0677 86.9801 48.1023 86.9888 48.137C86.9888 48.1717 86.9888 48.2107 86.9888 48.254C86.9975 48.2887 87.0018 48.332 87.0018 48.384C87.2358 48.0893 87.5001 47.838 87.7948 47.63C88.0981 47.422 88.4405 47.318 88.8218 47.318C89.3331 47.318 89.5888 47.5303 89.5888 47.955C89.5888 48.111 89.5541 48.241 89.4848 48.345C89.4241 48.449 89.3331 48.5357 89.2118 48.605C89.0991 48.6657 88.9648 48.7133 88.8088 48.748C88.6615 48.7827 88.4968 48.8173 88.3148 48.852C88.0375 48.904 87.7775 49.0037 87.5348 49.151C87.2921 49.2897 87.1275 49.4673 87.0408 49.684C87.0408 49.8487 87.0408 49.97 87.0408 50.048C87.0495 50.126 87.0538 50.191 87.0538 50.243C87.0625 50.295 87.0668 50.3513 87.0668 50.412C87.0668 50.4727 87.0668 50.568 87.0668 50.698C87.0668 51.14 87.0581 51.556 87.0408 51.946C87.0235 52.3273 87.0061 52.7433 86.9888 53.194C86.9801 53.402 86.9541 53.5623 86.9108 53.675C86.8761 53.7877 86.8285 53.8743 86.7678 53.935C86.7158 53.9957 86.6551 54.0303 86.5858 54.039C86.5165 54.0563 86.4471 54.065 86.3778 54.065C86.1351 54.065 85.9705 54.013 85.8838 53.909C85.8058 53.7963 85.7495 53.5623 85.7148 53.207ZM94.5152 48.462C94.1945 48.462 93.9042 48.514 93.6442 48.618C93.3929 48.722 93.1069 48.878 92.7862 49.086C92.7862 49.268 92.7862 49.5367 92.7862 49.892C92.7862 50.2387 92.7819 50.62 92.7732 51.036C92.7645 51.4433 92.7559 51.8463 92.7472 52.245C92.7385 52.6437 92.7212 52.9773 92.6952 53.246C92.6779 53.4193 92.6562 53.558 92.6302 53.662C92.6129 53.7573 92.5825 53.831 92.5392 53.883C92.5045 53.935 92.4525 53.9697 92.3832 53.987C92.3225 53.9957 92.2402 54 92.1362 54C92.0322 54 91.9455 53.9957 91.8762 53.987C91.8155 53.9697 91.7635 53.9393 91.7202 53.896C91.6769 53.844 91.6422 53.7703 91.6162 53.675C91.5902 53.5797 91.5685 53.4497 91.5512 53.285C91.5339 53.129 91.5165 52.921 91.4992 52.661C91.4905 52.401 91.4819 52.1193 91.4732 51.816C91.4645 51.504 91.4559 51.192 91.4472 50.88C91.4472 50.5593 91.4472 50.2647 91.4472 49.996C91.4472 49.554 91.4515 49.1943 91.4602 48.917C91.4775 48.6397 91.5035 48.3927 91.5382 48.176C91.5902 47.812 91.6595 47.5823 91.7462 47.487C91.8329 47.3917 91.9499 47.344 92.0972 47.344C92.3139 47.344 92.4742 47.4047 92.5782 47.526C92.6909 47.6473 92.7602 47.8467 92.7862 48.124C93.1069 47.8467 93.4492 47.6257 93.8132 47.461C94.1859 47.2963 94.5672 47.214 94.9572 47.214C95.3299 47.214 95.6679 47.3007 95.9712 47.474C96.2832 47.6473 96.5389 47.929 96.7382 48.319C96.8595 48.553 96.9505 48.813 97.0112 49.099C97.0719 49.3763 97.1152 49.671 97.1412 49.983C97.1499 50.1217 97.1585 50.2603 97.1672 50.399C97.1759 50.529 97.1802 50.672 97.1802 50.828C97.1889 50.9753 97.1932 51.1443 97.1932 51.335C97.1932 51.5257 97.1932 51.751 97.1932 52.011C97.1932 52.2883 97.1889 52.5483 97.1802 52.791C97.1715 53.0337 97.1455 53.246 97.1022 53.428C97.0675 53.6013 97.0025 53.74 96.9072 53.844C96.8119 53.9393 96.6819 53.987 96.5172 53.987C96.1185 53.987 95.9105 53.7963 95.8932 53.415C95.8932 53.389 95.8932 53.2807 95.8932 53.09C95.8932 52.8907 95.8889 52.661 95.8802 52.401C95.8802 52.141 95.8759 51.8767 95.8672 51.608C95.8672 51.3393 95.8629 51.1183 95.8542 50.945C95.8455 50.8063 95.8325 50.659 95.8152 50.503C95.8065 50.3383 95.7892 50.1737 95.7632 50.009C95.7459 49.8443 95.7199 49.6883 95.6852 49.541C95.6505 49.385 95.6072 49.2463 95.5552 49.125C95.4339 48.839 95.2822 48.657 95.1002 48.579C94.9182 48.501 94.7232 48.462 94.5152 48.462ZM102.61 51.608C102.306 51.608 101.986 51.5863 101.648 51.543C101.318 51.491 100.959 51.387 100.569 51.231C100.647 51.7597 100.863 52.1583 101.219 52.427C101.583 52.6957 102.103 52.83 102.779 52.83C103.021 52.83 103.238 52.817 103.429 52.791C103.628 52.7563 103.801 52.7217 103.949 52.687C104.096 52.6437 104.226 52.609 104.339 52.583C104.451 52.5483 104.555 52.531 104.651 52.531C104.772 52.531 104.889 52.57 105.002 52.648C105.114 52.7173 105.171 52.8387 105.171 53.012C105.171 53.2287 105.08 53.4063 104.898 53.545C104.724 53.6837 104.508 53.7963 104.248 53.883C103.996 53.961 103.728 54.013 103.442 54.039C103.156 54.0737 102.904 54.091 102.688 54.091C102.176 54.091 101.704 54.0217 101.271 53.883C100.846 53.7443 100.478 53.5363 100.166 53.259C99.8535 52.973 99.6108 52.622 99.4375 52.206C99.2642 51.79 99.1775 51.3047 99.1775 50.75C99.1775 50.2127 99.2598 49.736 99.4245 49.32C99.5978 48.904 99.8318 48.553 100.127 48.267C100.421 47.981 100.768 47.7643 101.167 47.617C101.574 47.4697 102.012 47.396 102.48 47.396C102.844 47.396 103.195 47.4437 103.533 47.539C103.879 47.6343 104.183 47.7773 104.443 47.968C104.711 48.1587 104.924 48.4013 105.08 48.696C105.244 48.982 105.327 49.32 105.327 49.71C105.327 50.0567 105.262 50.3513 105.132 50.594C105.002 50.8367 104.815 51.0317 104.573 51.179C104.339 51.3263 104.053 51.4347 103.715 51.504C103.385 51.5733 103.017 51.608 102.61 51.608ZM102.519 48.592C102.285 48.592 102.059 48.6223 101.843 48.683C101.626 48.735 101.427 48.826 101.245 48.956C101.071 49.0773 100.924 49.242 100.803 49.45C100.681 49.6493 100.599 49.9007 100.556 50.204C100.885 50.3513 101.206 50.4553 101.518 50.516C101.83 50.568 102.159 50.594 102.506 50.594C103.017 50.594 103.394 50.5333 103.637 50.412C103.888 50.282 104.014 50.0523 104.014 49.723C104.014 49.4197 103.897 49.1553 103.663 48.93C103.437 48.7047 103.056 48.592 102.519 48.592ZM108.592 53.155C108.566 52.609 108.548 51.9633 108.54 51.218C108.54 50.464 108.54 49.6103 108.54 48.657C108.453 48.6657 108.349 48.67 108.228 48.67C108.115 48.67 108.024 48.67 107.955 48.67C107.799 48.67 107.656 48.6657 107.526 48.657C107.404 48.6483 107.296 48.6223 107.201 48.579C107.105 48.5357 107.032 48.475 106.98 48.397C106.928 48.3103 106.902 48.1933 106.902 48.046C106.902 47.63 107.214 47.422 107.838 47.422C107.933 47.422 108.05 47.422 108.189 47.422C108.327 47.422 108.444 47.4307 108.54 47.448C108.54 46.9887 108.548 46.6203 108.566 46.343C108.583 46.0657 108.613 45.8533 108.657 45.706C108.709 45.55 108.774 45.4503 108.852 45.407C108.938 45.355 109.047 45.329 109.177 45.329C109.315 45.329 109.428 45.3767 109.515 45.472C109.601 45.5673 109.666 45.6887 109.71 45.836C109.762 45.9833 109.792 46.148 109.801 46.33C109.818 46.512 109.827 46.6897 109.827 46.863C109.827 46.9843 109.822 47.097 109.814 47.201C109.814 47.2963 109.814 47.383 109.814 47.461C109.935 47.4263 110.061 47.409 110.191 47.409C110.321 47.4003 110.446 47.396 110.568 47.396C110.888 47.396 111.135 47.448 111.309 47.552C111.482 47.6473 111.569 47.8077 111.569 48.033C111.569 48.1717 111.538 48.2843 111.478 48.371C111.417 48.449 111.335 48.5097 111.231 48.553C111.135 48.5963 111.018 48.6267 110.88 48.644C110.75 48.6527 110.607 48.657 110.451 48.657C110.364 48.657 110.264 48.657 110.152 48.657C110.039 48.657 109.935 48.6483 109.84 48.631C109.84 49.0903 109.84 49.5107 109.84 49.892C109.84 50.2733 109.835 50.6417 109.827 50.997C109.818 51.3437 109.809 51.6903 109.801 52.037C109.792 52.3837 109.779 52.752 109.762 53.142C109.753 53.35 109.731 53.5103 109.697 53.623C109.671 53.7357 109.632 53.8223 109.58 53.883C109.528 53.9437 109.467 53.9827 109.398 54C109.337 54.0087 109.263 54.013 109.177 54.013C109.021 54.013 108.886 53.961 108.774 53.857C108.67 53.7443 108.609 53.5103 108.592 53.155ZM118.881 54.052C118.742 54.052 118.629 54.0303 118.543 53.987C118.465 53.935 118.404 53.87 118.361 53.792C118.317 53.714 118.287 53.623 118.27 53.519C118.252 53.4063 118.239 53.2893 118.231 53.168C118.014 53.4367 117.732 53.662 117.386 53.844C117.048 54.026 116.614 54.117 116.086 54.117C115.748 54.117 115.401 54.0693 115.046 53.974C114.699 53.87 114.383 53.6967 114.097 53.454C113.811 53.2027 113.577 52.869 113.395 52.453C113.213 52.037 113.122 51.5127 113.122 50.88C113.122 50.386 113.182 49.9223 113.304 49.489C113.425 49.0557 113.607 48.6787 113.85 48.358C114.101 48.0287 114.413 47.7687 114.786 47.578C115.158 47.3873 115.596 47.292 116.099 47.292C116.541 47.292 116.935 47.3743 117.282 47.539C117.628 47.695 117.94 47.955 118.218 48.319C118.218 48.215 118.222 48.111 118.231 48.007C118.239 47.8943 118.261 47.7947 118.296 47.708C118.339 47.6127 118.404 47.539 118.491 47.487C118.577 47.4263 118.694 47.396 118.842 47.396C118.972 47.396 119.093 47.448 119.206 47.552C119.318 47.656 119.383 47.8813 119.401 48.228C119.427 48.6873 119.444 49.099 119.453 49.463C119.47 49.827 119.479 50.204 119.479 50.594C119.479 51.0707 119.474 51.5083 119.466 51.907C119.457 52.3057 119.435 52.7303 119.401 53.181C119.383 53.3803 119.357 53.5407 119.323 53.662C119.297 53.7747 119.262 53.8613 119.219 53.922C119.175 53.974 119.123 54.0087 119.063 54.026C119.002 54.0433 118.941 54.052 118.881 54.052ZM118.179 50.75C118.179 50.2993 118.109 49.931 117.971 49.645C117.841 49.359 117.672 49.138 117.464 48.982C117.264 48.8173 117.048 48.7047 116.814 48.644C116.58 48.5833 116.363 48.553 116.164 48.553C115.852 48.553 115.583 48.6093 115.358 48.722C115.141 48.8347 114.963 48.9907 114.825 49.19C114.686 49.3807 114.582 49.6103 114.513 49.879C114.452 50.139 114.422 50.425 114.422 50.737C114.422 51.4997 114.586 52.063 114.916 52.427C115.254 52.791 115.709 52.973 116.281 52.973C116.619 52.973 116.905 52.9167 117.139 52.804C117.381 52.6827 117.576 52.5223 117.724 52.323C117.88 52.1237 117.992 51.8897 118.062 51.621C118.14 51.3437 118.179 51.0533 118.179 50.75ZM130.973 53.337C130.887 53.129 130.791 52.8907 130.687 52.622C130.592 52.3447 130.488 52.0543 130.375 51.751C130.115 51.7597 129.842 51.7683 129.556 51.777C129.27 51.777 128.98 51.777 128.685 51.777C128.313 51.777 127.975 51.777 127.671 51.777C127.368 51.777 127.091 51.7727 126.839 51.764C126.735 52.0673 126.636 52.3533 126.54 52.622C126.445 52.8907 126.354 53.129 126.267 53.337C126.094 53.779 125.843 54 125.513 54C125.392 54 125.275 53.961 125.162 53.883C125.058 53.805 125.006 53.6923 125.006 53.545C125.006 53.3977 125.032 53.207 125.084 52.973C125.136 52.7303 125.201 52.4747 125.279 52.206C125.366 51.9287 125.457 51.647 125.552 51.361C125.648 51.0663 125.739 50.7933 125.825 50.542C125.912 50.2647 126.033 49.9137 126.189 49.489C126.354 49.0557 126.527 48.605 126.709 48.137C126.891 47.669 127.073 47.2097 127.255 46.759C127.437 46.2997 127.602 45.901 127.749 45.563C127.784 45.4763 127.827 45.381 127.879 45.277C127.931 45.1643 127.992 45.0603 128.061 44.965C128.139 44.8697 128.222 44.7873 128.308 44.718C128.404 44.6487 128.508 44.614 128.62 44.614C128.733 44.614 128.837 44.653 128.932 44.731C129.028 44.8003 129.11 44.887 129.179 44.991C129.257 45.095 129.322 45.2033 129.374 45.316C129.435 45.4287 129.483 45.5283 129.517 45.615C129.656 45.9617 129.812 46.3603 129.985 46.811C130.167 47.2617 130.345 47.7167 130.518 48.176C130.7 48.6353 130.869 49.073 131.025 49.489C131.181 49.905 131.307 50.256 131.402 50.542C131.48 50.7933 131.567 51.062 131.662 51.348C131.766 51.634 131.862 51.9157 131.948 52.193C132.035 52.4703 132.104 52.7303 132.156 52.973C132.217 53.207 132.247 53.3977 132.247 53.545C132.247 53.6923 132.191 53.805 132.078 53.883C131.974 53.961 131.862 54 131.74 54C131.584 54 131.441 53.948 131.311 53.844C131.181 53.7313 131.069 53.5623 130.973 53.337ZM128.672 50.477C128.88 50.477 129.088 50.4813 129.296 50.49C129.504 50.49 129.712 50.4943 129.92 50.503C129.816 50.1997 129.712 49.8963 129.608 49.593C129.504 49.2897 129.405 48.9993 129.309 48.722C129.223 48.4447 129.14 48.189 129.062 47.955C128.993 47.7123 128.932 47.5 128.88 47.318C128.846 47.2053 128.807 47.1143 128.763 47.045C128.72 46.9757 128.664 46.941 128.594 46.941C128.525 46.941 128.469 46.98 128.425 47.058C128.382 47.1273 128.343 47.2183 128.308 47.331C128.204 47.6863 128.057 48.15 127.866 48.722C127.684 49.2853 127.489 49.879 127.281 50.503C127.515 50.4943 127.749 50.49 127.983 50.49C128.217 50.4813 128.447 50.477 128.672 50.477ZM138.132 44.198C138.063 44.3453 137.989 44.536 137.911 44.77C137.842 44.9953 137.777 45.2293 137.716 45.472C137.656 45.7147 137.612 45.9313 137.586 46.122H136.455V46.005C136.499 45.849 136.572 45.654 136.676 45.42C136.78 45.186 136.902 44.9477 137.04 44.705C137.188 44.4537 137.339 44.2327 137.495 44.042H138.132V44.198ZM136.988 46.902C137.448 46.902 137.859 46.9887 138.223 47.162C138.596 47.3353 138.912 47.5997 139.172 47.955H139.237L139.393 47.032H140.303V54.117C140.303 55.1137 140.048 55.8633 139.536 56.366C139.034 56.8687 138.249 57.12 137.183 57.12C136.161 57.12 135.324 56.9727 134.674 56.678V55.625C135.359 55.989 136.217 56.171 137.248 56.171C137.846 56.171 138.314 55.9933 138.652 55.638C138.999 55.2913 139.172 54.8147 139.172 54.208V53.935C139.172 53.831 139.177 53.6837 139.185 53.493C139.194 53.2937 139.203 53.155 139.211 53.077H139.159C138.691 53.779 137.972 54.13 137.001 54.13C136.1 54.13 135.394 53.8137 134.882 53.181C134.38 52.5483 134.128 51.6643 134.128 50.529C134.128 49.4197 134.38 48.54 134.882 47.89C135.394 47.2313 136.096 46.902 136.988 46.902ZM137.144 47.864C136.564 47.864 136.113 48.098 135.792 48.566C135.472 49.0253 135.311 49.684 135.311 50.542C135.311 51.4 135.467 52.0587 135.779 52.518C136.1 52.9687 136.564 53.194 137.17 53.194C137.872 53.194 138.384 53.0077 138.704 52.635C139.025 52.2537 139.185 51.6427 139.185 50.802V50.529C139.185 49.5757 139.021 48.8953 138.691 48.488C138.362 48.072 137.846 47.864 137.144 47.864ZM146.117 51.608C145.814 51.608 145.493 51.5863 145.155 51.543C144.826 51.491 144.466 51.387 144.076 51.231C144.154 51.7597 144.371 52.1583 144.726 52.427C145.09 52.6957 145.61 52.83 146.286 52.83C146.529 52.83 146.746 52.817 146.936 52.791C147.136 52.7563 147.309 52.7217 147.456 52.687C147.604 52.6437 147.734 52.609 147.846 52.583C147.959 52.5483 148.063 52.531 148.158 52.531C148.28 52.531 148.397 52.57 148.509 52.648C148.622 52.7173 148.678 52.8387 148.678 53.012C148.678 53.2287 148.587 53.4063 148.405 53.545C148.232 53.6837 148.015 53.7963 147.755 53.883C147.504 53.961 147.235 54.013 146.949 54.039C146.663 54.0737 146.412 54.091 146.195 54.091C145.684 54.091 145.212 54.0217 144.778 53.883C144.354 53.7443 143.985 53.5363 143.673 53.259C143.361 52.973 143.119 52.622 142.945 52.206C142.772 51.79 142.685 51.3047 142.685 50.75C142.685 50.2127 142.768 49.736 142.932 49.32C143.106 48.904 143.34 48.553 143.634 48.267C143.929 47.981 144.276 47.7643 144.674 47.617C145.082 47.4697 145.519 47.396 145.987 47.396C146.351 47.396 146.702 47.4437 147.04 47.539C147.387 47.6343 147.69 47.7773 147.95 47.968C148.219 48.1587 148.431 48.4013 148.587 48.696C148.752 48.982 148.834 49.32 148.834 49.71C148.834 50.0567 148.769 50.3513 148.639 50.594C148.509 50.8367 148.323 51.0317 148.08 51.179C147.846 51.3263 147.56 51.4347 147.222 51.504C146.893 51.5733 146.525 51.608 146.117 51.608ZM146.026 48.592C145.792 48.592 145.567 48.6223 145.35 48.683C145.134 48.735 144.934 48.826 144.752 48.956C144.579 49.0773 144.432 49.242 144.31 49.45C144.189 49.6493 144.107 49.9007 144.063 50.204C144.393 50.3513 144.713 50.4553 145.025 50.516C145.337 50.568 145.667 50.594 146.013 50.594C146.525 50.594 146.902 50.5333 147.144 50.412C147.396 50.282 147.521 50.0523 147.521 49.723C147.521 49.4197 147.404 49.1553 147.17 48.93C146.945 48.7047 146.564 48.592 146.026 48.592ZM154.036 48.462C153.716 48.462 153.425 48.514 153.165 48.618C152.914 48.722 152.628 48.878 152.307 49.086C152.307 49.268 152.307 49.5367 152.307 49.892C152.307 50.2387 152.303 50.62 152.294 51.036C152.286 51.4433 152.277 51.8463 152.268 52.245C152.26 52.6437 152.242 52.9773 152.216 53.246C152.199 53.4193 152.177 53.558 152.151 53.662C152.134 53.7573 152.104 53.831 152.06 53.883C152.026 53.935 151.974 53.9697 151.904 53.987C151.844 53.9957 151.761 54 151.657 54C151.553 54 151.467 53.9957 151.397 53.987C151.337 53.9697 151.285 53.9393 151.241 53.896C151.198 53.844 151.163 53.7703 151.137 53.675C151.111 53.5797 151.09 53.4497 151.072 53.285C151.055 53.129 151.038 52.921 151.02 52.661C151.012 52.401 151.003 52.1193 150.994 51.816C150.986 51.504 150.977 51.192 150.968 50.88C150.968 50.5593 150.968 50.2647 150.968 49.996C150.968 49.554 150.973 49.1943 150.981 48.917C150.999 48.6397 151.025 48.3927 151.059 48.176C151.111 47.812 151.181 47.5823 151.267 47.487C151.354 47.3917 151.471 47.344 151.618 47.344C151.835 47.344 151.995 47.4047 152.099 47.526C152.212 47.6473 152.281 47.8467 152.307 48.124C152.628 47.8467 152.97 47.6257 153.334 47.461C153.707 47.2963 154.088 47.214 154.478 47.214C154.851 47.214 155.189 47.3007 155.492 47.474C155.804 47.6473 156.06 47.929 156.259 48.319C156.381 48.553 156.472 48.813 156.532 49.099C156.593 49.3763 156.636 49.671 156.662 49.983C156.671 50.1217 156.68 50.2603 156.688 50.399C156.697 50.529 156.701 50.672 156.701 50.828C156.71 50.9753 156.714 51.1443 156.714 51.335C156.714 51.5257 156.714 51.751 156.714 52.011C156.714 52.2883 156.71 52.5483 156.701 52.791C156.693 53.0337 156.667 53.246 156.623 53.428C156.589 53.6013 156.524 53.74 156.428 53.844C156.333 53.9393 156.203 53.987 156.038 53.987C155.64 53.987 155.432 53.7963 155.414 53.415C155.414 53.389 155.414 53.2807 155.414 53.09C155.414 52.8907 155.41 52.661 155.401 52.401C155.401 52.141 155.397 51.8767 155.388 51.608C155.388 51.3393 155.384 51.1183 155.375 50.945C155.367 50.8063 155.354 50.659 155.336 50.503C155.328 50.3383 155.31 50.1737 155.284 50.009C155.267 49.8443 155.241 49.6883 155.206 49.541C155.172 49.385 155.128 49.2463 155.076 49.125C154.955 48.839 154.803 48.657 154.621 48.579C154.439 48.501 154.244 48.462 154.036 48.462ZM160.055 53.155C160.029 52.609 160.012 51.9633 160.003 51.218C160.003 50.464 160.003 49.6103 160.003 48.657C159.917 48.6657 159.813 48.67 159.691 48.67C159.579 48.67 159.488 48.67 159.418 48.67C159.262 48.67 159.119 48.6657 158.989 48.657C158.868 48.6483 158.76 48.6223 158.664 48.579C158.569 48.5357 158.495 48.475 158.443 48.397C158.391 48.3103 158.365 48.1933 158.365 48.046C158.365 47.63 158.677 47.422 159.301 47.422C159.397 47.422 159.514 47.422 159.652 47.422C159.791 47.422 159.908 47.4307 160.003 47.448C160.003 46.9887 160.012 46.6203 160.029 46.343C160.047 46.0657 160.077 45.8533 160.12 45.706C160.172 45.55 160.237 45.4503 160.315 45.407C160.402 45.355 160.51 45.329 160.64 45.329C160.779 45.329 160.892 45.3767 160.978 45.472C161.065 45.5673 161.13 45.6887 161.173 45.836C161.225 45.9833 161.256 46.148 161.264 46.33C161.282 46.512 161.29 46.6897 161.29 46.863C161.29 46.9843 161.286 47.097 161.277 47.201C161.277 47.2963 161.277 47.383 161.277 47.461C161.399 47.4263 161.524 47.409 161.654 47.409C161.784 47.4003 161.91 47.396 162.031 47.396C162.352 47.396 162.599 47.448 162.772 47.552C162.946 47.6473 163.032 47.8077 163.032 48.033C163.032 48.1717 163.002 48.2843 162.941 48.371C162.881 48.449 162.798 48.5097 162.694 48.553C162.599 48.5963 162.482 48.6267 162.343 48.644C162.213 48.6527 162.07 48.657 161.914 48.657C161.828 48.657 161.728 48.657 161.615 48.657C161.503 48.657 161.399 48.6483 161.303 48.631C161.303 49.0903 161.303 49.5107 161.303 49.892C161.303 50.2733 161.299 50.6417 161.29 50.997C161.282 51.3437 161.273 51.6903 161.264 52.037C161.256 52.3837 161.243 52.752 161.225 53.142C161.217 53.35 161.195 53.5103 161.16 53.623C161.134 53.7357 161.095 53.8223 161.043 53.883C160.991 53.9437 160.931 53.9827 160.861 54C160.801 54.0087 160.727 54.013 160.64 54.013C160.484 54.013 160.35 53.961 160.237 53.857C160.133 53.7443 160.073 53.5103 160.055 53.155ZM171.15 47.032V54H170.214L170.045 53.077H169.993C169.768 53.441 169.456 53.7097 169.057 53.883C168.659 54.0477 168.234 54.13 167.783 54.13C166.943 54.13 166.31 53.9307 165.885 53.532C165.461 53.1247 165.248 52.479 165.248 51.595V47.032H166.405V51.517C166.405 52.6263 166.921 53.181 167.952 53.181C168.724 53.181 169.257 52.9643 169.551 52.531C169.855 52.0977 170.006 51.4737 170.006 50.659V47.032H171.15ZM170.162 45.199V46.122H166.301V45.199H170.162ZM174.025 53.207C173.991 52.9037 173.969 52.5353 173.96 52.102C173.952 51.6687 173.947 51.1443 173.947 50.529C173.947 49.9223 173.947 49.4327 173.947 49.06C173.956 48.6873 173.982 48.358 174.025 48.072C174.069 47.7167 174.134 47.487 174.22 47.383C174.316 47.279 174.437 47.227 174.584 47.227C174.688 47.227 174.779 47.2357 174.857 47.253C174.944 47.2703 175.018 47.3093 175.078 47.37C175.148 47.422 175.2 47.5 175.234 47.604C175.269 47.708 175.286 47.851 175.286 48.033C175.286 48.0677 175.291 48.1023 175.299 48.137C175.299 48.1717 175.299 48.2107 175.299 48.254C175.308 48.2887 175.312 48.332 175.312 48.384C175.546 48.0893 175.811 47.838 176.105 47.63C176.409 47.422 176.751 47.318 177.132 47.318C177.644 47.318 177.899 47.5303 177.899 47.955C177.899 48.111 177.865 48.241 177.795 48.345C177.735 48.449 177.644 48.5357 177.522 48.605C177.41 48.6657 177.275 48.7133 177.119 48.748C176.972 48.7827 176.807 48.8173 176.625 48.852C176.348 48.904 176.088 49.0037 175.845 49.151C175.603 49.2897 175.438 49.4673 175.351 49.684C175.351 49.8487 175.351 49.97 175.351 50.048C175.36 50.126 175.364 50.191 175.364 50.243C175.373 50.295 175.377 50.3513 175.377 50.412C175.377 50.4727 175.377 50.568 175.377 50.698C175.377 51.14 175.369 51.556 175.351 51.946C175.334 52.3273 175.317 52.7433 175.299 53.194C175.291 53.402 175.265 53.5623 175.221 53.675C175.187 53.7877 175.139 53.8743 175.078 53.935C175.026 53.9957 174.966 54.0303 174.896 54.039C174.827 54.0563 174.758 54.065 174.688 54.065C174.446 54.065 174.281 54.013 174.194 53.909C174.116 53.7963 174.06 53.5623 174.025 53.207ZM184.974 54.052C184.835 54.052 184.723 54.0303 184.636 53.987C184.558 53.935 184.497 53.87 184.454 53.792C184.411 53.714 184.38 53.623 184.363 53.519C184.346 53.4063 184.333 53.2893 184.324 53.168C184.107 53.4367 183.826 53.662 183.479 53.844C183.141 54.026 182.708 54.117 182.179 54.117C181.841 54.117 181.494 54.0693 181.139 53.974C180.792 53.87 180.476 53.6967 180.19 53.454C179.904 53.2027 179.67 52.869 179.488 52.453C179.306 52.037 179.215 51.5127 179.215 50.88C179.215 50.386 179.276 49.9223 179.397 49.489C179.518 49.0557 179.7 48.6787 179.943 48.358C180.194 48.0287 180.506 47.7687 180.879 47.578C181.252 47.3873 181.689 47.292 182.192 47.292C182.634 47.292 183.028 47.3743 183.375 47.539C183.722 47.695 184.034 47.955 184.311 48.319C184.311 48.215 184.315 48.111 184.324 48.007C184.333 47.8943 184.354 47.7947 184.389 47.708C184.432 47.6127 184.497 47.539 184.584 47.487C184.671 47.4263 184.788 47.396 184.935 47.396C185.065 47.396 185.186 47.448 185.299 47.552C185.412 47.656 185.477 47.8813 185.494 48.228C185.52 48.6873 185.537 49.099 185.546 49.463C185.563 49.827 185.572 50.204 185.572 50.594C185.572 51.0707 185.568 51.5083 185.559 51.907C185.55 52.3057 185.529 52.7303 185.494 53.181C185.477 53.3803 185.451 53.5407 185.416 53.662C185.39 53.7747 185.355 53.8613 185.312 53.922C185.269 53.974 185.217 54.0087 185.156 54.026C185.095 54.0433 185.035 54.052 184.974 54.052ZM184.272 50.75C184.272 50.2993 184.203 49.931 184.064 49.645C183.934 49.359 183.765 49.138 183.557 48.982C183.358 48.8173 183.141 48.7047 182.907 48.644C182.673 48.5833 182.456 48.553 182.257 48.553C181.945 48.553 181.676 48.6093 181.451 48.722C181.234 48.8347 181.057 48.9907 180.918 49.19C180.779 49.3807 180.675 49.6103 180.606 49.879C180.545 50.139 180.515 50.425 180.515 50.737C180.515 51.4997 180.68 52.063 181.009 52.427C181.347 52.791 181.802 52.973 182.374 52.973C182.712 52.973 182.998 52.9167 183.232 52.804C183.475 52.6827 183.67 52.5223 183.817 52.323C183.973 52.1237 184.086 51.8897 184.155 51.621C184.233 51.3437 184.272 51.0533 184.272 50.75Z" fill="#F4522F" fill-opacity="0.41"/>
<g clip-path="url(#clip0)">
<path d="M26.7983 48.7421C26.5091 48.7421 26.2199 48.6314 25.9985 48.4122L11.4776 33.8913C11.0528 33.4666 11.0347 32.7865 11.4324 32.3392L22.3157 20.1477C29.923 11.2481 42.311 5.48895 53.113 5.67196C53.7162 5.68552 54.202 6.17128 54.2156 6.77453C54.4664 17.5833 48.6417 29.9646 39.7195 37.5876L27.5484 48.4551C27.336 48.6472 27.0649 48.7421 26.7983 48.7421ZM13.8296 33.0486L26.8412 46.0602L38.2351 35.8886C46.3824 28.9253 51.7935 17.8273 51.9607 7.92906C42.0625 8.09399 30.9668 13.5052 24.017 21.6343L13.8296 33.0486Z" fill="#F4522F"/>
<path d="M31.125 57.0116C31.0165 57.0116 30.9058 56.9957 30.8019 56.9619C30.3952 56.8263 30.0608 56.5145 30.0021 56.0897L28.4521 45.2742C28.364 44.6574 28.7933 44.0858 29.4101 43.9954C30.0269 43.8982 30.5985 44.3343 30.6889 44.9534L31.8999 53.4034C35.8583 48.67 38.0589 42.6692 38.0589 36.5508C38.0589 35.9272 38.565 35.4211 39.1886 35.4211C39.8122 35.4211 40.3183 35.9272 40.3183 36.5508C40.3183 44.0361 37.2862 51.3632 31.9993 56.6478C31.7734 56.8737 31.4435 57.0116 31.125 57.0116Z" fill="#F4522F"/>
<path d="M14.7785 31.4492C14.7265 31.4492 14.6723 31.447 14.6181 31.4379L3.80251 29.888C3.37775 29.827 3.02303 29.531 2.88973 29.1221C2.75643 28.7154 2.86488 28.2658 3.16989 27.9653C8.53135 22.6038 15.8562 19.5718 23.3414 19.5718C23.965 19.5718 24.4711 20.0779 24.4711 20.7015C24.4711 21.325 23.965 21.8311 23.3414 21.8311C17.1937 21.8311 11.1612 24.0521 6.47759 27.9879L14.9389 29.2012C15.5557 29.2915 15.985 29.8609 15.8968 30.48C15.8133 31.0425 15.3298 31.4492 14.7785 31.4492Z" fill="#F4522F"/>
<path d="M38.7096 26.8265C37.2613 26.8265 35.8153 26.2752 34.715 25.1749C32.5144 22.9721 32.5144 19.3887 34.715 17.1858C36.9179 14.983 40.5012 14.983 42.7041 17.1858C44.9047 19.3887 44.9047 22.9721 42.7041 25.1749C41.6016 26.2775 40.1556 26.8265 38.7096 26.8265ZM38.7096 17.7936C37.842 17.7936 36.9721 18.1235 36.3124 18.7832C34.9929 20.1049 34.9929 22.2558 36.3124 23.5776C37.6341 24.897 39.785 24.8948 41.1068 23.5776C42.4262 22.2558 42.4262 20.1049 41.1068 18.7832C40.4448 18.1257 39.5772 17.7936 38.7096 17.7936ZM41.9043 24.3774H41.9269H41.9043Z" fill="#F4522F"/>
<path d="M1.12968 59.89C0.833701 59.89 0.546763 59.7747 0.329865 59.5601C0.0361483 59.2664 -0.0723009 58.8348 0.047445 58.4372C0.41798 57.2013 3.73698 46.2796 6.15449 43.8621C8.87701 41.1396 13.3076 41.1373 16.0301 43.8621C18.7527 46.5846 18.7527 51.0152 16.0301 53.7377C13.6126 56.1552 2.69089 59.4742 1.45502 59.8448C1.34658 59.8741 1.23813 59.89 1.12968 59.89ZM11.0934 44.0767C9.88243 44.0767 8.67367 44.5376 7.75185 45.4572C6.4482 46.7631 4.27922 52.5945 2.84679 57.0432C7.2932 55.6107 13.1269 53.4418 14.4305 52.1381C16.2719 50.2967 16.2719 47.2986 14.4305 45.4572C13.511 44.5376 12.3022 44.0767 11.0934 44.0767Z" fill="#F4522F"/>
</g>
<defs>
<clipPath id="clip0">
<rect width="54.2246" height="54.2246" fill="white" transform="translate(0 5.66528)"/>
</clipPath>
</defs>
</svg>
