<svg width="46" height="46" viewBox="0 0 46 46" fill="none" xmlns="http://www.w3.org/2000/svg">
<g clip-path="url(#clip0)">
<path d="M9.61325 17.0703C9.61325 24.5014 15.6588 30.5469 23.0898 30.5469C30.5209 30.5469 36.5664 24.5014 36.5664 17.0703C36.5664 9.63926 30.5209 3.59375 23.0898 3.59375C15.6588 3.59375 9.61325 9.63926 9.61325 17.0703ZM23.0898 5.39063C29.5302 5.39063 34.7695 10.63 34.7695 17.0703C34.7695 23.5107 29.5302 28.75 23.0898 28.75C16.6495 28.75 11.4101 23.5107 11.4101 17.0703C11.4101 10.63 16.6495 5.39063 23.0898 5.39063Z" fill="#F4522F"/>
<path d="M14.7695 15.4685L18.252 18.8998L17.4507 23.7222C17.3949 24.0581 17.5336 24.3964 17.8091 24.5965C18.0842 24.7965 18.4488 24.8235 18.751 24.667L23.0899 22.4139L27.4283 24.667C27.728 24.8225 28.0927 24.7983 28.3703 24.5965C28.6458 24.3964 28.7844 24.0581 28.7286 23.7222L27.9274 18.8998L31.4099 15.4685C31.6524 15.2299 31.7391 14.8747 31.6338 14.5508C31.5285 14.2272 31.2495 13.991 30.9129 13.9401L26.08 13.2126L23.8932 8.83937C23.7412 8.5351 23.4299 8.34277 23.0899 8.34277C22.7494 8.34277 22.4385 8.5351 22.2862 8.83937L20.0994 13.2126L15.2664 13.9401C14.9298 13.9907 14.6508 14.2272 14.5455 14.5508C14.4403 14.8747 14.5273 15.2299 14.7695 15.4685ZM20.8283 14.92C21.1175 14.8765 21.3674 14.695 21.4983 14.4336L23.0899 11.2501L24.6814 14.4336C24.8123 14.695 25.0622 14.8765 25.3514 14.92L28.869 15.4496L26.3341 17.9466C26.1259 18.1519 26.0305 18.4457 26.0782 18.7341L26.6615 22.244L23.5036 20.6044C23.3741 20.537 23.232 20.5033 23.0899 20.5033C22.9477 20.5033 22.8056 20.537 22.6757 20.6044L19.5179 22.244L20.1011 18.7341C20.1492 18.4457 20.0538 18.1519 19.8453 17.9466L17.3107 15.4496L20.8283 14.92Z" fill="#F4522F"/>
<path d="M23.9883 0.898439C23.9883 1.39469 23.5861 1.79688 23.0898 1.79688C22.5936 1.79688 22.1914 1.39469 22.1914 0.898439C22.1914 0.402192 22.5936 0 23.0898 0C23.5861 0 23.9883 0.402192 23.9883 0.898439Z" fill="#F4522F"/>
<path d="M18.8556 0.529639C11.2978 2.45882 6.0195 9.26063 6.0195 17.0704C6.0195 21.9209 8.05889 26.4913 11.639 29.7282L6.22621 39.2674C6.05214 39.5745 6.0739 39.9549 6.28166 40.2399C6.48943 40.5252 6.84459 40.6625 7.19028 40.5905L13.3372 39.3141L15.4977 45.4021C15.6149 45.7334 15.915 45.9653 16.2652 45.9966C16.6155 46.0278 16.9513 45.8513 17.125 45.5456L23.0898 35.0591L29.0543 45.5456C29.215 45.8281 29.514 45.9997 29.8348 45.9997C29.8611 45.9997 29.8878 45.9987 29.9141 45.9966C30.2644 45.9653 30.5644 45.733 30.682 45.4021L32.8421 39.3141L38.989 40.5905C39.3344 40.6621 39.6899 40.5249 39.8977 40.2399C40.1058 39.9549 40.1272 39.5745 39.9531 39.2674L34.5404 29.7282C38.1204 26.4913 40.1598 21.9209 40.1598 17.0704C40.1598 9.26063 34.8815 2.45882 27.3241 0.529639C26.8429 0.406806 26.354 0.697043 26.2312 1.17785C26.1084 1.65865 26.3986 2.14788 26.8794 2.27071C33.6409 3.9967 38.3633 10.0826 38.3633 17.0704C38.3633 25.575 31.4562 32.3438 23.0898 32.3438C14.7175 32.3438 7.81638 25.5694 7.81638 17.0704C7.81638 10.0826 12.5384 3.9967 19.2999 2.27071C19.7807 2.14788 20.0709 1.65865 19.9485 1.17785C19.8256 0.697043 19.3368 0.406806 18.8556 0.529639ZM16.5344 42.9503L14.7688 37.9749C14.6185 37.5516 14.1792 37.3042 13.7394 37.3954L8.76886 38.4276L13.0526 30.8779C15.5503 32.6937 18.5078 33.7999 21.5832 34.0737L16.5344 42.9503ZM32.4399 37.3954C32.0005 37.3042 31.5608 37.5516 31.4106 37.9749L29.6453 42.9503L24.5961 34.0737C27.6719 33.7999 30.629 32.6937 33.1271 30.8779L37.4108 38.4276L32.4399 37.3954Z" fill="#F4522F"/>
</g>
<defs>
<clipPath id="clip0">
<rect width="46" height="46" fill="white"/>
</clipPath>
</defs>
</svg>
