<svg width="78" height="78" viewBox="0 0 78 78" fill="none" xmlns="http://www.w3.org/2000/svg">
<path d="M60.0811 34.2885C59.8015 34.2885 59.5334 34.1774 59.3358 33.9797C59.1381 33.7821 59.027 33.514 59.027 33.2344V30.1039C59.027 29.8243 59.1381 29.5562 59.3358 29.3585C59.5334 29.1609 59.8015 29.0498 60.0811 29.0498C60.3606 29.0498 60.6287 29.1609 60.8264 29.3585C61.0241 29.5562 61.1351 29.8243 61.1351 30.1039V33.2344C61.1351 33.514 61.0241 33.7821 60.8264 33.9797C60.6287 34.1774 60.3606 34.2885 60.0811 34.2885Z" fill="#F4522F"/>
<path d="M56.9189 75.8919H21.0811C19.9629 75.8919 18.8905 75.4477 18.0998 74.657C17.3091 73.8663 16.8649 72.7939 16.8649 71.6757V6.32437C16.8649 5.20616 17.3091 4.13375 18.0998 3.34306C18.8905 2.55236 19.9629 2.10815 21.0811 2.10815H56.9189C58.0371 2.10815 59.1095 2.55236 59.9002 3.34306C60.6909 4.13375 61.1351 5.20616 61.1351 6.32437V22.7255C61.1351 23.005 61.0241 23.2731 60.8264 23.4708C60.6287 23.6685 60.3606 23.7795 60.0811 23.7795C59.8015 23.7795 59.5334 23.6685 59.3358 23.4708C59.1381 23.2731 59.027 23.005 59.027 22.7255V6.32437C59.027 5.76527 58.8049 5.22906 58.4096 4.83371C58.0142 4.43837 57.478 4.21626 56.9189 4.21626H21.0811C20.522 4.21626 19.9858 4.43837 19.5904 4.83371C19.1951 5.22906 18.973 5.76527 18.973 6.32437V71.6757C18.973 72.2348 19.1951 72.771 19.5904 73.1664C19.9858 73.5617 20.522 73.7838 21.0811 73.7838H56.9189C57.478 73.7838 58.0142 73.5617 58.4096 73.1664C58.8049 72.771 59.027 72.2348 59.027 71.6757V51.0584C59.027 50.7789 59.1381 50.5108 59.3358 50.3131C59.5334 50.1154 59.8015 50.0044 60.0811 50.0044C60.3606 50.0044 60.6287 50.1154 60.8264 50.3131C61.0241 50.5108 61.1351 50.7789 61.1351 51.0584V71.6757C61.1351 72.7939 60.6909 73.8663 59.9002 74.657C59.1095 75.4477 58.0371 75.8919 56.9189 75.8919Z" fill="#F4522F"/>
<path d="M60.0811 44.734C59.8015 44.734 59.5334 44.623 59.3358 44.4253C59.1381 44.2276 59.027 43.9595 59.027 43.6799V40.6126C59.027 40.3331 59.1381 40.065 59.3358 39.8673C59.5334 39.6696 59.8015 39.5586 60.0811 39.5586C60.3606 39.5586 60.6287 39.6696 60.8264 39.8673C61.0241 40.065 61.1351 40.3331 61.1351 40.6126V43.6799C61.1351 43.9595 61.0241 44.2276 60.8264 44.4253C60.6287 44.623 60.3606 44.734 60.0811 44.734Z" fill="#F4522F"/>
<path d="M60.0811 14.7568H17.9189C17.6394 14.7568 17.3713 14.6457 17.1736 14.4481C16.9759 14.2504 16.8649 13.9823 16.8649 13.7027C16.8649 13.4232 16.9759 13.1551 17.1736 12.9574C17.3713 12.7597 17.6394 12.6487 17.9189 12.6487H60.0811C60.3606 12.6487 60.6287 12.7597 60.8264 12.9574C61.0241 13.1551 61.1351 13.4232 61.1351 13.7027C61.1351 13.9823 61.0241 14.2504 60.8264 14.4481C60.6287 14.6457 60.3606 14.7568 60.0811 14.7568Z" fill="#F4522F"/>
<path d="M60.0811 61.5778H17.9189C17.6394 61.5778 17.3713 61.4668 17.1736 61.2691C16.9759 61.0714 16.8649 60.8033 16.8649 60.5238C16.8649 60.2442 16.9759 59.9761 17.1736 59.7785C17.3713 59.5808 17.6394 59.4697 17.9189 59.4697H60.0811C60.3606 59.4697 60.6287 59.5808 60.8264 59.7785C61.0241 59.9761 61.1351 60.2442 61.1351 60.5238C61.1351 60.8033 61.0241 61.0714 60.8264 61.2691C60.6287 61.4668 60.3606 61.5778 60.0811 61.5778Z" fill="#F4522F"/>
<path d="M42.92 9.48653H35.08C34.8004 9.48653 34.5323 9.37547 34.3346 9.1778C34.137 8.98013 34.0259 8.71202 34.0259 8.43247C34.0259 8.15292 34.137 7.88482 34.3346 7.68714C34.5323 7.48947 34.8004 7.37842 35.08 7.37842H42.92C43.1996 7.37842 43.4677 7.48947 43.6654 7.68714C43.863 7.88482 43.9741 8.15292 43.9741 8.43247C43.9741 8.71202 43.863 8.98013 43.6654 9.1778C43.4677 9.37547 43.1996 9.48653 42.92 9.48653Z" fill="#F4522F"/>
<path d="M41.789 71.0433H36.211C35.3302 71.0277 34.4908 70.6669 33.8734 70.0385C33.2561 69.4101 32.9102 68.5644 32.9102 67.6835C32.9102 66.8026 33.2561 65.9569 33.8734 65.3286C34.4908 64.7002 35.3302 64.3393 36.211 64.3237H41.789C42.6698 64.3393 43.5092 64.7002 44.1266 65.3286C44.7439 65.9569 45.0899 66.8026 45.0899 67.6835C45.0899 68.5644 44.7439 69.4101 44.1266 70.0385C43.5092 70.6669 42.6698 71.0277 41.789 71.0433ZM36.211 66.4318C35.8853 66.4413 35.5761 66.5773 35.3491 66.811C35.1221 67.0447 34.9951 67.3577 34.9951 67.6835C34.9951 68.0094 35.1221 68.3223 35.3491 68.556C35.5761 68.7898 35.8853 68.9258 36.211 68.9352H41.789C42.1147 68.9258 42.4239 68.7898 42.6509 68.556C42.8779 68.3223 43.0049 68.0094 43.0049 67.6835C43.0049 67.3577 42.8779 67.0447 42.6509 66.811C42.4239 66.5773 42.1147 66.4413 41.789 66.4318H36.211Z" fill="#F4522F"/>
<path d="M40.7202 52.9241H37.2798C36.94 52.9223 36.6109 52.8049 36.3465 52.5913C36.0822 52.3778 35.8984 52.0807 35.8252 51.7488L35.5153 50.2942C34.3331 49.9831 33.1984 49.5133 32.1423 48.8976L30.8933 49.7061C30.6073 49.8896 30.2673 49.9703 29.9294 49.9349C29.5914 49.8994 29.2756 49.7499 29.0339 49.5111L26.6043 47.0783C26.3645 46.837 26.2143 46.5211 26.1784 46.1828C26.1426 45.8445 26.2233 45.5041 26.4072 45.2179L27.2157 43.9688C26.5997 42.9129 26.1299 41.7782 25.8191 40.5959L24.3666 40.286C24.0343 40.2136 23.7366 40.0302 23.5226 39.766C23.3086 39.5017 23.191 39.1725 23.1892 38.8324V35.3941C23.1908 35.0539 23.3085 34.7244 23.5228 34.4601C23.7371 34.1958 24.0351 34.0126 24.3676 33.9406L25.8243 33.6244C26.1352 32.442 26.605 31.3074 27.2209 30.2514L26.4135 29.0034C26.2292 28.7172 26.1482 28.3767 26.1838 28.0381C26.2195 27.6996 26.3697 27.3834 26.6096 27.1419L29.0402 24.7113C29.2817 24.4714 29.5979 24.3211 29.9365 24.2855C30.275 24.2498 30.6155 24.3309 30.9017 24.5152L32.1497 25.3226C33.2058 24.7069 34.3405 24.2371 35.5227 23.926L35.8326 22.4735C35.9051 22.1412 36.0888 21.8435 36.3532 21.6295C36.6176 21.4155 36.947 21.2979 37.2872 21.2961H40.7276C41.0674 21.298 41.3965 21.4153 41.6608 21.6289C41.9252 21.8425 42.109 22.1396 42.1822 22.4714L42.4921 23.926C43.6743 24.2371 44.8089 24.7069 45.8651 25.3226L47.1141 24.5142C47.4001 24.3306 47.74 24.2499 48.078 24.2854C48.416 24.3208 48.7318 24.4703 48.9735 24.7092L51.4052 27.1419C51.645 27.3832 51.7952 27.6991 51.8311 28.0374C51.8669 28.3757 51.7862 28.7161 51.6023 29.0023L50.7938 30.2514C51.4098 31.3074 51.8796 32.442 52.1904 33.6244L53.6429 33.9342C53.9746 34.0085 54.271 34.1937 54.4833 34.459C54.6956 34.7244 54.8111 35.0543 54.8108 35.3941V38.8324C54.8094 39.173 54.6919 39.5029 54.4776 39.7675C54.2634 40.0322 53.9652 40.2159 53.6324 40.2881L52.1809 40.598C51.8701 41.7803 51.4003 42.915 50.7843 43.971L51.5917 45.219C51.7761 45.5056 51.857 45.8465 51.8212 46.1854C51.7854 46.5243 51.6349 46.8408 51.3946 47.0825L48.9703 49.5068C48.7288 49.7467 48.4126 49.897 48.0741 49.9326C47.7356 49.9683 47.395 49.8872 47.1088 49.7029L45.8514 48.8976C44.7952 49.5133 43.6606 49.9831 42.4784 50.2942L42.1685 51.7467C42.0961 52.078 41.9135 52.3749 41.6504 52.5888C41.3872 52.8027 41.0593 52.9209 40.7202 52.9241ZM37.7826 50.816H40.2174L40.5621 49.2022C40.6046 49.0022 40.7044 48.8189 40.8492 48.6746C40.9941 48.5303 41.1778 48.4313 41.3779 48.3895C42.7735 48.0973 44.1022 47.5471 45.2959 46.7674C45.4666 46.6567 45.6658 46.5977 45.8693 46.5977C46.0728 46.5977 46.2719 46.6567 46.4427 46.7674L47.8298 47.6644L49.5511 45.9431L48.653 44.5581C48.5421 44.3872 48.4831 44.1878 48.4831 43.9841C48.4831 43.7804 48.5421 43.5811 48.653 43.4102C49.434 42.2164 49.9852 40.8873 50.2784 39.4912C50.32 39.2912 50.4189 39.1076 50.563 38.9628C50.7071 38.8179 50.8902 38.7181 51.09 38.6754L52.7027 38.3318V35.8948L51.0889 35.5512C50.8892 35.5085 50.7061 35.4086 50.562 35.2638C50.4179 35.1189 50.319 34.9353 50.2773 34.7353C49.9844 33.3397 49.4335 32.0109 48.653 30.8174C48.5421 30.6465 48.4831 30.4472 48.4831 30.2435C48.4831 30.0398 48.5421 29.8404 48.653 29.6695L49.5511 28.2835L47.8298 26.5622L46.4427 27.4592C46.2719 27.5699 46.0728 27.6288 45.8693 27.6288C45.6658 27.6288 45.4666 27.5699 45.2959 27.4592C44.1022 26.6794 42.7735 26.1293 41.3779 25.837C41.1778 25.7953 40.9941 25.6962 40.8492 25.5519C40.7044 25.4076 40.6046 25.2243 40.5621 25.0243L40.2174 23.4106H37.7826L37.4379 25.0243C37.3954 25.2243 37.2956 25.4076 37.1508 25.5519C37.0059 25.6962 36.8222 25.7953 36.6221 25.837C35.2265 26.1293 33.8978 26.6794 32.7041 27.4592C32.5334 27.5699 32.3342 27.6288 32.1307 27.6288C31.9272 27.6288 31.7281 27.5699 31.5573 27.4592L30.1702 26.5622L28.4489 28.2835L29.347 29.6695C29.4579 29.8404 29.5169 30.0398 29.5169 30.2435C29.5169 30.4472 29.4579 30.6465 29.347 30.8174C28.5661 32.0109 28.0149 33.3396 27.7216 34.7353C27.68 34.9353 27.5811 35.1189 27.437 35.2638C27.2929 35.4086 27.1098 35.5085 26.91 35.5512L25.2973 35.8948V38.3318L26.9111 38.6754C27.1109 38.7181 27.2939 38.8179 27.438 38.9628C27.5821 39.1076 27.681 39.2912 27.7227 39.4912C28.0156 40.8869 28.5665 42.2156 29.347 43.4091C29.4579 43.58 29.5169 43.7794 29.5169 43.9831C29.5169 44.1868 29.4579 44.3861 29.347 44.557L28.4489 45.942L30.1702 47.6633L31.5573 46.7663C31.7281 46.6556 31.9272 46.5967 32.1307 46.5967C32.3342 46.5967 32.5334 46.6556 32.7041 46.7663C33.8978 47.5461 35.2265 48.0962 36.6221 48.3885C36.8222 48.4302 37.0059 48.5293 37.1508 48.6736C37.2956 48.8179 37.3954 49.0012 37.4379 49.2012L37.7826 50.816Z" fill="#F4522F"/>
<path d="M39 45.7765C37.2866 45.7765 35.6116 45.2684 34.1869 44.3165C32.7623 43.3645 31.6519 42.0115 30.9962 40.4285C30.3405 38.8455 30.1689 37.1036 30.5032 35.4231C30.8375 33.7426 31.6626 32.1989 32.8741 30.9874C34.0857 29.7758 35.6294 28.9507 37.3099 28.6164C38.9904 28.2821 40.7323 28.4537 42.3153 29.1094C43.8983 29.7651 45.2513 30.8755 46.2032 32.3002C47.1552 33.7248 47.6633 35.3998 47.6633 37.1132C47.6608 39.4101 46.7472 41.6122 45.1231 43.2363C43.4989 44.8604 41.2969 45.774 39 45.7765ZM39 30.5581C37.7035 30.5581 36.4361 30.9425 35.3581 31.6628C34.2802 32.3831 33.44 33.4069 32.9438 34.6047C32.4477 35.8025 32.3179 37.1205 32.5708 38.3921C32.8237 39.6637 33.448 40.8317 34.3648 41.7484C35.2816 42.6652 36.4496 43.2895 37.7211 43.5424C38.9927 43.7954 40.3108 43.6656 41.5086 43.1694C42.7064 42.6733 43.7301 41.8331 44.4504 40.7551C45.1707 39.6771 45.5552 38.4097 45.5552 37.1132C45.5532 35.3753 44.862 33.7091 43.633 32.4802C42.4041 31.2513 40.7379 30.56 39 30.5581Z" fill="#F4522F"/>
</svg>
