<svg width="185" height="41" viewBox="0 0 185 41" fill="none" xmlns="http://www.w3.org/2000/svg">
<path d="M1.57477 5.98894C3.2484 4.33987 4.87688 2.64544 6.56133 1.00907C6.93325 1.23403 7.27086 1.51159 7.60306 1.79279C9.48791 3.31124 11.9108 4.11491 14.3228 4.1004C16.2366 4.06593 18.1413 3.51805 19.7716 2.50757C20.4811 2.08305 21.104 1.53155 21.7359 1C22.0067 1.21044 22.2703 1.42996 22.5086 1.6785C24.0378 3.24593 25.6085 4.77345 27.1322 6.34633C27.4319 6.5604 27.1756 6.84885 26.9878 7.02119C24.8881 9.01858 22.319 10.5189 19.5441 11.3407C16.0578 12.382 12.2701 12.3766 8.78561 11.3244C6.09373 10.5153 3.60045 9.06575 1.53325 7.15544C1.37257 6.99217 1.19383 6.83071 1.09814 6.61664C1.17397 6.3554 1.40145 6.18305 1.57477 5.98894Z" fill="#F36B22" stroke="#F36B22" stroke-width="0.09375"/>
<path d="M33.7258 2.37478C34.1393 1.88133 34.5311 1.3516 35.0817 1.00146C36.786 2.67956 38.456 4.39394 40.1531 6.0793C40.321 6.27341 40.6081 6.46934 40.4799 6.76686C40.3589 6.95191 40.2145 7.11881 40.0737 7.28753C38.5319 9.06178 37.6562 11.3803 37.5407 13.726C37.4288 16.1588 38.1744 18.6278 39.6296 20.5799C39.913 20.9681 40.2651 21.3037 40.5142 21.7174C40.5323 22.0584 40.2181 22.2562 40.0213 22.4847C38.3531 24.112 36.7571 25.8155 35.0637 27.4138C34.8795 27.2741 34.6917 27.1362 34.5293 26.973C31.4059 23.6095 29.5589 19.0487 29.5734 14.4389C29.4615 10.0904 30.9852 5.73642 33.7258 2.37478Z" fill="#F04E23" stroke="#F04E23" stroke-width="0.09375"/>
<path d="M6.24726 14.4244C6.47113 14.116 6.75097 14.4407 6.9297 14.6076C8.49861 16.175 10.0549 17.7588 11.6292 19.3208C11.7754 19.4786 11.9704 19.6401 11.9415 19.8814C11.8928 20.1371 11.6743 20.3095 11.5281 20.5109C9.94294 22.3359 9.04746 24.7288 8.96802 27.1452C8.89941 29.8248 9.85267 32.5315 11.6455 34.5271C11.8368 34.7266 12.0914 35.0713 11.8278 35.3217C10.3076 36.8837 8.74776 38.4057 7.22579 39.9641C7.00734 40.1836 6.79249 40.4104 6.53973 40.5936C6.296 40.6081 6.14615 40.3705 5.98005 40.2308C2.84405 36.8637 1.03321 32.2993 1.00252 27.6895C0.921278 22.8076 2.80613 17.8876 6.24726 14.4244Z" fill="#E60376" stroke="#E60376" stroke-width="0.09375"/>
<path d="M34.2383 30.2929C34.5019 30.0697 34.7764 29.8575 35.058 29.6543C35.327 29.8829 35.5942 30.1151 35.8415 30.3673C37.4141 31.9692 39.0101 33.5457 40.5844 35.1439C40.5176 35.329 40.4219 35.4941 40.2973 35.641C36.8941 38.9047 32.2127 40.8059 27.5005 40.7497C23.1675 40.8132 18.8454 39.2367 15.5324 36.4393C15.1262 36.0873 14.6857 35.7608 14.377 35.3145C14.386 35.0405 14.6514 34.8881 14.8048 34.6922C16.2817 33.2173 17.7567 31.7406 19.2209 30.253C19.4357 30.0371 19.674 29.8448 19.9124 29.6543C20.4558 30.0824 20.9667 30.5559 21.5463 30.9369C23.7182 32.4046 26.4444 33.0341 29.0333 32.6259C30.938 32.3501 32.7633 31.5356 34.2383 30.2929Z" fill="#DD1936" stroke="#DD1936" stroke-width="0.09375"/>
<path d="M140.426 2.20561C141.43 1.79198 142.652 2.01331 143.436 2.77162C144.358 3.62247 144.581 5.11008 143.965 6.2022C143.398 7.28707 142.069 7.88937 140.883 7.60455C139.599 7.35056 138.608 6.08791 138.675 4.77083C138.668 3.66056 139.417 2.62286 140.426 2.20561Z" fill="#DD1936" stroke="#DD1936" stroke-width="0.09375"/>
<path d="M98.6362 10.9607C101.664 10.0391 104.863 9.49849 108.028 9.84499C109.288 9.98287 110.597 10.333 111.558 11.2092C112.523 12.1054 112.876 13.4715 112.908 14.7523C112.915 19.2296 112.901 23.7052 112.915 28.1825C112.895 28.4601 112.951 28.7631 112.829 29.0243C112.621 29.2529 112.291 29.2075 112.016 29.2257C110.987 29.2202 109.956 29.2275 108.927 29.2238C108.624 29.222 108.207 29.2057 108.106 28.8483C108.05 28.3857 108.082 27.9177 108.079 27.4532C108.082 23.6435 108.077 19.8356 108.082 16.0258C108.077 15.2693 108.003 14.4457 107.501 13.8398C107.058 13.3246 106.351 13.1486 105.701 13.1232C104.058 13.0506 102.424 13.3427 100.828 13.7073C100.797 18.533 100.815 23.3569 100.819 28.1825C100.803 28.4619 100.846 28.7594 100.736 29.0261C100.523 29.2474 100.196 29.2112 99.9181 29.2257C98.889 29.2202 97.8599 29.2275 96.8308 29.2238C96.5293 29.222 96.0978 29.2075 96.0256 28.8356C95.948 28.3785 95.9859 27.9122 95.9805 27.4532C95.9895 23.5836 95.9769 19.714 95.9877 15.8444C95.9823 15.1423 95.9155 14.3659 95.4316 13.8162C95.0254 13.3409 94.3899 13.1558 93.7869 13.1304C92.0826 13.0397 90.3891 13.3427 88.7317 13.7092C88.6992 18.5965 88.7245 23.4857 88.7191 28.3748C88.7263 28.5943 88.6956 28.8066 88.627 29.0134C88.3724 29.2855 87.9698 29.2057 87.6394 29.2275C86.6194 29.2093 85.5993 29.2402 84.5793 29.2184C84.3211 29.2075 83.9708 29.1694 83.8824 28.8737C83.8047 28.344 83.8481 27.8052 83.8409 27.2718C83.8427 22.6149 83.8463 17.9579 83.839 13.301C83.8372 12.7585 83.877 12.1599 84.2597 11.7372C84.7544 11.1893 85.5 10.9988 86.1771 10.7793C88.4717 10.1316 90.8567 9.83955 93.2362 9.74522C95.094 9.67991 97.0511 9.90486 98.6362 10.9607Z" fill="#DD1936" stroke="#DD1936" stroke-width="0.09375"/>
<path d="M122.563 10.1805C124.983 9.80132 127.458 9.56548 129.899 9.8884C131.154 10.0662 132.464 10.4853 133.324 11.474C134.194 12.4609 134.434 13.8378 134.441 15.1186C134.438 19.1696 134.439 23.2207 134.439 27.2717C134.432 27.8123 134.472 28.3547 134.409 28.8935C134.272 29.2636 133.813 29.2146 133.501 29.2273C132.414 29.211 131.327 29.2382 130.24 29.2165C129.987 29.2183 129.646 29.1348 129.601 28.8391C129.531 28.3801 129.565 27.9139 129.563 27.4513C129.568 23.5817 129.559 19.7121 129.567 15.8425C129.556 15.1803 129.491 14.4692 129.095 13.914C128.74 13.426 128.144 13.1793 127.557 13.1412C125.84 13.0124 124.134 13.3317 122.464 13.7C122.415 14.4129 122.432 15.1277 122.435 15.8425C122.432 20.0749 122.437 24.3073 122.433 28.5416C122.48 28.8699 122.278 29.2292 121.913 29.2074C120.836 29.2509 119.758 29.2056 118.68 29.2273C118.314 29.1965 117.792 29.3035 117.602 28.8881C117.532 28.4745 117.557 28.0518 117.555 27.6345C117.57 22.7363 117.544 17.838 117.568 12.9398C117.532 12.2214 117.961 11.552 118.61 11.2599C119.855 10.6776 121.222 10.429 122.563 10.1805Z" fill="#DD1936" stroke="#DD1936" stroke-width="0.09375"/>
<path d="M169.481 10.7831C172.501 9.94131 175.672 9.55671 178.802 9.82339C180.319 9.9649 181.92 10.3005 183.099 11.3346C184.105 12.2326 184.435 13.6386 184.45 14.9393C184.451 18.506 184.446 22.0708 184.453 25.6374C184.442 26.3613 184.377 27.1269 183.986 27.7564C183.623 28.3169 182.998 28.629 182.384 28.8322C179.837 29.6358 177.134 29.7519 174.482 29.6522C173.092 29.576 171.671 29.4054 170.393 28.8177C169.403 28.3696 168.544 27.6022 168.055 26.6225C167.529 25.5975 167.399 24.4201 167.428 23.2808C167.434 22.2558 167.625 21.2163 168.103 20.3038C168.614 19.3368 169.492 18.5949 170.488 18.1703C171.573 17.7059 172.743 17.4501 173.919 17.3449C175.8 17.1707 177.683 16.9984 179.566 16.8188C179.557 16.0387 179.66 15.2387 179.461 14.4767C179.232 13.7384 178.43 13.4426 177.741 13.3356C175.473 13.0091 173.175 13.3882 170.967 13.9089C170.349 14.0377 169.737 14.3243 169.098 14.2082C168.918 13.3048 168.632 12.4213 168.524 11.5051C168.535 11.0099 169.111 10.9083 169.481 10.7831ZM175.195 20.4943C174.274 20.6122 173.247 20.897 172.747 21.7551C172.258 22.6422 172.243 23.7471 172.534 24.7013C172.828 25.6302 173.738 26.2107 174.662 26.3595C176.293 26.6443 177.993 26.4919 179.57 25.9966C179.577 24.0029 179.579 22.0109 179.57 20.0172C178.109 20.1695 176.652 20.3328 175.195 20.4943Z" fill="#DD1936" stroke="#DD1936" stroke-width="0.09375"/>
<path d="M68.1859 9.88667C71.3599 9.30069 74.7721 10.3946 77.0144 12.7295C79.0654 14.8157 80.0981 17.8418 79.7821 20.7553C79.4824 24.048 77.3918 27.0813 74.4706 28.5816C71.6343 30.0674 68.0722 30.0529 65.2558 28.5253C62.0981 26.8853 59.9731 23.413 60.0038 19.8337C59.9189 16.8948 61.2604 13.9667 63.5027 12.0872C64.8315 10.9516 66.4654 10.1824 68.1859 9.88667ZM68.7727 14.188C66.4473 14.647 64.5553 16.7351 64.3296 19.1099C64.0389 21.49 65.4652 23.9355 67.6552 24.8734C69.3721 25.6644 71.4754 25.4667 73.0317 24.3999C74.3316 23.5382 75.2271 22.1068 75.469 20.5648C75.7723 18.7253 75.0538 16.766 73.6672 15.5341C72.3799 14.3259 70.4933 13.8161 68.7727 14.188Z" fill="#DD1936" stroke="#DD1936" stroke-width="0.09375"/>
<path d="M147.585 10.9155C147.503 10.5944 147.738 10.1717 148.106 10.2279C149.255 10.1971 150.407 10.2315 151.557 10.2134C151.847 10.2333 152.232 10.168 152.405 10.4764C152.616 10.91 152.694 11.3926 152.824 11.8552C153.9 16.0187 154.987 20.1786 156.068 24.3402C156.207 24.8373 156.258 25.3834 156.597 25.7952C156.7 25.5721 156.785 25.3417 156.854 25.1058C157.924 20.4452 159.018 15.7901 160.089 11.1295C160.176 10.7685 160.28 10.2333 160.753 10.2351C162.079 10.2007 163.407 10.2152 164.733 10.2279C164.989 10.1952 165.178 10.3785 165.289 10.5944C165.354 10.8864 165.218 11.1749 165.162 11.4579C163.619 16.7371 162.097 22.0217 160.56 27.3046C160.39 27.8452 160.291 28.4148 160.033 28.9246C159.782 29.2602 159.322 29.2149 158.955 29.2276C157.264 29.2185 155.574 29.2221 153.884 29.2258C153.597 29.2149 153.274 29.233 153.042 29.0335C152.878 28.8539 152.811 28.6144 152.734 28.3931C151.176 23.1048 149.601 17.822 148.04 12.5355C147.886 11.9967 147.68 11.4688 147.585 10.9155Z" fill="#DD1936" stroke="#DD1936" stroke-width="0.09375"/>
<path d="M139.305 10.6218C139.693 10.4712 140.124 10.5529 140.534 10.5329C141.551 10.5674 142.574 10.4821 143.591 10.571C143.909 10.6327 143.903 11.0499 143.919 11.3057C143.918 16.9931 143.916 22.6805 143.921 28.3679C143.909 28.64 143.934 28.9865 143.663 29.148C143.293 29.2659 142.898 29.2151 142.518 29.2278C141.562 29.2024 140.605 29.2568 139.65 29.2078C139.42 29.2151 139.225 29.0736 139.113 28.8849C139.056 28.3498 139.092 27.8091 139.088 27.2721C139.088 21.9458 139.09 16.6212 139.086 11.2967C139.103 11.0626 139.068 10.7615 139.305 10.6218Z" fill="#DD1936" stroke="#DD1936" stroke-width="0.09375"/>
</svg>
