<svg width="52" height="52" viewBox="0 0 52 52" fill="none" xmlns="http://www.w3.org/2000/svg">
<path d="M34.1149 39C33.5614 38.8334 33.0341 38.7217 32.5439 38.5206C27.4678 36.4346 22.7964 33.7434 19.0962 29.6183C16.9919 27.2725 15.3449 24.6241 13.9528 21.8213C13.2925 20.4922 12.7361 19.1112 12.1689 17.7388C11.6519 16.4875 12.4135 15.1948 13.2155 14.2517C13.968 13.3667 14.9366 12.6897 15.9854 12.1904C16.804 11.8009 17.6113 12.0256 18.2093 12.7127C19.5016 14.1986 20.689 15.7604 21.65 17.4829C22.2412 18.5423 22.079 19.8373 21.0075 20.5582C20.7471 20.7334 20.5098 20.9392 20.2673 21.137C20.0545 21.3105 19.8544 21.4857 19.7085 21.7205C19.442 22.1501 19.4292 22.657 19.6007 23.1242C20.9218 26.7203 23.1486 29.5169 26.8031 31.0233C27.3879 31.2642 27.975 31.5446 28.6488 31.467C29.777 31.3365 30.1424 30.1105 30.9331 29.4701C31.7058 28.8443 32.6935 28.836 33.5258 29.3578C34.3585 29.8799 35.1654 30.44 35.9678 31.0064C36.7554 31.5623 37.5393 32.1057 38.2656 32.7396C38.9641 33.3489 39.2047 34.1482 38.8113 34.9749C38.0914 36.4894 37.0435 37.7489 35.5324 38.5532C35.1057 38.7798 34.5959 38.8532 34.1149 39C33.5614 38.8334 34.5959 38.8532 34.1149 39Z" fill="#F4522F"/>
<rect x="1.5" y="1.5" width="49" height="49" rx="24.5" stroke="#F4522F" stroke-width="3"/>
</svg>
