<svg width="27" height="27" viewBox="0 0 27 27" fill="none" xmlns="http://www.w3.org/2000/svg">
<path d="M22.1149 27C21.5614 26.8334 21.0341 26.7217 20.5439 26.5206C15.4678 24.4346 10.7964 21.7434 7.09618 17.6183C4.9919 15.2725 3.3449 12.6241 1.95275 9.82133C1.29248 8.49222 0.736127 7.11118 0.168935 5.73875C-0.348136 4.48747 0.413536 3.19479 1.21546 2.25173C1.96804 1.36674 2.93658 0.689732 3.98543 0.190407C4.804 -0.199085 5.61134 0.0255615 6.2093 0.712731C7.50159 2.19863 8.689 3.76043 9.64999 5.48286C10.2412 6.54227 10.079 7.83726 9.00752 8.55816C8.74705 8.73336 8.50981 8.93922 8.26733 9.13703C8.05447 9.3105 7.85437 9.4857 7.70846 9.7205C7.44199 10.1501 7.42922 10.657 7.60067 11.1242C8.9218 14.7203 11.1486 17.5169 14.8031 19.0233C15.3879 19.2642 15.975 19.5446 16.6488 19.467C17.777 19.3365 18.1424 18.1105 18.9331 17.4701C19.7058 16.8443 20.6935 16.836 21.5258 17.3578C22.3585 17.8799 23.1654 18.44 23.9678 19.0064C24.7554 19.5623 25.5393 20.1057 26.2656 20.7396C26.9641 21.3489 27.2047 22.1482 26.8113 22.9749C26.0914 24.4894 25.0435 25.7489 23.5324 26.5532C23.1057 26.7798 22.5959 26.8532 22.1149 27C21.5614 26.8334 22.5959 26.8532 22.1149 27Z" fill="white"/>
</svg>
