<svg width="68" height="57" viewBox="0 0 68 57" fill="none" xmlns="http://www.w3.org/2000/svg">
<path d="M63.8182 0H3.81818C2.80588 0.0010459 1.83536 0.377407 1.11956 1.04651C0.40375 1.71561 0.0011189 2.62281 0 3.56907V43.3387C0.0011189 44.2849 0.40375 45.1921 1.11956 45.8612C1.83536 46.5303 2.80588 46.9067 3.81818 46.9077H25.7591L24.3041 50.9867H21.8182C21.5289 50.9867 21.2514 51.0941 21.0468 51.2853C20.8422 51.4766 20.7273 51.7359 20.7273 52.0064V54.0459H13.0909C12.8016 54.0459 12.5241 54.1533 12.3195 54.3445C12.1149 54.5358 12 54.7951 12 55.0656C12 55.336 12.1149 55.5954 12.3195 55.7867C12.5241 55.9779 12.8016 56.0853 13.0909 56.0853H54.5454C54.8348 56.0853 55.1122 55.9779 55.3168 55.7867C55.5214 55.5954 55.6364 55.336 55.6364 55.0656C55.6364 54.7951 55.5214 54.5358 55.3168 54.3445C55.1122 54.1533 54.8348 54.0459 54.5454 54.0459H46.9091V52.0064C46.9091 51.7359 46.7941 51.4766 46.5896 51.2853C46.385 51.0941 46.1075 50.9867 45.8182 50.9867H43.3323L41.8773 46.9077H63.8182C64.8305 46.9067 65.801 46.5303 66.5168 45.8612C67.2326 45.1921 67.6352 44.2849 67.6364 43.3387V3.56907C67.6352 2.62281 67.2326 1.71561 66.5168 1.04651C65.801 0.377407 64.8305 0.0010459 63.8182 0ZM44.7273 53.0261V54.0459H22.9091V53.0261H44.7273ZM26.6045 50.9867L28.0595 46.9077H39.5768L41.0318 50.9867H26.6045ZM65.4545 43.3387C65.4542 43.7442 65.2817 44.1331 64.9749 44.4199C64.6681 44.7067 64.2521 44.8679 63.8182 44.8683H3.81818C3.3843 44.8679 2.9683 44.7067 2.6615 44.4199C2.3547 44.1331 2.18218 43.7442 2.18182 43.3387V41.8091H65.4545V43.3387ZM65.4545 39.7696H2.18182V3.56907C2.18218 3.16349 2.3547 2.77463 2.6615 2.48785C2.9683 2.20107 3.3843 2.0398 3.81818 2.03947H63.8182C64.2521 2.0398 64.6681 2.20107 64.9749 2.48785C65.2817 2.77463 65.4542 3.16349 65.4545 3.56907V39.7696Z" fill="#F4522F"/>
<path d="M40.3636 16.3159C40.3636 15.1058 39.9798 13.9229 39.2605 12.9167C38.5413 11.9106 37.5191 11.1263 36.323 10.6633C35.127 10.2002 33.8109 10.079 32.5412 10.3151C31.2715 10.5512 30.1053 11.1339 29.1899 11.9896C28.2745 12.8452 27.6511 13.9354 27.3985 15.1223C27.1459 16.3092 27.2756 17.5394 27.771 18.6574C28.2664 19.7754 29.1053 20.7309 30.1817 21.4032C31.2581 22.0755 32.5236 22.4344 33.8182 22.4344C35.5536 22.4325 37.2173 21.7873 38.4444 20.6403C39.6715 19.4933 40.3617 17.9381 40.3636 16.3159ZM33.8182 20.3949C32.9551 20.3949 32.1115 20.1557 31.3939 19.7075C30.6763 19.2593 30.117 18.6222 29.7867 17.8769C29.4564 17.1316 29.37 16.3114 29.5384 15.5202C29.7068 14.7289 30.1224 14.0021 30.7326 13.4317C31.3429 12.8612 32.1204 12.4728 32.9669 12.3154C33.8134 12.158 34.6907 12.2388 35.4881 12.5475C36.2854 12.8562 36.9669 13.379 37.4464 14.0498C37.9259 14.7206 38.1818 15.5092 38.1818 16.3159C38.1805 17.3974 37.7204 18.4342 36.9023 19.1989C36.0843 19.9635 34.9751 20.3937 33.8182 20.3949Z" fill="#F4522F"/>
<path d="M22.2259 32.1997C23.7444 33.629 25.5503 34.7634 27.5398 35.5375C29.5293 36.3117 31.663 36.7102 33.8179 36.7102C35.9729 36.7102 38.1066 36.3117 40.096 35.5375C42.0855 34.7634 43.8915 33.629 45.4099 32.1997C45.4769 32.1489 45.5374 32.0911 45.5899 32.0272C47.821 29.8673 49.3226 27.1413 49.9078 24.1892C50.4929 21.237 50.1356 18.1891 48.8805 15.4254C47.6253 12.6618 45.5278 10.3045 42.8493 8.64739C40.1709 6.9903 37.0299 6.10669 33.8179 6.10669C30.606 6.10669 27.465 6.9903 24.7865 8.64739C22.1081 10.3045 20.0105 12.6618 18.7554 15.4254C17.5002 18.1891 17.143 21.237 17.7281 24.1892C18.3132 27.1413 19.8149 29.8673 22.0459 32.0272C22.0985 32.0911 22.1589 32.1489 22.2259 32.1997ZM23.9997 30.9709V28.5523C24.001 27.4709 24.4612 26.4341 25.2793 25.6694C26.0973 24.9047 27.2065 24.4746 28.3634 24.4734H39.2725C40.4294 24.4746 41.5385 24.9047 42.3566 25.6694C43.1747 26.4341 43.6348 27.4709 43.6361 28.5523V30.9709C40.9984 33.3446 37.4794 34.6707 33.8179 34.6707C30.1565 34.6707 26.6374 33.3446 23.9997 30.9709ZM33.8179 8.15769C36.3535 8.15657 38.843 8.79122 41.0269 9.99547C43.2108 11.1997 45.0092 12.9295 46.2346 15.0045C47.4599 17.0795 48.0674 19.4237 47.9938 21.7929C47.9201 24.162 47.168 26.4693 45.8158 28.4743C45.7922 26.866 45.0926 25.331 43.8683 24.2007C42.644 23.0705 40.9932 22.4359 39.2725 22.4339H28.3634C26.6427 22.4359 24.9918 23.0705 23.7675 24.2007C22.5432 25.331 21.8437 26.866 21.8201 28.4743C20.4679 26.4693 19.7157 24.162 19.6421 21.7929C19.5684 19.4237 20.1759 17.0795 21.4013 15.0045C22.6267 12.9295 24.425 11.1997 26.609 9.99547C28.7929 8.79122 31.2823 8.15657 33.8179 8.15769Z" fill="#F4522F"/>
<path d="M4.36349 21.4146H15.2726C15.5619 21.4146 15.8394 21.3072 16.044 21.1159C16.2486 20.9247 16.3635 20.6653 16.3635 20.3949V14.2766C16.3635 14.0061 16.2486 13.7467 16.044 13.5555C15.8394 13.3643 15.5619 13.2568 15.2726 13.2568H4.36349C4.07417 13.2568 3.79669 13.3643 3.5921 13.5555C3.38752 13.7467 3.27258 14.0061 3.27258 14.2766V20.3949C3.27258 20.6653 3.38752 20.9247 3.5921 21.1159C3.79669 21.3072 4.07417 21.4146 4.36349 21.4146ZM5.4544 15.2963H14.1817V19.3752H5.4544V15.2963Z" fill="#F4522F"/>
<path d="M4.36349 24.473H15.2726C15.5619 24.473 15.8394 24.3656 16.044 24.1743C16.2486 23.9831 16.3635 23.7237 16.3635 23.4533C16.3635 23.1829 16.2486 22.9235 16.044 22.7323C15.8394 22.541 15.5619 22.4336 15.2726 22.4336H4.36349C4.07417 22.4336 3.79669 22.541 3.5921 22.7323C3.38752 22.9235 3.27258 23.1829 3.27258 23.4533C3.27258 23.7237 3.38752 23.9831 3.5921 24.1743C3.79669 24.3656 4.07417 24.473 4.36349 24.473Z" fill="#F4522F"/>
<path d="M4.36349 27.5329H15.2726C15.5619 27.5329 15.8394 27.4255 16.044 27.2342C16.2486 27.043 16.3635 26.7837 16.3635 26.5133C16.3635 26.2428 16.2486 25.9835 16.044 25.7923C15.8394 25.6011 15.5619 25.4937 15.2726 25.4937H4.36349C4.07417 25.4937 3.79669 25.6011 3.5921 25.7923C3.38752 25.9835 3.27258 26.2428 3.27258 26.5133C3.27258 26.7837 3.38752 27.043 3.5921 27.2342C3.79669 27.4255 4.07417 27.5329 4.36349 27.5329Z" fill="#F4522F"/>
<path d="M4.36349 30.5918H8.72714C9.01647 30.5918 9.29395 30.4844 9.49853 30.2931C9.70312 30.1019 9.81805 29.8426 9.81805 29.5721C9.81805 29.3017 9.70312 29.0424 9.49853 28.8511C9.29395 28.6599 9.01647 28.5525 8.72714 28.5525H4.36349C4.07417 28.5525 3.79669 28.6599 3.5921 28.8511C3.38752 29.0424 3.27258 29.3017 3.27258 29.5721C3.27258 29.8426 3.38752 30.1019 3.5921 30.2931C3.79669 30.4844 4.07417 30.5918 4.36349 30.5918Z" fill="#F4522F"/>
<path d="M13.0909 28.5525H12C11.7107 28.5525 11.4332 28.6599 11.2286 28.8511C11.024 29.0424 10.9091 29.3017 10.9091 29.5721C10.9091 29.8426 11.024 30.1019 11.2286 30.2931C11.4332 30.4844 11.7107 30.5918 12 30.5918H13.0909C13.3802 30.5918 13.6577 30.4844 13.8623 30.2931C14.0669 30.1019 14.1818 29.8426 14.1818 29.5721C14.1818 29.3017 14.0669 29.0424 13.8623 28.8511C13.6577 28.6599 13.3802 28.5525 13.0909 28.5525Z" fill="#F4522F"/>
<path d="M52.3638 21.4146H63.2729C63.5622 21.4146 63.8397 21.3072 64.0443 21.1159C64.2488 20.9247 64.3638 20.6653 64.3638 20.3949V14.2766C64.3638 14.0061 64.2488 13.7467 64.0443 13.5555C63.8397 13.3643 63.5622 13.2568 63.2729 13.2568H52.3638C52.0744 13.2568 51.797 13.3643 51.5924 13.5555C51.3878 13.7467 51.2729 14.0061 51.2729 14.2766V20.3949C51.2729 20.6653 51.3878 20.9247 51.5924 21.1159C51.797 21.3072 52.0744 21.4146 52.3638 21.4146ZM53.4547 15.2963H62.182V19.3752H53.4547V15.2963Z" fill="#F4522F"/>
<path d="M52.3638 24.473H63.2729C63.5622 24.473 63.8397 24.3656 64.0443 24.1743C64.2488 23.9831 64.3638 23.7237 64.3638 23.4533C64.3638 23.1829 64.2488 22.9235 64.0443 22.7323C63.8397 22.541 63.5622 22.4336 63.2729 22.4336H52.3638C52.0744 22.4336 51.797 22.541 51.5924 22.7323C51.3878 22.9235 51.2729 23.1829 51.2729 23.4533C51.2729 23.7237 51.3878 23.9831 51.5924 24.1743C51.797 24.3656 52.0744 24.473 52.3638 24.473Z" fill="#F4522F"/>
<path d="M52.3638 27.5329H63.2729C63.5622 27.5329 63.8397 27.4255 64.0443 27.2342C64.2488 27.043 64.3638 26.7837 64.3638 26.5133C64.3638 26.2428 64.2488 25.9835 64.0443 25.7923C63.8397 25.6011 63.5622 25.4937 63.2729 25.4937H52.3638C52.0744 25.4937 51.797 25.6011 51.5924 25.7923C51.3878 25.9835 51.2729 26.2428 51.2729 26.5133C51.2729 26.7837 51.3878 27.043 51.5924 27.2342C51.797 27.4255 52.0744 27.5329 52.3638 27.5329Z" fill="#F4522F"/>
<path d="M52.3638 30.5918H56.7274C57.0167 30.5918 57.2942 30.4844 57.4988 30.2931C57.7034 30.1019 57.8183 29.8426 57.8183 29.5721C57.8183 29.3017 57.7034 29.0424 57.4988 28.8511C57.2942 28.6599 57.0167 28.5525 56.7274 28.5525H52.3638C52.0744 28.5525 51.797 28.6599 51.5924 28.8511C51.3878 29.0424 51.2729 29.3017 51.2729 29.5721C51.2729 29.8426 51.3878 30.1019 51.5924 30.2931C51.797 30.4844 52.0744 30.5918 52.3638 30.5918Z" fill="#F4522F"/>
<path d="M61.0912 28.5525H60.0003C59.7109 28.5525 59.4335 28.6599 59.2289 28.8511C59.0243 29.0424 58.9094 29.3017 58.9094 29.5721C58.9094 29.8426 59.0243 30.1019 59.2289 30.2931C59.4335 30.4844 59.7109 30.5918 60.0003 30.5918H61.0912C61.3805 30.5918 61.658 30.4844 61.8626 30.2931C62.0672 30.1019 62.1821 29.8426 62.1821 29.5721C62.1821 29.3017 62.0672 29.0424 61.8626 28.8511C61.658 28.6599 61.3805 28.5525 61.0912 28.5525Z" fill="#F4522F"/>
</svg>
