<svg width="75" height="75" viewBox="0 0 75 75" fill="none" xmlns="http://www.w3.org/2000/svg">
<path d="M38.6719 55.0781H36.3281V57.4219H38.6719V55.0781Z" fill="#F4522F"/>
<path d="M69.1406 16.4061H53.332L55.207 15.1557C55.396 15.0296 55.5442 14.8513 55.6336 14.6425L58.125 8.84168C58.217 8.62656 58.2425 8.38883 58.1982 8.15909C58.1539 7.92936 58.0419 7.71813 57.8766 7.55262L54.5578 4.23621C54.3923 4.07085 54.1811 3.95882 53.9513 3.91454C53.7216 3.87027 53.4839 3.89577 53.2688 3.98777L47.468 6.47449C47.2591 6.56392 47.0808 6.71212 46.9547 6.90105L43.684 11.8077L39.5039 16.4061H35.9262L35.8863 16.3663C36.4238 14.3839 36.428 12.2946 35.8985 10.31C35.369 8.32544 34.3247 6.51596 32.8711 5.06473C31.5571 3.74078 29.9177 2.78612 28.1177 2.29673C26.3178 1.80734 24.4207 1.80048 22.6172 2.27684C22.4326 2.32696 22.2631 2.42151 22.1234 2.55224C21.9838 2.68297 21.8782 2.84589 21.816 3.02679C21.7539 3.20769 21.7369 3.40106 21.7667 3.59002C21.7964 3.77898 21.872 3.95778 21.9867 4.11082L26.3484 9.92684L22.8141 13.4612L17.0016 9.09949C16.8485 8.98473 16.6697 8.90918 16.4808 8.87943C16.2918 8.84968 16.0984 8.86663 15.9175 8.92882C15.7366 8.99101 15.5737 9.09653 15.443 9.23618C15.3123 9.37583 15.2177 9.54536 15.1676 9.72996C14.5752 11.9432 14.725 14.2897 15.5941 16.4096H5.85938C4.92697 16.4096 4.03276 16.78 3.37345 17.4394C2.71415 18.0987 2.34375 18.9929 2.34375 19.9253V57.4218C2.34375 58.3542 2.71415 59.2484 3.37345 59.9077C4.03276 60.567 4.92697 60.9374 5.85938 60.9374H29.0859L28.3043 65.6249H26.9531C26.7712 65.6249 26.5918 65.6672 26.429 65.7486C26.2663 65.83 26.1248 65.9481 26.0156 66.0936L22.5 70.7811C22.3694 70.9552 22.2899 71.1623 22.2704 71.379C22.2508 71.5958 22.292 71.8137 22.3893 72.0083C22.4867 72.203 22.6363 72.3667 22.8214 72.4811C23.0065 72.5955 23.2199 72.6561 23.4375 72.6561H51.5625C51.7801 72.6561 51.9935 72.5955 52.1786 72.4811C52.3637 72.3667 52.5133 72.203 52.6107 72.0083C52.708 71.8137 52.7492 71.5958 52.7296 71.379C52.7101 71.1623 52.6306 70.9552 52.5 70.7811L48.9844 66.0936C48.8752 65.9481 48.7337 65.83 48.571 65.7486C48.4082 65.6672 48.2288 65.6249 48.0469 65.6249H46.6957L45.9141 60.9374H69.1406C70.073 60.9374 70.9672 60.567 71.6265 59.9077C72.2859 59.2484 72.6562 58.3542 72.6562 57.4218V19.9218C72.6562 18.9894 72.2859 18.0951 71.6265 17.4358C70.9672 16.7765 70.073 16.4061 69.1406 16.4061ZM39.4594 19.9405L44.6566 14.2218L47.8875 17.4526L42.1688 22.6499L39.4594 19.9405ZM48.7102 8.49129L53.4621 6.45457L55.6547 8.64715L53.618 13.3991L49.7355 15.9866L46.1227 12.3737L48.7102 8.49129ZM22.2258 15.9456C22.4513 16.1149 22.7304 16.1973 23.0117 16.1775C23.2931 16.1577 23.5578 16.0371 23.7574 15.8378L28.7297 10.8655C28.929 10.6659 29.0496 10.4011 29.0694 10.1198C29.0892 9.83846 29.0069 9.55941 28.8375 9.33387L25.0371 4.26668C26.1798 4.23221 27.3175 4.43227 28.3798 4.85453C29.4422 5.27678 30.4068 5.91226 31.2141 6.72176C32.4389 7.93537 33.298 9.46887 33.6931 11.1473C34.0883 12.8257 34.0036 14.5813 33.4488 16.2139C33.3571 16.4293 33.332 16.6672 33.3767 16.8969C33.4214 17.1267 33.5339 17.3378 33.6996 17.503L46.9582 30.7534C47.1235 30.9192 47.3346 31.0316 47.5643 31.0763C47.7941 31.121 48.0319 31.0959 48.2473 31.0042C49.8798 30.4493 51.6356 30.3645 53.314 30.7597C54.9924 31.1549 56.5259 32.014 57.7395 33.2389C58.5501 34.0454 59.1863 35.0098 59.6086 36.0724C60.031 37.135 60.2304 38.273 60.1945 39.4159L55.1273 35.6167C54.9018 35.4473 54.6228 35.365 54.3414 35.3848C54.0601 35.4046 53.7953 35.5252 53.5957 35.7245L48.6234 40.6968C48.4242 40.8964 48.3036 41.1611 48.2837 41.4425C48.2639 41.7238 48.3463 42.0029 48.5156 42.2284L52.3148 47.2956C51.1719 47.3322 50.0336 47.1332 48.9709 46.7108C47.9082 46.2884 46.9439 45.6518 46.1379 44.8405C43.5293 42.2319 42.5344 38.094 43.8715 35.421C43.9817 35.2009 44.0199 34.9518 43.9805 34.7088C43.9412 34.4659 43.8264 34.2415 43.6523 34.0675L30.3855 20.8089C30.2115 20.6348 29.9871 20.52 29.7442 20.4807C29.5012 20.4413 29.2521 20.4795 29.032 20.5897C26.359 21.928 22.2211 20.9319 19.6125 18.3233C18.8008 17.5174 18.1635 16.5532 17.7402 15.4906C17.3168 14.428 17.1165 13.2897 17.1516 12.1464L22.2258 15.9456ZM32.4375 36.5202L30.4453 36.9198C30.1806 36.9738 29.9427 37.1177 29.7719 37.3269C29.601 37.5362 29.5078 37.7981 29.5078 38.0682V39.2401L22.4496 46.3604C22.0122 46.8034 21.4907 47.1546 20.9158 47.3935C20.3409 47.6323 19.7241 47.754 19.1016 47.7514C18.17 47.7509 17.2596 47.4742 16.4852 46.9564C15.7109 46.4385 15.1074 45.7028 14.751 44.8422C14.3946 43.9815 14.3013 43.0345 14.4828 42.1209C14.6644 41.2072 15.1127 40.3679 15.7711 39.7089L22.8691 32.612H24.041C24.3112 32.612 24.573 32.5188 24.7823 32.3479C24.9916 32.1771 25.1354 31.9392 25.1895 31.6745L25.5891 29.6823L32.4375 36.5202ZM29.8008 30.5706L33.1453 26.8839L35.2254 28.9639L31.5387 32.3085L29.8008 30.5706ZM5.85938 18.7499H16.9113C17.2282 19.1855 17.5772 19.5968 17.9555 19.9804C21.0504 23.0741 25.7648 24.3011 29.2875 23.0272L31.4859 25.2268L28.1414 28.9136L25.698 26.4702C25.5481 26.3201 25.3602 26.2136 25.1544 26.1619C24.9486 26.1103 24.7326 26.1154 24.5296 26.1769C24.3265 26.2384 24.1439 26.3539 24.0013 26.511C23.8587 26.6681 23.7615 26.861 23.7199 27.069L23.0859 30.2682H22.3828C22.072 30.2683 21.774 30.3918 21.5543 30.6116L14.1117 38.0518C13.1255 39.0387 12.454 40.2959 12.1821 41.6643C11.9102 43.0328 12.0502 44.4512 12.5842 45.7401C13.1182 47.0291 14.0224 48.1308 15.1825 48.9059C16.3425 49.6811 17.7064 50.095 19.1016 50.0952H19.1098C20.0381 50.0966 20.9575 49.9136 21.8145 49.5567C22.6715 49.1998 23.449 48.6762 24.102 48.0163L31.5023 40.5514C31.7184 40.333 31.84 40.0384 31.841 39.7311V39.035L35.0426 38.3952C35.2506 38.3536 35.4435 38.2564 35.6006 38.1138C35.7577 37.9712 35.8732 37.7886 35.9347 37.5856C35.9962 37.3825 36.0013 37.1665 35.9497 36.9607C35.898 36.755 35.7915 36.567 35.6414 36.4171L33.198 33.9737L36.8848 30.6292L41.4281 35.1714C40.1543 38.6952 41.3789 43.4096 44.475 46.5034C46.4758 48.51 49.1906 49.6415 52.0242 49.6499C52.9345 49.6498 53.8409 49.5293 54.7195 49.2913C54.9041 49.2412 55.0737 49.1466 55.2133 49.0159C55.353 48.8852 55.4585 48.7222 55.5207 48.5413C55.5829 48.3604 55.5998 48.1671 55.5701 47.9781C55.5403 47.7891 55.4648 47.6103 55.35 47.4573L50.9883 41.6413L54.5227 38.1069L60.3387 42.4686C60.4917 42.5834 60.6705 42.659 60.8595 42.6887C61.0484 42.7185 61.2418 42.7015 61.4227 42.6393C61.6036 42.5771 61.7665 42.4716 61.8973 42.3319C62.028 42.1923 62.1225 42.0228 62.1727 41.8382C62.6486 40.0352 62.6415 38.1388 62.1521 36.3394C61.6628 34.5401 60.7083 32.9013 59.3848 31.5878C57.9337 30.1339 56.1243 29.0893 54.1396 28.5598C52.155 28.0303 50.0656 28.0347 48.0832 28.5725L43.8281 24.3081L49.9418 18.7499H69.1406C69.4514 18.7499 69.7495 18.8733 69.9693 19.0931C70.189 19.3129 70.3125 19.611 70.3125 19.9218V51.5624H4.6875V19.9218C4.6875 19.611 4.81097 19.3129 5.03073 19.0931C5.2505 18.8733 5.54857 18.7499 5.85938 18.7499ZM49.2188 70.3124H25.7812L27.5391 67.9686H47.4609L49.2188 70.3124ZM44.3203 65.6249H30.6797L31.4613 60.9374H43.5387L44.3203 65.6249ZM69.1406 58.5936H5.85938C5.54857 58.5936 5.2505 58.4702 5.03073 58.2504C4.81097 58.0306 4.6875 57.7326 4.6875 57.4218V53.9061H70.3125V57.4218C70.3125 57.7326 70.189 58.0306 69.9693 58.2504C69.7495 58.4702 69.4514 58.5936 69.1406 58.5936Z" fill="#F4522F"/>
</svg>
