<svg width="32" height="54" viewBox="0 0 32 54" fill="none" xmlns="http://www.w3.org/2000/svg">
<path d="M15.8838 53.083C24.6422 53.083 31.7675 46.197 31.7675 37.7328V16.2472C31.7675 7.78294 24.6422 0.896973 15.8838 0.896973C7.12532 0.896973 0 7.78294 0 16.2472V37.7328C0 46.197 7.12532 53.083 15.8838 53.083ZM3.23987 16.2472C3.23987 9.50971 8.91211 4.02801 15.8838 4.02801C22.8554 4.02801 28.5276 9.50971 28.5276 16.2472L28.5276 37.7328C28.5276 44.4703 22.8554 49.952 15.8838 49.952C8.91211 49.952 3.23987 44.4703 3.23987 37.7328V16.2472Z" fill="#F4522F"/>
<path d="M15.8417 43.4189C16.9465 43.4189 17.8417 42.6983 17.8417 41.8089V34.3985C17.8417 33.5095 16.9465 32.7885 15.8417 32.7885C14.7375 32.7885 13.8417 33.5095 13.8417 34.3985L13.8417 41.8089C13.8417 42.6983 14.737 43.4189 15.8417 43.4189Z" fill="#F4522F"/>
<path d="M10.5776 38.5394C10.1711 39.047 10.2231 39.7435 10.6936 40.0955L14.6147 43.0285C15.0851 43.3803 15.7961 43.2544 16.2026 42.7468C16.6089 42.2395 16.5569 41.5426 16.0866 41.1908L12.1655 38.2578C11.6949 37.9058 10.9842 38.0318 10.5776 38.5394Z" fill="#F4522F"/>
<path d="M21.1568 38.5299C20.7433 38.0276 20.031 37.9107 19.5653 38.2687L15.6848 41.2517C15.2193 41.6096 15.1767 42.3069 15.5902 42.8092C16.0035 43.3112 16.7162 43.4282 17.1817 43.0704L21.0622 40.0874C21.5279 39.7294 21.5702 39.0322 21.1568 38.5299Z" fill="#F4522F"/>
</svg>
