<svg width="32" height="31" viewBox="0 0 32 31" fill="none" xmlns="http://www.w3.org/2000/svg">
<path d="M14.2065 1.63397C14.9402 0.14748 17.0598 0.14748 17.7935 1.63397L21.1186 8.37146C21.4099 8.96174 21.9731 9.37088 22.6245 9.46554L30.0597 10.5459C31.7002 10.7843 32.3552 12.8003 31.1682 13.9573L25.788 19.2017C25.3166 19.6612 25.1015 20.3232 25.2128 20.972L26.4829 28.3772C26.7631 30.011 25.0482 31.2569 23.581 30.4856L16.9307 26.9893C16.348 26.683 15.652 26.683 15.0693 26.9893L8.41902 30.4856C6.95177 31.2569 5.23691 30.011 5.51713 28.3772L6.78722 20.972C6.89849 20.3232 6.6834 19.6612 6.21202 19.2017L0.831824 13.9573C-0.35521 12.8003 0.29981 10.7843 1.94025 10.5459L9.37551 9.46554C10.0269 9.37088 10.5901 8.96174 10.8814 8.37145L14.2065 1.63397Z" fill="#C4C4C4"/>
</svg>
