<svg width="23" height="22" viewBox="0 0 23 22" fill="none" xmlns="http://www.w3.org/2000/svg">
<path d="M9.69408 1.79473C10.4178 0.273986 12.5822 0.273984 13.3059 1.79472L15.0108 5.37705C15.2964 5.97719 15.8615 6.39624 16.5187 6.49527L20.4477 7.08734C22.0655 7.33113 22.7221 9.30846 21.5715 10.4716L18.6376 13.4374C18.1866 13.8932 17.9816 14.5377 18.0862 15.1703L18.7661 19.2815C19.038 20.9253 17.2985 22.1613 15.8356 21.3638L12.4574 19.522C11.8606 19.1966 11.1394 19.1966 10.5426 19.522L7.16442 21.3638C5.70155 22.1613 3.96199 20.9253 4.23386 19.2815L4.9138 15.1703C5.01842 14.5377 4.81338 13.8932 4.36243 13.4374L1.42848 10.4716C0.277867 9.30846 0.934488 7.33113 2.5523 7.08734L6.48133 6.49528C7.13855 6.39624 7.70363 5.97719 7.98924 5.37705L9.69408 1.79473Z" fill="#FFC700"/>
</svg>
