<svg width="72" height="72" viewBox="0 0 72 72" fill="none" xmlns="http://www.w3.org/2000/svg">
<g clip-path="url(#clip0)">
<path d="M59.6165 49.6415C62.4663 49.1581 65.1662 51.0914 65.6495 53.9413C65.6995 54.2413 65.7162 54.5246 65.7162 54.8079C65.7162 57.6911 63.3663 60.041 60.4831 60.041C57.5832 60.0243 55.25 57.6911 55.25 54.8079C55.25 54.5079 55.2666 54.2246 55.3166 53.9413C55.6833 51.7414 57.4166 50.0081 59.6165 49.6415Z" fill="black" fill-opacity="0.3"/>
<path d="M71.4826 37.6918C71.7992 37.8251 72.0159 38.1584 71.9992 38.5084V51.0912C71.9992 51.1246 71.9992 51.1579 71.9992 51.1912C71.9826 51.6412 71.6159 51.9745 71.1659 51.9579H68.5994C67.7327 49.4413 65.7662 47.4914 63.2663 46.6247C58.7831 45.0915 53.9 47.4747 52.3668 51.9579H50.1669V35.4586H66.2328L71.4826 37.6918Z" fill="black" fill-opacity="0.3"/>
<path d="M50.1835 24.6592C50.1835 24.6592 50.1835 24.6426 50.1835 24.6259C50.2002 24.1426 50.6002 23.7759 51.0668 23.7926H59.0165C59.3498 23.7926 59.6665 23.9926 59.8165 24.2926L63.8496 32.1256H50.1835V24.6592Z" fill="black" fill-opacity="0.3"/>
<path d="M12.3519 49.558C14.9184 49.558 17.1016 51.4079 17.5183 53.9411C17.5683 54.2411 17.585 54.5244 17.585 54.8077C17.585 57.6909 15.2351 60.0408 12.3519 60.0408C9.46865 60.0242 7.11876 57.6909 7.11876 54.7911C7.10209 54.5244 7.13542 54.2577 7.16875 53.9911C7.5854 51.4412 9.76864 49.5746 12.3519 49.558Z" fill="black" fill-opacity="0.3"/>
<path d="M46.8336 38.1252H1.83559V11.9597H51.8334V20.4593H51.0501C51.0334 20.4593 51.0167 20.4593 51.0001 20.4593C48.6835 20.4759 46.8169 22.3425 46.8336 24.6591V38.1252Z" fill="black" fill-opacity="0.3"/>
<path d="M0.835632 41.4584H46.8336V51.958H20.4848C19.6181 49.4414 17.6516 47.4915 15.1517 46.6249C10.6685 45.0916 5.78542 47.4748 4.25215 51.958H0.852299C0.818966 51.958 0.785633 51.958 0.752304 51.958C0.302322 51.9247 -0.0309982 51.5413 0.00233459 51.108V42.4084C0.00233459 41.9084 0.335655 41.4584 0.835632 41.4584Z" fill="black" fill-opacity="0.3"/>
</g>
<defs>
<clipPath id="clip0">
<rect width="72" height="72" fill="white" transform="matrix(-1 0 0 1 72 0)"/>
</clipPath>
</defs>
</svg>
