<svg width="46" height="46" viewBox="0 0 46 46" fill="none" xmlns="http://www.w3.org/2000/svg">
<g clip-path="url(#clip0)">
<path d="M43.8069 26.9436H43.1185V20.743C43.1185 19.7614 42.63 18.8922 41.8838 18.3641V17.5199C41.8838 16.2952 40.8875 15.2989 39.6629 15.2989H39.1489L41.1155 12.4131C41.7746 11.4459 41.524 10.1226 40.5567 9.46331L27.2121 0.369325C26.7436 0.0499302 26.1789 -0.0679448 25.6215 0.0378013C25.0643 0.143368 24.5816 0.459528 24.2623 0.928153L12.7442 17.8298H9.53907L10.3124 10.0017C10.3211 9.91352 10.3784 9.83706 10.4583 9.80696C11.4546 9.43132 12.318 8.72983 12.8894 7.83175C12.9344 7.76104 13.0193 7.72061 13.1072 7.7295L18.1344 8.22616C18.4949 8.26111 18.8155 7.99859 18.8511 7.63831C18.8867 7.27804 18.6235 6.95721 18.2633 6.92163L13.236 6.42497C12.6525 6.36783 12.096 6.63673 11.7834 7.128C11.3633 7.78835 10.7284 8.30406 9.99592 8.58024C9.44455 8.78813 9.06595 9.28335 9.00773 9.87282L8.22178 17.8297H7.38596L8.60892 5.44891C8.65294 5.00329 9.05068 4.6759 9.49684 4.72055L19.6558 5.7241C20.0161 5.75887 20.3369 5.49653 20.3725 5.13625C20.4081 4.77598 20.1449 4.45515 19.7847 4.41957L9.62568 3.41602C8.46094 3.30111 7.41938 4.15507 7.3043 5.31998L6.31853 15.2989H4.6398C3.41523 15.2989 2.41886 16.2952 2.41886 17.5199V18.0958C1.41701 18.557 0.719467 19.5697 0.719467 20.743V43.0867C0.719467 44.6931 2.02633 46 3.63283 46H40.2053C41.8117 46 43.1185 44.6931 43.1185 43.0867V36.8862H43.8069C44.6195 36.8862 45.2804 36.2252 45.2804 35.4128V28.4171C45.2805 27.6046 44.6195 26.9436 43.8069 26.9436ZM39.6629 16.6099C40.1647 16.6098 40.5729 17.0181 40.5729 17.52V17.8539C40.4523 17.8386 40.3299 17.8299 40.2053 17.8299H37.4241L38.2555 16.6099H39.6629ZM25.3455 1.66631C25.4677 1.48707 25.6524 1.36614 25.8655 1.32571C25.9164 1.3161 25.9675 1.31125 26.0183 1.31125C26.1797 1.31125 26.3375 1.35958 26.4739 1.45248L39.8185 10.5465C40.1885 10.7987 40.2844 11.3048 40.0323 11.6748L35.8379 17.8296H34.8313L36.8877 14.8121C37.2212 14.3227 37.2487 13.6999 36.9592 13.1866C36.5745 12.5047 36.4185 11.7018 36.52 10.9256C36.5955 10.3482 36.3414 9.7845 35.857 9.45442L28.9392 4.74013C28.4547 4.40996 27.8371 4.37968 27.3273 4.66116C26.6423 5.0394 25.8379 5.18791 25.0625 5.07938C24.4875 4.9987 23.9044 5.25835 23.5758 5.74036L15.3372 17.8297H14.3306L25.3455 1.66631ZM25.6342 12.7971C22.7798 12.7971 20.4367 15.0228 20.2457 17.8297H16.9234L24.6589 6.47861C24.659 6.47861 24.659 6.47861 24.659 6.47861C24.7029 6.41401 24.7758 6.37556 24.8506 6.37556C24.8606 6.37556 24.8705 6.37628 24.8805 6.37763C25.9351 6.52515 27.029 6.32336 27.9608 5.80883C28.0341 5.76822 28.1283 5.77406 28.2009 5.82347L35.1188 10.5378C35.1912 10.5873 35.231 10.6728 35.2202 10.7558C35.0821 11.8114 35.2943 12.9033 35.8175 13.8307C35.8594 13.9052 35.8543 14.0006 35.8045 14.0738L33.2451 17.8296H31.023C30.8319 15.0228 28.4888 12.7971 25.6342 12.7971ZM29.7085 17.8298H21.5601C21.7478 15.7464 23.5029 14.1081 25.6342 14.1081C27.7657 14.1081 29.5208 15.7464 29.7085 17.8298ZM3.72977 17.5199C3.72977 17.018 4.13793 16.6097 4.6398 16.6097H6.18906L6.06858 17.8297H3.72977V17.5199ZM2.03038 20.743C2.03038 19.8595 2.74922 19.1406 3.63283 19.1406H40.2053C41.0889 19.1406 41.8076 19.8595 41.8076 20.743V22.5618H2.03038V20.743ZM41.8076 43.0867C41.8076 43.9702 41.0889 44.6891 40.2053 44.6891H3.63283C2.74922 44.6891 2.03038 43.9702 2.03038 43.0867V41.2679H5.56501C5.92708 41.2679 6.22042 40.9745 6.22042 40.6125C6.22042 40.2505 5.92699 39.9571 5.56501 39.9571H2.03038V23.8727H41.8076V26.9436H35.5755H35.5754C33.6118 26.9436 31.9109 28.0882 31.1036 29.745C31.1009 29.7506 31.0979 29.756 31.0951 29.7615C31.0883 29.7756 31.0823 29.7903 31.0757 29.8045C30.9796 30.0087 30.896 30.2201 30.828 30.4382C30.8278 30.4389 30.8276 30.4394 30.8275 30.44C30.6824 30.9062 30.6041 31.4015 30.6041 31.9149C30.6041 34.6561 32.8342 36.8862 35.5753 36.8862H35.5754H41.8075V39.9571H9.76197C9.3999 39.9571 9.10656 40.2505 9.10656 40.6125C9.10656 40.9745 9.39999 41.2679 9.76197 41.2679H41.8076V43.0867ZM43.9696 35.4127C43.9696 35.5024 43.8967 35.5753 43.8069 35.5753H35.5756C34.188 35.5753 32.9781 34.7992 32.3576 33.6582C32.3294 33.6064 32.3024 33.5537 32.2766 33.5005C32.2252 33.3938 32.1787 33.2843 32.1376 33.1722C31.9937 32.7799 31.9152 32.3564 31.9152 31.9149C31.9152 31.4734 31.9938 31.0499 32.1376 30.6576C32.1788 30.5456 32.2252 30.4361 32.2766 30.3293C32.3024 30.2761 32.3294 30.2234 32.3576 30.1716C32.9781 29.0306 34.188 28.2545 35.5756 28.2545H43.8069C43.8966 28.2545 43.9696 28.3274 43.9696 28.4171V35.4127Z" fill="#F4522F"/>
<path d="M35.7292 29.2556C34.2627 29.2556 33.0698 30.4486 33.0698 31.915C33.0698 33.3813 34.2627 34.5743 35.7292 34.5743C37.1956 34.5743 38.3885 33.3813 38.3885 31.915C38.3885 30.4486 37.1956 29.2556 35.7292 29.2556ZM35.7292 33.2634C34.9856 33.2634 34.3807 32.6584 34.3807 31.915C34.3807 31.1715 34.9856 30.5665 35.7292 30.5665C36.4727 30.5665 37.0776 31.1714 37.0776 31.915C37.0776 32.6585 36.4727 33.2634 35.7292 33.2634Z" fill="#F4522F"/>
</g>
<defs>
<clipPath id="clip0">
<rect width="46" height="46" fill="white"/>
</clipPath>
</defs>
</svg>
