<svg width="70" height="70" viewBox="0 0 70 70" fill="none" xmlns="http://www.w3.org/2000/svg">
<g clip-path="url(#clip0)">
<path d="M67.1622 41.1204C66.9113 41.1204 66.6707 41.0208 66.4933 40.8434C66.3159 40.666 66.2162 40.4254 66.2162 40.1745V37.4218C66.2162 37.1709 66.3159 36.9303 66.4933 36.7529C66.6707 36.5755 66.9113 36.4758 67.1622 36.4758C67.413 36.4758 67.6537 36.5755 67.8311 36.7529C68.0085 36.9303 68.1081 37.1709 68.1081 37.4218V40.1745C68.1081 40.4254 68.0085 40.666 67.8311 40.8434C67.6537 41.0208 67.413 41.1204 67.1622 41.1204Z" fill="#F4522F"/>
<path d="M65.2703 68.1081H4.72974C3.9771 68.1081 3.25529 67.8091 2.72309 67.2769C2.19089 66.7447 1.89191 66.0229 1.89191 65.2702V4.72968C1.89191 3.97704 2.19089 3.25523 2.72309 2.72303C3.25529 2.19083 3.9771 1.89185 4.72974 1.89185H65.2703C66.0229 1.89185 66.7447 2.19083 67.2769 2.72303C67.8091 3.25523 68.1081 3.97704 68.1081 4.72968V30.8C68.1081 31.0508 68.0085 31.2914 67.8311 31.4688C67.6537 31.6462 67.413 31.7459 67.1622 31.7459C66.9113 31.7459 66.6707 31.6462 66.4933 31.4688C66.3159 31.2914 66.2162 31.0508 66.2162 30.8V4.72968C66.2162 4.4788 66.1166 4.2382 65.9392 4.0608C65.7618 3.8834 65.5212 3.78374 65.2703 3.78374H4.72974C4.47886 3.78374 4.23826 3.8834 4.06086 4.0608C3.88346 4.2382 3.7838 4.4788 3.7838 4.72968V65.2702C3.7838 65.5211 3.88346 65.7617 4.06086 65.9391C4.23826 66.1165 4.47886 66.2162 4.72974 66.2162H65.2703C65.5212 66.2162 65.7618 66.1165 65.9392 65.9391C66.1166 65.7617 66.2162 65.5211 66.2162 65.2702V56.227C66.2162 55.9761 66.3159 55.7355 66.4933 55.5581C66.6707 55.3807 66.9113 55.281 67.1622 55.281C67.413 55.281 67.6537 55.3807 67.8311 55.5581C68.0085 55.7355 68.1081 55.9761 68.1081 56.227V65.2702C68.1081 66.0229 67.8091 66.7447 67.2769 67.2769C66.7447 67.8091 66.0229 68.1081 65.2703 68.1081Z" fill="#F4522F"/>
<path d="M67.1622 50.5514C66.9113 50.5514 66.6707 50.4518 66.4933 50.2744C66.3159 50.097 66.2162 49.8564 66.2162 49.6055V46.796C66.2162 46.5452 66.3159 46.3046 66.4933 46.1272C66.6707 45.9498 66.9113 45.8501 67.1622 45.8501C67.413 45.8501 67.6537 45.9498 67.8311 46.1272C68.0085 46.3046 68.1081 46.5452 68.1081 46.796V49.6055C68.1081 49.8564 68.0085 50.097 67.8311 50.2744C67.6537 50.4518 67.413 50.5514 67.1622 50.5514Z" fill="#F4522F"/>
<path d="M67.1622 18.9187H2.83785C2.58697 18.9187 2.34637 18.8191 2.16897 18.6417C1.99157 18.4643 1.89191 18.2237 1.89191 17.9728C1.89191 17.7219 1.99157 17.4813 2.16897 17.3039C2.34637 17.1265 2.58697 17.0269 2.83785 17.0269H67.1622C67.413 17.0269 67.6537 17.1265 67.8311 17.3039C68.0085 17.4813 68.1081 17.7219 68.1081 17.9728C68.1081 18.2237 68.0085 18.4643 67.8311 18.6417C67.6537 18.8191 67.413 18.9187 67.1622 18.9187Z" fill="#F4522F"/>
<path d="M10.7516 14.0475C10.0313 14.0475 9.32722 13.8339 8.72831 13.4337C8.1294 13.0335 7.66261 12.4647 7.38697 11.7993C7.11132 11.1338 7.0392 10.4015 7.17972 9.69507C7.32024 8.98861 7.6671 8.33969 8.17643 7.83036C8.68576 7.32103 9.33468 6.97417 10.0411 6.83365C10.7476 6.69313 11.4799 6.76525 12.1453 7.0409C12.8108 7.31654 13.3796 7.78333 13.7798 8.38224C14.1799 8.98114 14.3935 9.68527 14.3935 10.4056C14.3928 11.3712 14.0088 12.2971 13.326 12.9799C12.6432 13.6628 11.7173 14.0467 10.7516 14.0475ZM10.7516 8.65556C10.4055 8.65556 10.0672 8.7582 9.77939 8.95049C9.4916 9.14279 9.2673 9.4161 9.13485 9.73587C9.00239 10.0556 8.96774 10.4075 9.03526 10.747C9.10279 11.0864 9.26946 11.3983 9.5142 11.643C9.75894 11.8877 10.0708 12.0544 10.4102 12.1219C10.7497 12.1895 11.1016 12.1548 11.4213 12.0224C11.7411 11.8899 12.0144 11.6656 12.2067 11.3778C12.399 11.09 12.5016 10.7517 12.5016 10.4056C12.5011 9.94159 12.3166 9.49676 11.9885 9.16868C11.6604 8.8406 11.2156 8.65607 10.7516 8.65556Z" fill="#F4522F"/>
<path d="M20.581 14.0475C19.8606 14.0476 19.1564 13.8342 18.5574 13.4341C17.9583 13.0341 17.4914 12.4654 17.2156 11.7999C16.9398 11.1345 16.8676 10.4022 17.008 9.69565C17.1484 8.98913 17.4952 8.34011 18.0045 7.83069C18.5138 7.32127 19.1627 6.97432 19.8692 6.83372C20.5756 6.69312 21.308 6.76519 21.9735 7.04081C22.639 7.31642 23.2078 7.78321 23.6081 8.38214C24.0083 8.98107 24.2219 9.68523 24.2219 10.4056C24.2206 11.3709 23.8367 12.2964 23.1542 12.9791C22.4717 13.6617 21.5463 14.046 20.581 14.0475ZM20.581 8.65556C20.2348 8.65538 19.8964 8.75785 19.6084 8.95003C19.3205 9.14221 19.0961 9.41546 18.9635 9.73521C18.8309 10.055 18.7961 10.4069 18.8635 10.7464C18.9309 11.0859 19.0975 11.3978 19.3422 11.6427C19.5869 11.8875 19.8988 12.0543 20.2382 12.1219C20.5777 12.1895 20.9297 12.1549 21.2495 12.0224C21.5693 11.89 21.8427 11.6657 22.035 11.3779C22.2273 11.0901 22.33 10.7517 22.33 10.4056C22.3295 9.94175 22.1451 9.49707 21.8172 9.16901C21.4893 8.84096 21.0448 8.65632 20.581 8.65556Z" fill="#F4522F"/>
<path d="M30.4084 14.0475C29.6882 14.0467 28.9845 13.8325 28.3861 13.4318C27.7877 13.0312 27.3215 12.4622 27.0464 11.7966C26.7713 11.1311 26.6998 10.399 26.8407 9.69275C26.9817 8.98654 27.3288 8.33797 27.8383 7.82902C28.3478 7.32007 28.9967 6.97359 29.7031 6.83338C30.4094 6.69316 31.1415 6.7655 31.8067 7.04126C32.472 7.31701 33.0405 7.78381 33.4405 8.38263C33.8406 8.98146 34.0541 9.68543 34.0541 10.4056C34.0533 11.3719 33.6688 12.2983 32.9852 12.9813C32.3016 13.6642 31.3747 14.0477 30.4084 14.0475ZM30.4084 8.65556C30.0624 8.65631 29.7244 8.75958 29.4372 8.95233C29.1499 9.14508 28.9262 9.41865 28.7943 9.73849C28.6624 10.0583 28.6283 10.4101 28.6962 10.7493C28.7642 11.0885 28.9312 11.4 29.1761 11.6443C29.421 11.8887 29.7328 12.055 30.0721 12.1222C30.4115 12.1894 30.7632 12.1546 31.0827 12.022C31.4023 11.8894 31.6754 11.6651 31.8675 11.3774C32.0596 11.0897 32.1622 10.7515 32.1622 10.4056C32.1619 10.1755 32.1164 9.94774 32.0281 9.73529C31.9398 9.52283 31.8106 9.32985 31.6477 9.16734C31.4849 9.00484 31.2916 8.87601 31.0789 8.7882C30.8663 8.70038 30.6384 8.65532 30.4084 8.65556Z" fill="#F4522F"/>
<path d="M37.5607 60.5407H32.4394C32.2169 60.5407 32.0015 60.4623 31.831 60.3192C31.6606 60.1761 31.5461 59.9775 31.5076 59.7584L31.0753 57.2989C29.7751 56.9528 28.527 56.4343 27.3644 55.757L25.3145 57.1949C25.1322 57.3228 24.9107 57.3822 24.6888 57.3629C24.467 57.3435 24.2591 57.2465 24.1018 57.0889L20.4798 53.4659C20.3223 53.3085 20.2255 53.1005 20.2063 52.8787C20.1871 52.6569 20.2468 52.4354 20.3748 52.2532L21.8126 50.2043C21.1352 49.0414 20.6166 47.793 20.2707 46.4924L17.8113 46.0601C17.5918 46.022 17.3927 45.9077 17.2493 45.7372C17.1058 45.5668 17.0271 45.3512 17.0271 45.1284V40.007C17.0271 39.7845 17.1055 39.5691 17.2486 39.3987C17.3916 39.2283 17.5902 39.1138 17.8094 39.0753L20.2688 38.643C20.6147 37.3424 21.1333 36.094 21.8107 34.9311L20.3729 32.8822C20.2449 32.7 20.1852 32.4785 20.2044 32.2567C20.2236 32.0349 20.3205 31.8269 20.4779 31.6695L24.0999 28.0484C24.2572 27.8908 24.4651 27.7938 24.687 27.7744C24.9088 27.755 25.1303 27.8145 25.3126 27.9424L27.3625 29.3803C28.5251 28.703 29.7732 28.1845 31.0734 27.8384L31.5057 25.3789C31.5439 25.1591 31.6585 24.9598 31.8293 24.8163C32.0002 24.6728 32.2163 24.5943 32.4394 24.5947H37.5607C37.7832 24.5947 37.9986 24.6731 38.169 24.8162C38.3395 24.9593 38.454 25.1579 38.4925 25.377L38.9248 27.8365C40.225 28.1826 41.4731 28.7011 42.6357 29.3784L44.6856 27.9405C44.8679 27.8126 45.0894 27.7531 45.3112 27.7725C45.5331 27.7919 45.7409 27.8889 45.8983 28.0465L49.5203 31.6676C49.6777 31.825 49.7746 32.033 49.7938 32.2548C49.813 32.4766 49.7533 32.6981 49.6253 32.8803L48.1875 34.9292C48.8649 36.0921 49.3834 37.3405 49.7294 38.6411L52.1888 39.0734C52.408 39.1119 52.6066 39.2264 52.7496 39.3968C52.8927 39.5672 52.9711 39.7826 52.9711 40.0051V45.1265C52.9711 45.349 52.8927 45.5644 52.7496 45.7348C52.6066 45.9052 52.408 46.0197 52.1888 46.0582L49.7294 46.4905C49.3834 47.7911 48.8649 49.0395 48.1875 50.2024L49.6253 52.2513C49.7533 52.4335 49.813 52.655 49.7938 52.8768C49.7746 53.0986 49.6777 53.3066 49.5203 53.464L45.8983 57.0851C45.7409 57.2427 45.5331 57.3397 45.3112 57.3591C45.0894 57.3785 44.8679 57.319 44.6856 57.1911L42.6357 55.7532C41.4731 56.4305 40.225 56.949 38.9248 57.2951L38.4925 59.7546C38.4548 59.9744 38.3406 60.1739 38.1701 60.3177C37.9996 60.4616 37.7838 60.5405 37.5607 60.5407ZM33.234 58.6488H36.7661L37.1445 56.5109C37.1459 56.2994 37.2192 56.0947 37.3522 55.9302C37.4852 55.7657 37.6701 55.6513 37.8767 55.6057C39.4149 55.2671 40.8804 54.6569 42.2044 53.8036C42.4013 53.6771 42.6381 53.628 42.8691 53.6659C43.1001 53.7038 43.3088 53.826 43.4549 54.0089L43.4681 54.0269L45.1236 55.1876L47.6209 52.6893L46.4081 50.962C46.2418 50.8164 46.1331 50.6161 46.1017 50.3973C46.0703 50.1785 46.1183 49.9557 46.2369 49.7692C47.0889 48.4451 47.6975 46.9795 48.0342 45.4415C48.0805 45.2234 48.2029 45.0289 48.3795 44.8928C48.5562 44.7567 48.7755 44.688 48.9981 44.6989L51.0792 44.3338V40.8016L48.9414 40.4232C48.7299 40.4216 48.5253 40.3483 48.3608 40.2153C48.1964 40.0824 48.0819 39.8975 48.0361 39.6911C47.6994 38.153 47.0908 36.6874 46.2388 35.3634C46.1124 35.1671 46.063 34.9309 46.1002 34.7004C46.1374 34.4699 46.2585 34.2613 46.4403 34.1147L46.4583 34.1005L47.6209 32.4461L45.1217 29.9478L43.3953 31.1577C43.2503 31.3248 43.0501 31.4343 42.8312 31.4663C42.6123 31.4982 42.3892 31.4505 42.2025 31.3318C40.8785 30.4785 39.413 29.8683 37.8748 29.5297C37.6576 29.4821 37.464 29.3595 37.3283 29.1834C37.1925 29.0073 37.123 28.7889 37.1322 28.5668L36.7661 26.4866H33.234L32.8556 28.6245C32.8541 28.836 32.7809 29.0407 32.6479 29.2052C32.5149 29.3697 32.33 29.4841 32.1234 29.5297C30.5852 29.8683 29.1196 30.4785 27.7957 31.3318C27.5988 31.4583 27.362 31.5074 27.131 31.4695C26.9 31.4316 26.6913 31.3094 26.5452 31.1265L26.5319 31.1085L24.8784 29.9478L22.3792 32.4461L23.5919 34.1734C23.7583 34.319 23.867 34.5193 23.8984 34.7381C23.9298 34.9569 23.8818 35.1797 23.7632 35.3662C22.9112 36.6903 22.3025 38.1559 21.9659 39.6939C21.9182 39.9113 21.7954 40.1049 21.6191 40.2407C21.4428 40.3766 21.2243 40.4459 21.0019 40.4365L18.9209 40.8016V44.3338L21.0587 44.7122C21.2702 44.7138 21.4748 44.7871 21.6393 44.9201C21.8037 45.053 21.9182 45.2379 21.964 45.4443C22.3007 46.9824 22.9093 48.4479 23.7613 49.772C23.8877 49.9683 23.9371 50.2045 23.8999 50.435C23.8627 50.6655 23.7415 50.8741 23.5598 51.0207L23.5418 51.0349L22.3792 52.6893L24.8784 55.1876L26.6048 53.9777C26.7501 53.8111 26.9502 53.7019 27.169 53.67C27.3878 53.6381 27.6107 53.6855 27.7976 53.8036C29.1215 54.6569 30.5871 55.2671 32.1253 55.6057C32.3425 55.6533 32.536 55.7759 32.6718 55.952C32.8076 56.1281 32.877 56.3464 32.8679 56.5686L33.234 58.6488Z" fill="#F4522F"/>
<path d="M35 52.0271C33.1291 52.0271 31.3002 51.4723 29.7446 50.4329C28.189 49.3935 26.9766 47.9161 26.2606 46.1876C25.5446 44.4591 25.3573 42.5571 25.7223 40.7222C26.0873 38.8872 26.9882 37.2017 28.3111 35.8788C29.6341 34.5558 31.3196 33.6549 33.1545 33.2899C34.9895 32.9249 36.8915 33.1123 38.62 33.8282C40.3485 34.5442 41.8258 35.7566 42.8653 37.3122C43.9047 38.8678 44.4595 40.6967 44.4595 42.5676C44.4567 45.0756 43.4592 47.48 41.6858 49.2534C39.9124 51.0268 37.508 52.0243 35 52.0271ZM35 35.0001C33.5033 35.0001 32.0402 35.4439 30.7957 36.2754C29.5512 37.107 28.5812 38.2889 28.0085 39.6716C27.4357 41.0544 27.2858 42.576 27.5778 44.044C27.8698 45.512 28.5906 46.8604 29.6489 47.9187C30.7073 48.9771 32.0557 49.6978 33.5236 49.9898C34.9916 50.2818 36.5132 50.1319 37.896 49.5592C39.2788 48.9864 40.4607 48.0164 41.2922 46.7719C42.1237 45.5275 42.5676 44.0644 42.5676 42.5676C42.5653 40.5613 41.7673 38.6377 40.3486 37.219C38.9299 35.8003 37.0064 35.0023 35 35.0001Z" fill="#F4522F"/>
</g>
<defs>
<clipPath id="clip0">
<rect width="70" height="70" fill="white"/>
</clipPath>
</defs>
</svg>
